{
  "accessors": [
    {
      "bufferView": 0,
      "componentType": 5126,
      "count": 82,
      "max": [
        -0.1900000125169754,
        0.09000000357627869,
        1.3249999284744263
      ],
      "min": [
        -0.4100000262260437,
        0.05000000074505806,
        0.7749999761581421
      ],
      "type": "VEC3"
    },
    {
      "bufferView": 1,
      "componentType": 5126,
      "count": 82,
      "type": "VEC3"
    },
    {
      "bufferView": 2,
      "componentType": 5126,
      "count": 82,
      "type": "VEC2"
    },
    {
      "bufferView": 3,
      "componentType": 5123,
      "count": 132,
      "type": "SCALAR"
    },
    {
      "bufferView": 4,
      "componentType": 5126,
      "count": 82,
      "max": [
        0.4100000262260437,
        0.09000000357627869,
        1.3249999284744263
      ],
      "min": [
        0.1900000125169754,
        0.05000000074505806,
        0.7749999761581421
      ],
      "type": "VEC3"
    },
    {
      "bufferView": 5,
      "componentType": 5126,
      "count": 82,
      "type": "VEC3"
    },
    {
      "bufferView": 6,
      "componentType": 5126,
      "count": 82,
      "type": "VEC2"
    },
    {
      "bufferView": 7,
      "componentType": 5126,
      "count": 36,
      "max": [
        -0.27575114369392395,
        0.0980001837015152,
        1.100000023841858
      ],
      "min": [
        -0.32424888014793396,
        0.04199982061982155,
        -1.100000023841858
      ],
      "type": "VEC3"
    },
    {
      "bufferView": 8,
      "componentType": 5126,
      "count": 36,
      "type": "VEC3"
    },
    {
      "bufferView": 9,
      "componentType": 5126,
      "count": 36,
      "type": "VEC2"
    },
    {
      "bufferView": 10,
      "componentType": 5123,
      "count": 60,
      "type": "SCALAR"
    },
    {
      "bufferView": 11,
      "componentType": 5126,
      "count": 36,
      "max": [
        0.32424888014793396,
        0.0980001837015152,
        1.100000023841858
      ],
      "min": [
        0.27575114369392395,
        0.04199982061982155,
        -1.100000023841858
      ],
      "type": "VEC3"
    },
    {
      "bufferView": 12,
      "componentType": 5126,
      "count": 36,
      "type": "VEC3"
    },
    {
      "bufferView": 13,
      "componentType": 5126,
      "count": 36,
      "type": "VEC2"
    }
  ],
  "asset": {
    "generator": "Khronos glTF Blender I/O v5.2.40",
    "version": "2.0"
  },
  "bufferViews": [
    {
      "buffer": 0,
      "byteLength": 984,
      "byteOffset": 0,
      "target": 34962
    },
    {
      "buffer": 0,
      "byteLength": 984,
      "byteOffset": 984,
      "target": 34962
    },
    {
      "buffer": 0,
      "byteLength": 656,
      "byteOffset": 1968,
      "target": 34962
    },
    {
      "buffer": 0,
      "byteLength": 264,
      "byteOffset": 2624,
      "target": 34963
    },
    {
      "buffer": 0,
      "byteLength": 984,
      "byteOffset": 2888,
      "target": 34962
    },
    {
      "buffer": 0,
      "byteLength": 984,
      "byteOffset": 3872,
      "target": 34962
    },
    {
      "buffer": 0,
      "byteLength": 656,
      "byteOffset": 4856,
      "target": 34962
    },
    {
      "buffer": 0,
      "byteLength": 432,
      "byteOffset": 5512,
      "target": 34962
    },
    {
      "buffer": 0,
      "byteLength": 432,
      "byteOffset": 5944,
      "target": 34962
    },
    {
      "buffer": 0,
      "byteLength": 288,
      "byteOffset": 6376,
      "target": 34962
    },
    {
      "buffer": 0,
      "byteLength": 120,
      "byteOffset": 6664,
      "target": 34963
    },
    {
      "buffer": 0,
      "byteLength": 432,
      "byteOffset": 6784,
      "target": 34962
    },
    {
      "buffer": 0,
      "byteLength": 432,
      "byteOffset": 7216,
      "target": 34962
    },
    {
      "buffer": 0,
      "byteLength": 288,
      "byteOffset": 7648,
      "target": 34962
    }
  ],
  "buffers": [
    {
      "byteLength": 7936,
      "uri": "oars.bin"
    }
  ],
  "materials": [
    {
      "doubleSided": true,
      "name": "Coast_plank",
      "pbrMetallicRoughness": {
        "baseColorFactor": [
          0.5099999904632568,
          0.3700000047683716,
          0.2199999988079071,
          1
        ],
        "metallicFactor": 0,
        "roughnessFactor": 0.8500000238418579
      }
    },
    {
      "doubleSided": true,
      "name": "Coast_wood",
      "pbrMetallicRoughness": {
        "baseColorFactor": [
          0.3100000023841858,
          0.20000000298023224,
          0.11999999731779099,
          1
        ],
        "metallicFactor": 0,
        "roughnessFactor": 0.8700000047683716
      }
    }
  ],
  "meshes": [
    {
      "name": "Cube",
      "primitives": [
        {
          "attributes": {
            "NORMAL": 1,
            "POSITION": 0,
            "TEXCOORD_0": 2
          },
          "indices": 3,
          "material": 0
        }
      ]
    },
    {
      "name": "Cube.001",
      "primitives": [
        {
          "attributes": {
            "NORMAL": 5,
            "POSITION": 4,
            "TEXCOORD_0": 6
          },
          "indices": 3,
          "material": 0
        }
      ]
    },
    {
      "name": "Cone",
      "primitives": [
        {
          "attributes": {
            "NORMAL": 8,
            "POSITION": 7,
            "TEXCOORD_0": 9
          },
          "indices": 10,
          "material": 1
        }
      ]
    },
    {
      "name": "Cone.001",
      "primitives": [
        {
          "attributes": {
            "NORMAL": 12,
            "POSITION": 11,
            "TEXCOORD_0": 13
          },
          "indices": 10,
          "material": 1
        }
      ]
    }
  ],
  "nodes": [
    {
      "mesh": 0,
      "name": "Blade"
    },
    {
      "mesh": 1,
      "name": "Blade.001"
    },
    {
      "mesh": 2,
      "name": "Shaft"
    },
    {
      "mesh": 3,
      "name": "Shaft.001"
    }
  ],
  "scene": 0,
  "scenes": [
    {
      "name": "Scene",
      "nodes": [
        0,
        1,
        2,
        3
      ]
    }
  ]
}
