{
  "accessors": [
    {
      "bufferView": 0,
      "componentType": 5126,
      "count": 42,
      "max": [
        -0.1980000138282776,
        0.09000000357627869,
        1.3194000720977783
      ],
      "min": [
        -0.4036000370979309,
        0.05000000074505806,
        0.7805999517440796
      ],
      "type": "VEC3"
    },
    {
      "bufferView": 1,
      "componentType": 5126,
      "count": 42,
      "type": "VEC3"
    },
    {
      "bufferView": 2,
      "componentType": 5126,
      "count": 42,
      "type": "VEC2"
    },
    {
      "bufferView": 3,
      "componentType": 5123,
      "count": 42,
      "type": "SCALAR"
    },
    {
      "bufferView": 4,
      "componentType": 5126,
      "count": 42,
      "max": [
        0.4036000370979309,
        0.09000000357627869,
        1.3194000720977783
      ],
      "min": [
        0.1980000138282776,
        0.05000000074505806,
        0.7805999517440796
      ],
      "type": "VEC3"
    },
    {
      "bufferView": 5,
      "componentType": 5126,
      "count": 42,
      "type": "VEC3"
    },
    {
      "bufferView": 6,
      "componentType": 5126,
      "count": 42,
      "type": "VEC2"
    },
    {
      "bufferView": 7,
      "componentType": 5123,
      "count": 42,
      "type": "SCALAR"
    },
    {
      "bufferView": 8,
      "componentType": 5126,
      "count": 28,
      "max": [
        -0.27134227752685547,
        0.09672710299491882,
        1.1000001430511475
      ],
      "min": [
        -0.3242485523223877,
        0.04199982061982155,
        -1.1000001430511475
      ],
      "type": "VEC3"
    },
    {
      "bufferView": 9,
      "componentType": 5126,
      "count": 28,
      "type": "VEC3"
    },
    {
      "bufferView": 10,
      "componentType": 5126,
      "count": 28,
      "type": "VEC2"
    },
    {
      "bufferView": 11,
      "componentType": 5123,
      "count": 30,
      "type": "SCALAR"
    },
    {
      "bufferView": 12,
      "componentType": 5126,
      "count": 28,
      "max": [
        0.3242485523223877,
        0.09672746807336807,
        1.1000001430511475
      ],
      "min": [
        0.27134227752685547,
        0.0420001782476902,
        -1.1000001430511475
      ],
      "type": "VEC3"
    },
    {
      "bufferView": 13,
      "componentType": 5126,
      "count": 28,
      "type": "VEC3"
    },
    {
      "bufferView": 14,
      "componentType": 5126,
      "count": 28,
      "type": "VEC2"
    },
    {
      "bufferView": 15,
      "componentType": 5123,
      "count": 30,
      "type": "SCALAR"
    }
  ],
  "asset": {
    "generator": "Khronos glTF Blender I/O v5.2.40",
    "version": "2.0"
  },
  "bufferViews": [
    {
      "buffer": 0,
      "byteLength": 504,
      "byteOffset": 0,
      "target": 34962
    },
    {
      "buffer": 0,
      "byteLength": 504,
      "byteOffset": 504,
      "target": 34962
    },
    {
      "buffer": 0,
      "byteLength": 336,
      "byteOffset": 1008,
      "target": 34962
    },
    {
      "buffer": 0,
      "byteLength": 84,
      "byteOffset": 1344,
      "target": 34963
    },
    {
      "buffer": 0,
      "byteLength": 504,
      "byteOffset": 1428,
      "target": 34962
    },
    {
      "buffer": 0,
      "byteLength": 504,
      "byteOffset": 1932,
      "target": 34962
    },
    {
      "buffer": 0,
      "byteLength": 336,
      "byteOffset": 2436,
      "target": 34962
    },
    {
      "buffer": 0,
      "byteLength": 84,
      "byteOffset": 2772,
      "target": 34963
    },
    {
      "buffer": 0,
      "byteLength": 336,
      "byteOffset": 2856,
      "target": 34962
    },
    {
      "buffer": 0,
      "byteLength": 336,
      "byteOffset": 3192,
      "target": 34962
    },
    {
      "buffer": 0,
      "byteLength": 224,
      "byteOffset": 3528,
      "target": 34962
    },
    {
      "buffer": 0,
      "byteLength": 60,
      "byteOffset": 3752,
      "target": 34963
    },
    {
      "buffer": 0,
      "byteLength": 336,
      "byteOffset": 3812,
      "target": 34962
    },
    {
      "buffer": 0,
      "byteLength": 336,
      "byteOffset": 4148,
      "target": 34962
    },
    {
      "buffer": 0,
      "byteLength": 224,
      "byteOffset": 4484,
      "target": 34962
    },
    {
      "buffer": 0,
      "byteLength": 60,
      "byteOffset": 4708,
      "target": 34963
    }
  ],
  "buffers": [
    {
      "byteLength": 4768,
      "uri": "boats.oars.lod1.bin"
    }
  ],
  "materials": [
    {
      "doubleSided": true,
      "name": "Coast_plank",
      "pbrMetallicRoughness": {
        "baseColorFactor": [
          0.5099999904632568,
          0.3700000047683716,
          0.2199999988079071,
          1
        ],
        "metallicFactor": 0,
        "roughnessFactor": 0.8500000238418579
      }
    },
    {
      "doubleSided": true,
      "name": "Coast_wood",
      "pbrMetallicRoughness": {
        "baseColorFactor": [
          0.3100000023841858,
          0.20000000298023224,
          0.11999999731779099,
          1
        ],
        "metallicFactor": 0,
        "roughnessFactor": 0.8700000047683716
      }
    }
  ],
  "meshes": [
    {
      "name": "Cube",
      "primitives": [
        {
          "attributes": {
            "NORMAL": 1,
            "POSITION": 0,
            "TEXCOORD_0": 2
          },
          "indices": 3,
          "material": 0
        }
      ]
    },
    {
      "name": "Cube.001",
      "primitives": [
        {
          "attributes": {
            "NORMAL": 5,
            "POSITION": 4,
            "TEXCOORD_0": 6
          },
          "indices": 7,
          "material": 0
        }
      ]
    },
    {
      "name": "Cone",
      "primitives": [
        {
          "attributes": {
            "NORMAL": 9,
            "POSITION": 8,
            "TEXCOORD_0": 10
          },
          "indices": 11,
          "material": 1
        }
      ]
    },
    {
      "name": "Cone.001",
      "primitives": [
        {
          "attributes": {
            "NORMAL": 13,
            "POSITION": 12,
            "TEXCOORD_0": 14
          },
          "indices": 15,
          "material": 1
        }
      ]
    }
  ],
  "nodes": [
    {
      "mesh": 0,
      "name": "Blade"
    },
    {
      "mesh": 1,
      "name": "Blade.001"
    },
    {
      "mesh": 2,
      "name": "Shaft"
    },
    {
      "mesh": 3,
      "name": "Shaft.001"
    }
  ],
  "scene": 0,
  "scenes": [
    {
      "name": "Scene",
      "nodes": [
        0,
        1,
        2,
        3
      ]
    }
  ]
}
