{
  "accessors": [
    {
      "bufferView": 0,
      "componentType": 5126,
      "count": 28,
      "max": [
        -0.02094069868326187,
        1.15500009059906,
        3.4379842281341553
      ],
      "min": [
        -0.7415449619293213,
        1.0449999570846558,
        2.6620163917541504
      ],
      "type": "VEC3"
    },
    {
      "bufferView": 1,
      "componentType": 5126,
      "count": 28,
      "type": "VEC3"
    },
    {
      "bufferView": 2,
      "componentType": 5126,
      "count": 28,
      "type": "VEC2"
    },
    {
      "bufferView": 3,
      "componentType": 5123,
      "count": 30,
      "type": "SCALAR"
    },
    {
      "bufferView": 4,
      "componentType": 5126,
      "count": 28,
      "max": [
        0.7415449619293213,
        1.1549999713897705,
        3.4379842281341553
      ],
      "min": [
        0.020940681919455528,
        1.0449999570846558,
        2.6620163917541504
      ],
      "type": "VEC3"
    },
    {
      "bufferView": 5,
      "componentType": 5126,
      "count": 28,
      "type": "VEC3"
    },
    {
      "bufferView": 6,
      "componentType": 5126,
      "count": 28,
      "type": "VEC2"
    },
    {
      "bufferView": 7,
      "componentType": 5123,
      "count": 30,
      "type": "SCALAR"
    },
    {
      "bufferView": 8,
      "componentType": 5126,
      "count": 28,
      "max": [
        -0.6667447090148926,
        1.1525001525878906,
        2.715761661529541
      ],
      "min": [
        -1.0957261323928833,
        1.0475000143051147,
        1.4903004169464111
      ],
      "type": "VEC3"
    },
    {
      "bufferView": 9,
      "componentType": 5126,
      "count": 28,
      "type": "VEC3"
    },
    {
      "bufferView": 10,
      "componentType": 5126,
      "count": 28,
      "type": "VEC2"
    },
    {
      "bufferView": 11,
      "componentType": 5123,
      "count": 30,
      "type": "SCALAR"
    },
    {
      "bufferView": 12,
      "componentType": 5126,
      "count": 28,
      "max": [
        1.1040400266647339,
        1.152500033378601,
        2.713336706161499
      ],
      "min": [
        0.6542738676071167,
        1.0550000667572021,
        1.4903005361557007
      ],
      "type": "VEC3"
    },
    {
      "bufferView": 13,
      "componentType": 5126,
      "count": 28,
      "type": "VEC3"
    },
    {
      "bufferView": 14,
      "componentType": 5126,
      "count": 28,
      "type": "VEC2"
    },
    {
      "bufferView": 15,
      "componentType": 5123,
      "count": 30,
      "type": "SCALAR"
    },
    {
      "bufferView": 16,
      "componentType": 5126,
      "count": 28,
      "max": [
        -1.0026049613952637,
        1.1525001525878906,
        1.50473952293396
      ],
      "min": [
        -1.2344691753387451,
        1.0475000143051147,
        -0.0056012459099292755
      ],
      "type": "VEC3"
    },
    {
      "bufferView": 17,
      "componentType": 5126,
      "count": 28,
      "type": "VEC3"
    },
    {
      "bufferView": 18,
      "componentType": 5126,
      "count": 28,
      "type": "VEC2"
    },
    {
      "bufferView": 19,
      "componentType": 5123,
      "count": 30,
      "type": "SCALAR"
    },
    {
      "bufferView": 20,
      "componentType": 5126,
      "count": 28,
      "max": [
        1.2344691753387451,
        1.152500033378601,
        1.50473952293396
      ],
      "min": [
        1.0026049613952637,
        1.0475000143051147,
        -0.005601244978606701
      ],
      "type": "VEC3"
    },
    {
      "bufferView": 21,
      "componentType": 5126,
      "count": 28,
      "type": "VEC3"
    },
    {
      "bufferView": 22,
      "componentType": 5126,
      "count": 28,
      "type": "VEC2"
    },
    {
      "bufferView": 23,
      "componentType": 5123,
      "count": 30,
      "type": "SCALAR"
    },
    {
      "bufferView": 24,
      "componentType": 5126,
      "count": 22,
      "max": [
        1.1715012788772583,
        1.1169381141662598,
        3.39784836769104
      ],
      "min": [
        -1.1714301109313965,
        0.23028779029846191,
        -0.002698492957279086
      ],
      "type": "VEC3"
    },
    {
      "bufferView": 25,
      "componentType": 5126,
      "count": 22,
      "type": "VEC3"
    },
    {
      "bufferView": 26,
      "componentType": 5123,
      "count": 120,
      "type": "SCALAR"
    },
    {
      "bufferView": 27,
      "componentType": 5126,
      "count": 24,
      "max": [
        0.6299999952316284,
        0.9449999928474426,
        2.809999942779541
      ],
      "min": [
        -0.6299999952316284,
        0.8549999594688416,
        2.5900001525878906
      ],
      "type": "VEC3"
    },
    {
      "bufferView": 28,
      "componentType": 5126,
      "count": 24,
      "type": "VEC3"
    },
    {
      "bufferView": 29,
      "componentType": 5126,
      "count": 24,
      "type": "VEC2"
    },
    {
      "bufferView": 30,
      "componentType": 5123,
      "count": 36,
      "type": "SCALAR"
    },
    {
      "bufferView": 31,
      "componentType": 5126,
      "count": 24,
      "max": [
        0.9449999928474426,
        0.9449999928474426,
        1.6100000143051147
      ],
      "min": [
        -0.9449999928474426,
        0.8549999594688416,
        1.3899999856948853
      ],
      "type": "VEC3"
    },
    {
      "bufferView": 32,
      "componentType": 5126,
      "count": 24,
      "type": "VEC3"
    },
    {
      "bufferView": 33,
      "componentType": 5126,
      "count": 24,
      "type": "VEC2"
    }
  ],
  "asset": {
    "generator": "Khronos glTF Blender I/O v5.2.40",
    "version": "2.0"
  },
  "bufferViews": [
    {
      "buffer": 0,
      "byteLength": 336,
      "byteOffset": 0,
      "target": 34962
    },
    {
      "buffer": 0,
      "byteLength": 336,
      "byteOffset": 336,
      "target": 34962
    },
    {
      "buffer": 0,
      "byteLength": 224,
      "byteOffset": 672,
      "target": 34962
    },
    {
      "buffer": 0,
      "byteLength": 60,
      "byteOffset": 896,
      "target": 34963
    },
    {
      "buffer": 0,
      "byteLength": 336,
      "byteOffset": 956,
      "target": 34962
    },
    {
      "buffer": 0,
      "byteLength": 336,
      "byteOffset": 1292,
      "target": 34962
    },
    {
      "buffer": 0,
      "byteLength": 224,
      "byteOffset": 1628,
      "target": 34962
    },
    {
      "buffer": 0,
      "byteLength": 60,
      "byteOffset": 1852,
      "target": 34963
    },
    {
      "buffer": 0,
      "byteLength": 336,
      "byteOffset": 1912,
      "target": 34962
    },
    {
      "buffer": 0,
      "byteLength": 336,
      "byteOffset": 2248,
      "target": 34962
    },
    {
      "buffer": 0,
      "byteLength": 224,
      "byteOffset": 2584,
      "target": 34962
    },
    {
      "buffer": 0,
      "byteLength": 60,
      "byteOffset": 2808,
      "target": 34963
    },
    {
      "buffer": 0,
      "byteLength": 336,
      "byteOffset": 2868,
      "target": 34962
    },
    {
      "buffer": 0,
      "byteLength": 336,
      "byteOffset": 3204,
      "target": 34962
    },
    {
      "buffer": 0,
      "byteLength": 224,
      "byteOffset": 3540,
      "target": 34962
    },
    {
      "buffer": 0,
      "byteLength": 60,
      "byteOffset": 3764,
      "target": 34963
    },
    {
      "buffer": 0,
      "byteLength": 336,
      "byteOffset": 3824,
      "target": 34962
    },
    {
      "buffer": 0,
      "byteLength": 336,
      "byteOffset": 4160,
      "target": 34962
    },
    {
      "buffer": 0,
      "byteLength": 224,
      "byteOffset": 4496,
      "target": 34962
    },
    {
      "buffer": 0,
      "byteLength": 60,
      "byteOffset": 4720,
      "target": 34963
    },
    {
      "buffer": 0,
      "byteLength": 336,
      "byteOffset": 4780,
      "target": 34962
    },
    {
      "buffer": 0,
      "byteLength": 336,
      "byteOffset": 5116,
      "target": 34962
    },
    {
      "buffer": 0,
      "byteLength": 224,
      "byteOffset": 5452,
      "target": 34962
    },
    {
      "buffer": 0,
      "byteLength": 60,
      "byteOffset": 5676,
      "target": 34963
    },
    {
      "buffer": 0,
      "byteLength": 264,
      "byteOffset": 5736,
      "target": 34962
    },
    {
      "buffer": 0,
      "byteLength": 264,
      "byteOffset": 6000,
      "target": 34962
    },
    {
      "buffer": 0,
      "byteLength": 240,
      "byteOffset": 6264,
      "target": 34963
    },
    {
      "buffer": 0,
      "byteLength": 288,
      "byteOffset": 6504,
      "target": 34962
    },
    {
      "buffer": 0,
      "byteLength": 288,
      "byteOffset": 6792,
      "target": 34962
    },
    {
      "buffer": 0,
      "byteLength": 192,
      "byteOffset": 7080,
      "target": 34962
    },
    {
      "buffer": 0,
      "byteLength": 72,
      "byteOffset": 7272,
      "target": 34963
    },
    {
      "buffer": 0,
      "byteLength": 288,
      "byteOffset": 7344,
      "target": 34962
    },
    {
      "buffer": 0,
      "byteLength": 288,
      "byteOffset": 7632,
      "target": 34962
    },
    {
      "buffer": 0,
      "byteLength": 192,
      "byteOffset": 7920,
      "target": 34962
    }
  ],
  "buffers": [
    {
      "byteLength": 8112,
      "uri": "boats.wreck_bow.lod1.bin"
    }
  ],
  "materials": [
    {
      "doubleSided": true,
      "name": "Coast_wood",
      "pbrMetallicRoughness": {
        "baseColorFactor": [
          0.3100000023841858,
          0.20000000298023224,
          0.11999999731779099,
          1
        ],
        "metallicFactor": 0,
        "roughnessFactor": 0.8700000047683716
      }
    },
    {
      "doubleSided": true,
      "name": "Coast_plank",
      "pbrMetallicRoughness": {
        "baseColorFactor": [
          0.5099999904632568,
          0.3700000047683716,
          0.2199999988079071,
          1
        ],
        "metallicFactor": 0,
        "roughnessFactor": 0.8500000238418579
      }
    }
  ],
  "meshes": [
    {
      "name": "Cone",
      "primitives": [
        {
          "attributes": {
            "NORMAL": 1,
            "POSITION": 0,
            "TEXCOORD_0": 2
          },
          "indices": 3,
          "material": 0
        }
      ]
    },
    {
      "name": "Cone.001",
      "primitives": [
        {
          "attributes": {
            "NORMAL": 5,
            "POSITION": 4,
            "TEXCOORD_0": 6
          },
          "indices": 7,
          "material": 0
        }
      ]
    },
    {
      "name": "Cone.002",
      "primitives": [
        {
          "attributes": {
            "NORMAL": 9,
            "POSITION": 8,
            "TEXCOORD_0": 10
          },
          "indices": 11,
          "material": 0
        }
      ]
    },
    {
      "name": "Cone.003",
      "primitives": [
        {
          "attributes": {
            "NORMAL": 13,
            "POSITION": 12,
            "TEXCOORD_0": 14
          },
          "indices": 15,
          "material": 0
        }
      ]
    },
    {
      "name": "Cone.004",
      "primitives": [
        {
          "attributes": {
            "NORMAL": 17,
            "POSITION": 16,
            "TEXCOORD_0": 18
          },
          "indices": 19,
          "material": 0
        }
      ]
    },
    {
      "name": "Cone.005",
      "primitives": [
        {
          "attributes": {
            "NORMAL": 21,
            "POSITION": 20,
            "TEXCOORD_0": 22
          },
          "indices": 23,
          "material": 0
        }
      ]
    },
    {
      "name": "Hull",
      "primitives": [
        {
          "attributes": {
            "NORMAL": 25,
            "POSITION": 24
          },
          "indices": 26,
          "material": 1
        }
      ]
    },
    {
      "name": "Cube",
      "primitives": [
        {
          "attributes": {
            "NORMAL": 28,
            "POSITION": 27,
            "TEXCOORD_0": 29
          },
          "indices": 30,
          "material": 0
        }
      ]
    },
    {
      "name": "Cube.001",
      "primitives": [
        {
          "attributes": {
            "NORMAL": 32,
            "POSITION": 31,
            "TEXCOORD_0": 33
          },
          "indices": 30,
          "material": 0
        }
      ]
    }
  ],
  "nodes": [
    {
      "mesh": 0,
      "name": "Gunwale"
    },
    {
      "mesh": 1,
      "name": "Gunwale.001"
    },
    {
      "mesh": 2,
      "name": "Gunwale.002"
    },
    {
      "mesh": 3,
      "name": "Gunwale.003"
    },
    {
      "mesh": 4,
      "name": "Gunwale.004"
    },
    {
      "mesh": 5,
      "name": "Gunwale.005"
    },
    {
      "mesh": 6,
      "name": "Hull"
    },
    {
      "mesh": 7,
      "name": "Seat"
    },
    {
      "mesh": 8,
      "name": "Seat.001"
    }
  ],
  "scene": 0,
  "scenes": [
    {
      "name": "Scene",
      "nodes": [
        0,
        1,
        2,
        3,
        4,
        5,
        6,
        7,
        8
      ]
    }
  ]
}
