{
  "accessors": [
    {
      "bufferView": 0,
      "componentType": 5126,
      "count": 42,
      "max": [
        0.30000001192092896,
        0.11999999731779099,
        0.30000004172325134
      ],
      "min": [
        -0.30000004172325134,
        0,
        -0.30000004172325134
      ],
      "type": "VEC3"
    },
    {
      "bufferView": 1,
      "componentType": 5126,
      "count": 42,
      "type": "VEC3"
    },
    {
      "bufferView": 2,
      "componentType": 5126,
      "count": 42,
      "type": "VEC2"
    },
    {
      "bufferView": 3,
      "componentType": 5123,
      "count": 42,
      "type": "SCALAR"
    },
    {
      "bufferView": 4,
      "componentType": 5126,
      "count": 36,
      "max": [
        0.3199999928474426,
        0.6595748066902161,
        0.1095748096704483
      ],
      "min": [
        -0.3199999928474426,
        0.4399999976158142,
        -0.12134825438261032
      ],
      "type": "VEC3"
    },
    {
      "bufferView": 5,
      "componentType": 5126,
      "count": 36,
      "type": "VEC3"
    },
    {
      "bufferView": 6,
      "componentType": 5126,
      "count": 36,
      "type": "VEC2"
    },
    {
      "bufferView": 7,
      "componentType": 5123,
      "count": 42,
      "type": "SCALAR"
    },
    {
      "bufferView": 8,
      "componentType": 5126,
      "count": 114,
      "max": [
        0.42779484391212463,
        0.10284501314163208,
        -0.07220517098903656
      ],
      "min": [
        -0.427794873714447,
        0.041401319205760956,
        -0.927794873714447
      ],
      "type": "VEC3"
    },
    {
      "bufferView": 9,
      "componentType": 5126,
      "count": 114,
      "type": "VEC3"
    },
    {
      "bufferView": 10,
      "componentType": 5126,
      "count": 114,
      "type": "VEC2"
    },
    {
      "bufferView": 11,
      "componentType": 5123,
      "count": 114,
      "type": "SCALAR"
    },
    {
      "bufferView": 12,
      "componentType": 5126,
      "count": 36,
      "max": [
        0.1114252433180809,
        0.6349999904632568,
        0.11999999731779099
      ],
      "min": [
        -0.1114252433180809,
        0.08500000834465027,
        -0.1114252433180809
      ],
      "type": "VEC3"
    },
    {
      "bufferView": 13,
      "componentType": 5126,
      "count": 36,
      "type": "VEC3"
    },
    {
      "bufferView": 14,
      "componentType": 5126,
      "count": 36,
      "type": "VEC2"
    },
    {
      "bufferView": 15,
      "componentType": 5123,
      "count": 42,
      "type": "SCALAR"
    }
  ],
  "asset": {
    "generator": "Khronos glTF Blender I/O v5.2.40",
    "version": "2.0"
  },
  "bufferViews": [
    {
      "buffer": 0,
      "byteLength": 504,
      "byteOffset": 0,
      "target": 34962
    },
    {
      "buffer": 0,
      "byteLength": 504,
      "byteOffset": 504,
      "target": 34962
    },
    {
      "buffer": 0,
      "byteLength": 336,
      "byteOffset": 1008,
      "target": 34962
    },
    {
      "buffer": 0,
      "byteLength": 84,
      "byteOffset": 1344,
      "target": 34963
    },
    {
      "buffer": 0,
      "byteLength": 432,
      "byteOffset": 1428,
      "target": 34962
    },
    {
      "buffer": 0,
      "byteLength": 432,
      "byteOffset": 1860,
      "target": 34962
    },
    {
      "buffer": 0,
      "byteLength": 288,
      "byteOffset": 2292,
      "target": 34962
    },
    {
      "buffer": 0,
      "byteLength": 84,
      "byteOffset": 2580,
      "target": 34963
    },
    {
      "buffer": 0,
      "byteLength": 1368,
      "byteOffset": 2664,
      "target": 34962
    },
    {
      "buffer": 0,
      "byteLength": 1368,
      "byteOffset": 4032,
      "target": 34962
    },
    {
      "buffer": 0,
      "byteLength": 912,
      "byteOffset": 5400,
      "target": 34962
    },
    {
      "buffer": 0,
      "byteLength": 228,
      "byteOffset": 6312,
      "target": 34963
    },
    {
      "buffer": 0,
      "byteLength": 432,
      "byteOffset": 6540,
      "target": 34962
    },
    {
      "buffer": 0,
      "byteLength": 432,
      "byteOffset": 6972,
      "target": 34962
    },
    {
      "buffer": 0,
      "byteLength": 288,
      "byteOffset": 7404,
      "target": 34962
    },
    {
      "buffer": 0,
      "byteLength": 84,
      "byteOffset": 7692,
      "target": 34963
    }
  ],
  "buffers": [
    {
      "byteLength": 7776,
      "uri": "harbor.mooring.lod1.bin"
    }
  ],
  "materials": [
    {
      "doubleSided": true,
      "name": "Coast_iron",
      "pbrMetallicRoughness": {
        "baseColorFactor": [
          0.10000000149011612,
          0.12999999523162842,
          0.14000000059604645,
          1
        ],
        "metallicFactor": 0,
        "roughnessFactor": 0.6000000238418579
      }
    },
    {
      "doubleSided": true,
      "name": "Coast_rope",
      "pbrMetallicRoughness": {
        "baseColorFactor": [
          0.6200000047683716,
          0.5199999809265137,
          0.3199999928474426,
          1
        ],
        "metallicFactor": 0,
        "roughnessFactor": 0.949999988079071
      }
    }
  ],
  "meshes": [
    {
      "name": "Cone",
      "primitives": [
        {
          "attributes": {
            "NORMAL": 1,
            "POSITION": 0,
            "TEXCOORD_0": 2
          },
          "indices": 3,
          "material": 0
        }
      ]
    },
    {
      "name": "Cone.002",
      "primitives": [
        {
          "attributes": {
            "NORMAL": 5,
            "POSITION": 4,
            "TEXCOORD_0": 6
          },
          "indices": 7,
          "material": 0
        }
      ]
    },
    {
      "name": "Torus",
      "primitives": [
        {
          "attributes": {
            "NORMAL": 9,
            "POSITION": 8,
            "TEXCOORD_0": 10
          },
          "indices": 11,
          "material": 1
        }
      ]
    },
    {
      "name": "Cone.001",
      "primitives": [
        {
          "attributes": {
            "NORMAL": 13,
            "POSITION": 12,
            "TEXCOORD_0": 14
          },
          "indices": 15,
          "material": 0
        }
      ]
    }
  ],
  "nodes": [
    {
      "mesh": 0,
      "name": "Base"
    },
    {
      "mesh": 1,
      "name": "Crossbar"
    },
    {
      "mesh": 2,
      "name": "Ring"
    },
    {
      "mesh": 3,
      "name": "Stem"
    }
  ],
  "scene": 0,
  "scenes": [
    {
      "name": "Scene",
      "nodes": [
        0,
        1,
        2,
        3
      ]
    }
  ]
}
