{
  "accessors": [
    {
      "bufferView": 0,
      "componentType": 5126,
      "count": 24,
      "max": [
        -1.100000023841858,
        -0.11499999463558197,
        2
      ],
      "min": [
        -1.3000000715255737,
        -0.36500000953674316,
        -2
      ],
      "type": "VEC3"
    },
    {
      "bufferView": 1,
      "componentType": 5126,
      "count": 24,
      "type": "VEC3"
    },
    {
      "bufferView": 2,
      "componentType": 5126,
      "count": 24,
      "type": "VEC2"
    },
    {
      "bufferView": 3,
      "componentType": 5123,
      "count": 36,
      "type": "SCALAR"
    },
    {
      "bufferView": 4,
      "componentType": 5126,
      "count": 24,
      "max": [
        1.3000000715255737,
        -0.11499999463558197,
        2
      ],
      "min": [
        1.100000023841858,
        -0.36500000953674316,
        -2
      ],
      "type": "VEC3"
    },
    {
      "bufferView": 5,
      "componentType": 5126,
      "count": 24,
      "type": "VEC3"
    },
    {
      "bufferView": 6,
      "componentType": 5126,
      "count": 24,
      "type": "VEC2"
    },
    {
      "bufferView": 7,
      "componentType": 5126,
      "count": 24,
      "max": [
        1.5,
        0.07999999821186066,
        1.9950000047683716
      ],
      "min": [
        -1.5,
        -0.07999999821186066,
        1.7549999952316284
      ],
      "type": "VEC3"
    },
    {
      "bufferView": 8,
      "componentType": 5126,
      "count": 24,
      "type": "VEC3"
    },
    {
      "bufferView": 9,
      "componentType": 5126,
      "count": 24,
      "type": "VEC2"
    },
    {
      "bufferView": 10,
      "componentType": 5126,
      "count": 24,
      "max": [
        1.5,
        0.07999999821186066,
        1.7450000047683716
      ],
      "min": [
        -1.5,
        -0.07999999821186066,
        1.5049999952316284
      ],
      "type": "VEC3"
    },
    {
      "bufferView": 11,
      "componentType": 5126,
      "count": 24,
      "type": "VEC3"
    },
    {
      "bufferView": 12,
      "componentType": 5126,
      "count": 24,
      "type": "VEC2"
    },
    {
      "bufferView": 13,
      "componentType": 5126,
      "count": 24,
      "max": [
        1.5,
        0.07999999821186066,
        1.4950000047683716
      ],
      "min": [
        -1.5,
        -0.07999999821186066,
        1.2549999952316284
      ],
      "type": "VEC3"
    },
    {
      "bufferView": 14,
      "componentType": 5126,
      "count": 24,
      "type": "VEC3"
    },
    {
      "bufferView": 15,
      "componentType": 5126,
      "count": 24,
      "type": "VEC2"
    },
    {
      "bufferView": 16,
      "componentType": 5126,
      "count": 24,
      "max": [
        1.5,
        0.07999999821186066,
        1.2450000047683716
      ],
      "min": [
        -1.5,
        -0.07999999821186066,
        1.0049999952316284
      ],
      "type": "VEC3"
    },
    {
      "bufferView": 17,
      "componentType": 5126,
      "count": 24,
      "type": "VEC3"
    },
    {
      "bufferView": 18,
      "componentType": 5126,
      "count": 24,
      "type": "VEC2"
    },
    {
      "bufferView": 19,
      "componentType": 5126,
      "count": 24,
      "max": [
        1.5,
        0.07999999821186066,
        0.9950000047683716
      ],
      "min": [
        -1.5,
        -0.07999999821186066,
        0.7549999952316284
      ],
      "type": "VEC3"
    },
    {
      "bufferView": 20,
      "componentType": 5126,
      "count": 24,
      "type": "VEC3"
    },
    {
      "bufferView": 21,
      "componentType": 5126,
      "count": 24,
      "type": "VEC2"
    },
    {
      "bufferView": 22,
      "componentType": 5126,
      "count": 24,
      "max": [
        1.5,
        0.07999999821186066,
        0.7450000047683716
      ],
      "min": [
        -1.5,
        -0.07999999821186066,
        0.5049999952316284
      ],
      "type": "VEC3"
    },
    {
      "bufferView": 23,
      "componentType": 5126,
      "count": 24,
      "type": "VEC3"
    },
    {
      "bufferView": 24,
      "componentType": 5126,
      "count": 24,
      "type": "VEC2"
    },
    {
      "bufferView": 25,
      "componentType": 5126,
      "count": 24,
      "max": [
        1.5,
        0.07999999821186066,
        0.4950000047683716
      ],
      "min": [
        -1.5,
        -0.07999999821186066,
        0.2549999952316284
      ],
      "type": "VEC3"
    },
    {
      "bufferView": 26,
      "componentType": 5126,
      "count": 24,
      "type": "VEC3"
    },
    {
      "bufferView": 27,
      "componentType": 5126,
      "count": 24,
      "type": "VEC2"
    },
    {
      "bufferView": 28,
      "componentType": 5126,
      "count": 24,
      "max": [
        1.5,
        0.07999999821186066,
        0.24500000476837158
      ],
      "min": [
        -1.5,
        -0.07999999821186066,
        0.005000002682209015
      ],
      "type": "VEC3"
    },
    {
      "bufferView": 29,
      "componentType": 5126,
      "count": 24,
      "type": "VEC3"
    },
    {
      "bufferView": 30,
      "componentType": 5126,
      "count": 24,
      "type": "VEC2"
    },
    {
      "bufferView": 31,
      "componentType": 5126,
      "count": 24,
      "max": [
        1.5,
        0.07999999821186066,
        -0.005000002682209015
      ],
      "min": [
        -1.5,
        -0.07999999821186066,
        -0.24500000476837158
      ],
      "type": "VEC3"
    },
    {
      "bufferView": 32,
      "componentType": 5126,
      "count": 24,
      "type": "VEC3"
    },
    {
      "bufferView": 33,
      "componentType": 5126,
      "count": 24,
      "type": "VEC2"
    },
    {
      "bufferView": 34,
      "componentType": 5126,
      "count": 24,
      "max": [
        1.5,
        0.07999999821186066,
        -0.2549999952316284
      ],
      "min": [
        -1.5,
        -0.07999999821186066,
        -0.4950000047683716
      ],
      "type": "VEC3"
    },
    {
      "bufferView": 35,
      "componentType": 5126,
      "count": 24,
      "type": "VEC3"
    },
    {
      "bufferView": 36,
      "componentType": 5126,
      "count": 24,
      "type": "VEC2"
    },
    {
      "bufferView": 37,
      "componentType": 5126,
      "count": 24,
      "max": [
        1.5,
        0.07999999821186066,
        -0.5049999952316284
      ],
      "min": [
        -1.5,
        -0.07999999821186066,
        -0.7450000047683716
      ],
      "type": "VEC3"
    },
    {
      "bufferView": 38,
      "componentType": 5126,
      "count": 24,
      "type": "VEC3"
    },
    {
      "bufferView": 39,
      "componentType": 5126,
      "count": 24,
      "type": "VEC2"
    },
    {
      "bufferView": 40,
      "componentType": 5126,
      "count": 24,
      "max": [
        1.5,
        0.07999999821186066,
        -0.7549999952316284
      ],
      "min": [
        -1.5,
        -0.07999999821186066,
        -0.9950000047683716
      ],
      "type": "VEC3"
    },
    {
      "bufferView": 41,
      "componentType": 5126,
      "count": 24,
      "type": "VEC3"
    },
    {
      "bufferView": 42,
      "componentType": 5126,
      "count": 24,
      "type": "VEC2"
    },
    {
      "bufferView": 43,
      "componentType": 5126,
      "count": 24,
      "max": [
        1.5,
        0.07999999821186066,
        -1.0049999952316284
      ],
      "min": [
        -1.5,
        -0.07999999821186066,
        -1.2450000047683716
      ],
      "type": "VEC3"
    },
    {
      "bufferView": 44,
      "componentType": 5126,
      "count": 24,
      "type": "VEC3"
    },
    {
      "bufferView": 45,
      "componentType": 5126,
      "count": 24,
      "type": "VEC2"
    },
    {
      "bufferView": 46,
      "componentType": 5126,
      "count": 24,
      "max": [
        1.5,
        0.07999999821186066,
        -1.2549999952316284
      ],
      "min": [
        -1.5,
        -0.07999999821186066,
        -1.4950000047683716
      ],
      "type": "VEC3"
    },
    {
      "bufferView": 47,
      "componentType": 5126,
      "count": 24,
      "type": "VEC3"
    },
    {
      "bufferView": 48,
      "componentType": 5126,
      "count": 24,
      "type": "VEC2"
    },
    {
      "bufferView": 49,
      "componentType": 5126,
      "count": 24,
      "max": [
        1.5,
        0.07999999821186066,
        -1.5049999952316284
      ],
      "min": [
        -1.5,
        -0.07999999821186066,
        -1.7450000047683716
      ],
      "type": "VEC3"
    },
    {
      "bufferView": 50,
      "componentType": 5126,
      "count": 24,
      "type": "VEC3"
    },
    {
      "bufferView": 51,
      "componentType": 5126,
      "count": 24,
      "type": "VEC2"
    },
    {
      "bufferView": 52,
      "componentType": 5126,
      "count": 24,
      "max": [
        1.5,
        0.07999999821186066,
        -1.7549999952316284
      ],
      "min": [
        -1.5,
        -0.07999999821186066,
        -1.9950000047683716
      ],
      "type": "VEC3"
    },
    {
      "bufferView": 53,
      "componentType": 5126,
      "count": 24,
      "type": "VEC3"
    },
    {
      "bufferView": 54,
      "componentType": 5126,
      "count": 24,
      "type": "VEC2"
    },
    {
      "bufferView": 55,
      "componentType": 5126,
      "count": 18,
      "max": [
        -1.0328620672225952,
        0.5,
        1.69606614112854
      ],
      "min": [
        -1.357563853263855,
        -3.5,
        1.3014299869537354
      ],
      "type": "VEC3"
    },
    {
      "bufferView": 56,
      "componentType": 5126,
      "count": 18,
      "type": "VEC3"
    },
    {
      "bufferView": 57,
      "componentType": 5126,
      "count": 18,
      "type": "VEC2"
    },
    {
      "bufferView": 58,
      "componentType": 5123,
      "count": 18,
      "type": "SCALAR"
    },
    {
      "bufferView": 59,
      "componentType": 5126,
      "count": 18,
      "max": [
        -1.0328620672225952,
        0.5,
        -1.3014299869537354
      ],
      "min": [
        -1.357563853263855,
        -3.5,
        -1.69606614112854
      ],
      "type": "VEC3"
    },
    {
      "bufferView": 60,
      "componentType": 5126,
      "count": 18,
      "type": "VEC3"
    },
    {
      "bufferView": 61,
      "componentType": 5126,
      "count": 18,
      "type": "VEC2"
    },
    {
      "bufferView": 62,
      "componentType": 5123,
      "count": 18,
      "type": "SCALAR"
    },
    {
      "bufferView": 63,
      "componentType": 5126,
      "count": 18,
      "max": [
        1.357563853263855,
        0.5,
        1.69606614112854
      ],
      "min": [
        1.0328620672225952,
        -3.5,
        1.3014299869537354
      ],
      "type": "VEC3"
    },
    {
      "bufferView": 64,
      "componentType": 5126,
      "count": 18,
      "type": "VEC3"
    },
    {
      "bufferView": 65,
      "componentType": 5126,
      "count": 18,
      "type": "VEC2"
    },
    {
      "bufferView": 66,
      "componentType": 5123,
      "count": 18,
      "type": "SCALAR"
    },
    {
      "bufferView": 67,
      "componentType": 5126,
      "count": 18,
      "max": [
        1.357563853263855,
        0.5,
        -1.3014299869537354
      ],
      "min": [
        1.0328620672225952,
        -3.5,
        -1.69606614112854
      ],
      "type": "VEC3"
    },
    {
      "bufferView": 68,
      "componentType": 5126,
      "count": 18,
      "type": "VEC3"
    },
    {
      "bufferView": 69,
      "componentType": 5126,
      "count": 18,
      "type": "VEC2"
    },
    {
      "bufferView": 70,
      "componentType": 5123,
      "count": 18,
      "type": "SCALAR"
    }
  ],
  "asset": {
    "generator": "Khronos glTF Blender I/O v5.2.40",
    "version": "2.0"
  },
  "bufferViews": [
    {
      "buffer": 0,
      "byteLength": 288,
      "byteOffset": 0,
      "target": 34962
    },
    {
      "buffer": 0,
      "byteLength": 288,
      "byteOffset": 288,
      "target": 34962
    },
    {
      "buffer": 0,
      "byteLength": 192,
      "byteOffset": 576,
      "target": 34962
    },
    {
      "buffer": 0,
      "byteLength": 72,
      "byteOffset": 768,
      "target": 34963
    },
    {
      "buffer": 0,
      "byteLength": 288,
      "byteOffset": 840,
      "target": 34962
    },
    {
      "buffer": 0,
      "byteLength": 288,
      "byteOffset": 1128,
      "target": 34962
    },
    {
      "buffer": 0,
      "byteLength": 192,
      "byteOffset": 1416,
      "target": 34962
    },
    {
      "buffer": 0,
      "byteLength": 288,
      "byteOffset": 1608,
      "target": 34962
    },
    {
      "buffer": 0,
      "byteLength": 288,
      "byteOffset": 1896,
      "target": 34962
    },
    {
      "buffer": 0,
      "byteLength": 192,
      "byteOffset": 2184,
      "target": 34962
    },
    {
      "buffer": 0,
      "byteLength": 288,
      "byteOffset": 2376,
      "target": 34962
    },
    {
      "buffer": 0,
      "byteLength": 288,
      "byteOffset": 2664,
      "target": 34962
    },
    {
      "buffer": 0,
      "byteLength": 192,
      "byteOffset": 2952,
      "target": 34962
    },
    {
      "buffer": 0,
      "byteLength": 288,
      "byteOffset": 3144,
      "target": 34962
    },
    {
      "buffer": 0,
      "byteLength": 288,
      "byteOffset": 3432,
      "target": 34962
    },
    {
      "buffer": 0,
      "byteLength": 192,
      "byteOffset": 3720,
      "target": 34962
    },
    {
      "buffer": 0,
      "byteLength": 288,
      "byteOffset": 3912,
      "target": 34962
    },
    {
      "buffer": 0,
      "byteLength": 288,
      "byteOffset": 4200,
      "target": 34962
    },
    {
      "buffer": 0,
      "byteLength": 192,
      "byteOffset": 4488,
      "target": 34962
    },
    {
      "buffer": 0,
      "byteLength": 288,
      "byteOffset": 4680,
      "target": 34962
    },
    {
      "buffer": 0,
      "byteLength": 288,
      "byteOffset": 4968,
      "target": 34962
    },
    {
      "buffer": 0,
      "byteLength": 192,
      "byteOffset": 5256,
      "target": 34962
    },
    {
      "buffer": 0,
      "byteLength": 288,
      "byteOffset": 5448,
      "target": 34962
    },
    {
      "buffer": 0,
      "byteLength": 288,
      "byteOffset": 5736,
      "target": 34962
    },
    {
      "buffer": 0,
      "byteLength": 192,
      "byteOffset": 6024,
      "target": 34962
    },
    {
      "buffer": 0,
      "byteLength": 288,
      "byteOffset": 6216,
      "target": 34962
    },
    {
      "buffer": 0,
      "byteLength": 288,
      "byteOffset": 6504,
      "target": 34962
    },
    {
      "buffer": 0,
      "byteLength": 192,
      "byteOffset": 6792,
      "target": 34962
    },
    {
      "buffer": 0,
      "byteLength": 288,
      "byteOffset": 6984,
      "target": 34962
    },
    {
      "buffer": 0,
      "byteLength": 288,
      "byteOffset": 7272,
      "target": 34962
    },
    {
      "buffer": 0,
      "byteLength": 192,
      "byteOffset": 7560,
      "target": 34962
    },
    {
      "buffer": 0,
      "byteLength": 288,
      "byteOffset": 7752,
      "target": 34962
    },
    {
      "buffer": 0,
      "byteLength": 288,
      "byteOffset": 8040,
      "target": 34962
    },
    {
      "buffer": 0,
      "byteLength": 192,
      "byteOffset": 8328,
      "target": 34962
    },
    {
      "buffer": 0,
      "byteLength": 288,
      "byteOffset": 8520,
      "target": 34962
    },
    {
      "buffer": 0,
      "byteLength": 288,
      "byteOffset": 8808,
      "target": 34962
    },
    {
      "buffer": 0,
      "byteLength": 192,
      "byteOffset": 9096,
      "target": 34962
    },
    {
      "buffer": 0,
      "byteLength": 288,
      "byteOffset": 9288,
      "target": 34962
    },
    {
      "buffer": 0,
      "byteLength": 288,
      "byteOffset": 9576,
      "target": 34962
    },
    {
      "buffer": 0,
      "byteLength": 192,
      "byteOffset": 9864,
      "target": 34962
    },
    {
      "buffer": 0,
      "byteLength": 288,
      "byteOffset": 10056,
      "target": 34962
    },
    {
      "buffer": 0,
      "byteLength": 288,
      "byteOffset": 10344,
      "target": 34962
    },
    {
      "buffer": 0,
      "byteLength": 192,
      "byteOffset": 10632,
      "target": 34962
    },
    {
      "buffer": 0,
      "byteLength": 288,
      "byteOffset": 10824,
      "target": 34962
    },
    {
      "buffer": 0,
      "byteLength": 288,
      "byteOffset": 11112,
      "target": 34962
    },
    {
      "buffer": 0,
      "byteLength": 192,
      "byteOffset": 11400,
      "target": 34962
    },
    {
      "buffer": 0,
      "byteLength": 288,
      "byteOffset": 11592,
      "target": 34962
    },
    {
      "buffer": 0,
      "byteLength": 288,
      "byteOffset": 11880,
      "target": 34962
    },
    {
      "buffer": 0,
      "byteLength": 192,
      "byteOffset": 12168,
      "target": 34962
    },
    {
      "buffer": 0,
      "byteLength": 288,
      "byteOffset": 12360,
      "target": 34962
    },
    {
      "buffer": 0,
      "byteLength": 288,
      "byteOffset": 12648,
      "target": 34962
    },
    {
      "buffer": 0,
      "byteLength": 192,
      "byteOffset": 12936,
      "target": 34962
    },
    {
      "buffer": 0,
      "byteLength": 288,
      "byteOffset": 13128,
      "target": 34962
    },
    {
      "buffer": 0,
      "byteLength": 288,
      "byteOffset": 13416,
      "target": 34962
    },
    {
      "buffer": 0,
      "byteLength": 192,
      "byteOffset": 13704,
      "target": 34962
    },
    {
      "buffer": 0,
      "byteLength": 216,
      "byteOffset": 13896,
      "target": 34962
    },
    {
      "buffer": 0,
      "byteLength": 216,
      "byteOffset": 14112,
      "target": 34962
    },
    {
      "buffer": 0,
      "byteLength": 144,
      "byteOffset": 14328,
      "target": 34962
    },
    {
      "buffer": 0,
      "byteLength": 36,
      "byteOffset": 14472,
      "target": 34963
    },
    {
      "buffer": 0,
      "byteLength": 216,
      "byteOffset": 14508,
      "target": 34962
    },
    {
      "buffer": 0,
      "byteLength": 216,
      "byteOffset": 14724,
      "target": 34962
    },
    {
      "buffer": 0,
      "byteLength": 144,
      "byteOffset": 14940,
      "target": 34962
    },
    {
      "buffer": 0,
      "byteLength": 36,
      "byteOffset": 15084,
      "target": 34963
    },
    {
      "buffer": 0,
      "byteLength": 216,
      "byteOffset": 15120,
      "target": 34962
    },
    {
      "buffer": 0,
      "byteLength": 216,
      "byteOffset": 15336,
      "target": 34962
    },
    {
      "buffer": 0,
      "byteLength": 144,
      "byteOffset": 15552,
      "target": 34962
    },
    {
      "buffer": 0,
      "byteLength": 36,
      "byteOffset": 15696,
      "target": 34963
    },
    {
      "buffer": 0,
      "byteLength": 216,
      "byteOffset": 15732,
      "target": 34962
    },
    {
      "buffer": 0,
      "byteLength": 216,
      "byteOffset": 15948,
      "target": 34962
    },
    {
      "buffer": 0,
      "byteLength": 144,
      "byteOffset": 16164,
      "target": 34962
    },
    {
      "buffer": 0,
      "byteLength": 36,
      "byteOffset": 16308,
      "target": 34963
    }
  ],
  "buffers": [
    {
      "byteLength": 16344,
      "uri": "harbor.pier.lod2.bin"
    }
  ],
  "materials": [
    {
      "doubleSided": true,
      "name": "Coast_wood",
      "pbrMetallicRoughness": {
        "baseColorFactor": [
          0.3100000023841858,
          0.20000000298023224,
          0.11999999731779099,
          1
        ],
        "metallicFactor": 0,
        "roughnessFactor": 0.8700000047683716
      }
    },
    {
      "doubleSided": true,
      "name": "Coast_plank",
      "pbrMetallicRoughness": {
        "baseColorFactor": [
          0.5099999904632568,
          0.3700000047683716,
          0.2199999988079071,
          1
        ],
        "metallicFactor": 0,
        "roughnessFactor": 0.8500000238418579
      }
    }
  ],
  "meshes": [
    {
      "name": "Cube.016",
      "primitives": [
        {
          "attributes": {
            "NORMAL": 1,
            "POSITION": 0,
            "TEXCOORD_0": 2
          },
          "indices": 3,
          "material": 0
        }
      ]
    },
    {
      "name": "Cube.017",
      "primitives": [
        {
          "attributes": {
            "NORMAL": 5,
            "POSITION": 4,
            "TEXCOORD_0": 6
          },
          "indices": 3,
          "material": 0
        }
      ]
    },
    {
      "name": "Cube",
      "primitives": [
        {
          "attributes": {
            "NORMAL": 8,
            "POSITION": 7,
            "TEXCOORD_0": 9
          },
          "indices": 3,
          "material": 1
        }
      ]
    },
    {
      "name": "Cube.001",
      "primitives": [
        {
          "attributes": {
            "NORMAL": 11,
            "POSITION": 10,
            "TEXCOORD_0": 12
          },
          "indices": 3,
          "material": 1
        }
      ]
    },
    {
      "name": "Cube.002",
      "primitives": [
        {
          "attributes": {
            "NORMAL": 14,
            "POSITION": 13,
            "TEXCOORD_0": 15
          },
          "indices": 3,
          "material": 1
        }
      ]
    },
    {
      "name": "Cube.003",
      "primitives": [
        {
          "attributes": {
            "NORMAL": 17,
            "POSITION": 16,
            "TEXCOORD_0": 18
          },
          "indices": 3,
          "material": 1
        }
      ]
    },
    {
      "name": "Cube.004",
      "primitives": [
        {
          "attributes": {
            "NORMAL": 20,
            "POSITION": 19,
            "TEXCOORD_0": 21
          },
          "indices": 3,
          "material": 1
        }
      ]
    },
    {
      "name": "Cube.005",
      "primitives": [
        {
          "attributes": {
            "NORMAL": 23,
            "POSITION": 22,
            "TEXCOORD_0": 24
          },
          "indices": 3,
          "material": 1
        }
      ]
    },
    {
      "name": "Cube.006",
      "primitives": [
        {
          "attributes": {
            "NORMAL": 26,
            "POSITION": 25,
            "TEXCOORD_0": 27
          },
          "indices": 3,
          "material": 1
        }
      ]
    },
    {
      "name": "Cube.007",
      "primitives": [
        {
          "attributes": {
            "NORMAL": 29,
            "POSITION": 28,
            "TEXCOORD_0": 30
          },
          "indices": 3,
          "material": 1
        }
      ]
    },
    {
      "name": "Cube.008",
      "primitives": [
        {
          "attributes": {
            "NORMAL": 32,
            "POSITION": 31,
            "TEXCOORD_0": 33
          },
          "indices": 3,
          "material": 1
        }
      ]
    },
    {
      "name": "Cube.009",
      "primitives": [
        {
          "attributes": {
            "NORMAL": 35,
            "POSITION": 34,
            "TEXCOORD_0": 36
          },
          "indices": 3,
          "material": 1
        }
      ]
    },
    {
      "name": "Cube.010",
      "primitives": [
        {
          "attributes": {
            "NORMAL": 38,
            "POSITION": 37,
            "TEXCOORD_0": 39
          },
          "indices": 3,
          "material": 1
        }
      ]
    },
    {
      "name": "Cube.011",
      "primitives": [
        {
          "attributes": {
            "NORMAL": 41,
            "POSITION": 40,
            "TEXCOORD_0": 42
          },
          "indices": 3,
          "material": 1
        }
      ]
    },
    {
      "name": "Cube.012",
      "primitives": [
        {
          "attributes": {
            "NORMAL": 44,
            "POSITION": 43,
            "TEXCOORD_0": 45
          },
          "indices": 3,
          "material": 1
        }
      ]
    },
    {
      "name": "Cube.013",
      "primitives": [
        {
          "attributes": {
            "NORMAL": 47,
            "POSITION": 46,
            "TEXCOORD_0": 48
          },
          "indices": 3,
          "material": 1
        }
      ]
    },
    {
      "name": "Cube.014",
      "primitives": [
        {
          "attributes": {
            "NORMAL": 50,
            "POSITION": 49,
            "TEXCOORD_0": 51
          },
          "indices": 3,
          "material": 1
        }
      ]
    },
    {
      "name": "Cube.015",
      "primitives": [
        {
          "attributes": {
            "NORMAL": 53,
            "POSITION": 52,
            "TEXCOORD_0": 54
          },
          "indices": 3,
          "material": 1
        }
      ]
    },
    {
      "name": "Cone",
      "primitives": [
        {
          "attributes": {
            "NORMAL": 56,
            "POSITION": 55,
            "TEXCOORD_0": 57
          },
          "indices": 58,
          "material": 0
        }
      ]
    },
    {
      "name": "Cone.001",
      "primitives": [
        {
          "attributes": {
            "NORMAL": 60,
            "POSITION": 59,
            "TEXCOORD_0": 61
          },
          "indices": 62,
          "material": 0
        }
      ]
    },
    {
      "name": "Cone.002",
      "primitives": [
        {
          "attributes": {
            "NORMAL": 64,
            "POSITION": 63,
            "TEXCOORD_0": 65
          },
          "indices": 66,
          "material": 0
        }
      ]
    },
    {
      "name": "Cone.003",
      "primitives": [
        {
          "attributes": {
            "NORMAL": 68,
            "POSITION": 67,
            "TEXCOORD_0": 69
          },
          "indices": 70,
          "material": 0
        }
      ]
    }
  ],
  "nodes": [
    {
      "mesh": 0,
      "name": "Bearer"
    },
    {
      "mesh": 1,
      "name": "Bearer.001"
    },
    {
      "mesh": 2,
      "name": "DeckPlank"
    },
    {
      "mesh": 3,
      "name": "DeckPlank.001"
    },
    {
      "mesh": 4,
      "name": "DeckPlank.002"
    },
    {
      "mesh": 5,
      "name": "DeckPlank.003"
    },
    {
      "mesh": 6,
      "name": "DeckPlank.004"
    },
    {
      "mesh": 7,
      "name": "DeckPlank.005"
    },
    {
      "mesh": 8,
      "name": "DeckPlank.006"
    },
    {
      "mesh": 9,
      "name": "DeckPlank.007"
    },
    {
      "mesh": 10,
      "name": "DeckPlank.008"
    },
    {
      "mesh": 11,
      "name": "DeckPlank.009"
    },
    {
      "mesh": 12,
      "name": "DeckPlank.010"
    },
    {
      "mesh": 13,
      "name": "DeckPlank.011"
    },
    {
      "mesh": 14,
      "name": "DeckPlank.012"
    },
    {
      "mesh": 15,
      "name": "DeckPlank.013"
    },
    {
      "mesh": 16,
      "name": "DeckPlank.014"
    },
    {
      "mesh": 17,
      "name": "DeckPlank.015"
    },
    {
      "mesh": 18,
      "name": "Piling"
    },
    {
      "mesh": 19,
      "name": "Piling.001"
    },
    {
      "mesh": 20,
      "name": "Piling.002"
    },
    {
      "mesh": 21,
      "name": "Piling.003"
    }
  ],
  "scene": 0,
  "scenes": [
    {
      "name": "Scene",
      "nodes": [
        0,
        1,
        2,
        3,
        4,
        5,
        6,
        7,
        8,
        9,
        10,
        11,
        12,
        13,
        14,
        15,
        16,
        17,
        18,
        19,
        20,
        21
      ]
    }
  ]
}
