{
  "accessors": [
    {
      "bufferView": 0,
      "componentType": 5126,
      "count": 54,
      "max": [
        0.4755282700061798,
        0.3548464775085449,
        0.48064061999320984
      ],
      "min": [
        -0.4755282700061798,
        -0.3499999940395355,
        -0.48064061999320984
      ],
      "type": "VEC3"
    },
    {
      "bufferView": 1,
      "componentType": 5126,
      "count": 54,
      "type": "VEC3"
    },
    {
      "bufferView": 2,
      "componentType": 5126,
      "count": 54,
      "type": "VEC2"
    },
    {
      "bufferView": 3,
      "componentType": 5123,
      "count": 54,
      "type": "SCALAR"
    },
    {
      "bufferView": 4,
      "componentType": 5126,
      "count": 24,
      "max": [
        0.23382686078548431,
        1.850000023841858,
        0.27000001072883606
      ],
      "min": [
        -0.23382686078548431,
        1.350000023841858,
        -0.27000001072883606
      ],
      "type": "VEC3"
    },
    {
      "bufferView": 5,
      "componentType": 5126,
      "count": 24,
      "type": "VEC3"
    },
    {
      "bufferView": 6,
      "componentType": 5126,
      "count": 24,
      "type": "VEC2"
    },
    {
      "bufferView": 7,
      "componentType": 5123,
      "count": 30,
      "type": "SCALAR"
    },
    {
      "bufferView": 8,
      "componentType": 5126,
      "count": 28,
      "max": [
        0.06652649492025375,
        1.7999999523162842,
        0.06499999761581421
      ],
      "min": [
        -0.06652649492025375,
        0.19999998807907104,
        -0.06499999761581421
      ],
      "type": "VEC3"
    },
    {
      "bufferView": 9,
      "componentType": 5126,
      "count": 28,
      "type": "VEC3"
    },
    {
      "bufferView": 10,
      "componentType": 5126,
      "count": 28,
      "type": "VEC2"
    },
    {
      "bufferView": 11,
      "componentType": 5123,
      "count": 30,
      "type": "SCALAR"
    }
  ],
  "asset": {
    "generator": "Khronos glTF Blender I/O v5.2.40",
    "version": "2.0"
  },
  "bufferViews": [
    {
      "buffer": 0,
      "byteLength": 648,
      "byteOffset": 0,
      "target": 34962
    },
    {
      "buffer": 0,
      "byteLength": 648,
      "byteOffset": 648,
      "target": 34962
    },
    {
      "buffer": 0,
      "byteLength": 432,
      "byteOffset": 1296,
      "target": 34962
    },
    {
      "buffer": 0,
      "byteLength": 108,
      "byteOffset": 1728,
      "target": 34963
    },
    {
      "buffer": 0,
      "byteLength": 288,
      "byteOffset": 1836,
      "target": 34962
    },
    {
      "buffer": 0,
      "byteLength": 288,
      "byteOffset": 2124,
      "target": 34962
    },
    {
      "buffer": 0,
      "byteLength": 192,
      "byteOffset": 2412,
      "target": 34962
    },
    {
      "buffer": 0,
      "byteLength": 60,
      "byteOffset": 2604,
      "target": 34963
    },
    {
      "buffer": 0,
      "byteLength": 336,
      "byteOffset": 2664,
      "target": 34962
    },
    {
      "buffer": 0,
      "byteLength": 336,
      "byteOffset": 3000,
      "target": 34962
    },
    {
      "buffer": 0,
      "byteLength": 224,
      "byteOffset": 3336,
      "target": 34962
    },
    {
      "buffer": 0,
      "byteLength": 60,
      "byteOffset": 3560,
      "target": 34963
    }
  ],
  "buffers": [
    {
      "byteLength": 3620,
      "uri": "harbor.buoy.lod1.bin"
    }
  ],
  "materials": [
    {
      "doubleSided": true,
      "name": "Coast_red",
      "pbrMetallicRoughness": {
        "baseColorFactor": [
          0.6299999952316284,
          0.17000000178813934,
          0.10000000149011612,
          1
        ],
        "metallicFactor": 0,
        "roughnessFactor": 0.800000011920929
      }
    },
    {
      "doubleSided": true,
      "name": "Coast_iron",
      "pbrMetallicRoughness": {
        "baseColorFactor": [
          0.10000000149011612,
          0.12999999523162842,
          0.14000000059604645,
          1
        ],
        "metallicFactor": 0,
        "roughnessFactor": 0.6000000238418579
      }
    }
  ],
  "meshes": [
    {
      "name": "Cone",
      "primitives": [
        {
          "attributes": {
            "NORMAL": 1,
            "POSITION": 0,
            "TEXCOORD_0": 2
          },
          "indices": 3,
          "material": 0
        }
      ]
    },
    {
      "name": "Cone.002",
      "primitives": [
        {
          "attributes": {
            "NORMAL": 5,
            "POSITION": 4,
            "TEXCOORD_0": 6
          },
          "indices": 7,
          "material": 0
        }
      ]
    },
    {
      "name": "Cone.001",
      "primitives": [
        {
          "attributes": {
            "NORMAL": 9,
            "POSITION": 8,
            "TEXCOORD_0": 10
          },
          "indices": 11,
          "material": 1
        }
      ]
    }
  ],
  "nodes": [
    {
      "mesh": 0,
      "name": "Float"
    },
    {
      "mesh": 1,
      "name": "Mark"
    },
    {
      "mesh": 2,
      "name": "Mast"
    }
  ],
  "scene": 0,
  "scenes": [
    {
      "name": "Scene",
      "nodes": [
        0,
        1,
        2
      ]
    }
  ]
}
