{
  "accessors": [
    {
      "bufferView": 0,
      "componentType": 5126,
      "count": 18,
      "max": [
        0.25959572196006775,
        2.645899772644043,
        0.05114634707570076
      ],
      "min": [
        -0.3100703954696655,
        -0.003708825446665287,
        -0.07009315490722656
      ],
      "type": "VEC3"
    },
    {
      "bufferView": 1,
      "componentType": 5126,
      "count": 18,
      "type": "VEC3"
    },
    {
      "bufferView": 2,
      "componentType": 5123,
      "count": 18,
      "type": "SCALAR"
    }
  ],
  "asset": {
    "generator": "Khronos glTF Blender I/O v5.2.40",
    "version": "2.0"
  },
  "bufferViews": [
    {
      "buffer": 0,
      "byteLength": 216,
      "byteOffset": 0,
      "target": 34962
    },
    {
      "buffer": 0,
      "byteLength": 216,
      "byteOffset": 216,
      "target": 34962
    },
    {
      "buffer": 0,
      "byteLength": 36,
      "byteOffset": 432,
      "target": 34963
    }
  ],
  "buffers": [
    {
      "byteLength": 468,
      "uri": "reef.kelp.lod2.bin"
    }
  ],
  "materials": [
    {
      "doubleSided": true,
      "name": "Coast_kelp",
      "pbrMetallicRoughness": {
        "baseColorFactor": [
          0.20999999344348907,
          0.30000001192092896,
          0.09000000357627869,
          1
        ],
        "metallicFactor": 0,
        "roughnessFactor": 0.8999999761581421
      }
    }
  ],
  "meshes": [
    {
      "name": "Kelp",
      "primitives": [
        {
          "attributes": {
            "NORMAL": 1,
            "POSITION": 0
          },
          "indices": 2,
          "material": 0
        }
      ]
    }
  ],
  "nodes": [
    {
      "mesh": 0,
      "name": "Kelp"
    }
  ],
  "scene": 0,
  "scenes": [
    {
      "name": "Scene",
      "nodes": [
        0
      ]
    }
  ]
}
