{
  "accessors": [
    {
      "bufferView": 0,
      "componentType": 5126,
      "count": 39,
      "max": [
        0.2251686453819275,
        2.640000104904175,
        0.0670790746808052
      ],
      "min": [
        -0.2650075852870941,
        0,
        -0.07000000029802322
      ],
      "type": "VEC3"
    },
    {
      "bufferView": 1,
      "componentType": 5126,
      "count": 39,
      "type": "VEC3"
    },
    {
      "bufferView": 2,
      "componentType": 5123,
      "count": 39,
      "type": "SCALAR"
    }
  ],
  "asset": {
    "generator": "Khronos glTF Blender I/O v5.2.40",
    "version": "2.0"
  },
  "bufferViews": [
    {
      "buffer": 0,
      "byteLength": 468,
      "byteOffset": 0,
      "target": 34962
    },
    {
      "buffer": 0,
      "byteLength": 468,
      "byteOffset": 468,
      "target": 34962
    },
    {
      "buffer": 0,
      "byteLength": 78,
      "byteOffset": 936,
      "target": 34963
    }
  ],
  "buffers": [
    {
      "byteLength": 1016,
      "uri": "reef.kelp.lod1.bin"
    }
  ],
  "materials": [
    {
      "doubleSided": true,
      "name": "Coast_kelp",
      "pbrMetallicRoughness": {
        "baseColorFactor": [
          0.20999999344348907,
          0.30000001192092896,
          0.09000000357627869,
          1
        ],
        "metallicFactor": 0,
        "roughnessFactor": 0.8999999761581421
      }
    }
  ],
  "meshes": [
    {
      "name": "Kelp",
      "primitives": [
        {
          "attributes": {
            "NORMAL": 1,
            "POSITION": 0
          },
          "indices": 2,
          "material": 0
        }
      ]
    }
  ],
  "nodes": [
    {
      "mesh": 0,
      "name": "Kelp"
    }
  ],
  "scene": 0,
  "scenes": [
    {
      "name": "Scene",
      "nodes": [
        0
      ]
    }
  ]
}
