{
  "accessors": [
    {
      "bufferView": 0,
      "componentType": 5126,
      "count": 60,
      "max": [
        -4.056909084320068,
        0.4468178451061249,
        -4.497685432434082
      ],
      "min": [
        -5.330531597137451,
        -0.189008429646492,
        -5.547738075256348
      ],
      "type": "VEC3"
    },
    {
      "bufferView": 1,
      "componentType": 5126,
      "count": 60,
      "type": "VEC3"
    },
    {
      "bufferView": 2,
      "componentType": 5126,
      "count": 60,
      "type": "VEC2"
    },
    {
      "bufferView": 3,
      "componentType": 5123,
      "count": 60,
      "type": "SCALAR"
    },
    {
      "bufferView": 5,
      "componentType": 5126,
      "count": 60,
      "max": [
        -4.503283977508545,
        0.4301156997680664,
        -6.203176975250244
      ],
      "min": [
        -5.739263534545898,
        -0.14101414382457733,
        -7.123549461364746
      ],
      "type": "VEC3"
    },
    {
      "bufferView": 6,
      "componentType": 5126,
      "count": 60,
      "type": "VEC3"
    },
    {
      "bufferView": 7,
      "componentType": 5126,
      "count": 60,
      "type": "VEC2"
    },
    {
      "bufferView": 8,
      "componentType": 5123,
      "count": 60,
      "type": "SCALAR"
    },
    {
      "bufferView": 9,
      "componentType": 5126,
      "count": 60,
      "max": [
        -5.727947235107422,
        0.40865522623062134,
        -7.353930473327637
      ],
      "min": [
        -6.9697651863098145,
        -0.15103410184383392,
        -8.307397842407227
      ],
      "type": "VEC3"
    },
    {
      "bufferView": 10,
      "componentType": 5126,
      "count": 60,
      "type": "VEC3"
    },
    {
      "bufferView": 11,
      "componentType": 5126,
      "count": 60,
      "type": "VEC2"
    },
    {
      "bufferView": 12,
      "componentType": 5123,
      "count": 60,
      "type": "SCALAR"
    },
    {
      "bufferView": 13,
      "componentType": 5126,
      "count": 60,
      "max": [
        -7.2926025390625,
        0.43065616488456726,
        -7.811399459838867
      ],
      "min": [
        -8.663965225219727,
        -0.10712390393018723,
        -8.850480079650879
      ],
      "type": "VEC3"
    },
    {
      "bufferView": 14,
      "componentType": 5126,
      "count": 60,
      "type": "VEC3"
    },
    {
      "bufferView": 15,
      "componentType": 5126,
      "count": 60,
      "type": "VEC2"
    },
    {
      "bufferView": 16,
      "componentType": 5123,
      "count": 60,
      "type": "SCALAR"
    },
    {
      "bufferView": 17,
      "componentType": 5126,
      "count": 60,
      "max": [
        -8.918052673339844,
        0.38458603620529175,
        -7.360000133514404
      ],
      "min": [
        -10.28276538848877,
        -0.10207124799489975,
        -8.301594734191895
      ],
      "type": "VEC3"
    },
    {
      "bufferView": 18,
      "componentType": 5126,
      "count": 60,
      "type": "VEC3"
    },
    {
      "bufferView": 19,
      "componentType": 5126,
      "count": 60,
      "type": "VEC2"
    },
    {
      "bufferView": 20,
      "componentType": 5123,
      "count": 60,
      "type": "SCALAR"
    },
    {
      "bufferView": 21,
      "componentType": 5126,
      "count": 60,
      "max": [
        -10.202265739440918,
        0.4200294017791748,
        -6.109134197235107
      ],
      "min": [
        -11.47777271270752,
        -0.1347864717245102,
        -7.172760486602783
      ],
      "type": "VEC3"
    },
    {
      "bufferView": 22,
      "componentType": 5126,
      "count": 60,
      "type": "VEC3"
    },
    {
      "bufferView": 23,
      "componentType": 5126,
      "count": 60,
      "type": "VEC2"
    },
    {
      "bufferView": 24,
      "componentType": 5123,
      "count": 60,
      "type": "SCALAR"
    },
    {
      "bufferView": 25,
      "componentType": 5126,
      "count": 58,
      "max": [
        -10.618817329406738,
        0.38154804706573486,
        -4.562047004699707
      ],
      "min": [
        -11.948257446289062,
        -0.16356749832630157,
        -5.484242916107178
      ],
      "type": "VEC3"
    },
    {
      "bufferView": 26,
      "componentType": 5126,
      "count": 58,
      "type": "VEC3"
    },
    {
      "bufferView": 27,
      "componentType": 5126,
      "count": 58,
      "type": "VEC2"
    },
    {
      "bufferView": 28,
      "componentType": 5123,
      "count": 60,
      "type": "SCALAR"
    },
    {
      "bufferView": 29,
      "componentType": 5126,
      "count": 60,
      "max": [
        -10.19225788116455,
        0.3905799984931946,
        -2.8699448108673096
      ],
      "min": [
        -11.489972114562988,
        -0.15498986840248108,
        -3.825580596923828
      ],
      "type": "VEC3"
    },
    {
      "bufferView": 30,
      "componentType": 5126,
      "count": 60,
      "type": "VEC3"
    },
    {
      "bufferView": 31,
      "componentType": 5126,
      "count": 60,
      "type": "VEC2"
    },
    {
      "bufferView": 32,
      "componentType": 5123,
      "count": 60,
      "type": "SCALAR"
    },
    {
      "bufferView": 33,
      "componentType": 5126,
      "count": 60,
      "max": [
        -9.008196830749512,
        0.42958804965019226,
        -1.7036306858062744
      ],
      "min": [
        -10.292364120483398,
        -0.10853365808725357,
        -2.658972978591919
      ],
      "type": "VEC3"
    },
    {
      "bufferView": 34,
      "componentType": 5126,
      "count": 60,
      "type": "VEC3"
    },
    {
      "bufferView": 35,
      "componentType": 5126,
      "count": 60,
      "type": "VEC2"
    },
    {
      "bufferView": 36,
      "componentType": 5123,
      "count": 60,
      "type": "SCALAR"
    },
    {
      "bufferView": 37,
      "componentType": 5126,
      "count": 60,
      "max": [
        -7.309185981750488,
        0.4204743206501007,
        -1.2505650520324707
      ],
      "min": [
        -8.670522689819336,
        -0.11315573006868362,
        -2.1131341457366943
      ],
      "type": "VEC3"
    },
    {
      "bufferView": 38,
      "componentType": 5126,
      "count": 60,
      "type": "VEC3"
    },
    {
      "bufferView": 39,
      "componentType": 5126,
      "count": 60,
      "type": "VEC2"
    },
    {
      "bufferView": 40,
      "componentType": 5123,
      "count": 60,
      "type": "SCALAR"
    },
    {
      "bufferView": 41,
      "componentType": 5126,
      "count": 60,
      "max": [
        -5.69917631149292,
        0.4461720585823059,
        -1.5696604251861572
      ],
      "min": [
        -6.967071533203125,
        -0.1229482889175415,
        -2.5724356174468994
      ],
      "type": "VEC3"
    },
    {
      "bufferView": 42,
      "componentType": 5126,
      "count": 60,
      "type": "VEC3"
    },
    {
      "bufferView": 43,
      "componentType": 5126,
      "count": 60,
      "type": "VEC2"
    },
    {
      "bufferView": 44,
      "componentType": 5123,
      "count": 60,
      "type": "SCALAR"
    },
    {
      "bufferView": 45,
      "componentType": 5126,
      "count": 60,
      "max": [
        -4.543500900268555,
        0.3812497556209564,
        -2.867091417312622
      ],
      "min": [
        -5.803874969482422,
        -0.1517622023820877,
        -3.8453176021575928
      ],
      "type": "VEC3"
    },
    {
      "bufferView": 46,
      "componentType": 5126,
      "count": 60,
      "type": "VEC3"
    },
    {
      "bufferView": 47,
      "componentType": 5126,
      "count": 60,
      "type": "VEC2"
    },
    {
      "bufferView": 48,
      "componentType": 5123,
      "count": 60,
      "type": "SCALAR"
    },
    {
      "bufferView": 49,
      "componentType": 5126,
      "count": 60,
      "max": [
        11.943092346191406,
        0.4468177855014801,
        -4.497685432434082
      ],
      "min": [
        10.669469833374023,
        -0.18900856375694275,
        -5.547738075256348
      ],
      "type": "VEC3"
    },
    {
      "bufferView": 50,
      "componentType": 5126,
      "count": 60,
      "type": "VEC3"
    },
    {
      "bufferView": 51,
      "componentType": 5126,
      "count": 60,
      "type": "VEC2"
    },
    {
      "bufferView": 52,
      "componentType": 5126,
      "count": 60,
      "max": [
        11.496716499328613,
        0.4301156997680664,
        -6.203176975250244
      ],
      "min": [
        10.260736465454102,
        -0.14101412892341614,
        -7.123549461364746
      ],
      "type": "VEC3"
    },
    {
      "bufferView": 53,
      "componentType": 5126,
      "count": 60,
      "type": "VEC3"
    },
    {
      "bufferView": 54,
      "componentType": 5126,
      "count": 60,
      "type": "VEC2"
    },
    {
      "bufferView": 55,
      "componentType": 5126,
      "count": 60,
      "max": [
        10.272052764892578,
        0.4086552560329437,
        -7.353930473327637
      ],
      "min": [
        9.030235290527344,
        -0.1510339230298996,
        -8.307397842407227
      ],
      "type": "VEC3"
    },
    {
      "bufferView": 56,
      "componentType": 5126,
      "count": 60,
      "type": "VEC3"
    },
    {
      "bufferView": 57,
      "componentType": 5126,
      "count": 60,
      "type": "VEC2"
    },
    {
      "bufferView": 58,
      "componentType": 5126,
      "count": 60,
      "max": [
        8.7073974609375,
        0.4306561350822449,
        -7.811399459838867
      ],
      "min": [
        7.33603572845459,
        -0.107123963534832,
        -8.850480079650879
      ],
      "type": "VEC3"
    },
    {
      "bufferView": 59,
      "componentType": 5126,
      "count": 60,
      "type": "VEC3"
    },
    {
      "bufferView": 60,
      "componentType": 5126,
      "count": 60,
      "type": "VEC2"
    },
    {
      "bufferView": 61,
      "componentType": 5126,
      "count": 60,
      "max": [
        7.0819478034973145,
        0.38458603620529175,
        -7.360000133514404
      ],
      "min": [
        5.7172346115112305,
        -0.10207126289606094,
        -8.301594734191895
      ],
      "type": "VEC3"
    },
    {
      "bufferView": 62,
      "componentType": 5126,
      "count": 60,
      "type": "VEC3"
    },
    {
      "bufferView": 63,
      "componentType": 5126,
      "count": 60,
      "type": "VEC2"
    },
    {
      "bufferView": 64,
      "componentType": 5126,
      "count": 58,
      "max": [
        5.79773473739624,
        0.4200294315814972,
        -6.109134197235107
      ],
      "min": [
        4.522227764129639,
        -0.13478659093379974,
        -7.172760486602783
      ],
      "type": "VEC3"
    },
    {
      "bufferView": 65,
      "componentType": 5126,
      "count": 58,
      "type": "VEC3"
    },
    {
      "bufferView": 66,
      "componentType": 5126,
      "count": 58,
      "type": "VEC2"
    },
    {
      "bufferView": 67,
      "componentType": 5123,
      "count": 60,
      "type": "SCALAR"
    },
    {
      "bufferView": 68,
      "componentType": 5126,
      "count": 60,
      "max": [
        5.381183624267578,
        0.38154828548431396,
        -4.562047004699707
      ],
      "min": [
        4.051742076873779,
        -0.16356751322746277,
        -5.484242916107178
      ],
      "type": "VEC3"
    },
    {
      "bufferView": 69,
      "componentType": 5126,
      "count": 60,
      "type": "VEC3"
    },
    {
      "bufferView": 70,
      "componentType": 5126,
      "count": 60,
      "type": "VEC2"
    },
    {
      "bufferView": 71,
      "componentType": 5123,
      "count": 60,
      "type": "SCALAR"
    },
    {
      "bufferView": 72,
      "componentType": 5126,
      "count": 60,
      "max": [
        5.807742118835449,
        0.39058002829551697,
        -2.8699448108673096
      ],
      "min": [
        4.51002836227417,
        -0.15498989820480347,
        -3.8255808353424072
      ],
      "type": "VEC3"
    },
    {
      "bufferView": 73,
      "componentType": 5126,
      "count": 60,
      "type": "VEC3"
    },
    {
      "bufferView": 74,
      "componentType": 5126,
      "count": 60,
      "type": "VEC2"
    },
    {
      "bufferView": 75,
      "componentType": 5126,
      "count": 60,
      "max": [
        6.991803169250488,
        0.42958804965019226,
        -1.7036303281784058
      ],
      "min": [
        5.707636833190918,
        -0.10853360593318939,
        -2.658972978591919
      ],
      "type": "VEC3"
    },
    {
      "bufferView": 76,
      "componentType": 5126,
      "count": 60,
      "type": "VEC3"
    },
    {
      "bufferView": 77,
      "componentType": 5126,
      "count": 60,
      "type": "VEC2"
    },
    {
      "bufferView": 78,
      "componentType": 5126,
      "count": 60,
      "max": [
        8.690814018249512,
        0.4204743504524231,
        -1.2505649328231812
      ],
      "min": [
        7.329477787017822,
        -0.11315573006868362,
        -2.1131341457366943
      ],
      "type": "VEC3"
    },
    {
      "bufferView": 79,
      "componentType": 5126,
      "count": 60,
      "type": "VEC3"
    },
    {
      "bufferView": 80,
      "componentType": 5126,
      "count": 60,
      "type": "VEC2"
    },
    {
      "bufferView": 81,
      "componentType": 5126,
      "count": 60,
      "max": [
        10.300824165344238,
        0.4461721181869507,
        -1.5696603059768677
      ],
      "min": [
        9.032928466796875,
        -0.12294842302799225,
        -2.5724356174468994
      ],
      "type": "VEC3"
    },
    {
      "bufferView": 82,
      "componentType": 5126,
      "count": 60,
      "type": "VEC3"
    },
    {
      "bufferView": 83,
      "componentType": 5126,
      "count": 60,
      "type": "VEC2"
    },
    {
      "bufferView": 84,
      "componentType": 5126,
      "count": 60,
      "max": [
        11.456499099731445,
        0.3812497556209564,
        -2.867091417312622
      ],
      "min": [
        10.196125030517578,
        -0.1517621874809265,
        -3.8453173637390137
      ],
      "type": "VEC3"
    },
    {
      "bufferView": 85,
      "componentType": 5126,
      "count": 60,
      "type": "VEC3"
    },
    {
      "bufferView": 86,
      "componentType": 5126,
      "count": 60,
      "type": "VEC2"
    },
    {
      "bufferView": 87,
      "componentType": 5126,
      "count": 60,
      "max": [
        3.94309139251709,
        0.4468177258968353,
        9.502314567565918
      ],
      "min": [
        2.6694693565368652,
        -0.18900854885578156,
        8.452262878417969
      ],
      "type": "VEC3"
    },
    {
      "bufferView": 88,
      "componentType": 5126,
      "count": 60,
      "type": "VEC3"
    },
    {
      "bufferView": 89,
      "componentType": 5126,
      "count": 60,
      "type": "VEC2"
    },
    {
      "bufferView": 90,
      "componentType": 5126,
      "count": 60,
      "max": [
        3.4967167377471924,
        0.4301156997680664,
        7.796823024749756
      ],
      "min": [
        2.2607367038726807,
        -0.14101412892341614,
        6.876450538635254
      ],
      "type": "VEC3"
    },
    {
      "bufferView": 91,
      "componentType": 5126,
      "count": 60,
      "type": "VEC3"
    },
    {
      "bufferView": 92,
      "componentType": 5126,
      "count": 60,
      "type": "VEC2"
    },
    {
      "bufferView": 93,
      "componentType": 5126,
      "count": 60,
      "max": [
        2.272052764892578,
        0.40865522623062134,
        6.646069526672363
      ],
      "min": [
        1.0302350521087646,
        -0.15103396773338318,
        5.692602157592773
      ],
      "type": "VEC3"
    },
    {
      "bufferView": 94,
      "componentType": 5126,
      "count": 60,
      "type": "VEC3"
    },
    {
      "bufferView": 95,
      "componentType": 5126,
      "count": 60,
      "type": "VEC2"
    },
    {
      "bufferView": 96,
      "componentType": 5126,
      "count": 60,
      "max": [
        0.7073975801467896,
        0.43065619468688965,
        6.188601016998291
      ],
      "min": [
        -0.6639643311500549,
        -0.10712384432554245,
        5.149520397186279
      ],
      "type": "VEC3"
    },
    {
      "bufferView": 97,
      "componentType": 5126,
      "count": 60,
      "type": "VEC3"
    },
    {
      "bufferView": 98,
      "componentType": 5126,
      "count": 60,
      "type": "VEC2"
    },
    {
      "bufferView": 99,
      "componentType": 5126,
      "count": 58,
      "max": [
        -0.9180523753166199,
        0.38458606600761414,
        6.639999866485596
      ],
      "min": [
        -2.2827658653259277,
        -0.10207127779722214,
        5.698405742645264
      ],
      "type": "VEC3"
    },
    {
      "bufferView": 100,
      "componentType": 5126,
      "count": 58,
      "type": "VEC3"
    },
    {
      "bufferView": 101,
      "componentType": 5126,
      "count": 58,
      "type": "VEC2"
    },
    {
      "bufferView": 102,
      "componentType": 5123,
      "count": 60,
      "type": "SCALAR"
    },
    {
      "bufferView": 103,
      "componentType": 5126,
      "count": 60,
      "max": [
        -2.202265501022339,
        0.4200294017791748,
        7.890865802764893
      ],
      "min": [
        -3.4777724742889404,
        -0.13478656113147736,
        6.827239513397217
      ],
      "type": "VEC3"
    },
    {
      "bufferView": 104,
      "componentType": 5126,
      "count": 60,
      "type": "VEC3"
    },
    {
      "bufferView": 105,
      "componentType": 5126,
      "count": 60,
      "type": "VEC2"
    },
    {
      "bufferView": 106,
      "componentType": 5126,
      "count": 60,
      "max": [
        -2.618816614151001,
        0.3815481662750244,
        9.43795394897461
      ],
      "min": [
        -3.9482572078704834,
        -0.16356754302978516,
        8.51575756072998
      ],
      "type": "VEC3"
    },
    {
      "bufferView": 107,
      "componentType": 5126,
      "count": 60,
      "type": "VEC3"
    },
    {
      "bufferView": 108,
      "componentType": 5126,
      "count": 60,
      "type": "VEC2"
    },
    {
      "bufferView": 109,
      "componentType": 5126,
      "count": 60,
      "max": [
        -2.19225811958313,
        0.3905799686908722,
        11.13005542755127
      ],
      "min": [
        -3.48997163772583,
        -0.15498988330364227,
        10.174419403076172
      ],
      "type": "VEC3"
    },
    {
      "bufferView": 110,
      "componentType": 5126,
      "count": 60,
      "type": "VEC3"
    },
    {
      "bufferView": 111,
      "componentType": 5126,
      "count": 60,
      "type": "VEC2"
    },
    {
      "bufferView": 112,
      "componentType": 5126,
      "count": 60,
      "max": [
        -1.0081968307495117,
        0.42958804965019226,
        12.296369552612305
      ],
      "min": [
        -2.292362928390503,
        -0.10853363573551178,
        11.34102725982666
      ],
      "type": "VEC3"
    },
    {
      "bufferView": 113,
      "componentType": 5126,
      "count": 60,
      "type": "VEC3"
    },
    {
      "bufferView": 114,
      "componentType": 5126,
      "count": 60,
      "type": "VEC2"
    },
    {
      "bufferView": 115,
      "componentType": 5126,
      "count": 60,
      "max": [
        0.690814197063446,
        0.4204742908477783,
        12.749435424804688
      ],
      "min": [
        -0.6705219745635986,
        -0.11315570771694183,
        11.886866569519043
      ],
      "type": "VEC3"
    },
    {
      "bufferView": 116,
      "componentType": 5126,
      "count": 60,
      "type": "VEC3"
    },
    {
      "bufferView": 117,
      "componentType": 5126,
      "count": 60,
      "type": "VEC2"
    },
    {
      "bufferView": 118,
      "componentType": 5126,
      "count": 60,
      "max": [
        2.3008241653442383,
        0.4461720287799835,
        12.430339813232422
      ],
      "min": [
        1.032928705215454,
        -0.12294834107160568,
        11.42756462097168
      ],
      "type": "VEC3"
    },
    {
      "bufferView": 119,
      "componentType": 5126,
      "count": 60,
      "type": "VEC3"
    },
    {
      "bufferView": 120,
      "componentType": 5126,
      "count": 60,
      "type": "VEC2"
    },
    {
      "bufferView": 121,
      "componentType": 5126,
      "count": 60,
      "max": [
        3.4564993381500244,
        0.38124963641166687,
        11.132908821105957
      ],
      "min": [
        2.1961255073547363,
        -0.1517622470855713,
        10.154682159423828
      ],
      "type": "VEC3"
    },
    {
      "bufferView": 122,
      "componentType": 5126,
      "count": 60,
      "type": "VEC3"
    },
    {
      "bufferView": 123,
      "componentType": 5126,
      "count": 60,
      "type": "VEC2"
    }
  ],
  "asset": {
    "generator": "Khronos glTF Blender I/O v5.2.40",
    "version": "2.0"
  },
  "bufferViews": [
    {
      "buffer": 0,
      "byteLength": 720,
      "byteOffset": 0,
      "target": 34962
    },
    {
      "buffer": 0,
      "byteLength": 720,
      "byteOffset": 720,
      "target": 34962
    },
    {
      "buffer": 0,
      "byteLength": 480,
      "byteOffset": 1440,
      "target": 34962
    },
    {
      "buffer": 0,
      "byteLength": 120,
      "byteOffset": 1920,
      "target": 34963
    },
    {
      "buffer": 0,
      "byteLength": 22702,
      "byteOffset": 2040
    },
    {
      "buffer": 0,
      "byteLength": 720,
      "byteOffset": 24744,
      "target": 34962
    },
    {
      "buffer": 0,
      "byteLength": 720,
      "byteOffset": 25464,
      "target": 34962
    },
    {
      "buffer": 0,
      "byteLength": 480,
      "byteOffset": 26184,
      "target": 34962
    },
    {
      "buffer": 0,
      "byteLength": 120,
      "byteOffset": 26664,
      "target": 34963
    },
    {
      "buffer": 0,
      "byteLength": 720,
      "byteOffset": 26784,
      "target": 34962
    },
    {
      "buffer": 0,
      "byteLength": 720,
      "byteOffset": 27504,
      "target": 34962
    },
    {
      "buffer": 0,
      "byteLength": 480,
      "byteOffset": 28224,
      "target": 34962
    },
    {
      "buffer": 0,
      "byteLength": 120,
      "byteOffset": 28704,
      "target": 34963
    },
    {
      "buffer": 0,
      "byteLength": 720,
      "byteOffset": 28824,
      "target": 34962
    },
    {
      "buffer": 0,
      "byteLength": 720,
      "byteOffset": 29544,
      "target": 34962
    },
    {
      "buffer": 0,
      "byteLength": 480,
      "byteOffset": 30264,
      "target": 34962
    },
    {
      "buffer": 0,
      "byteLength": 120,
      "byteOffset": 30744,
      "target": 34963
    },
    {
      "buffer": 0,
      "byteLength": 720,
      "byteOffset": 30864,
      "target": 34962
    },
    {
      "buffer": 0,
      "byteLength": 720,
      "byteOffset": 31584,
      "target": 34962
    },
    {
      "buffer": 0,
      "byteLength": 480,
      "byteOffset": 32304,
      "target": 34962
    },
    {
      "buffer": 0,
      "byteLength": 120,
      "byteOffset": 32784,
      "target": 34963
    },
    {
      "buffer": 0,
      "byteLength": 720,
      "byteOffset": 32904,
      "target": 34962
    },
    {
      "buffer": 0,
      "byteLength": 720,
      "byteOffset": 33624,
      "target": 34962
    },
    {
      "buffer": 0,
      "byteLength": 480,
      "byteOffset": 34344,
      "target": 34962
    },
    {
      "buffer": 0,
      "byteLength": 120,
      "byteOffset": 34824,
      "target": 34963
    },
    {
      "buffer": 0,
      "byteLength": 696,
      "byteOffset": 34944,
      "target": 34962
    },
    {
      "buffer": 0,
      "byteLength": 696,
      "byteOffset": 35640,
      "target": 34962
    },
    {
      "buffer": 0,
      "byteLength": 464,
      "byteOffset": 36336,
      "target": 34962
    },
    {
      "buffer": 0,
      "byteLength": 120,
      "byteOffset": 36800,
      "target": 34963
    },
    {
      "buffer": 0,
      "byteLength": 720,
      "byteOffset": 36920,
      "target": 34962
    },
    {
      "buffer": 0,
      "byteLength": 720,
      "byteOffset": 37640,
      "target": 34962
    },
    {
      "buffer": 0,
      "byteLength": 480,
      "byteOffset": 38360,
      "target": 34962
    },
    {
      "buffer": 0,
      "byteLength": 120,
      "byteOffset": 38840,
      "target": 34963
    },
    {
      "buffer": 0,
      "byteLength": 720,
      "byteOffset": 38960,
      "target": 34962
    },
    {
      "buffer": 0,
      "byteLength": 720,
      "byteOffset": 39680,
      "target": 34962
    },
    {
      "buffer": 0,
      "byteLength": 480,
      "byteOffset": 40400,
      "target": 34962
    },
    {
      "buffer": 0,
      "byteLength": 120,
      "byteOffset": 40880,
      "target": 34963
    },
    {
      "buffer": 0,
      "byteLength": 720,
      "byteOffset": 41000,
      "target": 34962
    },
    {
      "buffer": 0,
      "byteLength": 720,
      "byteOffset": 41720,
      "target": 34962
    },
    {
      "buffer": 0,
      "byteLength": 480,
      "byteOffset": 42440,
      "target": 34962
    },
    {
      "buffer": 0,
      "byteLength": 120,
      "byteOffset": 42920,
      "target": 34963
    },
    {
      "buffer": 0,
      "byteLength": 720,
      "byteOffset": 43040,
      "target": 34962
    },
    {
      "buffer": 0,
      "byteLength": 720,
      "byteOffset": 43760,
      "target": 34962
    },
    {
      "buffer": 0,
      "byteLength": 480,
      "byteOffset": 44480,
      "target": 34962
    },
    {
      "buffer": 0,
      "byteLength": 120,
      "byteOffset": 44960,
      "target": 34963
    },
    {
      "buffer": 0,
      "byteLength": 720,
      "byteOffset": 45080,
      "target": 34962
    },
    {
      "buffer": 0,
      "byteLength": 720,
      "byteOffset": 45800,
      "target": 34962
    },
    {
      "buffer": 0,
      "byteLength": 480,
      "byteOffset": 46520,
      "target": 34962
    },
    {
      "buffer": 0,
      "byteLength": 120,
      "byteOffset": 47000,
      "target": 34963
    },
    {
      "buffer": 0,
      "byteLength": 720,
      "byteOffset": 47120,
      "target": 34962
    },
    {
      "buffer": 0,
      "byteLength": 720,
      "byteOffset": 47840,
      "target": 34962
    },
    {
      "buffer": 0,
      "byteLength": 480,
      "byteOffset": 48560,
      "target": 34962
    },
    {
      "buffer": 0,
      "byteLength": 720,
      "byteOffset": 49040,
      "target": 34962
    },
    {
      "buffer": 0,
      "byteLength": 720,
      "byteOffset": 49760,
      "target": 34962
    },
    {
      "buffer": 0,
      "byteLength": 480,
      "byteOffset": 50480,
      "target": 34962
    },
    {
      "buffer": 0,
      "byteLength": 720,
      "byteOffset": 50960,
      "target": 34962
    },
    {
      "buffer": 0,
      "byteLength": 720,
      "byteOffset": 51680,
      "target": 34962
    },
    {
      "buffer": 0,
      "byteLength": 480,
      "byteOffset": 52400,
      "target": 34962
    },
    {
      "buffer": 0,
      "byteLength": 720,
      "byteOffset": 52880,
      "target": 34962
    },
    {
      "buffer": 0,
      "byteLength": 720,
      "byteOffset": 53600,
      "target": 34962
    },
    {
      "buffer": 0,
      "byteLength": 480,
      "byteOffset": 54320,
      "target": 34962
    },
    {
      "buffer": 0,
      "byteLength": 720,
      "byteOffset": 54800,
      "target": 34962
    },
    {
      "buffer": 0,
      "byteLength": 720,
      "byteOffset": 55520,
      "target": 34962
    },
    {
      "buffer": 0,
      "byteLength": 480,
      "byteOffset": 56240,
      "target": 34962
    },
    {
      "buffer": 0,
      "byteLength": 696,
      "byteOffset": 56720,
      "target": 34962
    },
    {
      "buffer": 0,
      "byteLength": 696,
      "byteOffset": 57416,
      "target": 34962
    },
    {
      "buffer": 0,
      "byteLength": 464,
      "byteOffset": 58112,
      "target": 34962
    },
    {
      "buffer": 0,
      "byteLength": 120,
      "byteOffset": 58576,
      "target": 34963
    },
    {
      "buffer": 0,
      "byteLength": 720,
      "byteOffset": 58696,
      "target": 34962
    },
    {
      "buffer": 0,
      "byteLength": 720,
      "byteOffset": 59416,
      "target": 34962
    },
    {
      "buffer": 0,
      "byteLength": 480,
      "byteOffset": 60136,
      "target": 34962
    },
    {
      "buffer": 0,
      "byteLength": 120,
      "byteOffset": 60616,
      "target": 34963
    },
    {
      "buffer": 0,
      "byteLength": 720,
      "byteOffset": 60736,
      "target": 34962
    },
    {
      "buffer": 0,
      "byteLength": 720,
      "byteOffset": 61456,
      "target": 34962
    },
    {
      "buffer": 0,
      "byteLength": 480,
      "byteOffset": 62176,
      "target": 34962
    },
    {
      "buffer": 0,
      "byteLength": 720,
      "byteOffset": 62656,
      "target": 34962
    },
    {
      "buffer": 0,
      "byteLength": 720,
      "byteOffset": 63376,
      "target": 34962
    },
    {
      "buffer": 0,
      "byteLength": 480,
      "byteOffset": 64096,
      "target": 34962
    },
    {
      "buffer": 0,
      "byteLength": 720,
      "byteOffset": 64576,
      "target": 34962
    },
    {
      "buffer": 0,
      "byteLength": 720,
      "byteOffset": 65296,
      "target": 34962
    },
    {
      "buffer": 0,
      "byteLength": 480,
      "byteOffset": 66016,
      "target": 34962
    },
    {
      "buffer": 0,
      "byteLength": 720,
      "byteOffset": 66496,
      "target": 34962
    },
    {
      "buffer": 0,
      "byteLength": 720,
      "byteOffset": 67216,
      "target": 34962
    },
    {
      "buffer": 0,
      "byteLength": 480,
      "byteOffset": 67936,
      "target": 34962
    },
    {
      "buffer": 0,
      "byteLength": 720,
      "byteOffset": 68416,
      "target": 34962
    },
    {
      "buffer": 0,
      "byteLength": 720,
      "byteOffset": 69136,
      "target": 34962
    },
    {
      "buffer": 0,
      "byteLength": 480,
      "byteOffset": 69856,
      "target": 34962
    },
    {
      "buffer": 0,
      "byteLength": 720,
      "byteOffset": 70336,
      "target": 34962
    },
    {
      "buffer": 0,
      "byteLength": 720,
      "byteOffset": 71056,
      "target": 34962
    },
    {
      "buffer": 0,
      "byteLength": 480,
      "byteOffset": 71776,
      "target": 34962
    },
    {
      "buffer": 0,
      "byteLength": 720,
      "byteOffset": 72256,
      "target": 34962
    },
    {
      "buffer": 0,
      "byteLength": 720,
      "byteOffset": 72976,
      "target": 34962
    },
    {
      "buffer": 0,
      "byteLength": 480,
      "byteOffset": 73696,
      "target": 34962
    },
    {
      "buffer": 0,
      "byteLength": 720,
      "byteOffset": 74176,
      "target": 34962
    },
    {
      "buffer": 0,
      "byteLength": 720,
      "byteOffset": 74896,
      "target": 34962
    },
    {
      "buffer": 0,
      "byteLength": 480,
      "byteOffset": 75616,
      "target": 34962
    },
    {
      "buffer": 0,
      "byteLength": 720,
      "byteOffset": 76096,
      "target": 34962
    },
    {
      "buffer": 0,
      "byteLength": 720,
      "byteOffset": 76816,
      "target": 34962
    },
    {
      "buffer": 0,
      "byteLength": 480,
      "byteOffset": 77536,
      "target": 34962
    },
    {
      "buffer": 0,
      "byteLength": 696,
      "byteOffset": 78016,
      "target": 34962
    },
    {
      "buffer": 0,
      "byteLength": 696,
      "byteOffset": 78712,
      "target": 34962
    },
    {
      "buffer": 0,
      "byteLength": 464,
      "byteOffset": 79408,
      "target": 34962
    },
    {
      "buffer": 0,
      "byteLength": 120,
      "byteOffset": 79872,
      "target": 34963
    },
    {
      "buffer": 0,
      "byteLength": 720,
      "byteOffset": 79992,
      "target": 34962
    },
    {
      "buffer": 0,
      "byteLength": 720,
      "byteOffset": 80712,
      "target": 34962
    },
    {
      "buffer": 0,
      "byteLength": 480,
      "byteOffset": 81432,
      "target": 34962
    },
    {
      "buffer": 0,
      "byteLength": 720,
      "byteOffset": 81912,
      "target": 34962
    },
    {
      "buffer": 0,
      "byteLength": 720,
      "byteOffset": 82632,
      "target": 34962
    },
    {
      "buffer": 0,
      "byteLength": 480,
      "byteOffset": 83352,
      "target": 34962
    },
    {
      "buffer": 0,
      "byteLength": 720,
      "byteOffset": 83832,
      "target": 34962
    },
    {
      "buffer": 0,
      "byteLength": 720,
      "byteOffset": 84552,
      "target": 34962
    },
    {
      "buffer": 0,
      "byteLength": 480,
      "byteOffset": 85272,
      "target": 34962
    },
    {
      "buffer": 0,
      "byteLength": 720,
      "byteOffset": 85752,
      "target": 34962
    },
    {
      "buffer": 0,
      "byteLength": 720,
      "byteOffset": 86472,
      "target": 34962
    },
    {
      "buffer": 0,
      "byteLength": 480,
      "byteOffset": 87192,
      "target": 34962
    },
    {
      "buffer": 0,
      "byteLength": 720,
      "byteOffset": 87672,
      "target": 34962
    },
    {
      "buffer": 0,
      "byteLength": 720,
      "byteOffset": 88392,
      "target": 34962
    },
    {
      "buffer": 0,
      "byteLength": 480,
      "byteOffset": 89112,
      "target": 34962
    },
    {
      "buffer": 0,
      "byteLength": 720,
      "byteOffset": 89592,
      "target": 34962
    },
    {
      "buffer": 0,
      "byteLength": 720,
      "byteOffset": 90312,
      "target": 34962
    },
    {
      "buffer": 0,
      "byteLength": 480,
      "byteOffset": 91032,
      "target": 34962
    },
    {
      "buffer": 0,
      "byteLength": 720,
      "byteOffset": 91512,
      "target": 34962
    },
    {
      "buffer": 0,
      "byteLength": 720,
      "byteOffset": 92232,
      "target": 34962
    },
    {
      "buffer": 0,
      "byteLength": 480,
      "byteOffset": 92952,
      "target": 34962
    }
  ],
  "buffers": [
    {
      "byteLength": 93432,
      "uri": "rocks.tide_pool_shelf.lod2.bin"
    }
  ],
  "images": [
    {
      "name": "Coast_Rock_BaseColor",
      "uri": "coast_8cdb7ca38b8c1e3f88ee0a1f.png"
    }
  ],
  "materials": [
    {
      "doubleSided": true,
      "name": "Coast_rock",
      "pbrMetallicRoughness": {
        "baseColorTexture": {
          "index": 0
        },
        "metallicFactor": 0,
        "roughnessFactor": 0.949999988079071
      }
    }
  ],
  "meshes": [
    {
      "name": "Icosphere",
      "primitives": [
        {
          "attributes": {
            "NORMAL": 1,
            "POSITION": 0,
            "TEXCOORD_0": 2
          },
          "indices": 3,
          "material": 0
        }
      ]
    },
    {
      "name": "Icosphere.001",
      "primitives": [
        {
          "attributes": {
            "NORMAL": 5,
            "POSITION": 4,
            "TEXCOORD_0": 6
          },
          "indices": 7,
          "material": 0
        }
      ]
    },
    {
      "name": "Icosphere.002",
      "primitives": [
        {
          "attributes": {
            "NORMAL": 9,
            "POSITION": 8,
            "TEXCOORD_0": 10
          },
          "indices": 11,
          "material": 0
        }
      ]
    },
    {
      "name": "Icosphere.003",
      "primitives": [
        {
          "attributes": {
            "NORMAL": 13,
            "POSITION": 12,
            "TEXCOORD_0": 14
          },
          "indices": 15,
          "material": 0
        }
      ]
    },
    {
      "name": "Icosphere.004",
      "primitives": [
        {
          "attributes": {
            "NORMAL": 17,
            "POSITION": 16,
            "TEXCOORD_0": 18
          },
          "indices": 19,
          "material": 0
        }
      ]
    },
    {
      "name": "Icosphere.005",
      "primitives": [
        {
          "attributes": {
            "NORMAL": 21,
            "POSITION": 20,
            "TEXCOORD_0": 22
          },
          "indices": 23,
          "material": 0
        }
      ]
    },
    {
      "name": "Icosphere.006",
      "primitives": [
        {
          "attributes": {
            "NORMAL": 25,
            "POSITION": 24,
            "TEXCOORD_0": 26
          },
          "indices": 27,
          "material": 0
        }
      ]
    },
    {
      "name": "Icosphere.007",
      "primitives": [
        {
          "attributes": {
            "NORMAL": 29,
            "POSITION": 28,
            "TEXCOORD_0": 30
          },
          "indices": 31,
          "material": 0
        }
      ]
    },
    {
      "name": "Icosphere.008",
      "primitives": [
        {
          "attributes": {
            "NORMAL": 33,
            "POSITION": 32,
            "TEXCOORD_0": 34
          },
          "indices": 35,
          "material": 0
        }
      ]
    },
    {
      "name": "Icosphere.009",
      "primitives": [
        {
          "attributes": {
            "NORMAL": 37,
            "POSITION": 36,
            "TEXCOORD_0": 38
          },
          "indices": 39,
          "material": 0
        }
      ]
    },
    {
      "name": "Icosphere.010",
      "primitives": [
        {
          "attributes": {
            "NORMAL": 41,
            "POSITION": 40,
            "TEXCOORD_0": 42
          },
          "indices": 43,
          "material": 0
        }
      ]
    },
    {
      "name": "Icosphere.011",
      "primitives": [
        {
          "attributes": {
            "NORMAL": 45,
            "POSITION": 44,
            "TEXCOORD_0": 46
          },
          "indices": 47,
          "material": 0
        }
      ]
    },
    {
      "name": "Icosphere.012",
      "primitives": [
        {
          "attributes": {
            "NORMAL": 49,
            "POSITION": 48,
            "TEXCOORD_0": 50
          },
          "indices": 3,
          "material": 0
        }
      ]
    },
    {
      "name": "Icosphere.013",
      "primitives": [
        {
          "attributes": {
            "NORMAL": 52,
            "POSITION": 51,
            "TEXCOORD_0": 53
          },
          "indices": 7,
          "material": 0
        }
      ]
    },
    {
      "name": "Icosphere.014",
      "primitives": [
        {
          "attributes": {
            "NORMAL": 55,
            "POSITION": 54,
            "TEXCOORD_0": 56
          },
          "indices": 11,
          "material": 0
        }
      ]
    },
    {
      "name": "Icosphere.015",
      "primitives": [
        {
          "attributes": {
            "NORMAL": 58,
            "POSITION": 57,
            "TEXCOORD_0": 59
          },
          "indices": 15,
          "material": 0
        }
      ]
    },
    {
      "name": "Icosphere.016",
      "primitives": [
        {
          "attributes": {
            "NORMAL": 61,
            "POSITION": 60,
            "TEXCOORD_0": 62
          },
          "indices": 19,
          "material": 0
        }
      ]
    },
    {
      "name": "Icosphere.017",
      "primitives": [
        {
          "attributes": {
            "NORMAL": 64,
            "POSITION": 63,
            "TEXCOORD_0": 65
          },
          "indices": 66,
          "material": 0
        }
      ]
    },
    {
      "name": "Icosphere.018",
      "primitives": [
        {
          "attributes": {
            "NORMAL": 68,
            "POSITION": 67,
            "TEXCOORD_0": 69
          },
          "indices": 70,
          "material": 0
        }
      ]
    },
    {
      "name": "Icosphere.019",
      "primitives": [
        {
          "attributes": {
            "NORMAL": 72,
            "POSITION": 71,
            "TEXCOORD_0": 73
          },
          "indices": 31,
          "material": 0
        }
      ]
    },
    {
      "name": "Icosphere.020",
      "primitives": [
        {
          "attributes": {
            "NORMAL": 75,
            "POSITION": 74,
            "TEXCOORD_0": 76
          },
          "indices": 35,
          "material": 0
        }
      ]
    },
    {
      "name": "Icosphere.021",
      "primitives": [
        {
          "attributes": {
            "NORMAL": 78,
            "POSITION": 77,
            "TEXCOORD_0": 79
          },
          "indices": 39,
          "material": 0
        }
      ]
    },
    {
      "name": "Icosphere.022",
      "primitives": [
        {
          "attributes": {
            "NORMAL": 81,
            "POSITION": 80,
            "TEXCOORD_0": 82
          },
          "indices": 43,
          "material": 0
        }
      ]
    },
    {
      "name": "Icosphere.023",
      "primitives": [
        {
          "attributes": {
            "NORMAL": 84,
            "POSITION": 83,
            "TEXCOORD_0": 85
          },
          "indices": 47,
          "material": 0
        }
      ]
    },
    {
      "name": "Icosphere.024",
      "primitives": [
        {
          "attributes": {
            "NORMAL": 87,
            "POSITION": 86,
            "TEXCOORD_0": 88
          },
          "indices": 3,
          "material": 0
        }
      ]
    },
    {
      "name": "Icosphere.025",
      "primitives": [
        {
          "attributes": {
            "NORMAL": 90,
            "POSITION": 89,
            "TEXCOORD_0": 91
          },
          "indices": 7,
          "material": 0
        }
      ]
    },
    {
      "name": "Icosphere.026",
      "primitives": [
        {
          "attributes": {
            "NORMAL": 93,
            "POSITION": 92,
            "TEXCOORD_0": 94
          },
          "indices": 11,
          "material": 0
        }
      ]
    },
    {
      "name": "Icosphere.027",
      "primitives": [
        {
          "attributes": {
            "NORMAL": 96,
            "POSITION": 95,
            "TEXCOORD_0": 97
          },
          "indices": 15,
          "material": 0
        }
      ]
    },
    {
      "name": "Icosphere.028",
      "primitives": [
        {
          "attributes": {
            "NORMAL": 99,
            "POSITION": 98,
            "TEXCOORD_0": 100
          },
          "indices": 101,
          "material": 0
        }
      ]
    },
    {
      "name": "Icosphere.029",
      "primitives": [
        {
          "attributes": {
            "NORMAL": 103,
            "POSITION": 102,
            "TEXCOORD_0": 104
          },
          "indices": 23,
          "material": 0
        }
      ]
    },
    {
      "name": "Icosphere.030",
      "primitives": [
        {
          "attributes": {
            "NORMAL": 106,
            "POSITION": 105,
            "TEXCOORD_0": 107
          },
          "indices": 70,
          "material": 0
        }
      ]
    },
    {
      "name": "Icosphere.031",
      "primitives": [
        {
          "attributes": {
            "NORMAL": 109,
            "POSITION": 108,
            "TEXCOORD_0": 110
          },
          "indices": 31,
          "material": 0
        }
      ]
    },
    {
      "name": "Icosphere.032",
      "primitives": [
        {
          "attributes": {
            "NORMAL": 112,
            "POSITION": 111,
            "TEXCOORD_0": 113
          },
          "indices": 35,
          "material": 0
        }
      ]
    },
    {
      "name": "Icosphere.033",
      "primitives": [
        {
          "attributes": {
            "NORMAL": 115,
            "POSITION": 114,
            "TEXCOORD_0": 116
          },
          "indices": 39,
          "material": 0
        }
      ]
    },
    {
      "name": "Icosphere.034",
      "primitives": [
        {
          "attributes": {
            "NORMAL": 118,
            "POSITION": 117,
            "TEXCOORD_0": 119
          },
          "indices": 43,
          "material": 0
        }
      ]
    },
    {
      "name": "Icosphere.035",
      "primitives": [
        {
          "attributes": {
            "NORMAL": 121,
            "POSITION": 120,
            "TEXCOORD_0": 122
          },
          "indices": 47,
          "material": 0
        }
      ]
    }
  ],
  "nodes": [
    {
      "mesh": 0,
      "name": "PoolRim"
    },
    {
      "mesh": 1,
      "name": "PoolRim.001"
    },
    {
      "mesh": 2,
      "name": "PoolRim.002"
    },
    {
      "mesh": 3,
      "name": "PoolRim.003"
    },
    {
      "mesh": 4,
      "name": "PoolRim.004"
    },
    {
      "mesh": 5,
      "name": "PoolRim.005"
    },
    {
      "mesh": 6,
      "name": "PoolRim.006"
    },
    {
      "mesh": 7,
      "name": "PoolRim.007"
    },
    {
      "mesh": 8,
      "name": "PoolRim.008"
    },
    {
      "mesh": 9,
      "name": "PoolRim.009"
    },
    {
      "mesh": 10,
      "name": "PoolRim.010"
    },
    {
      "mesh": 11,
      "name": "PoolRim.011"
    },
    {
      "mesh": 12,
      "name": "PoolRim.012"
    },
    {
      "mesh": 13,
      "name": "PoolRim.013"
    },
    {
      "mesh": 14,
      "name": "PoolRim.014"
    },
    {
      "mesh": 15,
      "name": "PoolRim.015"
    },
    {
      "mesh": 16,
      "name": "PoolRim.016"
    },
    {
      "mesh": 17,
      "name": "PoolRim.017"
    },
    {
      "mesh": 18,
      "name": "PoolRim.018"
    },
    {
      "mesh": 19,
      "name": "PoolRim.019"
    },
    {
      "mesh": 20,
      "name": "PoolRim.020"
    },
    {
      "mesh": 21,
      "name": "PoolRim.021"
    },
    {
      "mesh": 22,
      "name": "PoolRim.022"
    },
    {
      "mesh": 23,
      "name": "PoolRim.023"
    },
    {
      "mesh": 24,
      "name": "PoolRim.024"
    },
    {
      "mesh": 25,
      "name": "PoolRim.025"
    },
    {
      "mesh": 26,
      "name": "PoolRim.026"
    },
    {
      "mesh": 27,
      "name": "PoolRim.027"
    },
    {
      "mesh": 28,
      "name": "PoolRim.028"
    },
    {
      "mesh": 29,
      "name": "PoolRim.029"
    },
    {
      "mesh": 30,
      "name": "PoolRim.030"
    },
    {
      "mesh": 31,
      "name": "PoolRim.031"
    },
    {
      "mesh": 32,
      "name": "PoolRim.032"
    },
    {
      "mesh": 33,
      "name": "PoolRim.033"
    },
    {
      "mesh": 34,
      "name": "PoolRim.034"
    },
    {
      "mesh": 35,
      "name": "PoolRim.035"
    }
  ],
  "samplers": [
    {
      "magFilter": 9729,
      "minFilter": 9987
    }
  ],
  "scene": 0,
  "scenes": [
    {
      "name": "Scene",
      "nodes": [
        0,
        1,
        2,
        3,
        4,
        5,
        6,
        7,
        8,
        9,
        10,
        11,
        12,
        13,
        14,
        15,
        16,
        17,
        18,
        19,
        20,
        21,
        22,
        23,
        24,
        25,
        26,
        27,
        28,
        29,
        30,
        31,
        32,
        33,
        34,
        35
      ]
    }
  ],
  "textures": [
    {
      "sampler": 0,
      "source": 0
    }
  ]
}
