{
  "accessors": [
    {
      "bufferView": 0,
      "componentType": 5126,
      "count": 60,
      "max": [
        5.017695903778076,
        7.150193214416504,
        1.7347981929779053
      ],
      "min": [
        2.068268060684204,
        4.4316582679748535,
        -1.4013071060180664
      ],
      "type": "VEC3"
    },
    {
      "bufferView": 1,
      "componentType": 5126,
      "count": 60,
      "type": "VEC3"
    },
    {
      "bufferView": 2,
      "componentType": 5126,
      "count": 60,
      "type": "VEC2"
    },
    {
      "bufferView": 3,
      "componentType": 5123,
      "count": 60,
      "type": "SCALAR"
    },
    {
      "bufferView": 5,
      "componentType": 5126,
      "count": 60,
      "max": [
        3.8332717418670654,
        8.33485221862793,
        1.4434895515441895
      ],
      "min": [
        1.016541600227356,
        5.7306671142578125,
        -1.4814175367355347
      ],
      "type": "VEC3"
    },
    {
      "bufferView": 6,
      "componentType": 5126,
      "count": 60,
      "type": "VEC3"
    },
    {
      "bufferView": 7,
      "componentType": 5126,
      "count": 60,
      "type": "VEC2"
    },
    {
      "bufferView": 8,
      "componentType": 5123,
      "count": 60,
      "type": "SCALAR"
    },
    {
      "bufferView": 9,
      "componentType": 5126,
      "count": 60,
      "max": [
        1.5742642879486084,
        8.876913070678711,
        1.3747978210449219
      ],
      "min": [
        -1.3900740146636963,
        6.260181427001953,
        -1.3480838537216187
      ],
      "type": "VEC3"
    },
    {
      "bufferView": 10,
      "componentType": 5126,
      "count": 60,
      "type": "VEC3"
    },
    {
      "bufferView": 11,
      "componentType": 5126,
      "count": 60,
      "type": "VEC2"
    },
    {
      "bufferView": 12,
      "componentType": 5123,
      "count": 60,
      "type": "SCALAR"
    },
    {
      "bufferView": 13,
      "componentType": 5126,
      "count": 60,
      "max": [
        -0.8135761618614197,
        8.286921501159668,
        1.5691381692886353
      ],
      "min": [
        -3.9388842582702637,
        5.832615375518799,
        -1.4114619493484497
      ],
      "type": "VEC3"
    },
    {
      "bufferView": 14,
      "componentType": 5126,
      "count": 60,
      "type": "VEC3"
    },
    {
      "bufferView": 15,
      "componentType": 5126,
      "count": 60,
      "type": "VEC2"
    },
    {
      "bufferView": 16,
      "componentType": 5123,
      "count": 60,
      "type": "SCALAR"
    },
    {
      "bufferView": 17,
      "componentType": 5126,
      "count": 60,
      "max": [
        -2.0677406787872314,
        7.072914123535156,
        1.2997856140136719
      ],
      "min": [
        -4.839261054992676,
        4.750340938568115,
        -1.5118980407714844
      ],
      "type": "VEC3"
    },
    {
      "bufferView": 18,
      "componentType": 5126,
      "count": 60,
      "type": "VEC3"
    },
    {
      "bufferView": 19,
      "componentType": 5126,
      "count": 60,
      "type": "VEC2"
    },
    {
      "bufferView": 20,
      "componentType": 5123,
      "count": 60,
      "type": "SCALAR"
    },
    {
      "bufferView": 21,
      "componentType": 5126,
      "count": 58,
      "max": [
        -1.7532358169555664,
        6.652596950531006,
        1.0742688179016113
      ],
      "min": [
        -5.074277877807617,
        -0.7413690686225891,
        -1.481564998626709
      ],
      "type": "VEC3"
    },
    {
      "bufferView": 22,
      "componentType": 5126,
      "count": 58,
      "type": "VEC3"
    },
    {
      "bufferView": 23,
      "componentType": 5126,
      "count": 58,
      "type": "VEC2"
    },
    {
      "bufferView": 24,
      "componentType": 5123,
      "count": 60,
      "type": "SCALAR"
    },
    {
      "bufferView": 25,
      "componentType": 5126,
      "count": 60,
      "max": [
        5.257074356079102,
        6.515461444854736,
        1.4172720909118652
      ],
      "min": [
        1.8895010948181152,
        -0.24449990689754486,
        -1.5767475366592407
      ],
      "type": "VEC3"
    },
    {
      "bufferView": 26,
      "componentType": 5126,
      "count": 60,
      "type": "VEC3"
    },
    {
      "bufferView": 27,
      "componentType": 5126,
      "count": 60,
      "type": "VEC2"
    },
    {
      "bufferView": 28,
      "componentType": 5123,
      "count": 60,
      "type": "SCALAR"
    }
  ],
  "asset": {
    "generator": "Khronos glTF Blender I/O v5.2.40",
    "version": "2.0"
  },
  "bufferViews": [
    {
      "buffer": 0,
      "byteLength": 720,
      "byteOffset": 0,
      "target": 34962
    },
    {
      "buffer": 0,
      "byteLength": 720,
      "byteOffset": 720,
      "target": 34962
    },
    {
      "buffer": 0,
      "byteLength": 480,
      "byteOffset": 1440,
      "target": 34962
    },
    {
      "buffer": 0,
      "byteLength": 120,
      "byteOffset": 1920,
      "target": 34963
    },
    {
      "buffer": 0,
      "byteLength": 22702,
      "byteOffset": 2040
    },
    {
      "buffer": 0,
      "byteLength": 720,
      "byteOffset": 24744,
      "target": 34962
    },
    {
      "buffer": 0,
      "byteLength": 720,
      "byteOffset": 25464,
      "target": 34962
    },
    {
      "buffer": 0,
      "byteLength": 480,
      "byteOffset": 26184,
      "target": 34962
    },
    {
      "buffer": 0,
      "byteLength": 120,
      "byteOffset": 26664,
      "target": 34963
    },
    {
      "buffer": 0,
      "byteLength": 720,
      "byteOffset": 26784,
      "target": 34962
    },
    {
      "buffer": 0,
      "byteLength": 720,
      "byteOffset": 27504,
      "target": 34962
    },
    {
      "buffer": 0,
      "byteLength": 480,
      "byteOffset": 28224,
      "target": 34962
    },
    {
      "buffer": 0,
      "byteLength": 120,
      "byteOffset": 28704,
      "target": 34963
    },
    {
      "buffer": 0,
      "byteLength": 720,
      "byteOffset": 28824,
      "target": 34962
    },
    {
      "buffer": 0,
      "byteLength": 720,
      "byteOffset": 29544,
      "target": 34962
    },
    {
      "buffer": 0,
      "byteLength": 480,
      "byteOffset": 30264,
      "target": 34962
    },
    {
      "buffer": 0,
      "byteLength": 120,
      "byteOffset": 30744,
      "target": 34963
    },
    {
      "buffer": 0,
      "byteLength": 720,
      "byteOffset": 30864,
      "target": 34962
    },
    {
      "buffer": 0,
      "byteLength": 720,
      "byteOffset": 31584,
      "target": 34962
    },
    {
      "buffer": 0,
      "byteLength": 480,
      "byteOffset": 32304,
      "target": 34962
    },
    {
      "buffer": 0,
      "byteLength": 120,
      "byteOffset": 32784,
      "target": 34963
    },
    {
      "buffer": 0,
      "byteLength": 696,
      "byteOffset": 32904,
      "target": 34962
    },
    {
      "buffer": 0,
      "byteLength": 696,
      "byteOffset": 33600,
      "target": 34962
    },
    {
      "buffer": 0,
      "byteLength": 464,
      "byteOffset": 34296,
      "target": 34962
    },
    {
      "buffer": 0,
      "byteLength": 120,
      "byteOffset": 34760,
      "target": 34963
    },
    {
      "buffer": 0,
      "byteLength": 720,
      "byteOffset": 34880,
      "target": 34962
    },
    {
      "buffer": 0,
      "byteLength": 720,
      "byteOffset": 35600,
      "target": 34962
    },
    {
      "buffer": 0,
      "byteLength": 480,
      "byteOffset": 36320,
      "target": 34962
    },
    {
      "buffer": 0,
      "byteLength": 120,
      "byteOffset": 36800,
      "target": 34963
    }
  ],
  "buffers": [
    {
      "byteLength": 36920,
      "uri": "rocks.sea_arch.lod2.bin"
    }
  ],
  "images": [
    {
      "name": "Coast_Rock_BaseColor",
      "uri": "coast_8cdb7ca38b8c1e3f88ee0a1f.png"
    }
  ],
  "materials": [
    {
      "doubleSided": true,
      "name": "Coast_rock",
      "pbrMetallicRoughness": {
        "baseColorTexture": {
          "index": 0
        },
        "metallicFactor": 0,
        "roughnessFactor": 0.949999988079071
      }
    }
  ],
  "meshes": [
    {
      "name": "Icosphere.002",
      "primitives": [
        {
          "attributes": {
            "NORMAL": 1,
            "POSITION": 0,
            "TEXCOORD_0": 2
          },
          "indices": 3,
          "material": 0
        }
      ]
    },
    {
      "name": "Icosphere.003",
      "primitives": [
        {
          "attributes": {
            "NORMAL": 5,
            "POSITION": 4,
            "TEXCOORD_0": 6
          },
          "indices": 7,
          "material": 0
        }
      ]
    },
    {
      "name": "Icosphere.004",
      "primitives": [
        {
          "attributes": {
            "NORMAL": 9,
            "POSITION": 8,
            "TEXCOORD_0": 10
          },
          "indices": 11,
          "material": 0
        }
      ]
    },
    {
      "name": "Icosphere.005",
      "primitives": [
        {
          "attributes": {
            "NORMAL": 13,
            "POSITION": 12,
            "TEXCOORD_0": 14
          },
          "indices": 15,
          "material": 0
        }
      ]
    },
    {
      "name": "Icosphere.006",
      "primitives": [
        {
          "attributes": {
            "NORMAL": 17,
            "POSITION": 16,
            "TEXCOORD_0": 18
          },
          "indices": 19,
          "material": 0
        }
      ]
    },
    {
      "name": "Icosphere",
      "primitives": [
        {
          "attributes": {
            "NORMAL": 21,
            "POSITION": 20,
            "TEXCOORD_0": 22
          },
          "indices": 23,
          "material": 0
        }
      ]
    },
    {
      "name": "Icosphere.001",
      "primitives": [
        {
          "attributes": {
            "NORMAL": 25,
            "POSITION": 24,
            "TEXCOORD_0": 26
          },
          "indices": 27,
          "material": 0
        }
      ]
    }
  ],
  "nodes": [
    {
      "mesh": 0,
      "name": "ArchCrown"
    },
    {
      "mesh": 1,
      "name": "ArchCrown.001"
    },
    {
      "mesh": 2,
      "name": "ArchCrown.002"
    },
    {
      "mesh": 3,
      "name": "ArchCrown.003"
    },
    {
      "mesh": 4,
      "name": "ArchCrown.004"
    },
    {
      "mesh": 5,
      "name": "ArchPier"
    },
    {
      "mesh": 6,
      "name": "ArchPier.001"
    }
  ],
  "samplers": [
    {
      "magFilter": 9729,
      "minFilter": 9987
    }
  ],
  "scene": 0,
  "scenes": [
    {
      "name": "Scene",
      "nodes": [
        0,
        1,
        2,
        3,
        4,
        5,
        6
      ]
    }
  ],
  "textures": [
    {
      "sampler": 0,
      "source": 0
    }
  ]
}
