{
  "accessors": [
    {
      "bufferView": 0,
      "componentType": 5126,
      "count": 424,
      "max": [
        0.36620891094207764,
        0.21000000834465027,
        0.3179422914981842
      ],
      "min": [
        -0.36620891094207764,
        0.010468665510416031,
        -0.2222461700439453
      ],
      "type": "VEC3"
    },
    {
      "bufferView": 1,
      "componentType": 5126,
      "count": 424,
      "type": "VEC3"
    },
    {
      "bufferView": 2,
      "componentType": 5126,
      "count": 424,
      "type": "VEC2"
    },
    {
      "bufferView": 3,
      "componentType": 5121,
      "count": 424,
      "type": "VEC4"
    },
    {
      "bufferView": 4,
      "componentType": 5126,
      "count": 424,
      "type": "VEC4"
    },
    {
      "bufferView": 5,
      "componentType": 5123,
      "count": 576,
      "type": "SCALAR"
    },
    {
      "bufferView": 6,
      "componentType": 5126,
      "count": 48,
      "max": [
        0.08399999886751175,
        0.23626098036766052,
        0.1525219827890396
      ],
      "min": [
        -0.08399999886751175,
        0.1437390148639679,
        0.08747802674770355
      ],
      "type": "VEC3"
    },
    {
      "bufferView": 7,
      "componentType": 5126,
      "count": 48,
      "type": "VEC3"
    },
    {
      "bufferView": 8,
      "componentType": 5126,
      "count": 48,
      "type": "VEC2"
    },
    {
      "bufferView": 9,
      "componentType": 5121,
      "count": 48,
      "type": "VEC4"
    },
    {
      "bufferView": 10,
      "componentType": 5126,
      "count": 48,
      "type": "VEC4"
    },
    {
      "bufferView": 11,
      "componentType": 5123,
      "count": 72,
      "type": "SCALAR"
    },
    {
      "bufferView": 12,
      "componentType": 5126,
      "count": 3,
      "type": "MAT4"
    },
    {
      "bufferView": 13,
      "componentType": 5126,
      "count": 2,
      "max": [
        1.375
      ],
      "min": [
        0.041666666666666664
      ],
      "type": "SCALAR"
    },
    {
      "bufferView": 14,
      "componentType": 5126,
      "count": 2,
      "type": "VEC3"
    },
    {
      "bufferView": 15,
      "componentType": 5126,
      "count": 33,
      "max": [
        1.375
      ],
      "min": [
        0.041666666666666664
      ],
      "type": "SCALAR"
    },
    {
      "bufferView": 16,
      "componentType": 5126,
      "count": 33,
      "type": "VEC4"
    },
    {
      "bufferView": 17,
      "componentType": 5126,
      "count": 2,
      "type": "VEC3"
    },
    {
      "bufferView": 18,
      "componentType": 5126,
      "count": 2,
      "type": "VEC3"
    },
    {
      "bufferView": 19,
      "componentType": 5126,
      "count": 2,
      "type": "VEC4"
    },
    {
      "bufferView": 20,
      "componentType": 5126,
      "count": 2,
      "type": "VEC3"
    },
    {
      "bufferView": 21,
      "componentType": 5126,
      "count": 33,
      "type": "VEC4"
    },
    {
      "bufferView": 22,
      "componentType": 5126,
      "count": 33,
      "type": "VEC4"
    }
  ],
  "animations": [
    {
      "channels": [
        {
          "sampler": 0,
          "target": {
            "node": 2,
            "path": "translation"
          }
        },
        {
          "sampler": 1,
          "target": {
            "node": 2,
            "path": "rotation"
          }
        },
        {
          "sampler": 2,
          "target": {
            "node": 2,
            "path": "scale"
          }
        },
        {
          "sampler": 3,
          "target": {
            "node": 0,
            "path": "translation"
          }
        },
        {
          "sampler": 4,
          "target": {
            "node": 0,
            "path": "rotation"
          }
        },
        {
          "sampler": 5,
          "target": {
            "node": 0,
            "path": "scale"
          }
        },
        {
          "sampler": 6,
          "target": {
            "node": 1,
            "path": "translation"
          }
        },
        {
          "sampler": 7,
          "target": {
            "node": 1,
            "path": "rotation"
          }
        },
        {
          "sampler": 8,
          "target": {
            "node": 1,
            "path": "scale"
          }
        }
      ],
      "name": "idle",
      "samplers": [
        {
          "input": 13,
          "interpolation": "STEP",
          "output": 14
        },
        {
          "input": 15,
          "interpolation": "LINEAR",
          "output": 16
        },
        {
          "input": 13,
          "interpolation": "STEP",
          "output": 17
        },
        {
          "input": 13,
          "interpolation": "STEP",
          "output": 18
        },
        {
          "input": 13,
          "interpolation": "STEP",
          "output": 19
        },
        {
          "input": 13,
          "interpolation": "STEP",
          "output": 17
        },
        {
          "input": 13,
          "interpolation": "STEP",
          "output": 20
        },
        {
          "input": 13,
          "interpolation": "STEP",
          "output": 19
        },
        {
          "input": 13,
          "interpolation": "STEP",
          "output": 17
        }
      ]
    },
    {
      "channels": [
        {
          "sampler": 0,
          "target": {
            "node": 2,
            "path": "translation"
          }
        },
        {
          "sampler": 1,
          "target": {
            "node": 2,
            "path": "rotation"
          }
        },
        {
          "sampler": 2,
          "target": {
            "node": 2,
            "path": "scale"
          }
        },
        {
          "sampler": 3,
          "target": {
            "node": 0,
            "path": "translation"
          }
        },
        {
          "sampler": 4,
          "target": {
            "node": 0,
            "path": "rotation"
          }
        },
        {
          "sampler": 5,
          "target": {
            "node": 0,
            "path": "scale"
          }
        },
        {
          "sampler": 6,
          "target": {
            "node": 1,
            "path": "translation"
          }
        },
        {
          "sampler": 7,
          "target": {
            "node": 1,
            "path": "rotation"
          }
        },
        {
          "sampler": 8,
          "target": {
            "node": 1,
            "path": "scale"
          }
        }
      ],
      "name": "walk",
      "samplers": [
        {
          "input": 13,
          "interpolation": "STEP",
          "output": 14
        },
        {
          "input": 13,
          "interpolation": "STEP",
          "output": 19
        },
        {
          "input": 13,
          "interpolation": "STEP",
          "output": 17
        },
        {
          "input": 13,
          "interpolation": "STEP",
          "output": 18
        },
        {
          "input": 15,
          "interpolation": "LINEAR",
          "output": 21
        },
        {
          "input": 13,
          "interpolation": "STEP",
          "output": 17
        },
        {
          "input": 13,
          "interpolation": "STEP",
          "output": 20
        },
        {
          "input": 15,
          "interpolation": "LINEAR",
          "output": 22
        },
        {
          "input": 13,
          "interpolation": "STEP",
          "output": 17
        }
      ]
    }
  ],
  "asset": {
    "generator": "Khronos glTF Blender I/O v5.2.40",
    "version": "2.0"
  },
  "bufferViews": [
    {
      "buffer": 0,
      "byteLength": 5088,
      "byteOffset": 0,
      "target": 34962
    },
    {
      "buffer": 0,
      "byteLength": 5088,
      "byteOffset": 5088,
      "target": 34962
    },
    {
      "buffer": 0,
      "byteLength": 3392,
      "byteOffset": 10176,
      "target": 34962
    },
    {
      "buffer": 0,
      "byteLength": 1696,
      "byteOffset": 13568,
      "target": 34962
    },
    {
      "buffer": 0,
      "byteLength": 6784,
      "byteOffset": 15264,
      "target": 34962
    },
    {
      "buffer": 0,
      "byteLength": 1152,
      "byteOffset": 22048,
      "target": 34963
    },
    {
      "buffer": 0,
      "byteLength": 576,
      "byteOffset": 23200,
      "target": 34962
    },
    {
      "buffer": 0,
      "byteLength": 576,
      "byteOffset": 23776,
      "target": 34962
    },
    {
      "buffer": 0,
      "byteLength": 384,
      "byteOffset": 24352,
      "target": 34962
    },
    {
      "buffer": 0,
      "byteLength": 192,
      "byteOffset": 24736,
      "target": 34962
    },
    {
      "buffer": 0,
      "byteLength": 768,
      "byteOffset": 24928,
      "target": 34962
    },
    {
      "buffer": 0,
      "byteLength": 144,
      "byteOffset": 25696,
      "target": 34963
    },
    {
      "buffer": 0,
      "byteLength": 192,
      "byteOffset": 25840
    },
    {
      "buffer": 0,
      "byteLength": 8,
      "byteOffset": 26032
    },
    {
      "buffer": 0,
      "byteLength": 24,
      "byteOffset": 26040
    },
    {
      "buffer": 0,
      "byteLength": 132,
      "byteOffset": 26064
    },
    {
      "buffer": 0,
      "byteLength": 528,
      "byteOffset": 26196
    },
    {
      "buffer": 0,
      "byteLength": 24,
      "byteOffset": 26724
    },
    {
      "buffer": 0,
      "byteLength": 24,
      "byteOffset": 26748
    },
    {
      "buffer": 0,
      "byteLength": 32,
      "byteOffset": 26772
    },
    {
      "buffer": 0,
      "byteLength": 24,
      "byteOffset": 26804
    },
    {
      "buffer": 0,
      "byteLength": 528,
      "byteOffset": 26828
    },
    {
      "buffer": 0,
      "byteLength": 528,
      "byteOffset": 27356
    }
  ],
  "buffers": [
    {
      "byteLength": 27884,
      "uri": "crab.bin"
    }
  ],
  "materials": [
    {
      "doubleSided": true,
      "name": "Coast_red",
      "pbrMetallicRoughness": {
        "baseColorFactor": [
          0.6299999952316284,
          0.17000000178813934,
          0.10000000149011612,
          1
        ],
        "metallicFactor": 0,
        "roughnessFactor": 0.800000011920929
      }
    },
    {
      "doubleSided": true,
      "name": "Coast_iron",
      "pbrMetallicRoughness": {
        "baseColorFactor": [
          0.10000000149011612,
          0.12999999523162842,
          0.14000000059604645,
          1
        ],
        "metallicFactor": 0,
        "roughnessFactor": 0.6000000238418579
      }
    }
  ],
  "meshes": [
    {
      "name": "Crab",
      "primitives": [
        {
          "attributes": {
            "JOINTS_0": 3,
            "NORMAL": 1,
            "POSITION": 0,
            "TEXCOORD_0": 2,
            "WEIGHTS_0": 4
          },
          "indices": 5,
          "material": 0
        },
        {
          "attributes": {
            "JOINTS_0": 9,
            "NORMAL": 7,
            "POSITION": 6,
            "TEXCOORD_0": 8,
            "WEIGHTS_0": 10
          },
          "indices": 11,
          "material": 1
        }
      ]
    }
  ],
  "nodes": [
    {
      "name": "left",
      "translation": [
        -0.14000000059604645,
        0.10000000149011612,
        0
      ]
    },
    {
      "name": "right",
      "translation": [
        0.14000000059604645,
        0.10000000149011612,
        0
      ]
    },
    {
      "children": [
        0,
        1
      ],
      "name": "body"
    },
    {
      "mesh": 0,
      "name": "Crab",
      "skin": 0
    },
    {
      "children": [
        3,
        2
      ],
      "name": "Crab_Rig"
    }
  ],
  "scene": 0,
  "scenes": [
    {
      "name": "Scene",
      "nodes": [
        4
      ]
    }
  ],
  "skins": [
    {
      "inverseBindMatrices": 12,
      "joints": [
        2,
        0,
        1
      ],
      "name": "Crab_Rig"
    }
  ]
}
