{
  "accessors": [
    {
      "bufferView": 0,
      "componentType": 5126,
      "count": 112,
      "max": [
        0.044999998062849045,
        0.21000000834465027,
        0.18999996781349182
      ],
      "min": [
        -0.044999998062849045,
        0.0299999937415123,
        -0.1899999976158142
      ],
      "type": "VEC3"
    },
    {
      "bufferView": 1,
      "componentType": 5126,
      "count": 112,
      "type": "VEC3"
    },
    {
      "bufferView": 2,
      "componentType": 5126,
      "count": 112,
      "type": "VEC2"
    },
    {
      "bufferView": 3,
      "componentType": 5121,
      "count": 112,
      "type": "VEC4"
    },
    {
      "bufferView": 4,
      "componentType": 5126,
      "count": 112,
      "type": "VEC4"
    },
    {
      "bufferView": 5,
      "componentType": 5123,
      "count": 144,
      "type": "SCALAR"
    },
    {
      "bufferView": 6,
      "componentType": 5126,
      "count": 48,
      "max": [
        0.008999999612569809,
        0.2549999952316284,
        0.054999999701976776
      ],
      "min": [
        -0.008999999612569809,
        0.034999996423721313,
        -0.25999999046325684
      ],
      "type": "VEC3"
    },
    {
      "bufferView": 7,
      "componentType": 5126,
      "count": 48,
      "type": "VEC3"
    },
    {
      "bufferView": 8,
      "componentType": 5126,
      "count": 48,
      "type": "VEC2"
    },
    {
      "bufferView": 9,
      "componentType": 5121,
      "count": 48,
      "type": "VEC4"
    },
    {
      "bufferView": 10,
      "componentType": 5126,
      "count": 48,
      "type": "VEC4"
    },
    {
      "bufferView": 11,
      "componentType": 5123,
      "count": 72,
      "type": "SCALAR"
    },
    {
      "bufferView": 12,
      "componentType": 5126,
      "count": 2,
      "type": "MAT4"
    },
    {
      "bufferView": 13,
      "componentType": 5126,
      "count": 2,
      "max": [
        1.375
      ],
      "min": [
        0.041666666666666664
      ],
      "type": "SCALAR"
    },
    {
      "bufferView": 14,
      "componentType": 5126,
      "count": 2,
      "type": "VEC3"
    },
    {
      "bufferView": 15,
      "componentType": 5126,
      "count": 2,
      "type": "VEC4"
    },
    {
      "bufferView": 16,
      "componentType": 5126,
      "count": 2,
      "type": "VEC3"
    },
    {
      "bufferView": 17,
      "componentType": 5126,
      "count": 2,
      "type": "VEC3"
    },
    {
      "bufferView": 18,
      "componentType": 5126,
      "count": 33,
      "max": [
        1.375
      ],
      "min": [
        0.041666666666666664
      ],
      "type": "SCALAR"
    },
    {
      "bufferView": 19,
      "componentType": 5126,
      "count": 33,
      "type": "VEC4"
    },
    {
      "bufferView": 20,
      "componentType": 5126,
      "count": 33,
      "type": "VEC4"
    }
  ],
  "animations": [
    {
      "channels": [
        {
          "sampler": 0,
          "target": {
            "node": 1,
            "path": "translation"
          }
        },
        {
          "sampler": 1,
          "target": {
            "node": 1,
            "path": "rotation"
          }
        },
        {
          "sampler": 2,
          "target": {
            "node": 1,
            "path": "scale"
          }
        },
        {
          "sampler": 3,
          "target": {
            "node": 0,
            "path": "translation"
          }
        },
        {
          "sampler": 4,
          "target": {
            "node": 0,
            "path": "rotation"
          }
        },
        {
          "sampler": 5,
          "target": {
            "node": 0,
            "path": "scale"
          }
        }
      ],
      "name": "idle",
      "samplers": [
        {
          "input": 13,
          "interpolation": "STEP",
          "output": 14
        },
        {
          "input": 13,
          "interpolation": "STEP",
          "output": 15
        },
        {
          "input": 13,
          "interpolation": "STEP",
          "output": 16
        },
        {
          "input": 13,
          "interpolation": "STEP",
          "output": 17
        },
        {
          "input": 18,
          "interpolation": "LINEAR",
          "output": 19
        },
        {
          "input": 13,
          "interpolation": "STEP",
          "output": 16
        }
      ]
    },
    {
      "channels": [
        {
          "sampler": 0,
          "target": {
            "node": 1,
            "path": "translation"
          }
        },
        {
          "sampler": 1,
          "target": {
            "node": 1,
            "path": "rotation"
          }
        },
        {
          "sampler": 2,
          "target": {
            "node": 1,
            "path": "scale"
          }
        },
        {
          "sampler": 3,
          "target": {
            "node": 0,
            "path": "translation"
          }
        },
        {
          "sampler": 4,
          "target": {
            "node": 0,
            "path": "rotation"
          }
        },
        {
          "sampler": 5,
          "target": {
            "node": 0,
            "path": "scale"
          }
        }
      ],
      "name": "swim",
      "samplers": [
        {
          "input": 13,
          "interpolation": "STEP",
          "output": 14
        },
        {
          "input": 13,
          "interpolation": "STEP",
          "output": 15
        },
        {
          "input": 13,
          "interpolation": "STEP",
          "output": 16
        },
        {
          "input": 13,
          "interpolation": "STEP",
          "output": 17
        },
        {
          "input": 18,
          "interpolation": "LINEAR",
          "output": 20
        },
        {
          "input": 13,
          "interpolation": "STEP",
          "output": 16
        }
      ]
    }
  ],
  "asset": {
    "generator": "Khronos glTF Blender I/O v5.2.40",
    "version": "2.0"
  },
  "bufferViews": [
    {
      "buffer": 0,
      "byteLength": 1344,
      "byteOffset": 0,
      "target": 34962
    },
    {
      "buffer": 0,
      "byteLength": 1344,
      "byteOffset": 1344,
      "target": 34962
    },
    {
      "buffer": 0,
      "byteLength": 896,
      "byteOffset": 2688,
      "target": 34962
    },
    {
      "buffer": 0,
      "byteLength": 448,
      "byteOffset": 3584,
      "target": 34962
    },
    {
      "buffer": 0,
      "byteLength": 1792,
      "byteOffset": 4032,
      "target": 34962
    },
    {
      "buffer": 0,
      "byteLength": 288,
      "byteOffset": 5824,
      "target": 34963
    },
    {
      "buffer": 0,
      "byteLength": 576,
      "byteOffset": 6112,
      "target": 34962
    },
    {
      "buffer": 0,
      "byteLength": 576,
      "byteOffset": 6688,
      "target": 34962
    },
    {
      "buffer": 0,
      "byteLength": 384,
      "byteOffset": 7264,
      "target": 34962
    },
    {
      "buffer": 0,
      "byteLength": 192,
      "byteOffset": 7648,
      "target": 34962
    },
    {
      "buffer": 0,
      "byteLength": 768,
      "byteOffset": 7840,
      "target": 34962
    },
    {
      "buffer": 0,
      "byteLength": 144,
      "byteOffset": 8608,
      "target": 34963
    },
    {
      "buffer": 0,
      "byteLength": 128,
      "byteOffset": 8752
    },
    {
      "buffer": 0,
      "byteLength": 8,
      "byteOffset": 8880
    },
    {
      "buffer": 0,
      "byteLength": 24,
      "byteOffset": 8888
    },
    {
      "buffer": 0,
      "byteLength": 32,
      "byteOffset": 8912
    },
    {
      "buffer": 0,
      "byteLength": 24,
      "byteOffset": 8944
    },
    {
      "buffer": 0,
      "byteLength": 24,
      "byteOffset": 8968
    },
    {
      "buffer": 0,
      "byteLength": 132,
      "byteOffset": 8992
    },
    {
      "buffer": 0,
      "byteLength": 528,
      "byteOffset": 9124
    },
    {
      "buffer": 0,
      "byteLength": 528,
      "byteOffset": 9652
    }
  ],
  "buffers": [
    {
      "byteLength": 10180,
      "uri": "fish.bin"
    }
  ],
  "materials": [
    {
      "doubleSided": true,
      "name": "Coast_roof",
      "pbrMetallicRoughness": {
        "baseColorFactor": [
          0.23999999463558197,
          0.3100000023841858,
          0.3400000035762787,
          1
        ],
        "metallicFactor": 0,
        "roughnessFactor": 0.8999999761581421
      }
    },
    {
      "doubleSided": true,
      "name": "Coast_shell",
      "pbrMetallicRoughness": {
        "baseColorFactor": [
          0.8299999833106995,
          0.6399999856948853,
          0.4399999976158142,
          1
        ],
        "metallicFactor": 0,
        "roughnessFactor": 0.75
      }
    }
  ],
  "meshes": [
    {
      "name": "Fish",
      "primitives": [
        {
          "attributes": {
            "JOINTS_0": 3,
            "NORMAL": 1,
            "POSITION": 0,
            "TEXCOORD_0": 2,
            "WEIGHTS_0": 4
          },
          "indices": 5,
          "material": 0
        },
        {
          "attributes": {
            "JOINTS_0": 9,
            "NORMAL": 7,
            "POSITION": 6,
            "TEXCOORD_0": 8,
            "WEIGHTS_0": 10
          },
          "indices": 11,
          "material": 1
        }
      ]
    }
  ],
  "nodes": [
    {
      "name": "tail",
      "translation": [
        0,
        0.11999999731779099,
        -0.14000000059604645
      ]
    },
    {
      "children": [
        0
      ],
      "name": "body"
    },
    {
      "mesh": 0,
      "name": "Fish",
      "skin": 0
    },
    {
      "children": [
        2,
        1
      ],
      "name": "Fish_Rig"
    }
  ],
  "scene": 0,
  "scenes": [
    {
      "name": "Scene",
      "nodes": [
        3
      ]
    }
  ],
  "skins": [
    {
      "inverseBindMatrices": 12,
      "joints": [
        1,
        0
      ],
      "name": "Fish_Rig"
    }
  ]
}
