{
  "accessors": [
    {
      "bufferView": 0,
      "componentType": 5126,
      "count": 284,
      "max": [
        0.49000000953674316,
        0.4050000011920929,
        0.3149999976158142
      ],
      "min": [
        -0.49000000953674316,
        0.12999999523162842,
        -0.25
      ],
      "type": "VEC3"
    },
    {
      "bufferView": 1,
      "componentType": 5126,
      "count": 284,
      "type": "VEC3"
    },
    {
      "bufferView": 2,
      "componentType": 5126,
      "count": 284,
      "type": "VEC2"
    },
    {
      "bufferView": 3,
      "componentType": 5121,
      "count": 284,
      "type": "VEC4"
    },
    {
      "bufferView": 4,
      "componentType": 5126,
      "count": 284,
      "type": "VEC4"
    },
    {
      "bufferView": 5,
      "componentType": 5123,
      "count": 384,
      "type": "SCALAR"
    },
    {
      "bufferView": 6,
      "componentType": 5126,
      "count": 24,
      "max": [
        0.02500000037252903,
        0.33500000834465027,
        0.4099999964237213
      ],
      "min": [
        -0.02500000037252903,
        0.2849999964237213,
        0.2800000011920929
      ],
      "type": "VEC3"
    },
    {
      "bufferView": 7,
      "componentType": 5126,
      "count": 24,
      "type": "VEC3"
    },
    {
      "bufferView": 8,
      "componentType": 5126,
      "count": 24,
      "type": "VEC2"
    },
    {
      "bufferView": 9,
      "componentType": 5121,
      "count": 24,
      "type": "VEC4"
    },
    {
      "bufferView": 10,
      "componentType": 5126,
      "count": 24,
      "type": "VEC4"
    },
    {
      "bufferView": 11,
      "componentType": 5123,
      "count": 36,
      "type": "SCALAR"
    },
    {
      "bufferView": 12,
      "componentType": 5126,
      "count": 96,
      "max": [
        0.6600000262260437,
        0.28600001335144043,
        -0.019999999552965164
      ],
      "min": [
        -0.6600000262260437,
        0.23749999701976776,
        -0.3400000035762787
      ],
      "type": "VEC3"
    },
    {
      "bufferView": 13,
      "componentType": 5126,
      "count": 96,
      "type": "VEC3"
    },
    {
      "bufferView": 14,
      "componentType": 5126,
      "count": 96,
      "type": "VEC2"
    },
    {
      "bufferView": 15,
      "componentType": 5121,
      "count": 96,
      "type": "VEC4"
    },
    {
      "bufferView": 16,
      "componentType": 5126,
      "count": 96,
      "type": "VEC4"
    },
    {
      "bufferView": 17,
      "componentType": 5123,
      "count": 144,
      "type": "SCALAR"
    },
    {
      "bufferView": 18,
      "componentType": 5126,
      "count": 120,
      "max": [
        0.06400000303983688,
        0.3619999885559082,
        0.2883923053741455
      ],
      "min": [
        -0.06400000303983688,
        0.33799999952316284,
        0.2676076889038086
      ],
      "type": "VEC3"
    },
    {
      "bufferView": 19,
      "componentType": 5126,
      "count": 120,
      "type": "VEC3"
    },
    {
      "bufferView": 20,
      "componentType": 5126,
      "count": 120,
      "type": "VEC2"
    },
    {
      "bufferView": 21,
      "componentType": 5121,
      "count": 120,
      "type": "VEC4"
    },
    {
      "bufferView": 22,
      "componentType": 5126,
      "count": 120,
      "type": "VEC4"
    },
    {
      "bufferView": 23,
      "componentType": 5123,
      "count": 144,
      "type": "SCALAR"
    },
    {
      "bufferView": 24,
      "componentType": 5126,
      "count": 3,
      "type": "MAT4"
    },
    {
      "bufferView": 25,
      "componentType": 5126,
      "count": 2,
      "max": [
        1.375
      ],
      "min": [
        0.041666666666666664
      ],
      "type": "SCALAR"
    },
    {
      "bufferView": 26,
      "componentType": 5126,
      "count": 2,
      "type": "VEC3"
    },
    {
      "bufferView": 27,
      "componentType": 5126,
      "count": 2,
      "type": "VEC4"
    },
    {
      "bufferView": 28,
      "componentType": 5126,
      "count": 2,
      "type": "VEC3"
    },
    {
      "bufferView": 29,
      "componentType": 5126,
      "count": 2,
      "type": "VEC3"
    },
    {
      "bufferView": 30,
      "componentType": 5126,
      "count": 33,
      "max": [
        1.375
      ],
      "min": [
        0.041666666666666664
      ],
      "type": "SCALAR"
    },
    {
      "bufferView": 31,
      "componentType": 5126,
      "count": 33,
      "type": "VEC4"
    },
    {
      "bufferView": 32,
      "componentType": 5126,
      "count": 2,
      "type": "VEC3"
    },
    {
      "bufferView": 33,
      "componentType": 5126,
      "count": 33,
      "type": "VEC4"
    },
    {
      "bufferView": 34,
      "componentType": 5126,
      "count": 2,
      "type": "VEC4"
    },
    {
      "bufferView": 35,
      "componentType": 5126,
      "count": 2,
      "type": "VEC4"
    },
    {
      "bufferView": 36,
      "componentType": 5126,
      "count": 33,
      "type": "VEC4"
    }
  ],
  "animations": [
    {
      "channels": [
        {
          "sampler": 0,
          "target": {
            "node": 2,
            "path": "translation"
          }
        },
        {
          "sampler": 1,
          "target": {
            "node": 2,
            "path": "rotation"
          }
        },
        {
          "sampler": 2,
          "target": {
            "node": 2,
            "path": "scale"
          }
        },
        {
          "sampler": 3,
          "target": {
            "node": 0,
            "path": "translation"
          }
        },
        {
          "sampler": 4,
          "target": {
            "node": 0,
            "path": "rotation"
          }
        },
        {
          "sampler": 5,
          "target": {
            "node": 0,
            "path": "scale"
          }
        },
        {
          "sampler": 6,
          "target": {
            "node": 1,
            "path": "translation"
          }
        },
        {
          "sampler": 7,
          "target": {
            "node": 1,
            "path": "rotation"
          }
        },
        {
          "sampler": 8,
          "target": {
            "node": 1,
            "path": "scale"
          }
        }
      ],
      "name": "flap",
      "samplers": [
        {
          "input": 25,
          "interpolation": "STEP",
          "output": 26
        },
        {
          "input": 25,
          "interpolation": "STEP",
          "output": 27
        },
        {
          "input": 25,
          "interpolation": "STEP",
          "output": 28
        },
        {
          "input": 25,
          "interpolation": "STEP",
          "output": 29
        },
        {
          "input": 30,
          "interpolation": "LINEAR",
          "output": 31
        },
        {
          "input": 25,
          "interpolation": "STEP",
          "output": 28
        },
        {
          "input": 25,
          "interpolation": "STEP",
          "output": 32
        },
        {
          "input": 30,
          "interpolation": "LINEAR",
          "output": 33
        },
        {
          "input": 25,
          "interpolation": "STEP",
          "output": 28
        }
      ]
    },
    {
      "channels": [
        {
          "sampler": 0,
          "target": {
            "node": 2,
            "path": "translation"
          }
        },
        {
          "sampler": 1,
          "target": {
            "node": 2,
            "path": "rotation"
          }
        },
        {
          "sampler": 2,
          "target": {
            "node": 2,
            "path": "scale"
          }
        },
        {
          "sampler": 3,
          "target": {
            "node": 0,
            "path": "translation"
          }
        },
        {
          "sampler": 4,
          "target": {
            "node": 0,
            "path": "rotation"
          }
        },
        {
          "sampler": 5,
          "target": {
            "node": 0,
            "path": "scale"
          }
        },
        {
          "sampler": 6,
          "target": {
            "node": 1,
            "path": "translation"
          }
        },
        {
          "sampler": 7,
          "target": {
            "node": 1,
            "path": "rotation"
          }
        },
        {
          "sampler": 8,
          "target": {
            "node": 1,
            "path": "scale"
          }
        }
      ],
      "name": "glide",
      "samplers": [
        {
          "input": 25,
          "interpolation": "STEP",
          "output": 26
        },
        {
          "input": 25,
          "interpolation": "STEP",
          "output": 27
        },
        {
          "input": 25,
          "interpolation": "STEP",
          "output": 28
        },
        {
          "input": 25,
          "interpolation": "STEP",
          "output": 29
        },
        {
          "input": 25,
          "interpolation": "STEP",
          "output": 34
        },
        {
          "input": 25,
          "interpolation": "STEP",
          "output": 28
        },
        {
          "input": 25,
          "interpolation": "STEP",
          "output": 32
        },
        {
          "input": 25,
          "interpolation": "STEP",
          "output": 35
        },
        {
          "input": 25,
          "interpolation": "STEP",
          "output": 28
        }
      ]
    },
    {
      "channels": [
        {
          "sampler": 0,
          "target": {
            "node": 2,
            "path": "translation"
          }
        },
        {
          "sampler": 1,
          "target": {
            "node": 2,
            "path": "rotation"
          }
        },
        {
          "sampler": 2,
          "target": {
            "node": 2,
            "path": "scale"
          }
        },
        {
          "sampler": 3,
          "target": {
            "node": 0,
            "path": "translation"
          }
        },
        {
          "sampler": 4,
          "target": {
            "node": 0,
            "path": "rotation"
          }
        },
        {
          "sampler": 5,
          "target": {
            "node": 0,
            "path": "scale"
          }
        },
        {
          "sampler": 6,
          "target": {
            "node": 1,
            "path": "translation"
          }
        },
        {
          "sampler": 7,
          "target": {
            "node": 1,
            "path": "rotation"
          }
        },
        {
          "sampler": 8,
          "target": {
            "node": 1,
            "path": "scale"
          }
        }
      ],
      "name": "idle",
      "samplers": [
        {
          "input": 25,
          "interpolation": "STEP",
          "output": 26
        },
        {
          "input": 30,
          "interpolation": "LINEAR",
          "output": 36
        },
        {
          "input": 25,
          "interpolation": "STEP",
          "output": 28
        },
        {
          "input": 25,
          "interpolation": "STEP",
          "output": 29
        },
        {
          "input": 25,
          "interpolation": "STEP",
          "output": 27
        },
        {
          "input": 25,
          "interpolation": "STEP",
          "output": 28
        },
        {
          "input": 25,
          "interpolation": "STEP",
          "output": 32
        },
        {
          "input": 25,
          "interpolation": "STEP",
          "output": 27
        },
        {
          "input": 25,
          "interpolation": "STEP",
          "output": 28
        }
      ]
    }
  ],
  "asset": {
    "generator": "Khronos glTF Blender I/O v5.2.40",
    "version": "2.0"
  },
  "bufferViews": [
    {
      "buffer": 0,
      "byteLength": 3408,
      "byteOffset": 0,
      "target": 34962
    },
    {
      "buffer": 0,
      "byteLength": 3408,
      "byteOffset": 3408,
      "target": 34962
    },
    {
      "buffer": 0,
      "byteLength": 2272,
      "byteOffset": 6816,
      "target": 34962
    },
    {
      "buffer": 0,
      "byteLength": 1136,
      "byteOffset": 9088,
      "target": 34962
    },
    {
      "buffer": 0,
      "byteLength": 4544,
      "byteOffset": 10224,
      "target": 34962
    },
    {
      "buffer": 0,
      "byteLength": 768,
      "byteOffset": 14768,
      "target": 34963
    },
    {
      "buffer": 0,
      "byteLength": 288,
      "byteOffset": 15536,
      "target": 34962
    },
    {
      "buffer": 0,
      "byteLength": 288,
      "byteOffset": 15824,
      "target": 34962
    },
    {
      "buffer": 0,
      "byteLength": 192,
      "byteOffset": 16112,
      "target": 34962
    },
    {
      "buffer": 0,
      "byteLength": 96,
      "byteOffset": 16304,
      "target": 34962
    },
    {
      "buffer": 0,
      "byteLength": 384,
      "byteOffset": 16400,
      "target": 34962
    },
    {
      "buffer": 0,
      "byteLength": 72,
      "byteOffset": 16784,
      "target": 34963
    },
    {
      "buffer": 0,
      "byteLength": 1152,
      "byteOffset": 16856,
      "target": 34962
    },
    {
      "buffer": 0,
      "byteLength": 1152,
      "byteOffset": 18008,
      "target": 34962
    },
    {
      "buffer": 0,
      "byteLength": 768,
      "byteOffset": 19160,
      "target": 34962
    },
    {
      "buffer": 0,
      "byteLength": 384,
      "byteOffset": 19928,
      "target": 34962
    },
    {
      "buffer": 0,
      "byteLength": 1536,
      "byteOffset": 20312,
      "target": 34962
    },
    {
      "buffer": 0,
      "byteLength": 288,
      "byteOffset": 21848,
      "target": 34963
    },
    {
      "buffer": 0,
      "byteLength": 1440,
      "byteOffset": 22136,
      "target": 34962
    },
    {
      "buffer": 0,
      "byteLength": 1440,
      "byteOffset": 23576,
      "target": 34962
    },
    {
      "buffer": 0,
      "byteLength": 960,
      "byteOffset": 25016,
      "target": 34962
    },
    {
      "buffer": 0,
      "byteLength": 480,
      "byteOffset": 25976,
      "target": 34962
    },
    {
      "buffer": 0,
      "byteLength": 1920,
      "byteOffset": 26456,
      "target": 34962
    },
    {
      "buffer": 0,
      "byteLength": 288,
      "byteOffset": 28376,
      "target": 34963
    },
    {
      "buffer": 0,
      "byteLength": 192,
      "byteOffset": 28664
    },
    {
      "buffer": 0,
      "byteLength": 8,
      "byteOffset": 28856
    },
    {
      "buffer": 0,
      "byteLength": 24,
      "byteOffset": 28864
    },
    {
      "buffer": 0,
      "byteLength": 32,
      "byteOffset": 28888
    },
    {
      "buffer": 0,
      "byteLength": 24,
      "byteOffset": 28920
    },
    {
      "buffer": 0,
      "byteLength": 24,
      "byteOffset": 28944
    },
    {
      "buffer": 0,
      "byteLength": 132,
      "byteOffset": 28968
    },
    {
      "buffer": 0,
      "byteLength": 528,
      "byteOffset": 29100
    },
    {
      "buffer": 0,
      "byteLength": 24,
      "byteOffset": 29628
    },
    {
      "buffer": 0,
      "byteLength": 528,
      "byteOffset": 29652
    },
    {
      "buffer": 0,
      "byteLength": 32,
      "byteOffset": 30180
    },
    {
      "buffer": 0,
      "byteLength": 32,
      "byteOffset": 30212
    },
    {
      "buffer": 0,
      "byteLength": 528,
      "byteOffset": 30244
    }
  ],
  "buffers": [
    {
      "byteLength": 30772,
      "uri": "gull.bin"
    }
  ],
  "materials": [
    {
      "doubleSided": true,
      "name": "Coast_white",
      "pbrMetallicRoughness": {
        "baseColorFactor": [
          0.8299999833106995,
          0.8100000023841858,
          0.7099999785423279,
          1
        ],
        "metallicFactor": 0,
        "roughnessFactor": 0.800000011920929
      }
    },
    {
      "doubleSided": true,
      "name": "Coast_shell",
      "pbrMetallicRoughness": {
        "baseColorFactor": [
          0.8299999833106995,
          0.6399999856948853,
          0.4399999976158142,
          1
        ],
        "metallicFactor": 0,
        "roughnessFactor": 0.75
      }
    },
    {
      "doubleSided": true,
      "name": "Coast_roof",
      "pbrMetallicRoughness": {
        "baseColorFactor": [
          0.23999999463558197,
          0.3100000023841858,
          0.3400000035762787,
          1
        ],
        "metallicFactor": 0,
        "roughnessFactor": 0.8999999761581421
      }
    },
    {
      "doubleSided": true,
      "name": "Coast_iron",
      "pbrMetallicRoughness": {
        "baseColorFactor": [
          0.10000000149011612,
          0.12999999523162842,
          0.14000000059604645,
          1
        ],
        "metallicFactor": 0,
        "roughnessFactor": 0.6000000238418579
      }
    }
  ],
  "meshes": [
    {
      "name": "Gull",
      "primitives": [
        {
          "attributes": {
            "JOINTS_0": 3,
            "NORMAL": 1,
            "POSITION": 0,
            "TEXCOORD_0": 2,
            "WEIGHTS_0": 4
          },
          "indices": 5,
          "material": 0
        },
        {
          "attributes": {
            "JOINTS_0": 9,
            "NORMAL": 7,
            "POSITION": 6,
            "TEXCOORD_0": 8,
            "WEIGHTS_0": 10
          },
          "indices": 11,
          "material": 1
        },
        {
          "attributes": {
            "JOINTS_0": 15,
            "NORMAL": 13,
            "POSITION": 12,
            "TEXCOORD_0": 14,
            "WEIGHTS_0": 16
          },
          "indices": 17,
          "material": 2
        },
        {
          "attributes": {
            "JOINTS_0": 21,
            "NORMAL": 19,
            "POSITION": 18,
            "TEXCOORD_0": 20,
            "WEIGHTS_0": 22
          },
          "indices": 23,
          "material": 3
        }
      ]
    }
  ],
  "nodes": [
    {
      "name": "left",
      "translation": [
        -0.10000000149011612,
        0.2800000011920929,
        0
      ]
    },
    {
      "name": "right",
      "translation": [
        0.10000000149011612,
        0.2800000011920929,
        0
      ]
    },
    {
      "children": [
        0,
        1
      ],
      "name": "body"
    },
    {
      "mesh": 0,
      "name": "Gull",
      "skin": 0
    },
    {
      "children": [
        3,
        2
      ],
      "name": "Gull_Rig"
    }
  ],
  "scene": 0,
  "scenes": [
    {
      "name": "Scene",
      "nodes": [
        4
      ]
    }
  ],
  "skins": [
    {
      "inverseBindMatrices": 24,
      "joints": [
        2,
        0,
        1
      ],
      "name": "Gull_Rig"
    }
  ]
}
