{
  "accessors": [
    {
      "bufferView": 0,
      "componentType": 5126,
      "count": 292,
      "max": [
        0.2713525593280792,
        0.6200000047683716,
        0.8299999237060547
      ],
      "min": [
        -0.2713525593280792,
        0,
        -0.646718442440033
      ],
      "type": "VEC3"
    },
    {
      "bufferView": 1,
      "componentType": 5126,
      "count": 292,
      "type": "VEC3"
    },
    {
      "bufferView": 2,
      "componentType": 5126,
      "count": 292,
      "type": "VEC2"
    },
    {
      "bufferView": 3,
      "componentType": 5121,
      "count": 292,
      "type": "VEC4"
    },
    {
      "bufferView": 4,
      "componentType": 5126,
      "count": 292,
      "type": "VEC4"
    },
    {
      "bufferView": 5,
      "componentType": 5123,
      "count": 384,
      "type": "SCALAR"
    },
    {
      "bufferView": 7,
      "componentType": 5126,
      "count": 180,
      "max": [
        0.14800000190734863,
        0.49399998784065247,
        0.8476313948631287
      ],
      "min": [
        -0.14800000190734863,
        0.3349999785423279,
        0.7292153835296631
      ],
      "type": "VEC3"
    },
    {
      "bufferView": 8,
      "componentType": 5126,
      "count": 180,
      "type": "VEC3"
    },
    {
      "bufferView": 9,
      "componentType": 5126,
      "count": 180,
      "type": "VEC2"
    },
    {
      "bufferView": 10,
      "componentType": 5121,
      "count": 180,
      "type": "VEC4"
    },
    {
      "bufferView": 11,
      "componentType": 5126,
      "count": 180,
      "type": "VEC4"
    },
    {
      "bufferView": 12,
      "componentType": 5123,
      "count": 216,
      "type": "SCALAR"
    },
    {
      "bufferView": 13,
      "componentType": 5126,
      "count": 168,
      "max": [
        0.5099999904632568,
        0.14000000059604645,
        0.3672243356704712
      ],
      "min": [
        -0.5100000500679016,
        0.04000000283122063,
        -0.7930586338043213
      ],
      "type": "VEC3"
    },
    {
      "bufferView": 14,
      "componentType": 5126,
      "count": 168,
      "type": "VEC3"
    },
    {
      "bufferView": 15,
      "componentType": 5126,
      "count": 168,
      "type": "VEC2"
    },
    {
      "bufferView": 16,
      "componentType": 5121,
      "count": 168,
      "type": "VEC4"
    },
    {
      "bufferView": 17,
      "componentType": 5126,
      "count": 168,
      "type": "VEC4"
    },
    {
      "bufferView": 18,
      "componentType": 5123,
      "count": 216,
      "type": "SCALAR"
    },
    {
      "bufferView": 19,
      "componentType": 5126,
      "count": 3,
      "type": "MAT4"
    },
    {
      "bufferView": 20,
      "componentType": 5126,
      "count": 2,
      "max": [
        1.375
      ],
      "min": [
        0.041666666666666664
      ],
      "type": "SCALAR"
    },
    {
      "bufferView": 21,
      "componentType": 5126,
      "count": 2,
      "type": "VEC3"
    },
    {
      "bufferView": 22,
      "componentType": 5126,
      "count": 33,
      "max": [
        1.375
      ],
      "min": [
        0.041666666666666664
      ],
      "type": "SCALAR"
    },
    {
      "bufferView": 23,
      "componentType": 5126,
      "count": 33,
      "type": "VEC4"
    },
    {
      "bufferView": 24,
      "componentType": 5126,
      "count": 2,
      "type": "VEC3"
    },
    {
      "bufferView": 25,
      "componentType": 5126,
      "count": 2,
      "type": "VEC3"
    },
    {
      "bufferView": 26,
      "componentType": 5126,
      "count": 2,
      "type": "VEC4"
    },
    {
      "bufferView": 27,
      "componentType": 5126,
      "count": 2,
      "type": "VEC3"
    },
    {
      "bufferView": 28,
      "componentType": 5126,
      "count": 33,
      "type": "VEC4"
    },
    {
      "bufferView": 29,
      "componentType": 5126,
      "count": 33,
      "type": "VEC4"
    }
  ],
  "animations": [
    {
      "channels": [
        {
          "sampler": 0,
          "target": {
            "node": 2,
            "path": "translation"
          }
        },
        {
          "sampler": 1,
          "target": {
            "node": 2,
            "path": "rotation"
          }
        },
        {
          "sampler": 2,
          "target": {
            "node": 2,
            "path": "scale"
          }
        },
        {
          "sampler": 3,
          "target": {
            "node": 0,
            "path": "translation"
          }
        },
        {
          "sampler": 4,
          "target": {
            "node": 0,
            "path": "rotation"
          }
        },
        {
          "sampler": 5,
          "target": {
            "node": 0,
            "path": "scale"
          }
        },
        {
          "sampler": 6,
          "target": {
            "node": 1,
            "path": "translation"
          }
        },
        {
          "sampler": 7,
          "target": {
            "node": 1,
            "path": "rotation"
          }
        },
        {
          "sampler": 8,
          "target": {
            "node": 1,
            "path": "scale"
          }
        }
      ],
      "name": "idle",
      "samplers": [
        {
          "input": 19,
          "interpolation": "STEP",
          "output": 20
        },
        {
          "input": 21,
          "interpolation": "LINEAR",
          "output": 22
        },
        {
          "input": 19,
          "interpolation": "STEP",
          "output": 23
        },
        {
          "input": 19,
          "interpolation": "STEP",
          "output": 24
        },
        {
          "input": 19,
          "interpolation": "STEP",
          "output": 25
        },
        {
          "input": 19,
          "interpolation": "STEP",
          "output": 23
        },
        {
          "input": 19,
          "interpolation": "STEP",
          "output": 26
        },
        {
          "input": 19,
          "interpolation": "STEP",
          "output": 25
        },
        {
          "input": 19,
          "interpolation": "STEP",
          "output": 23
        }
      ]
    },
    {
      "channels": [
        {
          "sampler": 0,
          "target": {
            "node": 2,
            "path": "translation"
          }
        },
        {
          "sampler": 1,
          "target": {
            "node": 2,
            "path": "rotation"
          }
        },
        {
          "sampler": 2,
          "target": {
            "node": 2,
            "path": "scale"
          }
        },
        {
          "sampler": 3,
          "target": {
            "node": 0,
            "path": "translation"
          }
        },
        {
          "sampler": 4,
          "target": {
            "node": 0,
            "path": "rotation"
          }
        },
        {
          "sampler": 5,
          "target": {
            "node": 0,
            "path": "scale"
          }
        },
        {
          "sampler": 6,
          "target": {
            "node": 1,
            "path": "translation"
          }
        },
        {
          "sampler": 7,
          "target": {
            "node": 1,
            "path": "rotation"
          }
        },
        {
          "sampler": 8,
          "target": {
            "node": 1,
            "path": "scale"
          }
        }
      ],
      "name": "swim",
      "samplers": [
        {
          "input": 19,
          "interpolation": "STEP",
          "output": 20
        },
        {
          "input": 19,
          "interpolation": "STEP",
          "output": 25
        },
        {
          "input": 19,
          "interpolation": "STEP",
          "output": 23
        },
        {
          "input": 19,
          "interpolation": "STEP",
          "output": 24
        },
        {
          "input": 21,
          "interpolation": "LINEAR",
          "output": 27
        },
        {
          "input": 19,
          "interpolation": "STEP",
          "output": 23
        },
        {
          "input": 19,
          "interpolation": "STEP",
          "output": 26
        },
        {
          "input": 21,
          "interpolation": "LINEAR",
          "output": 28
        },
        {
          "input": 19,
          "interpolation": "STEP",
          "output": 23
        }
      ]
    }
  ],
  "asset": {
    "generator": "Khronos glTF Blender I/O v5.2.40",
    "version": "2.0"
  },
  "bufferViews": [
    {
      "buffer": 0,
      "byteLength": 3504,
      "byteOffset": 0,
      "target": 34962
    },
    {
      "buffer": 0,
      "byteLength": 3504,
      "byteOffset": 3504,
      "target": 34962
    },
    {
      "buffer": 0,
      "byteLength": 2336,
      "byteOffset": 7008,
      "target": 34962
    },
    {
      "buffer": 0,
      "byteLength": 1168,
      "byteOffset": 9344,
      "target": 34962
    },
    {
      "buffer": 0,
      "byteLength": 4672,
      "byteOffset": 10512,
      "target": 34962
    },
    {
      "buffer": 0,
      "byteLength": 768,
      "byteOffset": 15184,
      "target": 34963
    },
    {
      "buffer": 0,
      "byteLength": 22702,
      "byteOffset": 15952
    },
    {
      "buffer": 0,
      "byteLength": 2160,
      "byteOffset": 38656,
      "target": 34962
    },
    {
      "buffer": 0,
      "byteLength": 2160,
      "byteOffset": 40816,
      "target": 34962
    },
    {
      "buffer": 0,
      "byteLength": 1440,
      "byteOffset": 42976,
      "target": 34962
    },
    {
      "buffer": 0,
      "byteLength": 720,
      "byteOffset": 44416,
      "target": 34962
    },
    {
      "buffer": 0,
      "byteLength": 2880,
      "byteOffset": 45136,
      "target": 34962
    },
    {
      "buffer": 0,
      "byteLength": 432,
      "byteOffset": 48016,
      "target": 34963
    },
    {
      "buffer": 0,
      "byteLength": 2016,
      "byteOffset": 48448,
      "target": 34962
    },
    {
      "buffer": 0,
      "byteLength": 2016,
      "byteOffset": 50464,
      "target": 34962
    },
    {
      "buffer": 0,
      "byteLength": 1344,
      "byteOffset": 52480,
      "target": 34962
    },
    {
      "buffer": 0,
      "byteLength": 672,
      "byteOffset": 53824,
      "target": 34962
    },
    {
      "buffer": 0,
      "byteLength": 2688,
      "byteOffset": 54496,
      "target": 34962
    },
    {
      "buffer": 0,
      "byteLength": 432,
      "byteOffset": 57184,
      "target": 34963
    },
    {
      "buffer": 0,
      "byteLength": 192,
      "byteOffset": 57616
    },
    {
      "buffer": 0,
      "byteLength": 8,
      "byteOffset": 57808
    },
    {
      "buffer": 0,
      "byteLength": 24,
      "byteOffset": 57816
    },
    {
      "buffer": 0,
      "byteLength": 132,
      "byteOffset": 57840
    },
    {
      "buffer": 0,
      "byteLength": 528,
      "byteOffset": 57972
    },
    {
      "buffer": 0,
      "byteLength": 24,
      "byteOffset": 58500
    },
    {
      "buffer": 0,
      "byteLength": 24,
      "byteOffset": 58524
    },
    {
      "buffer": 0,
      "byteLength": 32,
      "byteOffset": 58548
    },
    {
      "buffer": 0,
      "byteLength": 24,
      "byteOffset": 58580
    },
    {
      "buffer": 0,
      "byteLength": 528,
      "byteOffset": 58604
    },
    {
      "buffer": 0,
      "byteLength": 528,
      "byteOffset": 59132
    }
  ],
  "buffers": [
    {
      "byteLength": 59660,
      "uri": "seal.bin"
    }
  ],
  "images": [
    {
      "name": "Coast_Rock_BaseColor",
      "uri": "coast_8cdb7ca38b8c1e3f88ee0a1f.png"
    }
  ],
  "materials": [
    {
      "doubleSided": true,
      "name": "Coast_rock",
      "pbrMetallicRoughness": {
        "baseColorTexture": {
          "index": 0
        },
        "metallicFactor": 0,
        "roughnessFactor": 0.949999988079071
      }
    },
    {
      "doubleSided": true,
      "name": "Coast_iron",
      "pbrMetallicRoughness": {
        "baseColorFactor": [
          0.10000000149011612,
          0.12999999523162842,
          0.14000000059604645,
          1
        ],
        "metallicFactor": 0,
        "roughnessFactor": 0.6000000238418579
      }
    },
    {
      "doubleSided": true,
      "name": "Coast_roof",
      "pbrMetallicRoughness": {
        "baseColorFactor": [
          0.23999999463558197,
          0.3100000023841858,
          0.3400000035762787,
          1
        ],
        "metallicFactor": 0,
        "roughnessFactor": 0.8999999761581421
      }
    }
  ],
  "meshes": [
    {
      "name": "Seal",
      "primitives": [
        {
          "attributes": {
            "JOINTS_0": 3,
            "NORMAL": 1,
            "POSITION": 0,
            "TEXCOORD_0": 2,
            "WEIGHTS_0": 4
          },
          "indices": 5,
          "material": 0
        },
        {
          "attributes": {
            "JOINTS_0": 9,
            "NORMAL": 7,
            "POSITION": 6,
            "TEXCOORD_0": 8,
            "WEIGHTS_0": 10
          },
          "indices": 11,
          "material": 1
        },
        {
          "attributes": {
            "JOINTS_0": 15,
            "NORMAL": 13,
            "POSITION": 12,
            "TEXCOORD_0": 14,
            "WEIGHTS_0": 16
          },
          "indices": 17,
          "material": 2
        }
      ]
    }
  ],
  "nodes": [
    {
      "name": "left",
      "translation": [
        -0.2199999988079071,
        0.09000000357627869,
        0.2199999988079071
      ]
    },
    {
      "name": "right",
      "translation": [
        0.2199999988079071,
        0.09000000357627869,
        0.2199999988079071
      ]
    },
    {
      "children": [
        0,
        1
      ],
      "name": "body"
    },
    {
      "mesh": 0,
      "name": "Seal",
      "skin": 0
    },
    {
      "children": [
        3,
        2
      ],
      "name": "Seal_Rig"
    }
  ],
  "samplers": [
    {
      "magFilter": 9729,
      "minFilter": 9987
    }
  ],
  "scene": 0,
  "scenes": [
    {
      "name": "Scene",
      "nodes": [
        4
      ]
    }
  ],
  "skins": [
    {
      "inverseBindMatrices": 18,
      "joints": [
        2,
        0,
        1
      ],
      "name": "Seal_Rig"
    }
  ],
  "textures": [
    {
      "sampler": 0,
      "source": 0
    }
  ]
}
