{"asset":{"generator":"Khronos glTF Blender I/O v4.3.47","version":"2.0"},"scene":0,"scenes":[{"name":"Scene","nodes":[68]}],"nodes":[{"name":"Head","rotation":[-0.20467473566532135,-4.759437705400649e-21,1.2439442348830942e-21,0.9788300395011902],"translation":[-1.5903435849255598e-27,0.0711912140250206,2.0489096641540527e-08]},{"children":[0],"name":"neck_01","rotation":[0.3088374435901642,8.337463586651673e-21,-5.849849968646638e-21,0.95111483335495],"translation":[-1.0141478263557337e-20,0.19815585017204285,2.60770320892334e-08]},{"name":"index_04_leaf_l","rotation":[-8.381903171539307e-09,1,-1.5432005174599583e-14,3.6517765238386346e-06],"translation":[9.076757123693824e-10,0.023510519415140152,-3.8285477899080433e-08]},{"children":[2],"name":"index_03_l","rotation":[1.0023382124302316e-09,7.603918037758783e-13,-0.00013328436762094498,1],"scale":[0.9999999403953552,1,1],"translation":[4.420144250616431e-10,0.027111778035759926,-3.670398029953503e-08]},{"children":[3],"name":"index_02_l","rotation":[1.8987577732332284e-08,1.4024364247688936e-07,-0.002140256343409419,0.9999977350234985],"scale":[0.9999999403953552,1,1],"translation":[8.094502845779061e-11,0.03171013668179512,-6.863018597869086e-09]},{"children":[4],"name":"index_01_l","rotation":[-0.0033091865479946136,0.7071018815040588,-0.003309202380478382,0.7070961594581604],"translation":[0.004199977032840252,0.08823654055595398,0.03620496019721031]},{"name":"middle_04_leaf_l","rotation":[2.0489096641540527e-08,1,6.335320587363621e-14,3.6517765238386346e-06],"translation":[2.193701220676303e-09,0.029620492830872536,1.1362611473941797e-07]},{"children":[6],"name":"middle_03_l","rotation":[2.420814304571195e-08,1.4173854798182894e-11,-0.0032189602497965097,0.9999948143959045],"scale":[0.9999998807907104,0.9999999403953552,1],"translation":[-4.32646629633382e-09,0.02931377850472927,3.287611605173879e-08]},{"children":[7],"name":"middle_02_l","rotation":[-2.949975197452659e-08,1.402399334438087e-07,0.0038676888216286898,0.9999924898147583],"translation":[1.6816557035781443e-09,0.03642695024609566,1.0210540324351314e-07]},{"children":[8],"name":"middle_01_l","rotation":[-0.007979890331625938,0.7070646286010742,-0.007979941554367542,0.7070589065551758],"scale":[1,0.9999998807907104,1],"translation":[0.001899929717183113,0.08634158223867416,0.010671664960682392]},{"name":"pinky_04_leaf_l","rotation":[8.381903171539307e-09,1,5.647658583201112e-14,3.65177675121231e-06],"translation":[-1.317857822868973e-09,0.020919334143400192,-1.727942162688123e-07]},{"children":[10],"name":"pinky_03_l","rotation":[-2.1800540039862426e-08,5.25581791629981e-12,0.0028988486155867577,0.9999958276748657],"scale":[1,1.0000001192092896,1],"translation":[-1.318767317570746e-09,0.026631725952029228,-8.721048061488545e-08]},{"children":[11],"name":"pinky_02_l","rotation":[1.03155857189563e-08,1.4017835781032773e-07,-0.001705002854578197,0.9999985694885254],"scale":[0.9999999403953552,0.9999999403953552,1],"translation":[-2.967681211885065e-09,0.03083186410367489,-8.672896001371555e-08]},{"children":[12],"name":"pinky_01_l","rotation":[-0.01044775452464819,0.7070325016975403,-0.010447824373841286,0.7070267200469971],"scale":[0.9999999403953552,0.9999997615814209,0.9999999403953552],"translation":[0.003799965837970376,0.06994835287332535,-0.03399413824081421]},{"name":"ring_04_leaf_l","rotation":[2.7474015951156616e-08,1,1.0721373739979931e-13,3.65177675121231e-06],"translation":[9.5042196335271e-10,0.028301579877734184,-3.474425369631717e-08]},{"children":[14],"name":"ring_03_l","rotation":[2.6234243222234e-08,4.3393351412124304e-11,-0.0034884933847934008,0.9999939203262329],"translation":[7.703420124016702e-09,0.027600184082984924,-1.1280478418029816e-07]},{"children":[15],"name":"ring_02_l","rotation":[-1.8197205520209536e-08,1.4009778226409253e-07,0.002474082401022315,0.9999969601631165],"translation":[-9.877112461254e-10,0.035001225769519806,-1.5782489981575054e-07]},{"children":[16],"name":"ring_01_l","rotation":[0.0025809321086853743,0.7071049213409424,0.0025809479411691427,0.707099199295044],"scale":[0.9999999403953552,0.9999997615814209,0.9999999403953552],"translation":[0.0021999571472406387,0.08042963594198227,-0.013825255446135998]},{"name":"thumb_04_leaf_l","rotation":[-1.2782692238033633e-08,0.48539119958877563,2.0375746601075662e-07,0.8742970824241638],"scale":[0.9999999403953552,1,1],"translation":[-1.2670352589339018e-07,0.03127264976501465,3.073364496231079e-08]},{"children":[18],"name":"thumb_03_l","rotation":[-0.0012816648231819272,5.811178561998531e-05,0.0002541383437346667,0.9999991655349731],"scale":[1,1,0.9999999403953552],"translation":[2.2436142899096012e-07,0.035620346665382385,5.122274160385132e-09]},{"children":[19],"name":"thumb_02_l","rotation":[0.0019128327257931232,0.00019216042710468173,-0.0004484721284825355,0.9999980330467224],"scale":[1,0.9999998211860657,0.9999999403953552],"translation":[1.453081495128572e-07,0.03582108020782471,-1.30385160446167e-08]},{"children":[20],"name":"thumb_01_l","rotation":[0.263997346162796,0.9450139999389648,0.1882738322019577,0.04250776767730713],"scale":[1,1.0000004768371582,1],"translation":[0.009999980218708515,-0.0028757674153894186,0.029958141967654228]},{"children":[5,9,13,17,21],"name":"hand_l","rotation":[-0.02237604185938835,-2.264418526465306e-06,-3.032003448311116e-08,0.9997496008872986],"translation":[1.532122695380167e-08,0.24930401146411896,5.277343007037416e-09]},{"children":[22],"name":"lowerarm_l","rotation":[0.023802155628800392,8.208974031731486e-05,-1.8556972918304382e-06,0.9997166991233826],"translation":[-4.793889729626244e-08,0.2403421401977539,-4.220055416226387e-09]},{"children":[23],"name":"upperarm_l","rotation":[0.17232586443424225,0.6858593225479126,-0.1717943400144577,0.68584805727005],"scale":[1,1,1.0000001192092896],"translation":[-0.0016045584343373775,0.1410660296678543,-0.01228591613471508]},{"children":[24],"name":"clavicle_l","rotation":[-0.5471324324607849,-0.3204275965690613,-0.39127784967422485,0.666988730430603],"scale":[1,0.9999999403953552,0.9999999403953552],"translation":[0.02930000051856041,0.13370320200920105,0.0448194220662117]},{"name":"index_04_leaf_r","rotation":[-8.381903171539307e-09,-1,1.5432005174599583e-14,3.6517765238386346e-06],"translation":[-9.076757123693824e-10,0.023510519415140152,-3.8285477899080433e-08]},{"children":[26],"name":"index_03_r","rotation":[1.0023382124302316e-09,-7.603918037758783e-13,0.00013328436762094498,1],"scale":[0.9999999403953552,1,1],"translation":[-4.420144250616431e-10,0.027111778035759926,-3.670398029953503e-08]},{"children":[27],"name":"index_02_r","rotation":[1.8987577732332284e-08,-1.4024364247688936e-07,0.002140256343409419,0.9999977350234985],"scale":[0.9999999403953552,1,1],"translation":[-8.094502845779061e-11,0.03171013668179512,-6.863018597869086e-09]},{"children":[28],"name":"index_01_r","rotation":[-0.0033091865479946136,-0.7071018815040588,0.003309202380478382,0.7070961594581604],"translation":[-0.004199977032840252,0.08823654055595398,0.03620496019721031]},{"name":"middle_04_leaf_r","rotation":[2.0489096641540527e-08,-1,-6.335320587363621e-14,3.6517765238386346e-06],"translation":[-2.193701220676303e-09,0.029620492830872536,1.1362611473941797e-07]},{"children":[30],"name":"middle_03_r","rotation":[2.420814304571195e-08,-1.4173854798182894e-11,0.0032189602497965097,0.9999948143959045],"scale":[0.9999998807907104,0.9999999403953552,1],"translation":[4.32646629633382e-09,0.02931377850472927,3.287611605173879e-08]},{"children":[31],"name":"middle_02_r","rotation":[-2.949975197452659e-08,-1.402399334438087e-07,-0.0038676888216286898,0.9999924898147583],"translation":[-1.6816557035781443e-09,0.03642695024609566,1.0210540324351314e-07]},{"children":[32],"name":"middle_01_r","rotation":[-0.007979890331625938,-0.7070646286010742,0.007979941554367542,0.7070589065551758],"scale":[1,0.9999998807907104,1],"translation":[-0.001899929717183113,0.08634158223867416,0.010671664960682392]},{"name":"pinky_04_leaf_r","rotation":[8.381903171539307e-09,-1,-5.647658583201112e-14,3.65177675121231e-06],"translation":[1.317857822868973e-09,0.020919334143400192,-1.727942162688123e-07]},{"children":[34],"name":"pinky_03_r","rotation":[-2.1800540039862426e-08,-5.25581791629981e-12,-0.0028988486155867577,0.9999958276748657],"scale":[1,1.0000001192092896,1],"translation":[1.318767317570746e-09,0.026631725952029228,-8.721048061488545e-08]},{"children":[35],"name":"pinky_02_r","rotation":[1.03155857189563e-08,-1.4017835781032773e-07,0.001705002854578197,0.9999985694885254],"scale":[0.9999999403953552,0.9999999403953552,1],"translation":[2.967681211885065e-09,0.03083186410367489,-8.672896001371555e-08]},{"children":[36],"name":"pinky_01_r","rotation":[-0.01044775452464819,-0.7070325016975403,0.010447824373841286,0.7070267200469971],"scale":[0.9999999403953552,0.9999997615814209,0.9999999403953552],"translation":[-0.003799965837970376,0.06994835287332535,-0.03399413824081421]},{"name":"ring_04_leaf_r","rotation":[2.7474015951156616e-08,-1,-1.0721373739979931e-13,3.65177675121231e-06],"translation":[-9.5042196335271e-10,0.028301579877734184,-3.474425369631717e-08]},{"children":[38],"name":"ring_03_r","rotation":[2.6234243222234e-08,-4.3393351412124304e-11,0.0034884933847934008,0.9999939203262329],"translation":[-7.703420124016702e-09,0.027600184082984924,-1.1280478418029816e-07]},{"children":[39],"name":"ring_02_r","rotation":[-1.8197205520209536e-08,-1.4009778226409253e-07,-0.002474082401022315,0.9999969601631165],"translation":[9.877112461254e-10,0.035001225769519806,-1.5782489981575054e-07]},{"children":[40],"name":"ring_01_r","rotation":[0.0025809321086853743,-0.7071049213409424,-0.0025809479411691427,0.707099199295044],"scale":[0.9999999403953552,0.9999997615814209,0.9999999403953552],"translation":[-0.0021999571472406387,0.08042963594198227,-0.013825255446135998]},{"name":"thumb_04_leaf_r","rotation":[-2.5565388028780944e-08,-0.48539119958877563,-1.9393742434203887e-07,0.8742970824241638],"scale":[0.9999998807907104,0.9999999403953552,0.9999999403953552],"translation":[1.2622331269085407e-07,0.031272709369659424,3.073364496231079e-08]},{"children":[42],"name":"thumb_03_r","rotation":[-0.0012816853122785687,-5.809385038446635e-05,-0.00025414914125576615,0.9999991655349731],"scale":[1.0000001192092896,1.0000001192092896,1],"translation":[-1.0542134987190366e-07,0.03562036156654358,-8.847564458847046e-09]},{"children":[43],"name":"thumb_02_r","rotation":[0.001912830863147974,-0.00019218510715290904,0.0004484682867769152,0.9999980330467224],"scale":[1,0.9999998211860657,0.9999999403953552],"translation":[-1.453081495128572e-07,0.03582108020782471,-1.30385160446167e-08]},{"children":[44],"name":"thumb_01_r","rotation":[0.263997346162796,-0.9450139999389648,-0.1882738322019577,0.04250776767730713],"scale":[1,1.0000004768371582,1],"translation":[-0.009999980218708515,-0.0028757674153894186,0.029958141967654228]},{"children":[29,33,37,41,45],"name":"hand_r","rotation":[-0.02237604185938835,2.264418526465306e-06,3.032003448311116e-08,0.9997496008872986],"translation":[-1.532122695380167e-08,0.24930401146411896,5.277343007037416e-09]},{"children":[46],"name":"lowerarm_r","rotation":[0.023802155628800392,-8.208974031731486e-05,1.8556972918304382e-06,0.9997166991233826],"translation":[4.793889729626244e-08,0.2403421401977539,-4.220055416226387e-09]},{"children":[47],"name":"upperarm_r","rotation":[0.17232586443424225,-0.6858593225479126,0.1717943400144577,0.68584805727005],"scale":[1,1,1.0000001192092896],"translation":[0.0016045584343373775,0.1410660296678543,-0.01228591613471508]},{"children":[48],"name":"clavicle_r","rotation":[-0.5471324324607849,0.3204275965690613,0.39127784967422485,0.666988730430603],"scale":[1,0.9999999403953552,0.9999999403953552],"translation":[-0.02930000051856041,0.13370320200920105,0.0448194220662117]},{"children":[1,25,49],"name":"spine_03","rotation":[-0.10099761933088303,4.5928396448426806e-14,-4.5242200827702583e-13,0.9948866963386536],"scale":[1,1,0.9999999403953552],"translation":[4.6735704609246064e-20,0.12640145421028137,3.4924596548080444e-10]},{"children":[50],"name":"spine_02","rotation":[-0.055728573352098465,-4.992229150957428e-05,-2.7864282401424134e-06,0.998445987701416],"scale":[1,0.9999998211860657,0.9999998807907104],"translation":[-4.263256414560601e-13,0.11034487932920456,8.381903171539307e-09]},{"children":[51],"name":"spine_01","rotation":[-0.06393160670995712,4.989771332475357e-05,-3.19658010994317e-06,0.9979543089866638],"scale":[1,0.9999999403953552,1],"translation":[0,0.12655510008335114,-9.313225746154785e-10]},{"name":"ball_leaf_l","rotation":[0,0.00017269056115765125,5.421010862427522e-20,1],"scale":[1,1.0000001192092896,1],"translation":[5.525180313270539e-10,0.06809987872838974,-1.204170985147357e-09]},{"children":[53],"name":"ball_l","rotation":[-3.296312570455484e-05,0.9816133975982666,-0.1908797174692154,0.00016951537691056728],"scale":[1,1.0000001192092896,0.9999998807907104],"translation":[1.4901161193847656e-08,0.14916980266571045,-6.51925802230835e-09]},{"children":[54],"name":"foot_l","rotation":[-0.5978578329086304,0,0,0.8016021847724915],"scale":[1,1.0000001192092896,1],"translation":[-7.450580596923828e-09,0.4661003053188324,2.7939677238464355e-09]},{"children":[55],"name":"calf_l","rotation":[0.0712229460477829,0,0,0.9974604249000549],"scale":[1,0.9999999403953552,1],"translation":[-7.450580596923828e-09,0.4098641872406006,1.3969838619232178e-09]},{"children":[56],"name":"thigh_l","rotation":[0.9893749952316284,0,0,0.1453862488269806],"scale":[1,1,1.0000014305114746],"translation":[0.11140000075101852,0.010460092686116695,-0.008893024176359177]},{"name":"ball_leaf_r","rotation":[0,0.00017269056115765125,5.421010862427522e-20,1],"scale":[1,1.0000001192092896,1],"translation":[5.525180313270539e-10,0.06809987872838974,-1.5897967386990786e-09]},{"children":[58],"name":"ball_r","rotation":[-3.296312570455484e-05,0.9816133975982666,-0.1908797174692154,0.00016951537691056728],"scale":[1,1.0000001192092896,0.9999998807907104],"translation":[-1.4901161193847656e-08,0.14916980266571045,-6.51925802230835e-09]},{"children":[59],"name":"foot_r","rotation":[-0.5978578329086304,0,0,0.8016021847724915],"scale":[1,1.0000001192092896,1],"translation":[7.450580596923828e-09,0.4661003053188324,2.7939677238464355e-09]},{"children":[60],"name":"calf_r","rotation":[0.0712229460477829,0,0,0.9974604249000549],"scale":[1,0.9999999403953552,1],"translation":[7.450580596923828e-09,0.4098641872406006,1.3969838619232178e-09]},{"children":[61],"name":"thigh_r","rotation":[0.9893749952316284,0,0,0.1453862488269806],"scale":[1,1,1.0000014305114746],"translation":[-0.11140000075101852,0.010460092686116695,-0.008893024176359177]},{"children":[52,57,62],"name":"pelvis","rotation":[0.7879695892333984,0,0,0.6157141923904419],"translation":[0,0.045700013637542725,0.9318000078201294]},{"children":[63],"name":"root","rotation":[-0.7071067690849304,0,0,0.7071067690849304]},{"mesh":0,"name":"Female_Ranger_Body","skin":0},{"mesh":1,"name":"Female_Ranger_Body_Belt_1","skin":0},{"mesh":2,"name":"Female_Ranger_Body_Belt_2","skin":0},{"children":[65,66,67,64],"name":"Armature"}],"materials":[{"doubleSided":true,"name":"MI_Ranger","normalTexture":{"index":0},"pbrMetallicRoughness":{"baseColorTexture":{"index":1},"metallicRoughnessTexture":{"index":2}}}],"meshes":[{"name":"Female_Ranger_Body","primitives":[{"attributes":{"POSITION":0,"NORMAL":1,"TEXCOORD_0":2,"COLOR_0":3,"COLOR_1":4,"COLOR_2":5,"JOINTS_0":6,"JOINTS_1":7,"WEIGHTS_0":8,"WEIGHTS_1":9},"indices":10,"material":0}]},{"name":"Female_Ranger_Body_Belt_1","primitives":[{"attributes":{"POSITION":12,"NORMAL":13,"TEXCOORD_0":14,"COLOR_0":15,"COLOR_1":16,"COLOR_2":17,"JOINTS_0":18,"WEIGHTS_0":19},"indices":20,"material":0}]},{"name":"Female_Ranger_Body_Belt_2","primitives":[{"attributes":{"POSITION":21,"NORMAL":22,"TEXCOORD_0":23,"COLOR_0":24,"COLOR_1":25,"COLOR_2":26,"JOINTS_0":27,"WEIGHTS_0":28},"indices":29,"material":0}]}],"textures":[{"sampler":0,"source":0},{"sampler":0,"source":1},{"sampler":0,"source":2}],"images":[{"mimeType":"image/png","name":"T_Ranger_Normal","uri":"../textures/dd64da2af3180f0c8f0b721cfc5f0d2720c351b97da8285c6cf49e7717c84147.png"},{"mimeType":"image/png","name":"T_Ranger_BaseColor","uri":"../textures/846ef2170b04ee584ad83bb8a1e86dab57a9a43b1193204505912c274d949925.png"},{"mimeType":"image/png","name":"T_Ranger_ORM","uri":"../textures/aca03d2fba12508ef07d5968ca22267fb207ea26ae898b6b2def8a296bd44f1c.png"}],"skins":[{"inverseBindMatrices":11,"joints":[64,63,52,51,50,1,0,25,24,23,22,5,4,3,2,9,8,7,6,13,12,11,10,17,16,15,14,21,20,19,18,49,48,47,46,29,28,27,26,33,32,31,30,37,36,35,34,41,40,39,38,45,44,43,42,57,56,55,54,53,62,61,60,59,58],"name":"Armature"}],"accessors":[{"bufferView":0,"componentType":5126,"count":2785,"max":[0.19003857672214508,1.5412611961364746,0.16357310116291046],"min":[-0.19003857672214508,0.9188352227210999,-0.18152527511119843],"type":"VEC3"},{"bufferView":1,"componentType":5126,"count":2785,"type":"VEC3"},{"bufferView":2,"componentType":5126,"count":2785,"type":"VEC2"},{"bufferView":3,"componentType":5121,"count":2785,"normalized":true,"type":"VEC4"},{"bufferView":4,"componentType":5123,"count":2785,"normalized":true,"type":"VEC4"},{"bufferView":5,"componentType":5123,"count":2785,"normalized":true,"type":"VEC4"},{"bufferView":6,"componentType":5121,"count":2785,"type":"VEC4"},{"bufferView":7,"componentType":5121,"count":2785,"type":"VEC4"},{"bufferView":8,"componentType":5126,"count":2785,"type":"VEC4"},{"bufferView":9,"componentType":5126,"count":2785,"type":"VEC4"},{"bufferView":10,"componentType":5123,"count":8886,"type":"SCALAR"},{"bufferView":11,"componentType":5126,"count":65,"type":"MAT4"},{"bufferView":12,"componentType":5126,"count":928,"max":[0.12832114100456238,1.2027900218963623,0.14617401361465454],"min":[-0.11926408857107162,1.1571892499923706,-0.08207154273986816],"type":"VEC3"},{"bufferView":13,"componentType":5126,"count":928,"type":"VEC3"},{"bufferView":14,"componentType":5126,"count":928,"type":"VEC2"},{"bufferView":15,"componentType":5121,"count":928,"normalized":true,"type":"VEC4"},{"bufferView":16,"componentType":5123,"count":928,"normalized":true,"type":"VEC4"},{"bufferView":17,"componentType":5123,"count":928,"normalized":true,"type":"VEC4"},{"bufferView":18,"componentType":5121,"count":928,"type":"VEC4"},{"bufferView":19,"componentType":5126,"count":928,"type":"VEC4"},{"bufferView":20,"componentType":5123,"count":2412,"type":"SCALAR"},{"bufferView":21,"componentType":5126,"count":928,"max":[0.12562987208366394,1.1635563373565674,0.1312810629606247],"min":[-0.12259617447853088,1.104406714439392,-0.08671698719263077],"type":"VEC3"},{"bufferView":22,"componentType":5126,"count":928,"type":"VEC3"},{"bufferView":23,"componentType":5126,"count":928,"type":"VEC2"},{"bufferView":24,"componentType":5121,"count":928,"normalized":true,"type":"VEC4"},{"bufferView":25,"componentType":5123,"count":928,"normalized":true,"type":"VEC4"},{"bufferView":26,"componentType":5123,"count":928,"normalized":true,"type":"VEC4"},{"bufferView":27,"componentType":5121,"count":928,"type":"VEC4"},{"bufferView":28,"componentType":5126,"count":928,"type":"VEC4"},{"bufferView":29,"componentType":5123,"count":2412,"type":"SCALAR"}],"bufferViews":[{"buffer":0,"byteLength":33420,"byteOffset":0,"target":34962},{"buffer":0,"byteLength":33420,"byteOffset":33420,"target":34962},{"buffer":0,"byteLength":22280,"byteOffset":66840,"target":34962},{"buffer":0,"byteLength":11140,"byteOffset":89120,"target":34962},{"buffer":0,"byteLength":22280,"byteOffset":100260,"target":34962},{"buffer":0,"byteLength":22280,"byteOffset":122540,"target":34962},{"buffer":0,"byteLength":11140,"byteOffset":144820,"target":34962},{"buffer":0,"byteLength":11140,"byteOffset":155960,"target":34962},{"buffer":0,"byteLength":44560,"byteOffset":167100,"target":34962},{"buffer":0,"byteLength":44560,"byteOffset":211660,"target":34962},{"buffer":0,"byteLength":17772,"byteOffset":256220,"target":34963},{"buffer":0,"byteLength":4160,"byteOffset":273992},{"buffer":0,"byteLength":11136,"byteOffset":278152,"target":34962},{"buffer":0,"byteLength":11136,"byteOffset":289288,"target":34962},{"buffer":0,"byteLength":7424,"byteOffset":300424,"target":34962},{"buffer":0,"byteLength":3712,"byteOffset":307848,"target":34962},{"buffer":0,"byteLength":7424,"byteOffset":311560,"target":34962},{"buffer":0,"byteLength":7424,"byteOffset":318984,"target":34962},{"buffer":0,"byteLength":3712,"byteOffset":326408,"target":34962},{"buffer":0,"byteLength":14848,"byteOffset":330120,"target":34962},{"buffer":0,"byteLength":4824,"byteOffset":344968,"target":34963},{"buffer":0,"byteLength":11136,"byteOffset":349792,"target":34962},{"buffer":0,"byteLength":11136,"byteOffset":360928,"target":34962},{"buffer":0,"byteLength":7424,"byteOffset":372064,"target":34962},{"buffer":0,"byteLength":3712,"byteOffset":379488,"target":34962},{"buffer":0,"byteLength":7424,"byteOffset":383200,"target":34962},{"buffer":0,"byteLength":7424,"byteOffset":390624,"target":34962},{"buffer":0,"byteLength":3712,"byteOffset":398048,"target":34962},{"buffer":0,"byteLength":14848,"byteOffset":401760,"target":34962},{"buffer":0,"byteLength":4824,"byteOffset":416608,"target":34963}],"samplers":[{"magFilter":9729,"minFilter":9987}],"buffers":[{"byteLength":421432,"uri":"Female_Ranger_Body.bin"}]}
