{
  "accessors": [
    {
      "bufferView": 0,
      "componentType": 5126,
      "count": 144,
      "max": [
        0.2619999945163727,
        0.05405256152153015,
        0.2619999945163727
      ],
      "min": [
        -0.2619999945163727,
        0.015947440639138222,
        -0.2619999945163727
      ],
      "type": "VEC3"
    },
    {
      "bufferView": 1,
      "componentType": 5126,
      "count": 144,
      "type": "VEC3"
    },
    {
      "bufferView": 2,
      "componentType": 5126,
      "count": 144,
      "type": "VEC2"
    },
    {
      "bufferView": 3,
      "componentType": 5123,
      "count": 216,
      "type": "SCALAR"
    },
    {
      "bufferView": 4,
      "componentType": 5126,
      "count": 144,
      "max": [
        0.296999990940094,
        0.05405256152153015,
        0.296999990940094
      ],
      "min": [
        -0.296999990940094,
        0.015947440639138222,
        -0.296999990940094
      ],
      "type": "VEC3"
    },
    {
      "bufferView": 5,
      "componentType": 5126,
      "count": 144,
      "type": "VEC3"
    },
    {
      "bufferView": 6,
      "componentType": 5126,
      "count": 144,
      "type": "VEC2"
    },
    {
      "bufferView": 7,
      "componentType": 5126,
      "count": 144,
      "max": [
        0.3320000171661377,
        0.05405256152153015,
        0.3320000171661377
      ],
      "min": [
        -0.3320000171661377,
        0.015947440639138222,
        -0.3320000171661377
      ],
      "type": "VEC3"
    },
    {
      "bufferView": 8,
      "componentType": 5126,
      "count": 144,
      "type": "VEC3"
    },
    {
      "bufferView": 9,
      "componentType": 5126,
      "count": 144,
      "type": "VEC2"
    }
  ],
  "asset": {
    "generator": "Khronos glTF Blender I/O v5.2.40",
    "version": "2.0"
  },
  "bufferViews": [
    {
      "buffer": 0,
      "byteLength": 1728,
      "byteOffset": 0,
      "target": 34962
    },
    {
      "buffer": 0,
      "byteLength": 1728,
      "byteOffset": 1728,
      "target": 34962
    },
    {
      "buffer": 0,
      "byteLength": 1152,
      "byteOffset": 3456,
      "target": 34962
    },
    {
      "buffer": 0,
      "byteLength": 432,
      "byteOffset": 4608,
      "target": 34963
    },
    {
      "buffer": 0,
      "byteLength": 1728,
      "byteOffset": 5040,
      "target": 34962
    },
    {
      "buffer": 0,
      "byteLength": 1728,
      "byteOffset": 6768,
      "target": 34962
    },
    {
      "buffer": 0,
      "byteLength": 1152,
      "byteOffset": 8496,
      "target": 34962
    },
    {
      "buffer": 0,
      "byteLength": 1728,
      "byteOffset": 9648,
      "target": 34962
    },
    {
      "buffer": 0,
      "byteLength": 1728,
      "byteOffset": 11376,
      "target": 34962
    },
    {
      "buffer": 0,
      "byteLength": 1152,
      "byteOffset": 13104,
      "target": 34962
    }
  ],
  "buffers": [
    {
      "byteLength": 14256,
      "uri": "rope.bin"
    }
  ],
  "materials": [
    {
      "doubleSided": true,
      "name": "Coast_rope",
      "pbrMetallicRoughness": {
        "baseColorFactor": [
          0.6200000047683716,
          0.5199999809265137,
          0.3199999928474426,
          1
        ],
        "metallicFactor": 0,
        "roughnessFactor": 0.949999988079071
      }
    }
  ],
  "meshes": [
    {
      "name": "Torus",
      "primitives": [
        {
          "attributes": {
            "NORMAL": 1,
            "POSITION": 0,
            "TEXCOORD_0": 2
          },
          "indices": 3,
          "material": 0
        }
      ]
    },
    {
      "name": "Torus.001",
      "primitives": [
        {
          "attributes": {
            "NORMAL": 5,
            "POSITION": 4,
            "TEXCOORD_0": 6
          },
          "indices": 3,
          "material": 0
        }
      ]
    },
    {
      "name": "Torus.002",
      "primitives": [
        {
          "attributes": {
            "NORMAL": 8,
            "POSITION": 7,
            "TEXCOORD_0": 9
          },
          "indices": 3,
          "material": 0
        }
      ]
    }
  ],
  "nodes": [
    {
      "mesh": 0,
      "name": "Coil"
    },
    {
      "mesh": 1,
      "name": "Coil.001"
    },
    {
      "mesh": 2,
      "name": "Coil.002"
    }
  ],
  "scene": 0,
  "scenes": [
    {
      "name": "Scene",
      "nodes": [
        0,
        1,
        2
      ]
    }
  ]
}
