{"accessors":[{"bufferView":0,"componentType":5126,"count":648,"type":"VEC3"},{"bufferView":1,"componentType":5126,"count":648,"max":[15.680000305175781,11.899999618530273,0.03999999910593033],"min":[-15.680000305175781,0,-28.479999542236328],"type":"VEC3"},{"bufferView":2,"componentType":5123,"count":972,"type":"SCALAR"},{"bufferView":3,"componentType":5126,"count":1556,"type":"VEC3"},{"bufferView":4,"componentType":5126,"count":1556,"max":[15.600000381469727,11.739999771118164,0],"min":[-15.600000381469727,0,-28.549999237060547],"type":"VEC3"},{"bufferView":5,"componentType":5126,"count":1556,"type":"VEC2"},{"bufferView":6,"componentType":5123,"count":2778,"type":"SCALAR"},{"bufferView":7,"componentType":5126,"count":195,"type":"VEC3"},{"bufferView":8,"componentType":5126,"count":195,"max":[8.699999809265137,3.1525001525878906,-0.10000000149011612],"min":[-14.587464332580566,0.8999999761581421,-27.349998474121094],"type":"VEC3"},{"bufferView":9,"componentType":5123,"count":750,"type":"SCALAR"},{"bufferView":10,"componentType":5126,"count":5762,"type":"VEC3"},{"bufferView":11,"componentType":5126,"count":5762,"max":[14.80000114440918,8.979999542236328,0.7599999904632568],"min":[-14.399999618530273,0,-27.600000381469727],"type":"VEC3"},{"bufferView":12,"componentType":5123,"count":8724,"type":"SCALAR"},{"bufferView":13,"componentType":5126,"count":2272,"type":"VEC3"},{"bufferView":14,"componentType":5126,"count":2272,"max":[14.324999809265137,6.847499847412109,-7.489999771118164],"min":[-14.225000381469727,1.659999966621399,-23.65399932861328],"type":"VEC3"},{"bufferView":15,"componentType":5123,"count":3408,"type":"SCALAR"},{"bufferView":16,"componentType":5126,"count":1420,"type":"VEC3"},{"bufferView":17,"componentType":5126,"count":1420,"max":[14.503253936767578,10.5,0.7200000286102295],"min":[-14.403253555297852,1.850000023841858,-27.989999771118164],"type":"VEC3"},{"bufferView":18,"componentType":5123,"count":2310,"type":"SCALAR"},{"bufferView":19,"componentType":5126,"count":472,"type":"VEC3"},{"bufferView":20,"componentType":5126,"count":472,"max":[14.800000190734863,9,-7.340000152587891],"min":[-14.800000190734863,1.600000023841858,-27.600000381469727],"type":"VEC3"},{"bufferView":21,"componentType":5123,"count":708,"type":"SCALAR"},{"bufferView":22,"componentType":5126,"count":80,"type":"VEC3"},{"bufferView":23,"componentType":5126,"count":80,"max":[8.420001029968262,8.899999618530273,-10.399999618530273],"min":[-13.800000190734863,2.700000047683716,-27.5],"type":"VEC3"},{"bufferView":24,"componentType":5123,"count":120,"type":"SCALAR"},{"bufferView":25,"componentType":5126,"count":56,"type":"VEC3"},{"bufferView":26,"componentType":5126,"count":56,"max":[14.600000381469727,8.3149995803833,-7.170000076293945],"min":[-14.600000381469727,1.725000023841858,-27.149999618530273],"type":"VEC3"},{"bufferView":27,"componentType":5123,"count":84,"type":"SCALAR"},{"bufferView":28,"componentType":5126,"count":1300,"type":"VEC3"},{"bufferView":29,"componentType":5126,"count":1300,"max":[13.600000381469727,7.199999809265137,-12],"min":[-14.799999237060547,1.600000023841858,-27.600000381469727],"type":"VEC3"},{"bufferView":30,"componentType":5126,"count":1300,"type":"VEC2"},{"bufferView":31,"componentType":5123,"count":1950,"type":"SCALAR"},{"bufferView":32,"componentType":5126,"count":204,"type":"VEC3"},{"bufferView":33,"componentType":5126,"count":204,"max":[6.35099983215332,7.103000164031982,-12.125],"min":[-14.737998962402344,2.799999952316284,-27.52800178527832],"type":"VEC3"},{"bufferView":34,"componentType":5123,"count":306,"type":"SCALAR"},{"bufferView":35,"componentType":5126,"count":120,"type":"VEC3"},{"bufferView":36,"componentType":5126,"count":120,"max":[14.562517166137695,4.619999885559082,-16.474000930786133],"min":[-12.252516746520996,2.924999952316284,-27.365999221801758],"type":"VEC3"},{"bufferView":37,"componentType":5123,"count":288,"type":"SCALAR"},{"bufferView":38,"componentType":5126,"count":150,"type":"VEC3"},{"bufferView":39,"componentType":5126,"count":150,"max":[14.564001083374023,4.700000286102295,-16.477174758911133],"min":[-12.24941635131836,3.1050000190734863,-27.362825393676758],"type":"VEC3"},{"bufferView":40,"componentType":5123,"count":234,"type":"SCALAR"},{"bufferView":41,"componentType":5126,"count":4,"type":"VEC3"},{"bufferView":42,"componentType":5126,"count":4,"max":[-10.550000190734863,1.6399999856948853,-13.550000190734863],"min":[-13.649999618530273,1.6399999856948853,-17.649999618530273],"type":"VEC3"},{"bufferView":43,"componentType":5123,"count":6,"type":"SCALAR"},{"bufferView":44,"componentType":5126,"count":80,"type":"VEC3"},{"bufferView":45,"componentType":5126,"count":80,"max":[-10.199999809265137,1.6399999856948853,-13.199999809265137],"min":[-14,1.6200000047683716,-18],"type":"VEC3"},{"bufferView":46,"componentType":5123,"count":120,"type":"SCALAR"}],"asset":{"generator":"Khronos glTF Blender I/O v5.2.40","version":"2.0"},"bufferViews":[{"buffer":0,"byteOffset":0,"byteLength":7776,"target":34962},{"buffer":0,"byteOffset":7776,"byteLength":7776,"target":34962},{"buffer":0,"byteOffset":15552,"byteLength":1944,"target":34963},{"buffer":0,"byteOffset":17496,"byteLength":18672,"target":34962},{"buffer":0,"byteOffset":36168,"byteLength":18672,"target":34962},{"buffer":0,"byteOffset":54840,"byteLength":12448,"target":34962},{"buffer":0,"byteOffset":67288,"byteLength":5556,"target":34963},{"buffer":0,"byteOffset":72844,"byteLength":2340,"target":34962},{"buffer":0,"byteOffset":75184,"byteLength":2340,"target":34962},{"buffer":0,"byteOffset":77524,"byteLength":1500,"target":34963},{"buffer":0,"byteOffset":79024,"byteLength":69144,"target":34962},{"buffer":0,"byteOffset":148168,"byteLength":69144,"target":34962},{"buffer":0,"byteOffset":217312,"byteLength":17448,"target":34963},{"buffer":0,"byteOffset":234760,"byteLength":27264,"target":34962},{"buffer":0,"byteOffset":262024,"byteLength":27264,"target":34962},{"buffer":0,"byteOffset":289288,"byteLength":6816,"target":34963},{"buffer":0,"byteOffset":296104,"byteLength":17040,"target":34962},{"buffer":0,"byteOffset":313144,"byteLength":17040,"target":34962},{"buffer":0,"byteOffset":330184,"byteLength":4620,"target":34963},{"buffer":0,"byteOffset":334804,"byteLength":5664,"target":34962},{"buffer":0,"byteOffset":340468,"byteLength":5664,"target":34962},{"buffer":0,"byteOffset":346132,"byteLength":1416,"target":34963},{"buffer":0,"byteOffset":347548,"byteLength":960,"target":34962},{"buffer":0,"byteOffset":348508,"byteLength":960,"target":34962},{"buffer":0,"byteOffset":349468,"byteLength":240,"target":34963},{"buffer":0,"byteOffset":349708,"byteLength":672,"target":34962},{"buffer":0,"byteOffset":350380,"byteLength":672,"target":34962},{"buffer":0,"byteOffset":351052,"byteLength":168,"target":34963},{"buffer":0,"byteOffset":351220,"byteLength":15600,"target":34962},{"buffer":0,"byteOffset":366820,"byteLength":15600,"target":34962},{"buffer":0,"byteOffset":382420,"byteLength":10400,"target":34962},{"buffer":0,"byteOffset":392820,"byteLength":3900,"target":34963},{"buffer":0,"byteOffset":396720,"byteLength":2448,"target":34962},{"buffer":0,"byteOffset":399168,"byteLength":2448,"target":34962},{"buffer":0,"byteOffset":401616,"byteLength":612,"target":34963},{"buffer":0,"byteOffset":402228,"byteLength":1440,"target":34962},{"buffer":0,"byteOffset":403668,"byteLength":1440,"target":34962},{"buffer":0,"byteOffset":405108,"byteLength":576,"target":34963},{"buffer":0,"byteOffset":405684,"byteLength":1800,"target":34962},{"buffer":0,"byteOffset":407484,"byteLength":1800,"target":34962},{"buffer":0,"byteOffset":409284,"byteLength":468,"target":34963},{"buffer":0,"byteOffset":409752,"byteLength":48,"target":34962},{"buffer":0,"byteOffset":409800,"byteLength":48,"target":34962},{"buffer":0,"byteOffset":409848,"byteLength":12,"target":34963},{"buffer":0,"byteOffset":409860,"byteLength":960,"target":34962},{"buffer":0,"byteOffset":410820,"byteLength":960,"target":34962},{"buffer":0,"byteOffset":411780,"byteLength":240,"target":34963}],"buffers":[{"byteLength":412020,"uri":"agora.bin"}],"images":[{"name":"T_Plaster_Luma","uri":"../village/T_Plaster_Luma.png"},{"name":"T_WoodTrim_BaseColor","uri":"../village/T_WoodTrim_BaseColor.png"}],"materials":[{"doubleSided":true,"name":"GrecoStoneShade","pbrMetallicRoughness":{"baseColorFactor":[0.5382355451583862,0.4479884207248688,0.3069993257522583,1],"metallicFactor":0,"roughnessFactor":0.8500000238418579}},{"doubleSided":true,"name":"GrecoLimestone","pbrMetallicRoughness":{"baseColorFactor":[0.9026,0.7713,0.5384,1.0],"baseColorTexture":{"index":0},"metallicFactor":0,"roughnessFactor":0.800000011920929}},{"doubleSided":true,"name":"GrecoHedge","pbrMetallicRoughness":{"baseColorFactor":[0.02451501414179802,0.06838485598564148,0.0134117491543293,1],"metallicFactor":0,"roughnessFactor":0.949999988079071}},{"doubleSided":true,"name":"GrecoBronze","pbrMetallicRoughness":{"baseColorFactor":[0.04696420207619667,0.01960664801299572,0.00854038167744875,1],"metallicFactor":0,"roughnessFactor":0.44999998807907104}},{"doubleSided":true,"name":"GrecoCopper","pbrMetallicRoughness":{"baseColorFactor":[0.3931231200695038,0.11928018927574158,0.03310476616024971,1],"metallicFactor":0,"roughnessFactor":0.4000000059604645}},{"doubleSided":true,"emissiveFactor":[1,0.4200332760810852,0.07323895394802094],"name":"EmitAmber","pbrMetallicRoughness":{"baseColorFactor":[1,0.4200332760810852,0.07323895394802094,1],"metallicFactor":0,"roughnessFactor":0.30000001192092896}},{"doubleSided":true,"name":"GrecoMarble","pbrMetallicRoughness":{"baseColorFactor":[0.8073459267616272,0.7874122858047485,0.7293471097946167,1],"metallicFactor":0,"roughnessFactor":0.4000000059604645}},{"doubleSided":true,"name":"GrecoGlass","pbrMetallicRoughness":{"baseColorFactor":[0.010022825561463833,0.011645430698990822,0.0134117491543293,1],"metallicFactor":0,"roughnessFactor":0.15000000596046448}},{"doubleSided":true,"emissiveFactor":[0.1098584309220314,0.05952286161482334,0.02011762373149395],"name":"EmitCove","pbrMetallicRoughness":{"baseColorFactor":[0.07323895394802094,0.03968190774321556,0.0134117491543293,1],"metallicFactor":0,"roughnessFactor":0.5}},{"doubleSided":true,"name":"GrecoWalnut","pbrMetallicRoughness":{"baseColorFactor":[0.1509,0.1765,0.2002,1.0],"baseColorTexture":{"index":1},"metallicFactor":0,"roughnessFactor":0.6000000238418579}},{"doubleSided":true,"emissiveFactor":[0.049657149240374565,0.010791613720357418,0.003482972038909793],"name":"EmitInlay","pbrMetallicRoughness":{"baseColorFactor":[0.03310476616024971,0.007194409146904945,0.0023219813592731953,1],"metallicFactor":0,"roughnessFactor":0.4000000059604645}},{"doubleSided":true,"name":"GrecoLinen","pbrMetallicRoughness":{"baseColorFactor":[0.7105664610862732,0.6209158897399902,0.4623613655567169,1],"metallicFactor":0,"roughnessFactor":0.949999988079071}},{"doubleSided":true,"emissiveFactor":[1,0.6382831931114197,0.21404114365577698],"name":"EmitFlame","pbrMetallicRoughness":{"baseColorFactor":[1,0.6382831931114197,0.21404114365577698,1],"metallicFactor":0,"roughnessFactor":0.5}},{"doubleSided":true,"name":"GrecoRug","pbrMetallicRoughness":{"baseColorFactor":[0.5382355451583862,0.295699805021286,0.17064493894577026,1],"metallicFactor":0}},{"doubleSided":true,"name":"GrecoRedBrown","pbrMetallicRoughness":{"baseColorFactor":[0.13286831974983215,0.027211781591176987,0.011645430698990822,1],"metallicFactor":0,"roughnessFactor":0.800000011920929}}],"meshes":[{"name":"Step","primitives":[{"attributes":{"NORMAL":0,"POSITION":1},"indices":2,"material":0},{"attributes":{"NORMAL":3,"POSITION":4,"TEXCOORD_0":5},"indices":6,"material":1},{"attributes":{"NORMAL":7,"POSITION":8},"indices":9,"material":2},{"attributes":{"NORMAL":10,"POSITION":11},"indices":12,"material":3},{"attributes":{"NORMAL":13,"POSITION":14},"indices":15,"material":4},{"attributes":{"NORMAL":16,"POSITION":17},"indices":18,"material":5},{"attributes":{"NORMAL":19,"POSITION":20},"indices":21,"material":6},{"attributes":{"NORMAL":22,"POSITION":23},"indices":24,"material":7},{"attributes":{"NORMAL":25,"POSITION":26},"indices":27,"material":8},{"attributes":{"NORMAL":28,"POSITION":29,"TEXCOORD_0":30},"indices":31,"material":9},{"attributes":{"NORMAL":32,"POSITION":33},"indices":34,"material":10},{"attributes":{"NORMAL":35,"POSITION":36},"indices":37,"material":11},{"attributes":{"NORMAL":38,"POSITION":39},"indices":40,"material":12},{"attributes":{"NORMAL":41,"POSITION":42},"indices":43,"material":13},{"attributes":{"NORMAL":44,"POSITION":45},"indices":46,"material":14}]}],"nodes":[{"mesh":0,"name":"agora"}],"scene":0,"scenes":[{"name":"Scene","nodes":[0]}],"textures":[{"source":0},{"source":1}]}