{"accessors":[{"bufferView":0,"componentType":5126,"count":16,"max":[-1.5,2.75,1.4199999570846558],"min":[-3,1.9199999570846558,0.11999999731779099],"type":"VEC3"},{"bufferView":1,"componentType":5126,"count":16,"type":"VEC3"},{"bufferView":2,"componentType":5126,"count":16,"type":"VEC2"},{"bufferView":3,"componentType":5123,"count":24,"type":"SCALAR"},{"bufferView":4,"componentType":5126,"count":16,"max":[-1,2.75,1.4199999570846558],"min":[-2.5,1.9199999570846558,0.11999999731779099],"type":"VEC3"},{"bufferView":5,"componentType":5126,"count":16,"type":"VEC3"},{"bufferView":6,"componentType":5126,"count":16,"type":"VEC2"},{"bufferView":7,"componentType":5126,"count":16,"max":[2.5,2.75,1.4199999570846558],"min":[1,1.9199999570846558,0.11999999731779099],"type":"VEC3"},{"bufferView":8,"componentType":5126,"count":16,"type":"VEC3"},{"bufferView":9,"componentType":5126,"count":16,"type":"VEC2"},{"bufferView":10,"componentType":5126,"count":16,"max":[3,2.75,1.4199999570846558],"min":[1.5,1.9199999570846558,0.11999999731779099],"type":"VEC3"},{"bufferView":11,"componentType":5126,"count":16,"type":"VEC3"},{"bufferView":12,"componentType":5126,"count":16,"type":"VEC2"},{"bufferView":13,"componentType":5126,"count":4,"max":[-2.9200000762939453,2.200000047683716,1.4199999570846558],"min":[-2.9600000381469727,1.850000023841858,0.11999999731779099],"type":"VEC3"},{"bufferView":14,"componentType":5126,"count":4,"type":"VEC3"},{"bufferView":15,"componentType":5126,"count":4,"type":"VEC2"},{"bufferView":16,"componentType":5123,"count":6,"type":"SCALAR"},{"bufferView":17,"componentType":5126,"count":4,"max":[-1.0399999618530273,2.200000047683716,1.4199999570846558],"min":[-1.0800000429153442,1.850000023841858,0.11999999731779099],"type":"VEC3"},{"bufferView":18,"componentType":5126,"count":4,"type":"VEC3"},{"bufferView":19,"componentType":5126,"count":4,"type":"VEC2"},{"bufferView":20,"componentType":5126,"count":4,"max":[1.0800000429153442,2.200000047683716,1.4199999570846558],"min":[1.0399999618530273,1.850000023841858,0.11999999731779099],"type":"VEC3"},{"bufferView":21,"componentType":5126,"count":4,"type":"VEC3"},{"bufferView":22,"componentType":5126,"count":4,"type":"VEC2"},{"bufferView":23,"componentType":5126,"count":4,"max":[2.9600000381469727,2.200000047683716,1.4199999570846558],"min":[2.9200000762939453,1.850000023841858,0.11999999731779099],"type":"VEC3"},{"bufferView":24,"componentType":5126,"count":4,"type":"VEC3"},{"bufferView":25,"componentType":5126,"count":4,"type":"VEC2"},{"bufferView":26,"componentType":5126,"count":24,"max":[-1,2.2300000190734863,1.4500000476837158],"min":[-3,2.1700000762939453,1.3899999856948853],"type":"VEC3"},{"bufferView":27,"componentType":5126,"count":24,"type":"VEC3"},{"bufferView":28,"componentType":5126,"count":24,"type":"VEC2"},{"bufferView":29,"componentType":5123,"count":36,"type":"SCALAR"},{"bufferView":30,"componentType":5126,"count":24,"max":[3,2.2300000190734863,1.4500000476837158],"min":[1,2.1700000762939453,1.3899999856948853],"type":"VEC3"},{"bufferView":31,"componentType":5126,"count":24,"type":"VEC3"},{"bufferView":32,"componentType":5126,"count":24,"type":"VEC2"},{"bufferView":33,"componentType":5126,"count":24,"max":[3.049999952316284,3.0199999809265137,0.46000000834465027],"min":[-3.049999952316284,2.859999895095825,0.23999999463558197],"type":"VEC3"},{"bufferView":34,"componentType":5126,"count":24,"type":"VEC3"},{"bufferView":35,"componentType":5126,"count":24,"type":"VEC2"},{"bufferView":36,"componentType":5126,"count":24,"max":[0.10508709400892258,2.999999761581421,0.11982007324695587],"min":[-0.10508733242750168,-1.5052728485898115e-07,-0.11982005089521408],"type":"VEC3"},{"bufferView":37,"componentType":5126,"count":24,"type":"VEC3"},{"bufferView":38,"componentType":5126,"count":24,"type":"VEC2"},{"bufferView":39,"componentType":5123,"count":36,"type":"SCALAR"},{"bufferView":40,"componentType":5126,"count":744,"max":[1.0737497806549072,2.3513262271881104,0.06314271688461304],"min":[-0.04626310616731644,0.033089637756347656,-0.05755755677819252],"type":"VEC3"},{"bufferView":41,"componentType":5126,"count":744,"type":"VEC3"},{"bufferView":42,"componentType":5126,"count":744,"type":"VEC2"},{"bufferView":43,"componentType":5123,"count":1362,"type":"SCALAR"},{"bufferView":44,"componentType":5126,"count":28,"max":[0.8667700886726379,1.7624019384384155,0.0312458835542202],"min":[0.1617247760295868,1.3117259740829468,0.031245503574609756],"type":"VEC3"},{"bufferView":45,"componentType":5126,"count":28,"type":"VEC3"},{"bufferView":46,"componentType":5126,"count":28,"type":"VEC2"},{"bufferView":47,"componentType":5123,"count":48,"type":"SCALAR"},{"bufferView":48,"componentType":5126,"count":364,"max":[0.7034913897514343,2.5548486709594727,0.29893577098846436],"min":[-0.7034929394721985,-0.008544921875,-0.24002820253372192],"type":"VEC3"},{"bufferView":49,"componentType":5126,"count":364,"type":"VEC3"},{"bufferView":50,"componentType":5126,"count":364,"type":"VEC2"},{"bufferView":51,"componentType":5123,"count":960,"type":"SCALAR"},{"bufferView":52,"componentType":5126,"count":64,"max":[1,0.009999990463256836,1],"min":[-1,-0.010000384412705898,-1],"type":"VEC3"},{"bufferView":53,"componentType":5126,"count":64,"type":"VEC3"},{"bufferView":54,"componentType":5126,"count":64,"type":"VEC2"},{"bufferView":55,"componentType":5123,"count":96,"type":"SCALAR"},{"bufferView":56,"componentType":5126,"count":48,"max":[4.448888778686523,1.600000023841858,-3.151111364364624],"min":[1.5511112213134766,0,-6.048888683319092],"type":"VEC3"},{"bufferView":57,"componentType":5126,"count":48,"type":"VEC3"},{"bufferView":58,"componentType":5126,"count":48,"type":"VEC2"},{"bufferView":59,"componentType":5123,"count":72,"type":"SCALAR"},{"bufferView":60,"componentType":5126,"count":96,"max":[4.545481204986572,2.5,-3.054518699645996],"min":[1.4545186758041382,1.5700000524520874,-6.145481109619141],"type":"VEC3"},{"bufferView":61,"componentType":5126,"count":96,"type":"VEC3"},{"bufferView":62,"componentType":5126,"count":96,"type":"VEC2"},{"bufferView":63,"componentType":5123,"count":144,"type":"SCALAR"},{"bufferView":64,"componentType":5126,"count":24,"max":[4.550000190734863,1.2000000476837158,-4.150000095367432],"min":[4,0.4000000059604645,-5.050000190734863],"type":"VEC3"},{"bufferView":65,"componentType":5126,"count":24,"type":"VEC3"},{"bufferView":66,"componentType":5126,"count":24,"type":"VEC2"},{"bufferView":67,"componentType":5126,"count":24,"max":[4.570000171661377,1,-4.300000190734863],"min":[4.019999980926514,0.5,-4.900000095367432],"type":"VEC3"},{"bufferView":68,"componentType":5126,"count":24,"type":"VEC3"},{"bufferView":69,"componentType":5126,"count":24,"type":"VEC2"},{"bufferView":70,"componentType":5126,"count":28,"max":[1.0000001192092896,0.13401801884174347,0.699999988079071],"min":[-1.0000001192092896,2.701569457030928e-08,0],"type":"VEC3"},{"bufferView":71,"componentType":5126,"count":28,"type":"VEC3"},{"bufferView":72,"componentType":5126,"count":28,"type":"VEC2"},{"bufferView":73,"componentType":5123,"count":48,"type":"SCALAR"},{"bufferView":74,"componentType":5126,"count":504,"max":[3.347877264022827,4.383981704711914,0.7941403388977051],"min":[-3.346518039703369,-0.13180209696292877,-0.33496367931365967],"type":"VEC3"},{"bufferView":75,"componentType":5126,"count":504,"type":"VEC3"},{"bufferView":76,"componentType":5126,"count":504,"type":"VEC2"},{"bufferView":77,"componentType":5123,"count":936,"type":"SCALAR"},{"bufferView":78,"componentType":5126,"count":20,"max":[3.1225504875183105,4.377229690551758,1.375610736431554e-11],"min":[-3.1225504875183105,0.019167041406035423,-0.24970144033432007],"type":"VEC3"},{"bufferView":79,"componentType":5126,"count":20,"type":"VEC3"},{"bufferView":80,"componentType":5126,"count":20,"type":"VEC2"},{"bufferView":81,"componentType":5123,"count":48,"type":"SCALAR"},{"bufferView":82,"componentType":5126,"count":1616,"max":[3.958951234817505,4.342607498168945,4.828753471374512],"min":[-3.958951234817505,-0.7821269035339355,-4.828753471374512],"type":"VEC3"},{"bufferView":83,"componentType":5126,"count":1616,"type":"VEC3"},{"bufferView":84,"componentType":5126,"count":1616,"type":"VEC2"},{"bufferView":85,"componentType":5123,"count":2616,"type":"SCALAR"},{"bufferView":86,"componentType":5126,"count":1540,"max":[4.124891757965088,4.890044689178467,4.8539862632751465],"min":[-4.124891757965088,-0.6384454965591431,-4.756110191345215],"type":"VEC3"},{"bufferView":87,"componentType":5126,"count":1540,"type":"VEC3"},{"bufferView":88,"componentType":5126,"count":1540,"type":"VEC2"},{"bufferView":89,"componentType":5123,"count":4215,"type":"SCALAR"},{"bufferView":90,"componentType":5126,"count":124,"max":[0.09985005855560303,0.06566542387008667,0.7651262283325195],"min":[-0.09984996169805527,-0.6772639155387878,-1.62676236925563e-08],"type":"VEC3"},{"bufferView":91,"componentType":5126,"count":124,"type":"VEC3"},{"bufferView":92,"componentType":5126,"count":124,"type":"VEC2"},{"bufferView":93,"componentType":5123,"count":252,"type":"SCALAR"},{"bufferView":94,"componentType":5126,"count":24,"max":[-2.830000162124634,4.179999828338623,1.7999999523162842],"min":[-2.9700000286102295,4.019999980926514,0.5],"type":"VEC3"},{"bufferView":95,"componentType":5126,"count":24,"type":"VEC3"},{"bufferView":96,"componentType":5126,"count":24,"type":"VEC2"},{"bufferView":97,"componentType":5126,"count":24,"max":[-2.8500001430511475,3.679999828338623,1.75],"min":[-2.950000047683716,2.8499999046325684,0.800000011920929],"type":"VEC3"},{"bufferView":98,"componentType":5126,"count":24,"type":"VEC3"},{"bufferView":99,"componentType":5126,"count":24,"type":"VEC2"},{"bufferView":100,"componentType":5126,"count":24,"max":[-2.884999990463257,4.019999980926514,0.9650000333786011],"min":[-2.9150002002716064,3.679999828338623,0.9350000023841858],"type":"VEC3"},{"bufferView":101,"componentType":5126,"count":24,"type":"VEC3"},{"bufferView":102,"componentType":5126,"count":24,"type":"VEC2"},{"bufferView":103,"componentType":5126,"count":24,"max":[-2.884999990463257,4.019999980926514,1.6150000095367432],"min":[-2.9150002002716064,3.679999828338623,1.5850000381469727],"type":"VEC3"},{"bufferView":104,"componentType":5126,"count":24,"type":"VEC3"},{"bufferView":105,"componentType":5126,"count":24,"type":"VEC2"},{"bufferView":106,"componentType":5126,"count":96,"max":[-2.8350000381469727,3.5199999809265137,1.5449999570846558],"min":[-2.9650001525878906,2.9800000190734863,1.0049999952316284],"type":"VEC3"},{"bufferView":107,"componentType":5126,"count":96,"type":"VEC3"},{"bufferView":108,"componentType":5126,"count":96,"type":"VEC2"},{"bufferView":109,"componentType":5123,"count":180,"type":"SCALAR"},{"bufferView":110,"componentType":5126,"count":24,"max":[-2.8400001525878906,3.6999998092651367,1.7799999713897705],"min":[-2.9600000381469727,3.619999885559082,0.7699999809265137],"type":"VEC3"},{"bufferView":111,"componentType":5126,"count":24,"type":"VEC3"},{"bufferView":112,"componentType":5126,"count":24,"type":"VEC2"},{"bufferView":113,"componentType":5126,"count":24,"max":[3.799999952316284,12.488177299499512,-5.199999809265137],"min":[2.799999952316284,0,-6.199999809265137],"type":"VEC3"},{"bufferView":114,"componentType":5126,"count":24,"type":"VEC3"},{"bufferView":115,"componentType":5126,"count":24,"type":"VEC2"},{"bufferView":116,"componentType":5126,"count":24,"max":[3.9000000953674316,12.688177108764648,-5.099999904632568],"min":[2.700000047683716,12.488177299499512,-6.300000190734863],"type":"VEC3"},{"bufferView":117,"componentType":5126,"count":24,"type":"VEC3"},{"bufferView":118,"componentType":5126,"count":24,"type":"VEC2"},{"bufferView":119,"componentType":5126,"count":124,"max":[1,3.1226887702941895,0.0924467146396637],"min":[-1.0000001192092896,0.6495776176452637,-0.3140353262424469],"type":"VEC3"},{"bufferView":120,"componentType":5126,"count":124,"type":"VEC3"},{"bufferView":121,"componentType":5126,"count":124,"type":"VEC2"},{"bufferView":122,"componentType":5123,"count":204,"type":"SCALAR"},{"bufferView":123,"componentType":5126,"count":69,"max":[1,3,1.3113417196564114e-07],"min":[-1,0,-0.2000000923871994],"type":"VEC3"},{"bufferView":124,"componentType":5126,"count":69,"type":"VEC3"},{"bufferView":125,"componentType":5126,"count":69,"type":"VEC2"},{"bufferView":126,"componentType":5123,"count":195,"type":"SCALAR"},{"bufferView":127,"componentType":5126,"count":8,"max":[1,0.9100615382194519,4.3711395392165286e-08],"min":[-1,0,0],"type":"VEC3"},{"bufferView":128,"componentType":5126,"count":8,"type":"VEC3"},{"bufferView":129,"componentType":5126,"count":8,"type":"VEC2"},{"bufferView":130,"componentType":5123,"count":12,"type":"SCALAR"},{"bufferView":131,"componentType":5126,"count":126,"max":[1,3.1226887702941895,0.0924467146396637],"min":[-1.0000001192092896,-0.0020958781242370605,-0.3140353262424469],"type":"VEC3"},{"bufferView":132,"componentType":5126,"count":126,"type":"VEC3"},{"bufferView":133,"componentType":5126,"count":126,"type":"VEC2"},{"bufferView":134,"componentType":5123,"count":240,"type":"SCALAR"},{"bufferView":135,"componentType":5126,"count":12,"max":[1,3,1.3113415775478643e-07],"min":[-1,0,-0.2000000923871994],"type":"VEC3"},{"bufferView":136,"componentType":5126,"count":12,"type":"VEC3"},{"bufferView":137,"componentType":5126,"count":12,"type":"VEC2"},{"bufferView":138,"componentType":5123,"count":18,"type":"SCALAR"},{"bufferView":139,"componentType":5126,"count":126,"max":[1,3.1226887702941895,0.0924467146396637],"min":[-1.0000001192092896,-0.0020958781242370605,-0.3140353262424469],"type":"VEC3"},{"bufferView":140,"componentType":5126,"count":126,"type":"VEC3"},{"bufferView":141,"componentType":5126,"count":126,"type":"VEC2"},{"bufferView":142,"componentType":5126,"count":12,"max":[1,3,1.3113415775478643e-07],"min":[-1,0,-0.2000000923871994],"type":"VEC3"},{"bufferView":143,"componentType":5126,"count":12,"type":"VEC3"},{"bufferView":144,"componentType":5126,"count":12,"type":"VEC2"},{"bufferView":145,"componentType":5126,"count":80,"max":[1,3.1226887702941895,0.0924467146396637],"min":[-1.0000001192092896,0.6495776176452637,-0.3140353262424469],"type":"VEC3"},{"bufferView":146,"componentType":5126,"count":80,"type":"VEC3"},{"bufferView":147,"componentType":5126,"count":80,"type":"VEC2"},{"bufferView":148,"componentType":5123,"count":174,"type":"SCALAR"},{"bufferView":149,"componentType":5126,"count":8,"max":[1,3,1.3113415775478643e-07],"min":[-1,0,-0.2000000923871994],"type":"VEC3"},{"bufferView":150,"componentType":5126,"count":8,"type":"VEC3"},{"bufferView":151,"componentType":5126,"count":8,"type":"VEC2"},{"bufferView":152,"componentType":5123,"count":12,"type":"SCALAR"},{"bufferView":153,"componentType":5126,"count":4,"max":[1,0.8799999952316284,4.371138828673793e-08],"min":[-1,0,0],"type":"VEC3"},{"bufferView":154,"componentType":5126,"count":4,"type":"VEC3"},{"bufferView":155,"componentType":5126,"count":4,"type":"VEC2"},{"bufferView":156,"componentType":5123,"count":6,"type":"SCALAR"},{"bufferView":157,"componentType":5126,"count":88,"max":[1,3,1.3113415775478643e-07],"min":[-1,0,-0.2000000923871994],"type":"VEC3"},{"bufferView":158,"componentType":5126,"count":88,"type":"VEC3"},{"bufferView":159,"componentType":5126,"count":88,"type":"VEC2"},{"bufferView":160,"componentType":5123,"count":264,"type":"SCALAR"},{"bufferView":161,"componentType":5126,"count":22,"max":[1,0.8799999952316284,4.371138828673793e-08],"min":[-1,0,0],"type":"VEC3"},{"bufferView":162,"componentType":5126,"count":22,"type":"VEC3"},{"bufferView":163,"componentType":5126,"count":22,"type":"VEC2"},{"bufferView":164,"componentType":5123,"count":60,"type":"SCALAR"},{"bufferView":165,"componentType":5126,"count":104,"max":[1,3.1226887702941895,0.0924467146396637],"min":[-1.0000001192092896,0.6495776176452637,-0.3140353262424469],"type":"VEC3"},{"bufferView":166,"componentType":5126,"count":104,"type":"VEC3"},{"bufferView":167,"componentType":5126,"count":104,"type":"VEC2"},{"bufferView":168,"componentType":5123,"count":174,"type":"SCALAR"},{"bufferView":169,"componentType":5126,"count":134,"max":[1,3.1226887702941895,0.0924467146396637],"min":[-1.0000001192092896,-0.023045778274536133,-0.3140353262424469],"type":"VEC3"},{"bufferView":170,"componentType":5126,"count":134,"type":"VEC3"},{"bufferView":171,"componentType":5126,"count":134,"type":"VEC2"},{"bufferView":172,"componentType":5123,"count":252,"type":"SCALAR"},{"bufferView":173,"componentType":5126,"count":40,"max":[1,3,1.3113415775478643e-07],"min":[-1,0,-0.2000000923871994],"type":"VEC3"},{"bufferView":174,"componentType":5126,"count":40,"type":"VEC3"},{"bufferView":175,"componentType":5126,"count":40,"type":"VEC2"},{"bufferView":176,"componentType":5123,"count":114,"type":"SCALAR"},{"bufferView":177,"componentType":5126,"count":32,"max":[1,3,1.3113417196564114e-07],"min":[-1,0,-0.2000000923871994],"type":"VEC3"},{"bufferView":178,"componentType":5126,"count":32,"type":"VEC3"},{"bufferView":179,"componentType":5126,"count":32,"type":"VEC2"},{"bufferView":180,"componentType":5123,"count":96,"type":"SCALAR"},{"bufferView":181,"componentType":5126,"count":8,"max":[1,0.8799999952316284,4.371138828673793e-08],"min":[-1,0,0],"type":"VEC3"},{"bufferView":182,"componentType":5126,"count":8,"type":"VEC3"},{"bufferView":183,"componentType":5126,"count":8,"type":"VEC2"},{"bufferView":184,"componentType":5123,"count":18,"type":"SCALAR"},{"bufferView":185,"componentType":5126,"count":80,"max":[1,3.1226887702941895,0.0924467146396637],"min":[-1.0000001192092896,0.6495776176452637,-0.3140353262424469],"type":"VEC3"},{"bufferView":186,"componentType":5126,"count":80,"type":"VEC3"},{"bufferView":187,"componentType":5126,"count":80,"type":"VEC2"},{"bufferView":188,"componentType":5126,"count":32,"max":[1,3,1.3113417196564114e-07],"min":[-1,0,-0.2000000923871994],"type":"VEC3"},{"bufferView":189,"componentType":5126,"count":32,"type":"VEC3"},{"bufferView":190,"componentType":5126,"count":32,"type":"VEC2"},{"bufferView":191,"componentType":5126,"count":8,"max":[1,0.8799999952316284,4.371138828673793e-08],"min":[-1,0,0],"type":"VEC3"},{"bufferView":192,"componentType":5126,"count":8,"type":"VEC3"},{"bufferView":193,"componentType":5126,"count":8,"type":"VEC2"},{"bufferView":194,"componentType":5126,"count":80,"max":[1,3.1226887702941895,0.0924467146396637],"min":[-1.0000001192092896,0.6495776176452637,-0.3140353262424469],"type":"VEC3"},{"bufferView":195,"componentType":5126,"count":80,"type":"VEC3"},{"bufferView":196,"componentType":5126,"count":80,"type":"VEC2"},{"bufferView":197,"componentType":5126,"count":389,"max":[1.000000238418579,3.1226887702941895,0.0924467146396637],"min":[-1.000000238418579,0.6495776176452637,-0.3140353262424469],"type":"VEC3"},{"bufferView":198,"componentType":5126,"count":389,"type":"VEC3"},{"bufferView":199,"componentType":5126,"count":389,"type":"VEC2"},{"bufferView":200,"componentType":5123,"count":732,"type":"SCALAR"},{"bufferView":201,"componentType":5126,"count":8,"max":[1,0.8360880613327026,5.960464477539063e-08],"min":[-1,0,-0.2000001072883606],"type":"VEC3"},{"bufferView":202,"componentType":5126,"count":8,"type":"VEC3"},{"bufferView":203,"componentType":5126,"count":8,"type":"VEC2"},{"bufferView":204,"componentType":5123,"count":12,"type":"SCALAR"},{"bufferView":205,"componentType":5126,"count":402,"max":[0.44381028413772583,2.6207287311553955,0.0923665463924408],"min":[-0.44381028413772583,1.01604425907135,-0.2520223557949066],"type":"VEC3"},{"bufferView":206,"componentType":5126,"count":402,"type":"VEC3"},{"bufferView":207,"componentType":5126,"count":402,"type":"VEC2"},{"bufferView":208,"componentType":5123,"count":786,"type":"SCALAR"},{"bufferView":209,"componentType":5126,"count":83,"max":[0.277061402797699,2.478931427001953,0.003888234496116638],"min":[-0.27893951535224915,1.0875728130340576,0.0038879886269569397],"type":"VEC3"},{"bufferView":210,"componentType":5126,"count":83,"type":"VEC3"},{"bufferView":211,"componentType":5126,"count":83,"type":"VEC2"},{"bufferView":212,"componentType":5123,"count":153,"type":"SCALAR"},{"bufferView":213,"componentType":5126,"count":272,"max":[0.8041172027587891,2.5242888927459717,0.4168574810028076],"min":[-0.8041191101074219,0.94417804479599,-0.26658084988594055],"type":"VEC3"},{"bufferView":214,"componentType":5126,"count":272,"type":"VEC3"},{"bufferView":215,"componentType":5126,"count":272,"type":"VEC2"},{"bufferView":216,"componentType":5123,"count":408,"type":"SCALAR"},{"bufferView":217,"componentType":5126,"count":45,"max":[0.5054702758789062,2.355356216430664,0.003888234496116638],"min":[-0.5054721832275391,1.0971393585205078,0.0038878247141838074],"type":"VEC3"},{"bufferView":218,"componentType":5126,"count":45,"type":"VEC3"},{"bufferView":219,"componentType":5126,"count":45,"type":"VEC2"},{"bufferView":220,"componentType":5123,"count":72,"type":"SCALAR"},{"bufferView":221,"componentType":5126,"count":240,"max":[1.2418603897094727,2.51727557182312,0.5931743383407593],"min":[-1.2387090921401978,1.0932440757751465,0.13665564358234406],"type":"VEC3"},{"bufferView":222,"componentType":5126,"count":240,"type":"VEC3"},{"bufferView":223,"componentType":5126,"count":240,"type":"VEC2"},{"bufferView":224,"componentType":5123,"count":360,"type":"SCALAR"}],"asset":{"generator":"Khronos glTF Blender I/O v5.2.40","version":"2.0"},"bufferViews":[{"buffer":0,"byteLength":192,"byteOffset":0,"target":34962},{"buffer":0,"byteLength":192,"byteOffset":192,"target":34962},{"buffer":0,"byteLength":128,"byteOffset":384,"target":34962},{"buffer":0,"byteLength":48,"byteOffset":512,"target":34963},{"buffer":0,"byteLength":192,"byteOffset":560,"target":34962},{"buffer":0,"byteLength":192,"byteOffset":752,"target":34962},{"buffer":0,"byteLength":128,"byteOffset":944,"target":34962},{"buffer":0,"byteLength":192,"byteOffset":1072,"target":34962},{"buffer":0,"byteLength":192,"byteOffset":1264,"target":34962},{"buffer":0,"byteLength":128,"byteOffset":1456,"target":34962},{"buffer":0,"byteLength":192,"byteOffset":1584,"target":34962},{"buffer":0,"byteLength":192,"byteOffset":1776,"target":34962},{"buffer":0,"byteLength":128,"byteOffset":1968,"target":34962},{"buffer":0,"byteLength":48,"byteOffset":2096,"target":34962},{"buffer":0,"byteLength":48,"byteOffset":2144,"target":34962},{"buffer":0,"byteLength":32,"byteOffset":2192,"target":34962},{"buffer":0,"byteLength":12,"byteOffset":2224,"target":34963},{"buffer":0,"byteLength":48,"byteOffset":2236,"target":34962},{"buffer":0,"byteLength":48,"byteOffset":2284,"target":34962},{"buffer":0,"byteLength":32,"byteOffset":2332,"target":34962},{"buffer":0,"byteLength":48,"byteOffset":2364,"target":34962},{"buffer":0,"byteLength":48,"byteOffset":2412,"target":34962},{"buffer":0,"byteLength":32,"byteOffset":2460,"target":34962},{"buffer":0,"byteLength":48,"byteOffset":2492,"target":34962},{"buffer":0,"byteLength":48,"byteOffset":2540,"target":34962},{"buffer":0,"byteLength":32,"byteOffset":2588,"target":34962},{"buffer":0,"byteLength":288,"byteOffset":2620,"target":34962},{"buffer":0,"byteLength":288,"byteOffset":2908,"target":34962},{"buffer":0,"byteLength":192,"byteOffset":3196,"target":34962},{"buffer":0,"byteLength":72,"byteOffset":3388,"target":34963},{"buffer":0,"byteLength":288,"byteOffset":3460,"target":34962},{"buffer":0,"byteLength":288,"byteOffset":3748,"target":34962},{"buffer":0,"byteLength":192,"byteOffset":4036,"target":34962},{"buffer":0,"byteLength":288,"byteOffset":4228,"target":34962},{"buffer":0,"byteLength":288,"byteOffset":4516,"target":34962},{"buffer":0,"byteLength":192,"byteOffset":4804,"target":34962},{"buffer":0,"byteLength":288,"byteOffset":4996,"target":34962},{"buffer":0,"byteLength":288,"byteOffset":5284,"target":34962},{"buffer":0,"byteLength":192,"byteOffset":5572,"target":34962},{"buffer":0,"byteLength":72,"byteOffset":5764,"target":34963},{"buffer":0,"byteLength":8928,"byteOffset":5836,"target":34962},{"buffer":0,"byteLength":8928,"byteOffset":14764,"target":34962},{"buffer":0,"byteLength":5952,"byteOffset":23692,"target":34962},{"buffer":0,"byteLength":2724,"byteOffset":29644,"target":34963},{"buffer":0,"byteLength":336,"byteOffset":32368,"target":34962},{"buffer":0,"byteLength":336,"byteOffset":32704,"target":34962},{"buffer":0,"byteLength":224,"byteOffset":33040,"target":34962},{"buffer":0,"byteLength":96,"byteOffset":33264,"target":34963},{"buffer":0,"byteLength":4368,"byteOffset":33360,"target":34962},{"buffer":0,"byteLength":4368,"byteOffset":37728,"target":34962},{"buffer":0,"byteLength":2912,"byteOffset":42096,"target":34962},{"buffer":0,"byteLength":1920,"byteOffset":45008,"target":34963},{"buffer":0,"byteLength":768,"byteOffset":46928,"target":34962},{"buffer":0,"byteLength":768,"byteOffset":47696,"target":34962},{"buffer":0,"byteLength":512,"byteOffset":48464,"target":34962},{"buffer":0,"byteLength":192,"byteOffset":48976,"target":34963},{"buffer":0,"byteLength":576,"byteOffset":49168,"target":34962},{"buffer":0,"byteLength":576,"byteOffset":49744,"target":34962},{"buffer":0,"byteLength":384,"byteOffset":50320,"target":34962},{"buffer":0,"byteLength":144,"byteOffset":50704,"target":34963},{"buffer":0,"byteLength":1152,"byteOffset":50848,"target":34962},{"buffer":0,"byteLength":1152,"byteOffset":52000,"target":34962},{"buffer":0,"byteLength":768,"byteOffset":53152,"target":34962},{"buffer":0,"byteLength":288,"byteOffset":53920,"target":34963},{"buffer":0,"byteLength":288,"byteOffset":54208,"target":34962},{"buffer":0,"byteLength":288,"byteOffset":54496,"target":34962},{"buffer":0,"byteLength":192,"byteOffset":54784,"target":34962},{"buffer":0,"byteLength":288,"byteOffset":54976,"target":34962},{"buffer":0,"byteLength":288,"byteOffset":55264,"target":34962},{"buffer":0,"byteLength":192,"byteOffset":55552,"target":34962},{"buffer":0,"byteLength":336,"byteOffset":55744,"target":34962},{"buffer":0,"byteLength":336,"byteOffset":56080,"target":34962},{"buffer":0,"byteLength":224,"byteOffset":56416,"target":34962},{"buffer":0,"byteLength":96,"byteOffset":56640,"target":34963},{"buffer":0,"byteLength":6048,"byteOffset":56736,"target":34962},{"buffer":0,"byteLength":6048,"byteOffset":62784,"target":34962},{"buffer":0,"byteLength":4032,"byteOffset":68832,"target":34962},{"buffer":0,"byteLength":1872,"byteOffset":72864,"target":34963},{"buffer":0,"byteLength":240,"byteOffset":74736,"target":34962},{"buffer":0,"byteLength":240,"byteOffset":74976,"target":34962},{"buffer":0,"byteLength":160,"byteOffset":75216,"target":34962},{"buffer":0,"byteLength":96,"byteOffset":75376,"target":34963},{"buffer":0,"byteLength":19392,"byteOffset":75472,"target":34962},{"buffer":0,"byteLength":19392,"byteOffset":94864,"target":34962},{"buffer":0,"byteLength":12928,"byteOffset":114256,"target":34962},{"buffer":0,"byteLength":5232,"byteOffset":127184,"target":34963},{"buffer":0,"byteLength":18480,"byteOffset":132416,"target":34962},{"buffer":0,"byteLength":18480,"byteOffset":150896,"target":34962},{"buffer":0,"byteLength":12320,"byteOffset":169376,"target":34962},{"buffer":0,"byteLength":8430,"byteOffset":181696,"target":34963},{"buffer":0,"byteLength":1488,"byteOffset":190128,"target":34962},{"buffer":0,"byteLength":1488,"byteOffset":191616,"target":34962},{"buffer":0,"byteLength":992,"byteOffset":193104,"target":34962},{"buffer":0,"byteLength":504,"byteOffset":194096,"target":34963},{"buffer":0,"byteLength":288,"byteOffset":194600,"target":34962},{"buffer":0,"byteLength":288,"byteOffset":194888,"target":34962},{"buffer":0,"byteLength":192,"byteOffset":195176,"target":34962},{"buffer":0,"byteLength":288,"byteOffset":195368,"target":34962},{"buffer":0,"byteLength":288,"byteOffset":195656,"target":34962},{"buffer":0,"byteLength":192,"byteOffset":195944,"target":34962},{"buffer":0,"byteLength":288,"byteOffset":196136,"target":34962},{"buffer":0,"byteLength":288,"byteOffset":196424,"target":34962},{"buffer":0,"byteLength":192,"byteOffset":196712,"target":34962},{"buffer":0,"byteLength":288,"byteOffset":196904,"target":34962},{"buffer":0,"byteLength":288,"byteOffset":197192,"target":34962},{"buffer":0,"byteLength":192,"byteOffset":197480,"target":34962},{"buffer":0,"byteLength":1152,"byteOffset":197672,"target":34962},{"buffer":0,"byteLength":1152,"byteOffset":198824,"target":34962},{"buffer":0,"byteLength":768,"byteOffset":199976,"target":34962},{"buffer":0,"byteLength":360,"byteOffset":200744,"target":34963},{"buffer":0,"byteLength":288,"byteOffset":201104,"target":34962},{"buffer":0,"byteLength":288,"byteOffset":201392,"target":34962},{"buffer":0,"byteLength":192,"byteOffset":201680,"target":34962},{"buffer":0,"byteLength":288,"byteOffset":201872,"target":34962},{"buffer":0,"byteLength":288,"byteOffset":202160,"target":34962},{"buffer":0,"byteLength":192,"byteOffset":202448,"target":34962},{"buffer":0,"byteLength":288,"byteOffset":202640,"target":34962},{"buffer":0,"byteLength":288,"byteOffset":202928,"target":34962},{"buffer":0,"byteLength":192,"byteOffset":203216,"target":34962},{"buffer":0,"byteLength":1488,"byteOffset":203408,"target":34962},{"buffer":0,"byteLength":1488,"byteOffset":204896,"target":34962},{"buffer":0,"byteLength":992,"byteOffset":206384,"target":34962},{"buffer":0,"byteLength":408,"byteOffset":207376,"target":34963},{"buffer":0,"byteLength":828,"byteOffset":207784,"target":34962},{"buffer":0,"byteLength":828,"byteOffset":208612,"target":34962},{"buffer":0,"byteLength":552,"byteOffset":209440,"target":34962},{"buffer":0,"byteLength":390,"byteOffset":209992,"target":34963},{"buffer":0,"byteLength":96,"byteOffset":210384,"target":34962},{"buffer":0,"byteLength":96,"byteOffset":210480,"target":34962},{"buffer":0,"byteLength":64,"byteOffset":210576,"target":34962},{"buffer":0,"byteLength":24,"byteOffset":210640,"target":34963},{"buffer":0,"byteLength":1512,"byteOffset":210664,"target":34962},{"buffer":0,"byteLength":1512,"byteOffset":212176,"target":34962},{"buffer":0,"byteLength":1008,"byteOffset":213688,"target":34962},{"buffer":0,"byteLength":480,"byteOffset":214696,"target":34963},{"buffer":0,"byteLength":144,"byteOffset":215176,"target":34962},{"buffer":0,"byteLength":144,"byteOffset":215320,"target":34962},{"buffer":0,"byteLength":96,"byteOffset":215464,"target":34962},{"buffer":0,"byteLength":36,"byteOffset":215560,"target":34963},{"buffer":0,"byteLength":1512,"byteOffset":215596,"target":34962},{"buffer":0,"byteLength":1512,"byteOffset":217108,"target":34962},{"buffer":0,"byteLength":1008,"byteOffset":218620,"target":34962},{"buffer":0,"byteLength":144,"byteOffset":219628,"target":34962},{"buffer":0,"byteLength":144,"byteOffset":219772,"target":34962},{"buffer":0,"byteLength":96,"byteOffset":219916,"target":34962},{"buffer":0,"byteLength":960,"byteOffset":220012,"target":34962},{"buffer":0,"byteLength":960,"byteOffset":220972,"target":34962},{"buffer":0,"byteLength":640,"byteOffset":221932,"target":34962},{"buffer":0,"byteLength":348,"byteOffset":222572,"target":34963},{"buffer":0,"byteLength":96,"byteOffset":222920,"target":34962},{"buffer":0,"byteLength":96,"byteOffset":223016,"target":34962},{"buffer":0,"byteLength":64,"byteOffset":223112,"target":34962},{"buffer":0,"byteLength":24,"byteOffset":223176,"target":34963},{"buffer":0,"byteLength":48,"byteOffset":223200,"target":34962},{"buffer":0,"byteLength":48,"byteOffset":223248,"target":34962},{"buffer":0,"byteLength":32,"byteOffset":223296,"target":34962},{"buffer":0,"byteLength":12,"byteOffset":223328,"target":34963},{"buffer":0,"byteLength":1056,"byteOffset":223340,"target":34962},{"buffer":0,"byteLength":1056,"byteOffset":224396,"target":34962},{"buffer":0,"byteLength":704,"byteOffset":225452,"target":34962},{"buffer":0,"byteLength":528,"byteOffset":226156,"target":34963},{"buffer":0,"byteLength":264,"byteOffset":226684,"target":34962},{"buffer":0,"byteLength":264,"byteOffset":226948,"target":34962},{"buffer":0,"byteLength":176,"byteOffset":227212,"target":34962},{"buffer":0,"byteLength":120,"byteOffset":227388,"target":34963},{"buffer":0,"byteLength":1248,"byteOffset":227508,"target":34962},{"buffer":0,"byteLength":1248,"byteOffset":228756,"target":34962},{"buffer":0,"byteLength":832,"byteOffset":230004,"target":34962},{"buffer":0,"byteLength":348,"byteOffset":230836,"target":34963},{"buffer":0,"byteLength":1608,"byteOffset":231184,"target":34962},{"buffer":0,"byteLength":1608,"byteOffset":232792,"target":34962},{"buffer":0,"byteLength":1072,"byteOffset":234400,"target":34962},{"buffer":0,"byteLength":504,"byteOffset":235472,"target":34963},{"buffer":0,"byteLength":480,"byteOffset":235976,"target":34962},{"buffer":0,"byteLength":480,"byteOffset":236456,"target":34962},{"buffer":0,"byteLength":320,"byteOffset":236936,"target":34962},{"buffer":0,"byteLength":228,"byteOffset":237256,"target":34963},{"buffer":0,"byteLength":384,"byteOffset":237484,"target":34962},{"buffer":0,"byteLength":384,"byteOffset":237868,"target":34962},{"buffer":0,"byteLength":256,"byteOffset":238252,"target":34962},{"buffer":0,"byteLength":192,"byteOffset":238508,"target":34963},{"buffer":0,"byteLength":96,"byteOffset":238700,"target":34962},{"buffer":0,"byteLength":96,"byteOffset":238796,"target":34962},{"buffer":0,"byteLength":64,"byteOffset":238892,"target":34962},{"buffer":0,"byteLength":36,"byteOffset":238956,"target":34963},{"buffer":0,"byteLength":960,"byteOffset":238992,"target":34962},{"buffer":0,"byteLength":960,"byteOffset":239952,"target":34962},{"buffer":0,"byteLength":640,"byteOffset":240912,"target":34962},{"buffer":0,"byteLength":384,"byteOffset":241552,"target":34962},{"buffer":0,"byteLength":384,"byteOffset":241936,"target":34962},{"buffer":0,"byteLength":256,"byteOffset":242320,"target":34962},{"buffer":0,"byteLength":96,"byteOffset":242576,"target":34962},{"buffer":0,"byteLength":96,"byteOffset":242672,"target":34962},{"buffer":0,"byteLength":64,"byteOffset":242768,"target":34962},{"buffer":0,"byteLength":960,"byteOffset":242832,"target":34962},{"buffer":0,"byteLength":960,"byteOffset":243792,"target":34962},{"buffer":0,"byteLength":640,"byteOffset":244752,"target":34962},{"buffer":0,"byteLength":4668,"byteOffset":245392,"target":34962},{"buffer":0,"byteLength":4668,"byteOffset":250060,"target":34962},{"buffer":0,"byteLength":3112,"byteOffset":254728,"target":34962},{"buffer":0,"byteLength":1464,"byteOffset":257840,"target":34963},{"buffer":0,"byteLength":96,"byteOffset":259304,"target":34962},{"buffer":0,"byteLength":96,"byteOffset":259400,"target":34962},{"buffer":0,"byteLength":64,"byteOffset":259496,"target":34962},{"buffer":0,"byteLength":24,"byteOffset":259560,"target":34963},{"buffer":0,"byteLength":4824,"byteOffset":259584,"target":34962},{"buffer":0,"byteLength":4824,"byteOffset":264408,"target":34962},{"buffer":0,"byteLength":3216,"byteOffset":269232,"target":34962},{"buffer":0,"byteLength":1572,"byteOffset":272448,"target":34963},{"buffer":0,"byteLength":996,"byteOffset":274020,"target":34962},{"buffer":0,"byteLength":996,"byteOffset":275016,"target":34962},{"buffer":0,"byteLength":664,"byteOffset":276012,"target":34962},{"buffer":0,"byteLength":306,"byteOffset":276676,"target":34963},{"buffer":0,"byteLength":3264,"byteOffset":276984,"target":34962},{"buffer":0,"byteLength":3264,"byteOffset":280248,"target":34962},{"buffer":0,"byteLength":2176,"byteOffset":283512,"target":34962},{"buffer":0,"byteLength":816,"byteOffset":285688,"target":34963},{"buffer":0,"byteLength":540,"byteOffset":286504,"target":34962},{"buffer":0,"byteLength":540,"byteOffset":287044,"target":34962},{"buffer":0,"byteLength":360,"byteOffset":287584,"target":34962},{"buffer":0,"byteLength":144,"byteOffset":287944,"target":34963},{"buffer":0,"byteLength":2880,"byteOffset":288088,"target":34962},{"buffer":0,"byteLength":2880,"byteOffset":290968,"target":34962},{"buffer":0,"byteLength":1920,"byteOffset":293848,"target":34962},{"buffer":0,"byteLength":720,"byteOffset":295768,"target":34963}],"buffers":[{"byteLength":296488,"uri":"bakery.bin"}],"images":[{"name":"T_Brick_BaseColor","uri":"../village/T_Brick_BaseColor.png"},{"name":"T_Plaster_Luma","uri":"../village/T_Plaster_Luma.png"},{"name":"T_RockTrim_BaseColor","uri":"../village/T_RockTrim_BaseColor.png"},{"name":"T_RoundTiles_BaseColor","uri":"../village/T_RoundTiles_BaseColor.png"},{"name":"T_WoodTrim_BaseColor","uri":"../village/T_WoodTrim_BaseColor.png"}],"materials":[{"doubleSided":true,"name":"Cloth","pbrMetallicRoughness":{"baseColorFactor":[0.34239163994789124,0.03310476616024971,0.021980946883559227,1],"metallicFactor":0,"roughnessFactor":0.8999999761581421}},{"doubleSided":true,"name":"Cloth2","pbrMetallicRoughness":{"baseColorFactor":[0.7484140992164612,0.6382831931114197,0.4200332760810852,1],"metallicFactor":0,"roughnessFactor":0.8999999761581421}},{"doubleSided":true,"name":"Iron","pbrMetallicRoughness":{"baseColorFactor":[0.0134117491543293,0.0134117491543293,0.015325203537940979,1],"metallicFactor":0,"roughnessFactor":0.5}},{"doubleSided":true,"name":"Wood_mid","pbrMetallicRoughness":{"baseColorFactor":[0.5179,0.5489,0.5787,1.0],"baseColorTexture":{"index":4},"metallicFactor":0,"roughnessFactor":0.8500000238418579}},{"doubleSided":true,"name":"Glass","pbrMetallicRoughness":{"baseColorFactor":[0.03310476616024971,0.05087608844041824,0.07828831672668457,1],"metallicFactor":0,"roughnessFactor":0.20000000298023224}},{"doubleSided":true,"name":"Brick","pbrMetallicRoughness":{"baseColorFactor":[1.0,0.9974,1.0,1.0],"baseColorTexture":{"index":0},"metallicFactor":0,"roughnessFactor":0.8500000238418579}},{"doubleSided":true,"emissiveFactor":[1,0.13286831974983215,0.010022825561463833],"name":"Coals","pbrMetallicRoughness":{"baseColorFactor":[1,0.17064493894577026,0.0134117491543293,1],"metallicFactor":0,"roughnessFactor":0.8500000238418579}},{"doubleSided":true,"name":"RockTrim","pbrMetallicRoughness":{"baseColorFactor":[1.0,0.9979,1.0,1.0],"baseColorTexture":{"index":2},"metallicFactor":0,"roughnessFactor":0.8500000238418579}},{"doubleSided":true,"name":"Plaster_butter","pbrMetallicRoughness":{"baseColorFactor":[1.0,0.8583,0.3304,1.0],"baseColorTexture":{"index":1},"metallicFactor":0,"roughnessFactor":0.8500000238418579}},{"doubleSided":true,"name":"Tiles_red","pbrMetallicRoughness":{"baseColorFactor":[1.0,0.9965,0.9971,1.0],"baseColorTexture":{"index":3},"metallicFactor":0,"roughnessFactor":0.699999988079071}},{"doubleSided":true,"name":"SignPaint","pbrMetallicRoughness":{"baseColorFactor":[0.6038273572921753,0.34239163994789124,0.03310476616024971,1],"metallicFactor":0,"roughnessFactor":0.6000000238418579}}],"meshes":[{"name":"Awning","primitives":[{"attributes":{"NORMAL":1,"POSITION":0,"TEXCOORD_0":2},"indices":3,"material":0}]},{"name":"Awning.001","primitives":[{"attributes":{"NORMAL":5,"POSITION":4,"TEXCOORD_0":6},"indices":3,"material":1}]},{"name":"Awning.002","primitives":[{"attributes":{"NORMAL":8,"POSITION":7,"TEXCOORD_0":9},"indices":3,"material":0}]},{"name":"Awning.003","primitives":[{"attributes":{"NORMAL":11,"POSITION":10,"TEXCOORD_0":12},"indices":3,"material":1}]},{"name":"AwningArm","primitives":[{"attributes":{"NORMAL":14,"POSITION":13,"TEXCOORD_0":15},"indices":16,"material":2}]},{"name":"AwningArm.001","primitives":[{"attributes":{"NORMAL":18,"POSITION":17,"TEXCOORD_0":19},"indices":16,"material":2}]},{"name":"AwningArm.002","primitives":[{"attributes":{"NORMAL":21,"POSITION":20,"TEXCOORD_0":22},"indices":16,"material":2}]},{"name":"AwningArm.003","primitives":[{"attributes":{"NORMAL":24,"POSITION":23,"TEXCOORD_0":25},"indices":16,"material":2}]},{"name":"AwningRod","primitives":[{"attributes":{"NORMAL":27,"POSITION":26,"TEXCOORD_0":28},"indices":29,"material":2}]},{"name":"AwningRod.001","primitives":[{"attributes":{"NORMAL":31,"POSITION":30,"TEXCOORD_0":32},"indices":29,"material":2}]},{"name":"Beam","primitives":[{"attributes":{"NORMAL":34,"POSITION":33,"TEXCOORD_0":35},"indices":29,"material":3}]},{"name":"kit_Corner_Exterior_Wood","primitives":[{"attributes":{"NORMAL":37,"POSITION":36,"TEXCOORD_0":38},"indices":39,"material":3}]},{"name":"kit_Door_1_Round","primitives":[{"attributes":{"NORMAL":41,"POSITION":40,"TEXCOORD_0":42},"indices":43,"material":3},{"attributes":{"NORMAL":45,"POSITION":44,"TEXCOORD_0":46},"indices":47,"material":4}]},{"name":"kit_DoorFrame_Round_WoodDark","primitives":[{"attributes":{"NORMAL":49,"POSITION":48,"TEXCOORD_0":50},"indices":51,"material":3}]},{"name":"kit_Floor_WoodDark","primitives":[{"attributes":{"NORMAL":53,"POSITION":52,"TEXCOORD_0":54},"indices":55,"material":3}]},{"name":"Oven","primitives":[{"attributes":{"NORMAL":57,"POSITION":56,"TEXCOORD_0":58},"indices":59,"material":5}]},{"name":"OvenDome","primitives":[{"attributes":{"NORMAL":61,"POSITION":60,"TEXCOORD_0":62},"indices":63,"material":5}]},{"name":"OvenDoor","primitives":[{"attributes":{"NORMAL":65,"POSITION":64,"TEXCOORD_0":66},"indices":29,"material":2}]},{"name":"OvenGlow","primitives":[{"attributes":{"NORMAL":68,"POSITION":67,"TEXCOORD_0":69},"indices":29,"material":6}]},{"name":"kit_Prop_ExteriorBorder_Straight1","primitives":[{"attributes":{"NORMAL":71,"POSITION":70,"TEXCOORD_0":72},"indices":73,"material":7}]},{"name":"kit_Roof_Front_Brick6","primitives":[{"attributes":{"NORMAL":75,"POSITION":74,"TEXCOORD_0":76},"indices":77,"material":3},{"attributes":{"NORMAL":79,"POSITION":78,"TEXCOORD_0":80},"indices":81,"material":8}]},{"name":"kit_Roof_RoundTiles_6x8.001","primitives":[{"attributes":{"NORMAL":83,"POSITION":82,"TEXCOORD_0":84},"indices":85,"material":3},{"attributes":{"NORMAL":87,"POSITION":86,"TEXCOORD_0":88},"indices":89,"material":9}]},{"name":"kit_Roof_Support2","primitives":[{"attributes":{"NORMAL":91,"POSITION":90,"TEXCOORD_0":92},"indices":93,"material":3}]},{"name":"SignArm","primitives":[{"attributes":{"NORMAL":95,"POSITION":94,"TEXCOORD_0":96},"indices":29,"material":3}]},{"name":"SignBoard","primitives":[{"attributes":{"NORMAL":98,"POSITION":97,"TEXCOORD_0":99},"indices":29,"material":3}]},{"name":"SignChain","primitives":[{"attributes":{"NORMAL":101,"POSITION":100,"TEXCOORD_0":102},"indices":29,"material":2}]},{"name":"SignChain.001","primitives":[{"attributes":{"NORMAL":104,"POSITION":103,"TEXCOORD_0":105},"indices":29,"material":2}]},{"name":"SignEmblem","primitives":[{"attributes":{"NORMAL":107,"POSITION":106,"TEXCOORD_0":108},"indices":109,"material":10}]},{"name":"SignFrame","primitives":[{"attributes":{"NORMAL":111,"POSITION":110,"TEXCOORD_0":112},"indices":29,"material":3}]},{"name":"Stack","primitives":[{"attributes":{"NORMAL":114,"POSITION":113,"TEXCOORD_0":115},"indices":29,"material":5}]},{"name":"StackCap","primitives":[{"attributes":{"NORMAL":117,"POSITION":116,"TEXCOORD_0":118},"indices":29,"material":7}]},{"name":"kit_Wall_Plaster_Door_Round","primitives":[{"attributes":{"NORMAL":120,"POSITION":119,"TEXCOORD_0":121},"indices":122,"material":3},{"attributes":{"NORMAL":124,"POSITION":123,"TEXCOORD_0":125},"indices":126,"material":8},{"attributes":{"NORMAL":128,"POSITION":127,"TEXCOORD_0":129},"indices":130,"material":7}]},{"name":"kit_Wall_Plaster_Straight.001","primitives":[{"attributes":{"NORMAL":132,"POSITION":131,"TEXCOORD_0":133},"indices":134,"material":3},{"attributes":{"NORMAL":136,"POSITION":135,"TEXCOORD_0":137},"indices":138,"material":8}]},{"name":"kit_Wall_Plaster_Straight","primitives":[{"attributes":{"NORMAL":140,"POSITION":139,"TEXCOORD_0":141},"indices":134,"material":3},{"attributes":{"NORMAL":143,"POSITION":142,"TEXCOORD_0":144},"indices":138,"material":8}]},{"name":"kit_Wall_Plaster_Straight_Base","primitives":[{"attributes":{"NORMAL":146,"POSITION":145,"TEXCOORD_0":147},"indices":148,"material":3},{"attributes":{"NORMAL":150,"POSITION":149,"TEXCOORD_0":151},"indices":152,"material":8},{"attributes":{"NORMAL":154,"POSITION":153,"TEXCOORD_0":155},"indices":156,"material":5}]},{"name":"kit_Wall_Plaster_Window_Thin_Round.001","primitives":[{"attributes":{"NORMAL":158,"POSITION":157,"TEXCOORD_0":159},"indices":160,"material":8},{"attributes":{"NORMAL":162,"POSITION":161,"TEXCOORD_0":163},"indices":164,"material":8},{"attributes":{"NORMAL":166,"POSITION":165,"TEXCOORD_0":167},"indices":168,"material":3}]},{"name":"kit_Wall_Plaster_Window_Wide_Flat2","primitives":[{"attributes":{"NORMAL":170,"POSITION":169,"TEXCOORD_0":171},"indices":172,"material":3},{"attributes":{"NORMAL":174,"POSITION":173,"TEXCOORD_0":175},"indices":176,"material":8}]},{"name":"kit_Wall_Plaster_Window_Wide_Flat.001","primitives":[{"attributes":{"NORMAL":178,"POSITION":177,"TEXCOORD_0":179},"indices":180,"material":8},{"attributes":{"NORMAL":182,"POSITION":181,"TEXCOORD_0":183},"indices":184,"material":8},{"attributes":{"NORMAL":186,"POSITION":185,"TEXCOORD_0":187},"indices":148,"material":3}]},{"name":"kit_Wall_Plaster_Window_Wide_Flat","primitives":[{"attributes":{"NORMAL":189,"POSITION":188,"TEXCOORD_0":190},"indices":180,"material":8},{"attributes":{"NORMAL":192,"POSITION":191,"TEXCOORD_0":193},"indices":184,"material":5},{"attributes":{"NORMAL":195,"POSITION":194,"TEXCOORD_0":196},"indices":148,"material":3}]},{"name":"kit_Wall_Plaster_WoodGrid.001","primitives":[{"attributes":{"NORMAL":198,"POSITION":197,"TEXCOORD_0":199},"indices":200,"material":3},{"attributes":{"NORMAL":202,"POSITION":201,"TEXCOORD_0":203},"indices":204,"material":8}]},{"name":"kit_Window_Thin_Round1.001","primitives":[{"attributes":{"NORMAL":206,"POSITION":205,"TEXCOORD_0":207},"indices":208,"material":3},{"attributes":{"NORMAL":210,"POSITION":209,"TEXCOORD_0":211},"indices":212,"material":4}]},{"name":"kit_Window_Wide_Flat1","primitives":[{"attributes":{"NORMAL":214,"POSITION":213,"TEXCOORD_0":215},"indices":216,"material":3},{"attributes":{"NORMAL":218,"POSITION":217,"TEXCOORD_0":219},"indices":220,"material":4}]},{"name":"kit_WindowShutters_Wide_Flat_Open","primitives":[{"attributes":{"NORMAL":222,"POSITION":221,"TEXCOORD_0":223},"indices":224,"material":3}]}],"nodes":[{"mesh":0,"name":"Awning.068"},{"mesh":1,"name":"Awning.069"},{"mesh":2,"name":"Awning.073"},{"mesh":3,"name":"Awning.074"},{"mesh":4,"name":"AwningArm.071"},{"mesh":5,"name":"AwningArm.072"},{"mesh":6,"name":"AwningArm.076"},{"mesh":7,"name":"AwningArm.077"},{"mesh":8,"name":"AwningRod.070"},{"mesh":9,"name":"AwningRod.075"},{"mesh":10,"name":"Beam.035"},{"mesh":11,"name":"Corner_Exterior_Wood.023","translation":[-3,0,0]},{"mesh":11,"name":"Corner_Exterior_Wood.024","translation":[3,0,0]},{"mesh":11,"name":"Corner_Exterior_Wood.025","translation":[-3,0,-8]},{"mesh":11,"name":"Corner_Exterior_Wood.026","translation":[3,0,-8]},{"mesh":11,"name":"Corner_Exterior_Wood.055","translation":[-3,3,0.4000000059604645]},{"mesh":11,"name":"Corner_Exterior_Wood.056","translation":[3,3,0.4000000059604645]},{"mesh":11,"name":"Corner_Exterior_Wood.057","translation":[-3,3,-8]},{"mesh":11,"name":"Corner_Exterior_Wood.058","translation":[3,3,-8]},{"mesh":12,"name":"Door_1_Round.006","translation":[-0.550000011920929,0,-0.019999999552965164]},{"mesh":13,"name":"DoorFrame_Round_WoodDark.005"},{"mesh":14,"name":"Floor_WoodDark.032","scale":[1,1,0.25],"translation":[-2,2.9700000286102295,0.20000000298023224]},{"mesh":14,"name":"Floor_WoodDark.033","scale":[1,1,0.25],"translation":[0,2.9700000286102295,0.20000000298023224]},{"mesh":14,"name":"Floor_WoodDark.034","scale":[1,1,0.25],"translation":[2,2.9700000286102295,0.20000000298023224]},{"mesh":15,"name":"Oven.062"},{"mesh":16,"name":"OvenDome.063"},{"mesh":17,"name":"OvenDoor.064"},{"mesh":18,"name":"OvenGlow.065"},{"mesh":19,"name":"Prop_ExteriorBorder_Straight1.085","translation":[-2,0,0.05000000074505806]},{"mesh":19,"name":"Prop_ExteriorBorder_Straight1.086","translation":[0,0,0.05000000074505806]},{"mesh":19,"name":"Prop_ExteriorBorder_Straight1.087","translation":[2,0,0.05000000074505806]},{"mesh":20,"name":"Roof_Front_Brick6.060","translation":[0,6.119999885559082,0.4000000059604645]},{"mesh":20,"name":"Roof_Front_Brick6.061","rotation":[0,-1,0,4.371138828673793e-08],"translation":[0,6.119999885559082,-8]},{"mesh":21,"name":"Roof_RoundTiles_6x8.059","scale":[1,1,1.0499999523162842],"translation":[0,6.119999885559082,-3.799999952316284]},{"mesh":22,"name":"Roof_Support2.027","scale":[1,1,0.5797101259231567],"translation":[-2.9000000953674316,3.0199999809265137,0.09000000357627869]},{"mesh":22,"name":"Roof_Support2.028","scale":[1,1,0.5797101259231567],"translation":[-1.4500000476837158,3.0199999809265137,0.09000000357627869]},{"mesh":22,"name":"Roof_Support2.029","scale":[1,1,0.5797101259231567],"translation":[0,3.0199999809265137,0.09000000357627869]},{"mesh":22,"name":"Roof_Support2.030","scale":[1,1,0.5797101259231567],"translation":[1.4500000476837158,3.0199999809265137,0.09000000357627869]},{"mesh":22,"name":"Roof_Support2.031","scale":[1,1,0.5797101259231567],"translation":[2.9000000953674316,3.0199999809265137,0.09000000357627869]},{"mesh":22,"name":"Roof_Support2.079","scale":[0.800000011920929,0.8999999761581421,0.6000000238418579],"translation":[-2.9000000953674316,4.039999961853027,0.5]},{"mesh":23,"name":"SignArm.078"},{"mesh":24,"name":"SignBoard.082"},{"mesh":25,"name":"SignChain.080"},{"mesh":26,"name":"SignChain.081"},{"mesh":27,"name":"SignEmblem.084"},{"mesh":28,"name":"SignFrame.083"},{"mesh":29,"name":"Stack.066"},{"mesh":30,"name":"StackCap.067"},{"mesh":31,"name":"Wall_Plaster_Door_Round.004"},{"mesh":32,"name":"Wall_Plaster_Straight+upper.041","rotation":[0,-1,0,4.371138828673793e-08],"translation":[2,3,-8]},{"mesh":32,"name":"Wall_Plaster_Straight+upper.044","rotation":[0,-1,0,4.371138828673793e-08],"translation":[-2,3,-8]},{"mesh":32,"name":"Wall_Plaster_Straight+upper.045","rotation":[0,-0.7071068286895752,0,0.7071068286895752],"scale":[1.0499999523162842,1,1],"translation":[-3,3,-6.949999809265137]},{"mesh":32,"name":"Wall_Plaster_Straight+upper.048","rotation":[0,-0.7071068286895752,0,0.7071068286895752],"scale":[1.0499999523162842,1,1],"translation":[-3,3,-2.750000238418579]},{"mesh":32,"name":"Wall_Plaster_Straight+upper.049","rotation":[0,-0.7071068286895752,0,0.7071068286895752],"scale":[1.0499999523162842,1,1],"translation":[-3,3,-0.6500003337860107]},{"mesh":32,"name":"Wall_Plaster_Straight+upper.050","rotation":[0,0.7071068286895752,0,0.7071068286895752],"scale":[1.0499999523162842,1,1],"translation":[3,3,-0.6499999761581421]},{"mesh":32,"name":"Wall_Plaster_Straight+upper.051","rotation":[0,0.7071068286895752,0,0.7071068286895752],"scale":[1.0499999523162842,1,1],"translation":[3,3,-2.75]},{"mesh":32,"name":"Wall_Plaster_Straight+upper.054","rotation":[0,0.7071068286895752,0,0.7071068286895752],"scale":[1.0499999523162842,1,1],"translation":[3,3,-6.949999809265137]},{"mesh":33,"name":"Wall_Plaster_Straight.020","rotation":[0,0.7071068286895752,0,0.7071068286895752],"translation":[3,0,-3]},{"mesh":33,"name":"Wall_Plaster_Straight.021","rotation":[0,0.7071068286895752,0,0.7071068286895752],"translation":[3,0,-5]},{"mesh":34,"name":"Wall_Plaster_Straight_Base.009","rotation":[0,-1,0,4.371138828673793e-08],"translation":[2,0,-8]},{"mesh":34,"name":"Wall_Plaster_Straight_Base.012","rotation":[0,-1,0,4.371138828673793e-08],"translation":[-2,0,-8]},{"mesh":34,"name":"Wall_Plaster_Straight_Base.013","rotation":[0,-0.7071068286895752,0,0.7071068286895752],"translation":[-3,0,-7]},{"mesh":34,"name":"Wall_Plaster_Straight_Base.017","rotation":[0,-0.7071068286895752,0,0.7071068286895752],"translation":[-3,0,-3]},{"mesh":34,"name":"Wall_Plaster_Straight_Base.018","rotation":[0,-0.7071068286895752,0,0.7071068286895752],"translation":[-3,0,-1]},{"mesh":34,"name":"Wall_Plaster_Straight_Base.019","rotation":[0,0.7071068286895752,0,0.7071068286895752],"translation":[3,0,-1]},{"mesh":34,"name":"Wall_Plaster_Straight_Base.022","rotation":[0,0.7071068286895752,0,0.7071068286895752],"translation":[3,0,-7]},{"mesh":35,"name":"Wall_Plaster_Window_Thin_Round+upper.036","translation":[-2,3,0.4000000059604645]},{"mesh":35,"name":"Wall_Plaster_Window_Thin_Round+upper.039","translation":[2,3,0.4000000059604645]},{"mesh":36,"name":"Wall_Plaster_Window_Wide_Flat2.007","translation":[2,0,0]},{"mesh":37,"name":"Wall_Plaster_Window_Wide_Flat+upper.042","rotation":[0,-1,0,4.371138828673793e-08],"translation":[0,3,-8]},{"mesh":37,"name":"Wall_Plaster_Window_Wide_Flat+upper.046","rotation":[0,-0.7071068286895752,0,0.7071068286895752],"scale":[1.0499999523162842,1,1],"translation":[-3,3,-4.850000381469727]},{"mesh":37,"name":"Wall_Plaster_Window_Wide_Flat+upper.052","rotation":[0,0.7071068286895752,0,0.7071068286895752],"scale":[1.0499999523162842,1,1],"translation":[3,3,-4.84999942779541]},{"mesh":38,"name":"Wall_Plaster_Window_Wide_Flat.001","translation":[-2,0,0]},{"mesh":38,"name":"Wall_Plaster_Window_Wide_Flat.010","rotation":[0,-1,0,4.371138828673793e-08],"translation":[0,0,-8]},{"mesh":38,"name":"Wall_Plaster_Window_Wide_Flat.014","rotation":[0,-0.7071068286895752,0,0.7071068286895752],"translation":[-3,0,-5]},{"mesh":39,"name":"Wall_Plaster_WoodGrid+upper.038","translation":[0,3,0.4000000059604645]},{"mesh":40,"name":"Window_Thin_Round1.037","translation":[-2,3,0.4000000059604645]},{"mesh":40,"name":"Window_Thin_Round1.040","translation":[2,3,0.4000000059604645]},{"mesh":41,"name":"Window_Wide_Flat1.002","translation":[-2,0,0]},{"mesh":41,"name":"Window_Wide_Flat1.008","translation":[2,0,0]},{"mesh":41,"name":"Window_Wide_Flat1.011","rotation":[0,-1,0,4.371138828673793e-08],"translation":[0,0,-8]},{"mesh":41,"name":"Window_Wide_Flat1.015","rotation":[0,-0.7071068286895752,0,0.7071068286895752],"translation":[-3,0,-5]},{"mesh":41,"name":"Window_Wide_Flat1.043","rotation":[0,-1,0,4.371138828673793e-08],"translation":[0,3,-8]},{"mesh":41,"name":"Window_Wide_Flat1.047","rotation":[0,-0.7071068286895752,0,0.7071068286895752],"scale":[1.0499999523162842,1,1],"translation":[-3,3,-4.850000381469727]},{"mesh":41,"name":"Window_Wide_Flat1.053","rotation":[0,0.7071068286895752,0,0.7071068286895752],"scale":[1.0499999523162842,1,1],"translation":[3,3,-4.84999942779541]},{"mesh":42,"name":"WindowShutters_Wide_Flat_Open.003","translation":[-2,0,0]},{"mesh":42,"name":"WindowShutters_Wide_Flat_Open.016","rotation":[0,-0.7071068286895752,0,0.7071068286895752],"translation":[-3,0,-5]}],"scene":0,"scenes":[{"name":"Scene","nodes":[0,1,2,3,4,5,6,7,8,9,10,11,12,13,14,15,16,17,18,19,20,21,22,23,24,25,26,27,28,29,30,31,32,33,34,35,36,37,38,39,40,41,42,43,44,45,46,47,48,49,50,51,52,53,54,55,56,57,58,59,60,61,62,63,64,65,66,67,68,69,70,71,72,73,74,75,76,77,78,79,80,81,82,83,84,85,86]}],"textures":[{"source":0},{"source":1},{"source":2},{"source":3},{"source":4}]}
