{"accessors":[{"bufferView":0,"componentType":5126,"count":384,"max":[4.799999713897705,5.699999809265137,1.500000238418579],"min":[-4.799999713897705,0.8999999761581421,1.0099999904632568],"type":"VEC3"},{"bufferView":1,"componentType":5126,"count":384,"type":"VEC3"},{"bufferView":2,"componentType":5126,"count":384,"type":"VEC2"},{"bufferView":3,"componentType":5123,"count":576,"type":"SCALAR"},{"bufferView":4,"componentType":5126,"count":126,"max":[4.5,0.8999999761581421,2.1100001335144043],"min":[-4.5,0,-3.3899998664855957],"type":"VEC3"},{"bufferView":5,"componentType":5126,"count":126,"type":"VEC3"},{"bufferView":6,"componentType":5126,"count":126,"type":"VEC2"},{"bufferView":7,"componentType":5123,"count":240,"type":"SCALAR"},{"bufferView":8,"componentType":5126,"count":126,"max":[4.400000095367432,0.9599999785423279,2.010000228881836],"min":[-4.400000095367432,0.9000000357627869,-3.2899999618530273],"type":"VEC3"},{"bufferView":9,"componentType":5126,"count":126,"type":"VEC3"},{"bufferView":10,"componentType":5126,"count":126,"type":"VEC2"},{"bufferView":11,"componentType":5126,"count":240,"max":[4.659232139587402,1.1999999284744263,3.3899998664855957],"min":[-4.659232139587402,0,1.090000033378601],"type":"VEC3"},{"bufferView":12,"componentType":5126,"count":240,"type":"VEC3"},{"bufferView":13,"componentType":5126,"count":240,"type":"VEC2"},{"bufferView":14,"componentType":5123,"count":396,"type":"SCALAR"},{"bufferView":15,"componentType":5126,"count":1312,"max":[4.579999923706055,5.480000019073486,1.410000205039978],"min":[-4.579999923706055,0.8941189646720886,-2.9497108459472656],"type":"VEC3"},{"bufferView":16,"componentType":5126,"count":1312,"type":"VEC3"},{"bufferView":17,"componentType":5126,"count":1312,"type":"VEC2"},{"bufferView":18,"componentType":5123,"count":1920,"type":"SCALAR"},{"bufferView":19,"componentType":5126,"count":512,"max":[3.9000000953674316,4.797624111175537,1.1100000143051147],"min":[-3.9000000953674316,0.8999999761581421,-2.7899999618530273],"type":"VEC3"},{"bufferView":20,"componentType":5126,"count":512,"type":"VEC3"},{"bufferView":21,"componentType":5126,"count":512,"type":"VEC2"},{"bufferView":22,"componentType":5123,"count":768,"type":"SCALAR"}],"asset":{"generator":"Khronos glTF Blender I/O v5.2.40","version":"2.0"},"bufferViews":[{"buffer":0,"byteLength":4608,"byteOffset":0,"target":34962},{"buffer":0,"byteLength":4608,"byteOffset":4608,"target":34962},{"buffer":0,"byteLength":3072,"byteOffset":9216,"target":34962},{"buffer":0,"byteLength":1152,"byteOffset":12288,"target":34963},{"buffer":0,"byteLength":1512,"byteOffset":13440,"target":34962},{"buffer":0,"byteLength":1512,"byteOffset":14952,"target":34962},{"buffer":0,"byteLength":1008,"byteOffset":16464,"target":34962},{"buffer":0,"byteLength":480,"byteOffset":17472,"target":34963},{"buffer":0,"byteLength":1512,"byteOffset":17952,"target":34962},{"buffer":0,"byteLength":1512,"byteOffset":19464,"target":34962},{"buffer":0,"byteLength":1008,"byteOffset":20976,"target":34962},{"buffer":0,"byteLength":2880,"byteOffset":21984,"target":34962},{"buffer":0,"byteLength":2880,"byteOffset":24864,"target":34962},{"buffer":0,"byteLength":1920,"byteOffset":27744,"target":34962},{"buffer":0,"byteLength":792,"byteOffset":29664,"target":34963},{"buffer":0,"byteLength":15744,"byteOffset":30456,"target":34962},{"buffer":0,"byteLength":15744,"byteOffset":46200,"target":34962},{"buffer":0,"byteLength":10496,"byteOffset":61944,"target":34962},{"buffer":0,"byteLength":3840,"byteOffset":72440,"target":34963},{"buffer":0,"byteLength":6144,"byteOffset":76280,"target":34962},{"buffer":0,"byteLength":6144,"byteOffset":82424,"target":34962},{"buffer":0,"byteLength":4096,"byteOffset":88568,"target":34962},{"buffer":0,"byteLength":1536,"byteOffset":92664,"target":34963}],"buffers":[{"byteLength":94200,"uri":"bandshell.bin"}],"images":[{"name":"T_Brick_BaseColor","uri":"../village/T_Brick_BaseColor.png"}],"materials":[{"doubleSided":true,"name":"Bandshell_Accent","pbrMetallicRoughness":{"baseColorFactor":[0.6200000047683716,0.1599999964237213,0.14000000059604645,1],"metallicFactor":0,"roughnessFactor":0.699999988079071}},{"doubleSided":true,"name":"Bandshell_Brick","pbrMetallicRoughness":{"baseColorFactor":[1.0,0.92,0.82,1],"baseColorTexture":{"index":0},"metallicFactor":0,"roughnessFactor":0.8999999761581421}},{"doubleSided":true,"name":"Bandshell_Boards","pbrMetallicRoughness":{"baseColorFactor":[0.550000011920929,0.36000001430511475,0.20000000298023224,1],"metallicFactor":0,"roughnessFactor":0.8500000238418579}},{"doubleSided":true,"name":"Bandshell_Stone","pbrMetallicRoughness":{"baseColorFactor":[0.6200000047683716,0.5899999737739563,0.5400000214576721,1],"metallicFactor":0,"roughnessFactor":0.8999999761581421}},{"doubleSided":true,"name":"Bandshell_Shell","pbrMetallicRoughness":{"baseColorFactor":[0.9300000071525574,0.8899999856948853,0.800000011920929,1],"metallicFactor":0,"roughnessFactor":0.800000011920929}},{"doubleSided":true,"name":"Bandshell_Inner","pbrMetallicRoughness":{"baseColorFactor":[0.30000001192092896,0.44999998807907104,0.6600000262260437,1],"metallicFactor":0,"roughnessFactor":0.800000011920929}}],"meshes":[{"name":"Bandshell","primitives":[{"attributes":{"NORMAL":1,"POSITION":0,"TEXCOORD_0":2},"indices":3,"material":0},{"attributes":{"NORMAL":5,"POSITION":4,"TEXCOORD_0":6},"indices":7,"material":1},{"attributes":{"NORMAL":9,"POSITION":8,"TEXCOORD_0":10},"indices":7,"material":2},{"attributes":{"NORMAL":12,"POSITION":11,"TEXCOORD_0":13},"indices":14,"material":3},{"attributes":{"NORMAL":16,"POSITION":15,"TEXCOORD_0":17},"indices":18,"material":4},{"attributes":{"NORMAL":20,"POSITION":19,"TEXCOORD_0":21},"indices":22,"material":5}]}],"nodes":[{"mesh":0,"name":"Bandshell"}],"scene":0,"scenes":[{"name":"Scene","nodes":[0]}],"textures":[{"source":0}]}
