{"accessors":[{"bufferView":0,"componentType":5126,"count":80,"type":"VEC3"},{"bufferView":1,"componentType":5126,"count":80,"max":[0.32811450958251953,0.8049999475479126,0.3449999988079071],"min":[-0.32811450958251953,0.0949999988079071,-0.3449999988079071],"type":"VEC3"},{"bufferView":2,"componentType":5123,"count":120,"type":"SCALAR"},{"bufferView":3,"componentType":5126,"count":182,"type":"VEC3"},{"bufferView":4,"componentType":5126,"count":182,"max":[0.3799999952316284,0.8999999761581421,0.3614014685153961],"min":[-0.3799999952316284,0,-0.3614014685153961],"type":"VEC3"},{"bufferView":5,"componentType":5123,"count":300,"type":"SCALAR"},{"bufferView":6,"componentType":5126,"count":60,"type":"VEC3"},{"bufferView":7,"componentType":5126,"count":60,"max":[0.27580639719963074,0.9149999618530273,0.28999999165534973],"min":[-0.27580639719963074,0.8949999809265137,-0.28999999165534973],"type":"VEC3"},{"bufferView":8,"componentType":5123,"count":108,"type":"SCALAR"}],"asset":{"generator":"Khronos glTF Blender I/O v5.2.40","version":"2.0"},"bufferViews":[{"buffer":0,"byteOffset":0,"byteLength":960,"target":34962},{"buffer":0,"byteOffset":960,"byteLength":960,"target":34962},{"buffer":0,"byteOffset":1920,"byteLength":240,"target":34963},{"buffer":0,"byteOffset":2160,"byteLength":2184,"target":34962},{"buffer":0,"byteOffset":4344,"byteLength":2184,"target":34962},{"buffer":0,"byteOffset":6528,"byteLength":600,"target":34963},{"buffer":0,"byteOffset":7128,"byteLength":720,"target":34962},{"buffer":0,"byteOffset":7848,"byteLength":720,"target":34962},{"buffer":0,"byteOffset":8568,"byteLength":216,"target":34963}],"buffers":[{"byteLength":8784,"uri":"barrel.bin"}],"images":[],"materials":[{"doubleSided":true,"name":"Prop_Iron","pbrMetallicRoughness":{"baseColorFactor":[0.03500000014901161,0.03500000014901161,0.03999999910593033,1],"metallicFactor":0,"roughnessFactor":0.5}},{"doubleSided":true,"name":"Prop_Oak","pbrMetallicRoughness":{"baseColorFactor":[0.3199999928474426,0.17000000178813934,0.07000000029802322,1],"metallicFactor":0,"roughnessFactor":0.8500000238418579}},{"doubleSided":true,"name":"Prop_OakDark","pbrMetallicRoughness":{"baseColorFactor":[0.18000000715255737,0.09000000357627869,0.03500000014901161,1],"metallicFactor":0,"roughnessFactor":0.8500000238418579}}],"meshes":[{"name":"barrel","primitives":[{"attributes":{"NORMAL":0,"POSITION":1},"indices":2,"material":0},{"attributes":{"NORMAL":3,"POSITION":4},"indices":5,"material":1},{"attributes":{"NORMAL":6,"POSITION":7},"indices":8,"material":2}]}],"nodes":[{"mesh":0,"name":"barrel"}],"scene":0,"scenes":[{"name":"Scene","nodes":[0]}],"textures":[]}