{"accessors":[{"bufferView":0,"componentType":5126,"count":240,"type":"VEC3"},{"bufferView":1,"componentType":5126,"count":240,"max":[1.1762536764144897,0.5199999809265137,0.3499999940395355],"min":[-1.223746418952942,0,-0.3499999940395355],"type":"VEC3"},{"bufferView":2,"componentType":5123,"count":360,"type":"SCALAR"},{"bufferView":3,"componentType":5126,"count":672,"type":"VEC3"},{"bufferView":4,"componentType":5126,"count":672,"max":[1.036253571510315,1.2000000476837158,0.25],"min":[-1.083746314048767,0.4599999785423279,-0.25],"type":"VEC3"},{"bufferView":5,"componentType":5123,"count":924,"type":"SCALAR"},{"bufferView":6,"componentType":5126,"count":72,"type":"VEC3"},{"bufferView":7,"componentType":5126,"count":72,"max":[1.0744515657424927,1.3700000047683716,0.318198025226593],"min":[-1.1219443082809448,0.9599999785423279,-0.318198025226593],"type":"VEC3"},{"bufferView":8,"componentType":5123,"count":108,"type":"SCALAR"},{"bufferView":9,"componentType":5126,"count":42,"type":"VEC3"},{"bufferView":10,"componentType":5126,"count":42,"max":[1.223746418952942,0.5999999642372131,0.1900968849658966],"min":[1.0287607908248901,0.4599999785423279,0],"type":"VEC3"},{"bufferView":11,"componentType":5123,"count":72,"type":"SCALAR"}],"asset":{"generator":"Khronos glTF Blender I/O v5.2.40","version":"2.0"},"bufferViews":[{"buffer":0,"byteOffset":0,"byteLength":2880,"target":34962},{"buffer":0,"byteOffset":2880,"byteLength":2880,"target":34962},{"buffer":0,"byteOffset":5760,"byteLength":720,"target":34963},{"buffer":0,"byteOffset":6480,"byteLength":8064,"target":34962},{"buffer":0,"byteOffset":14544,"byteLength":8064,"target":34962},{"buffer":0,"byteOffset":22608,"byteLength":1848,"target":34963},{"buffer":0,"byteOffset":24456,"byteLength":864,"target":34962},{"buffer":0,"byteOffset":25320,"byteLength":864,"target":34962},{"buffer":0,"byteOffset":26184,"byteLength":216,"target":34963},{"buffer":0,"byteOffset":26400,"byteLength":504,"target":34962},{"buffer":0,"byteOffset":26904,"byteLength":504,"target":34962},{"buffer":0,"byteOffset":27408,"byteLength":144,"target":34963}],"buffers":[{"byteLength":27552,"uri":"beehives.bin"}],"images":[],"materials":[{"doubleSided":true,"name":"Prop_OakDark","pbrMetallicRoughness":{"baseColorFactor":[0.18000000715255737,0.09000000357627869,0.03500000014901161,1],"metallicFactor":0,"roughnessFactor":0.8500000238418579}},{"doubleSided":true,"name":"Prop_HiveWhite","pbrMetallicRoughness":{"baseColorFactor":[0.8600000143051147,0.8199999928474426,0.6800000071525574,1],"metallicFactor":0,"roughnessFactor":0.800000011920929}},{"doubleSided":true,"name":"Prop_StoneDark","pbrMetallicRoughness":{"baseColorFactor":[0.25999999046325684,0.25,0.23000000417232513,1],"metallicFactor":0,"roughnessFactor":0.949999988079071}},{"doubleSided":true,"name":"Prop_Honey","pbrMetallicRoughness":{"baseColorFactor":[0.800000011920929,0.5,0.07999999821186066,1],"metallicFactor":0,"roughnessFactor":0.6000000238418579}}],"meshes":[{"name":"beehives","primitives":[{"attributes":{"NORMAL":0,"POSITION":1},"indices":2,"material":0},{"attributes":{"NORMAL":3,"POSITION":4},"indices":5,"material":1},{"attributes":{"NORMAL":6,"POSITION":7},"indices":8,"material":2},{"attributes":{"NORMAL":9,"POSITION":10},"indices":11,"material":3}]}],"nodes":[{"mesh":0,"name":"beehives"}],"scene":0,"scenes":[{"name":"Scene","nodes":[0]}],"textures":[]}