{"accessors":[{"bufferView":0,"componentType":5126,"count":1392,"type":"VEC3"},{"bufferView":1,"componentType":5126,"count":1392,"max":[9.5,10.039999961853027,0],"min":[-9.5,-3,-34.20000076293945],"type":"VEC3"},{"bufferView":2,"componentType":5123,"count":2142,"type":"SCALAR"},{"bufferView":3,"componentType":5126,"count":644,"type":"VEC3"},{"bufferView":4,"componentType":5126,"count":644,"max":[9.5,10.390000343322754,-8],"min":[-9.5,-3,-33.400001525878906],"type":"VEC3"},{"bufferView":5,"componentType":5126,"count":644,"type":"VEC2"},{"bufferView":6,"componentType":5123,"count":1410,"type":"SCALAR"},{"bufferView":7,"componentType":5126,"count":352,"type":"VEC3"},{"bufferView":8,"componentType":5126,"count":352,"max":[8.859999656677246,9.289999961853027,-9.4399995803833],"min":[-8.859999656677246,3.619999885559082,-26.079999923706055],"type":"VEC3"},{"bufferView":9,"componentType":5123,"count":528,"type":"SCALAR"},{"bufferView":10,"componentType":5126,"count":564,"type":"VEC3"},{"bufferView":11,"componentType":5126,"count":564,"max":[9.5,9.319999694824219,-8.802447319030762],"min":[-9.5,3.4730000495910645,-26.533287048339844],"type":"VEC3"},{"bufferView":12,"componentType":5126,"count":564,"type":"VEC2"},{"bufferView":13,"componentType":5123,"count":942,"type":"SCALAR"},{"bufferView":14,"componentType":5126,"count":552,"type":"VEC3"},{"bufferView":15,"componentType":5126,"count":552,"max":[9.543731689453125,6.224999904632568,-8.399516105651855],"min":[-9.543731689453125,3.9699997901916504,-31.649999618530273],"type":"VEC3"},{"bufferView":16,"componentType":5123,"count":3024,"type":"SCALAR"},{"bufferView":17,"componentType":5126,"count":872,"type":"VEC3"},{"bufferView":18,"componentType":5126,"count":872,"max":[7.080000877380371,9.239999771118164,-8.59000015258789],"min":[-7.07999849319458,3.299999952316284,-26.719999313354492],"type":"VEC3"},{"bufferView":19,"componentType":5123,"count":1308,"type":"SCALAR"},{"bufferView":20,"componentType":5126,"count":32,"type":"VEC3"},{"bufferView":21,"componentType":5126,"count":32,"max":[3.619999885559082,5.289999961853027,-8.630000114440918],"min":[-3.619999885559082,4.949999809265137,-8.869999885559082],"type":"VEC3"},{"bufferView":22,"componentType":5123,"count":48,"type":"SCALAR"},{"bufferView":23,"componentType":5126,"count":1426,"type":"VEC3"},{"bufferView":24,"componentType":5126,"count":1426,"max":[9.479999542236328,9.63399887084961,-16.700000762939453],"min":[-9.469144821166992,3.615000009536743,-31.5772647857666],"type":"VEC3"},{"bufferView":25,"componentType":5123,"count":2232,"type":"SCALAR"},{"bufferView":26,"componentType":5126,"count":100,"type":"VEC3"},{"bufferView":27,"componentType":5126,"count":100,"max":[8,10.489999771118164,-16.399999618530273],"min":[-8,3.640000104904175,-33.029998779296875],"type":"VEC3"},{"bufferView":28,"componentType":5123,"count":150,"type":"SCALAR"},{"bufferView":29,"componentType":5126,"count":8,"type":"VEC3"},{"bufferView":30,"componentType":5126,"count":8,"max":[2.819999933242798,3.765000104904175,-26.520000457763672],"min":[-2.819999933242798,3.765000104904175,-26.68000030517578],"type":"VEC3"},{"bufferView":31,"componentType":5123,"count":12,"type":"SCALAR"},{"bufferView":32,"componentType":5126,"count":40,"type":"VEC3"},{"bufferView":33,"componentType":5126,"count":40,"max":[2.4225168228149414,6.259999752044678,-25.11400032043457],"min":[-2.4225168228149414,6.059999942779541,-25.165998458862305],"type":"VEC3"},{"bufferView":34,"componentType":5123,"count":96,"type":"SCALAR"},{"bufferView":35,"componentType":5126,"count":50,"type":"VEC3"},{"bufferView":36,"componentType":5126,"count":50,"max":[2.4240000247955322,6.340000152587891,-25.11717414855957],"min":[-2.4194164276123047,6.259999752044678,-25.162824630737305],"type":"VEC3"},{"bufferView":37,"componentType":5123,"count":78,"type":"SCALAR"}],"asset":{"generator":"Khronos glTF Blender I/O v5.2.40","version":"2.0"},"bufferViews":[{"buffer":0,"byteOffset":0,"byteLength":16704,"target":34962},{"buffer":0,"byteOffset":16704,"byteLength":16704,"target":34962},{"buffer":0,"byteOffset":33408,"byteLength":4284,"target":34963},{"buffer":0,"byteOffset":37692,"byteLength":7728,"target":34962},{"buffer":0,"byteOffset":45420,"byteLength":7728,"target":34962},{"buffer":0,"byteOffset":53148,"byteLength":5152,"target":34962},{"buffer":0,"byteOffset":58300,"byteLength":2820,"target":34963},{"buffer":0,"byteOffset":61120,"byteLength":4224,"target":34962},{"buffer":0,"byteOffset":65344,"byteLength":4224,"target":34962},{"buffer":0,"byteOffset":69568,"byteLength":1056,"target":34963},{"buffer":0,"byteOffset":70624,"byteLength":6768,"target":34962},{"buffer":0,"byteOffset":77392,"byteLength":6768,"target":34962},{"buffer":0,"byteOffset":84160,"byteLength":4512,"target":34962},{"buffer":0,"byteOffset":88672,"byteLength":1884,"target":34963},{"buffer":0,"byteOffset":90556,"byteLength":6624,"target":34962},{"buffer":0,"byteOffset":97180,"byteLength":6624,"target":34962},{"buffer":0,"byteOffset":103804,"byteLength":6048,"target":34963},{"buffer":0,"byteOffset":109852,"byteLength":10464,"target":34962},{"buffer":0,"byteOffset":120316,"byteLength":10464,"target":34962},{"buffer":0,"byteOffset":130780,"byteLength":2616,"target":34963},{"buffer":0,"byteOffset":133396,"byteLength":384,"target":34962},{"buffer":0,"byteOffset":133780,"byteLength":384,"target":34962},{"buffer":0,"byteOffset":134164,"byteLength":96,"target":34963},{"buffer":0,"byteOffset":134260,"byteLength":17112,"target":34962},{"buffer":0,"byteOffset":151372,"byteLength":17112,"target":34962},{"buffer":0,"byteOffset":168484,"byteLength":4464,"target":34963},{"buffer":0,"byteOffset":172948,"byteLength":1200,"target":34962},{"buffer":0,"byteOffset":174148,"byteLength":1200,"target":34962},{"buffer":0,"byteOffset":175348,"byteLength":300,"target":34963},{"buffer":0,"byteOffset":175648,"byteLength":96,"target":34962},{"buffer":0,"byteOffset":175744,"byteLength":96,"target":34962},{"buffer":0,"byteOffset":175840,"byteLength":24,"target":34963},{"buffer":0,"byteOffset":175864,"byteLength":480,"target":34962},{"buffer":0,"byteOffset":176344,"byteLength":480,"target":34962},{"buffer":0,"byteOffset":176824,"byteLength":192,"target":34963},{"buffer":0,"byteOffset":177016,"byteLength":600,"target":34962},{"buffer":0,"byteOffset":177616,"byteLength":600,"target":34962},{"buffer":0,"byteOffset":178216,"byteLength":156,"target":34963}],"buffers":[{"byteLength":178372,"uri":"belvedere.bin"}],"images":[{"name":"T_Plaster_Luma","uri":"../village/T_Plaster_Luma.png"},{"name":"T_WoodTrim_BaseColor","uri":"../village/T_WoodTrim_BaseColor.png"}],"materials":[{"doubleSided":true,"name":"GrecoMarble","pbrMetallicRoughness":{"baseColorFactor":[0.8073459267616272,0.7874122858047485,0.7293471097946167,1],"metallicFactor":0,"roughnessFactor":0.4000000059604645}},{"doubleSided":true,"name":"GrecoLimestone","pbrMetallicRoughness":{"baseColorFactor":[0.9026,0.7713,0.5384,1.0],"baseColorTexture":{"index":0},"metallicFactor":0,"roughnessFactor":0.800000011920929}},{"doubleSided":true,"name":"GrecoRedBrown","pbrMetallicRoughness":{"baseColorFactor":[0.13286831974983215,0.027211781591176987,0.011645430698990822,1],"metallicFactor":0,"roughnessFactor":0.800000011920929}},{"doubleSided":true,"name":"GrecoWalnut","pbrMetallicRoughness":{"baseColorFactor":[0.1509,0.1765,0.2002,1.0],"baseColorTexture":{"index":1},"metallicFactor":0,"roughnessFactor":0.6000000238418579}},{"doubleSided":true,"name":"GrecoHedge","pbrMetallicRoughness":{"baseColorFactor":[0.02451501414179802,0.06838485598564148,0.0134117491543293,1],"metallicFactor":0,"roughnessFactor":0.949999988079071}},{"doubleSided":true,"name":"GrecoBronze","pbrMetallicRoughness":{"baseColorFactor":[0.04696420207619667,0.01960664801299572,0.00854038167744875,1],"metallicFactor":0,"roughnessFactor":0.44999998807907104}},{"doubleSided":true,"emissiveFactor":[1,0.4200332760810852,0.07323895394802094],"name":"EmitAmber","pbrMetallicRoughness":{"baseColorFactor":[1,0.4200332760810852,0.07323895394802094,1],"metallicFactor":0,"roughnessFactor":0.30000001192092896}},{"doubleSided":true,"name":"GrecoCopper","pbrMetallicRoughness":{"baseColorFactor":[0.3931231200695038,0.11928018927574158,0.03310476616024971,1],"metallicFactor":0,"roughnessFactor":0.4000000059604645}},{"doubleSided":true,"name":"GrecoStoneShade","pbrMetallicRoughness":{"baseColorFactor":[0.5382355451583862,0.4479884207248688,0.3069993257522583,1],"metallicFactor":0,"roughnessFactor":0.8500000238418579}},{"doubleSided":true,"emissiveFactor":[0.1098584309220314,0.05952286161482334,0.02011762373149395],"name":"EmitCove","pbrMetallicRoughness":{"baseColorFactor":[0.07323895394802094,0.03968190774321556,0.0134117491543293,1],"metallicFactor":0,"roughnessFactor":0.5}},{"doubleSided":true,"name":"GrecoLinen","pbrMetallicRoughness":{"baseColorFactor":[0.7105664610862732,0.6209158897399902,0.4623613655567169,1],"metallicFactor":0,"roughnessFactor":0.949999988079071}},{"doubleSided":true,"emissiveFactor":[1,0.6382831931114197,0.21404114365577698],"name":"EmitFlame","pbrMetallicRoughness":{"baseColorFactor":[1,0.6382831931114197,0.21404114365577698,1],"metallicFactor":0,"roughnessFactor":0.5}}],"meshes":[{"name":"Step","primitives":[{"attributes":{"NORMAL":0,"POSITION":1},"indices":2,"material":0},{"attributes":{"NORMAL":3,"POSITION":4,"TEXCOORD_0":5},"indices":6,"material":1},{"attributes":{"NORMAL":7,"POSITION":8},"indices":9,"material":2},{"attributes":{"NORMAL":10,"POSITION":11,"TEXCOORD_0":12},"indices":13,"material":3},{"attributes":{"NORMAL":14,"POSITION":15},"indices":16,"material":4},{"attributes":{"NORMAL":17,"POSITION":18},"indices":19,"material":5},{"attributes":{"NORMAL":20,"POSITION":21},"indices":22,"material":6},{"attributes":{"NORMAL":23,"POSITION":24},"indices":25,"material":7},{"attributes":{"NORMAL":26,"POSITION":27},"indices":28,"material":8},{"attributes":{"NORMAL":29,"POSITION":30},"indices":31,"material":9},{"attributes":{"NORMAL":32,"POSITION":33},"indices":34,"material":10},{"attributes":{"NORMAL":35,"POSITION":36},"indices":37,"material":11}]}],"nodes":[{"mesh":0,"name":"belvedere"}],"scene":0,"scenes":[{"name":"Scene","nodes":[0]}],"textures":[{"source":0},{"source":1}]}