{"accessors":[{"bufferView":0,"componentType":5126,"count":252,"max":[1.3943748474121094,6.525000095367432,1.2999999523162842],"min":[-1.3943748474121094,2.7125000953674316,-1.2999999523162842],"type":"VEC3"},{"bufferView":1,"componentType":5126,"count":252,"type":"VEC3"},{"bufferView":2,"componentType":5126,"count":252,"type":"VEC2"},{"bufferView":3,"componentType":5123,"count":324,"type":"SCALAR"},{"bufferView":4,"componentType":5126,"count":20,"max":[0.12381964921951294,5.199999809265137,0.1294427216053009],"min":[-0.18051844835281372,0,-0.1599999964237213],"type":"VEC3"},{"bufferView":5,"componentType":5126,"count":20,"type":"VEC3"},{"bufferView":6,"componentType":5126,"count":20,"type":"VEC2"},{"bufferView":7,"componentType":5123,"count":30,"type":"SCALAR"}],"asset":{"generator":"Khronos glTF Blender I/O v5.2.40","version":"2.0"},"bufferViews":[{"buffer":0,"byteLength":3024,"byteOffset":0,"target":34962},{"buffer":0,"byteLength":3024,"byteOffset":3024,"target":34962},{"buffer":0,"byteLength":2016,"byteOffset":6048,"target":34962},{"buffer":0,"byteLength":648,"byteOffset":8064,"target":34963},{"buffer":0,"byteLength":240,"byteOffset":8712,"target":34962},{"buffer":0,"byteLength":240,"byteOffset":8952,"target":34962},{"buffer":0,"byteLength":160,"byteOffset":9192,"target":34962},{"buffer":0,"byteLength":60,"byteOffset":9352,"target":34963}],"buffers":[{"byteLength":9412,"uri":"birch_low.bin"}],"images":[],"materials":[{"doubleSided":true,"name":"Prop_CanopyLight","pbrMetallicRoughness":{"baseColorFactor":[0.11999999731779099,0.27000001072883606,0.05000000074505806,1],"metallicFactor":0,"roughnessFactor":0.8999999761581421}},{"doubleSided":true,"name":"Prop_BirchBark","pbrMetallicRoughness":{"baseColorFactor":[0.75,0.7300000190734863,0.6600000262260437,1],"metallicFactor":0,"roughnessFactor":0.8999999761581421}}],"meshes":[{"name":"birch_low","primitives":[{"attributes":{"NORMAL":1,"POSITION":0,"TEXCOORD_0":2},"indices":3,"material":0},{"attributes":{"NORMAL":5,"POSITION":4,"TEXCOORD_0":6},"indices":7,"material":1}]}],"nodes":[{"mesh":0,"name":"birch_low"}],"scene":0,"scenes":[{"name":"Scene","nodes":[0]}],"textures":[]}
