{"accessors":[{"bufferView":0,"componentType":5126,"count":120,"type":"VEC3"},{"bufferView":1,"componentType":5126,"count":120,"max":[3,1.0399999618530273,1.5099999904632568],"min":[-3,0,-1.4900000095367432],"type":"VEC3"},{"bufferView":2,"componentType":5123,"count":180,"type":"SCALAR"},{"bufferView":3,"componentType":5126,"count":504,"type":"VEC3"},{"bufferView":4,"componentType":5126,"count":504,"max":[2.990000009536743,1.024999976158142,1.5099999904632568],"min":[-2.990000009536743,0.07500001788139343,-1.4900000095367432],"type":"VEC3"},{"bufferView":5,"componentType":5123,"count":756,"type":"SCALAR"},{"bufferView":6,"componentType":5126,"count":30,"type":"VEC3"},{"bufferView":7,"componentType":5126,"count":30,"max":[2.9475529193878174,1.600000023841858,-1.3695491552352905],"min":[2.852447271347046,1.040000081062317,-1.459999918937683],"type":"VEC3"},{"bufferView":8,"componentType":5123,"count":48,"type":"SCALAR"},{"bufferView":9,"componentType":5126,"count":24,"type":"VEC3"},{"bufferView":10,"componentType":5126,"count":24,"max":[3,1.850000023841858,-1.309999942779541],"min":[2.8000001907348633,1.590000033378601,-1.5099999904632568],"type":"VEC3"},{"bufferView":11,"componentType":5123,"count":36,"type":"SCALAR"}],"asset":{"generator":"Khronos glTF Blender I/O v5.2.40","version":"2.0"},"bufferViews":[{"buffer":0,"byteOffset":0,"byteLength":1440,"target":34962},{"buffer":0,"byteOffset":1440,"byteLength":1440,"target":34962},{"buffer":0,"byteOffset":2880,"byteLength":360,"target":34963},{"buffer":0,"byteOffset":3240,"byteLength":6048,"target":34962},{"buffer":0,"byteOffset":9288,"byteLength":6048,"target":34962},{"buffer":0,"byteOffset":15336,"byteLength":1512,"target":34963},{"buffer":0,"byteOffset":16848,"byteLength":360,"target":34962},{"buffer":0,"byteOffset":17208,"byteLength":360,"target":34962},{"buffer":0,"byteOffset":17568,"byteLength":96,"target":34963},{"buffer":0,"byteOffset":17664,"byteLength":288,"target":34962},{"buffer":0,"byteOffset":17952,"byteLength":288,"target":34962},{"buffer":0,"byteOffset":18240,"byteLength":72,"target":34963}],"buffers":[{"byteLength":18312,"uri":"boardwalk.bin"}],"images":[],"materials":[{"doubleSided":true,"name":"Prop_Oak","pbrMetallicRoughness":{"baseColorFactor":[0.3199999928474426,0.17000000178813934,0.07000000029802322,1],"metallicFactor":0,"roughnessFactor":0.8500000238418579}},{"doubleSided":true,"name":"Prop_OakDark","pbrMetallicRoughness":{"baseColorFactor":[0.18000000715255737,0.09000000357627869,0.03500000014901161,1],"metallicFactor":0,"roughnessFactor":0.8500000238418579}},{"doubleSided":true,"name":"Prop_Iron","pbrMetallicRoughness":{"baseColorFactor":[0.03500000014901161,0.03500000014901161,0.03999999910593033,1],"metallicFactor":0,"roughnessFactor":0.5}},{"doubleSided":true,"name":"Prop_LampGlow","pbrMetallicRoughness":{"baseColorFactor":[1,0.6200000047683716,0.2199999988079071,1],"metallicFactor":0,"roughnessFactor":0.30000001192092896}}],"meshes":[{"name":"boardwalk","primitives":[{"attributes":{"NORMAL":0,"POSITION":1},"indices":2,"material":0},{"attributes":{"NORMAL":3,"POSITION":4},"indices":5,"material":1},{"attributes":{"NORMAL":6,"POSITION":7},"indices":8,"material":2},{"attributes":{"NORMAL":9,"POSITION":10},"indices":11,"material":3}]}],"nodes":[{"mesh":0,"name":"boardwalk"}],"scene":0,"scenes":[{"name":"Scene","nodes":[0]}],"textures":[]}