{"accessors":[{"bufferView":0,"componentType":5126,"count":64,"type":"VEC3"},{"bufferView":1,"componentType":5126,"count":64,"max":[3.4124999046325684,2.9200000762939453,1.7200000286102295],"min":[-3.9000000953674316,2.140000104904175,0.11999999731779099],"type":"VEC3"},{"bufferView":2,"componentType":5123,"count":96,"type":"SCALAR"},{"bufferView":3,"componentType":5126,"count":64,"type":"VEC3"},{"bufferView":4,"componentType":5126,"count":64,"max":[3.9000000953674316,2.9200000762939453,1.7200000286102295],"min":[-3.4124999046325684,2.140000104904175,0.11999999731779099],"type":"VEC3"},{"bufferView":5,"componentType":5126,"count":4,"type":"VEC3"},{"bufferView":6,"componentType":5126,"count":4,"max":[-3.819999933242798,2.4200000762939453,1.7200000286102295],"min":[-3.859999895095825,2.0199999809265137,0.11999999731779099],"type":"VEC3"},{"bufferView":7,"componentType":5123,"count":6,"type":"SCALAR"},{"bufferView":8,"componentType":5126,"count":4,"type":"VEC3"},{"bufferView":9,"componentType":5126,"count":4,"max":[3.859999895095825,2.4200000762939453,1.7200000286102295],"min":[3.819999933242798,2.0199999809265137,0.11999999731779099],"type":"VEC3"},{"bufferView":10,"componentType":5126,"count":24,"type":"VEC3"},{"bufferView":11,"componentType":5126,"count":24,"max":[3.9000000953674316,2.450000047683716,1.75],"min":[-3.9000000953674316,2.390000104904175,1.690000057220459],"type":"VEC3"},{"bufferView":12,"componentType":5123,"count":36,"type":"SCALAR"},{"bufferView":13,"componentType":5126,"count":24,"type":"VEC3"},{"bufferView":14,"componentType":5126,"count":24,"max":[-4.440000057220459,1.149999976158142,2.759999990463257],"min":[-4.559999942779541,0.15000000596046448,2.640000104904175],"type":"VEC3"},{"bufferView":15,"componentType":5126,"count":24,"type":"VEC2"},{"bufferView":16,"componentType":5126,"count":24,"type":"VEC3"},{"bufferView":17,"componentType":5126,"count":24,"max":[-4.440000057220459,1.149999976158142,1.4600000381469727],"min":[-4.559999942779541,0.15000000596046448,1.340000033378601],"type":"VEC3"},{"bufferView":18,"componentType":5126,"count":24,"type":"VEC2"},{"bufferView":19,"componentType":5126,"count":24,"type":"VEC3"},{"bufferView":20,"componentType":5126,"count":24,"max":[-4.440000057220459,1.149999976158142,0.1599999964237213],"min":[-4.559999942779541,0.15000000596046448,0.03999999910593033],"type":"VEC3"},{"bufferView":21,"componentType":5126,"count":24,"type":"VEC2"},{"bufferView":22,"componentType":5126,"count":24,"type":"VEC3"},{"bufferView":23,"componentType":5126,"count":24,"max":[-4.449999809265137,1.1699999570846558,2.75],"min":[-4.550000190734863,1.0700000524520874,0],"type":"VEC3"},{"bufferView":24,"componentType":5126,"count":24,"type":"VEC2"},{"bufferView":25,"componentType":5126,"count":24,"type":"VEC3"},{"bufferView":26,"componentType":5126,"count":24,"max":[4.559999942779541,1.149999976158142,2.759999990463257],"min":[4.440000057220459,0.15000000596046448,2.640000104904175],"type":"VEC3"},{"bufferView":27,"componentType":5126,"count":24,"type":"VEC2"},{"bufferView":28,"componentType":5126,"count":24,"type":"VEC3"},{"bufferView":29,"componentType":5126,"count":24,"max":[4.559999942779541,1.149999976158142,1.4600000381469727],"min":[4.440000057220459,0.15000000596046448,1.340000033378601],"type":"VEC3"},{"bufferView":30,"componentType":5126,"count":24,"type":"VEC2"},{"bufferView":31,"componentType":5126,"count":24,"type":"VEC3"},{"bufferView":32,"componentType":5126,"count":24,"max":[4.559999942779541,1.149999976158142,0.1599999964237213],"min":[4.440000057220459,0.15000000596046448,0.03999999910593033],"type":"VEC3"},{"bufferView":33,"componentType":5126,"count":24,"type":"VEC2"},{"bufferView":34,"componentType":5126,"count":24,"type":"VEC3"},{"bufferView":35,"componentType":5126,"count":24,"max":[4.550000190734863,1.1699999570846558,2.75],"min":[4.449999809265137,1.0700000524520874,0],"type":"VEC3"},{"bufferView":36,"componentType":5126,"count":24,"type":"VEC2"},{"bufferView":37,"componentType":5126,"count":24,"type":"VEC3"},{"bufferView":38,"componentType":5126,"count":24,"max":[-4.440000057220459,1.149999976158142,2.759999990463257],"min":[-4.559999942779541,0.15000000596046448,2.640000104904175],"type":"VEC3"},{"bufferView":39,"componentType":5126,"count":24,"type":"VEC2"},{"bufferView":40,"componentType":5126,"count":24,"type":"VEC3"},{"bufferView":41,"componentType":5126,"count":24,"max":[-2.140000104904175,1.149999976158142,2.759999990463257],"min":[-2.259999990463257,0.15000000596046448,2.640000104904175],"type":"VEC3"},{"bufferView":42,"componentType":5126,"count":24,"type":"VEC2"},{"bufferView":43,"componentType":5126,"count":24,"type":"VEC3"},{"bufferView":44,"componentType":5126,"count":24,"max":[-2.200000047683716,1.1699999570846558,2.75],"min":[-4.5,1.0700000524520874,2.6500000953674316],"type":"VEC3"},{"bufferView":45,"componentType":5126,"count":24,"type":"VEC2"},{"bufferView":46,"componentType":5126,"count":24,"type":"VEC3"},{"bufferView":47,"componentType":5126,"count":24,"max":[4.559999942779541,1.149999976158142,2.759999990463257],"min":[4.440000057220459,0.15000000596046448,2.640000104904175],"type":"VEC3"},{"bufferView":48,"componentType":5126,"count":24,"type":"VEC2"},{"bufferView":49,"componentType":5126,"count":24,"type":"VEC3"},{"bufferView":50,"componentType":5126,"count":24,"max":[2.259999990463257,1.149999976158142,2.759999990463257],"min":[2.140000104904175,0.15000000596046448,2.640000104904175],"type":"VEC3"},{"bufferView":51,"componentType":5126,"count":24,"type":"VEC2"},{"bufferView":52,"componentType":5126,"count":24,"type":"VEC3"},{"bufferView":53,"componentType":5126,"count":24,"max":[4.5,1.1699999570846558,2.75],"min":[2.200000047683716,1.0700000524520874,2.6500000953674316],"type":"VEC3"},{"bufferView":54,"componentType":5126,"count":24,"type":"VEC2"},{"bufferView":55,"componentType":5126,"count":24,"type":"VEC3"},{"bufferView":56,"componentType":5126,"count":24,"max":[0.10508709400892258,2.999999761581421,0.11982007324695587],"min":[-0.10508733242750168,-1.5052728485898115e-07,-0.11982005089521408],"type":"VEC3"},{"bufferView":57,"componentType":5126,"count":24,"type":"VEC2"},{"bufferView":58,"componentType":5123,"count":36,"type":"SCALAR"},{"bufferView":59,"componentType":5126,"count":24,"type":"VEC3"},{"bufferView":60,"componentType":5126,"count":24,"max":[4.599999904632568,0.15000000596046448,2.799999952316284],"min":[-4.599999904632568,0,0],"type":"VEC3"},{"bufferView":61,"componentType":5126,"count":24,"type":"VEC2"},{"bufferView":62,"componentType":5126,"count":664,"type":"VEC3"},{"bufferView":63,"componentType":5126,"count":664,"max":[1.0716030597686768,2.134512424468994,0.05755815654993057],"min":[-0.04626310616731644,0.0352252721786499,-0.05755755677819252],"type":"VEC3"},{"bufferView":64,"componentType":5126,"count":664,"type":"VEC2"},{"bufferView":65,"componentType":5123,"count":996,"type":"SCALAR"},{"bufferView":66,"componentType":5126,"count":601,"type":"VEC3"},{"bufferView":67,"componentType":5126,"count":601,"max":[1.0157819986343384,1.2524888515472412,0.0917586237192154],"min":[0.027867160737514496,0.07330965995788574,-0.10770562291145325],"type":"VEC3"},{"bufferView":68,"componentType":5126,"count":601,"type":"VEC2"},{"bufferView":69,"componentType":5123,"count":1962,"type":"SCALAR"},{"bufferView":70,"componentType":5126,"count":118,"type":"VEC3"},{"bufferView":71,"componentType":5126,"count":118,"max":[0.7877825498580933,2.3037145137786865,0.14516234397888184],"min":[-0.7862095236778259,-0.008544828742742538,-0.24328981339931488],"type":"VEC3"},{"bufferView":72,"componentType":5126,"count":118,"type":"VEC2"},{"bufferView":73,"componentType":5123,"count":168,"type":"SCALAR"},{"bufferView":74,"componentType":5126,"count":129,"type":"VEC3"},{"bufferView":75,"componentType":5126,"count":129,"max":[0.4457784593105316,3,0.4940085709095001],"min":[-0.5000000596046448,5.820766091346741e-08,-0.49400854110717773],"type":"VEC3"},{"bufferView":76,"componentType":5126,"count":129,"type":"VEC2"},{"bufferView":77,"componentType":5123,"count":390,"type":"SCALAR"},{"bufferView":78,"componentType":5126,"count":504,"type":"VEC3"},{"bufferView":79,"componentType":5126,"count":504,"max":[3.347877264022827,4.383981704711914,0.7941403388977051],"min":[-3.346518039703369,-0.13180209696292877,-0.33496367931365967],"type":"VEC3"},{"bufferView":80,"componentType":5126,"count":504,"type":"VEC2"},{"bufferView":81,"componentType":5123,"count":936,"type":"SCALAR"},{"bufferView":82,"componentType":5126,"count":20,"type":"VEC3"},{"bufferView":83,"componentType":5126,"count":20,"max":[3.1225504875183105,4.377229690551758,1.375610736431554e-11],"min":[-3.1225504875183105,0.019167041406035423,-0.24970144033432007],"type":"VEC3"},{"bufferView":84,"componentType":5126,"count":20,"type":"VEC2"},{"bufferView":85,"componentType":5123,"count":48,"type":"SCALAR"},{"bufferView":86,"componentType":5126,"count":1616,"type":"VEC3"},{"bufferView":87,"componentType":5126,"count":1616,"max":[3.958951234817505,4.342607498168945,4.828753471374512],"min":[-3.958951234817505,-0.7821269035339355,-4.828753471374512],"type":"VEC3"},{"bufferView":88,"componentType":5126,"count":1616,"type":"VEC2"},{"bufferView":89,"componentType":5123,"count":2616,"type":"SCALAR"},{"bufferView":90,"componentType":5126,"count":1540,"type":"VEC3"},{"bufferView":91,"componentType":5126,"count":1540,"max":[4.124891757965088,4.890044689178467,4.8539862632751465],"min":[-4.124891757965088,-0.6384454965591431,-4.756110191345215],"type":"VEC3"},{"bufferView":92,"componentType":5126,"count":1540,"type":"VEC2"},{"bufferView":93,"componentType":5123,"count":4215,"type":"SCALAR"},{"bufferView":94,"componentType":5126,"count":124,"type":"VEC3"},{"bufferView":95,"componentType":5126,"count":124,"max":[0.09985005855560303,0.06566542387008667,0.7651262283325195],"min":[-0.09984996169805527,-0.6772639155387878,-1.62676236925563e-08],"type":"VEC3"},{"bufferView":96,"componentType":5126,"count":124,"type":"VEC2"},{"bufferView":97,"componentType":5123,"count":252,"type":"SCALAR"},{"bufferView":98,"componentType":5126,"count":24,"type":"VEC3"},{"bufferView":99,"componentType":5126,"count":24,"max":[-4.019999980926514,3.0799999237060547,-0.9300000071525574],"min":[-5.019999980926514,2.9200000762939453,-1.0700000524520874],"type":"VEC3"},{"bufferView":100,"componentType":5126,"count":24,"type":"VEC2"},{"bufferView":101,"componentType":5123,"count":36,"type":"SCALAR"},{"bufferView":102,"componentType":5126,"count":24,"type":"VEC3"},{"bufferView":103,"componentType":5126,"count":24,"max":[-4.320000171661377,2.5799999237060547,-0.949999988079071],"min":[-4.96999979019165,1.75,-1.0500000715255737],"type":"VEC3"},{"bufferView":104,"componentType":5126,"count":24,"type":"VEC2"},{"bufferView":105,"componentType":5126,"count":24,"type":"VEC3"},{"bufferView":106,"componentType":5126,"count":24,"max":[-4.454999923706055,2.9200000762939453,-0.9850000143051147],"min":[-4.485000133514404,2.5799999237060547,-1.0149999856948853],"type":"VEC3"},{"bufferView":107,"componentType":5126,"count":24,"type":"VEC3"},{"bufferView":108,"componentType":5126,"count":24,"max":[-4.804999828338623,2.9200000762939453,-0.9850000143051147],"min":[-4.835000038146973,2.5799999237060547,-1.0149999856948853],"type":"VEC3"},{"bufferView":109,"componentType":5126,"count":96,"type":"VEC3"},{"bufferView":110,"componentType":5126,"count":96,"max":[-4.375,2.4200000762939453,-0.9350000023841858],"min":[-4.914999961853027,1.880000114440918,-1.065000057220459],"type":"VEC3"},{"bufferView":111,"componentType":5123,"count":180,"type":"SCALAR"},{"bufferView":112,"componentType":5126,"count":24,"type":"VEC3"},{"bufferView":113,"componentType":5126,"count":24,"max":[-4.289999961853027,2.5999999046325684,-0.9399999976158142],"min":[-5,2.5199999809265137,-1.0600000619888306],"type":"VEC3"},{"bufferView":114,"componentType":5126,"count":24,"type":"VEC2"},{"bufferView":115,"componentType":5126,"count":124,"type":"VEC3"},{"bufferView":116,"componentType":5126,"count":124,"max":[1,3.1226887702941895,0.0924467146396637],"min":[-1.0000001192092896,0.6495776176452637,-0.3140353262424469],"type":"VEC3"},{"bufferView":117,"componentType":5126,"count":124,"type":"VEC2"},{"bufferView":118,"componentType":5123,"count":204,"type":"SCALAR"},{"bufferView":119,"componentType":5126,"count":24,"type":"VEC3"},{"bufferView":120,"componentType":5126,"count":24,"max":[1,3,1.3113415775478643e-07],"min":[-1,0,-0.2000000923871994],"type":"VEC3"},{"bufferView":121,"componentType":5126,"count":24,"type":"VEC2"},{"bufferView":122,"componentType":5123,"count":60,"type":"SCALAR"},{"bufferView":123,"componentType":5126,"count":8,"type":"VEC3"},{"bufferView":124,"componentType":5126,"count":8,"max":[1,0.8799999952316284,4.371138828673793e-08],"min":[-1,0,0],"type":"VEC3"},{"bufferView":125,"componentType":5126,"count":8,"type":"VEC2"},{"bufferView":126,"componentType":5123,"count":12,"type":"SCALAR"},{"bufferView":127,"componentType":5126,"count":126,"type":"VEC3"},{"bufferView":128,"componentType":5126,"count":126,"max":[1,3.1226887702941895,0.0924467146396637],"min":[-1.0000001192092896,-0.0020958781242370605,-0.3140353262424469],"type":"VEC3"},{"bufferView":129,"componentType":5126,"count":126,"type":"VEC2"},{"bufferView":130,"componentType":5123,"count":240,"type":"SCALAR"},{"bufferView":131,"componentType":5126,"count":12,"type":"VEC3"},{"bufferView":132,"componentType":5126,"count":12,"max":[1,3,1.3113415775478643e-07],"min":[-1,0,-0.2000000923871994],"type":"VEC3"},{"bufferView":133,"componentType":5126,"count":12,"type":"VEC2"},{"bufferView":134,"componentType":5123,"count":18,"type":"SCALAR"},{"bufferView":135,"componentType":5126,"count":80,"type":"VEC3"},{"bufferView":136,"componentType":5126,"count":80,"max":[1,3.1226887702941895,0.0924467146396637],"min":[-1.0000001192092896,0.6495776176452637,-0.3140353262424469],"type":"VEC3"},{"bufferView":137,"componentType":5126,"count":80,"type":"VEC2"},{"bufferView":138,"componentType":5123,"count":174,"type":"SCALAR"},{"bufferView":139,"componentType":5126,"count":8,"type":"VEC3"},{"bufferView":140,"componentType":5126,"count":8,"max":[1,3,1.3113415775478643e-07],"min":[-1,0,-0.2000000923871994],"type":"VEC3"},{"bufferView":141,"componentType":5126,"count":8,"type":"VEC2"},{"bufferView":142,"componentType":5123,"count":12,"type":"SCALAR"},{"bufferView":143,"componentType":5126,"count":4,"type":"VEC3"},{"bufferView":144,"componentType":5126,"count":4,"max":[1,0.8799999952316284,4.371138828673793e-08],"min":[-1,0,0],"type":"VEC3"},{"bufferView":145,"componentType":5126,"count":4,"type":"VEC2"},{"bufferView":146,"componentType":5123,"count":6,"type":"SCALAR"},{"bufferView":147,"componentType":5126,"count":32,"type":"VEC3"},{"bufferView":148,"componentType":5126,"count":32,"max":[1,3,1.3113417196564114e-07],"min":[-1,0,-0.2000000923871994],"type":"VEC3"},{"bufferView":149,"componentType":5126,"count":32,"type":"VEC2"},{"bufferView":150,"componentType":5123,"count":96,"type":"SCALAR"},{"bufferView":151,"componentType":5126,"count":8,"type":"VEC3"},{"bufferView":152,"componentType":5126,"count":8,"max":[1,0.8799999952316284,4.371138828673793e-08],"min":[-1,0,0],"type":"VEC3"},{"bufferView":153,"componentType":5126,"count":8,"type":"VEC2"},{"bufferView":154,"componentType":5123,"count":18,"type":"SCALAR"},{"bufferView":155,"componentType":5126,"count":80,"type":"VEC3"},{"bufferView":156,"componentType":5126,"count":80,"max":[1,3.1226887702941895,0.0924467146396637],"min":[-1.0000001192092896,0.6495776176452637,-0.3140353262424469],"type":"VEC3"},{"bufferView":157,"componentType":5126,"count":80,"type":"VEC2"},{"bufferView":158,"componentType":5126,"count":389,"type":"VEC3"},{"bufferView":159,"componentType":5126,"count":389,"max":[1.000000238418579,3.1226887702941895,0.0924467146396637],"min":[-1.000000238418579,0.6495776176452637,-0.3140353262424469],"type":"VEC3"},{"bufferView":160,"componentType":5126,"count":389,"type":"VEC2"},{"bufferView":161,"componentType":5123,"count":732,"type":"SCALAR"},{"bufferView":162,"componentType":5126,"count":8,"type":"VEC3"},{"bufferView":163,"componentType":5126,"count":8,"max":[1,0.8360880613327026,5.960464477539063e-08],"min":[-1,0,-0.2000001072883606],"type":"VEC3"},{"bufferView":164,"componentType":5126,"count":8,"type":"VEC2"},{"bufferView":165,"componentType":5123,"count":12,"type":"SCALAR"},{"bufferView":166,"componentType":5126,"count":272,"type":"VEC3"},{"bufferView":167,"componentType":5126,"count":272,"max":[0.8041172027587891,2.5242888927459717,0.4168574810028076],"min":[-0.8041191101074219,0.94417804479599,-0.26658084988594055],"type":"VEC3"},{"bufferView":168,"componentType":5126,"count":272,"type":"VEC2"},{"bufferView":169,"componentType":5123,"count":408,"type":"SCALAR"},{"bufferView":170,"componentType":5126,"count":45,"type":"VEC3"},{"bufferView":171,"componentType":5126,"count":45,"max":[0.5054702758789062,2.355356216430664,0.003888234496116638],"min":[-0.5054721832275391,1.0971393585205078,0.0038878247141838074],"type":"VEC3"},{"bufferView":172,"componentType":5123,"count":72,"type":"SCALAR"}],"asset":{"generator":"Khronos glTF Blender I/O v5.2.40","version":"2.0"},"bufferViews":[{"buffer":0,"byteOffset":0,"byteLength":768,"target":34962},{"buffer":0,"byteOffset":768,"byteLength":768,"target":34962},{"buffer":0,"byteOffset":1536,"byteLength":192,"target":34963},{"buffer":0,"byteOffset":1728,"byteLength":768,"target":34962},{"buffer":0,"byteOffset":2496,"byteLength":768,"target":34962},{"buffer":0,"byteOffset":3264,"byteLength":48,"target":34962},{"buffer":0,"byteOffset":3312,"byteLength":48,"target":34962},{"buffer":0,"byteOffset":3360,"byteLength":12,"target":34963},{"buffer":0,"byteOffset":3372,"byteLength":48,"target":34962},{"buffer":0,"byteOffset":3420,"byteLength":48,"target":34962},{"buffer":0,"byteOffset":3468,"byteLength":288,"target":34962},{"buffer":0,"byteOffset":3756,"byteLength":288,"target":34962},{"buffer":0,"byteOffset":4044,"byteLength":72,"target":34963},{"buffer":0,"byteOffset":4116,"byteLength":288,"target":34962},{"buffer":0,"byteOffset":4404,"byteLength":288,"target":34962},{"buffer":0,"byteOffset":4692,"byteLength":192,"target":34962},{"buffer":0,"byteOffset":4884,"byteLength":288,"target":34962},{"buffer":0,"byteOffset":5172,"byteLength":288,"target":34962},{"buffer":0,"byteOffset":5460,"byteLength":192,"target":34962},{"buffer":0,"byteOffset":5652,"byteLength":288,"target":34962},{"buffer":0,"byteOffset":5940,"byteLength":288,"target":34962},{"buffer":0,"byteOffset":6228,"byteLength":192,"target":34962},{"buffer":0,"byteOffset":6420,"byteLength":288,"target":34962},{"buffer":0,"byteOffset":6708,"byteLength":288,"target":34962},{"buffer":0,"byteOffset":6996,"byteLength":192,"target":34962},{"buffer":0,"byteOffset":7188,"byteLength":288,"target":34962},{"buffer":0,"byteOffset":7476,"byteLength":288,"target":34962},{"buffer":0,"byteOffset":7764,"byteLength":192,"target":34962},{"buffer":0,"byteOffset":7956,"byteLength":288,"target":34962},{"buffer":0,"byteOffset":8244,"byteLength":288,"target":34962},{"buffer":0,"byteOffset":8532,"byteLength":192,"target":34962},{"buffer":0,"byteOffset":8724,"byteLength":288,"target":34962},{"buffer":0,"byteOffset":9012,"byteLength":288,"target":34962},{"buffer":0,"byteOffset":9300,"byteLength":192,"target":34962},{"buffer":0,"byteOffset":9492,"byteLength":288,"target":34962},{"buffer":0,"byteOffset":9780,"byteLength":288,"target":34962},{"buffer":0,"byteOffset":10068,"byteLength":192,"target":34962},{"buffer":0,"byteOffset":10260,"byteLength":288,"target":34962},{"buffer":0,"byteOffset":10548,"byteLength":288,"target":34962},{"buffer":0,"byteOffset":10836,"byteLength":192,"target":34962},{"buffer":0,"byteOffset":11028,"byteLength":288,"target":34962},{"buffer":0,"byteOffset":11316,"byteLength":288,"target":34962},{"buffer":0,"byteOffset":11604,"byteLength":192,"target":34962},{"buffer":0,"byteOffset":11796,"byteLength":288,"target":34962},{"buffer":0,"byteOffset":12084,"byteLength":288,"target":34962},{"buffer":0,"byteOffset":12372,"byteLength":192,"target":34962},{"buffer":0,"byteOffset":12564,"byteLength":288,"target":34962},{"buffer":0,"byteOffset":12852,"byteLength":288,"target":34962},{"buffer":0,"byteOffset":13140,"byteLength":192,"target":34962},{"buffer":0,"byteOffset":13332,"byteLength":288,"target":34962},{"buffer":0,"byteOffset":13620,"byteLength":288,"target":34962},{"buffer":0,"byteOffset":13908,"byteLength":192,"target":34962},{"buffer":0,"byteOffset":14100,"byteLength":288,"target":34962},{"buffer":0,"byteOffset":14388,"byteLength":288,"target":34962},{"buffer":0,"byteOffset":14676,"byteLength":192,"target":34962},{"buffer":0,"byteOffset":14868,"byteLength":288,"target":34962},{"buffer":0,"byteOffset":15156,"byteLength":288,"target":34962},{"buffer":0,"byteOffset":15444,"byteLength":192,"target":34962},{"buffer":0,"byteOffset":15636,"byteLength":72,"target":34963},{"buffer":0,"byteOffset":15708,"byteLength":288,"target":34962},{"buffer":0,"byteOffset":15996,"byteLength":288,"target":34962},{"buffer":0,"byteOffset":16284,"byteLength":192,"target":34962},{"buffer":0,"byteOffset":16476,"byteLength":7968,"target":34962},{"buffer":0,"byteOffset":24444,"byteLength":7968,"target":34962},{"buffer":0,"byteOffset":32412,"byteLength":5312,"target":34962},{"buffer":0,"byteOffset":37724,"byteLength":1992,"target":34963},{"buffer":0,"byteOffset":39716,"byteLength":7212,"target":34962},{"buffer":0,"byteOffset":46928,"byteLength":7212,"target":34962},{"buffer":0,"byteOffset":54140,"byteLength":4808,"target":34962},{"buffer":0,"byteOffset":58948,"byteLength":3924,"target":34963},{"buffer":0,"byteOffset":62872,"byteLength":1416,"target":34962},{"buffer":0,"byteOffset":64288,"byteLength":1416,"target":34962},{"buffer":0,"byteOffset":65704,"byteLength":944,"target":34962},{"buffer":0,"byteOffset":66648,"byteLength":336,"target":34963},{"buffer":0,"byteOffset":66984,"byteLength":1548,"target":34962},{"buffer":0,"byteOffset":68532,"byteLength":1548,"target":34962},{"buffer":0,"byteOffset":70080,"byteLength":1032,"target":34962},{"buffer":0,"byteOffset":71112,"byteLength":780,"target":34963},{"buffer":0,"byteOffset":71892,"byteLength":6048,"target":34962},{"buffer":0,"byteOffset":77940,"byteLength":6048,"target":34962},{"buffer":0,"byteOffset":83988,"byteLength":4032,"target":34962},{"buffer":0,"byteOffset":88020,"byteLength":1872,"target":34963},{"buffer":0,"byteOffset":89892,"byteLength":240,"target":34962},{"buffer":0,"byteOffset":90132,"byteLength":240,"target":34962},{"buffer":0,"byteOffset":90372,"byteLength":160,"target":34962},{"buffer":0,"byteOffset":90532,"byteLength":96,"target":34963},{"buffer":0,"byteOffset":90628,"byteLength":19392,"target":34962},{"buffer":0,"byteOffset":110020,"byteLength":19392,"target":34962},{"buffer":0,"byteOffset":129412,"byteLength":12928,"target":34962},{"buffer":0,"byteOffset":142340,"byteLength":5232,"target":34963},{"buffer":0,"byteOffset":147572,"byteLength":18480,"target":34962},{"buffer":0,"byteOffset":166052,"byteLength":18480,"target":34962},{"buffer":0,"byteOffset":184532,"byteLength":12320,"target":34962},{"buffer":0,"byteOffset":196852,"byteLength":8430,"target":34963},{"buffer":0,"byteOffset":205284,"byteLength":1488,"target":34962},{"buffer":0,"byteOffset":206772,"byteLength":1488,"target":34962},{"buffer":0,"byteOffset":208260,"byteLength":992,"target":34962},{"buffer":0,"byteOffset":209252,"byteLength":504,"target":34963},{"buffer":0,"byteOffset":209756,"byteLength":288,"target":34962},{"buffer":0,"byteOffset":210044,"byteLength":288,"target":34962},{"buffer":0,"byteOffset":210332,"byteLength":192,"target":34962},{"buffer":0,"byteOffset":210524,"byteLength":72,"target":34963},{"buffer":0,"byteOffset":210596,"byteLength":288,"target":34962},{"buffer":0,"byteOffset":210884,"byteLength":288,"target":34962},{"buffer":0,"byteOffset":211172,"byteLength":192,"target":34962},{"buffer":0,"byteOffset":211364,"byteLength":288,"target":34962},{"buffer":0,"byteOffset":211652,"byteLength":288,"target":34962},{"buffer":0,"byteOffset":211940,"byteLength":288,"target":34962},{"buffer":0,"byteOffset":212228,"byteLength":288,"target":34962},{"buffer":0,"byteOffset":212516,"byteLength":1152,"target":34962},{"buffer":0,"byteOffset":213668,"byteLength":1152,"target":34962},{"buffer":0,"byteOffset":214820,"byteLength":360,"target":34963},{"buffer":0,"byteOffset":215180,"byteLength":288,"target":34962},{"buffer":0,"byteOffset":215468,"byteLength":288,"target":34962},{"buffer":0,"byteOffset":215756,"byteLength":192,"target":34962},{"buffer":0,"byteOffset":215948,"byteLength":1488,"target":34962},{"buffer":0,"byteOffset":217436,"byteLength":1488,"target":34962},{"buffer":0,"byteOffset":218924,"byteLength":992,"target":34962},{"buffer":0,"byteOffset":219916,"byteLength":408,"target":34963},{"buffer":0,"byteOffset":220324,"byteLength":288,"target":34962},{"buffer":0,"byteOffset":220612,"byteLength":288,"target":34962},{"buffer":0,"byteOffset":220900,"byteLength":192,"target":34962},{"buffer":0,"byteOffset":221092,"byteLength":120,"target":34963},{"buffer":0,"byteOffset":221212,"byteLength":96,"target":34962},{"buffer":0,"byteOffset":221308,"byteLength":96,"target":34962},{"buffer":0,"byteOffset":221404,"byteLength":64,"target":34962},{"buffer":0,"byteOffset":221468,"byteLength":24,"target":34963},{"buffer":0,"byteOffset":221492,"byteLength":1512,"target":34962},{"buffer":0,"byteOffset":223004,"byteLength":1512,"target":34962},{"buffer":0,"byteOffset":224516,"byteLength":1008,"target":34962},{"buffer":0,"byteOffset":225524,"byteLength":480,"target":34963},{"buffer":0,"byteOffset":226004,"byteLength":144,"target":34962},{"buffer":0,"byteOffset":226148,"byteLength":144,"target":34962},{"buffer":0,"byteOffset":226292,"byteLength":96,"target":34962},{"buffer":0,"byteOffset":226388,"byteLength":36,"target":34963},{"buffer":0,"byteOffset":226424,"byteLength":960,"target":34962},{"buffer":0,"byteOffset":227384,"byteLength":960,"target":34962},{"buffer":0,"byteOffset":228344,"byteLength":640,"target":34962},{"buffer":0,"byteOffset":228984,"byteLength":348,"target":34963},{"buffer":0,"byteOffset":229332,"byteLength":96,"target":34962},{"buffer":0,"byteOffset":229428,"byteLength":96,"target":34962},{"buffer":0,"byteOffset":229524,"byteLength":64,"target":34962},{"buffer":0,"byteOffset":229588,"byteLength":24,"target":34963},{"buffer":0,"byteOffset":229612,"byteLength":48,"target":34962},{"buffer":0,"byteOffset":229660,"byteLength":48,"target":34962},{"buffer":0,"byteOffset":229708,"byteLength":32,"target":34962},{"buffer":0,"byteOffset":229740,"byteLength":12,"target":34963},{"buffer":0,"byteOffset":229752,"byteLength":384,"target":34962},{"buffer":0,"byteOffset":230136,"byteLength":384,"target":34962},{"buffer":0,"byteOffset":230520,"byteLength":256,"target":34962},{"buffer":0,"byteOffset":230776,"byteLength":192,"target":34963},{"buffer":0,"byteOffset":230968,"byteLength":96,"target":34962},{"buffer":0,"byteOffset":231064,"byteLength":96,"target":34962},{"buffer":0,"byteOffset":231160,"byteLength":64,"target":34962},{"buffer":0,"byteOffset":231224,"byteLength":36,"target":34963},{"buffer":0,"byteOffset":231260,"byteLength":960,"target":34962},{"buffer":0,"byteOffset":232220,"byteLength":960,"target":34962},{"buffer":0,"byteOffset":233180,"byteLength":640,"target":34962},{"buffer":0,"byteOffset":233820,"byteLength":4668,"target":34962},{"buffer":0,"byteOffset":238488,"byteLength":4668,"target":34962},{"buffer":0,"byteOffset":243156,"byteLength":3112,"target":34962},{"buffer":0,"byteOffset":246268,"byteLength":1464,"target":34963},{"buffer":0,"byteOffset":247732,"byteLength":96,"target":34962},{"buffer":0,"byteOffset":247828,"byteLength":96,"target":34962},{"buffer":0,"byteOffset":247924,"byteLength":64,"target":34962},{"buffer":0,"byteOffset":247988,"byteLength":24,"target":34963},{"buffer":0,"byteOffset":248012,"byteLength":3264,"target":34962},{"buffer":0,"byteOffset":251276,"byteLength":3264,"target":34962},{"buffer":0,"byteOffset":254540,"byteLength":2176,"target":34962},{"buffer":0,"byteOffset":256716,"byteLength":816,"target":34963},{"buffer":0,"byteOffset":257532,"byteLength":540,"target":34962},{"buffer":0,"byteOffset":258072,"byteLength":540,"target":34962},{"buffer":0,"byteOffset":258612,"byteLength":144,"target":34963}],"buffers":[{"byteLength":258756,"uri":"boardwalk_cafe.bin"}],"images":[{"name":"T_Brick_BaseColor","uri":"../village/T_Brick_BaseColor.png"},{"name":"T_MetalOrnaments_BaseColor","uri":"../village/T_MetalOrnaments_BaseColor.png"},{"name":"T_Plaster_Luma","uri":"../village/T_Plaster_Luma.png"},{"name":"T_RockTrim_BaseColor","uri":"../village/T_RockTrim_BaseColor.png"},{"name":"T_RoundTiles_BaseColor","uri":"../village/T_RoundTiles_BaseColor.png"},{"name":"T_UnevenBrick_BaseColor","uri":"../village/T_UnevenBrick_BaseColor.png"},{"name":"T_WoodTrim_BaseColor","uri":"../village/T_WoodTrim_BaseColor.png"}],"materials":[{"doubleSided":true,"name":"ClothGreen","pbrMetallicRoughness":{"baseColorFactor":[0.03310476616024971,0.1473190039396286,0.07323895394802094,1],"metallicFactor":0,"roughnessFactor":0.8999999761581421}},{"doubleSided":true,"name":"Cloth2","pbrMetallicRoughness":{"baseColorFactor":[0.7484140992164612,0.6382831931114197,0.4200332760810852,1],"metallicFactor":0,"roughnessFactor":0.8999999761581421}},{"doubleSided":true,"name":"Iron","pbrMetallicRoughness":{"baseColorFactor":[0.0134117491543293,0.0134117491543293,0.015325203537940979,1],"metallicFactor":0,"roughnessFactor":0.5}},{"doubleSided":true,"name":"Wood_mid","pbrMetallicRoughness":{"baseColorFactor":[0.5179,0.5489,0.5787,1.0],"baseColorTexture":{"index":6},"metallicFactor":0,"roughnessFactor":0.8500000238418579}},{"doubleSided":true,"name":"Metal","pbrMetallicRoughness":{"baseColorFactor":[1.0,0.9972,0.9945,1.0],"baseColorTexture":{"index":1},"metallicFactor":0,"roughnessFactor":0.5}},{"doubleSided":true,"name":"Stone","pbrMetallicRoughness":{"baseColorFactor":[1.0,0.9974,0.9977,1.0],"baseColorTexture":{"index":5},"metallicFactor":0,"roughnessFactor":0.8500000238418579}},{"doubleSided":true,"name":"Plaster_butter","pbrMetallicRoughness":{"baseColorFactor":[1.0,0.8583,0.3304,1.0],"baseColorTexture":{"index":2},"metallicFactor":0,"roughnessFactor":0.8500000238418579}},{"doubleSided":true,"name":"Tiles_red","pbrMetallicRoughness":{"baseColorFactor":[1.0,0.9965,0.9971,1.0],"baseColorTexture":{"index":4},"metallicFactor":0,"roughnessFactor":0.699999988079071}},{"doubleSided":true,"name":"SignPaint","pbrMetallicRoughness":{"baseColorFactor":[0.6038273572921753,0.34239163994789124,0.03310476616024971,1],"metallicFactor":0,"roughnessFactor":0.6000000238418579}},{"doubleSided":true,"name":"RockTrim","pbrMetallicRoughness":{"baseColorFactor":[1.0,0.9979,1.0,1.0],"baseColorTexture":{"index":3},"metallicFactor":0,"roughnessFactor":0.8500000238418579}},{"doubleSided":true,"name":"Brick","pbrMetallicRoughness":{"baseColorFactor":[1.0,0.9974,1.0,1.0],"baseColorTexture":{"index":0},"metallicFactor":0,"roughnessFactor":0.8500000238418579}},{"doubleSided":true,"name":"Glass","pbrMetallicRoughness":{"baseColorFactor":[0.03310476616024971,0.05087608844041824,0.07828831672668457,1],"metallicFactor":0,"roughnessFactor":0.20000000298023224}}],"meshes":[{"name":"Awning","primitives":[{"attributes":{"NORMAL":0,"POSITION":1},"indices":2,"material":0}]},{"name":"Awning.001","primitives":[{"attributes":{"NORMAL":3,"POSITION":4},"indices":2,"material":1}]},{"name":"AwningArm","primitives":[{"attributes":{"NORMAL":5,"POSITION":6},"indices":7,"material":2}]},{"name":"AwningArm.001","primitives":[{"attributes":{"NORMAL":8,"POSITION":9},"indices":7,"material":2}]},{"name":"AwningRod","primitives":[{"attributes":{"NORMAL":10,"POSITION":11},"indices":12,"material":2}]},{"name":"Beam","primitives":[{"attributes":{"NORMAL":13,"POSITION":14,"TEXCOORD_0":15},"indices":12,"material":3}]},{"name":"Beam.001","primitives":[{"attributes":{"NORMAL":16,"POSITION":17,"TEXCOORD_0":18},"indices":12,"material":3}]},{"name":"Beam.002","primitives":[{"attributes":{"NORMAL":19,"POSITION":20,"TEXCOORD_0":21},"indices":12,"material":3}]},{"name":"Beam.003","primitives":[{"attributes":{"NORMAL":22,"POSITION":23,"TEXCOORD_0":24},"indices":12,"material":3}]},{"name":"Beam.004","primitives":[{"attributes":{"NORMAL":25,"POSITION":26,"TEXCOORD_0":27},"indices":12,"material":3}]},{"name":"Beam.005","primitives":[{"attributes":{"NORMAL":28,"POSITION":29,"TEXCOORD_0":30},"indices":12,"material":3}]},{"name":"Beam.006","primitives":[{"attributes":{"NORMAL":31,"POSITION":32,"TEXCOORD_0":33},"indices":12,"material":3}]},{"name":"Beam.007","primitives":[{"attributes":{"NORMAL":34,"POSITION":35,"TEXCOORD_0":36},"indices":12,"material":3}]},{"name":"Beam.008","primitives":[{"attributes":{"NORMAL":37,"POSITION":38,"TEXCOORD_0":39},"indices":12,"material":3}]},{"name":"Beam.009","primitives":[{"attributes":{"NORMAL":40,"POSITION":41,"TEXCOORD_0":42},"indices":12,"material":3}]},{"name":"Beam.010","primitives":[{"attributes":{"NORMAL":43,"POSITION":44,"TEXCOORD_0":45},"indices":12,"material":3}]},{"name":"Beam.011","primitives":[{"attributes":{"NORMAL":46,"POSITION":47,"TEXCOORD_0":48},"indices":12,"material":3}]},{"name":"Beam.012","primitives":[{"attributes":{"NORMAL":49,"POSITION":50,"TEXCOORD_0":51},"indices":12,"material":3}]},{"name":"Beam.013","primitives":[{"attributes":{"NORMAL":52,"POSITION":53,"TEXCOORD_0":54},"indices":12,"material":3}]},{"name":"kit_Corner_Exterior_Wood","primitives":[{"attributes":{"NORMAL":55,"POSITION":56,"TEXCOORD_0":57},"indices":58,"material":3}]},{"name":"Deck","primitives":[{"attributes":{"NORMAL":59,"POSITION":60,"TEXCOORD_0":61},"indices":12,"material":3}]},{"name":"kit_Door_8_Flat","primitives":[{"attributes":{"NORMAL":62,"POSITION":63,"TEXCOORD_0":64},"indices":65,"material":3},{"attributes":{"NORMAL":66,"POSITION":67,"TEXCOORD_0":68},"indices":69,"material":4}]},{"name":"kit_DoorFrame_Flat_WoodDark","primitives":[{"attributes":{"NORMAL":70,"POSITION":71,"TEXCOORD_0":72},"indices":73,"material":3}]},{"name":"kit_Prop_Chimney2","primitives":[{"attributes":{"NORMAL":74,"POSITION":75,"TEXCOORD_0":76},"indices":77,"material":5}]},{"name":"kit_Roof_Front_Brick6","primitives":[{"attributes":{"NORMAL":78,"POSITION":79,"TEXCOORD_0":80},"indices":81,"material":3},{"attributes":{"NORMAL":82,"POSITION":83,"TEXCOORD_0":84},"indices":85,"material":6}]},{"name":"kit_Roof_RoundTiles_6x8.001","primitives":[{"attributes":{"NORMAL":86,"POSITION":87,"TEXCOORD_0":88},"indices":89,"material":3},{"attributes":{"NORMAL":90,"POSITION":91,"TEXCOORD_0":92},"indices":93,"material":7}]},{"name":"kit_Roof_Support2","primitives":[{"attributes":{"NORMAL":94,"POSITION":95,"TEXCOORD_0":96},"indices":97,"material":3}]},{"name":"SignArm","primitives":[{"attributes":{"NORMAL":98,"POSITION":99,"TEXCOORD_0":100},"indices":101,"material":3}]},{"name":"SignBoard","primitives":[{"attributes":{"NORMAL":102,"POSITION":103,"TEXCOORD_0":104},"indices":101,"material":3}]},{"name":"SignChain","primitives":[{"attributes":{"NORMAL":105,"POSITION":106},"indices":101,"material":2}]},{"name":"SignChain.001","primitives":[{"attributes":{"NORMAL":107,"POSITION":108},"indices":101,"material":2}]},{"name":"SignEmblem","primitives":[{"attributes":{"NORMAL":109,"POSITION":110},"indices":111,"material":8}]},{"name":"SignFrame","primitives":[{"attributes":{"NORMAL":112,"POSITION":113,"TEXCOORD_0":114},"indices":101,"material":3}]},{"name":"kit_Wall_Plaster_Door_Flat","primitives":[{"attributes":{"NORMAL":115,"POSITION":116,"TEXCOORD_0":117},"indices":118,"material":3},{"attributes":{"NORMAL":119,"POSITION":120,"TEXCOORD_0":121},"indices":122,"material":6},{"attributes":{"NORMAL":123,"POSITION":124,"TEXCOORD_0":125},"indices":126,"material":9}]},{"name":"kit_Wall_Plaster_Straight","primitives":[{"attributes":{"NORMAL":127,"POSITION":128,"TEXCOORD_0":129},"indices":130,"material":3},{"attributes":{"NORMAL":131,"POSITION":132,"TEXCOORD_0":133},"indices":134,"material":6}]},{"name":"kit_Wall_Plaster_Straight_Base","primitives":[{"attributes":{"NORMAL":135,"POSITION":136,"TEXCOORD_0":137},"indices":138,"material":3},{"attributes":{"NORMAL":139,"POSITION":140,"TEXCOORD_0":141},"indices":142,"material":6},{"attributes":{"NORMAL":143,"POSITION":144,"TEXCOORD_0":145},"indices":146,"material":10}]},{"name":"kit_Wall_Plaster_Window_Wide_Flat","primitives":[{"attributes":{"NORMAL":147,"POSITION":148,"TEXCOORD_0":149},"indices":150,"material":6},{"attributes":{"NORMAL":151,"POSITION":152,"TEXCOORD_0":153},"indices":154,"material":10},{"attributes":{"NORMAL":155,"POSITION":156,"TEXCOORD_0":157},"indices":138,"material":3}]},{"name":"kit_Wall_Plaster_WoodGrid","primitives":[{"attributes":{"NORMAL":158,"POSITION":159,"TEXCOORD_0":160},"indices":161,"material":3},{"attributes":{"NORMAL":162,"POSITION":163,"TEXCOORD_0":164},"indices":165,"material":6}]},{"name":"kit_Window_Wide_Flat1","primitives":[{"attributes":{"NORMAL":166,"POSITION":167,"TEXCOORD_0":168},"indices":169,"material":3},{"attributes":{"NORMAL":170,"POSITION":171},"indices":172,"material":11}]}],"nodes":[{"mesh":0,"name":"Awning.029"},{"mesh":1,"name":"Awning.030"},{"mesh":2,"name":"AwningArm.032"},{"mesh":3,"name":"AwningArm.033"},{"mesh":4,"name":"AwningRod.031"},{"mesh":5,"name":"Beam.035"},{"mesh":6,"name":"Beam.036"},{"mesh":7,"name":"Beam.037"},{"mesh":8,"name":"Beam.038"},{"mesh":9,"name":"Beam.039"},{"mesh":10,"name":"Beam.040"},{"mesh":11,"name":"Beam.041"},{"mesh":12,"name":"Beam.042"},{"mesh":13,"name":"Beam.043"},{"mesh":14,"name":"Beam.044"},{"mesh":15,"name":"Beam.045"},{"mesh":16,"name":"Beam.046"},{"mesh":17,"name":"Beam.047"},{"mesh":18,"name":"Beam.048"},{"mesh":19,"name":"Corner_Exterior_Wood.022","translation":[-4,0.15000000596046448,0]},{"mesh":19,"name":"Corner_Exterior_Wood.023","translation":[4,0.15000000596046448,0]},{"mesh":19,"name":"Corner_Exterior_Wood.024","translation":[-4,0.15000000596046448,-6]},{"mesh":19,"name":"Corner_Exterior_Wood.025","translation":[4,0.15000000596046448,-6]},{"mesh":20,"name":"Deck.034"},{"mesh":21,"name":"Door_8_Flat.007","translation":[0.44999998807907104,0.15000000596046448,-0.019999999552965164]},{"mesh":22,"name":"DoorFrame_Flat_WoodDark.006","translation":[1,0.15000000596046448,0]},{"mesh":23,"name":"Prop_Chimney2.056","translation":[2.5,3.622951030731201,-4.800000190734863]},{"mesh":24,"name":"Roof_Front_Brick6.027","rotation":[0,-0.7071068286895752,0,0.7071068286895752],"scale":[1.100000023841858,1,1],"translation":[-4,3.2699999809265137,-3]},{"mesh":24,"name":"Roof_Front_Brick6.028","rotation":[0,0.7071068286895752,0,0.7071068286895752],"scale":[1.100000023841858,1,1],"translation":[4,3.2699999809265137,-3]},{"mesh":25,"name":"Roof_RoundTiles_6x8.026","rotation":[0,-0.7071068286895752,0,0.7071068286895752],"scale":[1.100000023841858,1,1],"translation":[0,3.2699999809265137,-3]},{"mesh":26,"name":"Roof_Support2.050","rotation":[0,-0.7071068286895752,0,0.7071068286895752],"scale":[0.800000011920929,0.8999999761581421,0.6000000238418579],"translation":[-4.019999980926514,2.940000057220459,-1]},{"mesh":27,"name":"SignArm.049"},{"mesh":28,"name":"SignBoard.053"},{"mesh":29,"name":"SignChain.051"},{"mesh":30,"name":"SignChain.052"},{"mesh":31,"name":"SignEmblem.055"},{"mesh":32,"name":"SignFrame.054"},{"mesh":33,"name":"Wall_Plaster_Door_Flat.005","translation":[1,0.15000000596046448,0]},{"mesh":34,"name":"Wall_Plaster_Straight.011","rotation":[0,-1,0,4.371138828673793e-08],"translation":[1,0.15000000596046448,-6]},{"mesh":34,"name":"Wall_Plaster_Straight.012","rotation":[0,-1,0,4.371138828673793e-08],"translation":[-1,0.15000000596046448,-6]},{"mesh":35,"name":"Wall_Plaster_Straight_Base.010","rotation":[0,-1,0,4.371138828673793e-08],"translation":[3,0.15000000596046448,-6]},{"mesh":35,"name":"Wall_Plaster_Straight_Base.013","rotation":[0,-1,0,4.371138828673793e-08],"translation":[-3,0.15000000596046448,-6]},{"mesh":36,"name":"Wall_Plaster_Window_Wide_Flat.001","translation":[-3,0.15000000596046448,0]},{"mesh":36,"name":"Wall_Plaster_Window_Wide_Flat.003","translation":[-1,0.15000000596046448,0]},{"mesh":36,"name":"Wall_Plaster_Window_Wide_Flat.008","translation":[3,0.15000000596046448,0]},{"mesh":36,"name":"Wall_Plaster_Window_Wide_Flat.015","rotation":[0,-0.7071068286895752,0,0.7071068286895752],"translation":[-4,0.15000000596046448,-3]},{"mesh":36,"name":"Wall_Plaster_Window_Wide_Flat.019","rotation":[0,0.7071068286895752,0,0.7071068286895752],"translation":[4,0.15000000596046448,-3]},{"mesh":37,"name":"Wall_Plaster_WoodGrid.014","rotation":[0,-0.7071068286895752,0,0.7071068286895752],"translation":[-4,0.15000000596046448,-5]},{"mesh":37,"name":"Wall_Plaster_WoodGrid.017","rotation":[0,-0.7071068286895752,0,0.7071068286895752],"translation":[-4,0.15000000596046448,-1]},{"mesh":37,"name":"Wall_Plaster_WoodGrid.018","rotation":[0,0.7071068286895752,0,0.7071068286895752],"translation":[4,0.15000000596046448,-1]},{"mesh":37,"name":"Wall_Plaster_WoodGrid.021","rotation":[0,0.7071068286895752,0,0.7071068286895752],"translation":[4,0.15000000596046448,-5]},{"mesh":38,"name":"Window_Wide_Flat1.002","translation":[-3,0.15000000596046448,0]},{"mesh":38,"name":"Window_Wide_Flat1.004","translation":[-1,0.15000000596046448,0]},{"mesh":38,"name":"Window_Wide_Flat1.009","translation":[3,0.15000000596046448,0]},{"mesh":38,"name":"Window_Wide_Flat1.016","rotation":[0,-0.7071068286895752,0,0.7071068286895752],"translation":[-4,0.15000000596046448,-3]},{"mesh":38,"name":"Window_Wide_Flat1.020","rotation":[0,0.7071068286895752,0,0.7071068286895752],"translation":[4,0.15000000596046448,-3]}],"scene":0,"scenes":[{"name":"Scene","nodes":[0,1,2,3,4,5,6,7,8,9,10,11,12,13,14,15,16,17,18,19,20,21,22,23,24,25,26,27,28,29,30,31,32,33,34,35,36,37,38,39,40,41,42,43,44,45,46,47,48,49,50,51,52,53,54,55]}],"textures":[{"source":0},{"source":1},{"source":2},{"source":3},{"source":4},{"source":5},{"source":6}]}