{"accessors":[{"bufferView":0,"componentType":5126,"count":24,"type":"VEC3"},{"bufferView":1,"componentType":5126,"count":24,"max":[3.0999999046325684,4.093999862670898,0.20000000298023224],"min":[-3.0999999046325684,3.7939999103546143,-0.05000000074505806],"type":"VEC3"},{"bufferView":2,"componentType":5126,"count":24,"type":"VEC2"},{"bufferView":3,"componentType":5123,"count":36,"type":"SCALAR"},{"bufferView":4,"componentType":5126,"count":24,"type":"VEC3"},{"bufferView":5,"componentType":5126,"count":24,"max":[0.699999988079071,4.49399995803833,0.1599999964237213],"min":[-0.699999988079071,4.394000053405762,0.03999999910593033],"type":"VEC3"},{"bufferView":6,"componentType":5126,"count":24,"type":"VEC2"},{"bufferView":7,"componentType":5126,"count":24,"type":"VEC3"},{"bufferView":8,"componentType":5126,"count":24,"max":[0.699999988079071,5.794000148773193,0.1599999964237213],"min":[-0.699999988079071,5.693999767303467,0.03999999910593033],"type":"VEC3"},{"bufferView":9,"componentType":5126,"count":24,"type":"VEC2"},{"bufferView":10,"componentType":5126,"count":24,"type":"VEC3"},{"bufferView":11,"componentType":5126,"count":24,"max":[0.10508709400892258,2.999999761581421,0.11982007324695587],"min":[-0.10508733242750168,-1.5052728485898115e-07,-0.11982005089521408],"type":"VEC3"},{"bufferView":12,"componentType":5126,"count":24,"type":"VEC2"},{"bufferView":13,"componentType":5123,"count":36,"type":"SCALAR"},{"bufferView":14,"componentType":5126,"count":664,"type":"VEC3"},{"bufferView":15,"componentType":5126,"count":664,"max":[1.0716030597686768,2.134512424468994,0.05755815654993057],"min":[-0.04626310616731644,0.0352252721786499,-0.05755755677819252],"type":"VEC3"},{"bufferView":16,"componentType":5126,"count":664,"type":"VEC2"},{"bufferView":17,"componentType":5123,"count":996,"type":"SCALAR"},{"bufferView":18,"componentType":5126,"count":601,"type":"VEC3"},{"bufferView":19,"componentType":5126,"count":601,"max":[1.0157819986343384,1.2524888515472412,0.0917586237192154],"min":[0.027867160737514496,0.07330965995788574,-0.10770562291145325],"type":"VEC3"},{"bufferView":20,"componentType":5126,"count":601,"type":"VEC2"},{"bufferView":21,"componentType":5123,"count":1962,"type":"SCALAR"},{"bufferView":22,"componentType":5126,"count":118,"type":"VEC3"},{"bufferView":23,"componentType":5126,"count":118,"max":[0.7877825498580933,2.3037145137786865,0.14516234397888184],"min":[-0.7862095236778259,-0.008544828742742538,-0.24328981339931488],"type":"VEC3"},{"bufferView":24,"componentType":5126,"count":118,"type":"VEC2"},{"bufferView":25,"componentType":5123,"count":168,"type":"SCALAR"},{"bufferView":26,"componentType":5126,"count":24,"type":"VEC3"},{"bufferView":27,"componentType":5126,"count":24,"max":[2.799999952316284,0.38999998569488525,-0.20000000298023224],"min":[-2.799999952316284,0.3499999940395355,-7.800000190734863],"type":"VEC3"},{"bufferView":28,"componentType":5126,"count":24,"type":"VEC2"},{"bufferView":29,"componentType":5126,"count":24,"type":"VEC3"},{"bufferView":30,"componentType":5126,"count":24,"max":[3.200000047683716,0.3499999940395355,0.20000000298023224],"min":[-3.200000047683716,0,-8.199999809265137],"type":"VEC3"},{"bufferView":31,"componentType":5126,"count":24,"type":"VEC2"},{"bufferView":32,"componentType":5126,"count":6,"type":"VEC3"},{"bufferView":33,"componentType":5126,"count":6,"max":[3,7.593999862670898,0],"min":[-3,4.24399995803833,-8],"type":"VEC3"},{"bufferView":34,"componentType":5123,"count":6,"type":"SCALAR"},{"bufferView":35,"componentType":5126,"count":24,"type":"VEC3"},{"bufferView":36,"componentType":5126,"count":24,"max":[0.6000000238418579,5.693999767303467,0.11999999731779099],"min":[-0.6000000238418579,4.49399995803833,0],"type":"VEC3"},{"bufferView":37,"componentType":5126,"count":24,"type":"VEC3"},{"bufferView":38,"componentType":5126,"count":24,"max":[-3,2.9800000190734863,-3.9749999046325684],"min":[-3.4200000762939453,2.930000066757202,-4.025000095367432],"type":"VEC3"},{"bufferView":39,"componentType":5123,"count":36,"type":"SCALAR"},{"bufferView":40,"componentType":5126,"count":24,"type":"VEC3"},{"bufferView":41,"componentType":5126,"count":24,"max":[-3.2300000190734863,2.4700000286102295,-3.880000114440918],"min":[-3.4700000286102295,2.4100000858306885,-4.119999885559082],"type":"VEC3"},{"bufferView":42,"componentType":5126,"count":24,"type":"VEC3"},{"bufferView":43,"componentType":5126,"count":24,"max":[-3.2100000381469727,2.8500001430511475,-3.8600001335144043],"min":[-3.490000009536743,2.7900002002716064,-4.139999866485596],"type":"VEC3"},{"bufferView":44,"componentType":5126,"count":24,"type":"VEC3"},{"bufferView":45,"componentType":5126,"count":24,"max":[-3.25,2.7900002002716064,-3.9000000953674316],"min":[-3.450000047683716,2.4700000286102295,-4.099999904632568],"type":"VEC3"},{"bufferView":46,"componentType":5126,"count":24,"type":"VEC3"},{"bufferView":47,"componentType":5126,"count":24,"max":[-3.3299999237060547,2.940000057220459,-3.9850001335144043],"min":[-3.3600001335144043,2.8500001430511475,-4.014999866485596],"type":"VEC3"},{"bufferView":48,"componentType":5126,"count":24,"type":"VEC3"},{"bufferView":49,"componentType":5126,"count":24,"max":[0.14000000059604645,7.763999938964844,0.5999999046325684],"min":[-0.14000000059604645,7.544000148773193,-8.600000381469727],"type":"VEC3"},{"bufferView":50,"componentType":5126,"count":24,"type":"VEC2"},{"bufferView":51,"componentType":5126,"count":24,"type":"VEC3"},{"bufferView":52,"componentType":5126,"count":24,"max":[3.549999952316284,7.644000053405762,0.5500001907348633],"min":[-0.14996756613254547,3.488342761993408,-8.550000190734863],"type":"VEC3"},{"bufferView":53,"componentType":5126,"count":24,"type":"VEC2"},{"bufferView":54,"componentType":5123,"count":36,"type":"SCALAR"},{"bufferView":55,"componentType":5126,"count":24,"type":"VEC3"},{"bufferView":56,"componentType":5126,"count":24,"max":[0.1499679684638977,7.644000053405762,0.5500001907348633],"min":[-3.5500004291534424,3.488342761993408,-8.55000114440918],"type":"VEC3"},{"bufferView":57,"componentType":5126,"count":24,"type":"VEC2"},{"bufferView":58,"componentType":5123,"count":36,"type":"SCALAR"},{"bufferView":59,"componentType":5126,"count":260,"type":"VEC3"},{"bufferView":60,"componentType":5126,"count":260,"max":[1,3,0.06404569000005722],"min":[-1,-1.1920928955078125e-07,-3.725290298461914e-08],"type":"VEC3"},{"bufferView":61,"componentType":5126,"count":260,"type":"VEC2"},{"bufferView":62,"componentType":5123,"count":588,"type":"SCALAR"},{"bufferView":63,"componentType":5126,"count":124,"type":"VEC3"},{"bufferView":64,"componentType":5126,"count":124,"max":[1,3.1226887702941895,0.0924467146396637],"min":[-1.0000001192092896,0.6495776176452637,-0.3140353262424469],"type":"VEC3"},{"bufferView":65,"componentType":5126,"count":124,"type":"VEC2"},{"bufferView":66,"componentType":5123,"count":204,"type":"SCALAR"},{"bufferView":67,"componentType":5126,"count":24,"type":"VEC3"},{"bufferView":68,"componentType":5126,"count":24,"max":[1,3,1.3113415775478643e-07],"min":[-1,0,-0.2000000923871994],"type":"VEC3"},{"bufferView":69,"componentType":5126,"count":24,"type":"VEC2"},{"bufferView":70,"componentType":5123,"count":60,"type":"SCALAR"},{"bufferView":71,"componentType":5126,"count":8,"type":"VEC3"},{"bufferView":72,"componentType":5126,"count":8,"max":[1,0.8799999952316284,4.371138828673793e-08],"min":[-1,0,0],"type":"VEC3"},{"bufferView":73,"componentType":5126,"count":8,"type":"VEC2"},{"bufferView":74,"componentType":5123,"count":12,"type":"SCALAR"},{"bufferView":75,"componentType":5126,"count":126,"type":"VEC3"},{"bufferView":76,"componentType":5126,"count":126,"max":[1,3.1226887702941895,0.0924467146396637],"min":[-1.0000001192092896,-0.0020958781242370605,-0.3140353262424469],"type":"VEC3"},{"bufferView":77,"componentType":5126,"count":126,"type":"VEC2"},{"bufferView":78,"componentType":5123,"count":240,"type":"SCALAR"},{"bufferView":79,"componentType":5126,"count":12,"type":"VEC3"},{"bufferView":80,"componentType":5126,"count":12,"max":[1,3,1.3113415775478643e-07],"min":[-1,0,-0.2000000923871994],"type":"VEC3"},{"bufferView":81,"componentType":5126,"count":12,"type":"VEC2"},{"bufferView":82,"componentType":5123,"count":18,"type":"SCALAR"},{"bufferView":83,"componentType":5126,"count":389,"type":"VEC3"},{"bufferView":84,"componentType":5126,"count":389,"max":[1.000000238418579,3.1226887702941895,0.0924467146396637],"min":[-1.000000238418579,0.6495776176452637,-0.3140353262424469],"type":"VEC3"},{"bufferView":85,"componentType":5126,"count":389,"type":"VEC2"},{"bufferView":86,"componentType":5123,"count":732,"type":"SCALAR"},{"bufferView":87,"componentType":5126,"count":8,"type":"VEC3"},{"bufferView":88,"componentType":5126,"count":8,"max":[1,0.8360880613327026,5.960464477539063e-08],"min":[-1,0,-0.2000001072883606],"type":"VEC3"},{"bufferView":89,"componentType":5126,"count":8,"type":"VEC2"},{"bufferView":90,"componentType":5123,"count":12,"type":"SCALAR"}],"asset":{"generator":"Khronos glTF Blender I/O v5.2.40","version":"2.0"},"bufferViews":[{"buffer":0,"byteOffset":0,"byteLength":288,"target":34962},{"buffer":0,"byteOffset":288,"byteLength":288,"target":34962},{"buffer":0,"byteOffset":576,"byteLength":192,"target":34962},{"buffer":0,"byteOffset":768,"byteLength":72,"target":34963},{"buffer":0,"byteOffset":840,"byteLength":288,"target":34962},{"buffer":0,"byteOffset":1128,"byteLength":288,"target":34962},{"buffer":0,"byteOffset":1416,"byteLength":192,"target":34962},{"buffer":0,"byteOffset":1608,"byteLength":288,"target":34962},{"buffer":0,"byteOffset":1896,"byteLength":288,"target":34962},{"buffer":0,"byteOffset":2184,"byteLength":192,"target":34962},{"buffer":0,"byteOffset":2376,"byteLength":288,"target":34962},{"buffer":0,"byteOffset":2664,"byteLength":288,"target":34962},{"buffer":0,"byteOffset":2952,"byteLength":192,"target":34962},{"buffer":0,"byteOffset":3144,"byteLength":72,"target":34963},{"buffer":0,"byteOffset":3216,"byteLength":7968,"target":34962},{"buffer":0,"byteOffset":11184,"byteLength":7968,"target":34962},{"buffer":0,"byteOffset":19152,"byteLength":5312,"target":34962},{"buffer":0,"byteOffset":24464,"byteLength":1992,"target":34963},{"buffer":0,"byteOffset":26456,"byteLength":7212,"target":34962},{"buffer":0,"byteOffset":33668,"byteLength":7212,"target":34962},{"buffer":0,"byteOffset":40880,"byteLength":4808,"target":34962},{"buffer":0,"byteOffset":45688,"byteLength":3924,"target":34963},{"buffer":0,"byteOffset":49612,"byteLength":1416,"target":34962},{"buffer":0,"byteOffset":51028,"byteLength":1416,"target":34962},{"buffer":0,"byteOffset":52444,"byteLength":944,"target":34962},{"buffer":0,"byteOffset":53388,"byteLength":336,"target":34963},{"buffer":0,"byteOffset":53724,"byteLength":288,"target":34962},{"buffer":0,"byteOffset":54012,"byteLength":288,"target":34962},{"buffer":0,"byteOffset":54300,"byteLength":192,"target":34962},{"buffer":0,"byteOffset":54492,"byteLength":288,"target":34962},{"buffer":0,"byteOffset":54780,"byteLength":288,"target":34962},{"buffer":0,"byteOffset":55068,"byteLength":192,"target":34962},{"buffer":0,"byteOffset":55260,"byteLength":72,"target":34962},{"buffer":0,"byteOffset":55332,"byteLength":72,"target":34962},{"buffer":0,"byteOffset":55404,"byteLength":12,"target":34963},{"buffer":0,"byteOffset":55416,"byteLength":288,"target":34962},{"buffer":0,"byteOffset":55704,"byteLength":288,"target":34962},{"buffer":0,"byteOffset":55992,"byteLength":288,"target":34962},{"buffer":0,"byteOffset":56280,"byteLength":288,"target":34962},{"buffer":0,"byteOffset":56568,"byteLength":72,"target":34963},{"buffer":0,"byteOffset":56640,"byteLength":288,"target":34962},{"buffer":0,"byteOffset":56928,"byteLength":288,"target":34962},{"buffer":0,"byteOffset":57216,"byteLength":288,"target":34962},{"buffer":0,"byteOffset":57504,"byteLength":288,"target":34962},{"buffer":0,"byteOffset":57792,"byteLength":288,"target":34962},{"buffer":0,"byteOffset":58080,"byteLength":288,"target":34962},{"buffer":0,"byteOffset":58368,"byteLength":288,"target":34962},{"buffer":0,"byteOffset":58656,"byteLength":288,"target":34962},{"buffer":0,"byteOffset":58944,"byteLength":288,"target":34962},{"buffer":0,"byteOffset":59232,"byteLength":288,"target":34962},{"buffer":0,"byteOffset":59520,"byteLength":192,"target":34962},{"buffer":0,"byteOffset":59712,"byteLength":288,"target":34962},{"buffer":0,"byteOffset":60000,"byteLength":288,"target":34962},{"buffer":0,"byteOffset":60288,"byteLength":192,"target":34962},{"buffer":0,"byteOffset":60480,"byteLength":72,"target":34963},{"buffer":0,"byteOffset":60552,"byteLength":288,"target":34962},{"buffer":0,"byteOffset":60840,"byteLength":288,"target":34962},{"buffer":0,"byteOffset":61128,"byteLength":192,"target":34962},{"buffer":0,"byteOffset":61320,"byteLength":72,"target":34963},{"buffer":0,"byteOffset":61392,"byteLength":3120,"target":34962},{"buffer":0,"byteOffset":64512,"byteLength":3120,"target":34962},{"buffer":0,"byteOffset":67632,"byteLength":2080,"target":34962},{"buffer":0,"byteOffset":69712,"byteLength":1176,"target":34963},{"buffer":0,"byteOffset":70888,"byteLength":1488,"target":34962},{"buffer":0,"byteOffset":72376,"byteLength":1488,"target":34962},{"buffer":0,"byteOffset":73864,"byteLength":992,"target":34962},{"buffer":0,"byteOffset":74856,"byteLength":408,"target":34963},{"buffer":0,"byteOffset":75264,"byteLength":288,"target":34962},{"buffer":0,"byteOffset":75552,"byteLength":288,"target":34962},{"buffer":0,"byteOffset":75840,"byteLength":192,"target":34962},{"buffer":0,"byteOffset":76032,"byteLength":120,"target":34963},{"buffer":0,"byteOffset":76152,"byteLength":96,"target":34962},{"buffer":0,"byteOffset":76248,"byteLength":96,"target":34962},{"buffer":0,"byteOffset":76344,"byteLength":64,"target":34962},{"buffer":0,"byteOffset":76408,"byteLength":24,"target":34963},{"buffer":0,"byteOffset":76432,"byteLength":1512,"target":34962},{"buffer":0,"byteOffset":77944,"byteLength":1512,"target":34962},{"buffer":0,"byteOffset":79456,"byteLength":1008,"target":34962},{"buffer":0,"byteOffset":80464,"byteLength":480,"target":34963},{"buffer":0,"byteOffset":80944,"byteLength":144,"target":34962},{"buffer":0,"byteOffset":81088,"byteLength":144,"target":34962},{"buffer":0,"byteOffset":81232,"byteLength":96,"target":34962},{"buffer":0,"byteOffset":81328,"byteLength":36,"target":34963},{"buffer":0,"byteOffset":81364,"byteLength":4668,"target":34962},{"buffer":0,"byteOffset":86032,"byteLength":4668,"target":34962},{"buffer":0,"byteOffset":90700,"byteLength":3112,"target":34962},{"buffer":0,"byteOffset":93812,"byteLength":1464,"target":34963},{"buffer":0,"byteOffset":95276,"byteLength":96,"target":34962},{"buffer":0,"byteOffset":95372,"byteLength":96,"target":34962},{"buffer":0,"byteOffset":95468,"byteLength":64,"target":34962},{"buffer":0,"byteOffset":95532,"byteLength":24,"target":34963}],"buffers":[{"byteLength":95556,"uri":"boathouse.bin"}],"images":[{"name":"T_MetalOrnaments_BaseColor","uri":"../village/T_MetalOrnaments_BaseColor.png"},{"name":"T_Plaster_Luma","uri":"../village/T_Plaster_Luma.png"},{"name":"T_RockTrim_BaseColor","uri":"../village/T_RockTrim_BaseColor.png"},{"name":"T_RoundTiles_Luma","uri":"../village/T_RoundTiles_Luma.png"},{"name":"T_UnevenBrick_BaseColor","uri":"../village/T_UnevenBrick_BaseColor.png"},{"name":"T_WoodTrim_BaseColor","uri":"../village/T_WoodTrim_BaseColor.png"}],"materials":[{"doubleSided":true,"name":"Wood_dark","pbrMetallicRoughness":{"baseColorFactor":[0.2329,0.2659,0.2944,1.0],"baseColorTexture":{"index":5},"metallicFactor":0,"roughnessFactor":0.8500000238418579}},{"doubleSided":true,"name":"Metal","pbrMetallicRoughness":{"baseColorFactor":[1.0,0.9972,0.9945,1.0],"baseColorTexture":{"index":0},"metallicFactor":0,"roughnessFactor":0.5}},{"doubleSided":true,"name":"Stone","pbrMetallicRoughness":{"baseColorFactor":[1.0,0.9974,0.9977,1.0],"baseColorTexture":{"index":4},"metallicFactor":0,"roughnessFactor":0.8500000238418579}},{"doubleSided":true,"name":"Boards","pbrMetallicRoughness":{"baseColorFactor":[0.09462962299585342,0.03968190774321556,0.015325203537940979,1],"metallicFactor":0,"roughnessFactor":0.8999999761581421}},{"doubleSided":true,"name":"Iron","pbrMetallicRoughness":{"baseColorFactor":[0.0134117491543293,0.0134117491543293,0.015325203537940979,1],"metallicFactor":0,"roughnessFactor":0.5}},{"doubleSided":true,"emissiveFactor":[1,0.4479884207248688,0.10048151016235352],"name":"LampGlass","pbrMetallicRoughness":{"baseColorFactor":[1,0.5704815983772278,0.1473190039396286,1],"metallicFactor":0,"roughnessFactor":0.8500000238418579}},{"doubleSided":true,"name":"Tiles_brown","pbrMetallicRoughness":{"baseColorFactor":[0.3822,0.1486,0.0653,1.0],"baseColorTexture":{"index":3},"metallicFactor":0,"roughnessFactor":0.699999988079071}},{"doubleSided":true,"name":"Plaster_white","pbrMetallicRoughness":{"baseColorFactor":[1.0,1.0,0.9092,1.0],"baseColorTexture":{"index":1},"metallicFactor":0,"roughnessFactor":0.8500000238418579}},{"doubleSided":true,"name":"RockTrim","pbrMetallicRoughness":{"baseColorFactor":[1.0,0.9979,1.0,1.0],"baseColorTexture":{"index":2},"metallicFactor":0,"roughnessFactor":0.8500000238418579}}],"meshes":[{"name":"Beam","primitives":[{"attributes":{"NORMAL":0,"POSITION":1,"TEXCOORD_0":2},"indices":3,"material":0}]},{"name":"Beam.001","primitives":[{"attributes":{"NORMAL":4,"POSITION":5,"TEXCOORD_0":6},"indices":3,"material":0}]},{"name":"Beam.002","primitives":[{"attributes":{"NORMAL":7,"POSITION":8,"TEXCOORD_0":9},"indices":3,"material":0}]},{"name":"kit_Corner_Exterior_Wood","primitives":[{"attributes":{"NORMAL":10,"POSITION":11,"TEXCOORD_0":12},"indices":13,"material":0}]},{"name":"kit_Door_8_Flat","primitives":[{"attributes":{"NORMAL":14,"POSITION":15,"TEXCOORD_0":16},"indices":17,"material":0},{"attributes":{"NORMAL":18,"POSITION":19,"TEXCOORD_0":20},"indices":21,"material":1}]},{"name":"kit_DoorFrame_Flat_WoodDark","primitives":[{"attributes":{"NORMAL":22,"POSITION":23,"TEXCOORD_0":24},"indices":25,"material":0}]},{"name":"Floor","primitives":[{"attributes":{"NORMAL":26,"POSITION":27,"TEXCOORD_0":28},"indices":3,"material":0}]},{"name":"Footing","primitives":[{"attributes":{"NORMAL":29,"POSITION":30,"TEXCOORD_0":31},"indices":3,"material":2}]},{"name":"Gable","primitives":[{"attributes":{"NORMAL":32,"POSITION":33},"indices":34,"material":3}]},{"name":"Hatch","primitives":[{"attributes":{"NORMAL":35,"POSITION":36},"indices":3,"material":3}]},{"name":"LanternArm","primitives":[{"attributes":{"NORMAL":37,"POSITION":38},"indices":39,"material":4}]},{"name":"LanternBase","primitives":[{"attributes":{"NORMAL":40,"POSITION":41},"indices":39,"material":4}]},{"name":"LanternCap","primitives":[{"attributes":{"NORMAL":42,"POSITION":43},"indices":39,"material":4}]},{"name":"LanternGlass","primitives":[{"attributes":{"NORMAL":44,"POSITION":45},"indices":39,"material":5}]},{"name":"LanternHook","primitives":[{"attributes":{"NORMAL":46,"POSITION":47},"indices":39,"material":4}]},{"name":"Ridge","primitives":[{"attributes":{"NORMAL":48,"POSITION":49,"TEXCOORD_0":50},"indices":3,"material":0}]},{"name":"RoofSlab","primitives":[{"attributes":{"NORMAL":51,"POSITION":52,"TEXCOORD_0":53},"indices":54,"material":6}]},{"name":"RoofSlab.001","primitives":[{"attributes":{"NORMAL":55,"POSITION":56,"TEXCOORD_0":57},"indices":58,"material":6}]},{"name":"kit_Wall_Arch","primitives":[{"attributes":{"NORMAL":59,"POSITION":60,"TEXCOORD_0":61},"indices":62,"material":0}]},{"name":"kit_Wall_Plaster_Door_Flat","primitives":[{"attributes":{"NORMAL":63,"POSITION":64,"TEXCOORD_0":65},"indices":66,"material":0},{"attributes":{"NORMAL":67,"POSITION":68,"TEXCOORD_0":69},"indices":70,"material":7},{"attributes":{"NORMAL":71,"POSITION":72,"TEXCOORD_0":73},"indices":74,"material":8}]},{"name":"kit_Wall_Plaster_Straight","primitives":[{"attributes":{"NORMAL":75,"POSITION":76,"TEXCOORD_0":77},"indices":78,"material":0},{"attributes":{"NORMAL":79,"POSITION":80,"TEXCOORD_0":81},"indices":82,"material":7}]},{"name":"kit_Wall_Plaster_WoodGrid","primitives":[{"attributes":{"NORMAL":83,"POSITION":84,"TEXCOORD_0":85},"indices":86,"material":0},{"attributes":{"NORMAL":87,"POSITION":88,"TEXCOORD_0":89},"indices":90,"material":7}]}],"nodes":[{"mesh":0,"name":"Beam.025"},{"mesh":1,"name":"Beam.027"},{"mesh":2,"name":"Beam.028"},{"mesh":3,"name":"Corner_Exterior_Wood.016","scale":[1,1.2000000476837158,1],"translation":[-3,0.3499999940395355,0]},{"mesh":3,"name":"Corner_Exterior_Wood.017","scale":[1,1.2000000476837158,1],"translation":[3,0.3499999940395355,0]},{"mesh":3,"name":"Corner_Exterior_Wood.018","scale":[1,1.2000000476837158,1],"translation":[-3,0.3499999940395355,-8]},{"mesh":3,"name":"Corner_Exterior_Wood.019","scale":[1,1.2000000476837158,1],"translation":[3,0.3499999940395355,-8]},{"mesh":4,"name":"Door_8_Flat.010","rotation":[0,-0.7071068286895752,0,0.7071068286895752],"scale":[1,1.2000000476837158,1],"translation":[-2.9800000190734863,0.3499999940395355,-3.549999952316284]},{"mesh":5,"name":"DoorFrame_Flat_WoodDark.009","rotation":[0,-0.7071068286895752,0,0.7071068286895752],"scale":[1,1.2000000476837158,1],"translation":[-3,0.3499999940395355,-3]},{"mesh":6,"name":"Floor.020"},{"mesh":7,"name":"Footing.001"},{"mesh":8,"name":"Gable.023"},{"mesh":9,"name":"Hatch.026"},{"mesh":10,"name":"LanternArm.029"},{"mesh":11,"name":"LanternBase.033"},{"mesh":12,"name":"LanternCap.031"},{"mesh":13,"name":"LanternGlass.032"},{"mesh":14,"name":"LanternHook.030"},{"mesh":15,"name":"Ridge.024"},{"mesh":16,"name":"RoofSlab.021"},{"mesh":17,"name":"RoofSlab.022"},{"mesh":18,"name":"Wall_Arch.002","scale":[3,1.2000000476837158,1],"translation":[0,0.3499999940395355,0]},{"mesh":19,"name":"Wall_Plaster_Door_Flat.008","rotation":[0,-0.7071068286895752,0,0.7071068286895752],"scale":[1,1.2000000476837158,1],"translation":[-3,0.3499999940395355,-3]},{"mesh":20,"name":"Wall_Plaster_Straight.003","rotation":[0,-1,0,4.371138828673793e-08],"scale":[1,1.2000000476837158,1],"translation":[2,0.3499999940395355,-8]},{"mesh":20,"name":"Wall_Plaster_Straight.005","rotation":[0,-1,0,4.371138828673793e-08],"scale":[1,1.2000000476837158,1],"translation":[-2,0.3499999940395355,-8]},{"mesh":20,"name":"Wall_Plaster_Straight.006","rotation":[0,-0.7071068286895752,0,0.7071068286895752],"scale":[1,1.2000000476837158,1],"translation":[-3,0.3499999940395355,-7]},{"mesh":20,"name":"Wall_Plaster_Straight.007","rotation":[0,-0.7071068286895752,0,0.7071068286895752],"scale":[1,1.2000000476837158,1],"translation":[-3,0.3499999940395355,-5]},{"mesh":20,"name":"Wall_Plaster_Straight.011","rotation":[0,-0.7071068286895752,0,0.7071068286895752],"scale":[1,1.2000000476837158,1],"translation":[-3,0.3499999940395355,-1]},{"mesh":20,"name":"Wall_Plaster_Straight.012","rotation":[0,0.7071068286895752,0,0.7071068286895752],"scale":[1,1.2000000476837158,1],"translation":[3,0.3499999940395355,-1]},{"mesh":20,"name":"Wall_Plaster_Straight.013","rotation":[0,0.7071068286895752,0,0.7071068286895752],"scale":[1,1.2000000476837158,1],"translation":[3,0.3499999940395355,-3]},{"mesh":20,"name":"Wall_Plaster_Straight.014","rotation":[0,0.7071068286895752,0,0.7071068286895752],"scale":[1,1.2000000476837158,1],"translation":[3,0.3499999940395355,-5]},{"mesh":20,"name":"Wall_Plaster_Straight.015","rotation":[0,0.7071068286895752,0,0.7071068286895752],"scale":[1,1.2000000476837158,1],"translation":[3,0.3499999940395355,-7]},{"mesh":21,"name":"Wall_Plaster_WoodGrid.004","rotation":[0,-1,0,4.371138828673793e-08],"scale":[1,1.2000000476837158,1],"translation":[0,0.3499999940395355,-8]}],"scene":0,"scenes":[{"name":"Scene","nodes":[0,1,2,3,4,5,6,7,8,9,10,11,12,13,14,15,16,17,18,19,20,21,22,23,24,25,26,27,28,29,30,31,32]}],"textures":[{"source":0},{"source":1},{"source":2},{"source":3},{"source":4},{"source":5}]}