{"accessors":[{"bufferView":0,"componentType":5126,"count":444,"type":"VEC3"},{"bufferView":1,"componentType":5126,"count":444,"max":[4,12.239999771118164,3],"min":[-4,0,-8],"type":"VEC3"},{"bufferView":2,"componentType":5126,"count":444,"type":"VEC2"},{"bufferView":3,"componentType":5123,"count":666,"type":"SCALAR"},{"bufferView":4,"componentType":5126,"count":460,"type":"VEC3"},{"bufferView":5,"componentType":5126,"count":460,"max":[4.050000190734863,10.819999694824219,3],"min":[-4.050000190734863,0,-8],"type":"VEC3"},{"bufferView":6,"componentType":5126,"count":460,"type":"VEC2"},{"bufferView":7,"componentType":5123,"count":690,"type":"SCALAR"},{"bufferView":8,"componentType":5126,"count":576,"type":"VEC3"},{"bufferView":9,"componentType":5126,"count":576,"max":[4.150000095367432,12.5,2.880000114440918],"min":[-4.150000095367432,0,-8.0600004196167],"type":"VEC3"},{"bufferView":10,"componentType":5123,"count":864,"type":"SCALAR"},{"bufferView":11,"componentType":5126,"count":2740,"type":"VEC3"},{"bufferView":12,"componentType":5126,"count":2740,"max":[3.009999990463257,10.390000343322754,0.20000000298023224],"min":[-3.059999942779541,0,-8.199999809265137],"type":"VEC3"},{"bufferView":13,"componentType":5126,"count":2740,"type":"VEC2"},{"bufferView":14,"componentType":5123,"count":4110,"type":"SCALAR"},{"bufferView":15,"componentType":5126,"count":400,"type":"VEC3"},{"bufferView":16,"componentType":5126,"count":400,"max":[2.8499999046325684,10.300000190734863,0.029999999329447746],"min":[-2.9000000953674316,0.3499999940395355,-8.030000686645508],"type":"VEC3"},{"bufferView":17,"componentType":5123,"count":600,"type":"SCALAR"}],"asset":{"generator":"Khronos glTF Blender I/O v5.2.40","version":"2.0"},"bufferViews":[{"buffer":0,"byteOffset":0,"byteLength":5328,"target":34962},{"buffer":0,"byteOffset":5328,"byteLength":5328,"target":34962},{"buffer":0,"byteOffset":10656,"byteLength":3552,"target":34962},{"buffer":0,"byteOffset":14208,"byteLength":1332,"target":34963},{"buffer":0,"byteOffset":15540,"byteLength":5520,"target":34962},{"buffer":0,"byteOffset":21060,"byteLength":5520,"target":34962},{"buffer":0,"byteOffset":26580,"byteLength":3680,"target":34962},{"buffer":0,"byteOffset":30260,"byteLength":1380,"target":34963},{"buffer":0,"byteOffset":31640,"byteLength":6912,"target":34962},{"buffer":0,"byteOffset":38552,"byteLength":6912,"target":34962},{"buffer":0,"byteOffset":45464,"byteLength":1728,"target":34963},{"buffer":0,"byteOffset":47192,"byteLength":32880,"target":34962},{"buffer":0,"byteOffset":80072,"byteLength":32880,"target":34962},{"buffer":0,"byteOffset":112952,"byteLength":21920,"target":34962},{"buffer":0,"byteOffset":134872,"byteLength":8220,"target":34963},{"buffer":0,"byteOffset":143092,"byteLength":4800,"target":34962},{"buffer":0,"byteOffset":147892,"byteLength":4800,"target":34962},{"buffer":0,"byteOffset":152692,"byteLength":1200,"target":34963}],"buffers":[{"byteLength":153892,"uri":"brownstone.bin"}],"images":[{"name":"T_RockTrim_BaseColor","uri":"../village/T_RockTrim_BaseColor.png"},{"name":"T_UnevenBrick_BaseColor","uri":"../village/T_UnevenBrick_BaseColor.png"},{"name":"T_WoodTrim_BaseColor","uri":"../village/T_WoodTrim_BaseColor.png"}],"materials":[{"doubleSided":true,"name":"StoneTinted","pbrMetallicRoughness":{"baseColorFactor":[0.8873,0.4666,0.3746,1.0],"baseColorTexture":{"index":1},"metallicFactor":0,"roughnessFactor":0.8500000238418579}},{"doubleSided":true,"name":"RockTrim","pbrMetallicRoughness":{"baseColorFactor":[1.0,0.9979,1.0,1.0],"baseColorTexture":{"index":0},"metallicFactor":0,"roughnessFactor":0.8500000238418579}},{"doubleSided":true,"name":"Iron","pbrMetallicRoughness":{"baseColorFactor":[0.0134117491543293,0.0134117491543293,0.015325203537940979,1],"metallicFactor":0,"roughnessFactor":0.5}},{"doubleSided":true,"name":"Wood_dark","pbrMetallicRoughness":{"baseColorFactor":[0.2329,0.2659,0.2944,1.0],"baseColorTexture":{"index":2},"metallicFactor":0,"roughnessFactor":0.8500000238418579}},{"doubleSided":true,"name":"Glass","pbrMetallicRoughness":{"baseColorFactor":[0.03310476616024971,0.05087608844041824,0.07828831672668457,1],"metallicFactor":0,"roughnessFactor":0.20000000298023224}}],"meshes":[{"name":"Wall","primitives":[{"attributes":{"NORMAL":0,"POSITION":1,"TEXCOORD_0":2},"indices":3,"material":0},{"attributes":{"NORMAL":4,"POSITION":5,"TEXCOORD_0":6},"indices":7,"material":1},{"attributes":{"NORMAL":8,"POSITION":9},"indices":10,"material":2},{"attributes":{"NORMAL":11,"POSITION":12,"TEXCOORD_0":13},"indices":14,"material":3},{"attributes":{"NORMAL":15,"POSITION":16},"indices":17,"material":4}]}],"nodes":[{"mesh":0,"name":"brownstone"}],"scene":0,"scenes":[{"name":"Scene","nodes":[0]}],"textures":[{"source":0},{"source":1},{"source":2}]}