{"accessors":[{"bufferView":0,"componentType":5126,"count":192,"type":"VEC3"},{"bufferView":1,"componentType":5126,"count":192,"max":[4.001678466796875,4.207309722900391,0.007499999832361937],"min":[-4.001678466796875,3.592507839202881,-0.007499999832361937],"type":"VEC3"},{"bufferView":2,"componentType":5123,"count":288,"type":"SCALAR"},{"bufferView":3,"componentType":5126,"count":72,"type":"VEC3"},{"bufferView":4,"componentType":5126,"count":72,"max":[4.051961421966553,4.5,0.05999999865889549],"min":[-4.051961421966553,0,-0.05999999865889549],"type":"VEC3"},{"bufferView":5,"componentType":5123,"count":120,"type":"SCALAR"},{"bufferView":6,"componentType":5126,"count":72,"type":"VEC3"},{"bufferView":7,"componentType":5126,"count":72,"max":[3.9123077392578125,4.118203639984131,0.0050000096671283245],"min":[-3.802307605743408,3.27820086479187,-0.005000004544854164],"type":"VEC3"},{"bufferView":8,"componentType":5123,"count":96,"type":"SCALAR"},{"bufferView":9,"componentType":5126,"count":54,"type":"VEC3"},{"bufferView":10,"componentType":5126,"count":54,"max":[2.0661537647247314,3.9777626991271973,0.0050000096671283245],"min":[-3.186923027038574,3.2269093990325928,-0.005000004544854164],"type":"VEC3"},{"bufferView":11,"componentType":5123,"count":72,"type":"SCALAR"},{"bufferView":12,"componentType":5126,"count":54,"type":"VEC3"},{"bufferView":13,"componentType":5126,"count":54,"max":[2.6815385818481445,3.849686622619629,0.0050000096671283245],"min":[-2.5715384483337402,3.209474563598633,-0.005000004544854164],"type":"VEC3"},{"bufferView":14,"componentType":5126,"count":54,"type":"VEC3"},{"bufferView":15,"componentType":5126,"count":54,"max":[3.2969231605529785,3.9777626991271973,0.0050000096671283245],"min":[-1.9561538696289062,3.2269093990325928,-0.005000004544854164],"type":"VEC3"}],"asset":{"generator":"Khronos glTF Blender I/O v5.2.40","version":"2.0"},"bufferViews":[{"buffer":0,"byteOffset":0,"byteLength":2304,"target":34962},{"buffer":0,"byteOffset":2304,"byteLength":2304,"target":34962},{"buffer":0,"byteOffset":4608,"byteLength":576,"target":34963},{"buffer":0,"byteOffset":5184,"byteLength":864,"target":34962},{"buffer":0,"byteOffset":6048,"byteLength":864,"target":34962},{"buffer":0,"byteOffset":6912,"byteLength":240,"target":34963},{"buffer":0,"byteOffset":7152,"byteLength":864,"target":34962},{"buffer":0,"byteOffset":8016,"byteLength":864,"target":34962},{"buffer":0,"byteOffset":8880,"byteLength":192,"target":34963},{"buffer":0,"byteOffset":9072,"byteLength":648,"target":34962},{"buffer":0,"byteOffset":9720,"byteLength":648,"target":34962},{"buffer":0,"byteOffset":10368,"byteLength":144,"target":34963},{"buffer":0,"byteOffset":10512,"byteLength":648,"target":34962},{"buffer":0,"byteOffset":11160,"byteLength":648,"target":34962},{"buffer":0,"byteOffset":11808,"byteLength":648,"target":34962},{"buffer":0,"byteOffset":12456,"byteLength":648,"target":34962}],"buffers":[{"byteLength":13104,"uri":"bunting.bin"}],"images":[],"materials":[{"doubleSided":true,"name":"Prop_Sack","pbrMetallicRoughness":{"baseColorFactor":[0.550000011920929,0.41999998688697815,0.25,1],"metallicFactor":0}},{"doubleSided":true,"name":"Prop_OakDark","pbrMetallicRoughness":{"baseColorFactor":[0.18000000715255737,0.09000000357627869,0.03500000014901161,1],"metallicFactor":0,"roughnessFactor":0.8500000238418579}},{"doubleSided":true,"name":"Prop_FlowerRed","pbrMetallicRoughness":{"baseColorFactor":[0.699999988079071,0.05000000074505806,0.05000000074505806,1],"metallicFactor":0,"roughnessFactor":0.699999988079071}},{"doubleSided":true,"name":"Prop_FlowerYellow","pbrMetallicRoughness":{"baseColorFactor":[0.8500000238418579,0.6000000238418579,0.05000000074505806,1],"metallicFactor":0,"roughnessFactor":0.699999988079071}},{"doubleSided":true,"name":"Prop_FlowerViolet","pbrMetallicRoughness":{"baseColorFactor":[0.3199999928474426,0.11999999731779099,0.6000000238418579,1],"metallicFactor":0,"roughnessFactor":0.699999988079071}},{"doubleSided":true,"name":"Prop_FlowerWhite","pbrMetallicRoughness":{"baseColorFactor":[0.8500000238418579,0.8199999928474426,0.75,1],"metallicFactor":0,"roughnessFactor":0.699999988079071}}],"meshes":[{"name":"bunting","primitives":[{"attributes":{"NORMAL":0,"POSITION":1},"indices":2,"material":0},{"attributes":{"NORMAL":3,"POSITION":4},"indices":5,"material":1},{"attributes":{"NORMAL":6,"POSITION":7},"indices":8,"material":2},{"attributes":{"NORMAL":9,"POSITION":10},"indices":11,"material":3},{"attributes":{"NORMAL":12,"POSITION":13},"indices":11,"material":4},{"attributes":{"NORMAL":14,"POSITION":15},"indices":11,"material":5}]}],"nodes":[{"mesh":0,"name":"bunting"}],"scene":0,"scenes":[{"name":"Scene","nodes":[0]}],"textures":[]}