{"accessors":[{"bufferView":0,"componentType":5126,"count":98,"type":"VEC3"},{"bufferView":1,"componentType":5126,"count":98,"max":[0.7159452438354492,1.2750000953674316,0.7128634452819824],"min":[-0.7464467287063599,0,-0.7128634452819824],"type":"VEC3"},{"bufferView":2,"componentType":5123,"count":126,"type":"SCALAR"},{"bufferView":3,"componentType":5126,"count":196,"type":"VEC3"},{"bufferView":4,"componentType":5126,"count":196,"max":[1.0222132205963135,0.9425000548362732,0.6556406021118164],"min":[-1.0222132205963135,0.05550006031990051,-0.6628632545471191],"type":"VEC3"},{"bufferView":5,"componentType":5123,"count":252,"type":"SCALAR"}],"asset":{"generator":"Khronos glTF Blender I/O v5.2.40","version":"2.0"},"bufferViews":[{"buffer":0,"byteOffset":0,"byteLength":1176,"target":34962},{"buffer":0,"byteOffset":1176,"byteLength":1176,"target":34962},{"buffer":0,"byteOffset":2352,"byteLength":252,"target":34963},{"buffer":0,"byteOffset":2604,"byteLength":2352,"target":34962},{"buffer":0,"byteOffset":4956,"byteLength":2352,"target":34962},{"buffer":0,"byteOffset":7308,"byteLength":504,"target":34963}],"buffers":[{"byteLength":7812,"uri":"bush_round.bin"}],"images":[],"materials":[{"doubleSided":true,"name":"Prop_Leaf","pbrMetallicRoughness":{"baseColorFactor":[0.07000000029802322,0.20000000298023224,0.03999999910593033,1],"metallicFactor":0,"roughnessFactor":0.8999999761581421}},{"doubleSided":true,"name":"Prop_LeafDark","pbrMetallicRoughness":{"baseColorFactor":[0.04500000178813934,0.12999999523162842,0.029999999329447746,1],"metallicFactor":0,"roughnessFactor":0.8999999761581421}}],"meshes":[{"name":"bush_round","primitives":[{"attributes":{"NORMAL":0,"POSITION":1},"indices":2,"material":0},{"attributes":{"NORMAL":3,"POSITION":4},"indices":5,"material":1}]}],"nodes":[{"mesh":0,"name":"bush_round"}],"scene":0,"scenes":[{"name":"Scene","nodes":[0]}],"textures":[]}