{"accessors":[{"bufferView":0,"componentType":5126,"count":108,"max":[0.2199999988079071,2.299999952316284,0.2199999988079071],"min":[-0.2199999988079071,0,-0.2199999988079071],"type":"VEC3"},{"bufferView":1,"componentType":5126,"count":108,"type":"VEC3"},{"bufferView":2,"componentType":5126,"count":108,"type":"VEC2"},{"bufferView":3,"componentType":5123,"count":180,"type":"SCALAR"},{"bufferView":4,"componentType":5126,"count":72,"max":[1.2530237436294556,2.459449291229248,1.2530237436294556],"min":[-1.2530237436294556,2.040550708770752,-1.2530237436294556],"type":"VEC3"},{"bufferView":5,"componentType":5126,"count":72,"type":"VEC3"},{"bufferView":6,"componentType":5126,"count":72,"type":"VEC2"},{"bufferView":7,"componentType":5123,"count":96,"type":"SCALAR"},{"bufferView":8,"componentType":5126,"count":72,"max":[1.2530237436294556,2.459449291229248,1.2530237436294556],"min":[-1.2530237436294556,2.040550708770752,-1.2530237436294556],"type":"VEC3"},{"bufferView":9,"componentType":5126,"count":72,"type":"VEC3"},{"bufferView":10,"componentType":5126,"count":72,"type":"VEC2"},{"bufferView":11,"componentType":5123,"count":96,"type":"SCALAR"},{"bufferView":12,"componentType":5126,"count":60,"max":[0.39944374561309814,0.7599999904632568,0.41999998688697815],"min":[-0.39944374561309814,0.7200000286102295,-0.41999998688697815],"type":"VEC3"},{"bufferView":13,"componentType":5126,"count":60,"type":"VEC3"},{"bufferView":14,"componentType":5126,"count":60,"type":"VEC2"},{"bufferView":15,"componentType":5123,"count":108,"type":"SCALAR"}],"asset":{"generator":"Khronos glTF Blender I/O v5.2.40","version":"2.0"},"bufferViews":[{"buffer":0,"byteLength":1296,"byteOffset":0,"target":34962},{"buffer":0,"byteLength":1296,"byteOffset":1296,"target":34962},{"buffer":0,"byteLength":864,"byteOffset":2592,"target":34962},{"buffer":0,"byteLength":360,"byteOffset":3456,"target":34963},{"buffer":0,"byteLength":864,"byteOffset":3816,"target":34962},{"buffer":0,"byteLength":864,"byteOffset":4680,"target":34962},{"buffer":0,"byteLength":576,"byteOffset":5544,"target":34962},{"buffer":0,"byteLength":192,"byteOffset":6120,"target":34963},{"buffer":0,"byteLength":864,"byteOffset":6312,"target":34962},{"buffer":0,"byteLength":864,"byteOffset":7176,"target":34962},{"buffer":0,"byteLength":576,"byteOffset":8040,"target":34962},{"buffer":0,"byteLength":192,"byteOffset":8616,"target":34963},{"buffer":0,"byteLength":720,"byteOffset":8808,"target":34962},{"buffer":0,"byteLength":720,"byteOffset":9528,"target":34962},{"buffer":0,"byteLength":480,"byteOffset":10248,"target":34962},{"buffer":0,"byteLength":216,"byteOffset":10728,"target":34963}],"buffers":[{"byteLength":10944,"uri":"cafe_umbrella.bin"}],"images":[],"materials":[{"doubleSided":true,"name":"Prop_Iron","pbrMetallicRoughness":{"baseColorFactor":[0.03500000014901161,0.03500000014901161,0.03999999910593033,1],"metallicFactor":0,"roughnessFactor":0.5}},{"doubleSided":true,"name":"Prop_AwningTeal","pbrMetallicRoughness":{"baseColorFactor":[0.05000000074505806,0.3799999952316284,0.36000001430511475,1],"metallicFactor":0,"roughnessFactor":0.8999999761581421}},{"doubleSided":true,"name":"Prop_CreamCloth","pbrMetallicRoughness":{"baseColorFactor":[0.800000011920929,0.7200000286102295,0.5600000023841858,1],"metallicFactor":0}},{"doubleSided":true,"name":"Prop_PaintWhite","pbrMetallicRoughness":{"baseColorFactor":[0.7799999713897705,0.7599999904632568,0.699999988079071,1],"metallicFactor":0,"roughnessFactor":0.800000011920929}}],"meshes":[{"name":"cafe_umbrella","primitives":[{"attributes":{"NORMAL":1,"POSITION":0,"TEXCOORD_0":2},"indices":3,"material":0},{"attributes":{"NORMAL":5,"POSITION":4,"TEXCOORD_0":6},"indices":7,"material":1},{"attributes":{"NORMAL":9,"POSITION":8,"TEXCOORD_0":10},"indices":11,"material":2},{"attributes":{"NORMAL":13,"POSITION":12,"TEXCOORD_0":14},"indices":15,"material":3}]}],"nodes":[{"mesh":0,"name":"cafe_umbrella"}],"scene":0,"scenes":[{"name":"Scene","nodes":[0]}],"textures":[]}
