{"accessors":[{"bufferView":0,"componentType":5126,"count":96,"type":"VEC3"},{"bufferView":1,"componentType":5126,"count":96,"max":[0.8449999690055847,0.8899999856948853,0.20000000298023224],"min":[-0.8449999690055847,0.42499998211860657,-0.20000000298023224],"type":"VEC3"},{"bufferView":2,"componentType":5123,"count":144,"type":"SCALAR"},{"bufferView":3,"componentType":5126,"count":60,"type":"VEC3"},{"bufferView":4,"componentType":5126,"count":60,"max":[0.39944374561309814,0.7599999904632568,0.41999998688697815],"min":[-0.39944374561309814,0.7200000286102295,-0.41999998688697815],"type":"VEC3"},{"bufferView":5,"componentType":5123,"count":108,"type":"SCALAR"},{"bufferView":6,"componentType":5126,"count":258,"type":"VEC3"},{"bufferView":7,"componentType":5126,"count":258,"max":[0.8050000071525574,0.7200000286102295,0.2199999988079071],"min":[-0.8050000071525574,0,-0.2199999988079071],"type":"VEC3"},{"bufferView":8,"componentType":5123,"count":396,"type":"SCALAR"},{"bufferView":9,"componentType":5126,"count":30,"type":"VEC3"},{"bufferView":10,"componentType":5126,"count":30,"max":[0.02377641387283802,2.200000047683716,0.02022542618215084],"min":[-0.02377641387283802,0,-0.02500000037252903],"type":"VEC3"},{"bufferView":11,"componentType":5123,"count":48,"type":"SCALAR"},{"bufferView":12,"componentType":5126,"count":72,"type":"VEC3"},{"bufferView":13,"componentType":5126,"count":72,"max":[1.2533543109893799,2.3093175888061523,1.2533543109893799],"min":[-1.2533543109893799,1.8406823873519897,-1.2533543109893799],"type":"VEC3"},{"bufferView":14,"componentType":5123,"count":96,"type":"SCALAR"},{"bufferView":15,"componentType":5126,"count":72,"type":"VEC3"},{"bufferView":16,"componentType":5126,"count":72,"max":[1.2533543109893799,2.3093175888061523,1.2533543109893799],"min":[-1.2533543109893799,1.8406823873519897,-1.2533543109893799],"type":"VEC3"},{"bufferView":17,"componentType":5123,"count":96,"type":"SCALAR"}],"asset":{"generator":"Khronos glTF Blender I/O v5.2.40","version":"2.0"},"bufferViews":[{"buffer":0,"byteOffset":0,"byteLength":1152,"target":34962},{"buffer":0,"byteOffset":1152,"byteLength":1152,"target":34962},{"buffer":0,"byteOffset":2304,"byteLength":288,"target":34963},{"buffer":0,"byteOffset":2592,"byteLength":720,"target":34962},{"buffer":0,"byteOffset":3312,"byteLength":720,"target":34962},{"buffer":0,"byteOffset":4032,"byteLength":216,"target":34963},{"buffer":0,"byteOffset":4248,"byteLength":3096,"target":34962},{"buffer":0,"byteOffset":7344,"byteLength":3096,"target":34962},{"buffer":0,"byteOffset":10440,"byteLength":792,"target":34963},{"buffer":0,"byteOffset":11232,"byteLength":360,"target":34962},{"buffer":0,"byteOffset":11592,"byteLength":360,"target":34962},{"buffer":0,"byteOffset":11952,"byteLength":96,"target":34963},{"buffer":0,"byteOffset":12048,"byteLength":864,"target":34962},{"buffer":0,"byteOffset":12912,"byteLength":864,"target":34962},{"buffer":0,"byteOffset":13776,"byteLength":192,"target":34963},{"buffer":0,"byteOffset":13968,"byteLength":864,"target":34962},{"buffer":0,"byteOffset":14832,"byteLength":864,"target":34962},{"buffer":0,"byteOffset":15696,"byteLength":192,"target":34963}],"buffers":[{"byteLength":15888,"uri":"cafe_table.bin"}],"images":[],"materials":[{"doubleSided":true,"name":"Prop_PaintGreen","pbrMetallicRoughness":{"baseColorFactor":[0.14000000059604645,0.30000001192092896,0.1599999964237213,1],"metallicFactor":0,"roughnessFactor":0.699999988079071}},{"doubleSided":true,"name":"Prop_PaintWhite","pbrMetallicRoughness":{"baseColorFactor":[0.7799999713897705,0.7599999904632568,0.699999988079071,1],"metallicFactor":0,"roughnessFactor":0.800000011920929}},{"doubleSided":true,"name":"Prop_Iron","pbrMetallicRoughness":{"baseColorFactor":[0.03500000014901161,0.03500000014901161,0.03999999910593033,1],"metallicFactor":0,"roughnessFactor":0.5}},{"doubleSided":true,"name":"Prop_OakDark","pbrMetallicRoughness":{"baseColorFactor":[0.18000000715255737,0.09000000357627869,0.03500000014901161,1],"metallicFactor":0,"roughnessFactor":0.8500000238418579}},{"doubleSided":true,"name":"Prop_CreamCloth","pbrMetallicRoughness":{"baseColorFactor":[0.800000011920929,0.7200000286102295,0.5600000023841858,1],"metallicFactor":0}},{"doubleSided":true,"name":"Prop_RedCloth","pbrMetallicRoughness":{"baseColorFactor":[0.550000011920929,0.07999999821186066,0.05999999865889549,1],"metallicFactor":0}}],"meshes":[{"name":"cafe_table","primitives":[{"attributes":{"NORMAL":0,"POSITION":1},"indices":2,"material":0},{"attributes":{"NORMAL":3,"POSITION":4},"indices":5,"material":1},{"attributes":{"NORMAL":6,"POSITION":7},"indices":8,"material":2},{"attributes":{"NORMAL":9,"POSITION":10},"indices":11,"material":3},{"attributes":{"NORMAL":12,"POSITION":13},"indices":14,"material":4},{"attributes":{"NORMAL":15,"POSITION":16},"indices":17,"material":5}]}],"nodes":[{"mesh":0,"name":"cafe_table"}],"scene":0,"scenes":[{"name":"Scene","nodes":[0]}],"textures":[]}