{"accessors":[{"bufferView":0,"componentType":5126,"count":144,"type":"VEC3"},{"bufferView":1,"componentType":5126,"count":144,"max":[2.950000047683716,9.350000381469727,0.6000000238418579],"min":[-2.950000047683716,0,-9.149999618530273],"type":"VEC3"},{"bufferView":2,"componentType":5126,"count":144,"type":"VEC2"},{"bufferView":3,"componentType":5123,"count":234,"type":"SCALAR"},{"bufferView":4,"componentType":5126,"count":388,"type":"VEC3"},{"bufferView":5,"componentType":5126,"count":388,"max":[3.250000238418579,9.899999618530273,0.75],"min":[-3.250000238418579,0,-9],"type":"VEC3"},{"bufferView":6,"componentType":5126,"count":388,"type":"VEC2"},{"bufferView":7,"componentType":5123,"count":576,"type":"SCALAR"},{"bufferView":8,"componentType":5126,"count":660,"type":"VEC3"},{"bufferView":9,"componentType":5126,"count":660,"max":[3.000000238418579,3.950000047683716,0.14000000059604645],"min":[-3,0.4000000059604645,-9.199999809265137],"type":"VEC3"},{"bufferView":10,"componentType":5126,"count":660,"type":"VEC2"},{"bufferView":11,"componentType":5123,"count":990,"type":"SCALAR"},{"bufferView":12,"componentType":5126,"count":60,"type":"VEC3"},{"bufferView":13,"componentType":5126,"count":60,"max":[0.5299999713897705,9,0.25],"min":[-0.30000001192092896,1.5520000457763672,-0.3499999940395355],"type":"VEC3"},{"bufferView":14,"componentType":5123,"count":96,"type":"SCALAR"},{"bufferView":15,"componentType":5126,"count":170,"type":"VEC3"},{"bufferView":16,"componentType":5126,"count":170,"max":[2.830000162124634,6,0.050000034272670746],"min":[-2.8299999237060547,1.600000023841858,-9.029999732971191],"type":"VEC3"},{"bufferView":17,"componentType":5123,"count":228,"type":"SCALAR"},{"bufferView":18,"componentType":5126,"count":336,"type":"VEC3"},{"bufferView":19,"componentType":5126,"count":336,"max":[3.1499991416931152,10.069999694824219,0.8300000429153442],"min":[-3.1499996185302734,3.6063594818115234,-9.399999618530273],"type":"VEC3"},{"bufferView":20,"componentType":5126,"count":336,"type":"VEC2"},{"bufferView":21,"componentType":5123,"count":504,"type":"SCALAR"}],"asset":{"generator":"Khronos glTF Blender I/O v5.2.40","version":"2.0"},"bufferViews":[{"buffer":0,"byteOffset":0,"byteLength":1728,"target":34962},{"buffer":0,"byteOffset":1728,"byteLength":1728,"target":34962},{"buffer":0,"byteOffset":3456,"byteLength":1152,"target":34962},{"buffer":0,"byteOffset":4608,"byteLength":468,"target":34963},{"buffer":0,"byteOffset":5076,"byteLength":4656,"target":34962},{"buffer":0,"byteOffset":9732,"byteLength":4656,"target":34962},{"buffer":0,"byteOffset":14388,"byteLength":3104,"target":34962},{"buffer":0,"byteOffset":17492,"byteLength":1152,"target":34963},{"buffer":0,"byteOffset":18644,"byteLength":7920,"target":34962},{"buffer":0,"byteOffset":26564,"byteLength":7920,"target":34962},{"buffer":0,"byteOffset":34484,"byteLength":5280,"target":34962},{"buffer":0,"byteOffset":39764,"byteLength":1980,"target":34963},{"buffer":0,"byteOffset":41744,"byteLength":720,"target":34962},{"buffer":0,"byteOffset":42464,"byteLength":720,"target":34962},{"buffer":0,"byteOffset":43184,"byteLength":192,"target":34963},{"buffer":0,"byteOffset":43376,"byteLength":2040,"target":34962},{"buffer":0,"byteOffset":45416,"byteLength":2040,"target":34962},{"buffer":0,"byteOffset":47456,"byteLength":456,"target":34963},{"buffer":0,"byteOffset":47912,"byteLength":4032,"target":34962},{"buffer":0,"byteOffset":51944,"byteLength":4032,"target":34962},{"buffer":0,"byteOffset":55976,"byteLength":2688,"target":34962},{"buffer":0,"byteOffset":58664,"byteLength":1008,"target":34963}],"buffers":[{"byteLength":59672,"uri":"chapel.bin"}],"images":[{"name":"T_RockTrim_BaseColor","uri":"../village/T_RockTrim_BaseColor.png"},{"name":"T_RoundTiles_Luma","uri":"../village/T_RoundTiles_Luma.png"},{"name":"T_UnevenBrick_BaseColor","uri":"../village/T_UnevenBrick_BaseColor.png"},{"name":"T_WoodTrim_BaseColor","uri":"../village/T_WoodTrim_BaseColor.png"}],"materials":[{"doubleSided":true,"name":"RockTrim","pbrMetallicRoughness":{"baseColorFactor":[1.0,0.9979,1.0,1.0],"baseColorTexture":{"index":0},"metallicFactor":0,"roughnessFactor":0.8500000238418579}},{"doubleSided":true,"name":"StoneTinted","pbrMetallicRoughness":{"baseColorFactor":[1.0,1.0,1.0,1.0],"baseColorTexture":{"index":2},"metallicFactor":0,"roughnessFactor":0.8500000238418579}},{"doubleSided":true,"name":"Wood_dark","pbrMetallicRoughness":{"baseColorFactor":[0.2329,0.2659,0.2944,1.0],"baseColorTexture":{"index":3},"metallicFactor":0,"roughnessFactor":0.8500000238418579}},{"doubleSided":true,"name":"Iron","pbrMetallicRoughness":{"baseColorFactor":[0.0134117491543293,0.0134117491543293,0.015325203537940979,1],"metallicFactor":0,"roughnessFactor":0.5}},{"doubleSided":true,"name":"Glass","pbrMetallicRoughness":{"baseColorFactor":[0.03310476616024971,0.05087608844041824,0.07828831672668457,1],"metallicFactor":0,"roughnessFactor":0.20000000298023224}},{"doubleSided":true,"name":"HouseTiles","pbrMetallicRoughness":{"baseColorFactor":[0.1477,0.1884,0.2641,1.0],"baseColorTexture":{"index":1},"metallicFactor":0,"roughnessFactor":0.699999988079071}}],"meshes":[{"name":"Plinth","primitives":[{"attributes":{"NORMAL":0,"POSITION":1,"TEXCOORD_0":2},"indices":3,"material":0},{"attributes":{"NORMAL":4,"POSITION":5,"TEXCOORD_0":6},"indices":7,"material":1},{"attributes":{"NORMAL":8,"POSITION":9,"TEXCOORD_0":10},"indices":11,"material":2},{"attributes":{"NORMAL":12,"POSITION":13},"indices":14,"material":3},{"attributes":{"NORMAL":15,"POSITION":16},"indices":17,"material":4},{"attributes":{"NORMAL":18,"POSITION":19,"TEXCOORD_0":20},"indices":21,"material":5}]}],"nodes":[{"mesh":0,"name":"chapel"}],"scene":0,"scenes":[{"name":"Scene","nodes":[0]}],"textures":[{"source":0},{"source":1},{"source":2},{"source":3}]}