{"accessors":[{"bufferView":0,"componentType":5126,"count":1236,"type":"VEC3"},{"bufferView":1,"componentType":5126,"count":1236,"max":[18.479999542236328,12.420000076293945,0],"min":[-18.479999542236328,0,-30.8799991607666],"type":"VEC3"},{"bufferView":2,"componentType":5123,"count":1854,"type":"SCALAR"},{"bufferView":3,"componentType":5126,"count":808,"type":"VEC3"},{"bufferView":4,"componentType":5126,"count":808,"max":[16.600000381469727,4.519999980926514,0],"min":[-16.600000381469727,0,-27.040000915527344],"type":"VEC3"},{"bufferView":5,"componentType":5126,"count":808,"type":"VEC2"},{"bufferView":6,"componentType":5123,"count":1212,"type":"SCALAR"},{"bufferView":7,"componentType":5126,"count":5670,"type":"VEC3"},{"bufferView":8,"componentType":5126,"count":5670,"max":[18.100000381469727,9.869999885559082,0.7599999904632568],"min":[-18.100000381469727,0,-29.915000915527344],"type":"VEC3"},{"bufferView":9,"componentType":5123,"count":9288,"type":"SCALAR"},{"bufferView":10,"componentType":5126,"count":196,"type":"VEC3"},{"bufferView":11,"componentType":5126,"count":196,"max":[17.959999084472656,2.242000102996826,-0.3999999761581421],"min":[-17.959999084472656,0.20480000972747803,-4.679999828338623],"type":"VEC3"},{"bufferView":12,"componentType":5123,"count":924,"type":"SCALAR"},{"bufferView":13,"componentType":5126,"count":3356,"type":"VEC3"},{"bufferView":14,"componentType":5126,"count":3356,"max":[18.5,13.970000267028809,-4.599999904632568],"min":[-18.5,0,-30.899999618530273],"type":"VEC3"},{"bufferView":15,"componentType":5126,"count":3356,"type":"VEC2"},{"bufferView":16,"componentType":5123,"count":5166,"type":"SCALAR"},{"bufferView":17,"componentType":5126,"count":752,"type":"VEC3"},{"bufferView":18,"componentType":5126,"count":752,"max":[9.279999732971191,10.508000373840332,-9.399999618530273],"min":[-9.279999732971191,1.9199999570846558,-30],"type":"VEC3"},{"bufferView":19,"componentType":5123,"count":1128,"type":"SCALAR"},{"bufferView":20,"componentType":5126,"count":188,"type":"VEC3"},{"bufferView":21,"componentType":5126,"count":188,"max":[10.319999694824219,6.130040168762207,0.7200000286102295],"min":[-10.319999694824219,1.850000023841858,-29.940000534057617],"type":"VEC3"},{"bufferView":22,"componentType":5123,"count":282,"type":"SCALAR"},{"bufferView":23,"componentType":5126,"count":96,"type":"VEC3"},{"bufferView":24,"componentType":5126,"count":96,"max":[18.020002365112305,9.720000267028809,-9.579999923706055],"min":[-18.01999855041504,2.819999933242798,-26],"type":"VEC3"},{"bufferView":25,"componentType":5123,"count":144,"type":"SCALAR"},{"bufferView":26,"componentType":5126,"count":24,"type":"VEC3"},{"bufferView":27,"componentType":5126,"count":24,"max":[10.149999618530273,10.234999656677246,-7.769999980926514],"min":[-10.149999618530273,2.0450000762939453,-29.549999237060547],"type":"VEC3"},{"bufferView":28,"componentType":5123,"count":36,"type":"SCALAR"},{"bufferView":29,"componentType":5126,"count":544,"type":"VEC3"},{"bufferView":30,"componentType":5126,"count":544,"max":[10.600001335144043,10.020000457763672,-10],"min":[-10.600000381469727,1.9199999570846558,-30],"type":"VEC3"},{"bufferView":31,"componentType":5123,"count":816,"type":"SCALAR"},{"bufferView":32,"componentType":5126,"count":420,"type":"VEC3"},{"bufferView":33,"componentType":5126,"count":420,"max":[10.362517356872559,5.539999961853027,-10.234000205993652],"min":[-10.362515449523926,3.2149999141693115,-28.826000213623047],"type":"VEC3"},{"bufferView":34,"componentType":5123,"count":1008,"type":"SCALAR"},{"bufferView":35,"componentType":5126,"count":725,"type":"VEC3"},{"bufferView":36,"componentType":5126,"count":725,"max":[10.364001274108887,5.62000036239624,-10.237174987792969],"min":[-10.359416007995605,2.869999885559082,-28.822824478149414],"type":"VEC3"},{"bufferView":37,"componentType":5123,"count":1131,"type":"SCALAR"},{"bufferView":38,"componentType":5126,"count":20,"type":"VEC3"},{"bufferView":39,"componentType":5126,"count":20,"max":[0.3199999928474426,3.0799999237060547,-26.420000076293945],"min":[-0.3199999928474426,3,-26.899999618530273],"type":"VEC3"},{"bufferView":40,"componentType":5123,"count":30,"type":"SCALAR"},{"bufferView":41,"componentType":5126,"count":288,"type":"VEC3"},{"bufferView":42,"componentType":5126,"count":288,"max":[10.52800178527832,4.388999938964844,-13.79699993133545],"min":[-10.527998924255371,3.369999885559082,-26.202999114990234],"type":"VEC3"},{"bufferView":43,"componentType":5123,"count":432,"type":"SCALAR"}],"asset":{"generator":"Khronos glTF Blender I/O v5.2.40","version":"2.0"},"bufferViews":[{"buffer":0,"byteOffset":0,"byteLength":14832,"target":34962},{"buffer":0,"byteOffset":14832,"byteLength":14832,"target":34962},{"buffer":0,"byteOffset":29664,"byteLength":3708,"target":34963},{"buffer":0,"byteOffset":33372,"byteLength":9696,"target":34962},{"buffer":0,"byteOffset":43068,"byteLength":9696,"target":34962},{"buffer":0,"byteOffset":52764,"byteLength":6464,"target":34962},{"buffer":0,"byteOffset":59228,"byteLength":2424,"target":34963},{"buffer":0,"byteOffset":61652,"byteLength":68040,"target":34962},{"buffer":0,"byteOffset":129692,"byteLength":68040,"target":34962},{"buffer":0,"byteOffset":197732,"byteLength":18576,"target":34963},{"buffer":0,"byteOffset":216308,"byteLength":2352,"target":34962},{"buffer":0,"byteOffset":218660,"byteLength":2352,"target":34962},{"buffer":0,"byteOffset":221012,"byteLength":1848,"target":34963},{"buffer":0,"byteOffset":222860,"byteLength":40272,"target":34962},{"buffer":0,"byteOffset":263132,"byteLength":40272,"target":34962},{"buffer":0,"byteOffset":303404,"byteLength":26848,"target":34962},{"buffer":0,"byteOffset":330252,"byteLength":10332,"target":34963},{"buffer":0,"byteOffset":340584,"byteLength":9024,"target":34962},{"buffer":0,"byteOffset":349608,"byteLength":9024,"target":34962},{"buffer":0,"byteOffset":358632,"byteLength":2256,"target":34963},{"buffer":0,"byteOffset":360888,"byteLength":2256,"target":34962},{"buffer":0,"byteOffset":363144,"byteLength":2256,"target":34962},{"buffer":0,"byteOffset":365400,"byteLength":564,"target":34963},{"buffer":0,"byteOffset":365964,"byteLength":1152,"target":34962},{"buffer":0,"byteOffset":367116,"byteLength":1152,"target":34962},{"buffer":0,"byteOffset":368268,"byteLength":288,"target":34963},{"buffer":0,"byteOffset":368556,"byteLength":288,"target":34962},{"buffer":0,"byteOffset":368844,"byteLength":288,"target":34962},{"buffer":0,"byteOffset":369132,"byteLength":72,"target":34963},{"buffer":0,"byteOffset":369204,"byteLength":6528,"target":34962},{"buffer":0,"byteOffset":375732,"byteLength":6528,"target":34962},{"buffer":0,"byteOffset":382260,"byteLength":1632,"target":34963},{"buffer":0,"byteOffset":383892,"byteLength":5040,"target":34962},{"buffer":0,"byteOffset":388932,"byteLength":5040,"target":34962},{"buffer":0,"byteOffset":393972,"byteLength":2016,"target":34963},{"buffer":0,"byteOffset":395988,"byteLength":8700,"target":34962},{"buffer":0,"byteOffset":404688,"byteLength":8700,"target":34962},{"buffer":0,"byteOffset":413388,"byteLength":2262,"target":34963},{"buffer":0,"byteOffset":415652,"byteLength":240,"target":34962},{"buffer":0,"byteOffset":415892,"byteLength":240,"target":34962},{"buffer":0,"byteOffset":416132,"byteLength":60,"target":34963},{"buffer":0,"byteOffset":416192,"byteLength":3456,"target":34962},{"buffer":0,"byteOffset":419648,"byteLength":3456,"target":34962},{"buffer":0,"byteOffset":423104,"byteLength":864,"target":34963}],"buffers":[{"byteLength":423968,"uri":"civic_hall.bin"}],"images":[{"name":"T_Plaster_Luma","uri":"../village/T_Plaster_Luma.png"},{"name":"T_WoodTrim_BaseColor","uri":"../village/T_WoodTrim_BaseColor.png"}],"materials":[{"doubleSided":true,"name":"GrecoStoneShade","pbrMetallicRoughness":{"baseColorFactor":[0.5382355451583862,0.4479884207248688,0.3069993257522583,1],"metallicFactor":0,"roughnessFactor":0.8500000238418579}},{"doubleSided":true,"name":"GrecoWalnut","pbrMetallicRoughness":{"baseColorFactor":[0.1509,0.1765,0.2002,1.0],"baseColorTexture":{"index":1},"metallicFactor":0,"roughnessFactor":0.6000000238418579}},{"doubleSided":true,"name":"GrecoBronze","pbrMetallicRoughness":{"baseColorFactor":[0.04696420207619667,0.01960664801299572,0.00854038167744875,1],"metallicFactor":0,"roughnessFactor":0.44999998807907104}},{"doubleSided":true,"name":"GrecoHedge","pbrMetallicRoughness":{"baseColorFactor":[0.02451501414179802,0.06838485598564148,0.0134117491543293,1],"metallicFactor":0,"roughnessFactor":0.949999988079071}},{"doubleSided":true,"name":"GrecoLimestone","pbrMetallicRoughness":{"baseColorFactor":[0.9026,0.7713,0.5384,1.0],"baseColorTexture":{"index":0},"metallicFactor":0,"roughnessFactor":0.800000011920929}},{"doubleSided":true,"name":"GrecoCopper","pbrMetallicRoughness":{"baseColorFactor":[0.3931231200695038,0.11928018927574158,0.03310476616024971,1],"metallicFactor":0,"roughnessFactor":0.4000000059604645}},{"doubleSided":true,"emissiveFactor":[1,0.4200332760810852,0.07323895394802094],"name":"EmitAmber","pbrMetallicRoughness":{"baseColorFactor":[1,0.4200332760810852,0.07323895394802094,1],"metallicFactor":0,"roughnessFactor":0.30000001192092896}},{"doubleSided":true,"name":"GrecoGlass","pbrMetallicRoughness":{"baseColorFactor":[0.010022825561463833,0.011645430698990822,0.0134117491543293,1],"metallicFactor":0,"roughnessFactor":0.15000000596046448}},{"doubleSided":true,"emissiveFactor":[0.1098584309220314,0.05952286161482334,0.02011762373149395],"name":"EmitCove","pbrMetallicRoughness":{"baseColorFactor":[0.07323895394802094,0.03968190774321556,0.0134117491543293,1],"metallicFactor":0,"roughnessFactor":0.5}},{"doubleSided":true,"name":"GrecoMarble","pbrMetallicRoughness":{"baseColorFactor":[0.8073459267616272,0.7874122858047485,0.7293471097946167,1],"metallicFactor":0,"roughnessFactor":0.4000000059604645}},{"doubleSided":true,"name":"GrecoLinen","pbrMetallicRoughness":{"baseColorFactor":[0.7105664610862732,0.6209158897399902,0.4623613655567169,1],"metallicFactor":0,"roughnessFactor":0.949999988079071}},{"doubleSided":true,"emissiveFactor":[1,0.6382831931114197,0.21404114365577698],"name":"EmitFlame","pbrMetallicRoughness":{"baseColorFactor":[1,0.6382831931114197,0.21404114365577698,1],"metallicFactor":0,"roughnessFactor":0.5}},{"doubleSided":true,"name":"GrecoRedBrown","pbrMetallicRoughness":{"baseColorFactor":[0.13286831974983215,0.027211781591176987,0.011645430698990822,1],"metallicFactor":0,"roughnessFactor":0.800000011920929}},{"doubleSided":true,"emissiveFactor":[0.049657149240374565,0.010791613720357418,0.003482972038909793],"name":"EmitInlay","pbrMetallicRoughness":{"baseColorFactor":[0.03310476616024971,0.007194409146904945,0.0023219813592731953,1],"metallicFactor":0,"roughnessFactor":0.4000000059604645}}],"meshes":[{"name":"Step","primitives":[{"attributes":{"NORMAL":0,"POSITION":1},"indices":2,"material":0},{"attributes":{"NORMAL":3,"POSITION":4,"TEXCOORD_0":5},"indices":6,"material":1},{"attributes":{"NORMAL":7,"POSITION":8},"indices":9,"material":2},{"attributes":{"NORMAL":10,"POSITION":11},"indices":12,"material":3},{"attributes":{"NORMAL":13,"POSITION":14,"TEXCOORD_0":15},"indices":16,"material":4},{"attributes":{"NORMAL":17,"POSITION":18},"indices":19,"material":5},{"attributes":{"NORMAL":20,"POSITION":21},"indices":22,"material":6},{"attributes":{"NORMAL":23,"POSITION":24},"indices":25,"material":7},{"attributes":{"NORMAL":26,"POSITION":27},"indices":28,"material":8},{"attributes":{"NORMAL":29,"POSITION":30},"indices":31,"material":9},{"attributes":{"NORMAL":32,"POSITION":33},"indices":34,"material":10},{"attributes":{"NORMAL":35,"POSITION":36},"indices":37,"material":11},{"attributes":{"NORMAL":38,"POSITION":39},"indices":40,"material":12},{"attributes":{"NORMAL":41,"POSITION":42},"indices":43,"material":13}]}],"nodes":[{"mesh":0,"name":"civic_hall"}],"scene":0,"scenes":[{"name":"Scene","nodes":[0]}],"textures":[{"source":0},{"source":1}]}