{"accessors":[{"bufferView":0,"componentType":5126,"count":24,"max":[1.5,13.100000381469727,0.05000000074505806],"min":[-1.5,13,-0.05000000074505806],"type":"VEC3"},{"bufferView":1,"componentType":5126,"count":24,"type":"VEC3"},{"bufferView":2,"componentType":5126,"count":24,"type":"VEC2"},{"bufferView":3,"componentType":5123,"count":36,"type":"SCALAR"},{"bufferView":4,"componentType":5126,"count":24,"max":[1.5,13.100000381469727,-4.349999904632568],"min":[-1.5,13,-4.449999809265137],"type":"VEC3"},{"bufferView":5,"componentType":5126,"count":24,"type":"VEC3"},{"bufferView":6,"componentType":5126,"count":24,"type":"VEC2"},{"bufferView":7,"componentType":5126,"count":24,"max":[1.5,13.5,0.05000000074505806],"min":[-1.5,13.399999618530273,-0.05000000074505806],"type":"VEC3"},{"bufferView":8,"componentType":5126,"count":24,"type":"VEC3"},{"bufferView":9,"componentType":5126,"count":24,"type":"VEC2"},{"bufferView":10,"componentType":5126,"count":24,"max":[1.5,13.5,-4.349999904632568],"min":[-1.5,13.399999618530273,-4.449999809265137],"type":"VEC3"},{"bufferView":11,"componentType":5126,"count":24,"type":"VEC3"},{"bufferView":12,"componentType":5126,"count":24,"type":"VEC2"},{"bufferView":13,"componentType":5126,"count":24,"max":[1.5,13.899999618530273,0.05000000074505806],"min":[-1.5,13.800000190734863,-0.05000000074505806],"type":"VEC3"},{"bufferView":14,"componentType":5126,"count":24,"type":"VEC3"},{"bufferView":15,"componentType":5126,"count":24,"type":"VEC2"},{"bufferView":16,"componentType":5126,"count":24,"max":[1.5,13.899999618530273,-4.349999904632568],"min":[-1.5,13.800000190734863,-4.449999809265137],"type":"VEC3"},{"bufferView":17,"componentType":5126,"count":24,"type":"VEC3"},{"bufferView":18,"componentType":5126,"count":24,"type":"VEC2"},{"bufferView":19,"componentType":5126,"count":24,"max":[1.5,14.300000190734863,0.05000000074505806],"min":[-1.5,14.199999809265137,-0.05000000074505806],"type":"VEC3"},{"bufferView":20,"componentType":5126,"count":24,"type":"VEC3"},{"bufferView":21,"componentType":5126,"count":24,"type":"VEC2"},{"bufferView":22,"componentType":5126,"count":24,"max":[1.5,14.300000190734863,-4.349999904632568],"min":[-1.5,14.199999809265137,-4.449999809265137],"type":"VEC3"},{"bufferView":23,"componentType":5126,"count":24,"type":"VEC3"},{"bufferView":24,"componentType":5126,"count":24,"type":"VEC2"},{"bufferView":25,"componentType":5126,"count":24,"max":[1.7999999523162842,12.25,-0.4000000059604645],"min":[-1.7999999523162842,12.100000381469727,-4],"type":"VEC3"},{"bufferView":26,"componentType":5126,"count":24,"type":"VEC3"},{"bufferView":27,"componentType":5126,"count":24,"type":"VEC2"},{"bufferView":28,"componentType":5126,"count":40,"max":[0.75,14,-1.4867075681686401],"min":[-0.75,12.739999771118164,-2.913292407989502],"type":"VEC3"},{"bufferView":29,"componentType":5126,"count":40,"type":"VEC3"},{"bufferView":30,"componentType":5126,"count":40,"type":"VEC2"},{"bufferView":31,"componentType":5123,"count":60,"type":"SCALAR"},{"bufferView":32,"componentType":5126,"count":96,"max":[0.7979999780654907,10.998000144958496,0.11500006169080734],"min":[-0.7979999780654907,9.401999473571777,0.06499994546175003],"type":"VEC3"},{"bufferView":33,"componentType":5126,"count":96,"type":"VEC3"},{"bufferView":34,"componentType":5126,"count":96,"type":"VEC2"},{"bufferView":35,"componentType":5123,"count":180,"type":"SCALAR"},{"bufferView":36,"componentType":5126,"count":96,"max":[2.315000057220459,10.998000144958496,-1.402000069618225],"min":[2.2649998664855957,9.401999473571777,-2.998000144958496],"type":"VEC3"},{"bufferView":37,"componentType":5126,"count":96,"type":"VEC3"},{"bufferView":38,"componentType":5126,"count":96,"type":"VEC2"},{"bufferView":39,"componentType":5123,"count":180,"type":"SCALAR"},{"bufferView":40,"componentType":5126,"count":96,"max":[0.7979999780654907,10.998000144958496,-4.465000152587891],"min":[-0.7979999780654907,9.401999473571777,-4.515000343322754],"type":"VEC3"},{"bufferView":41,"componentType":5126,"count":96,"type":"VEC3"},{"bufferView":42,"componentType":5126,"count":96,"type":"VEC2"},{"bufferView":43,"componentType":5123,"count":180,"type":"SCALAR"},{"bufferView":44,"componentType":5126,"count":96,"max":[-2.2649998664855957,10.998000144958496,-1.402000069618225],"min":[-2.315000057220459,9.401999473571777,-2.998000144958496],"type":"VEC3"},{"bufferView":45,"componentType":5126,"count":96,"type":"VEC3"},{"bufferView":46,"componentType":5126,"count":96,"type":"VEC2"},{"bufferView":47,"componentType":5123,"count":180,"type":"SCALAR"},{"bufferView":48,"componentType":5126,"count":24,"max":[0.029999999329447746,10.788999557495117,0.14000000059604645],"min":[-0.029999999329447746,10.199999809265137,0.11999999731779099],"type":"VEC3"},{"bufferView":49,"componentType":5126,"count":24,"type":"VEC3"},{"bufferView":50,"componentType":5126,"count":24,"type":"VEC2"},{"bufferView":51,"componentType":5126,"count":24,"max":[0.42750000953674316,10.229999542236328,0.14000000059604645],"min":[0,10.170000076293945,0.11999999731779099],"type":"VEC3"},{"bufferView":52,"componentType":5126,"count":24,"type":"VEC3"},{"bufferView":53,"componentType":5126,"count":24,"type":"VEC2"},{"bufferView":54,"componentType":5126,"count":24,"max":[2.3399999141693115,10.788999557495117,-2.1700000762939453],"min":[2.319999933242798,10.199999809265137,-2.2300000190734863],"type":"VEC3"},{"bufferView":55,"componentType":5126,"count":24,"type":"VEC3"},{"bufferView":56,"componentType":5126,"count":24,"type":"VEC2"},{"bufferView":57,"componentType":5123,"count":36,"type":"SCALAR"},{"bufferView":58,"componentType":5126,"count":24,"max":[2.3399999141693115,10.229999542236328,-2.200000047683716],"min":[2.319999933242798,10.170000076293945,-2.627500057220459],"type":"VEC3"},{"bufferView":59,"componentType":5126,"count":24,"type":"VEC3"},{"bufferView":60,"componentType":5126,"count":24,"type":"VEC2"},{"bufferView":61,"componentType":5126,"count":24,"max":[0.029999999329447746,10.788999557495117,-4.519999980926514],"min":[-0.029999999329447746,10.199999809265137,-4.5400004386901855],"type":"VEC3"},{"bufferView":62,"componentType":5126,"count":24,"type":"VEC3"},{"bufferView":63,"componentType":5126,"count":24,"type":"VEC2"},{"bufferView":64,"componentType":5126,"count":24,"max":[8.742277457507441e-10,10.229999542236328,-4.519999980926514],"min":[-0.42750000953674316,10.170000076293945,-4.5400004386901855],"type":"VEC3"},{"bufferView":65,"componentType":5126,"count":24,"type":"VEC3"},{"bufferView":66,"componentType":5126,"count":24,"type":"VEC2"},{"bufferView":67,"componentType":5126,"count":24,"max":[-2.319999933242798,10.788999557495117,-2.1700000762939453],"min":[-2.3399999141693115,10.199999809265137,-2.2300000190734863],"type":"VEC3"},{"bufferView":68,"componentType":5126,"count":24,"type":"VEC3"},{"bufferView":69,"componentType":5126,"count":24,"type":"VEC2"},{"bufferView":70,"componentType":5126,"count":24,"max":[-2.319999933242798,10.229999542236328,-1.7725000381469727],"min":[-2.3399999141693115,10.170000076293945,-2.200000047683716],"type":"VEC3"},{"bufferView":71,"componentType":5126,"count":24,"type":"VEC3"},{"bufferView":72,"componentType":5126,"count":24,"type":"VEC2"},{"bufferView":73,"componentType":5126,"count":96,"max":[0.949999988079071,11.149999618530273,0.08000007271766663],"min":[-0.949999988079071,9.25,-7.078051567077637e-08],"type":"VEC3"},{"bufferView":74,"componentType":5126,"count":96,"type":"VEC3"},{"bufferView":75,"componentType":5126,"count":96,"type":"VEC2"},{"bufferView":76,"componentType":5126,"count":96,"max":[2.2800002098083496,11.149999618530273,-1.25],"min":[2.1999998092651367,9.25,-3.1500000953674316],"type":"VEC3"},{"bufferView":77,"componentType":5126,"count":96,"type":"VEC3"},{"bufferView":78,"componentType":5126,"count":96,"type":"VEC2"},{"bufferView":79,"componentType":5126,"count":96,"max":[0.949999988079071,11.149999618530273,-4.400000095367432],"min":[-0.949999988079071,9.25,-4.480000019073486],"type":"VEC3"},{"bufferView":80,"componentType":5126,"count":96,"type":"VEC3"},{"bufferView":81,"componentType":5126,"count":96,"type":"VEC2"},{"bufferView":82,"componentType":5126,"count":96,"max":[-2.1999998092651367,11.149999618530273,-1.25],"min":[-2.2800002098083496,9.25,-3.1500000953674316],"type":"VEC3"},{"bufferView":83,"componentType":5126,"count":96,"type":"VEC3"},{"bufferView":84,"componentType":5126,"count":96,"type":"VEC2"},{"bufferView":85,"componentType":5126,"count":24,"max":[0.10508709400892258,2.999999761581421,0.11982007324695587],"min":[-0.10508733242750168,-1.5052728485898115e-07,-0.11982005089521408],"type":"VEC3"},{"bufferView":86,"componentType":5126,"count":24,"type":"VEC3"},{"bufferView":87,"componentType":5126,"count":24,"type":"VEC2"},{"bufferView":88,"componentType":5123,"count":36,"type":"SCALAR"},{"bufferView":89,"componentType":5126,"count":24,"max":[2.450000047683716,15.100000381469727,0.25],"min":[-2.450000047683716,14.699999809265137,-4.650000095367432],"type":"VEC3"},{"bufferView":90,"componentType":5126,"count":24,"type":"VEC3"},{"bufferView":91,"componentType":5126,"count":24,"type":"VEC2"},{"bufferView":92,"componentType":5126,"count":24,"max":[2.299999952316284,4.900000095367432,0.10000000149011612],"min":[-2.299999952316284,4.599999904632568,-4.5],"type":"VEC3"},{"bufferView":93,"componentType":5126,"count":24,"type":"VEC3"},{"bufferView":94,"componentType":5126,"count":24,"type":"VEC2"},{"bufferView":95,"componentType":5126,"count":24,"max":[2.299999952316284,8.899999618530273,0.10000000149011612],"min":[-2.299999952316284,8.600000381469727,-4.5],"type":"VEC3"},{"bufferView":96,"componentType":5126,"count":24,"type":"VEC3"},{"bufferView":97,"componentType":5126,"count":24,"type":"VEC2"},{"bufferView":98,"componentType":5126,"count":24,"max":[2.299999952316284,12.100000381469727,0.10000000149011612],"min":[-2.299999952316284,11.800000190734863,-4.5],"type":"VEC3"},{"bufferView":99,"componentType":5126,"count":24,"type":"VEC3"},{"bufferView":100,"componentType":5126,"count":24,"type":"VEC2"},{"bufferView":101,"componentType":5126,"count":744,"max":[1.0737497806549072,2.3513262271881104,0.06314271688461304],"min":[-0.04626310616731644,0.033089637756347656,-0.05755755677819252],"type":"VEC3"},{"bufferView":102,"componentType":5126,"count":744,"type":"VEC3"},{"bufferView":103,"componentType":5126,"count":744,"type":"VEC2"},{"bufferView":104,"componentType":5123,"count":1362,"type":"SCALAR"},{"bufferView":105,"componentType":5126,"count":28,"max":[0.8667700886726379,1.7624019384384155,0.0312458835542202],"min":[0.1617247760295868,1.3117259740829468,0.031245503574609756],"type":"VEC3"},{"bufferView":106,"componentType":5126,"count":28,"type":"VEC3"},{"bufferView":107,"componentType":5126,"count":28,"type":"VEC2"},{"bufferView":108,"componentType":5123,"count":48,"type":"SCALAR"},{"bufferView":109,"componentType":5126,"count":364,"max":[0.7034913897514343,2.5548486709594727,0.29893577098846436],"min":[-0.7034929394721985,-0.008544921875,-0.24002820253372192],"type":"VEC3"},{"bufferView":110,"componentType":5126,"count":364,"type":"VEC3"},{"bufferView":111,"componentType":5126,"count":364,"type":"VEC2"},{"bufferView":112,"componentType":5123,"count":960,"type":"SCALAR"},{"bufferView":113,"componentType":5126,"count":24,"max":[-1.5,14.699999809265137,-1.1102230246251565e-16],"min":[-2.200000047683716,12.100000381469727,-0.699999988079071],"type":"VEC3"},{"bufferView":114,"componentType":5126,"count":24,"type":"VEC3"},{"bufferView":115,"componentType":5126,"count":24,"type":"VEC2"},{"bufferView":116,"componentType":5126,"count":24,"max":[-1.5,14.699999809265137,-3.700000047683716],"min":[-2.200000047683716,12.100000381469727,-4.400000095367432],"type":"VEC3"},{"bufferView":117,"componentType":5126,"count":24,"type":"VEC3"},{"bufferView":118,"componentType":5126,"count":24,"type":"VEC2"},{"bufferView":119,"componentType":5126,"count":24,"max":[2.200000047683716,14.699999809265137,-1.1102230246251565e-16],"min":[1.5,12.100000381469727,-0.699999988079071],"type":"VEC3"},{"bufferView":120,"componentType":5126,"count":24,"type":"VEC3"},{"bufferView":121,"componentType":5126,"count":24,"type":"VEC2"},{"bufferView":122,"componentType":5126,"count":24,"max":[2.200000047683716,14.699999809265137,-3.700000047683716],"min":[1.5,12.100000381469727,-4.400000095367432],"type":"VEC3"},{"bufferView":123,"componentType":5126,"count":24,"type":"VEC3"},{"bufferView":124,"componentType":5126,"count":24,"type":"VEC2"},{"bufferView":125,"componentType":5126,"count":16,"max":[-2.023223400115967,16.5,0.1767766922712326],"min":[-2.376776695251465,15.100000381469727,-0.1767766922712326],"type":"VEC3"},{"bufferView":126,"componentType":5126,"count":16,"type":"VEC3"},{"bufferView":127,"componentType":5126,"count":16,"type":"VEC2"},{"bufferView":128,"componentType":5123,"count":24,"type":"SCALAR"},{"bufferView":129,"componentType":5126,"count":16,"max":[-2.023223400115967,16.5,-4.2232232093811035],"min":[-2.376776695251465,15.100000381469727,-4.576776504516602],"type":"VEC3"},{"bufferView":130,"componentType":5126,"count":16,"type":"VEC3"},{"bufferView":131,"componentType":5126,"count":16,"type":"VEC2"},{"bufferView":132,"componentType":5126,"count":16,"max":[2.376776695251465,16.5,0.1767766922712326],"min":[2.023223400115967,15.100000381469727,-0.1767766922712326],"type":"VEC3"},{"bufferView":133,"componentType":5126,"count":16,"type":"VEC3"},{"bufferView":134,"componentType":5126,"count":16,"type":"VEC2"},{"bufferView":135,"componentType":5126,"count":16,"max":[2.376776695251465,16.5,-4.2232232093811035],"min":[2.023223400115967,15.100000381469727,-4.576776504516602],"type":"VEC3"},{"bufferView":136,"componentType":5126,"count":16,"type":"VEC3"},{"bufferView":137,"componentType":5126,"count":16,"type":"VEC2"},{"bufferView":138,"componentType":5126,"count":504,"max":[3.347877264022827,4.383981704711914,0.7941403388977051],"min":[-3.346518039703369,-0.13180209696292877,-0.33496367931365967],"type":"VEC3"},{"bufferView":139,"componentType":5126,"count":504,"type":"VEC3"},{"bufferView":140,"componentType":5126,"count":504,"type":"VEC2"},{"bufferView":141,"componentType":5123,"count":936,"type":"SCALAR"},{"bufferView":142,"componentType":5126,"count":20,"max":[3.1225504875183105,4.377229690551758,1.375610736431554e-11],"min":[-3.1225504875183105,0.019167041406035423,-0.24970144033432007],"type":"VEC3"},{"bufferView":143,"componentType":5126,"count":20,"type":"VEC3"},{"bufferView":144,"componentType":5126,"count":20,"type":"VEC2"},{"bufferView":145,"componentType":5123,"count":48,"type":"SCALAR"},{"bufferView":146,"componentType":5126,"count":1616,"max":[3.958951234817505,4.342607498168945,4.828753471374512],"min":[-3.958951234817505,-0.7821269035339355,-4.828753471374512],"type":"VEC3"},{"bufferView":147,"componentType":5126,"count":1616,"type":"VEC3"},{"bufferView":148,"componentType":5126,"count":1616,"type":"VEC2"},{"bufferView":149,"componentType":5123,"count":2616,"type":"SCALAR"},{"bufferView":150,"componentType":5126,"count":1540,"max":[4.124891757965088,4.890044689178467,4.8539862632751465],"min":[-4.124891757965088,-0.6384454965591431,-4.756110191345215],"type":"VEC3"},{"bufferView":151,"componentType":5126,"count":1540,"type":"VEC3"},{"bufferView":152,"componentType":5126,"count":1540,"type":"VEC2"},{"bufferView":153,"componentType":5123,"count":4215,"type":"SCALAR"},{"bufferView":154,"componentType":5126,"count":40,"max":[2.641421318054199,22.100000381469727,0.44142135977745056],"min":[-2.641421318054199,14.979999542236328,-4.841421127319336],"type":"VEC3"},{"bufferView":155,"componentType":5126,"count":40,"type":"VEC3"},{"bufferView":156,"componentType":5126,"count":40,"type":"VEC2"},{"bufferView":157,"componentType":5123,"count":72,"type":"SCALAR"},{"bufferView":158,"componentType":5126,"count":32,"max":[0.20000000298023224,22.399999618530273,-2],"min":[-0.20000000298023224,22.100000381469727,-2.4000000953674316],"type":"VEC3"},{"bufferView":159,"componentType":5126,"count":32,"type":"VEC3"},{"bufferView":160,"componentType":5126,"count":32,"type":"VEC2"},{"bufferView":161,"componentType":5123,"count":48,"type":"SCALAR"},{"bufferView":162,"componentType":5126,"count":24,"max":[0.07000000029802322,23.299999237060547,-2.139378309249878],"min":[-0.07000000029802322,21.799999237060547,-2.2606217861175537],"type":"VEC3"},{"bufferView":163,"componentType":5126,"count":24,"type":"VEC3"},{"bufferView":164,"componentType":5126,"count":24,"type":"VEC2"},{"bufferView":165,"componentType":5123,"count":36,"type":"SCALAR"},{"bufferView":166,"componentType":5126,"count":24,"max":[1,0.3499999940395355,1],"min":[-1,0,0],"type":"VEC3"},{"bufferView":167,"componentType":5126,"count":24,"type":"VEC3"},{"bufferView":168,"componentType":5126,"count":24,"type":"VEC2"},{"bufferView":169,"componentType":5126,"count":24,"max":[2.200000047683716,12,0],"min":[-2.200000047683716,0.699999988079071,-4.400000095367432],"type":"VEC3"},{"bufferView":170,"componentType":5126,"count":24,"type":"VEC3"},{"bufferView":171,"componentType":5126,"count":24,"type":"VEC2"},{"bufferView":172,"componentType":5126,"count":24,"max":[2.4000000953674316,0.699999988079071,0.20000000298023224],"min":[-2.4000000953674316,0,-4.599999904632568],"type":"VEC3"},{"bufferView":173,"componentType":5126,"count":24,"type":"VEC3"},{"bufferView":174,"componentType":5126,"count":24,"type":"VEC2"},{"bufferView":175,"componentType":5126,"count":64,"max":[1,3.1226887702941895,0.09244640171527863],"min":[-1.0000001192092896,2.877309799194336,-0.3140353262424469],"type":"VEC3"},{"bufferView":176,"componentType":5126,"count":64,"type":"VEC3"},{"bufferView":177,"componentType":5126,"count":64,"type":"VEC2"},{"bufferView":178,"componentType":5123,"count":150,"type":"SCALAR"},{"bufferView":179,"componentType":5126,"count":4,"max":[1,3,-0.19999991357326508],"min":[-1,0,-0.2000000923871994],"type":"VEC3"},{"bufferView":180,"componentType":5126,"count":4,"type":"VEC3"},{"bufferView":181,"componentType":5126,"count":4,"type":"VEC2"},{"bufferView":182,"componentType":5123,"count":6,"type":"SCALAR"},{"bufferView":183,"componentType":5126,"count":8,"max":[1,3,1.3113415775478643e-07],"min":[-1,0,0],"type":"VEC3"},{"bufferView":184,"componentType":5126,"count":8,"type":"VEC3"},{"bufferView":185,"componentType":5126,"count":8,"type":"VEC2"},{"bufferView":186,"componentType":5123,"count":12,"type":"SCALAR"},{"bufferView":187,"componentType":5126,"count":64,"max":[1,3.1226887702941895,0.09244640171527863],"min":[-1.0000001192092896,2.877309799194336,-0.3140353262424469],"type":"VEC3"},{"bufferView":188,"componentType":5126,"count":64,"type":"VEC3"},{"bufferView":189,"componentType":5126,"count":64,"type":"VEC2"},{"bufferView":190,"componentType":5126,"count":44,"max":[1,3,-0.19999991357326508],"min":[-1,0,-0.2000000923871994],"type":"VEC3"},{"bufferView":191,"componentType":5126,"count":44,"type":"VEC3"},{"bufferView":192,"componentType":5126,"count":44,"type":"VEC2"},{"bufferView":193,"componentType":5123,"count":132,"type":"SCALAR"},{"bufferView":194,"componentType":5126,"count":57,"max":[1,3,1.3113415775478643e-07],"min":[-1,0,0],"type":"VEC3"},{"bufferView":195,"componentType":5126,"count":57,"type":"VEC3"},{"bufferView":196,"componentType":5126,"count":57,"type":"VEC2"},{"bufferView":197,"componentType":5123,"count":192,"type":"SCALAR"},{"bufferView":198,"componentType":5126,"count":402,"max":[0.44381028413772583,2.6207287311553955,0.0923665463924408],"min":[-0.44381028413772583,1.01604425907135,-0.2520223557949066],"type":"VEC3"},{"bufferView":199,"componentType":5126,"count":402,"type":"VEC3"},{"bufferView":200,"componentType":5126,"count":402,"type":"VEC2"},{"bufferView":201,"componentType":5123,"count":786,"type":"SCALAR"},{"bufferView":202,"componentType":5126,"count":83,"max":[0.277061402797699,2.478931427001953,0.003888234496116638],"min":[-0.27893951535224915,1.0875728130340576,0.0038879886269569397],"type":"VEC3"},{"bufferView":203,"componentType":5126,"count":83,"type":"VEC3"},{"bufferView":204,"componentType":5126,"count":83,"type":"VEC2"},{"bufferView":205,"componentType":5123,"count":153,"type":"SCALAR"},{"bufferView":206,"componentType":5126,"count":222,"max":[0.7867056131362915,2.6116669178009033,0.4355051815509796],"min":[-0.8195725083351135,1.0932440757751465,0.059017062187194824],"type":"VEC3"},{"bufferView":207,"componentType":5126,"count":222,"type":"VEC3"},{"bufferView":208,"componentType":5126,"count":222,"type":"VEC2"},{"bufferView":209,"componentType":5123,"count":336,"type":"SCALAR"}],"asset":{"generator":"Khronos glTF Blender I/O v5.2.40","version":"2.0"},"bufferViews":[{"buffer":0,"byteLength":288,"byteOffset":0,"target":34962},{"buffer":0,"byteLength":288,"byteOffset":288,"target":34962},{"buffer":0,"byteLength":192,"byteOffset":576,"target":34962},{"buffer":0,"byteLength":72,"byteOffset":768,"target":34963},{"buffer":0,"byteLength":288,"byteOffset":840,"target":34962},{"buffer":0,"byteLength":288,"byteOffset":1128,"target":34962},{"buffer":0,"byteLength":192,"byteOffset":1416,"target":34962},{"buffer":0,"byteLength":288,"byteOffset":1608,"target":34962},{"buffer":0,"byteLength":288,"byteOffset":1896,"target":34962},{"buffer":0,"byteLength":192,"byteOffset":2184,"target":34962},{"buffer":0,"byteLength":288,"byteOffset":2376,"target":34962},{"buffer":0,"byteLength":288,"byteOffset":2664,"target":34962},{"buffer":0,"byteLength":192,"byteOffset":2952,"target":34962},{"buffer":0,"byteLength":288,"byteOffset":3144,"target":34962},{"buffer":0,"byteLength":288,"byteOffset":3432,"target":34962},{"buffer":0,"byteLength":192,"byteOffset":3720,"target":34962},{"buffer":0,"byteLength":288,"byteOffset":3912,"target":34962},{"buffer":0,"byteLength":288,"byteOffset":4200,"target":34962},{"buffer":0,"byteLength":192,"byteOffset":4488,"target":34962},{"buffer":0,"byteLength":288,"byteOffset":4680,"target":34962},{"buffer":0,"byteLength":288,"byteOffset":4968,"target":34962},{"buffer":0,"byteLength":192,"byteOffset":5256,"target":34962},{"buffer":0,"byteLength":288,"byteOffset":5448,"target":34962},{"buffer":0,"byteLength":288,"byteOffset":5736,"target":34962},{"buffer":0,"byteLength":192,"byteOffset":6024,"target":34962},{"buffer":0,"byteLength":288,"byteOffset":6216,"target":34962},{"buffer":0,"byteLength":288,"byteOffset":6504,"target":34962},{"buffer":0,"byteLength":192,"byteOffset":6792,"target":34962},{"buffer":0,"byteLength":480,"byteOffset":6984,"target":34962},{"buffer":0,"byteLength":480,"byteOffset":7464,"target":34962},{"buffer":0,"byteLength":320,"byteOffset":7944,"target":34962},{"buffer":0,"byteLength":120,"byteOffset":8264,"target":34963},{"buffer":0,"byteLength":1152,"byteOffset":8384,"target":34962},{"buffer":0,"byteLength":1152,"byteOffset":9536,"target":34962},{"buffer":0,"byteLength":768,"byteOffset":10688,"target":34962},{"buffer":0,"byteLength":360,"byteOffset":11456,"target":34963},{"buffer":0,"byteLength":1152,"byteOffset":11816,"target":34962},{"buffer":0,"byteLength":1152,"byteOffset":12968,"target":34962},{"buffer":0,"byteLength":768,"byteOffset":14120,"target":34962},{"buffer":0,"byteLength":360,"byteOffset":14888,"target":34963},{"buffer":0,"byteLength":1152,"byteOffset":15248,"target":34962},{"buffer":0,"byteLength":1152,"byteOffset":16400,"target":34962},{"buffer":0,"byteLength":768,"byteOffset":17552,"target":34962},{"buffer":0,"byteLength":360,"byteOffset":18320,"target":34963},{"buffer":0,"byteLength":1152,"byteOffset":18680,"target":34962},{"buffer":0,"byteLength":1152,"byteOffset":19832,"target":34962},{"buffer":0,"byteLength":768,"byteOffset":20984,"target":34962},{"buffer":0,"byteLength":360,"byteOffset":21752,"target":34963},{"buffer":0,"byteLength":288,"byteOffset":22112,"target":34962},{"buffer":0,"byteLength":288,"byteOffset":22400,"target":34962},{"buffer":0,"byteLength":192,"byteOffset":22688,"target":34962},{"buffer":0,"byteLength":288,"byteOffset":22880,"target":34962},{"buffer":0,"byteLength":288,"byteOffset":23168,"target":34962},{"buffer":0,"byteLength":192,"byteOffset":23456,"target":34962},{"buffer":0,"byteLength":288,"byteOffset":23648,"target":34962},{"buffer":0,"byteLength":288,"byteOffset":23936,"target":34962},{"buffer":0,"byteLength":192,"byteOffset":24224,"target":34962},{"buffer":0,"byteLength":72,"byteOffset":24416,"target":34963},{"buffer":0,"byteLength":288,"byteOffset":24488,"target":34962},{"buffer":0,"byteLength":288,"byteOffset":24776,"target":34962},{"buffer":0,"byteLength":192,"byteOffset":25064,"target":34962},{"buffer":0,"byteLength":288,"byteOffset":25256,"target":34962},{"buffer":0,"byteLength":288,"byteOffset":25544,"target":34962},{"buffer":0,"byteLength":192,"byteOffset":25832,"target":34962},{"buffer":0,"byteLength":288,"byteOffset":26024,"target":34962},{"buffer":0,"byteLength":288,"byteOffset":26312,"target":34962},{"buffer":0,"byteLength":192,"byteOffset":26600,"target":34962},{"buffer":0,"byteLength":288,"byteOffset":26792,"target":34962},{"buffer":0,"byteLength":288,"byteOffset":27080,"target":34962},{"buffer":0,"byteLength":192,"byteOffset":27368,"target":34962},{"buffer":0,"byteLength":288,"byteOffset":27560,"target":34962},{"buffer":0,"byteLength":288,"byteOffset":27848,"target":34962},{"buffer":0,"byteLength":192,"byteOffset":28136,"target":34962},{"buffer":0,"byteLength":1152,"byteOffset":28328,"target":34962},{"buffer":0,"byteLength":1152,"byteOffset":29480,"target":34962},{"buffer":0,"byteLength":768,"byteOffset":30632,"target":34962},{"buffer":0,"byteLength":1152,"byteOffset":31400,"target":34962},{"buffer":0,"byteLength":1152,"byteOffset":32552,"target":34962},{"buffer":0,"byteLength":768,"byteOffset":33704,"target":34962},{"buffer":0,"byteLength":1152,"byteOffset":34472,"target":34962},{"buffer":0,"byteLength":1152,"byteOffset":35624,"target":34962},{"buffer":0,"byteLength":768,"byteOffset":36776,"target":34962},{"buffer":0,"byteLength":1152,"byteOffset":37544,"target":34962},{"buffer":0,"byteLength":1152,"byteOffset":38696,"target":34962},{"buffer":0,"byteLength":768,"byteOffset":39848,"target":34962},{"buffer":0,"byteLength":288,"byteOffset":40616,"target":34962},{"buffer":0,"byteLength":288,"byteOffset":40904,"target":34962},{"buffer":0,"byteLength":192,"byteOffset":41192,"target":34962},{"buffer":0,"byteLength":72,"byteOffset":41384,"target":34963},{"buffer":0,"byteLength":288,"byteOffset":41456,"target":34962},{"buffer":0,"byteLength":288,"byteOffset":41744,"target":34962},{"buffer":0,"byteLength":192,"byteOffset":42032,"target":34962},{"buffer":0,"byteLength":288,"byteOffset":42224,"target":34962},{"buffer":0,"byteLength":288,"byteOffset":42512,"target":34962},{"buffer":0,"byteLength":192,"byteOffset":42800,"target":34962},{"buffer":0,"byteLength":288,"byteOffset":42992,"target":34962},{"buffer":0,"byteLength":288,"byteOffset":43280,"target":34962},{"buffer":0,"byteLength":192,"byteOffset":43568,"target":34962},{"buffer":0,"byteLength":288,"byteOffset":43760,"target":34962},{"buffer":0,"byteLength":288,"byteOffset":44048,"target":34962},{"buffer":0,"byteLength":192,"byteOffset":44336,"target":34962},{"buffer":0,"byteLength":8928,"byteOffset":44528,"target":34962},{"buffer":0,"byteLength":8928,"byteOffset":53456,"target":34962},{"buffer":0,"byteLength":5952,"byteOffset":62384,"target":34962},{"buffer":0,"byteLength":2724,"byteOffset":68336,"target":34963},{"buffer":0,"byteLength":336,"byteOffset":71060,"target":34962},{"buffer":0,"byteLength":336,"byteOffset":71396,"target":34962},{"buffer":0,"byteLength":224,"byteOffset":71732,"target":34962},{"buffer":0,"byteLength":96,"byteOffset":71956,"target":34963},{"buffer":0,"byteLength":4368,"byteOffset":72052,"target":34962},{"buffer":0,"byteLength":4368,"byteOffset":76420,"target":34962},{"buffer":0,"byteLength":2912,"byteOffset":80788,"target":34962},{"buffer":0,"byteLength":1920,"byteOffset":83700,"target":34963},{"buffer":0,"byteLength":288,"byteOffset":85620,"target":34962},{"buffer":0,"byteLength":288,"byteOffset":85908,"target":34962},{"buffer":0,"byteLength":192,"byteOffset":86196,"target":34962},{"buffer":0,"byteLength":288,"byteOffset":86388,"target":34962},{"buffer":0,"byteLength":288,"byteOffset":86676,"target":34962},{"buffer":0,"byteLength":192,"byteOffset":86964,"target":34962},{"buffer":0,"byteLength":288,"byteOffset":87156,"target":34962},{"buffer":0,"byteLength":288,"byteOffset":87444,"target":34962},{"buffer":0,"byteLength":192,"byteOffset":87732,"target":34962},{"buffer":0,"byteLength":288,"byteOffset":87924,"target":34962},{"buffer":0,"byteLength":288,"byteOffset":88212,"target":34962},{"buffer":0,"byteLength":192,"byteOffset":88500,"target":34962},{"buffer":0,"byteLength":192,"byteOffset":88692,"target":34962},{"buffer":0,"byteLength":192,"byteOffset":88884,"target":34962},{"buffer":0,"byteLength":128,"byteOffset":89076,"target":34962},{"buffer":0,"byteLength":48,"byteOffset":89204,"target":34963},{"buffer":0,"byteLength":192,"byteOffset":89252,"target":34962},{"buffer":0,"byteLength":192,"byteOffset":89444,"target":34962},{"buffer":0,"byteLength":128,"byteOffset":89636,"target":34962},{"buffer":0,"byteLength":192,"byteOffset":89764,"target":34962},{"buffer":0,"byteLength":192,"byteOffset":89956,"target":34962},{"buffer":0,"byteLength":128,"byteOffset":90148,"target":34962},{"buffer":0,"byteLength":192,"byteOffset":90276,"target":34962},{"buffer":0,"byteLength":192,"byteOffset":90468,"target":34962},{"buffer":0,"byteLength":128,"byteOffset":90660,"target":34962},{"buffer":0,"byteLength":6048,"byteOffset":90788,"target":34962},{"buffer":0,"byteLength":6048,"byteOffset":96836,"target":34962},{"buffer":0,"byteLength":4032,"byteOffset":102884,"target":34962},{"buffer":0,"byteLength":1872,"byteOffset":106916,"target":34963},{"buffer":0,"byteLength":240,"byteOffset":108788,"target":34962},{"buffer":0,"byteLength":240,"byteOffset":109028,"target":34962},{"buffer":0,"byteLength":160,"byteOffset":109268,"target":34962},{"buffer":0,"byteLength":96,"byteOffset":109428,"target":34963},{"buffer":0,"byteLength":19392,"byteOffset":109524,"target":34962},{"buffer":0,"byteLength":19392,"byteOffset":128916,"target":34962},{"buffer":0,"byteLength":12928,"byteOffset":148308,"target":34962},{"buffer":0,"byteLength":5232,"byteOffset":161236,"target":34963},{"buffer":0,"byteLength":18480,"byteOffset":166468,"target":34962},{"buffer":0,"byteLength":18480,"byteOffset":184948,"target":34962},{"buffer":0,"byteLength":12320,"byteOffset":203428,"target":34962},{"buffer":0,"byteLength":8430,"byteOffset":215748,"target":34963},{"buffer":0,"byteLength":480,"byteOffset":224180,"target":34962},{"buffer":0,"byteLength":480,"byteOffset":224660,"target":34962},{"buffer":0,"byteLength":320,"byteOffset":225140,"target":34962},{"buffer":0,"byteLength":144,"byteOffset":225460,"target":34963},{"buffer":0,"byteLength":384,"byteOffset":225604,"target":34962},{"buffer":0,"byteLength":384,"byteOffset":225988,"target":34962},{"buffer":0,"byteLength":256,"byteOffset":226372,"target":34962},{"buffer":0,"byteLength":96,"byteOffset":226628,"target":34963},{"buffer":0,"byteLength":288,"byteOffset":226724,"target":34962},{"buffer":0,"byteLength":288,"byteOffset":227012,"target":34962},{"buffer":0,"byteLength":192,"byteOffset":227300,"target":34962},{"buffer":0,"byteLength":72,"byteOffset":227492,"target":34963},{"buffer":0,"byteLength":288,"byteOffset":227564,"target":34962},{"buffer":0,"byteLength":288,"byteOffset":227852,"target":34962},{"buffer":0,"byteLength":192,"byteOffset":228140,"target":34962},{"buffer":0,"byteLength":288,"byteOffset":228332,"target":34962},{"buffer":0,"byteLength":288,"byteOffset":228620,"target":34962},{"buffer":0,"byteLength":192,"byteOffset":228908,"target":34962},{"buffer":0,"byteLength":288,"byteOffset":229100,"target":34962},{"buffer":0,"byteLength":288,"byteOffset":229388,"target":34962},{"buffer":0,"byteLength":192,"byteOffset":229676,"target":34962},{"buffer":0,"byteLength":768,"byteOffset":229868,"target":34962},{"buffer":0,"byteLength":768,"byteOffset":230636,"target":34962},{"buffer":0,"byteLength":512,"byteOffset":231404,"target":34962},{"buffer":0,"byteLength":300,"byteOffset":231916,"target":34963},{"buffer":0,"byteLength":48,"byteOffset":232216,"target":34962},{"buffer":0,"byteLength":48,"byteOffset":232264,"target":34962},{"buffer":0,"byteLength":32,"byteOffset":232312,"target":34962},{"buffer":0,"byteLength":12,"byteOffset":232344,"target":34963},{"buffer":0,"byteLength":96,"byteOffset":232356,"target":34962},{"buffer":0,"byteLength":96,"byteOffset":232452,"target":34962},{"buffer":0,"byteLength":64,"byteOffset":232548,"target":34962},{"buffer":0,"byteLength":24,"byteOffset":232612,"target":34963},{"buffer":0,"byteLength":768,"byteOffset":232636,"target":34962},{"buffer":0,"byteLength":768,"byteOffset":233404,"target":34962},{"buffer":0,"byteLength":512,"byteOffset":234172,"target":34962},{"buffer":0,"byteLength":528,"byteOffset":234684,"target":34962},{"buffer":0,"byteLength":528,"byteOffset":235212,"target":34962},{"buffer":0,"byteLength":352,"byteOffset":235740,"target":34962},{"buffer":0,"byteLength":264,"byteOffset":236092,"target":34963},{"buffer":0,"byteLength":684,"byteOffset":236356,"target":34962},{"buffer":0,"byteLength":684,"byteOffset":237040,"target":34962},{"buffer":0,"byteLength":456,"byteOffset":237724,"target":34962},{"buffer":0,"byteLength":384,"byteOffset":238180,"target":34963},{"buffer":0,"byteLength":4824,"byteOffset":238564,"target":34962},{"buffer":0,"byteLength":4824,"byteOffset":243388,"target":34962},{"buffer":0,"byteLength":3216,"byteOffset":248212,"target":34962},{"buffer":0,"byteLength":1572,"byteOffset":251428,"target":34963},{"buffer":0,"byteLength":996,"byteOffset":253000,"target":34962},{"buffer":0,"byteLength":996,"byteOffset":253996,"target":34962},{"buffer":0,"byteLength":664,"byteOffset":254992,"target":34962},{"buffer":0,"byteLength":306,"byteOffset":255656,"target":34963},{"buffer":0,"byteLength":2664,"byteOffset":255964,"target":34962},{"buffer":0,"byteLength":2664,"byteOffset":258628,"target":34962},{"buffer":0,"byteLength":1776,"byteOffset":261292,"target":34962},{"buffer":0,"byteLength":672,"byteOffset":263068,"target":34963}],"buffers":[{"byteLength":263740,"uri":"clock_tower.bin"}],"images":[{"name":"T_MetalOrnaments_BaseColor","uri":"../village/T_MetalOrnaments_BaseColor.png"},{"name":"T_Plaster_Luma","uri":"../village/T_Plaster_Luma.png"},{"name":"T_RockTrim_BaseColor","uri":"../village/T_RockTrim_BaseColor.png"},{"name":"T_RoundTiles_Luma","uri":"../village/T_RoundTiles_Luma.png"},{"name":"T_UnevenBrick_BaseColor","uri":"../village/T_UnevenBrick_BaseColor.png"},{"name":"T_WoodTrim_BaseColor","uri":"../village/T_WoodTrim_BaseColor.png"}],"materials":[{"doubleSided":true,"name":"Wood_dark","pbrMetallicRoughness":{"baseColorFactor":[0.2329,0.2659,0.2944,1.0],"baseColorTexture":{"index":5},"metallicFactor":0,"roughnessFactor":0.8500000238418579}},{"doubleSided":true,"name":"Metal","pbrMetallicRoughness":{"baseColorFactor":[1.0,0.9972,0.9945,1.0],"baseColorTexture":{"index":0},"metallicFactor":0,"roughnessFactor":0.5}},{"doubleSided":true,"name":"ClockFace","pbrMetallicRoughness":{"baseColorFactor":[0.848088264465332,0.8073459267616272,0.6738595366477966,1],"metallicFactor":0,"roughnessFactor":0.6000000238418579}},{"doubleSided":true,"name":"Iron","pbrMetallicRoughness":{"baseColorFactor":[0.0134117491543293,0.0134117491543293,0.015325203537940979,1],"metallicFactor":0,"roughnessFactor":0.5}},{"doubleSided":true,"name":"RockTrim","pbrMetallicRoughness":{"baseColorFactor":[1.0,0.9979,1.0,1.0],"baseColorTexture":{"index":2},"metallicFactor":0,"roughnessFactor":0.8500000238418579}},{"doubleSided":true,"name":"Glass","pbrMetallicRoughness":{"baseColorFactor":[0.03310476616024971,0.05087608844041824,0.07828831672668457,1],"metallicFactor":0,"roughnessFactor":0.20000000298023224}},{"doubleSided":true,"name":"Stone","pbrMetallicRoughness":{"baseColorFactor":[1.0,0.9974,0.9977,1.0],"baseColorTexture":{"index":4},"metallicFactor":0,"roughnessFactor":0.8500000238418579}},{"doubleSided":true,"name":"Plaster_white","pbrMetallicRoughness":{"baseColorFactor":[1.0,1.0,0.9092,1.0],"baseColorTexture":{"index":1},"metallicFactor":0,"roughnessFactor":0.8500000238418579}},{"doubleSided":true,"name":"Tiles_slate","pbrMetallicRoughness":{"baseColorFactor":[0.1477,0.1884,0.2641,1.0],"baseColorTexture":{"index":3},"metallicFactor":0,"roughnessFactor":0.699999988079071}},{"doubleSided":true,"name":"SignPaint","pbrMetallicRoughness":{"baseColorFactor":[0.6038273572921753,0.34239163994789124,0.03310476616024971,1],"metallicFactor":0,"roughnessFactor":0.6000000238418579}}],"meshes":[{"name":"Beam","primitives":[{"attributes":{"NORMAL":1,"POSITION":0,"TEXCOORD_0":2},"indices":3,"material":0}]},{"name":"Beam.001","primitives":[{"attributes":{"NORMAL":5,"POSITION":4,"TEXCOORD_0":6},"indices":3,"material":0}]},{"name":"Beam.002","primitives":[{"attributes":{"NORMAL":8,"POSITION":7,"TEXCOORD_0":9},"indices":3,"material":0}]},{"name":"Beam.003","primitives":[{"attributes":{"NORMAL":11,"POSITION":10,"TEXCOORD_0":12},"indices":3,"material":0}]},{"name":"Beam.004","primitives":[{"attributes":{"NORMAL":14,"POSITION":13,"TEXCOORD_0":15},"indices":3,"material":0}]},{"name":"Beam.005","primitives":[{"attributes":{"NORMAL":17,"POSITION":16,"TEXCOORD_0":18},"indices":3,"material":0}]},{"name":"Beam.006","primitives":[{"attributes":{"NORMAL":20,"POSITION":19,"TEXCOORD_0":21},"indices":3,"material":0}]},{"name":"Beam.007","primitives":[{"attributes":{"NORMAL":23,"POSITION":22,"TEXCOORD_0":24},"indices":3,"material":0}]},{"name":"BelfryFloor","primitives":[{"attributes":{"NORMAL":26,"POSITION":25,"TEXCOORD_0":27},"indices":3,"material":0}]},{"name":"Bell","primitives":[{"attributes":{"NORMAL":29,"POSITION":28,"TEXCOORD_0":30},"indices":31,"material":1}]},{"name":"ClockFace","primitives":[{"attributes":{"NORMAL":33,"POSITION":32,"TEXCOORD_0":34},"indices":35,"material":2}]},{"name":"ClockFace.001","primitives":[{"attributes":{"NORMAL":37,"POSITION":36,"TEXCOORD_0":38},"indices":39,"material":2}]},{"name":"ClockFace.002","primitives":[{"attributes":{"NORMAL":41,"POSITION":40,"TEXCOORD_0":42},"indices":43,"material":2}]},{"name":"ClockFace.003","primitives":[{"attributes":{"NORMAL":45,"POSITION":44,"TEXCOORD_0":46},"indices":47,"material":2}]},{"name":"ClockHand","primitives":[{"attributes":{"NORMAL":49,"POSITION":48,"TEXCOORD_0":50},"indices":3,"material":3}]},{"name":"ClockHand.001","primitives":[{"attributes":{"NORMAL":52,"POSITION":51,"TEXCOORD_0":53},"indices":3,"material":3}]},{"name":"ClockHand.002","primitives":[{"attributes":{"NORMAL":55,"POSITION":54,"TEXCOORD_0":56},"indices":57,"material":3}]},{"name":"ClockHand.003","primitives":[{"attributes":{"NORMAL":59,"POSITION":58,"TEXCOORD_0":60},"indices":57,"material":3}]},{"name":"ClockHand.004","primitives":[{"attributes":{"NORMAL":62,"POSITION":61,"TEXCOORD_0":63},"indices":3,"material":3}]},{"name":"ClockHand.005","primitives":[{"attributes":{"NORMAL":65,"POSITION":64,"TEXCOORD_0":66},"indices":3,"material":3}]},{"name":"ClockHand.006","primitives":[{"attributes":{"NORMAL":68,"POSITION":67,"TEXCOORD_0":69},"indices":57,"material":3}]},{"name":"ClockHand.007","primitives":[{"attributes":{"NORMAL":71,"POSITION":70,"TEXCOORD_0":72},"indices":57,"material":3}]},{"name":"ClockRim","primitives":[{"attributes":{"NORMAL":74,"POSITION":73,"TEXCOORD_0":75},"indices":35,"material":0}]},{"name":"ClockRim.001","primitives":[{"attributes":{"NORMAL":77,"POSITION":76,"TEXCOORD_0":78},"indices":39,"material":0}]},{"name":"ClockRim.002","primitives":[{"attributes":{"NORMAL":80,"POSITION":79,"TEXCOORD_0":81},"indices":43,"material":0}]},{"name":"ClockRim.003","primitives":[{"attributes":{"NORMAL":83,"POSITION":82,"TEXCOORD_0":84},"indices":47,"material":0}]},{"name":"kit_Corner_Exterior_Wood","primitives":[{"attributes":{"NORMAL":86,"POSITION":85,"TEXCOORD_0":87},"indices":88,"material":0}]},{"name":"Cornice","primitives":[{"attributes":{"NORMAL":90,"POSITION":89,"TEXCOORD_0":91},"indices":3,"material":4}]},{"name":"Course","primitives":[{"attributes":{"NORMAL":93,"POSITION":92,"TEXCOORD_0":94},"indices":3,"material":4}]},{"name":"Course.001","primitives":[{"attributes":{"NORMAL":96,"POSITION":95,"TEXCOORD_0":97},"indices":3,"material":4}]},{"name":"Course.002","primitives":[{"attributes":{"NORMAL":99,"POSITION":98,"TEXCOORD_0":100},"indices":3,"material":4}]},{"name":"kit_Door_1_Round","primitives":[{"attributes":{"NORMAL":102,"POSITION":101,"TEXCOORD_0":103},"indices":104,"material":0},{"attributes":{"NORMAL":106,"POSITION":105,"TEXCOORD_0":107},"indices":108,"material":5}]},{"name":"kit_DoorFrame_Round_WoodDark","primitives":[{"attributes":{"NORMAL":110,"POSITION":109,"TEXCOORD_0":111},"indices":112,"material":0}]},{"name":"Pier","primitives":[{"attributes":{"NORMAL":114,"POSITION":113,"TEXCOORD_0":115},"indices":3,"material":6}]},{"name":"Pier.001","primitives":[{"attributes":{"NORMAL":117,"POSITION":116,"TEXCOORD_0":118},"indices":3,"material":6}]},{"name":"Pier.002","primitives":[{"attributes":{"NORMAL":120,"POSITION":119,"TEXCOORD_0":121},"indices":3,"material":6}]},{"name":"Pier.003","primitives":[{"attributes":{"NORMAL":123,"POSITION":122,"TEXCOORD_0":124},"indices":3,"material":6}]},{"name":"Pinnacle","primitives":[{"attributes":{"NORMAL":126,"POSITION":125,"TEXCOORD_0":127},"indices":128,"material":4}]},{"name":"Pinnacle.001","primitives":[{"attributes":{"NORMAL":130,"POSITION":129,"TEXCOORD_0":131},"indices":128,"material":4}]},{"name":"Pinnacle.002","primitives":[{"attributes":{"NORMAL":133,"POSITION":132,"TEXCOORD_0":134},"indices":128,"material":4}]},{"name":"Pinnacle.003","primitives":[{"attributes":{"NORMAL":136,"POSITION":135,"TEXCOORD_0":137},"indices":128,"material":4}]},{"name":"kit_Roof_Front_Brick6","primitives":[{"attributes":{"NORMAL":139,"POSITION":138,"TEXCOORD_0":140},"indices":141,"material":0},{"attributes":{"NORMAL":143,"POSITION":142,"TEXCOORD_0":144},"indices":145,"material":7}]},{"name":"kit_Roof_RoundTiles_6x8.001","primitives":[{"attributes":{"NORMAL":147,"POSITION":146,"TEXCOORD_0":148},"indices":149,"material":0},{"attributes":{"NORMAL":151,"POSITION":150,"TEXCOORD_0":152},"indices":153,"material":8}]},{"name":"Spire","primitives":[{"attributes":{"NORMAL":155,"POSITION":154,"TEXCOORD_0":156},"indices":157,"material":8}]},{"name":"SpireBall","primitives":[{"attributes":{"NORMAL":159,"POSITION":158,"TEXCOORD_0":160},"indices":161,"material":9}]},{"name":"SpireRod","primitives":[{"attributes":{"NORMAL":163,"POSITION":162,"TEXCOORD_0":164},"indices":165,"material":3}]},{"name":"Step","primitives":[{"attributes":{"NORMAL":167,"POSITION":166,"TEXCOORD_0":168},"indices":3,"material":4}]},{"name":"Tower","primitives":[{"attributes":{"NORMAL":170,"POSITION":169,"TEXCOORD_0":171},"indices":3,"material":6}]},{"name":"TowerPlinth","primitives":[{"attributes":{"NORMAL":173,"POSITION":172,"TEXCOORD_0":174},"indices":3,"material":4}]},{"name":"kit_Wall_UnevenBrick_Straight","primitives":[{"attributes":{"NORMAL":176,"POSITION":175,"TEXCOORD_0":177},"indices":178,"material":0},{"attributes":{"NORMAL":180,"POSITION":179,"TEXCOORD_0":181},"indices":182,"material":7},{"attributes":{"NORMAL":184,"POSITION":183,"TEXCOORD_0":185},"indices":186,"material":6}]},{"name":"kit_Wall_UnevenBrick_Window_Thin_Round","primitives":[{"attributes":{"NORMAL":188,"POSITION":187,"TEXCOORD_0":189},"indices":178,"material":0},{"attributes":{"NORMAL":191,"POSITION":190,"TEXCOORD_0":192},"indices":193,"material":7},{"attributes":{"NORMAL":195,"POSITION":194,"TEXCOORD_0":196},"indices":197,"material":6}]},{"name":"kit_Window_Thin_Round1.001","primitives":[{"attributes":{"NORMAL":199,"POSITION":198,"TEXCOORD_0":200},"indices":201,"material":0},{"attributes":{"NORMAL":203,"POSITION":202,"TEXCOORD_0":204},"indices":205,"material":5}]},{"name":"kit_WindowShutters_Thin_Round_Open","primitives":[{"attributes":{"NORMAL":207,"POSITION":206,"TEXCOORD_0":208},"indices":209,"material":0}]}],"nodes":[{"mesh":0,"name":"Beam.034"},{"mesh":1,"name":"Beam.035"},{"mesh":2,"name":"Beam.036"},{"mesh":3,"name":"Beam.037"},{"mesh":4,"name":"Beam.038"},{"mesh":5,"name":"Beam.039"},{"mesh":6,"name":"Beam.040"},{"mesh":7,"name":"Beam.041"},{"mesh":8,"name":"BelfryFloor.032"},{"mesh":9,"name":"Bell.033"},{"mesh":10,"name":"ClockFace.013"},{"mesh":11,"name":"ClockFace.017"},{"mesh":12,"name":"ClockFace.021"},{"mesh":13,"name":"ClockFace.025"},{"mesh":14,"name":"ClockHand.014"},{"mesh":15,"name":"ClockHand.015"},{"mesh":16,"name":"ClockHand.018"},{"mesh":17,"name":"ClockHand.019"},{"mesh":18,"name":"ClockHand.022"},{"mesh":19,"name":"ClockHand.023"},{"mesh":20,"name":"ClockHand.026"},{"mesh":21,"name":"ClockHand.027"},{"mesh":22,"name":"ClockRim.012"},{"mesh":23,"name":"ClockRim.016"},{"mesh":24,"name":"ClockRim.020"},{"mesh":25,"name":"ClockRim.024"},{"mesh":26,"name":"Corner_Exterior_Wood.077","scale":[1,1.3333333730697632,1],"translation":[-3,0,-4.400000095367432]},{"mesh":26,"name":"Corner_Exterior_Wood.078","scale":[1,1.3333333730697632,1],"translation":[3,0,-4.400000095367432]},{"mesh":26,"name":"Corner_Exterior_Wood.079","scale":[1,1.3333333730697632,1],"translation":[-3,0,-12.399999618530273]},{"mesh":26,"name":"Corner_Exterior_Wood.080","scale":[1,1.3333333730697632,1],"translation":[3,0,-12.399999618530273]},{"mesh":27,"name":"Cornice.042"},{"mesh":28,"name":"Course.003"},{"mesh":29,"name":"Course.004"},{"mesh":30,"name":"Course.005"},{"mesh":31,"name":"Door_1_Round.007","translation":[-0.550000011920929,0.699999988079071,0.019999999552965164]},{"mesh":32,"name":"DoorFrame_Round_WoodDark.006","translation":[0,0.699999988079071,0.019999999552965164]},{"mesh":33,"name":"Pier.028"},{"mesh":34,"name":"Pier.029"},{"mesh":35,"name":"Pier.030"},{"mesh":36,"name":"Pier.031"},{"mesh":37,"name":"Pinnacle.046"},{"mesh":38,"name":"Pinnacle.047"},{"mesh":39,"name":"Pinnacle.048"},{"mesh":40,"name":"Pinnacle.049"},{"mesh":41,"name":"Roof_Front_Brick6.082","rotation":[0,-1,0,4.371138828673793e-08],"translation":[0,4.159999847412109,-13]},{"mesh":42,"name":"Roof_RoundTiles_6x8.081","scale":[1,1,1.0750000476837158],"translation":[0,4.159999847412109,-8.699999809265137]},{"mesh":43,"name":"Spire.043"},{"mesh":44,"name":"SpireBall.045"},{"mesh":45,"name":"SpireRod.044"},{"mesh":46,"name":"Step.008"},{"mesh":47,"name":"Tower.002"},{"mesh":48,"name":"TowerPlinth.001"},{"mesh":49,"name":"Wall_UnevenBrick_Straight.070","rotation":[0,-1,0,4.371138828673793e-08],"scale":[1,1.3333333730697632,1],"translation":[2,0,-12.399999618530273]},{"mesh":49,"name":"Wall_UnevenBrick_Straight.073","rotation":[0,-1,0,4.371138828673793e-08],"scale":[1,1.3333333730697632,1],"translation":[-2,0,-12.399999618530273]},{"mesh":49,"name":"Wall_UnevenBrick_Straight.074","scale":[1,1.3333333730697632,1],"translation":[-2,0,-4.400000095367432]},{"mesh":49,"name":"Wall_UnevenBrick_Straight.075","scale":[1,1.3333333730697632,1],"translation":[0,0,-4.400000095367432]},{"mesh":49,"name":"Wall_UnevenBrick_Straight.076","scale":[1,1.3333333730697632,1],"translation":[2,0,-4.400000095367432]},{"mesh":50,"name":"Wall_UnevenBrick_Window_Thin_Round.050","rotation":[0,-0.7071068286895752,0,0.7071068286895752],"scale":[1,1.3333333730697632,1],"translation":[-3,0,-11.399999618530273]},{"mesh":50,"name":"Wall_UnevenBrick_Window_Thin_Round.053","rotation":[0,-0.7071068286895752,0,0.7071068286895752],"scale":[1,1.3333333730697632,1],"translation":[-3,0,-9.399999618530273]},{"mesh":50,"name":"Wall_UnevenBrick_Window_Thin_Round.055","rotation":[0,-0.7071068286895752,0,0.7071068286895752],"scale":[1,1.3333333730697632,1],"translation":[-3,0,-7.399999618530273]},{"mesh":50,"name":"Wall_UnevenBrick_Window_Thin_Round.058","rotation":[0,-0.7071068286895752,0,0.7071068286895752],"scale":[1,1.3333333730697632,1],"translation":[-3,0,-5.399999618530273]},{"mesh":50,"name":"Wall_UnevenBrick_Window_Thin_Round.060","rotation":[0,0.7071068286895752,0,0.7071068286895752],"scale":[1,1.3333333730697632,1],"translation":[3,0,-5.400000095367432]},{"mesh":50,"name":"Wall_UnevenBrick_Window_Thin_Round.062","rotation":[0,0.7071068286895752,0,0.7071068286895752],"scale":[1,1.3333333730697632,1],"translation":[3,0,-7.400000095367432]},{"mesh":50,"name":"Wall_UnevenBrick_Window_Thin_Round.065","rotation":[0,0.7071068286895752,0,0.7071068286895752],"scale":[1,1.3333333730697632,1],"translation":[3,0,-9.399999618530273]},{"mesh":50,"name":"Wall_UnevenBrick_Window_Thin_Round.067","rotation":[0,0.7071068286895752,0,0.7071068286895752],"scale":[1,1.3333333730697632,1],"translation":[3,0,-11.399999618530273]},{"mesh":50,"name":"Wall_UnevenBrick_Window_Thin_Round.071","rotation":[0,-1,0,4.371138828673793e-08],"scale":[1,1.3333333730697632,1],"translation":[0,0,-12.399999618530273]},{"mesh":51,"name":"Window_Thin_Round1.009","translation":[0,5.400000095367432,0.11999999731779099]},{"mesh":51,"name":"Window_Thin_Round1.010","rotation":[0,-0.7071068286895752,0,0.7071068286895752],"translation":[-2.319999933242798,5.400000095367432,-2.200000047683716]},{"mesh":51,"name":"Window_Thin_Round1.011","rotation":[0,0.7071068286895752,0,0.7071068286895752],"translation":[2.319999933242798,5.400000095367432,-2.200000047683716]},{"mesh":51,"name":"Window_Thin_Round1.051","rotation":[0,-0.7071068286895752,0,0.7071068286895752],"scale":[1,1.3333333730697632,1],"translation":[-3,0,-11.399999618530273]},{"mesh":51,"name":"Window_Thin_Round1.054","rotation":[0,-0.7071068286895752,0,0.7071068286895752],"scale":[1,1.3333333730697632,1],"translation":[-3,0,-9.399999618530273]},{"mesh":51,"name":"Window_Thin_Round1.056","rotation":[0,-0.7071068286895752,0,0.7071068286895752],"scale":[1,1.3333333730697632,1],"translation":[-3,0,-7.399999618530273]},{"mesh":51,"name":"Window_Thin_Round1.059","rotation":[0,-0.7071068286895752,0,0.7071068286895752],"scale":[1,1.3333333730697632,1],"translation":[-3,0,-5.399999618530273]},{"mesh":51,"name":"Window_Thin_Round1.061","rotation":[0,0.7071068286895752,0,0.7071068286895752],"scale":[1,1.3333333730697632,1],"translation":[3,0,-5.400000095367432]},{"mesh":51,"name":"Window_Thin_Round1.063","rotation":[0,0.7071068286895752,0,0.7071068286895752],"scale":[1,1.3333333730697632,1],"translation":[3,0,-7.400000095367432]},{"mesh":51,"name":"Window_Thin_Round1.066","rotation":[0,0.7071068286895752,0,0.7071068286895752],"scale":[1,1.3333333730697632,1],"translation":[3,0,-9.399999618530273]},{"mesh":51,"name":"Window_Thin_Round1.068","rotation":[0,0.7071068286895752,0,0.7071068286895752],"scale":[1,1.3333333730697632,1],"translation":[3,0,-11.399999618530273]},{"mesh":51,"name":"Window_Thin_Round1.072","rotation":[0,-1,0,4.371138828673793e-08],"scale":[1,1.3333333730697632,1],"translation":[0,0,-12.399999618530273]},{"mesh":52,"name":"WindowShutters_Thin_Round_Open.052","rotation":[0,-0.7071068286895752,0,0.7071068286895752],"scale":[1,1.3333333730697632,1],"translation":[-3,0,-11.399999618530273]},{"mesh":52,"name":"WindowShutters_Thin_Round_Open.057","rotation":[0,-0.7071068286895752,0,0.7071068286895752],"scale":[1,1.3333333730697632,1],"translation":[-3,0,-7.399999618530273]},{"mesh":52,"name":"WindowShutters_Thin_Round_Open.064","rotation":[0,0.7071068286895752,0,0.7071068286895752],"scale":[1,1.3333333730697632,1],"translation":[3,0,-7.400000095367432]},{"mesh":52,"name":"WindowShutters_Thin_Round_Open.069","rotation":[0,0.7071068286895752,0,0.7071068286895752],"scale":[1,1.3333333730697632,1],"translation":[3,0,-11.399999618530273]}],"scene":0,"scenes":[{"name":"Scene","nodes":[0,1,2,3,4,5,6,7,8,9,10,11,12,13,14,15,16,17,18,19,20,21,22,23,24,25,26,27,28,29,30,31,32,33,34,35,36,37,38,39,40,41,42,43,44,45,46,47,48,49,50,51,52,53,54,55,56,57,58,59,60,61,62,63,64,65,66,67,68,69,70,71,72,73,74,75,76,77,78,79,80,81]}],"textures":[{"source":0},{"source":1},{"source":2},{"source":3},{"source":4},{"source":5}]}
