{"accessors":[{"bufferView":0,"componentType":5126,"count":1540,"type":"VEC3"},{"bufferView":1,"componentType":5126,"count":1540,"max":[3.0999999046325684,31.299999237060547,3.0999999046325684],"min":[-3.0999999046325684,0,-3.0999999046325684],"type":"VEC3"},{"bufferView":2,"componentType":5126,"count":1540,"type":"VEC2"},{"bufferView":3,"componentType":5123,"count":4878,"type":"SCALAR"},{"bufferView":4,"componentType":5126,"count":360,"type":"VEC3"},{"bufferView":5,"componentType":5126,"count":360,"max":[3.0999999046325684,31.450000762939453,3.0999999046325684],"min":[-3.0999999046325684,0,-3.0999999046325684],"type":"VEC3"},{"bufferView":6,"componentType":5126,"count":360,"type":"VEC2"},{"bufferView":7,"componentType":5123,"count":684,"type":"SCALAR"},{"bufferView":8,"componentType":5126,"count":256,"type":"VEC3"},{"bufferView":9,"componentType":5126,"count":256,"max":[2.6500000953674316,27.79800033569336,2.6500000953674316],"min":[-2.6500000953674316,6.001999855041504,-2.6500000953674316],"type":"VEC3"},{"bufferView":10,"componentType":5123,"count":384,"type":"SCALAR"},{"bufferView":11,"componentType":5126,"count":36,"type":"VEC3"},{"bufferView":12,"componentType":5126,"count":36,"max":[0.5979999899864197,30.899999618530273,2.5999999046325684],"min":[-0.5979999899864197,0,0.5],"type":"VEC3"},{"bufferView":13,"componentType":5123,"count":54,"type":"SCALAR"},{"bufferView":14,"componentType":5126,"count":44,"type":"VEC3"},{"bufferView":15,"componentType":5126,"count":44,"max":[0.7900000214576721,33.68000030517578,-1.0099999904632568],"min":[0.6100000143051147,31.450000762939453,-1.190000057220459],"type":"VEC3"},{"bufferView":16,"componentType":5123,"count":66,"type":"SCALAR"}],"asset":{"generator":"Khronos glTF Blender I/O v5.2.40","version":"2.0"},"bufferViews":[{"buffer":0,"byteOffset":0,"byteLength":18480,"target":34962},{"buffer":0,"byteOffset":18480,"byteLength":18480,"target":34962},{"buffer":0,"byteOffset":36960,"byteLength":12320,"target":34962},{"buffer":0,"byteOffset":49280,"byteLength":9756,"target":34963},{"buffer":0,"byteOffset":59036,"byteLength":4320,"target":34962},{"buffer":0,"byteOffset":63356,"byteLength":4320,"target":34962},{"buffer":0,"byteOffset":67676,"byteLength":2880,"target":34962},{"buffer":0,"byteOffset":70556,"byteLength":1368,"target":34963},{"buffer":0,"byteOffset":71924,"byteLength":3072,"target":34962},{"buffer":0,"byteOffset":74996,"byteLength":3072,"target":34962},{"buffer":0,"byteOffset":78068,"byteLength":768,"target":34963},{"buffer":0,"byteOffset":78836,"byteLength":432,"target":34962},{"buffer":0,"byteOffset":79268,"byteLength":432,"target":34962},{"buffer":0,"byteOffset":79700,"byteLength":108,"target":34963},{"buffer":0,"byteOffset":79808,"byteLength":528,"target":34962},{"buffer":0,"byteOffset":80336,"byteLength":528,"target":34962},{"buffer":0,"byteOffset":80864,"byteLength":132,"target":34963}],"buffers":[{"byteLength":80996,"uri":"concrete_tower.bin"}],"images":[{"name":"T_Concrete_BaseColor","uri":"T_Concrete_BaseColor.png"}],"materials":[{"doubleSided":true,"name":"Concrete","pbrMetallicRoughness":{"baseColorTexture":{"index":0},"metallicFactor":0,"roughnessFactor":0.949999988079071}},{"doubleSided":true,"name":"ConcreteDark","pbrMetallicRoughness":{"baseColorFactor":[0.75,0.75,0.75,1],"baseColorTexture":{"index":1},"metallicFactor":0,"roughnessFactor":0.949999988079071}},{"doubleSided":true,"name":"Glass","pbrMetallicRoughness":{"baseColorFactor":[0.03500000014901161,0.04500000178813934,0.05999999865889549,1],"metallicFactor":0,"roughnessFactor":0.3499999940395355}},{"doubleSided":true,"name":"Door","pbrMetallicRoughness":{"baseColorFactor":[0.05999999865889549,0.05999999865889549,0.06499999761581421,1],"metallicFactor":0,"roughnessFactor":0.800000011920929}},{"doubleSided":true,"name":"Metal","pbrMetallicRoughness":{"baseColorFactor":[0.20000000298023224,0.20000000298023224,0.20999999344348907,1],"metallicFactor":0.6000000238418579,"roughnessFactor":0.5}}],"meshes":[{"name":"concrete_tower","primitives":[{"attributes":{"NORMAL":0,"POSITION":1,"TEXCOORD_0":2},"indices":3,"material":0},{"attributes":{"NORMAL":4,"POSITION":5,"TEXCOORD_0":6},"indices":7,"material":1},{"attributes":{"NORMAL":8,"POSITION":9},"indices":10,"material":2},{"attributes":{"NORMAL":11,"POSITION":12},"indices":13,"material":3},{"attributes":{"NORMAL":14,"POSITION":15},"indices":16,"material":4}]}],"nodes":[{"mesh":0,"name":"concrete_tower"}],"scene":0,"scenes":[{"name":"Scene","nodes":[0]}],"textures":[{"source":0},{"source":0}]}