{"accessors":[{"bufferView":0,"componentType":5126,"count":168,"type":"VEC3"},{"bufferView":1,"componentType":5126,"count":168,"max":[1.5213310718536377,3.4263041019439697,2.1359026432037354],"min":[-0.7611681818962097,0.7814890742301941,-1.3397414684295654],"type":"VEC3"},{"bufferView":2,"componentType":5123,"count":216,"type":"SCALAR"},{"bufferView":3,"componentType":5126,"count":32,"type":"VEC3"},{"bufferView":4,"componentType":5126,"count":32,"max":[0.9753689169883728,2.3441197872161865,1.4946507215499878],"min":[-0.13694655895233154,0,-0.6081235408782959],"type":"VEC3"},{"bufferView":5,"componentType":5123,"count":48,"type":"SCALAR"},{"bufferView":6,"componentType":5126,"count":64,"type":"VEC3"},{"bufferView":7,"componentType":5126,"count":64,"max":[2.1316916942596436,3.376469373703003,1.0321879386901855],"min":[-1.9109396934509277,0,-1.3222543001174927],"type":"VEC3"},{"bufferView":8,"componentType":5123,"count":96,"type":"SCALAR"},{"bufferView":9,"componentType":5126,"count":120,"type":"VEC3"},{"bufferView":10,"componentType":5126,"count":120,"max":[2.6874160766601562,3.4310684204101562,1.310787558555603],"min":[-2.724801778793335,0.3999999761581421,-2.037536144256592],"type":"VEC3"},{"bufferView":11,"componentType":5123,"count":192,"type":"SCALAR"},{"bufferView":12,"componentType":5126,"count":168,"type":"VEC3"},{"bufferView":13,"componentType":5126,"count":168,"max":[2.724801778793335,4.6677045822143555,1.7278814315795898],"min":[-2.0772576332092285,1.0709378719329834,-2.1359026432037354],"type":"VEC3"},{"bufferView":14,"componentType":5123,"count":216,"type":"SCALAR"}],"asset":{"generator":"Khronos glTF Blender I/O v5.2.40","version":"2.0"},"bufferViews":[{"buffer":0,"byteOffset":0,"byteLength":2016,"target":34962},{"buffer":0,"byteOffset":2016,"byteLength":2016,"target":34962},{"buffer":0,"byteOffset":4032,"byteLength":432,"target":34963},{"buffer":0,"byteOffset":4464,"byteLength":384,"target":34962},{"buffer":0,"byteOffset":4848,"byteLength":384,"target":34962},{"buffer":0,"byteOffset":5232,"byteLength":96,"target":34963},{"buffer":0,"byteOffset":5328,"byteLength":768,"target":34962},{"buffer":0,"byteOffset":6096,"byteLength":768,"target":34962},{"buffer":0,"byteOffset":6864,"byteLength":192,"target":34963},{"buffer":0,"byteOffset":7056,"byteLength":1440,"target":34962},{"buffer":0,"byteOffset":8496,"byteLength":1440,"target":34962},{"buffer":0,"byteOffset":9936,"byteLength":384,"target":34963},{"buffer":0,"byteOffset":10320,"byteLength":2016,"target":34962},{"buffer":0,"byteOffset":12336,"byteLength":2016,"target":34962},{"buffer":0,"byteOffset":14352,"byteLength":432,"target":34963}],"buffers":[{"byteLength":14784,"uri":"copse.bin"}],"images":[],"materials":[{"doubleSided":true,"name":"Prop_CanopyLight","pbrMetallicRoughness":{"baseColorFactor":[0.11999999731779099,0.27000001072883606,0.05000000074505806,1],"metallicFactor":0,"roughnessFactor":0.8999999761581421}},{"doubleSided":true,"name":"Prop_BirchBark","pbrMetallicRoughness":{"baseColorFactor":[0.75,0.7300000190734863,0.6600000262260437,1],"metallicFactor":0,"roughnessFactor":0.8999999761581421}},{"doubleSided":true,"name":"Prop_Bark","pbrMetallicRoughness":{"baseColorFactor":[0.1599999964237213,0.07999999821186066,0.03500000014901161,1],"metallicFactor":0,"roughnessFactor":0.8999999761581421}},{"doubleSided":true,"name":"Prop_Needles","pbrMetallicRoughness":{"baseColorFactor":[0.029999999329447746,0.10999999940395355,0.03500000014901161,1],"metallicFactor":0,"roughnessFactor":0.8999999761581421}},{"doubleSided":true,"name":"Prop_Leaf","pbrMetallicRoughness":{"baseColorFactor":[0.07000000029802322,0.20000000298023224,0.03999999910593033,1],"metallicFactor":0,"roughnessFactor":0.8999999761581421}}],"meshes":[{"name":"copse","primitives":[{"attributes":{"NORMAL":0,"POSITION":1},"indices":2,"material":0},{"attributes":{"NORMAL":3,"POSITION":4},"indices":5,"material":1},{"attributes":{"NORMAL":6,"POSITION":7},"indices":8,"material":2},{"attributes":{"NORMAL":9,"POSITION":10},"indices":11,"material":3},{"attributes":{"NORMAL":12,"POSITION":13},"indices":14,"material":4}]}],"nodes":[{"mesh":0,"name":"copse"}],"scene":0,"scenes":[{"name":"Scene","nodes":[0]}],"textures":[]}