{"accessors":[{"bufferView":0,"componentType":5126,"count":16,"type":"VEC3"},{"bufferView":1,"componentType":5126,"count":16,"max":[-1.5,2.75,1.4199999570846558],"min":[-3,1.9199999570846558,0.11999999731779099],"type":"VEC3"},{"bufferView":2,"componentType":5123,"count":24,"type":"SCALAR"},{"bufferView":3,"componentType":5126,"count":16,"type":"VEC3"},{"bufferView":4,"componentType":5126,"count":16,"max":[-1,2.75,1.4199999570846558],"min":[-2.5,1.9199999570846558,0.11999999731779099],"type":"VEC3"},{"bufferView":5,"componentType":5126,"count":16,"type":"VEC3"},{"bufferView":6,"componentType":5126,"count":16,"max":[2.5,2.75,1.4199999570846558],"min":[1,1.9199999570846558,0.11999999731779099],"type":"VEC3"},{"bufferView":7,"componentType":5126,"count":16,"type":"VEC3"},{"bufferView":8,"componentType":5126,"count":16,"max":[3,2.75,1.4199999570846558],"min":[1.5,1.9199999570846558,0.11999999731779099],"type":"VEC3"},{"bufferView":9,"componentType":5126,"count":32,"type":"VEC3"},{"bufferView":10,"componentType":5126,"count":32,"max":[4.4200005531311035,2.75,3.337007399295544e-07],"min":[3.119999885559082,1.9199999570846558,-3.499999761581421],"type":"VEC3"},{"bufferView":11,"componentType":5123,"count":48,"type":"SCALAR"},{"bufferView":12,"componentType":5126,"count":32,"type":"VEC3"},{"bufferView":13,"componentType":5126,"count":32,"max":[4.4200005531311035,2.75,-0.49999967217445374],"min":[3.119999885559082,1.9199999570846558,-3.999999761581421],"type":"VEC3"},{"bufferView":14,"componentType":5126,"count":4,"type":"VEC3"},{"bufferView":15,"componentType":5126,"count":4,"max":[-2.9200000762939453,2.200000047683716,1.4199999570846558],"min":[-2.9600000381469727,1.850000023841858,0.11999999731779099],"type":"VEC3"},{"bufferView":16,"componentType":5123,"count":6,"type":"SCALAR"},{"bufferView":17,"componentType":5126,"count":4,"type":"VEC3"},{"bufferView":18,"componentType":5126,"count":4,"max":[-1.0399999618530273,2.200000047683716,1.4199999570846558],"min":[-1.0800000429153442,1.850000023841858,0.11999999731779099],"type":"VEC3"},{"bufferView":19,"componentType":5126,"count":4,"type":"VEC3"},{"bufferView":20,"componentType":5126,"count":4,"max":[1.0800000429153442,2.200000047683716,1.4199999570846558],"min":[1.0399999618530273,1.850000023841858,0.11999999731779099],"type":"VEC3"},{"bufferView":21,"componentType":5126,"count":4,"type":"VEC3"},{"bufferView":22,"componentType":5126,"count":4,"max":[2.9600000381469727,2.200000047683716,1.4199999570846558],"min":[2.9200000762939453,1.850000023841858,0.11999999731779099],"type":"VEC3"},{"bufferView":23,"componentType":5126,"count":4,"type":"VEC3"},{"bufferView":24,"componentType":5126,"count":4,"max":[4.420000076293945,2.200000047683716,-0.03999966382980347],"min":[3.119999885559082,1.850000023841858,-0.07999975979328156],"type":"VEC3"},{"bufferView":25,"componentType":5126,"count":4,"type":"VEC3"},{"bufferView":26,"componentType":5126,"count":4,"max":[4.4200005531311035,2.200000047683716,-3.919999837875366],"min":[3.120000123977661,1.850000023841858,-3.9599997997283936],"type":"VEC3"},{"bufferView":27,"componentType":5126,"count":24,"type":"VEC3"},{"bufferView":28,"componentType":5126,"count":24,"max":[-1,2.2300000190734863,1.4500000476837158],"min":[-3,2.1700000762939453,1.3899999856948853],"type":"VEC3"},{"bufferView":29,"componentType":5123,"count":36,"type":"SCALAR"},{"bufferView":30,"componentType":5126,"count":24,"type":"VEC3"},{"bufferView":31,"componentType":5126,"count":24,"max":[3,2.2300000190734863,1.4500000476837158],"min":[1,2.1700000762939453,1.3899999856948853],"type":"VEC3"},{"bufferView":32,"componentType":5126,"count":24,"type":"VEC3"},{"bufferView":33,"componentType":5126,"count":24,"max":[4.450000286102295,2.2300000190734863,3.3596563753235387e-07],"min":[4.389999866485596,2.1700000762939453,-3.999999761581421],"type":"VEC3"},{"bufferView":34,"componentType":5123,"count":36,"type":"SCALAR"},{"bufferView":35,"componentType":5126,"count":20,"type":"VEC3"},{"bufferView":36,"componentType":5126,"count":20,"max":[0.10508709400892258,2.999999761581421,0.11982007324695587],"min":[-0.10508733242750168,-1.5052728485898115e-07,-0.11982005089521408],"type":"VEC3"},{"bufferView":37,"componentType":5126,"count":20,"type":"VEC2"},{"bufferView":38,"componentType":5123,"count":30,"type":"SCALAR"},{"bufferView":39,"componentType":5126,"count":20,"type":"VEC3"},{"bufferView":40,"componentType":5126,"count":20,"max":[0.10508709400892258,2.999999761581421,0.11982007324695587],"min":[-0.10508733242750168,-1.5052728485898115e-07,-0.11982005089521408],"type":"VEC3"},{"bufferView":41,"componentType":5126,"count":20,"type":"VEC2"},{"bufferView":42,"componentType":5126,"count":20,"type":"VEC3"},{"bufferView":43,"componentType":5126,"count":20,"max":[0.10508709400892258,2.999999761581421,0.11982007324695587],"min":[-0.10508733242750168,-1.5052728485898115e-07,-0.11982005089521408],"type":"VEC3"},{"bufferView":44,"componentType":5126,"count":20,"type":"VEC2"},{"bufferView":45,"componentType":5126,"count":20,"type":"VEC3"},{"bufferView":46,"componentType":5126,"count":20,"max":[0.10508709400892258,2.999999761581421,0.11982007324695587],"min":[-0.10508733242750168,-1.5052728485898115e-07,-0.11982005089521408],"type":"VEC3"},{"bufferView":47,"componentType":5126,"count":20,"type":"VEC2"},{"bufferView":48,"componentType":5126,"count":24,"type":"VEC3"},{"bufferView":49,"componentType":5126,"count":24,"max":[0.10508709400892258,2.999999761581421,0.11982007324695587],"min":[-0.10508733242750168,-1.5052728485898115e-07,-0.11982005089521408],"type":"VEC3"},{"bufferView":50,"componentType":5126,"count":24,"type":"VEC2"},{"bufferView":51,"componentType":5123,"count":36,"type":"SCALAR"},{"bufferView":52,"componentType":5126,"count":744,"type":"VEC3"},{"bufferView":53,"componentType":5126,"count":744,"max":[1.0737497806549072,2.3513262271881104,0.06314271688461304],"min":[-0.04626310616731644,0.033089637756347656,-0.05755755677819252],"type":"VEC3"},{"bufferView":54,"componentType":5126,"count":744,"type":"VEC2"},{"bufferView":55,"componentType":5123,"count":1362,"type":"SCALAR"},{"bufferView":56,"componentType":5126,"count":28,"type":"VEC3"},{"bufferView":57,"componentType":5126,"count":28,"max":[0.8667700886726379,1.7624019384384155,0.0312458835542202],"min":[0.1617247760295868,1.3117259740829468,0.031245503574609756],"type":"VEC3"},{"bufferView":58,"componentType":5123,"count":48,"type":"SCALAR"},{"bufferView":59,"componentType":5126,"count":664,"type":"VEC3"},{"bufferView":60,"componentType":5126,"count":664,"max":[1.0716030597686768,2.134512424468994,0.05755815654993057],"min":[-0.04626310616731644,0.0352252721786499,-0.05755755677819252],"type":"VEC3"},{"bufferView":61,"componentType":5126,"count":664,"type":"VEC2"},{"bufferView":62,"componentType":5123,"count":996,"type":"SCALAR"},{"bufferView":63,"componentType":5126,"count":601,"type":"VEC3"},{"bufferView":64,"componentType":5126,"count":601,"max":[1.0157819986343384,1.2524888515472412,0.0917586237192154],"min":[0.027867160737514496,0.07330965995788574,-0.10770562291145325],"type":"VEC3"},{"bufferView":65,"componentType":5126,"count":601,"type":"VEC2"},{"bufferView":66,"componentType":5123,"count":1962,"type":"SCALAR"},{"bufferView":67,"componentType":5126,"count":106,"type":"VEC3"},{"bufferView":68,"componentType":5126,"count":106,"max":[0.7877825498580933,2.3037145137786865,0.14516234397888184],"min":[-0.7862095236778259,-0.008544828742742538,-0.24328981339931488],"type":"VEC3"},{"bufferView":69,"componentType":5126,"count":106,"type":"VEC2"},{"bufferView":70,"componentType":5123,"count":150,"type":"SCALAR"},{"bufferView":71,"componentType":5126,"count":360,"type":"VEC3"},{"bufferView":72,"componentType":5126,"count":360,"max":[0.7034913897514343,2.5548486709594727,0.29893577098846436],"min":[-0.7034929394721985,-0.008544921875,-0.24002820253372192],"type":"VEC3"},{"bufferView":73,"componentType":5126,"count":360,"type":"VEC2"},{"bufferView":74,"componentType":5123,"count":954,"type":"SCALAR"},{"bufferView":75,"componentType":5126,"count":508,"type":"VEC3"},{"bufferView":76,"componentType":5126,"count":508,"max":[0.4383014738559723,3.177875280380249,0.47339576482772827],"min":[-0.4516017735004425,2.8398513793945312,-0.43134835362434387],"type":"VEC3"},{"bufferView":77,"componentType":5126,"count":508,"type":"VEC2"},{"bufferView":78,"componentType":5123,"count":1830,"type":"SCALAR"},{"bufferView":79,"componentType":5126,"count":16,"type":"VEC3"},{"bufferView":80,"componentType":5126,"count":16,"max":[0.4457784593105316,3,0.5000000596046448],"min":[-0.5000000596046448,5.960464477539063e-08,-0.5000000596046448],"type":"VEC3"},{"bufferView":81,"componentType":5126,"count":16,"type":"VEC2"},{"bufferView":82,"componentType":5123,"count":24,"type":"SCALAR"},{"bufferView":83,"componentType":5126,"count":24,"type":"VEC3"},{"bufferView":84,"componentType":5126,"count":24,"max":[1.0000001192092896,0.13401801884174347,0.699999988079071],"min":[-1.0000001192092896,2.701569457030928e-08,0],"type":"VEC3"},{"bufferView":85,"componentType":5126,"count":24,"type":"VEC2"},{"bufferView":86,"componentType":5123,"count":42,"type":"SCALAR"},{"bufferView":87,"componentType":5126,"count":24,"type":"VEC3"},{"bufferView":88,"componentType":5126,"count":24,"max":[1.0000001192092896,0.13401801884174347,0.699999988079071],"min":[-1.0000001192092896,2.701569457030928e-08,0],"type":"VEC3"},{"bufferView":89,"componentType":5126,"count":24,"type":"VEC2"},{"bufferView":90,"componentType":5126,"count":24,"type":"VEC3"},{"bufferView":91,"componentType":5126,"count":24,"max":[1.0000001192092896,0.13401801884174347,0.699999988079071],"min":[-1.0000001192092896,2.701569457030928e-08,0],"type":"VEC3"},{"bufferView":92,"componentType":5126,"count":24,"type":"VEC2"},{"bufferView":93,"componentType":5126,"count":504,"type":"VEC3"},{"bufferView":94,"componentType":5126,"count":504,"max":[3.347877264022827,4.383981704711914,0.7941403388977051],"min":[-3.346518039703369,-0.13180209696292877,-0.33496367931365967],"type":"VEC3"},{"bufferView":95,"componentType":5126,"count":504,"type":"VEC2"},{"bufferView":96,"componentType":5123,"count":936,"type":"SCALAR"},{"bufferView":97,"componentType":5126,"count":20,"type":"VEC3"},{"bufferView":98,"componentType":5126,"count":20,"max":[3.1225504875183105,4.377229690551758,1.375610736431554e-11],"min":[-3.1225504875183105,0.019167041406035423,-0.24970144033432007],"type":"VEC3"},{"bufferView":99,"componentType":5126,"count":20,"type":"VEC2"},{"bufferView":100,"componentType":5123,"count":48,"type":"SCALAR"},{"bufferView":101,"componentType":5126,"count":1616,"type":"VEC3"},{"bufferView":102,"componentType":5126,"count":1616,"max":[3.958951234817505,4.342607498168945,4.828753471374512],"min":[-3.958951234817505,-0.7821269035339355,-4.828753471374512],"type":"VEC3"},{"bufferView":103,"componentType":5126,"count":1616,"type":"VEC2"},{"bufferView":104,"componentType":5123,"count":2616,"type":"SCALAR"},{"bufferView":105,"componentType":5126,"count":1540,"type":"VEC3"},{"bufferView":106,"componentType":5126,"count":1540,"max":[4.124891757965088,4.890044689178467,4.8539862632751465],"min":[-4.124891757965088,-0.6384454965591431,-4.756110191345215],"type":"VEC3"},{"bufferView":107,"componentType":5126,"count":1540,"type":"VEC2"},{"bufferView":108,"componentType":5123,"count":4215,"type":"SCALAR"},{"bufferView":109,"componentType":5126,"count":124,"type":"VEC3"},{"bufferView":110,"componentType":5126,"count":124,"max":[0.09985005855560303,0.06566542387008667,0.7651262283325195],"min":[-0.09984996169805527,-0.6772639155387878,-1.62676236925563e-08],"type":"VEC3"},{"bufferView":111,"componentType":5126,"count":124,"type":"VEC2"},{"bufferView":112,"componentType":5123,"count":252,"type":"SCALAR"},{"bufferView":113,"componentType":5126,"count":24,"type":"VEC3"},{"bufferView":114,"componentType":5126,"count":24,"max":[4.289999961853027,3.9800000190734863,-5.12999963760376],"min":[3.0899999141693115,3.820000171661377,-5.269999980926514],"type":"VEC3"},{"bufferView":115,"componentType":5126,"count":24,"type":"VEC2"},{"bufferView":116,"componentType":5126,"count":24,"type":"VEC3"},{"bufferView":117,"componentType":5126,"count":24,"max":[4.239999771118164,3.4800000190734863,-5.149999618530273],"min":[3.3899998664855957,2.6500000953674316,-5.25],"type":"VEC3"},{"bufferView":118,"componentType":5126,"count":24,"type":"VEC2"},{"bufferView":119,"componentType":5126,"count":24,"type":"VEC3"},{"bufferView":120,"componentType":5126,"count":24,"max":[3.554999828338623,3.820000171661377,-5.184999942779541],"min":[3.5249998569488525,3.4800000190734863,-5.214999675750732],"type":"VEC3"},{"bufferView":121,"componentType":5126,"count":24,"type":"VEC3"},{"bufferView":122,"componentType":5126,"count":24,"max":[4.105000019073486,3.820000171661377,-5.184999942779541],"min":[4.074999809265137,3.4800000190734863,-5.214999675750732],"type":"VEC3"},{"bufferView":123,"componentType":5126,"count":96,"type":"VEC3"},{"bufferView":124,"componentType":5126,"count":96,"max":[4.085000038146973,3.320000171661377,-5.134999752044678],"min":[3.5450000762939453,2.7800002098083496,-5.264999866485596],"type":"VEC3"},{"bufferView":125,"componentType":5123,"count":180,"type":"SCALAR"},{"bufferView":126,"componentType":5126,"count":24,"type":"VEC3"},{"bufferView":127,"componentType":5126,"count":24,"max":[4.269999980926514,3.5,-5.139999866485596],"min":[3.359999895095825,3.4200000762939453,-5.259999752044678],"type":"VEC3"},{"bufferView":128,"componentType":5126,"count":24,"type":"VEC2"},{"bufferView":129,"componentType":5126,"count":124,"type":"VEC3"},{"bufferView":130,"componentType":5126,"count":124,"max":[1,3.1226887702941895,0.0924467146396637],"min":[-1.0000001192092896,0.6495776176452637,-0.3140353262424469],"type":"VEC3"},{"bufferView":131,"componentType":5126,"count":124,"type":"VEC2"},{"bufferView":132,"componentType":5123,"count":204,"type":"SCALAR"},{"bufferView":133,"componentType":5126,"count":24,"type":"VEC3"},{"bufferView":134,"componentType":5126,"count":24,"max":[1,3,1.3113415775478643e-07],"min":[-1,0,-0.2000000923871994],"type":"VEC3"},{"bufferView":135,"componentType":5126,"count":24,"type":"VEC2"},{"bufferView":136,"componentType":5123,"count":60,"type":"SCALAR"},{"bufferView":137,"componentType":5126,"count":8,"type":"VEC3"},{"bufferView":138,"componentType":5126,"count":8,"max":[1,0.8799999952316284,4.371138828673793e-08],"min":[-1,0,0],"type":"VEC3"},{"bufferView":139,"componentType":5126,"count":8,"type":"VEC2"},{"bufferView":140,"componentType":5123,"count":12,"type":"SCALAR"},{"bufferView":141,"componentType":5126,"count":124,"type":"VEC3"},{"bufferView":142,"componentType":5126,"count":124,"max":[1,3.1226887702941895,0.0924467146396637],"min":[-1.0000001192092896,0.6495776176452637,-0.3140353262424469],"type":"VEC3"},{"bufferView":143,"componentType":5126,"count":124,"type":"VEC2"},{"bufferView":144,"componentType":5126,"count":69,"type":"VEC3"},{"bufferView":145,"componentType":5126,"count":69,"max":[1,3,1.3113417196564114e-07],"min":[-1,0,-0.2000000923871994],"type":"VEC3"},{"bufferView":146,"componentType":5126,"count":69,"type":"VEC2"},{"bufferView":147,"componentType":5123,"count":195,"type":"SCALAR"},{"bufferView":148,"componentType":5126,"count":8,"type":"VEC3"},{"bufferView":149,"componentType":5126,"count":8,"max":[1,0.9100615382194519,4.3711395392165286e-08],"min":[-1,0,0],"type":"VEC3"},{"bufferView":150,"componentType":5126,"count":8,"type":"VEC2"},{"bufferView":151,"componentType":5123,"count":12,"type":"SCALAR"},{"bufferView":152,"componentType":5126,"count":126,"type":"VEC3"},{"bufferView":153,"componentType":5126,"count":126,"max":[1,3.1226887702941895,0.0924467146396637],"min":[-1.0000001192092896,-0.0020958781242370605,-0.3140353262424469],"type":"VEC3"},{"bufferView":154,"componentType":5126,"count":126,"type":"VEC2"},{"bufferView":155,"componentType":5123,"count":240,"type":"SCALAR"},{"bufferView":156,"componentType":5126,"count":12,"type":"VEC3"},{"bufferView":157,"componentType":5126,"count":12,"max":[1,3,1.3113415775478643e-07],"min":[-1,0,-0.2000000923871994],"type":"VEC3"},{"bufferView":158,"componentType":5126,"count":12,"type":"VEC2"},{"bufferView":159,"componentType":5123,"count":18,"type":"SCALAR"},{"bufferView":160,"componentType":5126,"count":126,"type":"VEC3"},{"bufferView":161,"componentType":5126,"count":126,"max":[1,3.1226887702941895,0.0924467146396637],"min":[-1.0000001192092896,-0.0020958781242370605,-0.3140353262424469],"type":"VEC3"},{"bufferView":162,"componentType":5126,"count":126,"type":"VEC2"},{"bufferView":163,"componentType":5126,"count":12,"type":"VEC3"},{"bufferView":164,"componentType":5126,"count":12,"max":[1,3,1.3113415775478643e-07],"min":[-1,0,-0.2000000923871994],"type":"VEC3"},{"bufferView":165,"componentType":5126,"count":12,"type":"VEC2"},{"bufferView":166,"componentType":5126,"count":80,"type":"VEC3"},{"bufferView":167,"componentType":5126,"count":80,"max":[1,3.1226887702941895,0.0924467146396637],"min":[-1.0000001192092896,0.6495776176452637,-0.3140353262424469],"type":"VEC3"},{"bufferView":168,"componentType":5126,"count":80,"type":"VEC2"},{"bufferView":169,"componentType":5123,"count":174,"type":"SCALAR"},{"bufferView":170,"componentType":5126,"count":8,"type":"VEC3"},{"bufferView":171,"componentType":5126,"count":8,"max":[1,3,1.3113415775478643e-07],"min":[-1,0,-0.2000000923871994],"type":"VEC3"},{"bufferView":172,"componentType":5126,"count":8,"type":"VEC2"},{"bufferView":173,"componentType":5123,"count":12,"type":"SCALAR"},{"bufferView":174,"componentType":5126,"count":4,"type":"VEC3"},{"bufferView":175,"componentType":5126,"count":4,"max":[1,0.8799999952316284,4.371138828673793e-08],"min":[-1,0,0],"type":"VEC3"},{"bufferView":176,"componentType":5126,"count":4,"type":"VEC2"},{"bufferView":177,"componentType":5123,"count":6,"type":"SCALAR"},{"bufferView":178,"componentType":5126,"count":134,"type":"VEC3"},{"bufferView":179,"componentType":5126,"count":134,"max":[1,3.1226887702941895,0.0924467146396637],"min":[-1.0000001192092896,-0.023045778274536133,-0.3140353262424469],"type":"VEC3"},{"bufferView":180,"componentType":5126,"count":134,"type":"VEC2"},{"bufferView":181,"componentType":5123,"count":252,"type":"SCALAR"},{"bufferView":182,"componentType":5126,"count":40,"type":"VEC3"},{"bufferView":183,"componentType":5126,"count":40,"max":[1,3,1.3113415775478643e-07],"min":[-1,0,-0.2000000923871994],"type":"VEC3"},{"bufferView":184,"componentType":5126,"count":40,"type":"VEC2"},{"bufferView":185,"componentType":5123,"count":114,"type":"SCALAR"},{"bufferView":186,"componentType":5126,"count":32,"type":"VEC3"},{"bufferView":187,"componentType":5126,"count":32,"max":[1,3,1.3113417196564114e-07],"min":[-1,0,-0.2000000923871994],"type":"VEC3"},{"bufferView":188,"componentType":5126,"count":32,"type":"VEC2"},{"bufferView":189,"componentType":5123,"count":96,"type":"SCALAR"},{"bufferView":190,"componentType":5126,"count":8,"type":"VEC3"},{"bufferView":191,"componentType":5126,"count":8,"max":[1,0.8799999952316284,4.371138828673793e-08],"min":[-1,0,0],"type":"VEC3"},{"bufferView":192,"componentType":5126,"count":8,"type":"VEC2"},{"bufferView":193,"componentType":5123,"count":18,"type":"SCALAR"},{"bufferView":194,"componentType":5126,"count":80,"type":"VEC3"},{"bufferView":195,"componentType":5126,"count":80,"max":[1,3.1226887702941895,0.0924467146396637],"min":[-1.0000001192092896,0.6495776176452637,-0.3140353262424469],"type":"VEC3"},{"bufferView":196,"componentType":5126,"count":80,"type":"VEC2"},{"bufferView":197,"componentType":5126,"count":80,"type":"VEC3"},{"bufferView":198,"componentType":5126,"count":80,"max":[1,3.1226887702941895,0.0924467146396637],"min":[-1.0000001192092896,0.6495776176452637,-0.3140353262424469],"type":"VEC3"},{"bufferView":199,"componentType":5126,"count":80,"type":"VEC2"},{"bufferView":200,"componentType":5123,"count":174,"type":"SCALAR"},{"bufferView":201,"componentType":5126,"count":60,"type":"VEC3"},{"bufferView":202,"componentType":5126,"count":60,"max":[1,3,1.3113417196564114e-07],"min":[-1,0,-0.2000000923871994],"type":"VEC3"},{"bufferView":203,"componentType":5126,"count":60,"type":"VEC2"},{"bufferView":204,"componentType":5123,"count":180,"type":"SCALAR"},{"bufferView":205,"componentType":5126,"count":8,"type":"VEC3"},{"bufferView":206,"componentType":5126,"count":8,"max":[1,0.8799999952316284,4.371138828673793e-08],"min":[-1,0,0],"type":"VEC3"},{"bufferView":207,"componentType":5126,"count":8,"type":"VEC2"},{"bufferView":208,"componentType":5126,"count":80,"type":"VEC3"},{"bufferView":209,"componentType":5126,"count":80,"max":[1,3.1226887702941895,0.0924467146396637],"min":[-1.0000001192092896,0.6495776176452637,-0.3140353262424469],"type":"VEC3"},{"bufferView":210,"componentType":5126,"count":80,"type":"VEC2"},{"bufferView":211,"componentType":5126,"count":60,"type":"VEC3"},{"bufferView":212,"componentType":5126,"count":60,"max":[1,3,1.3113417196564114e-07],"min":[-1,0,-0.2000000923871994],"type":"VEC3"},{"bufferView":213,"componentType":5126,"count":60,"type":"VEC2"},{"bufferView":214,"componentType":5126,"count":8,"type":"VEC3"},{"bufferView":215,"componentType":5126,"count":8,"max":[1,0.8799999952316284,4.371138828673793e-08],"min":[-1,0,0],"type":"VEC3"},{"bufferView":216,"componentType":5126,"count":8,"type":"VEC2"},{"bufferView":217,"componentType":5126,"count":389,"type":"VEC3"},{"bufferView":218,"componentType":5126,"count":389,"max":[1.000000238418579,3.1226887702941895,0.0924467146396637],"min":[-1.000000238418579,0.6495776176452637,-0.3140353262424469],"type":"VEC3"},{"bufferView":219,"componentType":5126,"count":389,"type":"VEC2"},{"bufferView":220,"componentType":5123,"count":732,"type":"SCALAR"},{"bufferView":221,"componentType":5126,"count":8,"type":"VEC3"},{"bufferView":222,"componentType":5126,"count":8,"max":[1,0.8360880613327026,5.960464477539063e-08],"min":[-1,0,-0.2000001072883606],"type":"VEC3"},{"bufferView":223,"componentType":5126,"count":8,"type":"VEC2"},{"bufferView":224,"componentType":5123,"count":12,"type":"SCALAR"},{"bufferView":225,"componentType":5126,"count":272,"type":"VEC3"},{"bufferView":226,"componentType":5126,"count":272,"max":[0.8041172027587891,2.5242888927459717,0.4168574810028076],"min":[-0.8041191101074219,0.94417804479599,-0.26658084988594055],"type":"VEC3"},{"bufferView":227,"componentType":5126,"count":272,"type":"VEC2"},{"bufferView":228,"componentType":5123,"count":408,"type":"SCALAR"},{"bufferView":229,"componentType":5126,"count":45,"type":"VEC3"},{"bufferView":230,"componentType":5126,"count":45,"max":[0.5054702758789062,2.355356216430664,0.003888234496116638],"min":[-0.5054721832275391,1.0971393585205078,0.0038878247141838074],"type":"VEC3"},{"bufferView":231,"componentType":5123,"count":72,"type":"SCALAR"},{"bufferView":232,"componentType":5126,"count":340,"type":"VEC3"},{"bufferView":233,"componentType":5126,"count":340,"max":[0.691490113735199,2.741780996322632,0.27729201316833496],"min":[-0.691490113735199,1.01604425907135,-0.2522830367088318],"type":"VEC3"},{"bufferView":234,"componentType":5126,"count":340,"type":"VEC2"},{"bufferView":235,"componentType":5123,"count":672,"type":"SCALAR"},{"bufferView":236,"componentType":5126,"count":63,"type":"VEC3"},{"bufferView":237,"componentType":5126,"count":63,"max":[0.5413169860839844,2.6192541122436523,0.0038883001543581486],"min":[-0.5445477962493896,1.0647618770599365,0.003887913655489683],"type":"VEC3"},{"bufferView":238,"componentType":5123,"count":123,"type":"SCALAR"},{"bufferView":239,"componentType":5126,"count":240,"type":"VEC3"},{"bufferView":240,"componentType":5126,"count":240,"max":[1.2418603897094727,2.51727557182312,0.5931743383407593],"min":[-1.2387090921401978,1.0932440757751465,0.13665564358234406],"type":"VEC3"},{"bufferView":241,"componentType":5126,"count":240,"type":"VEC2"},{"bufferView":242,"componentType":5123,"count":360,"type":"SCALAR"},{"bufferView":243,"componentType":5126,"count":272,"type":"VEC3"},{"bufferView":244,"componentType":5126,"count":272,"max":[1.1035263538360596,2.740431785583496,0.56315016746521],"min":[-1.199957251548767,1.0932440757751465,0.09079486131668091],"type":"VEC3"},{"bufferView":245,"componentType":5126,"count":272,"type":"VEC2"},{"bufferView":246,"componentType":5123,"count":408,"type":"SCALAR"}],"asset":{"generator":"Khronos glTF Blender I/O v5.2.40","version":"2.0"},"bufferViews":[{"buffer":0,"byteOffset":0,"byteLength":192,"target":34962},{"buffer":0,"byteOffset":192,"byteLength":192,"target":34962},{"buffer":0,"byteOffset":384,"byteLength":48,"target":34963},{"buffer":0,"byteOffset":432,"byteLength":192,"target":34962},{"buffer":0,"byteOffset":624,"byteLength":192,"target":34962},{"buffer":0,"byteOffset":816,"byteLength":192,"target":34962},{"buffer":0,"byteOffset":1008,"byteLength":192,"target":34962},{"buffer":0,"byteOffset":1200,"byteLength":192,"target":34962},{"buffer":0,"byteOffset":1392,"byteLength":192,"target":34962},{"buffer":0,"byteOffset":1584,"byteLength":384,"target":34962},{"buffer":0,"byteOffset":1968,"byteLength":384,"target":34962},{"buffer":0,"byteOffset":2352,"byteLength":96,"target":34963},{"buffer":0,"byteOffset":2448,"byteLength":384,"target":34962},{"buffer":0,"byteOffset":2832,"byteLength":384,"target":34962},{"buffer":0,"byteOffset":3216,"byteLength":48,"target":34962},{"buffer":0,"byteOffset":3264,"byteLength":48,"target":34962},{"buffer":0,"byteOffset":3312,"byteLength":12,"target":34963},{"buffer":0,"byteOffset":3324,"byteLength":48,"target":34962},{"buffer":0,"byteOffset":3372,"byteLength":48,"target":34962},{"buffer":0,"byteOffset":3420,"byteLength":48,"target":34962},{"buffer":0,"byteOffset":3468,"byteLength":48,"target":34962},{"buffer":0,"byteOffset":3516,"byteLength":48,"target":34962},{"buffer":0,"byteOffset":3564,"byteLength":48,"target":34962},{"buffer":0,"byteOffset":3612,"byteLength":48,"target":34962},{"buffer":0,"byteOffset":3660,"byteLength":48,"target":34962},{"buffer":0,"byteOffset":3708,"byteLength":48,"target":34962},{"buffer":0,"byteOffset":3756,"byteLength":48,"target":34962},{"buffer":0,"byteOffset":3804,"byteLength":288,"target":34962},{"buffer":0,"byteOffset":4092,"byteLength":288,"target":34962},{"buffer":0,"byteOffset":4380,"byteLength":72,"target":34963},{"buffer":0,"byteOffset":4452,"byteLength":288,"target":34962},{"buffer":0,"byteOffset":4740,"byteLength":288,"target":34962},{"buffer":0,"byteOffset":5028,"byteLength":288,"target":34962},{"buffer":0,"byteOffset":5316,"byteLength":288,"target":34962},{"buffer":0,"byteOffset":5604,"byteLength":72,"target":34963},{"buffer":0,"byteOffset":5676,"byteLength":240,"target":34962},{"buffer":0,"byteOffset":5916,"byteLength":240,"target":34962},{"buffer":0,"byteOffset":6156,"byteLength":160,"target":34962},{"buffer":0,"byteOffset":6316,"byteLength":60,"target":34963},{"buffer":0,"byteOffset":6376,"byteLength":240,"target":34962},{"buffer":0,"byteOffset":6616,"byteLength":240,"target":34962},{"buffer":0,"byteOffset":6856,"byteLength":160,"target":34962},{"buffer":0,"byteOffset":7016,"byteLength":240,"target":34962},{"buffer":0,"byteOffset":7256,"byteLength":240,"target":34962},{"buffer":0,"byteOffset":7496,"byteLength":160,"target":34962},{"buffer":0,"byteOffset":7656,"byteLength":240,"target":34962},{"buffer":0,"byteOffset":7896,"byteLength":240,"target":34962},{"buffer":0,"byteOffset":8136,"byteLength":160,"target":34962},{"buffer":0,"byteOffset":8296,"byteLength":288,"target":34962},{"buffer":0,"byteOffset":8584,"byteLength":288,"target":34962},{"buffer":0,"byteOffset":8872,"byteLength":192,"target":34962},{"buffer":0,"byteOffset":9064,"byteLength":72,"target":34963},{"buffer":0,"byteOffset":9136,"byteLength":8928,"target":34962},{"buffer":0,"byteOffset":18064,"byteLength":8928,"target":34962},{"buffer":0,"byteOffset":26992,"byteLength":5952,"target":34962},{"buffer":0,"byteOffset":32944,"byteLength":2724,"target":34963},{"buffer":0,"byteOffset":35668,"byteLength":336,"target":34962},{"buffer":0,"byteOffset":36004,"byteLength":336,"target":34962},{"buffer":0,"byteOffset":36340,"byteLength":96,"target":34963},{"buffer":0,"byteOffset":36436,"byteLength":7968,"target":34962},{"buffer":0,"byteOffset":44404,"byteLength":7968,"target":34962},{"buffer":0,"byteOffset":52372,"byteLength":5312,"target":34962},{"buffer":0,"byteOffset":57684,"byteLength":1992,"target":34963},{"buffer":0,"byteOffset":59676,"byteLength":7212,"target":34962},{"buffer":0,"byteOffset":66888,"byteLength":7212,"target":34962},{"buffer":0,"byteOffset":74100,"byteLength":4808,"target":34962},{"buffer":0,"byteOffset":78908,"byteLength":3924,"target":34963},{"buffer":0,"byteOffset":82832,"byteLength":1272,"target":34962},{"buffer":0,"byteOffset":84104,"byteLength":1272,"target":34962},{"buffer":0,"byteOffset":85376,"byteLength":848,"target":34962},{"buffer":0,"byteOffset":86224,"byteLength":300,"target":34963},{"buffer":0,"byteOffset":86524,"byteLength":4320,"target":34962},{"buffer":0,"byteOffset":90844,"byteLength":4320,"target":34962},{"buffer":0,"byteOffset":95164,"byteLength":2880,"target":34962},{"buffer":0,"byteOffset":98044,"byteLength":1908,"target":34963},{"buffer":0,"byteOffset":99952,"byteLength":6096,"target":34962},{"buffer":0,"byteOffset":106048,"byteLength":6096,"target":34962},{"buffer":0,"byteOffset":112144,"byteLength":4064,"target":34962},{"buffer":0,"byteOffset":116208,"byteLength":3660,"target":34963},{"buffer":0,"byteOffset":119868,"byteLength":192,"target":34962},{"buffer":0,"byteOffset":120060,"byteLength":192,"target":34962},{"buffer":0,"byteOffset":120252,"byteLength":128,"target":34962},{"buffer":0,"byteOffset":120380,"byteLength":48,"target":34963},{"buffer":0,"byteOffset":120428,"byteLength":288,"target":34962},{"buffer":0,"byteOffset":120716,"byteLength":288,"target":34962},{"buffer":0,"byteOffset":121004,"byteLength":192,"target":34962},{"buffer":0,"byteOffset":121196,"byteLength":84,"target":34963},{"buffer":0,"byteOffset":121280,"byteLength":288,"target":34962},{"buffer":0,"byteOffset":121568,"byteLength":288,"target":34962},{"buffer":0,"byteOffset":121856,"byteLength":192,"target":34962},{"buffer":0,"byteOffset":122048,"byteLength":288,"target":34962},{"buffer":0,"byteOffset":122336,"byteLength":288,"target":34962},{"buffer":0,"byteOffset":122624,"byteLength":192,"target":34962},{"buffer":0,"byteOffset":122816,"byteLength":6048,"target":34962},{"buffer":0,"byteOffset":128864,"byteLength":6048,"target":34962},{"buffer":0,"byteOffset":134912,"byteLength":4032,"target":34962},{"buffer":0,"byteOffset":138944,"byteLength":1872,"target":34963},{"buffer":0,"byteOffset":140816,"byteLength":240,"target":34962},{"buffer":0,"byteOffset":141056,"byteLength":240,"target":34962},{"buffer":0,"byteOffset":141296,"byteLength":160,"target":34962},{"buffer":0,"byteOffset":141456,"byteLength":96,"target":34963},{"buffer":0,"byteOffset":141552,"byteLength":19392,"target":34962},{"buffer":0,"byteOffset":160944,"byteLength":19392,"target":34962},{"buffer":0,"byteOffset":180336,"byteLength":12928,"target":34962},{"buffer":0,"byteOffset":193264,"byteLength":5232,"target":34963},{"buffer":0,"byteOffset":198496,"byteLength":18480,"target":34962},{"buffer":0,"byteOffset":216976,"byteLength":18480,"target":34962},{"buffer":0,"byteOffset":235456,"byteLength":12320,"target":34962},{"buffer":0,"byteOffset":247776,"byteLength":8430,"target":34963},{"buffer":0,"byteOffset":256208,"byteLength":1488,"target":34962},{"buffer":0,"byteOffset":257696,"byteLength":1488,"target":34962},{"buffer":0,"byteOffset":259184,"byteLength":992,"target":34962},{"buffer":0,"byteOffset":260176,"byteLength":504,"target":34963},{"buffer":0,"byteOffset":260680,"byteLength":288,"target":34962},{"buffer":0,"byteOffset":260968,"byteLength":288,"target":34962},{"buffer":0,"byteOffset":261256,"byteLength":192,"target":34962},{"buffer":0,"byteOffset":261448,"byteLength":288,"target":34962},{"buffer":0,"byteOffset":261736,"byteLength":288,"target":34962},{"buffer":0,"byteOffset":262024,"byteLength":192,"target":34962},{"buffer":0,"byteOffset":262216,"byteLength":288,"target":34962},{"buffer":0,"byteOffset":262504,"byteLength":288,"target":34962},{"buffer":0,"byteOffset":262792,"byteLength":288,"target":34962},{"buffer":0,"byteOffset":263080,"byteLength":288,"target":34962},{"buffer":0,"byteOffset":263368,"byteLength":1152,"target":34962},{"buffer":0,"byteOffset":264520,"byteLength":1152,"target":34962},{"buffer":0,"byteOffset":265672,"byteLength":360,"target":34963},{"buffer":0,"byteOffset":266032,"byteLength":288,"target":34962},{"buffer":0,"byteOffset":266320,"byteLength":288,"target":34962},{"buffer":0,"byteOffset":266608,"byteLength":192,"target":34962},{"buffer":0,"byteOffset":266800,"byteLength":1488,"target":34962},{"buffer":0,"byteOffset":268288,"byteLength":1488,"target":34962},{"buffer":0,"byteOffset":269776,"byteLength":992,"target":34962},{"buffer":0,"byteOffset":270768,"byteLength":408,"target":34963},{"buffer":0,"byteOffset":271176,"byteLength":288,"target":34962},{"buffer":0,"byteOffset":271464,"byteLength":288,"target":34962},{"buffer":0,"byteOffset":271752,"byteLength":192,"target":34962},{"buffer":0,"byteOffset":271944,"byteLength":120,"target":34963},{"buffer":0,"byteOffset":272064,"byteLength":96,"target":34962},{"buffer":0,"byteOffset":272160,"byteLength":96,"target":34962},{"buffer":0,"byteOffset":272256,"byteLength":64,"target":34962},{"buffer":0,"byteOffset":272320,"byteLength":24,"target":34963},{"buffer":0,"byteOffset":272344,"byteLength":1488,"target":34962},{"buffer":0,"byteOffset":273832,"byteLength":1488,"target":34962},{"buffer":0,"byteOffset":275320,"byteLength":992,"target":34962},{"buffer":0,"byteOffset":276312,"byteLength":828,"target":34962},{"buffer":0,"byteOffset":277140,"byteLength":828,"target":34962},{"buffer":0,"byteOffset":277968,"byteLength":552,"target":34962},{"buffer":0,"byteOffset":278520,"byteLength":390,"target":34963},{"buffer":0,"byteOffset":278912,"byteLength":96,"target":34962},{"buffer":0,"byteOffset":279008,"byteLength":96,"target":34962},{"buffer":0,"byteOffset":279104,"byteLength":64,"target":34962},{"buffer":0,"byteOffset":279168,"byteLength":24,"target":34963},{"buffer":0,"byteOffset":279192,"byteLength":1512,"target":34962},{"buffer":0,"byteOffset":280704,"byteLength":1512,"target":34962},{"buffer":0,"byteOffset":282216,"byteLength":1008,"target":34962},{"buffer":0,"byteOffset":283224,"byteLength":480,"target":34963},{"buffer":0,"byteOffset":283704,"byteLength":144,"target":34962},{"buffer":0,"byteOffset":283848,"byteLength":144,"target":34962},{"buffer":0,"byteOffset":283992,"byteLength":96,"target":34962},{"buffer":0,"byteOffset":284088,"byteLength":36,"target":34963},{"buffer":0,"byteOffset":284124,"byteLength":1512,"target":34962},{"buffer":0,"byteOffset":285636,"byteLength":1512,"target":34962},{"buffer":0,"byteOffset":287148,"byteLength":1008,"target":34962},{"buffer":0,"byteOffset":288156,"byteLength":144,"target":34962},{"buffer":0,"byteOffset":288300,"byteLength":144,"target":34962},{"buffer":0,"byteOffset":288444,"byteLength":96,"target":34962},{"buffer":0,"byteOffset":288540,"byteLength":960,"target":34962},{"buffer":0,"byteOffset":289500,"byteLength":960,"target":34962},{"buffer":0,"byteOffset":290460,"byteLength":640,"target":34962},{"buffer":0,"byteOffset":291100,"byteLength":348,"target":34963},{"buffer":0,"byteOffset":291448,"byteLength":96,"target":34962},{"buffer":0,"byteOffset":291544,"byteLength":96,"target":34962},{"buffer":0,"byteOffset":291640,"byteLength":64,"target":34962},{"buffer":0,"byteOffset":291704,"byteLength":24,"target":34963},{"buffer":0,"byteOffset":291728,"byteLength":48,"target":34962},{"buffer":0,"byteOffset":291776,"byteLength":48,"target":34962},{"buffer":0,"byteOffset":291824,"byteLength":32,"target":34962},{"buffer":0,"byteOffset":291856,"byteLength":12,"target":34963},{"buffer":0,"byteOffset":291868,"byteLength":1608,"target":34962},{"buffer":0,"byteOffset":293476,"byteLength":1608,"target":34962},{"buffer":0,"byteOffset":295084,"byteLength":1072,"target":34962},{"buffer":0,"byteOffset":296156,"byteLength":504,"target":34963},{"buffer":0,"byteOffset":296660,"byteLength":480,"target":34962},{"buffer":0,"byteOffset":297140,"byteLength":480,"target":34962},{"buffer":0,"byteOffset":297620,"byteLength":320,"target":34962},{"buffer":0,"byteOffset":297940,"byteLength":228,"target":34963},{"buffer":0,"byteOffset":298168,"byteLength":384,"target":34962},{"buffer":0,"byteOffset":298552,"byteLength":384,"target":34962},{"buffer":0,"byteOffset":298936,"byteLength":256,"target":34962},{"buffer":0,"byteOffset":299192,"byteLength":192,"target":34963},{"buffer":0,"byteOffset":299384,"byteLength":96,"target":34962},{"buffer":0,"byteOffset":299480,"byteLength":96,"target":34962},{"buffer":0,"byteOffset":299576,"byteLength":64,"target":34962},{"buffer":0,"byteOffset":299640,"byteLength":36,"target":34963},{"buffer":0,"byteOffset":299676,"byteLength":960,"target":34962},{"buffer":0,"byteOffset":300636,"byteLength":960,"target":34962},{"buffer":0,"byteOffset":301596,"byteLength":640,"target":34962},{"buffer":0,"byteOffset":302236,"byteLength":960,"target":34962},{"buffer":0,"byteOffset":303196,"byteLength":960,"target":34962},{"buffer":0,"byteOffset":304156,"byteLength":640,"target":34962},{"buffer":0,"byteOffset":304796,"byteLength":348,"target":34963},{"buffer":0,"byteOffset":305144,"byteLength":720,"target":34962},{"buffer":0,"byteOffset":305864,"byteLength":720,"target":34962},{"buffer":0,"byteOffset":306584,"byteLength":480,"target":34962},{"buffer":0,"byteOffset":307064,"byteLength":360,"target":34963},{"buffer":0,"byteOffset":307424,"byteLength":96,"target":34962},{"buffer":0,"byteOffset":307520,"byteLength":96,"target":34962},{"buffer":0,"byteOffset":307616,"byteLength":64,"target":34962},{"buffer":0,"byteOffset":307680,"byteLength":960,"target":34962},{"buffer":0,"byteOffset":308640,"byteLength":960,"target":34962},{"buffer":0,"byteOffset":309600,"byteLength":640,"target":34962},{"buffer":0,"byteOffset":310240,"byteLength":720,"target":34962},{"buffer":0,"byteOffset":310960,"byteLength":720,"target":34962},{"buffer":0,"byteOffset":311680,"byteLength":480,"target":34962},{"buffer":0,"byteOffset":312160,"byteLength":96,"target":34962},{"buffer":0,"byteOffset":312256,"byteLength":96,"target":34962},{"buffer":0,"byteOffset":312352,"byteLength":64,"target":34962},{"buffer":0,"byteOffset":312416,"byteLength":4668,"target":34962},{"buffer":0,"byteOffset":317084,"byteLength":4668,"target":34962},{"buffer":0,"byteOffset":321752,"byteLength":3112,"target":34962},{"buffer":0,"byteOffset":324864,"byteLength":1464,"target":34963},{"buffer":0,"byteOffset":326328,"byteLength":96,"target":34962},{"buffer":0,"byteOffset":326424,"byteLength":96,"target":34962},{"buffer":0,"byteOffset":326520,"byteLength":64,"target":34962},{"buffer":0,"byteOffset":326584,"byteLength":24,"target":34963},{"buffer":0,"byteOffset":326608,"byteLength":3264,"target":34962},{"buffer":0,"byteOffset":329872,"byteLength":3264,"target":34962},{"buffer":0,"byteOffset":333136,"byteLength":2176,"target":34962},{"buffer":0,"byteOffset":335312,"byteLength":816,"target":34963},{"buffer":0,"byteOffset":336128,"byteLength":540,"target":34962},{"buffer":0,"byteOffset":336668,"byteLength":540,"target":34962},{"buffer":0,"byteOffset":337208,"byteLength":144,"target":34963},{"buffer":0,"byteOffset":337352,"byteLength":4080,"target":34962},{"buffer":0,"byteOffset":341432,"byteLength":4080,"target":34962},{"buffer":0,"byteOffset":345512,"byteLength":2720,"target":34962},{"buffer":0,"byteOffset":348232,"byteLength":1344,"target":34963},{"buffer":0,"byteOffset":349576,"byteLength":756,"target":34962},{"buffer":0,"byteOffset":350332,"byteLength":756,"target":34962},{"buffer":0,"byteOffset":351088,"byteLength":246,"target":34963},{"buffer":0,"byteOffset":351336,"byteLength":2880,"target":34962},{"buffer":0,"byteOffset":354216,"byteLength":2880,"target":34962},{"buffer":0,"byteOffset":357096,"byteLength":1920,"target":34962},{"buffer":0,"byteOffset":359016,"byteLength":720,"target":34963},{"buffer":0,"byteOffset":359736,"byteLength":3264,"target":34962},{"buffer":0,"byteOffset":363000,"byteLength":3264,"target":34962},{"buffer":0,"byteOffset":366264,"byteLength":2176,"target":34962},{"buffer":0,"byteOffset":368440,"byteLength":816,"target":34963}],"buffers":[{"byteLength":369256,"uri":"corner_shop.bin"}],"images":[{"name":"T_Brick_BaseColor","uri":"../village/T_Brick_BaseColor.png"},{"name":"T_MetalOrnaments_BaseColor","uri":"../village/T_MetalOrnaments_BaseColor.png"},{"name":"T_Plaster_Luma","uri":"../village/T_Plaster_Luma.png"},{"name":"T_RockTrim_BaseColor","uri":"../village/T_RockTrim_BaseColor.png"},{"name":"T_RoundTiles_Luma","uri":"../village/T_RoundTiles_Luma.png"},{"name":"T_WoodTrim_BaseColor","uri":"../village/T_WoodTrim_BaseColor.png"}],"materials":[{"doubleSided":true,"name":"Cloth","pbrMetallicRoughness":{"baseColorFactor":[0.34239163994789124,0.03310476616024971,0.021980946883559227,1],"metallicFactor":0,"roughnessFactor":0.8999999761581421}},{"doubleSided":true,"name":"Cloth2","pbrMetallicRoughness":{"baseColorFactor":[0.7484140992164612,0.6382831931114197,0.4200332760810852,1],"metallicFactor":0,"roughnessFactor":0.8999999761581421}},{"doubleSided":true,"name":"Iron","pbrMetallicRoughness":{"baseColorFactor":[0.0134117491543293,0.0134117491543293,0.015325203537940979,1],"metallicFactor":0,"roughnessFactor":0.5}},{"doubleSided":true,"name":"Wood_light","pbrMetallicRoughness":{"baseColorFactor":[0.9998,0.9995,1.0,1.0],"baseColorTexture":{"index":5},"metallicFactor":0,"roughnessFactor":0.8500000238418579}},{"doubleSided":true,"name":"Glass","pbrMetallicRoughness":{"baseColorFactor":[0.03310476616024971,0.05087608844041824,0.07828831672668457,1],"metallicFactor":0,"roughnessFactor":0.20000000298023224}},{"doubleSided":true,"name":"Metal","pbrMetallicRoughness":{"baseColorFactor":[1.0,0.9972,0.9945,1.0],"baseColorTexture":{"index":1},"metallicFactor":0,"roughnessFactor":0.5}},{"doubleSided":true,"name":"RockTrim","pbrMetallicRoughness":{"baseColorFactor":[1.0,0.9979,1.0,1.0],"baseColorTexture":{"index":3},"metallicFactor":0,"roughnessFactor":0.8500000238418579}},{"doubleSided":true,"name":"Brick","pbrMetallicRoughness":{"baseColorFactor":[1.0,0.9974,1.0,1.0],"baseColorTexture":{"index":0},"metallicFactor":0,"roughnessFactor":0.8500000238418579}},{"doubleSided":true,"name":"Plaster_rose","pbrMetallicRoughness":{"baseColorFactor":[0.9099,0.5391,0.4777,1.0],"baseColorTexture":{"index":2},"metallicFactor":0,"roughnessFactor":0.8500000238418579}},{"doubleSided":true,"name":"Tiles_brown","pbrMetallicRoughness":{"baseColorFactor":[0.3822,0.1486,0.0653,1.0],"baseColorTexture":{"index":4},"metallicFactor":0,"roughnessFactor":0.699999988079071}},{"doubleSided":true,"name":"SignPaint","pbrMetallicRoughness":{"baseColorFactor":[0.6038273572921753,0.34239163994789124,0.03310476616024971,1],"metallicFactor":0,"roughnessFactor":0.6000000238418579}}],"meshes":[{"name":"Awning","primitives":[{"attributes":{"NORMAL":0,"POSITION":1},"indices":2,"material":0}]},{"name":"Awning.001","primitives":[{"attributes":{"NORMAL":3,"POSITION":4},"indices":2,"material":1}]},{"name":"Awning.002","primitives":[{"attributes":{"NORMAL":5,"POSITION":6},"indices":2,"material":0}]},{"name":"Awning.003","primitives":[{"attributes":{"NORMAL":7,"POSITION":8},"indices":2,"material":1}]},{"name":"Awning.004","primitives":[{"attributes":{"NORMAL":9,"POSITION":10},"indices":11,"material":0}]},{"name":"Awning.005","primitives":[{"attributes":{"NORMAL":12,"POSITION":13},"indices":11,"material":1}]},{"name":"AwningArm","primitives":[{"attributes":{"NORMAL":14,"POSITION":15},"indices":16,"material":2}]},{"name":"AwningArm.001","primitives":[{"attributes":{"NORMAL":17,"POSITION":18},"indices":16,"material":2}]},{"name":"AwningArm.002","primitives":[{"attributes":{"NORMAL":19,"POSITION":20},"indices":16,"material":2}]},{"name":"AwningArm.003","primitives":[{"attributes":{"NORMAL":21,"POSITION":22},"indices":16,"material":2}]},{"name":"AwningArm.004","primitives":[{"attributes":{"NORMAL":23,"POSITION":24},"indices":16,"material":2}]},{"name":"AwningArm.005","primitives":[{"attributes":{"NORMAL":25,"POSITION":26},"indices":16,"material":2}]},{"name":"AwningRod","primitives":[{"attributes":{"NORMAL":27,"POSITION":28},"indices":29,"material":2}]},{"name":"AwningRod.001","primitives":[{"attributes":{"NORMAL":30,"POSITION":31},"indices":29,"material":2}]},{"name":"AwningRod.002","primitives":[{"attributes":{"NORMAL":32,"POSITION":33},"indices":34,"material":2}]},{"name":"kit_Corner_Exterior_Wood.001","primitives":[{"attributes":{"NORMAL":35,"POSITION":36,"TEXCOORD_0":37},"indices":38,"material":3}]},{"name":"kit_Corner_Exterior_Wood.002","primitives":[{"attributes":{"NORMAL":39,"POSITION":40,"TEXCOORD_0":41},"indices":38,"material":3}]},{"name":"kit_Corner_Exterior_Wood.003","primitives":[{"attributes":{"NORMAL":42,"POSITION":43,"TEXCOORD_0":44},"indices":38,"material":3}]},{"name":"kit_Corner_Exterior_Wood.004","primitives":[{"attributes":{"NORMAL":45,"POSITION":46,"TEXCOORD_0":47},"indices":38,"material":3}]},{"name":"kit_Corner_Exterior_Wood","primitives":[{"attributes":{"NORMAL":48,"POSITION":49,"TEXCOORD_0":50},"indices":51,"material":3}]},{"name":"kit_Door_1_Round","primitives":[{"attributes":{"NORMAL":52,"POSITION":53,"TEXCOORD_0":54},"indices":55,"material":3},{"attributes":{"NORMAL":56,"POSITION":57},"indices":58,"material":4}]},{"name":"kit_Door_8_Flat","primitives":[{"attributes":{"NORMAL":59,"POSITION":60,"TEXCOORD_0":61},"indices":62,"material":3},{"attributes":{"NORMAL":63,"POSITION":64,"TEXCOORD_0":65},"indices":66,"material":5}]},{"name":"kit_DoorFrame_Flat_WoodDark","primitives":[{"attributes":{"NORMAL":67,"POSITION":68,"TEXCOORD_0":69},"indices":70,"material":3}]},{"name":"kit_DoorFrame_Round_WoodDark","primitives":[{"attributes":{"NORMAL":71,"POSITION":72,"TEXCOORD_0":73},"indices":74,"material":3}]},{"name":"kit_Prop_Chimney","primitives":[{"attributes":{"NORMAL":75,"POSITION":76,"TEXCOORD_0":77},"indices":78,"material":6},{"attributes":{"NORMAL":79,"POSITION":80,"TEXCOORD_0":81},"indices":82,"material":7}]},{"name":"kit_Prop_ExteriorBorder_Straight1.001","primitives":[{"attributes":{"NORMAL":83,"POSITION":84,"TEXCOORD_0":85},"indices":86,"material":6}]},{"name":"kit_Prop_ExteriorBorder_Straight1.002","primitives":[{"attributes":{"NORMAL":87,"POSITION":88,"TEXCOORD_0":89},"indices":86,"material":6}]},{"name":"kit_Prop_ExteriorBorder_Straight1","primitives":[{"attributes":{"NORMAL":90,"POSITION":91,"TEXCOORD_0":92},"indices":86,"material":6}]},{"name":"kit_Roof_Front_Brick6","primitives":[{"attributes":{"NORMAL":93,"POSITION":94,"TEXCOORD_0":95},"indices":96,"material":3},{"attributes":{"NORMAL":97,"POSITION":98,"TEXCOORD_0":99},"indices":100,"material":8}]},{"name":"kit_Roof_RoundTiles_6x8.001","primitives":[{"attributes":{"NORMAL":101,"POSITION":102,"TEXCOORD_0":103},"indices":104,"material":3},{"attributes":{"NORMAL":105,"POSITION":106,"TEXCOORD_0":107},"indices":108,"material":9}]},{"name":"kit_Roof_Support2","primitives":[{"attributes":{"NORMAL":109,"POSITION":110,"TEXCOORD_0":111},"indices":112,"material":3}]},{"name":"SignArm","primitives":[{"attributes":{"NORMAL":113,"POSITION":114,"TEXCOORD_0":115},"indices":34,"material":3}]},{"name":"SignBoard","primitives":[{"attributes":{"NORMAL":116,"POSITION":117,"TEXCOORD_0":118},"indices":34,"material":3}]},{"name":"SignChain","primitives":[{"attributes":{"NORMAL":119,"POSITION":120},"indices":34,"material":2}]},{"name":"SignChain.001","primitives":[{"attributes":{"NORMAL":121,"POSITION":122},"indices":34,"material":2}]},{"name":"SignEmblem","primitives":[{"attributes":{"NORMAL":123,"POSITION":124},"indices":125,"material":10}]},{"name":"SignFrame","primitives":[{"attributes":{"NORMAL":126,"POSITION":127,"TEXCOORD_0":128},"indices":34,"material":3}]},{"name":"kit_Wall_Plaster_Door_Flat","primitives":[{"attributes":{"NORMAL":129,"POSITION":130,"TEXCOORD_0":131},"indices":132,"material":3},{"attributes":{"NORMAL":133,"POSITION":134,"TEXCOORD_0":135},"indices":136,"material":8},{"attributes":{"NORMAL":137,"POSITION":138,"TEXCOORD_0":139},"indices":140,"material":6}]},{"name":"kit_Wall_Plaster_Door_Round","primitives":[{"attributes":{"NORMAL":141,"POSITION":142,"TEXCOORD_0":143},"indices":132,"material":3},{"attributes":{"NORMAL":144,"POSITION":145,"TEXCOORD_0":146},"indices":147,"material":8},{"attributes":{"NORMAL":148,"POSITION":149,"TEXCOORD_0":150},"indices":151,"material":6}]},{"name":"kit_Wall_Plaster_Straight.001","primitives":[{"attributes":{"NORMAL":152,"POSITION":153,"TEXCOORD_0":154},"indices":155,"material":3},{"attributes":{"NORMAL":156,"POSITION":157,"TEXCOORD_0":158},"indices":159,"material":8}]},{"name":"kit_Wall_Plaster_Straight","primitives":[{"attributes":{"NORMAL":160,"POSITION":161,"TEXCOORD_0":162},"indices":155,"material":3},{"attributes":{"NORMAL":163,"POSITION":164,"TEXCOORD_0":165},"indices":159,"material":8}]},{"name":"kit_Wall_Plaster_Straight_Base","primitives":[{"attributes":{"NORMAL":166,"POSITION":167,"TEXCOORD_0":168},"indices":169,"material":3},{"attributes":{"NORMAL":170,"POSITION":171,"TEXCOORD_0":172},"indices":173,"material":8},{"attributes":{"NORMAL":174,"POSITION":175,"TEXCOORD_0":176},"indices":177,"material":7}]},{"name":"kit_Wall_Plaster_Window_Wide_Flat2","primitives":[{"attributes":{"NORMAL":178,"POSITION":179,"TEXCOORD_0":180},"indices":181,"material":3},{"attributes":{"NORMAL":182,"POSITION":183,"TEXCOORD_0":184},"indices":185,"material":8}]},{"name":"kit_Wall_Plaster_Window_Wide_Flat.001","primitives":[{"attributes":{"NORMAL":186,"POSITION":187,"TEXCOORD_0":188},"indices":189,"material":8},{"attributes":{"NORMAL":190,"POSITION":191,"TEXCOORD_0":192},"indices":193,"material":8},{"attributes":{"NORMAL":194,"POSITION":195,"TEXCOORD_0":196},"indices":169,"material":3}]},{"name":"kit_Wall_Plaster_Window_Wide_Round.001","primitives":[{"attributes":{"NORMAL":197,"POSITION":198,"TEXCOORD_0":199},"indices":200,"material":3},{"attributes":{"NORMAL":201,"POSITION":202,"TEXCOORD_0":203},"indices":204,"material":8},{"attributes":{"NORMAL":205,"POSITION":206,"TEXCOORD_0":207},"indices":193,"material":8}]},{"name":"kit_Wall_Plaster_Window_Wide_Round","primitives":[{"attributes":{"NORMAL":208,"POSITION":209,"TEXCOORD_0":210},"indices":200,"material":3},{"attributes":{"NORMAL":211,"POSITION":212,"TEXCOORD_0":213},"indices":204,"material":8},{"attributes":{"NORMAL":214,"POSITION":215,"TEXCOORD_0":216},"indices":193,"material":7}]},{"name":"kit_Wall_Plaster_WoodGrid.001","primitives":[{"attributes":{"NORMAL":217,"POSITION":218,"TEXCOORD_0":219},"indices":220,"material":3},{"attributes":{"NORMAL":221,"POSITION":222,"TEXCOORD_0":223},"indices":224,"material":8}]},{"name":"kit_Window_Wide_Flat1","primitives":[{"attributes":{"NORMAL":225,"POSITION":226,"TEXCOORD_0":227},"indices":228,"material":3},{"attributes":{"NORMAL":229,"POSITION":230},"indices":231,"material":4}]},{"name":"kit_Window_Wide_Round1.001","primitives":[{"attributes":{"NORMAL":232,"POSITION":233,"TEXCOORD_0":234},"indices":235,"material":3},{"attributes":{"NORMAL":236,"POSITION":237},"indices":238,"material":4}]},{"name":"kit_WindowShutters_Wide_Flat_Open","primitives":[{"attributes":{"NORMAL":239,"POSITION":240,"TEXCOORD_0":241},"indices":242,"material":3}]},{"name":"kit_WindowShutters_Wide_Round_Open","primitives":[{"attributes":{"NORMAL":243,"POSITION":244,"TEXCOORD_0":245},"indices":246,"material":3}]}],"nodes":[{"mesh":0,"name":"Awning.060"},{"mesh":1,"name":"Awning.061"},{"mesh":2,"name":"Awning.065"},{"mesh":3,"name":"Awning.066"},{"mesh":4,"name":"Awning.070"},{"mesh":5,"name":"Awning.071"},{"mesh":6,"name":"AwningArm.063"},{"mesh":7,"name":"AwningArm.064"},{"mesh":8,"name":"AwningArm.068"},{"mesh":9,"name":"AwningArm.069"},{"mesh":10,"name":"AwningArm.073"},{"mesh":11,"name":"AwningArm.074"},{"mesh":12,"name":"AwningRod.062"},{"mesh":13,"name":"AwningRod.067"},{"mesh":14,"name":"AwningRod.072"},{"mesh":15,"name":"Corner_Exterior_Wood.025","translation":[-3,0,0]},{"mesh":16,"name":"Corner_Exterior_Wood.026","translation":[3,0,0]},{"mesh":17,"name":"Corner_Exterior_Wood.027","translation":[-3,0,-8]},{"mesh":18,"name":"Corner_Exterior_Wood.028","translation":[3,0,-8]},{"mesh":19,"name":"Corner_Exterior_Wood.052","translation":[-3,3,0]},{"mesh":19,"name":"Corner_Exterior_Wood.053","translation":[3,3,0]},{"mesh":19,"name":"Corner_Exterior_Wood.054","translation":[-3,3,-8]},{"mesh":19,"name":"Corner_Exterior_Wood.055","translation":[3,3,-8]},{"mesh":20,"name":"Door_1_Round.005","scale":[0.996666669845581,1,1],"translation":[-0.5481666922569275,0,-0.019999999552965164]},{"mesh":21,"name":"Door_8_Flat.011","rotation":[0,-1,0,4.371138828673793e-08],"scale":[0.996666669845581,1,1],"translation":[0.5481666922569275,0,-7.980000019073486]},{"mesh":22,"name":"DoorFrame_Flat_WoodDark.010","rotation":[0,-1,0,4.371138828673793e-08],"scale":[0.996666669845581,1,1],"translation":[0,0,-8]},{"mesh":23,"name":"DoorFrame_Round_WoodDark.004","scale":[0.996666669845581,1,1]},{"mesh":24,"name":"Prop_Chimney.059","translation":[-1.5,7.06752347946167,-6.5]},{"mesh":25,"name":"Prop_ExteriorBorder_Straight1.082","translation":[-2,0,0.05000000074505806]},{"mesh":26,"name":"Prop_ExteriorBorder_Straight1.083","translation":[0,0,0.05000000074505806]},{"mesh":27,"name":"Prop_ExteriorBorder_Straight1.084","translation":[2,0,0.05000000074505806]},{"mesh":28,"name":"Roof_Front_Brick6.057","translation":[0,6.119999885559082,0]},{"mesh":28,"name":"Roof_Front_Brick6.058","rotation":[0,-1,0,4.371138828673793e-08],"translation":[0,6.119999885559082,-8]},{"mesh":29,"name":"Roof_RoundTiles_6x8.056","translation":[0,6.119999885559082,-4]},{"mesh":30,"name":"Roof_Support2.076","rotation":[0,0.7071068286895752,0,0.7071068286895752],"scale":[0.800000011920929,0.8999999761581421,0.6000000238418579],"translation":[3.0899999141693115,3.8400001525878906,-5.199999809265137]},{"mesh":31,"name":"SignArm.075"},{"mesh":32,"name":"SignBoard.079"},{"mesh":33,"name":"SignChain.077"},{"mesh":34,"name":"SignChain.078"},{"mesh":35,"name":"SignEmblem.081"},{"mesh":36,"name":"SignFrame.080"},{"mesh":37,"name":"Wall_Plaster_Door_Flat.009","rotation":[0,-1,0,4.371138828673793e-08],"scale":[0.996666669845581,1,1],"translation":[0,0,-8]},{"mesh":38,"name":"Wall_Plaster_Door_Round.003","scale":[0.996666669845581,1,1]},{"mesh":39,"name":"Wall_Plaster_Straight+upper.036","rotation":[0,-1,0,4.371138828673793e-08],"scale":[0.996666669845581,1,1],"translation":[1.993333339691162,3,-8]},{"mesh":39,"name":"Wall_Plaster_Straight+upper.039","rotation":[0,-1,0,4.371138828673793e-08],"scale":[0.996666669845581,1,1],"translation":[-1.993333339691162,3,-8]},{"mesh":39,"name":"Wall_Plaster_Straight+upper.040","rotation":[0,-0.7071068286895752,0,0.7071068286895752],"scale":[0.9975000023841858,1,1],"translation":[-3,3,-6.992499828338623]},{"mesh":39,"name":"Wall_Plaster_Straight+upper.043","rotation":[0,-0.7071068286895752,0,0.7071068286895752],"scale":[0.9975000023841858,1,1],"translation":[-3,3,-3.002500057220459]},{"mesh":39,"name":"Wall_Plaster_Straight+upper.044","rotation":[0,-0.7071068286895752,0,0.7071068286895752],"scale":[0.9975000023841858,1,1],"translation":[-3,3,-1.007500171661377]},{"mesh":39,"name":"Wall_Plaster_Straight+upper.048","rotation":[0,0.7071068286895752,0,0.7071068286895752],"scale":[0.9975000023841858,1,1],"translation":[3,3,-3.002500057220459]},{"mesh":39,"name":"Wall_Plaster_Straight+upper.051","rotation":[0,0.7071068286895752,0,0.7071068286895752],"scale":[0.9975000023841858,1,1],"translation":[3,3,-6.992499828338623]},{"mesh":40,"name":"Wall_Plaster_Straight.017","rotation":[0,-0.7071068286895752,0,0.7071068286895752],"scale":[0.9975000023841858,1,1],"translation":[-3,0,-3.002500057220459]},{"mesh":40,"name":"Wall_Plaster_Straight.023","rotation":[0,0.7071068286895752,0,0.7071068286895752],"scale":[0.9975000023841858,1,1],"translation":[3,0,-4.997499942779541]},{"mesh":41,"name":"Wall_Plaster_Straight_Base.008","rotation":[0,-1,0,4.371138828673793e-08],"scale":[0.996666669845581,1,1],"translation":[1.993333339691162,0,-8]},{"mesh":41,"name":"Wall_Plaster_Straight_Base.012","rotation":[0,-1,0,4.371138828673793e-08],"scale":[0.996666669845581,1,1],"translation":[-1.993333339691162,0,-8]},{"mesh":41,"name":"Wall_Plaster_Straight_Base.013","rotation":[0,-0.7071068286895752,0,0.7071068286895752],"scale":[0.9975000023841858,1,1],"translation":[-3,0,-6.992499828338623]},{"mesh":41,"name":"Wall_Plaster_Straight_Base.018","rotation":[0,-0.7071068286895752,0,0.7071068286895752],"scale":[0.9975000023841858,1,1],"translation":[-3,0,-1.007500171661377]},{"mesh":41,"name":"Wall_Plaster_Straight_Base.024","rotation":[0,0.7071068286895752,0,0.7071068286895752],"scale":[0.9975000023841858,1,1],"translation":[3,0,-6.992499828338623]},{"mesh":42,"name":"Wall_Plaster_Window_Wide_Flat2.001","scale":[0.996666669845581,1,1],"translation":[-1.993333339691162,0,0]},{"mesh":42,"name":"Wall_Plaster_Window_Wide_Flat2.006","scale":[0.996666669845581,1,1],"translation":[1.993333339691162,0,0]},{"mesh":42,"name":"Wall_Plaster_Window_Wide_Flat2.019","rotation":[0,0.7071068286895752,0,0.7071068286895752],"scale":[0.9975000023841858,1,1],"translation":[3,0,-1.0075000524520874]},{"mesh":42,"name":"Wall_Plaster_Window_Wide_Flat2.021","rotation":[0,0.7071068286895752,0,0.7071068286895752],"scale":[0.9975000023841858,1,1],"translation":[3,0,-3.002500057220459]},{"mesh":43,"name":"Wall_Plaster_Window_Wide_Flat+upper.029","scale":[0.996666669845581,1,1],"translation":[-1.993333339691162,3,0]},{"mesh":43,"name":"Wall_Plaster_Window_Wide_Flat+upper.033","scale":[0.996666669845581,1,1],"translation":[1.993333339691162,3,0]},{"mesh":43,"name":"Wall_Plaster_Window_Wide_Flat+upper.037","rotation":[0,-1,0,4.371138828673793e-08],"scale":[0.996666669845581,1,1],"translation":[0,3,-8]},{"mesh":43,"name":"Wall_Plaster_Window_Wide_Flat+upper.041","rotation":[0,-0.7071068286895752,0,0.7071068286895752],"scale":[0.9975000023841858,1,1],"translation":[-3,3,-4.997499942779541]},{"mesh":43,"name":"Wall_Plaster_Window_Wide_Flat+upper.049","rotation":[0,0.7071068286895752,0,0.7071068286895752],"scale":[0.9975000023841858,1,1],"translation":[3,3,-4.997499942779541]},{"mesh":44,"name":"Wall_Plaster_Window_Wide_Round+upper.045","rotation":[0,0.7071068286895752,0,0.7071068286895752],"scale":[0.9975000023841858,1,1],"translation":[3,3,-1.0075000524520874]},{"mesh":45,"name":"Wall_Plaster_Window_Wide_Round.014","rotation":[0,-0.7071068286895752,0,0.7071068286895752],"scale":[0.9975000023841858,1,1],"translation":[-3,0,-4.997499942779541]},{"mesh":46,"name":"Wall_Plaster_WoodGrid+upper.032","scale":[0.996666669845581,1,1],"translation":[0,3,0]},{"mesh":47,"name":"Window_Wide_Flat1.002","scale":[0.996666669845581,1,1],"translation":[-1.993333339691162,0,0]},{"mesh":47,"name":"Window_Wide_Flat1.007","scale":[0.996666669845581,1,1],"translation":[1.993333339691162,0,0]},{"mesh":47,"name":"Window_Wide_Flat1.020","rotation":[0,0.7071068286895752,0,0.7071068286895752],"scale":[0.9975000023841858,1,1],"translation":[3,0,-1.0075000524520874]},{"mesh":47,"name":"Window_Wide_Flat1.022","rotation":[0,0.7071068286895752,0,0.7071068286895752],"scale":[0.9975000023841858,1,1],"translation":[3,0,-3.002500057220459]},{"mesh":47,"name":"Window_Wide_Flat1.030","scale":[0.996666669845581,1,1],"translation":[-1.993333339691162,3,0]},{"mesh":47,"name":"Window_Wide_Flat1.034","scale":[0.996666669845581,1,1],"translation":[1.993333339691162,3,0]},{"mesh":47,"name":"Window_Wide_Flat1.038","rotation":[0,-1,0,4.371138828673793e-08],"scale":[0.996666669845581,1,1],"translation":[0,3,-8]},{"mesh":47,"name":"Window_Wide_Flat1.042","rotation":[0,-0.7071068286895752,0,0.7071068286895752],"scale":[0.9975000023841858,1,1],"translation":[-3,3,-4.997499942779541]},{"mesh":47,"name":"Window_Wide_Flat1.050","rotation":[0,0.7071068286895752,0,0.7071068286895752],"scale":[0.9975000023841858,1,1],"translation":[3,3,-4.997499942779541]},{"mesh":48,"name":"Window_Wide_Round1.015","rotation":[0,-0.7071068286895752,0,0.7071068286895752],"scale":[0.9975000023841858,1,1],"translation":[-3,0,-4.997499942779541]},{"mesh":48,"name":"Window_Wide_Round1.046","rotation":[0,0.7071068286895752,0,0.7071068286895752],"scale":[0.9975000023841858,1,1],"translation":[3,3,-1.0075000524520874]},{"mesh":49,"name":"WindowShutters_Wide_Flat_Open.031","scale":[0.996666669845581,1,1],"translation":[-1.993333339691162,3,0]},{"mesh":49,"name":"WindowShutters_Wide_Flat_Open.035","scale":[0.996666669845581,1,1],"translation":[1.993333339691162,3,0]},{"mesh":50,"name":"WindowShutters_Wide_Round_Open.016","rotation":[0,-0.7071068286895752,0,0.7071068286895752],"scale":[0.9975000023841858,1,1],"translation":[-3,0,-4.997499942779541]},{"mesh":50,"name":"WindowShutters_Wide_Round_Open.047","rotation":[0,0.7071068286895752,0,0.7071068286895752],"scale":[0.9975000023841858,1,1],"translation":[3,3,-1.0075000524520874]}],"scene":0,"scenes":[{"name":"Scene","nodes":[0,1,2,3,4,5,6,7,8,9,10,11,12,13,14,15,16,17,18,19,20,21,22,23,24,25,26,27,28,29,30,31,32,33,34,35,36,37,38,39,40,41,42,43,44,45,46,47,48,49,50,51,52,53,54,55,56,57,58,59,60,61,62,63,64,65,66,67,68,69,70,71,72,73,74,75,76,77,78,79,80,81,82,83]}],"textures":[{"source":0},{"source":1},{"source":2},{"source":3},{"source":4},{"source":5}]}