{"accessors":[{"bufferView":0,"componentType":5126,"count":24,"type":"VEC3"},{"bufferView":1,"componentType":5126,"count":24,"max":[0.10508709400892258,2.999999761581421,0.11982007324695587],"min":[-0.10508733242750168,-1.5052728485898115e-07,-0.11982005089521408],"type":"VEC3"},{"bufferView":2,"componentType":5126,"count":24,"type":"VEC2"},{"bufferView":3,"componentType":5123,"count":36,"type":"SCALAR"},{"bufferView":4,"componentType":5126,"count":744,"type":"VEC3"},{"bufferView":5,"componentType":5126,"count":744,"max":[1.0737497806549072,2.3513262271881104,0.06314271688461304],"min":[-0.04626310616731644,0.033089637756347656,-0.05755755677819252],"type":"VEC3"},{"bufferView":6,"componentType":5126,"count":744,"type":"VEC2"},{"bufferView":7,"componentType":5123,"count":1362,"type":"SCALAR"},{"bufferView":8,"componentType":5126,"count":28,"type":"VEC3"},{"bufferView":9,"componentType":5126,"count":28,"max":[0.8667700886726379,1.7624019384384155,0.0312458835542202],"min":[0.1617247760295868,1.3117259740829468,0.031245503574609756],"type":"VEC3"},{"bufferView":10,"componentType":5123,"count":48,"type":"SCALAR"},{"bufferView":11,"componentType":5126,"count":364,"type":"VEC3"},{"bufferView":12,"componentType":5126,"count":364,"max":[0.7034913897514343,2.5548486709594727,0.29893577098846436],"min":[-0.7034929394721985,-0.008544921875,-0.24002820253372192],"type":"VEC3"},{"bufferView":13,"componentType":5126,"count":364,"type":"VEC2"},{"bufferView":14,"componentType":5123,"count":960,"type":"SCALAR"},{"bufferView":15,"componentType":5126,"count":508,"type":"VEC3"},{"bufferView":16,"componentType":5126,"count":508,"max":[0.4383014738559723,3.177875280380249,0.47339576482772827],"min":[-0.4516017735004425,2.8398513793945312,-0.43134835362434387],"type":"VEC3"},{"bufferView":17,"componentType":5126,"count":508,"type":"VEC2"},{"bufferView":18,"componentType":5123,"count":1830,"type":"SCALAR"},{"bufferView":19,"componentType":5126,"count":16,"type":"VEC3"},{"bufferView":20,"componentType":5126,"count":16,"max":[0.4457784593105316,3,0.5000000596046448],"min":[-0.5000000596046448,5.960464477539063e-08,-0.5000000596046448],"type":"VEC3"},{"bufferView":21,"componentType":5126,"count":16,"type":"VEC2"},{"bufferView":22,"componentType":5123,"count":24,"type":"SCALAR"},{"bufferView":23,"componentType":5126,"count":28,"type":"VEC3"},{"bufferView":24,"componentType":5126,"count":28,"max":[1.0000001192092896,0.13401801884174347,0.699999988079071],"min":[-1.0000001192092896,2.701569457030928e-08,0],"type":"VEC3"},{"bufferView":25,"componentType":5126,"count":28,"type":"VEC2"},{"bufferView":26,"componentType":5123,"count":48,"type":"SCALAR"},{"bufferView":27,"componentType":5126,"count":504,"type":"VEC3"},{"bufferView":28,"componentType":5126,"count":504,"max":[3.347877264022827,4.383981704711914,0.7941403388977051],"min":[-3.346518039703369,-0.13180209696292877,-0.33496367931365967],"type":"VEC3"},{"bufferView":29,"componentType":5126,"count":504,"type":"VEC2"},{"bufferView":30,"componentType":5123,"count":936,"type":"SCALAR"},{"bufferView":31,"componentType":5126,"count":20,"type":"VEC3"},{"bufferView":32,"componentType":5126,"count":20,"max":[3.1225504875183105,4.377229690551758,1.375610736431554e-11],"min":[-3.1225504875183105,0.019167041406035423,-0.24970144033432007],"type":"VEC3"},{"bufferView":33,"componentType":5126,"count":20,"type":"VEC2"},{"bufferView":34,"componentType":5123,"count":48,"type":"SCALAR"},{"bufferView":35,"componentType":5126,"count":1568,"type":"VEC3"},{"bufferView":36,"componentType":5126,"count":1568,"max":[3.958951234817505,4.342607498168945,3.7993175983428955],"min":[-3.958951234817505,-0.7821269035339355,-3.7874298095703125],"type":"VEC3"},{"bufferView":37,"componentType":5126,"count":1568,"type":"VEC2"},{"bufferView":38,"componentType":5123,"count":2520,"type":"SCALAR"},{"bufferView":39,"componentType":5126,"count":1249,"type":"VEC3"},{"bufferView":40,"componentType":5126,"count":1249,"max":[4.124891757965088,4.890044689178467,4.093986511230469],"min":[-4.124891757965088,-0.6384454965591431,-3.9382028579711914],"type":"VEC3"},{"bufferView":41,"componentType":5126,"count":1249,"type":"VEC2"},{"bufferView":42,"componentType":5123,"count":3318,"type":"SCALAR"},{"bufferView":43,"componentType":5126,"count":32,"type":"VEC3"},{"bufferView":44,"componentType":5126,"count":32,"max":[-3.200000047683716,13.800000190734863,-0.5],"min":[-3.4000000953674316,12.5,-0.699999988079071],"type":"VEC3"},{"bufferView":45,"componentType":5123,"count":48,"type":"SCALAR"},{"bufferView":46,"componentType":5126,"count":64,"type":"VEC3"},{"bufferView":47,"componentType":5126,"count":64,"max":[-1.600000023841858,9,1.100000023841858],"min":[-5,0,-2.299999952316284],"type":"VEC3"},{"bufferView":48,"componentType":5126,"count":64,"type":"VEC2"},{"bufferView":49,"componentType":5123,"count":96,"type":"SCALAR"},{"bufferView":50,"componentType":5126,"count":64,"type":"VEC3"},{"bufferView":51,"componentType":5126,"count":64,"max":[-1.5199999809265137,9,1.1799999475479126],"min":[-5.079999923706055,8.5,-2.380000114440918],"type":"VEC3"},{"bufferView":52,"componentType":5126,"count":64,"type":"VEC2"},{"bufferView":53,"componentType":5126,"count":64,"type":"VEC3"},{"bufferView":54,"componentType":5126,"count":64,"max":[-1.5399999618530273,4.269999980926514,1.159999966621399],"min":[-5.059999942779541,4.050000190734863,-2.359999895095825],"type":"VEC3"},{"bufferView":55,"componentType":5126,"count":64,"type":"VEC2"},{"bufferView":56,"componentType":5126,"count":64,"type":"VEC3"},{"bufferView":57,"componentType":5126,"count":64,"max":[-1.5,0.5,1.2000000476837158],"min":[-5.099999904632568,0,-2.4000000953674316],"type":"VEC3"},{"bufferView":58,"componentType":5126,"count":64,"type":"VEC2"},{"bufferView":59,"componentType":5126,"count":192,"type":"VEC3"},{"bufferView":60,"componentType":5126,"count":192,"max":[-0.8999999761581421,12.800000190734863,1.7999999523162842],"min":[-5.699999809265137,8.850000381469727,-3],"type":"VEC3"},{"bufferView":61,"componentType":5126,"count":192,"type":"VEC2"},{"bufferView":62,"componentType":5123,"count":384,"type":"SCALAR"},{"bufferView":63,"componentType":5126,"count":124,"type":"VEC3"},{"bufferView":64,"componentType":5126,"count":124,"max":[1,3.1226887702941895,0.0924467146396637],"min":[-1.0000001192092896,0.6495776176452637,-0.3140353262424469],"type":"VEC3"},{"bufferView":65,"componentType":5126,"count":124,"type":"VEC2"},{"bufferView":66,"componentType":5123,"count":204,"type":"SCALAR"},{"bufferView":67,"componentType":5126,"count":69,"type":"VEC3"},{"bufferView":68,"componentType":5126,"count":69,"max":[1,3,1.3113417196564114e-07],"min":[-1,0,-0.2000000923871994],"type":"VEC3"},{"bufferView":69,"componentType":5126,"count":69,"type":"VEC2"},{"bufferView":70,"componentType":5123,"count":195,"type":"SCALAR"},{"bufferView":71,"componentType":5126,"count":8,"type":"VEC3"},{"bufferView":72,"componentType":5126,"count":8,"max":[1,0.9100615382194519,4.3711395392165286e-08],"min":[-1,0,0],"type":"VEC3"},{"bufferView":73,"componentType":5126,"count":8,"type":"VEC2"},{"bufferView":74,"componentType":5123,"count":12,"type":"SCALAR"},{"bufferView":75,"componentType":5126,"count":126,"type":"VEC3"},{"bufferView":76,"componentType":5126,"count":126,"max":[1,3.1226887702941895,0.0924467146396637],"min":[-1.0000001192092896,-0.0020958781242370605,-0.3140353262424469],"type":"VEC3"},{"bufferView":77,"componentType":5126,"count":126,"type":"VEC2"},{"bufferView":78,"componentType":5123,"count":240,"type":"SCALAR"},{"bufferView":79,"componentType":5126,"count":12,"type":"VEC3"},{"bufferView":80,"componentType":5126,"count":12,"max":[1,3,1.3113415775478643e-07],"min":[-1,0,-0.2000000923871994],"type":"VEC3"},{"bufferView":81,"componentType":5126,"count":12,"type":"VEC2"},{"bufferView":82,"componentType":5123,"count":18,"type":"SCALAR"},{"bufferView":83,"componentType":5126,"count":80,"type":"VEC3"},{"bufferView":84,"componentType":5126,"count":80,"max":[1,3.1226887702941895,0.0924467146396637],"min":[-1.0000001192092896,0.6495776176452637,-0.3140353262424469],"type":"VEC3"},{"bufferView":85,"componentType":5126,"count":80,"type":"VEC2"},{"bufferView":86,"componentType":5123,"count":174,"type":"SCALAR"},{"bufferView":87,"componentType":5126,"count":8,"type":"VEC3"},{"bufferView":88,"componentType":5126,"count":8,"max":[1,3,1.3113415775478643e-07],"min":[-1,0,-0.2000000923871994],"type":"VEC3"},{"bufferView":89,"componentType":5126,"count":8,"type":"VEC2"},{"bufferView":90,"componentType":5123,"count":12,"type":"SCALAR"},{"bufferView":91,"componentType":5126,"count":4,"type":"VEC3"},{"bufferView":92,"componentType":5126,"count":4,"max":[1,0.8799999952316284,4.371138828673793e-08],"min":[-1,0,0],"type":"VEC3"},{"bufferView":93,"componentType":5126,"count":4,"type":"VEC2"},{"bufferView":94,"componentType":5123,"count":6,"type":"SCALAR"},{"bufferView":95,"componentType":5126,"count":32,"type":"VEC3"},{"bufferView":96,"componentType":5126,"count":32,"max":[1,3,1.3113417196564114e-07],"min":[-1,0,-0.2000000923871994],"type":"VEC3"},{"bufferView":97,"componentType":5126,"count":32,"type":"VEC2"},{"bufferView":98,"componentType":5123,"count":96,"type":"SCALAR"},{"bufferView":99,"componentType":5126,"count":8,"type":"VEC3"},{"bufferView":100,"componentType":5126,"count":8,"max":[1,0.8799999952316284,4.371138828673793e-08],"min":[-1,0,0],"type":"VEC3"},{"bufferView":101,"componentType":5126,"count":8,"type":"VEC2"},{"bufferView":102,"componentType":5123,"count":18,"type":"SCALAR"},{"bufferView":103,"componentType":5126,"count":80,"type":"VEC3"},{"bufferView":104,"componentType":5126,"count":80,"max":[1,3.1226887702941895,0.0924467146396637],"min":[-1.0000001192092896,0.6495776176452637,-0.3140353262424469],"type":"VEC3"},{"bufferView":105,"componentType":5126,"count":80,"type":"VEC2"},{"bufferView":106,"componentType":5126,"count":80,"type":"VEC3"},{"bufferView":107,"componentType":5126,"count":80,"max":[1,3.1226887702941895,0.0924467146396637],"min":[-1.0000001192092896,0.6495776176452637,-0.3140353262424469],"type":"VEC3"},{"bufferView":108,"componentType":5126,"count":80,"type":"VEC2"},{"bufferView":109,"componentType":5123,"count":174,"type":"SCALAR"},{"bufferView":110,"componentType":5126,"count":60,"type":"VEC3"},{"bufferView":111,"componentType":5126,"count":60,"max":[1,3,1.3113417196564114e-07],"min":[-1,0,-0.2000000923871994],"type":"VEC3"},{"bufferView":112,"componentType":5126,"count":60,"type":"VEC2"},{"bufferView":113,"componentType":5123,"count":180,"type":"SCALAR"},{"bufferView":114,"componentType":5126,"count":8,"type":"VEC3"},{"bufferView":115,"componentType":5126,"count":8,"max":[1,0.8799999952316284,4.371138828673793e-08],"min":[-1,0,0],"type":"VEC3"},{"bufferView":116,"componentType":5126,"count":8,"type":"VEC2"},{"bufferView":117,"componentType":5126,"count":402,"type":"VEC3"},{"bufferView":118,"componentType":5126,"count":402,"max":[0.44381028413772583,2.6207287311553955,0.0923665463924408],"min":[-0.44381028413772583,1.01604425907135,-0.2520223557949066],"type":"VEC3"},{"bufferView":119,"componentType":5126,"count":402,"type":"VEC2"},{"bufferView":120,"componentType":5123,"count":786,"type":"SCALAR"},{"bufferView":121,"componentType":5126,"count":83,"type":"VEC3"},{"bufferView":122,"componentType":5126,"count":83,"max":[0.277061402797699,2.478931427001953,0.003888234496116638],"min":[-0.27893951535224915,1.0875728130340576,0.0038879886269569397],"type":"VEC3"},{"bufferView":123,"componentType":5123,"count":153,"type":"SCALAR"},{"bufferView":124,"componentType":5126,"count":272,"type":"VEC3"},{"bufferView":125,"componentType":5126,"count":272,"max":[0.8041172027587891,2.5242888927459717,0.4168574810028076],"min":[-0.8041191101074219,0.94417804479599,-0.26658084988594055],"type":"VEC3"},{"bufferView":126,"componentType":5126,"count":272,"type":"VEC2"},{"bufferView":127,"componentType":5123,"count":408,"type":"SCALAR"},{"bufferView":128,"componentType":5126,"count":45,"type":"VEC3"},{"bufferView":129,"componentType":5126,"count":45,"max":[0.5054702758789062,2.355356216430664,0.003888234496116638],"min":[-0.5054721832275391,1.0971393585205078,0.0038878247141838074],"type":"VEC3"},{"bufferView":130,"componentType":5123,"count":72,"type":"SCALAR"},{"bufferView":131,"componentType":5126,"count":340,"type":"VEC3"},{"bufferView":132,"componentType":5126,"count":340,"max":[0.691490113735199,2.741780996322632,0.27729201316833496],"min":[-0.691490113735199,1.01604425907135,-0.2522830367088318],"type":"VEC3"},{"bufferView":133,"componentType":5126,"count":340,"type":"VEC2"},{"bufferView":134,"componentType":5123,"count":672,"type":"SCALAR"},{"bufferView":135,"componentType":5126,"count":63,"type":"VEC3"},{"bufferView":136,"componentType":5126,"count":63,"max":[0.5413169860839844,2.6192541122436523,0.0038883001543581486],"min":[-0.5445477962493896,1.0647618770599365,0.003887913655489683],"type":"VEC3"},{"bufferView":137,"componentType":5123,"count":123,"type":"SCALAR"},{"bufferView":138,"componentType":5126,"count":272,"type":"VEC3"},{"bufferView":139,"componentType":5126,"count":272,"max":[1.1035263538360596,2.740431785583496,0.56315016746521],"min":[-1.199957251548767,1.0932440757751465,0.09079486131668091],"type":"VEC3"},{"bufferView":140,"componentType":5126,"count":272,"type":"VEC2"},{"bufferView":141,"componentType":5123,"count":408,"type":"SCALAR"}],"asset":{"generator":"Khronos glTF Blender I/O v5.2.40","version":"2.0"},"bufferViews":[{"buffer":0,"byteOffset":0,"byteLength":288,"target":34962},{"buffer":0,"byteOffset":288,"byteLength":288,"target":34962},{"buffer":0,"byteOffset":576,"byteLength":192,"target":34962},{"buffer":0,"byteOffset":768,"byteLength":72,"target":34963},{"buffer":0,"byteOffset":840,"byteLength":8928,"target":34962},{"buffer":0,"byteOffset":9768,"byteLength":8928,"target":34962},{"buffer":0,"byteOffset":18696,"byteLength":5952,"target":34962},{"buffer":0,"byteOffset":24648,"byteLength":2724,"target":34963},{"buffer":0,"byteOffset":27372,"byteLength":336,"target":34962},{"buffer":0,"byteOffset":27708,"byteLength":336,"target":34962},{"buffer":0,"byteOffset":28044,"byteLength":96,"target":34963},{"buffer":0,"byteOffset":28140,"byteLength":4368,"target":34962},{"buffer":0,"byteOffset":32508,"byteLength":4368,"target":34962},{"buffer":0,"byteOffset":36876,"byteLength":2912,"target":34962},{"buffer":0,"byteOffset":39788,"byteLength":1920,"target":34963},{"buffer":0,"byteOffset":41708,"byteLength":6096,"target":34962},{"buffer":0,"byteOffset":47804,"byteLength":6096,"target":34962},{"buffer":0,"byteOffset":53900,"byteLength":4064,"target":34962},{"buffer":0,"byteOffset":57964,"byteLength":3660,"target":34963},{"buffer":0,"byteOffset":61624,"byteLength":192,"target":34962},{"buffer":0,"byteOffset":61816,"byteLength":192,"target":34962},{"buffer":0,"byteOffset":62008,"byteLength":128,"target":34962},{"buffer":0,"byteOffset":62136,"byteLength":48,"target":34963},{"buffer":0,"byteOffset":62184,"byteLength":336,"target":34962},{"buffer":0,"byteOffset":62520,"byteLength":336,"target":34962},{"buffer":0,"byteOffset":62856,"byteLength":224,"target":34962},{"buffer":0,"byteOffset":63080,"byteLength":96,"target":34963},{"buffer":0,"byteOffset":63176,"byteLength":6048,"target":34962},{"buffer":0,"byteOffset":69224,"byteLength":6048,"target":34962},{"buffer":0,"byteOffset":75272,"byteLength":4032,"target":34962},{"buffer":0,"byteOffset":79304,"byteLength":1872,"target":34963},{"buffer":0,"byteOffset":81176,"byteLength":240,"target":34962},{"buffer":0,"byteOffset":81416,"byteLength":240,"target":34962},{"buffer":0,"byteOffset":81656,"byteLength":160,"target":34962},{"buffer":0,"byteOffset":81816,"byteLength":96,"target":34963},{"buffer":0,"byteOffset":81912,"byteLength":18816,"target":34962},{"buffer":0,"byteOffset":100728,"byteLength":18816,"target":34962},{"buffer":0,"byteOffset":119544,"byteLength":12544,"target":34962},{"buffer":0,"byteOffset":132088,"byteLength":5040,"target":34963},{"buffer":0,"byteOffset":137128,"byteLength":14988,"target":34962},{"buffer":0,"byteOffset":152116,"byteLength":14988,"target":34962},{"buffer":0,"byteOffset":167104,"byteLength":9992,"target":34962},{"buffer":0,"byteOffset":177096,"byteLength":6636,"target":34963},{"buffer":0,"byteOffset":183732,"byteLength":384,"target":34962},{"buffer":0,"byteOffset":184116,"byteLength":384,"target":34962},{"buffer":0,"byteOffset":184500,"byteLength":96,"target":34963},{"buffer":0,"byteOffset":184596,"byteLength":768,"target":34962},{"buffer":0,"byteOffset":185364,"byteLength":768,"target":34962},{"buffer":0,"byteOffset":186132,"byteLength":512,"target":34962},{"buffer":0,"byteOffset":186644,"byteLength":192,"target":34963},{"buffer":0,"byteOffset":186836,"byteLength":768,"target":34962},{"buffer":0,"byteOffset":187604,"byteLength":768,"target":34962},{"buffer":0,"byteOffset":188372,"byteLength":512,"target":34962},{"buffer":0,"byteOffset":188884,"byteLength":768,"target":34962},{"buffer":0,"byteOffset":189652,"byteLength":768,"target":34962},{"buffer":0,"byteOffset":190420,"byteLength":512,"target":34962},{"buffer":0,"byteOffset":190932,"byteLength":768,"target":34962},{"buffer":0,"byteOffset":191700,"byteLength":768,"target":34962},{"buffer":0,"byteOffset":192468,"byteLength":512,"target":34962},{"buffer":0,"byteOffset":192980,"byteLength":2304,"target":34962},{"buffer":0,"byteOffset":195284,"byteLength":2304,"target":34962},{"buffer":0,"byteOffset":197588,"byteLength":1536,"target":34962},{"buffer":0,"byteOffset":199124,"byteLength":768,"target":34963},{"buffer":0,"byteOffset":199892,"byteLength":1488,"target":34962},{"buffer":0,"byteOffset":201380,"byteLength":1488,"target":34962},{"buffer":0,"byteOffset":202868,"byteLength":992,"target":34962},{"buffer":0,"byteOffset":203860,"byteLength":408,"target":34963},{"buffer":0,"byteOffset":204268,"byteLength":828,"target":34962},{"buffer":0,"byteOffset":205096,"byteLength":828,"target":34962},{"buffer":0,"byteOffset":205924,"byteLength":552,"target":34962},{"buffer":0,"byteOffset":206476,"byteLength":390,"target":34963},{"buffer":0,"byteOffset":206868,"byteLength":96,"target":34962},{"buffer":0,"byteOffset":206964,"byteLength":96,"target":34962},{"buffer":0,"byteOffset":207060,"byteLength":64,"target":34962},{"buffer":0,"byteOffset":207124,"byteLength":24,"target":34963},{"buffer":0,"byteOffset":207148,"byteLength":1512,"target":34962},{"buffer":0,"byteOffset":208660,"byteLength":1512,"target":34962},{"buffer":0,"byteOffset":210172,"byteLength":1008,"target":34962},{"buffer":0,"byteOffset":211180,"byteLength":480,"target":34963},{"buffer":0,"byteOffset":211660,"byteLength":144,"target":34962},{"buffer":0,"byteOffset":211804,"byteLength":144,"target":34962},{"buffer":0,"byteOffset":211948,"byteLength":96,"target":34962},{"buffer":0,"byteOffset":212044,"byteLength":36,"target":34963},{"buffer":0,"byteOffset":212080,"byteLength":960,"target":34962},{"buffer":0,"byteOffset":213040,"byteLength":960,"target":34962},{"buffer":0,"byteOffset":214000,"byteLength":640,"target":34962},{"buffer":0,"byteOffset":214640,"byteLength":348,"target":34963},{"buffer":0,"byteOffset":214988,"byteLength":96,"target":34962},{"buffer":0,"byteOffset":215084,"byteLength":96,"target":34962},{"buffer":0,"byteOffset":215180,"byteLength":64,"target":34962},{"buffer":0,"byteOffset":215244,"byteLength":24,"target":34963},{"buffer":0,"byteOffset":215268,"byteLength":48,"target":34962},{"buffer":0,"byteOffset":215316,"byteLength":48,"target":34962},{"buffer":0,"byteOffset":215364,"byteLength":32,"target":34962},{"buffer":0,"byteOffset":215396,"byteLength":12,"target":34963},{"buffer":0,"byteOffset":215408,"byteLength":384,"target":34962},{"buffer":0,"byteOffset":215792,"byteLength":384,"target":34962},{"buffer":0,"byteOffset":216176,"byteLength":256,"target":34962},{"buffer":0,"byteOffset":216432,"byteLength":192,"target":34963},{"buffer":0,"byteOffset":216624,"byteLength":96,"target":34962},{"buffer":0,"byteOffset":216720,"byteLength":96,"target":34962},{"buffer":0,"byteOffset":216816,"byteLength":64,"target":34962},{"buffer":0,"byteOffset":216880,"byteLength":36,"target":34963},{"buffer":0,"byteOffset":216916,"byteLength":960,"target":34962},{"buffer":0,"byteOffset":217876,"byteLength":960,"target":34962},{"buffer":0,"byteOffset":218836,"byteLength":640,"target":34962},{"buffer":0,"byteOffset":219476,"byteLength":960,"target":34962},{"buffer":0,"byteOffset":220436,"byteLength":960,"target":34962},{"buffer":0,"byteOffset":221396,"byteLength":640,"target":34962},{"buffer":0,"byteOffset":222036,"byteLength":348,"target":34963},{"buffer":0,"byteOffset":222384,"byteLength":720,"target":34962},{"buffer":0,"byteOffset":223104,"byteLength":720,"target":34962},{"buffer":0,"byteOffset":223824,"byteLength":480,"target":34962},{"buffer":0,"byteOffset":224304,"byteLength":360,"target":34963},{"buffer":0,"byteOffset":224664,"byteLength":96,"target":34962},{"buffer":0,"byteOffset":224760,"byteLength":96,"target":34962},{"buffer":0,"byteOffset":224856,"byteLength":64,"target":34962},{"buffer":0,"byteOffset":224920,"byteLength":4824,"target":34962},{"buffer":0,"byteOffset":229744,"byteLength":4824,"target":34962},{"buffer":0,"byteOffset":234568,"byteLength":3216,"target":34962},{"buffer":0,"byteOffset":237784,"byteLength":1572,"target":34963},{"buffer":0,"byteOffset":239356,"byteLength":996,"target":34962},{"buffer":0,"byteOffset":240352,"byteLength":996,"target":34962},{"buffer":0,"byteOffset":241348,"byteLength":306,"target":34963},{"buffer":0,"byteOffset":241656,"byteLength":3264,"target":34962},{"buffer":0,"byteOffset":244920,"byteLength":3264,"target":34962},{"buffer":0,"byteOffset":248184,"byteLength":2176,"target":34962},{"buffer":0,"byteOffset":250360,"byteLength":816,"target":34963},{"buffer":0,"byteOffset":251176,"byteLength":540,"target":34962},{"buffer":0,"byteOffset":251716,"byteLength":540,"target":34962},{"buffer":0,"byteOffset":252256,"byteLength":144,"target":34963},{"buffer":0,"byteOffset":252400,"byteLength":4080,"target":34962},{"buffer":0,"byteOffset":256480,"byteLength":4080,"target":34962},{"buffer":0,"byteOffset":260560,"byteLength":2720,"target":34962},{"buffer":0,"byteOffset":263280,"byteLength":1344,"target":34963},{"buffer":0,"byteOffset":264624,"byteLength":756,"target":34962},{"buffer":0,"byteOffset":265380,"byteLength":756,"target":34962},{"buffer":0,"byteOffset":266136,"byteLength":246,"target":34963},{"buffer":0,"byteOffset":266384,"byteLength":3264,"target":34962},{"buffer":0,"byteOffset":269648,"byteLength":3264,"target":34962},{"buffer":0,"byteOffset":272912,"byteLength":2176,"target":34962},{"buffer":0,"byteOffset":275088,"byteLength":816,"target":34963}],"buffers":[{"byteLength":275904,"uri":"cottage_tower.bin"}],"images":[{"name":"T_Brick_BaseColor","uri":"../village/T_Brick_BaseColor.png"},{"name":"T_Plaster_Luma","uri":"../village/T_Plaster_Luma.png"},{"name":"T_RockTrim_BaseColor","uri":"../village/T_RockTrim_BaseColor.png"},{"name":"T_RoundTiles_Luma","uri":"../village/T_RoundTiles_Luma.png"},{"name":"T_UnevenBrick_BaseColor","uri":"../village/T_UnevenBrick_BaseColor.png"},{"name":"T_WoodTrim_BaseColor","uri":"../village/T_WoodTrim_BaseColor.png"}],"materials":[{"doubleSided":true,"name":"Wood_dark","pbrMetallicRoughness":{"baseColorFactor":[0.2329,0.2659,0.2944,1.0],"baseColorTexture":{"index":5},"metallicFactor":0,"roughnessFactor":0.8500000238418579}},{"doubleSided":true,"name":"Glass","pbrMetallicRoughness":{"baseColorFactor":[0.03310476616024971,0.05087608844041824,0.07828831672668457,1],"metallicFactor":0,"roughnessFactor":0.20000000298023224}},{"doubleSided":true,"name":"RockTrim","pbrMetallicRoughness":{"baseColorFactor":[1.0,0.9979,1.0,1.0],"baseColorTexture":{"index":2},"metallicFactor":0,"roughnessFactor":0.8500000238418579}},{"doubleSided":true,"name":"Brick","pbrMetallicRoughness":{"baseColorFactor":[1.0,0.9974,1.0,1.0],"baseColorTexture":{"index":0},"metallicFactor":0,"roughnessFactor":0.8500000238418579}},{"doubleSided":true,"name":"Plaster_white","pbrMetallicRoughness":{"baseColorFactor":[1.0,1.0,0.9092,1.0],"baseColorTexture":{"index":1},"metallicFactor":0,"roughnessFactor":0.8500000238418579}},{"doubleSided":true,"name":"Tiles_brown","pbrMetallicRoughness":{"baseColorFactor":[0.3822,0.1486,0.0653,1.0],"baseColorTexture":{"index":3},"metallicFactor":0,"roughnessFactor":0.699999988079071}},{"doubleSided":true,"name":"Iron","pbrMetallicRoughness":{"baseColorFactor":[0.0134117491543293,0.0134117491543293,0.015325203537940979,1],"metallicFactor":0,"roughnessFactor":0.5}},{"doubleSided":true,"name":"Stone","pbrMetallicRoughness":{"baseColorFactor":[1.0,0.9974,0.9977,1.0],"baseColorTexture":{"index":4},"metallicFactor":0,"roughnessFactor":0.8500000238418579}}],"meshes":[{"name":"kit_Corner_Exterior_Wood","primitives":[{"attributes":{"NORMAL":0,"POSITION":1,"TEXCOORD_0":2},"indices":3,"material":0}]},{"name":"kit_Door_1_Round","primitives":[{"attributes":{"NORMAL":4,"POSITION":5,"TEXCOORD_0":6},"indices":7,"material":0},{"attributes":{"NORMAL":8,"POSITION":9},"indices":10,"material":1}]},{"name":"kit_DoorFrame_Round_WoodDark","primitives":[{"attributes":{"NORMAL":11,"POSITION":12,"TEXCOORD_0":13},"indices":14,"material":0}]},{"name":"kit_Prop_Chimney","primitives":[{"attributes":{"NORMAL":15,"POSITION":16,"TEXCOORD_0":17},"indices":18,"material":2},{"attributes":{"NORMAL":19,"POSITION":20,"TEXCOORD_0":21},"indices":22,"material":3}]},{"name":"kit_Prop_ExteriorBorder_Straight1","primitives":[{"attributes":{"NORMAL":23,"POSITION":24,"TEXCOORD_0":25},"indices":26,"material":2}]},{"name":"kit_Roof_Front_Brick6","primitives":[{"attributes":{"NORMAL":27,"POSITION":28,"TEXCOORD_0":29},"indices":30,"material":0},{"attributes":{"NORMAL":31,"POSITION":32,"TEXCOORD_0":33},"indices":34,"material":4}]},{"name":"kit_Roof_RoundTiles_6x6.001","primitives":[{"attributes":{"NORMAL":35,"POSITION":36,"TEXCOORD_0":37},"indices":38,"material":0},{"attributes":{"NORMAL":39,"POSITION":40,"TEXCOORD_0":41},"indices":42,"material":5}]},{"name":"Spire","primitives":[{"attributes":{"NORMAL":43,"POSITION":44},"indices":45,"material":6}]},{"name":"Tower","primitives":[{"attributes":{"NORMAL":46,"POSITION":47,"TEXCOORD_0":48},"indices":49,"material":7}]},{"name":"TowerBand","primitives":[{"attributes":{"NORMAL":50,"POSITION":51,"TEXCOORD_0":52},"indices":49,"material":0}]},{"name":"TowerBand.001","primitives":[{"attributes":{"NORMAL":53,"POSITION":54,"TEXCOORD_0":55},"indices":49,"material":0}]},{"name":"TowerPlinth","primitives":[{"attributes":{"NORMAL":56,"POSITION":57,"TEXCOORD_0":58},"indices":49,"material":2}]},{"name":"TowerRoof","primitives":[{"attributes":{"NORMAL":59,"POSITION":60,"TEXCOORD_0":61},"indices":62,"material":5}]},{"name":"kit_Wall_Plaster_Door_Round","primitives":[{"attributes":{"NORMAL":63,"POSITION":64,"TEXCOORD_0":65},"indices":66,"material":0},{"attributes":{"NORMAL":67,"POSITION":68,"TEXCOORD_0":69},"indices":70,"material":4},{"attributes":{"NORMAL":71,"POSITION":72,"TEXCOORD_0":73},"indices":74,"material":2}]},{"name":"kit_Wall_Plaster_Straight","primitives":[{"attributes":{"NORMAL":75,"POSITION":76,"TEXCOORD_0":77},"indices":78,"material":0},{"attributes":{"NORMAL":79,"POSITION":80,"TEXCOORD_0":81},"indices":82,"material":4}]},{"name":"kit_Wall_Plaster_Straight_Base","primitives":[{"attributes":{"NORMAL":83,"POSITION":84,"TEXCOORD_0":85},"indices":86,"material":0},{"attributes":{"NORMAL":87,"POSITION":88,"TEXCOORD_0":89},"indices":90,"material":4},{"attributes":{"NORMAL":91,"POSITION":92,"TEXCOORD_0":93},"indices":94,"material":3}]},{"name":"kit_Wall_Plaster_Window_Wide_Flat","primitives":[{"attributes":{"NORMAL":95,"POSITION":96,"TEXCOORD_0":97},"indices":98,"material":4},{"attributes":{"NORMAL":99,"POSITION":100,"TEXCOORD_0":101},"indices":102,"material":3},{"attributes":{"NORMAL":103,"POSITION":104,"TEXCOORD_0":105},"indices":86,"material":0}]},{"name":"kit_Wall_Plaster_Window_Wide_Round","primitives":[{"attributes":{"NORMAL":106,"POSITION":107,"TEXCOORD_0":108},"indices":109,"material":0},{"attributes":{"NORMAL":110,"POSITION":111,"TEXCOORD_0":112},"indices":113,"material":4},{"attributes":{"NORMAL":114,"POSITION":115,"TEXCOORD_0":116},"indices":102,"material":3}]},{"name":"kit_Window_Thin_Round1.001","primitives":[{"attributes":{"NORMAL":117,"POSITION":118,"TEXCOORD_0":119},"indices":120,"material":0},{"attributes":{"NORMAL":121,"POSITION":122},"indices":123,"material":1}]},{"name":"kit_Window_Wide_Flat1","primitives":[{"attributes":{"NORMAL":124,"POSITION":125,"TEXCOORD_0":126},"indices":127,"material":0},{"attributes":{"NORMAL":128,"POSITION":129},"indices":130,"material":1}]},{"name":"kit_Window_Wide_Round1.001","primitives":[{"attributes":{"NORMAL":131,"POSITION":132,"TEXCOORD_0":133},"indices":134,"material":0},{"attributes":{"NORMAL":135,"POSITION":136},"indices":137,"material":1}]},{"name":"kit_WindowShutters_Wide_Round_Open","primitives":[{"attributes":{"NORMAL":138,"POSITION":139,"TEXCOORD_0":140},"indices":141,"material":0}]}],"nodes":[{"mesh":0,"name":"Corner_Exterior_Wood.021","translation":[-3,0,0]},{"mesh":0,"name":"Corner_Exterior_Wood.022","translation":[3,0,0]},{"mesh":0,"name":"Corner_Exterior_Wood.023","translation":[-3,0,-6]},{"mesh":0,"name":"Corner_Exterior_Wood.024","translation":[3,0,-6]},{"mesh":1,"name":"Door_1_Round.004","translation":[-0.550000011920929,0,-0.019999999552965164]},{"mesh":2,"name":"DoorFrame_Round_WoodDark.003"},{"mesh":3,"name":"Prop_Chimney.028","translation":[1.7000000476837158,3.6663012504577637,-4.599999904632568]},{"mesh":4,"name":"Prop_ExteriorBorder_Straight1.039","translation":[0,0,0.05000000074505806]},{"mesh":4,"name":"Prop_ExteriorBorder_Straight1.040","translation":[2,0,0.05000000074505806]},{"mesh":5,"name":"Roof_Front_Brick6.026","translation":[0,3.119999885559082,0]},{"mesh":5,"name":"Roof_Front_Brick6.027","rotation":[0,-1,0,4.371138828673793e-08],"translation":[0,3.119999885559082,-6]},{"mesh":6,"name":"Roof_RoundTiles_6x6.025","translation":[0,3.119999885559082,-3]},{"mesh":7,"name":"Spire.038"},{"mesh":8,"name":"Tower.029"},{"mesh":9,"name":"TowerBand.031"},{"mesh":10,"name":"TowerBand.032"},{"mesh":11,"name":"TowerPlinth.030"},{"mesh":12,"name":"TowerRoof.037"},{"mesh":13,"name":"Wall_Plaster_Door_Round.002"},{"mesh":14,"name":"Wall_Plaster_Straight.001","translation":[-2,0,0]},{"mesh":14,"name":"Wall_Plaster_Straight.015","rotation":[0,-0.7071068286895752,0,0.7071068286895752],"translation":[-3,0,-1]},{"mesh":15,"name":"Wall_Plaster_Straight_Base.008","rotation":[0,-1,0,4.371138828673793e-08],"translation":[2,0,-6]},{"mesh":15,"name":"Wall_Plaster_Straight_Base.011","rotation":[0,-1,0,4.371138828673793e-08],"translation":[-2,0,-6]},{"mesh":15,"name":"Wall_Plaster_Straight_Base.012","rotation":[0,-0.7071068286895752,0,0.7071068286895752],"translation":[-3,0,-5]},{"mesh":15,"name":"Wall_Plaster_Straight_Base.016","rotation":[0,0.7071068286895752,0,0.7071068286895752],"translation":[3,0,-1]},{"mesh":15,"name":"Wall_Plaster_Straight_Base.020","rotation":[0,0.7071068286895752,0,0.7071068286895752],"translation":[3,0,-5]},{"mesh":16,"name":"Wall_Plaster_Window_Wide_Flat.009","rotation":[0,-1,0,4.371138828673793e-08],"translation":[0,0,-6]},{"mesh":16,"name":"Wall_Plaster_Window_Wide_Flat.013","rotation":[0,-0.7071068286895752,0,0.7071068286895752],"translation":[-3,0,-3]},{"mesh":17,"name":"Wall_Plaster_Window_Wide_Round.005","translation":[2,0,0]},{"mesh":17,"name":"Wall_Plaster_Window_Wide_Round.017","rotation":[0,0.7071068286895752,0,0.7071068286895752],"translation":[3,0,-3]},{"mesh":18,"name":"Window_Thin_Round1.033","translation":[-3.299999952316284,2.4000000953674316,1.1699999570846558]},{"mesh":18,"name":"Window_Thin_Round1.034","rotation":[0,-0.3826834559440613,0,0.9238795638084412],"translation":[-4.551578998565674,5.400000095367432,0.6515789031982422]},{"mesh":18,"name":"Window_Thin_Round1.035","rotation":[0,0.2588190734386444,0,0.965925931930542],"translation":[-2.4149999618530273,5.400000095367432,0.9328649044036865]},{"mesh":18,"name":"Window_Thin_Round1.036","rotation":[0,-0.7071068286895752,0,0.7071068286895752],"translation":[-5.069999694824219,2.4000000953674316,-0.6000000238418579]},{"mesh":19,"name":"Window_Wide_Flat1.010","rotation":[0,-1,0,4.371138828673793e-08],"translation":[0,0,-6]},{"mesh":19,"name":"Window_Wide_Flat1.014","rotation":[0,-0.7071068286895752,0,0.7071068286895752],"translation":[-3,0,-3]},{"mesh":20,"name":"Window_Wide_Round1.006","translation":[2,0,0]},{"mesh":20,"name":"Window_Wide_Round1.018","rotation":[0,0.7071068286895752,0,0.7071068286895752],"translation":[3,0,-3]},{"mesh":21,"name":"WindowShutters_Wide_Round_Open.007","translation":[2,0,0]},{"mesh":21,"name":"WindowShutters_Wide_Round_Open.019","rotation":[0,0.7071068286895752,0,0.7071068286895752],"translation":[3,0,-3]}],"scene":0,"scenes":[{"name":"Scene","nodes":[0,1,2,3,4,5,6,7,8,9,10,11,12,13,14,15,16,17,18,19,20,21,22,23,24,25,26,27,28,29,30,31,32,33,34,35,36,37,38,39]}],"textures":[{"source":0},{"source":1},{"source":2},{"source":3},{"source":4},{"source":5}]}