{"accessors":[{"bufferView":0,"componentType":5126,"count":24,"max":[0.10508709400892258,2.999999761581421,0.11982007324695587],"min":[-0.10508733242750168,-1.5052728485898115e-07,-0.11982005089521408],"type":"VEC3"},{"bufferView":1,"componentType":5126,"count":24,"type":"VEC3"},{"bufferView":2,"componentType":5126,"count":24,"type":"VEC2"},{"bufferView":3,"componentType":5123,"count":36,"type":"SCALAR"},{"bufferView":4,"componentType":5126,"count":24,"max":[3.799999952316284,4.9339141845703125,-1.164506196975708],"min":[-3.799999952316284,4.655838966369629,-1.4378684759140015],"type":"VEC3"},{"bufferView":5,"componentType":5126,"count":24,"type":"VEC3"},{"bufferView":6,"componentType":5126,"count":24,"type":"VEC2"},{"bufferView":7,"componentType":5123,"count":36,"type":"SCALAR"},{"bufferView":8,"componentType":5126,"count":24,"max":[3.799999952316284,3.698394536972046,0.023494243621826172],"min":[-3.799999952316284,3.4203193187713623,-0.24986863136291504],"type":"VEC3"},{"bufferView":9,"componentType":5126,"count":24,"type":"VEC3"},{"bufferView":10,"componentType":5126,"count":24,"type":"VEC2"},{"bufferView":11,"componentType":5126,"count":24,"max":[3.799999713897705,2.8403947353363037,0.8484940528869629],"min":[-3.8000001907348633,2.562319278717041,0.5751314163208008],"type":"VEC3"},{"bufferView":12,"componentType":5126,"count":24,"type":"VEC3"},{"bufferView":13,"componentType":5126,"count":24,"type":"VEC2"},{"bufferView":14,"componentType":5126,"count":24,"max":[3.8000001907348633,4.9339141845703125,-3.56213116645813],"min":[-3.799999713897705,4.655838966369629,-3.835494041442871],"type":"VEC3"},{"bufferView":15,"componentType":5126,"count":24,"type":"VEC3"},{"bufferView":16,"componentType":5126,"count":24,"type":"VEC2"},{"bufferView":17,"componentType":5126,"count":24,"max":[3.8000001907348633,3.698394536972046,-4.750131130218506],"min":[-3.799999713897705,3.4203193187713623,-5.023494243621826],"type":"VEC3"},{"bufferView":18,"componentType":5126,"count":24,"type":"VEC3"},{"bufferView":19,"componentType":5126,"count":24,"type":"VEC2"},{"bufferView":20,"componentType":5126,"count":24,"max":[3.8000004291534424,2.8403947353363037,-5.575131416320801],"min":[-3.799999475479126,2.562319278717041,-5.848494529724121],"type":"VEC3"},{"bufferView":21,"componentType":5126,"count":24,"type":"VEC3"},{"bufferView":22,"componentType":5126,"count":24,"type":"VEC2"},{"bufferView":23,"componentType":5126,"count":744,"max":[1.0737497806549072,2.3513262271881104,0.06314271688461304],"min":[-0.04626310616731644,0.033089637756347656,-0.05755755677819252],"type":"VEC3"},{"bufferView":24,"componentType":5126,"count":744,"type":"VEC3"},{"bufferView":25,"componentType":5126,"count":744,"type":"VEC2"},{"bufferView":26,"componentType":5123,"count":1362,"type":"SCALAR"},{"bufferView":27,"componentType":5126,"count":28,"max":[0.8667700886726379,1.7624019384384155,0.0312458835542202],"min":[0.1617247760295868,1.3117259740829468,0.031245503574609756],"type":"VEC3"},{"bufferView":28,"componentType":5126,"count":28,"type":"VEC3"},{"bufferView":29,"componentType":5126,"count":28,"type":"VEC2"},{"bufferView":30,"componentType":5123,"count":48,"type":"SCALAR"},{"bufferView":31,"componentType":5126,"count":364,"max":[0.7034913897514343,2.5548486709594727,0.29893577098846436],"min":[-0.7034929394721985,-0.008544921875,-0.24002820253372192],"type":"VEC3"},{"bufferView":32,"componentType":5126,"count":364,"type":"VEC3"},{"bufferView":33,"componentType":5126,"count":364,"type":"VEC2"},{"bufferView":34,"componentType":5123,"count":960,"type":"SCALAR"},{"bufferView":35,"componentType":5126,"count":6,"max":[3,5.96999979019165,1.3113415775478643e-07],"min":[-3,3.4200000762939453,-5],"type":"VEC3"},{"bufferView":36,"componentType":5126,"count":6,"type":"VEC3"},{"bufferView":37,"componentType":5126,"count":6,"type":"VEC2"},{"bufferView":38,"componentType":5123,"count":6,"type":"SCALAR"},{"bufferView":39,"componentType":5126,"count":129,"max":[0.4457784593105316,3,0.4940085709095001],"min":[-0.5000000596046448,5.820766091346741e-08,-0.49400854110717773],"type":"VEC3"},{"bufferView":40,"componentType":5126,"count":129,"type":"VEC3"},{"bufferView":41,"componentType":5126,"count":129,"type":"VEC2"},{"bufferView":42,"componentType":5123,"count":390,"type":"SCALAR"},{"bufferView":43,"componentType":5126,"count":24,"max":[3.8499999046325684,6.139999866485596,-2.359999895095825],"min":[-3.8499999046325684,5.920000076293945,-2.640000104904175],"type":"VEC3"},{"bufferView":44,"componentType":5126,"count":24,"type":"VEC3"},{"bufferView":45,"componentType":5126,"count":24,"type":"VEC2"},{"bufferView":46,"componentType":5123,"count":36,"type":"SCALAR"},{"bufferView":47,"componentType":5126,"count":48,"max":[3.9000000953674316,6.289999961853027,-2.180000066757202],"min":[-3.9000000953674316,5.649999618530273,-2.819999933242798],"type":"VEC3"},{"bufferView":48,"componentType":5126,"count":48,"type":"VEC3"},{"bufferView":49,"componentType":5126,"count":48,"type":"VEC2"},{"bufferView":50,"componentType":5123,"count":84,"type":"SCALAR"},{"bufferView":51,"componentType":5126,"count":24,"max":[3.799999952316284,6.019999980926514,0.8000006675720215],"min":[-3.8000001907348633,2.2761011123657227,-2.8243751525878906],"type":"VEC3"},{"bufferView":52,"componentType":5126,"count":24,"type":"VEC3"},{"bufferView":53,"componentType":5126,"count":24,"type":"VEC2"},{"bufferView":54,"componentType":5126,"count":24,"max":[3.8000004291534424,6.019999980926514,-2.1756246089935303],"min":[-3.799999952316284,2.2761011123657227,-5.80000114440918],"type":"VEC3"},{"bufferView":55,"componentType":5126,"count":24,"type":"VEC3"},{"bufferView":56,"componentType":5126,"count":24,"type":"VEC2"},{"bufferView":57,"componentType":5126,"count":124,"max":[1,3.1226887702941895,0.0924467146396637],"min":[-1.0000001192092896,0.6495776176452637,-0.3140353262424469],"type":"VEC3"},{"bufferView":58,"componentType":5126,"count":124,"type":"VEC3"},{"bufferView":59,"componentType":5126,"count":124,"type":"VEC2"},{"bufferView":60,"componentType":5123,"count":204,"type":"SCALAR"},{"bufferView":61,"componentType":5126,"count":69,"max":[1,3,1.3113417196564114e-07],"min":[-1,0,-0.2000000923871994],"type":"VEC3"},{"bufferView":62,"componentType":5126,"count":69,"type":"VEC3"},{"bufferView":63,"componentType":5126,"count":69,"type":"VEC2"},{"bufferView":64,"componentType":5123,"count":195,"type":"SCALAR"},{"bufferView":65,"componentType":5126,"count":8,"max":[1,0.9100615382194519,4.3711395392165286e-08],"min":[-1,0,0],"type":"VEC3"},{"bufferView":66,"componentType":5126,"count":8,"type":"VEC3"},{"bufferView":67,"componentType":5126,"count":8,"type":"VEC2"},{"bufferView":68,"componentType":5123,"count":12,"type":"SCALAR"},{"bufferView":69,"componentType":5126,"count":126,"max":[1,3.1226887702941895,0.0924467146396637],"min":[-1.0000001192092896,-0.0020958781242370605,-0.3140353262424469],"type":"VEC3"},{"bufferView":70,"componentType":5126,"count":126,"type":"VEC3"},{"bufferView":71,"componentType":5126,"count":126,"type":"VEC2"},{"bufferView":72,"componentType":5123,"count":240,"type":"SCALAR"},{"bufferView":73,"componentType":5126,"count":12,"max":[1,3,1.3113415775478643e-07],"min":[-1,0,-0.2000000923871994],"type":"VEC3"},{"bufferView":74,"componentType":5126,"count":12,"type":"VEC3"},{"bufferView":75,"componentType":5126,"count":12,"type":"VEC2"},{"bufferView":76,"componentType":5123,"count":18,"type":"SCALAR"},{"bufferView":77,"componentType":5126,"count":32,"max":[1,3,1.3113417196564114e-07],"min":[-1,0,-0.2000000923871994],"type":"VEC3"},{"bufferView":78,"componentType":5126,"count":32,"type":"VEC3"},{"bufferView":79,"componentType":5126,"count":32,"type":"VEC2"},{"bufferView":80,"componentType":5123,"count":96,"type":"SCALAR"},{"bufferView":81,"componentType":5126,"count":8,"max":[1,0.8799999952316284,4.371138828673793e-08],"min":[-1,0,0],"type":"VEC3"},{"bufferView":82,"componentType":5126,"count":8,"type":"VEC3"},{"bufferView":83,"componentType":5126,"count":8,"type":"VEC2"},{"bufferView":84,"componentType":5123,"count":18,"type":"SCALAR"},{"bufferView":85,"componentType":5126,"count":80,"max":[1,3.1226887702941895,0.0924467146396637],"min":[-1.0000001192092896,0.6495776176452637,-0.3140353262424469],"type":"VEC3"},{"bufferView":86,"componentType":5126,"count":80,"type":"VEC3"},{"bufferView":87,"componentType":5126,"count":80,"type":"VEC2"},{"bufferView":88,"componentType":5123,"count":174,"type":"SCALAR"},{"bufferView":89,"componentType":5126,"count":80,"max":[1,3.1226887702941895,0.0924467146396637],"min":[-1.0000001192092896,0.6495776176452637,-0.3140353262424469],"type":"VEC3"},{"bufferView":90,"componentType":5126,"count":80,"type":"VEC3"},{"bufferView":91,"componentType":5126,"count":80,"type":"VEC2"},{"bufferView":92,"componentType":5123,"count":174,"type":"SCALAR"},{"bufferView":93,"componentType":5126,"count":60,"max":[1,3,1.3113417196564114e-07],"min":[-1,0,-0.2000000923871994],"type":"VEC3"},{"bufferView":94,"componentType":5126,"count":60,"type":"VEC3"},{"bufferView":95,"componentType":5126,"count":60,"type":"VEC2"},{"bufferView":96,"componentType":5123,"count":180,"type":"SCALAR"},{"bufferView":97,"componentType":5126,"count":8,"max":[1,0.8799999952316284,4.371138828673793e-08],"min":[-1,0,0],"type":"VEC3"},{"bufferView":98,"componentType":5126,"count":8,"type":"VEC3"},{"bufferView":99,"componentType":5126,"count":8,"type":"VEC2"},{"bufferView":100,"componentType":5126,"count":272,"max":[0.8041172027587891,2.5242888927459717,0.4168574810028076],"min":[-0.8041191101074219,0.94417804479599,-0.26658084988594055],"type":"VEC3"},{"bufferView":101,"componentType":5126,"count":272,"type":"VEC3"},{"bufferView":102,"componentType":5126,"count":272,"type":"VEC2"},{"bufferView":103,"componentType":5123,"count":408,"type":"SCALAR"},{"bufferView":104,"componentType":5126,"count":45,"max":[0.5054702758789062,2.355356216430664,0.003888234496116638],"min":[-0.5054721832275391,1.0971393585205078,0.0038878247141838074],"type":"VEC3"},{"bufferView":105,"componentType":5126,"count":45,"type":"VEC3"},{"bufferView":106,"componentType":5126,"count":45,"type":"VEC2"},{"bufferView":107,"componentType":5123,"count":72,"type":"SCALAR"},{"bufferView":108,"componentType":5126,"count":340,"max":[0.691490113735199,2.741780996322632,0.27729201316833496],"min":[-0.691490113735199,1.01604425907135,-0.2522830367088318],"type":"VEC3"},{"bufferView":109,"componentType":5126,"count":340,"type":"VEC3"},{"bufferView":110,"componentType":5126,"count":340,"type":"VEC2"},{"bufferView":111,"componentType":5123,"count":672,"type":"SCALAR"},{"bufferView":112,"componentType":5126,"count":63,"max":[0.5413169860839844,2.6192541122436523,0.0038883001543581486],"min":[-0.5445477962493896,1.0647618770599365,0.003887913655489683],"type":"VEC3"},{"bufferView":113,"componentType":5126,"count":63,"type":"VEC3"},{"bufferView":114,"componentType":5126,"count":63,"type":"VEC2"},{"bufferView":115,"componentType":5123,"count":123,"type":"SCALAR"},{"bufferView":116,"componentType":5126,"count":240,"max":[1.2418603897094727,2.51727557182312,0.5931743383407593],"min":[-1.2387090921401978,1.0932440757751465,0.13665564358234406],"type":"VEC3"},{"bufferView":117,"componentType":5126,"count":240,"type":"VEC3"},{"bufferView":118,"componentType":5126,"count":240,"type":"VEC2"},{"bufferView":119,"componentType":5123,"count":360,"type":"SCALAR"},{"bufferView":120,"componentType":5126,"count":272,"max":[1.1035263538360596,2.740431785583496,0.56315016746521],"min":[-1.199957251548767,1.0932440757751465,0.09079486131668091],"type":"VEC3"},{"bufferView":121,"componentType":5126,"count":272,"type":"VEC3"},{"bufferView":122,"componentType":5126,"count":272,"type":"VEC2"},{"bufferView":123,"componentType":5123,"count":408,"type":"SCALAR"}],"asset":{"generator":"Khronos glTF Blender I/O v5.2.40","version":"2.0"},"bufferViews":[{"buffer":0,"byteLength":288,"byteOffset":0,"target":34962},{"buffer":0,"byteLength":288,"byteOffset":288,"target":34962},{"buffer":0,"byteLength":192,"byteOffset":576,"target":34962},{"buffer":0,"byteLength":72,"byteOffset":768,"target":34963},{"buffer":0,"byteLength":288,"byteOffset":840,"target":34962},{"buffer":0,"byteLength":288,"byteOffset":1128,"target":34962},{"buffer":0,"byteLength":192,"byteOffset":1416,"target":34962},{"buffer":0,"byteLength":72,"byteOffset":1608,"target":34963},{"buffer":0,"byteLength":288,"byteOffset":1680,"target":34962},{"buffer":0,"byteLength":288,"byteOffset":1968,"target":34962},{"buffer":0,"byteLength":192,"byteOffset":2256,"target":34962},{"buffer":0,"byteLength":288,"byteOffset":2448,"target":34962},{"buffer":0,"byteLength":288,"byteOffset":2736,"target":34962},{"buffer":0,"byteLength":192,"byteOffset":3024,"target":34962},{"buffer":0,"byteLength":288,"byteOffset":3216,"target":34962},{"buffer":0,"byteLength":288,"byteOffset":3504,"target":34962},{"buffer":0,"byteLength":192,"byteOffset":3792,"target":34962},{"buffer":0,"byteLength":288,"byteOffset":3984,"target":34962},{"buffer":0,"byteLength":288,"byteOffset":4272,"target":34962},{"buffer":0,"byteLength":192,"byteOffset":4560,"target":34962},{"buffer":0,"byteLength":288,"byteOffset":4752,"target":34962},{"buffer":0,"byteLength":288,"byteOffset":5040,"target":34962},{"buffer":0,"byteLength":192,"byteOffset":5328,"target":34962},{"buffer":0,"byteLength":8928,"byteOffset":5520,"target":34962},{"buffer":0,"byteLength":8928,"byteOffset":14448,"target":34962},{"buffer":0,"byteLength":5952,"byteOffset":23376,"target":34962},{"buffer":0,"byteLength":2724,"byteOffset":29328,"target":34963},{"buffer":0,"byteLength":336,"byteOffset":32052,"target":34962},{"buffer":0,"byteLength":336,"byteOffset":32388,"target":34962},{"buffer":0,"byteLength":224,"byteOffset":32724,"target":34962},{"buffer":0,"byteLength":96,"byteOffset":32948,"target":34963},{"buffer":0,"byteLength":4368,"byteOffset":33044,"target":34962},{"buffer":0,"byteLength":4368,"byteOffset":37412,"target":34962},{"buffer":0,"byteLength":2912,"byteOffset":41780,"target":34962},{"buffer":0,"byteLength":1920,"byteOffset":44692,"target":34963},{"buffer":0,"byteLength":72,"byteOffset":46612,"target":34962},{"buffer":0,"byteLength":72,"byteOffset":46684,"target":34962},{"buffer":0,"byteLength":48,"byteOffset":46756,"target":34962},{"buffer":0,"byteLength":12,"byteOffset":46804,"target":34963},{"buffer":0,"byteLength":1548,"byteOffset":46816,"target":34962},{"buffer":0,"byteLength":1548,"byteOffset":48364,"target":34962},{"buffer":0,"byteLength":1032,"byteOffset":49912,"target":34962},{"buffer":0,"byteLength":780,"byteOffset":50944,"target":34963},{"buffer":0,"byteLength":288,"byteOffset":51724,"target":34962},{"buffer":0,"byteLength":288,"byteOffset":52012,"target":34962},{"buffer":0,"byteLength":192,"byteOffset":52300,"target":34962},{"buffer":0,"byteLength":72,"byteOffset":52492,"target":34963},{"buffer":0,"byteLength":576,"byteOffset":52564,"target":34962},{"buffer":0,"byteLength":576,"byteOffset":53140,"target":34962},{"buffer":0,"byteLength":384,"byteOffset":53716,"target":34962},{"buffer":0,"byteLength":168,"byteOffset":54100,"target":34963},{"buffer":0,"byteLength":288,"byteOffset":54268,"target":34962},{"buffer":0,"byteLength":288,"byteOffset":54556,"target":34962},{"buffer":0,"byteLength":192,"byteOffset":54844,"target":34962},{"buffer":0,"byteLength":288,"byteOffset":55036,"target":34962},{"buffer":0,"byteLength":288,"byteOffset":55324,"target":34962},{"buffer":0,"byteLength":192,"byteOffset":55612,"target":34962},{"buffer":0,"byteLength":1488,"byteOffset":55804,"target":34962},{"buffer":0,"byteLength":1488,"byteOffset":57292,"target":34962},{"buffer":0,"byteLength":992,"byteOffset":58780,"target":34962},{"buffer":0,"byteLength":408,"byteOffset":59772,"target":34963},{"buffer":0,"byteLength":828,"byteOffset":60180,"target":34962},{"buffer":0,"byteLength":828,"byteOffset":61008,"target":34962},{"buffer":0,"byteLength":552,"byteOffset":61836,"target":34962},{"buffer":0,"byteLength":390,"byteOffset":62388,"target":34963},{"buffer":0,"byteLength":96,"byteOffset":62780,"target":34962},{"buffer":0,"byteLength":96,"byteOffset":62876,"target":34962},{"buffer":0,"byteLength":64,"byteOffset":62972,"target":34962},{"buffer":0,"byteLength":24,"byteOffset":63036,"target":34963},{"buffer":0,"byteLength":1512,"byteOffset":63060,"target":34962},{"buffer":0,"byteLength":1512,"byteOffset":64572,"target":34962},{"buffer":0,"byteLength":1008,"byteOffset":66084,"target":34962},{"buffer":0,"byteLength":480,"byteOffset":67092,"target":34963},{"buffer":0,"byteLength":144,"byteOffset":67572,"target":34962},{"buffer":0,"byteLength":144,"byteOffset":67716,"target":34962},{"buffer":0,"byteLength":96,"byteOffset":67860,"target":34962},{"buffer":0,"byteLength":36,"byteOffset":67956,"target":34963},{"buffer":0,"byteLength":384,"byteOffset":67992,"target":34962},{"buffer":0,"byteLength":384,"byteOffset":68376,"target":34962},{"buffer":0,"byteLength":256,"byteOffset":68760,"target":34962},{"buffer":0,"byteLength":192,"byteOffset":69016,"target":34963},{"buffer":0,"byteLength":96,"byteOffset":69208,"target":34962},{"buffer":0,"byteLength":96,"byteOffset":69304,"target":34962},{"buffer":0,"byteLength":64,"byteOffset":69400,"target":34962},{"buffer":0,"byteLength":36,"byteOffset":69464,"target":34963},{"buffer":0,"byteLength":960,"byteOffset":69500,"target":34962},{"buffer":0,"byteLength":960,"byteOffset":70460,"target":34962},{"buffer":0,"byteLength":640,"byteOffset":71420,"target":34962},{"buffer":0,"byteLength":348,"byteOffset":72060,"target":34963},{"buffer":0,"byteLength":960,"byteOffset":72408,"target":34962},{"buffer":0,"byteLength":960,"byteOffset":73368,"target":34962},{"buffer":0,"byteLength":640,"byteOffset":74328,"target":34962},{"buffer":0,"byteLength":348,"byteOffset":74968,"target":34963},{"buffer":0,"byteLength":720,"byteOffset":75316,"target":34962},{"buffer":0,"byteLength":720,"byteOffset":76036,"target":34962},{"buffer":0,"byteLength":480,"byteOffset":76756,"target":34962},{"buffer":0,"byteLength":360,"byteOffset":77236,"target":34963},{"buffer":0,"byteLength":96,"byteOffset":77596,"target":34962},{"buffer":0,"byteLength":96,"byteOffset":77692,"target":34962},{"buffer":0,"byteLength":64,"byteOffset":77788,"target":34962},{"buffer":0,"byteLength":3264,"byteOffset":77852,"target":34962},{"buffer":0,"byteLength":3264,"byteOffset":81116,"target":34962},{"buffer":0,"byteLength":2176,"byteOffset":84380,"target":34962},{"buffer":0,"byteLength":816,"byteOffset":86556,"target":34963},{"buffer":0,"byteLength":540,"byteOffset":87372,"target":34962},{"buffer":0,"byteLength":540,"byteOffset":87912,"target":34962},{"buffer":0,"byteLength":360,"byteOffset":88452,"target":34962},{"buffer":0,"byteLength":144,"byteOffset":88812,"target":34963},{"buffer":0,"byteLength":4080,"byteOffset":88956,"target":34962},{"buffer":0,"byteLength":4080,"byteOffset":93036,"target":34962},{"buffer":0,"byteLength":2720,"byteOffset":97116,"target":34962},{"buffer":0,"byteLength":1344,"byteOffset":99836,"target":34963},{"buffer":0,"byteLength":756,"byteOffset":101180,"target":34962},{"buffer":0,"byteLength":756,"byteOffset":101936,"target":34962},{"buffer":0,"byteLength":504,"byteOffset":102692,"target":34962},{"buffer":0,"byteLength":246,"byteOffset":103196,"target":34963},{"buffer":0,"byteLength":2880,"byteOffset":103444,"target":34962},{"buffer":0,"byteLength":2880,"byteOffset":106324,"target":34962},{"buffer":0,"byteLength":1920,"byteOffset":109204,"target":34962},{"buffer":0,"byteLength":720,"byteOffset":111124,"target":34963},{"buffer":0,"byteLength":3264,"byteOffset":111844,"target":34962},{"buffer":0,"byteLength":3264,"byteOffset":115108,"target":34962},{"buffer":0,"byteLength":2176,"byteOffset":118372,"target":34962},{"buffer":0,"byteLength":816,"byteOffset":120548,"target":34963}],"buffers":[{"byteLength":121364,"uri":"cottage_thatch.bin"}],"images":[{"name":"T_Brick_BaseColor","uri":"../village/T_Brick_BaseColor.png"},{"name":"T_Plaster_Luma","uri":"../village/T_Plaster_Luma.png"},{"name":"T_RockTrim_BaseColor","uri":"../village/T_RockTrim_BaseColor.png"},{"name":"T_UnevenBrick_BaseColor","uri":"../village/T_UnevenBrick_BaseColor.png"},{"name":"T_WoodTrim_BaseColor","uri":"../village/T_WoodTrim_BaseColor.png"}],"materials":[{"doubleSided":true,"name":"Wood_mid","pbrMetallicRoughness":{"baseColorFactor":[0.5179,0.5489,0.5787,1.0],"baseColorTexture":{"index":4},"metallicFactor":0,"roughnessFactor":0.8500000238418579}},{"doubleSided":true,"name":"ThatchDark","pbrMetallicRoughness":{"baseColorFactor":[0.21404114365577698,0.11928018927574158,0.027211781591176987,1],"metallicFactor":0}},{"doubleSided":true,"name":"Glass","pbrMetallicRoughness":{"baseColorFactor":[0.03310476616024971,0.05087608844041824,0.07828831672668457,1],"metallicFactor":0,"roughnessFactor":0.20000000298023224}},{"doubleSided":true,"name":"Plaster_terracotta","pbrMetallicRoughness":{"baseColorFactor":[0.7697,0.3063,0.1781,1.0],"baseColorTexture":{"index":1},"metallicFactor":0,"roughnessFactor":0.8500000238418579}},{"doubleSided":true,"name":"Stone","pbrMetallicRoughness":{"baseColorFactor":[1.0,0.9974,0.9977,1.0],"baseColorTexture":{"index":3},"metallicFactor":0,"roughnessFactor":0.8500000238418579}},{"doubleSided":true,"name":"Thatch","pbrMetallicRoughness":{"baseColorFactor":[0.3931231200695038,0.23302200436592102,0.059253521263599396,1],"metallicFactor":0}},{"doubleSided":true,"name":"RockTrim","pbrMetallicRoughness":{"baseColorFactor":[1.0,0.9979,1.0,1.0],"baseColorTexture":{"index":2},"metallicFactor":0,"roughnessFactor":0.8500000238418579}},{"doubleSided":true,"name":"Brick","pbrMetallicRoughness":{"baseColorFactor":[1.0,0.9974,1.0,1.0],"baseColorTexture":{"index":0},"metallicFactor":0,"roughnessFactor":0.8500000238418579}}],"meshes":[{"name":"kit_Corner_Exterior_Wood","primitives":[{"attributes":{"NORMAL":1,"POSITION":0,"TEXCOORD_0":2},"indices":3,"material":0}]},{"name":"Course","primitives":[{"attributes":{"NORMAL":5,"POSITION":4,"TEXCOORD_0":6},"indices":7,"material":1}]},{"name":"Course.001","primitives":[{"attributes":{"NORMAL":9,"POSITION":8,"TEXCOORD_0":10},"indices":7,"material":1}]},{"name":"Course.002","primitives":[{"attributes":{"NORMAL":12,"POSITION":11,"TEXCOORD_0":13},"indices":7,"material":1}]},{"name":"Course.003","primitives":[{"attributes":{"NORMAL":15,"POSITION":14,"TEXCOORD_0":16},"indices":7,"material":1}]},{"name":"Course.004","primitives":[{"attributes":{"NORMAL":18,"POSITION":17,"TEXCOORD_0":19},"indices":7,"material":1}]},{"name":"Course.005","primitives":[{"attributes":{"NORMAL":21,"POSITION":20,"TEXCOORD_0":22},"indices":7,"material":1}]},{"name":"kit_Door_1_Round","primitives":[{"attributes":{"NORMAL":24,"POSITION":23,"TEXCOORD_0":25},"indices":26,"material":0},{"attributes":{"NORMAL":28,"POSITION":27,"TEXCOORD_0":29},"indices":30,"material":2}]},{"name":"kit_DoorFrame_Round_WoodDark","primitives":[{"attributes":{"NORMAL":32,"POSITION":31,"TEXCOORD_0":33},"indices":34,"material":0}]},{"name":"Gable","primitives":[{"attributes":{"NORMAL":36,"POSITION":35,"TEXCOORD_0":37},"indices":38,"material":3}]},{"name":"kit_Prop_Chimney2","primitives":[{"attributes":{"NORMAL":40,"POSITION":39,"TEXCOORD_0":41},"indices":42,"material":4}]},{"name":"Ridge","primitives":[{"attributes":{"NORMAL":44,"POSITION":43,"TEXCOORD_0":45},"indices":46,"material":1}]},{"name":"RidgeRoll","primitives":[{"attributes":{"NORMAL":48,"POSITION":47,"TEXCOORD_0":49},"indices":50,"material":1}]},{"name":"RoofSlab","primitives":[{"attributes":{"NORMAL":52,"POSITION":51,"TEXCOORD_0":53},"indices":7,"material":5}]},{"name":"RoofSlab.001","primitives":[{"attributes":{"NORMAL":55,"POSITION":54,"TEXCOORD_0":56},"indices":7,"material":5}]},{"name":"kit_Wall_Plaster_Door_Round","primitives":[{"attributes":{"NORMAL":58,"POSITION":57,"TEXCOORD_0":59},"indices":60,"material":0},{"attributes":{"NORMAL":62,"POSITION":61,"TEXCOORD_0":63},"indices":64,"material":3},{"attributes":{"NORMAL":66,"POSITION":65,"TEXCOORD_0":67},"indices":68,"material":6}]},{"name":"kit_Wall_Plaster_Straight","primitives":[{"attributes":{"NORMAL":70,"POSITION":69,"TEXCOORD_0":71},"indices":72,"material":0},{"attributes":{"NORMAL":74,"POSITION":73,"TEXCOORD_0":75},"indices":76,"material":3}]},{"name":"kit_Wall_Plaster_Window_Wide_Flat","primitives":[{"attributes":{"NORMAL":78,"POSITION":77,"TEXCOORD_0":79},"indices":80,"material":3},{"attributes":{"NORMAL":82,"POSITION":81,"TEXCOORD_0":83},"indices":84,"material":7},{"attributes":{"NORMAL":86,"POSITION":85,"TEXCOORD_0":87},"indices":88,"material":0}]},{"name":"kit_Wall_Plaster_Window_Wide_Round","primitives":[{"attributes":{"NORMAL":90,"POSITION":89,"TEXCOORD_0":91},"indices":92,"material":0},{"attributes":{"NORMAL":94,"POSITION":93,"TEXCOORD_0":95},"indices":96,"material":3},{"attributes":{"NORMAL":98,"POSITION":97,"TEXCOORD_0":99},"indices":84,"material":7}]},{"name":"kit_Window_Wide_Flat1","primitives":[{"attributes":{"NORMAL":101,"POSITION":100,"TEXCOORD_0":102},"indices":103,"material":0},{"attributes":{"NORMAL":105,"POSITION":104,"TEXCOORD_0":106},"indices":107,"material":2}]},{"name":"kit_Window_Wide_Round1.001","primitives":[{"attributes":{"NORMAL":109,"POSITION":108,"TEXCOORD_0":110},"indices":111,"material":0},{"attributes":{"NORMAL":113,"POSITION":112,"TEXCOORD_0":114},"indices":115,"material":2}]},{"name":"kit_WindowShutters_Wide_Flat_Open","primitives":[{"attributes":{"NORMAL":117,"POSITION":116,"TEXCOORD_0":118},"indices":119,"material":0}]},{"name":"kit_WindowShutters_Wide_Round_Open","primitives":[{"attributes":{"NORMAL":121,"POSITION":120,"TEXCOORD_0":122},"indices":123,"material":0}]}],"nodes":[{"mesh":0,"name":"Corner_Exterior_Wood.022","translation":[-3,0,0]},{"mesh":0,"name":"Corner_Exterior_Wood.023","translation":[3,0,0]},{"mesh":0,"name":"Corner_Exterior_Wood.024","translation":[-3,0,-5]},{"mesh":0,"name":"Corner_Exterior_Wood.025","translation":[3,0,-5]},{"mesh":1,"name":"Course.027"},{"mesh":2,"name":"Course.028"},{"mesh":3,"name":"Course.029"},{"mesh":4,"name":"Course.031"},{"mesh":5,"name":"Course.032"},{"mesh":6,"name":"Course.033"},{"mesh":7,"name":"Door_1_Round.006","translation":[-0.550000011920929,0,-0.019999999552965164]},{"mesh":8,"name":"DoorFrame_Round_WoodDark.005"},{"mesh":9,"name":"Gable.034"},{"mesh":10,"name":"Prop_Chimney2.037","translation":[1.600000023841858,3.3959999084472656,-3.0999999046325684]},{"mesh":11,"name":"Ridge.035"},{"mesh":12,"name":"RidgeRoll.036"},{"mesh":13,"name":"RoofSlab.026"},{"mesh":14,"name":"RoofSlab.030"},{"mesh":15,"name":"Wall_Plaster_Door_Round.004"},{"mesh":16,"name":"Wall_Plaster_Straight.010","rotation":[0,-1,0,4.371138828673793e-08],"translation":[2,0,-5]},{"mesh":16,"name":"Wall_Plaster_Straight.013","rotation":[0,-1,0,4.371138828673793e-08],"translation":[-2,0,-5]},{"mesh":16,"name":"Wall_Plaster_Straight.014","rotation":[0,-0.7071068286895752,0,0.7071068286895752],"scale":[1.25,1,1],"translation":[-3,0,-3.75]},{"mesh":16,"name":"Wall_Plaster_Straight.018","rotation":[0,0.7071068286895752,0,0.7071068286895752],"scale":[1.25,1,1],"translation":[3,0,-1.25]},{"mesh":17,"name":"Wall_Plaster_Window_Wide_Flat.011","rotation":[0,-1,0,4.371138828673793e-08],"translation":[0,0,-5]},{"mesh":17,"name":"Wall_Plaster_Window_Wide_Flat.015","rotation":[0,-0.7071068286895752,0,0.7071068286895752],"scale":[1.25,1,1],"translation":[-3,0,-1.25]},{"mesh":17,"name":"Wall_Plaster_Window_Wide_Flat.019","rotation":[0,0.7071068286895752,0,0.7071068286895752],"scale":[1.25,1,1],"translation":[3,0,-3.75]},{"mesh":18,"name":"Wall_Plaster_Window_Wide_Round.001","translation":[-2,0,0]},{"mesh":18,"name":"Wall_Plaster_Window_Wide_Round.007","translation":[2,0,0]},{"mesh":19,"name":"Window_Wide_Flat1.012","rotation":[0,-1,0,4.371138828673793e-08],"translation":[0,0,-5]},{"mesh":19,"name":"Window_Wide_Flat1.016","rotation":[0,-0.7071068286895752,0,0.7071068286895752],"scale":[1.25,1,1],"translation":[-3,0,-1.25]},{"mesh":19,"name":"Window_Wide_Flat1.020","rotation":[0,0.7071068286895752,0,0.7071068286895752],"scale":[1.25,1,1],"translation":[3,0,-3.75]},{"mesh":20,"name":"Window_Wide_Round1.002","translation":[-2,0,0]},{"mesh":20,"name":"Window_Wide_Round1.008","translation":[2,0,0]},{"mesh":21,"name":"WindowShutters_Wide_Flat_Open.017","rotation":[0,-0.7071068286895752,0,0.7071068286895752],"scale":[1.25,1,1],"translation":[-3,0,-1.25]},{"mesh":21,"name":"WindowShutters_Wide_Flat_Open.021","rotation":[0,0.7071068286895752,0,0.7071068286895752],"scale":[1.25,1,1],"translation":[3,0,-3.75]},{"mesh":22,"name":"WindowShutters_Wide_Round_Open.003","translation":[-2,0,0]},{"mesh":22,"name":"WindowShutters_Wide_Round_Open.009","translation":[2,0,0]}],"scene":0,"scenes":[{"name":"Scene","nodes":[0,1,2,3,4,5,6,7,8,9,10,11,12,13,14,15,16,17,18,19,20,21,22,23,24,25,26,27,28,29,30,31,32,33,34,35,36]}],"textures":[{"source":0},{"source":1},{"source":2},{"source":3},{"source":4}]}
