{"accessors":[{"bufferView":0,"componentType":5126,"count":240,"max":[0.8425000309944153,1.1050000190734863,0.6049734354019165],"min":[-0.5475000143051147,0.004999995231628418,-0.6149734258651733],"type":"VEC3"},{"bufferView":1,"componentType":5126,"count":240,"type":"VEC3"},{"bufferView":2,"componentType":5126,"count":240,"type":"VEC2"},{"bufferView":3,"componentType":5123,"count":348,"type":"SCALAR"},{"bufferView":4,"componentType":5126,"count":144,"max":[1.0225000381469727,0.6050000190734863,0.12497343122959137],"min":[-0.5475000143051147,0.004999995231628418,-0.6100265979766846],"type":"VEC3"},{"bufferView":5,"componentType":5126,"count":144,"type":"VEC3"},{"bufferView":6,"componentType":5126,"count":144,"type":"VEC2"},{"bufferView":7,"componentType":5123,"count":204,"type":"SCALAR"},{"bufferView":8,"componentType":5126,"count":96,"max":[-0.5724999904632568,0.550000011920929,0.06497342884540558],"min":[-1.0225000381469727,0,-0.3350265920162201],"type":"VEC3"},{"bufferView":9,"componentType":5126,"count":96,"type":"VEC3"},{"bufferView":10,"componentType":5126,"count":96,"type":"VEC2"},{"bufferView":11,"componentType":5123,"count":132,"type":"SCALAR"},{"bufferView":12,"componentType":5126,"count":96,"max":[0.8525000214576721,0.4950000047683716,0.6149734258651733],"min":[0.3525000214576721,0.06499999761581421,0.11497344076633453],"type":"VEC3"},{"bufferView":13,"componentType":5126,"count":96,"type":"VEC3"},{"bufferView":14,"componentType":5126,"count":96,"type":"VEC2"},{"bufferView":15,"componentType":5123,"count":168,"type":"SCALAR"}],"asset":{"generator":"Khronos glTF Blender I/O v5.2.40","version":"2.0"},"bufferViews":[{"buffer":0,"byteLength":2880,"byteOffset":0,"target":34962},{"buffer":0,"byteLength":2880,"byteOffset":2880,"target":34962},{"buffer":0,"byteLength":1920,"byteOffset":5760,"target":34962},{"buffer":0,"byteLength":696,"byteOffset":7680,"target":34963},{"buffer":0,"byteLength":1728,"byteOffset":8376,"target":34962},{"buffer":0,"byteLength":1728,"byteOffset":10104,"target":34962},{"buffer":0,"byteLength":1152,"byteOffset":11832,"target":34962},{"buffer":0,"byteLength":408,"byteOffset":12984,"target":34963},{"buffer":0,"byteLength":1152,"byteOffset":13392,"target":34962},{"buffer":0,"byteLength":1152,"byteOffset":14544,"target":34962},{"buffer":0,"byteLength":768,"byteOffset":15696,"target":34962},{"buffer":0,"byteLength":264,"byteOffset":16464,"target":34963},{"buffer":0,"byteLength":1152,"byteOffset":16728,"target":34962},{"buffer":0,"byteLength":1152,"byteOffset":17880,"target":34962},{"buffer":0,"byteLength":768,"byteOffset":19032,"target":34962},{"buffer":0,"byteLength":336,"byteOffset":19800,"target":34963}],"buffers":[{"byteLength":20136,"uri":"crate_stack.bin"}],"images":[],"materials":[{"doubleSided":true,"name":"Prop_Oak","pbrMetallicRoughness":{"baseColorFactor":[0.3199999928474426,0.17000000178813934,0.07000000029802322,1],"metallicFactor":0,"roughnessFactor":0.8500000238418579}},{"doubleSided":true,"name":"Prop_OakDark","pbrMetallicRoughness":{"baseColorFactor":[0.18000000715255737,0.09000000357627869,0.03500000014901161,1],"metallicFactor":0,"roughnessFactor":0.8500000238418579}},{"doubleSided":true,"name":"Prop_Sack","pbrMetallicRoughness":{"baseColorFactor":[0.550000011920929,0.41999998688697815,0.25,1],"metallicFactor":0}},{"doubleSided":true,"name":"Prop_Iron","pbrMetallicRoughness":{"baseColorFactor":[0.03500000014901161,0.03500000014901161,0.03999999910593033,1],"metallicFactor":0,"roughnessFactor":0.5}}],"meshes":[{"name":"crate_stack","primitives":[{"attributes":{"NORMAL":1,"POSITION":0,"TEXCOORD_0":2},"indices":3,"material":0},{"attributes":{"NORMAL":5,"POSITION":4,"TEXCOORD_0":6},"indices":7,"material":1},{"attributes":{"NORMAL":9,"POSITION":8,"TEXCOORD_0":10},"indices":11,"material":2},{"attributes":{"NORMAL":13,"POSITION":12,"TEXCOORD_0":14},"indices":15,"material":3}]}],"nodes":[{"mesh":0,"name":"crate_stack"}],"scene":0,"scenes":[{"name":"Scene","nodes":[0]}],"textures":[]}
