{"accessors":[{"bufferView":0,"componentType":5126,"count":252,"max":[0.8999999761581421,2.679999828338623,3],"min":[-0.8999999761581421,0,-3],"type":"VEC3"},{"bufferView":1,"componentType":5126,"count":252,"type":"VEC3"},{"bufferView":2,"componentType":5126,"count":252,"type":"VEC2"},{"bufferView":3,"componentType":5123,"count":384,"type":"SCALAR"},{"bufferView":4,"componentType":5126,"count":360,"max":[0.8999999761581421,1.1799999475479126,2.9800000190734863],"min":[-0.8999999761581421,1.1200000047683716,-2.9800000190734863],"type":"VEC3"},{"bufferView":5,"componentType":5126,"count":360,"type":"VEC3"},{"bufferView":6,"componentType":5126,"count":360,"type":"VEC2"},{"bufferView":7,"componentType":5123,"count":540,"type":"SCALAR"},{"bufferView":8,"componentType":5126,"count":96,"max":[0.8949999809265137,1.571650505065918,2.7950000762939453],"min":[0.6050000190734863,1.5283493995666504,2.505000114440918],"type":"VEC3"},{"bufferView":9,"componentType":5126,"count":96,"type":"VEC3"},{"bufferView":10,"componentType":5126,"count":96,"type":"VEC2"},{"bufferView":11,"componentType":5123,"count":144,"type":"SCALAR"},{"bufferView":12,"componentType":5126,"count":24,"max":[-0.6499999761581421,2.929999828338623,2.75],"min":[-0.8500000238418579,2.6700000762939453,2.5500001907348633],"type":"VEC3"},{"bufferView":13,"componentType":5126,"count":24,"type":"VEC3"},{"bufferView":14,"componentType":5126,"count":24,"type":"VEC2"},{"bufferView":15,"componentType":5123,"count":36,"type":"SCALAR"},{"bufferView":16,"componentType":5126,"count":24,"max":[-0.6800000071525574,2.8899998664855957,2.759999990463257],"min":[-0.8199999928474426,2.7100000381469727,2.620000123977661],"type":"VEC3"},{"bufferView":17,"componentType":5126,"count":24,"type":"VEC3"},{"bufferView":18,"componentType":5126,"count":24,"type":"VEC2"}],"asset":{"generator":"Khronos glTF Blender I/O v5.2.40","version":"2.0"},"bufferViews":[{"buffer":0,"byteLength":3024,"byteOffset":0,"target":34962},{"buffer":0,"byteLength":3024,"byteOffset":3024,"target":34962},{"buffer":0,"byteLength":2016,"byteOffset":6048,"target":34962},{"buffer":0,"byteLength":768,"byteOffset":8064,"target":34963},{"buffer":0,"byteLength":4320,"byteOffset":8832,"target":34962},{"buffer":0,"byteLength":4320,"byteOffset":13152,"target":34962},{"buffer":0,"byteLength":2880,"byteOffset":17472,"target":34962},{"buffer":0,"byteLength":1080,"byteOffset":20352,"target":34963},{"buffer":0,"byteLength":1152,"byteOffset":21432,"target":34962},{"buffer":0,"byteLength":1152,"byteOffset":22584,"target":34962},{"buffer":0,"byteLength":768,"byteOffset":23736,"target":34962},{"buffer":0,"byteLength":288,"byteOffset":24504,"target":34963},{"buffer":0,"byteLength":288,"byteOffset":24792,"target":34962},{"buffer":0,"byteLength":288,"byteOffset":25080,"target":34962},{"buffer":0,"byteLength":192,"byteOffset":25368,"target":34962},{"buffer":0,"byteLength":72,"byteOffset":25560,"target":34963},{"buffer":0,"byteLength":288,"byteOffset":25632,"target":34962},{"buffer":0,"byteLength":288,"byteOffset":25920,"target":34962},{"buffer":0,"byteLength":192,"byteOffset":26208,"target":34962}],"buffers":[{"byteLength":26400,"uri":"dock.bin"}],"images":[],"materials":[{"doubleSided":true,"name":"Prop_OakDark","pbrMetallicRoughness":{"baseColorFactor":[0.18000000715255737,0.09000000357627869,0.03500000014901161,1],"metallicFactor":0,"roughnessFactor":0.8500000238418579}},{"doubleSided":true,"name":"Prop_Oak","pbrMetallicRoughness":{"baseColorFactor":[0.3199999928474426,0.17000000178813934,0.07000000029802322,1],"metallicFactor":0,"roughnessFactor":0.8500000238418579}},{"doubleSided":true,"name":"Prop_Sack","pbrMetallicRoughness":{"baseColorFactor":[0.550000011920929,0.41999998688697815,0.25,1],"metallicFactor":0}},{"doubleSided":true,"name":"Prop_Iron","pbrMetallicRoughness":{"baseColorFactor":[0.03500000014901161,0.03500000014901161,0.03999999910593033,1],"metallicFactor":0,"roughnessFactor":0.5}},{"doubleSided":true,"name":"Prop_FlowerYellow","pbrMetallicRoughness":{"baseColorFactor":[0.8500000238418579,0.6000000238418579,0.05000000074505806,1],"metallicFactor":0,"roughnessFactor":0.699999988079071}}],"meshes":[{"name":"dock","primitives":[{"attributes":{"NORMAL":1,"POSITION":0,"TEXCOORD_0":2},"indices":3,"material":0},{"attributes":{"NORMAL":5,"POSITION":4,"TEXCOORD_0":6},"indices":7,"material":1},{"attributes":{"NORMAL":9,"POSITION":8,"TEXCOORD_0":10},"indices":11,"material":2},{"attributes":{"NORMAL":13,"POSITION":12,"TEXCOORD_0":14},"indices":15,"material":3},{"attributes":{"NORMAL":17,"POSITION":16,"TEXCOORD_0":18},"indices":15,"material":4}]}],"nodes":[{"mesh":0,"name":"dock"}],"scene":0,"scenes":[{"name":"Scene","nodes":[0]}],"textures":[]}
