{"accessors":[{"bufferView":0,"componentType":5126,"count":20,"type":"VEC3"},{"bufferView":1,"componentType":5126,"count":20,"max":[4.079999923706055,0.5,0.07999999821186066],"min":[-4.079999923706055,0,-8.079999923706055],"type":"VEC3"},{"bufferView":2,"componentType":5126,"count":20,"type":"VEC2"},{"bufferView":3,"componentType":5123,"count":30,"type":"SCALAR"},{"bufferView":4,"componentType":5126,"count":232,"type":"VEC3"},{"bufferView":5,"componentType":5126,"count":232,"max":[4,9.470000267028809,0.800000011920929],"min":[-4,0,-8],"type":"VEC3"},{"bufferView":6,"componentType":5126,"count":232,"type":"VEC2"},{"bufferView":7,"componentType":5123,"count":336,"type":"SCALAR"},{"bufferView":8,"componentType":5126,"count":3396,"type":"VEC3"},{"bufferView":9,"componentType":5126,"count":3396,"max":[4.199999809265137,7.919473648071289,1.5700000524520874],"min":[-4.199999809265137,0,-8.25],"type":"VEC3"},{"bufferView":10,"componentType":5126,"count":3396,"type":"VEC2"},{"bufferView":11,"componentType":5123,"count":5094,"type":"SCALAR"},{"bufferView":12,"componentType":5126,"count":60,"type":"VEC3"},{"bufferView":13,"componentType":5126,"count":60,"max":[2.880000114440918,10.319999694824219,0.05999999865889549],"min":[-0.3799999952316284,1.055999994277954,-8.0600004196167],"type":"VEC3"},{"bufferView":14,"componentType":5123,"count":90,"type":"SCALAR"},{"bufferView":15,"componentType":5126,"count":528,"type":"VEC3"},{"bufferView":16,"componentType":5126,"count":528,"max":[4.550000190734863,9.640000343322754,1],"min":[-4.550000190734863,2.2939836978912354,-8.5],"type":"VEC3"},{"bufferView":17,"componentType":5126,"count":528,"type":"VEC2"},{"bufferView":18,"componentType":5123,"count":792,"type":"SCALAR"},{"bufferView":19,"componentType":5126,"count":108,"type":"VEC3"},{"bufferView":20,"componentType":5126,"count":108,"max":[4.03000020980835,7.829473495483398,0.5299999713897705],"min":[-4.03000020980835,0.949999988079071,-8.030000686645508],"type":"VEC3"},{"bufferView":21,"componentType":5123,"count":144,"type":"SCALAR"},{"bufferView":22,"componentType":5126,"count":192,"type":"VEC3"},{"bufferView":23,"componentType":5126,"count":192,"max":[4.079999923706055,2.25,0.07999999821186066],"min":[-4.079999923706055,0.949999988079071,-8.079999923706055],"type":"VEC3"},{"bufferView":24,"componentType":5123,"count":288,"type":"SCALAR"},{"bufferView":25,"componentType":5126,"count":32,"type":"VEC3"},{"bufferView":26,"componentType":5126,"count":32,"max":[1.809999942779541,0.9599999785423279,0.4000000059604645],"min":[-1.809999942779541,0.7799999713897705,0.2199999988079071],"type":"VEC3"},{"bufferView":27,"componentType":5123,"count":48,"type":"SCALAR"},{"bufferView":28,"componentType":5126,"count":80,"type":"VEC3"},{"bufferView":29,"componentType":5126,"count":80,"max":[1.806666612625122,1.059999942779541,0.36000001430511475],"min":[-1.806666612625122,0.8999999761581421,0.23999999463558197],"type":"VEC3"},{"bufferView":30,"componentType":5123,"count":120,"type":"SCALAR"},{"bufferView":31,"componentType":5126,"count":40,"type":"VEC3"},{"bufferView":32,"componentType":5126,"count":40,"max":[1.5399999618530273,1.059999942779541,0.36000001430511475],"min":[-1.5399999618530273,0.8999999761581421,0.23999999463558197],"type":"VEC3"},{"bufferView":33,"componentType":5123,"count":60,"type":"SCALAR"},{"bufferView":34,"componentType":5126,"count":44,"type":"VEC3"},{"bufferView":35,"componentType":5126,"count":44,"max":[3.130000114440918,10.0600004196167,-5.869999885559082],"min":[2.2699999809265137,5.900000095367432,-6.730000019073486],"type":"VEC3"},{"bufferView":36,"componentType":5126,"count":44,"type":"VEC2"},{"bufferView":37,"componentType":5123,"count":66,"type":"SCALAR"}],"asset":{"generator":"Khronos glTF Blender I/O v5.2.40","version":"2.0"},"bufferViews":[{"buffer":0,"byteOffset":0,"byteLength":240,"target":34962},{"buffer":0,"byteOffset":240,"byteLength":240,"target":34962},{"buffer":0,"byteOffset":480,"byteLength":160,"target":34962},{"buffer":0,"byteOffset":640,"byteLength":60,"target":34963},{"buffer":0,"byteOffset":700,"byteLength":2784,"target":34962},{"buffer":0,"byteOffset":3484,"byteLength":2784,"target":34962},{"buffer":0,"byteOffset":6268,"byteLength":1856,"target":34962},{"buffer":0,"byteOffset":8124,"byteLength":672,"target":34963},{"buffer":0,"byteOffset":8796,"byteLength":40752,"target":34962},{"buffer":0,"byteOffset":49548,"byteLength":40752,"target":34962},{"buffer":0,"byteOffset":90300,"byteLength":27168,"target":34962},{"buffer":0,"byteOffset":117468,"byteLength":10188,"target":34963},{"buffer":0,"byteOffset":127656,"byteLength":720,"target":34962},{"buffer":0,"byteOffset":128376,"byteLength":720,"target":34962},{"buffer":0,"byteOffset":129096,"byteLength":180,"target":34963},{"buffer":0,"byteOffset":129276,"byteLength":6336,"target":34962},{"buffer":0,"byteOffset":135612,"byteLength":6336,"target":34962},{"buffer":0,"byteOffset":141948,"byteLength":4224,"target":34962},{"buffer":0,"byteOffset":146172,"byteLength":1584,"target":34963},{"buffer":0,"byteOffset":147756,"byteLength":1296,"target":34962},{"buffer":0,"byteOffset":149052,"byteLength":1296,"target":34962},{"buffer":0,"byteOffset":150348,"byteLength":288,"target":34963},{"buffer":0,"byteOffset":150636,"byteLength":2304,"target":34962},{"buffer":0,"byteOffset":152940,"byteLength":2304,"target":34962},{"buffer":0,"byteOffset":155244,"byteLength":576,"target":34963},{"buffer":0,"byteOffset":155820,"byteLength":384,"target":34962},{"buffer":0,"byteOffset":156204,"byteLength":384,"target":34962},{"buffer":0,"byteOffset":156588,"byteLength":96,"target":34963},{"buffer":0,"byteOffset":156684,"byteLength":960,"target":34962},{"buffer":0,"byteOffset":157644,"byteLength":960,"target":34962},{"buffer":0,"byteOffset":158604,"byteLength":240,"target":34963},{"buffer":0,"byteOffset":158844,"byteLength":480,"target":34962},{"buffer":0,"byteOffset":159324,"byteLength":480,"target":34962},{"buffer":0,"byteOffset":159804,"byteLength":120,"target":34963},{"buffer":0,"byteOffset":159924,"byteLength":528,"target":34962},{"buffer":0,"byteOffset":160452,"byteLength":528,"target":34962},{"buffer":0,"byteOffset":160980,"byteLength":352,"target":34962},{"buffer":0,"byteOffset":161332,"byteLength":132,"target":34963}],"buffers":[{"byteLength":161464,"uri":"dormer_house.bin"}],"images":[{"name":"T_Plaster_Luma","uri":"../village/T_Plaster_Luma.png"},{"name":"T_RockTrim_BaseColor","uri":"../village/T_RockTrim_BaseColor.png"},{"name":"T_RoundTiles_Luma","uri":"../village/T_RoundTiles_Luma.png"},{"name":"T_UnevenBrick_BaseColor","uri":"../village/T_UnevenBrick_BaseColor.png"},{"name":"T_WoodTrim_BaseColor","uri":"../village/T_WoodTrim_BaseColor.png"}],"materials":[{"doubleSided":true,"name":"RockTrim","pbrMetallicRoughness":{"baseColorFactor":[1.0,0.9979,1.0,1.0],"baseColorTexture":{"index":1},"metallicFactor":0,"roughnessFactor":0.8500000238418579}},{"doubleSided":true,"name":"HousePlaster","pbrMetallicRoughness":{"baseColorFactor":[0.863,0.4728,0.1434,1.0],"baseColorTexture":{"index":0},"metallicFactor":0,"roughnessFactor":0.8500000238418579}},{"doubleSided":true,"name":"Wood_mid","pbrMetallicRoughness":{"baseColorFactor":[0.5179,0.5489,0.5787,1.0],"baseColorTexture":{"index":4},"metallicFactor":0,"roughnessFactor":0.8500000238418579}},{"doubleSided":true,"name":"Iron","pbrMetallicRoughness":{"baseColorFactor":[0.0134117491543293,0.0134117491543293,0.015325203537940979,1],"metallicFactor":0,"roughnessFactor":0.5}},{"doubleSided":true,"name":"HouseTiles","pbrMetallicRoughness":{"baseColorFactor":[0.3822,0.1486,0.0653,1.0],"baseColorTexture":{"index":2},"metallicFactor":0,"roughnessFactor":0.699999988079071}},{"doubleSided":true,"name":"Glass","pbrMetallicRoughness":{"baseColorFactor":[0.03310476616024971,0.05087608844041824,0.07828831672668457,1],"metallicFactor":0,"roughnessFactor":0.20000000298023224}},{"doubleSided":true,"name":"ShutterPaint","pbrMetallicRoughness":{"baseColorFactor":[0.07323895394802094,0.03310476616024971,0.0134117491543293,1],"metallicFactor":0,"roughnessFactor":0.699999988079071}},{"doubleSided":true,"name":"Leaf","pbrMetallicRoughness":{"baseColorFactor":[0.03310476616024971,0.11928018927574158,0.0134117491543293,1],"metallicFactor":0,"roughnessFactor":0.8999999761581421}},{"doubleSided":true,"name":"Cloth","pbrMetallicRoughness":{"baseColorFactor":[0.34239163994789124,0.03310476616024971,0.021980946883559227,1],"metallicFactor":0,"roughnessFactor":0.8999999761581421}},{"doubleSided":true,"emissiveFactor":[1,0.4479884207248688,0.10048151016235352],"name":"LampGlass","pbrMetallicRoughness":{"baseColorFactor":[1,0.5704815983772278,0.1473190039396286,1],"metallicFactor":0,"roughnessFactor":0.8500000238418579}},{"doubleSided":true,"name":"Stone","pbrMetallicRoughness":{"baseColorFactor":[1.0,0.9974,0.9977,1.0],"baseColorTexture":{"index":3},"metallicFactor":0,"roughnessFactor":0.8500000238418579}}],"meshes":[{"name":"Plinth","primitives":[{"attributes":{"NORMAL":0,"POSITION":1,"TEXCOORD_0":2},"indices":3,"material":0},{"attributes":{"NORMAL":4,"POSITION":5,"TEXCOORD_0":6},"indices":7,"material":1},{"attributes":{"NORMAL":8,"POSITION":9,"TEXCOORD_0":10},"indices":11,"material":2},{"attributes":{"NORMAL":12,"POSITION":13},"indices":14,"material":3},{"attributes":{"NORMAL":15,"POSITION":16,"TEXCOORD_0":17},"indices":18,"material":4},{"attributes":{"NORMAL":19,"POSITION":20},"indices":21,"material":5},{"attributes":{"NORMAL":22,"POSITION":23},"indices":24,"material":6},{"attributes":{"NORMAL":25,"POSITION":26},"indices":27,"material":7},{"attributes":{"NORMAL":28,"POSITION":29},"indices":30,"material":8},{"attributes":{"NORMAL":31,"POSITION":32},"indices":33,"material":9},{"attributes":{"NORMAL":34,"POSITION":35,"TEXCOORD_0":36},"indices":37,"material":10}]}],"nodes":[{"mesh":0,"name":"dormer_house"}],"scene":0,"scenes":[{"name":"Scene","nodes":[0]}],"textures":[{"source":0},{"source":1},{"source":2},{"source":3},{"source":4}]}