{"accessors":[{"bufferView":0,"componentType":5126,"count":78,"max":[1.8276081085205078,0.8970983028411865,0.6691296696662903],"min":[-1.8276081085205078,0,-0.6691296696662903],"type":"VEC3"},{"bufferView":1,"componentType":5126,"count":78,"type":"VEC3"},{"bufferView":2,"componentType":5126,"count":78,"type":"VEC2"},{"bufferView":3,"componentType":5123,"count":132,"type":"SCALAR"},{"bufferView":4,"componentType":5126,"count":96,"max":[1.850123643875122,0.5900001525878906,0.4562225937843323],"min":[-1.850123643875122,0.05000007152557373,-0.6236912608146667],"type":"VEC3"},{"bufferView":5,"componentType":5126,"count":96,"type":"VEC3"},{"bufferView":6,"componentType":5126,"count":96,"type":"VEC2"},{"bufferView":7,"componentType":5123,"count":168,"type":"SCALAR"},{"bufferView":8,"componentType":5126,"count":98,"max":[0.4618362486362457,0.6560001373291016,0.26727861166000366],"min":[-1.261836290359497,0.3840000629425049,-0.34673434495925903],"type":"VEC3"},{"bufferView":9,"componentType":5126,"count":98,"type":"VEC3"},{"bufferView":10,"componentType":5126,"count":98,"type":"VEC2"},{"bufferView":11,"componentType":5123,"count":126,"type":"SCALAR"},{"bufferView":12,"componentType":5126,"count":90,"max":[1.1285316944122314,0.16000007092952728,-0.30946382880210876],"min":[-1.2285317182540894,0.020000070333480835,-0.4137343466281891],"type":"VEC3"},{"bufferView":13,"componentType":5126,"count":90,"type":"VEC3"},{"bufferView":14,"componentType":5126,"count":90,"type":"VEC2"},{"bufferView":15,"componentType":5123,"count":144,"type":"SCALAR"},{"bufferView":16,"componentType":5126,"count":126,"max":[1.1877435445785522,0.22000007331371307,-0.25264713168144226],"min":[-1.2877435684204102,0.16000007092952728,-0.4737343490123749],"type":"VEC3"},{"bufferView":17,"componentType":5126,"count":126,"type":"VEC3"},{"bufferView":18,"componentType":5126,"count":126,"type":"VEC2"},{"bufferView":19,"componentType":5123,"count":216,"type":"SCALAR"}],"asset":{"generator":"Khronos glTF Blender I/O v5.2.40","version":"2.0"},"bufferViews":[{"buffer":0,"byteLength":936,"byteOffset":0,"target":34962},{"buffer":0,"byteLength":936,"byteOffset":936,"target":34962},{"buffer":0,"byteLength":624,"byteOffset":1872,"target":34962},{"buffer":0,"byteLength":264,"byteOffset":2496,"target":34963},{"buffer":0,"byteLength":1152,"byteOffset":2760,"target":34962},{"buffer":0,"byteLength":1152,"byteOffset":3912,"target":34962},{"buffer":0,"byteLength":768,"byteOffset":5064,"target":34962},{"buffer":0,"byteLength":336,"byteOffset":5832,"target":34963},{"buffer":0,"byteLength":1176,"byteOffset":6168,"target":34962},{"buffer":0,"byteLength":1176,"byteOffset":7344,"target":34962},{"buffer":0,"byteLength":784,"byteOffset":8520,"target":34962},{"buffer":0,"byteLength":252,"byteOffset":9304,"target":34963},{"buffer":0,"byteLength":1080,"byteOffset":9556,"target":34962},{"buffer":0,"byteLength":1080,"byteOffset":10636,"target":34962},{"buffer":0,"byteLength":720,"byteOffset":11716,"target":34962},{"buffer":0,"byteLength":288,"byteOffset":12436,"target":34963},{"buffer":0,"byteLength":1512,"byteOffset":12724,"target":34962},{"buffer":0,"byteLength":1512,"byteOffset":14236,"target":34962},{"buffer":0,"byteLength":1008,"byteOffset":15748,"target":34962},{"buffer":0,"byteLength":432,"byteOffset":16756,"target":34963}],"buffers":[{"byteLength":17188,"uri":"fallen_log.bin"}],"images":[],"materials":[{"doubleSided":true,"name":"Prop_Bark","pbrMetallicRoughness":{"baseColorFactor":[0.1599999964237213,0.07999999821186066,0.03500000014901161,1],"metallicFactor":0,"roughnessFactor":0.8999999761581421}},{"doubleSided":true,"name":"Prop_Sack","pbrMetallicRoughness":{"baseColorFactor":[0.550000011920929,0.41999998688697815,0.25,1],"metallicFactor":0}},{"doubleSided":true,"name":"Prop_Moss","pbrMetallicRoughness":{"baseColorFactor":[0.10000000149011612,0.23999999463558197,0.03999999910593033,1],"metallicFactor":0}},{"doubleSided":true,"name":"Prop_FlowerWhite","pbrMetallicRoughness":{"baseColorFactor":[0.8500000238418579,0.8199999928474426,0.75,1],"metallicFactor":0,"roughnessFactor":0.699999988079071}},{"doubleSided":true,"name":"Prop_CapBrown","pbrMetallicRoughness":{"baseColorFactor":[0.4000000059604645,0.2199999988079071,0.09000000357627869,1],"metallicFactor":0,"roughnessFactor":0.800000011920929}}],"meshes":[{"name":"fallen_log","primitives":[{"attributes":{"NORMAL":1,"POSITION":0,"TEXCOORD_0":2},"indices":3,"material":0},{"attributes":{"NORMAL":5,"POSITION":4,"TEXCOORD_0":6},"indices":7,"material":1},{"attributes":{"NORMAL":9,"POSITION":8,"TEXCOORD_0":10},"indices":11,"material":2},{"attributes":{"NORMAL":13,"POSITION":12,"TEXCOORD_0":14},"indices":15,"material":3},{"attributes":{"NORMAL":17,"POSITION":16,"TEXCOORD_0":18},"indices":19,"material":4}]}],"nodes":[{"mesh":0,"name":"fallen_log"}],"scene":0,"scenes":[{"name":"Scene","nodes":[0]}],"textures":[]}
