{"accessors":[{"bufferView":0,"componentType":5126,"count":24,"type":"VEC3"},{"bufferView":1,"componentType":5126,"count":24,"max":[0.10508709400892258,2.999999761581421,0.11982007324695587],"min":[-0.10508733242750168,-1.5052728485898115e-07,-0.11982005089521408],"type":"VEC3"},{"bufferView":2,"componentType":5126,"count":24,"type":"VEC2"},{"bufferView":3,"componentType":5123,"count":36,"type":"SCALAR"},{"bufferView":4,"componentType":5126,"count":24,"type":"VEC3"},{"bufferView":5,"componentType":5126,"count":24,"max":[5.800000190734863,5.3108110427856445,-1.485180377960205],"min":[-5.800000190734863,5.031306743621826,-1.7569334506988525],"type":"VEC3"},{"bufferView":6,"componentType":5123,"count":36,"type":"SCALAR"},{"bufferView":7,"componentType":5126,"count":24,"type":"VEC3"},{"bufferView":8,"componentType":5126,"count":24,"max":[5.800000190734863,3.8516106605529785,-0.11718058586120605],"min":[-5.800000190734863,3.5721070766448975,-0.3889334201812744],"type":"VEC3"},{"bufferView":9,"componentType":5126,"count":24,"type":"VEC3"},{"bufferView":10,"componentType":5126,"count":24,"max":[5.800000190734863,2.8382773399353027,0.8328194618225098],"min":[-5.800000190734863,2.5587735176086426,0.5610666275024414],"type":"VEC3"},{"bufferView":11,"componentType":5126,"count":24,"type":"VEC3"},{"bufferView":12,"componentType":5126,"count":24,"max":[5.800000190734863,5.3108110427856445,-4.24306583404541],"min":[-5.800000190734863,5.031306743621826,-4.514820098876953],"type":"VEC3"},{"bufferView":13,"componentType":5126,"count":24,"type":"VEC3"},{"bufferView":14,"componentType":5126,"count":24,"max":[5.8000006675720215,3.8516106605529785,-5.611065864562988],"min":[-5.799999713897705,3.5721070766448975,-5.882820129394531],"type":"VEC3"},{"bufferView":15,"componentType":5126,"count":24,"type":"VEC3"},{"bufferView":16,"componentType":5126,"count":24,"max":[5.8000006675720215,2.8382773399353027,-6.561066150665283],"min":[-5.799999713897705,2.5587735176086426,-6.832819938659668],"type":"VEC3"},{"bufferView":17,"componentType":5126,"count":664,"type":"VEC3"},{"bufferView":18,"componentType":5126,"count":664,"max":[1.0716030597686768,2.134512424468994,0.05755815654993057],"min":[-0.04626310616731644,0.0352252721786499,-0.05755755677819252],"type":"VEC3"},{"bufferView":19,"componentType":5126,"count":664,"type":"VEC2"},{"bufferView":20,"componentType":5123,"count":996,"type":"SCALAR"},{"bufferView":21,"componentType":5126,"count":601,"type":"VEC3"},{"bufferView":22,"componentType":5126,"count":601,"max":[1.0157819986343384,1.2524888515472412,0.0917586237192154],"min":[0.027867160737514496,0.07330965995788574,-0.10770562291145325],"type":"VEC3"},{"bufferView":23,"componentType":5126,"count":601,"type":"VEC2"},{"bufferView":24,"componentType":5123,"count":1962,"type":"SCALAR"},{"bufferView":25,"componentType":5126,"count":118,"type":"VEC3"},{"bufferView":26,"componentType":5126,"count":118,"max":[0.7877825498580933,2.3037145137786865,0.14516234397888184],"min":[-0.7862095236778259,-0.008544828742742538,-0.24328981339931488],"type":"VEC3"},{"bufferView":27,"componentType":5126,"count":118,"type":"VEC2"},{"bufferView":28,"componentType":5123,"count":168,"type":"SCALAR"},{"bufferView":29,"componentType":5126,"count":6,"type":"VEC3"},{"bufferView":30,"componentType":5126,"count":6,"max":[5,6.570000171661377,2.18556948539117e-07],"min":[-5,3.4200000762939453,-6],"type":"VEC3"},{"bufferView":31,"componentType":5126,"count":6,"type":"VEC2"},{"bufferView":32,"componentType":5123,"count":6,"type":"SCALAR"},{"bufferView":33,"componentType":5126,"count":129,"type":"VEC3"},{"bufferView":34,"componentType":5126,"count":129,"max":[0.4457784593105316,3,0.4940085709095001],"min":[-0.5000000596046448,5.820766091346741e-08,-0.49400854110717773],"type":"VEC3"},{"bufferView":35,"componentType":5126,"count":129,"type":"VEC2"},{"bufferView":36,"componentType":5123,"count":390,"type":"SCALAR"},{"bufferView":37,"componentType":5126,"count":24,"type":"VEC3"},{"bufferView":38,"componentType":5126,"count":24,"max":[5.849999904632568,6.739999771118164,-2.859999656677246],"min":[-5.849999904632568,6.519999980926514,-3.140000343322754],"type":"VEC3"},{"bufferView":39,"componentType":5123,"count":36,"type":"SCALAR"},{"bufferView":40,"componentType":5126,"count":48,"type":"VEC3"},{"bufferView":41,"componentType":5126,"count":48,"max":[5.900000095367432,6.890000343322754,-2.680000066757202],"min":[-5.900000095367432,6.25,-3.319999933242798],"type":"VEC3"},{"bufferView":42,"componentType":5123,"count":84,"type":"SCALAR"},{"bufferView":43,"componentType":5126,"count":24,"type":"VEC3"},{"bufferView":44,"componentType":5126,"count":24,"max":[5.800000190734863,6.619999885559082,0.8000001907348633],"min":[-5.800000190734863,2.2588930130004883,-3.328291893005371],"type":"VEC3"},{"bufferView":45,"componentType":5126,"count":24,"type":"VEC3"},{"bufferView":46,"componentType":5126,"count":24,"max":[5.8000006675720215,6.619999885559082,-2.6717073917388916],"min":[-5.800000190734863,2.2588930130004883,-6.8000006675720215],"type":"VEC3"},{"bufferView":47,"componentType":5126,"count":124,"type":"VEC3"},{"bufferView":48,"componentType":5126,"count":124,"max":[1,3.1226887702941895,0.0924467146396637],"min":[-1.0000001192092896,0.6495776176452637,-0.3140353262424469],"type":"VEC3"},{"bufferView":49,"componentType":5126,"count":124,"type":"VEC2"},{"bufferView":50,"componentType":5123,"count":204,"type":"SCALAR"},{"bufferView":51,"componentType":5126,"count":24,"type":"VEC3"},{"bufferView":52,"componentType":5126,"count":24,"max":[1,3,1.3113415775478643e-07],"min":[-1,0,-0.2000000923871994],"type":"VEC3"},{"bufferView":53,"componentType":5126,"count":24,"type":"VEC2"},{"bufferView":54,"componentType":5123,"count":60,"type":"SCALAR"},{"bufferView":55,"componentType":5126,"count":8,"type":"VEC3"},{"bufferView":56,"componentType":5126,"count":8,"max":[1,0.8799999952316284,4.371138828673793e-08],"min":[-1,0,0],"type":"VEC3"},{"bufferView":57,"componentType":5126,"count":8,"type":"VEC2"},{"bufferView":58,"componentType":5123,"count":12,"type":"SCALAR"},{"bufferView":59,"componentType":5126,"count":126,"type":"VEC3"},{"bufferView":60,"componentType":5126,"count":126,"max":[1,3.1226887702941895,0.0924467146396637],"min":[-1.0000001192092896,-0.0020958781242370605,-0.3140353262424469],"type":"VEC3"},{"bufferView":61,"componentType":5126,"count":126,"type":"VEC2"},{"bufferView":62,"componentType":5123,"count":240,"type":"SCALAR"},{"bufferView":63,"componentType":5126,"count":12,"type":"VEC3"},{"bufferView":64,"componentType":5126,"count":12,"max":[1,3,1.3113415775478643e-07],"min":[-1,0,-0.2000000923871994],"type":"VEC3"},{"bufferView":65,"componentType":5126,"count":12,"type":"VEC2"},{"bufferView":66,"componentType":5123,"count":18,"type":"SCALAR"},{"bufferView":67,"componentType":5126,"count":32,"type":"VEC3"},{"bufferView":68,"componentType":5126,"count":32,"max":[1,3,1.3113417196564114e-07],"min":[-1,0,-0.2000000923871994],"type":"VEC3"},{"bufferView":69,"componentType":5126,"count":32,"type":"VEC2"},{"bufferView":70,"componentType":5123,"count":96,"type":"SCALAR"},{"bufferView":71,"componentType":5126,"count":8,"type":"VEC3"},{"bufferView":72,"componentType":5126,"count":8,"max":[1,0.8799999952316284,4.371138828673793e-08],"min":[-1,0,0],"type":"VEC3"},{"bufferView":73,"componentType":5126,"count":8,"type":"VEC2"},{"bufferView":74,"componentType":5123,"count":18,"type":"SCALAR"},{"bufferView":75,"componentType":5126,"count":80,"type":"VEC3"},{"bufferView":76,"componentType":5126,"count":80,"max":[1,3.1226887702941895,0.0924467146396637],"min":[-1.0000001192092896,0.6495776176452637,-0.3140353262424469],"type":"VEC3"},{"bufferView":77,"componentType":5126,"count":80,"type":"VEC2"},{"bufferView":78,"componentType":5123,"count":174,"type":"SCALAR"},{"bufferView":79,"componentType":5126,"count":389,"type":"VEC3"},{"bufferView":80,"componentType":5126,"count":389,"max":[1.000000238418579,3.1226887702941895,0.0924467146396637],"min":[-1.000000238418579,0.6495776176452637,-0.3140353262424469],"type":"VEC3"},{"bufferView":81,"componentType":5126,"count":389,"type":"VEC2"},{"bufferView":82,"componentType":5123,"count":732,"type":"SCALAR"},{"bufferView":83,"componentType":5126,"count":8,"type":"VEC3"},{"bufferView":84,"componentType":5126,"count":8,"max":[1,0.8360880613327026,5.960464477539063e-08],"min":[-1,0,-0.2000001072883606],"type":"VEC3"},{"bufferView":85,"componentType":5126,"count":8,"type":"VEC2"},{"bufferView":86,"componentType":5123,"count":12,"type":"SCALAR"},{"bufferView":87,"componentType":5126,"count":272,"type":"VEC3"},{"bufferView":88,"componentType":5126,"count":272,"max":[0.8041172027587891,2.5242888927459717,0.4168574810028076],"min":[-0.8041191101074219,0.94417804479599,-0.26658084988594055],"type":"VEC3"},{"bufferView":89,"componentType":5126,"count":272,"type":"VEC2"},{"bufferView":90,"componentType":5123,"count":408,"type":"SCALAR"},{"bufferView":91,"componentType":5126,"count":45,"type":"VEC3"},{"bufferView":92,"componentType":5126,"count":45,"max":[0.5054702758789062,2.355356216430664,0.003888234496116638],"min":[-0.5054721832275391,1.0971393585205078,0.0038878247141838074],"type":"VEC3"},{"bufferView":93,"componentType":5123,"count":72,"type":"SCALAR"},{"bufferView":94,"componentType":5126,"count":240,"type":"VEC3"},{"bufferView":95,"componentType":5126,"count":240,"max":[1.2418603897094727,2.51727557182312,0.5931743383407593],"min":[-1.2387090921401978,1.0932440757751465,0.13665564358234406],"type":"VEC3"},{"bufferView":96,"componentType":5126,"count":240,"type":"VEC2"},{"bufferView":97,"componentType":5123,"count":360,"type":"SCALAR"}],"asset":{"generator":"Khronos glTF Blender I/O v5.2.40","version":"2.0"},"bufferViews":[{"buffer":0,"byteOffset":0,"byteLength":288,"target":34962},{"buffer":0,"byteOffset":288,"byteLength":288,"target":34962},{"buffer":0,"byteOffset":576,"byteLength":192,"target":34962},{"buffer":0,"byteOffset":768,"byteLength":72,"target":34963},{"buffer":0,"byteOffset":840,"byteLength":288,"target":34962},{"buffer":0,"byteOffset":1128,"byteLength":288,"target":34962},{"buffer":0,"byteOffset":1416,"byteLength":72,"target":34963},{"buffer":0,"byteOffset":1488,"byteLength":288,"target":34962},{"buffer":0,"byteOffset":1776,"byteLength":288,"target":34962},{"buffer":0,"byteOffset":2064,"byteLength":288,"target":34962},{"buffer":0,"byteOffset":2352,"byteLength":288,"target":34962},{"buffer":0,"byteOffset":2640,"byteLength":288,"target":34962},{"buffer":0,"byteOffset":2928,"byteLength":288,"target":34962},{"buffer":0,"byteOffset":3216,"byteLength":288,"target":34962},{"buffer":0,"byteOffset":3504,"byteLength":288,"target":34962},{"buffer":0,"byteOffset":3792,"byteLength":288,"target":34962},{"buffer":0,"byteOffset":4080,"byteLength":288,"target":34962},{"buffer":0,"byteOffset":4368,"byteLength":7968,"target":34962},{"buffer":0,"byteOffset":12336,"byteLength":7968,"target":34962},{"buffer":0,"byteOffset":20304,"byteLength":5312,"target":34962},{"buffer":0,"byteOffset":25616,"byteLength":1992,"target":34963},{"buffer":0,"byteOffset":27608,"byteLength":7212,"target":34962},{"buffer":0,"byteOffset":34820,"byteLength":7212,"target":34962},{"buffer":0,"byteOffset":42032,"byteLength":4808,"target":34962},{"buffer":0,"byteOffset":46840,"byteLength":3924,"target":34963},{"buffer":0,"byteOffset":50764,"byteLength":1416,"target":34962},{"buffer":0,"byteOffset":52180,"byteLength":1416,"target":34962},{"buffer":0,"byteOffset":53596,"byteLength":944,"target":34962},{"buffer":0,"byteOffset":54540,"byteLength":336,"target":34963},{"buffer":0,"byteOffset":54876,"byteLength":72,"target":34962},{"buffer":0,"byteOffset":54948,"byteLength":72,"target":34962},{"buffer":0,"byteOffset":55020,"byteLength":48,"target":34962},{"buffer":0,"byteOffset":55068,"byteLength":12,"target":34963},{"buffer":0,"byteOffset":55080,"byteLength":1548,"target":34962},{"buffer":0,"byteOffset":56628,"byteLength":1548,"target":34962},{"buffer":0,"byteOffset":58176,"byteLength":1032,"target":34962},{"buffer":0,"byteOffset":59208,"byteLength":780,"target":34963},{"buffer":0,"byteOffset":59988,"byteLength":288,"target":34962},{"buffer":0,"byteOffset":60276,"byteLength":288,"target":34962},{"buffer":0,"byteOffset":60564,"byteLength":72,"target":34963},{"buffer":0,"byteOffset":60636,"byteLength":576,"target":34962},{"buffer":0,"byteOffset":61212,"byteLength":576,"target":34962},{"buffer":0,"byteOffset":61788,"byteLength":168,"target":34963},{"buffer":0,"byteOffset":61956,"byteLength":288,"target":34962},{"buffer":0,"byteOffset":62244,"byteLength":288,"target":34962},{"buffer":0,"byteOffset":62532,"byteLength":288,"target":34962},{"buffer":0,"byteOffset":62820,"byteLength":288,"target":34962},{"buffer":0,"byteOffset":63108,"byteLength":1488,"target":34962},{"buffer":0,"byteOffset":64596,"byteLength":1488,"target":34962},{"buffer":0,"byteOffset":66084,"byteLength":992,"target":34962},{"buffer":0,"byteOffset":67076,"byteLength":408,"target":34963},{"buffer":0,"byteOffset":67484,"byteLength":288,"target":34962},{"buffer":0,"byteOffset":67772,"byteLength":288,"target":34962},{"buffer":0,"byteOffset":68060,"byteLength":192,"target":34962},{"buffer":0,"byteOffset":68252,"byteLength":120,"target":34963},{"buffer":0,"byteOffset":68372,"byteLength":96,"target":34962},{"buffer":0,"byteOffset":68468,"byteLength":96,"target":34962},{"buffer":0,"byteOffset":68564,"byteLength":64,"target":34962},{"buffer":0,"byteOffset":68628,"byteLength":24,"target":34963},{"buffer":0,"byteOffset":68652,"byteLength":1512,"target":34962},{"buffer":0,"byteOffset":70164,"byteLength":1512,"target":34962},{"buffer":0,"byteOffset":71676,"byteLength":1008,"target":34962},{"buffer":0,"byteOffset":72684,"byteLength":480,"target":34963},{"buffer":0,"byteOffset":73164,"byteLength":144,"target":34962},{"buffer":0,"byteOffset":73308,"byteLength":144,"target":34962},{"buffer":0,"byteOffset":73452,"byteLength":96,"target":34962},{"buffer":0,"byteOffset":73548,"byteLength":36,"target":34963},{"buffer":0,"byteOffset":73584,"byteLength":384,"target":34962},{"buffer":0,"byteOffset":73968,"byteLength":384,"target":34962},{"buffer":0,"byteOffset":74352,"byteLength":256,"target":34962},{"buffer":0,"byteOffset":74608,"byteLength":192,"target":34963},{"buffer":0,"byteOffset":74800,"byteLength":96,"target":34962},{"buffer":0,"byteOffset":74896,"byteLength":96,"target":34962},{"buffer":0,"byteOffset":74992,"byteLength":64,"target":34962},{"buffer":0,"byteOffset":75056,"byteLength":36,"target":34963},{"buffer":0,"byteOffset":75092,"byteLength":960,"target":34962},{"buffer":0,"byteOffset":76052,"byteLength":960,"target":34962},{"buffer":0,"byteOffset":77012,"byteLength":640,"target":34962},{"buffer":0,"byteOffset":77652,"byteLength":348,"target":34963},{"buffer":0,"byteOffset":78000,"byteLength":4668,"target":34962},{"buffer":0,"byteOffset":82668,"byteLength":4668,"target":34962},{"buffer":0,"byteOffset":87336,"byteLength":3112,"target":34962},{"buffer":0,"byteOffset":90448,"byteLength":1464,"target":34963},{"buffer":0,"byteOffset":91912,"byteLength":96,"target":34962},{"buffer":0,"byteOffset":92008,"byteLength":96,"target":34962},{"buffer":0,"byteOffset":92104,"byteLength":64,"target":34962},{"buffer":0,"byteOffset":92168,"byteLength":24,"target":34963},{"buffer":0,"byteOffset":92192,"byteLength":3264,"target":34962},{"buffer":0,"byteOffset":95456,"byteLength":3264,"target":34962},{"buffer":0,"byteOffset":98720,"byteLength":2176,"target":34962},{"buffer":0,"byteOffset":100896,"byteLength":816,"target":34963},{"buffer":0,"byteOffset":101712,"byteLength":540,"target":34962},{"buffer":0,"byteOffset":102252,"byteLength":540,"target":34962},{"buffer":0,"byteOffset":102792,"byteLength":144,"target":34963},{"buffer":0,"byteOffset":102936,"byteLength":2880,"target":34962},{"buffer":0,"byteOffset":105816,"byteLength":2880,"target":34962},{"buffer":0,"byteOffset":108696,"byteLength":1920,"target":34962},{"buffer":0,"byteOffset":110616,"byteLength":720,"target":34963}],"buffers":[{"byteLength":111336,"uri":"farmhouse.bin"}],"images":[{"name":"T_Brick_BaseColor","uri":"../village/T_Brick_BaseColor.png"},{"name":"T_MetalOrnaments_BaseColor","uri":"../village/T_MetalOrnaments_BaseColor.png"},{"name":"T_Plaster_Luma","uri":"../village/T_Plaster_Luma.png"},{"name":"T_RockTrim_BaseColor","uri":"../village/T_RockTrim_BaseColor.png"},{"name":"T_UnevenBrick_BaseColor","uri":"../village/T_UnevenBrick_BaseColor.png"},{"name":"T_WoodTrim_BaseColor","uri":"../village/T_WoodTrim_BaseColor.png"}],"materials":[{"doubleSided":true,"name":"Wood_dark","pbrMetallicRoughness":{"baseColorFactor":[0.2329,0.2659,0.2944,1.0],"baseColorTexture":{"index":5},"metallicFactor":0,"roughnessFactor":0.8500000238418579}},{"doubleSided":true,"name":"ThatchDark","pbrMetallicRoughness":{"baseColorFactor":[0.21404114365577698,0.11928018927574158,0.027211781591176987,1],"metallicFactor":0}},{"doubleSided":true,"name":"Metal","pbrMetallicRoughness":{"baseColorFactor":[1.0,0.9972,0.9945,1.0],"baseColorTexture":{"index":1},"metallicFactor":0,"roughnessFactor":0.5}},{"doubleSided":true,"name":"Plaster_white","pbrMetallicRoughness":{"baseColorFactor":[1.0,1.0,0.9092,1.0],"baseColorTexture":{"index":2},"metallicFactor":0,"roughnessFactor":0.8500000238418579}},{"doubleSided":true,"name":"Stone","pbrMetallicRoughness":{"baseColorFactor":[1.0,0.9974,0.9977,1.0],"baseColorTexture":{"index":4},"metallicFactor":0,"roughnessFactor":0.8500000238418579}},{"doubleSided":true,"name":"Thatch","pbrMetallicRoughness":{"baseColorFactor":[0.3931231200695038,0.23302200436592102,0.059253521263599396,1],"metallicFactor":0}},{"doubleSided":true,"name":"RockTrim","pbrMetallicRoughness":{"baseColorFactor":[1.0,0.9979,1.0,1.0],"baseColorTexture":{"index":3},"metallicFactor":0,"roughnessFactor":0.8500000238418579}},{"doubleSided":true,"name":"Brick","pbrMetallicRoughness":{"baseColorFactor":[1.0,0.9974,1.0,1.0],"baseColorTexture":{"index":0},"metallicFactor":0,"roughnessFactor":0.8500000238418579}},{"doubleSided":true,"name":"Glass","pbrMetallicRoughness":{"baseColorFactor":[0.03310476616024971,0.05087608844041824,0.07828831672668457,1],"metallicFactor":0,"roughnessFactor":0.20000000298023224}}],"meshes":[{"name":"kit_Corner_Exterior_Wood","primitives":[{"attributes":{"NORMAL":0,"POSITION":1,"TEXCOORD_0":2},"indices":3,"material":0}]},{"name":"Course","primitives":[{"attributes":{"NORMAL":4,"POSITION":5},"indices":6,"material":1}]},{"name":"Course.001","primitives":[{"attributes":{"NORMAL":7,"POSITION":8},"indices":6,"material":1}]},{"name":"Course.002","primitives":[{"attributes":{"NORMAL":9,"POSITION":10},"indices":6,"material":1}]},{"name":"Course.003","primitives":[{"attributes":{"NORMAL":11,"POSITION":12},"indices":6,"material":1}]},{"name":"Course.004","primitives":[{"attributes":{"NORMAL":13,"POSITION":14},"indices":6,"material":1}]},{"name":"Course.005","primitives":[{"attributes":{"NORMAL":15,"POSITION":16},"indices":6,"material":1}]},{"name":"kit_Door_8_Flat","primitives":[{"attributes":{"NORMAL":17,"POSITION":18,"TEXCOORD_0":19},"indices":20,"material":0},{"attributes":{"NORMAL":21,"POSITION":22,"TEXCOORD_0":23},"indices":24,"material":2}]},{"name":"kit_DoorFrame_Flat_WoodDark","primitives":[{"attributes":{"NORMAL":25,"POSITION":26,"TEXCOORD_0":27},"indices":28,"material":0}]},{"name":"Gable","primitives":[{"attributes":{"NORMAL":29,"POSITION":30,"TEXCOORD_0":31},"indices":32,"material":3}]},{"name":"kit_Prop_Chimney2","primitives":[{"attributes":{"NORMAL":33,"POSITION":34,"TEXCOORD_0":35},"indices":36,"material":4}]},{"name":"Ridge","primitives":[{"attributes":{"NORMAL":37,"POSITION":38},"indices":39,"material":1}]},{"name":"RidgeRoll","primitives":[{"attributes":{"NORMAL":40,"POSITION":41},"indices":42,"material":1}]},{"name":"RoofSlab","primitives":[{"attributes":{"NORMAL":43,"POSITION":44},"indices":6,"material":5}]},{"name":"RoofSlab.001","primitives":[{"attributes":{"NORMAL":45,"POSITION":46},"indices":6,"material":5}]},{"name":"kit_Wall_Plaster_Door_Flat","primitives":[{"attributes":{"NORMAL":47,"POSITION":48,"TEXCOORD_0":49},"indices":50,"material":0},{"attributes":{"NORMAL":51,"POSITION":52,"TEXCOORD_0":53},"indices":54,"material":3},{"attributes":{"NORMAL":55,"POSITION":56,"TEXCOORD_0":57},"indices":58,"material":6}]},{"name":"kit_Wall_Plaster_Straight","primitives":[{"attributes":{"NORMAL":59,"POSITION":60,"TEXCOORD_0":61},"indices":62,"material":0},{"attributes":{"NORMAL":63,"POSITION":64,"TEXCOORD_0":65},"indices":66,"material":3}]},{"name":"kit_Wall_Plaster_Window_Wide_Flat","primitives":[{"attributes":{"NORMAL":67,"POSITION":68,"TEXCOORD_0":69},"indices":70,"material":3},{"attributes":{"NORMAL":71,"POSITION":72,"TEXCOORD_0":73},"indices":74,"material":7},{"attributes":{"NORMAL":75,"POSITION":76,"TEXCOORD_0":77},"indices":78,"material":0}]},{"name":"kit_Wall_Plaster_WoodGrid","primitives":[{"attributes":{"NORMAL":79,"POSITION":80,"TEXCOORD_0":81},"indices":82,"material":0},{"attributes":{"NORMAL":83,"POSITION":84,"TEXCOORD_0":85},"indices":86,"material":3}]},{"name":"kit_Window_Wide_Flat1","primitives":[{"attributes":{"NORMAL":87,"POSITION":88,"TEXCOORD_0":89},"indices":90,"material":0},{"attributes":{"NORMAL":91,"POSITION":92},"indices":93,"material":8}]},{"name":"kit_WindowShutters_Wide_Flat_Open","primitives":[{"attributes":{"NORMAL":94,"POSITION":95,"TEXCOORD_0":96},"indices":97,"material":0}]}],"nodes":[{"mesh":0,"name":"Corner_Exterior_Wood.029","translation":[-5,0,0]},{"mesh":0,"name":"Corner_Exterior_Wood.030","translation":[5,0,0]},{"mesh":0,"name":"Corner_Exterior_Wood.031","translation":[-5,0,-6]},{"mesh":0,"name":"Corner_Exterior_Wood.032","translation":[5,0,-6]},{"mesh":1,"name":"Course.034"},{"mesh":2,"name":"Course.035"},{"mesh":3,"name":"Course.036"},{"mesh":4,"name":"Course.038"},{"mesh":5,"name":"Course.039"},{"mesh":6,"name":"Course.040"},{"mesh":7,"name":"Door_8_Flat.007","translation":[-0.550000011920929,0,-0.019999999552965164]},{"mesh":8,"name":"DoorFrame_Flat_WoodDark.006"},{"mesh":9,"name":"Gable.041"},{"mesh":10,"name":"Prop_Chimney2.044","translation":[3.5999999046325684,3.979999542236328,-3.5999999046325684]},{"mesh":11,"name":"Ridge.042"},{"mesh":12,"name":"RidgeRoll.043"},{"mesh":13,"name":"RoofSlab.033"},{"mesh":14,"name":"RoofSlab.037"},{"mesh":15,"name":"Wall_Plaster_Door_Flat.005"},{"mesh":16,"name":"Wall_Plaster_Straight.013","rotation":[0,-1,0,4.371138828673793e-08],"translation":[2,0,-6]},{"mesh":16,"name":"Wall_Plaster_Straight.017","rotation":[0,-1,0,4.371138828673793e-08],"translation":[-2,0,-6]},{"mesh":17,"name":"Wall_Plaster_Window_Wide_Flat.002","translation":[-2,0,0]},{"mesh":17,"name":"Wall_Plaster_Window_Wide_Flat.008","translation":[2,0,0]},{"mesh":17,"name":"Wall_Plaster_Window_Wide_Flat.014","rotation":[0,-1,0,4.371138828673793e-08],"translation":[0,0,-6]},{"mesh":17,"name":"Wall_Plaster_Window_Wide_Flat.020","rotation":[0,-0.7071068286895752,0,0.7071068286895752],"translation":[-5,0,-3]},{"mesh":17,"name":"Wall_Plaster_Window_Wide_Flat.025","rotation":[0,0.7071068286895752,0,0.7071068286895752],"translation":[5,0,-3]},{"mesh":18,"name":"Wall_Plaster_WoodGrid.001","translation":[-4,0,0]},{"mesh":18,"name":"Wall_Plaster_WoodGrid.011","translation":[4,0,0]},{"mesh":18,"name":"Wall_Plaster_WoodGrid.012","rotation":[0,-1,0,4.371138828673793e-08],"translation":[4,0,-6]},{"mesh":18,"name":"Wall_Plaster_WoodGrid.018","rotation":[0,-1,0,4.371138828673793e-08],"translation":[-4,0,-6]},{"mesh":18,"name":"Wall_Plaster_WoodGrid.019","rotation":[0,-0.7071068286895752,0,0.7071068286895752],"translation":[-5,0,-5]},{"mesh":18,"name":"Wall_Plaster_WoodGrid.023","rotation":[0,-0.7071068286895752,0,0.7071068286895752],"translation":[-5,0,-1]},{"mesh":18,"name":"Wall_Plaster_WoodGrid.024","rotation":[0,0.7071068286895752,0,0.7071068286895752],"translation":[5,0,-1]},{"mesh":18,"name":"Wall_Plaster_WoodGrid.028","rotation":[0,0.7071068286895752,0,0.7071068286895752],"translation":[5,0,-5]},{"mesh":19,"name":"Window_Wide_Flat1.003","translation":[-2,0,0]},{"mesh":19,"name":"Window_Wide_Flat1.009","translation":[2,0,0]},{"mesh":19,"name":"Window_Wide_Flat1.015","rotation":[0,-1,0,4.371138828673793e-08],"translation":[0,0,-6]},{"mesh":19,"name":"Window_Wide_Flat1.021","rotation":[0,-0.7071068286895752,0,0.7071068286895752],"translation":[-5,0,-3]},{"mesh":19,"name":"Window_Wide_Flat1.026","rotation":[0,0.7071068286895752,0,0.7071068286895752],"translation":[5,0,-3]},{"mesh":20,"name":"WindowShutters_Wide_Flat_Open.004","translation":[-2,0,0]},{"mesh":20,"name":"WindowShutters_Wide_Flat_Open.010","translation":[2,0,0]},{"mesh":20,"name":"WindowShutters_Wide_Flat_Open.016","rotation":[0,-1,0,4.371138828673793e-08],"translation":[0,0,-6]},{"mesh":20,"name":"WindowShutters_Wide_Flat_Open.022","rotation":[0,-0.7071068286895752,0,0.7071068286895752],"translation":[-5,0,-3]},{"mesh":20,"name":"WindowShutters_Wide_Flat_Open.027","rotation":[0,0.7071068286895752,0,0.7071068286895752],"translation":[5,0,-3]}],"scene":0,"scenes":[{"name":"Scene","nodes":[0,1,2,3,4,5,6,7,8,9,10,11,12,13,14,15,16,17,18,19,20,21,22,23,24,25,26,27,28,29,30,31,32,33,34,35,36,37,38,39,40,41,42,43]}],"textures":[{"source":0},{"source":1},{"source":2},{"source":3},{"source":4},{"source":5}]}