{"accessors":[{"bufferView":0,"componentType":5126,"count":200,"max":[0.5064858794212341,0.5873854756355286,0.09895694255828857],"min":[-0.5503673553466797,0.4245356619358063,-0.041344836354255676],"type":"VEC3"},{"bufferView":1,"componentType":5126,"count":200,"type":"VEC3"},{"bufferView":2,"componentType":5126,"count":200,"type":"VEC2"},{"bufferView":3,"componentType":5123,"count":240,"type":"SCALAR"},{"bufferView":4,"componentType":5126,"count":96,"max":[0.6000000238418579,0.3199999928474426,0.20000000298023224],"min":[-0.6000000238418579,0,-0.20000000298023224],"type":"VEC3"},{"bufferView":5,"componentType":5126,"count":96,"type":"VEC3"},{"bufferView":6,"componentType":5126,"count":96,"type":"VEC2"},{"bufferView":7,"componentType":5123,"count":132,"type":"SCALAR"},{"bufferView":8,"componentType":5126,"count":24,"max":[0.5600000023841858,0.3199999928474426,0.1599999964237213],"min":[-0.5600000023841858,0.30000001192092896,-0.1599999964237213],"type":"VEC3"},{"bufferView":9,"componentType":5126,"count":24,"type":"VEC3"},{"bufferView":10,"componentType":5126,"count":24,"type":"VEC2"},{"bufferView":11,"componentType":5123,"count":36,"type":"SCALAR"},{"bufferView":12,"componentType":5126,"count":540,"max":[0.5625,0.46799999475479126,0.16780957579612732],"min":[-0.5625,0.2919999957084656,-0.10759926587343216],"type":"VEC3"},{"bufferView":13,"componentType":5126,"count":540,"type":"VEC3"},{"bufferView":14,"componentType":5126,"count":540,"type":"VEC2"},{"bufferView":15,"componentType":5123,"count":648,"type":"SCALAR"},{"bufferView":16,"componentType":5126,"count":100,"max":[0.2832191586494446,0.5888127684593201,0.110447958111763],"min":[-0.40726542472839355,0.4382844567298889,-0.06429799646139145],"type":"VEC3"},{"bufferView":17,"componentType":5126,"count":100,"type":"VEC3"},{"bufferView":18,"componentType":5126,"count":100,"type":"VEC2"},{"bufferView":19,"componentType":5123,"count":120,"type":"SCALAR"},{"bufferView":20,"componentType":5126,"count":100,"max":[0.43092644214630127,0.5544804334640503,0.1145845353603363],"min":[-0.2889721989631653,0.4218747913837433,0.01875864714384079],"type":"VEC3"},{"bufferView":21,"componentType":5126,"count":100,"type":"VEC3"},{"bufferView":22,"componentType":5126,"count":100,"type":"VEC2"},{"bufferView":23,"componentType":5126,"count":50,"max":[0.06902947276830673,0.546190083026886,0.0541146881878376],"min":[-0.02980721741914749,0.4261901080608368,-0.039884597063064575],"type":"VEC3"},{"bufferView":24,"componentType":5126,"count":50,"type":"VEC3"},{"bufferView":25,"componentType":5126,"count":50,"type":"VEC2"},{"bufferView":26,"componentType":5123,"count":60,"type":"SCALAR"}],"asset":{"generator":"Khronos glTF Blender I/O v5.2.40","version":"2.0"},"bufferViews":[{"buffer":0,"byteLength":2400,"byteOffset":0,"target":34962},{"buffer":0,"byteLength":2400,"byteOffset":2400,"target":34962},{"buffer":0,"byteLength":1600,"byteOffset":4800,"target":34962},{"buffer":0,"byteLength":480,"byteOffset":6400,"target":34963},{"buffer":0,"byteLength":1152,"byteOffset":6880,"target":34962},{"buffer":0,"byteLength":1152,"byteOffset":8032,"target":34962},{"buffer":0,"byteLength":768,"byteOffset":9184,"target":34962},{"buffer":0,"byteLength":264,"byteOffset":9952,"target":34963},{"buffer":0,"byteLength":288,"byteOffset":10216,"target":34962},{"buffer":0,"byteLength":288,"byteOffset":10504,"target":34962},{"buffer":0,"byteLength":192,"byteOffset":10792,"target":34962},{"buffer":0,"byteLength":72,"byteOffset":10984,"target":34963},{"buffer":0,"byteLength":6480,"byteOffset":11056,"target":34962},{"buffer":0,"byteLength":6480,"byteOffset":17536,"target":34962},{"buffer":0,"byteLength":4320,"byteOffset":24016,"target":34962},{"buffer":0,"byteLength":1296,"byteOffset":28336,"target":34963},{"buffer":0,"byteLength":1200,"byteOffset":29632,"target":34962},{"buffer":0,"byteLength":1200,"byteOffset":30832,"target":34962},{"buffer":0,"byteLength":800,"byteOffset":32032,"target":34962},{"buffer":0,"byteLength":240,"byteOffset":32832,"target":34963},{"buffer":0,"byteLength":1200,"byteOffset":33072,"target":34962},{"buffer":0,"byteLength":1200,"byteOffset":34272,"target":34962},{"buffer":0,"byteLength":800,"byteOffset":35472,"target":34962},{"buffer":0,"byteLength":600,"byteOffset":36272,"target":34962},{"buffer":0,"byteLength":600,"byteOffset":36872,"target":34962},{"buffer":0,"byteLength":400,"byteOffset":37472,"target":34962},{"buffer":0,"byteLength":120,"byteOffset":37872,"target":34963}],"buffers":[{"byteLength":37992,"uri":"flower_box.bin"}],"images":[],"materials":[{"doubleSided":true,"name":"Prop_FlowerRed","pbrMetallicRoughness":{"baseColorFactor":[0.699999988079071,0.05000000074505806,0.05000000074505806,1],"metallicFactor":0,"roughnessFactor":0.699999988079071}},{"doubleSided":true,"name":"Prop_Oak","pbrMetallicRoughness":{"baseColorFactor":[0.3199999928474426,0.17000000178813934,0.07000000029802322,1],"metallicFactor":0,"roughnessFactor":0.8500000238418579}},{"doubleSided":true,"name":"Prop_OakDark","pbrMetallicRoughness":{"baseColorFactor":[0.18000000715255737,0.09000000357627869,0.03500000014901161,1],"metallicFactor":0,"roughnessFactor":0.8500000238418579}},{"doubleSided":true,"name":"Prop_Leaf","pbrMetallicRoughness":{"baseColorFactor":[0.07000000029802322,0.20000000298023224,0.03999999910593033,1],"metallicFactor":0,"roughnessFactor":0.8999999761581421}},{"doubleSided":true,"name":"Prop_FlowerYellow","pbrMetallicRoughness":{"baseColorFactor":[0.8500000238418579,0.6000000238418579,0.05000000074505806,1],"metallicFactor":0,"roughnessFactor":0.699999988079071}},{"doubleSided":true,"name":"Prop_FlowerViolet","pbrMetallicRoughness":{"baseColorFactor":[0.3199999928474426,0.11999999731779099,0.6000000238418579,1],"metallicFactor":0,"roughnessFactor":0.699999988079071}},{"doubleSided":true,"name":"Prop_FlowerWhite","pbrMetallicRoughness":{"baseColorFactor":[0.8500000238418579,0.8199999928474426,0.75,1],"metallicFactor":0,"roughnessFactor":0.699999988079071}}],"meshes":[{"name":"flower_box","primitives":[{"attributes":{"NORMAL":1,"POSITION":0,"TEXCOORD_0":2},"indices":3,"material":0},{"attributes":{"NORMAL":5,"POSITION":4,"TEXCOORD_0":6},"indices":7,"material":1},{"attributes":{"NORMAL":9,"POSITION":8,"TEXCOORD_0":10},"indices":11,"material":2},{"attributes":{"NORMAL":13,"POSITION":12,"TEXCOORD_0":14},"indices":15,"material":3},{"attributes":{"NORMAL":17,"POSITION":16,"TEXCOORD_0":18},"indices":19,"material":4},{"attributes":{"NORMAL":21,"POSITION":20,"TEXCOORD_0":22},"indices":19,"material":5},{"attributes":{"NORMAL":24,"POSITION":23,"TEXCOORD_0":25},"indices":26,"material":6}]}],"nodes":[{"mesh":0,"name":"flower_box"}],"scene":0,"scenes":[{"name":"Scene","nodes":[0]}],"textures":[]}
