{"accessors":[{"bufferView":0,"componentType":5126,"count":150,"max":[0.5247495770454407,0.385079562664032,0.3455409109592438],"min":[-0.8246526718139648,0.2401582896709442,0.24370837211608887],"type":"VEC3"},{"bufferView":1,"componentType":5126,"count":150,"type":"VEC3"},{"bufferView":2,"componentType":5126,"count":150,"type":"VEC2"},{"bufferView":3,"componentType":5123,"count":180,"type":"SCALAR"},{"bufferView":4,"componentType":5126,"count":96,"max":[1,0.18000000715255737,0.5400000214576721],"min":[-1,0,-0.5400000214576721],"type":"VEC3"},{"bufferView":5,"componentType":5126,"count":96,"type":"VEC3"},{"bufferView":6,"componentType":5126,"count":96,"type":"VEC2"},{"bufferView":7,"componentType":5123,"count":144,"type":"SCALAR"},{"bufferView":8,"componentType":5126,"count":24,"max":[0.9300000071525574,0.14000000059604645,0.44999998807907104],"min":[-0.9300000071525574,0.019999999552965164,-0.44999998807907104],"type":"VEC3"},{"bufferView":9,"componentType":5126,"count":24,"type":"VEC3"},{"bufferView":10,"componentType":5126,"count":24,"type":"VEC2"},{"bufferView":11,"componentType":5123,"count":36,"type":"SCALAR"},{"bufferView":12,"componentType":5126,"count":900,"max":[0.8488366603851318,0.29600000381469727,0.3840755224227905],"min":[-0.8488366603851318,0.10400000214576721,-0.40392306447029114],"type":"VEC3"},{"bufferView":13,"componentType":5126,"count":900,"type":"VEC3"},{"bufferView":14,"componentType":5126,"count":900,"type":"VEC2"},{"bufferView":15,"componentType":5123,"count":1080,"type":"SCALAR"},{"bufferView":16,"componentType":5126,"count":300,"max":[0.8073476552963257,0.40502262115478516,0.3455409109592438],"min":[-0.5118519067764282,0.2394673228263855,-0.35629165172576904],"type":"VEC3"},{"bufferView":17,"componentType":5126,"count":300,"type":"VEC3"},{"bufferView":18,"componentType":5126,"count":300,"type":"VEC2"},{"bufferView":19,"componentType":5123,"count":360,"type":"SCALAR"},{"bufferView":20,"componentType":5126,"count":150,"max":[0.48832452297210693,0.40533262491226196,0.04554089903831482],"min":[-0.8297233581542969,0.24030917882919312,-0.056291647255420685],"type":"VEC3"},{"bufferView":21,"componentType":5126,"count":150,"type":"VEC3"},{"bufferView":22,"componentType":5126,"count":150,"type":"VEC2"},{"bufferView":23,"componentType":5126,"count":150,"max":[0.8220881223678589,0.4113737940788269,0.04554089903831482],"min":[-0.5263844728469849,0.2446717917919159,-0.056291647255420685],"type":"VEC3"},{"bufferView":24,"componentType":5126,"count":150,"type":"VEC3"},{"bufferView":25,"componentType":5126,"count":150,"type":"VEC2"},{"bufferView":26,"componentType":5126,"count":150,"max":[0.5383036136627197,0.40827420353889465,-0.25445911288261414],"min":[-0.7731325030326843,0.23933592438697815,-0.35629165172576904],"type":"VEC3"},{"bufferView":27,"componentType":5126,"count":150,"type":"VEC3"},{"bufferView":28,"componentType":5126,"count":150,"type":"VEC2"}],"asset":{"generator":"Khronos glTF Blender I/O v5.2.40","version":"2.0"},"bufferViews":[{"buffer":0,"byteLength":1800,"byteOffset":0,"target":34962},{"buffer":0,"byteLength":1800,"byteOffset":1800,"target":34962},{"buffer":0,"byteLength":1200,"byteOffset":3600,"target":34962},{"buffer":0,"byteLength":360,"byteOffset":4800,"target":34963},{"buffer":0,"byteLength":1152,"byteOffset":5160,"target":34962},{"buffer":0,"byteLength":1152,"byteOffset":6312,"target":34962},{"buffer":0,"byteLength":768,"byteOffset":7464,"target":34962},{"buffer":0,"byteLength":288,"byteOffset":8232,"target":34963},{"buffer":0,"byteLength":288,"byteOffset":8520,"target":34962},{"buffer":0,"byteLength":288,"byteOffset":8808,"target":34962},{"buffer":0,"byteLength":192,"byteOffset":9096,"target":34962},{"buffer":0,"byteLength":72,"byteOffset":9288,"target":34963},{"buffer":0,"byteLength":10800,"byteOffset":9360,"target":34962},{"buffer":0,"byteLength":10800,"byteOffset":20160,"target":34962},{"buffer":0,"byteLength":7200,"byteOffset":30960,"target":34962},{"buffer":0,"byteLength":2160,"byteOffset":38160,"target":34963},{"buffer":0,"byteLength":3600,"byteOffset":40320,"target":34962},{"buffer":0,"byteLength":3600,"byteOffset":43920,"target":34962},{"buffer":0,"byteLength":2400,"byteOffset":47520,"target":34962},{"buffer":0,"byteLength":720,"byteOffset":49920,"target":34963},{"buffer":0,"byteLength":1800,"byteOffset":50640,"target":34962},{"buffer":0,"byteLength":1800,"byteOffset":52440,"target":34962},{"buffer":0,"byteLength":1200,"byteOffset":54240,"target":34962},{"buffer":0,"byteLength":1800,"byteOffset":55440,"target":34962},{"buffer":0,"byteLength":1800,"byteOffset":57240,"target":34962},{"buffer":0,"byteLength":1200,"byteOffset":59040,"target":34962},{"buffer":0,"byteLength":1800,"byteOffset":60240,"target":34962},{"buffer":0,"byteLength":1800,"byteOffset":62040,"target":34962},{"buffer":0,"byteLength":1200,"byteOffset":63840,"target":34962}],"buffers":[{"byteLength":65040,"uri":"flower_bed.bin"}],"images":[],"materials":[{"doubleSided":true,"name":"Prop_FlowerRed","pbrMetallicRoughness":{"baseColorFactor":[0.699999988079071,0.05000000074505806,0.05000000074505806,1],"metallicFactor":0,"roughnessFactor":0.699999988079071}},{"doubleSided":true,"name":"Prop_OakDark","pbrMetallicRoughness":{"baseColorFactor":[0.18000000715255737,0.09000000357627869,0.03500000014901161,1],"metallicFactor":0,"roughnessFactor":0.8500000238418579}},{"doubleSided":true,"name":"Prop_Soil","pbrMetallicRoughness":{"baseColorFactor":[0.11999999731779099,0.07000000029802322,0.03500000014901161,1],"metallicFactor":0}},{"doubleSided":true,"name":"Prop_Leaf","pbrMetallicRoughness":{"baseColorFactor":[0.07000000029802322,0.20000000298023224,0.03999999910593033,1],"metallicFactor":0,"roughnessFactor":0.8999999761581421}},{"doubleSided":true,"name":"Prop_FlowerYellow","pbrMetallicRoughness":{"baseColorFactor":[0.8500000238418579,0.6000000238418579,0.05000000074505806,1],"metallicFactor":0,"roughnessFactor":0.699999988079071}},{"doubleSided":true,"name":"Prop_FlowerViolet","pbrMetallicRoughness":{"baseColorFactor":[0.3199999928474426,0.11999999731779099,0.6000000238418579,1],"metallicFactor":0,"roughnessFactor":0.699999988079071}},{"doubleSided":true,"name":"Prop_FlowerWhite","pbrMetallicRoughness":{"baseColorFactor":[0.8500000238418579,0.8199999928474426,0.75,1],"metallicFactor":0,"roughnessFactor":0.699999988079071}},{"doubleSided":true,"name":"Prop_FlowerPink","pbrMetallicRoughness":{"baseColorFactor":[0.8500000238418579,0.3499999940395355,0.5,1],"metallicFactor":0,"roughnessFactor":0.699999988079071}}],"meshes":[{"name":"flower_bed","primitives":[{"attributes":{"NORMAL":1,"POSITION":0,"TEXCOORD_0":2},"indices":3,"material":0},{"attributes":{"NORMAL":5,"POSITION":4,"TEXCOORD_0":6},"indices":7,"material":1},{"attributes":{"NORMAL":9,"POSITION":8,"TEXCOORD_0":10},"indices":11,"material":2},{"attributes":{"NORMAL":13,"POSITION":12,"TEXCOORD_0":14},"indices":15,"material":3},{"attributes":{"NORMAL":17,"POSITION":16,"TEXCOORD_0":18},"indices":19,"material":4},{"attributes":{"NORMAL":21,"POSITION":20,"TEXCOORD_0":22},"indices":3,"material":5},{"attributes":{"NORMAL":24,"POSITION":23,"TEXCOORD_0":25},"indices":3,"material":6},{"attributes":{"NORMAL":27,"POSITION":26,"TEXCOORD_0":28},"indices":3,"material":7}]}],"nodes":[{"mesh":0,"name":"flower_bed"}],"scene":0,"scenes":[{"name":"Scene","nodes":[0]}],"textures":[]}
