{"accessors":[{"bufferView":0,"componentType":5126,"count":240,"type":"VEC3"},{"bufferView":1,"componentType":5126,"count":240,"max":[1.0381600856781006,0.9209737777709961,0.7259480953216553],"min":[-0.01072964072227478,0.5857863426208496,-0.18184316158294678],"type":"VEC3"},{"bufferView":2,"componentType":5123,"count":288,"type":"SCALAR"},{"bufferView":3,"componentType":5126,"count":100,"type":"VEC3"},{"bufferView":4,"componentType":5126,"count":100,"max":[1.0277791023254395,0.7870339751243591,0.7145371437072754],"min":[-1.0895737409591675,0.0035132169723510742,-0.512969434261322],"type":"VEC3"},{"bufferView":5,"componentType":5123,"count":120,"type":"SCALAR"},{"bufferView":6,"componentType":5126,"count":100,"type":"VEC3"},{"bufferView":7,"componentType":5126,"count":100,"max":[1.0895737409591675,0.7905471920967102,1.3298660516738892],"min":[-0.246697336435318,0,-1.3610483407974243],"type":"VEC3"},{"bufferView":8,"componentType":5123,"count":120,"type":"SCALAR"},{"bufferView":9,"componentType":5126,"count":240,"type":"VEC3"},{"bufferView":10,"componentType":5126,"count":240,"max":[0.8521853685379028,0.9192464351654053,-0.2258930206298828],"min":[0.025303572416305542,0.602412760257721,-1.2391889095306396],"type":"VEC3"},{"bufferView":11,"componentType":5123,"count":288,"type":"SCALAR"},{"bufferView":12,"componentType":5126,"count":210,"type":"VEC3"},{"bufferView":13,"componentType":5126,"count":210,"max":[0.10209456086158752,0.8987669944763184,0.6017735004425049],"min":[-1.0134282112121582,0.6171753406524658,-0.10984161496162415],"type":"VEC3"},{"bufferView":14,"componentType":5123,"count":252,"type":"SCALAR"},{"bufferView":15,"componentType":5126,"count":210,"type":"VEC3"},{"bufferView":16,"componentType":5126,"count":210,"max":[0.9562896490097046,0.8424031734466553,1.3610483407974243],"min":[0.032000601291656494,0.5570387244224548,0.3016253709793091],"type":"VEC3"},{"bufferView":17,"componentType":5123,"count":252,"type":"SCALAR"}],"asset":{"generator":"Khronos glTF Blender I/O v5.2.40","version":"2.0"},"bufferViews":[{"buffer":0,"byteOffset":0,"byteLength":2880,"target":34962},{"buffer":0,"byteOffset":2880,"byteLength":2880,"target":34962},{"buffer":0,"byteOffset":5760,"byteLength":576,"target":34963},{"buffer":0,"byteOffset":6336,"byteLength":1200,"target":34962},{"buffer":0,"byteOffset":7536,"byteLength":1200,"target":34962},{"buffer":0,"byteOffset":8736,"byteLength":240,"target":34963},{"buffer":0,"byteOffset":8976,"byteLength":1200,"target":34962},{"buffer":0,"byteOffset":10176,"byteLength":1200,"target":34962},{"buffer":0,"byteOffset":11376,"byteLength":240,"target":34963},{"buffer":0,"byteOffset":11616,"byteLength":2880,"target":34962},{"buffer":0,"byteOffset":14496,"byteLength":2880,"target":34962},{"buffer":0,"byteOffset":17376,"byteLength":576,"target":34963},{"buffer":0,"byteOffset":17952,"byteLength":2520,"target":34962},{"buffer":0,"byteOffset":20472,"byteLength":2520,"target":34962},{"buffer":0,"byteOffset":22992,"byteLength":504,"target":34963},{"buffer":0,"byteOffset":23496,"byteLength":2520,"target":34962},{"buffer":0,"byteOffset":26016,"byteLength":2520,"target":34962},{"buffer":0,"byteOffset":28536,"byteLength":504,"target":34963}],"buffers":[{"byteLength":29040,"uri":"flower_patch_autumn.bin"}],"images":[],"materials":[{"doubleSided":true,"name":"Prop_FlowerRust","pbrMetallicRoughness":{"baseColorFactor":[0.5,0.11999999731779099,0.029999999329447746,1],"metallicFactor":0,"roughnessFactor":0.699999988079071}},{"doubleSided":true,"name":"Prop_LeafDark","pbrMetallicRoughness":{"baseColorFactor":[0.04500000178813934,0.12999999523162842,0.029999999329447746,1],"metallicFactor":0,"roughnessFactor":0.8999999761581421}},{"doubleSided":true,"name":"Prop_Leaf","pbrMetallicRoughness":{"baseColorFactor":[0.07000000029802322,0.20000000298023224,0.03999999910593033,1],"metallicFactor":0,"roughnessFactor":0.8999999761581421}},{"doubleSided":true,"name":"Prop_FlowerGold","pbrMetallicRoughness":{"baseColorFactor":[0.75,0.41999998688697815,0.019999999552965164,1],"metallicFactor":0,"roughnessFactor":0.699999988079071}},{"doubleSided":true,"name":"Prop_FlowerPlum","pbrMetallicRoughness":{"baseColorFactor":[0.3799999952316284,0.05999999865889549,0.20000000298023224,1],"metallicFactor":0,"roughnessFactor":0.699999988079071}},{"doubleSided":true,"name":"Prop_FlowerOrange","pbrMetallicRoughness":{"baseColorFactor":[0.8999999761581421,0.3199999928474426,0.03999999910593033,1],"metallicFactor":0,"roughnessFactor":0.699999988079071}}],"meshes":[{"name":"flower_patch_autumn","primitives":[{"attributes":{"NORMAL":0,"POSITION":1},"indices":2,"material":0},{"attributes":{"NORMAL":3,"POSITION":4},"indices":5,"material":1},{"attributes":{"NORMAL":6,"POSITION":7},"indices":8,"material":2},{"attributes":{"NORMAL":9,"POSITION":10},"indices":11,"material":3},{"attributes":{"NORMAL":12,"POSITION":13},"indices":14,"material":4},{"attributes":{"NORMAL":15,"POSITION":16},"indices":17,"material":5}]}],"nodes":[{"mesh":0,"name":"flower_patch_autumn"}],"scene":0,"scenes":[{"name":"Scene","nodes":[0]}],"textures":[]}