{"accessors":[{"bufferView":0,"componentType":5126,"count":240,"type":"VEC3"},{"bufferView":1,"componentType":5126,"count":240,"max":[0.9479444026947021,0.8672747611999512,0.5730271935462952],"min":[-0.23348021507263184,0.5306116342544556,-0.3839842677116394],"type":"VEC3"},{"bufferView":2,"componentType":5123,"count":288,"type":"SCALAR"},{"bufferView":3,"componentType":5126,"count":100,"type":"VEC3"},{"bufferView":4,"componentType":5126,"count":100,"max":[0.9108152985572815,0.7287743091583252,0.5816231966018677],"min":[-1.1558911800384521,0.0034429430961608887,-0.5714940428733826],"type":"VEC3"},{"bufferView":5,"componentType":5123,"count":120,"type":"SCALAR"},{"bufferView":6,"componentType":5126,"count":100,"type":"VEC3"},{"bufferView":7,"componentType":5126,"count":100,"max":[1.1509511470794678,0.7322172522544861,1.3828413486480713],"min":[-0.07644826173782349,0,-1.3828413486480713],"type":"VEC3"},{"bufferView":8,"componentType":5123,"count":120,"type":"SCALAR"},{"bufferView":9,"componentType":5126,"count":240,"type":"VEC3"},{"bufferView":10,"componentType":5126,"count":240,"max":[0.9798589944839478,0.8383249044418335,-0.32889941334724426],"min":[0.024779796600341797,0.5599015951156616,-1.1662839651107788],"type":"VEC3"},{"bufferView":11,"componentType":5123,"count":288,"type":"SCALAR"},{"bufferView":12,"componentType":5126,"count":210,"type":"VEC3"},{"bufferView":13,"componentType":5126,"count":210,"max":[-0.03111034631729126,0.8521019220352173,0.5049566030502319],"min":[-0.8778077960014343,0.5437802076339722,-0.35783106088638306],"type":"VEC3"},{"bufferView":14,"componentType":5123,"count":252,"type":"SCALAR"},{"bufferView":15,"componentType":5126,"count":210,"type":"VEC3"},{"bufferView":16,"componentType":5126,"count":210,"max":[1.1558911800384521,0.8566861152648926,1.102232575416565],"min":[-0.08228194713592529,0.5337179899215698,0.6419211626052856],"type":"VEC3"},{"bufferView":17,"componentType":5123,"count":252,"type":"SCALAR"}],"asset":{"generator":"Khronos glTF Blender I/O v5.2.40","version":"2.0"},"bufferViews":[{"buffer":0,"byteOffset":0,"byteLength":2880,"target":34962},{"buffer":0,"byteOffset":2880,"byteLength":2880,"target":34962},{"buffer":0,"byteOffset":5760,"byteLength":576,"target":34963},{"buffer":0,"byteOffset":6336,"byteLength":1200,"target":34962},{"buffer":0,"byteOffset":7536,"byteLength":1200,"target":34962},{"buffer":0,"byteOffset":8736,"byteLength":240,"target":34963},{"buffer":0,"byteOffset":8976,"byteLength":1200,"target":34962},{"buffer":0,"byteOffset":10176,"byteLength":1200,"target":34962},{"buffer":0,"byteOffset":11376,"byteLength":240,"target":34963},{"buffer":0,"byteOffset":11616,"byteLength":2880,"target":34962},{"buffer":0,"byteOffset":14496,"byteLength":2880,"target":34962},{"buffer":0,"byteOffset":17376,"byteLength":576,"target":34963},{"buffer":0,"byteOffset":17952,"byteLength":2520,"target":34962},{"buffer":0,"byteOffset":20472,"byteLength":2520,"target":34962},{"buffer":0,"byteOffset":22992,"byteLength":504,"target":34963},{"buffer":0,"byteOffset":23496,"byteLength":2520,"target":34962},{"buffer":0,"byteOffset":26016,"byteLength":2520,"target":34962},{"buffer":0,"byteOffset":28536,"byteLength":504,"target":34963}],"buffers":[{"byteLength":29040,"uri":"flower_patch_spring.bin"}],"images":[],"materials":[{"doubleSided":true,"name":"Prop_FlowerPink","pbrMetallicRoughness":{"baseColorFactor":[0.8500000238418579,0.3499999940395355,0.5,1],"metallicFactor":0,"roughnessFactor":0.699999988079071}},{"doubleSided":true,"name":"Prop_LeafDark","pbrMetallicRoughness":{"baseColorFactor":[0.04500000178813934,0.12999999523162842,0.029999999329447746,1],"metallicFactor":0,"roughnessFactor":0.8999999761581421}},{"doubleSided":true,"name":"Prop_Leaf","pbrMetallicRoughness":{"baseColorFactor":[0.07000000029802322,0.20000000298023224,0.03999999910593033,1],"metallicFactor":0,"roughnessFactor":0.8999999761581421}},{"doubleSided":true,"name":"Prop_FlowerWhite","pbrMetallicRoughness":{"baseColorFactor":[0.8500000238418579,0.8199999928474426,0.75,1],"metallicFactor":0,"roughnessFactor":0.699999988079071}},{"doubleSided":true,"name":"Prop_FlowerYellow","pbrMetallicRoughness":{"baseColorFactor":[0.8500000238418579,0.6000000238418579,0.05000000074505806,1],"metallicFactor":0,"roughnessFactor":0.699999988079071}},{"doubleSided":true,"name":"Prop_FlowerBlue","pbrMetallicRoughness":{"baseColorFactor":[0.11999999731779099,0.25,0.75,1],"metallicFactor":0,"roughnessFactor":0.699999988079071}}],"meshes":[{"name":"flower_patch_spring","primitives":[{"attributes":{"NORMAL":0,"POSITION":1},"indices":2,"material":0},{"attributes":{"NORMAL":3,"POSITION":4},"indices":5,"material":1},{"attributes":{"NORMAL":6,"POSITION":7},"indices":8,"material":2},{"attributes":{"NORMAL":9,"POSITION":10},"indices":11,"material":3},{"attributes":{"NORMAL":12,"POSITION":13},"indices":14,"material":4},{"attributes":{"NORMAL":15,"POSITION":16},"indices":17,"material":5}]}],"nodes":[{"mesh":0,"name":"flower_patch_spring"}],"scene":0,"scenes":[{"name":"Scene","nodes":[0]}],"textures":[]}