{"accessors":[{"bufferView":0,"componentType":5126,"count":24,"type":"VEC3"},{"bufferView":1,"componentType":5126,"count":24,"max":[1.2580461502075195,0.6600000262260437,0.45500001311302185],"min":[-0.20195388793945312,0.5799999833106995,-0.45500001311302185],"type":"VEC3"},{"bufferView":2,"componentType":5123,"count":36,"type":"SCALAR"},{"bufferView":3,"componentType":5126,"count":96,"type":"VEC3"},{"bufferView":4,"componentType":5126,"count":96,"max":[1.3030461072921753,0.9299999475479126,0.4950000047683716],"min":[-0.2469538450241089,0.6299999952316284,-0.4950000047683716],"type":"VEC3"},{"bufferView":5,"componentType":5123,"count":144,"type":"SCALAR"},{"bufferView":6,"componentType":5126,"count":192,"type":"VEC3"},{"bufferView":7,"componentType":5126,"count":192,"max":[1.2030460834503174,0.800000011920929,0.5800000429153442],"min":[-1.3030461072921753,0,-0.5800000429153442],"type":"VEC3"},{"bufferView":8,"componentType":5123,"count":324,"type":"SCALAR"},{"bufferView":9,"componentType":5126,"count":72,"type":"VEC3"},{"bufferView":10,"componentType":5126,"count":72,"max":[0.7473281621932983,0.48000001907348633,0.6000000238418579],"min":[0.608764111995697,0.3199999928474426,-0.6000000238418579],"type":"VEC3"},{"bufferView":11,"componentType":5123,"count":120,"type":"SCALAR"},{"bufferView":12,"componentType":5126,"count":216,"type":"VEC3"},{"bufferView":13,"componentType":5126,"count":216,"max":[1.1466102600097656,0.8999999761581421,0.3799999952316284],"min":[-0.09051793813705444,0.6599999666213989,-0.3799999952316284],"type":"VEC3"},{"bufferView":14,"componentType":5123,"count":360,"type":"SCALAR"},{"bufferView":15,"componentType":5126,"count":360,"type":"VEC3"},{"bufferView":16,"componentType":5126,"count":360,"max":[1.1580461263656616,1.1200000047683716,0.39320507645606995],"min":[-0.10195386409759521,0.8400000333786011,-0.39320507645606995],"type":"VEC3"},{"bufferView":17,"componentType":5123,"count":432,"type":"SCALAR"},{"bufferView":18,"componentType":5126,"count":100,"type":"VEC3"},{"bufferView":19,"componentType":5126,"count":100,"max":[1.0030286312103271,1.190000057220459,0.272587388753891],"min":[-0.11778503656387329,1,-0.20713552832603455],"type":"VEC3"},{"bufferView":20,"componentType":5123,"count":120,"type":"SCALAR"},{"bufferView":21,"componentType":5126,"count":100,"type":"VEC3"},{"bufferView":22,"componentType":5126,"count":100,"max":[0.15059936046600342,1.190000057220459,0.3235843777656555],"min":[-0.1137656569480896,1,-0.196245014667511],"type":"VEC3"},{"bufferView":23,"componentType":5123,"count":120,"type":"SCALAR"},{"bufferView":24,"componentType":5126,"count":100,"type":"VEC3"},{"bufferView":25,"componentType":5126,"count":100,"max":[0.5508100986480713,1.190000057220459,0.18582813441753387],"min":[-0.06297051906585693,1,-0.37111803889274597],"type":"VEC3"},{"bufferView":26,"componentType":5126,"count":100,"type":"VEC3"},{"bufferView":27,"componentType":5126,"count":100,"max":[0.5557006001472473,1.190000057220459,0.382404088973999],"min":[0.36253246665000916,1,-0.2979625165462494],"type":"VEC3"},{"bufferView":28,"componentType":5126,"count":100,"type":"VEC3"},{"bufferView":29,"componentType":5126,"count":100,"max":[0.99105304479599,1.190000057220459,0.22010214626789093],"min":[0.3965323567390442,1,-0.35811376571655273],"type":"VEC3"},{"bufferView":30,"componentType":5126,"count":100,"type":"VEC3"},{"bufferView":31,"componentType":5126,"count":100,"max":[1.1234350204467773,1.190000057220459,0.20102114975452423],"min":[0.8918920755386353,1,-0.37617266178131104],"type":"VEC3"}],"asset":{"generator":"Khronos glTF Blender I/O v5.2.40","version":"2.0"},"bufferViews":[{"buffer":0,"byteOffset":0,"byteLength":288,"target":34962},{"buffer":0,"byteOffset":288,"byteLength":288,"target":34962},{"buffer":0,"byteOffset":576,"byteLength":72,"target":34963},{"buffer":0,"byteOffset":648,"byteLength":1152,"target":34962},{"buffer":0,"byteOffset":1800,"byteLength":1152,"target":34962},{"buffer":0,"byteOffset":2952,"byteLength":288,"target":34963},{"buffer":0,"byteOffset":3240,"byteLength":2304,"target":34962},{"buffer":0,"byteOffset":5544,"byteLength":2304,"target":34962},{"buffer":0,"byteOffset":7848,"byteLength":648,"target":34963},{"buffer":0,"byteOffset":8496,"byteLength":864,"target":34962},{"buffer":0,"byteOffset":9360,"byteLength":864,"target":34962},{"buffer":0,"byteOffset":10224,"byteLength":240,"target":34963},{"buffer":0,"byteOffset":10464,"byteLength":2592,"target":34962},{"buffer":0,"byteOffset":13056,"byteLength":2592,"target":34962},{"buffer":0,"byteOffset":15648,"byteLength":720,"target":34963},{"buffer":0,"byteOffset":16368,"byteLength":4320,"target":34962},{"buffer":0,"byteOffset":20688,"byteLength":4320,"target":34962},{"buffer":0,"byteOffset":25008,"byteLength":864,"target":34963},{"buffer":0,"byteOffset":25872,"byteLength":1200,"target":34962},{"buffer":0,"byteOffset":27072,"byteLength":1200,"target":34962},{"buffer":0,"byteOffset":28272,"byteLength":240,"target":34963},{"buffer":0,"byteOffset":28512,"byteLength":1200,"target":34962},{"buffer":0,"byteOffset":29712,"byteLength":1200,"target":34962},{"buffer":0,"byteOffset":30912,"byteLength":240,"target":34963},{"buffer":0,"byteOffset":31152,"byteLength":1200,"target":34962},{"buffer":0,"byteOffset":32352,"byteLength":1200,"target":34962},{"buffer":0,"byteOffset":33552,"byteLength":1200,"target":34962},{"buffer":0,"byteOffset":34752,"byteLength":1200,"target":34962},{"buffer":0,"byteOffset":35952,"byteLength":1200,"target":34962},{"buffer":0,"byteOffset":37152,"byteLength":1200,"target":34962},{"buffer":0,"byteOffset":38352,"byteLength":1200,"target":34962},{"buffer":0,"byteOffset":39552,"byteLength":1200,"target":34962}],"buffers":[{"byteLength":40752,"uri":"flower_cart.bin"}],"images":[],"materials":[{"doubleSided":true,"name":"Prop_Oak","pbrMetallicRoughness":{"baseColorFactor":[0.3199999928474426,0.17000000178813934,0.07000000029802322,1],"metallicFactor":0,"roughnessFactor":0.8500000238418579}},{"doubleSided":true,"name":"Prop_PaintBlue","pbrMetallicRoughness":{"baseColorFactor":[0.11999999731779099,0.25,0.44999998807907104,1],"metallicFactor":0,"roughnessFactor":0.699999988079071}},{"doubleSided":true,"name":"Prop_OakDark","pbrMetallicRoughness":{"baseColorFactor":[0.18000000715255737,0.09000000357627869,0.03500000014901161,1],"metallicFactor":0,"roughnessFactor":0.8500000238418579}},{"doubleSided":true,"name":"Prop_Iron","pbrMetallicRoughness":{"baseColorFactor":[0.03500000014901161,0.03500000014901161,0.03999999910593033,1],"metallicFactor":0,"roughnessFactor":0.5}},{"doubleSided":true,"name":"Prop_Tile","pbrMetallicRoughness":{"baseColorFactor":[0.4000000059604645,0.09000000357627869,0.05000000074505806,1],"metallicFactor":0,"roughnessFactor":0.800000011920929}},{"doubleSided":true,"name":"Prop_Leaf","pbrMetallicRoughness":{"baseColorFactor":[0.07000000029802322,0.20000000298023224,0.03999999910593033,1],"metallicFactor":0,"roughnessFactor":0.8999999761581421}},{"doubleSided":true,"name":"Prop_FlowerRed","pbrMetallicRoughness":{"baseColorFactor":[0.699999988079071,0.05000000074505806,0.05000000074505806,1],"metallicFactor":0,"roughnessFactor":0.699999988079071}},{"doubleSided":true,"name":"Prop_FlowerYellow","pbrMetallicRoughness":{"baseColorFactor":[0.8500000238418579,0.6000000238418579,0.05000000074505806,1],"metallicFactor":0,"roughnessFactor":0.699999988079071}},{"doubleSided":true,"name":"Prop_FlowerPink","pbrMetallicRoughness":{"baseColorFactor":[0.8500000238418579,0.3499999940395355,0.5,1],"metallicFactor":0,"roughnessFactor":0.699999988079071}},{"doubleSided":true,"name":"Prop_FlowerViolet","pbrMetallicRoughness":{"baseColorFactor":[0.3199999928474426,0.11999999731779099,0.6000000238418579,1],"metallicFactor":0,"roughnessFactor":0.699999988079071}},{"doubleSided":true,"name":"Prop_FlowerWhite","pbrMetallicRoughness":{"baseColorFactor":[0.8500000238418579,0.8199999928474426,0.75,1],"metallicFactor":0,"roughnessFactor":0.699999988079071}},{"doubleSided":true,"name":"Prop_FlowerOrange","pbrMetallicRoughness":{"baseColorFactor":[0.8999999761581421,0.3199999928474426,0.03999999910593033,1],"metallicFactor":0,"roughnessFactor":0.699999988079071}}],"meshes":[{"name":"flower_cart","primitives":[{"attributes":{"NORMAL":0,"POSITION":1},"indices":2,"material":0},{"attributes":{"NORMAL":3,"POSITION":4},"indices":5,"material":1},{"attributes":{"NORMAL":6,"POSITION":7},"indices":8,"material":2},{"attributes":{"NORMAL":9,"POSITION":10},"indices":11,"material":3},{"attributes":{"NORMAL":12,"POSITION":13},"indices":14,"material":4},{"attributes":{"NORMAL":15,"POSITION":16},"indices":17,"material":5},{"attributes":{"NORMAL":18,"POSITION":19},"indices":20,"material":6},{"attributes":{"NORMAL":21,"POSITION":22},"indices":23,"material":7},{"attributes":{"NORMAL":24,"POSITION":25},"indices":23,"material":8},{"attributes":{"NORMAL":26,"POSITION":27},"indices":23,"material":9},{"attributes":{"NORMAL":28,"POSITION":29},"indices":23,"material":10},{"attributes":{"NORMAL":30,"POSITION":31},"indices":23,"material":11}]}],"nodes":[{"mesh":0,"name":"flower_cart"}],"scene":0,"scenes":[{"name":"Scene","nodes":[0]}],"textures":[]}