{"accessors":[{"bufferView":0,"componentType":5126,"count":450,"max":[0.9462512731552124,0.8593997955322266,1.3375482559204102],"min":[0.02707427740097046,0.5404256582260132,-0.36755606532096863],"type":"VEC3"},{"bufferView":1,"componentType":5126,"count":450,"type":"VEC3"},{"bufferView":2,"componentType":5126,"count":450,"type":"VEC2"},{"bufferView":3,"componentType":5123,"count":540,"type":"SCALAR"},{"bufferView":4,"componentType":5126,"count":100,"max":[0.867388129234314,0.7325653433799744,0.5869941711425781],"min":[-1.1122095584869385,0.05869317054748535,-0.5071056485176086],"type":"VEC3"},{"bufferView":5,"componentType":5126,"count":100,"type":"VEC3"},{"bufferView":6,"componentType":5126,"count":100,"type":"VEC2"},{"bufferView":7,"componentType":5123,"count":120,"type":"SCALAR"},{"bufferView":8,"componentType":5126,"count":100,"max":[1.1122095584869385,0.7912585139274597,1.3488751649856567],"min":[-0.43397608399391174,0,-1.3488751649856567],"type":"VEC3"},{"bufferView":9,"componentType":5126,"count":100,"type":"VEC3"},{"bufferView":10,"componentType":5126,"count":100,"type":"VEC2"},{"bufferView":11,"componentType":5123,"count":120,"type":"SCALAR"},{"bufferView":12,"componentType":5126,"count":240,"max":[0.7443574666976929,0.9119313955307007,-0.28436899185180664],"min":[-0.32287999987602234,0.6132707595825195,-1.3048558235168457],"type":"VEC3"},{"bufferView":13,"componentType":5126,"count":240,"type":"VEC3"},{"bufferView":14,"componentType":5126,"count":240,"type":"VEC2"},{"bufferView":15,"componentType":5123,"count":288,"type":"SCALAR"},{"bufferView":16,"componentType":5126,"count":210,"max":[-0.04916378855705261,0.8524711728096008,0.5026722550392151],"min":[-1.0789517164230347,0.5711750388145447,-0.38721418380737305],"type":"VEC3"},{"bufferView":17,"componentType":5126,"count":210,"type":"VEC3"},{"bufferView":18,"componentType":5126,"count":210,"type":"VEC2"},{"bufferView":19,"componentType":5123,"count":252,"type":"SCALAR"}],"asset":{"generator":"Khronos glTF Blender I/O v5.2.40","version":"2.0"},"bufferViews":[{"buffer":0,"byteLength":5400,"byteOffset":0,"target":34962},{"buffer":0,"byteLength":5400,"byteOffset":5400,"target":34962},{"buffer":0,"byteLength":3600,"byteOffset":10800,"target":34962},{"buffer":0,"byteLength":1080,"byteOffset":14400,"target":34963},{"buffer":0,"byteLength":1200,"byteOffset":15480,"target":34962},{"buffer":0,"byteLength":1200,"byteOffset":16680,"target":34962},{"buffer":0,"byteLength":800,"byteOffset":17880,"target":34962},{"buffer":0,"byteLength":240,"byteOffset":18680,"target":34963},{"buffer":0,"byteLength":1200,"byteOffset":18920,"target":34962},{"buffer":0,"byteLength":1200,"byteOffset":20120,"target":34962},{"buffer":0,"byteLength":800,"byteOffset":21320,"target":34962},{"buffer":0,"byteLength":240,"byteOffset":22120,"target":34963},{"buffer":0,"byteLength":2880,"byteOffset":22360,"target":34962},{"buffer":0,"byteLength":2880,"byteOffset":25240,"target":34962},{"buffer":0,"byteLength":1920,"byteOffset":28120,"target":34962},{"buffer":0,"byteLength":576,"byteOffset":30040,"target":34963},{"buffer":0,"byteLength":2520,"byteOffset":30616,"target":34962},{"buffer":0,"byteLength":2520,"byteOffset":33136,"target":34962},{"buffer":0,"byteLength":1680,"byteOffset":35656,"target":34962},{"buffer":0,"byteLength":504,"byteOffset":37336,"target":34963}],"buffers":[{"byteLength":37840,"uri":"flower_patch_summer.bin"}],"images":[],"materials":[{"doubleSided":true,"name":"Prop_FlowerRed","pbrMetallicRoughness":{"baseColorFactor":[0.699999988079071,0.05000000074505806,0.05000000074505806,1],"metallicFactor":0,"roughnessFactor":0.699999988079071}},{"doubleSided":true,"name":"Prop_LeafDark","pbrMetallicRoughness":{"baseColorFactor":[0.04500000178813934,0.12999999523162842,0.029999999329447746,1],"metallicFactor":0,"roughnessFactor":0.8999999761581421}},{"doubleSided":true,"name":"Prop_Leaf","pbrMetallicRoughness":{"baseColorFactor":[0.07000000029802322,0.20000000298023224,0.03999999910593033,1],"metallicFactor":0,"roughnessFactor":0.8999999761581421}},{"doubleSided":true,"name":"Prop_FlowerOrange","pbrMetallicRoughness":{"baseColorFactor":[0.8999999761581421,0.3199999928474426,0.03999999910593033,1],"metallicFactor":0,"roughnessFactor":0.699999988079071}},{"doubleSided":true,"name":"Prop_FlowerYellow","pbrMetallicRoughness":{"baseColorFactor":[0.8500000238418579,0.6000000238418579,0.05000000074505806,1],"metallicFactor":0,"roughnessFactor":0.699999988079071}}],"meshes":[{"name":"flower_patch_summer","primitives":[{"attributes":{"NORMAL":1,"POSITION":0,"TEXCOORD_0":2},"indices":3,"material":0},{"attributes":{"NORMAL":5,"POSITION":4,"TEXCOORD_0":6},"indices":7,"material":1},{"attributes":{"NORMAL":9,"POSITION":8,"TEXCOORD_0":10},"indices":11,"material":2},{"attributes":{"NORMAL":13,"POSITION":12,"TEXCOORD_0":14},"indices":15,"material":3},{"attributes":{"NORMAL":17,"POSITION":16,"TEXCOORD_0":18},"indices":19,"material":4}]}],"nodes":[{"mesh":0,"name":"flower_patch_summer"}],"scene":0,"scenes":[{"name":"Scene","nodes":[0]}],"textures":[]}
