{"accessors":[{"bufferView":0,"componentType":5126,"count":14,"type":"VEC3"},{"bufferView":1,"componentType":5126,"count":14,"max":[0.6969122886657715,0.026000002399086952,1.5],"min":[-0.6969122886657715,0.026000002399086952,-1.5],"type":"VEC3"},{"bufferView":2,"componentType":5123,"count":36,"type":"SCALAR"},{"bufferView":3,"componentType":5126,"count":120,"type":"VEC3"},{"bufferView":4,"componentType":5126,"count":120,"max":[0.35481971502304077,0.07199998944997787,0.9779422879219055],"min":[-0.38224178552627563,0,-1.1779422760009766],"type":"VEC3"},{"bufferView":5,"componentType":5123,"count":144,"type":"SCALAR"}],"asset":{"generator":"Khronos glTF Blender I/O v5.2.40","version":"2.0"},"bufferViews":[{"buffer":0,"byteOffset":0,"byteLength":168,"target":34962},{"buffer":0,"byteOffset":168,"byteLength":168,"target":34962},{"buffer":0,"byteOffset":336,"byteLength":72,"target":34963},{"buffer":0,"byteOffset":408,"byteLength":1440,"target":34962},{"buffer":0,"byteOffset":1848,"byteLength":1440,"target":34962},{"buffer":0,"byteOffset":3288,"byteLength":288,"target":34963}],"buffers":[{"byteLength":3576,"uri":"footpath.bin"}],"images":[],"materials":[{"doubleSided":true,"name":"Prop_PathEarth","pbrMetallicRoughness":{"baseColorFactor":[0.28999999165534973,0.20999999344348907,0.11999999731779099,1],"metallicFactor":0}},{"doubleSided":true,"name":"Prop_Stone","pbrMetallicRoughness":{"baseColorFactor":[0.41999998688697815,0.4000000059604645,0.36000001430511475,1],"metallicFactor":0,"roughnessFactor":0.949999988079071}}],"meshes":[{"name":"footpath","primitives":[{"attributes":{"NORMAL":0,"POSITION":1},"indices":2,"material":0},{"attributes":{"NORMAL":3,"POSITION":4},"indices":5,"material":1}]}],"nodes":[{"mesh":0,"name":"footpath"}],"scene":0,"scenes":[{"name":"Scene","nodes":[0]}],"textures":[]}