{"accessors":[{"bufferView":0,"componentType":5126,"count":288,"max":[1.0999999046325684,1.75,3.549999952316284],"min":[-1.0999999046325684,0,-3.549999952316284],"type":"VEC3"},{"bufferView":1,"componentType":5126,"count":288,"type":"VEC3"},{"bufferView":2,"componentType":5126,"count":288,"type":"VEC2"},{"bufferView":3,"componentType":5123,"count":432,"type":"SCALAR"},{"bufferView":4,"componentType":5126,"count":528,"max":[1.100000023841858,1.739831566810608,3.5086777210235596],"min":[-1.100000023841858,0.16674908995628357,-3.5086777210235596],"type":"VEC3"},{"bufferView":5,"componentType":5126,"count":528,"type":"VEC3"},{"bufferView":6,"componentType":5126,"count":528,"type":"VEC2"},{"bufferView":7,"componentType":5123,"count":792,"type":"SCALAR"}],"asset":{"generator":"Khronos glTF Blender I/O v5.2.40","version":"2.0"},"bufferViews":[{"buffer":0,"byteLength":3456,"byteOffset":0,"target":34962},{"buffer":0,"byteLength":3456,"byteOffset":3456,"target":34962},{"buffer":0,"byteLength":2304,"byteOffset":6912,"target":34962},{"buffer":0,"byteLength":864,"byteOffset":9216,"target":34963},{"buffer":0,"byteLength":6336,"byteOffset":10080,"target":34962},{"buffer":0,"byteLength":6336,"byteOffset":16416,"target":34962},{"buffer":0,"byteLength":4224,"byteOffset":22752,"target":34962},{"buffer":0,"byteLength":1584,"byteOffset":26976,"target":34963}],"buffers":[{"byteLength":28560,"uri":"footbridge.bin"}],"images":[],"materials":[{"doubleSided":true,"name":"Prop_OakDark","pbrMetallicRoughness":{"baseColorFactor":[0.18000000715255737,0.09000000357627869,0.03500000014901161,1],"metallicFactor":0,"roughnessFactor":0.8500000238418579}},{"doubleSided":true,"name":"Prop_Oak","pbrMetallicRoughness":{"baseColorFactor":[0.3199999928474426,0.17000000178813934,0.07000000029802322,1],"metallicFactor":0,"roughnessFactor":0.8500000238418579}}],"meshes":[{"name":"footbridge","primitives":[{"attributes":{"NORMAL":1,"POSITION":0,"TEXCOORD_0":2},"indices":3,"material":0},{"attributes":{"NORMAL":5,"POSITION":4,"TEXCOORD_0":6},"indices":7,"material":1}]}],"nodes":[{"mesh":0,"name":"footbridge"}],"scene":0,"scenes":[{"name":"Scene","nodes":[0]}],"textures":[]}
