{"accessors":[{"bufferView":0,"componentType":5126,"count":1828,"max":[2.4000000953674316,2.5,2.4000000953674316],"min":[-2.4000000953674316,0,-2.4000000953674316],"type":"VEC3"},{"bufferView":1,"componentType":5126,"count":1828,"type":"VEC3"},{"bufferView":2,"componentType":5126,"count":1828,"type":"VEC2"},{"bufferView":3,"componentType":5123,"count":3168,"type":"SCALAR"},{"bufferView":4,"componentType":5126,"count":432,"max":[1.899999976158142,2.4700000286102295,1.899999976158142],"min":[-1.899999976158142,0.550000011920929,-1.899999976158142],"type":"VEC3"},{"bufferView":5,"componentType":5126,"count":432,"type":"VEC3"},{"bufferView":6,"componentType":5126,"count":432,"type":"VEC2"},{"bufferView":7,"componentType":5123,"count":828,"type":"SCALAR"},{"bufferView":8,"componentType":5126,"count":1373,"max":[1.9954754114151,2.799999952316284,1.9954754114151],"min":[-1.9954754114151,0.28999999165534973,-1.9954754114151],"type":"VEC3"},{"bufferView":9,"componentType":5126,"count":1373,"type":"VEC3"},{"bufferView":10,"componentType":5126,"count":1373,"type":"VEC2"},{"bufferView":11,"componentType":5123,"count":2112,"type":"SCALAR"},{"bufferView":12,"componentType":5126,"count":860,"max":[1.1030395030975342,3.0399999618530273,1.1030395030975342],"min":[-1.1030395030975342,0.5699999928474426,-1.1030395030975342],"type":"VEC3"},{"bufferView":13,"componentType":5126,"count":860,"type":"VEC3"},{"bufferView":14,"componentType":5126,"count":860,"type":"VEC2"},{"bufferView":15,"componentType":5123,"count":1272,"type":"SCALAR"}],"asset":{"generator":"Khronos glTF Blender I/O v5.2.40","version":"2.0"},"bufferViews":[{"buffer":0,"byteLength":21936,"byteOffset":0,"target":34962},{"buffer":0,"byteLength":21936,"byteOffset":21936,"target":34962},{"buffer":0,"byteLength":14624,"byteOffset":43872,"target":34962},{"buffer":0,"byteLength":6336,"byteOffset":58496,"target":34963},{"buffer":0,"byteLength":5184,"byteOffset":64832,"target":34962},{"buffer":0,"byteLength":5184,"byteOffset":70016,"target":34962},{"buffer":0,"byteLength":3456,"byteOffset":75200,"target":34962},{"buffer":0,"byteLength":1656,"byteOffset":78656,"target":34963},{"buffer":0,"byteLength":16476,"byteOffset":80312,"target":34962},{"buffer":0,"byteLength":16476,"byteOffset":96788,"target":34962},{"buffer":0,"byteLength":10984,"byteOffset":113264,"target":34962},{"buffer":0,"byteLength":4224,"byteOffset":124248,"target":34963},{"buffer":0,"byteLength":10320,"byteOffset":128472,"target":34962},{"buffer":0,"byteLength":10320,"byteOffset":138792,"target":34962},{"buffer":0,"byteLength":6880,"byteOffset":149112,"target":34962},{"buffer":0,"byteLength":2544,"byteOffset":155992,"target":34963}],"buffers":[{"byteLength":158536,"uri":"fountain.bin"}],"images":[],"materials":[{"doubleSided":true,"name":"Fountain_Stone","pbrMetallicRoughness":{"baseColorFactor":[0.7400000095367432,0.699999988079071,0.6200000047683716,1],"metallicFactor":0,"roughnessFactor":0.8500000238418579}},{"doubleSided":true,"name":"Fountain_Water","pbrMetallicRoughness":{"baseColorFactor":[0.10000000149011612,0.36000001430511475,0.6200000047683716,1],"metallicFactor":0,"roughnessFactor":0.15000000596046448}},{"doubleSided":true,"name":"Fountain_Trim","pbrMetallicRoughness":{"baseColorFactor":[0.5600000023841858,0.5299999713897705,0.47999998927116394,1],"metallicFactor":0,"roughnessFactor":0.8500000238418579}},{"doubleSided":true,"name":"Fountain_Spill","pbrMetallicRoughness":{"baseColorFactor":[0.4000000059604645,0.699999988079071,0.8999999761581421,1],"metallicFactor":0,"roughnessFactor":0.10000000149011612}}],"meshes":[{"name":"Fountain","primitives":[{"attributes":{"NORMAL":1,"POSITION":0,"TEXCOORD_0":2},"indices":3,"material":0},{"attributes":{"NORMAL":5,"POSITION":4,"TEXCOORD_0":6},"indices":7,"material":1},{"attributes":{"NORMAL":9,"POSITION":8,"TEXCOORD_0":10},"indices":11,"material":2},{"attributes":{"NORMAL":13,"POSITION":12,"TEXCOORD_0":14},"indices":15,"material":3}]}],"nodes":[{"mesh":0,"name":"Fountain"}],"scene":0,"scenes":[{"name":"Scene","nodes":[0]}],"textures":[]}
