{"accessors":[{"bufferView":0,"componentType":5126,"count":156,"type":"VEC3"},{"bufferView":1,"componentType":5126,"count":156,"max":[1.5,1.7100000381469727,1.5],"min":[-1.5,0,-1.5],"type":"VEC3"},{"bufferView":2,"componentType":5123,"count":276,"type":"SCALAR"},{"bufferView":3,"componentType":5126,"count":128,"type":"VEC3"},{"bufferView":4,"componentType":5126,"count":128,"max":[1.6200000047683716,0.6800000071525574,1.6200000047683716],"min":[-1.6200000047683716,0.47999998927116394,-1.6200000047683716],"type":"VEC3"},{"bufferView":5,"componentType":5123,"count":192,"type":"SCALAR"},{"bufferView":6,"componentType":5126,"count":108,"type":"VEC3"},{"bufferView":7,"componentType":5126,"count":108,"max":[1.4600000381469727,1.7350000143051147,1.4600000381469727],"min":[-1.4600000381469727,0.5400000214576721,-1.4600000381469727],"type":"VEC3"},{"bufferView":8,"componentType":5123,"count":192,"type":"SCALAR"},{"bufferView":9,"componentType":5126,"count":36,"type":"VEC3"},{"bufferView":10,"componentType":5126,"count":36,"max":[0.060621775686740875,2.3999998569488525,0.07000000029802322],"min":[-0.060621775686740875,1.6999999284744263,-0.07000000029802322],"type":"VEC3"},{"bufferView":11,"componentType":5123,"count":60,"type":"SCALAR"}],"asset":{"generator":"Khronos glTF Blender I/O v5.2.40","version":"2.0"},"bufferViews":[{"buffer":0,"byteOffset":0,"byteLength":1872,"target":34962},{"buffer":0,"byteOffset":1872,"byteLength":1872,"target":34962},{"buffer":0,"byteOffset":3744,"byteLength":552,"target":34963},{"buffer":0,"byteOffset":4296,"byteLength":1536,"target":34962},{"buffer":0,"byteOffset":5832,"byteLength":1536,"target":34962},{"buffer":0,"byteOffset":7368,"byteLength":384,"target":34963},{"buffer":0,"byteOffset":7752,"byteLength":1296,"target":34962},{"buffer":0,"byteOffset":9048,"byteLength":1296,"target":34962},{"buffer":0,"byteOffset":10344,"byteLength":384,"target":34963},{"buffer":0,"byteOffset":10728,"byteLength":432,"target":34962},{"buffer":0,"byteOffset":11160,"byteLength":432,"target":34962},{"buffer":0,"byteOffset":11592,"byteLength":120,"target":34963}],"buffers":[{"byteLength":11712,"uri":"fountain_small.bin"}],"images":[],"materials":[{"doubleSided":true,"name":"Prop_Stone","pbrMetallicRoughness":{"baseColorFactor":[0.41999998688697815,0.4000000059604645,0.36000001430511475,1],"metallicFactor":0,"roughnessFactor":0.949999988079071}},{"doubleSided":true,"name":"Prop_StoneDark","pbrMetallicRoughness":{"baseColorFactor":[0.25999999046325684,0.25,0.23000000417232513,1],"metallicFactor":0,"roughnessFactor":0.949999988079071}},{"doubleSided":true,"name":"Fountain_Water","pbrMetallicRoughness":{"baseColorFactor":[0.10000000149011612,0.36000001430511475,0.6200000047683716,1],"metallicFactor":0,"roughnessFactor":0.15000000596046448}},{"doubleSided":true,"name":"Fountain_Spill","pbrMetallicRoughness":{"baseColorFactor":[0.4000000059604645,0.699999988079071,0.8999999761581421,1],"metallicFactor":0,"roughnessFactor":0.10000000149011612}}],"meshes":[{"name":"fountain_small","primitives":[{"attributes":{"NORMAL":0,"POSITION":1},"indices":2,"material":0},{"attributes":{"NORMAL":3,"POSITION":4},"indices":5,"material":1},{"attributes":{"NORMAL":6,"POSITION":7},"indices":8,"material":2},{"attributes":{"NORMAL":9,"POSITION":10},"indices":11,"material":3}]}],"nodes":[{"mesh":0,"name":"fountain_small"}],"scene":0,"scenes":[{"name":"Scene","nodes":[0]}],"textures":[]}