{"accessors":[{"bufferView":0,"componentType":5126,"count":144,"max":[1.2571296691894531,3.679999828338623,1.2414896488189697],"min":[-1.310723066329956,1.5199998617172241,-1.3263630867004395],"type":"VEC3"},{"bufferView":1,"componentType":5126,"count":144,"type":"VEC3"},{"bufferView":2,"componentType":5126,"count":144,"type":"VEC2"},{"bufferView":3,"componentType":5123,"count":192,"type":"SCALAR"},{"bufferView":4,"componentType":5126,"count":30,"max":[0.134882852435112,1.7999999523162842,0.09509623050689697],"min":[-0.18847636878490448,0,-0.21243666112422943],"type":"VEC3"},{"bufferView":5,"componentType":5126,"count":30,"type":"VEC3"},{"bufferView":6,"componentType":5126,"count":30,"type":"VEC2"},{"bufferView":7,"componentType":5123,"count":48,"type":"SCALAR"},{"bufferView":8,"componentType":5126,"count":98,"max":[1.3518919944763184,4.099999904632568,0.4733869433403015],"min":[-0.3054856061935425,2.4000000953674316,-1.1424367427825928],"type":"VEC3"},{"bufferView":9,"componentType":5126,"count":98,"type":"VEC3"},{"bufferView":10,"componentType":5126,"count":98,"type":"VEC2"},{"bufferView":11,"componentType":5123,"count":126,"type":"SCALAR"},{"bufferView":12,"componentType":5126,"count":400,"max":[0.7696713805198669,3.1815192699432373,1.3263630867004395],"min":[-1.3518919944763184,2.2624363899230957,-1.1783640384674072],"type":"VEC3"},{"bufferView":13,"componentType":5126,"count":400,"type":"VEC3"},{"bufferView":14,"componentType":5126,"count":400,"type":"VEC2"},{"bufferView":15,"componentType":5123,"count":480,"type":"SCALAR"}],"asset":{"generator":"Khronos glTF Blender I/O v5.2.40","version":"2.0"},"bufferViews":[{"buffer":0,"byteLength":1728,"byteOffset":0,"target":34962},{"buffer":0,"byteLength":1728,"byteOffset":1728,"target":34962},{"buffer":0,"byteLength":1152,"byteOffset":3456,"target":34962},{"buffer":0,"byteLength":384,"byteOffset":4608,"target":34963},{"buffer":0,"byteLength":360,"byteOffset":4992,"target":34962},{"buffer":0,"byteLength":360,"byteOffset":5352,"target":34962},{"buffer":0,"byteLength":240,"byteOffset":5712,"target":34962},{"buffer":0,"byteLength":96,"byteOffset":5952,"target":34963},{"buffer":0,"byteLength":1176,"byteOffset":6048,"target":34962},{"buffer":0,"byteLength":1176,"byteOffset":7224,"target":34962},{"buffer":0,"byteLength":784,"byteOffset":8400,"target":34962},{"buffer":0,"byteLength":252,"byteOffset":9184,"target":34963},{"buffer":0,"byteLength":4800,"byteOffset":9436,"target":34962},{"buffer":0,"byteLength":4800,"byteOffset":14236,"target":34962},{"buffer":0,"byteLength":3200,"byteOffset":19036,"target":34962},{"buffer":0,"byteLength":960,"byteOffset":22236,"target":34963}],"buffers":[{"byteLength":23196,"uri":"fruit_tree.bin"}],"images":[],"materials":[{"doubleSided":true,"name":"Prop_Leaf","pbrMetallicRoughness":{"baseColorFactor":[0.07000000029802322,0.20000000298023224,0.03999999910593033,1],"metallicFactor":0,"roughnessFactor":0.8999999761581421}},{"doubleSided":true,"name":"Prop_Bark","pbrMetallicRoughness":{"baseColorFactor":[0.1599999964237213,0.07999999821186066,0.03500000014901161,1],"metallicFactor":0,"roughnessFactor":0.8999999761581421}},{"doubleSided":true,"name":"Prop_CanopyLight","pbrMetallicRoughness":{"baseColorFactor":[0.11999999731779099,0.27000001072883606,0.05000000074505806,1],"metallicFactor":0,"roughnessFactor":0.8999999761581421}},{"doubleSided":true,"name":"Prop_Fruit","pbrMetallicRoughness":{"baseColorFactor":[0.6200000047683716,0.05999999865889549,0.029999999329447746,1],"metallicFactor":0,"roughnessFactor":0.6000000238418579}}],"meshes":[{"name":"fruit_tree","primitives":[{"attributes":{"NORMAL":1,"POSITION":0,"TEXCOORD_0":2},"indices":3,"material":0},{"attributes":{"NORMAL":5,"POSITION":4,"TEXCOORD_0":6},"indices":7,"material":1},{"attributes":{"NORMAL":9,"POSITION":8,"TEXCOORD_0":10},"indices":11,"material":2},{"attributes":{"NORMAL":13,"POSITION":12,"TEXCOORD_0":14},"indices":15,"material":3}]}],"nodes":[{"mesh":0,"name":"fruit_tree"}],"scene":0,"scenes":[{"name":"Scene","nodes":[0]}],"textures":[]}
