{"accessors":[{"bufferView":0,"componentType":5126,"count":78,"type":"VEC3"},{"bufferView":1,"componentType":5126,"count":78,"max":[0.6275076866149902,2.3529839515686035,0.053446441888809204],"min":[-0.5139527320861816,0,-0.4401625394821167],"type":"VEC3"},{"bufferView":2,"componentType":5123,"count":120,"type":"SCALAR"},{"bufferView":3,"componentType":5126,"count":480,"type":"VEC3"},{"bufferView":4,"componentType":5126,"count":480,"max":[1.3016570806503296,3.625,1.312369704246521],"min":[-1.3335241079330444,1.6750001907348633,-1.312369704246521],"type":"VEC3"},{"bufferView":5,"componentType":5123,"count":624,"type":"SCALAR"},{"bufferView":6,"componentType":5126,"count":252,"type":"VEC3"},{"bufferView":7,"componentType":5126,"count":252,"max":[1.407760739326477,3.2013678550720215,0.6600731611251831],"min":[-1.407760739326477,2.0426125526428223,-0.7054569125175476],"type":"VEC3"},{"bufferView":8,"componentType":5123,"count":324,"type":"SCALAR"}],"asset":{"generator":"Khronos glTF Blender I/O v5.2.40","version":"2.0"},"bufferViews":[{"buffer":0,"byteOffset":0,"byteLength":936,"target":34962},{"buffer":0,"byteOffset":936,"byteLength":936,"target":34962},{"buffer":0,"byteOffset":1872,"byteLength":240,"target":34963},{"buffer":0,"byteOffset":2112,"byteLength":5760,"target":34962},{"buffer":0,"byteOffset":7872,"byteLength":5760,"target":34962},{"buffer":0,"byteOffset":13632,"byteLength":1248,"target":34963},{"buffer":0,"byteOffset":14880,"byteLength":3024,"target":34962},{"buffer":0,"byteOffset":17904,"byteLength":3024,"target":34962},{"buffer":0,"byteOffset":20928,"byteLength":648,"target":34963}],"buffers":[{"byteLength":21576,"uri":"fruit_tree_bloom.bin"}],"images":[],"materials":[{"doubleSided":true,"name":"Prop_Bark","pbrMetallicRoughness":{"baseColorFactor":[0.1599999964237213,0.07999999821186066,0.03500000014901161,1],"metallicFactor":0,"roughnessFactor":0.8999999761581421}},{"doubleSided":true,"name":"Prop_Blossom","pbrMetallicRoughness":{"baseColorFactor":[0.9200000166893005,0.550000011920929,0.6600000262260437,1],"metallicFactor":0,"roughnessFactor":0.800000011920929}},{"doubleSided":true,"name":"Prop_BlossomWhite","pbrMetallicRoughness":{"baseColorFactor":[0.949999988079071,0.8799999952316284,0.8999999761581421,1],"metallicFactor":0,"roughnessFactor":0.800000011920929}}],"meshes":[{"name":"fruit_tree_bloom","primitives":[{"attributes":{"NORMAL":0,"POSITION":1},"indices":2,"material":0},{"attributes":{"NORMAL":3,"POSITION":4},"indices":5,"material":1},{"attributes":{"NORMAL":6,"POSITION":7},"indices":8,"material":2}]}],"nodes":[{"mesh":0,"name":"fruit_tree_bloom"}],"scene":0,"scenes":[{"name":"Scene","nodes":[0]}],"textures":[]}