{"accessors":[{"bufferView":0,"componentType":5126,"count":24,"type":"VEC3"},{"bufferView":1,"componentType":5126,"count":24,"max":[0.0015547871589660645,3.0042617321014404,0.20000000298023224],"min":[-1.6015548706054688,0.34573817253112793,0.14000000059604645],"type":"VEC3"},{"bufferView":2,"componentType":5123,"count":36,"type":"SCALAR"},{"bufferView":3,"componentType":5126,"count":24,"type":"VEC3"},{"bufferView":4,"componentType":5126,"count":24,"max":[1.6015548706054688,3.0042617321014404,0.20000000298023224],"min":[-0.0015547871589660645,0.34573817253112793,0.14000000059604645],"type":"VEC3"},{"bufferView":5,"componentType":5126,"count":24,"type":"VEC3"},{"bufferView":6,"componentType":5126,"count":24,"max":[0.6000000238418579,8,-5.400000095367432],"min":[-0.6000000238418579,6.900000095367432,-6.599999904632568],"type":"VEC3"},{"bufferView":7,"componentType":5123,"count":36,"type":"SCALAR"},{"bufferView":8,"componentType":5126,"count":16,"type":"VEC3"},{"bufferView":9,"componentType":5126,"count":16,"max":[0.7071067690849304,8.800000190734863,-5.292893409729004],"min":[-0.7071067690849304,8,-6.707106590270996],"type":"VEC3"},{"bufferView":10,"componentType":5126,"count":16,"type":"VEC2"},{"bufferView":11,"componentType":5123,"count":24,"type":"SCALAR"},{"bufferView":12,"componentType":5126,"count":24,"type":"VEC3"},{"bufferView":13,"componentType":5126,"count":24,"max":[0,3.049999952316284,0.14000000059604645],"min":[-1.600000023841858,0.30000001192092896,0.05999999865889549],"type":"VEC3"},{"bufferView":14,"componentType":5126,"count":24,"type":"VEC3"},{"bufferView":15,"componentType":5126,"count":24,"max":[1.600000023841858,3.049999952316284,0.14000000059604645],"min":[0,0.30000001192092896,0.05999999865889549],"type":"VEC3"},{"bufferView":16,"componentType":5126,"count":24,"type":"VEC3"},{"bufferView":17,"componentType":5126,"count":24,"max":[0,0.41999998688697815,0.20000000298023224],"min":[-1.600000023841858,0.30000001192092896,0.14000000059604645],"type":"VEC3"},{"bufferView":18,"componentType":5126,"count":24,"type":"VEC3"},{"bufferView":19,"componentType":5126,"count":24,"max":[0,3.049999952316284,0.20000000298023224],"min":[-1.600000023841858,2.930000066757202,0.14000000059604645],"type":"VEC3"},{"bufferView":20,"componentType":5126,"count":24,"type":"VEC3"},{"bufferView":21,"componentType":5126,"count":24,"max":[-1.4800000190734863,3.049999952316284,0.20000000298023224],"min":[-1.600000023841858,0.30000001192092896,0.14000000059604645],"type":"VEC3"},{"bufferView":22,"componentType":5126,"count":24,"type":"VEC3"},{"bufferView":23,"componentType":5126,"count":24,"max":[0,3.049999952316284,0.20000000298023224],"min":[-0.11999999731779099,0.30000001192092896,0.14000000059604645],"type":"VEC3"},{"bufferView":24,"componentType":5126,"count":24,"type":"VEC3"},{"bufferView":25,"componentType":5126,"count":24,"max":[1.600000023841858,0.41999998688697815,0.20000000298023224],"min":[0,0.30000001192092896,0.14000000059604645],"type":"VEC3"},{"bufferView":26,"componentType":5126,"count":24,"type":"VEC3"},{"bufferView":27,"componentType":5126,"count":24,"max":[1.600000023841858,3.049999952316284,0.20000000298023224],"min":[0,2.930000066757202,0.14000000059604645],"type":"VEC3"},{"bufferView":28,"componentType":5126,"count":24,"type":"VEC3"},{"bufferView":29,"componentType":5126,"count":24,"max":[0.11999999731779099,3.049999952316284,0.20000000298023224],"min":[0,0.30000001192092896,0.14000000059604645],"type":"VEC3"},{"bufferView":30,"componentType":5126,"count":24,"type":"VEC3"},{"bufferView":31,"componentType":5126,"count":24,"max":[1.600000023841858,3.049999952316284,0.20000000298023224],"min":[1.4800000190734863,0.30000001192092896,0.14000000059604645],"type":"VEC3"},{"bufferView":32,"componentType":5126,"count":20,"type":"VEC3"},{"bufferView":33,"componentType":5126,"count":20,"max":[5.199999809265137,0.30000001192092896,0.20000000298023224],"min":[-5.199999809265137,0,-12.199999809265137],"type":"VEC3"},{"bufferView":34,"componentType":5126,"count":20,"type":"VEC2"},{"bufferView":35,"componentType":5123,"count":30,"type":"SCALAR"},{"bufferView":36,"componentType":5126,"count":5,"type":"VEC3"},{"bufferView":37,"componentType":5126,"count":5,"max":[5,6.980000019073486,0.10000000149011612],"min":[-5,3.5999999046325684,0.10000000149011612],"type":"VEC3"},{"bufferView":38,"componentType":5123,"count":9,"type":"SCALAR"},{"bufferView":39,"componentType":5126,"count":5,"type":"VEC3"},{"bufferView":40,"componentType":5126,"count":5,"max":[5,6.980000019073486,-12.100000381469727],"min":[-5,3.5999999046325684,-12.100000381469727],"type":"VEC3"},{"bufferView":41,"componentType":5126,"count":24,"type":"VEC3"},{"bufferView":42,"componentType":5126,"count":24,"max":[-3.1713316440582275,5.899999618530273,0.34999990463256836],"min":[-5.2674760818481445,3.1430180072784424,-12.350000381469727],"type":"VEC3"},{"bufferView":43,"componentType":5126,"count":24,"type":"VEC2"},{"bufferView":44,"componentType":5123,"count":36,"type":"SCALAR"},{"bufferView":45,"componentType":5126,"count":24,"type":"VEC3"},{"bufferView":46,"componentType":5126,"count":24,"max":[0.054678916931152344,7.100000381469727,0.34999990463256836],"min":[-3.299999952316284,5.749633312225342,-12.350000381469727],"type":"VEC3"},{"bufferView":47,"componentType":5126,"count":24,"type":"VEC2"},{"bufferView":48,"componentType":5123,"count":36,"type":"SCALAR"},{"bufferView":49,"componentType":5126,"count":24,"type":"VEC3"},{"bufferView":50,"componentType":5126,"count":24,"max":[5.267475605010986,5.900000095367432,0.34999990463256836],"min":[3.1713318824768066,3.1430180072784424,-12.350000381469727],"type":"VEC3"},{"bufferView":51,"componentType":5126,"count":24,"type":"VEC2"},{"bufferView":52,"componentType":5126,"count":24,"type":"VEC3"},{"bufferView":53,"componentType":5126,"count":24,"max":[3.299999952316284,7.099999904632568,0.34999990463256836],"min":[-0.05467890202999115,5.749632835388184,-12.350000381469727],"type":"VEC3"},{"bufferView":54,"componentType":5126,"count":24,"type":"VEC2"},{"bufferView":55,"componentType":5123,"count":36,"type":"SCALAR"},{"bufferView":56,"componentType":5126,"count":24,"type":"VEC3"},{"bufferView":57,"componentType":5126,"count":24,"max":[0.07999999821186066,5.900000095367432,0.8999999761581421],"min":[-0.07999999821186066,5.75,0],"type":"VEC3"},{"bufferView":58,"componentType":5126,"count":24,"type":"VEC2"},{"bufferView":59,"componentType":5126,"count":24,"type":"VEC3"},{"bufferView":60,"componentType":5126,"count":24,"max":[0.699999988079071,5.599999904632568,0.10000000149011612],"min":[-0.699999988079071,4.199999809265137,0.019999999552965164],"type":"VEC3"},{"bufferView":61,"componentType":5126,"count":24,"type":"VEC3"},{"bufferView":62,"componentType":5126,"count":24,"max":[0.800000011920929,4.199999809265137,0.14000000059604645],"min":[-0.800000011920929,4.099999904632568,0.05999999865889549],"type":"VEC3"},{"bufferView":63,"componentType":5126,"count":24,"type":"VEC3"},{"bufferView":64,"componentType":5126,"count":24,"max":[0.800000011920929,5.699999809265137,0.14000000059604645],"min":[-0.800000011920929,5.599999904632568,0.05999999865889549],"type":"VEC3"},{"bufferView":65,"componentType":5126,"count":24,"type":"VEC3"},{"bufferView":66,"componentType":5126,"count":24,"max":[-0.699999988079071,5.699999809265137,0.14000000059604645],"min":[-0.800000011920929,4.099999904632568,0.05999999865889549],"type":"VEC3"},{"bufferView":67,"componentType":5126,"count":24,"type":"VEC3"},{"bufferView":68,"componentType":5126,"count":24,"max":[0.800000011920929,5.699999809265137,0.14000000059604645],"min":[0.699999988079071,4.099999904632568,0.05999999865889549],"type":"VEC3"},{"bufferView":69,"componentType":5126,"count":24,"type":"VEC3"},{"bufferView":70,"componentType":5126,"count":24,"max":[-1.7000000476837158,3.5999999046325684,0.10000000149011612],"min":[-5,0.30000001192092896,-0.10000000149011612],"type":"VEC3"},{"bufferView":71,"componentType":5126,"count":24,"type":"VEC3"},{"bufferView":72,"componentType":5126,"count":24,"max":[5,3.5999999046325684,0.10000000149011612],"min":[1.7000000476837158,0.30000001192092896,-0.10000000149011612],"type":"VEC3"},{"bufferView":73,"componentType":5126,"count":24,"type":"VEC3"},{"bufferView":74,"componentType":5126,"count":24,"max":[1.7000000476837158,3.5999999046325684,0.10000000149011612],"min":[-1.7000000476837158,3.0999999046325684,-0.10000000149011612],"type":"VEC3"},{"bufferView":75,"componentType":5126,"count":24,"type":"VEC3"},{"bufferView":76,"componentType":5126,"count":24,"max":[5,3.5999999046325684,-11.899999618530273],"min":[-5,0.30000001192092896,-12.100000381469727],"type":"VEC3"},{"bufferView":77,"componentType":5126,"count":24,"type":"VEC3"},{"bufferView":78,"componentType":5126,"count":24,"max":[-4.900000095367432,3.5999999046325684,-0.10000000149011612],"min":[-5.099999904632568,0.30000001192092896,-11.899999618530273],"type":"VEC3"},{"bufferView":79,"componentType":5126,"count":24,"type":"VEC3"},{"bufferView":80,"componentType":5126,"count":24,"max":[5.099999904632568,3.5999999046325684,-0.10000000149011612],"min":[4.900000095367432,0.30000001192092896,-11.899999618530273],"type":"VEC3"}],"asset":{"generator":"Khronos glTF Blender I/O v5.2.40","version":"2.0"},"bufferViews":[{"buffer":0,"byteOffset":0,"byteLength":288,"target":34962},{"buffer":0,"byteOffset":288,"byteLength":288,"target":34962},{"buffer":0,"byteOffset":576,"byteLength":72,"target":34963},{"buffer":0,"byteOffset":648,"byteLength":288,"target":34962},{"buffer":0,"byteOffset":936,"byteLength":288,"target":34962},{"buffer":0,"byteOffset":1224,"byteLength":288,"target":34962},{"buffer":0,"byteOffset":1512,"byteLength":288,"target":34962},{"buffer":0,"byteOffset":1800,"byteLength":72,"target":34963},{"buffer":0,"byteOffset":1872,"byteLength":192,"target":34962},{"buffer":0,"byteOffset":2064,"byteLength":192,"target":34962},{"buffer":0,"byteOffset":2256,"byteLength":128,"target":34962},{"buffer":0,"byteOffset":2384,"byteLength":48,"target":34963},{"buffer":0,"byteOffset":2432,"byteLength":288,"target":34962},{"buffer":0,"byteOffset":2720,"byteLength":288,"target":34962},{"buffer":0,"byteOffset":3008,"byteLength":288,"target":34962},{"buffer":0,"byteOffset":3296,"byteLength":288,"target":34962},{"buffer":0,"byteOffset":3584,"byteLength":288,"target":34962},{"buffer":0,"byteOffset":3872,"byteLength":288,"target":34962},{"buffer":0,"byteOffset":4160,"byteLength":288,"target":34962},{"buffer":0,"byteOffset":4448,"byteLength":288,"target":34962},{"buffer":0,"byteOffset":4736,"byteLength":288,"target":34962},{"buffer":0,"byteOffset":5024,"byteLength":288,"target":34962},{"buffer":0,"byteOffset":5312,"byteLength":288,"target":34962},{"buffer":0,"byteOffset":5600,"byteLength":288,"target":34962},{"buffer":0,"byteOffset":5888,"byteLength":288,"target":34962},{"buffer":0,"byteOffset":6176,"byteLength":288,"target":34962},{"buffer":0,"byteOffset":6464,"byteLength":288,"target":34962},{"buffer":0,"byteOffset":6752,"byteLength":288,"target":34962},{"buffer":0,"byteOffset":7040,"byteLength":288,"target":34962},{"buffer":0,"byteOffset":7328,"byteLength":288,"target":34962},{"buffer":0,"byteOffset":7616,"byteLength":288,"target":34962},{"buffer":0,"byteOffset":7904,"byteLength":288,"target":34962},{"buffer":0,"byteOffset":8192,"byteLength":240,"target":34962},{"buffer":0,"byteOffset":8432,"byteLength":240,"target":34962},{"buffer":0,"byteOffset":8672,"byteLength":160,"target":34962},{"buffer":0,"byteOffset":8832,"byteLength":60,"target":34963},{"buffer":0,"byteOffset":8892,"byteLength":60,"target":34962},{"buffer":0,"byteOffset":8952,"byteLength":60,"target":34962},{"buffer":0,"byteOffset":9012,"byteLength":18,"target":34963},{"buffer":0,"byteOffset":9032,"byteLength":60,"target":34962},{"buffer":0,"byteOffset":9092,"byteLength":60,"target":34962},{"buffer":0,"byteOffset":9152,"byteLength":288,"target":34962},{"buffer":0,"byteOffset":9440,"byteLength":288,"target":34962},{"buffer":0,"byteOffset":9728,"byteLength":192,"target":34962},{"buffer":0,"byteOffset":9920,"byteLength":72,"target":34963},{"buffer":0,"byteOffset":9992,"byteLength":288,"target":34962},{"buffer":0,"byteOffset":10280,"byteLength":288,"target":34962},{"buffer":0,"byteOffset":10568,"byteLength":192,"target":34962},{"buffer":0,"byteOffset":10760,"byteLength":72,"target":34963},{"buffer":0,"byteOffset":10832,"byteLength":288,"target":34962},{"buffer":0,"byteOffset":11120,"byteLength":288,"target":34962},{"buffer":0,"byteOffset":11408,"byteLength":192,"target":34962},{"buffer":0,"byteOffset":11600,"byteLength":288,"target":34962},{"buffer":0,"byteOffset":11888,"byteLength":288,"target":34962},{"buffer":0,"byteOffset":12176,"byteLength":192,"target":34962},{"buffer":0,"byteOffset":12368,"byteLength":72,"target":34963},{"buffer":0,"byteOffset":12440,"byteLength":288,"target":34962},{"buffer":0,"byteOffset":12728,"byteLength":288,"target":34962},{"buffer":0,"byteOffset":13016,"byteLength":192,"target":34962},{"buffer":0,"byteOffset":13208,"byteLength":288,"target":34962},{"buffer":0,"byteOffset":13496,"byteLength":288,"target":34962},{"buffer":0,"byteOffset":13784,"byteLength":288,"target":34962},{"buffer":0,"byteOffset":14072,"byteLength":288,"target":34962},{"buffer":0,"byteOffset":14360,"byteLength":288,"target":34962},{"buffer":0,"byteOffset":14648,"byteLength":288,"target":34962},{"buffer":0,"byteOffset":14936,"byteLength":288,"target":34962},{"buffer":0,"byteOffset":15224,"byteLength":288,"target":34962},{"buffer":0,"byteOffset":15512,"byteLength":288,"target":34962},{"buffer":0,"byteOffset":15800,"byteLength":288,"target":34962},{"buffer":0,"byteOffset":16088,"byteLength":288,"target":34962},{"buffer":0,"byteOffset":16376,"byteLength":288,"target":34962},{"buffer":0,"byteOffset":16664,"byteLength":288,"target":34962},{"buffer":0,"byteOffset":16952,"byteLength":288,"target":34962},{"buffer":0,"byteOffset":17240,"byteLength":288,"target":34962},{"buffer":0,"byteOffset":17528,"byteLength":288,"target":34962},{"buffer":0,"byteOffset":17816,"byteLength":288,"target":34962},{"buffer":0,"byteOffset":18104,"byteLength":288,"target":34962},{"buffer":0,"byteOffset":18392,"byteLength":288,"target":34962},{"buffer":0,"byteOffset":18680,"byteLength":288,"target":34962},{"buffer":0,"byteOffset":18968,"byteLength":288,"target":34962},{"buffer":0,"byteOffset":19256,"byteLength":288,"target":34962}],"buffers":[{"byteLength":19544,"uri":"gambrel_barn.bin"}],"images":[{"name":"T_RoundTiles_Luma","uri":"../village/T_RoundTiles_Luma.png"},{"name":"T_UnevenBrick_BaseColor","uri":"../village/T_UnevenBrick_BaseColor.png"},{"name":"T_WoodTrim_BaseColor","uri":"../village/T_WoodTrim_BaseColor.png"}],"materials":[{"doubleSided":true,"name":"WhitePaint","pbrMetallicRoughness":{"baseColorFactor":[0.8275708556175232,0.8073459267616272,0.7105664610862732,1],"metallicFactor":0,"roughnessFactor":0.6000000238418579}},{"doubleSided":true,"name":"Tiles_charcoal","pbrMetallicRoughness":{"baseColorFactor":[0.1165,0.1149,0.1269,1.0],"baseColorTexture":{"index":0},"metallicFactor":0,"roughnessFactor":0.699999988079071}},{"doubleSided":true,"name":"BarnRed","pbrMetallicRoughness":{"baseColorFactor":[0.21404114365577698,0.011645430698990822,0.005981059744954109,1],"metallicFactor":0,"roughnessFactor":0.8999999761581421}},{"doubleSided":true,"name":"Stone","pbrMetallicRoughness":{"baseColorFactor":[1.0,0.9974,0.9977,1.0],"baseColorTexture":{"index":1},"metallicFactor":0,"roughnessFactor":0.8500000238418579}},{"doubleSided":true,"name":"Wood_dark","pbrMetallicRoughness":{"baseColorFactor":[0.2329,0.2659,0.2944,1.0],"baseColorTexture":{"index":2},"metallicFactor":0,"roughnessFactor":0.8500000238418579}}],"meshes":[{"name":"Brace","primitives":[{"attributes":{"NORMAL":0,"POSITION":1},"indices":2,"material":0}]},{"name":"Brace.001","primitives":[{"attributes":{"NORMAL":3,"POSITION":4},"indices":2,"material":0}]},{"name":"Cupola","primitives":[{"attributes":{"NORMAL":5,"POSITION":6},"indices":7,"material":0}]},{"name":"CupolaRoof","primitives":[{"attributes":{"NORMAL":8,"POSITION":9,"TEXCOORD_0":10},"indices":11,"material":1}]},{"name":"Door","primitives":[{"attributes":{"NORMAL":12,"POSITION":13},"indices":7,"material":2}]},{"name":"Door.001","primitives":[{"attributes":{"NORMAL":14,"POSITION":15},"indices":7,"material":2}]},{"name":"DoorFrame","primitives":[{"attributes":{"NORMAL":16,"POSITION":17},"indices":7,"material":0}]},{"name":"DoorFrame.001","primitives":[{"attributes":{"NORMAL":18,"POSITION":19},"indices":7,"material":0}]},{"name":"DoorFrame.002","primitives":[{"attributes":{"NORMAL":20,"POSITION":21},"indices":7,"material":0}]},{"name":"DoorFrame.003","primitives":[{"attributes":{"NORMAL":22,"POSITION":23},"indices":7,"material":0}]},{"name":"DoorFrame.004","primitives":[{"attributes":{"NORMAL":24,"POSITION":25},"indices":7,"material":0}]},{"name":"DoorFrame.005","primitives":[{"attributes":{"NORMAL":26,"POSITION":27},"indices":7,"material":0}]},{"name":"DoorFrame.006","primitives":[{"attributes":{"NORMAL":28,"POSITION":29},"indices":7,"material":0}]},{"name":"DoorFrame.007","primitives":[{"attributes":{"NORMAL":30,"POSITION":31},"indices":7,"material":0}]},{"name":"Footing","primitives":[{"attributes":{"NORMAL":32,"POSITION":33,"TEXCOORD_0":34},"indices":35,"material":3}]},{"name":"Gable","primitives":[{"attributes":{"NORMAL":36,"POSITION":37},"indices":38,"material":2}]},{"name":"Gable.001","primitives":[{"attributes":{"NORMAL":39,"POSITION":40},"indices":38,"material":2}]},{"name":"Gambrel","primitives":[{"attributes":{"NORMAL":41,"POSITION":42,"TEXCOORD_0":43},"indices":44,"material":1}]},{"name":"Gambrel.001","primitives":[{"attributes":{"NORMAL":45,"POSITION":46,"TEXCOORD_0":47},"indices":48,"material":1}]},{"name":"Gambrel.002","primitives":[{"attributes":{"NORMAL":49,"POSITION":50,"TEXCOORD_0":51},"indices":2,"material":1}]},{"name":"Gambrel.003","primitives":[{"attributes":{"NORMAL":52,"POSITION":53,"TEXCOORD_0":54},"indices":55,"material":1}]},{"name":"HayBeam","primitives":[{"attributes":{"NORMAL":56,"POSITION":57,"TEXCOORD_0":58},"indices":7,"material":4}]},{"name":"Loft","primitives":[{"attributes":{"NORMAL":59,"POSITION":60},"indices":7,"material":2}]},{"name":"LoftFrame","primitives":[{"attributes":{"NORMAL":61,"POSITION":62},"indices":7,"material":0}]},{"name":"LoftFrame.001","primitives":[{"attributes":{"NORMAL":63,"POSITION":64},"indices":7,"material":0}]},{"name":"LoftFrame.002","primitives":[{"attributes":{"NORMAL":65,"POSITION":66},"indices":7,"material":0}]},{"name":"LoftFrame.003","primitives":[{"attributes":{"NORMAL":67,"POSITION":68},"indices":7,"material":0}]},{"name":"Wall","primitives":[{"attributes":{"NORMAL":69,"POSITION":70},"indices":7,"material":2}]},{"name":"Wall.001","primitives":[{"attributes":{"NORMAL":71,"POSITION":72},"indices":7,"material":2}]},{"name":"Wall.002","primitives":[{"attributes":{"NORMAL":73,"POSITION":74},"indices":7,"material":2}]},{"name":"Wall.003","primitives":[{"attributes":{"NORMAL":75,"POSITION":76},"indices":7,"material":2}]},{"name":"Wall.004","primitives":[{"attributes":{"NORMAL":77,"POSITION":78},"indices":7,"material":2}]},{"name":"Wall.005","primitives":[{"attributes":{"NORMAL":79,"POSITION":80},"indices":7,"material":2}]}],"nodes":[{"mesh":0,"name":"Brace.013"},{"mesh":1,"name":"Brace.019"},{"mesh":2,"name":"Cupola.032"},{"mesh":3,"name":"CupolaRoof.033"},{"mesh":4,"name":"Door.008"},{"mesh":5,"name":"Door.014"},{"mesh":6,"name":"DoorFrame.009"},{"mesh":7,"name":"DoorFrame.010"},{"mesh":8,"name":"DoorFrame.011"},{"mesh":9,"name":"DoorFrame.012"},{"mesh":10,"name":"DoorFrame.015"},{"mesh":11,"name":"DoorFrame.016"},{"mesh":12,"name":"DoorFrame.017"},{"mesh":13,"name":"DoorFrame.018"},{"mesh":14,"name":"Footing.001"},{"mesh":15,"name":"Gable.024"},{"mesh":16,"name":"Gable.025"},{"mesh":17,"name":"Gambrel.020"},{"mesh":18,"name":"Gambrel.021"},{"mesh":19,"name":"Gambrel.022"},{"mesh":20,"name":"Gambrel.023"},{"mesh":21,"name":"HayBeam.031"},{"mesh":22,"name":"Loft.026"},{"mesh":23,"name":"LoftFrame.027"},{"mesh":24,"name":"LoftFrame.028"},{"mesh":25,"name":"LoftFrame.029"},{"mesh":26,"name":"LoftFrame.030"},{"mesh":27,"name":"Wall.002"},{"mesh":28,"name":"Wall.003"},{"mesh":29,"name":"Wall.004"},{"mesh":30,"name":"Wall.005"},{"mesh":31,"name":"Wall.006"},{"mesh":32,"name":"Wall.007"}],"scene":0,"scenes":[{"name":"Scene","nodes":[0,1,2,3,4,5,6,7,8,9,10,11,12,13,14,15,16,17,18,19,20,21,22,23,24,25,26,27,28,29,30,31,32]}],"textures":[{"source":0},{"source":1},{"source":2}]}