{"accessors":[{"bufferView":0,"componentType":5126,"count":64,"type":"VEC3"},{"bufferView":1,"componentType":5126,"count":64,"max":[4.119999885559082,0.6000000238418579,2],"min":[-4.119999885559082,0,-8.119999885559082],"type":"VEC3"},{"bufferView":2,"componentType":5126,"count":64,"type":"VEC2"},{"bufferView":3,"componentType":5123,"count":96,"type":"SCALAR"},{"bufferView":4,"componentType":5126,"count":112,"type":"VEC3"},{"bufferView":5,"componentType":5126,"count":112,"max":[4,6.880000114440918,1.6500000953674316],"min":[-4,0.6000000238418579,-8],"type":"VEC3"},{"bufferView":6,"componentType":5126,"count":112,"type":"VEC2"},{"bufferView":7,"componentType":5123,"count":168,"type":"SCALAR"},{"bufferView":8,"componentType":5126,"count":2080,"type":"VEC3"},{"bufferView":9,"componentType":5126,"count":2080,"max":[4.200000286102295,7.119999885559082,1.5],"min":[-4.200000286102295,0.6000000238418579,-8.5],"type":"VEC3"},{"bufferView":10,"componentType":5126,"count":2080,"type":"VEC2"},{"bufferView":11,"componentType":5123,"count":3120,"type":"SCALAR"},{"bufferView":12,"componentType":5126,"count":44,"type":"VEC3"},{"bufferView":13,"componentType":5126,"count":44,"max":[1.5800000429153442,8.100000381469727,0.05999999865889549],"min":[0.3499999940395355,1.6799999475479126,-6.679999828338623],"type":"VEC3"},{"bufferView":14,"componentType":5123,"count":66,"type":"SCALAR"},{"bufferView":15,"componentType":5126,"count":260,"type":"VEC3"},{"bufferView":16,"componentType":5126,"count":260,"max":[4.03000020980835,6.25,0.029999999329447746],"min":[-4.03000020980835,1.5,-8.030000686645508],"type":"VEC3"},{"bufferView":17,"componentType":5123,"count":390,"type":"SCALAR"},{"bufferView":18,"componentType":5126,"count":400,"type":"VEC3"},{"bufferView":19,"componentType":5126,"count":400,"max":[4.080000400543213,5.199999809265137,0.07999999821186066],"min":[-4.079999923706055,1.5,-8.079999923706055],"type":"VEC3"},{"bufferView":20,"componentType":5123,"count":600,"type":"SCALAR"},{"bufferView":21,"componentType":5126,"count":40,"type":"VEC3"},{"bufferView":22,"componentType":5126,"count":40,"max":[2.809999942779541,1.5099999904632568,0.4000000059604645],"min":[-2.809999942779541,1.3300000429153442,0.2199999988079071],"type":"VEC3"},{"bufferView":23,"componentType":5123,"count":60,"type":"SCALAR"},{"bufferView":24,"componentType":5126,"count":80,"type":"VEC3"},{"bufferView":25,"componentType":5126,"count":80,"max":[2.756666660308838,1.6100000143051147,0.36000001430511475],"min":[-2.756666660308838,1.4500000476837158,0.23999999463558197],"type":"VEC3"},{"bufferView":26,"componentType":5123,"count":120,"type":"SCALAR"},{"bufferView":27,"componentType":5126,"count":40,"type":"VEC3"},{"bufferView":28,"componentType":5126,"count":40,"max":[2.390000104904175,1.6100000143051147,0.36000001430511475],"min":[-2.390000104904175,1.4500000476837158,0.23999999463558197],"type":"VEC3"},{"bufferView":29,"componentType":5126,"count":96,"type":"VEC3"},{"bufferView":30,"componentType":5126,"count":96,"max":[4.130000114440918,3.4000000953674316,0.12999999523162842],"min":[-4.130000114440918,0.6000000238418579,-8.130000114440918],"type":"VEC3"},{"bufferView":31,"componentType":5123,"count":144,"type":"SCALAR"},{"bufferView":32,"componentType":5126,"count":168,"type":"VEC3"},{"bufferView":33,"componentType":5126,"count":168,"max":[4.265000343322754,7,1.9000000953674316],"min":[-4.2649993896484375,2.6815249919891357,-8.449999809265137],"type":"VEC3"},{"bufferView":34,"componentType":5126,"count":168,"type":"VEC2"},{"bufferView":35,"componentType":5123,"count":252,"type":"SCALAR"},{"bufferView":36,"componentType":5126,"count":48,"type":"VEC3"},{"bufferView":37,"componentType":5126,"count":48,"max":[1.8300000429153442,7.840000152587891,-6.070000171661377],"min":[0.9700000286102295,3.4000000953674316,-6.929999828338623],"type":"VEC3"},{"bufferView":38,"componentType":5126,"count":48,"type":"VEC2"},{"bufferView":39,"componentType":5123,"count":72,"type":"SCALAR"}],"asset":{"generator":"Khronos glTF Blender I/O v5.2.40","version":"2.0"},"bufferViews":[{"buffer":0,"byteOffset":0,"byteLength":768,"target":34962},{"buffer":0,"byteOffset":768,"byteLength":768,"target":34962},{"buffer":0,"byteOffset":1536,"byteLength":512,"target":34962},{"buffer":0,"byteOffset":2048,"byteLength":192,"target":34963},{"buffer":0,"byteOffset":2240,"byteLength":1344,"target":34962},{"buffer":0,"byteOffset":3584,"byteLength":1344,"target":34962},{"buffer":0,"byteOffset":4928,"byteLength":896,"target":34962},{"buffer":0,"byteOffset":5824,"byteLength":336,"target":34963},{"buffer":0,"byteOffset":6160,"byteLength":24960,"target":34962},{"buffer":0,"byteOffset":31120,"byteLength":24960,"target":34962},{"buffer":0,"byteOffset":56080,"byteLength":16640,"target":34962},{"buffer":0,"byteOffset":72720,"byteLength":6240,"target":34963},{"buffer":0,"byteOffset":78960,"byteLength":528,"target":34962},{"buffer":0,"byteOffset":79488,"byteLength":528,"target":34962},{"buffer":0,"byteOffset":80016,"byteLength":132,"target":34963},{"buffer":0,"byteOffset":80148,"byteLength":3120,"target":34962},{"buffer":0,"byteOffset":83268,"byteLength":3120,"target":34962},{"buffer":0,"byteOffset":86388,"byteLength":780,"target":34963},{"buffer":0,"byteOffset":87168,"byteLength":4800,"target":34962},{"buffer":0,"byteOffset":91968,"byteLength":4800,"target":34962},{"buffer":0,"byteOffset":96768,"byteLength":1200,"target":34963},{"buffer":0,"byteOffset":97968,"byteLength":480,"target":34962},{"buffer":0,"byteOffset":98448,"byteLength":480,"target":34962},{"buffer":0,"byteOffset":98928,"byteLength":120,"target":34963},{"buffer":0,"byteOffset":99048,"byteLength":960,"target":34962},{"buffer":0,"byteOffset":100008,"byteLength":960,"target":34962},{"buffer":0,"byteOffset":100968,"byteLength":240,"target":34963},{"buffer":0,"byteOffset":101208,"byteLength":480,"target":34962},{"buffer":0,"byteOffset":101688,"byteLength":480,"target":34962},{"buffer":0,"byteOffset":102168,"byteLength":1152,"target":34962},{"buffer":0,"byteOffset":103320,"byteLength":1152,"target":34962},{"buffer":0,"byteOffset":104472,"byteLength":288,"target":34963},{"buffer":0,"byteOffset":104760,"byteLength":2016,"target":34962},{"buffer":0,"byteOffset":106776,"byteLength":2016,"target":34962},{"buffer":0,"byteOffset":108792,"byteLength":1344,"target":34962},{"buffer":0,"byteOffset":110136,"byteLength":504,"target":34963},{"buffer":0,"byteOffset":110640,"byteLength":576,"target":34962},{"buffer":0,"byteOffset":111216,"byteLength":576,"target":34962},{"buffer":0,"byteOffset":111792,"byteLength":384,"target":34962},{"buffer":0,"byteOffset":112176,"byteLength":144,"target":34963}],"buffers":[{"byteLength":112320,"uri":"gambrel_house.bin"}],"images":[{"name":"T_Plaster_Luma","uri":"../village/T_Plaster_Luma.png"},{"name":"T_RockTrim_BaseColor","uri":"../village/T_RockTrim_BaseColor.png"},{"name":"T_RoundTiles_Luma","uri":"../village/T_RoundTiles_Luma.png"},{"name":"T_UnevenBrick_BaseColor","uri":"../village/T_UnevenBrick_BaseColor.png"},{"name":"T_WoodTrim_BaseColor","uri":"../village/T_WoodTrim_BaseColor.png"}],"materials":[{"doubleSided":true,"name":"RockTrim","pbrMetallicRoughness":{"baseColorFactor":[1.0,0.9979,1.0,1.0],"baseColorTexture":{"index":1},"metallicFactor":0,"roughnessFactor":0.8500000238418579}},{"doubleSided":true,"name":"HousePlaster","pbrMetallicRoughness":{"baseColorFactor":[0.656,0.7502,0.4764,1.0],"baseColorTexture":{"index":0},"metallicFactor":0,"roughnessFactor":0.8500000238418579}},{"doubleSided":true,"name":"Wood_dark","pbrMetallicRoughness":{"baseColorFactor":[0.2329,0.2659,0.2944,1.0],"baseColorTexture":{"index":4},"metallicFactor":0,"roughnessFactor":0.8500000238418579}},{"doubleSided":true,"name":"Iron","pbrMetallicRoughness":{"baseColorFactor":[0.0134117491543293,0.0134117491543293,0.015325203537940979,1],"metallicFactor":0,"roughnessFactor":0.5}},{"doubleSided":true,"name":"Glass","pbrMetallicRoughness":{"baseColorFactor":[0.03310476616024971,0.05087608844041824,0.07828831672668457,1],"metallicFactor":0,"roughnessFactor":0.20000000298023224}},{"doubleSided":true,"name":"ShutterPaint","pbrMetallicRoughness":{"baseColorFactor":[0.7105664610862732,0.6738595366477966,0.5382355451583862,1],"metallicFactor":0,"roughnessFactor":0.699999988079071}},{"doubleSided":true,"name":"Leaf","pbrMetallicRoughness":{"baseColorFactor":[0.03310476616024971,0.11928018927574158,0.0134117491543293,1],"metallicFactor":0,"roughnessFactor":0.8999999761581421}},{"doubleSided":true,"name":"Cloth","pbrMetallicRoughness":{"baseColorFactor":[0.34239163994789124,0.03310476616024971,0.021980946883559227,1],"metallicFactor":0,"roughnessFactor":0.8999999761581421}},{"doubleSided":true,"emissiveFactor":[1,0.4479884207248688,0.10048151016235352],"name":"LampGlass","pbrMetallicRoughness":{"baseColorFactor":[1,0.5704815983772278,0.1473190039396286,1],"metallicFactor":0,"roughnessFactor":0.8500000238418579}},{"doubleSided":true,"name":"WhitePaint","pbrMetallicRoughness":{"baseColorFactor":[0.8275708556175232,0.8073459267616272,0.7105664610862732,1],"metallicFactor":0,"roughnessFactor":0.6000000238418579}},{"doubleSided":true,"name":"HouseTiles","pbrMetallicRoughness":{"baseColorFactor":[0.1165,0.1149,0.1269,1.0],"baseColorTexture":{"index":2},"metallicFactor":0,"roughnessFactor":0.699999988079071}},{"doubleSided":true,"name":"Stone","pbrMetallicRoughness":{"baseColorFactor":[1.0,0.9974,0.9977,1.0],"baseColorTexture":{"index":3},"metallicFactor":0,"roughnessFactor":0.8500000238418579}}],"meshes":[{"name":"Plinth","primitives":[{"attributes":{"NORMAL":0,"POSITION":1,"TEXCOORD_0":2},"indices":3,"material":0},{"attributes":{"NORMAL":4,"POSITION":5,"TEXCOORD_0":6},"indices":7,"material":1},{"attributes":{"NORMAL":8,"POSITION":9,"TEXCOORD_0":10},"indices":11,"material":2},{"attributes":{"NORMAL":12,"POSITION":13},"indices":14,"material":3},{"attributes":{"NORMAL":15,"POSITION":16},"indices":17,"material":4},{"attributes":{"NORMAL":18,"POSITION":19},"indices":20,"material":5},{"attributes":{"NORMAL":21,"POSITION":22},"indices":23,"material":6},{"attributes":{"NORMAL":24,"POSITION":25},"indices":26,"material":7},{"attributes":{"NORMAL":27,"POSITION":28},"indices":23,"material":8},{"attributes":{"NORMAL":29,"POSITION":30},"indices":31,"material":9},{"attributes":{"NORMAL":32,"POSITION":33,"TEXCOORD_0":34},"indices":35,"material":10},{"attributes":{"NORMAL":36,"POSITION":37,"TEXCOORD_0":38},"indices":39,"material":11}]}],"nodes":[{"mesh":0,"name":"gambrel_house"}],"scene":0,"scenes":[{"name":"Scene","nodes":[0]}],"textures":[{"source":0},{"source":1},{"source":2},{"source":3},{"source":4}]}