{"accessors":[{"bufferView":0,"componentType":5126,"count":648,"type":"VEC3"},{"bufferView":1,"componentType":5126,"count":648,"max":[0.8509398698806763,3.1500000953674316,0.3341352045536041],"min":[-0.8490601778030396,0,-0.37586483359336853],"type":"VEC3"},{"bufferView":2,"componentType":5123,"count":972,"type":"SCALAR"},{"bufferView":3,"componentType":5126,"count":300,"type":"VEC3"},{"bufferView":4,"componentType":5126,"count":300,"max":[1.0183985233306885,3.303741931915283,0.40979236364364624],"min":[-1.0301411151885986,0.09372156858444214,-0.4899202883243561],"type":"VEC3"},{"bufferView":5,"componentType":5123,"count":360,"type":"SCALAR"},{"bufferView":6,"componentType":5126,"count":400,"type":"VEC3"},{"bufferView":7,"componentType":5126,"count":400,"max":[1.004872441291809,3.202803134918213,0.38297542929649353],"min":[-0.9668699502944946,0.21928930282592773,-0.49660733342170715],"type":"VEC3"},{"bufferView":8,"componentType":5123,"count":480,"type":"SCALAR"},{"bufferView":9,"componentType":5126,"count":800,"type":"VEC3"},{"bufferView":10,"componentType":5126,"count":800,"max":[0.9202098250389099,3.189574956893921,0.5022222995758057],"min":[-1.0102781057357788,0.20801156759262085,-0.40197333693504333],"type":"VEC3"},{"bufferView":11,"componentType":5123,"count":960,"type":"SCALAR"},{"bufferView":12,"componentType":5126,"count":300,"type":"VEC3"},{"bufferView":13,"componentType":5126,"count":300,"max":[1.044660210609436,3.313162326812744,0.3834647536277771],"min":[-1.044660210609436,0.676093578338623,-0.5022222995758057],"type":"VEC3"},{"bufferView":14,"componentType":5123,"count":360,"type":"SCALAR"}],"asset":{"generator":"Khronos glTF Blender I/O v5.2.40","version":"2.0"},"bufferViews":[{"buffer":0,"byteOffset":0,"byteLength":7776,"target":34962},{"buffer":0,"byteOffset":7776,"byteLength":7776,"target":34962},{"buffer":0,"byteOffset":15552,"byteLength":1944,"target":34963},{"buffer":0,"byteOffset":17496,"byteLength":3600,"target":34962},{"buffer":0,"byteOffset":21096,"byteLength":3600,"target":34962},{"buffer":0,"byteOffset":24696,"byteLength":720,"target":34963},{"buffer":0,"byteOffset":25416,"byteLength":4800,"target":34962},{"buffer":0,"byteOffset":30216,"byteLength":4800,"target":34962},{"buffer":0,"byteOffset":35016,"byteLength":960,"target":34963},{"buffer":0,"byteOffset":35976,"byteLength":9600,"target":34962},{"buffer":0,"byteOffset":45576,"byteLength":9600,"target":34962},{"buffer":0,"byteOffset":55176,"byteLength":1920,"target":34963},{"buffer":0,"byteOffset":57096,"byteLength":3600,"target":34962},{"buffer":0,"byteOffset":60696,"byteLength":3600,"target":34962},{"buffer":0,"byteOffset":64296,"byteLength":720,"target":34963}],"buffers":[{"byteLength":65016,"uri":"garden_arch.bin"}],"images":[],"materials":[{"doubleSided":true,"name":"Prop_PaintWhite","pbrMetallicRoughness":{"baseColorFactor":[0.7799999713897705,0.7599999904632568,0.699999988079071,1],"metallicFactor":0,"roughnessFactor":0.800000011920929}},{"doubleSided":true,"name":"Prop_LeafDark","pbrMetallicRoughness":{"baseColorFactor":[0.04500000178813934,0.12999999523162842,0.029999999329447746,1],"metallicFactor":0,"roughnessFactor":0.8999999761581421}},{"doubleSided":true,"name":"Prop_FlowerRed","pbrMetallicRoughness":{"baseColorFactor":[0.699999988079071,0.05000000074505806,0.05000000074505806,1],"metallicFactor":0,"roughnessFactor":0.699999988079071}},{"doubleSided":true,"name":"Prop_FlowerPink","pbrMetallicRoughness":{"baseColorFactor":[0.8500000238418579,0.3499999940395355,0.5,1],"metallicFactor":0,"roughnessFactor":0.699999988079071}},{"doubleSided":true,"name":"Prop_Leaf","pbrMetallicRoughness":{"baseColorFactor":[0.07000000029802322,0.20000000298023224,0.03999999910593033,1],"metallicFactor":0,"roughnessFactor":0.8999999761581421}}],"meshes":[{"name":"garden_arch","primitives":[{"attributes":{"NORMAL":0,"POSITION":1},"indices":2,"material":0},{"attributes":{"NORMAL":3,"POSITION":4},"indices":5,"material":1},{"attributes":{"NORMAL":6,"POSITION":7},"indices":8,"material":2},{"attributes":{"NORMAL":9,"POSITION":10},"indices":11,"material":3},{"attributes":{"NORMAL":12,"POSITION":13},"indices":14,"material":4}]}],"nodes":[{"mesh":0,"name":"garden_arch"}],"scene":0,"scenes":[{"name":"Scene","nodes":[0]}],"textures":[]}