{"accessors":[{"bufferView":0,"componentType":5126,"count":102,"type":"VEC3"},{"bufferView":1,"componentType":5126,"count":102,"max":[1.600000023841858,3.6500000953674316,0],"min":[-1.600000023841858,0,-2.5999999046325684],"type":"VEC3"},{"bufferView":2,"componentType":5126,"count":102,"type":"VEC2"},{"bufferView":3,"componentType":5123,"count":150,"type":"SCALAR"},{"bufferView":4,"componentType":5126,"count":24,"type":"VEC3"},{"bufferView":5,"componentType":5126,"count":24,"max":[1.6799999475479126,0.25,0.07999999821186066],"min":[-1.6799999475479126,0,-2.680000066757202],"type":"VEC3"},{"bufferView":6,"componentType":5126,"count":24,"type":"VEC2"},{"bufferView":7,"componentType":5123,"count":36,"type":"SCALAR"},{"bufferView":8,"componentType":5126,"count":508,"type":"VEC3"},{"bufferView":9,"componentType":5126,"count":508,"max":[2.319999933242798,2.359999895095825,0.20000000298023224],"min":[-1.8000000715255737,0,-2.7100000381469727],"type":"VEC3"},{"bufferView":10,"componentType":5126,"count":508,"type":"VEC2"},{"bufferView":11,"componentType":5123,"count":762,"type":"SCALAR"},{"bufferView":12,"componentType":5126,"count":52,"type":"VEC3"},{"bufferView":13,"componentType":5126,"count":52,"max":[2.3399999141693115,1.2640000581741333,0.05999999865889549],"min":[-0.3499999940395355,0.8500000238418579,-0.9399999976158142],"type":"VEC3"},{"bufferView":14,"componentType":5123,"count":78,"type":"SCALAR"},{"bufferView":15,"componentType":5126,"count":40,"type":"VEC3"},{"bufferView":16,"componentType":5126,"count":40,"max":[1.2000000476837158,1.75,0.029999999329447746],"min":[-1.6299999952316284,1.149999976158142,-1.649999976158142],"type":"VEC3"},{"bufferView":17,"componentType":5123,"count":60,"type":"SCALAR"},{"bufferView":18,"componentType":5126,"count":40,"type":"VEC3"},{"bufferView":19,"componentType":5126,"count":40,"max":[1.6399999856948853,1.75,0.07999999821186066],"min":[0.05999999865889549,1.149999976158142,0.029999999329447746],"type":"VEC3"},{"bufferView":20,"componentType":5123,"count":60,"type":"SCALAR"},{"bufferView":21,"componentType":5126,"count":72,"type":"VEC3"},{"bufferView":22,"componentType":5126,"count":72,"max":[1.9200001955032349,3.819999933242798,0.3700000047683716],"min":[-1.9200003147125244,1.9296910762786865,-2.9699997901916504],"type":"VEC3"},{"bufferView":23,"componentType":5126,"count":72,"type":"VEC2"},{"bufferView":24,"componentType":5123,"count":108,"type":"SCALAR"}],"asset":{"generator":"Khronos glTF Blender I/O v5.2.40","version":"2.0"},"bufferViews":[{"buffer":0,"byteOffset":0,"byteLength":1224,"target":34962},{"buffer":0,"byteOffset":1224,"byteLength":1224,"target":34962},{"buffer":0,"byteOffset":2448,"byteLength":816,"target":34962},{"buffer":0,"byteOffset":3264,"byteLength":300,"target":34963},{"buffer":0,"byteOffset":3564,"byteLength":288,"target":34962},{"buffer":0,"byteOffset":3852,"byteLength":288,"target":34962},{"buffer":0,"byteOffset":4140,"byteLength":192,"target":34962},{"buffer":0,"byteOffset":4332,"byteLength":72,"target":34963},{"buffer":0,"byteOffset":4404,"byteLength":6096,"target":34962},{"buffer":0,"byteOffset":10500,"byteLength":6096,"target":34962},{"buffer":0,"byteOffset":16596,"byteLength":4064,"target":34962},{"buffer":0,"byteOffset":20660,"byteLength":1524,"target":34963},{"buffer":0,"byteOffset":22184,"byteLength":624,"target":34962},{"buffer":0,"byteOffset":22808,"byteLength":624,"target":34962},{"buffer":0,"byteOffset":23432,"byteLength":156,"target":34963},{"buffer":0,"byteOffset":23588,"byteLength":480,"target":34962},{"buffer":0,"byteOffset":24068,"byteLength":480,"target":34962},{"buffer":0,"byteOffset":24548,"byteLength":120,"target":34963},{"buffer":0,"byteOffset":24668,"byteLength":480,"target":34962},{"buffer":0,"byteOffset":25148,"byteLength":480,"target":34962},{"buffer":0,"byteOffset":25628,"byteLength":120,"target":34963},{"buffer":0,"byteOffset":25748,"byteLength":864,"target":34962},{"buffer":0,"byteOffset":26612,"byteLength":864,"target":34962},{"buffer":0,"byteOffset":27476,"byteLength":576,"target":34962},{"buffer":0,"byteOffset":28052,"byteLength":216,"target":34963}],"buffers":[{"byteLength":28268,"uri":"garden_shed.bin"}],"images":[{"name":"T_Plaster_Luma","uri":"../village/T_Plaster_Luma.png"},{"name":"T_RockTrim_BaseColor","uri":"../village/T_RockTrim_BaseColor.png"},{"name":"T_RoundTiles_BaseColor","uri":"../village/T_RoundTiles_BaseColor.png"},{"name":"T_WoodTrim_BaseColor","uri":"../village/T_WoodTrim_BaseColor.png"}],"materials":[{"doubleSided":true,"name":"HousePlaster","pbrMetallicRoughness":{"baseColorFactor":[0.9583,0.7715,0.4434,1.0],"baseColorTexture":{"index":0},"metallicFactor":0,"roughnessFactor":0.8500000238418579}},{"doubleSided":true,"name":"RockTrim","pbrMetallicRoughness":{"baseColorFactor":[1.0,0.9979,1.0,1.0],"baseColorTexture":{"index":1},"metallicFactor":0,"roughnessFactor":0.8500000238418579}},{"doubleSided":true,"name":"Wood_dark","pbrMetallicRoughness":{"baseColorFactor":[0.2329,0.2659,0.2944,1.0],"baseColorTexture":{"index":3},"metallicFactor":0,"roughnessFactor":0.8500000238418579}},{"doubleSided":true,"name":"Iron","pbrMetallicRoughness":{"baseColorFactor":[0.0134117491543293,0.0134117491543293,0.015325203537940979,1],"metallicFactor":0,"roughnessFactor":0.5}},{"doubleSided":true,"name":"Glass","pbrMetallicRoughness":{"baseColorFactor":[0.03310476616024971,0.05087608844041824,0.07828831672668457,1],"metallicFactor":0,"roughnessFactor":0.20000000298023224}},{"doubleSided":true,"name":"ShutterPaint","pbrMetallicRoughness":{"baseColorFactor":[0.021980946883559227,0.07323895394802094,0.03968190774321556,1],"metallicFactor":0,"roughnessFactor":0.699999988079071}},{"doubleSided":true,"name":"HouseTiles","pbrMetallicRoughness":{"baseColorFactor":[1.0,0.9965,0.9971,1.0],"baseColorTexture":{"index":2},"metallicFactor":0,"roughnessFactor":0.699999988079071}}],"meshes":[{"name":"Wall","primitives":[{"attributes":{"NORMAL":0,"POSITION":1,"TEXCOORD_0":2},"indices":3,"material":0},{"attributes":{"NORMAL":4,"POSITION":5,"TEXCOORD_0":6},"indices":7,"material":1},{"attributes":{"NORMAL":8,"POSITION":9,"TEXCOORD_0":10},"indices":11,"material":2},{"attributes":{"NORMAL":12,"POSITION":13},"indices":14,"material":3},{"attributes":{"NORMAL":15,"POSITION":16},"indices":17,"material":4},{"attributes":{"NORMAL":18,"POSITION":19},"indices":20,"material":5},{"attributes":{"NORMAL":21,"POSITION":22,"TEXCOORD_0":23},"indices":24,"material":6}]}],"nodes":[{"mesh":0,"name":"garden_shed"}],"scene":0,"scenes":[{"name":"Scene","nodes":[0]}],"textures":[{"source":0},{"source":1},{"source":2},{"source":3}]}