{"accessors":[{"bufferView":0,"componentType":5126,"count":388,"type":"VEC3"},{"bufferView":1,"componentType":5126,"count":388,"max":[1.1749999523162842,1.4600000381469727,0.32499998807907104],"min":[-1.1749999523162842,1.100000023841858,-0.32499998807907104],"type":"VEC3"},{"bufferView":2,"componentType":5123,"count":516,"type":"SCALAR"},{"bufferView":3,"componentType":5126,"count":192,"type":"VEC3"},{"bufferView":4,"componentType":5126,"count":192,"max":[1.125,1.100000023841858,0.2750000059604645],"min":[-1.125,0,-0.2750000059604645],"type":"VEC3"},{"bufferView":5,"componentType":5123,"count":264,"type":"SCALAR"},{"bufferView":6,"componentType":5126,"count":288,"type":"VEC3"},{"bufferView":7,"componentType":5126,"count":288,"max":[0.6299999952316284,0.9074999690055847,0.12978263199329376],"min":[-0.6387873888015747,0.13249999284744263,-0.12978263199329376],"type":"VEC3"},{"bufferView":8,"componentType":5123,"count":432,"type":"SCALAR"}],"asset":{"generator":"Khronos glTF Blender I/O v5.2.40","version":"2.0"},"bufferViews":[{"buffer":0,"byteOffset":0,"byteLength":4656,"target":34962},{"buffer":0,"byteOffset":4656,"byteLength":4656,"target":34962},{"buffer":0,"byteOffset":9312,"byteLength":1032,"target":34963},{"buffer":0,"byteOffset":10344,"byteLength":2304,"target":34962},{"buffer":0,"byteOffset":12648,"byteLength":2304,"target":34962},{"buffer":0,"byteOffset":14952,"byteLength":528,"target":34963},{"buffer":0,"byteOffset":15480,"byteLength":3456,"target":34962},{"buffer":0,"byteOffset":18936,"byteLength":3456,"target":34962},{"buffer":0,"byteOffset":22392,"byteLength":864,"target":34963}],"buffers":[{"byteLength":23256,"uri":"garden_gate.bin"}],"images":[],"materials":[{"doubleSided":true,"name":"Prop_StoneDark","pbrMetallicRoughness":{"baseColorFactor":[0.25999999046325684,0.25,0.23000000417232513,1],"metallicFactor":0,"roughnessFactor":0.949999988079071}},{"doubleSided":true,"name":"Prop_Stone","pbrMetallicRoughness":{"baseColorFactor":[0.41999998688697815,0.4000000059604645,0.36000001430511475,1],"metallicFactor":0,"roughnessFactor":0.949999988079071}},{"doubleSided":true,"name":"Prop_Oak","pbrMetallicRoughness":{"baseColorFactor":[0.3199999928474426,0.17000000178813934,0.07000000029802322,1],"metallicFactor":0,"roughnessFactor":0.8500000238418579}}],"meshes":[{"name":"garden_gate","primitives":[{"attributes":{"NORMAL":0,"POSITION":1},"indices":2,"material":0},{"attributes":{"NORMAL":3,"POSITION":4},"indices":5,"material":1},{"attributes":{"NORMAL":6,"POSITION":7},"indices":8,"material":2}]}],"nodes":[{"mesh":0,"name":"garden_gate"}],"scene":0,"scenes":[{"name":"Scene","nodes":[0]}],"textures":[]}