{"accessors":[{"bufferView":0,"componentType":5126,"count":40,"max":[0.4619397521018982,4.599999904632568,-2.240147113800049],"min":[-0.4619397521018982,4,-3.1640264987945557],"type":"VEC3"},{"bufferView":1,"componentType":5126,"count":40,"type":"VEC3"},{"bufferView":2,"componentType":5126,"count":40,"type":"VEC2"},{"bufferView":3,"componentType":5123,"count":66,"type":"SCALAR"},{"bufferView":4,"componentType":5126,"count":32,"max":[0.6929096579551697,5.300000190734863,-2.0091772079467773],"min":[-0.6929096579551697,4.599999904632568,-3.394996404647827],"type":"VEC3"},{"bufferView":5,"componentType":5126,"count":32,"type":"VEC3"},{"bufferView":6,"componentType":5126,"count":32,"type":"VEC2"},{"bufferView":7,"componentType":5123,"count":48,"type":"SCALAR"},{"bufferView":8,"componentType":5126,"count":20,"max":[0.05000000074505806,5.699999809265137,-2.654533863067627],"min":[-0.04045084863901138,5.199999809265137,-2.7496395111083984],"type":"VEC3"},{"bufferView":9,"componentType":5126,"count":20,"type":"VEC3"},{"bufferView":10,"componentType":5126,"count":20,"type":"VEC2"},{"bufferView":11,"componentType":5123,"count":30,"type":"SCALAR"},{"bufferView":12,"componentType":5126,"count":40,"max":[2.5406687259674072,0.2199999988079071,-0.16141806542873383],"min":[-2.5406687259674072,0,-5.24275541305542],"type":"VEC3"},{"bufferView":13,"componentType":5126,"count":40,"type":"VEC3"},{"bufferView":14,"componentType":5126,"count":40,"type":"VEC2"},{"bufferView":15,"componentType":5126,"count":24,"max":[1.0849769115447998,2.5999999046325684,-0.20999999344348907],"min":[0.9049769043922424,0.2199999988079071,-0.38999998569488525],"type":"VEC3"},{"bufferView":16,"componentType":5126,"count":24,"type":"VEC3"},{"bufferView":17,"componentType":5126,"count":24,"type":"VEC2"},{"bufferView":18,"componentType":5123,"count":36,"type":"SCALAR"},{"bufferView":19,"componentType":5126,"count":24,"max":[2.492086887359619,2.5999999046325684,-1.6171098947525024],"min":[2.312086820602417,0.2199999988079071,-1.797109842300415],"type":"VEC3"},{"bufferView":20,"componentType":5126,"count":24,"type":"VEC3"},{"bufferView":21,"componentType":5126,"count":24,"type":"VEC2"},{"bufferView":22,"componentType":5126,"count":24,"max":[2.492086887359619,2.5999999046325684,-3.6070637702941895],"min":[2.312086820602417,0.2199999988079071,-3.7870635986328125],"type":"VEC3"},{"bufferView":23,"componentType":5126,"count":24,"type":"VEC3"},{"bufferView":24,"componentType":5126,"count":24,"type":"VEC2"},{"bufferView":25,"componentType":5126,"count":24,"max":[1.0849769115447998,2.5999999046325684,-5.01417350769043],"min":[0.9049769043922424,0.2199999988079071,-5.194173336029053],"type":"VEC3"},{"bufferView":26,"componentType":5126,"count":24,"type":"VEC3"},{"bufferView":27,"componentType":5126,"count":24,"type":"VEC2"},{"bufferView":28,"componentType":5126,"count":24,"max":[-0.9049769043922424,2.5999999046325684,-5.01417350769043],"min":[-1.0849769115447998,0.2199999988079071,-5.194173336029053],"type":"VEC3"},{"bufferView":29,"componentType":5126,"count":24,"type":"VEC3"},{"bufferView":30,"componentType":5126,"count":24,"type":"VEC2"},{"bufferView":31,"componentType":5126,"count":24,"max":[-2.312086820602417,2.5999999046325684,-3.6070637702941895],"min":[-2.492086887359619,0.2199999988079071,-3.7870635986328125],"type":"VEC3"},{"bufferView":32,"componentType":5126,"count":24,"type":"VEC3"},{"bufferView":33,"componentType":5126,"count":24,"type":"VEC2"},{"bufferView":34,"componentType":5126,"count":24,"max":[-2.312086820602417,2.5999999046325684,-1.6171098947525024],"min":[-2.492086887359619,0.2199999988079071,-1.797109842300415],"type":"VEC3"},{"bufferView":35,"componentType":5126,"count":24,"type":"VEC3"},{"bufferView":36,"componentType":5126,"count":24,"type":"VEC2"},{"bufferView":37,"componentType":5126,"count":24,"max":[-0.9049769043922424,2.5999999046325684,-0.20999999344348907],"min":[-1.0849769115447998,0.2199999988079071,-0.38999998569488525],"type":"VEC3"},{"bufferView":38,"componentType":5126,"count":24,"type":"VEC3"},{"bufferView":39,"componentType":5126,"count":24,"type":"VEC2"},{"bufferView":40,"componentType":5126,"count":24,"max":[2.430371046066284,0.6700000166893005,-0.2717157304286957],"min":[0.9666926860809326,0.6000000238418579,-1.7353942394256592],"type":"VEC3"},{"bufferView":41,"componentType":5126,"count":24,"type":"VEC3"},{"bufferView":42,"componentType":5126,"count":24,"type":"VEC2"},{"bufferView":43,"componentType":5123,"count":36,"type":"SCALAR"},{"bufferView":44,"componentType":5126,"count":24,"max":[2.430371046066284,1.0700000524520874,-0.2717157304286957],"min":[0.9666926860809326,1,-1.7353942394256592],"type":"VEC3"},{"bufferView":45,"componentType":5126,"count":24,"type":"VEC3"},{"bufferView":46,"componentType":5126,"count":24,"type":"VEC2"},{"bufferView":47,"componentType":5126,"count":24,"max":[2.442086935043335,0.6700000166893005,-1.707109808921814],"min":[2.362086772918701,0.6000000238418579,-3.697063684463501],"type":"VEC3"},{"bufferView":48,"componentType":5126,"count":24,"type":"VEC3"},{"bufferView":49,"componentType":5126,"count":24,"type":"VEC2"},{"bufferView":50,"componentType":5123,"count":36,"type":"SCALAR"},{"bufferView":51,"componentType":5126,"count":24,"max":[2.442086935043335,1.0700000524520874,-1.707109808921814],"min":[2.362086772918701,1,-3.697063684463501],"type":"VEC3"},{"bufferView":52,"componentType":5126,"count":24,"type":"VEC3"},{"bufferView":53,"componentType":5126,"count":24,"type":"VEC2"},{"bufferView":54,"componentType":5126,"count":24,"max":[2.430371046066284,0.6700000166893005,-3.6687793731689453],"min":[0.9666922092437744,0.6000000238418579,-5.132457733154297],"type":"VEC3"},{"bufferView":55,"componentType":5126,"count":24,"type":"VEC3"},{"bufferView":56,"componentType":5126,"count":24,"type":"VEC2"},{"bufferView":57,"componentType":5123,"count":36,"type":"SCALAR"},{"bufferView":58,"componentType":5126,"count":24,"max":[2.430371046066284,1.0700000524520874,-3.6687793731689453],"min":[0.9666922092437744,1,-5.132457733154297],"type":"VEC3"},{"bufferView":59,"componentType":5126,"count":24,"type":"VEC3"},{"bufferView":60,"componentType":5126,"count":24,"type":"VEC2"},{"bufferView":61,"componentType":5126,"count":24,"max":[0.9949769377708435,0.6700000166893005,-5.064173698425293],"min":[-0.9949769377708435,0.6000000238418579,-5.144173622131348],"type":"VEC3"},{"bufferView":62,"componentType":5126,"count":24,"type":"VEC3"},{"bufferView":63,"componentType":5126,"count":24,"type":"VEC2"},{"bufferView":64,"componentType":5126,"count":24,"max":[0.9949769377708435,1.0700000524520874,-5.064173698425293],"min":[-0.9949769377708435,1,-5.144173622131348],"type":"VEC3"},{"bufferView":65,"componentType":5126,"count":24,"type":"VEC3"},{"bufferView":66,"componentType":5126,"count":24,"type":"VEC2"},{"bufferView":67,"componentType":5126,"count":24,"max":[-0.9666926860809326,0.6700000166893005,-3.6687793731689453],"min":[-2.430371046066284,0.6000000238418579,-5.132457733154297],"type":"VEC3"},{"bufferView":68,"componentType":5126,"count":24,"type":"VEC3"},{"bufferView":69,"componentType":5126,"count":24,"type":"VEC2"},{"bufferView":70,"componentType":5123,"count":36,"type":"SCALAR"},{"bufferView":71,"componentType":5126,"count":24,"max":[-0.9666926860809326,1.0700000524520874,-3.6687793731689453],"min":[-2.430371046066284,1,-5.132457733154297],"type":"VEC3"},{"bufferView":72,"componentType":5126,"count":24,"type":"VEC3"},{"bufferView":73,"componentType":5126,"count":24,"type":"VEC2"},{"bufferView":74,"componentType":5126,"count":24,"max":[-2.362086772918701,0.6700000166893005,-1.707109808921814],"min":[-2.442086935043335,0.6000000238418579,-3.697063684463501],"type":"VEC3"},{"bufferView":75,"componentType":5126,"count":24,"type":"VEC3"},{"bufferView":76,"componentType":5126,"count":24,"type":"VEC2"},{"bufferView":77,"componentType":5126,"count":24,"max":[-2.362086772918701,1.0700000524520874,-1.707109808921814],"min":[-2.442086935043335,1,-3.697063684463501],"type":"VEC3"},{"bufferView":78,"componentType":5126,"count":24,"type":"VEC3"},{"bufferView":79,"componentType":5126,"count":24,"type":"VEC2"},{"bufferView":80,"componentType":5126,"count":24,"max":[-0.9666926860809326,0.6700000166893005,-0.27171552181243896],"min":[-2.430371046066284,0.6000000238418579,-1.7353941202163696],"type":"VEC3"},{"bufferView":81,"componentType":5126,"count":24,"type":"VEC3"},{"bufferView":82,"componentType":5126,"count":24,"type":"VEC2"},{"bufferView":83,"componentType":5123,"count":36,"type":"SCALAR"},{"bufferView":84,"componentType":5126,"count":24,"max":[-0.9666926860809326,1.0700000524520874,-0.27171552181243896],"min":[-2.430371046066284,1,-1.7353941202163696],"type":"VEC3"},{"bufferView":85,"componentType":5126,"count":24,"type":"VEC3"},{"bufferView":86,"componentType":5126,"count":24,"type":"VEC2"},{"bufferView":87,"componentType":5126,"count":64,"max":[3.094996452331543,4.599999904632568,0.3929096460342407],"min":[-3.094996452331543,2.509999990463257,-5.797083377838135],"type":"VEC3"},{"bufferView":88,"componentType":5126,"count":64,"type":"VEC3"},{"bufferView":89,"componentType":5126,"count":64,"type":"VEC2"},{"bufferView":90,"componentType":5123,"count":96,"type":"SCALAR"},{"bufferView":91,"componentType":5126,"count":24,"max":[1,0.10999999940395355,0.25],"min":[-1,0,-0.3499999940395355],"type":"VEC3"},{"bufferView":92,"componentType":5126,"count":24,"type":"VEC3"},{"bufferView":93,"componentType":5126,"count":24,"type":"VEC2"}],"asset":{"generator":"Khronos glTF Blender I/O v5.2.40","version":"2.0"},"bufferViews":[{"buffer":0,"byteLength":480,"byteOffset":0,"target":34962},{"buffer":0,"byteLength":480,"byteOffset":480,"target":34962},{"buffer":0,"byteLength":320,"byteOffset":960,"target":34962},{"buffer":0,"byteLength":132,"byteOffset":1280,"target":34963},{"buffer":0,"byteLength":384,"byteOffset":1412,"target":34962},{"buffer":0,"byteLength":384,"byteOffset":1796,"target":34962},{"buffer":0,"byteLength":256,"byteOffset":2180,"target":34962},{"buffer":0,"byteLength":96,"byteOffset":2436,"target":34963},{"buffer":0,"byteLength":240,"byteOffset":2532,"target":34962},{"buffer":0,"byteLength":240,"byteOffset":2772,"target":34962},{"buffer":0,"byteLength":160,"byteOffset":3012,"target":34962},{"buffer":0,"byteLength":60,"byteOffset":3172,"target":34963},{"buffer":0,"byteLength":480,"byteOffset":3232,"target":34962},{"buffer":0,"byteLength":480,"byteOffset":3712,"target":34962},{"buffer":0,"byteLength":320,"byteOffset":4192,"target":34962},{"buffer":0,"byteLength":288,"byteOffset":4512,"target":34962},{"buffer":0,"byteLength":288,"byteOffset":4800,"target":34962},{"buffer":0,"byteLength":192,"byteOffset":5088,"target":34962},{"buffer":0,"byteLength":72,"byteOffset":5280,"target":34963},{"buffer":0,"byteLength":288,"byteOffset":5352,"target":34962},{"buffer":0,"byteLength":288,"byteOffset":5640,"target":34962},{"buffer":0,"byteLength":192,"byteOffset":5928,"target":34962},{"buffer":0,"byteLength":288,"byteOffset":6120,"target":34962},{"buffer":0,"byteLength":288,"byteOffset":6408,"target":34962},{"buffer":0,"byteLength":192,"byteOffset":6696,"target":34962},{"buffer":0,"byteLength":288,"byteOffset":6888,"target":34962},{"buffer":0,"byteLength":288,"byteOffset":7176,"target":34962},{"buffer":0,"byteLength":192,"byteOffset":7464,"target":34962},{"buffer":0,"byteLength":288,"byteOffset":7656,"target":34962},{"buffer":0,"byteLength":288,"byteOffset":7944,"target":34962},{"buffer":0,"byteLength":192,"byteOffset":8232,"target":34962},{"buffer":0,"byteLength":288,"byteOffset":8424,"target":34962},{"buffer":0,"byteLength":288,"byteOffset":8712,"target":34962},{"buffer":0,"byteLength":192,"byteOffset":9000,"target":34962},{"buffer":0,"byteLength":288,"byteOffset":9192,"target":34962},{"buffer":0,"byteLength":288,"byteOffset":9480,"target":34962},{"buffer":0,"byteLength":192,"byteOffset":9768,"target":34962},{"buffer":0,"byteLength":288,"byteOffset":9960,"target":34962},{"buffer":0,"byteLength":288,"byteOffset":10248,"target":34962},{"buffer":0,"byteLength":192,"byteOffset":10536,"target":34962},{"buffer":0,"byteLength":288,"byteOffset":10728,"target":34962},{"buffer":0,"byteLength":288,"byteOffset":11016,"target":34962},{"buffer":0,"byteLength":192,"byteOffset":11304,"target":34962},{"buffer":0,"byteLength":72,"byteOffset":11496,"target":34963},{"buffer":0,"byteLength":288,"byteOffset":11568,"target":34962},{"buffer":0,"byteLength":288,"byteOffset":11856,"target":34962},{"buffer":0,"byteLength":192,"byteOffset":12144,"target":34962},{"buffer":0,"byteLength":288,"byteOffset":12336,"target":34962},{"buffer":0,"byteLength":288,"byteOffset":12624,"target":34962},{"buffer":0,"byteLength":192,"byteOffset":12912,"target":34962},{"buffer":0,"byteLength":72,"byteOffset":13104,"target":34963},{"buffer":0,"byteLength":288,"byteOffset":13176,"target":34962},{"buffer":0,"byteLength":288,"byteOffset":13464,"target":34962},{"buffer":0,"byteLength":192,"byteOffset":13752,"target":34962},{"buffer":0,"byteLength":288,"byteOffset":13944,"target":34962},{"buffer":0,"byteLength":288,"byteOffset":14232,"target":34962},{"buffer":0,"byteLength":192,"byteOffset":14520,"target":34962},{"buffer":0,"byteLength":72,"byteOffset":14712,"target":34963},{"buffer":0,"byteLength":288,"byteOffset":14784,"target":34962},{"buffer":0,"byteLength":288,"byteOffset":15072,"target":34962},{"buffer":0,"byteLength":192,"byteOffset":15360,"target":34962},{"buffer":0,"byteLength":288,"byteOffset":15552,"target":34962},{"buffer":0,"byteLength":288,"byteOffset":15840,"target":34962},{"buffer":0,"byteLength":192,"byteOffset":16128,"target":34962},{"buffer":0,"byteLength":288,"byteOffset":16320,"target":34962},{"buffer":0,"byteLength":288,"byteOffset":16608,"target":34962},{"buffer":0,"byteLength":192,"byteOffset":16896,"target":34962},{"buffer":0,"byteLength":288,"byteOffset":17088,"target":34962},{"buffer":0,"byteLength":288,"byteOffset":17376,"target":34962},{"buffer":0,"byteLength":192,"byteOffset":17664,"target":34962},{"buffer":0,"byteLength":72,"byteOffset":17856,"target":34963},{"buffer":0,"byteLength":288,"byteOffset":17928,"target":34962},{"buffer":0,"byteLength":288,"byteOffset":18216,"target":34962},{"buffer":0,"byteLength":192,"byteOffset":18504,"target":34962},{"buffer":0,"byteLength":288,"byteOffset":18696,"target":34962},{"buffer":0,"byteLength":288,"byteOffset":18984,"target":34962},{"buffer":0,"byteLength":192,"byteOffset":19272,"target":34962},{"buffer":0,"byteLength":288,"byteOffset":19464,"target":34962},{"buffer":0,"byteLength":288,"byteOffset":19752,"target":34962},{"buffer":0,"byteLength":192,"byteOffset":20040,"target":34962},{"buffer":0,"byteLength":288,"byteOffset":20232,"target":34962},{"buffer":0,"byteLength":288,"byteOffset":20520,"target":34962},{"buffer":0,"byteLength":192,"byteOffset":20808,"target":34962},{"buffer":0,"byteLength":72,"byteOffset":21000,"target":34963},{"buffer":0,"byteLength":288,"byteOffset":21072,"target":34962},{"buffer":0,"byteLength":288,"byteOffset":21360,"target":34962},{"buffer":0,"byteLength":192,"byteOffset":21648,"target":34962},{"buffer":0,"byteLength":768,"byteOffset":21840,"target":34962},{"buffer":0,"byteLength":768,"byteOffset":22608,"target":34962},{"buffer":0,"byteLength":512,"byteOffset":23376,"target":34962},{"buffer":0,"byteLength":192,"byteOffset":23888,"target":34963},{"buffer":0,"byteLength":288,"byteOffset":24080,"target":34962},{"buffer":0,"byteLength":288,"byteOffset":24368,"target":34962},{"buffer":0,"byteLength":192,"byteOffset":24656,"target":34962}],"buffers":[{"byteLength":24848,"uri":"gazebo.bin"}],"images":[{"name":"T_RoundTiles_Luma","uri":"../village/T_RoundTiles_Luma.png"},{"name":"T_WoodTrim_BaseColor","uri":"../village/T_WoodTrim_BaseColor.png"}],"materials":[{"doubleSided":true,"name":"WhitePaint","pbrMetallicRoughness":{"baseColorFactor":[0.8275708556175232,0.8073459267616272,0.7105664610862732,1],"metallicFactor":0,"roughnessFactor":0.6000000238418579}},{"doubleSided":true,"name":"Tiles_teal","pbrMetallicRoughness":{"baseColorFactor":[0.0913,0.2964,0.2915,1.0],"baseColorTexture":{"index":0},"metallicFactor":0,"roughnessFactor":0.699999988079071}},{"doubleSided":true,"name":"Iron","pbrMetallicRoughness":{"baseColorFactor":[0.0134117491543293,0.0134117491543293,0.015325203537940979,1],"metallicFactor":0,"roughnessFactor":0.5}},{"doubleSided":true,"name":"Wood_light","pbrMetallicRoughness":{"baseColorFactor":[0.9998,0.9995,1.0,1.0],"baseColorTexture":{"index":1},"metallicFactor":0,"roughnessFactor":0.8500000238418579}}],"meshes":[{"name":"Cupola","primitives":[{"attributes":{"NORMAL":1,"POSITION":0,"TEXCOORD_0":2},"indices":3,"material":0}]},{"name":"CupolaRoof","primitives":[{"attributes":{"NORMAL":5,"POSITION":4,"TEXCOORD_0":6},"indices":7,"material":1}]},{"name":"Finial","primitives":[{"attributes":{"NORMAL":9,"POSITION":8,"TEXCOORD_0":10},"indices":11,"material":2}]},{"name":"Floor","primitives":[{"attributes":{"NORMAL":13,"POSITION":12,"TEXCOORD_0":14},"indices":3,"material":3}]},{"name":"Post","primitives":[{"attributes":{"NORMAL":16,"POSITION":15,"TEXCOORD_0":17},"indices":18,"material":0}]},{"name":"Post.001","primitives":[{"attributes":{"NORMAL":20,"POSITION":19,"TEXCOORD_0":21},"indices":18,"material":0}]},{"name":"Post.002","primitives":[{"attributes":{"NORMAL":23,"POSITION":22,"TEXCOORD_0":24},"indices":18,"material":0}]},{"name":"Post.003","primitives":[{"attributes":{"NORMAL":26,"POSITION":25,"TEXCOORD_0":27},"indices":18,"material":0}]},{"name":"Post.004","primitives":[{"attributes":{"NORMAL":29,"POSITION":28,"TEXCOORD_0":30},"indices":18,"material":0}]},{"name":"Post.005","primitives":[{"attributes":{"NORMAL":32,"POSITION":31,"TEXCOORD_0":33},"indices":18,"material":0}]},{"name":"Post.006","primitives":[{"attributes":{"NORMAL":35,"POSITION":34,"TEXCOORD_0":36},"indices":18,"material":0}]},{"name":"Post.007","primitives":[{"attributes":{"NORMAL":38,"POSITION":37,"TEXCOORD_0":39},"indices":18,"material":0}]},{"name":"Rail","primitives":[{"attributes":{"NORMAL":41,"POSITION":40,"TEXCOORD_0":42},"indices":43,"material":0}]},{"name":"Rail.001","primitives":[{"attributes":{"NORMAL":45,"POSITION":44,"TEXCOORD_0":46},"indices":43,"material":0}]},{"name":"Rail.002","primitives":[{"attributes":{"NORMAL":48,"POSITION":47,"TEXCOORD_0":49},"indices":50,"material":0}]},{"name":"Rail.003","primitives":[{"attributes":{"NORMAL":52,"POSITION":51,"TEXCOORD_0":53},"indices":50,"material":0}]},{"name":"Rail.004","primitives":[{"attributes":{"NORMAL":55,"POSITION":54,"TEXCOORD_0":56},"indices":57,"material":0}]},{"name":"Rail.005","primitives":[{"attributes":{"NORMAL":59,"POSITION":58,"TEXCOORD_0":60},"indices":57,"material":0}]},{"name":"Rail.006","primitives":[{"attributes":{"NORMAL":62,"POSITION":61,"TEXCOORD_0":63},"indices":18,"material":0}]},{"name":"Rail.007","primitives":[{"attributes":{"NORMAL":65,"POSITION":64,"TEXCOORD_0":66},"indices":18,"material":0}]},{"name":"Rail.008","primitives":[{"attributes":{"NORMAL":68,"POSITION":67,"TEXCOORD_0":69},"indices":70,"material":0}]},{"name":"Rail.009","primitives":[{"attributes":{"NORMAL":72,"POSITION":71,"TEXCOORD_0":73},"indices":70,"material":0}]},{"name":"Rail.010","primitives":[{"attributes":{"NORMAL":75,"POSITION":74,"TEXCOORD_0":76},"indices":50,"material":0}]},{"name":"Rail.011","primitives":[{"attributes":{"NORMAL":78,"POSITION":77,"TEXCOORD_0":79},"indices":50,"material":0}]},{"name":"Rail.012","primitives":[{"attributes":{"NORMAL":81,"POSITION":80,"TEXCOORD_0":82},"indices":83,"material":0}]},{"name":"Rail.013","primitives":[{"attributes":{"NORMAL":85,"POSITION":84,"TEXCOORD_0":86},"indices":83,"material":0}]},{"name":"Roof","primitives":[{"attributes":{"NORMAL":88,"POSITION":87,"TEXCOORD_0":89},"indices":90,"material":1}]},{"name":"Step","primitives":[{"attributes":{"NORMAL":92,"POSITION":91,"TEXCOORD_0":93},"indices":18,"material":3}]}],"nodes":[{"mesh":0,"name":"Cupola.025"},{"mesh":1,"name":"CupolaRoof.026"},{"mesh":2,"name":"Finial.027"},{"mesh":3,"name":"Floor.001"},{"mesh":4,"name":"Post.002"},{"mesh":5,"name":"Post.003"},{"mesh":6,"name":"Post.004"},{"mesh":7,"name":"Post.005"},{"mesh":8,"name":"Post.006"},{"mesh":9,"name":"Post.007"},{"mesh":10,"name":"Post.008"},{"mesh":11,"name":"Post.009"},{"mesh":12,"name":"Rail.010"},{"mesh":13,"name":"Rail.011"},{"mesh":14,"name":"Rail.012"},{"mesh":15,"name":"Rail.013"},{"mesh":16,"name":"Rail.014"},{"mesh":17,"name":"Rail.015"},{"mesh":18,"name":"Rail.016"},{"mesh":19,"name":"Rail.017"},{"mesh":20,"name":"Rail.018"},{"mesh":21,"name":"Rail.019"},{"mesh":22,"name":"Rail.020"},{"mesh":23,"name":"Rail.021"},{"mesh":24,"name":"Rail.022"},{"mesh":25,"name":"Rail.023"},{"mesh":26,"name":"Roof.024"},{"mesh":27,"name":"Step.028"}],"scene":0,"scenes":[{"name":"Scene","nodes":[0,1,2,3,4,5,6,7,8,9,10,11,12,13,14,15,16,17,18,19,20,21,22,23,24,25,26,27]}],"textures":[{"source":0},{"source":1}]}
