{"accessors":[{"bufferView":0,"componentType":5126,"count":832,"type":"VEC3"},{"bufferView":1,"componentType":5126,"count":832,"max":[10.479999542236328,15.25,0.03999999910593033],"min":[-10.479999542236328,0,-26.079999923706055],"type":"VEC3"},{"bufferView":2,"componentType":5123,"count":1248,"type":"SCALAR"},{"bufferView":3,"componentType":5126,"count":1272,"type":"VEC3"},{"bufferView":4,"componentType":5126,"count":1272,"max":[10.550000190734863,14.800000190734863,0],"min":[-10.550000190734863,0,-26.149999618530273],"type":"VEC3"},{"bufferView":5,"componentType":5126,"count":1272,"type":"VEC2"},{"bufferView":6,"componentType":5123,"count":2130,"type":"SCALAR"},{"bufferView":7,"componentType":5126,"count":252,"type":"VEC3"},{"bufferView":8,"componentType":5126,"count":252,"max":[10.300000190734863,3.2300000190734863,-0.10000000149011612],"min":[-10.300000190734863,0.44999998807907104,-24.80000114440918],"type":"VEC3"},{"bufferView":9,"componentType":5123,"count":744,"type":"SCALAR"},{"bufferView":10,"componentType":5126,"count":1092,"type":"VEC3"},{"bufferView":11,"componentType":5126,"count":1092,"max":[9.600001335144043,5.699999809265137,-12],"min":[-9.600000381469727,1.600000023841858,-25.200000762939453],"type":"VEC3"},{"bufferView":12,"componentType":5123,"count":1638,"type":"SCALAR"},{"bufferView":13,"componentType":5126,"count":2070,"type":"VEC3"},{"bufferView":14,"componentType":5126,"count":2070,"max":[9.920000076293945,5.699999809265137,-3.1499998569488525],"min":[-9.920000076293945,0.800000011920929,-25.200000762939453],"type":"VEC3"},{"bufferView":15,"componentType":5126,"count":2070,"type":"VEC2"},{"bufferView":16,"componentType":5123,"count":3132,"type":"SCALAR"},{"bufferView":17,"componentType":5126,"count":1922,"type":"VEC3"},{"bufferView":18,"componentType":5126,"count":1922,"max":[7.840000152587891,9.369999885559082,0.7599999904632568],"min":[-9.25,0,-25.139999389648438],"type":"VEC3"},{"bufferView":19,"componentType":5123,"count":3078,"type":"SCALAR"},{"bufferView":20,"componentType":5126,"count":204,"type":"VEC3"},{"bufferView":21,"componentType":5126,"count":204,"max":[10.039999961853027,9.300000190734863,-11.569999694824219],"min":[-10.039999961853027,6.800000190734863,-25.639999389648438],"type":"VEC3"},{"bufferView":22,"componentType":5123,"count":306,"type":"SCALAR"},{"bufferView":23,"componentType":5126,"count":952,"type":"VEC3"},{"bufferView":24,"componentType":5126,"count":952,"max":[4.625,6.15749979019165,-11.49000072479248],"min":[-8.824999809265137,1.6200000047683716,-25.059999465942383],"type":"VEC3"},{"bufferView":25,"componentType":5123,"count":1428,"type":"SCALAR"},{"bufferView":26,"componentType":5126,"count":452,"type":"VEC3"},{"bufferView":27,"componentType":5126,"count":452,"max":[6.71999979019165,6.067999839782715,0.7200000286102295],"min":[-9.003253936767578,1.850000023841858,-25.079999923706055],"type":"VEC3"},{"bufferView":28,"componentType":5123,"count":732,"type":"SCALAR"},{"bufferView":29,"componentType":5126,"count":576,"type":"VEC3"},{"bufferView":30,"componentType":5126,"count":576,"max":[9.989999771118164,10.899999618530273,-8.109999656677246],"min":[-9.989999771118164,1.600000023841858,-25.59000015258789],"type":"VEC3"},{"bufferView":31,"componentType":5123,"count":864,"type":"SCALAR"},{"bufferView":32,"componentType":5126,"count":24,"type":"VEC3"},{"bufferView":33,"componentType":5126,"count":24,"max":[9.149999618530273,5.914999961853027,-11.170000076293945],"min":[-9.149999618530273,1.725000023841858,-24.75],"type":"VEC3"},{"bufferView":34,"componentType":5123,"count":36,"type":"SCALAR"},{"bufferView":35,"componentType":5126,"count":72,"type":"VEC3"},{"bufferView":36,"componentType":5126,"count":72,"max":[5.775000095367432,5.632999897003174,-25.128000259399414],"min":[-5.775000095367432,3.8399999141693115,-25.128000259399414],"type":"VEC3"},{"bufferView":37,"componentType":5123,"count":108,"type":"SCALAR"},{"bufferView":38,"componentType":5126,"count":484,"type":"VEC3"},{"bufferView":39,"componentType":5126,"count":484,"max":[3.3499999046325684,4.119999885559082,-15.673999786376953],"min":[-9.25,1.7000000476837158,-25.119998931884766],"type":"VEC3"},{"bufferView":40,"componentType":5123,"count":906,"type":"SCALAR"},{"bufferView":41,"componentType":5126,"count":8,"type":"VEC3"},{"bufferView":42,"componentType":5126,"count":8,"max":[2.6500000953674316,1.6200000047683716,-16.149999618530273],"min":[-9.050000190734863,1.6200000047683716,-23.450000762939453],"type":"VEC3"},{"bufferView":43,"componentType":5123,"count":12,"type":"SCALAR"},{"bufferView":44,"componentType":5126,"count":350,"type":"VEC3"},{"bufferView":45,"componentType":5126,"count":350,"max":[7.630000114440918,4.200000286102295,-15.67717456817627],"min":[-8.799416542053223,2.3399999141693115,-24.90282440185547],"type":"VEC3"},{"bufferView":46,"componentType":5123,"count":546,"type":"SCALAR"}],"asset":{"generator":"Khronos glTF Blender I/O v5.2.40","version":"2.0"},"bufferViews":[{"buffer":0,"byteOffset":0,"byteLength":9984,"target":34962},{"buffer":0,"byteOffset":9984,"byteLength":9984,"target":34962},{"buffer":0,"byteOffset":19968,"byteLength":2496,"target":34963},{"buffer":0,"byteOffset":22464,"byteLength":15264,"target":34962},{"buffer":0,"byteOffset":37728,"byteLength":15264,"target":34962},{"buffer":0,"byteOffset":52992,"byteLength":10176,"target":34962},{"buffer":0,"byteOffset":63168,"byteLength":4260,"target":34963},{"buffer":0,"byteOffset":67428,"byteLength":3024,"target":34962},{"buffer":0,"byteOffset":70452,"byteLength":3024,"target":34962},{"buffer":0,"byteOffset":73476,"byteLength":1488,"target":34963},{"buffer":0,"byteOffset":74964,"byteLength":13104,"target":34962},{"buffer":0,"byteOffset":88068,"byteLength":13104,"target":34962},{"buffer":0,"byteOffset":101172,"byteLength":3276,"target":34963},{"buffer":0,"byteOffset":104448,"byteLength":24840,"target":34962},{"buffer":0,"byteOffset":129288,"byteLength":24840,"target":34962},{"buffer":0,"byteOffset":154128,"byteLength":16560,"target":34962},{"buffer":0,"byteOffset":170688,"byteLength":6264,"target":34963},{"buffer":0,"byteOffset":176952,"byteLength":23064,"target":34962},{"buffer":0,"byteOffset":200016,"byteLength":23064,"target":34962},{"buffer":0,"byteOffset":223080,"byteLength":6156,"target":34963},{"buffer":0,"byteOffset":229236,"byteLength":2448,"target":34962},{"buffer":0,"byteOffset":231684,"byteLength":2448,"target":34962},{"buffer":0,"byteOffset":234132,"byteLength":612,"target":34963},{"buffer":0,"byteOffset":234744,"byteLength":11424,"target":34962},{"buffer":0,"byteOffset":246168,"byteLength":11424,"target":34962},{"buffer":0,"byteOffset":257592,"byteLength":2856,"target":34963},{"buffer":0,"byteOffset":260448,"byteLength":5424,"target":34962},{"buffer":0,"byteOffset":265872,"byteLength":5424,"target":34962},{"buffer":0,"byteOffset":271296,"byteLength":1464,"target":34963},{"buffer":0,"byteOffset":272760,"byteLength":6912,"target":34962},{"buffer":0,"byteOffset":279672,"byteLength":6912,"target":34962},{"buffer":0,"byteOffset":286584,"byteLength":1728,"target":34963},{"buffer":0,"byteOffset":288312,"byteLength":288,"target":34962},{"buffer":0,"byteOffset":288600,"byteLength":288,"target":34962},{"buffer":0,"byteOffset":288888,"byteLength":72,"target":34963},{"buffer":0,"byteOffset":288960,"byteLength":864,"target":34962},{"buffer":0,"byteOffset":289824,"byteLength":864,"target":34962},{"buffer":0,"byteOffset":290688,"byteLength":216,"target":34963},{"buffer":0,"byteOffset":290904,"byteLength":5808,"target":34962},{"buffer":0,"byteOffset":296712,"byteLength":5808,"target":34962},{"buffer":0,"byteOffset":302520,"byteLength":1812,"target":34963},{"buffer":0,"byteOffset":304332,"byteLength":96,"target":34962},{"buffer":0,"byteOffset":304428,"byteLength":96,"target":34962},{"buffer":0,"byteOffset":304524,"byteLength":24,"target":34963},{"buffer":0,"byteOffset":304548,"byteLength":4200,"target":34962},{"buffer":0,"byteOffset":308748,"byteLength":4200,"target":34962},{"buffer":0,"byteOffset":312948,"byteLength":1092,"target":34963}],"buffers":[{"byteLength":314040,"uri":"greco_house.bin"}],"images":[{"name":"T_Plaster_Luma","uri":"../village/T_Plaster_Luma.png"},{"name":"T_WoodTrim_BaseColor","uri":"../village/T_WoodTrim_BaseColor.png"}],"materials":[{"doubleSided":true,"name":"GrecoStoneShade","pbrMetallicRoughness":{"baseColorFactor":[0.5382355451583862,0.4479884207248688,0.3069993257522583,1],"metallicFactor":0,"roughnessFactor":0.8500000238418579}},{"doubleSided":true,"name":"GrecoLimestone","pbrMetallicRoughness":{"baseColorFactor":[0.9026,0.7713,0.5384,1.0],"baseColorTexture":{"index":0},"metallicFactor":0,"roughnessFactor":0.800000011920929}},{"doubleSided":true,"name":"GrecoHedge","pbrMetallicRoughness":{"baseColorFactor":[0.02451501414179802,0.06838485598564148,0.0134117491543293,1],"metallicFactor":0,"roughnessFactor":0.949999988079071}},{"doubleSided":true,"name":"GrecoMarble","pbrMetallicRoughness":{"baseColorFactor":[0.8073459267616272,0.7874122858047485,0.7293471097946167,1],"metallicFactor":0,"roughnessFactor":0.4000000059604645}},{"doubleSided":true,"name":"GrecoWalnut","pbrMetallicRoughness":{"baseColorFactor":[0.1509,0.1765,0.2002,1.0],"baseColorTexture":{"index":1},"metallicFactor":0,"roughnessFactor":0.6000000238418579}},{"doubleSided":true,"name":"GrecoBronze","pbrMetallicRoughness":{"baseColorFactor":[0.04696420207619667,0.01960664801299572,0.00854038167744875,1],"metallicFactor":0,"roughnessFactor":0.44999998807907104}},{"doubleSided":true,"name":"GrecoGlass","pbrMetallicRoughness":{"baseColorFactor":[0.010022825561463833,0.011645430698990822,0.0134117491543293,1],"metallicFactor":0,"roughnessFactor":0.15000000596046448}},{"doubleSided":true,"name":"GrecoCopper","pbrMetallicRoughness":{"baseColorFactor":[0.3931231200695038,0.11928018927574158,0.03310476616024971,1],"metallicFactor":0,"roughnessFactor":0.4000000059604645}},{"doubleSided":true,"emissiveFactor":[1,0.4200332760810852,0.07323895394802094],"name":"EmitAmber","pbrMetallicRoughness":{"baseColorFactor":[1,0.4200332760810852,0.07323895394802094,1],"metallicFactor":0,"roughnessFactor":0.30000001192092896}},{"doubleSided":true,"name":"GrecoRedBrown","pbrMetallicRoughness":{"baseColorFactor":[0.13286831974983215,0.027211781591176987,0.011645430698990822,1],"metallicFactor":0,"roughnessFactor":0.800000011920929}},{"doubleSided":true,"emissiveFactor":[0.1098584309220314,0.05952286161482334,0.02011762373149395],"name":"EmitCove","pbrMetallicRoughness":{"baseColorFactor":[0.07323895394802094,0.03968190774321556,0.0134117491543293,1],"metallicFactor":0,"roughnessFactor":0.5}},{"doubleSided":true,"emissiveFactor":[0.049657149240374565,0.010791613720357418,0.003482972038909793],"name":"EmitInlay","pbrMetallicRoughness":{"baseColorFactor":[0.03310476616024971,0.007194409146904945,0.0023219813592731953,1],"metallicFactor":0,"roughnessFactor":0.4000000059604645}},{"doubleSided":true,"name":"GrecoLinen","pbrMetallicRoughness":{"baseColorFactor":[0.7105664610862732,0.6209158897399902,0.4623613655567169,1],"metallicFactor":0,"roughnessFactor":0.949999988079071}},{"doubleSided":true,"name":"GrecoRug","pbrMetallicRoughness":{"baseColorFactor":[0.5382355451583862,0.295699805021286,0.17064493894577026,1],"metallicFactor":0}},{"doubleSided":true,"emissiveFactor":[1,0.6382831931114197,0.21404114365577698],"name":"EmitFlame","pbrMetallicRoughness":{"baseColorFactor":[1,0.6382831931114197,0.21404114365577698,1],"metallicFactor":0,"roughnessFactor":0.5}}],"meshes":[{"name":"Step","primitives":[{"attributes":{"NORMAL":0,"POSITION":1},"indices":2,"material":0},{"attributes":{"NORMAL":3,"POSITION":4,"TEXCOORD_0":5},"indices":6,"material":1},{"attributes":{"NORMAL":7,"POSITION":8},"indices":9,"material":2},{"attributes":{"NORMAL":10,"POSITION":11},"indices":12,"material":3},{"attributes":{"NORMAL":13,"POSITION":14,"TEXCOORD_0":15},"indices":16,"material":4},{"attributes":{"NORMAL":17,"POSITION":18},"indices":19,"material":5},{"attributes":{"NORMAL":20,"POSITION":21},"indices":22,"material":6},{"attributes":{"NORMAL":23,"POSITION":24},"indices":25,"material":7},{"attributes":{"NORMAL":26,"POSITION":27},"indices":28,"material":8},{"attributes":{"NORMAL":29,"POSITION":30},"indices":31,"material":9},{"attributes":{"NORMAL":32,"POSITION":33},"indices":34,"material":10},{"attributes":{"NORMAL":35,"POSITION":36},"indices":37,"material":11},{"attributes":{"NORMAL":38,"POSITION":39},"indices":40,"material":12},{"attributes":{"NORMAL":41,"POSITION":42},"indices":43,"material":13},{"attributes":{"NORMAL":44,"POSITION":45},"indices":46,"material":14}]}],"nodes":[{"mesh":0,"name":"greco_house"}],"scene":0,"scenes":[{"name":"Scene","nodes":[0]}],"textures":[{"source":0},{"source":1}]}