{"accessors":[{"bufferView":0,"componentType":5126,"count":24,"max":[2.200000047683716,0.6000000238418579,0],"min":[-2.200000047683716,0,-0.2199999988079071],"type":"VEC3"},{"bufferView":1,"componentType":5126,"count":24,"type":"VEC3"},{"bufferView":2,"componentType":5126,"count":24,"type":"VEC2"},{"bufferView":3,"componentType":5123,"count":36,"type":"SCALAR"},{"bufferView":4,"componentType":5126,"count":24,"max":[2.200000047683716,0.6000000238418579,-7.78000020980835],"min":[-2.200000047683716,0,-8],"type":"VEC3"},{"bufferView":5,"componentType":5126,"count":24,"type":"VEC3"},{"bufferView":6,"componentType":5126,"count":24,"type":"VEC2"},{"bufferView":7,"componentType":5126,"count":24,"max":[-1.9800000190734863,0.6000000238418579,0],"min":[-2.200000047683716,0,-8],"type":"VEC3"},{"bufferView":8,"componentType":5126,"count":24,"type":"VEC3"},{"bufferView":9,"componentType":5126,"count":24,"type":"VEC2"},{"bufferView":10,"componentType":5126,"count":24,"max":[2.200000047683716,0.6000000238418579,0],"min":[1.9800000190734863,0,-8],"type":"VEC3"},{"bufferView":11,"componentType":5126,"count":24,"type":"VEC3"},{"bufferView":12,"componentType":5126,"count":24,"type":"VEC2"},{"bufferView":13,"componentType":5126,"count":24,"max":[-0.800000011920929,0.800000011920929,-0.6000000238418579],"min":[-1.7999999523162842,0,-7.400000095367432],"type":"VEC3"},{"bufferView":14,"componentType":5126,"count":24,"type":"VEC3"},{"bufferView":15,"componentType":5126,"count":24,"type":"VEC2"},{"bufferView":16,"componentType":5126,"count":24,"max":[1.7999999523162842,0.800000011920929,-0.6000000238418579],"min":[0.800000011920929,0,-7.400000095367432],"type":"VEC3"},{"bufferView":17,"componentType":5126,"count":24,"type":"VEC3"},{"bufferView":18,"componentType":5126,"count":24,"type":"VEC2"},{"bufferView":19,"componentType":5126,"count":24,"max":[0.550000011920929,2.1500000953674316,0.07999999821186066],"min":[-0.550000011920929,2.069999933242798,-0.07999999821186066],"type":"VEC3"},{"bufferView":20,"componentType":5126,"count":24,"type":"VEC3"},{"bufferView":21,"componentType":5126,"count":24,"type":"VEC2"},{"bufferView":22,"componentType":5126,"count":24,"max":[-0.4699999988079071,2.1500000953674316,0.07999999821186066],"min":[-0.550000011920929,0,-0.07999999821186066],"type":"VEC3"},{"bufferView":23,"componentType":5126,"count":24,"type":"VEC3"},{"bufferView":24,"componentType":5126,"count":24,"type":"VEC2"},{"bufferView":25,"componentType":5126,"count":24,"max":[0.550000011920929,2.1500000953674316,0.07999999821186066],"min":[0.4699999988079071,0,-0.07999999821186066],"type":"VEC3"},{"bufferView":26,"componentType":5126,"count":24,"type":"VEC3"},{"bufferView":27,"componentType":5126,"count":24,"type":"VEC2"},{"bufferView":28,"componentType":5126,"count":24,"max":[0.4699999988079071,1.059999942779541,0.03999999910593033],"min":[-0.4699999988079071,1,-0.03999999910593033],"type":"VEC3"},{"bufferView":29,"componentType":5126,"count":24,"type":"VEC3"},{"bufferView":30,"componentType":5126,"count":24,"type":"VEC2"},{"bufferView":31,"componentType":5126,"count":30,"max":[2.200000047683716,3.619999885559082,0],"min":[-2.200000047683716,0.6000000238418579,-8],"type":"VEC3"},{"bufferView":32,"componentType":5126,"count":30,"type":"VEC3"},{"bufferView":33,"componentType":5126,"count":30,"type":"VEC2"},{"bufferView":34,"componentType":5123,"count":42,"type":"SCALAR"},{"bufferView":35,"componentType":5126,"count":24,"max":[-2.1500000953674316,2.4000000953674316,0.05000000074505806],"min":[-2.25,0.6000000238418579,-0.05000000074505806],"type":"VEC3"},{"bufferView":36,"componentType":5126,"count":24,"type":"VEC3"},{"bufferView":37,"componentType":5126,"count":24,"type":"VEC2"},{"bufferView":38,"componentType":5126,"count":24,"max":[2.25,2.4000000953674316,0.05000000074505806],"min":[2.1500000953674316,0.6000000238418579,-0.05000000074505806],"type":"VEC3"},{"bufferView":39,"componentType":5126,"count":24,"type":"VEC3"},{"bufferView":40,"componentType":5126,"count":24,"type":"VEC2"},{"bufferView":41,"componentType":5126,"count":24,"max":[-2.1500000953674316,2.4000000953674316,-0.949999988079071],"min":[-2.25,0.6000000238418579,-1.0499999523162842],"type":"VEC3"},{"bufferView":42,"componentType":5126,"count":24,"type":"VEC3"},{"bufferView":43,"componentType":5126,"count":24,"type":"VEC2"},{"bufferView":44,"componentType":5126,"count":24,"max":[2.25,2.4000000953674316,-0.949999988079071],"min":[2.1500000953674316,0.6000000238418579,-1.0499999523162842],"type":"VEC3"},{"bufferView":45,"componentType":5126,"count":24,"type":"VEC3"},{"bufferView":46,"componentType":5126,"count":24,"type":"VEC2"},{"bufferView":47,"componentType":5126,"count":24,"max":[-2.1500000953674316,2.4000000953674316,-1.9500000476837158],"min":[-2.25,0.6000000238418579,-2.049999952316284],"type":"VEC3"},{"bufferView":48,"componentType":5126,"count":24,"type":"VEC3"},{"bufferView":49,"componentType":5126,"count":24,"type":"VEC2"},{"bufferView":50,"componentType":5126,"count":24,"max":[2.25,2.4000000953674316,-1.9500000476837158],"min":[2.1500000953674316,0.6000000238418579,-2.049999952316284],"type":"VEC3"},{"bufferView":51,"componentType":5126,"count":24,"type":"VEC3"},{"bufferView":52,"componentType":5126,"count":24,"type":"VEC2"},{"bufferView":53,"componentType":5126,"count":24,"max":[-2.1500000953674316,2.4000000953674316,-2.950000047683716],"min":[-2.25,0.6000000238418579,-3.049999952316284],"type":"VEC3"},{"bufferView":54,"componentType":5126,"count":24,"type":"VEC3"},{"bufferView":55,"componentType":5126,"count":24,"type":"VEC2"},{"bufferView":56,"componentType":5126,"count":24,"max":[2.25,2.4000000953674316,-2.950000047683716],"min":[2.1500000953674316,0.6000000238418579,-3.049999952316284],"type":"VEC3"},{"bufferView":57,"componentType":5126,"count":24,"type":"VEC3"},{"bufferView":58,"componentType":5126,"count":24,"type":"VEC2"},{"bufferView":59,"componentType":5126,"count":24,"max":[-2.1500000953674316,2.4000000953674316,-3.950000047683716],"min":[-2.25,0.6000000238418579,-4.050000190734863],"type":"VEC3"},{"bufferView":60,"componentType":5126,"count":24,"type":"VEC3"},{"bufferView":61,"componentType":5126,"count":24,"type":"VEC2"},{"bufferView":62,"componentType":5126,"count":24,"max":[2.25,2.4000000953674316,-3.950000047683716],"min":[2.1500000953674316,0.6000000238418579,-4.050000190734863],"type":"VEC3"},{"bufferView":63,"componentType":5126,"count":24,"type":"VEC3"},{"bufferView":64,"componentType":5126,"count":24,"type":"VEC2"},{"bufferView":65,"componentType":5126,"count":24,"max":[-2.1500000953674316,2.4000000953674316,-4.949999809265137],"min":[-2.25,0.6000000238418579,-5.050000190734863],"type":"VEC3"},{"bufferView":66,"componentType":5126,"count":24,"type":"VEC3"},{"bufferView":67,"componentType":5126,"count":24,"type":"VEC2"},{"bufferView":68,"componentType":5126,"count":24,"max":[2.25,2.4000000953674316,-4.949999809265137],"min":[2.1500000953674316,0.6000000238418579,-5.050000190734863],"type":"VEC3"},{"bufferView":69,"componentType":5126,"count":24,"type":"VEC3"},{"bufferView":70,"componentType":5126,"count":24,"type":"VEC2"},{"bufferView":71,"componentType":5126,"count":24,"max":[-2.1500000953674316,2.4000000953674316,-5.949999809265137],"min":[-2.25,0.6000000238418579,-6.050000190734863],"type":"VEC3"},{"bufferView":72,"componentType":5126,"count":24,"type":"VEC3"},{"bufferView":73,"componentType":5126,"count":24,"type":"VEC2"},{"bufferView":74,"componentType":5126,"count":24,"max":[2.25,2.4000000953674316,-5.949999809265137],"min":[2.1500000953674316,0.6000000238418579,-6.050000190734863],"type":"VEC3"},{"bufferView":75,"componentType":5126,"count":24,"type":"VEC3"},{"bufferView":76,"componentType":5126,"count":24,"type":"VEC2"},{"bufferView":77,"componentType":5126,"count":24,"max":[-2.1500000953674316,2.4000000953674316,-6.949999809265137],"min":[-2.25,0.6000000238418579,-7.050000190734863],"type":"VEC3"},{"bufferView":78,"componentType":5126,"count":24,"type":"VEC3"},{"bufferView":79,"componentType":5126,"count":24,"type":"VEC2"},{"bufferView":80,"componentType":5126,"count":24,"max":[2.25,2.4000000953674316,-6.949999809265137],"min":[2.1500000953674316,0.6000000238418579,-7.050000190734863],"type":"VEC3"},{"bufferView":81,"componentType":5126,"count":24,"type":"VEC3"},{"bufferView":82,"componentType":5126,"count":24,"type":"VEC2"},{"bufferView":83,"componentType":5126,"count":24,"max":[-2.1500000953674316,2.4000000953674316,-7.949999809265137],"min":[-2.25,0.6000000238418579,-8.050000190734863],"type":"VEC3"},{"bufferView":84,"componentType":5126,"count":24,"type":"VEC3"},{"bufferView":85,"componentType":5126,"count":24,"type":"VEC2"},{"bufferView":86,"componentType":5126,"count":24,"max":[2.25,2.4000000953674316,-7.949999809265137],"min":[2.1500000953674316,0.6000000238418579,-8.050000190734863],"type":"VEC3"},{"bufferView":87,"componentType":5126,"count":24,"type":"VEC3"},{"bufferView":88,"componentType":5126,"count":24,"type":"VEC2"},{"bufferView":89,"componentType":5126,"count":24,"max":[-1.059999942779541,2.4000000953674316,-0.05999999865889549],"min":[-1.1399999856948853,0.6000000238418579,-0.1599999964237213],"type":"VEC3"},{"bufferView":90,"componentType":5126,"count":24,"type":"VEC3"},{"bufferView":91,"componentType":5126,"count":24,"type":"VEC2"},{"bufferView":92,"componentType":5126,"count":24,"max":[-1.059999942779541,2.4000000953674316,-7.840000152587891],"min":[-1.1399999856948853,0.6000000238418579,-7.940000057220459],"type":"VEC3"},{"bufferView":93,"componentType":5126,"count":24,"type":"VEC3"},{"bufferView":94,"componentType":5126,"count":24,"type":"VEC2"},{"bufferView":95,"componentType":5126,"count":24,"max":[0.03999999910593033,2.4000000953674316,-7.840000152587891],"min":[-0.03999999910593033,0.6000000238418579,-7.940000057220459],"type":"VEC3"},{"bufferView":96,"componentType":5126,"count":24,"type":"VEC3"},{"bufferView":97,"componentType":5126,"count":24,"type":"VEC2"},{"bufferView":98,"componentType":5126,"count":24,"max":[1.1399999856948853,2.4000000953674316,-0.05999999865889549],"min":[1.059999942779541,0.6000000238418579,-0.1599999964237213],"type":"VEC3"},{"bufferView":99,"componentType":5126,"count":24,"type":"VEC3"},{"bufferView":100,"componentType":5126,"count":24,"type":"VEC2"},{"bufferView":101,"componentType":5126,"count":24,"max":[1.1399999856948853,2.4000000953674316,-7.840000152587891],"min":[1.059999942779541,0.6000000238418579,-7.940000057220459],"type":"VEC3"},{"bufferView":102,"componentType":5126,"count":24,"type":"VEC3"},{"bufferView":103,"componentType":5126,"count":24,"type":"VEC2"},{"bufferView":104,"componentType":5126,"count":24,"max":[2.259999990463257,2.440000057220459,0.05999999865889549],"min":[-2.259999990463257,2.3399999141693115,-8.0600004196167],"type":"VEC3"},{"bufferView":105,"componentType":5126,"count":24,"type":"VEC3"},{"bufferView":106,"componentType":5126,"count":24,"type":"VEC2"},{"bufferView":107,"componentType":5126,"count":24,"max":[0,3.670231819152832,0.05000000074505806],"min":[-2.2383081912994385,2.4000000953674316,-0.05000000074505806],"type":"VEC3"},{"bufferView":108,"componentType":5126,"count":24,"type":"VEC3"},{"bufferView":109,"componentType":5126,"count":24,"type":"VEC2"},{"bufferView":110,"componentType":5123,"count":36,"type":"SCALAR"},{"bufferView":111,"componentType":5126,"count":24,"max":[2.2383081912994385,3.670231819152832,0.05000000447034836],"min":[0,2.4000000953674316,-0.05000019446015358],"type":"VEC3"},{"bufferView":112,"componentType":5126,"count":24,"type":"VEC3"},{"bufferView":113,"componentType":5126,"count":24,"type":"VEC2"},{"bufferView":114,"componentType":5123,"count":36,"type":"SCALAR"},{"bufferView":115,"componentType":5126,"count":24,"max":[0,3.670231819152832,-0.949999988079071],"min":[-2.2383081912994385,2.4000000953674316,-1.0499999523162842],"type":"VEC3"},{"bufferView":116,"componentType":5126,"count":24,"type":"VEC3"},{"bufferView":117,"componentType":5126,"count":24,"type":"VEC2"},{"bufferView":118,"componentType":5126,"count":24,"max":[2.2383081912994385,3.670231819152832,-0.949999988079071],"min":[0,2.4000000953674316,-1.0500001907348633],"type":"VEC3"},{"bufferView":119,"componentType":5126,"count":24,"type":"VEC3"},{"bufferView":120,"componentType":5126,"count":24,"type":"VEC2"},{"bufferView":121,"componentType":5126,"count":24,"max":[0,3.670231819152832,-1.9500000476837158],"min":[-2.2383081912994385,2.4000000953674316,-2.049999952316284],"type":"VEC3"},{"bufferView":122,"componentType":5126,"count":24,"type":"VEC3"},{"bufferView":123,"componentType":5126,"count":24,"type":"VEC2"},{"bufferView":124,"componentType":5126,"count":24,"max":[2.2383081912994385,3.670231819152832,-1.9500000476837158],"min":[0,2.4000000953674316,-2.0500001907348633],"type":"VEC3"},{"bufferView":125,"componentType":5126,"count":24,"type":"VEC3"},{"bufferView":126,"componentType":5126,"count":24,"type":"VEC2"},{"bufferView":127,"componentType":5126,"count":24,"max":[0,3.670231819152832,-2.950000047683716],"min":[-2.2383081912994385,2.4000000953674316,-3.049999952316284],"type":"VEC3"},{"bufferView":128,"componentType":5126,"count":24,"type":"VEC3"},{"bufferView":129,"componentType":5126,"count":24,"type":"VEC2"},{"bufferView":130,"componentType":5126,"count":24,"max":[2.2383081912994385,3.670231819152832,-2.950000047683716],"min":[0,2.4000000953674316,-3.0500001907348633],"type":"VEC3"},{"bufferView":131,"componentType":5126,"count":24,"type":"VEC3"},{"bufferView":132,"componentType":5126,"count":24,"type":"VEC2"},{"bufferView":133,"componentType":5126,"count":24,"max":[0,3.670231819152832,-3.950000047683716],"min":[-2.2383081912994385,2.4000000953674316,-4.050000190734863],"type":"VEC3"},{"bufferView":134,"componentType":5126,"count":24,"type":"VEC3"},{"bufferView":135,"componentType":5126,"count":24,"type":"VEC2"},{"bufferView":136,"componentType":5126,"count":24,"max":[2.2383081912994385,3.670231819152832,-3.950000047683716],"min":[0,2.4000000953674316,-4.050000190734863],"type":"VEC3"},{"bufferView":137,"componentType":5126,"count":24,"type":"VEC3"},{"bufferView":138,"componentType":5126,"count":24,"type":"VEC2"},{"bufferView":139,"componentType":5126,"count":24,"max":[0,3.670231819152832,-4.949999809265137],"min":[-2.2383081912994385,2.4000000953674316,-5.050000190734863],"type":"VEC3"},{"bufferView":140,"componentType":5126,"count":24,"type":"VEC3"},{"bufferView":141,"componentType":5126,"count":24,"type":"VEC2"},{"bufferView":142,"componentType":5126,"count":24,"max":[2.2383081912994385,3.670231819152832,-4.949999809265137],"min":[0,2.4000000953674316,-5.050000190734863],"type":"VEC3"},{"bufferView":143,"componentType":5126,"count":24,"type":"VEC3"},{"bufferView":144,"componentType":5126,"count":24,"type":"VEC2"},{"bufferView":145,"componentType":5126,"count":24,"max":[0,3.670231819152832,-5.949999809265137],"min":[-2.2383081912994385,2.4000000953674316,-6.050000190734863],"type":"VEC3"},{"bufferView":146,"componentType":5126,"count":24,"type":"VEC3"},{"bufferView":147,"componentType":5126,"count":24,"type":"VEC2"},{"bufferView":148,"componentType":5126,"count":24,"max":[2.2383081912994385,3.670231819152832,-5.949999809265137],"min":[0,2.4000000953674316,-6.050000190734863],"type":"VEC3"},{"bufferView":149,"componentType":5126,"count":24,"type":"VEC3"},{"bufferView":150,"componentType":5126,"count":24,"type":"VEC2"},{"bufferView":151,"componentType":5126,"count":24,"max":[0,3.670231819152832,-6.949999809265137],"min":[-2.2383081912994385,2.4000000953674316,-7.050000190734863],"type":"VEC3"},{"bufferView":152,"componentType":5126,"count":24,"type":"VEC3"},{"bufferView":153,"componentType":5126,"count":24,"type":"VEC2"},{"bufferView":154,"componentType":5126,"count":24,"max":[2.2383081912994385,3.670231819152832,-6.949999809265137],"min":[0,2.4000000953674316,-7.050000190734863],"type":"VEC3"},{"bufferView":155,"componentType":5126,"count":24,"type":"VEC3"},{"bufferView":156,"componentType":5126,"count":24,"type":"VEC2"},{"bufferView":157,"componentType":5126,"count":24,"max":[0,3.670231819152832,-7.949999809265137],"min":[-2.2383081912994385,2.4000000953674316,-8.050000190734863],"type":"VEC3"},{"bufferView":158,"componentType":5126,"count":24,"type":"VEC3"},{"bufferView":159,"componentType":5126,"count":24,"type":"VEC2"},{"bufferView":160,"componentType":5126,"count":24,"max":[2.2383081912994385,3.670231819152832,-7.949999809265137],"min":[0,2.4000000953674316,-8.050000190734863],"type":"VEC3"},{"bufferView":161,"componentType":5126,"count":24,"type":"VEC3"},{"bufferView":162,"componentType":5126,"count":24,"type":"VEC2"},{"bufferView":163,"componentType":5126,"count":24,"max":[0.07999999821186066,3.7200000286102295,0.10000000149011612],"min":[-0.07999999821186066,3.549999952316284,-8.100000381469727],"type":"VEC3"},{"bufferView":164,"componentType":5126,"count":24,"type":"VEC3"},{"bufferView":165,"componentType":5126,"count":24,"type":"VEC2"},{"bufferView":166,"componentType":5126,"count":20,"max":[-0.9800000190734863,1.4500000476837158,-0.7956619262695312],"min":[-1.5588854551315308,0.800000011920929,-1.4043381214141846],"type":"VEC3"},{"bufferView":167,"componentType":5126,"count":20,"type":"VEC3"},{"bufferView":168,"componentType":5126,"count":20,"type":"VEC2"},{"bufferView":169,"componentType":5123,"count":30,"type":"SCALAR"},{"bufferView":170,"componentType":5126,"count":20,"max":[-0.9800000190734863,1.4500000476837158,-1.745661973953247],"min":[-1.5588854551315308,0.800000011920929,-2.3543381690979004],"type":"VEC3"},{"bufferView":171,"componentType":5126,"count":20,"type":"VEC3"},{"bufferView":172,"componentType":5126,"count":20,"type":"VEC2"},{"bufferView":173,"componentType":5126,"count":20,"max":[-0.9800000190734863,1.4500000476837158,-2.695662021636963],"min":[-1.5588854551315308,0.800000011920929,-3.304337978363037],"type":"VEC3"},{"bufferView":174,"componentType":5126,"count":20,"type":"VEC3"},{"bufferView":175,"componentType":5126,"count":20,"type":"VEC2"},{"bufferView":176,"componentType":5126,"count":20,"max":[-0.9800000190734863,1.4500000476837158,-3.6456618309020996],"min":[-1.5588854551315308,0.800000011920929,-4.254338264465332],"type":"VEC3"},{"bufferView":177,"componentType":5126,"count":20,"type":"VEC3"},{"bufferView":178,"componentType":5126,"count":20,"type":"VEC2"},{"bufferView":179,"componentType":5126,"count":20,"max":[-0.9800000190734863,1.4500000476837158,-4.5956621170043945],"min":[-1.5588854551315308,0.800000011920929,-5.204338073730469],"type":"VEC3"},{"bufferView":180,"componentType":5126,"count":20,"type":"VEC3"},{"bufferView":181,"componentType":5126,"count":20,"type":"VEC2"},{"bufferView":182,"componentType":5126,"count":20,"max":[-0.9800000190734863,1.4500000476837158,-5.545661926269531],"min":[-1.5588854551315308,0.800000011920929,-6.1543378829956055],"type":"VEC3"},{"bufferView":183,"componentType":5126,"count":20,"type":"VEC3"},{"bufferView":184,"componentType":5126,"count":20,"type":"VEC2"},{"bufferView":185,"componentType":5126,"count":20,"max":[-0.9800000190734863,1.4500000476837158,-6.495661735534668],"min":[-1.5588854551315308,0.800000011920929,-7.1043381690979],"type":"VEC3"},{"bufferView":186,"componentType":5126,"count":20,"type":"VEC3"},{"bufferView":187,"componentType":5126,"count":20,"type":"VEC2"},{"bufferView":188,"componentType":5126,"count":20,"max":[1.6200000047683716,1.4500000476837158,-0.7956619262695312],"min":[1.0411145687103271,0.800000011920929,-1.4043381214141846],"type":"VEC3"},{"bufferView":189,"componentType":5126,"count":20,"type":"VEC3"},{"bufferView":190,"componentType":5126,"count":20,"type":"VEC2"},{"bufferView":191,"componentType":5126,"count":20,"max":[1.6200000047683716,1.4500000476837158,-1.745661973953247],"min":[1.0411145687103271,0.800000011920929,-2.3543381690979004],"type":"VEC3"},{"bufferView":192,"componentType":5126,"count":20,"type":"VEC3"},{"bufferView":193,"componentType":5126,"count":20,"type":"VEC2"},{"bufferView":194,"componentType":5126,"count":20,"max":[1.6200000047683716,1.4500000476837158,-2.695662021636963],"min":[1.0411145687103271,0.800000011920929,-3.304337978363037],"type":"VEC3"},{"bufferView":195,"componentType":5126,"count":20,"type":"VEC3"},{"bufferView":196,"componentType":5126,"count":20,"type":"VEC2"},{"bufferView":197,"componentType":5126,"count":20,"max":[1.6200000047683716,1.4500000476837158,-3.6456618309020996],"min":[1.0411145687103271,0.800000011920929,-4.254338264465332],"type":"VEC3"},{"bufferView":198,"componentType":5126,"count":20,"type":"VEC3"},{"bufferView":199,"componentType":5126,"count":20,"type":"VEC2"},{"bufferView":200,"componentType":5126,"count":20,"max":[1.6200000047683716,1.4500000476837158,-4.5956621170043945],"min":[1.0411145687103271,0.800000011920929,-5.204338073730469],"type":"VEC3"},{"bufferView":201,"componentType":5126,"count":20,"type":"VEC3"},{"bufferView":202,"componentType":5126,"count":20,"type":"VEC2"},{"bufferView":203,"componentType":5126,"count":20,"max":[1.6200000047683716,1.4500000476837158,-5.545661926269531],"min":[1.0411145687103271,0.800000011920929,-6.1543378829956055],"type":"VEC3"},{"bufferView":204,"componentType":5126,"count":20,"type":"VEC3"},{"bufferView":205,"componentType":5126,"count":20,"type":"VEC2"},{"bufferView":206,"componentType":5126,"count":20,"max":[1.6200000047683716,1.4500000476837158,-6.495661735534668],"min":[1.0411145687103271,0.800000011920929,-7.1043381690979],"type":"VEC3"},{"bufferView":207,"componentType":5126,"count":20,"type":"VEC3"},{"bufferView":208,"componentType":5126,"count":20,"type":"VEC2"}],"asset":{"generator":"Khronos glTF Blender I/O v5.2.40","version":"2.0"},"bufferViews":[{"buffer":0,"byteLength":288,"byteOffset":0,"target":34962},{"buffer":0,"byteLength":288,"byteOffset":288,"target":34962},{"buffer":0,"byteLength":192,"byteOffset":576,"target":34962},{"buffer":0,"byteLength":72,"byteOffset":768,"target":34963},{"buffer":0,"byteLength":288,"byteOffset":840,"target":34962},{"buffer":0,"byteLength":288,"byteOffset":1128,"target":34962},{"buffer":0,"byteLength":192,"byteOffset":1416,"target":34962},{"buffer":0,"byteLength":288,"byteOffset":1608,"target":34962},{"buffer":0,"byteLength":288,"byteOffset":1896,"target":34962},{"buffer":0,"byteLength":192,"byteOffset":2184,"target":34962},{"buffer":0,"byteLength":288,"byteOffset":2376,"target":34962},{"buffer":0,"byteLength":288,"byteOffset":2664,"target":34962},{"buffer":0,"byteLength":192,"byteOffset":2952,"target":34962},{"buffer":0,"byteLength":288,"byteOffset":3144,"target":34962},{"buffer":0,"byteLength":288,"byteOffset":3432,"target":34962},{"buffer":0,"byteLength":192,"byteOffset":3720,"target":34962},{"buffer":0,"byteLength":288,"byteOffset":3912,"target":34962},{"buffer":0,"byteLength":288,"byteOffset":4200,"target":34962},{"buffer":0,"byteLength":192,"byteOffset":4488,"target":34962},{"buffer":0,"byteLength":288,"byteOffset":4680,"target":34962},{"buffer":0,"byteLength":288,"byteOffset":4968,"target":34962},{"buffer":0,"byteLength":192,"byteOffset":5256,"target":34962},{"buffer":0,"byteLength":288,"byteOffset":5448,"target":34962},{"buffer":0,"byteLength":288,"byteOffset":5736,"target":34962},{"buffer":0,"byteLength":192,"byteOffset":6024,"target":34962},{"buffer":0,"byteLength":288,"byteOffset":6216,"target":34962},{"buffer":0,"byteLength":288,"byteOffset":6504,"target":34962},{"buffer":0,"byteLength":192,"byteOffset":6792,"target":34962},{"buffer":0,"byteLength":288,"byteOffset":6984,"target":34962},{"buffer":0,"byteLength":288,"byteOffset":7272,"target":34962},{"buffer":0,"byteLength":192,"byteOffset":7560,"target":34962},{"buffer":0,"byteLength":360,"byteOffset":7752,"target":34962},{"buffer":0,"byteLength":360,"byteOffset":8112,"target":34962},{"buffer":0,"byteLength":240,"byteOffset":8472,"target":34962},{"buffer":0,"byteLength":84,"byteOffset":8712,"target":34963},{"buffer":0,"byteLength":288,"byteOffset":8796,"target":34962},{"buffer":0,"byteLength":288,"byteOffset":9084,"target":34962},{"buffer":0,"byteLength":192,"byteOffset":9372,"target":34962},{"buffer":0,"byteLength":288,"byteOffset":9564,"target":34962},{"buffer":0,"byteLength":288,"byteOffset":9852,"target":34962},{"buffer":0,"byteLength":192,"byteOffset":10140,"target":34962},{"buffer":0,"byteLength":288,"byteOffset":10332,"target":34962},{"buffer":0,"byteLength":288,"byteOffset":10620,"target":34962},{"buffer":0,"byteLength":192,"byteOffset":10908,"target":34962},{"buffer":0,"byteLength":288,"byteOffset":11100,"target":34962},{"buffer":0,"byteLength":288,"byteOffset":11388,"target":34962},{"buffer":0,"byteLength":192,"byteOffset":11676,"target":34962},{"buffer":0,"byteLength":288,"byteOffset":11868,"target":34962},{"buffer":0,"byteLength":288,"byteOffset":12156,"target":34962},{"buffer":0,"byteLength":192,"byteOffset":12444,"target":34962},{"buffer":0,"byteLength":288,"byteOffset":12636,"target":34962},{"buffer":0,"byteLength":288,"byteOffset":12924,"target":34962},{"buffer":0,"byteLength":192,"byteOffset":13212,"target":34962},{"buffer":0,"byteLength":288,"byteOffset":13404,"target":34962},{"buffer":0,"byteLength":288,"byteOffset":13692,"target":34962},{"buffer":0,"byteLength":192,"byteOffset":13980,"target":34962},{"buffer":0,"byteLength":288,"byteOffset":14172,"target":34962},{"buffer":0,"byteLength":288,"byteOffset":14460,"target":34962},{"buffer":0,"byteLength":192,"byteOffset":14748,"target":34962},{"buffer":0,"byteLength":288,"byteOffset":14940,"target":34962},{"buffer":0,"byteLength":288,"byteOffset":15228,"target":34962},{"buffer":0,"byteLength":192,"byteOffset":15516,"target":34962},{"buffer":0,"byteLength":288,"byteOffset":15708,"target":34962},{"buffer":0,"byteLength":288,"byteOffset":15996,"target":34962},{"buffer":0,"byteLength":192,"byteOffset":16284,"target":34962},{"buffer":0,"byteLength":288,"byteOffset":16476,"target":34962},{"buffer":0,"byteLength":288,"byteOffset":16764,"target":34962},{"buffer":0,"byteLength":192,"byteOffset":17052,"target":34962},{"buffer":0,"byteLength":288,"byteOffset":17244,"target":34962},{"buffer":0,"byteLength":288,"byteOffset":17532,"target":34962},{"buffer":0,"byteLength":192,"byteOffset":17820,"target":34962},{"buffer":0,"byteLength":288,"byteOffset":18012,"target":34962},{"buffer":0,"byteLength":288,"byteOffset":18300,"target":34962},{"buffer":0,"byteLength":192,"byteOffset":18588,"target":34962},{"buffer":0,"byteLength":288,"byteOffset":18780,"target":34962},{"buffer":0,"byteLength":288,"byteOffset":19068,"target":34962},{"buffer":0,"byteLength":192,"byteOffset":19356,"target":34962},{"buffer":0,"byteLength":288,"byteOffset":19548,"target":34962},{"buffer":0,"byteLength":288,"byteOffset":19836,"target":34962},{"buffer":0,"byteLength":192,"byteOffset":20124,"target":34962},{"buffer":0,"byteLength":288,"byteOffset":20316,"target":34962},{"buffer":0,"byteLength":288,"byteOffset":20604,"target":34962},{"buffer":0,"byteLength":192,"byteOffset":20892,"target":34962},{"buffer":0,"byteLength":288,"byteOffset":21084,"target":34962},{"buffer":0,"byteLength":288,"byteOffset":21372,"target":34962},{"buffer":0,"byteLength":192,"byteOffset":21660,"target":34962},{"buffer":0,"byteLength":288,"byteOffset":21852,"target":34962},{"buffer":0,"byteLength":288,"byteOffset":22140,"target":34962},{"buffer":0,"byteLength":192,"byteOffset":22428,"target":34962},{"buffer":0,"byteLength":288,"byteOffset":22620,"target":34962},{"buffer":0,"byteLength":288,"byteOffset":22908,"target":34962},{"buffer":0,"byteLength":192,"byteOffset":23196,"target":34962},{"buffer":0,"byteLength":288,"byteOffset":23388,"target":34962},{"buffer":0,"byteLength":288,"byteOffset":23676,"target":34962},{"buffer":0,"byteLength":192,"byteOffset":23964,"target":34962},{"buffer":0,"byteLength":288,"byteOffset":24156,"target":34962},{"buffer":0,"byteLength":288,"byteOffset":24444,"target":34962},{"buffer":0,"byteLength":192,"byteOffset":24732,"target":34962},{"buffer":0,"byteLength":288,"byteOffset":24924,"target":34962},{"buffer":0,"byteLength":288,"byteOffset":25212,"target":34962},{"buffer":0,"byteLength":192,"byteOffset":25500,"target":34962},{"buffer":0,"byteLength":288,"byteOffset":25692,"target":34962},{"buffer":0,"byteLength":288,"byteOffset":25980,"target":34962},{"buffer":0,"byteLength":192,"byteOffset":26268,"target":34962},{"buffer":0,"byteLength":288,"byteOffset":26460,"target":34962},{"buffer":0,"byteLength":288,"byteOffset":26748,"target":34962},{"buffer":0,"byteLength":192,"byteOffset":27036,"target":34962},{"buffer":0,"byteLength":288,"byteOffset":27228,"target":34962},{"buffer":0,"byteLength":288,"byteOffset":27516,"target":34962},{"buffer":0,"byteLength":192,"byteOffset":27804,"target":34962},{"buffer":0,"byteLength":72,"byteOffset":27996,"target":34963},{"buffer":0,"byteLength":288,"byteOffset":28068,"target":34962},{"buffer":0,"byteLength":288,"byteOffset":28356,"target":34962},{"buffer":0,"byteLength":192,"byteOffset":28644,"target":34962},{"buffer":0,"byteLength":72,"byteOffset":28836,"target":34963},{"buffer":0,"byteLength":288,"byteOffset":28908,"target":34962},{"buffer":0,"byteLength":288,"byteOffset":29196,"target":34962},{"buffer":0,"byteLength":192,"byteOffset":29484,"target":34962},{"buffer":0,"byteLength":288,"byteOffset":29676,"target":34962},{"buffer":0,"byteLength":288,"byteOffset":29964,"target":34962},{"buffer":0,"byteLength":192,"byteOffset":30252,"target":34962},{"buffer":0,"byteLength":288,"byteOffset":30444,"target":34962},{"buffer":0,"byteLength":288,"byteOffset":30732,"target":34962},{"buffer":0,"byteLength":192,"byteOffset":31020,"target":34962},{"buffer":0,"byteLength":288,"byteOffset":31212,"target":34962},{"buffer":0,"byteLength":288,"byteOffset":31500,"target":34962},{"buffer":0,"byteLength":192,"byteOffset":31788,"target":34962},{"buffer":0,"byteLength":288,"byteOffset":31980,"target":34962},{"buffer":0,"byteLength":288,"byteOffset":32268,"target":34962},{"buffer":0,"byteLength":192,"byteOffset":32556,"target":34962},{"buffer":0,"byteLength":288,"byteOffset":32748,"target":34962},{"buffer":0,"byteLength":288,"byteOffset":33036,"target":34962},{"buffer":0,"byteLength":192,"byteOffset":33324,"target":34962},{"buffer":0,"byteLength":288,"byteOffset":33516,"target":34962},{"buffer":0,"byteLength":288,"byteOffset":33804,"target":34962},{"buffer":0,"byteLength":192,"byteOffset":34092,"target":34962},{"buffer":0,"byteLength":288,"byteOffset":34284,"target":34962},{"buffer":0,"byteLength":288,"byteOffset":34572,"target":34962},{"buffer":0,"byteLength":192,"byteOffset":34860,"target":34962},{"buffer":0,"byteLength":288,"byteOffset":35052,"target":34962},{"buffer":0,"byteLength":288,"byteOffset":35340,"target":34962},{"buffer":0,"byteLength":192,"byteOffset":35628,"target":34962},{"buffer":0,"byteLength":288,"byteOffset":35820,"target":34962},{"buffer":0,"byteLength":288,"byteOffset":36108,"target":34962},{"buffer":0,"byteLength":192,"byteOffset":36396,"target":34962},{"buffer":0,"byteLength":288,"byteOffset":36588,"target":34962},{"buffer":0,"byteLength":288,"byteOffset":36876,"target":34962},{"buffer":0,"byteLength":192,"byteOffset":37164,"target":34962},{"buffer":0,"byteLength":288,"byteOffset":37356,"target":34962},{"buffer":0,"byteLength":288,"byteOffset":37644,"target":34962},{"buffer":0,"byteLength":192,"byteOffset":37932,"target":34962},{"buffer":0,"byteLength":288,"byteOffset":38124,"target":34962},{"buffer":0,"byteLength":288,"byteOffset":38412,"target":34962},{"buffer":0,"byteLength":192,"byteOffset":38700,"target":34962},{"buffer":0,"byteLength":288,"byteOffset":38892,"target":34962},{"buffer":0,"byteLength":288,"byteOffset":39180,"target":34962},{"buffer":0,"byteLength":192,"byteOffset":39468,"target":34962},{"buffer":0,"byteLength":288,"byteOffset":39660,"target":34962},{"buffer":0,"byteLength":288,"byteOffset":39948,"target":34962},{"buffer":0,"byteLength":192,"byteOffset":40236,"target":34962},{"buffer":0,"byteLength":288,"byteOffset":40428,"target":34962},{"buffer":0,"byteLength":288,"byteOffset":40716,"target":34962},{"buffer":0,"byteLength":192,"byteOffset":41004,"target":34962},{"buffer":0,"byteLength":288,"byteOffset":41196,"target":34962},{"buffer":0,"byteLength":288,"byteOffset":41484,"target":34962},{"buffer":0,"byteLength":192,"byteOffset":41772,"target":34962},{"buffer":0,"byteLength":240,"byteOffset":41964,"target":34962},{"buffer":0,"byteLength":240,"byteOffset":42204,"target":34962},{"buffer":0,"byteLength":160,"byteOffset":42444,"target":34962},{"buffer":0,"byteLength":60,"byteOffset":42604,"target":34963},{"buffer":0,"byteLength":240,"byteOffset":42664,"target":34962},{"buffer":0,"byteLength":240,"byteOffset":42904,"target":34962},{"buffer":0,"byteLength":160,"byteOffset":43144,"target":34962},{"buffer":0,"byteLength":240,"byteOffset":43304,"target":34962},{"buffer":0,"byteLength":240,"byteOffset":43544,"target":34962},{"buffer":0,"byteLength":160,"byteOffset":43784,"target":34962},{"buffer":0,"byteLength":240,"byteOffset":43944,"target":34962},{"buffer":0,"byteLength":240,"byteOffset":44184,"target":34962},{"buffer":0,"byteLength":160,"byteOffset":44424,"target":34962},{"buffer":0,"byteLength":240,"byteOffset":44584,"target":34962},{"buffer":0,"byteLength":240,"byteOffset":44824,"target":34962},{"buffer":0,"byteLength":160,"byteOffset":45064,"target":34962},{"buffer":0,"byteLength":240,"byteOffset":45224,"target":34962},{"buffer":0,"byteLength":240,"byteOffset":45464,"target":34962},{"buffer":0,"byteLength":160,"byteOffset":45704,"target":34962},{"buffer":0,"byteLength":240,"byteOffset":45864,"target":34962},{"buffer":0,"byteLength":240,"byteOffset":46104,"target":34962},{"buffer":0,"byteLength":160,"byteOffset":46344,"target":34962},{"buffer":0,"byteLength":240,"byteOffset":46504,"target":34962},{"buffer":0,"byteLength":240,"byteOffset":46744,"target":34962},{"buffer":0,"byteLength":160,"byteOffset":46984,"target":34962},{"buffer":0,"byteLength":240,"byteOffset":47144,"target":34962},{"buffer":0,"byteLength":240,"byteOffset":47384,"target":34962},{"buffer":0,"byteLength":160,"byteOffset":47624,"target":34962},{"buffer":0,"byteLength":240,"byteOffset":47784,"target":34962},{"buffer":0,"byteLength":240,"byteOffset":48024,"target":34962},{"buffer":0,"byteLength":160,"byteOffset":48264,"target":34962},{"buffer":0,"byteLength":240,"byteOffset":48424,"target":34962},{"buffer":0,"byteLength":240,"byteOffset":48664,"target":34962},{"buffer":0,"byteLength":160,"byteOffset":48904,"target":34962},{"buffer":0,"byteLength":240,"byteOffset":49064,"target":34962},{"buffer":0,"byteLength":240,"byteOffset":49304,"target":34962},{"buffer":0,"byteLength":160,"byteOffset":49544,"target":34962},{"buffer":0,"byteLength":240,"byteOffset":49704,"target":34962},{"buffer":0,"byteLength":240,"byteOffset":49944,"target":34962},{"buffer":0,"byteLength":160,"byteOffset":50184,"target":34962},{"buffer":0,"byteLength":240,"byteOffset":50344,"target":34962},{"buffer":0,"byteLength":240,"byteOffset":50584,"target":34962},{"buffer":0,"byteLength":160,"byteOffset":50824,"target":34962}],"buffers":[{"byteLength":50984,"uri":"greenhouse.bin"}],"images":[{"name":"T_Brick_BaseColor","uri":"../village/T_Brick_BaseColor.png"},{"name":"T_WoodTrim_BaseColor","uri":"../village/T_WoodTrim_BaseColor.png"}],"materials":[{"doubleSided":true,"name":"Brick","pbrMetallicRoughness":{"baseColorFactor":[1.0,0.9974,1.0,1.0],"baseColorTexture":{"index":0},"metallicFactor":0,"roughnessFactor":0.8500000238418579}},{"doubleSided":true,"name":"Wood_light","pbrMetallicRoughness":{"baseColorFactor":[0.9998,0.9995,1.0,1.0],"baseColorTexture":{"index":1},"metallicFactor":0,"roughnessFactor":0.8500000238418579}},{"doubleSided":true,"name":"WhitePaint","pbrMetallicRoughness":{"baseColorFactor":[0.8275708556175232,0.8073459267616272,0.7105664610862732,1],"metallicFactor":0,"roughnessFactor":0.6000000238418579}},{"alphaMode":"BLEND","doubleSided":true,"name":"GreenhouseGlass","pbrMetallicRoughness":{"baseColorFactor":[0.5704815983772278,0.7874122858047485,0.7484140992164612,0.3199999928474426],"metallicFactor":0,"roughnessFactor":0.10000000149011612}},{"doubleSided":true,"name":"Leaf","pbrMetallicRoughness":{"baseColorFactor":[0.03310476616024971,0.11928018927574158,0.0134117491543293,1],"metallicFactor":0,"roughnessFactor":0.8999999761581421}}],"meshes":[{"name":"Base","primitives":[{"attributes":{"NORMAL":1,"POSITION":0,"TEXCOORD_0":2},"indices":3,"material":0}]},{"name":"Base.001","primitives":[{"attributes":{"NORMAL":5,"POSITION":4,"TEXCOORD_0":6},"indices":3,"material":0}]},{"name":"Base.002","primitives":[{"attributes":{"NORMAL":8,"POSITION":7,"TEXCOORD_0":9},"indices":3,"material":0}]},{"name":"Base.003","primitives":[{"attributes":{"NORMAL":11,"POSITION":10,"TEXCOORD_0":12},"indices":3,"material":0}]},{"name":"Bench","primitives":[{"attributes":{"NORMAL":14,"POSITION":13,"TEXCOORD_0":15},"indices":3,"material":1}]},{"name":"Bench.001","primitives":[{"attributes":{"NORMAL":17,"POSITION":16,"TEXCOORD_0":18},"indices":3,"material":1}]},{"name":"DoorHead","primitives":[{"attributes":{"NORMAL":20,"POSITION":19,"TEXCOORD_0":21},"indices":3,"material":2}]},{"name":"DoorJamb","primitives":[{"attributes":{"NORMAL":23,"POSITION":22,"TEXCOORD_0":24},"indices":3,"material":2}]},{"name":"DoorJamb.001","primitives":[{"attributes":{"NORMAL":26,"POSITION":25,"TEXCOORD_0":27},"indices":3,"material":2}]},{"name":"DoorRail","primitives":[{"attributes":{"NORMAL":29,"POSITION":28,"TEXCOORD_0":30},"indices":3,"material":2}]},{"name":"Glass","primitives":[{"attributes":{"NORMAL":32,"POSITION":31,"TEXCOORD_0":33},"indices":34,"material":3}]},{"name":"Mullion","primitives":[{"attributes":{"NORMAL":36,"POSITION":35,"TEXCOORD_0":37},"indices":3,"material":2}]},{"name":"Mullion.001","primitives":[{"attributes":{"NORMAL":39,"POSITION":38,"TEXCOORD_0":40},"indices":3,"material":2}]},{"name":"Mullion.002","primitives":[{"attributes":{"NORMAL":42,"POSITION":41,"TEXCOORD_0":43},"indices":3,"material":2}]},{"name":"Mullion.003","primitives":[{"attributes":{"NORMAL":45,"POSITION":44,"TEXCOORD_0":46},"indices":3,"material":2}]},{"name":"Mullion.004","primitives":[{"attributes":{"NORMAL":48,"POSITION":47,"TEXCOORD_0":49},"indices":3,"material":2}]},{"name":"Mullion.005","primitives":[{"attributes":{"NORMAL":51,"POSITION":50,"TEXCOORD_0":52},"indices":3,"material":2}]},{"name":"Mullion.006","primitives":[{"attributes":{"NORMAL":54,"POSITION":53,"TEXCOORD_0":55},"indices":3,"material":2}]},{"name":"Mullion.007","primitives":[{"attributes":{"NORMAL":57,"POSITION":56,"TEXCOORD_0":58},"indices":3,"material":2}]},{"name":"Mullion.008","primitives":[{"attributes":{"NORMAL":60,"POSITION":59,"TEXCOORD_0":61},"indices":3,"material":2}]},{"name":"Mullion.009","primitives":[{"attributes":{"NORMAL":63,"POSITION":62,"TEXCOORD_0":64},"indices":3,"material":2}]},{"name":"Mullion.010","primitives":[{"attributes":{"NORMAL":66,"POSITION":65,"TEXCOORD_0":67},"indices":3,"material":2}]},{"name":"Mullion.011","primitives":[{"attributes":{"NORMAL":69,"POSITION":68,"TEXCOORD_0":70},"indices":3,"material":2}]},{"name":"Mullion.012","primitives":[{"attributes":{"NORMAL":72,"POSITION":71,"TEXCOORD_0":73},"indices":3,"material":2}]},{"name":"Mullion.013","primitives":[{"attributes":{"NORMAL":75,"POSITION":74,"TEXCOORD_0":76},"indices":3,"material":2}]},{"name":"Mullion.014","primitives":[{"attributes":{"NORMAL":78,"POSITION":77,"TEXCOORD_0":79},"indices":3,"material":2}]},{"name":"Mullion.015","primitives":[{"attributes":{"NORMAL":81,"POSITION":80,"TEXCOORD_0":82},"indices":3,"material":2}]},{"name":"Mullion.016","primitives":[{"attributes":{"NORMAL":84,"POSITION":83,"TEXCOORD_0":85},"indices":3,"material":2}]},{"name":"Mullion.017","primitives":[{"attributes":{"NORMAL":87,"POSITION":86,"TEXCOORD_0":88},"indices":3,"material":2}]},{"name":"Mullion.018","primitives":[{"attributes":{"NORMAL":90,"POSITION":89,"TEXCOORD_0":91},"indices":3,"material":2}]},{"name":"Mullion.019","primitives":[{"attributes":{"NORMAL":93,"POSITION":92,"TEXCOORD_0":94},"indices":3,"material":2}]},{"name":"Mullion.020","primitives":[{"attributes":{"NORMAL":96,"POSITION":95,"TEXCOORD_0":97},"indices":3,"material":2}]},{"name":"Mullion.021","primitives":[{"attributes":{"NORMAL":99,"POSITION":98,"TEXCOORD_0":100},"indices":3,"material":2}]},{"name":"Mullion.022","primitives":[{"attributes":{"NORMAL":102,"POSITION":101,"TEXCOORD_0":103},"indices":3,"material":2}]},{"name":"Plate","primitives":[{"attributes":{"NORMAL":105,"POSITION":104,"TEXCOORD_0":106},"indices":3,"material":2}]},{"name":"Rafter","primitives":[{"attributes":{"NORMAL":108,"POSITION":107,"TEXCOORD_0":109},"indices":110,"material":2}]},{"name":"Rafter.001","primitives":[{"attributes":{"NORMAL":112,"POSITION":111,"TEXCOORD_0":113},"indices":114,"material":2}]},{"name":"Rafter.002","primitives":[{"attributes":{"NORMAL":116,"POSITION":115,"TEXCOORD_0":117},"indices":110,"material":2}]},{"name":"Rafter.003","primitives":[{"attributes":{"NORMAL":119,"POSITION":118,"TEXCOORD_0":120},"indices":114,"material":2}]},{"name":"Rafter.004","primitives":[{"attributes":{"NORMAL":122,"POSITION":121,"TEXCOORD_0":123},"indices":110,"material":2}]},{"name":"Rafter.005","primitives":[{"attributes":{"NORMAL":125,"POSITION":124,"TEXCOORD_0":126},"indices":114,"material":2}]},{"name":"Rafter.006","primitives":[{"attributes":{"NORMAL":128,"POSITION":127,"TEXCOORD_0":129},"indices":110,"material":2}]},{"name":"Rafter.007","primitives":[{"attributes":{"NORMAL":131,"POSITION":130,"TEXCOORD_0":132},"indices":114,"material":2}]},{"name":"Rafter.008","primitives":[{"attributes":{"NORMAL":134,"POSITION":133,"TEXCOORD_0":135},"indices":110,"material":2}]},{"name":"Rafter.009","primitives":[{"attributes":{"NORMAL":137,"POSITION":136,"TEXCOORD_0":138},"indices":114,"material":2}]},{"name":"Rafter.010","primitives":[{"attributes":{"NORMAL":140,"POSITION":139,"TEXCOORD_0":141},"indices":110,"material":2}]},{"name":"Rafter.011","primitives":[{"attributes":{"NORMAL":143,"POSITION":142,"TEXCOORD_0":144},"indices":114,"material":2}]},{"name":"Rafter.012","primitives":[{"attributes":{"NORMAL":146,"POSITION":145,"TEXCOORD_0":147},"indices":110,"material":2}]},{"name":"Rafter.013","primitives":[{"attributes":{"NORMAL":149,"POSITION":148,"TEXCOORD_0":150},"indices":114,"material":2}]},{"name":"Rafter.014","primitives":[{"attributes":{"NORMAL":152,"POSITION":151,"TEXCOORD_0":153},"indices":110,"material":2}]},{"name":"Rafter.015","primitives":[{"attributes":{"NORMAL":155,"POSITION":154,"TEXCOORD_0":156},"indices":114,"material":2}]},{"name":"Rafter.016","primitives":[{"attributes":{"NORMAL":158,"POSITION":157,"TEXCOORD_0":159},"indices":110,"material":2}]},{"name":"Rafter.017","primitives":[{"attributes":{"NORMAL":161,"POSITION":160,"TEXCOORD_0":162},"indices":114,"material":2}]},{"name":"RidgeBar","primitives":[{"attributes":{"NORMAL":164,"POSITION":163,"TEXCOORD_0":165},"indices":3,"material":2}]},{"name":"Seedling","primitives":[{"attributes":{"NORMAL":167,"POSITION":166,"TEXCOORD_0":168},"indices":169,"material":4}]},{"name":"Seedling.001","primitives":[{"attributes":{"NORMAL":171,"POSITION":170,"TEXCOORD_0":172},"indices":169,"material":4}]},{"name":"Seedling.002","primitives":[{"attributes":{"NORMAL":174,"POSITION":173,"TEXCOORD_0":175},"indices":169,"material":4}]},{"name":"Seedling.003","primitives":[{"attributes":{"NORMAL":177,"POSITION":176,"TEXCOORD_0":178},"indices":169,"material":4}]},{"name":"Seedling.004","primitives":[{"attributes":{"NORMAL":180,"POSITION":179,"TEXCOORD_0":181},"indices":169,"material":4}]},{"name":"Seedling.005","primitives":[{"attributes":{"NORMAL":183,"POSITION":182,"TEXCOORD_0":184},"indices":169,"material":4}]},{"name":"Seedling.006","primitives":[{"attributes":{"NORMAL":186,"POSITION":185,"TEXCOORD_0":187},"indices":169,"material":4}]},{"name":"Seedling.007","primitives":[{"attributes":{"NORMAL":189,"POSITION":188,"TEXCOORD_0":190},"indices":169,"material":4}]},{"name":"Seedling.008","primitives":[{"attributes":{"NORMAL":192,"POSITION":191,"TEXCOORD_0":193},"indices":169,"material":4}]},{"name":"Seedling.009","primitives":[{"attributes":{"NORMAL":195,"POSITION":194,"TEXCOORD_0":196},"indices":169,"material":4}]},{"name":"Seedling.010","primitives":[{"attributes":{"NORMAL":198,"POSITION":197,"TEXCOORD_0":199},"indices":169,"material":4}]},{"name":"Seedling.011","primitives":[{"attributes":{"NORMAL":201,"POSITION":200,"TEXCOORD_0":202},"indices":169,"material":4}]},{"name":"Seedling.012","primitives":[{"attributes":{"NORMAL":204,"POSITION":203,"TEXCOORD_0":205},"indices":169,"material":4}]},{"name":"Seedling.013","primitives":[{"attributes":{"NORMAL":207,"POSITION":206,"TEXCOORD_0":208},"indices":169,"material":4}]}],"nodes":[{"mesh":0,"name":"Base.001"},{"mesh":1,"name":"Base.002"},{"mesh":2,"name":"Base.003"},{"mesh":3,"name":"Base.004"},{"mesh":4,"name":"Bench.053"},{"mesh":5,"name":"Bench.061"},{"mesh":6,"name":"DoorHead.051"},{"mesh":7,"name":"DoorJamb.049"},{"mesh":8,"name":"DoorJamb.050"},{"mesh":9,"name":"DoorRail.052"},{"mesh":10,"name":"Glass.005"},{"mesh":11,"name":"Mullion.006"},{"mesh":12,"name":"Mullion.008"},{"mesh":13,"name":"Mullion.010"},{"mesh":14,"name":"Mullion.012"},{"mesh":15,"name":"Mullion.014"},{"mesh":16,"name":"Mullion.016"},{"mesh":17,"name":"Mullion.018"},{"mesh":18,"name":"Mullion.020"},{"mesh":19,"name":"Mullion.022"},{"mesh":20,"name":"Mullion.024"},{"mesh":21,"name":"Mullion.026"},{"mesh":22,"name":"Mullion.028"},{"mesh":23,"name":"Mullion.030"},{"mesh":24,"name":"Mullion.032"},{"mesh":25,"name":"Mullion.034"},{"mesh":26,"name":"Mullion.036"},{"mesh":27,"name":"Mullion.038"},{"mesh":28,"name":"Mullion.040"},{"mesh":29,"name":"Mullion.042"},{"mesh":30,"name":"Mullion.043"},{"mesh":31,"name":"Mullion.044"},{"mesh":32,"name":"Mullion.045"},{"mesh":33,"name":"Mullion.046"},{"mesh":34,"name":"Plate.047"},{"mesh":35,"name":"Rafter.007"},{"mesh":36,"name":"Rafter.009"},{"mesh":37,"name":"Rafter.011"},{"mesh":38,"name":"Rafter.013"},{"mesh":39,"name":"Rafter.015"},{"mesh":40,"name":"Rafter.017"},{"mesh":41,"name":"Rafter.019"},{"mesh":42,"name":"Rafter.021"},{"mesh":43,"name":"Rafter.023"},{"mesh":44,"name":"Rafter.025"},{"mesh":45,"name":"Rafter.027"},{"mesh":46,"name":"Rafter.029"},{"mesh":47,"name":"Rafter.031"},{"mesh":48,"name":"Rafter.033"},{"mesh":49,"name":"Rafter.035"},{"mesh":50,"name":"Rafter.037"},{"mesh":51,"name":"Rafter.039"},{"mesh":52,"name":"Rafter.041"},{"mesh":53,"name":"RidgeBar.048"},{"mesh":54,"name":"Seedling.054"},{"mesh":55,"name":"Seedling.055"},{"mesh":56,"name":"Seedling.056"},{"mesh":57,"name":"Seedling.057"},{"mesh":58,"name":"Seedling.058"},{"mesh":59,"name":"Seedling.059"},{"mesh":60,"name":"Seedling.060"},{"mesh":61,"name":"Seedling.062"},{"mesh":62,"name":"Seedling.063"},{"mesh":63,"name":"Seedling.064"},{"mesh":64,"name":"Seedling.065"},{"mesh":65,"name":"Seedling.066"},{"mesh":66,"name":"Seedling.067"},{"mesh":67,"name":"Seedling.068"}],"scene":0,"scenes":[{"name":"Scene","nodes":[0,1,2,3,4,5,6,7,8,9,10,11,12,13,14,15,16,17,18,19,20,21,22,23,24,25,26,27,28,29,30,31,32,33,34,35,36,37,38,39,40,41,42,43,44,45,46,47,48,49,50,51,52,53,54,55,56,57,58,59,60,61,62,63,64,65,66,67]}],"textures":[{"source":0},{"source":1}]}
