{"accessors":[{"bufferView":0,"componentType":5126,"count":456,"type":"VEC3"},{"bufferView":1,"componentType":5126,"count":456,"max":[0.0952627956867218,0.625,0.10999999940395355],"min":[-0.0952627956867218,0,-0.10999999940395355],"type":"VEC3"},{"bufferView":2,"componentType":5123,"count":696,"type":"SCALAR"},{"bufferView":3,"componentType":5126,"count":36,"type":"VEC3"},{"bufferView":4,"componentType":5126,"count":36,"max":[0.06495190411806107,0.24500000476837158,0.07500000298023224],"min":[-0.06495190411806107,0.04500001668930054,-0.07500000298023224],"type":"VEC3"},{"bufferView":5,"componentType":5123,"count":60,"type":"SCALAR"}],"asset":{"generator":"Khronos glTF Blender I/O v5.2.40","version":"2.0"},"bufferViews":[{"buffer":0,"byteOffset":0,"byteLength":5472,"target":34962},{"buffer":0,"byteOffset":5472,"byteLength":5472,"target":34962},{"buffer":0,"byteOffset":10944,"byteLength":1392,"target":34963},{"buffer":0,"byteOffset":12336,"byteLength":432,"target":34962},{"buffer":0,"byteOffset":12768,"byteLength":432,"target":34962},{"buffer":0,"byteOffset":13200,"byteLength":120,"target":34963}],"buffers":[{"byteLength":13320,"uri":"grove_hanging_lantern.bin"}],"images":[],"materials":[{"doubleSided":true,"name":"Prop_Iron","pbrMetallicRoughness":{"baseColorFactor":[0.03500000014901161,0.03500000014901161,0.03999999910593033,1],"metallicFactor":0,"roughnessFactor":0.5}},{"doubleSided":true,"emissiveFactor":[1,0.75,0.4000000059604645],"name":"EmitLantern","pbrMetallicRoughness":{"baseColorFactor":[1,0.75,0.4000000059604645,1],"metallicFactor":0,"roughnessFactor":0.30000001192092896}}],"meshes":[{"name":"grove_hanging_lantern","primitives":[{"attributes":{"NORMAL":0,"POSITION":1},"indices":2,"material":0},{"attributes":{"NORMAL":3,"POSITION":4},"indices":5,"material":1}]}],"nodes":[{"mesh":0,"name":"grove_hanging_lantern"}],"scene":0,"scenes":[{"name":"Scene","nodes":[0]}],"textures":[]}