{"accessors":[{"bufferView":0,"componentType":5126,"count":180,"type":"VEC3"},{"bufferView":1,"componentType":5126,"count":180,"max":[0.11874999850988388,1.1700000762939453,0.1906217783689499],"min":[-0.11250000447034836,1.0299999713897705,-0.05196152627468109],"type":"VEC3"},{"bufferView":2,"componentType":5123,"count":216,"type":"SCALAR"},{"bufferView":3,"componentType":5126,"count":288,"type":"VEC3"},{"bufferView":4,"componentType":5126,"count":288,"max":[0.9335712790489197,1.020606279373169,0.46512550115585327],"min":[-0.9261080622673035,0.02000001072883606,-0.481582373380661],"type":"VEC3"},{"bufferView":5,"componentType":5123,"count":396,"type":"SCALAR"},{"bufferView":6,"componentType":5126,"count":238,"type":"VEC3"},{"bufferView":7,"componentType":5126,"count":238,"max":[1.149999976158142,1.100000023841858,0.699999988079071],"min":[-1.149999976158142,0,-0.699999988079071],"type":"VEC3"},{"bufferView":8,"componentType":5123,"count":372,"type":"SCALAR"},{"bufferView":9,"componentType":5126,"count":242,"type":"VEC3"},{"bufferView":10,"componentType":5126,"count":242,"max":[1.1728148460388184,1.1100000143051147,0.7496838569641113],"min":[-0.8225000500679016,-7.450580596923828e-09,-0.5750000476837158],"type":"VEC3"},{"bufferView":11,"componentType":5123,"count":300,"type":"SCALAR"},{"bufferView":12,"componentType":5126,"count":242,"type":"VEC3"},{"bufferView":13,"componentType":5126,"count":242,"max":[0.6979942321777344,1.1779999732971191,0.2546162009239197],"min":[0.37538379430770874,0.9740000367164612,-0.1300000101327896],"type":"VEC3"},{"bufferView":14,"componentType":5123,"count":318,"type":"SCALAR"},{"bufferView":15,"componentType":5126,"count":24,"type":"VEC3"},{"bufferView":16,"componentType":5126,"count":24,"max":[0.4949999749660492,1.2300000190734863,0.16500000655651093],"min":[0.4650000035762787,1.1700000762939453,0.13500000536441803],"type":"VEC3"},{"bufferView":17,"componentType":5123,"count":36,"type":"SCALAR"},{"bufferView":18,"componentType":5126,"count":72,"type":"VEC3"},{"bufferView":19,"componentType":5126,"count":72,"max":[-0.4085622727870941,1.4700000286102295,-0.1300000101327896],"min":[-0.5914376974105835,0.9700000286102295,-0.17000000178813934],"type":"VEC3"},{"bufferView":20,"componentType":5123,"count":108,"type":"SCALAR"},{"bufferView":21,"componentType":5126,"count":36,"type":"VEC3"},{"bufferView":22,"componentType":5126,"count":36,"max":[-0.4393782317638397,1.1999999284744263,-0.08000000566244125],"min":[-0.5606217980384827,1.159999966621399,-0.2199999988079071],"type":"VEC3"},{"bufferView":23,"componentType":5123,"count":60,"type":"SCALAR"},{"bufferView":24,"componentType":5126,"count":216,"type":"VEC3"},{"bufferView":25,"componentType":5126,"count":216,"max":[0.856291651725769,1.2599999904632568,0.36500000953674316],"min":[-0.8362916111946106,1,-0.3149999976158142],"type":"VEC3"},{"bufferView":26,"componentType":5123,"count":360,"type":"SCALAR"},{"bufferView":27,"componentType":5126,"count":60,"type":"VEC3"},{"bufferView":28,"componentType":5126,"count":60,"max":[0.8237764239311218,1.3549998998641968,0.32022544741630554],"min":[-0.8037763833999634,1.15500009059906,-0.2750000059604645],"type":"VEC3"},{"bufferView":29,"componentType":5123,"count":72,"type":"SCALAR"},{"bufferView":30,"componentType":5126,"count":48,"type":"VEC3"},{"bufferView":31,"componentType":5126,"count":48,"max":[0.8137500286102295,1.3172000646591187,0.3137499988079071],"min":[-0.793749988079071,1.1621999740600586,-0.26374998688697815],"type":"VEC3"},{"bufferView":32,"componentType":5123,"count":54,"type":"SCALAR"}],"asset":{"generator":"Khronos glTF Blender I/O v5.2.40","version":"2.0"},"bufferViews":[{"buffer":0,"byteOffset":0,"byteLength":2160,"target":34962},{"buffer":0,"byteOffset":2160,"byteLength":2160,"target":34962},{"buffer":0,"byteOffset":4320,"byteLength":432,"target":34963},{"buffer":0,"byteOffset":4752,"byteLength":3456,"target":34962},{"buffer":0,"byteOffset":8208,"byteLength":3456,"target":34962},{"buffer":0,"byteOffset":11664,"byteLength":792,"target":34963},{"buffer":0,"byteOffset":12456,"byteLength":2856,"target":34962},{"buffer":0,"byteOffset":15312,"byteLength":2856,"target":34962},{"buffer":0,"byteOffset":18168,"byteLength":744,"target":34963},{"buffer":0,"byteOffset":18912,"byteLength":2904,"target":34962},{"buffer":0,"byteOffset":21816,"byteLength":2904,"target":34962},{"buffer":0,"byteOffset":24720,"byteLength":600,"target":34963},{"buffer":0,"byteOffset":25320,"byteLength":2904,"target":34962},{"buffer":0,"byteOffset":28224,"byteLength":2904,"target":34962},{"buffer":0,"byteOffset":31128,"byteLength":636,"target":34963},{"buffer":0,"byteOffset":31764,"byteLength":288,"target":34962},{"buffer":0,"byteOffset":32052,"byteLength":288,"target":34962},{"buffer":0,"byteOffset":32340,"byteLength":72,"target":34963},{"buffer":0,"byteOffset":32412,"byteLength":864,"target":34962},{"buffer":0,"byteOffset":33276,"byteLength":864,"target":34962},{"buffer":0,"byteOffset":34140,"byteLength":216,"target":34963},{"buffer":0,"byteOffset":34356,"byteLength":432,"target":34962},{"buffer":0,"byteOffset":34788,"byteLength":432,"target":34962},{"buffer":0,"byteOffset":35220,"byteLength":120,"target":34963},{"buffer":0,"byteOffset":35340,"byteLength":2592,"target":34962},{"buffer":0,"byteOffset":37932,"byteLength":2592,"target":34962},{"buffer":0,"byteOffset":40524,"byteLength":720,"target":34963},{"buffer":0,"byteOffset":41244,"byteLength":720,"target":34962},{"buffer":0,"byteOffset":41964,"byteLength":720,"target":34962},{"buffer":0,"byteOffset":42684,"byteLength":144,"target":34963},{"buffer":0,"byteOffset":42828,"byteLength":576,"target":34962},{"buffer":0,"byteOffset":43404,"byteLength":576,"target":34962},{"buffer":0,"byteOffset":43980,"byteLength":108,"target":34963}],"buffers":[{"byteLength":44088,"uri":"grove_altar.bin"}],"images":[],"materials":[{"doubleSided":true,"name":"Prop_Fruit","pbrMetallicRoughness":{"baseColorFactor":[0.6200000047683716,0.05999999865889549,0.029999999329447746,1],"metallicFactor":0,"roughnessFactor":0.6000000238418579}},{"doubleSided":true,"name":"Prop_Stone","pbrMetallicRoughness":{"baseColorFactor":[0.41999998688697815,0.4000000059604645,0.36000001430511475,1],"metallicFactor":0,"roughnessFactor":0.949999988079071}},{"doubleSided":true,"name":"Prop_StoneDark","pbrMetallicRoughness":{"baseColorFactor":[0.25999999046325684,0.25,0.23000000417232513,1],"metallicFactor":0,"roughnessFactor":0.949999988079071}},{"doubleSided":true,"name":"Prop_Moss","pbrMetallicRoughness":{"baseColorFactor":[0.10000000149011612,0.23999999463558197,0.03999999910593033,1],"metallicFactor":0}},{"doubleSided":true,"name":"Grove_Gourd","pbrMetallicRoughness":{"baseColorFactor":[0.699999988079071,0.36000001430511475,0.05000000074505806,1],"metallicFactor":0,"roughnessFactor":0.699999988079071}},{"doubleSided":true,"name":"Prop_OakDark","pbrMetallicRoughness":{"baseColorFactor":[0.18000000715255737,0.09000000357627869,0.03500000014901161,1],"metallicFactor":0,"roughnessFactor":0.8500000238418579}},{"doubleSided":true,"name":"Prop_Hay","pbrMetallicRoughness":{"baseColorFactor":[0.6200000047683716,0.47999998927116394,0.1599999964237213,1],"metallicFactor":0}},{"doubleSided":true,"name":"Prop_FlowerRed","pbrMetallicRoughness":{"baseColorFactor":[0.699999988079071,0.05000000074505806,0.05000000074505806,1],"metallicFactor":0,"roughnessFactor":0.699999988079071}},{"doubleSided":true,"name":"Grove_Wax","pbrMetallicRoughness":{"baseColorFactor":[0.8600000143051147,0.800000011920929,0.6200000047683716,1],"metallicFactor":0,"roughnessFactor":0.6000000238418579}},{"doubleSided":true,"emissiveFactor":[1,0.550000011920929,0.15000000596046448],"name":"EmitFlame","pbrMetallicRoughness":{"baseColorFactor":[1,0.550000011920929,0.15000000596046448,1],"metallicFactor":0,"roughnessFactor":0.5}},{"doubleSided":true,"emissiveFactor":[1,0.30000001192092896,0.05000000074505806],"name":"EmitEmber","pbrMetallicRoughness":{"baseColorFactor":[1,0.30000001192092896,0.05000000074505806,1],"metallicFactor":0,"roughnessFactor":0.800000011920929}}],"meshes":[{"name":"grove_altar","primitives":[{"attributes":{"NORMAL":0,"POSITION":1},"indices":2,"material":0},{"attributes":{"NORMAL":3,"POSITION":4},"indices":5,"material":1},{"attributes":{"NORMAL":6,"POSITION":7},"indices":8,"material":2},{"attributes":{"NORMAL":9,"POSITION":10},"indices":11,"material":3},{"attributes":{"NORMAL":12,"POSITION":13},"indices":14,"material":4},{"attributes":{"NORMAL":15,"POSITION":16},"indices":17,"material":5},{"attributes":{"NORMAL":18,"POSITION":19},"indices":20,"material":6},{"attributes":{"NORMAL":21,"POSITION":22},"indices":23,"material":7},{"attributes":{"NORMAL":24,"POSITION":25},"indices":26,"material":8},{"attributes":{"NORMAL":27,"POSITION":28},"indices":29,"material":9},{"attributes":{"NORMAL":30,"POSITION":31},"indices":32,"material":10}]}],"nodes":[{"mesh":0,"name":"grove_altar"}],"scene":0,"scenes":[{"name":"Scene","nodes":[0]}],"textures":[]}