{"accessors":[{"bufferView":0,"componentType":5126,"count":721,"type":"VEC3"},{"bufferView":1,"componentType":5126,"count":721,"max":[0.4699999988079071,1.1509807109832764,0.4699999988079071],"min":[-0.4699999988079071,0,-0.4699999988079071],"type":"VEC3"},{"bufferView":2,"componentType":5123,"count":1080,"type":"SCALAR"},{"bufferView":3,"componentType":5126,"count":140,"type":"VEC3"},{"bufferView":4,"componentType":5126,"count":140,"max":[0.3423804044723511,1.152999997138977,0.36000004410743713],"min":[-0.3423803746700287,0.9369999170303345,-0.36000001430511475],"type":"VEC3"},{"bufferView":5,"componentType":5123,"count":180,"type":"SCALAR"},{"bufferView":6,"componentType":5126,"count":264,"type":"VEC3"},{"bufferView":7,"componentType":5126,"count":264,"max":[0.19499999284744263,1.4329999685287476,0.19950000941753387],"min":[-0.19971123337745667,1.0449999570846558,-0.21696940064430237],"type":"VEC3"},{"bufferView":8,"componentType":5123,"count":312,"type":"SCALAR"},{"bufferView":9,"componentType":5126,"count":80,"type":"VEC3"},{"bufferView":10,"componentType":5126,"count":80,"max":[0.237074613571167,1.6850000619888306,0.23792703449726105],"min":[-0.21854497492313385,1.084999918937683,-0.1989741176366806],"type":"VEC3"},{"bufferView":11,"componentType":5123,"count":96,"type":"SCALAR"}],"asset":{"generator":"Khronos glTF Blender I/O v5.2.40","version":"2.0"},"bufferViews":[{"buffer":0,"byteOffset":0,"byteLength":8652,"target":34962},{"buffer":0,"byteOffset":8652,"byteLength":8652,"target":34962},{"buffer":0,"byteOffset":17304,"byteLength":2160,"target":34963},{"buffer":0,"byteOffset":19464,"byteLength":1680,"target":34962},{"buffer":0,"byteOffset":21144,"byteLength":1680,"target":34962},{"buffer":0,"byteOffset":22824,"byteLength":360,"target":34963},{"buffer":0,"byteOffset":23184,"byteLength":3168,"target":34962},{"buffer":0,"byteOffset":26352,"byteLength":3168,"target":34962},{"buffer":0,"byteOffset":29520,"byteLength":624,"target":34963},{"buffer":0,"byteOffset":30144,"byteLength":960,"target":34962},{"buffer":0,"byteOffset":31104,"byteLength":960,"target":34962},{"buffer":0,"byteOffset":32064,"byteLength":192,"target":34963}],"buffers":[{"byteLength":32256,"uri":"grove_brazier.bin"}],"images":[],"materials":[{"doubleSided":true,"name":"Prop_Iron","pbrMetallicRoughness":{"baseColorFactor":[0.03500000014901161,0.03500000014901161,0.03999999910593033,1],"metallicFactor":0,"roughnessFactor":0.5}},{"doubleSided":true,"name":"Grove_Coal","pbrMetallicRoughness":{"baseColorFactor":[0.029999999329447746,0.02500000037252903,0.019999999552965164,1],"metallicFactor":0}},{"doubleSided":true,"emissiveFactor":[1,0.30000001192092896,0.05000000074505806],"name":"EmitEmber","pbrMetallicRoughness":{"baseColorFactor":[1,0.30000001192092896,0.05000000074505806,1],"metallicFactor":0,"roughnessFactor":0.800000011920929}},{"doubleSided":true,"emissiveFactor":[1,0.550000011920929,0.15000000596046448],"name":"EmitFlame","pbrMetallicRoughness":{"baseColorFactor":[1,0.550000011920929,0.15000000596046448,1],"metallicFactor":0,"roughnessFactor":0.5}}],"meshes":[{"name":"grove_brazier","primitives":[{"attributes":{"NORMAL":0,"POSITION":1},"indices":2,"material":0},{"attributes":{"NORMAL":3,"POSITION":4},"indices":5,"material":1},{"attributes":{"NORMAL":6,"POSITION":7},"indices":8,"material":2},{"attributes":{"NORMAL":9,"POSITION":10},"indices":11,"material":3}]}],"nodes":[{"mesh":0,"name":"grove_brazier"}],"scene":0,"scenes":[{"name":"Scene","nodes":[0]}],"textures":[]}