{"accessors":[{"bufferView":0,"componentType":5126,"count":138,"type":"VEC3"},{"bufferView":1,"componentType":5126,"count":138,"max":[0.5896692276000977,1.7140312194824219,0.5990728139877319],"min":[-0.5896692276000977,0,-0.9261164665222168],"type":"VEC3"},{"bufferView":2,"componentType":5123,"count":216,"type":"SCALAR"},{"bufferView":3,"componentType":5126,"count":84,"type":"VEC3"},{"bufferView":4,"componentType":5126,"count":84,"max":[0.5362103581428528,1.6259138584136963,0.21641092002391815],"min":[-0.5362103581428528,0.4869577884674072,-0.31641092896461487],"type":"VEC3"},{"bufferView":5,"componentType":5123,"count":156,"type":"SCALAR"},{"bufferView":6,"componentType":5126,"count":168,"type":"VEC3"},{"bufferView":7,"componentType":5126,"count":168,"max":[0.5900000333786011,1.61777925491333,0.09656789898872375],"min":[-0.5900000333786011,0.49509233236312866,-0.19656789302825928],"type":"VEC3"},{"bufferView":8,"componentType":5123,"count":252,"type":"SCALAR"},{"bufferView":9,"componentType":5126,"count":186,"type":"VEC3"},{"bufferView":10,"componentType":5126,"count":186,"max":[0.42896828055381775,1.521620512008667,0.6149491667747498],"min":[-0.42896828055381775,0.6606484055519104,0.004267178475856781],"type":"VEC3"},{"bufferView":11,"componentType":5123,"count":336,"type":"SCALAR"},{"bufferView":12,"componentType":5126,"count":168,"type":"VEC3"},{"bufferView":13,"componentType":5126,"count":168,"max":[0.33147549629211426,1.4249036312103271,0.1881488412618637],"min":[-0.33147549629211426,0.7591109871864319,0.029993727803230286],"type":"VEC3"},{"bufferView":14,"componentType":5123,"count":312,"type":"SCALAR"},{"bufferView":15,"componentType":5126,"count":84,"type":"VEC3"},{"bufferView":16,"componentType":5126,"count":84,"max":[0.13648991286754608,1.2314698696136475,0.1523101031780243],"min":[-0.13648991286754608,0.9560363292694092,0.08144683390855789],"type":"VEC3"}],"asset":{"generator":"Khronos glTF Blender I/O v5.2.40","version":"2.0"},"bufferViews":[{"buffer":0,"byteOffset":0,"byteLength":1656,"target":34962},{"buffer":0,"byteOffset":1656,"byteLength":1656,"target":34962},{"buffer":0,"byteOffset":3312,"byteLength":432,"target":34963},{"buffer":0,"byteOffset":3744,"byteLength":1008,"target":34962},{"buffer":0,"byteOffset":4752,"byteLength":1008,"target":34962},{"buffer":0,"byteOffset":5760,"byteLength":312,"target":34963},{"buffer":0,"byteOffset":6072,"byteLength":2016,"target":34962},{"buffer":0,"byteOffset":8088,"byteLength":2016,"target":34962},{"buffer":0,"byteOffset":10104,"byteLength":504,"target":34963},{"buffer":0,"byteOffset":10608,"byteLength":2232,"target":34962},{"buffer":0,"byteOffset":12840,"byteLength":2232,"target":34962},{"buffer":0,"byteOffset":15072,"byteLength":672,"target":34963},{"buffer":0,"byteOffset":15744,"byteLength":2016,"target":34962},{"buffer":0,"byteOffset":17760,"byteLength":2016,"target":34962},{"buffer":0,"byteOffset":19776,"byteLength":624,"target":34963},{"buffer":0,"byteOffset":20400,"byteLength":1008,"target":34962},{"buffer":0,"byteOffset":21408,"byteLength":1008,"target":34962}],"buffers":[{"byteLength":22416,"uri":"grove_archery_butt.bin"}],"images":[],"materials":[{"doubleSided":true,"name":"Prop_Oak","pbrMetallicRoughness":{"baseColorFactor":[0.3199999928474426,0.17000000178813934,0.07000000029802322,1],"metallicFactor":0,"roughnessFactor":0.8500000238418579}},{"doubleSided":true,"name":"Prop_Hay","pbrMetallicRoughness":{"baseColorFactor":[0.6200000047683716,0.47999998927116394,0.1599999964237213,1],"metallicFactor":0}},{"doubleSided":true,"name":"Prop_HayDark","pbrMetallicRoughness":{"baseColorFactor":[0.44999998807907104,0.33000001311302185,0.10000000149011612,1],"metallicFactor":0}},{"doubleSided":true,"name":"Prop_PaintWhite","pbrMetallicRoughness":{"baseColorFactor":[0.7799999713897705,0.7599999904632568,0.699999988079071,1],"metallicFactor":0,"roughnessFactor":0.800000011920929}},{"doubleSided":true,"name":"Prop_FlowerRed","pbrMetallicRoughness":{"baseColorFactor":[0.699999988079071,0.05000000074505806,0.05000000074505806,1],"metallicFactor":0,"roughnessFactor":0.699999988079071}},{"doubleSided":true,"name":"Prop_FlowerGold","pbrMetallicRoughness":{"baseColorFactor":[0.75,0.41999998688697815,0.019999999552965164,1],"metallicFactor":0,"roughnessFactor":0.699999988079071}}],"meshes":[{"name":"grove_archery_butt","primitives":[{"attributes":{"NORMAL":0,"POSITION":1},"indices":2,"material":0},{"attributes":{"NORMAL":3,"POSITION":4},"indices":5,"material":1},{"attributes":{"NORMAL":6,"POSITION":7},"indices":8,"material":2},{"attributes":{"NORMAL":9,"POSITION":10},"indices":11,"material":3},{"attributes":{"NORMAL":12,"POSITION":13},"indices":14,"material":4},{"attributes":{"NORMAL":15,"POSITION":16},"indices":5,"material":5}]}],"nodes":[{"mesh":0,"name":"grove_archery_butt"}],"scene":0,"scenes":[{"name":"Scene","nodes":[0]}],"textures":[]}