{"accessors":[{"bufferView":0,"componentType":5126,"count":360,"type":"VEC3"},{"bufferView":1,"componentType":5126,"count":360,"max":[2.954495668411255,1.0499999523162842,0.09000000357627869],"min":[-2.954495668411255,0,-0.8245046138763428],"type":"VEC3"},{"bufferView":2,"componentType":5123,"count":600,"type":"SCALAR"},{"bufferView":3,"componentType":5126,"count":192,"type":"VEC3"},{"bufferView":4,"componentType":5126,"count":192,"max":[2.9340667724609375,0.8950000405311584,0.03599967062473297],"min":[-2.9340667724609375,0.4049999713897705,-0.7807334661483765],"type":"VEC3"},{"bufferView":5,"componentType":5123,"count":288,"type":"SCALAR"},{"bufferView":6,"componentType":5126,"count":24,"type":"VEC3"},{"bufferView":7,"componentType":5126,"count":24,"max":[0.03999999910593033,0.949999988079071,0.10999999940395355],"min":[0,0.44999998807907104,0.07000000774860382],"type":"VEC3"},{"bufferView":8,"componentType":5123,"count":36,"type":"SCALAR"}],"asset":{"generator":"Khronos glTF Blender I/O v5.2.40","version":"2.0"},"bufferViews":[{"buffer":0,"byteOffset":0,"byteLength":4320,"target":34962},{"buffer":0,"byteOffset":4320,"byteLength":4320,"target":34962},{"buffer":0,"byteOffset":8640,"byteLength":1200,"target":34963},{"buffer":0,"byteOffset":9840,"byteLength":2304,"target":34962},{"buffer":0,"byteOffset":12144,"byteLength":2304,"target":34962},{"buffer":0,"byteOffset":14448,"byteLength":576,"target":34963},{"buffer":0,"byteOffset":15024,"byteLength":288,"target":34962},{"buffer":0,"byteOffset":15312,"byteLength":288,"target":34962},{"buffer":0,"byteOffset":15600,"byteLength":72,"target":34963}],"buffers":[{"byteLength":15672,"uri":"grove_training_ring.bin"}],"images":[],"materials":[{"doubleSided":true,"name":"Prop_OakDark","pbrMetallicRoughness":{"baseColorFactor":[0.18000000715255737,0.09000000357627869,0.03500000014901161,1],"metallicFactor":0,"roughnessFactor":0.8500000238418579}},{"doubleSided":true,"name":"Prop_Oak","pbrMetallicRoughness":{"baseColorFactor":[0.3199999928474426,0.17000000178813934,0.07000000029802322,1],"metallicFactor":0,"roughnessFactor":0.8500000238418579}},{"doubleSided":true,"name":"Prop_Sack","pbrMetallicRoughness":{"baseColorFactor":[0.550000011920929,0.41999998688697815,0.25,1],"metallicFactor":0}}],"meshes":[{"name":"grove_training_ring","primitives":[{"attributes":{"NORMAL":0,"POSITION":1},"indices":2,"material":0},{"attributes":{"NORMAL":3,"POSITION":4},"indices":5,"material":1},{"attributes":{"NORMAL":6,"POSITION":7},"indices":8,"material":2}]}],"nodes":[{"mesh":0,"name":"grove_training_ring"}],"scene":0,"scenes":[{"name":"Scene","nodes":[0]}],"textures":[]}