{"accessors":[{"bufferView":0,"componentType":5126,"count":1302,"max":[2.625013589859009,8.371685028076172,2.697756767272949],"min":[-2.912055730819702,0,-2.68381404876709],"type":"VEC3"},{"bufferView":1,"componentType":5126,"count":1302,"type":"VEC3"},{"bufferView":2,"componentType":5123,"count":2040,"type":"SCALAR"},{"bufferView":3,"componentType":5126,"count":144,"max":[0.3596106171607971,2.142383337020874,1.0398331880569458],"min":[-0.1996106058359146,1.0503835678100586,0.8001669049263],"type":"VEC3"},{"bufferView":4,"componentType":5126,"count":144,"type":"VEC3"},{"bufferView":5,"componentType":5123,"count":192,"type":"SCALAR"},{"bufferView":6,"componentType":5126,"count":160,"max":[2.223825454711914,1.1963835954666138,2.1823840141296387],"min":[-2.223825454711914,0.030383512377738953,-2.1823837757110596],"type":"VEC3"},{"bufferView":7,"componentType":5126,"count":160,"type":"VEC3"},{"bufferView":8,"componentType":5123,"count":192,"type":"SCALAR"},{"bufferView":9,"componentType":5126,"count":720,"max":[4.586511611938477,10.400867462158203,2.482226848602295],"min":[-4.798708915710449,5.48038387298584,-3.054924488067627],"type":"VEC3"},{"bufferView":10,"componentType":5126,"count":720,"type":"VEC3"},{"bufferView":11,"componentType":5123,"count":720,"type":"SCALAR"},{"bufferView":12,"componentType":5126,"count":720,"max":[3.5583581924438477,9.786788940429688,4.538728713989258],"min":[-3.2423415184020996,5.850964546203613,-4.35878849029541],"type":"VEC3"},{"bufferView":13,"componentType":5126,"count":720,"type":"VEC3"},{"bufferView":14,"componentType":5123,"count":720,"type":"SCALAR"},{"bufferView":15,"componentType":5126,"count":720,"max":[3.9855475425720215,9.936851501464844,3.8485870361328125],"min":[-3.999871253967285,5.655191421508789,-4.009471893310547],"type":"VEC3"},{"bufferView":16,"componentType":5126,"count":720,"type":"VEC3"},{"bufferView":17,"componentType":5123,"count":720,"type":"SCALAR"},{"bufferView":18,"componentType":5126,"count":108,"max":[1.2126717567443848,0.4713835120201111,1.7845349311828613],"min":[-2.0788824558258057,0.42138350009918213,-2.047116279602051],"type":"VEC3"},{"bufferView":19,"componentType":5126,"count":108,"type":"VEC3"},{"bufferView":20,"componentType":5123,"count":180,"type":"SCALAR"}],"asset":{"generator":"Khronos glTF Blender I/O v5.2.40","version":"2.0"},"bufferViews":[{"buffer":0,"byteLength":15624,"byteOffset":0,"target":34962},{"buffer":0,"byteLength":15624,"byteOffset":15624,"target":34962},{"buffer":0,"byteLength":4080,"byteOffset":31248,"target":34963},{"buffer":0,"byteLength":1728,"byteOffset":35328,"target":34962},{"buffer":0,"byteLength":1728,"byteOffset":37056,"target":34962},{"buffer":0,"byteLength":384,"byteOffset":38784,"target":34963},{"buffer":0,"byteLength":1920,"byteOffset":39168,"target":34962},{"buffer":0,"byteLength":1920,"byteOffset":41088,"target":34962},{"buffer":0,"byteLength":384,"byteOffset":43008,"target":34963},{"buffer":0,"byteLength":8640,"byteOffset":43392,"target":34962},{"buffer":0,"byteLength":8640,"byteOffset":52032,"target":34962},{"buffer":0,"byteLength":1440,"byteOffset":60672,"target":34963},{"buffer":0,"byteLength":8640,"byteOffset":62112,"target":34962},{"buffer":0,"byteLength":8640,"byteOffset":70752,"target":34962},{"buffer":0,"byteLength":1440,"byteOffset":79392,"target":34963},{"buffer":0,"byteLength":8640,"byteOffset":80832,"target":34962},{"buffer":0,"byteLength":8640,"byteOffset":89472,"target":34962},{"buffer":0,"byteLength":1440,"byteOffset":98112,"target":34963},{"buffer":0,"byteLength":1296,"byteOffset":99552,"target":34962},{"buffer":0,"byteLength":1296,"byteOffset":100848,"target":34962},{"buffer":0,"byteLength":360,"byteOffset":102144,"target":34963}],"buffers":[{"byteLength":102504,"uri":"grove_oak.bin"}],"images":[],"materials":[{"doubleSided":true,"name":"Prop_Bark","pbrMetallicRoughness":{"baseColorFactor":[0.1599999964237213,0.07999999821186066,0.03500000014901161,1],"metallicFactor":0,"roughnessFactor":0.8999999761581421}},{"doubleSided":true,"name":"Grove_Hollow","pbrMetallicRoughness":{"baseColorFactor":[0.014999999664723873,0.009999999776482582,0.006000000052154064,1],"metallicFactor":0}},{"doubleSided":true,"name":"Prop_Moss","pbrMetallicRoughness":{"baseColorFactor":[0.10000000149011612,0.23999999463558197,0.03999999910593033,1],"metallicFactor":0}},{"doubleSided":true,"name":"Prop_Canopy","pbrMetallicRoughness":{"baseColorFactor":[0.07000000029802322,0.20000000298023224,0.03999999910593033,1],"metallicFactor":0,"roughnessFactor":0.8999999761581421}},{"doubleSided":true,"name":"Prop_CanopyLight","pbrMetallicRoughness":{"baseColorFactor":[0.11999999731779099,0.27000001072883606,0.05000000074505806,1],"metallicFactor":0,"roughnessFactor":0.8999999761581421}},{"doubleSided":true,"name":"Prop_LeafDark","pbrMetallicRoughness":{"baseColorFactor":[0.04500000178813934,0.12999999523162842,0.029999999329447746,1],"metallicFactor":0,"roughnessFactor":0.8999999761581421}},{"doubleSided":true,"name":"Prop_FlowerWhite","pbrMetallicRoughness":{"baseColorFactor":[0.8500000238418579,0.8199999928474426,0.75,1],"metallicFactor":0,"roughnessFactor":0.699999988079071}}],"meshes":[{"name":"grove_oak","primitives":[{"attributes":{"NORMAL":1,"POSITION":0},"indices":2,"material":0},{"attributes":{"NORMAL":4,"POSITION":3},"indices":5,"material":1},{"attributes":{"NORMAL":7,"POSITION":6},"indices":8,"material":2},{"attributes":{"NORMAL":10,"POSITION":9},"indices":11,"material":3},{"attributes":{"NORMAL":13,"POSITION":12},"indices":14,"material":4},{"attributes":{"NORMAL":16,"POSITION":15},"indices":17,"material":5},{"attributes":{"NORMAL":19,"POSITION":18},"indices":20,"material":6}]}],"nodes":[{"mesh":0,"name":"grove_oak"}],"scene":0,"scenes":[{"name":"Scene","nodes":[0]}],"textures":[]}
