{"accessors":[{"bufferView":0,"componentType":5126,"count":228,"type":"VEC3"},{"bufferView":1,"componentType":5126,"count":228,"max":[0.14499999582767487,2.2129905223846436,0.14499999582767487],"min":[-0.14499999582767487,1.8945660591125488,-0.14499999582767487],"type":"VEC3"},{"bufferView":2,"componentType":5123,"count":348,"type":"SCALAR"},{"bufferView":3,"componentType":5126,"count":36,"type":"VEC3"},{"bufferView":4,"componentType":5126,"count":36,"max":[0.05196152254939079,1.9500000476837158,0.05999999865889549],"min":[-0.05196152254939079,0.020000040531158447,-0.05999999865889549],"type":"VEC3"},{"bufferView":5,"componentType":5123,"count":60,"type":"SCALAR"},{"bufferView":6,"componentType":5126,"count":36,"type":"VEC3"},{"bufferView":7,"componentType":5126,"count":36,"max":[0.10392304509878159,0.11999999731779099,0.11999999731779099],"min":[-0.10392304509878159,0,-0.11999999731779099],"type":"VEC3"},{"bufferView":8,"componentType":5126,"count":60,"type":"VEC3"},{"bufferView":9,"componentType":5126,"count":60,"max":[0.05625000223517418,2.075000047683716,0.06495191156864166],"min":[-0.05625001713633537,1.9249999523162842,-0.06495191901922226],"type":"VEC3"},{"bufferView":10,"componentType":5123,"count":72,"type":"SCALAR"},{"bufferView":11,"componentType":5126,"count":20,"type":"VEC3"},{"bufferView":12,"componentType":5126,"count":20,"max":[0.09510565549135208,2.380000114440918,0.08090170472860336],"min":[-0.09510565549135208,2.0199999809265137,-0.10000000149011612],"type":"VEC3"},{"bufferView":13,"componentType":5123,"count":24,"type":"SCALAR"},{"bufferView":14,"componentType":5126,"count":16,"type":"VEC3"},{"bufferView":15,"componentType":5126,"count":16,"max":[0.054999999701976776,2.228799819946289,0.054999999701976776],"min":[-0.054999999701976776,2.048799991607666,-0.054999999701976776],"type":"VEC3"},{"bufferView":16,"componentType":5123,"count":18,"type":"SCALAR"}],"asset":{"generator":"Khronos glTF Blender I/O v5.2.40","version":"2.0"},"bufferViews":[{"buffer":0,"byteOffset":0,"byteLength":2736,"target":34962},{"buffer":0,"byteOffset":2736,"byteLength":2736,"target":34962},{"buffer":0,"byteOffset":5472,"byteLength":696,"target":34963},{"buffer":0,"byteOffset":6168,"byteLength":432,"target":34962},{"buffer":0,"byteOffset":6600,"byteLength":432,"target":34962},{"buffer":0,"byteOffset":7032,"byteLength":120,"target":34963},{"buffer":0,"byteOffset":7152,"byteLength":432,"target":34962},{"buffer":0,"byteOffset":7584,"byteLength":432,"target":34962},{"buffer":0,"byteOffset":8016,"byteLength":720,"target":34962},{"buffer":0,"byteOffset":8736,"byteLength":720,"target":34962},{"buffer":0,"byteOffset":9456,"byteLength":144,"target":34963},{"buffer":0,"byteOffset":9600,"byteLength":240,"target":34962},{"buffer":0,"byteOffset":9840,"byteLength":240,"target":34962},{"buffer":0,"byteOffset":10080,"byteLength":48,"target":34963},{"buffer":0,"byteOffset":10128,"byteLength":192,"target":34962},{"buffer":0,"byteOffset":10320,"byteLength":192,"target":34962},{"buffer":0,"byteOffset":10512,"byteLength":36,"target":34963}],"buffers":[{"byteLength":10548,"uri":"grove_torch.bin"}],"images":[],"materials":[{"doubleSided":true,"name":"Prop_Iron","pbrMetallicRoughness":{"baseColorFactor":[0.03500000014901161,0.03500000014901161,0.03999999910593033,1],"metallicFactor":0,"roughnessFactor":0.5}},{"doubleSided":true,"name":"Prop_OakDark","pbrMetallicRoughness":{"baseColorFactor":[0.18000000715255737,0.09000000357627869,0.03500000014901161,1],"metallicFactor":0,"roughnessFactor":0.8500000238418579}},{"doubleSided":true,"name":"Prop_StoneDark","pbrMetallicRoughness":{"baseColorFactor":[0.25999999046325684,0.25,0.23000000417232513,1],"metallicFactor":0,"roughnessFactor":0.949999988079071}},{"doubleSided":true,"name":"Grove_Coal","pbrMetallicRoughness":{"baseColorFactor":[0.029999999329447746,0.02500000037252903,0.019999999552965164,1],"metallicFactor":0}},{"doubleSided":true,"emissiveFactor":[1,0.550000011920929,0.15000000596046448],"name":"EmitFlame","pbrMetallicRoughness":{"baseColorFactor":[1,0.550000011920929,0.15000000596046448,1],"metallicFactor":0,"roughnessFactor":0.5}},{"doubleSided":true,"emissiveFactor":[1,0.30000001192092896,0.05000000074505806],"name":"EmitEmber","pbrMetallicRoughness":{"baseColorFactor":[1,0.30000001192092896,0.05000000074505806,1],"metallicFactor":0,"roughnessFactor":0.800000011920929}}],"meshes":[{"name":"grove_torch","primitives":[{"attributes":{"NORMAL":0,"POSITION":1},"indices":2,"material":0},{"attributes":{"NORMAL":3,"POSITION":4},"indices":5,"material":1},{"attributes":{"NORMAL":6,"POSITION":7},"indices":5,"material":2},{"attributes":{"NORMAL":8,"POSITION":9},"indices":10,"material":3},{"attributes":{"NORMAL":11,"POSITION":12},"indices":13,"material":4},{"attributes":{"NORMAL":14,"POSITION":15},"indices":16,"material":5}]}],"nodes":[{"mesh":0,"name":"grove_torch"}],"scene":0,"scenes":[{"name":"Scene","nodes":[0]}],"textures":[]}