{"accessors":[{"bufferView":0,"componentType":5126,"count":60,"type":"VEC3"},{"bufferView":1,"componentType":5126,"count":60,"max":[0.4755282700061798,0.08096562325954437,0.5],"min":[-0.4755282700061798,0.05096562206745148,-0.5],"type":"VEC3"},{"bufferView":2,"componentType":5123,"count":108,"type":"SCALAR"},{"bufferView":3,"componentType":5126,"count":300,"type":"VEC3"},{"bufferView":4,"componentType":5126,"count":300,"max":[0.7586334943771362,0.2666100561618805,0.7255292534828186],"min":[-0.6490110754966736,0,-0.766906201839447],"type":"VEC3"},{"bufferView":5,"componentType":5123,"count":300,"type":"SCALAR"},{"bufferView":6,"componentType":5126,"count":300,"type":"VEC3"},{"bufferView":7,"componentType":5126,"count":300,"max":[0.7151086330413818,0.24776016175746918,0.7360062599182129],"min":[-0.7696348428726196,0.012519054114818573,-0.7394212484359741],"type":"VEC3"},{"bufferView":8,"componentType":5123,"count":300,"type":"SCALAR"},{"bufferView":9,"componentType":5126,"count":144,"type":"VEC3"},{"bufferView":10,"componentType":5126,"count":144,"max":[0.4643491804599762,0.5472196340560913,0.4643491804599762],"min":[-0.4643491804599762,0.014711573719978333,-0.4643491804599762],"type":"VEC3"},{"bufferView":11,"componentType":5123,"count":240,"type":"SCALAR"},{"bufferView":12,"componentType":5126,"count":288,"type":"VEC3"},{"bufferView":13,"componentType":5126,"count":288,"max":[0.47941142320632935,0.41378581523895264,0.47941142320632935],"min":[-0.47941142320632935,0.12814541161060333,-0.47941142320632935],"type":"VEC3"},{"bufferView":14,"componentType":5123,"count":480,"type":"SCALAR"},{"bufferView":15,"componentType":5126,"count":320,"type":"VEC3"},{"bufferView":16,"componentType":5126,"count":320,"max":[0.2160000056028366,0.5459656119346619,0.22049999237060547],"min":[-0.35061442852020264,0.03155747428536415,-0.3054310977458954],"type":"VEC3"},{"bufferView":17,"componentType":5123,"count":378,"type":"SCALAR"},{"bufferView":18,"componentType":5126,"count":100,"type":"VEC3"},{"bufferView":19,"componentType":5126,"count":100,"max":[0.26989176869392395,0.9209656119346619,0.25944793224334717],"min":[-0.26660019159317017,0.17096562683582306,-0.21244913339614868],"type":"VEC3"},{"bufferView":20,"componentType":5123,"count":120,"type":"SCALAR"}],"asset":{"generator":"Khronos glTF Blender I/O v5.2.40","version":"2.0"},"bufferViews":[{"buffer":0,"byteOffset":0,"byteLength":720,"target":34962},{"buffer":0,"byteOffset":720,"byteLength":720,"target":34962},{"buffer":0,"byteOffset":1440,"byteLength":216,"target":34963},{"buffer":0,"byteOffset":1656,"byteLength":3600,"target":34962},{"buffer":0,"byteOffset":5256,"byteLength":3600,"target":34962},{"buffer":0,"byteOffset":8856,"byteLength":600,"target":34963},{"buffer":0,"byteOffset":9456,"byteLength":3600,"target":34962},{"buffer":0,"byteOffset":13056,"byteLength":3600,"target":34962},{"buffer":0,"byteOffset":16656,"byteLength":600,"target":34963},{"buffer":0,"byteOffset":17256,"byteLength":1728,"target":34962},{"buffer":0,"byteOffset":18984,"byteLength":1728,"target":34962},{"buffer":0,"byteOffset":20712,"byteLength":480,"target":34963},{"buffer":0,"byteOffset":21192,"byteLength":3456,"target":34962},{"buffer":0,"byteOffset":24648,"byteLength":3456,"target":34962},{"buffer":0,"byteOffset":28104,"byteLength":960,"target":34963},{"buffer":0,"byteOffset":29064,"byteLength":3840,"target":34962},{"buffer":0,"byteOffset":32904,"byteLength":3840,"target":34962},{"buffer":0,"byteOffset":36744,"byteLength":756,"target":34963},{"buffer":0,"byteOffset":37500,"byteLength":1200,"target":34962},{"buffer":0,"byteOffset":38700,"byteLength":1200,"target":34962},{"buffer":0,"byteOffset":39900,"byteLength":240,"target":34963}],"buffers":[{"byteLength":40140,"uri":"grove_campfire.bin"}],"images":[],"materials":[{"doubleSided":true,"name":"Grove_Coal","pbrMetallicRoughness":{"baseColorFactor":[0.029999999329447746,0.02500000037252903,0.019999999552965164,1],"metallicFactor":0}},{"doubleSided":true,"name":"Prop_StoneDark","pbrMetallicRoughness":{"baseColorFactor":[0.25999999046325684,0.25,0.23000000417232513,1],"metallicFactor":0,"roughnessFactor":0.949999988079071}},{"doubleSided":true,"name":"Prop_Stone","pbrMetallicRoughness":{"baseColorFactor":[0.41999998688697815,0.4000000059604645,0.36000001430511475,1],"metallicFactor":0,"roughnessFactor":0.949999988079071}},{"doubleSided":true,"name":"Prop_Bark","pbrMetallicRoughness":{"baseColorFactor":[0.1599999964237213,0.07999999821186066,0.03500000014901161,1],"metallicFactor":0,"roughnessFactor":0.8999999761581421}},{"doubleSided":true,"name":"Prop_Sack","pbrMetallicRoughness":{"baseColorFactor":[0.550000011920929,0.41999998688697815,0.25,1],"metallicFactor":0}},{"doubleSided":true,"emissiveFactor":[1,0.30000001192092896,0.05000000074505806],"name":"EmitEmber","pbrMetallicRoughness":{"baseColorFactor":[1,0.30000001192092896,0.05000000074505806,1],"metallicFactor":0,"roughnessFactor":0.800000011920929}},{"doubleSided":true,"emissiveFactor":[1,0.550000011920929,0.15000000596046448],"name":"EmitFlame","pbrMetallicRoughness":{"baseColorFactor":[1,0.550000011920929,0.15000000596046448,1],"metallicFactor":0,"roughnessFactor":0.5}}],"meshes":[{"name":"grove_campfire","primitives":[{"attributes":{"NORMAL":0,"POSITION":1},"indices":2,"material":0},{"attributes":{"NORMAL":3,"POSITION":4},"indices":5,"material":1},{"attributes":{"NORMAL":6,"POSITION":7},"indices":8,"material":2},{"attributes":{"NORMAL":9,"POSITION":10},"indices":11,"material":3},{"attributes":{"NORMAL":12,"POSITION":13},"indices":14,"material":4},{"attributes":{"NORMAL":15,"POSITION":16},"indices":17,"material":5},{"attributes":{"NORMAL":18,"POSITION":19},"indices":20,"material":6}]}],"nodes":[{"mesh":0,"name":"grove_campfire"}],"scene":0,"scenes":[{"name":"Scene","nodes":[0]}],"textures":[]}