{"accessors":[{"bufferView":0,"componentType":5126,"count":150,"max":[0.5629164576530457,1.5460000038146973,0.3897113800048828],"min":[-0.5629164576530457,0,-0.3897113800048828],"type":"VEC3"},{"bufferView":1,"componentType":5126,"count":150,"type":"VEC3"},{"bufferView":2,"componentType":5123,"count":180,"type":"SCALAR"},{"bufferView":3,"componentType":5126,"count":96,"max":[0.39022937417030334,1.51364004611969,0.2198108732700348],"min":[-0.4448811709880829,0.09000000357627869,-0.23371730744838715],"type":"VEC3"},{"bufferView":4,"componentType":5126,"count":96,"type":"VEC3"},{"bufferView":5,"componentType":5123,"count":132,"type":"SCALAR"},{"bufferView":6,"componentType":5126,"count":264,"max":[0.2941281497478485,1.2105293273925781,0.2324250489473343],"min":[-0.25001031160354614,0.4397510588169098,0.16032828390598297],"type":"VEC3"},{"bufferView":7,"componentType":5126,"count":264,"type":"VEC3"},{"bufferView":8,"componentType":5123,"count":396,"type":"SCALAR"}],"asset":{"generator":"Khronos glTF Blender I/O v5.2.40","version":"2.0"},"bufferViews":[{"buffer":0,"byteLength":1800,"byteOffset":0,"target":34962},{"buffer":0,"byteLength":1800,"byteOffset":1800,"target":34962},{"buffer":0,"byteLength":360,"byteOffset":3600,"target":34963},{"buffer":0,"byteLength":1152,"byteOffset":3960,"target":34962},{"buffer":0,"byteLength":1152,"byteOffset":5112,"target":34962},{"buffer":0,"byteLength":264,"byteOffset":6264,"target":34963},{"buffer":0,"byteLength":3168,"byteOffset":6528,"target":34962},{"buffer":0,"byteLength":3168,"byteOffset":9696,"target":34962},{"buffer":0,"byteLength":792,"byteOffset":12864,"target":34963}],"buffers":[{"byteLength":13656,"uri":"grove_rune_stone.bin"}],"images":[],"materials":[{"doubleSided":true,"name":"Prop_Moss","pbrMetallicRoughness":{"baseColorFactor":[0.10000000149011612,0.23999999463558197,0.03999999910593033,1],"metallicFactor":0}},{"doubleSided":true,"name":"Prop_StoneDark","pbrMetallicRoughness":{"baseColorFactor":[0.25999999046325684,0.25,0.23000000417232513,1],"metallicFactor":0,"roughnessFactor":0.949999988079071}},{"doubleSided":true,"emissiveFactor":[0.3499999940395355,1,0.6000000238418579],"name":"EmitRune","pbrMetallicRoughness":{"baseColorFactor":[0.3499999940395355,1,0.6000000238418579,1],"metallicFactor":0,"roughnessFactor":0.5}}],"meshes":[{"name":"grove_rune_stone","primitives":[{"attributes":{"NORMAL":1,"POSITION":0},"indices":2,"material":0},{"attributes":{"NORMAL":4,"POSITION":3},"indices":5,"material":1},{"attributes":{"NORMAL":7,"POSITION":6},"indices":8,"material":2}]}],"nodes":[{"mesh":0,"name":"grove_rune_stone"}],"scene":0,"scenes":[{"name":"Scene","nodes":[0]}],"textures":[]}
