{"accessors":[{"bufferView":0,"componentType":5126,"count":60,"max":[0.7495900392532349,0.358221173286438,0.4923042356967926],"min":[0.2035094052553177,0.04719642549753189,-0.00850781798362732],"type":"VEC3"},{"bufferView":1,"componentType":5126,"count":60,"type":"VEC3"},{"bufferView":2,"componentType":5123,"count":60,"type":"SCALAR"},{"bufferView":3,"componentType":5126,"count":377,"max":[0.4089857339859009,2.7459192276000977,0.34181004762649536],"min":[-0.5142094492912292,0.07498432695865631,-0.37517058849334717],"type":"VEC3"},{"bufferView":4,"componentType":5126,"count":377,"type":"VEC3"},{"bufferView":5,"componentType":5123,"count":576,"type":"SCALAR"},{"bufferView":6,"componentType":5126,"count":178,"max":[0.6668395400047302,2.7576098442077637,0.5239453315734863],"min":[-0.6668394804000854,0,-0.5239453911781311],"type":"VEC3"},{"bufferView":7,"componentType":5126,"count":178,"type":"VEC3"},{"bufferView":8,"componentType":5123,"count":222,"type":"SCALAR"},{"bufferView":9,"componentType":5126,"count":60,"max":[-0.13500000536441803,1.2960000038146973,0.24763140082359314],"min":[-0.4650000333786011,0.7239999771118164,0.15236860513687134],"type":"VEC3"},{"bufferView":10,"componentType":5126,"count":60,"type":"VEC3"},{"bufferView":11,"componentType":5123,"count":72,"type":"SCALAR"}],"asset":{"generator":"Khronos glTF Blender I/O v5.2.40","version":"2.0"},"bufferViews":[{"buffer":0,"byteLength":720,"byteOffset":0,"target":34962},{"buffer":0,"byteLength":720,"byteOffset":720,"target":34962},{"buffer":0,"byteLength":120,"byteOffset":1440,"target":34963},{"buffer":0,"byteLength":4524,"byteOffset":1560,"target":34962},{"buffer":0,"byteLength":4524,"byteOffset":6084,"target":34962},{"buffer":0,"byteLength":1152,"byteOffset":10608,"target":34963},{"buffer":0,"byteLength":2136,"byteOffset":11760,"target":34962},{"buffer":0,"byteLength":2136,"byteOffset":13896,"target":34962},{"buffer":0,"byteLength":444,"byteOffset":16032,"target":34963},{"buffer":0,"byteLength":720,"byteOffset":16476,"target":34962},{"buffer":0,"byteLength":720,"byteOffset":17196,"target":34962},{"buffer":0,"byteLength":144,"byteOffset":17916,"target":34963}],"buffers":[{"byteLength":18060,"uri":"grove_standing_stone.bin"}],"images":[],"materials":[{"doubleSided":true,"name":"Prop_Rock","pbrMetallicRoughness":{"baseColorFactor":[0.30000001192092896,0.30000001192092896,0.2800000011920929,1],"metallicFactor":0,"roughnessFactor":0.949999988079071}},{"doubleSided":true,"name":"Prop_Stone","pbrMetallicRoughness":{"baseColorFactor":[0.41999998688697815,0.4000000059604645,0.36000001430511475,1],"metallicFactor":0,"roughnessFactor":0.949999988079071}},{"doubleSided":true,"name":"Prop_Moss","pbrMetallicRoughness":{"baseColorFactor":[0.10000000149011612,0.23999999463558197,0.03999999910593033,1],"metallicFactor":0}},{"doubleSided":true,"name":"Grove_Lichen","pbrMetallicRoughness":{"baseColorFactor":[0.36000001430511475,0.4000000059604645,0.2199999988079071,1],"metallicFactor":0}}],"meshes":[{"name":"grove_standing_stone","primitives":[{"attributes":{"NORMAL":1,"POSITION":0},"indices":2,"material":0},{"attributes":{"NORMAL":4,"POSITION":3},"indices":5,"material":1},{"attributes":{"NORMAL":7,"POSITION":6},"indices":8,"material":2},{"attributes":{"NORMAL":10,"POSITION":9},"indices":11,"material":3}]}],"nodes":[{"mesh":0,"name":"grove_standing_stone"}],"scene":0,"scenes":[{"name":"Scene","nodes":[0]}],"textures":[]}
