{"accessors":[{"bufferView":0,"componentType":5126,"count":5,"type":"VEC3"},{"bufferView":1,"componentType":5126,"count":5,"max":[-1.100000023841858,5.799999713897705,0.8100000023841858],"min":[-1.899999976158142,3.8499999046325684,0.8100000023841858],"type":"VEC3"},{"bufferView":2,"componentType":5123,"count":9,"type":"SCALAR"},{"bufferView":3,"componentType":5126,"count":5,"type":"VEC3"},{"bufferView":4,"componentType":5126,"count":5,"max":[1.899999976158142,5.799999713897705,0.8100000023841858],"min":[1.100000023841858,3.8499999046325684,0.8100000023841858],"type":"VEC3"},{"bufferView":5,"componentType":5126,"count":24,"type":"VEC3"},{"bufferView":6,"componentType":5126,"count":24,"max":[-1.0199999809265137,5.880000114440918,0.8500000238418579],"min":[-1.9800000190734863,5.819999694824219,0.7900000214576721],"type":"VEC3"},{"bufferView":7,"componentType":5123,"count":36,"type":"SCALAR"},{"bufferView":8,"componentType":5126,"count":24,"type":"VEC3"},{"bufferView":9,"componentType":5126,"count":24,"max":[1.9800000190734863,5.880000114440918,0.8500000238418579],"min":[1.0199999809265137,5.819999694824219,0.7900000214576721],"type":"VEC3"},{"bufferView":10,"componentType":5126,"count":96,"type":"VEC3"},{"bufferView":11,"componentType":5126,"count":96,"max":[-1.2599999904632568,5.324999809265137,0.8399999737739563],"min":[-1.7400000095367432,4.845000267028809,0.8199999928474426],"type":"VEC3"},{"bufferView":12,"componentType":5123,"count":180,"type":"SCALAR"},{"bufferView":13,"componentType":5126,"count":96,"type":"VEC3"},{"bufferView":14,"componentType":5126,"count":96,"max":[1.7400000095367432,5.324999809265137,0.8399999737739563],"min":[1.2599999904632568,4.845000267028809,0.8199999928474426],"type":"VEC3"},{"bufferView":15,"componentType":5126,"count":24,"type":"VEC3"},{"bufferView":16,"componentType":5126,"count":24,"max":[6.050000190734863,3.0199999809265137,0.6600000262260437],"min":[-6.050000190734863,2.859999895095825,0.4399999976158142],"type":"VEC3"},{"bufferView":17,"componentType":5126,"count":24,"type":"VEC2"},{"bufferView":18,"componentType":5126,"count":20,"type":"VEC3"},{"bufferView":19,"componentType":5126,"count":20,"max":[0.10508709400892258,2.999999761581421,0.11982007324695587],"min":[-0.10508733242750168,-1.5052728485898115e-07,-0.11982005089521408],"type":"VEC3"},{"bufferView":20,"componentType":5126,"count":20,"type":"VEC2"},{"bufferView":21,"componentType":5123,"count":30,"type":"SCALAR"},{"bufferView":22,"componentType":5126,"count":20,"type":"VEC3"},{"bufferView":23,"componentType":5126,"count":20,"max":[0.10508709400892258,2.999999761581421,0.11982007324695587],"min":[-0.10508733242750168,-1.5052728485898115e-07,-0.11982005089521408],"type":"VEC3"},{"bufferView":24,"componentType":5126,"count":20,"type":"VEC2"},{"bufferView":25,"componentType":5126,"count":20,"type":"VEC3"},{"bufferView":26,"componentType":5126,"count":20,"max":[0.10508709400892258,2.999999761581421,0.11982007324695587],"min":[-0.10508733242750168,-1.5052728485898115e-07,-0.11982005089521408],"type":"VEC3"},{"bufferView":27,"componentType":5126,"count":20,"type":"VEC2"},{"bufferView":28,"componentType":5126,"count":20,"type":"VEC3"},{"bufferView":29,"componentType":5126,"count":20,"max":[0.10508709400892258,2.999999761581421,0.11982007324695587],"min":[-0.10508733242750168,-1.5052728485898115e-07,-0.11982005089521408],"type":"VEC3"},{"bufferView":30,"componentType":5126,"count":20,"type":"VEC2"},{"bufferView":31,"componentType":5126,"count":24,"type":"VEC3"},{"bufferView":32,"componentType":5126,"count":24,"max":[0.10508709400892258,2.999999761581421,0.11982007324695587],"min":[-0.10508733242750168,-1.5052728485898115e-07,-0.11982005089521408],"type":"VEC3"},{"bufferView":33,"componentType":5126,"count":24,"type":"VEC2"},{"bufferView":34,"componentType":5123,"count":36,"type":"SCALAR"},{"bufferView":35,"componentType":5126,"count":744,"type":"VEC3"},{"bufferView":36,"componentType":5126,"count":744,"max":[1.0737497806549072,2.3513262271881104,0.06314271688461304],"min":[-0.04626310616731644,0.033089637756347656,-0.05755755677819252],"type":"VEC3"},{"bufferView":37,"componentType":5126,"count":744,"type":"VEC2"},{"bufferView":38,"componentType":5123,"count":1362,"type":"SCALAR"},{"bufferView":39,"componentType":5126,"count":28,"type":"VEC3"},{"bufferView":40,"componentType":5126,"count":28,"max":[0.8667700886726379,1.7624019384384155,0.0312458835542202],"min":[0.1617247760295868,1.3117259740829468,0.031245503574609756],"type":"VEC3"},{"bufferView":41,"componentType":5123,"count":48,"type":"SCALAR"},{"bufferView":42,"componentType":5126,"count":360,"type":"VEC3"},{"bufferView":43,"componentType":5126,"count":360,"max":[0.7034913897514343,2.5548486709594727,0.29893577098846436],"min":[-0.7034929394721985,-0.008544921875,-0.24002820253372192],"type":"VEC3"},{"bufferView":44,"componentType":5126,"count":360,"type":"VEC2"},{"bufferView":45,"componentType":5123,"count":954,"type":"SCALAR"},{"bufferView":46,"componentType":5126,"count":64,"type":"VEC3"},{"bufferView":47,"componentType":5126,"count":64,"max":[1,0.009999990463256836,1],"min":[-1,-0.010000384412705898,-1],"type":"VEC3"},{"bufferView":48,"componentType":5126,"count":64,"type":"VEC2"},{"bufferView":49,"componentType":5123,"count":96,"type":"SCALAR"},{"bufferView":50,"componentType":5126,"count":24,"type":"VEC3"},{"bufferView":51,"componentType":5126,"count":24,"max":[-2.7249999046325684,2.5799999237060547,0.5099999904632568],"min":[-2.7750000953674316,2.5299999713897705,0.09000000357627869],"type":"VEC3"},{"bufferView":52,"componentType":5126,"count":24,"type":"VEC3"},{"bufferView":53,"componentType":5126,"count":24,"max":[2.7750000953674316,2.5799999237060547,0.5099999904632568],"min":[2.7249999046325684,2.5299999713897705,0.09000000357627869],"type":"VEC3"},{"bufferView":54,"componentType":5126,"count":24,"type":"VEC3"},{"bufferView":55,"componentType":5126,"count":24,"max":[-2.630000114440918,2.069999933242798,0.5600000023841858],"min":[-2.869999885559082,2.009999990463257,0.3199999928474426],"type":"VEC3"},{"bufferView":56,"componentType":5126,"count":24,"type":"VEC3"},{"bufferView":57,"componentType":5126,"count":24,"max":[2.869999885559082,2.069999933242798,0.5600000023841858],"min":[2.630000114440918,2.009999990463257,0.3199999928474426],"type":"VEC3"},{"bufferView":58,"componentType":5126,"count":24,"type":"VEC3"},{"bufferView":59,"componentType":5126,"count":24,"max":[-2.609999895095825,2.450000047683716,0.5800000429153442],"min":[-2.890000104904175,2.390000104904175,0.30000001192092896],"type":"VEC3"},{"bufferView":60,"componentType":5126,"count":24,"type":"VEC3"},{"bufferView":61,"componentType":5126,"count":24,"max":[2.890000104904175,2.450000047683716,0.5800000429153442],"min":[2.609999895095825,2.390000104904175,0.30000001192092896],"type":"VEC3"},{"bufferView":62,"componentType":5126,"count":24,"type":"VEC3"},{"bufferView":63,"componentType":5126,"count":24,"max":[-2.6500000953674316,2.390000104904175,0.5399999618530273],"min":[-2.8499999046325684,2.069999933242798,0.3400000035762787],"type":"VEC3"},{"bufferView":64,"componentType":5126,"count":24,"type":"VEC3"},{"bufferView":65,"componentType":5126,"count":24,"max":[2.8499999046325684,2.390000104904175,0.5399999618530273],"min":[2.6500000953674316,2.069999933242798,0.3400000035762787],"type":"VEC3"},{"bufferView":66,"componentType":5126,"count":24,"type":"VEC3"},{"bufferView":67,"componentType":5126,"count":24,"max":[-2.734999895095825,2.5399999618530273,0.45000001788139343],"min":[-2.765000104904175,2.450000047683716,0.42000001668930054],"type":"VEC3"},{"bufferView":68,"componentType":5126,"count":24,"type":"VEC3"},{"bufferView":69,"componentType":5126,"count":24,"max":[2.765000104904175,2.5399999618530273,0.45000001788139343],"min":[2.734999895095825,2.450000047683716,0.42000001668930054],"type":"VEC3"},{"bufferView":70,"componentType":5126,"count":129,"type":"VEC3"},{"bufferView":71,"componentType":5126,"count":129,"max":[0.4457784593105316,3,0.4940085709095001],"min":[-0.5000000596046448,5.820766091346741e-08,-0.49400854110717773],"type":"VEC3"},{"bufferView":72,"componentType":5126,"count":129,"type":"VEC2"},{"bufferView":73,"componentType":5123,"count":390,"type":"SCALAR"},{"bufferView":74,"componentType":5126,"count":590,"type":"VEC3"},{"bufferView":75,"componentType":5126,"count":590,"max":[1.796095609664917,2.4071543216705322,1.0531584024429321],"min":[-0.06625044345855713,0.029659956693649292,-1.0530269145965576],"type":"VEC3"},{"bufferView":76,"componentType":5126,"count":590,"type":"VEC2"},{"bufferView":77,"componentType":5123,"count":906,"type":"SCALAR"},{"bufferView":78,"componentType":5126,"count":40,"type":"VEC3"},{"bufferView":79,"componentType":5126,"count":40,"max":[1.6412353515625,2.1810436248779297,0.7208130359649658],"min":[0.20741745829582214,0.07360720634460449,-0.7227497696876526],"type":"VEC3"},{"bufferView":80,"componentType":5126,"count":40,"type":"VEC2"},{"bufferView":81,"componentType":5123,"count":96,"type":"SCALAR"},{"bufferView":82,"componentType":5126,"count":147,"type":"VEC3"},{"bufferView":83,"componentType":5126,"count":147,"max":[1.6450214385986328,1.0366252660751343,0.4369128346443176],"min":[1.6450212001800537,0.24898052215576172,-0.44097065925598145],"type":"VEC3"},{"bufferView":84,"componentType":5123,"count":219,"type":"SCALAR"},{"bufferView":85,"componentType":5126,"count":236,"type":"VEC3"},{"bufferView":86,"componentType":5126,"count":236,"max":[1.900120496749878,2.7272849082946777,1.219645380973816],"min":[-0.019477728754281998,0.9468854665756226,-1.2195141315460205],"type":"VEC3"},{"bufferView":87,"componentType":5126,"count":236,"type":"VEC2"},{"bufferView":88,"componentType":5123,"count":540,"type":"SCALAR"},{"bufferView":89,"componentType":5126,"count":600,"type":"VEC3"},{"bufferView":90,"componentType":5126,"count":600,"max":[4.256076812744141,5.269639492034912,0.794139564037323],"min":[-4.254717826843262,-0.13180209696292877,-0.33496370911598206],"type":"VEC3"},{"bufferView":91,"componentType":5126,"count":600,"type":"VEC2"},{"bufferView":92,"componentType":5123,"count":1056,"type":"SCALAR"},{"bufferView":93,"componentType":5126,"count":16,"type":"VEC3"},{"bufferView":94,"componentType":5126,"count":16,"max":[4.1627702713012695,5.314065933227539,1.6825651982799172e-11],"min":[-4.1627702713012695,0.019167065620422363,-0.24970084428787231],"type":"VEC3"},{"bufferView":95,"componentType":5126,"count":16,"type":"VEC2"},{"bufferView":96,"componentType":5123,"count":36,"type":"SCALAR"},{"bufferView":97,"componentType":5126,"count":1686,"type":"VEC3"},{"bufferView":98,"componentType":5126,"count":1686,"max":[4.9567179679870605,5.600559711456299,6.971505165100098],"min":[-4.9567179679870605,-0.7799561023712158,-6.918720722198486],"type":"VEC3"},{"bufferView":99,"componentType":5126,"count":1686,"type":"VEC2"},{"bufferView":100,"componentType":5123,"count":2616,"type":"SCALAR"},{"bufferView":101,"componentType":5126,"count":3685,"type":"VEC3"},{"bufferView":102,"componentType":5126,"count":3685,"max":[4.975997447967529,6.001367092132568,7.015059471130371],"min":[-4.975997447967529,-0.5717926621437073,-7.117128372192383],"type":"VEC3"},{"bufferView":103,"componentType":5126,"count":3685,"type":"VEC2"},{"bufferView":104,"componentType":5123,"count":8823,"type":"SCALAR"},{"bufferView":105,"componentType":5126,"count":124,"type":"VEC3"},{"bufferView":106,"componentType":5126,"count":124,"max":[0.09985005855560303,0.06566542387008667,0.7651262283325195],"min":[-0.09984996169805527,-0.6772639155387878,-1.62676236925563e-08],"type":"VEC3"},{"bufferView":107,"componentType":5126,"count":124,"type":"VEC2"},{"bufferView":108,"componentType":5123,"count":252,"type":"SCALAR"},{"bufferView":109,"componentType":5126,"count":32,"type":"VEC3"},{"bufferView":110,"componentType":5126,"count":32,"max":[6.400000095367432,13,0.4000000059604645],"min":[6.199999809265137,11.699999809265137,0.20000000298023224],"type":"VEC3"},{"bufferView":111,"componentType":5123,"count":48,"type":"SCALAR"},{"bufferView":112,"componentType":5126,"count":64,"type":"VEC3"},{"bufferView":113,"componentType":5126,"count":64,"max":[7.599999904632568,8.600000381469727,1.600000023841858],"min":[5,0,-1],"type":"VEC3"},{"bufferView":114,"componentType":5126,"count":64,"type":"VEC2"},{"bufferView":115,"componentType":5123,"count":96,"type":"SCALAR"},{"bufferView":116,"componentType":5126,"count":64,"type":"VEC3"},{"bufferView":117,"componentType":5126,"count":64,"max":[7.679999828338623,8.600000381469727,1.6799999475479126],"min":[4.920000076293945,8.100000381469727,-1.0800000429153442],"type":"VEC3"},{"bufferView":118,"componentType":5126,"count":64,"type":"VEC2"},{"bufferView":119,"componentType":5126,"count":64,"type":"VEC3"},{"bufferView":120,"componentType":5126,"count":64,"max":[7.659999847412109,4.090000152587891,1.659999966621399],"min":[4.940000057220459,3.869999885559082,-1.059999942779541],"type":"VEC3"},{"bufferView":121,"componentType":5126,"count":64,"type":"VEC2"},{"bufferView":122,"componentType":5126,"count":64,"type":"VEC3"},{"bufferView":123,"componentType":5126,"count":64,"max":[7.699999809265137,0.5,1.7000000476837158],"min":[4.900000095367432,0,-1.100000023841858],"type":"VEC3"},{"bufferView":124,"componentType":5126,"count":64,"type":"VEC2"},{"bufferView":125,"componentType":5126,"count":212,"type":"VEC3"},{"bufferView":126,"componentType":5126,"count":212,"max":[8.300000190734863,12,2.299999952316284],"min":[4.300000190734863,8.449999809265137,-1.7000000476837158],"type":"VEC3"},{"bufferView":127,"componentType":5126,"count":212,"type":"VEC2"},{"bufferView":128,"componentType":5123,"count":384,"type":"SCALAR"},{"bufferView":129,"componentType":5126,"count":126,"type":"VEC3"},{"bufferView":130,"componentType":5126,"count":126,"max":[1,3.1226887702941895,0.0924467146396637],"min":[-1.0000001192092896,-0.0020958781242370605,-0.3140353262424469],"type":"VEC3"},{"bufferView":131,"componentType":5126,"count":126,"type":"VEC2"},{"bufferView":132,"componentType":5123,"count":240,"type":"SCALAR"},{"bufferView":133,"componentType":5126,"count":12,"type":"VEC3"},{"bufferView":134,"componentType":5126,"count":12,"max":[1,3,1.3113415775478643e-07],"min":[-1,0,-0.2000000923871994],"type":"VEC3"},{"bufferView":135,"componentType":5126,"count":12,"type":"VEC2"},{"bufferView":136,"componentType":5123,"count":18,"type":"SCALAR"},{"bufferView":137,"componentType":5126,"count":134,"type":"VEC3"},{"bufferView":138,"componentType":5126,"count":134,"max":[1,3.1226887702941895,0.0924467146396637],"min":[-1.0000001192092896,-0.023045778274536133,-0.3140353262424469],"type":"VEC3"},{"bufferView":139,"componentType":5126,"count":134,"type":"VEC2"},{"bufferView":140,"componentType":5123,"count":252,"type":"SCALAR"},{"bufferView":141,"componentType":5126,"count":40,"type":"VEC3"},{"bufferView":142,"componentType":5126,"count":40,"max":[1,3,1.3113415775478643e-07],"min":[-1,0,-0.2000000923871994],"type":"VEC3"},{"bufferView":143,"componentType":5126,"count":40,"type":"VEC2"},{"bufferView":144,"componentType":5123,"count":114,"type":"SCALAR"},{"bufferView":145,"componentType":5126,"count":32,"type":"VEC3"},{"bufferView":146,"componentType":5126,"count":32,"max":[1,3,1.3113417196564114e-07],"min":[-1,0,-0.2000000923871994],"type":"VEC3"},{"bufferView":147,"componentType":5126,"count":32,"type":"VEC2"},{"bufferView":148,"componentType":5123,"count":96,"type":"SCALAR"},{"bufferView":149,"componentType":5126,"count":8,"type":"VEC3"},{"bufferView":150,"componentType":5126,"count":8,"max":[1,0.8799999952316284,4.371138828673793e-08],"min":[-1,0,0],"type":"VEC3"},{"bufferView":151,"componentType":5126,"count":8,"type":"VEC2"},{"bufferView":152,"componentType":5123,"count":18,"type":"SCALAR"},{"bufferView":153,"componentType":5126,"count":80,"type":"VEC3"},{"bufferView":154,"componentType":5126,"count":80,"max":[1,3.1226887702941895,0.0924467146396637],"min":[-1.0000001192092896,0.6495776176452637,-0.3140353262424469],"type":"VEC3"},{"bufferView":155,"componentType":5126,"count":80,"type":"VEC2"},{"bufferView":156,"componentType":5123,"count":174,"type":"SCALAR"},{"bufferView":157,"componentType":5126,"count":389,"type":"VEC3"},{"bufferView":158,"componentType":5126,"count":389,"max":[1.000000238418579,3.1226887702941895,0.0924467146396637],"min":[-1.000000238418579,0.6495776176452637,-0.3140353262424469],"type":"VEC3"},{"bufferView":159,"componentType":5126,"count":389,"type":"VEC2"},{"bufferView":160,"componentType":5123,"count":732,"type":"SCALAR"},{"bufferView":161,"componentType":5126,"count":8,"type":"VEC3"},{"bufferView":162,"componentType":5126,"count":8,"max":[1,0.8360880613327026,5.960464477539063e-08],"min":[-1,0,-0.2000001072883606],"type":"VEC3"},{"bufferView":163,"componentType":5126,"count":8,"type":"VEC2"},{"bufferView":164,"componentType":5123,"count":12,"type":"SCALAR"},{"bufferView":165,"componentType":5126,"count":64,"type":"VEC3"},{"bufferView":166,"componentType":5126,"count":64,"max":[1,3.1226887702941895,0.09244640171527863],"min":[-1.0000001192092896,2.877309799194336,-0.3140353262424469],"type":"VEC3"},{"bufferView":167,"componentType":5126,"count":64,"type":"VEC2"},{"bufferView":168,"componentType":5123,"count":150,"type":"SCALAR"},{"bufferView":169,"componentType":5126,"count":35,"type":"VEC3"},{"bufferView":170,"componentType":5126,"count":35,"max":[1,3,-0.19999991357326508],"min":[-1,0,-0.2000000923871994],"type":"VEC3"},{"bufferView":171,"componentType":5126,"count":35,"type":"VEC2"},{"bufferView":172,"componentType":5123,"count":123,"type":"SCALAR"},{"bufferView":173,"componentType":5126,"count":43,"type":"VEC3"},{"bufferView":174,"componentType":5126,"count":43,"max":[1,3,1.3113415775478643e-07],"min":[-1,0,0],"type":"VEC3"},{"bufferView":175,"componentType":5126,"count":43,"type":"VEC2"},{"bufferView":176,"componentType":5123,"count":135,"type":"SCALAR"},{"bufferView":177,"componentType":5126,"count":64,"type":"VEC3"},{"bufferView":178,"componentType":5126,"count":64,"max":[1,3.1226887702941895,0.09244640171527863],"min":[-1.0000001192092896,2.877309799194336,-0.3140353262424469],"type":"VEC3"},{"bufferView":179,"componentType":5126,"count":64,"type":"VEC2"},{"bufferView":180,"componentType":5126,"count":4,"type":"VEC3"},{"bufferView":181,"componentType":5126,"count":4,"max":[1,3,-0.19999991357326508],"min":[-1,0,-0.2000000923871994],"type":"VEC3"},{"bufferView":182,"componentType":5126,"count":4,"type":"VEC2"},{"bufferView":183,"componentType":5123,"count":6,"type":"SCALAR"},{"bufferView":184,"componentType":5126,"count":8,"type":"VEC3"},{"bufferView":185,"componentType":5126,"count":8,"max":[1,3,1.3113415775478643e-07],"min":[-1,0,0],"type":"VEC3"},{"bufferView":186,"componentType":5126,"count":8,"type":"VEC2"},{"bufferView":187,"componentType":5123,"count":12,"type":"SCALAR"},{"bufferView":188,"componentType":5126,"count":64,"type":"VEC3"},{"bufferView":189,"componentType":5126,"count":64,"max":[1,3.1226887702941895,0.09244640171527863],"min":[-1.0000001192092896,2.877309799194336,-0.3140353262424469],"type":"VEC3"},{"bufferView":190,"componentType":5126,"count":64,"type":"VEC2"},{"bufferView":191,"componentType":5123,"count":150,"type":"SCALAR"},{"bufferView":192,"componentType":5126,"count":16,"type":"VEC3"},{"bufferView":193,"componentType":5126,"count":16,"max":[1,3,-0.19999989867210388],"min":[-1,0,-0.2000000923871994],"type":"VEC3"},{"bufferView":194,"componentType":5126,"count":16,"type":"VEC2"},{"bufferView":195,"componentType":5123,"count":48,"type":"SCALAR"},{"bufferView":196,"componentType":5126,"count":22,"type":"VEC3"},{"bufferView":197,"componentType":5126,"count":22,"max":[1,3,1.3113415775478643e-07],"min":[-1,0,0],"type":"VEC3"},{"bufferView":198,"componentType":5126,"count":22,"type":"VEC2"},{"bufferView":199,"componentType":5123,"count":66,"type":"SCALAR"},{"bufferView":200,"componentType":5126,"count":64,"type":"VEC3"},{"bufferView":201,"componentType":5126,"count":64,"max":[1,3.1226887702941895,0.09244640171527863],"min":[-1.0000001192092896,2.877309799194336,-0.3140353262424469],"type":"VEC3"},{"bufferView":202,"componentType":5126,"count":64,"type":"VEC2"},{"bufferView":203,"componentType":5126,"count":30,"type":"VEC3"},{"bufferView":204,"componentType":5126,"count":30,"max":[1,3,-0.19999989867210388],"min":[-1,0,-0.2000000923871994],"type":"VEC3"},{"bufferView":205,"componentType":5126,"count":30,"type":"VEC2"},{"bufferView":206,"componentType":5123,"count":90,"type":"SCALAR"},{"bufferView":207,"componentType":5126,"count":36,"type":"VEC3"},{"bufferView":208,"componentType":5126,"count":36,"max":[1,3,1.3113415775478643e-07],"min":[-1,0,0],"type":"VEC3"},{"bufferView":209,"componentType":5126,"count":36,"type":"VEC2"},{"bufferView":210,"componentType":5123,"count":108,"type":"SCALAR"},{"bufferView":211,"componentType":5126,"count":402,"type":"VEC3"},{"bufferView":212,"componentType":5126,"count":402,"max":[0.44381028413772583,2.6207287311553955,0.0923665463924408],"min":[-0.44381028413772583,1.01604425907135,-0.2520223557949066],"type":"VEC3"},{"bufferView":213,"componentType":5126,"count":402,"type":"VEC2"},{"bufferView":214,"componentType":5123,"count":786,"type":"SCALAR"},{"bufferView":215,"componentType":5126,"count":83,"type":"VEC3"},{"bufferView":216,"componentType":5126,"count":83,"max":[0.277061402797699,2.478931427001953,0.003888234496116638],"min":[-0.27893951535224915,1.0875728130340576,0.0038879886269569397],"type":"VEC3"},{"bufferView":217,"componentType":5123,"count":153,"type":"SCALAR"},{"bufferView":218,"componentType":5126,"count":272,"type":"VEC3"},{"bufferView":219,"componentType":5126,"count":272,"max":[0.8041172027587891,2.5242888927459717,0.4168574810028076],"min":[-0.8041191101074219,0.94417804479599,-0.26658084988594055],"type":"VEC3"},{"bufferView":220,"componentType":5126,"count":272,"type":"VEC2"},{"bufferView":221,"componentType":5123,"count":408,"type":"SCALAR"},{"bufferView":222,"componentType":5126,"count":45,"type":"VEC3"},{"bufferView":223,"componentType":5126,"count":45,"max":[0.5054702758789062,2.355356216430664,0.003888234496116638],"min":[-0.5054721832275391,1.0971393585205078,0.0038878247141838074],"type":"VEC3"},{"bufferView":224,"componentType":5123,"count":72,"type":"SCALAR"},{"bufferView":225,"componentType":5126,"count":340,"type":"VEC3"},{"bufferView":226,"componentType":5126,"count":340,"max":[0.691490113735199,2.741780996322632,0.27729201316833496],"min":[-0.691490113735199,1.01604425907135,-0.2522830367088318],"type":"VEC3"},{"bufferView":227,"componentType":5126,"count":340,"type":"VEC2"},{"bufferView":228,"componentType":5123,"count":672,"type":"SCALAR"},{"bufferView":229,"componentType":5126,"count":63,"type":"VEC3"},{"bufferView":230,"componentType":5126,"count":63,"max":[0.5413169860839844,2.6192541122436523,0.0038883001543581486],"min":[-0.5445477962493896,1.0647618770599365,0.003887913655489683],"type":"VEC3"},{"bufferView":231,"componentType":5123,"count":123,"type":"SCALAR"},{"bufferView":232,"componentType":5126,"count":240,"type":"VEC3"},{"bufferView":233,"componentType":5126,"count":240,"max":[1.2418603897094727,2.51727557182312,0.5931743383407593],"min":[-1.2387090921401978,1.0932440757751465,0.13665564358234406],"type":"VEC3"},{"bufferView":234,"componentType":5126,"count":240,"type":"VEC2"},{"bufferView":235,"componentType":5123,"count":360,"type":"SCALAR"},{"bufferView":236,"componentType":5126,"count":272,"type":"VEC3"},{"bufferView":237,"componentType":5126,"count":272,"max":[1.1035263538360596,2.740431785583496,0.56315016746521],"min":[-1.199957251548767,1.0932440757751465,0.09079486131668091],"type":"VEC3"},{"bufferView":238,"componentType":5126,"count":272,"type":"VEC2"},{"bufferView":239,"componentType":5123,"count":408,"type":"SCALAR"}],"asset":{"generator":"Khronos glTF Blender I/O v5.2.40","version":"2.0"},"bufferViews":[{"buffer":0,"byteOffset":0,"byteLength":60,"target":34962},{"buffer":0,"byteOffset":60,"byteLength":60,"target":34962},{"buffer":0,"byteOffset":120,"byteLength":18,"target":34963},{"buffer":0,"byteOffset":140,"byteLength":60,"target":34962},{"buffer":0,"byteOffset":200,"byteLength":60,"target":34962},{"buffer":0,"byteOffset":260,"byteLength":288,"target":34962},{"buffer":0,"byteOffset":548,"byteLength":288,"target":34962},{"buffer":0,"byteOffset":836,"byteLength":72,"target":34963},{"buffer":0,"byteOffset":908,"byteLength":288,"target":34962},{"buffer":0,"byteOffset":1196,"byteLength":288,"target":34962},{"buffer":0,"byteOffset":1484,"byteLength":1152,"target":34962},{"buffer":0,"byteOffset":2636,"byteLength":1152,"target":34962},{"buffer":0,"byteOffset":3788,"byteLength":360,"target":34963},{"buffer":0,"byteOffset":4148,"byteLength":1152,"target":34962},{"buffer":0,"byteOffset":5300,"byteLength":1152,"target":34962},{"buffer":0,"byteOffset":6452,"byteLength":288,"target":34962},{"buffer":0,"byteOffset":6740,"byteLength":288,"target":34962},{"buffer":0,"byteOffset":7028,"byteLength":192,"target":34962},{"buffer":0,"byteOffset":7220,"byteLength":240,"target":34962},{"buffer":0,"byteOffset":7460,"byteLength":240,"target":34962},{"buffer":0,"byteOffset":7700,"byteLength":160,"target":34962},{"buffer":0,"byteOffset":7860,"byteLength":60,"target":34963},{"buffer":0,"byteOffset":7920,"byteLength":240,"target":34962},{"buffer":0,"byteOffset":8160,"byteLength":240,"target":34962},{"buffer":0,"byteOffset":8400,"byteLength":160,"target":34962},{"buffer":0,"byteOffset":8560,"byteLength":240,"target":34962},{"buffer":0,"byteOffset":8800,"byteLength":240,"target":34962},{"buffer":0,"byteOffset":9040,"byteLength":160,"target":34962},{"buffer":0,"byteOffset":9200,"byteLength":240,"target":34962},{"buffer":0,"byteOffset":9440,"byteLength":240,"target":34962},{"buffer":0,"byteOffset":9680,"byteLength":160,"target":34962},{"buffer":0,"byteOffset":9840,"byteLength":288,"target":34962},{"buffer":0,"byteOffset":10128,"byteLength":288,"target":34962},{"buffer":0,"byteOffset":10416,"byteLength":192,"target":34962},{"buffer":0,"byteOffset":10608,"byteLength":72,"target":34963},{"buffer":0,"byteOffset":10680,"byteLength":8928,"target":34962},{"buffer":0,"byteOffset":19608,"byteLength":8928,"target":34962},{"buffer":0,"byteOffset":28536,"byteLength":5952,"target":34962},{"buffer":0,"byteOffset":34488,"byteLength":2724,"target":34963},{"buffer":0,"byteOffset":37212,"byteLength":336,"target":34962},{"buffer":0,"byteOffset":37548,"byteLength":336,"target":34962},{"buffer":0,"byteOffset":37884,"byteLength":96,"target":34963},{"buffer":0,"byteOffset":37980,"byteLength":4320,"target":34962},{"buffer":0,"byteOffset":42300,"byteLength":4320,"target":34962},{"buffer":0,"byteOffset":46620,"byteLength":2880,"target":34962},{"buffer":0,"byteOffset":49500,"byteLength":1908,"target":34963},{"buffer":0,"byteOffset":51408,"byteLength":768,"target":34962},{"buffer":0,"byteOffset":52176,"byteLength":768,"target":34962},{"buffer":0,"byteOffset":52944,"byteLength":512,"target":34962},{"buffer":0,"byteOffset":53456,"byteLength":192,"target":34963},{"buffer":0,"byteOffset":53648,"byteLength":288,"target":34962},{"buffer":0,"byteOffset":53936,"byteLength":288,"target":34962},{"buffer":0,"byteOffset":54224,"byteLength":288,"target":34962},{"buffer":0,"byteOffset":54512,"byteLength":288,"target":34962},{"buffer":0,"byteOffset":54800,"byteLength":288,"target":34962},{"buffer":0,"byteOffset":55088,"byteLength":288,"target":34962},{"buffer":0,"byteOffset":55376,"byteLength":288,"target":34962},{"buffer":0,"byteOffset":55664,"byteLength":288,"target":34962},{"buffer":0,"byteOffset":55952,"byteLength":288,"target":34962},{"buffer":0,"byteOffset":56240,"byteLength":288,"target":34962},{"buffer":0,"byteOffset":56528,"byteLength":288,"target":34962},{"buffer":0,"byteOffset":56816,"byteLength":288,"target":34962},{"buffer":0,"byteOffset":57104,"byteLength":288,"target":34962},{"buffer":0,"byteOffset":57392,"byteLength":288,"target":34962},{"buffer":0,"byteOffset":57680,"byteLength":288,"target":34962},{"buffer":0,"byteOffset":57968,"byteLength":288,"target":34962},{"buffer":0,"byteOffset":58256,"byteLength":288,"target":34962},{"buffer":0,"byteOffset":58544,"byteLength":288,"target":34962},{"buffer":0,"byteOffset":58832,"byteLength":288,"target":34962},{"buffer":0,"byteOffset":59120,"byteLength":288,"target":34962},{"buffer":0,"byteOffset":59408,"byteLength":1548,"target":34962},{"buffer":0,"byteOffset":60956,"byteLength":1548,"target":34962},{"buffer":0,"byteOffset":62504,"byteLength":1032,"target":34962},{"buffer":0,"byteOffset":63536,"byteLength":780,"target":34963},{"buffer":0,"byteOffset":64316,"byteLength":7080,"target":34962},{"buffer":0,"byteOffset":71396,"byteLength":7080,"target":34962},{"buffer":0,"byteOffset":78476,"byteLength":4720,"target":34962},{"buffer":0,"byteOffset":83196,"byteLength":1812,"target":34963},{"buffer":0,"byteOffset":85008,"byteLength":480,"target":34962},{"buffer":0,"byteOffset":85488,"byteLength":480,"target":34962},{"buffer":0,"byteOffset":85968,"byteLength":320,"target":34962},{"buffer":0,"byteOffset":86288,"byteLength":192,"target":34963},{"buffer":0,"byteOffset":86480,"byteLength":1764,"target":34962},{"buffer":0,"byteOffset":88244,"byteLength":1764,"target":34962},{"buffer":0,"byteOffset":90008,"byteLength":438,"target":34963},{"buffer":0,"byteOffset":90448,"byteLength":2832,"target":34962},{"buffer":0,"byteOffset":93280,"byteLength":2832,"target":34962},{"buffer":0,"byteOffset":96112,"byteLength":1888,"target":34962},{"buffer":0,"byteOffset":98000,"byteLength":1080,"target":34963},{"buffer":0,"byteOffset":99080,"byteLength":7200,"target":34962},{"buffer":0,"byteOffset":106280,"byteLength":7200,"target":34962},{"buffer":0,"byteOffset":113480,"byteLength":4800,"target":34962},{"buffer":0,"byteOffset":118280,"byteLength":2112,"target":34963},{"buffer":0,"byteOffset":120392,"byteLength":192,"target":34962},{"buffer":0,"byteOffset":120584,"byteLength":192,"target":34962},{"buffer":0,"byteOffset":120776,"byteLength":128,"target":34962},{"buffer":0,"byteOffset":120904,"byteLength":72,"target":34963},{"buffer":0,"byteOffset":120976,"byteLength":20232,"target":34962},{"buffer":0,"byteOffset":141208,"byteLength":20232,"target":34962},{"buffer":0,"byteOffset":161440,"byteLength":13488,"target":34962},{"buffer":0,"byteOffset":174928,"byteLength":5232,"target":34963},{"buffer":0,"byteOffset":180160,"byteLength":44220,"target":34962},{"buffer":0,"byteOffset":224380,"byteLength":44220,"target":34962},{"buffer":0,"byteOffset":268600,"byteLength":29480,"target":34962},{"buffer":0,"byteOffset":298080,"byteLength":17646,"target":34963},{"buffer":0,"byteOffset":315728,"byteLength":1488,"target":34962},{"buffer":0,"byteOffset":317216,"byteLength":1488,"target":34962},{"buffer":0,"byteOffset":318704,"byteLength":992,"target":34962},{"buffer":0,"byteOffset":319696,"byteLength":504,"target":34963},{"buffer":0,"byteOffset":320200,"byteLength":384,"target":34962},{"buffer":0,"byteOffset":320584,"byteLength":384,"target":34962},{"buffer":0,"byteOffset":320968,"byteLength":96,"target":34963},{"buffer":0,"byteOffset":321064,"byteLength":768,"target":34962},{"buffer":0,"byteOffset":321832,"byteLength":768,"target":34962},{"buffer":0,"byteOffset":322600,"byteLength":512,"target":34962},{"buffer":0,"byteOffset":323112,"byteLength":192,"target":34963},{"buffer":0,"byteOffset":323304,"byteLength":768,"target":34962},{"buffer":0,"byteOffset":324072,"byteLength":768,"target":34962},{"buffer":0,"byteOffset":324840,"byteLength":512,"target":34962},{"buffer":0,"byteOffset":325352,"byteLength":768,"target":34962},{"buffer":0,"byteOffset":326120,"byteLength":768,"target":34962},{"buffer":0,"byteOffset":326888,"byteLength":512,"target":34962},{"buffer":0,"byteOffset":327400,"byteLength":768,"target":34962},{"buffer":0,"byteOffset":328168,"byteLength":768,"target":34962},{"buffer":0,"byteOffset":328936,"byteLength":512,"target":34962},{"buffer":0,"byteOffset":329448,"byteLength":2544,"target":34962},{"buffer":0,"byteOffset":331992,"byteLength":2544,"target":34962},{"buffer":0,"byteOffset":334536,"byteLength":1696,"target":34962},{"buffer":0,"byteOffset":336232,"byteLength":768,"target":34963},{"buffer":0,"byteOffset":337000,"byteLength":1512,"target":34962},{"buffer":0,"byteOffset":338512,"byteLength":1512,"target":34962},{"buffer":0,"byteOffset":340024,"byteLength":1008,"target":34962},{"buffer":0,"byteOffset":341032,"byteLength":480,"target":34963},{"buffer":0,"byteOffset":341512,"byteLength":144,"target":34962},{"buffer":0,"byteOffset":341656,"byteLength":144,"target":34962},{"buffer":0,"byteOffset":341800,"byteLength":96,"target":34962},{"buffer":0,"byteOffset":341896,"byteLength":36,"target":34963},{"buffer":0,"byteOffset":341932,"byteLength":1608,"target":34962},{"buffer":0,"byteOffset":343540,"byteLength":1608,"target":34962},{"buffer":0,"byteOffset":345148,"byteLength":1072,"target":34962},{"buffer":0,"byteOffset":346220,"byteLength":504,"target":34963},{"buffer":0,"byteOffset":346724,"byteLength":480,"target":34962},{"buffer":0,"byteOffset":347204,"byteLength":480,"target":34962},{"buffer":0,"byteOffset":347684,"byteLength":320,"target":34962},{"buffer":0,"byteOffset":348004,"byteLength":228,"target":34963},{"buffer":0,"byteOffset":348232,"byteLength":384,"target":34962},{"buffer":0,"byteOffset":348616,"byteLength":384,"target":34962},{"buffer":0,"byteOffset":349000,"byteLength":256,"target":34962},{"buffer":0,"byteOffset":349256,"byteLength":192,"target":34963},{"buffer":0,"byteOffset":349448,"byteLength":96,"target":34962},{"buffer":0,"byteOffset":349544,"byteLength":96,"target":34962},{"buffer":0,"byteOffset":349640,"byteLength":64,"target":34962},{"buffer":0,"byteOffset":349704,"byteLength":36,"target":34963},{"buffer":0,"byteOffset":349740,"byteLength":960,"target":34962},{"buffer":0,"byteOffset":350700,"byteLength":960,"target":34962},{"buffer":0,"byteOffset":351660,"byteLength":640,"target":34962},{"buffer":0,"byteOffset":352300,"byteLength":348,"target":34963},{"buffer":0,"byteOffset":352648,"byteLength":4668,"target":34962},{"buffer":0,"byteOffset":357316,"byteLength":4668,"target":34962},{"buffer":0,"byteOffset":361984,"byteLength":3112,"target":34962},{"buffer":0,"byteOffset":365096,"byteLength":1464,"target":34963},{"buffer":0,"byteOffset":366560,"byteLength":96,"target":34962},{"buffer":0,"byteOffset":366656,"byteLength":96,"target":34962},{"buffer":0,"byteOffset":366752,"byteLength":64,"target":34962},{"buffer":0,"byteOffset":366816,"byteLength":24,"target":34963},{"buffer":0,"byteOffset":366840,"byteLength":768,"target":34962},{"buffer":0,"byteOffset":367608,"byteLength":768,"target":34962},{"buffer":0,"byteOffset":368376,"byteLength":512,"target":34962},{"buffer":0,"byteOffset":368888,"byteLength":300,"target":34963},{"buffer":0,"byteOffset":369188,"byteLength":420,"target":34962},{"buffer":0,"byteOffset":369608,"byteLength":420,"target":34962},{"buffer":0,"byteOffset":370028,"byteLength":280,"target":34962},{"buffer":0,"byteOffset":370308,"byteLength":246,"target":34963},{"buffer":0,"byteOffset":370556,"byteLength":516,"target":34962},{"buffer":0,"byteOffset":371072,"byteLength":516,"target":34962},{"buffer":0,"byteOffset":371588,"byteLength":344,"target":34962},{"buffer":0,"byteOffset":371932,"byteLength":270,"target":34963},{"buffer":0,"byteOffset":372204,"byteLength":768,"target":34962},{"buffer":0,"byteOffset":372972,"byteLength":768,"target":34962},{"buffer":0,"byteOffset":373740,"byteLength":512,"target":34962},{"buffer":0,"byteOffset":374252,"byteLength":48,"target":34962},{"buffer":0,"byteOffset":374300,"byteLength":48,"target":34962},{"buffer":0,"byteOffset":374348,"byteLength":32,"target":34962},{"buffer":0,"byteOffset":374380,"byteLength":12,"target":34963},{"buffer":0,"byteOffset":374392,"byteLength":96,"target":34962},{"buffer":0,"byteOffset":374488,"byteLength":96,"target":34962},{"buffer":0,"byteOffset":374584,"byteLength":64,"target":34962},{"buffer":0,"byteOffset":374648,"byteLength":24,"target":34963},{"buffer":0,"byteOffset":374672,"byteLength":768,"target":34962},{"buffer":0,"byteOffset":375440,"byteLength":768,"target":34962},{"buffer":0,"byteOffset":376208,"byteLength":512,"target":34962},{"buffer":0,"byteOffset":376720,"byteLength":300,"target":34963},{"buffer":0,"byteOffset":377020,"byteLength":192,"target":34962},{"buffer":0,"byteOffset":377212,"byteLength":192,"target":34962},{"buffer":0,"byteOffset":377404,"byteLength":128,"target":34962},{"buffer":0,"byteOffset":377532,"byteLength":96,"target":34963},{"buffer":0,"byteOffset":377628,"byteLength":264,"target":34962},{"buffer":0,"byteOffset":377892,"byteLength":264,"target":34962},{"buffer":0,"byteOffset":378156,"byteLength":176,"target":34962},{"buffer":0,"byteOffset":378332,"byteLength":132,"target":34963},{"buffer":0,"byteOffset":378464,"byteLength":768,"target":34962},{"buffer":0,"byteOffset":379232,"byteLength":768,"target":34962},{"buffer":0,"byteOffset":380000,"byteLength":512,"target":34962},{"buffer":0,"byteOffset":380512,"byteLength":360,"target":34962},{"buffer":0,"byteOffset":380872,"byteLength":360,"target":34962},{"buffer":0,"byteOffset":381232,"byteLength":240,"target":34962},{"buffer":0,"byteOffset":381472,"byteLength":180,"target":34963},{"buffer":0,"byteOffset":381652,"byteLength":432,"target":34962},{"buffer":0,"byteOffset":382084,"byteLength":432,"target":34962},{"buffer":0,"byteOffset":382516,"byteLength":288,"target":34962},{"buffer":0,"byteOffset":382804,"byteLength":216,"target":34963},{"buffer":0,"byteOffset":383020,"byteLength":4824,"target":34962},{"buffer":0,"byteOffset":387844,"byteLength":4824,"target":34962},{"buffer":0,"byteOffset":392668,"byteLength":3216,"target":34962},{"buffer":0,"byteOffset":395884,"byteLength":1572,"target":34963},{"buffer":0,"byteOffset":397456,"byteLength":996,"target":34962},{"buffer":0,"byteOffset":398452,"byteLength":996,"target":34962},{"buffer":0,"byteOffset":399448,"byteLength":306,"target":34963},{"buffer":0,"byteOffset":399756,"byteLength":3264,"target":34962},{"buffer":0,"byteOffset":403020,"byteLength":3264,"target":34962},{"buffer":0,"byteOffset":406284,"byteLength":2176,"target":34962},{"buffer":0,"byteOffset":408460,"byteLength":816,"target":34963},{"buffer":0,"byteOffset":409276,"byteLength":540,"target":34962},{"buffer":0,"byteOffset":409816,"byteLength":540,"target":34962},{"buffer":0,"byteOffset":410356,"byteLength":144,"target":34963},{"buffer":0,"byteOffset":410500,"byteLength":4080,"target":34962},{"buffer":0,"byteOffset":414580,"byteLength":4080,"target":34962},{"buffer":0,"byteOffset":418660,"byteLength":2720,"target":34962},{"buffer":0,"byteOffset":421380,"byteLength":1344,"target":34963},{"buffer":0,"byteOffset":422724,"byteLength":756,"target":34962},{"buffer":0,"byteOffset":423480,"byteLength":756,"target":34962},{"buffer":0,"byteOffset":424236,"byteLength":246,"target":34963},{"buffer":0,"byteOffset":424484,"byteLength":2880,"target":34962},{"buffer":0,"byteOffset":427364,"byteLength":2880,"target":34962},{"buffer":0,"byteOffset":430244,"byteLength":1920,"target":34962},{"buffer":0,"byteOffset":432164,"byteLength":720,"target":34963},{"buffer":0,"byteOffset":432884,"byteLength":3264,"target":34962},{"buffer":0,"byteOffset":436148,"byteLength":3264,"target":34962},{"buffer":0,"byteOffset":439412,"byteLength":2176,"target":34962},{"buffer":0,"byteOffset":441588,"byteLength":816,"target":34963}],"buffers":[{"byteLength":442404,"uri":"guild_hall.bin"}],"images":[{"name":"T_Plaster_Luma","uri":"../village/T_Plaster_Luma.png"},{"name":"T_RockTrim_BaseColor","uri":"../village/T_RockTrim_BaseColor.png"},{"name":"T_RoundTiles_Luma","uri":"../village/T_RoundTiles_Luma.png"},{"name":"T_UnevenBrick_BaseColor","uri":"../village/T_UnevenBrick_BaseColor.png"},{"name":"T_WoodTrim_BaseColor","uri":"../village/T_WoodTrim_BaseColor.png"}],"materials":[{"doubleSided":true,"name":"ClothBlue","pbrMetallicRoughness":{"baseColorFactor":[0.027211781591176987,0.07323895394802094,0.2632734179496765,1],"metallicFactor":0,"roughnessFactor":0.8999999761581421}},{"doubleSided":true,"name":"Iron","pbrMetallicRoughness":{"baseColorFactor":[0.0134117491543293,0.0134117491543293,0.015325203537940979,1],"metallicFactor":0,"roughnessFactor":0.5}},{"doubleSided":true,"name":"SignPaint","pbrMetallicRoughness":{"baseColorFactor":[0.6038273572921753,0.34239163994789124,0.03310476616024971,1],"metallicFactor":0,"roughnessFactor":0.6000000238418579}},{"doubleSided":true,"name":"Wood_dark","pbrMetallicRoughness":{"baseColorFactor":[0.2329,0.2659,0.2944,1.0],"baseColorTexture":{"index":4},"metallicFactor":0,"roughnessFactor":0.8500000238418579}},{"doubleSided":true,"name":"Glass","pbrMetallicRoughness":{"baseColorFactor":[0.03310476616024971,0.05087608844041824,0.07828831672668457,1],"metallicFactor":0,"roughnessFactor":0.20000000298023224}},{"doubleSided":true,"emissiveFactor":[1,0.4479884207248688,0.10048151016235352],"name":"LampGlass","pbrMetallicRoughness":{"baseColorFactor":[1,0.5704815983772278,0.1473190039396286,1],"metallicFactor":0,"roughnessFactor":0.8500000238418579}},{"doubleSided":true,"name":"Stone","pbrMetallicRoughness":{"baseColorFactor":[1.0,0.9974,0.9977,1.0],"baseColorTexture":{"index":3},"metallicFactor":0,"roughnessFactor":0.8500000238418579}},{"doubleSided":true,"name":"Plaster_lilac","pbrMetallicRoughness":{"baseColorFactor":[0.7273,0.6123,0.851,1.0],"baseColorTexture":{"index":0},"metallicFactor":0,"roughnessFactor":0.8500000238418579}},{"doubleSided":true,"name":"Tiles_plum","pbrMetallicRoughness":{"baseColorFactor":[0.3092,0.1151,0.1462,1.0],"baseColorTexture":{"index":2},"metallicFactor":0,"roughnessFactor":0.699999988079071}},{"doubleSided":true,"name":"RockTrim","pbrMetallicRoughness":{"baseColorFactor":[1.0,0.9979,1.0,1.0],"baseColorTexture":{"index":1},"metallicFactor":0,"roughnessFactor":0.8500000238418579}}],"meshes":[{"name":"Banner","primitives":[{"attributes":{"NORMAL":0,"POSITION":1},"indices":2,"material":0}]},{"name":"Banner.001","primitives":[{"attributes":{"NORMAL":3,"POSITION":4},"indices":2,"material":0}]},{"name":"BannerRod","primitives":[{"attributes":{"NORMAL":5,"POSITION":6},"indices":7,"material":1}]},{"name":"BannerRod.001","primitives":[{"attributes":{"NORMAL":8,"POSITION":9},"indices":7,"material":1}]},{"name":"BannerRoundel","primitives":[{"attributes":{"NORMAL":10,"POSITION":11},"indices":12,"material":2}]},{"name":"BannerRoundel.001","primitives":[{"attributes":{"NORMAL":13,"POSITION":14},"indices":12,"material":2}]},{"name":"Beam","primitives":[{"attributes":{"NORMAL":15,"POSITION":16,"TEXCOORD_0":17},"indices":7,"material":3}]},{"name":"kit_Corner_Exterior_Wood.001","primitives":[{"attributes":{"NORMAL":18,"POSITION":19,"TEXCOORD_0":20},"indices":21,"material":3}]},{"name":"kit_Corner_Exterior_Wood.002","primitives":[{"attributes":{"NORMAL":22,"POSITION":23,"TEXCOORD_0":24},"indices":21,"material":3}]},{"name":"kit_Corner_Exterior_Wood.003","primitives":[{"attributes":{"NORMAL":25,"POSITION":26,"TEXCOORD_0":27},"indices":21,"material":3}]},{"name":"kit_Corner_Exterior_Wood.004","primitives":[{"attributes":{"NORMAL":28,"POSITION":29,"TEXCOORD_0":30},"indices":21,"material":3}]},{"name":"kit_Corner_Exterior_Wood","primitives":[{"attributes":{"NORMAL":31,"POSITION":32,"TEXCOORD_0":33},"indices":34,"material":3}]},{"name":"kit_Door_1_Round","primitives":[{"attributes":{"NORMAL":35,"POSITION":36,"TEXCOORD_0":37},"indices":38,"material":3},{"attributes":{"NORMAL":39,"POSITION":40},"indices":41,"material":4}]},{"name":"kit_DoorFrame_Round_WoodDark","primitives":[{"attributes":{"NORMAL":42,"POSITION":43,"TEXCOORD_0":44},"indices":45,"material":3}]},{"name":"kit_Floor_WoodDark","primitives":[{"attributes":{"NORMAL":46,"POSITION":47,"TEXCOORD_0":48},"indices":49,"material":3}]},{"name":"LanternArm","primitives":[{"attributes":{"NORMAL":50,"POSITION":51},"indices":7,"material":1}]},{"name":"LanternArm.001","primitives":[{"attributes":{"NORMAL":52,"POSITION":53},"indices":7,"material":1}]},{"name":"LanternBase","primitives":[{"attributes":{"NORMAL":54,"POSITION":55},"indices":7,"material":1}]},{"name":"LanternBase.001","primitives":[{"attributes":{"NORMAL":56,"POSITION":57},"indices":7,"material":1}]},{"name":"LanternCap","primitives":[{"attributes":{"NORMAL":58,"POSITION":59},"indices":7,"material":1}]},{"name":"LanternCap.001","primitives":[{"attributes":{"NORMAL":60,"POSITION":61},"indices":7,"material":1}]},{"name":"LanternGlass","primitives":[{"attributes":{"NORMAL":62,"POSITION":63},"indices":7,"material":5}]},{"name":"LanternGlass.001","primitives":[{"attributes":{"NORMAL":64,"POSITION":65},"indices":7,"material":5}]},{"name":"LanternHook","primitives":[{"attributes":{"NORMAL":66,"POSITION":67},"indices":7,"material":1}]},{"name":"LanternHook.001","primitives":[{"attributes":{"NORMAL":68,"POSITION":69},"indices":7,"material":1}]},{"name":"kit_Prop_Chimney2","primitives":[{"attributes":{"NORMAL":70,"POSITION":71,"TEXCOORD_0":72},"indices":73,"material":6}]},{"name":"kit_Roof_Dormer_RoundTile.001","primitives":[{"attributes":{"NORMAL":74,"POSITION":75,"TEXCOORD_0":76},"indices":77,"material":3},{"attributes":{"NORMAL":78,"POSITION":79,"TEXCOORD_0":80},"indices":81,"material":7},{"attributes":{"NORMAL":82,"POSITION":83},"indices":84,"material":4},{"attributes":{"NORMAL":85,"POSITION":86,"TEXCOORD_0":87},"indices":88,"material":8}]},{"name":"kit_Roof_Front_Brick8","primitives":[{"attributes":{"NORMAL":89,"POSITION":90,"TEXCOORD_0":91},"indices":92,"material":3},{"attributes":{"NORMAL":93,"POSITION":94,"TEXCOORD_0":95},"indices":96,"material":7}]},{"name":"kit_Roof_RoundTiles_8x12.001","primitives":[{"attributes":{"NORMAL":97,"POSITION":98,"TEXCOORD_0":99},"indices":100,"material":3},{"attributes":{"NORMAL":101,"POSITION":102,"TEXCOORD_0":103},"indices":104,"material":8}]},{"name":"kit_Roof_Support2","primitives":[{"attributes":{"NORMAL":105,"POSITION":106,"TEXCOORD_0":107},"indices":108,"material":3}]},{"name":"Spire","primitives":[{"attributes":{"NORMAL":109,"POSITION":110},"indices":111,"material":1}]},{"name":"Tower","primitives":[{"attributes":{"NORMAL":112,"POSITION":113,"TEXCOORD_0":114},"indices":115,"material":6}]},{"name":"TowerBand","primitives":[{"attributes":{"NORMAL":116,"POSITION":117,"TEXCOORD_0":118},"indices":115,"material":3}]},{"name":"TowerBand.001","primitives":[{"attributes":{"NORMAL":119,"POSITION":120,"TEXCOORD_0":121},"indices":115,"material":3}]},{"name":"TowerPlinth","primitives":[{"attributes":{"NORMAL":122,"POSITION":123,"TEXCOORD_0":124},"indices":115,"material":9}]},{"name":"TowerRoof","primitives":[{"attributes":{"NORMAL":125,"POSITION":126,"TEXCOORD_0":127},"indices":128,"material":8}]},{"name":"kit_Wall_Plaster_Straight.001","primitives":[{"attributes":{"NORMAL":129,"POSITION":130,"TEXCOORD_0":131},"indices":132,"material":3},{"attributes":{"NORMAL":133,"POSITION":134,"TEXCOORD_0":135},"indices":136,"material":7}]},{"name":"kit_Wall_Plaster_Window_Wide_Flat2.001","primitives":[{"attributes":{"NORMAL":137,"POSITION":138,"TEXCOORD_0":139},"indices":140,"material":3},{"attributes":{"NORMAL":141,"POSITION":142,"TEXCOORD_0":143},"indices":144,"material":7}]},{"name":"kit_Wall_Plaster_Window_Wide_Flat.001","primitives":[{"attributes":{"NORMAL":145,"POSITION":146,"TEXCOORD_0":147},"indices":148,"material":7},{"attributes":{"NORMAL":149,"POSITION":150,"TEXCOORD_0":151},"indices":152,"material":7},{"attributes":{"NORMAL":153,"POSITION":154,"TEXCOORD_0":155},"indices":156,"material":3}]},{"name":"kit_Wall_Plaster_WoodGrid.001","primitives":[{"attributes":{"NORMAL":157,"POSITION":158,"TEXCOORD_0":159},"indices":160,"material":3},{"attributes":{"NORMAL":161,"POSITION":162,"TEXCOORD_0":163},"indices":164,"material":7}]},{"name":"kit_Wall_UnevenBrick_Door_Round","primitives":[{"attributes":{"NORMAL":165,"POSITION":166,"TEXCOORD_0":167},"indices":168,"material":3},{"attributes":{"NORMAL":169,"POSITION":170,"TEXCOORD_0":171},"indices":172,"material":7},{"attributes":{"NORMAL":173,"POSITION":174,"TEXCOORD_0":175},"indices":176,"material":6}]},{"name":"kit_Wall_UnevenBrick_Straight","primitives":[{"attributes":{"NORMAL":177,"POSITION":178,"TEXCOORD_0":179},"indices":168,"material":3},{"attributes":{"NORMAL":180,"POSITION":181,"TEXCOORD_0":182},"indices":183,"material":7},{"attributes":{"NORMAL":184,"POSITION":185,"TEXCOORD_0":186},"indices":187,"material":6}]},{"name":"kit_Wall_UnevenBrick_Window_Wide_Flat","primitives":[{"attributes":{"NORMAL":188,"POSITION":189,"TEXCOORD_0":190},"indices":191,"material":3},{"attributes":{"NORMAL":192,"POSITION":193,"TEXCOORD_0":194},"indices":195,"material":7},{"attributes":{"NORMAL":196,"POSITION":197,"TEXCOORD_0":198},"indices":199,"material":6}]},{"name":"kit_Wall_UnevenBrick_Window_Wide_Round","primitives":[{"attributes":{"NORMAL":200,"POSITION":201,"TEXCOORD_0":202},"indices":191,"material":3},{"attributes":{"NORMAL":203,"POSITION":204,"TEXCOORD_0":205},"indices":206,"material":7},{"attributes":{"NORMAL":207,"POSITION":208,"TEXCOORD_0":209},"indices":210,"material":6}]},{"name":"kit_Window_Thin_Round1.001","primitives":[{"attributes":{"NORMAL":211,"POSITION":212,"TEXCOORD_0":213},"indices":214,"material":3},{"attributes":{"NORMAL":215,"POSITION":216},"indices":217,"material":4}]},{"name":"kit_Window_Wide_Flat1","primitives":[{"attributes":{"NORMAL":218,"POSITION":219,"TEXCOORD_0":220},"indices":221,"material":3},{"attributes":{"NORMAL":222,"POSITION":223},"indices":224,"material":4}]},{"name":"kit_Window_Wide_Round1.001","primitives":[{"attributes":{"NORMAL":225,"POSITION":226,"TEXCOORD_0":227},"indices":228,"material":3},{"attributes":{"NORMAL":229,"POSITION":230},"indices":231,"material":4}]},{"name":"kit_WindowShutters_Wide_Flat_Open","primitives":[{"attributes":{"NORMAL":232,"POSITION":233,"TEXCOORD_0":234},"indices":235,"material":3}]},{"name":"kit_WindowShutters_Wide_Round_Open","primitives":[{"attributes":{"NORMAL":236,"POSITION":237,"TEXCOORD_0":238},"indices":239,"material":3}]}],"nodes":[{"mesh":0,"name":"Banner.108"},{"mesh":1,"name":"Banner.111"},{"mesh":2,"name":"BannerRod.107"},{"mesh":3,"name":"BannerRod.110"},{"mesh":4,"name":"BannerRoundel.109"},{"mesh":5,"name":"BannerRoundel.112"},{"mesh":6,"name":"Beam.061"},{"mesh":7,"name":"Corner_Exterior_Wood.043","translation":[-6,0,0]},{"mesh":8,"name":"Corner_Exterior_Wood.044","translation":[6,0,0]},{"mesh":9,"name":"Corner_Exterior_Wood.045","translation":[-6,0,-10]},{"mesh":10,"name":"Corner_Exterior_Wood.046","translation":[6,0,-10]},{"mesh":11,"name":"Corner_Exterior_Wood.096","translation":[-6,3,0.6000000238418579]},{"mesh":11,"name":"Corner_Exterior_Wood.097","translation":[6,3,0.6000000238418579]},{"mesh":11,"name":"Corner_Exterior_Wood.098","translation":[-6,3,-10]},{"mesh":11,"name":"Corner_Exterior_Wood.099","translation":[6,3,-10]},{"mesh":12,"name":"Door_1_Round.009","scale":[1.0696429014205933,1,1],"translation":[-1.1979997158050537,0,-0.019999999552965164]},{"mesh":12,"name":"Door_1_Round.010","rotation":[0,-1,0,4.371138828673793e-08],"scale":[1.0696429014205933,1,1],"translation":[1.198000192642212,0,-0.019999999552965164]},{"mesh":13,"name":"DoorFrame_Round_WoodDark.008","scale":[1.996666669845581,1,1]},{"mesh":14,"name":"Floor_WoodDark.055","scale":[1,1,0.3499999940395355],"translation":[-5,2.9700000286102295,0.30000001192092896]},{"mesh":14,"name":"Floor_WoodDark.056","scale":[1,1,0.3499999940395355],"translation":[-3,2.9700000286102295,0.30000001192092896]},{"mesh":14,"name":"Floor_WoodDark.057","scale":[1,1,0.3499999940395355],"translation":[-1,2.9700000286102295,0.30000001192092896]},{"mesh":14,"name":"Floor_WoodDark.058","scale":[1,1,0.3499999940395355],"translation":[1,2.9700000286102295,0.30000001192092896]},{"mesh":14,"name":"Floor_WoodDark.059","scale":[1,1,0.3499999940395355],"translation":[3,2.9700000286102295,0.30000001192092896]},{"mesh":14,"name":"Floor_WoodDark.060","scale":[1,1,0.3499999940395355],"translation":[5,2.9700000286102295,0.30000001192092896]},{"mesh":15,"name":"LanternArm.113"},{"mesh":16,"name":"LanternArm.118"},{"mesh":17,"name":"LanternBase.117"},{"mesh":18,"name":"LanternBase.122"},{"mesh":19,"name":"LanternCap.115"},{"mesh":20,"name":"LanternCap.120"},{"mesh":21,"name":"LanternGlass.116"},{"mesh":22,"name":"LanternGlass.121"},{"mesh":23,"name":"LanternHook.114"},{"mesh":24,"name":"LanternHook.119"},{"mesh":25,"name":"Prop_Chimney2.105","translation":[-4.5,6.992949962615967,-8]},{"mesh":25,"name":"Prop_Chimney2.106","translation":[4.5,6.958312511444092,-8]},{"mesh":26,"name":"Roof_Dormer_RoundTile.103","rotation":[0,-0.7071068286895752,0,0.7071068286895752],"translation":[-3,6.379710674285889,0]},{"mesh":26,"name":"Roof_Dormer_RoundTile.104","rotation":[0,-0.7071068286895752,0,0.7071068286895752],"translation":[3,6.34126615524292,0]},{"mesh":27,"name":"Roof_Front_Brick8.101","rotation":[0,-0.7071068286895752,0,0.7071068286895752],"scale":[1.3250000476837158,1,1],"translation":[-6,6.119999885559082,-4.699999809265137]},{"mesh":27,"name":"Roof_Front_Brick8.102","rotation":[0,0.7071068286895752,0,0.7071068286895752],"scale":[1.3250000476837158,1,1],"translation":[6,6.119999885559082,-4.699999809265137]},{"mesh":28,"name":"Roof_RoundTiles_8x12.100","rotation":[0,-0.7071068286895752,0,0.7071068286895752],"scale":[1.3250000476837158,1,1],"translation":[0,6.119999885559082,-4.699999809265137]},{"mesh":29,"name":"Roof_Support2.047","scale":[1,1,0.8695651888847351],"translation":[-5.869999885559082,3.0199999809265137,0.09000000357627869]},{"mesh":29,"name":"Roof_Support2.048","scale":[1,1,0.8695651888847351],"translation":[-4.192857265472412,3.0199999809265137,0.09000000357627869]},{"mesh":29,"name":"Roof_Support2.049","scale":[1,1,0.8695651888847351],"translation":[-2.515714168548584,3.0199999809265137,0.09000000357627869]},{"mesh":29,"name":"Roof_Support2.050","scale":[1,1,0.8695651888847351],"translation":[-0.8385714292526245,3.0199999809265137,0.09000000357627869]},{"mesh":29,"name":"Roof_Support2.051","scale":[1,1,0.8695651888847351],"translation":[0.8385714292526245,3.0199999809265137,0.09000000357627869]},{"mesh":29,"name":"Roof_Support2.052","scale":[1,1,0.8695651888847351],"translation":[2.515714168548584,3.0199999809265137,0.09000000357627869]},{"mesh":29,"name":"Roof_Support2.053","scale":[1,1,0.8695651888847351],"translation":[4.192857265472412,3.0199999809265137,0.09000000357627869]},{"mesh":29,"name":"Roof_Support2.054","scale":[1,1,0.8695651888847351],"translation":[5.869999885559082,3.0199999809265137,0.09000000357627869]},{"mesh":30,"name":"Spire.131"},{"mesh":31,"name":"Tower.123"},{"mesh":32,"name":"TowerBand.125"},{"mesh":33,"name":"TowerBand.126"},{"mesh":34,"name":"TowerPlinth.124"},{"mesh":35,"name":"TowerRoof.130"},{"mesh":36,"name":"Wall_Plaster_Straight+upper.074","rotation":[0,-1,0,4.371138828673793e-08],"scale":[0.9983333349227905,1,1],"translation":[4.991666316986084,3,-10]},{"mesh":36,"name":"Wall_Plaster_Straight+upper.077","rotation":[0,-1,0,4.371138828673793e-08],"scale":[0.9983333349227905,1,1],"translation":[0.9983330965042114,3,-10]},{"mesh":36,"name":"Wall_Plaster_Straight+upper.078","rotation":[0,-1,0,4.371138828673793e-08],"scale":[0.9983333349227905,1,1],"translation":[-0.9983335733413696,3,-10]},{"mesh":36,"name":"Wall_Plaster_Straight+upper.081","rotation":[0,-1,0,4.371138828673793e-08],"scale":[0.9983333349227905,1,1],"translation":[-4.991666793823242,3,-10]},{"mesh":36,"name":"Wall_Plaster_Straight+upper.082","rotation":[0,-0.7071068286895752,0,0.7071068286895752],"scale":[1.0579999685287476,1,1],"translation":[-6,3,-8.932000160217285]},{"mesh":36,"name":"Wall_Plaster_Straight+upper.085","rotation":[0,-0.7071068286895752,0,0.7071068286895752],"scale":[1.0579999685287476,1,1],"translation":[-6,3,-4.6999993324279785]},{"mesh":36,"name":"Wall_Plaster_Straight+upper.088","rotation":[0,-0.7071068286895752,0,0.7071068286895752],"scale":[1.0579999685287476,1,1],"translation":[-6,3,-0.46799957752227783]},{"mesh":36,"name":"Wall_Plaster_Straight+upper.089","rotation":[0,0.7071068286895752,0,0.7071068286895752],"scale":[1.0579999685287476,1,1],"translation":[6,3,-0.46799999475479126]},{"mesh":36,"name":"Wall_Plaster_Straight+upper.092","rotation":[0,0.7071068286895752,0,0.7071068286895752],"scale":[1.0579999685287476,1,1],"translation":[6,3,-4.699999809265137]},{"mesh":36,"name":"Wall_Plaster_Straight+upper.095","rotation":[0,0.7071068286895752,0,0.7071068286895752],"scale":[1.0579999685287476,1,1],"translation":[6,3,-8.931999206542969]},{"mesh":37,"name":"Wall_Plaster_Window_Wide_Flat2+upper.065","scale":[0.9983333349227905,1,1],"translation":[-2.994999885559082,3,0.6000000238418579]},{"mesh":37,"name":"Wall_Plaster_Window_Wide_Flat2+upper.069","scale":[0.9983333349227905,1,1],"translation":[2.9950003623962402,3,0.6000000238418579]},{"mesh":38,"name":"Wall_Plaster_Window_Wide_Flat+upper.062","scale":[0.9983333349227905,1,1],"translation":[-4.991666316986084,3,0.6000000238418579]},{"mesh":38,"name":"Wall_Plaster_Window_Wide_Flat+upper.071","scale":[0.9983333349227905,1,1],"translation":[4.991666793823242,3,0.6000000238418579]},{"mesh":38,"name":"Wall_Plaster_Window_Wide_Flat+upper.075","rotation":[0,-1,0,4.371138828673793e-08],"scale":[0.9983333349227905,1,1],"translation":[2.994999885559082,3,-10]},{"mesh":38,"name":"Wall_Plaster_Window_Wide_Flat+upper.079","rotation":[0,-1,0,4.371138828673793e-08],"scale":[0.9983333349227905,1,1],"translation":[-2.9950003623962402,3,-10]},{"mesh":38,"name":"Wall_Plaster_Window_Wide_Flat+upper.083","rotation":[0,-0.7071068286895752,0,0.7071068286895752],"scale":[1.0579999685287476,1,1],"translation":[-6,3,-6.815999507904053]},{"mesh":38,"name":"Wall_Plaster_Window_Wide_Flat+upper.086","rotation":[0,-0.7071068286895752,0,0.7071068286895752],"scale":[1.0579999685287476,1,1],"translation":[-6,3,-2.5839996337890625]},{"mesh":38,"name":"Wall_Plaster_Window_Wide_Flat+upper.090","rotation":[0,0.7071068286895752,0,0.7071068286895752],"scale":[1.0579999685287476,1,1],"translation":[6,3,-2.5840001106262207]},{"mesh":38,"name":"Wall_Plaster_Window_Wide_Flat+upper.093","rotation":[0,0.7071068286895752,0,0.7071068286895752],"scale":[1.0579999685287476,1,1],"translation":[6,3,-6.815999984741211]},{"mesh":39,"name":"Wall_Plaster_WoodGrid+upper.067","scale":[0.9983333349227905,1,1],"translation":[-0.9983330965042114,3,0.6000000238418579]},{"mesh":39,"name":"Wall_Plaster_WoodGrid+upper.068","scale":[0.9983333349227905,1,1],"translation":[0.9983335733413696,3,0.6000000238418579]},{"mesh":40,"name":"Wall_UnevenBrick_Door_Round.007","scale":[1.996666669845581,1,1]},{"mesh":41,"name":"Wall_UnevenBrick_Straight.017","rotation":[0,-1,0,4.371138828673793e-08],"scale":[0.9983333349227905,1,1],"translation":[4.991666316986084,0,-10]},{"mesh":41,"name":"Wall_UnevenBrick_Straight.020","rotation":[0,-1,0,4.371138828673793e-08],"scale":[0.9983333349227905,1,1],"translation":[0.9983330965042114,0,-10]},{"mesh":41,"name":"Wall_UnevenBrick_Straight.021","rotation":[0,-1,0,4.371138828673793e-08],"scale":[0.9983333349227905,1,1],"translation":[-0.9983335733413696,0,-10]},{"mesh":41,"name":"Wall_UnevenBrick_Straight.024","rotation":[0,-1,0,4.371138828673793e-08],"scale":[0.9983333349227905,1,1],"translation":[-4.991666793823242,0,-10]},{"mesh":41,"name":"Wall_UnevenBrick_Straight.025","rotation":[0,-0.7071068286895752,0,0.7071068286895752],"scale":[0.9980000257492065,1,1],"translation":[-6,0,-8.991999626159668]},{"mesh":41,"name":"Wall_UnevenBrick_Straight.029","rotation":[0,-0.7071068286895752,0,0.7071068286895752],"scale":[0.9980000257492065,1,1],"translation":[-6,0,-4.999999046325684]},{"mesh":41,"name":"Wall_UnevenBrick_Straight.033","rotation":[0,-0.7071068286895752,0,0.7071068286895752],"scale":[0.9980000257492065,1,1],"translation":[-6,0,-1.0079988241195679]},{"mesh":41,"name":"Wall_UnevenBrick_Straight.034","rotation":[0,0.7071068286895752,0,0.7071068286895752],"scale":[0.9980000257492065,1,1],"translation":[6,0,-1.0080000162124634]},{"mesh":41,"name":"Wall_UnevenBrick_Straight.038","rotation":[0,0.7071068286895752,0,0.7071068286895752],"scale":[0.9980000257492065,1,1],"translation":[6,0,-5]},{"mesh":41,"name":"Wall_UnevenBrick_Straight.042","rotation":[0,0.7071068286895752,0,0.7071068286895752],"scale":[0.9980000257492065,1,1],"translation":[6,0,-8.992000579833984]},{"mesh":42,"name":"Wall_UnevenBrick_Window_Wide_Flat.018","rotation":[0,-1,0,4.371138828673793e-08],"scale":[0.9983333349227905,1,1],"translation":[2.994999885559082,0,-10]},{"mesh":42,"name":"Wall_UnevenBrick_Window_Wide_Flat.022","rotation":[0,-1,0,4.371138828673793e-08],"scale":[0.9983333349227905,1,1],"translation":[-2.9950003623962402,0,-10]},{"mesh":43,"name":"Wall_UnevenBrick_Window_Wide_Round.001","scale":[0.9983333349227905,1,1],"translation":[-4.991666316986084,0,0]},{"mesh":43,"name":"Wall_UnevenBrick_Window_Wide_Round.004","scale":[0.9983333349227905,1,1],"translation":[-2.994999885559082,0,0]},{"mesh":43,"name":"Wall_UnevenBrick_Window_Wide_Round.011","scale":[0.9983333349227905,1,1],"translation":[2.9950003623962402,0,0]},{"mesh":43,"name":"Wall_UnevenBrick_Window_Wide_Round.014","scale":[0.9983333349227905,1,1],"translation":[4.991666793823242,0,0]},{"mesh":43,"name":"Wall_UnevenBrick_Window_Wide_Round.026","rotation":[0,-0.7071068286895752,0,0.7071068286895752],"scale":[0.9980000257492065,1,1],"translation":[-6,0,-6.995999336242676]},{"mesh":43,"name":"Wall_UnevenBrick_Window_Wide_Round.030","rotation":[0,-0.7071068286895752,0,0.7071068286895752],"scale":[0.9980000257492065,1,1],"translation":[-6,0,-3.0039987564086914]},{"mesh":43,"name":"Wall_UnevenBrick_Window_Wide_Round.035","rotation":[0,0.7071068286895752,0,0.7071068286895752],"scale":[0.9980000257492065,1,1],"translation":[6,0,-3.004000186920166]},{"mesh":43,"name":"Wall_UnevenBrick_Window_Wide_Round.039","rotation":[0,0.7071068286895752,0,0.7071068286895752],"scale":[0.9980000257492065,1,1],"translation":[6,0,-6.996000289916992]},{"mesh":44,"name":"Window_Thin_Round1.127","rotation":[0,0.2588190734386444,0,0.965925931930542],"translation":[6.985000133514404,2.4000000953674316,1.486454725265503]},{"mesh":44,"name":"Window_Thin_Round1.128","rotation":[0,0.5,0,0.8660253882408142],"translation":[7.486454963684082,5.400000095367432,0.9850000143051147]},{"mesh":44,"name":"Window_Thin_Round1.129","rotation":[0,0.8660253882408142,0,0.4999999701976776],"translation":[7.486454963684082,5.400000095367432,-0.38499999046325684]},{"mesh":45,"name":"Window_Wide_Flat1.019","rotation":[0,-1,0,4.371138828673793e-08],"scale":[0.9983333349227905,1,1],"translation":[2.994999885559082,0,-10]},{"mesh":45,"name":"Window_Wide_Flat1.023","rotation":[0,-1,0,4.371138828673793e-08],"scale":[0.9983333349227905,1,1],"translation":[-2.9950003623962402,0,-10]},{"mesh":45,"name":"Window_Wide_Flat1.063","scale":[0.9983333349227905,1,1],"translation":[-4.991666316986084,3,0.6000000238418579]},{"mesh":45,"name":"Window_Wide_Flat1.066","scale":[0.9983333349227905,1,1],"translation":[-2.994999885559082,3,0.6000000238418579]},{"mesh":45,"name":"Window_Wide_Flat1.070","scale":[0.9983333349227905,1,1],"translation":[2.9950003623962402,3,0.6000000238418579]},{"mesh":45,"name":"Window_Wide_Flat1.072","scale":[0.9983333349227905,1,1],"translation":[4.991666793823242,3,0.6000000238418579]},{"mesh":45,"name":"Window_Wide_Flat1.076","rotation":[0,-1,0,4.371138828673793e-08],"scale":[0.9983333349227905,1,1],"translation":[2.994999885559082,3,-10]},{"mesh":45,"name":"Window_Wide_Flat1.080","rotation":[0,-1,0,4.371138828673793e-08],"scale":[0.9983333349227905,1,1],"translation":[-2.9950003623962402,3,-10]},{"mesh":45,"name":"Window_Wide_Flat1.084","rotation":[0,-0.7071068286895752,0,0.7071068286895752],"scale":[1.0579999685287476,1,1],"translation":[-6,3,-6.815999507904053]},{"mesh":45,"name":"Window_Wide_Flat1.087","rotation":[0,-0.7071068286895752,0,0.7071068286895752],"scale":[1.0579999685287476,1,1],"translation":[-6,3,-2.5839996337890625]},{"mesh":45,"name":"Window_Wide_Flat1.091","rotation":[0,0.7071068286895752,0,0.7071068286895752],"scale":[1.0579999685287476,1,1],"translation":[6,3,-2.5840001106262207]},{"mesh":45,"name":"Window_Wide_Flat1.094","rotation":[0,0.7071068286895752,0,0.7071068286895752],"scale":[1.0579999685287476,1,1],"translation":[6,3,-6.815999984741211]},{"mesh":46,"name":"Window_Wide_Round1.002","scale":[0.9983333349227905,1,1],"translation":[-4.991666316986084,0,0]},{"mesh":46,"name":"Window_Wide_Round1.005","scale":[0.9983333349227905,1,1],"translation":[-2.994999885559082,0,0]},{"mesh":46,"name":"Window_Wide_Round1.012","scale":[0.9983333349227905,1,1],"translation":[2.9950003623962402,0,0]},{"mesh":46,"name":"Window_Wide_Round1.015","scale":[0.9983333349227905,1,1],"translation":[4.991666793823242,0,0]},{"mesh":46,"name":"Window_Wide_Round1.027","rotation":[0,-0.7071068286895752,0,0.7071068286895752],"scale":[0.9980000257492065,1,1],"translation":[-6,0,-6.995999336242676]},{"mesh":46,"name":"Window_Wide_Round1.031","rotation":[0,-0.7071068286895752,0,0.7071068286895752],"scale":[0.9980000257492065,1,1],"translation":[-6,0,-3.0039987564086914]},{"mesh":46,"name":"Window_Wide_Round1.036","rotation":[0,0.7071068286895752,0,0.7071068286895752],"scale":[0.9980000257492065,1,1],"translation":[6,0,-3.004000186920166]},{"mesh":46,"name":"Window_Wide_Round1.040","rotation":[0,0.7071068286895752,0,0.7071068286895752],"scale":[0.9980000257492065,1,1],"translation":[6,0,-6.996000289916992]},{"mesh":47,"name":"WindowShutters_Wide_Flat_Open.064","scale":[0.9983333349227905,1,1],"translation":[-4.991666316986084,3,0.6000000238418579]},{"mesh":47,"name":"WindowShutters_Wide_Flat_Open.073","scale":[0.9983333349227905,1,1],"translation":[4.991666793823242,3,0.6000000238418579]},{"mesh":48,"name":"WindowShutters_Wide_Round_Open.003","scale":[0.9983333349227905,1,1],"translation":[-4.991666316986084,0,0]},{"mesh":48,"name":"WindowShutters_Wide_Round_Open.006","scale":[0.9983333349227905,1,1],"translation":[-2.994999885559082,0,0]},{"mesh":48,"name":"WindowShutters_Wide_Round_Open.013","scale":[0.9983333349227905,1,1],"translation":[2.9950003623962402,0,0]},{"mesh":48,"name":"WindowShutters_Wide_Round_Open.016","scale":[0.9983333349227905,1,1],"translation":[4.991666793823242,0,0]},{"mesh":48,"name":"WindowShutters_Wide_Round_Open.028","rotation":[0,-0.7071068286895752,0,0.7071068286895752],"scale":[0.9980000257492065,1,1],"translation":[-6,0,-6.995999336242676]},{"mesh":48,"name":"WindowShutters_Wide_Round_Open.032","rotation":[0,-0.7071068286895752,0,0.7071068286895752],"scale":[0.9980000257492065,1,1],"translation":[-6,0,-3.0039987564086914]},{"mesh":48,"name":"WindowShutters_Wide_Round_Open.037","rotation":[0,0.7071068286895752,0,0.7071068286895752],"scale":[0.9980000257492065,1,1],"translation":[6,0,-3.004000186920166]},{"mesh":48,"name":"WindowShutters_Wide_Round_Open.041","rotation":[0,0.7071068286895752,0,0.7071068286895752],"scale":[0.9980000257492065,1,1],"translation":[6,0,-6.996000289916992]}],"scene":0,"scenes":[{"name":"Scene","nodes":[0,1,2,3,4,5,6,7,8,9,10,11,12,13,14,15,16,17,18,19,20,21,22,23,24,25,26,27,28,29,30,31,32,33,34,35,36,37,38,39,40,41,42,43,44,45,46,47,48,49,50,51,52,53,54,55,56,57,58,59,60,61,62,63,64,65,66,67,68,69,70,71,72,73,74,75,76,77,78,79,80,81,82,83,84,85,86,87,88,89,90,91,92,93,94,95,96,97,98,99,100,101,102,103,104,105,106,107,108,109,110,111,112,113,114,115,116,117,118,119,120,121,122,123,124,125,126,127,128,129,130]}],"textures":[{"source":0},{"source":1},{"source":2},{"source":3},{"source":4}]}