{"accessors":[{"bufferView":0,"componentType":5126,"count":108,"max":[0.6500000357627869,0.4892820119857788,-0.7790278196334839],"min":[-0.6500000357627869,0.3507179617881775,-0.9390278458595276],"type":"VEC3"},{"bufferView":1,"componentType":5126,"count":108,"type":"VEC3"},{"bufferView":2,"componentType":5126,"count":108,"type":"VEC2"},{"bufferView":3,"componentType":5123,"count":180,"type":"SCALAR"},{"bufferView":4,"componentType":5126,"count":168,"max":[0.5249999761581421,0.9500000476837158,0.04097217321395874],"min":[-0.5249999761581421,0.5799999833106995,-1.4840278625488281],"type":"VEC3"},{"bufferView":5,"componentType":5126,"count":168,"type":"VEC3"},{"bufferView":6,"componentType":5126,"count":168,"type":"VEC2"},{"bufferView":7,"componentType":5123,"count":240,"type":"SCALAR"},{"bufferView":8,"componentType":5126,"count":192,"max":[0.6300000548362732,0.8399999737739563,1.4840278625488281],"min":[-0.6300000548362732,0,-1.2790278196334839],"type":"VEC3"},{"bufferView":9,"componentType":5126,"count":192,"type":"VEC3"},{"bufferView":10,"componentType":5126,"count":192,"type":"VEC2"},{"bufferView":11,"componentType":5123,"count":336,"type":"SCALAR"},{"bufferView":12,"componentType":5126,"count":294,"max":[0.44373196363449097,1.0500000715255737,-0.08873718976974487],"min":[-0.44373196363449097,0.6500000357627869,-1.309027910232544],"type":"VEC3"},{"bufferView":13,"componentType":5126,"count":294,"type":"VEC3"},{"bufferView":14,"componentType":5126,"count":294,"type":"VEC2"},{"bufferView":15,"componentType":5123,"count":378,"type":"SCALAR"}],"asset":{"generator":"Khronos glTF Blender I/O v5.2.40","version":"2.0"},"bufferViews":[{"buffer":0,"byteLength":1296,"byteOffset":0,"target":34962},{"buffer":0,"byteLength":1296,"byteOffset":1296,"target":34962},{"buffer":0,"byteLength":864,"byteOffset":2592,"target":34962},{"buffer":0,"byteLength":360,"byteOffset":3456,"target":34963},{"buffer":0,"byteLength":2016,"byteOffset":3816,"target":34962},{"buffer":0,"byteLength":2016,"byteOffset":5832,"target":34962},{"buffer":0,"byteLength":1344,"byteOffset":7848,"target":34962},{"buffer":0,"byteLength":480,"byteOffset":9192,"target":34963},{"buffer":0,"byteLength":2304,"byteOffset":9672,"target":34962},{"buffer":0,"byteLength":2304,"byteOffset":11976,"target":34962},{"buffer":0,"byteLength":1536,"byteOffset":14280,"target":34962},{"buffer":0,"byteLength":672,"byteOffset":15816,"target":34963},{"buffer":0,"byteLength":3528,"byteOffset":16488,"target":34962},{"buffer":0,"byteLength":3528,"byteOffset":20016,"target":34962},{"buffer":0,"byteLength":2352,"byteOffset":23544,"target":34962},{"buffer":0,"byteLength":756,"byteOffset":25896,"target":34963}],"buffers":[{"byteLength":26652,"uri":"hand_cart.bin"}],"images":[],"materials":[{"doubleSided":true,"name":"Prop_Iron","pbrMetallicRoughness":{"baseColorFactor":[0.03500000014901161,0.03500000014901161,0.03999999910593033,1],"metallicFactor":0,"roughnessFactor":0.5}},{"doubleSided":true,"name":"Prop_Oak","pbrMetallicRoughness":{"baseColorFactor":[0.3199999928474426,0.17000000178813934,0.07000000029802322,1],"metallicFactor":0,"roughnessFactor":0.8500000238418579}},{"doubleSided":true,"name":"Prop_OakDark","pbrMetallicRoughness":{"baseColorFactor":[0.18000000715255737,0.09000000357627869,0.03500000014901161,1],"metallicFactor":0,"roughnessFactor":0.8500000238418579}},{"doubleSided":true,"name":"Prop_Sack","pbrMetallicRoughness":{"baseColorFactor":[0.550000011920929,0.41999998688697815,0.25,1],"metallicFactor":0}}],"meshes":[{"name":"hand_cart","primitives":[{"attributes":{"NORMAL":1,"POSITION":0,"TEXCOORD_0":2},"indices":3,"material":0},{"attributes":{"NORMAL":5,"POSITION":4,"TEXCOORD_0":6},"indices":7,"material":1},{"attributes":{"NORMAL":9,"POSITION":8,"TEXCOORD_0":10},"indices":11,"material":2},{"attributes":{"NORMAL":13,"POSITION":12,"TEXCOORD_0":14},"indices":15,"material":3}]}],"nodes":[{"mesh":0,"name":"hand_cart"}],"scene":0,"scenes":[{"name":"Scene","nodes":[0]}],"textures":[]}
