{"accessors":[{"bufferView":0,"componentType":5126,"count":180,"max":[1.3195806741714478,2.2200000286102295,0.6532468795776367],"min":[-1.3195806741714478,0,-0.653377890586853],"type":"VEC3"},{"bufferView":1,"componentType":5126,"count":180,"type":"VEC3"},{"bufferView":2,"componentType":5126,"count":180,"type":"VEC2"},{"bufferView":3,"componentType":5123,"count":324,"type":"SCALAR"},{"bufferView":4,"componentType":5126,"count":360,"max":[1.1377313137054443,2.1399998664855957,0.669026255607605],"min":[-1.243496060371399,0.08000004291534424,-0.669026255607605],"type":"VEC3"},{"bufferView":5,"componentType":5126,"count":360,"type":"VEC3"},{"bufferView":6,"componentType":5126,"count":360,"type":"VEC2"},{"bufferView":7,"componentType":5123,"count":648,"type":"SCALAR"}],"asset":{"generator":"Khronos glTF Blender I/O v5.2.40","version":"2.0"},"bufferViews":[{"buffer":0,"byteLength":2160,"byteOffset":0,"target":34962},{"buffer":0,"byteLength":2160,"byteOffset":2160,"target":34962},{"buffer":0,"byteLength":1440,"byteOffset":4320,"target":34962},{"buffer":0,"byteLength":648,"byteOffset":5760,"target":34963},{"buffer":0,"byteLength":4320,"byteOffset":6408,"target":34962},{"buffer":0,"byteLength":4320,"byteOffset":10728,"target":34962},{"buffer":0,"byteLength":2880,"byteOffset":15048,"target":34962},{"buffer":0,"byteLength":1296,"byteOffset":17928,"target":34963}],"buffers":[{"byteLength":19224,"uri":"hay_bales.bin"}],"images":[],"materials":[{"doubleSided":true,"name":"Prop_Hay","pbrMetallicRoughness":{"baseColorFactor":[0.6200000047683716,0.47999998927116394,0.1599999964237213,1],"metallicFactor":0}},{"doubleSided":true,"name":"Prop_HayDark","pbrMetallicRoughness":{"baseColorFactor":[0.44999998807907104,0.33000001311302185,0.10000000149011612,1],"metallicFactor":0}}],"meshes":[{"name":"hay_bales","primitives":[{"attributes":{"NORMAL":1,"POSITION":0,"TEXCOORD_0":2},"indices":3,"material":0},{"attributes":{"NORMAL":5,"POSITION":4,"TEXCOORD_0":6},"indices":7,"material":1}]}],"nodes":[{"mesh":0,"name":"hay_bales"}],"scene":0,"scenes":[{"name":"Scene","nodes":[0]}],"textures":[]}
