{"accessors":[{"bufferView":0,"componentType":5126,"count":30,"max":[0.04755282774567604,3.4000000953674316,0.04045085236430168],"min":[-0.04755282774567604,2.5999999046325684,-0.05000000074505806],"type":"VEC3"},{"bufferView":1,"componentType":5126,"count":30,"type":"VEC3"},{"bufferView":2,"componentType":5126,"count":30,"type":"VEC2"},{"bufferView":3,"componentType":5123,"count":48,"type":"SCALAR"},{"bufferView":4,"componentType":5126,"count":201,"max":[1.350000023841858,2.799999952316284,1.283926248550415],"min":[-1.350000023841858,0,-1.283926248550415],"type":"VEC3"},{"bufferView":5,"componentType":5126,"count":201,"type":"VEC3"},{"bufferView":6,"componentType":5126,"count":201,"type":"VEC2"},{"bufferView":7,"componentType":5123,"count":300,"type":"SCALAR"},{"bufferView":8,"componentType":5126,"count":62,"max":[1.4500000476837158,0.30000001192092896,1.3790318965911865],"min":[-1.4500000476837158,0.019999999552965164,-1.3790318965911865],"type":"VEC3"},{"bufferView":9,"componentType":5126,"count":62,"type":"VEC3"},{"bufferView":10,"componentType":5126,"count":62,"type":"VEC2"},{"bufferView":11,"componentType":5123,"count":120,"type":"SCALAR"}],"asset":{"generator":"Khronos glTF Blender I/O v5.2.40","version":"2.0"},"bufferViews":[{"buffer":0,"byteLength":360,"byteOffset":0,"target":34962},{"buffer":0,"byteLength":360,"byteOffset":360,"target":34962},{"buffer":0,"byteLength":240,"byteOffset":720,"target":34962},{"buffer":0,"byteLength":96,"byteOffset":960,"target":34963},{"buffer":0,"byteLength":2412,"byteOffset":1056,"target":34962},{"buffer":0,"byteLength":2412,"byteOffset":3468,"target":34962},{"buffer":0,"byteLength":1608,"byteOffset":5880,"target":34962},{"buffer":0,"byteLength":600,"byteOffset":7488,"target":34963},{"buffer":0,"byteLength":744,"byteOffset":8088,"target":34962},{"buffer":0,"byteLength":744,"byteOffset":8832,"target":34962},{"buffer":0,"byteLength":496,"byteOffset":9576,"target":34962},{"buffer":0,"byteLength":240,"byteOffset":10072,"target":34963}],"buffers":[{"byteLength":10312,"uri":"haystack.bin"}],"images":[],"materials":[{"doubleSided":true,"name":"Prop_OakDark","pbrMetallicRoughness":{"baseColorFactor":[0.18000000715255737,0.09000000357627869,0.03500000014901161,1],"metallicFactor":0,"roughnessFactor":0.8500000238418579}},{"doubleSided":true,"name":"Prop_Hay","pbrMetallicRoughness":{"baseColorFactor":[0.6200000047683716,0.47999998927116394,0.1599999964237213,1],"metallicFactor":0}},{"doubleSided":true,"name":"Prop_HayDark","pbrMetallicRoughness":{"baseColorFactor":[0.44999998807907104,0.33000001311302185,0.10000000149011612,1],"metallicFactor":0}}],"meshes":[{"name":"haystack","primitives":[{"attributes":{"NORMAL":1,"POSITION":0,"TEXCOORD_0":2},"indices":3,"material":0},{"attributes":{"NORMAL":5,"POSITION":4,"TEXCOORD_0":6},"indices":7,"material":1},{"attributes":{"NORMAL":9,"POSITION":8,"TEXCOORD_0":10},"indices":11,"material":2}]}],"nodes":[{"mesh":0,"name":"haystack"}],"scene":0,"scenes":[{"name":"Scene","nodes":[0]}],"textures":[]}
