{"accessors":[{"bufferView":0,"componentType":5126,"count":96,"max":[0.9750000238418579,0.8500000238418579,0.3571678400039673],"min":[-0.9750000238418579,0,-0.34283214807510376],"type":"VEC3"},{"bufferView":1,"componentType":5126,"count":96,"type":"VEC3"},{"bufferView":2,"componentType":5126,"count":96,"type":"VEC2"},{"bufferView":3,"componentType":5123,"count":132,"type":"SCALAR"},{"bufferView":4,"componentType":5126,"count":490,"max":[1.143174648284912,1.0023961067199707,0.34257736802101135],"min":[-1.143174648284912,0.5802497863769531,-0.3571678400039673],"type":"VEC3"},{"bufferView":5,"componentType":5126,"count":490,"type":"VEC3"},{"bufferView":6,"componentType":5126,"count":490,"type":"VEC2"},{"bufferView":7,"componentType":5123,"count":630,"type":"SCALAR"}],"asset":{"generator":"Khronos glTF Blender I/O v5.2.40","version":"2.0"},"bufferViews":[{"buffer":0,"byteLength":1152,"byteOffset":0,"target":34962},{"buffer":0,"byteLength":1152,"byteOffset":1152,"target":34962},{"buffer":0,"byteLength":768,"byteOffset":2304,"target":34962},{"buffer":0,"byteLength":264,"byteOffset":3072,"target":34963},{"buffer":0,"byteLength":5880,"byteOffset":3336,"target":34962},{"buffer":0,"byteLength":5880,"byteOffset":9216,"target":34962},{"buffer":0,"byteLength":3920,"byteOffset":15096,"target":34962},{"buffer":0,"byteLength":1260,"byteOffset":19016,"target":34963}],"buffers":[{"byteLength":20276,"uri":"hedge.bin"}],"images":[],"materials":[{"doubleSided":true,"name":"Prop_LeafDark","pbrMetallicRoughness":{"baseColorFactor":[0.04500000178813934,0.12999999523162842,0.029999999329447746,1],"metallicFactor":0,"roughnessFactor":0.8999999761581421}},{"doubleSided":true,"name":"Prop_Leaf","pbrMetallicRoughness":{"baseColorFactor":[0.07000000029802322,0.20000000298023224,0.03999999910593033,1],"metallicFactor":0,"roughnessFactor":0.8999999761581421}}],"meshes":[{"name":"hedge","primitives":[{"attributes":{"NORMAL":1,"POSITION":0,"TEXCOORD_0":2},"indices":3,"material":0},{"attributes":{"NORMAL":5,"POSITION":4,"TEXCOORD_0":6},"indices":7,"material":1}]}],"nodes":[{"mesh":0,"name":"hedge"}],"scene":0,"scenes":[{"name":"Scene","nodes":[0]}],"textures":[]}
