{"accessors":[{"bufferView":0,"componentType":5126,"count":24,"type":"VEC3"},{"bufferView":1,"componentType":5126,"count":24,"max":[5.5,6.139999866485596,0.5199999809265137],"min":[-5.5,5.980000019073486,0.46000000834465027],"type":"VEC3"},{"bufferView":2,"componentType":5126,"count":24,"type":"VEC2"},{"bufferView":3,"componentType":5123,"count":36,"type":"SCALAR"},{"bufferView":4,"componentType":5126,"count":24,"type":"VEC3"},{"bufferView":5,"componentType":5126,"count":24,"max":[5.5,6.139999866485596,-8.460000038146973],"min":[-5.5,5.980000019073486,-8.520000457763672],"type":"VEC3"},{"bufferView":6,"componentType":5126,"count":24,"type":"VEC2"},{"bufferView":7,"componentType":5126,"count":24,"type":"VEC3"},{"bufferView":8,"componentType":5126,"count":24,"max":[-5.460000038146973,6.139999866485596,0.5],"min":[-5.519999980926514,5.980000019073486,-8.5],"type":"VEC3"},{"bufferView":9,"componentType":5126,"count":24,"type":"VEC2"},{"bufferView":10,"componentType":5126,"count":24,"type":"VEC3"},{"bufferView":11,"componentType":5126,"count":24,"max":[5.519999980926514,6.139999866485596,0.5],"min":[5.460000038146973,5.980000019073486,-8.5],"type":"VEC3"},{"bufferView":12,"componentType":5126,"count":24,"type":"VEC2"},{"bufferView":13,"componentType":5126,"count":24,"type":"VEC3"},{"bufferView":14,"componentType":5126,"count":24,"max":[0.10508709400892258,2.999999761581421,0.11982007324695587],"min":[-0.10508733242750168,-1.5052728485898115e-07,-0.11982005089521408],"type":"VEC3"},{"bufferView":15,"componentType":5126,"count":24,"type":"VEC2"},{"bufferView":16,"componentType":5123,"count":36,"type":"SCALAR"},{"bufferView":17,"componentType":5126,"count":744,"type":"VEC3"},{"bufferView":18,"componentType":5126,"count":744,"max":[1.0737497806549072,2.3513262271881104,0.06314271688461304],"min":[-0.04626310616731644,0.033089637756347656,-0.05755755677819252],"type":"VEC3"},{"bufferView":19,"componentType":5126,"count":744,"type":"VEC2"},{"bufferView":20,"componentType":5123,"count":1362,"type":"SCALAR"},{"bufferView":21,"componentType":5126,"count":28,"type":"VEC3"},{"bufferView":22,"componentType":5126,"count":28,"max":[0.8667700886726379,1.7624019384384155,0.0312458835542202],"min":[0.1617247760295868,1.3117259740829468,0.031245503574609756],"type":"VEC3"},{"bufferView":23,"componentType":5123,"count":48,"type":"SCALAR"},{"bufferView":24,"componentType":5126,"count":364,"type":"VEC3"},{"bufferView":25,"componentType":5126,"count":364,"max":[0.7034913897514343,2.5548486709594727,0.29893577098846436],"min":[-0.7034929394721985,-0.008544921875,-0.24002820253372192],"type":"VEC3"},{"bufferView":26,"componentType":5126,"count":364,"type":"VEC2"},{"bufferView":27,"componentType":5123,"count":960,"type":"SCALAR"},{"bufferView":28,"componentType":5126,"count":14,"type":"VEC3"},{"bufferView":29,"componentType":5126,"count":14,"max":[5.5,8.520000457763672,0.5],"min":[-5.5,6.119999885559082,-8.5],"type":"VEC3"},{"bufferView":30,"componentType":5126,"count":14,"type":"VEC2"},{"bufferView":31,"componentType":5123,"count":18,"type":"SCALAR"},{"bufferView":32,"componentType":5126,"count":24,"type":"VEC3"},{"bufferView":33,"componentType":5126,"count":24,"max":[1.024999976158142,2.7300000190734863,0.4699999988079071],"min":[0.9750000238418579,2.680000066757202,0.05000000074505806],"type":"VEC3"},{"bufferView":34,"componentType":5126,"count":24,"type":"VEC3"},{"bufferView":35,"componentType":5126,"count":24,"max":[1.1200000047683716,2.2200000286102295,0.5199999809265137],"min":[0.8799999952316284,2.1600000858306885,0.2800000011920929],"type":"VEC3"},{"bufferView":36,"componentType":5126,"count":24,"type":"VEC3"},{"bufferView":37,"componentType":5126,"count":24,"max":[1.1399999856948853,2.6000001430511475,0.5400000214576721],"min":[0.8600000143051147,2.5400002002716064,0.25999999046325684],"type":"VEC3"},{"bufferView":38,"componentType":5126,"count":24,"type":"VEC3"},{"bufferView":39,"componentType":5126,"count":24,"max":[1.100000023841858,2.5400002002716064,0.5],"min":[0.8999999761581421,2.2200000286102295,0.30000001192092896],"type":"VEC3"},{"bufferView":40,"componentType":5126,"count":24,"type":"VEC3"},{"bufferView":41,"componentType":5126,"count":24,"max":[1.0149999856948853,2.690000057220459,0.4100000262260437],"min":[0.9850000143051147,2.6000001430511475,0.3800000250339508],"type":"VEC3"},{"bufferView":42,"componentType":5126,"count":508,"type":"VEC3"},{"bufferView":43,"componentType":5126,"count":508,"max":[0.4383014738559723,3.177875280380249,0.47339576482772827],"min":[-0.4516017735004425,2.8398513793945312,-0.43134835362434387],"type":"VEC3"},{"bufferView":44,"componentType":5126,"count":508,"type":"VEC2"},{"bufferView":45,"componentType":5123,"count":1830,"type":"SCALAR"},{"bufferView":46,"componentType":5126,"count":16,"type":"VEC3"},{"bufferView":47,"componentType":5126,"count":16,"max":[0.4457784593105316,3,0.5000000596046448],"min":[-0.5000000596046448,5.960464477539063e-08,-0.5000000596046448],"type":"VEC3"},{"bufferView":48,"componentType":5126,"count":16,"type":"VEC2"},{"bufferView":49,"componentType":5123,"count":24,"type":"SCALAR"},{"bufferView":50,"componentType":5126,"count":28,"type":"VEC3"},{"bufferView":51,"componentType":5126,"count":28,"max":[1.0000001192092896,0.13401801884174347,0.699999988079071],"min":[-1.0000001192092896,2.701569457030928e-08,0],"type":"VEC3"},{"bufferView":52,"componentType":5126,"count":28,"type":"VEC2"},{"bufferView":53,"componentType":5123,"count":48,"type":"SCALAR"},{"bufferView":54,"componentType":5126,"count":4,"type":"VEC3"},{"bufferView":55,"componentType":5126,"count":4,"max":[5.5,6,0.5],"min":[-5.5,6,-8.5],"type":"VEC3"},{"bufferView":56,"componentType":5126,"count":4,"type":"VEC2"},{"bufferView":57,"componentType":5123,"count":6,"type":"SCALAR"},{"bufferView":58,"componentType":5126,"count":124,"type":"VEC3"},{"bufferView":59,"componentType":5126,"count":124,"max":[1,3.1226887702941895,0.0924467146396637],"min":[-1.0000001192092896,0.6495776176452637,-0.3140353262424469],"type":"VEC3"},{"bufferView":60,"componentType":5126,"count":124,"type":"VEC2"},{"bufferView":61,"componentType":5123,"count":204,"type":"SCALAR"},{"bufferView":62,"componentType":5126,"count":69,"type":"VEC3"},{"bufferView":63,"componentType":5126,"count":69,"max":[1,3,1.3113417196564114e-07],"min":[-1,0,-0.2000000923871994],"type":"VEC3"},{"bufferView":64,"componentType":5126,"count":69,"type":"VEC2"},{"bufferView":65,"componentType":5123,"count":195,"type":"SCALAR"},{"bufferView":66,"componentType":5126,"count":8,"type":"VEC3"},{"bufferView":67,"componentType":5126,"count":8,"max":[1,0.9100615382194519,4.3711395392165286e-08],"min":[-1,0,0],"type":"VEC3"},{"bufferView":68,"componentType":5126,"count":8,"type":"VEC2"},{"bufferView":69,"componentType":5123,"count":12,"type":"SCALAR"},{"bufferView":70,"componentType":5126,"count":126,"type":"VEC3"},{"bufferView":71,"componentType":5126,"count":126,"max":[1,3.1226887702941895,0.0924467146396637],"min":[-1.0000001192092896,-0.0020958781242370605,-0.3140353262424469],"type":"VEC3"},{"bufferView":72,"componentType":5126,"count":126,"type":"VEC2"},{"bufferView":73,"componentType":5123,"count":240,"type":"SCALAR"},{"bufferView":74,"componentType":5126,"count":12,"type":"VEC3"},{"bufferView":75,"componentType":5126,"count":12,"max":[1,3,1.3113415775478643e-07],"min":[-1,0,-0.2000000923871994],"type":"VEC3"},{"bufferView":76,"componentType":5126,"count":12,"type":"VEC2"},{"bufferView":77,"componentType":5123,"count":18,"type":"SCALAR"},{"bufferView":78,"componentType":5126,"count":126,"type":"VEC3"},{"bufferView":79,"componentType":5126,"count":126,"max":[1,3.1226887702941895,0.0924467146396637],"min":[-1.0000001192092896,-0.0020958781242370605,-0.3140353262424469],"type":"VEC3"},{"bufferView":80,"componentType":5126,"count":126,"type":"VEC2"},{"bufferView":81,"componentType":5126,"count":12,"type":"VEC3"},{"bufferView":82,"componentType":5126,"count":12,"max":[1,3,1.3113415775478643e-07],"min":[-1,0,-0.2000000923871994],"type":"VEC3"},{"bufferView":83,"componentType":5126,"count":12,"type":"VEC2"},{"bufferView":84,"componentType":5126,"count":88,"type":"VEC3"},{"bufferView":85,"componentType":5126,"count":88,"max":[1,3,1.3113415775478643e-07],"min":[-1,0,-0.2000000923871994],"type":"VEC3"},{"bufferView":86,"componentType":5126,"count":88,"type":"VEC2"},{"bufferView":87,"componentType":5123,"count":264,"type":"SCALAR"},{"bufferView":88,"componentType":5126,"count":22,"type":"VEC3"},{"bufferView":89,"componentType":5126,"count":22,"max":[1,0.8799999952316284,4.371138828673793e-08],"min":[-1,0,0],"type":"VEC3"},{"bufferView":90,"componentType":5126,"count":22,"type":"VEC2"},{"bufferView":91,"componentType":5123,"count":60,"type":"SCALAR"},{"bufferView":92,"componentType":5126,"count":104,"type":"VEC3"},{"bufferView":93,"componentType":5126,"count":104,"max":[1,3.1226887702941895,0.0924467146396637],"min":[-1.0000001192092896,0.6495776176452637,-0.3140353262424469],"type":"VEC3"},{"bufferView":94,"componentType":5126,"count":104,"type":"VEC2"},{"bufferView":95,"componentType":5123,"count":174,"type":"SCALAR"},{"bufferView":96,"componentType":5126,"count":32,"type":"VEC3"},{"bufferView":97,"componentType":5126,"count":32,"max":[1,3,1.3113417196564114e-07],"min":[-1,0,-0.2000000923871994],"type":"VEC3"},{"bufferView":98,"componentType":5126,"count":32,"type":"VEC2"},{"bufferView":99,"componentType":5123,"count":96,"type":"SCALAR"},{"bufferView":100,"componentType":5126,"count":8,"type":"VEC3"},{"bufferView":101,"componentType":5126,"count":8,"max":[1,0.8799999952316284,4.371138828673793e-08],"min":[-1,0,0],"type":"VEC3"},{"bufferView":102,"componentType":5126,"count":8,"type":"VEC2"},{"bufferView":103,"componentType":5123,"count":18,"type":"SCALAR"},{"bufferView":104,"componentType":5126,"count":80,"type":"VEC3"},{"bufferView":105,"componentType":5126,"count":80,"max":[1,3.1226887702941895,0.0924467146396637],"min":[-1.0000001192092896,0.6495776176452637,-0.3140353262424469],"type":"VEC3"},{"bufferView":106,"componentType":5126,"count":80,"type":"VEC2"},{"bufferView":107,"componentType":5123,"count":174,"type":"SCALAR"},{"bufferView":108,"componentType":5126,"count":32,"type":"VEC3"},{"bufferView":109,"componentType":5126,"count":32,"max":[1,3,1.3113417196564114e-07],"min":[-1,0,-0.2000000923871994],"type":"VEC3"},{"bufferView":110,"componentType":5126,"count":32,"type":"VEC2"},{"bufferView":111,"componentType":5126,"count":8,"type":"VEC3"},{"bufferView":112,"componentType":5126,"count":8,"max":[1,0.8799999952316284,4.371138828673793e-08],"min":[-1,0,0],"type":"VEC3"},{"bufferView":113,"componentType":5126,"count":8,"type":"VEC2"},{"bufferView":114,"componentType":5126,"count":80,"type":"VEC3"},{"bufferView":115,"componentType":5126,"count":80,"max":[1,3.1226887702941895,0.0924467146396637],"min":[-1.0000001192092896,0.6495776176452637,-0.3140353262424469],"type":"VEC3"},{"bufferView":116,"componentType":5126,"count":80,"type":"VEC2"},{"bufferView":117,"componentType":5126,"count":80,"type":"VEC3"},{"bufferView":118,"componentType":5126,"count":80,"max":[1,3.1226887702941895,0.0924467146396637],"min":[-1.0000001192092896,0.6495776176452637,-0.3140353262424469],"type":"VEC3"},{"bufferView":119,"componentType":5126,"count":80,"type":"VEC2"},{"bufferView":120,"componentType":5123,"count":174,"type":"SCALAR"},{"bufferView":121,"componentType":5126,"count":60,"type":"VEC3"},{"bufferView":122,"componentType":5126,"count":60,"max":[1,3,1.3113417196564114e-07],"min":[-1,0,-0.2000000923871994],"type":"VEC3"},{"bufferView":123,"componentType":5126,"count":60,"type":"VEC2"},{"bufferView":124,"componentType":5123,"count":180,"type":"SCALAR"},{"bufferView":125,"componentType":5126,"count":8,"type":"VEC3"},{"bufferView":126,"componentType":5126,"count":8,"max":[1,0.8799999952316284,4.371138828673793e-08],"min":[-1,0,0],"type":"VEC3"},{"bufferView":127,"componentType":5126,"count":8,"type":"VEC2"},{"bufferView":128,"componentType":5126,"count":80,"type":"VEC3"},{"bufferView":129,"componentType":5126,"count":80,"max":[1,3.1226887702941895,0.0924467146396637],"min":[-1.0000001192092896,0.6495776176452637,-0.3140353262424469],"type":"VEC3"},{"bufferView":130,"componentType":5126,"count":80,"type":"VEC2"},{"bufferView":131,"componentType":5126,"count":60,"type":"VEC3"},{"bufferView":132,"componentType":5126,"count":60,"max":[1,3,1.3113417196564114e-07],"min":[-1,0,-0.2000000923871994],"type":"VEC3"},{"bufferView":133,"componentType":5126,"count":60,"type":"VEC2"},{"bufferView":134,"componentType":5126,"count":8,"type":"VEC3"},{"bufferView":135,"componentType":5126,"count":8,"max":[1,0.8799999952316284,4.371138828673793e-08],"min":[-1,0,0],"type":"VEC3"},{"bufferView":136,"componentType":5126,"count":8,"type":"VEC2"},{"bufferView":137,"componentType":5126,"count":402,"type":"VEC3"},{"bufferView":138,"componentType":5126,"count":402,"max":[0.44381028413772583,2.6207287311553955,0.0923665463924408],"min":[-0.44381028413772583,1.01604425907135,-0.2520223557949066],"type":"VEC3"},{"bufferView":139,"componentType":5126,"count":402,"type":"VEC2"},{"bufferView":140,"componentType":5123,"count":786,"type":"SCALAR"},{"bufferView":141,"componentType":5126,"count":83,"type":"VEC3"},{"bufferView":142,"componentType":5126,"count":83,"max":[0.277061402797699,2.478931427001953,0.003888234496116638],"min":[-0.27893951535224915,1.0875728130340576,0.0038879886269569397],"type":"VEC3"},{"bufferView":143,"componentType":5123,"count":153,"type":"SCALAR"},{"bufferView":144,"componentType":5126,"count":272,"type":"VEC3"},{"bufferView":145,"componentType":5126,"count":272,"max":[0.8041172027587891,2.5242888927459717,0.4168574810028076],"min":[-0.8041191101074219,0.94417804479599,-0.26658084988594055],"type":"VEC3"},{"bufferView":146,"componentType":5126,"count":272,"type":"VEC2"},{"bufferView":147,"componentType":5123,"count":408,"type":"SCALAR"},{"bufferView":148,"componentType":5126,"count":45,"type":"VEC3"},{"bufferView":149,"componentType":5126,"count":45,"max":[0.5054702758789062,2.355356216430664,0.003888234496116638],"min":[-0.5054721832275391,1.0971393585205078,0.0038878247141838074],"type":"VEC3"},{"bufferView":150,"componentType":5123,"count":72,"type":"SCALAR"},{"bufferView":151,"componentType":5126,"count":340,"type":"VEC3"},{"bufferView":152,"componentType":5126,"count":340,"max":[0.691490113735199,2.741780996322632,0.27729201316833496],"min":[-0.691490113735199,1.01604425907135,-0.2522830367088318],"type":"VEC3"},{"bufferView":153,"componentType":5126,"count":340,"type":"VEC2"},{"bufferView":154,"componentType":5123,"count":672,"type":"SCALAR"},{"bufferView":155,"componentType":5126,"count":63,"type":"VEC3"},{"bufferView":156,"componentType":5126,"count":63,"max":[0.5413169860839844,2.6192541122436523,0.0038883001543581486],"min":[-0.5445477962493896,1.0647618770599365,0.003887913655489683],"type":"VEC3"},{"bufferView":157,"componentType":5123,"count":123,"type":"SCALAR"},{"bufferView":158,"componentType":5126,"count":222,"type":"VEC3"},{"bufferView":159,"componentType":5126,"count":222,"max":[0.7867056131362915,2.6116669178009033,0.4355051815509796],"min":[-0.8195725083351135,1.0932440757751465,0.059017062187194824],"type":"VEC3"},{"bufferView":160,"componentType":5126,"count":222,"type":"VEC2"},{"bufferView":161,"componentType":5123,"count":336,"type":"SCALAR"},{"bufferView":162,"componentType":5126,"count":240,"type":"VEC3"},{"bufferView":163,"componentType":5126,"count":240,"max":[1.2418603897094727,2.51727557182312,0.5931743383407593],"min":[-1.2387090921401978,1.0932440757751465,0.13665564358234406],"type":"VEC3"},{"bufferView":164,"componentType":5126,"count":240,"type":"VEC2"},{"bufferView":165,"componentType":5123,"count":360,"type":"SCALAR"},{"bufferView":166,"componentType":5126,"count":272,"type":"VEC3"},{"bufferView":167,"componentType":5126,"count":272,"max":[1.1035263538360596,2.740431785583496,0.56315016746521],"min":[-1.199957251548767,1.0932440757751465,0.09079486131668091],"type":"VEC3"},{"bufferView":168,"componentType":5126,"count":272,"type":"VEC2"},{"bufferView":169,"componentType":5123,"count":408,"type":"SCALAR"}],"asset":{"generator":"Khronos glTF Blender I/O v5.2.40","version":"2.0"},"bufferViews":[{"buffer":0,"byteOffset":0,"byteLength":288,"target":34962},{"buffer":0,"byteOffset":288,"byteLength":288,"target":34962},{"buffer":0,"byteOffset":576,"byteLength":192,"target":34962},{"buffer":0,"byteOffset":768,"byteLength":72,"target":34963},{"buffer":0,"byteOffset":840,"byteLength":288,"target":34962},{"buffer":0,"byteOffset":1128,"byteLength":288,"target":34962},{"buffer":0,"byteOffset":1416,"byteLength":192,"target":34962},{"buffer":0,"byteOffset":1608,"byteLength":288,"target":34962},{"buffer":0,"byteOffset":1896,"byteLength":288,"target":34962},{"buffer":0,"byteOffset":2184,"byteLength":192,"target":34962},{"buffer":0,"byteOffset":2376,"byteLength":288,"target":34962},{"buffer":0,"byteOffset":2664,"byteLength":288,"target":34962},{"buffer":0,"byteOffset":2952,"byteLength":192,"target":34962},{"buffer":0,"byteOffset":3144,"byteLength":288,"target":34962},{"buffer":0,"byteOffset":3432,"byteLength":288,"target":34962},{"buffer":0,"byteOffset":3720,"byteLength":192,"target":34962},{"buffer":0,"byteOffset":3912,"byteLength":72,"target":34963},{"buffer":0,"byteOffset":3984,"byteLength":8928,"target":34962},{"buffer":0,"byteOffset":12912,"byteLength":8928,"target":34962},{"buffer":0,"byteOffset":21840,"byteLength":5952,"target":34962},{"buffer":0,"byteOffset":27792,"byteLength":2724,"target":34963},{"buffer":0,"byteOffset":30516,"byteLength":336,"target":34962},{"buffer":0,"byteOffset":30852,"byteLength":336,"target":34962},{"buffer":0,"byteOffset":31188,"byteLength":96,"target":34963},{"buffer":0,"byteOffset":31284,"byteLength":4368,"target":34962},{"buffer":0,"byteOffset":35652,"byteLength":4368,"target":34962},{"buffer":0,"byteOffset":40020,"byteLength":2912,"target":34962},{"buffer":0,"byteOffset":42932,"byteLength":1920,"target":34963},{"buffer":0,"byteOffset":44852,"byteLength":168,"target":34962},{"buffer":0,"byteOffset":45020,"byteLength":168,"target":34962},{"buffer":0,"byteOffset":45188,"byteLength":112,"target":34962},{"buffer":0,"byteOffset":45300,"byteLength":36,"target":34963},{"buffer":0,"byteOffset":45336,"byteLength":288,"target":34962},{"buffer":0,"byteOffset":45624,"byteLength":288,"target":34962},{"buffer":0,"byteOffset":45912,"byteLength":288,"target":34962},{"buffer":0,"byteOffset":46200,"byteLength":288,"target":34962},{"buffer":0,"byteOffset":46488,"byteLength":288,"target":34962},{"buffer":0,"byteOffset":46776,"byteLength":288,"target":34962},{"buffer":0,"byteOffset":47064,"byteLength":288,"target":34962},{"buffer":0,"byteOffset":47352,"byteLength":288,"target":34962},{"buffer":0,"byteOffset":47640,"byteLength":288,"target":34962},{"buffer":0,"byteOffset":47928,"byteLength":288,"target":34962},{"buffer":0,"byteOffset":48216,"byteLength":6096,"target":34962},{"buffer":0,"byteOffset":54312,"byteLength":6096,"target":34962},{"buffer":0,"byteOffset":60408,"byteLength":4064,"target":34962},{"buffer":0,"byteOffset":64472,"byteLength":3660,"target":34963},{"buffer":0,"byteOffset":68132,"byteLength":192,"target":34962},{"buffer":0,"byteOffset":68324,"byteLength":192,"target":34962},{"buffer":0,"byteOffset":68516,"byteLength":128,"target":34962},{"buffer":0,"byteOffset":68644,"byteLength":48,"target":34963},{"buffer":0,"byteOffset":68692,"byteLength":336,"target":34962},{"buffer":0,"byteOffset":69028,"byteLength":336,"target":34962},{"buffer":0,"byteOffset":69364,"byteLength":224,"target":34962},{"buffer":0,"byteOffset":69588,"byteLength":96,"target":34963},{"buffer":0,"byteOffset":69684,"byteLength":48,"target":34962},{"buffer":0,"byteOffset":69732,"byteLength":48,"target":34962},{"buffer":0,"byteOffset":69780,"byteLength":32,"target":34962},{"buffer":0,"byteOffset":69812,"byteLength":12,"target":34963},{"buffer":0,"byteOffset":69824,"byteLength":1488,"target":34962},{"buffer":0,"byteOffset":71312,"byteLength":1488,"target":34962},{"buffer":0,"byteOffset":72800,"byteLength":992,"target":34962},{"buffer":0,"byteOffset":73792,"byteLength":408,"target":34963},{"buffer":0,"byteOffset":74200,"byteLength":828,"target":34962},{"buffer":0,"byteOffset":75028,"byteLength":828,"target":34962},{"buffer":0,"byteOffset":75856,"byteLength":552,"target":34962},{"buffer":0,"byteOffset":76408,"byteLength":390,"target":34963},{"buffer":0,"byteOffset":76800,"byteLength":96,"target":34962},{"buffer":0,"byteOffset":76896,"byteLength":96,"target":34962},{"buffer":0,"byteOffset":76992,"byteLength":64,"target":34962},{"buffer":0,"byteOffset":77056,"byteLength":24,"target":34963},{"buffer":0,"byteOffset":77080,"byteLength":1512,"target":34962},{"buffer":0,"byteOffset":78592,"byteLength":1512,"target":34962},{"buffer":0,"byteOffset":80104,"byteLength":1008,"target":34962},{"buffer":0,"byteOffset":81112,"byteLength":480,"target":34963},{"buffer":0,"byteOffset":81592,"byteLength":144,"target":34962},{"buffer":0,"byteOffset":81736,"byteLength":144,"target":34962},{"buffer":0,"byteOffset":81880,"byteLength":96,"target":34962},{"buffer":0,"byteOffset":81976,"byteLength":36,"target":34963},{"buffer":0,"byteOffset":82012,"byteLength":1512,"target":34962},{"buffer":0,"byteOffset":83524,"byteLength":1512,"target":34962},{"buffer":0,"byteOffset":85036,"byteLength":1008,"target":34962},{"buffer":0,"byteOffset":86044,"byteLength":144,"target":34962},{"buffer":0,"byteOffset":86188,"byteLength":144,"target":34962},{"buffer":0,"byteOffset":86332,"byteLength":96,"target":34962},{"buffer":0,"byteOffset":86428,"byteLength":1056,"target":34962},{"buffer":0,"byteOffset":87484,"byteLength":1056,"target":34962},{"buffer":0,"byteOffset":88540,"byteLength":704,"target":34962},{"buffer":0,"byteOffset":89244,"byteLength":528,"target":34963},{"buffer":0,"byteOffset":89772,"byteLength":264,"target":34962},{"buffer":0,"byteOffset":90036,"byteLength":264,"target":34962},{"buffer":0,"byteOffset":90300,"byteLength":176,"target":34962},{"buffer":0,"byteOffset":90476,"byteLength":120,"target":34963},{"buffer":0,"byteOffset":90596,"byteLength":1248,"target":34962},{"buffer":0,"byteOffset":91844,"byteLength":1248,"target":34962},{"buffer":0,"byteOffset":93092,"byteLength":832,"target":34962},{"buffer":0,"byteOffset":93924,"byteLength":348,"target":34963},{"buffer":0,"byteOffset":94272,"byteLength":384,"target":34962},{"buffer":0,"byteOffset":94656,"byteLength":384,"target":34962},{"buffer":0,"byteOffset":95040,"byteLength":256,"target":34962},{"buffer":0,"byteOffset":95296,"byteLength":192,"target":34963},{"buffer":0,"byteOffset":95488,"byteLength":96,"target":34962},{"buffer":0,"byteOffset":95584,"byteLength":96,"target":34962},{"buffer":0,"byteOffset":95680,"byteLength":64,"target":34962},{"buffer":0,"byteOffset":95744,"byteLength":36,"target":34963},{"buffer":0,"byteOffset":95780,"byteLength":960,"target":34962},{"buffer":0,"byteOffset":96740,"byteLength":960,"target":34962},{"buffer":0,"byteOffset":97700,"byteLength":640,"target":34962},{"buffer":0,"byteOffset":98340,"byteLength":348,"target":34963},{"buffer":0,"byteOffset":98688,"byteLength":384,"target":34962},{"buffer":0,"byteOffset":99072,"byteLength":384,"target":34962},{"buffer":0,"byteOffset":99456,"byteLength":256,"target":34962},{"buffer":0,"byteOffset":99712,"byteLength":96,"target":34962},{"buffer":0,"byteOffset":99808,"byteLength":96,"target":34962},{"buffer":0,"byteOffset":99904,"byteLength":64,"target":34962},{"buffer":0,"byteOffset":99968,"byteLength":960,"target":34962},{"buffer":0,"byteOffset":100928,"byteLength":960,"target":34962},{"buffer":0,"byteOffset":101888,"byteLength":640,"target":34962},{"buffer":0,"byteOffset":102528,"byteLength":960,"target":34962},{"buffer":0,"byteOffset":103488,"byteLength":960,"target":34962},{"buffer":0,"byteOffset":104448,"byteLength":640,"target":34962},{"buffer":0,"byteOffset":105088,"byteLength":348,"target":34963},{"buffer":0,"byteOffset":105436,"byteLength":720,"target":34962},{"buffer":0,"byteOffset":106156,"byteLength":720,"target":34962},{"buffer":0,"byteOffset":106876,"byteLength":480,"target":34962},{"buffer":0,"byteOffset":107356,"byteLength":360,"target":34963},{"buffer":0,"byteOffset":107716,"byteLength":96,"target":34962},{"buffer":0,"byteOffset":107812,"byteLength":96,"target":34962},{"buffer":0,"byteOffset":107908,"byteLength":64,"target":34962},{"buffer":0,"byteOffset":107972,"byteLength":960,"target":34962},{"buffer":0,"byteOffset":108932,"byteLength":960,"target":34962},{"buffer":0,"byteOffset":109892,"byteLength":640,"target":34962},{"buffer":0,"byteOffset":110532,"byteLength":720,"target":34962},{"buffer":0,"byteOffset":111252,"byteLength":720,"target":34962},{"buffer":0,"byteOffset":111972,"byteLength":480,"target":34962},{"buffer":0,"byteOffset":112452,"byteLength":96,"target":34962},{"buffer":0,"byteOffset":112548,"byteLength":96,"target":34962},{"buffer":0,"byteOffset":112644,"byteLength":64,"target":34962},{"buffer":0,"byteOffset":112708,"byteLength":4824,"target":34962},{"buffer":0,"byteOffset":117532,"byteLength":4824,"target":34962},{"buffer":0,"byteOffset":122356,"byteLength":3216,"target":34962},{"buffer":0,"byteOffset":125572,"byteLength":1572,"target":34963},{"buffer":0,"byteOffset":127144,"byteLength":996,"target":34962},{"buffer":0,"byteOffset":128140,"byteLength":996,"target":34962},{"buffer":0,"byteOffset":129136,"byteLength":306,"target":34963},{"buffer":0,"byteOffset":129444,"byteLength":3264,"target":34962},{"buffer":0,"byteOffset":132708,"byteLength":3264,"target":34962},{"buffer":0,"byteOffset":135972,"byteLength":2176,"target":34962},{"buffer":0,"byteOffset":138148,"byteLength":816,"target":34963},{"buffer":0,"byteOffset":138964,"byteLength":540,"target":34962},{"buffer":0,"byteOffset":139504,"byteLength":540,"target":34962},{"buffer":0,"byteOffset":140044,"byteLength":144,"target":34963},{"buffer":0,"byteOffset":140188,"byteLength":4080,"target":34962},{"buffer":0,"byteOffset":144268,"byteLength":4080,"target":34962},{"buffer":0,"byteOffset":148348,"byteLength":2720,"target":34962},{"buffer":0,"byteOffset":151068,"byteLength":1344,"target":34963},{"buffer":0,"byteOffset":152412,"byteLength":756,"target":34962},{"buffer":0,"byteOffset":153168,"byteLength":756,"target":34962},{"buffer":0,"byteOffset":153924,"byteLength":246,"target":34963},{"buffer":0,"byteOffset":154172,"byteLength":2664,"target":34962},{"buffer":0,"byteOffset":156836,"byteLength":2664,"target":34962},{"buffer":0,"byteOffset":159500,"byteLength":1776,"target":34962},{"buffer":0,"byteOffset":161276,"byteLength":672,"target":34963},{"buffer":0,"byteOffset":161948,"byteLength":2880,"target":34962},{"buffer":0,"byteOffset":164828,"byteLength":2880,"target":34962},{"buffer":0,"byteOffset":167708,"byteLength":1920,"target":34962},{"buffer":0,"byteOffset":169628,"byteLength":720,"target":34963},{"buffer":0,"byteOffset":170348,"byteLength":3264,"target":34962},{"buffer":0,"byteOffset":173612,"byteLength":3264,"target":34962},{"buffer":0,"byteOffset":176876,"byteLength":2176,"target":34962},{"buffer":0,"byteOffset":179052,"byteLength":816,"target":34963}],"buffers":[{"byteLength":179868,"uri":"hip_house.bin"}],"images":[{"name":"T_Brick_BaseColor","uri":"../village/T_Brick_BaseColor.png"},{"name":"T_Plaster_Luma","uri":"../village/T_Plaster_Luma.png"},{"name":"T_RockTrim_BaseColor","uri":"../village/T_RockTrim_BaseColor.png"},{"name":"T_RoundTiles_Luma","uri":"../village/T_RoundTiles_Luma.png"},{"name":"T_WoodTrim_BaseColor","uri":"../village/T_WoodTrim_BaseColor.png"}],"materials":[{"doubleSided":true,"name":"Wood_dark","pbrMetallicRoughness":{"baseColorFactor":[0.2329,0.2659,0.2944,1.0],"baseColorTexture":{"index":4},"metallicFactor":0,"roughnessFactor":0.8500000238418579}},{"doubleSided":true,"name":"Glass","pbrMetallicRoughness":{"baseColorFactor":[0.03310476616024971,0.05087608844041824,0.07828831672668457,1],"metallicFactor":0,"roughnessFactor":0.20000000298023224}},{"doubleSided":true,"name":"Tiles_slate","pbrMetallicRoughness":{"baseColorFactor":[0.1477,0.1884,0.2641,1.0],"baseColorTexture":{"index":3},"metallicFactor":0,"roughnessFactor":0.699999988079071}},{"doubleSided":true,"name":"Iron","pbrMetallicRoughness":{"baseColorFactor":[0.0134117491543293,0.0134117491543293,0.015325203537940979,1],"metallicFactor":0,"roughnessFactor":0.5}},{"doubleSided":true,"emissiveFactor":[1,0.4479884207248688,0.10048151016235352],"name":"LampGlass","pbrMetallicRoughness":{"baseColorFactor":[1,0.5704815983772278,0.1473190039396286,1],"metallicFactor":0,"roughnessFactor":0.8500000238418579}},{"doubleSided":true,"name":"RockTrim","pbrMetallicRoughness":{"baseColorFactor":[1.0,0.9979,1.0,1.0],"baseColorTexture":{"index":2},"metallicFactor":0,"roughnessFactor":0.8500000238418579}},{"doubleSided":true,"name":"Brick","pbrMetallicRoughness":{"baseColorFactor":[1.0,0.9974,1.0,1.0],"baseColorTexture":{"index":0},"metallicFactor":0,"roughnessFactor":0.8500000238418579}},{"doubleSided":true,"name":"Plaster_sky","pbrMetallicRoughness":{"baseColorFactor":[0.6185,0.7699,0.8996,1.0],"baseColorTexture":{"index":1},"metallicFactor":0,"roughnessFactor":0.8500000238418579}}],"meshes":[{"name":"Beam","primitives":[{"attributes":{"NORMAL":0,"POSITION":1,"TEXCOORD_0":2},"indices":3,"material":0}]},{"name":"Beam.001","primitives":[{"attributes":{"NORMAL":4,"POSITION":5,"TEXCOORD_0":6},"indices":3,"material":0}]},{"name":"Beam.002","primitives":[{"attributes":{"NORMAL":7,"POSITION":8,"TEXCOORD_0":9},"indices":3,"material":0}]},{"name":"Beam.003","primitives":[{"attributes":{"NORMAL":10,"POSITION":11,"TEXCOORD_0":12},"indices":3,"material":0}]},{"name":"kit_Corner_Exterior_Wood","primitives":[{"attributes":{"NORMAL":13,"POSITION":14,"TEXCOORD_0":15},"indices":16,"material":0}]},{"name":"kit_Door_1_Round","primitives":[{"attributes":{"NORMAL":17,"POSITION":18,"TEXCOORD_0":19},"indices":20,"material":0},{"attributes":{"NORMAL":21,"POSITION":22},"indices":23,"material":1}]},{"name":"kit_DoorFrame_Round_WoodDark","primitives":[{"attributes":{"NORMAL":24,"POSITION":25,"TEXCOORD_0":26},"indices":27,"material":0}]},{"name":"HipRoof","primitives":[{"attributes":{"NORMAL":28,"POSITION":29,"TEXCOORD_0":30},"indices":31,"material":2}]},{"name":"LanternArm","primitives":[{"attributes":{"NORMAL":32,"POSITION":33},"indices":3,"material":3}]},{"name":"LanternBase","primitives":[{"attributes":{"NORMAL":34,"POSITION":35},"indices":3,"material":3}]},{"name":"LanternCap","primitives":[{"attributes":{"NORMAL":36,"POSITION":37},"indices":3,"material":3}]},{"name":"LanternGlass","primitives":[{"attributes":{"NORMAL":38,"POSITION":39},"indices":3,"material":4}]},{"name":"LanternHook","primitives":[{"attributes":{"NORMAL":40,"POSITION":41},"indices":3,"material":3}]},{"name":"kit_Prop_Chimney","primitives":[{"attributes":{"NORMAL":42,"POSITION":43,"TEXCOORD_0":44},"indices":45,"material":5},{"attributes":{"NORMAL":46,"POSITION":47,"TEXCOORD_0":48},"indices":49,"material":6}]},{"name":"kit_Prop_ExteriorBorder_Straight1","primitives":[{"attributes":{"NORMAL":50,"POSITION":51,"TEXCOORD_0":52},"indices":53,"material":5}]},{"name":"Soffit","primitives":[{"attributes":{"NORMAL":54,"POSITION":55,"TEXCOORD_0":56},"indices":57,"material":0}]},{"name":"kit_Wall_Plaster_Door_Round","primitives":[{"attributes":{"NORMAL":58,"POSITION":59,"TEXCOORD_0":60},"indices":61,"material":0},{"attributes":{"NORMAL":62,"POSITION":63,"TEXCOORD_0":64},"indices":65,"material":7},{"attributes":{"NORMAL":66,"POSITION":67,"TEXCOORD_0":68},"indices":69,"material":5}]},{"name":"kit_Wall_Plaster_Straight.001","primitives":[{"attributes":{"NORMAL":70,"POSITION":71,"TEXCOORD_0":72},"indices":73,"material":0},{"attributes":{"NORMAL":74,"POSITION":75,"TEXCOORD_0":76},"indices":77,"material":7}]},{"name":"kit_Wall_Plaster_Straight","primitives":[{"attributes":{"NORMAL":78,"POSITION":79,"TEXCOORD_0":80},"indices":73,"material":0},{"attributes":{"NORMAL":81,"POSITION":82,"TEXCOORD_0":83},"indices":77,"material":7}]},{"name":"kit_Wall_Plaster_Window_Thin_Round.001","primitives":[{"attributes":{"NORMAL":84,"POSITION":85,"TEXCOORD_0":86},"indices":87,"material":7},{"attributes":{"NORMAL":88,"POSITION":89,"TEXCOORD_0":90},"indices":91,"material":7},{"attributes":{"NORMAL":92,"POSITION":93,"TEXCOORD_0":94},"indices":95,"material":0}]},{"name":"kit_Wall_Plaster_Window_Wide_Flat.001","primitives":[{"attributes":{"NORMAL":96,"POSITION":97,"TEXCOORD_0":98},"indices":99,"material":7},{"attributes":{"NORMAL":100,"POSITION":101,"TEXCOORD_0":102},"indices":103,"material":7},{"attributes":{"NORMAL":104,"POSITION":105,"TEXCOORD_0":106},"indices":107,"material":0}]},{"name":"kit_Wall_Plaster_Window_Wide_Flat","primitives":[{"attributes":{"NORMAL":108,"POSITION":109,"TEXCOORD_0":110},"indices":99,"material":7},{"attributes":{"NORMAL":111,"POSITION":112,"TEXCOORD_0":113},"indices":103,"material":6},{"attributes":{"NORMAL":114,"POSITION":115,"TEXCOORD_0":116},"indices":107,"material":0}]},{"name":"kit_Wall_Plaster_Window_Wide_Round.001","primitives":[{"attributes":{"NORMAL":117,"POSITION":118,"TEXCOORD_0":119},"indices":120,"material":0},{"attributes":{"NORMAL":121,"POSITION":122,"TEXCOORD_0":123},"indices":124,"material":7},{"attributes":{"NORMAL":125,"POSITION":126,"TEXCOORD_0":127},"indices":103,"material":7}]},{"name":"kit_Wall_Plaster_Window_Wide_Round","primitives":[{"attributes":{"NORMAL":128,"POSITION":129,"TEXCOORD_0":130},"indices":120,"material":0},{"attributes":{"NORMAL":131,"POSITION":132,"TEXCOORD_0":133},"indices":124,"material":7},{"attributes":{"NORMAL":134,"POSITION":135,"TEXCOORD_0":136},"indices":103,"material":6}]},{"name":"kit_Window_Thin_Round1.001","primitives":[{"attributes":{"NORMAL":137,"POSITION":138,"TEXCOORD_0":139},"indices":140,"material":0},{"attributes":{"NORMAL":141,"POSITION":142},"indices":143,"material":1}]},{"name":"kit_Window_Wide_Flat1","primitives":[{"attributes":{"NORMAL":144,"POSITION":145,"TEXCOORD_0":146},"indices":147,"material":0},{"attributes":{"NORMAL":148,"POSITION":149},"indices":150,"material":1}]},{"name":"kit_Window_Wide_Round1.001","primitives":[{"attributes":{"NORMAL":151,"POSITION":152,"TEXCOORD_0":153},"indices":154,"material":0},{"attributes":{"NORMAL":155,"POSITION":156},"indices":157,"material":1}]},{"name":"kit_WindowShutters_Thin_Round_Open","primitives":[{"attributes":{"NORMAL":158,"POSITION":159,"TEXCOORD_0":160},"indices":161,"material":0}]},{"name":"kit_WindowShutters_Wide_Flat_Open","primitives":[{"attributes":{"NORMAL":162,"POSITION":163,"TEXCOORD_0":164},"indices":165,"material":0}]},{"name":"kit_WindowShutters_Wide_Round_Open","primitives":[{"attributes":{"NORMAL":166,"POSITION":167,"TEXCOORD_0":168},"indices":169,"material":0}]}],"nodes":[{"mesh":0,"name":"Beam.079"},{"mesh":1,"name":"Beam.080"},{"mesh":2,"name":"Beam.081"},{"mesh":3,"name":"Beam.082"},{"mesh":4,"name":"Corner_Exterior_Wood.035","translation":[-5,0,0]},{"mesh":4,"name":"Corner_Exterior_Wood.036","translation":[5,0,0]},{"mesh":4,"name":"Corner_Exterior_Wood.037","translation":[-5,0,-8]},{"mesh":4,"name":"Corner_Exterior_Wood.038","translation":[5,0,-8]},{"mesh":4,"name":"Corner_Exterior_Wood.073","translation":[-5,3,0]},{"mesh":4,"name":"Corner_Exterior_Wood.074","translation":[5,3,0]},{"mesh":4,"name":"Corner_Exterior_Wood.075","translation":[-5,3,-8]},{"mesh":4,"name":"Corner_Exterior_Wood.076","translation":[5,3,-8]},{"mesh":5,"name":"Door_1_Round.009","translation":[-0.550000011920929,0,-0.019999999552965164]},{"mesh":6,"name":"DoorFrame_Round_WoodDark.008"},{"mesh":7,"name":"HipRoof.077"},{"mesh":8,"name":"LanternArm.084"},{"mesh":9,"name":"LanternBase.088"},{"mesh":10,"name":"LanternCap.086"},{"mesh":11,"name":"LanternGlass.087"},{"mesh":12,"name":"LanternHook.085"},{"mesh":13,"name":"Prop_Chimney.083","translation":[-2.5999999046325684,6.0666680335998535,-5.199999809265137]},{"mesh":14,"name":"Prop_ExteriorBorder_Straight1.089","translation":[-4,0,0.05000000074505806]},{"mesh":14,"name":"Prop_ExteriorBorder_Straight1.090","translation":[-2,0,0.05000000074505806]},{"mesh":14,"name":"Prop_ExteriorBorder_Straight1.091","translation":[0,0,0.05000000074505806]},{"mesh":14,"name":"Prop_ExteriorBorder_Straight1.092","translation":[2,0,0.05000000074505806]},{"mesh":14,"name":"Prop_ExteriorBorder_Straight1.093","translation":[4,0,0.05000000074505806]},{"mesh":15,"name":"Soffit.078"},{"mesh":16,"name":"Wall_Plaster_Door_Round.007"},{"mesh":17,"name":"Wall_Plaster_Straight+upper.054","rotation":[0,-1,0,4.371138828673793e-08],"translation":[4,3,-8]},{"mesh":17,"name":"Wall_Plaster_Straight+upper.057","rotation":[0,-1,0,4.371138828673793e-08],"translation":[0,3,-8]},{"mesh":17,"name":"Wall_Plaster_Straight+upper.060","rotation":[0,-1,0,4.371138828673793e-08],"translation":[-4,3,-8]},{"mesh":17,"name":"Wall_Plaster_Straight+upper.061","rotation":[0,-0.7071068286895752,0,0.7071068286895752],"translation":[-5,3,-7]},{"mesh":17,"name":"Wall_Plaster_Straight+upper.065","rotation":[0,-0.7071068286895752,0,0.7071068286895752],"translation":[-5,3,-3]},{"mesh":17,"name":"Wall_Plaster_Straight+upper.066","rotation":[0,-0.7071068286895752,0,0.7071068286895752],"translation":[-5,3,-1]},{"mesh":17,"name":"Wall_Plaster_Straight+upper.067","rotation":[0,0.7071068286895752,0,0.7071068286895752],"translation":[5,3,-1]},{"mesh":17,"name":"Wall_Plaster_Straight+upper.068","rotation":[0,0.7071068286895752,0,0.7071068286895752],"translation":[5,3,-3]},{"mesh":17,"name":"Wall_Plaster_Straight+upper.072","rotation":[0,0.7071068286895752,0,0.7071068286895752],"translation":[5,3,-7]},{"mesh":18,"name":"Wall_Plaster_Straight.016","rotation":[0,-1,0,4.371138828673793e-08],"translation":[4,0,-8]},{"mesh":18,"name":"Wall_Plaster_Straight.019","rotation":[0,-1,0,4.371138828673793e-08],"translation":[0,0,-8]},{"mesh":18,"name":"Wall_Plaster_Straight.022","rotation":[0,-1,0,4.371138828673793e-08],"translation":[-4,0,-8]},{"mesh":18,"name":"Wall_Plaster_Straight.023","rotation":[0,-0.7071068286895752,0,0.7071068286895752],"translation":[-5,0,-7]},{"mesh":18,"name":"Wall_Plaster_Straight.027","rotation":[0,-0.7071068286895752,0,0.7071068286895752],"translation":[-5,0,-3]},{"mesh":18,"name":"Wall_Plaster_Straight.028","rotation":[0,-0.7071068286895752,0,0.7071068286895752],"translation":[-5,0,-1]},{"mesh":18,"name":"Wall_Plaster_Straight.029","rotation":[0,0.7071068286895752,0,0.7071068286895752],"translation":[5,0,-1]},{"mesh":18,"name":"Wall_Plaster_Straight.030","rotation":[0,0.7071068286895752,0,0.7071068286895752],"translation":[5,0,-3]},{"mesh":18,"name":"Wall_Plaster_Straight.034","rotation":[0,0.7071068286895752,0,0.7071068286895752],"translation":[5,0,-7]},{"mesh":19,"name":"Wall_Plaster_Window_Thin_Round+upper.039","translation":[-4,3,0]},{"mesh":19,"name":"Wall_Plaster_Window_Thin_Round+upper.051","translation":[4,3,0]},{"mesh":20,"name":"Wall_Plaster_Window_Wide_Flat+upper.055","rotation":[0,-1,0,4.371138828673793e-08],"translation":[2,3,-8]},{"mesh":20,"name":"Wall_Plaster_Window_Wide_Flat+upper.058","rotation":[0,-1,0,4.371138828673793e-08],"translation":[-2,3,-8]},{"mesh":21,"name":"Wall_Plaster_Window_Wide_Flat.001","translation":[-4,0,0]},{"mesh":21,"name":"Wall_Plaster_Window_Wide_Flat.013","translation":[4,0,0]},{"mesh":21,"name":"Wall_Plaster_Window_Wide_Flat.017","rotation":[0,-1,0,4.371138828673793e-08],"translation":[2,0,-8]},{"mesh":21,"name":"Wall_Plaster_Window_Wide_Flat.020","rotation":[0,-1,0,4.371138828673793e-08],"translation":[-2,0,-8]},{"mesh":21,"name":"Wall_Plaster_Window_Wide_Flat.024","rotation":[0,-0.7071068286895752,0,0.7071068286895752],"translation":[-5,0,-5]},{"mesh":21,"name":"Wall_Plaster_Window_Wide_Flat.031","rotation":[0,0.7071068286895752,0,0.7071068286895752],"translation":[5,0,-5]},{"mesh":22,"name":"Wall_Plaster_Window_Wide_Round+upper.042","translation":[-2,3,0]},{"mesh":22,"name":"Wall_Plaster_Window_Wide_Round+upper.045","translation":[0,3,0]},{"mesh":22,"name":"Wall_Plaster_Window_Wide_Round+upper.048","translation":[2,3,0]},{"mesh":22,"name":"Wall_Plaster_Window_Wide_Round+upper.062","rotation":[0,-0.7071068286895752,0,0.7071068286895752],"translation":[-5,3,-5]},{"mesh":22,"name":"Wall_Plaster_Window_Wide_Round+upper.069","rotation":[0,0.7071068286895752,0,0.7071068286895752],"translation":[5,3,-5]},{"mesh":23,"name":"Wall_Plaster_Window_Wide_Round.004","translation":[-2,0,0]},{"mesh":23,"name":"Wall_Plaster_Window_Wide_Round.010","translation":[2,0,0]},{"mesh":24,"name":"Window_Thin_Round1.040","translation":[-4,3,0]},{"mesh":24,"name":"Window_Thin_Round1.052","translation":[4,3,0]},{"mesh":25,"name":"Window_Wide_Flat1.002","translation":[-4,0,0]},{"mesh":25,"name":"Window_Wide_Flat1.014","translation":[4,0,0]},{"mesh":25,"name":"Window_Wide_Flat1.018","rotation":[0,-1,0,4.371138828673793e-08],"translation":[2,0,-8]},{"mesh":25,"name":"Window_Wide_Flat1.021","rotation":[0,-1,0,4.371138828673793e-08],"translation":[-2,0,-8]},{"mesh":25,"name":"Window_Wide_Flat1.025","rotation":[0,-0.7071068286895752,0,0.7071068286895752],"translation":[-5,0,-5]},{"mesh":25,"name":"Window_Wide_Flat1.032","rotation":[0,0.7071068286895752,0,0.7071068286895752],"translation":[5,0,-5]},{"mesh":25,"name":"Window_Wide_Flat1.056","rotation":[0,-1,0,4.371138828673793e-08],"translation":[2,3,-8]},{"mesh":25,"name":"Window_Wide_Flat1.059","rotation":[0,-1,0,4.371138828673793e-08],"translation":[-2,3,-8]},{"mesh":26,"name":"Window_Wide_Round1.005","translation":[-2,0,0]},{"mesh":26,"name":"Window_Wide_Round1.011","translation":[2,0,0]},{"mesh":26,"name":"Window_Wide_Round1.043","translation":[-2,3,0]},{"mesh":26,"name":"Window_Wide_Round1.046","translation":[0,3,0]},{"mesh":26,"name":"Window_Wide_Round1.049","translation":[2,3,0]},{"mesh":26,"name":"Window_Wide_Round1.063","rotation":[0,-0.7071068286895752,0,0.7071068286895752],"translation":[-5,3,-5]},{"mesh":26,"name":"Window_Wide_Round1.070","rotation":[0,0.7071068286895752,0,0.7071068286895752],"translation":[5,3,-5]},{"mesh":27,"name":"WindowShutters_Thin_Round_Open.041","translation":[-4,3,0]},{"mesh":27,"name":"WindowShutters_Thin_Round_Open.053","translation":[4,3,0]},{"mesh":28,"name":"WindowShutters_Wide_Flat_Open.003","translation":[-4,0,0]},{"mesh":28,"name":"WindowShutters_Wide_Flat_Open.015","translation":[4,0,0]},{"mesh":28,"name":"WindowShutters_Wide_Flat_Open.026","rotation":[0,-0.7071068286895752,0,0.7071068286895752],"translation":[-5,0,-5]},{"mesh":28,"name":"WindowShutters_Wide_Flat_Open.033","rotation":[0,0.7071068286895752,0,0.7071068286895752],"translation":[5,0,-5]},{"mesh":29,"name":"WindowShutters_Wide_Round_Open.006","translation":[-2,0,0]},{"mesh":29,"name":"WindowShutters_Wide_Round_Open.012","translation":[2,0,0]},{"mesh":29,"name":"WindowShutters_Wide_Round_Open.044","translation":[-2,3,0]},{"mesh":29,"name":"WindowShutters_Wide_Round_Open.047","translation":[0,3,0]},{"mesh":29,"name":"WindowShutters_Wide_Round_Open.050","translation":[2,3,0]},{"mesh":29,"name":"WindowShutters_Wide_Round_Open.064","rotation":[0,-0.7071068286895752,0,0.7071068286895752],"translation":[-5,3,-5]},{"mesh":29,"name":"WindowShutters_Wide_Round_Open.071","rotation":[0,0.7071068286895752,0,0.7071068286895752],"translation":[5,3,-5]}],"scene":0,"scenes":[{"name":"Scene","nodes":[0,1,2,3,4,5,6,7,8,9,10,11,12,13,14,15,16,17,18,19,20,21,22,23,24,25,26,27,28,29,30,31,32,33,34,35,36,37,38,39,40,41,42,43,44,45,46,47,48,49,50,51,52,53,54,55,56,57,58,59,60,61,62,63,64,65,66,67,68,69,70,71,72,73,74,75,76,77,78,79,80,81,82,83,84,85,86,87,88,89,90,91,92]}],"textures":[{"source":0},{"source":1},{"source":2},{"source":3},{"source":4}]}