{"accessors":[{"bufferView":0,"componentType":5126,"count":24,"max":[0.10508709400892258,2.999999761581421,0.11982007324695587],"min":[-0.10508733242750168,-1.5052728485898115e-07,-0.11982005089521408],"type":"VEC3"},{"bufferView":1,"componentType":5126,"count":24,"type":"VEC3"},{"bufferView":2,"componentType":5126,"count":24,"type":"VEC2"},{"bufferView":3,"componentType":5123,"count":36,"type":"SCALAR"},{"bufferView":4,"componentType":5126,"count":744,"max":[1.0737497806549072,2.3513262271881104,0.06314271688461304],"min":[-0.04626310616731644,0.033089637756347656,-0.05755755677819252],"type":"VEC3"},{"bufferView":5,"componentType":5126,"count":744,"type":"VEC3"},{"bufferView":6,"componentType":5126,"count":744,"type":"VEC2"},{"bufferView":7,"componentType":5123,"count":1362,"type":"SCALAR"},{"bufferView":8,"componentType":5126,"count":28,"max":[0.8667700886726379,1.7624019384384155,0.0312458835542202],"min":[0.1617247760295868,1.3117259740829468,0.031245503574609756],"type":"VEC3"},{"bufferView":9,"componentType":5126,"count":28,"type":"VEC3"},{"bufferView":10,"componentType":5126,"count":28,"type":"VEC2"},{"bufferView":11,"componentType":5123,"count":48,"type":"SCALAR"},{"bufferView":12,"componentType":5126,"count":364,"max":[0.7034913897514343,2.5548486709594727,0.29893577098846436],"min":[-0.7034929394721985,-0.008544921875,-0.24002820253372192],"type":"VEC3"},{"bufferView":13,"componentType":5126,"count":364,"type":"VEC3"},{"bufferView":14,"componentType":5126,"count":364,"type":"VEC2"},{"bufferView":15,"componentType":5123,"count":960,"type":"SCALAR"},{"bufferView":16,"componentType":5126,"count":508,"max":[0.4383014738559723,3.177875280380249,0.47339576482772827],"min":[-0.4516017735004425,2.8398513793945312,-0.43134835362434387],"type":"VEC3"},{"bufferView":17,"componentType":5126,"count":508,"type":"VEC3"},{"bufferView":18,"componentType":5126,"count":508,"type":"VEC2"},{"bufferView":19,"componentType":5123,"count":1830,"type":"SCALAR"},{"bufferView":20,"componentType":5126,"count":16,"max":[0.4457784593105316,3,0.5000000596046448],"min":[-0.5000000596046448,5.960464477539063e-08,-0.5000000596046448],"type":"VEC3"},{"bufferView":21,"componentType":5126,"count":16,"type":"VEC3"},{"bufferView":22,"componentType":5126,"count":16,"type":"VEC2"},{"bufferView":23,"componentType":5123,"count":24,"type":"SCALAR"},{"bufferView":24,"componentType":5126,"count":352,"max":[2.215996026992798,2.6399998664855957,0.7941397428512573],"min":[-2.183807373046875,-0.13180206716060638,-0.33496367931365967],"type":"VEC3"},{"bufferView":25,"componentType":5126,"count":352,"type":"VEC3"},{"bufferView":26,"componentType":5126,"count":352,"type":"VEC2"},{"bufferView":27,"componentType":5123,"count":720,"type":"SCALAR"},{"bufferView":28,"componentType":5126,"count":16,"max":[2.188183546066284,2.9367027282714844,9.464429240324534e-12],"min":[-2.1137986183166504,0.019167041406035423,-0.2497011125087738],"type":"VEC3"},{"bufferView":29,"componentType":5126,"count":16,"type":"VEC3"},{"bufferView":30,"componentType":5126,"count":16,"type":"VEC2"},{"bufferView":31,"componentType":5123,"count":36,"type":"SCALAR"},{"bufferView":32,"componentType":5126,"count":504,"max":[3.347877264022827,4.383981704711914,0.7941403388977051],"min":[-3.346518039703369,-0.13180209696292877,-0.33496367931365967],"type":"VEC3"},{"bufferView":33,"componentType":5126,"count":504,"type":"VEC3"},{"bufferView":34,"componentType":5126,"count":504,"type":"VEC2"},{"bufferView":35,"componentType":5123,"count":936,"type":"SCALAR"},{"bufferView":36,"componentType":5126,"count":20,"max":[3.1225504875183105,4.377229690551758,1.375610736431554e-11],"min":[-3.1225504875183105,0.019167041406035423,-0.24970144033432007],"type":"VEC3"},{"bufferView":37,"componentType":5126,"count":20,"type":"VEC3"},{"bufferView":38,"componentType":5126,"count":20,"type":"VEC2"},{"bufferView":39,"componentType":5123,"count":48,"type":"SCALAR"},{"bufferView":40,"componentType":5126,"count":1012,"max":[2.5676212310791016,3.200705051422119,3.7862460613250732],"min":[-2.5676212310791016,-0.5157185792922974,-3.786034345626831],"type":"VEC3"},{"bufferView":41,"componentType":5126,"count":1012,"type":"VEC3"},{"bufferView":42,"componentType":5126,"count":1012,"type":"VEC2"},{"bufferView":43,"componentType":5123,"count":1644,"type":"SCALAR"},{"bufferView":44,"componentType":5126,"count":1142,"max":[2.756538152694702,3.742516040802002,3.757296562194824],"min":[-2.756538152694702,-0.3878333568572998,-3.726191759109497],"type":"VEC3"},{"bufferView":45,"componentType":5126,"count":1142,"type":"VEC3"},{"bufferView":46,"componentType":5126,"count":1142,"type":"VEC2"},{"bufferView":47,"componentType":5123,"count":2892,"type":"SCALAR"},{"bufferView":48,"componentType":5126,"count":1616,"max":[3.958951234817505,4.342607498168945,4.828753471374512],"min":[-3.958951234817505,-0.7821269035339355,-4.828753471374512],"type":"VEC3"},{"bufferView":49,"componentType":5126,"count":1616,"type":"VEC3"},{"bufferView":50,"componentType":5126,"count":1616,"type":"VEC2"},{"bufferView":51,"componentType":5123,"count":2616,"type":"SCALAR"},{"bufferView":52,"componentType":5126,"count":1540,"max":[4.124891757965088,4.890044689178467,4.8539862632751465],"min":[-4.124891757965088,-0.6384454965591431,-4.756110191345215],"type":"VEC3"},{"bufferView":53,"componentType":5126,"count":1540,"type":"VEC3"},{"bufferView":54,"componentType":5126,"count":1540,"type":"VEC2"},{"bufferView":55,"componentType":5123,"count":4215,"type":"SCALAR"},{"bufferView":56,"componentType":5126,"count":124,"max":[1,3.1226887702941895,0.0924467146396637],"min":[-1.0000001192092896,0.6495776176452637,-0.3140353262424469],"type":"VEC3"},{"bufferView":57,"componentType":5126,"count":124,"type":"VEC3"},{"bufferView":58,"componentType":5126,"count":124,"type":"VEC2"},{"bufferView":59,"componentType":5123,"count":204,"type":"SCALAR"},{"bufferView":60,"componentType":5126,"count":69,"max":[1,3,1.3113417196564114e-07],"min":[-1,0,-0.2000000923871994],"type":"VEC3"},{"bufferView":61,"componentType":5126,"count":69,"type":"VEC3"},{"bufferView":62,"componentType":5126,"count":69,"type":"VEC2"},{"bufferView":63,"componentType":5123,"count":195,"type":"SCALAR"},{"bufferView":64,"componentType":5126,"count":8,"max":[1,0.9100615382194519,4.3711395392165286e-08],"min":[-1,0,0],"type":"VEC3"},{"bufferView":65,"componentType":5126,"count":8,"type":"VEC3"},{"bufferView":66,"componentType":5126,"count":8,"type":"VEC2"},{"bufferView":67,"componentType":5123,"count":12,"type":"SCALAR"},{"bufferView":68,"componentType":5126,"count":126,"max":[1,3.1226887702941895,0.0924467146396637],"min":[-1.0000001192092896,-0.0020958781242370605,-0.3140353262424469],"type":"VEC3"},{"bufferView":69,"componentType":5126,"count":126,"type":"VEC3"},{"bufferView":70,"componentType":5126,"count":126,"type":"VEC2"},{"bufferView":71,"componentType":5123,"count":240,"type":"SCALAR"},{"bufferView":72,"componentType":5126,"count":12,"max":[1,3,1.3113415775478643e-07],"min":[-1,0,-0.2000000923871994],"type":"VEC3"},{"bufferView":73,"componentType":5126,"count":12,"type":"VEC3"},{"bufferView":74,"componentType":5126,"count":12,"type":"VEC2"},{"bufferView":75,"componentType":5123,"count":18,"type":"SCALAR"},{"bufferView":76,"componentType":5126,"count":80,"max":[1,3.1226887702941895,0.0924467146396637],"min":[-1.0000001192092896,0.6495776176452637,-0.3140353262424469],"type":"VEC3"},{"bufferView":77,"componentType":5126,"count":80,"type":"VEC3"},{"bufferView":78,"componentType":5126,"count":80,"type":"VEC2"},{"bufferView":79,"componentType":5123,"count":174,"type":"SCALAR"},{"bufferView":80,"componentType":5126,"count":8,"max":[1,3,1.3113415775478643e-07],"min":[-1,0,-0.2000000923871994],"type":"VEC3"},{"bufferView":81,"componentType":5126,"count":8,"type":"VEC3"},{"bufferView":82,"componentType":5126,"count":8,"type":"VEC2"},{"bufferView":83,"componentType":5123,"count":12,"type":"SCALAR"},{"bufferView":84,"componentType":5126,"count":4,"max":[1,0.8799999952316284,4.371138828673793e-08],"min":[-1,0,0],"type":"VEC3"},{"bufferView":85,"componentType":5126,"count":4,"type":"VEC3"},{"bufferView":86,"componentType":5126,"count":4,"type":"VEC2"},{"bufferView":87,"componentType":5123,"count":6,"type":"SCALAR"},{"bufferView":88,"componentType":5126,"count":88,"max":[1,3,1.3113415775478643e-07],"min":[-1,0,-0.2000000923871994],"type":"VEC3"},{"bufferView":89,"componentType":5126,"count":88,"type":"VEC3"},{"bufferView":90,"componentType":5126,"count":88,"type":"VEC2"},{"bufferView":91,"componentType":5123,"count":264,"type":"SCALAR"},{"bufferView":92,"componentType":5126,"count":22,"max":[1,0.8799999952316284,4.371138828673793e-08],"min":[-1,0,0],"type":"VEC3"},{"bufferView":93,"componentType":5126,"count":22,"type":"VEC3"},{"bufferView":94,"componentType":5126,"count":22,"type":"VEC2"},{"bufferView":95,"componentType":5123,"count":60,"type":"SCALAR"},{"bufferView":96,"componentType":5126,"count":104,"max":[1,3.1226887702941895,0.0924467146396637],"min":[-1.0000001192092896,0.6495776176452637,-0.3140353262424469],"type":"VEC3"},{"bufferView":97,"componentType":5126,"count":104,"type":"VEC3"},{"bufferView":98,"componentType":5126,"count":104,"type":"VEC2"},{"bufferView":99,"componentType":5123,"count":174,"type":"SCALAR"},{"bufferView":100,"componentType":5126,"count":134,"max":[1,3.1226887702941895,0.0924467146396637],"min":[-1.0000001192092896,-0.023045778274536133,-0.3140353262424469],"type":"VEC3"},{"bufferView":101,"componentType":5126,"count":134,"type":"VEC3"},{"bufferView":102,"componentType":5126,"count":134,"type":"VEC2"},{"bufferView":103,"componentType":5123,"count":252,"type":"SCALAR"},{"bufferView":104,"componentType":5126,"count":40,"max":[1,3,1.3113415775478643e-07],"min":[-1,0,-0.2000000923871994],"type":"VEC3"},{"bufferView":105,"componentType":5126,"count":40,"type":"VEC3"},{"bufferView":106,"componentType":5126,"count":40,"type":"VEC2"},{"bufferView":107,"componentType":5123,"count":114,"type":"SCALAR"},{"bufferView":108,"componentType":5126,"count":32,"max":[1,3,1.3113417196564114e-07],"min":[-1,0,-0.2000000923871994],"type":"VEC3"},{"bufferView":109,"componentType":5126,"count":32,"type":"VEC3"},{"bufferView":110,"componentType":5126,"count":32,"type":"VEC2"},{"bufferView":111,"componentType":5123,"count":96,"type":"SCALAR"},{"bufferView":112,"componentType":5126,"count":8,"max":[1,0.8799999952316284,4.371138828673793e-08],"min":[-1,0,0],"type":"VEC3"},{"bufferView":113,"componentType":5126,"count":8,"type":"VEC3"},{"bufferView":114,"componentType":5126,"count":8,"type":"VEC2"},{"bufferView":115,"componentType":5123,"count":18,"type":"SCALAR"},{"bufferView":116,"componentType":5126,"count":80,"max":[1,3.1226887702941895,0.0924467146396637],"min":[-1.0000001192092896,0.6495776176452637,-0.3140353262424469],"type":"VEC3"},{"bufferView":117,"componentType":5126,"count":80,"type":"VEC3"},{"bufferView":118,"componentType":5126,"count":80,"type":"VEC2"},{"bufferView":119,"componentType":5126,"count":32,"max":[1,3,1.3113417196564114e-07],"min":[-1,0,-0.2000000923871994],"type":"VEC3"},{"bufferView":120,"componentType":5126,"count":32,"type":"VEC3"},{"bufferView":121,"componentType":5126,"count":32,"type":"VEC2"},{"bufferView":122,"componentType":5126,"count":8,"max":[1,0.8799999952316284,4.371138828673793e-08],"min":[-1,0,0],"type":"VEC3"},{"bufferView":123,"componentType":5126,"count":8,"type":"VEC3"},{"bufferView":124,"componentType":5126,"count":8,"type":"VEC2"},{"bufferView":125,"componentType":5126,"count":80,"max":[1,3.1226887702941895,0.0924467146396637],"min":[-1.0000001192092896,0.6495776176452637,-0.3140353262424469],"type":"VEC3"},{"bufferView":126,"componentType":5126,"count":80,"type":"VEC3"},{"bufferView":127,"componentType":5126,"count":80,"type":"VEC2"},{"bufferView":128,"componentType":5126,"count":80,"max":[1,3.1226887702941895,0.0924467146396637],"min":[-1.0000001192092896,0.6495776176452637,-0.3140353262424469],"type":"VEC3"},{"bufferView":129,"componentType":5126,"count":80,"type":"VEC3"},{"bufferView":130,"componentType":5126,"count":80,"type":"VEC2"},{"bufferView":131,"componentType":5123,"count":174,"type":"SCALAR"},{"bufferView":132,"componentType":5126,"count":60,"max":[1,3,1.3113417196564114e-07],"min":[-1,0,-0.2000000923871994],"type":"VEC3"},{"bufferView":133,"componentType":5126,"count":60,"type":"VEC3"},{"bufferView":134,"componentType":5126,"count":60,"type":"VEC2"},{"bufferView":135,"componentType":5123,"count":180,"type":"SCALAR"},{"bufferView":136,"componentType":5126,"count":8,"max":[1,0.8799999952316284,4.371138828673793e-08],"min":[-1,0,0],"type":"VEC3"},{"bufferView":137,"componentType":5126,"count":8,"type":"VEC3"},{"bufferView":138,"componentType":5126,"count":8,"type":"VEC2"},{"bufferView":139,"componentType":5126,"count":80,"max":[1,3.1226887702941895,0.0924467146396637],"min":[-1.0000001192092896,0.6495776176452637,-0.3140353262424469],"type":"VEC3"},{"bufferView":140,"componentType":5126,"count":80,"type":"VEC3"},{"bufferView":141,"componentType":5126,"count":80,"type":"VEC2"},{"bufferView":142,"componentType":5126,"count":60,"max":[1,3,1.3113417196564114e-07],"min":[-1,0,-0.2000000923871994],"type":"VEC3"},{"bufferView":143,"componentType":5126,"count":60,"type":"VEC3"},{"bufferView":144,"componentType":5126,"count":60,"type":"VEC2"},{"bufferView":145,"componentType":5126,"count":8,"max":[1,0.8799999952316284,4.371138828673793e-08],"min":[-1,0,0],"type":"VEC3"},{"bufferView":146,"componentType":5126,"count":8,"type":"VEC3"},{"bufferView":147,"componentType":5126,"count":8,"type":"VEC2"},{"bufferView":148,"componentType":5126,"count":140,"max":[0.755696713924408,2.5192716121673584,1.1012494564056396],"min":[-0.6607890129089355,1.3382160663604736,-0.07780461013317108],"type":"VEC3"},{"bufferView":149,"componentType":5126,"count":140,"type":"VEC3"},{"bufferView":150,"componentType":5126,"count":140,"type":"VEC2"},{"bufferView":151,"componentType":5123,"count":198,"type":"SCALAR"},{"bufferView":152,"componentType":5126,"count":402,"max":[0.44381028413772583,2.6207287311553955,0.0923665463924408],"min":[-0.44381028413772583,1.01604425907135,-0.2520223557949066],"type":"VEC3"},{"bufferView":153,"componentType":5126,"count":402,"type":"VEC3"},{"bufferView":154,"componentType":5126,"count":402,"type":"VEC2"},{"bufferView":155,"componentType":5123,"count":786,"type":"SCALAR"},{"bufferView":156,"componentType":5126,"count":83,"max":[0.277061402797699,2.478931427001953,0.003888234496116638],"min":[-0.27893951535224915,1.0875728130340576,0.0038879886269569397],"type":"VEC3"},{"bufferView":157,"componentType":5126,"count":83,"type":"VEC3"},{"bufferView":158,"componentType":5126,"count":83,"type":"VEC2"},{"bufferView":159,"componentType":5123,"count":153,"type":"SCALAR"},{"bufferView":160,"componentType":5126,"count":272,"max":[0.8041172027587891,2.5242888927459717,0.4168574810028076],"min":[-0.8041191101074219,0.94417804479599,-0.26658084988594055],"type":"VEC3"},{"bufferView":161,"componentType":5126,"count":272,"type":"VEC3"},{"bufferView":162,"componentType":5126,"count":272,"type":"VEC2"},{"bufferView":163,"componentType":5123,"count":408,"type":"SCALAR"},{"bufferView":164,"componentType":5126,"count":45,"max":[0.5054702758789062,2.355356216430664,0.003888234496116638],"min":[-0.5054721832275391,1.0971393585205078,0.0038878247141838074],"type":"VEC3"},{"bufferView":165,"componentType":5126,"count":45,"type":"VEC3"},{"bufferView":166,"componentType":5126,"count":45,"type":"VEC2"},{"bufferView":167,"componentType":5123,"count":72,"type":"SCALAR"},{"bufferView":168,"componentType":5126,"count":340,"max":[0.691490113735199,2.741780996322632,0.27729201316833496],"min":[-0.691490113735199,1.01604425907135,-0.2522830367088318],"type":"VEC3"},{"bufferView":169,"componentType":5126,"count":340,"type":"VEC3"},{"bufferView":170,"componentType":5126,"count":340,"type":"VEC2"},{"bufferView":171,"componentType":5123,"count":672,"type":"SCALAR"},{"bufferView":172,"componentType":5126,"count":63,"max":[0.5413169860839844,2.6192541122436523,0.0038883001543581486],"min":[-0.5445477962493896,1.0647618770599365,0.003887913655489683],"type":"VEC3"},{"bufferView":173,"componentType":5126,"count":63,"type":"VEC3"},{"bufferView":174,"componentType":5126,"count":63,"type":"VEC2"},{"bufferView":175,"componentType":5123,"count":123,"type":"SCALAR"},{"bufferView":176,"componentType":5126,"count":272,"max":[1.1035263538360596,2.740431785583496,0.56315016746521],"min":[-1.199957251548767,1.0932440757751465,0.09079486131668091],"type":"VEC3"},{"bufferView":177,"componentType":5126,"count":272,"type":"VEC3"},{"bufferView":178,"componentType":5126,"count":272,"type":"VEC2"},{"bufferView":179,"componentType":5123,"count":408,"type":"SCALAR"}],"asset":{"generator":"Khronos glTF Blender I/O v5.2.40","version":"2.0"},"bufferViews":[{"buffer":0,"byteLength":288,"byteOffset":0,"target":34962},{"buffer":0,"byteLength":288,"byteOffset":288,"target":34962},{"buffer":0,"byteLength":192,"byteOffset":576,"target":34962},{"buffer":0,"byteLength":72,"byteOffset":768,"target":34963},{"buffer":0,"byteLength":8928,"byteOffset":840,"target":34962},{"buffer":0,"byteLength":8928,"byteOffset":9768,"target":34962},{"buffer":0,"byteLength":5952,"byteOffset":18696,"target":34962},{"buffer":0,"byteLength":2724,"byteOffset":24648,"target":34963},{"buffer":0,"byteLength":336,"byteOffset":27372,"target":34962},{"buffer":0,"byteLength":336,"byteOffset":27708,"target":34962},{"buffer":0,"byteLength":224,"byteOffset":28044,"target":34962},{"buffer":0,"byteLength":96,"byteOffset":28268,"target":34963},{"buffer":0,"byteLength":4368,"byteOffset":28364,"target":34962},{"buffer":0,"byteLength":4368,"byteOffset":32732,"target":34962},{"buffer":0,"byteLength":2912,"byteOffset":37100,"target":34962},{"buffer":0,"byteLength":1920,"byteOffset":40012,"target":34963},{"buffer":0,"byteLength":6096,"byteOffset":41932,"target":34962},{"buffer":0,"byteLength":6096,"byteOffset":48028,"target":34962},{"buffer":0,"byteLength":4064,"byteOffset":54124,"target":34962},{"buffer":0,"byteLength":3660,"byteOffset":58188,"target":34963},{"buffer":0,"byteLength":192,"byteOffset":61848,"target":34962},{"buffer":0,"byteLength":192,"byteOffset":62040,"target":34962},{"buffer":0,"byteLength":128,"byteOffset":62232,"target":34962},{"buffer":0,"byteLength":48,"byteOffset":62360,"target":34963},{"buffer":0,"byteLength":4224,"byteOffset":62408,"target":34962},{"buffer":0,"byteLength":4224,"byteOffset":66632,"target":34962},{"buffer":0,"byteLength":2816,"byteOffset":70856,"target":34962},{"buffer":0,"byteLength":1440,"byteOffset":73672,"target":34963},{"buffer":0,"byteLength":192,"byteOffset":75112,"target":34962},{"buffer":0,"byteLength":192,"byteOffset":75304,"target":34962},{"buffer":0,"byteLength":128,"byteOffset":75496,"target":34962},{"buffer":0,"byteLength":72,"byteOffset":75624,"target":34963},{"buffer":0,"byteLength":6048,"byteOffset":75696,"target":34962},{"buffer":0,"byteLength":6048,"byteOffset":81744,"target":34962},{"buffer":0,"byteLength":4032,"byteOffset":87792,"target":34962},{"buffer":0,"byteLength":1872,"byteOffset":91824,"target":34963},{"buffer":0,"byteLength":240,"byteOffset":93696,"target":34962},{"buffer":0,"byteLength":240,"byteOffset":93936,"target":34962},{"buffer":0,"byteLength":160,"byteOffset":94176,"target":34962},{"buffer":0,"byteLength":96,"byteOffset":94336,"target":34963},{"buffer":0,"byteLength":12144,"byteOffset":94432,"target":34962},{"buffer":0,"byteLength":12144,"byteOffset":106576,"target":34962},{"buffer":0,"byteLength":8096,"byteOffset":118720,"target":34962},{"buffer":0,"byteLength":3288,"byteOffset":126816,"target":34963},{"buffer":0,"byteLength":13704,"byteOffset":130104,"target":34962},{"buffer":0,"byteLength":13704,"byteOffset":143808,"target":34962},{"buffer":0,"byteLength":9136,"byteOffset":157512,"target":34962},{"buffer":0,"byteLength":5784,"byteOffset":166648,"target":34963},{"buffer":0,"byteLength":19392,"byteOffset":172432,"target":34962},{"buffer":0,"byteLength":19392,"byteOffset":191824,"target":34962},{"buffer":0,"byteLength":12928,"byteOffset":211216,"target":34962},{"buffer":0,"byteLength":5232,"byteOffset":224144,"target":34963},{"buffer":0,"byteLength":18480,"byteOffset":229376,"target":34962},{"buffer":0,"byteLength":18480,"byteOffset":247856,"target":34962},{"buffer":0,"byteLength":12320,"byteOffset":266336,"target":34962},{"buffer":0,"byteLength":8430,"byteOffset":278656,"target":34963},{"buffer":0,"byteLength":1488,"byteOffset":287088,"target":34962},{"buffer":0,"byteLength":1488,"byteOffset":288576,"target":34962},{"buffer":0,"byteLength":992,"byteOffset":290064,"target":34962},{"buffer":0,"byteLength":408,"byteOffset":291056,"target":34963},{"buffer":0,"byteLength":828,"byteOffset":291464,"target":34962},{"buffer":0,"byteLength":828,"byteOffset":292292,"target":34962},{"buffer":0,"byteLength":552,"byteOffset":293120,"target":34962},{"buffer":0,"byteLength":390,"byteOffset":293672,"target":34963},{"buffer":0,"byteLength":96,"byteOffset":294064,"target":34962},{"buffer":0,"byteLength":96,"byteOffset":294160,"target":34962},{"buffer":0,"byteLength":64,"byteOffset":294256,"target":34962},{"buffer":0,"byteLength":24,"byteOffset":294320,"target":34963},{"buffer":0,"byteLength":1512,"byteOffset":294344,"target":34962},{"buffer":0,"byteLength":1512,"byteOffset":295856,"target":34962},{"buffer":0,"byteLength":1008,"byteOffset":297368,"target":34962},{"buffer":0,"byteLength":480,"byteOffset":298376,"target":34963},{"buffer":0,"byteLength":144,"byteOffset":298856,"target":34962},{"buffer":0,"byteLength":144,"byteOffset":299000,"target":34962},{"buffer":0,"byteLength":96,"byteOffset":299144,"target":34962},{"buffer":0,"byteLength":36,"byteOffset":299240,"target":34963},{"buffer":0,"byteLength":960,"byteOffset":299276,"target":34962},{"buffer":0,"byteLength":960,"byteOffset":300236,"target":34962},{"buffer":0,"byteLength":640,"byteOffset":301196,"target":34962},{"buffer":0,"byteLength":348,"byteOffset":301836,"target":34963},{"buffer":0,"byteLength":96,"byteOffset":302184,"target":34962},{"buffer":0,"byteLength":96,"byteOffset":302280,"target":34962},{"buffer":0,"byteLength":64,"byteOffset":302376,"target":34962},{"buffer":0,"byteLength":24,"byteOffset":302440,"target":34963},{"buffer":0,"byteLength":48,"byteOffset":302464,"target":34962},{"buffer":0,"byteLength":48,"byteOffset":302512,"target":34962},{"buffer":0,"byteLength":32,"byteOffset":302560,"target":34962},{"buffer":0,"byteLength":12,"byteOffset":302592,"target":34963},{"buffer":0,"byteLength":1056,"byteOffset":302604,"target":34962},{"buffer":0,"byteLength":1056,"byteOffset":303660,"target":34962},{"buffer":0,"byteLength":704,"byteOffset":304716,"target":34962},{"buffer":0,"byteLength":528,"byteOffset":305420,"target":34963},{"buffer":0,"byteLength":264,"byteOffset":305948,"target":34962},{"buffer":0,"byteLength":264,"byteOffset":306212,"target":34962},{"buffer":0,"byteLength":176,"byteOffset":306476,"target":34962},{"buffer":0,"byteLength":120,"byteOffset":306652,"target":34963},{"buffer":0,"byteLength":1248,"byteOffset":306772,"target":34962},{"buffer":0,"byteLength":1248,"byteOffset":308020,"target":34962},{"buffer":0,"byteLength":832,"byteOffset":309268,"target":34962},{"buffer":0,"byteLength":348,"byteOffset":310100,"target":34963},{"buffer":0,"byteLength":1608,"byteOffset":310448,"target":34962},{"buffer":0,"byteLength":1608,"byteOffset":312056,"target":34962},{"buffer":0,"byteLength":1072,"byteOffset":313664,"target":34962},{"buffer":0,"byteLength":504,"byteOffset":314736,"target":34963},{"buffer":0,"byteLength":480,"byteOffset":315240,"target":34962},{"buffer":0,"byteLength":480,"byteOffset":315720,"target":34962},{"buffer":0,"byteLength":320,"byteOffset":316200,"target":34962},{"buffer":0,"byteLength":228,"byteOffset":316520,"target":34963},{"buffer":0,"byteLength":384,"byteOffset":316748,"target":34962},{"buffer":0,"byteLength":384,"byteOffset":317132,"target":34962},{"buffer":0,"byteLength":256,"byteOffset":317516,"target":34962},{"buffer":0,"byteLength":192,"byteOffset":317772,"target":34963},{"buffer":0,"byteLength":96,"byteOffset":317964,"target":34962},{"buffer":0,"byteLength":96,"byteOffset":318060,"target":34962},{"buffer":0,"byteLength":64,"byteOffset":318156,"target":34962},{"buffer":0,"byteLength":36,"byteOffset":318220,"target":34963},{"buffer":0,"byteLength":960,"byteOffset":318256,"target":34962},{"buffer":0,"byteLength":960,"byteOffset":319216,"target":34962},{"buffer":0,"byteLength":640,"byteOffset":320176,"target":34962},{"buffer":0,"byteLength":384,"byteOffset":320816,"target":34962},{"buffer":0,"byteLength":384,"byteOffset":321200,"target":34962},{"buffer":0,"byteLength":256,"byteOffset":321584,"target":34962},{"buffer":0,"byteLength":96,"byteOffset":321840,"target":34962},{"buffer":0,"byteLength":96,"byteOffset":321936,"target":34962},{"buffer":0,"byteLength":64,"byteOffset":322032,"target":34962},{"buffer":0,"byteLength":960,"byteOffset":322096,"target":34962},{"buffer":0,"byteLength":960,"byteOffset":323056,"target":34962},{"buffer":0,"byteLength":640,"byteOffset":324016,"target":34962},{"buffer":0,"byteLength":960,"byteOffset":324656,"target":34962},{"buffer":0,"byteLength":960,"byteOffset":325616,"target":34962},{"buffer":0,"byteLength":640,"byteOffset":326576,"target":34962},{"buffer":0,"byteLength":348,"byteOffset":327216,"target":34963},{"buffer":0,"byteLength":720,"byteOffset":327564,"target":34962},{"buffer":0,"byteLength":720,"byteOffset":328284,"target":34962},{"buffer":0,"byteLength":480,"byteOffset":329004,"target":34962},{"buffer":0,"byteLength":360,"byteOffset":329484,"target":34963},{"buffer":0,"byteLength":96,"byteOffset":329844,"target":34962},{"buffer":0,"byteLength":96,"byteOffset":329940,"target":34962},{"buffer":0,"byteLength":64,"byteOffset":330036,"target":34962},{"buffer":0,"byteLength":960,"byteOffset":330100,"target":34962},{"buffer":0,"byteLength":960,"byteOffset":331060,"target":34962},{"buffer":0,"byteLength":640,"byteOffset":332020,"target":34962},{"buffer":0,"byteLength":720,"byteOffset":332660,"target":34962},{"buffer":0,"byteLength":720,"byteOffset":333380,"target":34962},{"buffer":0,"byteLength":480,"byteOffset":334100,"target":34962},{"buffer":0,"byteLength":96,"byteOffset":334580,"target":34962},{"buffer":0,"byteLength":96,"byteOffset":334676,"target":34962},{"buffer":0,"byteLength":64,"byteOffset":334772,"target":34962},{"buffer":0,"byteLength":1680,"byteOffset":334836,"target":34962},{"buffer":0,"byteLength":1680,"byteOffset":336516,"target":34962},{"buffer":0,"byteLength":1120,"byteOffset":338196,"target":34962},{"buffer":0,"byteLength":396,"byteOffset":339316,"target":34963},{"buffer":0,"byteLength":4824,"byteOffset":339712,"target":34962},{"buffer":0,"byteLength":4824,"byteOffset":344536,"target":34962},{"buffer":0,"byteLength":3216,"byteOffset":349360,"target":34962},{"buffer":0,"byteLength":1572,"byteOffset":352576,"target":34963},{"buffer":0,"byteLength":996,"byteOffset":354148,"target":34962},{"buffer":0,"byteLength":996,"byteOffset":355144,"target":34962},{"buffer":0,"byteLength":664,"byteOffset":356140,"target":34962},{"buffer":0,"byteLength":306,"byteOffset":356804,"target":34963},{"buffer":0,"byteLength":3264,"byteOffset":357112,"target":34962},{"buffer":0,"byteLength":3264,"byteOffset":360376,"target":34962},{"buffer":0,"byteLength":2176,"byteOffset":363640,"target":34962},{"buffer":0,"byteLength":816,"byteOffset":365816,"target":34963},{"buffer":0,"byteLength":540,"byteOffset":366632,"target":34962},{"buffer":0,"byteLength":540,"byteOffset":367172,"target":34962},{"buffer":0,"byteLength":360,"byteOffset":367712,"target":34962},{"buffer":0,"byteLength":144,"byteOffset":368072,"target":34963},{"buffer":0,"byteLength":4080,"byteOffset":368216,"target":34962},{"buffer":0,"byteLength":4080,"byteOffset":372296,"target":34962},{"buffer":0,"byteLength":2720,"byteOffset":376376,"target":34962},{"buffer":0,"byteLength":1344,"byteOffset":379096,"target":34963},{"buffer":0,"byteLength":756,"byteOffset":380440,"target":34962},{"buffer":0,"byteLength":756,"byteOffset":381196,"target":34962},{"buffer":0,"byteLength":504,"byteOffset":381952,"target":34962},{"buffer":0,"byteLength":246,"byteOffset":382456,"target":34963},{"buffer":0,"byteLength":3264,"byteOffset":382704,"target":34962},{"buffer":0,"byteLength":3264,"byteOffset":385968,"target":34962},{"buffer":0,"byteLength":2176,"byteOffset":389232,"target":34962},{"buffer":0,"byteLength":816,"byteOffset":391408,"target":34963}],"buffers":[{"byteLength":392224,"uri":"l_house.bin"}],"images":[{"name":"T_Brick_BaseColor","uri":"../village/T_Brick_BaseColor.png"},{"name":"T_Plaster_Luma","uri":"../village/T_Plaster_Luma.png"},{"name":"T_RockTrim_BaseColor","uri":"../village/T_RockTrim_BaseColor.png"},{"name":"T_RoundTiles_Luma","uri":"../village/T_RoundTiles_Luma.png"},{"name":"T_WoodTrim_BaseColor","uri":"../village/T_WoodTrim_BaseColor.png"}],"materials":[{"doubleSided":true,"name":"Wood_mid","pbrMetallicRoughness":{"baseColorFactor":[0.5179,0.5489,0.5787,1.0],"baseColorTexture":{"index":4},"metallicFactor":0,"roughnessFactor":0.8500000238418579}},{"doubleSided":true,"name":"Glass","pbrMetallicRoughness":{"baseColorFactor":[0.03310476616024971,0.05087608844041824,0.07828831672668457,1],"metallicFactor":0,"roughnessFactor":0.20000000298023224}},{"doubleSided":true,"name":"RockTrim","pbrMetallicRoughness":{"baseColorFactor":[1.0,0.9979,1.0,1.0],"baseColorTexture":{"index":2},"metallicFactor":0,"roughnessFactor":0.8500000238418579}},{"doubleSided":true,"name":"Brick","pbrMetallicRoughness":{"baseColorFactor":[1.0,0.9974,1.0,1.0],"baseColorTexture":{"index":0},"metallicFactor":0,"roughnessFactor":0.8500000238418579}},{"doubleSided":true,"name":"Plaster_cream","pbrMetallicRoughness":{"baseColorFactor":[0.9583,0.7715,0.4434,1.0],"baseColorTexture":{"index":1},"metallicFactor":0,"roughnessFactor":0.8500000238418579}},{"doubleSided":true,"name":"Tiles_green","pbrMetallicRoughness":{"baseColorFactor":[0.2433,0.3541,0.2399,1.0],"baseColorTexture":{"index":3},"metallicFactor":0,"roughnessFactor":0.699999988079071}}],"meshes":[{"name":"kit_Corner_Exterior_Wood","primitives":[{"attributes":{"NORMAL":1,"POSITION":0,"TEXCOORD_0":2},"indices":3,"material":0}]},{"name":"kit_Door_1_Round","primitives":[{"attributes":{"NORMAL":5,"POSITION":4,"TEXCOORD_0":6},"indices":7,"material":0},{"attributes":{"NORMAL":9,"POSITION":8,"TEXCOORD_0":10},"indices":11,"material":1}]},{"name":"kit_DoorFrame_Round_WoodDark","primitives":[{"attributes":{"NORMAL":13,"POSITION":12,"TEXCOORD_0":14},"indices":15,"material":0}]},{"name":"kit_Prop_Chimney","primitives":[{"attributes":{"NORMAL":17,"POSITION":16,"TEXCOORD_0":18},"indices":19,"material":2},{"attributes":{"NORMAL":21,"POSITION":20,"TEXCOORD_0":22},"indices":23,"material":3}]},{"name":"kit_Roof_Front_Brick4","primitives":[{"attributes":{"NORMAL":25,"POSITION":24,"TEXCOORD_0":26},"indices":27,"material":0},{"attributes":{"NORMAL":29,"POSITION":28,"TEXCOORD_0":30},"indices":31,"material":4}]},{"name":"kit_Roof_Front_Brick6","primitives":[{"attributes":{"NORMAL":33,"POSITION":32,"TEXCOORD_0":34},"indices":35,"material":0},{"attributes":{"NORMAL":37,"POSITION":36,"TEXCOORD_0":38},"indices":39,"material":4}]},{"name":"kit_Roof_RoundTiles_4x6.001","primitives":[{"attributes":{"NORMAL":41,"POSITION":40,"TEXCOORD_0":42},"indices":43,"material":0},{"attributes":{"NORMAL":45,"POSITION":44,"TEXCOORD_0":46},"indices":47,"material":5}]},{"name":"kit_Roof_RoundTiles_6x8.001","primitives":[{"attributes":{"NORMAL":49,"POSITION":48,"TEXCOORD_0":50},"indices":51,"material":0},{"attributes":{"NORMAL":53,"POSITION":52,"TEXCOORD_0":54},"indices":55,"material":5}]},{"name":"kit_Wall_Plaster_Door_Round","primitives":[{"attributes":{"NORMAL":57,"POSITION":56,"TEXCOORD_0":58},"indices":59,"material":0},{"attributes":{"NORMAL":61,"POSITION":60,"TEXCOORD_0":62},"indices":63,"material":4},{"attributes":{"NORMAL":65,"POSITION":64,"TEXCOORD_0":66},"indices":67,"material":2}]},{"name":"kit_Wall_Plaster_Straight.001","primitives":[{"attributes":{"NORMAL":69,"POSITION":68,"TEXCOORD_0":70},"indices":71,"material":0},{"attributes":{"NORMAL":73,"POSITION":72,"TEXCOORD_0":74},"indices":75,"material":4}]},{"name":"kit_Wall_Plaster_Straight_Base","primitives":[{"attributes":{"NORMAL":77,"POSITION":76,"TEXCOORD_0":78},"indices":79,"material":0},{"attributes":{"NORMAL":81,"POSITION":80,"TEXCOORD_0":82},"indices":83,"material":4},{"attributes":{"NORMAL":85,"POSITION":84,"TEXCOORD_0":86},"indices":87,"material":3}]},{"name":"kit_Wall_Plaster_Window_Thin_Round.001","primitives":[{"attributes":{"NORMAL":89,"POSITION":88,"TEXCOORD_0":90},"indices":91,"material":4},{"attributes":{"NORMAL":93,"POSITION":92,"TEXCOORD_0":94},"indices":95,"material":4},{"attributes":{"NORMAL":97,"POSITION":96,"TEXCOORD_0":98},"indices":99,"material":0}]},{"name":"kit_Wall_Plaster_Window_Wide_Flat2.001","primitives":[{"attributes":{"NORMAL":101,"POSITION":100,"TEXCOORD_0":102},"indices":103,"material":0},{"attributes":{"NORMAL":105,"POSITION":104,"TEXCOORD_0":106},"indices":107,"material":4}]},{"name":"kit_Wall_Plaster_Window_Wide_Flat.001","primitives":[{"attributes":{"NORMAL":109,"POSITION":108,"TEXCOORD_0":110},"indices":111,"material":4},{"attributes":{"NORMAL":113,"POSITION":112,"TEXCOORD_0":114},"indices":115,"material":4},{"attributes":{"NORMAL":117,"POSITION":116,"TEXCOORD_0":118},"indices":79,"material":0}]},{"name":"kit_Wall_Plaster_Window_Wide_Flat","primitives":[{"attributes":{"NORMAL":120,"POSITION":119,"TEXCOORD_0":121},"indices":111,"material":4},{"attributes":{"NORMAL":123,"POSITION":122,"TEXCOORD_0":124},"indices":115,"material":3},{"attributes":{"NORMAL":126,"POSITION":125,"TEXCOORD_0":127},"indices":79,"material":0}]},{"name":"kit_Wall_Plaster_Window_Wide_Round.001","primitives":[{"attributes":{"NORMAL":129,"POSITION":128,"TEXCOORD_0":130},"indices":131,"material":0},{"attributes":{"NORMAL":133,"POSITION":132,"TEXCOORD_0":134},"indices":135,"material":4},{"attributes":{"NORMAL":137,"POSITION":136,"TEXCOORD_0":138},"indices":115,"material":4}]},{"name":"kit_Wall_Plaster_Window_Wide_Round","primitives":[{"attributes":{"NORMAL":140,"POSITION":139,"TEXCOORD_0":141},"indices":131,"material":0},{"attributes":{"NORMAL":143,"POSITION":142,"TEXCOORD_0":144},"indices":135,"material":4},{"attributes":{"NORMAL":146,"POSITION":145,"TEXCOORD_0":147},"indices":115,"material":3}]},{"name":"kit_Window_Roof_Wide","primitives":[{"attributes":{"NORMAL":149,"POSITION":148,"TEXCOORD_0":150},"indices":151,"material":0}]},{"name":"kit_Window_Thin_Round1.001","primitives":[{"attributes":{"NORMAL":153,"POSITION":152,"TEXCOORD_0":154},"indices":155,"material":0},{"attributes":{"NORMAL":157,"POSITION":156,"TEXCOORD_0":158},"indices":159,"material":1}]},{"name":"kit_Window_Wide_Flat1","primitives":[{"attributes":{"NORMAL":161,"POSITION":160,"TEXCOORD_0":162},"indices":163,"material":0},{"attributes":{"NORMAL":165,"POSITION":164,"TEXCOORD_0":166},"indices":167,"material":1}]},{"name":"kit_Window_Wide_Round1.001","primitives":[{"attributes":{"NORMAL":169,"POSITION":168,"TEXCOORD_0":170},"indices":171,"material":0},{"attributes":{"NORMAL":173,"POSITION":172,"TEXCOORD_0":174},"indices":175,"material":1}]},{"name":"kit_WindowShutters_Wide_Round_Open","primitives":[{"attributes":{"NORMAL":177,"POSITION":176,"TEXCOORD_0":178},"indices":179,"material":0}]}],"nodes":[{"mesh":0,"name":"Corner_Exterior_Wood.030","translation":[-4,0,0]},{"mesh":0,"name":"Corner_Exterior_Wood.031"},{"mesh":0,"name":"Corner_Exterior_Wood.032","translation":[0,0,-4]},{"mesh":0,"name":"Corner_Exterior_Wood.033","translation":[4,0,-4]},{"mesh":0,"name":"Corner_Exterior_Wood.034","translation":[4,0,-10]},{"mesh":0,"name":"Corner_Exterior_Wood.035","translation":[-4,0,-10]},{"mesh":0,"name":"Corner_Exterior_Wood.065","translation":[-4,3,0]},{"mesh":0,"name":"Corner_Exterior_Wood.066","translation":[0,3,0]},{"mesh":0,"name":"Corner_Exterior_Wood.067","translation":[0,3,-4]},{"mesh":0,"name":"Corner_Exterior_Wood.068","translation":[4,3,-4]},{"mesh":0,"name":"Corner_Exterior_Wood.069","translation":[4,3,-10]},{"mesh":0,"name":"Corner_Exterior_Wood.070","translation":[-4,3,-10]},{"mesh":1,"name":"Door_1_Round.008","translation":[2.450000047683716,0,-4.019999980926514]},{"mesh":2,"name":"DoorFrame_Round_WoodDark.007","translation":[3,0,-4]},{"mesh":3,"name":"Prop_Chimney.076","translation":[2.4000000953674316,7.317298412322998,-8.399999618530273]},{"mesh":4,"name":"Roof_Front_Brick4.075","translation":[-2,6.119999885559082,0]},{"mesh":5,"name":"Roof_Front_Brick6.072","rotation":[0,-0.7071068286895752,0,0.7071068286895752],"translation":[-4,6.119999885559082,-7]},{"mesh":5,"name":"Roof_Front_Brick6.073","rotation":[0,0.7071068286895752,0,0.7071068286895752],"translation":[4,6.119999885559082,-7]},{"mesh":6,"name":"Roof_RoundTiles_4x6.074","scale":[1,1,0.8833333253860474],"translation":[-2,6.119999885559082,-2.6500000953674316]},{"mesh":7,"name":"Roof_RoundTiles_6x8.071","rotation":[0,-0.7071068286895752,0,0.7071068286895752],"translation":[0,6.119999885559082,-7]},{"mesh":8,"name":"Wall_Plaster_Door_Round.006","translation":[3,0,-4]},{"mesh":9,"name":"Wall_Plaster_Straight+upper.045","rotation":[0,-0.7071068286895752,0,0.7071068286895752],"translation":[-4,3,-9]},{"mesh":9,"name":"Wall_Plaster_Straight+upper.048","rotation":[0,-0.7071068286895752,0,0.7071068286895752],"translation":[-4,3,-5]},{"mesh":9,"name":"Wall_Plaster_Straight+upper.051","rotation":[0,-0.7071068286895752,0,0.7071068286895752],"translation":[-4,3,-1]},{"mesh":9,"name":"Wall_Plaster_Straight+upper.054","rotation":[0,0.7071068286895752,0,0.7071068286895752],"translation":[0,3,-3]},{"mesh":9,"name":"Wall_Plaster_Straight+upper.055","rotation":[0,0.7071068286895752,0,0.7071068286895752],"translation":[4,3,-5]},{"mesh":9,"name":"Wall_Plaster_Straight+upper.058","rotation":[0,0.7071068286895752,0,0.7071068286895752],"translation":[4,3,-9]},{"mesh":9,"name":"Wall_Plaster_Straight+upper.059","rotation":[0,-1,0,4.371138828673793e-08],"translation":[3,3,-10]},{"mesh":9,"name":"Wall_Plaster_Straight+upper.064","rotation":[0,-1,0,4.371138828673793e-08],"translation":[-3,3,-10]},{"mesh":10,"name":"Wall_Plaster_Straight_Base.004","translation":[-1,0,0]},{"mesh":10,"name":"Wall_Plaster_Straight_Base.005","translation":[1,0,-4]},{"mesh":10,"name":"Wall_Plaster_Straight_Base.009","rotation":[0,-0.7071068286895752,0,0.7071068286895752],"translation":[-4,0,-9]},{"mesh":10,"name":"Wall_Plaster_Straight_Base.013","rotation":[0,-0.7071068286895752,0,0.7071068286895752],"translation":[-4,0,-5]},{"mesh":10,"name":"Wall_Plaster_Straight_Base.016","rotation":[0,-0.7071068286895752,0,0.7071068286895752],"translation":[-4,0,-1]},{"mesh":10,"name":"Wall_Plaster_Straight_Base.019","rotation":[0,0.7071068286895752,0,0.7071068286895752],"translation":[0,0,-3]},{"mesh":10,"name":"Wall_Plaster_Straight_Base.020","rotation":[0,0.7071068286895752,0,0.7071068286895752],"translation":[4,0,-5]},{"mesh":10,"name":"Wall_Plaster_Straight_Base.023","rotation":[0,0.7071068286895752,0,0.7071068286895752],"translation":[4,0,-9]},{"mesh":10,"name":"Wall_Plaster_Straight_Base.024","rotation":[0,-1,0,4.371138828673793e-08],"translation":[3,0,-10]},{"mesh":10,"name":"Wall_Plaster_Straight_Base.029","rotation":[0,-1,0,4.371138828673793e-08],"translation":[-3,0,-10]},{"mesh":11,"name":"Wall_Plaster_Window_Thin_Round+upper.036","translation":[-3,3,0]},{"mesh":11,"name":"Wall_Plaster_Window_Thin_Round+upper.038","translation":[-1,3,0]},{"mesh":11,"name":"Wall_Plaster_Window_Thin_Round+upper.046","rotation":[0,-0.7071068286895752,0,0.7071068286895752],"translation":[-4,3,-7]},{"mesh":12,"name":"Wall_Plaster_Window_Wide_Flat2+upper.040","translation":[1,3,-4]},{"mesh":12,"name":"Wall_Plaster_Window_Wide_Flat2+upper.052","rotation":[0,0.7071068286895752,0,0.7071068286895752],"translation":[0,3,-1]},{"mesh":13,"name":"Wall_Plaster_Window_Wide_Flat+upper.049","rotation":[0,-0.7071068286895752,0,0.7071068286895752],"translation":[-4,3,-3]},{"mesh":13,"name":"Wall_Plaster_Window_Wide_Flat+upper.056","rotation":[0,0.7071068286895752,0,0.7071068286895752],"translation":[4,3,-7]},{"mesh":13,"name":"Wall_Plaster_Window_Wide_Flat+upper.060","rotation":[0,-1,0,4.371138828673793e-08],"translation":[1,3,-10]},{"mesh":13,"name":"Wall_Plaster_Window_Wide_Flat+upper.062","rotation":[0,-1,0,4.371138828673793e-08],"translation":[-1,3,-10]},{"mesh":14,"name":"Wall_Plaster_Window_Wide_Flat.014","rotation":[0,-0.7071068286895752,0,0.7071068286895752],"translation":[-4,0,-3]},{"mesh":14,"name":"Wall_Plaster_Window_Wide_Flat.017","rotation":[0,0.7071068286895752,0,0.7071068286895752],"translation":[0,0,-1]},{"mesh":14,"name":"Wall_Plaster_Window_Wide_Flat.021","rotation":[0,0.7071068286895752,0,0.7071068286895752],"translation":[4,0,-7]},{"mesh":14,"name":"Wall_Plaster_Window_Wide_Flat.025","rotation":[0,-1,0,4.371138828673793e-08],"translation":[1,0,-10]},{"mesh":14,"name":"Wall_Plaster_Window_Wide_Flat.027","rotation":[0,-1,0,4.371138828673793e-08],"translation":[-1,0,-10]},{"mesh":15,"name":"Wall_Plaster_Window_Wide_Round+upper.042","translation":[3,3,-4]},{"mesh":16,"name":"Wall_Plaster_Window_Wide_Round.001","translation":[-3,0,0]},{"mesh":16,"name":"Wall_Plaster_Window_Wide_Round.010","rotation":[0,-0.7071068286895752,0,0.7071068286895752],"translation":[-4,0,-7]},{"mesh":17,"name":"Window_Roof_Wide.077","scale":[1,1,0.800000011920929],"translation":[3,0.41999998688697815,-4]},{"mesh":18,"name":"Window_Thin_Round1.037","translation":[-3,3,0]},{"mesh":18,"name":"Window_Thin_Round1.039","translation":[-1,3,0]},{"mesh":18,"name":"Window_Thin_Round1.047","rotation":[0,-0.7071068286895752,0,0.7071068286895752],"translation":[-4,3,-7]},{"mesh":19,"name":"Window_Wide_Flat1.015","rotation":[0,-0.7071068286895752,0,0.7071068286895752],"translation":[-4,0,-3]},{"mesh":19,"name":"Window_Wide_Flat1.018","rotation":[0,0.7071068286895752,0,0.7071068286895752],"translation":[0,0,-1]},{"mesh":19,"name":"Window_Wide_Flat1.022","rotation":[0,0.7071068286895752,0,0.7071068286895752],"translation":[4,0,-7]},{"mesh":19,"name":"Window_Wide_Flat1.026","rotation":[0,-1,0,4.371138828673793e-08],"translation":[1,0,-10]},{"mesh":19,"name":"Window_Wide_Flat1.028","rotation":[0,-1,0,4.371138828673793e-08],"translation":[-1,0,-10]},{"mesh":19,"name":"Window_Wide_Flat1.041","translation":[1,3,-4]},{"mesh":19,"name":"Window_Wide_Flat1.050","rotation":[0,-0.7071068286895752,0,0.7071068286895752],"translation":[-4,3,-3]},{"mesh":19,"name":"Window_Wide_Flat1.053","rotation":[0,0.7071068286895752,0,0.7071068286895752],"translation":[0,3,-1]},{"mesh":19,"name":"Window_Wide_Flat1.057","rotation":[0,0.7071068286895752,0,0.7071068286895752],"translation":[4,3,-7]},{"mesh":19,"name":"Window_Wide_Flat1.061","rotation":[0,-1,0,4.371138828673793e-08],"translation":[1,3,-10]},{"mesh":19,"name":"Window_Wide_Flat1.063","rotation":[0,-1,0,4.371138828673793e-08],"translation":[-1,3,-10]},{"mesh":20,"name":"Window_Wide_Round1.002","translation":[-3,0,0]},{"mesh":20,"name":"Window_Wide_Round1.011","rotation":[0,-0.7071068286895752,0,0.7071068286895752],"translation":[-4,0,-7]},{"mesh":20,"name":"Window_Wide_Round1.043","translation":[3,3,-4]},{"mesh":21,"name":"WindowShutters_Wide_Round_Open.003","translation":[-3,0,0]},{"mesh":21,"name":"WindowShutters_Wide_Round_Open.012","rotation":[0,-0.7071068286895752,0,0.7071068286895752],"translation":[-4,0,-7]},{"mesh":21,"name":"WindowShutters_Wide_Round_Open.044","translation":[3,3,-4]}],"scene":0,"scenes":[{"name":"Scene","nodes":[0,1,2,3,4,5,6,7,8,9,10,11,12,13,14,15,16,17,18,19,20,21,22,23,24,25,26,27,28,29,30,31,32,33,34,35,36,37,38,39,40,41,42,43,44,45,46,47,48,49,50,51,52,53,54,55,56,57,58,59,60,61,62,63,64,65,66,67,68,69,70,71,72,73,74,75,76]}],"textures":[{"source":0},{"source":1},{"source":2},{"source":3},{"source":4}]}
