{"accessors":[{"bufferView":0,"componentType":5126,"count":288,"max":[0.8967767357826233,4.25,0.23999999463558197],"min":[-0.8967767357826233,0,-0.23999999463558197],"type":"VEC3"},{"bufferView":1,"componentType":5126,"count":288,"type":"VEC3"},{"bufferView":2,"componentType":5126,"count":288,"type":"VEC2"},{"bufferView":3,"componentType":5123,"count":456,"type":"SCALAR"},{"bufferView":4,"componentType":5126,"count":48,"max":[0.8500000238418579,3.490000009536743,0.12999999523162842],"min":[-0.8500000238418579,3.1499998569488525,-0.12999999523162842],"type":"VEC3"},{"bufferView":5,"componentType":5126,"count":48,"type":"VEC3"},{"bufferView":6,"componentType":5126,"count":48,"type":"VEC2"},{"bufferView":7,"componentType":5123,"count":72,"type":"SCALAR"}],"asset":{"generator":"Khronos glTF Blender I/O v5.2.40","version":"2.0"},"bufferViews":[{"buffer":0,"byteLength":3456,"byteOffset":0,"target":34962},{"buffer":0,"byteLength":3456,"byteOffset":3456,"target":34962},{"buffer":0,"byteLength":2304,"byteOffset":6912,"target":34962},{"buffer":0,"byteLength":912,"byteOffset":9216,"target":34963},{"buffer":0,"byteLength":576,"byteOffset":10128,"target":34962},{"buffer":0,"byteLength":576,"byteOffset":10704,"target":34962},{"buffer":0,"byteLength":384,"byteOffset":11280,"target":34962},{"buffer":0,"byteLength":144,"byteOffset":11664,"target":34963}],"buffers":[{"byteLength":11808,"uri":"lamp_double.bin"}],"images":[],"materials":[{"doubleSided":true,"name":"Prop_Iron","pbrMetallicRoughness":{"baseColorFactor":[0.03500000014901161,0.03500000014901161,0.03999999910593033,1],"metallicFactor":0,"roughnessFactor":0.5}},{"doubleSided":true,"name":"Prop_LampGlow","pbrMetallicRoughness":{"baseColorFactor":[1,0.6200000047683716,0.2199999988079071,1],"metallicFactor":0,"roughnessFactor":0.30000001192092896}}],"meshes":[{"name":"lamp_double","primitives":[{"attributes":{"NORMAL":1,"POSITION":0,"TEXCOORD_0":2},"indices":3,"material":0},{"attributes":{"NORMAL":5,"POSITION":4,"TEXCOORD_0":6},"indices":7,"material":1}]}],"nodes":[{"mesh":0,"name":"lamp_double"}],"scene":0,"scenes":[{"name":"Scene","nodes":[0]}],"textures":[]}
