{"accessors":[{"bufferView":0,"componentType":5126,"count":300,"max":[0.2121320366859436,3.9600000381469727,0.2121320366859436],"min":[-0.2121320366859436,0,-0.2121320366859436],"type":"VEC3"},{"bufferView":1,"componentType":5126,"count":300,"type":"VEC3"},{"bufferView":2,"componentType":5126,"count":300,"type":"VEC2"},{"bufferView":3,"componentType":5123,"count":480,"type":"SCALAR"},{"bufferView":4,"componentType":5126,"count":24,"max":[0.15000000596046448,3.620000123977661,0.15000000596046448],"min":[-0.15000000596046448,3.2200000286102295,-0.15000000596046448],"type":"VEC3"},{"bufferView":5,"componentType":5126,"count":24,"type":"VEC3"},{"bufferView":6,"componentType":5126,"count":24,"type":"VEC2"},{"bufferView":7,"componentType":5123,"count":36,"type":"SCALAR"}],"asset":{"generator":"Khronos glTF Blender I/O v5.2.40","version":"2.0"},"bufferViews":[{"buffer":0,"byteLength":3600,"byteOffset":0,"target":34962},{"buffer":0,"byteLength":3600,"byteOffset":3600,"target":34962},{"buffer":0,"byteLength":2400,"byteOffset":7200,"target":34962},{"buffer":0,"byteLength":960,"byteOffset":9600,"target":34963},{"buffer":0,"byteLength":288,"byteOffset":10560,"target":34962},{"buffer":0,"byteLength":288,"byteOffset":10848,"target":34962},{"buffer":0,"byteLength":192,"byteOffset":11136,"target":34962},{"buffer":0,"byteLength":72,"byteOffset":11328,"target":34963}],"buffers":[{"byteLength":11400,"uri":"lamp_post.bin"}],"images":[],"materials":[{"doubleSided":true,"name":"Prop_Iron","pbrMetallicRoughness":{"baseColorFactor":[0.03500000014901161,0.03500000014901161,0.03999999910593033,1],"metallicFactor":0,"roughnessFactor":0.5}},{"doubleSided":true,"name":"Prop_LampGlow","pbrMetallicRoughness":{"baseColorFactor":[1,0.6200000047683716,0.2199999988079071,1],"metallicFactor":0,"roughnessFactor":0.30000001192092896}}],"meshes":[{"name":"lamp_post","primitives":[{"attributes":{"NORMAL":1,"POSITION":0,"TEXCOORD_0":2},"indices":3,"material":0},{"attributes":{"NORMAL":5,"POSITION":4,"TEXCOORD_0":6},"indices":7,"material":1}]}],"nodes":[{"mesh":0,"name":"lamp_post"}],"scene":0,"scenes":[{"name":"Scene","nodes":[0]}],"textures":[]}
