{"accessors":[{"bufferView":0,"componentType":5126,"count":120,"type":"VEC3"},{"bufferView":1,"componentType":5126,"count":120,"max":[4.060621738433838,3.799999952316284,0.07000000029802322],"min":[-4.060621738433838,0,-0.07000000029802322],"type":"VEC3"},{"bufferView":2,"componentType":5123,"count":192,"type":"SCALAR"},{"bufferView":3,"componentType":5126,"count":192,"type":"VEC3"},{"bufferView":4,"componentType":5126,"count":192,"max":[4.001409530639648,3.6073663234710693,0.007499999832361937],"min":[-4.001409530639648,3.0925052165985107,-0.007499999832361937],"type":"VEC3"},{"bufferView":5,"componentType":5123,"count":288,"type":"SCALAR"},{"bufferView":6,"componentType":5126,"count":252,"type":"VEC3"},{"bufferView":7,"componentType":5126,"count":252,"max":[3.1472244262695312,3.3211584091186523,0.17000000178813934],"min":[-3.1472244262695312,2.5874998569488525,-0.17000000178813934],"type":"VEC3"},{"bufferView":8,"componentType":5123,"count":324,"type":"SCALAR"},{"bufferView":9,"componentType":5126,"count":252,"type":"VEC3"},{"bufferView":10,"componentType":5126,"count":252,"max":[3.069282054901123,3.3586583137512207,0.07999999821186066],"min":[-3.069282054901123,2.990000009536743,-0.07999999821186066],"type":"VEC3"},{"bufferView":11,"componentType":5123,"count":420,"type":"SCALAR"},{"bufferView":12,"componentType":5126,"count":168,"type":"VEC3"},{"bufferView":13,"componentType":5126,"count":168,"max":[1.1472243070602417,3.1589467525482178,0.17000000178813934],"min":[-2.1472244262695312,2.6255600452423096,-0.17000000178813934],"type":"VEC3"},{"bufferView":14,"componentType":5123,"count":216,"type":"SCALAR"},{"bufferView":15,"componentType":5126,"count":168,"type":"VEC3"},{"bufferView":16,"componentType":5126,"count":168,"max":[2.1472244262695312,3.1589467525482178,0.17000000178813934],"min":[-1.1472243070602417,2.6255600452423096,-0.17000000178813934],"type":"VEC3"},{"bufferView":17,"componentType":5123,"count":216,"type":"SCALAR"}],"asset":{"generator":"Khronos glTF Blender I/O v5.2.40","version":"2.0"},"bufferViews":[{"buffer":0,"byteOffset":0,"byteLength":1440,"target":34962},{"buffer":0,"byteOffset":1440,"byteLength":1440,"target":34962},{"buffer":0,"byteOffset":2880,"byteLength":384,"target":34963},{"buffer":0,"byteOffset":3264,"byteLength":2304,"target":34962},{"buffer":0,"byteOffset":5568,"byteLength":2304,"target":34962},{"buffer":0,"byteOffset":7872,"byteLength":576,"target":34963},{"buffer":0,"byteOffset":8448,"byteLength":3024,"target":34962},{"buffer":0,"byteOffset":11472,"byteLength":3024,"target":34962},{"buffer":0,"byteOffset":14496,"byteLength":648,"target":34963},{"buffer":0,"byteOffset":15144,"byteLength":3024,"target":34962},{"buffer":0,"byteOffset":18168,"byteLength":3024,"target":34962},{"buffer":0,"byteOffset":21192,"byteLength":840,"target":34963},{"buffer":0,"byteOffset":22032,"byteLength":2016,"target":34962},{"buffer":0,"byteOffset":24048,"byteLength":2016,"target":34962},{"buffer":0,"byteOffset":26064,"byteLength":432,"target":34963},{"buffer":0,"byteOffset":26496,"byteLength":2016,"target":34962},{"buffer":0,"byteOffset":28512,"byteLength":2016,"target":34962},{"buffer":0,"byteOffset":30528,"byteLength":432,"target":34963}],"buffers":[{"byteLength":30960,"uri":"lantern_string.bin"}],"images":[],"materials":[{"doubleSided":true,"name":"Prop_OakDark","pbrMetallicRoughness":{"baseColorFactor":[0.18000000715255737,0.09000000357627869,0.03500000014901161,1],"metallicFactor":0,"roughnessFactor":0.8500000238418579}},{"doubleSided":true,"name":"Prop_Sack","pbrMetallicRoughness":{"baseColorFactor":[0.550000011920929,0.41999998688697815,0.25,1],"metallicFactor":0}},{"doubleSided":true,"name":"Prop_PaperRed","pbrMetallicRoughness":{"baseColorFactor":[0.800000011920929,0.11999999731779099,0.05999999865889549,1],"metallicFactor":0,"roughnessFactor":0.6000000238418579}},{"doubleSided":true,"name":"Prop_Iron","pbrMetallicRoughness":{"baseColorFactor":[0.03500000014901161,0.03500000014901161,0.03999999910593033,1],"metallicFactor":0,"roughnessFactor":0.5}},{"doubleSided":true,"name":"Prop_PaperCream","pbrMetallicRoughness":{"baseColorFactor":[0.949999988079071,0.7799999713897705,0.44999998807907104,1],"metallicFactor":0,"roughnessFactor":0.6000000238418579}},{"doubleSided":true,"name":"Prop_LampGlow","pbrMetallicRoughness":{"baseColorFactor":[1,0.6200000047683716,0.2199999988079071,1],"metallicFactor":0,"roughnessFactor":0.30000001192092896}}],"meshes":[{"name":"lantern_string","primitives":[{"attributes":{"NORMAL":0,"POSITION":1},"indices":2,"material":0},{"attributes":{"NORMAL":3,"POSITION":4},"indices":5,"material":1},{"attributes":{"NORMAL":6,"POSITION":7},"indices":8,"material":2},{"attributes":{"NORMAL":9,"POSITION":10},"indices":11,"material":3},{"attributes":{"NORMAL":12,"POSITION":13},"indices":14,"material":4},{"attributes":{"NORMAL":15,"POSITION":16},"indices":17,"material":5}]}],"nodes":[{"mesh":0,"name":"lantern_string"}],"scene":0,"scenes":[{"name":"Scene","nodes":[0]}],"textures":[]}