{"accessors":[{"bufferView":0,"componentType":5126,"count":152,"type":"VEC3"},{"bufferView":1,"componentType":5126,"count":152,"max":[5,9.989999771118164,0],"min":[-5,0,-9],"type":"VEC3"},{"bufferView":2,"componentType":5126,"count":152,"type":"VEC2"},{"bufferView":3,"componentType":5123,"count":228,"type":"SCALAR"},{"bufferView":4,"componentType":5126,"count":140,"type":"VEC3"},{"bufferView":5,"componentType":5126,"count":140,"max":[5,8.86683177947998,0],"min":[-5,3.200000047683716,-9],"type":"VEC3"},{"bufferView":6,"componentType":5126,"count":140,"type":"VEC2"},{"bufferView":7,"componentType":5123,"count":204,"type":"SCALAR"},{"bufferView":8,"componentType":5126,"count":172,"type":"VEC3"},{"bufferView":9,"componentType":5126,"count":172,"max":[5.029999732971191,7.9168314933776855,0.4699999988079071],"min":[-5.029999732971191,0.8999999761581421,-9.029999732971191],"type":"VEC3"},{"bufferView":10,"componentType":5123,"count":258,"type":"SCALAR"},{"bufferView":11,"componentType":5126,"count":3342,"type":"VEC3"},{"bufferView":12,"componentType":5126,"count":3342,"max":[5.570000171661377,8.006832122802734,1.2999999523162842],"min":[-5.570000171661377,0,-9.569999694824219],"type":"VEC3"},{"bufferView":13,"componentType":5126,"count":3342,"type":"VEC2"},{"bufferView":14,"componentType":5123,"count":5076,"type":"SCALAR"},{"bufferView":15,"componentType":5126,"count":312,"type":"VEC3"},{"bufferView":16,"componentType":5126,"count":312,"max":[4.614999771118164,10.25,1.1150000095367432],"min":[-3.180000066757202,1.1039999723434448,-9.059999465942383],"type":"VEC3"},{"bufferView":17,"componentType":5123,"count":468,"type":"SCALAR"},{"bufferView":18,"componentType":5126,"count":48,"type":"VEC3"},{"bufferView":19,"componentType":5126,"count":48,"max":[5.03000020980835,7.9168314933776855,0.029999999329447746],"min":[-5.03000020980835,0.8999999761581421,-9.030000686645508],"type":"VEC3"},{"bufferView":20,"componentType":5123,"count":72,"type":"SCALAR"},{"bufferView":21,"componentType":5126,"count":352,"type":"VEC3"},{"bufferView":22,"componentType":5126,"count":352,"max":[5.080000400543213,5.349999904632568,0.07999999821186066],"min":[-5.079999923706055,4.050000190734863,-9.079999923706055],"type":"VEC3"},{"bufferView":23,"componentType":5123,"count":528,"type":"SCALAR"},{"bufferView":24,"componentType":5126,"count":64,"type":"VEC3"},{"bufferView":25,"componentType":5126,"count":64,"max":[4.059999942779541,4.059999942779541,0.4000000059604645],"min":[-4.059999942779541,3.880000114440918,0.2199999988079071],"type":"VEC3"},{"bufferView":26,"componentType":5123,"count":96,"type":"SCALAR"},{"bufferView":27,"componentType":5126,"count":160,"type":"VEC3"},{"bufferView":28,"componentType":5126,"count":160,"max":[4.023333549499512,4.159999847412109,0.36000001430511475],"min":[-4.023333549499512,4,0.23999999463558197],"type":"VEC3"},{"bufferView":29,"componentType":5123,"count":240,"type":"SCALAR"},{"bufferView":30,"componentType":5126,"count":158,"type":"VEC3"},{"bufferView":31,"componentType":5126,"count":158,"max":[5.550000190734863,9.449999809265137,0.550000011920929],"min":[-5.550000190734863,6.150000095367432,-9.550000190734863],"type":"VEC3"},{"bufferView":32,"componentType":5126,"count":158,"type":"VEC2"},{"bufferView":33,"componentType":5123,"count":234,"type":"SCALAR"},{"bufferView":34,"componentType":5126,"count":96,"type":"VEC3"},{"bufferView":35,"componentType":5126,"count":96,"max":[4.664999961853027,2.4200000762939453,1.0449999570846558],"min":[4.534999847412109,1.880000114440918,0.5049999952316284],"type":"VEC3"},{"bufferView":36,"componentType":5123,"count":180,"type":"SCALAR"}],"asset":{"generator":"Khronos glTF Blender I/O v5.2.40","version":"2.0"},"bufferViews":[{"buffer":0,"byteOffset":0,"byteLength":1824,"target":34962},{"buffer":0,"byteOffset":1824,"byteLength":1824,"target":34962},{"buffer":0,"byteOffset":3648,"byteLength":1216,"target":34962},{"buffer":0,"byteOffset":4864,"byteLength":456,"target":34963},{"buffer":0,"byteOffset":5320,"byteLength":1680,"target":34962},{"buffer":0,"byteOffset":7000,"byteLength":1680,"target":34962},{"buffer":0,"byteOffset":8680,"byteLength":1120,"target":34962},{"buffer":0,"byteOffset":9800,"byteLength":408,"target":34963},{"buffer":0,"byteOffset":10208,"byteLength":2064,"target":34962},{"buffer":0,"byteOffset":12272,"byteLength":2064,"target":34962},{"buffer":0,"byteOffset":14336,"byteLength":516,"target":34963},{"buffer":0,"byteOffset":14852,"byteLength":40104,"target":34962},{"buffer":0,"byteOffset":54956,"byteLength":40104,"target":34962},{"buffer":0,"byteOffset":95060,"byteLength":26736,"target":34962},{"buffer":0,"byteOffset":121796,"byteLength":10152,"target":34963},{"buffer":0,"byteOffset":131948,"byteLength":3744,"target":34962},{"buffer":0,"byteOffset":135692,"byteLength":3744,"target":34962},{"buffer":0,"byteOffset":139436,"byteLength":936,"target":34963},{"buffer":0,"byteOffset":140372,"byteLength":576,"target":34962},{"buffer":0,"byteOffset":140948,"byteLength":576,"target":34962},{"buffer":0,"byteOffset":141524,"byteLength":144,"target":34963},{"buffer":0,"byteOffset":141668,"byteLength":4224,"target":34962},{"buffer":0,"byteOffset":145892,"byteLength":4224,"target":34962},{"buffer":0,"byteOffset":150116,"byteLength":1056,"target":34963},{"buffer":0,"byteOffset":151172,"byteLength":768,"target":34962},{"buffer":0,"byteOffset":151940,"byteLength":768,"target":34962},{"buffer":0,"byteOffset":152708,"byteLength":192,"target":34963},{"buffer":0,"byteOffset":152900,"byteLength":1920,"target":34962},{"buffer":0,"byteOffset":154820,"byteLength":1920,"target":34962},{"buffer":0,"byteOffset":156740,"byteLength":480,"target":34963},{"buffer":0,"byteOffset":157220,"byteLength":1896,"target":34962},{"buffer":0,"byteOffset":159116,"byteLength":1896,"target":34962},{"buffer":0,"byteOffset":161012,"byteLength":1264,"target":34962},{"buffer":0,"byteOffset":162276,"byteLength":468,"target":34963},{"buffer":0,"byteOffset":162744,"byteLength":1152,"target":34962},{"buffer":0,"byteOffset":163896,"byteLength":1152,"target":34962},{"buffer":0,"byteOffset":165048,"byteLength":360,"target":34963}],"buffers":[{"byteLength":165408,"uri":"lantern_inn.bin"}],"images":[{"name":"T_Plaster_Luma","uri":"../village/T_Plaster_Luma.png"},{"name":"T_RoundTiles_BaseColor","uri":"../village/T_RoundTiles_BaseColor.png"},{"name":"T_UnevenBrick_BaseColor","uri":"../village/T_UnevenBrick_BaseColor.png"},{"name":"T_WoodTrim_BaseColor","uri":"../village/T_WoodTrim_BaseColor.png"}],"materials":[{"doubleSided":true,"name":"Stone","pbrMetallicRoughness":{"baseColorFactor":[1.0,0.9974,0.9977,1.0],"baseColorTexture":{"index":2},"metallicFactor":0,"roughnessFactor":0.8500000238418579}},{"doubleSided":true,"name":"HousePlaster","pbrMetallicRoughness":{"baseColorFactor":[1.0,0.8583,0.3304,1.0],"baseColorTexture":{"index":0},"metallicFactor":0,"roughnessFactor":0.8500000238418579}},{"doubleSided":true,"emissiveFactor":[1,0.4479884207248688,0.10048151016235352],"name":"LampGlass","pbrMetallicRoughness":{"baseColorFactor":[1,0.5704815983772278,0.1473190039396286,1],"metallicFactor":0,"roughnessFactor":0.8500000238418579}},{"doubleSided":true,"name":"Wood_dark","pbrMetallicRoughness":{"baseColorFactor":[0.2329,0.2659,0.2944,1.0],"baseColorTexture":{"index":3},"metallicFactor":0,"roughnessFactor":0.8500000238418579}},{"doubleSided":true,"name":"Iron","pbrMetallicRoughness":{"baseColorFactor":[0.0134117491543293,0.0134117491543293,0.015325203537940979,1],"metallicFactor":0,"roughnessFactor":0.5}},{"doubleSided":true,"name":"Glass","pbrMetallicRoughness":{"baseColorFactor":[0.03310476616024971,0.05087608844041824,0.07828831672668457,1],"metallicFactor":0,"roughnessFactor":0.20000000298023224}},{"doubleSided":true,"name":"ShutterPaint","pbrMetallicRoughness":{"baseColorFactor":[0.07323895394802094,0.021980946883559227,0.010022825561463833,1],"metallicFactor":0,"roughnessFactor":0.699999988079071}},{"doubleSided":true,"name":"Leaf","pbrMetallicRoughness":{"baseColorFactor":[0.03310476616024971,0.11928018927574158,0.0134117491543293,1],"metallicFactor":0,"roughnessFactor":0.8999999761581421}},{"doubleSided":true,"name":"Cloth","pbrMetallicRoughness":{"baseColorFactor":[0.34239163994789124,0.03310476616024971,0.021980946883559227,1],"metallicFactor":0,"roughnessFactor":0.8999999761581421}},{"doubleSided":true,"name":"HouseTiles","pbrMetallicRoughness":{"baseColorFactor":[1.0,0.9965,0.9971,1.0],"baseColorTexture":{"index":1},"metallicFactor":0,"roughnessFactor":0.699999988079071}},{"doubleSided":true,"name":"SignPaint","pbrMetallicRoughness":{"baseColorFactor":[0.6038273572921753,0.34239163994789124,0.03310476616024971,1],"metallicFactor":0,"roughnessFactor":0.6000000238418579}}],"meshes":[{"name":"Wall","primitives":[{"attributes":{"NORMAL":0,"POSITION":1,"TEXCOORD_0":2},"indices":3,"material":0},{"attributes":{"NORMAL":4,"POSITION":5,"TEXCOORD_0":6},"indices":7,"material":1},{"attributes":{"NORMAL":8,"POSITION":9},"indices":10,"material":2},{"attributes":{"NORMAL":11,"POSITION":12,"TEXCOORD_0":13},"indices":14,"material":3},{"attributes":{"NORMAL":15,"POSITION":16},"indices":17,"material":4},{"attributes":{"NORMAL":18,"POSITION":19},"indices":20,"material":5},{"attributes":{"NORMAL":21,"POSITION":22},"indices":23,"material":6},{"attributes":{"NORMAL":24,"POSITION":25},"indices":26,"material":7},{"attributes":{"NORMAL":27,"POSITION":28},"indices":29,"material":8},{"attributes":{"NORMAL":30,"POSITION":31,"TEXCOORD_0":32},"indices":33,"material":9},{"attributes":{"NORMAL":34,"POSITION":35},"indices":36,"material":10}]}],"nodes":[{"mesh":0,"name":"lantern_inn"}],"scene":0,"scenes":[{"name":"Scene","nodes":[0]}],"textures":[{"source":0},{"source":1},{"source":2},{"source":3}]}