{"accessors":[{"bufferView":0,"componentType":5126,"count":24,"type":"VEC3"},{"bufferView":1,"componentType":5126,"count":24,"max":[7.25,3.700000047683716,-2],"min":[6,3.5999999046325684,-6],"type":"VEC3"},{"bufferView":2,"componentType":5126,"count":24,"type":"VEC2"},{"bufferView":3,"componentType":5123,"count":36,"type":"SCALAR"},{"bufferView":4,"componentType":5126,"count":24,"type":"VEC3"},{"bufferView":5,"componentType":5126,"count":24,"max":[-1,15.470000267028809,-3.799999952316284],"min":[-1.2000000476837158,12.119999885559082,-4],"type":"VEC3"},{"bufferView":6,"componentType":5126,"count":24,"type":"VEC2"},{"bufferView":7,"componentType":5126,"count":24,"type":"VEC3"},{"bufferView":8,"componentType":5126,"count":24,"max":[-1,15.470000267028809,-6],"min":[-1.2000000476837158,12.119999885559082,-6.199999809265137],"type":"VEC3"},{"bufferView":9,"componentType":5126,"count":24,"type":"VEC2"},{"bufferView":10,"componentType":5126,"count":24,"type":"VEC3"},{"bufferView":11,"componentType":5126,"count":24,"max":[1.2000000476837158,15.470000267028809,-3.799999952316284],"min":[1,12.119999885559082,-4],"type":"VEC3"},{"bufferView":12,"componentType":5126,"count":24,"type":"VEC2"},{"bufferView":13,"componentType":5126,"count":24,"type":"VEC3"},{"bufferView":14,"componentType":5126,"count":24,"max":[1.2000000476837158,15.470000267028809,-6],"min":[1,12.119999885559082,-6.199999809265137],"type":"VEC3"},{"bufferView":15,"componentType":5126,"count":24,"type":"VEC2"},{"bufferView":16,"componentType":5126,"count":24,"type":"VEC3"},{"bufferView":17,"componentType":5126,"count":24,"max":[1.159999966621399,14.130000114440918,-3.8399999141693115],"min":[-1.159999966621399,13.970000267028809,-3.940000057220459],"type":"VEC3"},{"bufferView":18,"componentType":5126,"count":24,"type":"VEC2"},{"bufferView":19,"componentType":5126,"count":24,"type":"VEC3"},{"bufferView":20,"componentType":5126,"count":24,"max":[1.159999966621399,14.130000114440918,-6.059999942779541],"min":[-1.159999966621399,13.970000267028809,-6.159999847412109],"type":"VEC3"},{"bufferView":21,"componentType":5126,"count":24,"type":"VEC2"},{"bufferView":22,"componentType":5126,"count":24,"type":"VEC3"},{"bufferView":23,"componentType":5126,"count":24,"max":[-1.059999942779541,14.130000114440918,-3.8399999141693115],"min":[-1.159999966621399,13.970000267028809,-6.159999847412109],"type":"VEC3"},{"bufferView":24,"componentType":5126,"count":24,"type":"VEC2"},{"bufferView":25,"componentType":5126,"count":24,"type":"VEC3"},{"bufferView":26,"componentType":5126,"count":24,"max":[1.159999966621399,14.130000114440918,-3.8399999141693115],"min":[1.059999942779541,13.970000267028809,-6.159999847412109],"type":"VEC3"},{"bufferView":27,"componentType":5126,"count":24,"type":"VEC2"},{"bufferView":28,"componentType":5126,"count":24,"type":"VEC3"},{"bufferView":29,"componentType":5126,"count":24,"max":[1.159999966621399,15.460000038146973,-3.8399999141693115],"min":[-1.159999966621399,15.300000190734863,-3.940000057220459],"type":"VEC3"},{"bufferView":30,"componentType":5126,"count":24,"type":"VEC2"},{"bufferView":31,"componentType":5126,"count":24,"type":"VEC3"},{"bufferView":32,"componentType":5126,"count":24,"max":[1.159999966621399,15.460000038146973,-6.059999942779541],"min":[-1.159999966621399,15.300000190734863,-6.159999847412109],"type":"VEC3"},{"bufferView":33,"componentType":5126,"count":24,"type":"VEC2"},{"bufferView":34,"componentType":5126,"count":24,"type":"VEC3"},{"bufferView":35,"componentType":5126,"count":24,"max":[-1.059999942779541,15.460000038146973,-3.8399999141693115],"min":[-1.159999966621399,15.300000190734863,-6.159999847412109],"type":"VEC3"},{"bufferView":36,"componentType":5126,"count":24,"type":"VEC2"},{"bufferView":37,"componentType":5126,"count":24,"type":"VEC3"},{"bufferView":38,"componentType":5126,"count":24,"max":[1.159999966621399,15.460000038146973,-3.8399999141693115],"min":[1.059999942779541,15.300000190734863,-6.159999847412109],"type":"VEC3"},{"bufferView":39,"componentType":5126,"count":24,"type":"VEC2"},{"bufferView":40,"componentType":5126,"count":24,"type":"VEC3"},{"bufferView":41,"componentType":5126,"count":24,"max":[-1.059999942779541,14.34000015258789,-4.619999885559082],"min":[-1.159999966621399,14.270000457763672,-5.380000114440918],"type":"VEC3"},{"bufferView":42,"componentType":5126,"count":24,"type":"VEC2"},{"bufferView":43,"componentType":5126,"count":24,"type":"VEC3"},{"bufferView":44,"componentType":5126,"count":24,"max":[-1.059999942779541,14.569999694824219,-4.619999885559082],"min":[-1.159999966621399,14.5,-5.380000114440918],"type":"VEC3"},{"bufferView":45,"componentType":5126,"count":24,"type":"VEC2"},{"bufferView":46,"componentType":5126,"count":24,"type":"VEC3"},{"bufferView":47,"componentType":5126,"count":24,"max":[-1.059999942779541,14.800000190734863,-4.619999885559082],"min":[-1.159999966621399,14.729999542236328,-5.380000114440918],"type":"VEC3"},{"bufferView":48,"componentType":5126,"count":24,"type":"VEC2"},{"bufferView":49,"componentType":5126,"count":24,"type":"VEC3"},{"bufferView":50,"componentType":5126,"count":24,"max":[-1.059999942779541,15.029999732971191,-4.619999885559082],"min":[-1.159999966621399,14.960000038146973,-5.380000114440918],"type":"VEC3"},{"bufferView":51,"componentType":5126,"count":24,"type":"VEC2"},{"bufferView":52,"componentType":5126,"count":24,"type":"VEC3"},{"bufferView":53,"componentType":5126,"count":24,"max":[1.159999966621399,14.34000015258789,-4.619999885559082],"min":[1.059999942779541,14.270000457763672,-5.380000114440918],"type":"VEC3"},{"bufferView":54,"componentType":5126,"count":24,"type":"VEC2"},{"bufferView":55,"componentType":5126,"count":24,"type":"VEC3"},{"bufferView":56,"componentType":5126,"count":24,"max":[1.159999966621399,14.569999694824219,-4.619999885559082],"min":[1.059999942779541,14.5,-5.380000114440918],"type":"VEC3"},{"bufferView":57,"componentType":5126,"count":24,"type":"VEC2"},{"bufferView":58,"componentType":5126,"count":24,"type":"VEC3"},{"bufferView":59,"componentType":5126,"count":24,"max":[1.159999966621399,14.800000190734863,-4.619999885559082],"min":[1.059999942779541,14.729999542236328,-5.380000114440918],"type":"VEC3"},{"bufferView":60,"componentType":5126,"count":24,"type":"VEC2"},{"bufferView":61,"componentType":5126,"count":24,"type":"VEC3"},{"bufferView":62,"componentType":5126,"count":24,"max":[1.159999966621399,15.029999732971191,-4.619999885559082],"min":[1.059999942779541,14.960000038146973,-5.380000114440918],"type":"VEC3"},{"bufferView":63,"componentType":5126,"count":24,"type":"VEC2"},{"bufferView":64,"componentType":5126,"count":24,"type":"VEC3"},{"bufferView":65,"componentType":5126,"count":24,"max":[-1.0800000429153442,15.170000076293945,-4.650000095367432],"min":[-1.1399999856948853,14.170000076293945,-5.349999904632568],"type":"VEC3"},{"bufferView":66,"componentType":5126,"count":24,"type":"VEC3"},{"bufferView":67,"componentType":5126,"count":24,"max":[1.1399999856948853,15.170000076293945,-4.650000095367432],"min":[1.0800000429153442,14.170000076293945,-5.349999904632568],"type":"VEC3"},{"bufferView":68,"componentType":5126,"count":96,"type":"VEC3"},{"bufferView":69,"componentType":5126,"count":96,"max":[0.5,15.170000076293945,-3.809999942779541],"min":[-0.5,14.170000076293945,-3.869999885559082],"type":"VEC3"},{"bufferView":70,"componentType":5123,"count":180,"type":"SCALAR"},{"bufferView":71,"componentType":5126,"count":96,"type":"VEC3"},{"bufferView":72,"componentType":5126,"count":96,"max":[0.5,15.170000076293945,-6.12999963760376],"min":[-0.5,14.170000076293945,-6.190000057220459],"type":"VEC3"},{"bufferView":73,"componentType":5123,"count":180,"type":"SCALAR"},{"bufferView":74,"componentType":5126,"count":24,"type":"VEC3"},{"bufferView":75,"componentType":5126,"count":24,"max":[0.02500000037252903,15.050000190734863,-3.7899999618530273],"min":[-0.02500000037252903,14.670000076293945,-3.809999942779541],"type":"VEC3"},{"bufferView":76,"componentType":5126,"count":24,"type":"VEC3"},{"bufferView":77,"componentType":5126,"count":24,"max":[0.2800000011920929,14.694999694824219,-3.7899999618530273],"min":[0,14.645000457763672,-3.809999942779541],"type":"VEC3"},{"bufferView":78,"componentType":5126,"count":24,"type":"VEC3"},{"bufferView":79,"componentType":5126,"count":24,"max":[0.02500000037252903,15.050000190734863,-6.190000057220459],"min":[-0.02500000037252903,14.670000076293945,-6.210000038146973],"type":"VEC3"},{"bufferView":80,"componentType":5126,"count":24,"type":"VEC3"},{"bufferView":81,"componentType":5126,"count":24,"max":[0.2800000011920929,14.694999694824219,-6.190000057220459],"min":[0,14.645000457763672,-6.210000038146973],"type":"VEC3"},{"bufferView":82,"componentType":5126,"count":96,"type":"VEC3"},{"bufferView":83,"componentType":5126,"count":96,"max":[0.6000000238418579,15.270000457763672,-3.8299999237060547],"min":[-0.6000000238418579,14.069999694824219,-3.9099998474121094],"type":"VEC3"},{"bufferView":84,"componentType":5126,"count":96,"type":"VEC2"},{"bufferView":85,"componentType":5126,"count":96,"type":"VEC3"},{"bufferView":86,"componentType":5126,"count":96,"max":[0.6000000238418579,15.270000457763672,-6.090000152587891],"min":[-0.6000000238418579,14.069999694824219,-6.170000076293945],"type":"VEC3"},{"bufferView":87,"componentType":5126,"count":96,"type":"VEC2"},{"bufferView":88,"componentType":5126,"count":24,"type":"VEC3"},{"bufferView":89,"componentType":5126,"count":24,"max":[0.10508709400892258,2.999999761581421,0.11982007324695587],"min":[-0.10508733242750168,-1.5052728485898115e-07,-0.11982005089521408],"type":"VEC3"},{"bufferView":90,"componentType":5126,"count":24,"type":"VEC2"},{"bufferView":91,"componentType":5123,"count":36,"type":"SCALAR"},{"bufferView":92,"componentType":5126,"count":744,"type":"VEC3"},{"bufferView":93,"componentType":5126,"count":744,"max":[1.0737497806549072,2.3513262271881104,0.06314271688461304],"min":[-0.04626310616731644,0.033089637756347656,-0.05755755677819252],"type":"VEC3"},{"bufferView":94,"componentType":5126,"count":744,"type":"VEC2"},{"bufferView":95,"componentType":5123,"count":1362,"type":"SCALAR"},{"bufferView":96,"componentType":5126,"count":28,"type":"VEC3"},{"bufferView":97,"componentType":5126,"count":28,"max":[0.8667700886726379,1.7624019384384155,0.0312458835542202],"min":[0.1617247760295868,1.3117259740829468,0.031245503574609756],"type":"VEC3"},{"bufferView":98,"componentType":5123,"count":48,"type":"SCALAR"},{"bufferView":99,"componentType":5126,"count":364,"type":"VEC3"},{"bufferView":100,"componentType":5126,"count":364,"max":[0.7034913897514343,2.5548486709594727,0.29893577098846436],"min":[-0.7034929394721985,-0.008544921875,-0.24002820253372192],"type":"VEC3"},{"bufferView":101,"componentType":5126,"count":364,"type":"VEC2"},{"bufferView":102,"componentType":5123,"count":960,"type":"SCALAR"},{"bufferView":103,"componentType":5126,"count":20,"type":"VEC3"},{"bufferView":104,"componentType":5126,"count":20,"max":[6.25,0.6000000238418579,0.25],"min":[-6.25,0,-10.25],"type":"VEC3"},{"bufferView":105,"componentType":5126,"count":20,"type":"VEC2"},{"bufferView":106,"componentType":5123,"count":30,"type":"SCALAR"},{"bufferView":107,"componentType":5126,"count":20,"type":"VEC3"},{"bufferView":108,"componentType":5126,"count":20,"max":[2.25,0.6000000238418579,2.25],"min":[-2.25,0,0],"type":"VEC3"},{"bufferView":109,"componentType":5126,"count":20,"type":"VEC2"},{"bufferView":110,"componentType":5126,"count":352,"type":"VEC3"},{"bufferView":111,"componentType":5126,"count":352,"max":[2.215996026992798,2.6399998664855957,0.7941397428512573],"min":[-2.183807373046875,-0.13180206716060638,-0.33496367931365967],"type":"VEC3"},{"bufferView":112,"componentType":5126,"count":352,"type":"VEC2"},{"bufferView":113,"componentType":5123,"count":720,"type":"SCALAR"},{"bufferView":114,"componentType":5126,"count":16,"type":"VEC3"},{"bufferView":115,"componentType":5126,"count":16,"max":[2.188183546066284,2.9367027282714844,9.464429240324534e-12],"min":[-2.1137986183166504,0.019167041406035423,-0.2497011125087738],"type":"VEC3"},{"bufferView":116,"componentType":5126,"count":16,"type":"VEC2"},{"bufferView":117,"componentType":5123,"count":36,"type":"SCALAR"},{"bufferView":118,"componentType":5126,"count":600,"type":"VEC3"},{"bufferView":119,"componentType":5126,"count":600,"max":[4.256076812744141,5.269639492034912,0.794139564037323],"min":[-4.254717826843262,-0.13180209696292877,-0.33496370911598206],"type":"VEC3"},{"bufferView":120,"componentType":5126,"count":600,"type":"VEC2"},{"bufferView":121,"componentType":5123,"count":1056,"type":"SCALAR"},{"bufferView":122,"componentType":5126,"count":16,"type":"VEC3"},{"bufferView":123,"componentType":5126,"count":16,"max":[4.1627702713012695,5.314065933227539,1.6825651982799172e-11],"min":[-4.1627702713012695,0.019167065620422363,-0.24970084428787231],"type":"VEC3"},{"bufferView":124,"componentType":5126,"count":16,"type":"VEC2"},{"bufferView":125,"componentType":5123,"count":36,"type":"SCALAR"},{"bufferView":126,"componentType":5126,"count":1006,"type":"VEC3"},{"bufferView":127,"componentType":5126,"count":1006,"max":[2.5676212310791016,3.200705051422119,2.7454771995544434],"min":[-2.5676212310791016,-0.5157185792922974,-2.73990797996521],"type":"VEC3"},{"bufferView":128,"componentType":5126,"count":1006,"type":"VEC2"},{"bufferView":129,"componentType":5123,"count":1632,"type":"SCALAR"},{"bufferView":130,"componentType":5126,"count":755,"type":"VEC3"},{"bufferView":131,"componentType":5126,"count":755,"max":[2.756538152694702,3.7336742877960205,2.8215668201446533],"min":[-2.756538152694702,-0.3878333568572998,-2.7018470764160156],"type":"VEC3"},{"bufferView":132,"componentType":5126,"count":755,"type":"VEC2"},{"bufferView":133,"componentType":5123,"count":1959,"type":"SCALAR"},{"bufferView":134,"componentType":5126,"count":1694,"type":"VEC3"},{"bufferView":135,"componentType":5126,"count":1694,"max":[4.9567179679870605,5.600559711456299,5.858181953430176],"min":[-4.9567179679870605,-0.7799561023712158,-5.851998329162598],"type":"VEC3"},{"bufferView":136,"componentType":5126,"count":1694,"type":"VEC2"},{"bufferView":137,"componentType":5123,"count":2616,"type":"SCALAR"},{"bufferView":138,"componentType":5126,"count":2194,"type":"VEC3"},{"bufferView":139,"componentType":5126,"count":2194,"max":[4.975997447967529,6.001367092132568,6.0074462890625],"min":[-4.975997447967529,-0.5717926621437073,-5.844740390777588],"type":"VEC3"},{"bufferView":140,"componentType":5126,"count":2194,"type":"VEC2"},{"bufferView":141,"componentType":5123,"count":5448,"type":"SCALAR"},{"bufferView":142,"componentType":5126,"count":314,"type":"VEC3"},{"bufferView":143,"componentType":5126,"count":314,"max":[1,1.0871591567993164,1.5191494226455688],"min":[-1.1289291381835938,-0.1611957550048828,-0.04117286205291748],"type":"VEC3"},{"bufferView":144,"componentType":5126,"count":314,"type":"VEC2"},{"bufferView":145,"componentType":5123,"count":474,"type":"SCALAR"},{"bufferView":146,"componentType":5126,"count":308,"type":"VEC3"},{"bufferView":147,"componentType":5126,"count":308,"max":[1.1289291381835938,1.0871591567993164,1.5191494226455688],"min":[-1,-0.1611957550048828,-0.04117286205291748],"type":"VEC3"},{"bufferView":148,"componentType":5126,"count":308,"type":"VEC2"},{"bufferView":149,"componentType":5123,"count":462,"type":"SCALAR"},{"bufferView":150,"componentType":5126,"count":32,"type":"VEC3"},{"bufferView":151,"componentType":5126,"count":32,"max":[0.09000000357627869,19.020000457763672,-4.909999847412109],"min":[-0.09000000357627869,17.920000076293945,-5.090000152587891],"type":"VEC3"},{"bufferView":152,"componentType":5123,"count":48,"type":"SCALAR"},{"bufferView":153,"componentType":5126,"count":32,"type":"VEC3"},{"bufferView":154,"componentType":5126,"count":32,"max":[0.12999999523162842,18.469999313354492,-4.869999885559082],"min":[-0.12999999523162842,18.270000457763672,-5.130000114440918],"type":"VEC3"},{"bufferView":155,"componentType":5126,"count":82,"type":"VEC3"},{"bufferView":156,"componentType":5126,"count":82,"max":[0.9000001549720764,0.8184158205986023,1.00067138671875],"min":[-0.9000000357627869,-0.20368799567222595,-1.0772459506988525],"type":"VEC3"},{"bufferView":157,"componentType":5126,"count":82,"type":"VEC2"},{"bufferView":158,"componentType":5123,"count":138,"type":"SCALAR"},{"bufferView":159,"componentType":5126,"count":20,"type":"VEC3"},{"bufferView":160,"componentType":5126,"count":20,"max":[1.000000238418579,0.9999998807907104,1],"min":[-1.000000238418579,-5.094234021706286e-16,-1],"type":"VEC3"},{"bufferView":161,"componentType":5126,"count":20,"type":"VEC2"},{"bufferView":162,"componentType":5123,"count":24,"type":"SCALAR"},{"bufferView":163,"componentType":5126,"count":20,"type":"VEC3"},{"bufferView":164,"componentType":5126,"count":20,"max":[1.100000023841858,15.420000076293945,-3.9000000953674316],"min":[-1.100000023841858,12.119999885559082,-6.099999904632568],"type":"VEC3"},{"bufferView":165,"componentType":5126,"count":20,"type":"VEC2"},{"bufferView":166,"componentType":5126,"count":40,"type":"VEC3"},{"bufferView":167,"componentType":5126,"count":40,"max":[1.5772792100906372,18.1200008392334,-3.4227206707000732],"min":[-1.5772792100906372,15.411999702453613,-6.577279090881348],"type":"VEC3"},{"bufferView":168,"componentType":5126,"count":40,"type":"VEC2"},{"bufferView":169,"componentType":5123,"count":72,"type":"SCALAR"},{"bufferView":170,"componentType":5126,"count":126,"type":"VEC3"},{"bufferView":171,"componentType":5126,"count":126,"max":[1,3.1226887702941895,0.0924467146396637],"min":[-1.0000001192092896,-0.0020958781242370605,-0.3140353262424469],"type":"VEC3"},{"bufferView":172,"componentType":5126,"count":126,"type":"VEC2"},{"bufferView":173,"componentType":5123,"count":240,"type":"SCALAR"},{"bufferView":174,"componentType":5126,"count":12,"type":"VEC3"},{"bufferView":175,"componentType":5126,"count":12,"max":[1,3,1.3113415775478643e-07],"min":[-1,0,-0.2000000923871994],"type":"VEC3"},{"bufferView":176,"componentType":5126,"count":12,"type":"VEC2"},{"bufferView":177,"componentType":5123,"count":18,"type":"SCALAR"},{"bufferView":178,"componentType":5126,"count":88,"type":"VEC3"},{"bufferView":179,"componentType":5126,"count":88,"max":[1,3,1.3113415775478643e-07],"min":[-1,0,-0.2000000923871994],"type":"VEC3"},{"bufferView":180,"componentType":5126,"count":88,"type":"VEC2"},{"bufferView":181,"componentType":5123,"count":264,"type":"SCALAR"},{"bufferView":182,"componentType":5126,"count":22,"type":"VEC3"},{"bufferView":183,"componentType":5126,"count":22,"max":[1,0.8799999952316284,4.371138828673793e-08],"min":[-1,0,0],"type":"VEC3"},{"bufferView":184,"componentType":5126,"count":22,"type":"VEC2"},{"bufferView":185,"componentType":5123,"count":60,"type":"SCALAR"},{"bufferView":186,"componentType":5126,"count":104,"type":"VEC3"},{"bufferView":187,"componentType":5126,"count":104,"max":[1,3.1226887702941895,0.0924467146396637],"min":[-1.0000001192092896,0.6495776176452637,-0.3140353262424469],"type":"VEC3"},{"bufferView":188,"componentType":5126,"count":104,"type":"VEC2"},{"bufferView":189,"componentType":5123,"count":174,"type":"SCALAR"},{"bufferView":190,"componentType":5126,"count":134,"type":"VEC3"},{"bufferView":191,"componentType":5126,"count":134,"max":[1,3.1226887702941895,0.0924467146396637],"min":[-1.0000001192092896,-0.023045778274536133,-0.3140353262424469],"type":"VEC3"},{"bufferView":192,"componentType":5126,"count":134,"type":"VEC2"},{"bufferView":193,"componentType":5123,"count":252,"type":"SCALAR"},{"bufferView":194,"componentType":5126,"count":40,"type":"VEC3"},{"bufferView":195,"componentType":5126,"count":40,"max":[1,3,1.3113415775478643e-07],"min":[-1,0,-0.2000000923871994],"type":"VEC3"},{"bufferView":196,"componentType":5126,"count":40,"type":"VEC2"},{"bufferView":197,"componentType":5123,"count":114,"type":"SCALAR"},{"bufferView":198,"componentType":5126,"count":80,"type":"VEC3"},{"bufferView":199,"componentType":5126,"count":80,"max":[1,3.1226887702941895,0.0924467146396637],"min":[-1.0000001192092896,0.6495776176452637,-0.3140353262424469],"type":"VEC3"},{"bufferView":200,"componentType":5126,"count":80,"type":"VEC2"},{"bufferView":201,"componentType":5123,"count":174,"type":"SCALAR"},{"bufferView":202,"componentType":5126,"count":60,"type":"VEC3"},{"bufferView":203,"componentType":5126,"count":60,"max":[1,3,1.3113417196564114e-07],"min":[-1,0,-0.2000000923871994],"type":"VEC3"},{"bufferView":204,"componentType":5126,"count":60,"type":"VEC2"},{"bufferView":205,"componentType":5123,"count":180,"type":"SCALAR"},{"bufferView":206,"componentType":5126,"count":8,"type":"VEC3"},{"bufferView":207,"componentType":5126,"count":8,"max":[1,0.8799999952316284,4.371138828673793e-08],"min":[-1,0,0],"type":"VEC3"},{"bufferView":208,"componentType":5126,"count":8,"type":"VEC2"},{"bufferView":209,"componentType":5123,"count":18,"type":"SCALAR"},{"bufferView":210,"componentType":5126,"count":389,"type":"VEC3"},{"bufferView":211,"componentType":5126,"count":389,"max":[1.000000238418579,3.1226887702941895,0.0924467146396637],"min":[-1.000000238418579,0.6495776176452637,-0.3140353262424469],"type":"VEC3"},{"bufferView":212,"componentType":5126,"count":389,"type":"VEC2"},{"bufferView":213,"componentType":5123,"count":732,"type":"SCALAR"},{"bufferView":214,"componentType":5126,"count":8,"type":"VEC3"},{"bufferView":215,"componentType":5126,"count":8,"max":[1,0.8360880613327026,5.960464477539063e-08],"min":[-1,0,-0.2000001072883606],"type":"VEC3"},{"bufferView":216,"componentType":5126,"count":8,"type":"VEC2"},{"bufferView":217,"componentType":5123,"count":12,"type":"SCALAR"},{"bufferView":218,"componentType":5126,"count":64,"type":"VEC3"},{"bufferView":219,"componentType":5126,"count":64,"max":[1,3.1226887702941895,0.09244640171527863],"min":[-1.0000001192092896,2.877309799194336,-0.3140353262424469],"type":"VEC3"},{"bufferView":220,"componentType":5126,"count":64,"type":"VEC2"},{"bufferView":221,"componentType":5123,"count":150,"type":"SCALAR"},{"bufferView":222,"componentType":5126,"count":35,"type":"VEC3"},{"bufferView":223,"componentType":5126,"count":35,"max":[1,3,-0.19999991357326508],"min":[-1,0,-0.2000000923871994],"type":"VEC3"},{"bufferView":224,"componentType":5126,"count":35,"type":"VEC2"},{"bufferView":225,"componentType":5123,"count":123,"type":"SCALAR"},{"bufferView":226,"componentType":5126,"count":43,"type":"VEC3"},{"bufferView":227,"componentType":5126,"count":43,"max":[1,3,1.3113415775478643e-07],"min":[-1,0,0],"type":"VEC3"},{"bufferView":228,"componentType":5126,"count":43,"type":"VEC2"},{"bufferView":229,"componentType":5123,"count":135,"type":"SCALAR"},{"bufferView":230,"componentType":5126,"count":64,"type":"VEC3"},{"bufferView":231,"componentType":5126,"count":64,"max":[1,3.1226887702941895,0.09244640171527863],"min":[-1.0000001192092896,2.877309799194336,-0.3140353262424469],"type":"VEC3"},{"bufferView":232,"componentType":5126,"count":64,"type":"VEC2"},{"bufferView":233,"componentType":5126,"count":4,"type":"VEC3"},{"bufferView":234,"componentType":5126,"count":4,"max":[1,3,-0.19999991357326508],"min":[-1,0,-0.2000000923871994],"type":"VEC3"},{"bufferView":235,"componentType":5126,"count":4,"type":"VEC2"},{"bufferView":236,"componentType":5123,"count":6,"type":"SCALAR"},{"bufferView":237,"componentType":5126,"count":8,"type":"VEC3"},{"bufferView":238,"componentType":5126,"count":8,"max":[1,3,1.3113415775478643e-07],"min":[-1,0,0],"type":"VEC3"},{"bufferView":239,"componentType":5126,"count":8,"type":"VEC2"},{"bufferView":240,"componentType":5123,"count":12,"type":"SCALAR"},{"bufferView":241,"componentType":5126,"count":64,"type":"VEC3"},{"bufferView":242,"componentType":5126,"count":64,"max":[1,3.1226887702941895,0.09244640171527863],"min":[-1.0000001192092896,2.877309799194336,-0.3140353262424469],"type":"VEC3"},{"bufferView":243,"componentType":5126,"count":64,"type":"VEC2"},{"bufferView":244,"componentType":5126,"count":44,"type":"VEC3"},{"bufferView":245,"componentType":5126,"count":44,"max":[1,3,-0.19999991357326508],"min":[-1,0,-0.2000000923871994],"type":"VEC3"},{"bufferView":246,"componentType":5126,"count":44,"type":"VEC2"},{"bufferView":247,"componentType":5123,"count":132,"type":"SCALAR"},{"bufferView":248,"componentType":5126,"count":57,"type":"VEC3"},{"bufferView":249,"componentType":5126,"count":57,"max":[1,3,1.3113415775478643e-07],"min":[-1,0,0],"type":"VEC3"},{"bufferView":250,"componentType":5126,"count":57,"type":"VEC2"},{"bufferView":251,"componentType":5123,"count":192,"type":"SCALAR"},{"bufferView":252,"componentType":5126,"count":64,"type":"VEC3"},{"bufferView":253,"componentType":5126,"count":64,"max":[1,3.1226887702941895,0.09244640171527863],"min":[-1.0000001192092896,2.877309799194336,-0.3140353262424469],"type":"VEC3"},{"bufferView":254,"componentType":5126,"count":64,"type":"VEC2"},{"bufferView":255,"componentType":5123,"count":150,"type":"SCALAR"},{"bufferView":256,"componentType":5126,"count":30,"type":"VEC3"},{"bufferView":257,"componentType":5126,"count":30,"max":[1,3,-0.19999989867210388],"min":[-1,0,-0.2000000923871994],"type":"VEC3"},{"bufferView":258,"componentType":5126,"count":30,"type":"VEC2"},{"bufferView":259,"componentType":5123,"count":90,"type":"SCALAR"},{"bufferView":260,"componentType":5126,"count":36,"type":"VEC3"},{"bufferView":261,"componentType":5126,"count":36,"max":[1,3,1.3113415775478643e-07],"min":[-1,0,0],"type":"VEC3"},{"bufferView":262,"componentType":5126,"count":36,"type":"VEC2"},{"bufferView":263,"componentType":5123,"count":108,"type":"SCALAR"},{"bufferView":264,"componentType":5126,"count":402,"type":"VEC3"},{"bufferView":265,"componentType":5126,"count":402,"max":[0.44381028413772583,2.6207287311553955,0.0923665463924408],"min":[-0.44381028413772583,1.01604425907135,-0.2520223557949066],"type":"VEC3"},{"bufferView":266,"componentType":5126,"count":402,"type":"VEC2"},{"bufferView":267,"componentType":5123,"count":786,"type":"SCALAR"},{"bufferView":268,"componentType":5126,"count":83,"type":"VEC3"},{"bufferView":269,"componentType":5126,"count":83,"max":[0.277061402797699,2.478931427001953,0.003888234496116638],"min":[-0.27893951535224915,1.0875728130340576,0.0038879886269569397],"type":"VEC3"},{"bufferView":270,"componentType":5123,"count":153,"type":"SCALAR"},{"bufferView":271,"componentType":5126,"count":272,"type":"VEC3"},{"bufferView":272,"componentType":5126,"count":272,"max":[0.8041172027587891,2.5242888927459717,0.4168574810028076],"min":[-0.8041191101074219,0.94417804479599,-0.26658084988594055],"type":"VEC3"},{"bufferView":273,"componentType":5126,"count":272,"type":"VEC2"},{"bufferView":274,"componentType":5123,"count":408,"type":"SCALAR"},{"bufferView":275,"componentType":5126,"count":45,"type":"VEC3"},{"bufferView":276,"componentType":5126,"count":45,"max":[0.5054702758789062,2.355356216430664,0.003888234496116638],"min":[-0.5054721832275391,1.0971393585205078,0.0038878247141838074],"type":"VEC3"},{"bufferView":277,"componentType":5123,"count":72,"type":"SCALAR"},{"bufferView":278,"componentType":5126,"count":340,"type":"VEC3"},{"bufferView":279,"componentType":5126,"count":340,"max":[0.691490113735199,2.741780996322632,0.27729201316833496],"min":[-0.691490113735199,1.01604425907135,-0.2522830367088318],"type":"VEC3"},{"bufferView":280,"componentType":5126,"count":340,"type":"VEC2"},{"bufferView":281,"componentType":5123,"count":672,"type":"SCALAR"},{"bufferView":282,"componentType":5126,"count":63,"type":"VEC3"},{"bufferView":283,"componentType":5126,"count":63,"max":[0.5413169860839844,2.6192541122436523,0.0038883001543581486],"min":[-0.5445477962493896,1.0647618770599365,0.003887913655489683],"type":"VEC3"},{"bufferView":284,"componentType":5123,"count":123,"type":"SCALAR"},{"bufferView":285,"componentType":5126,"count":272,"type":"VEC3"},{"bufferView":286,"componentType":5126,"count":272,"max":[1.1035263538360596,2.740431785583496,0.56315016746521],"min":[-1.199957251548767,1.0932440757751465,0.09079486131668091],"type":"VEC3"},{"bufferView":287,"componentType":5126,"count":272,"type":"VEC2"},{"bufferView":288,"componentType":5123,"count":408,"type":"SCALAR"}],"asset":{"generator":"Khronos glTF Blender I/O v5.2.40","version":"2.0"},"bufferViews":[{"buffer":0,"byteOffset":0,"byteLength":288,"target":34962},{"buffer":0,"byteOffset":288,"byteLength":288,"target":34962},{"buffer":0,"byteOffset":576,"byteLength":192,"target":34962},{"buffer":0,"byteOffset":768,"byteLength":72,"target":34963},{"buffer":0,"byteOffset":840,"byteLength":288,"target":34962},{"buffer":0,"byteOffset":1128,"byteLength":288,"target":34962},{"buffer":0,"byteOffset":1416,"byteLength":192,"target":34962},{"buffer":0,"byteOffset":1608,"byteLength":288,"target":34962},{"buffer":0,"byteOffset":1896,"byteLength":288,"target":34962},{"buffer":0,"byteOffset":2184,"byteLength":192,"target":34962},{"buffer":0,"byteOffset":2376,"byteLength":288,"target":34962},{"buffer":0,"byteOffset":2664,"byteLength":288,"target":34962},{"buffer":0,"byteOffset":2952,"byteLength":192,"target":34962},{"buffer":0,"byteOffset":3144,"byteLength":288,"target":34962},{"buffer":0,"byteOffset":3432,"byteLength":288,"target":34962},{"buffer":0,"byteOffset":3720,"byteLength":192,"target":34962},{"buffer":0,"byteOffset":3912,"byteLength":288,"target":34962},{"buffer":0,"byteOffset":4200,"byteLength":288,"target":34962},{"buffer":0,"byteOffset":4488,"byteLength":192,"target":34962},{"buffer":0,"byteOffset":4680,"byteLength":288,"target":34962},{"buffer":0,"byteOffset":4968,"byteLength":288,"target":34962},{"buffer":0,"byteOffset":5256,"byteLength":192,"target":34962},{"buffer":0,"byteOffset":5448,"byteLength":288,"target":34962},{"buffer":0,"byteOffset":5736,"byteLength":288,"target":34962},{"buffer":0,"byteOffset":6024,"byteLength":192,"target":34962},{"buffer":0,"byteOffset":6216,"byteLength":288,"target":34962},{"buffer":0,"byteOffset":6504,"byteLength":288,"target":34962},{"buffer":0,"byteOffset":6792,"byteLength":192,"target":34962},{"buffer":0,"byteOffset":6984,"byteLength":288,"target":34962},{"buffer":0,"byteOffset":7272,"byteLength":288,"target":34962},{"buffer":0,"byteOffset":7560,"byteLength":192,"target":34962},{"buffer":0,"byteOffset":7752,"byteLength":288,"target":34962},{"buffer":0,"byteOffset":8040,"byteLength":288,"target":34962},{"buffer":0,"byteOffset":8328,"byteLength":192,"target":34962},{"buffer":0,"byteOffset":8520,"byteLength":288,"target":34962},{"buffer":0,"byteOffset":8808,"byteLength":288,"target":34962},{"buffer":0,"byteOffset":9096,"byteLength":192,"target":34962},{"buffer":0,"byteOffset":9288,"byteLength":288,"target":34962},{"buffer":0,"byteOffset":9576,"byteLength":288,"target":34962},{"buffer":0,"byteOffset":9864,"byteLength":192,"target":34962},{"buffer":0,"byteOffset":10056,"byteLength":288,"target":34962},{"buffer":0,"byteOffset":10344,"byteLength":288,"target":34962},{"buffer":0,"byteOffset":10632,"byteLength":192,"target":34962},{"buffer":0,"byteOffset":10824,"byteLength":288,"target":34962},{"buffer":0,"byteOffset":11112,"byteLength":288,"target":34962},{"buffer":0,"byteOffset":11400,"byteLength":192,"target":34962},{"buffer":0,"byteOffset":11592,"byteLength":288,"target":34962},{"buffer":0,"byteOffset":11880,"byteLength":288,"target":34962},{"buffer":0,"byteOffset":12168,"byteLength":192,"target":34962},{"buffer":0,"byteOffset":12360,"byteLength":288,"target":34962},{"buffer":0,"byteOffset":12648,"byteLength":288,"target":34962},{"buffer":0,"byteOffset":12936,"byteLength":192,"target":34962},{"buffer":0,"byteOffset":13128,"byteLength":288,"target":34962},{"buffer":0,"byteOffset":13416,"byteLength":288,"target":34962},{"buffer":0,"byteOffset":13704,"byteLength":192,"target":34962},{"buffer":0,"byteOffset":13896,"byteLength":288,"target":34962},{"buffer":0,"byteOffset":14184,"byteLength":288,"target":34962},{"buffer":0,"byteOffset":14472,"byteLength":192,"target":34962},{"buffer":0,"byteOffset":14664,"byteLength":288,"target":34962},{"buffer":0,"byteOffset":14952,"byteLength":288,"target":34962},{"buffer":0,"byteOffset":15240,"byteLength":192,"target":34962},{"buffer":0,"byteOffset":15432,"byteLength":288,"target":34962},{"buffer":0,"byteOffset":15720,"byteLength":288,"target":34962},{"buffer":0,"byteOffset":16008,"byteLength":192,"target":34962},{"buffer":0,"byteOffset":16200,"byteLength":288,"target":34962},{"buffer":0,"byteOffset":16488,"byteLength":288,"target":34962},{"buffer":0,"byteOffset":16776,"byteLength":288,"target":34962},{"buffer":0,"byteOffset":17064,"byteLength":288,"target":34962},{"buffer":0,"byteOffset":17352,"byteLength":1152,"target":34962},{"buffer":0,"byteOffset":18504,"byteLength":1152,"target":34962},{"buffer":0,"byteOffset":19656,"byteLength":360,"target":34963},{"buffer":0,"byteOffset":20016,"byteLength":1152,"target":34962},{"buffer":0,"byteOffset":21168,"byteLength":1152,"target":34962},{"buffer":0,"byteOffset":22320,"byteLength":360,"target":34963},{"buffer":0,"byteOffset":22680,"byteLength":288,"target":34962},{"buffer":0,"byteOffset":22968,"byteLength":288,"target":34962},{"buffer":0,"byteOffset":23256,"byteLength":288,"target":34962},{"buffer":0,"byteOffset":23544,"byteLength":288,"target":34962},{"buffer":0,"byteOffset":23832,"byteLength":288,"target":34962},{"buffer":0,"byteOffset":24120,"byteLength":288,"target":34962},{"buffer":0,"byteOffset":24408,"byteLength":288,"target":34962},{"buffer":0,"byteOffset":24696,"byteLength":288,"target":34962},{"buffer":0,"byteOffset":24984,"byteLength":1152,"target":34962},{"buffer":0,"byteOffset":26136,"byteLength":1152,"target":34962},{"buffer":0,"byteOffset":27288,"byteLength":768,"target":34962},{"buffer":0,"byteOffset":28056,"byteLength":1152,"target":34962},{"buffer":0,"byteOffset":29208,"byteLength":1152,"target":34962},{"buffer":0,"byteOffset":30360,"byteLength":768,"target":34962},{"buffer":0,"byteOffset":31128,"byteLength":288,"target":34962},{"buffer":0,"byteOffset":31416,"byteLength":288,"target":34962},{"buffer":0,"byteOffset":31704,"byteLength":192,"target":34962},{"buffer":0,"byteOffset":31896,"byteLength":72,"target":34963},{"buffer":0,"byteOffset":31968,"byteLength":8928,"target":34962},{"buffer":0,"byteOffset":40896,"byteLength":8928,"target":34962},{"buffer":0,"byteOffset":49824,"byteLength":5952,"target":34962},{"buffer":0,"byteOffset":55776,"byteLength":2724,"target":34963},{"buffer":0,"byteOffset":58500,"byteLength":336,"target":34962},{"buffer":0,"byteOffset":58836,"byteLength":336,"target":34962},{"buffer":0,"byteOffset":59172,"byteLength":96,"target":34963},{"buffer":0,"byteOffset":59268,"byteLength":4368,"target":34962},{"buffer":0,"byteOffset":63636,"byteLength":4368,"target":34962},{"buffer":0,"byteOffset":68004,"byteLength":2912,"target":34962},{"buffer":0,"byteOffset":70916,"byteLength":1920,"target":34963},{"buffer":0,"byteOffset":72836,"byteLength":240,"target":34962},{"buffer":0,"byteOffset":73076,"byteLength":240,"target":34962},{"buffer":0,"byteOffset":73316,"byteLength":160,"target":34962},{"buffer":0,"byteOffset":73476,"byteLength":60,"target":34963},{"buffer":0,"byteOffset":73536,"byteLength":240,"target":34962},{"buffer":0,"byteOffset":73776,"byteLength":240,"target":34962},{"buffer":0,"byteOffset":74016,"byteLength":160,"target":34962},{"buffer":0,"byteOffset":74176,"byteLength":4224,"target":34962},{"buffer":0,"byteOffset":78400,"byteLength":4224,"target":34962},{"buffer":0,"byteOffset":82624,"byteLength":2816,"target":34962},{"buffer":0,"byteOffset":85440,"byteLength":1440,"target":34963},{"buffer":0,"byteOffset":86880,"byteLength":192,"target":34962},{"buffer":0,"byteOffset":87072,"byteLength":192,"target":34962},{"buffer":0,"byteOffset":87264,"byteLength":128,"target":34962},{"buffer":0,"byteOffset":87392,"byteLength":72,"target":34963},{"buffer":0,"byteOffset":87464,"byteLength":7200,"target":34962},{"buffer":0,"byteOffset":94664,"byteLength":7200,"target":34962},{"buffer":0,"byteOffset":101864,"byteLength":4800,"target":34962},{"buffer":0,"byteOffset":106664,"byteLength":2112,"target":34963},{"buffer":0,"byteOffset":108776,"byteLength":192,"target":34962},{"buffer":0,"byteOffset":108968,"byteLength":192,"target":34962},{"buffer":0,"byteOffset":109160,"byteLength":128,"target":34962},{"buffer":0,"byteOffset":109288,"byteLength":72,"target":34963},{"buffer":0,"byteOffset":109360,"byteLength":12072,"target":34962},{"buffer":0,"byteOffset":121432,"byteLength":12072,"target":34962},{"buffer":0,"byteOffset":133504,"byteLength":8048,"target":34962},{"buffer":0,"byteOffset":141552,"byteLength":3264,"target":34963},{"buffer":0,"byteOffset":144816,"byteLength":9060,"target":34962},{"buffer":0,"byteOffset":153876,"byteLength":9060,"target":34962},{"buffer":0,"byteOffset":162936,"byteLength":6040,"target":34962},{"buffer":0,"byteOffset":168976,"byteLength":3918,"target":34963},{"buffer":0,"byteOffset":172896,"byteLength":20328,"target":34962},{"buffer":0,"byteOffset":193224,"byteLength":20328,"target":34962},{"buffer":0,"byteOffset":213552,"byteLength":13552,"target":34962},{"buffer":0,"byteOffset":227104,"byteLength":5232,"target":34963},{"buffer":0,"byteOffset":232336,"byteLength":26328,"target":34962},{"buffer":0,"byteOffset":258664,"byteLength":26328,"target":34962},{"buffer":0,"byteOffset":284992,"byteLength":17552,"target":34962},{"buffer":0,"byteOffset":302544,"byteLength":10896,"target":34963},{"buffer":0,"byteOffset":313440,"byteLength":3768,"target":34962},{"buffer":0,"byteOffset":317208,"byteLength":3768,"target":34962},{"buffer":0,"byteOffset":320976,"byteLength":2512,"target":34962},{"buffer":0,"byteOffset":323488,"byteLength":948,"target":34963},{"buffer":0,"byteOffset":324436,"byteLength":3696,"target":34962},{"buffer":0,"byteOffset":328132,"byteLength":3696,"target":34962},{"buffer":0,"byteOffset":331828,"byteLength":2464,"target":34962},{"buffer":0,"byteOffset":334292,"byteLength":924,"target":34963},{"buffer":0,"byteOffset":335216,"byteLength":384,"target":34962},{"buffer":0,"byteOffset":335600,"byteLength":384,"target":34962},{"buffer":0,"byteOffset":335984,"byteLength":96,"target":34963},{"buffer":0,"byteOffset":336080,"byteLength":384,"target":34962},{"buffer":0,"byteOffset":336464,"byteLength":384,"target":34962},{"buffer":0,"byteOffset":336848,"byteLength":984,"target":34962},{"buffer":0,"byteOffset":337832,"byteLength":984,"target":34962},{"buffer":0,"byteOffset":338816,"byteLength":656,"target":34962},{"buffer":0,"byteOffset":339472,"byteLength":276,"target":34963},{"buffer":0,"byteOffset":339748,"byteLength":240,"target":34962},{"buffer":0,"byteOffset":339988,"byteLength":240,"target":34962},{"buffer":0,"byteOffset":340228,"byteLength":160,"target":34962},{"buffer":0,"byteOffset":340388,"byteLength":48,"target":34963},{"buffer":0,"byteOffset":340436,"byteLength":240,"target":34962},{"buffer":0,"byteOffset":340676,"byteLength":240,"target":34962},{"buffer":0,"byteOffset":340916,"byteLength":160,"target":34962},{"buffer":0,"byteOffset":341076,"byteLength":480,"target":34962},{"buffer":0,"byteOffset":341556,"byteLength":480,"target":34962},{"buffer":0,"byteOffset":342036,"byteLength":320,"target":34962},{"buffer":0,"byteOffset":342356,"byteLength":144,"target":34963},{"buffer":0,"byteOffset":342500,"byteLength":1512,"target":34962},{"buffer":0,"byteOffset":344012,"byteLength":1512,"target":34962},{"buffer":0,"byteOffset":345524,"byteLength":1008,"target":34962},{"buffer":0,"byteOffset":346532,"byteLength":480,"target":34963},{"buffer":0,"byteOffset":347012,"byteLength":144,"target":34962},{"buffer":0,"byteOffset":347156,"byteLength":144,"target":34962},{"buffer":0,"byteOffset":347300,"byteLength":96,"target":34962},{"buffer":0,"byteOffset":347396,"byteLength":36,"target":34963},{"buffer":0,"byteOffset":347432,"byteLength":1056,"target":34962},{"buffer":0,"byteOffset":348488,"byteLength":1056,"target":34962},{"buffer":0,"byteOffset":349544,"byteLength":704,"target":34962},{"buffer":0,"byteOffset":350248,"byteLength":528,"target":34963},{"buffer":0,"byteOffset":350776,"byteLength":264,"target":34962},{"buffer":0,"byteOffset":351040,"byteLength":264,"target":34962},{"buffer":0,"byteOffset":351304,"byteLength":176,"target":34962},{"buffer":0,"byteOffset":351480,"byteLength":120,"target":34963},{"buffer":0,"byteOffset":351600,"byteLength":1248,"target":34962},{"buffer":0,"byteOffset":352848,"byteLength":1248,"target":34962},{"buffer":0,"byteOffset":354096,"byteLength":832,"target":34962},{"buffer":0,"byteOffset":354928,"byteLength":348,"target":34963},{"buffer":0,"byteOffset":355276,"byteLength":1608,"target":34962},{"buffer":0,"byteOffset":356884,"byteLength":1608,"target":34962},{"buffer":0,"byteOffset":358492,"byteLength":1072,"target":34962},{"buffer":0,"byteOffset":359564,"byteLength":504,"target":34963},{"buffer":0,"byteOffset":360068,"byteLength":480,"target":34962},{"buffer":0,"byteOffset":360548,"byteLength":480,"target":34962},{"buffer":0,"byteOffset":361028,"byteLength":320,"target":34962},{"buffer":0,"byteOffset":361348,"byteLength":228,"target":34963},{"buffer":0,"byteOffset":361576,"byteLength":960,"target":34962},{"buffer":0,"byteOffset":362536,"byteLength":960,"target":34962},{"buffer":0,"byteOffset":363496,"byteLength":640,"target":34962},{"buffer":0,"byteOffset":364136,"byteLength":348,"target":34963},{"buffer":0,"byteOffset":364484,"byteLength":720,"target":34962},{"buffer":0,"byteOffset":365204,"byteLength":720,"target":34962},{"buffer":0,"byteOffset":365924,"byteLength":480,"target":34962},{"buffer":0,"byteOffset":366404,"byteLength":360,"target":34963},{"buffer":0,"byteOffset":366764,"byteLength":96,"target":34962},{"buffer":0,"byteOffset":366860,"byteLength":96,"target":34962},{"buffer":0,"byteOffset":366956,"byteLength":64,"target":34962},{"buffer":0,"byteOffset":367020,"byteLength":36,"target":34963},{"buffer":0,"byteOffset":367056,"byteLength":4668,"target":34962},{"buffer":0,"byteOffset":371724,"byteLength":4668,"target":34962},{"buffer":0,"byteOffset":376392,"byteLength":3112,"target":34962},{"buffer":0,"byteOffset":379504,"byteLength":1464,"target":34963},{"buffer":0,"byteOffset":380968,"byteLength":96,"target":34962},{"buffer":0,"byteOffset":381064,"byteLength":96,"target":34962},{"buffer":0,"byteOffset":381160,"byteLength":64,"target":34962},{"buffer":0,"byteOffset":381224,"byteLength":24,"target":34963},{"buffer":0,"byteOffset":381248,"byteLength":768,"target":34962},{"buffer":0,"byteOffset":382016,"byteLength":768,"target":34962},{"buffer":0,"byteOffset":382784,"byteLength":512,"target":34962},{"buffer":0,"byteOffset":383296,"byteLength":300,"target":34963},{"buffer":0,"byteOffset":383596,"byteLength":420,"target":34962},{"buffer":0,"byteOffset":384016,"byteLength":420,"target":34962},{"buffer":0,"byteOffset":384436,"byteLength":280,"target":34962},{"buffer":0,"byteOffset":384716,"byteLength":246,"target":34963},{"buffer":0,"byteOffset":384964,"byteLength":516,"target":34962},{"buffer":0,"byteOffset":385480,"byteLength":516,"target":34962},{"buffer":0,"byteOffset":385996,"byteLength":344,"target":34962},{"buffer":0,"byteOffset":386340,"byteLength":270,"target":34963},{"buffer":0,"byteOffset":386612,"byteLength":768,"target":34962},{"buffer":0,"byteOffset":387380,"byteLength":768,"target":34962},{"buffer":0,"byteOffset":388148,"byteLength":512,"target":34962},{"buffer":0,"byteOffset":388660,"byteLength":48,"target":34962},{"buffer":0,"byteOffset":388708,"byteLength":48,"target":34962},{"buffer":0,"byteOffset":388756,"byteLength":32,"target":34962},{"buffer":0,"byteOffset":388788,"byteLength":12,"target":34963},{"buffer":0,"byteOffset":388800,"byteLength":96,"target":34962},{"buffer":0,"byteOffset":388896,"byteLength":96,"target":34962},{"buffer":0,"byteOffset":388992,"byteLength":64,"target":34962},{"buffer":0,"byteOffset":389056,"byteLength":24,"target":34963},{"buffer":0,"byteOffset":389080,"byteLength":768,"target":34962},{"buffer":0,"byteOffset":389848,"byteLength":768,"target":34962},{"buffer":0,"byteOffset":390616,"byteLength":512,"target":34962},{"buffer":0,"byteOffset":391128,"byteLength":528,"target":34962},{"buffer":0,"byteOffset":391656,"byteLength":528,"target":34962},{"buffer":0,"byteOffset":392184,"byteLength":352,"target":34962},{"buffer":0,"byteOffset":392536,"byteLength":264,"target":34963},{"buffer":0,"byteOffset":392800,"byteLength":684,"target":34962},{"buffer":0,"byteOffset":393484,"byteLength":684,"target":34962},{"buffer":0,"byteOffset":394168,"byteLength":456,"target":34962},{"buffer":0,"byteOffset":394624,"byteLength":384,"target":34963},{"buffer":0,"byteOffset":395008,"byteLength":768,"target":34962},{"buffer":0,"byteOffset":395776,"byteLength":768,"target":34962},{"buffer":0,"byteOffset":396544,"byteLength":512,"target":34962},{"buffer":0,"byteOffset":397056,"byteLength":300,"target":34963},{"buffer":0,"byteOffset":397356,"byteLength":360,"target":34962},{"buffer":0,"byteOffset":397716,"byteLength":360,"target":34962},{"buffer":0,"byteOffset":398076,"byteLength":240,"target":34962},{"buffer":0,"byteOffset":398316,"byteLength":180,"target":34963},{"buffer":0,"byteOffset":398496,"byteLength":432,"target":34962},{"buffer":0,"byteOffset":398928,"byteLength":432,"target":34962},{"buffer":0,"byteOffset":399360,"byteLength":288,"target":34962},{"buffer":0,"byteOffset":399648,"byteLength":216,"target":34963},{"buffer":0,"byteOffset":399864,"byteLength":4824,"target":34962},{"buffer":0,"byteOffset":404688,"byteLength":4824,"target":34962},{"buffer":0,"byteOffset":409512,"byteLength":3216,"target":34962},{"buffer":0,"byteOffset":412728,"byteLength":1572,"target":34963},{"buffer":0,"byteOffset":414300,"byteLength":996,"target":34962},{"buffer":0,"byteOffset":415296,"byteLength":996,"target":34962},{"buffer":0,"byteOffset":416292,"byteLength":306,"target":34963},{"buffer":0,"byteOffset":416600,"byteLength":3264,"target":34962},{"buffer":0,"byteOffset":419864,"byteLength":3264,"target":34962},{"buffer":0,"byteOffset":423128,"byteLength":2176,"target":34962},{"buffer":0,"byteOffset":425304,"byteLength":816,"target":34963},{"buffer":0,"byteOffset":426120,"byteLength":540,"target":34962},{"buffer":0,"byteOffset":426660,"byteLength":540,"target":34962},{"buffer":0,"byteOffset":427200,"byteLength":144,"target":34963},{"buffer":0,"byteOffset":427344,"byteLength":4080,"target":34962},{"buffer":0,"byteOffset":431424,"byteLength":4080,"target":34962},{"buffer":0,"byteOffset":435504,"byteLength":2720,"target":34962},{"buffer":0,"byteOffset":438224,"byteLength":1344,"target":34963},{"buffer":0,"byteOffset":439568,"byteLength":756,"target":34962},{"buffer":0,"byteOffset":440324,"byteLength":756,"target":34962},{"buffer":0,"byteOffset":441080,"byteLength":246,"target":34963},{"buffer":0,"byteOffset":441328,"byteLength":3264,"target":34962},{"buffer":0,"byteOffset":444592,"byteLength":3264,"target":34962},{"buffer":0,"byteOffset":447856,"byteLength":2176,"target":34962},{"buffer":0,"byteOffset":450032,"byteLength":816,"target":34963}],"buffers":[{"byteLength":450848,"uri":"library.bin"}],"images":[{"name":"T_Brick_BaseColor","uri":"../village/T_Brick_BaseColor.png"},{"name":"T_Plaster_Luma","uri":"../village/T_Plaster_Luma.png"},{"name":"T_RockTrim_BaseColor","uri":"../village/T_RockTrim_BaseColor.png"},{"name":"T_RoundTiles_Luma","uri":"../village/T_RoundTiles_Luma.png"},{"name":"T_UnevenBrick_BaseColor","uri":"../village/T_UnevenBrick_BaseColor.png"},{"name":"T_WoodTrim_BaseColor","uri":"../village/T_WoodTrim_BaseColor.png"}],"materials":[{"doubleSided":true,"name":"Wood_mid","pbrMetallicRoughness":{"baseColorFactor":[0.5179,0.5489,0.5787,1.0],"baseColorTexture":{"index":5},"metallicFactor":0,"roughnessFactor":0.8500000238418579}},{"doubleSided":true,"name":"Iron","pbrMetallicRoughness":{"baseColorFactor":[0.0134117491543293,0.0134117491543293,0.015325203537940979,1],"metallicFactor":0,"roughnessFactor":0.5}},{"doubleSided":true,"name":"ClockFace","pbrMetallicRoughness":{"baseColorFactor":[0.848088264465332,0.8073459267616272,0.6738595366477966,1],"metallicFactor":0,"roughnessFactor":0.6000000238418579}},{"doubleSided":true,"name":"Glass","pbrMetallicRoughness":{"baseColorFactor":[0.03310476616024971,0.05087608844041824,0.07828831672668457,1],"metallicFactor":0,"roughnessFactor":0.20000000298023224}},{"doubleSided":true,"name":"Stone","pbrMetallicRoughness":{"baseColorFactor":[1.0,0.9974,0.9977,1.0],"baseColorTexture":{"index":4},"metallicFactor":0,"roughnessFactor":0.8500000238418579}},{"doubleSided":true,"name":"Plaster_white","pbrMetallicRoughness":{"baseColorFactor":[1.0,1.0,0.9092,1.0],"baseColorTexture":{"index":1},"metallicFactor":0,"roughnessFactor":0.8500000238418579}},{"doubleSided":true,"name":"Tiles_slate","pbrMetallicRoughness":{"baseColorFactor":[0.1477,0.1884,0.2641,1.0],"baseColorTexture":{"index":3},"metallicFactor":0,"roughnessFactor":0.699999988079071}},{"doubleSided":true,"name":"SignPaint","pbrMetallicRoughness":{"baseColorFactor":[0.6038273572921753,0.34239163994789124,0.03310476616024971,1],"metallicFactor":0,"roughnessFactor":0.6000000238418579}},{"doubleSided":true,"name":"RockTrim","pbrMetallicRoughness":{"baseColorFactor":[1.0,0.9979,1.0,1.0],"baseColorTexture":{"index":2},"metallicFactor":0,"roughnessFactor":0.8500000238418579}},{"doubleSided":true,"name":"Brick","pbrMetallicRoughness":{"baseColorFactor":[1.0,0.9974,1.0,1.0],"baseColorTexture":{"index":0},"metallicFactor":0,"roughnessFactor":0.8500000238418579}}],"meshes":[{"name":"BayCap","primitives":[{"attributes":{"NORMAL":0,"POSITION":1,"TEXCOORD_0":2},"indices":3,"material":0}]},{"name":"Beam","primitives":[{"attributes":{"NORMAL":4,"POSITION":5,"TEXCOORD_0":6},"indices":3,"material":0}]},{"name":"Beam.001","primitives":[{"attributes":{"NORMAL":7,"POSITION":8,"TEXCOORD_0":9},"indices":3,"material":0}]},{"name":"Beam.002","primitives":[{"attributes":{"NORMAL":10,"POSITION":11,"TEXCOORD_0":12},"indices":3,"material":0}]},{"name":"Beam.003","primitives":[{"attributes":{"NORMAL":13,"POSITION":14,"TEXCOORD_0":15},"indices":3,"material":0}]},{"name":"Beam.004","primitives":[{"attributes":{"NORMAL":16,"POSITION":17,"TEXCOORD_0":18},"indices":3,"material":0}]},{"name":"Beam.005","primitives":[{"attributes":{"NORMAL":19,"POSITION":20,"TEXCOORD_0":21},"indices":3,"material":0}]},{"name":"Beam.006","primitives":[{"attributes":{"NORMAL":22,"POSITION":23,"TEXCOORD_0":24},"indices":3,"material":0}]},{"name":"Beam.007","primitives":[{"attributes":{"NORMAL":25,"POSITION":26,"TEXCOORD_0":27},"indices":3,"material":0}]},{"name":"Beam.008","primitives":[{"attributes":{"NORMAL":28,"POSITION":29,"TEXCOORD_0":30},"indices":3,"material":0}]},{"name":"Beam.009","primitives":[{"attributes":{"NORMAL":31,"POSITION":32,"TEXCOORD_0":33},"indices":3,"material":0}]},{"name":"Beam.010","primitives":[{"attributes":{"NORMAL":34,"POSITION":35,"TEXCOORD_0":36},"indices":3,"material":0}]},{"name":"Beam.011","primitives":[{"attributes":{"NORMAL":37,"POSITION":38,"TEXCOORD_0":39},"indices":3,"material":0}]},{"name":"Beam.012","primitives":[{"attributes":{"NORMAL":40,"POSITION":41,"TEXCOORD_0":42},"indices":3,"material":0}]},{"name":"Beam.013","primitives":[{"attributes":{"NORMAL":43,"POSITION":44,"TEXCOORD_0":45},"indices":3,"material":0}]},{"name":"Beam.014","primitives":[{"attributes":{"NORMAL":46,"POSITION":47,"TEXCOORD_0":48},"indices":3,"material":0}]},{"name":"Beam.015","primitives":[{"attributes":{"NORMAL":49,"POSITION":50,"TEXCOORD_0":51},"indices":3,"material":0}]},{"name":"Beam.016","primitives":[{"attributes":{"NORMAL":52,"POSITION":53,"TEXCOORD_0":54},"indices":3,"material":0}]},{"name":"Beam.017","primitives":[{"attributes":{"NORMAL":55,"POSITION":56,"TEXCOORD_0":57},"indices":3,"material":0}]},{"name":"Beam.018","primitives":[{"attributes":{"NORMAL":58,"POSITION":59,"TEXCOORD_0":60},"indices":3,"material":0}]},{"name":"Beam.019","primitives":[{"attributes":{"NORMAL":61,"POSITION":62,"TEXCOORD_0":63},"indices":3,"material":0}]},{"name":"Belfry","primitives":[{"attributes":{"NORMAL":64,"POSITION":65},"indices":3,"material":1}]},{"name":"Belfry.001","primitives":[{"attributes":{"NORMAL":66,"POSITION":67},"indices":3,"material":1}]},{"name":"ClockFace","primitives":[{"attributes":{"NORMAL":68,"POSITION":69},"indices":70,"material":2}]},{"name":"ClockFace.001","primitives":[{"attributes":{"NORMAL":71,"POSITION":72},"indices":73,"material":2}]},{"name":"ClockHand","primitives":[{"attributes":{"NORMAL":74,"POSITION":75},"indices":3,"material":1}]},{"name":"ClockHand.001","primitives":[{"attributes":{"NORMAL":76,"POSITION":77},"indices":3,"material":1}]},{"name":"ClockHand.002","primitives":[{"attributes":{"NORMAL":78,"POSITION":79},"indices":3,"material":1}]},{"name":"ClockHand.003","primitives":[{"attributes":{"NORMAL":80,"POSITION":81},"indices":3,"material":1}]},{"name":"ClockRim","primitives":[{"attributes":{"NORMAL":82,"POSITION":83,"TEXCOORD_0":84},"indices":70,"material":0}]},{"name":"ClockRim.001","primitives":[{"attributes":{"NORMAL":85,"POSITION":86,"TEXCOORD_0":87},"indices":73,"material":0}]},{"name":"kit_Corner_Exterior_Wood","primitives":[{"attributes":{"NORMAL":88,"POSITION":89,"TEXCOORD_0":90},"indices":91,"material":0}]},{"name":"kit_Door_1_Round","primitives":[{"attributes":{"NORMAL":92,"POSITION":93,"TEXCOORD_0":94},"indices":95,"material":0},{"attributes":{"NORMAL":96,"POSITION":97},"indices":98,"material":3}]},{"name":"kit_DoorFrame_Round_WoodDark","primitives":[{"attributes":{"NORMAL":99,"POSITION":100,"TEXCOORD_0":101},"indices":102,"material":0}]},{"name":"Plinth","primitives":[{"attributes":{"NORMAL":103,"POSITION":104,"TEXCOORD_0":105},"indices":106,"material":4}]},{"name":"Plinth.001","primitives":[{"attributes":{"NORMAL":107,"POSITION":108,"TEXCOORD_0":109},"indices":106,"material":4}]},{"name":"kit_Roof_Front_Brick4","primitives":[{"attributes":{"NORMAL":110,"POSITION":111,"TEXCOORD_0":112},"indices":113,"material":0},{"attributes":{"NORMAL":114,"POSITION":115,"TEXCOORD_0":116},"indices":117,"material":5}]},{"name":"kit_Roof_Front_Brick8","primitives":[{"attributes":{"NORMAL":118,"POSITION":119,"TEXCOORD_0":120},"indices":121,"material":0},{"attributes":{"NORMAL":122,"POSITION":123,"TEXCOORD_0":124},"indices":125,"material":5}]},{"name":"kit_Roof_RoundTiles_4x4.001","primitives":[{"attributes":{"NORMAL":126,"POSITION":127,"TEXCOORD_0":128},"indices":129,"material":0},{"attributes":{"NORMAL":130,"POSITION":131,"TEXCOORD_0":132},"indices":133,"material":6}]},{"name":"kit_Roof_RoundTiles_8x10.001","primitives":[{"attributes":{"NORMAL":134,"POSITION":135,"TEXCOORD_0":136},"indices":137,"material":0},{"attributes":{"NORMAL":138,"POSITION":139,"TEXCOORD_0":140},"indices":141,"material":6}]},{"name":"kit_Roof_Wooden_2x1_L","primitives":[{"attributes":{"NORMAL":142,"POSITION":143,"TEXCOORD_0":144},"indices":145,"material":0}]},{"name":"kit_Roof_Wooden_2x1_R","primitives":[{"attributes":{"NORMAL":146,"POSITION":147,"TEXCOORD_0":148},"indices":149,"material":0}]},{"name":"Spire","primitives":[{"attributes":{"NORMAL":150,"POSITION":151},"indices":152,"material":1}]},{"name":"SpireBall","primitives":[{"attributes":{"NORMAL":153,"POSITION":154},"indices":152,"material":7}]},{"name":"kit_Stairs_Exterior_Straight","primitives":[{"attributes":{"NORMAL":155,"POSITION":156,"TEXCOORD_0":157},"indices":158,"material":8},{"attributes":{"NORMAL":159,"POSITION":160,"TEXCOORD_0":161},"indices":162,"material":9}]},{"name":"TurretBody","primitives":[{"attributes":{"NORMAL":163,"POSITION":164,"TEXCOORD_0":165},"indices":106,"material":5}]},{"name":"TurretRoof","primitives":[{"attributes":{"NORMAL":166,"POSITION":167,"TEXCOORD_0":168},"indices":169,"material":6}]},{"name":"kit_Wall_Plaster_Straight.001","primitives":[{"attributes":{"NORMAL":170,"POSITION":171,"TEXCOORD_0":172},"indices":173,"material":0},{"attributes":{"NORMAL":174,"POSITION":175,"TEXCOORD_0":176},"indices":177,"material":5}]},{"name":"kit_Wall_Plaster_Window_Thin_Round.001","primitives":[{"attributes":{"NORMAL":178,"POSITION":179,"TEXCOORD_0":180},"indices":181,"material":5},{"attributes":{"NORMAL":182,"POSITION":183,"TEXCOORD_0":184},"indices":185,"material":5},{"attributes":{"NORMAL":186,"POSITION":187,"TEXCOORD_0":188},"indices":189,"material":0}]},{"name":"kit_Wall_Plaster_Window_Wide_Flat2.001","primitives":[{"attributes":{"NORMAL":190,"POSITION":191,"TEXCOORD_0":192},"indices":193,"material":0},{"attributes":{"NORMAL":194,"POSITION":195,"TEXCOORD_0":196},"indices":197,"material":5}]},{"name":"kit_Wall_Plaster_Window_Wide_Round.001","primitives":[{"attributes":{"NORMAL":198,"POSITION":199,"TEXCOORD_0":200},"indices":201,"material":0},{"attributes":{"NORMAL":202,"POSITION":203,"TEXCOORD_0":204},"indices":205,"material":5},{"attributes":{"NORMAL":206,"POSITION":207,"TEXCOORD_0":208},"indices":209,"material":5}]},{"name":"kit_Wall_Plaster_WoodGrid.001","primitives":[{"attributes":{"NORMAL":210,"POSITION":211,"TEXCOORD_0":212},"indices":213,"material":0},{"attributes":{"NORMAL":214,"POSITION":215,"TEXCOORD_0":216},"indices":217,"material":5}]},{"name":"kit_Wall_UnevenBrick_Door_Round","primitives":[{"attributes":{"NORMAL":218,"POSITION":219,"TEXCOORD_0":220},"indices":221,"material":0},{"attributes":{"NORMAL":222,"POSITION":223,"TEXCOORD_0":224},"indices":225,"material":5},{"attributes":{"NORMAL":226,"POSITION":227,"TEXCOORD_0":228},"indices":229,"material":4}]},{"name":"kit_Wall_UnevenBrick_Straight","primitives":[{"attributes":{"NORMAL":230,"POSITION":231,"TEXCOORD_0":232},"indices":221,"material":0},{"attributes":{"NORMAL":233,"POSITION":234,"TEXCOORD_0":235},"indices":236,"material":5},{"attributes":{"NORMAL":237,"POSITION":238,"TEXCOORD_0":239},"indices":240,"material":4}]},{"name":"kit_Wall_UnevenBrick_Window_Thin_Round","primitives":[{"attributes":{"NORMAL":241,"POSITION":242,"TEXCOORD_0":243},"indices":221,"material":0},{"attributes":{"NORMAL":244,"POSITION":245,"TEXCOORD_0":246},"indices":247,"material":5},{"attributes":{"NORMAL":248,"POSITION":249,"TEXCOORD_0":250},"indices":251,"material":4}]},{"name":"kit_Wall_UnevenBrick_Window_Wide_Round","primitives":[{"attributes":{"NORMAL":252,"POSITION":253,"TEXCOORD_0":254},"indices":255,"material":0},{"attributes":{"NORMAL":256,"POSITION":257,"TEXCOORD_0":258},"indices":259,"material":5},{"attributes":{"NORMAL":260,"POSITION":261,"TEXCOORD_0":262},"indices":263,"material":4}]},{"name":"kit_Window_Thin_Round1.001","primitives":[{"attributes":{"NORMAL":264,"POSITION":265,"TEXCOORD_0":266},"indices":267,"material":0},{"attributes":{"NORMAL":268,"POSITION":269},"indices":270,"material":3}]},{"name":"kit_Window_Wide_Flat1","primitives":[{"attributes":{"NORMAL":271,"POSITION":272,"TEXCOORD_0":273},"indices":274,"material":0},{"attributes":{"NORMAL":275,"POSITION":276},"indices":277,"material":3}]},{"name":"kit_Window_Wide_Round1.001","primitives":[{"attributes":{"NORMAL":278,"POSITION":279,"TEXCOORD_0":280},"indices":281,"material":0},{"attributes":{"NORMAL":282,"POSITION":283},"indices":284,"material":3}]},{"name":"kit_WindowShutters_Wide_Round_Open","primitives":[{"attributes":{"NORMAL":285,"POSITION":286,"TEXCOORD_0":287},"indices":288,"material":0}]}],"nodes":[{"mesh":0,"name":"BayCap.133"},{"mesh":1,"name":"Beam.092"},{"mesh":2,"name":"Beam.093"},{"mesh":3,"name":"Beam.094"},{"mesh":4,"name":"Beam.095"},{"mesh":5,"name":"Beam.096"},{"mesh":6,"name":"Beam.097"},{"mesh":7,"name":"Beam.098"},{"mesh":8,"name":"Beam.099"},{"mesh":9,"name":"Beam.100"},{"mesh":10,"name":"Beam.101"},{"mesh":11,"name":"Beam.102"},{"mesh":12,"name":"Beam.103"},{"mesh":13,"name":"Beam.113"},{"mesh":14,"name":"Beam.114"},{"mesh":15,"name":"Beam.115"},{"mesh":16,"name":"Beam.116"},{"mesh":17,"name":"Beam.118"},{"mesh":18,"name":"Beam.119"},{"mesh":19,"name":"Beam.120"},{"mesh":20,"name":"Beam.121"},{"mesh":21,"name":"Belfry.112"},{"mesh":22,"name":"Belfry.117"},{"mesh":23,"name":"ClockFace.105"},{"mesh":24,"name":"ClockFace.109"},{"mesh":25,"name":"ClockHand.106"},{"mesh":26,"name":"ClockHand.107"},{"mesh":27,"name":"ClockHand.110"},{"mesh":28,"name":"ClockHand.111"},{"mesh":29,"name":"ClockRim.104"},{"mesh":30,"name":"ClockRim.108"},{"mesh":31,"name":"Corner_Exterior_Wood.030","scale":[1,1.3333333730697632,1],"translation":[-6,0.6000000238418579,0]},{"mesh":31,"name":"Corner_Exterior_Wood.031","scale":[1,1.3333333730697632,1],"translation":[6,0.6000000238418579,0]},{"mesh":31,"name":"Corner_Exterior_Wood.032","scale":[1,1.3333333730697632,1],"translation":[-6,0.6000000238418579,-10]},{"mesh":31,"name":"Corner_Exterior_Wood.033","scale":[1,1.3333333730697632,1],"translation":[6,0.6000000238418579,-10]},{"mesh":31,"name":"Corner_Exterior_Wood.061","translation":[-6,4.599999904632568,0]},{"mesh":31,"name":"Corner_Exterior_Wood.062","translation":[6,4.599999904632568,0]},{"mesh":31,"name":"Corner_Exterior_Wood.063","translation":[-6,4.599999904632568,-10]},{"mesh":31,"name":"Corner_Exterior_Wood.064","translation":[6,4.599999904632568,-10]},{"mesh":31,"name":"Corner_Exterior_Wood.081","scale":[1,1.3333333730697632,1],"translation":[-2,0.6000000238418579,2]},{"mesh":31,"name":"Corner_Exterior_Wood.082","scale":[1,1.3333333730697632,1],"translation":[2,0.6000000238418579,2]},{"mesh":31,"name":"Corner_Exterior_Wood.083","translation":[-2,4.599999904632568,2]},{"mesh":31,"name":"Corner_Exterior_Wood.084","translation":[2,4.599999904632568,2]},{"mesh":31,"name":"Corner_Exterior_Wood.131","translation":[7.199999809265137,0.6000000238418579,-2]},{"mesh":31,"name":"Corner_Exterior_Wood.132","translation":[7.199999809265137,0.6000000238418579,-6]},{"mesh":32,"name":"Door_1_Round.067","scale":[1.0714285373687744,1.3333333730697632,1],"translation":[-1.2000000476837158,0.6000000238418579,1.9800000190734863]},{"mesh":32,"name":"Door_1_Round.068","rotation":[0,-1,0,4.371138828673793e-08],"scale":[1.0714285373687744,1.3333333730697632,1],"translation":[1.2000000476837158,0.6000000238418579,1.9800000190734863]},{"mesh":33,"name":"DoorFrame_Round_WoodDark.066","scale":[2,1.3333333730697632,1],"translation":[0,0.6000000238418579,2]},{"mesh":34,"name":"Plinth.001"},{"mesh":35,"name":"Plinth.002"},{"mesh":36,"name":"Roof_Front_Brick4.086","translation":[0,7.71999979019165,2]},{"mesh":37,"name":"Roof_Front_Brick8.089","rotation":[0,-0.7071068286895752,0,0.7071068286895752],"scale":[1.25,1,1],"translation":[-6,7.71999979019165,-5]},{"mesh":37,"name":"Roof_Front_Brick8.090","rotation":[0,0.7071068286895752,0,0.7071068286895752],"scale":[1.25,1,1],"translation":[6,7.71999979019165,-5]},{"mesh":38,"name":"Roof_RoundTiles_4x4.085","scale":[1,1,1.125],"translation":[0,7.71999979019165,-0.25]},{"mesh":39,"name":"Roof_RoundTiles_8x10.088","rotation":[0,-0.7071068286895752,0,0.7071068286895752],"scale":[1.25,1,1.2000000476837158],"translation":[0,7.71999979019165,-5]},{"mesh":40,"name":"Roof_Wooden_2x1_L.134","rotation":[0,0.7071068286895752,0,0.7071068286895752],"scale":[1,1,0.949999988079071],"translation":[6,4.150000095367432,-3]},{"mesh":41,"name":"Roof_Wooden_2x1_R.135","rotation":[0,0.7071068286895752,0,0.7071068286895752],"scale":[1,1,0.949999988079071],"translation":[6,4.150000095367432,-5]},{"mesh":42,"name":"Spire.123"},{"mesh":43,"name":"SpireBall.124"},{"mesh":44,"name":"Stairs_Exterior_Straight.087","scale":[1.600000023841858,0.6000000238418579,1],"translation":[0,0,3]},{"mesh":45,"name":"TurretBody.091"},{"mesh":46,"name":"TurretRoof.122"},{"mesh":47,"name":"Wall_Plaster_Straight+upper.042","rotation":[0,-1,0,4.371138828673793e-08],"scale":[0.9983333349227905,1,1],"translation":[4.991666316986084,4.599999904632568,-10]},{"mesh":47,"name":"Wall_Plaster_Straight+upper.043","rotation":[0,-1,0,4.371138828673793e-08],"scale":[0.9983333349227905,1,1],"translation":[2.994999885559082,4.599999904632568,-10]},{"mesh":47,"name":"Wall_Plaster_Straight+upper.046","rotation":[0,-1,0,4.371138828673793e-08],"scale":[0.9983333349227905,1,1],"translation":[-0.9983335733413696,4.599999904632568,-10]},{"mesh":47,"name":"Wall_Plaster_Straight+upper.047","rotation":[0,-1,0,4.371138828673793e-08],"scale":[0.9983333349227905,1,1],"translation":[-2.9950003623962402,4.599999904632568,-10]},{"mesh":47,"name":"Wall_Plaster_Straight+upper.048","rotation":[0,-1,0,4.371138828673793e-08],"scale":[0.9983333349227905,1,1],"translation":[-4.991666793823242,4.599999904632568,-10]},{"mesh":47,"name":"Wall_Plaster_Straight+upper.049","rotation":[0,-0.7071068286895752,0,0.7071068286895752],"scale":[0.9980000257492065,1,1],"translation":[-6,4.599999904632568,-8.991999626159668]},{"mesh":47,"name":"Wall_Plaster_Straight+upper.050","rotation":[0,-0.7071068286895752,0,0.7071068286895752],"scale":[0.9980000257492065,1,1],"translation":[-6,4.599999904632568,-6.995999336242676]},{"mesh":47,"name":"Wall_Plaster_Straight+upper.053","rotation":[0,-0.7071068286895752,0,0.7071068286895752],"scale":[0.9980000257492065,1,1],"translation":[-6,4.599999904632568,-3.0039987564086914]},{"mesh":47,"name":"Wall_Plaster_Straight+upper.054","rotation":[0,-0.7071068286895752,0,0.7071068286895752],"scale":[0.9980000257492065,1,1],"translation":[-6,4.599999904632568,-1.0079988241195679]},{"mesh":47,"name":"Wall_Plaster_Straight+upper.055","rotation":[0,0.7071068286895752,0,0.7071068286895752],"scale":[0.9980000257492065,1,1],"translation":[6,4.599999904632568,-1.0080000162124634]},{"mesh":47,"name":"Wall_Plaster_Straight+upper.056","rotation":[0,0.7071068286895752,0,0.7071068286895752],"scale":[0.9980000257492065,1,1],"translation":[6,4.599999904632568,-3.004000186920166]},{"mesh":47,"name":"Wall_Plaster_Straight+upper.059","rotation":[0,0.7071068286895752,0,0.7071068286895752],"scale":[0.9980000257492065,1,1],"translation":[6,4.599999904632568,-6.996000289916992]},{"mesh":47,"name":"Wall_Plaster_Straight+upper.060","rotation":[0,0.7071068286895752,0,0.7071068286895752],"scale":[0.9980000257492065,1,1],"translation":[6,4.599999904632568,-8.992000579833984]},{"mesh":47,"name":"Wall_Plaster_Straight+upper.079","rotation":[0,-0.7071068286895752,0,0.7071068286895752],"translation":[-2,4.599999904632568,1]},{"mesh":47,"name":"Wall_Plaster_Straight+upper.080","rotation":[0,0.7071068286895752,0,0.7071068286895752],"translation":[2,4.599999904632568,1]},{"mesh":47,"name":"Wall_Plaster_Straight+upper.127","scale":[0.6000000238418579,1,1],"translation":[6.599999904632568,0.6000000238418579,-2]},{"mesh":47,"name":"Wall_Plaster_Straight+upper.128","rotation":[0,-1,0,4.371138828673793e-08],"scale":[0.6000000238418579,1,1],"translation":[6.599999904632568,0.6000000238418579,-6]},{"mesh":48,"name":"Wall_Plaster_Window_Thin_Round+upper.036","scale":[0.9983333349227905,1,1],"translation":[-2.994999885559082,4.599999904632568,0]},{"mesh":48,"name":"Wall_Plaster_Window_Thin_Round+upper.038","scale":[0.9983333349227905,1,1],"translation":[2.9950003623962402,4.599999904632568,0]},{"mesh":49,"name":"Wall_Plaster_Window_Wide_Flat2+upper.034","scale":[0.9983333349227905,1,1],"translation":[-4.991666316986084,4.599999904632568,0]},{"mesh":49,"name":"Wall_Plaster_Window_Wide_Flat2+upper.040","scale":[0.9983333349227905,1,1],"translation":[4.991666793823242,4.599999904632568,0]},{"mesh":49,"name":"Wall_Plaster_Window_Wide_Flat2+upper.044","rotation":[0,-1,0,4.371138828673793e-08],"scale":[0.9983333349227905,1,1],"translation":[0.9983330965042114,4.599999904632568,-10]},{"mesh":49,"name":"Wall_Plaster_Window_Wide_Flat2+upper.051","rotation":[0,-0.7071068286895752,0,0.7071068286895752],"scale":[0.9980000257492065,1,1],"translation":[-6,4.599999904632568,-4.999999046325684]},{"mesh":49,"name":"Wall_Plaster_Window_Wide_Flat2+upper.057","rotation":[0,0.7071068286895752,0,0.7071068286895752],"scale":[0.9980000257492065,1,1],"translation":[6,4.599999904632568,-5]},{"mesh":50,"name":"Wall_Plaster_Window_Wide_Round+upper.073","translation":[-1,4.599999904632568,2]},{"mesh":50,"name":"Wall_Plaster_Window_Wide_Round+upper.076","translation":[1,4.599999904632568,2]},{"mesh":51,"name":"Wall_Plaster_WoodGrid+upper.125","rotation":[0,0.7071068286895752,0,0.7071068286895752],"scale":[0.9950000047683716,1,1],"translation":[7.199999809265137,0.6000000238418579,-3.005000114440918]},{"mesh":51,"name":"Wall_Plaster_WoodGrid+upper.126","rotation":[0,0.7071068286895752,0,0.7071068286895752],"scale":[0.9950000047683716,1,1],"translation":[7.199999809265137,0.6000000238418579,-4.994999885559082]},{"mesh":52,"name":"Wall_UnevenBrick_Door_Round.065","scale":[2,1.3333333730697632,1],"translation":[0,0.6000000238418579,2]},{"mesh":53,"name":"Wall_UnevenBrick_Straight.011","rotation":[0,-1,0,4.371138828673793e-08],"scale":[0.9983333349227905,1.3333333730697632,1],"translation":[4.991666316986084,0.6000000238418579,-10]},{"mesh":53,"name":"Wall_UnevenBrick_Straight.014","rotation":[0,-1,0,4.371138828673793e-08],"scale":[0.9983333349227905,1.3333333730697632,1],"translation":[0.9983330965042114,0.6000000238418579,-10]},{"mesh":53,"name":"Wall_UnevenBrick_Straight.015","rotation":[0,-1,0,4.371138828673793e-08],"scale":[0.9983333349227905,1.3333333730697632,1],"translation":[-0.9983335733413696,0.6000000238418579,-10]},{"mesh":53,"name":"Wall_UnevenBrick_Straight.018","rotation":[0,-1,0,4.371138828673793e-08],"scale":[0.9983333349227905,1.3333333730697632,1],"translation":[-4.991666793823242,0.6000000238418579,-10]},{"mesh":53,"name":"Wall_UnevenBrick_Straight.019","rotation":[0,-0.7071068286895752,0,0.7071068286895752],"scale":[0.9980000257492065,1.3333333730697632,1],"translation":[-6,0.6000000238418579,-8.991999626159668]},{"mesh":53,"name":"Wall_UnevenBrick_Straight.022","rotation":[0,-0.7071068286895752,0,0.7071068286895752],"scale":[0.9980000257492065,1.3333333730697632,1],"translation":[-6,0.6000000238418579,-4.999999046325684]},{"mesh":53,"name":"Wall_UnevenBrick_Straight.025","rotation":[0,-0.7071068286895752,0,0.7071068286895752],"scale":[0.9980000257492065,1.3333333730697632,1],"translation":[-6,0.6000000238418579,-1.0079988241195679]},{"mesh":53,"name":"Wall_UnevenBrick_Straight.028","rotation":[0,0.7071068286895752,0,0.7071068286895752],"scale":[0.9980000257492065,1.3333333730697632,1],"translation":[6,0.6000000238418579,-3.004000186920166]},{"mesh":53,"name":"Wall_UnevenBrick_Straight.029","rotation":[0,0.7071068286895752,0,0.7071068286895752],"scale":[0.9980000257492065,1.3333333730697632,1],"translation":[6,0.6000000238418579,-8.992000579833984]},{"mesh":53,"name":"Wall_UnevenBrick_Straight.129","rotation":[0,0.7071068286895752,0,0.7071068286895752],"scale":[1,0.3333333432674408,1],"translation":[6,3.5999999046325684,-3]},{"mesh":53,"name":"Wall_UnevenBrick_Straight.130","rotation":[0,0.7071068286895752,0,0.7071068286895752],"scale":[1,0.3333333432674408,1],"translation":[6,3.5999999046325684,-5]},{"mesh":54,"name":"Wall_UnevenBrick_Window_Thin_Round.069","rotation":[0,-0.7071068286895752,0,0.7071068286895752],"scale":[1,1.3333333730697632,1],"translation":[-2,0.6000000238418579,1]},{"mesh":54,"name":"Wall_UnevenBrick_Window_Thin_Round.071","rotation":[0,0.7071068286895752,0,0.7071068286895752],"scale":[1,1.3333333730697632,1],"translation":[2,0.6000000238418579,1]},{"mesh":55,"name":"Wall_UnevenBrick_Window_Wide_Round.003","scale":[0.9983333349227905,1.3333333730697632,1],"translation":[-4.991666316986084,0.6000000238418579,0]},{"mesh":55,"name":"Wall_UnevenBrick_Window_Wide_Round.005","scale":[0.9983333349227905,1.3333333730697632,1],"translation":[-2.994999885559082,0.6000000238418579,0]},{"mesh":55,"name":"Wall_UnevenBrick_Window_Wide_Round.007","scale":[0.9983333349227905,1.3333333730697632,1],"translation":[2.9950003623962402,0.6000000238418579,0]},{"mesh":55,"name":"Wall_UnevenBrick_Window_Wide_Round.009","scale":[0.9983333349227905,1.3333333730697632,1],"translation":[4.991666793823242,0.6000000238418579,0]},{"mesh":55,"name":"Wall_UnevenBrick_Window_Wide_Round.012","rotation":[0,-1,0,4.371138828673793e-08],"scale":[0.9983333349227905,1.3333333730697632,1],"translation":[2.994999885559082,0.6000000238418579,-10]},{"mesh":55,"name":"Wall_UnevenBrick_Window_Wide_Round.016","rotation":[0,-1,0,4.371138828673793e-08],"scale":[0.9983333349227905,1.3333333730697632,1],"translation":[-2.9950003623962402,0.6000000238418579,-10]},{"mesh":55,"name":"Wall_UnevenBrick_Window_Wide_Round.020","rotation":[0,-0.7071068286895752,0,0.7071068286895752],"scale":[0.9980000257492065,1.3333333730697632,1],"translation":[-6,0.6000000238418579,-6.995999336242676]},{"mesh":55,"name":"Wall_UnevenBrick_Window_Wide_Round.023","rotation":[0,-0.7071068286895752,0,0.7071068286895752],"scale":[0.9980000257492065,1.3333333730697632,1],"translation":[-6,0.6000000238418579,-3.0039987564086914]},{"mesh":55,"name":"Wall_UnevenBrick_Window_Wide_Round.026","rotation":[0,0.7071068286895752,0,0.7071068286895752],"scale":[0.9980000257492065,1.3333333730697632,1],"translation":[6,0.6000000238418579,-1.0080000162124634]},{"mesh":56,"name":"Window_Thin_Round1.037","scale":[0.9983333349227905,1,1],"translation":[-2.994999885559082,4.599999904632568,0]},{"mesh":56,"name":"Window_Thin_Round1.039","scale":[0.9983333349227905,1,1],"translation":[2.9950003623962402,4.599999904632568,0]},{"mesh":56,"name":"Window_Thin_Round1.070","rotation":[0,-0.7071068286895752,0,0.7071068286895752],"scale":[1,1.3333333730697632,1],"translation":[-2,0.6000000238418579,1]},{"mesh":56,"name":"Window_Thin_Round1.072","rotation":[0,0.7071068286895752,0,0.7071068286895752],"scale":[1,1.3333333730697632,1],"translation":[2,0.6000000238418579,1]},{"mesh":57,"name":"Window_Wide_Flat1.035","scale":[0.9983333349227905,1,1],"translation":[-4.991666316986084,4.599999904632568,0]},{"mesh":57,"name":"Window_Wide_Flat1.041","scale":[0.9983333349227905,1,1],"translation":[4.991666793823242,4.599999904632568,0]},{"mesh":57,"name":"Window_Wide_Flat1.045","rotation":[0,-1,0,4.371138828673793e-08],"scale":[0.9983333349227905,1,1],"translation":[0.9983330965042114,4.599999904632568,-10]},{"mesh":57,"name":"Window_Wide_Flat1.052","rotation":[0,-0.7071068286895752,0,0.7071068286895752],"scale":[0.9980000257492065,1,1],"translation":[-6,4.599999904632568,-4.999999046325684]},{"mesh":57,"name":"Window_Wide_Flat1.058","rotation":[0,0.7071068286895752,0,0.7071068286895752],"scale":[0.9980000257492065,1,1],"translation":[6,4.599999904632568,-5]},{"mesh":58,"name":"Window_Wide_Round1.004","scale":[0.9983333349227905,1.3333333730697632,1],"translation":[-4.991666316986084,0.6000000238418579,0]},{"mesh":58,"name":"Window_Wide_Round1.006","scale":[0.9983333349227905,1.3333333730697632,1],"translation":[-2.994999885559082,0.6000000238418579,0]},{"mesh":58,"name":"Window_Wide_Round1.008","scale":[0.9983333349227905,1.3333333730697632,1],"translation":[2.9950003623962402,0.6000000238418579,0]},{"mesh":58,"name":"Window_Wide_Round1.010","scale":[0.9983333349227905,1.3333333730697632,1],"translation":[4.991666793823242,0.6000000238418579,0]},{"mesh":58,"name":"Window_Wide_Round1.013","rotation":[0,-1,0,4.371138828673793e-08],"scale":[0.9983333349227905,1.3333333730697632,1],"translation":[2.994999885559082,0.6000000238418579,-10]},{"mesh":58,"name":"Window_Wide_Round1.017","rotation":[0,-1,0,4.371138828673793e-08],"scale":[0.9983333349227905,1.3333333730697632,1],"translation":[-2.9950003623962402,0.6000000238418579,-10]},{"mesh":58,"name":"Window_Wide_Round1.021","rotation":[0,-0.7071068286895752,0,0.7071068286895752],"scale":[0.9980000257492065,1.3333333730697632,1],"translation":[-6,0.6000000238418579,-6.995999336242676]},{"mesh":58,"name":"Window_Wide_Round1.024","rotation":[0,-0.7071068286895752,0,0.7071068286895752],"scale":[0.9980000257492065,1.3333333730697632,1],"translation":[-6,0.6000000238418579,-3.0039987564086914]},{"mesh":58,"name":"Window_Wide_Round1.027","rotation":[0,0.7071068286895752,0,0.7071068286895752],"scale":[0.9980000257492065,1.3333333730697632,1],"translation":[6,0.6000000238418579,-1.0080000162124634]},{"mesh":58,"name":"Window_Wide_Round1.074","translation":[-1,4.599999904632568,2]},{"mesh":58,"name":"Window_Wide_Round1.077","translation":[1,4.599999904632568,2]},{"mesh":59,"name":"WindowShutters_Wide_Round_Open.075","translation":[-1,4.599999904632568,2]},{"mesh":59,"name":"WindowShutters_Wide_Round_Open.078","translation":[1,4.599999904632568,2]}],"scene":0,"scenes":[{"name":"Scene","nodes":[0,1,2,3,4,5,6,7,8,9,10,11,12,13,14,15,16,17,18,19,20,21,22,23,24,25,26,27,28,29,30,31,32,33,34,35,36,37,38,39,40,41,42,43,44,45,46,47,48,49,50,51,52,53,54,55,56,57,58,59,60,61,62,63,64,65,66,67,68,69,70,71,72,73,74,75,76,77,78,79,80,81,82,83,84,85,86,87,88,89,90,91,92,93,94,95,96,97,98,99,100,101,102,103,104,105,106,107,108,109,110,111,112,113,114,115,116,117,118,119,120,121,122,123,124,125,126,127,128,129,130,131,132,133,134]}],"textures":[{"source":0},{"source":1},{"source":2},{"source":3},{"source":4},{"source":5}]}