{"accessors":[{"bufferView":0,"componentType":5126,"count":80,"max":[0.09613287448883057,0.1274999976158142,0.4337572157382965],"min":[-0.7558286786079407,0.06750000268220901,-0.2182043194770813],"type":"VEC3"},{"bufferView":1,"componentType":5126,"count":80,"type":"VEC3"},{"bufferView":2,"componentType":5126,"count":80,"type":"VEC2"},{"bufferView":3,"componentType":5123,"count":96,"type":"SCALAR"},{"bufferView":4,"componentType":5126,"count":336,"max":[1.109145164489746,0.015000000596046448,0.7641182541847229],"min":[-1.109145164489746,0,-0.7641182541847229],"type":"VEC3"},{"bufferView":5,"componentType":5126,"count":336,"type":"VEC3"},{"bufferView":6,"componentType":5126,"count":336,"type":"VEC2"},{"bufferView":7,"componentType":5123,"count":588,"type":"SCALAR"},{"bufferView":8,"componentType":5126,"count":36,"max":[0.15675464272499084,0.08750000596046448,-0.09222356230020523],"min":[-0.016450434923171997,0.007500001695007086,-0.29222357273101807],"type":"VEC3"},{"bufferView":9,"componentType":5126,"count":36,"type":"VEC3"},{"bufferView":10,"componentType":5126,"count":36,"type":"VEC2"},{"bufferView":11,"componentType":5123,"count":60,"type":"SCALAR"},{"bufferView":12,"componentType":5126,"count":36,"max":[-0.6432453393936157,0.08750000596046448,0.5077764391899109],"min":[-0.8164504766464233,0.007500001695007086,0.30777645111083984],"type":"VEC3"},{"bufferView":13,"componentType":5126,"count":36,"type":"VEC3"},{"bufferView":14,"componentType":5126,"count":36,"type":"VEC2"}],"asset":{"generator":"Khronos glTF Blender I/O v5.2.40","version":"2.0"},"bufferViews":[{"buffer":0,"byteLength":960,"byteOffset":0,"target":34962},{"buffer":0,"byteLength":960,"byteOffset":960,"target":34962},{"buffer":0,"byteLength":640,"byteOffset":1920,"target":34962},{"buffer":0,"byteLength":192,"byteOffset":2560,"target":34963},{"buffer":0,"byteLength":4032,"byteOffset":2752,"target":34962},{"buffer":0,"byteLength":4032,"byteOffset":6784,"target":34962},{"buffer":0,"byteLength":2688,"byteOffset":10816,"target":34962},{"buffer":0,"byteLength":1176,"byteOffset":13504,"target":34963},{"buffer":0,"byteLength":432,"byteOffset":14680,"target":34962},{"buffer":0,"byteLength":432,"byteOffset":15112,"target":34962},{"buffer":0,"byteLength":288,"byteOffset":15544,"target":34962},{"buffer":0,"byteLength":120,"byteOffset":15832,"target":34963},{"buffer":0,"byteLength":432,"byteOffset":15952,"target":34962},{"buffer":0,"byteLength":432,"byteOffset":16384,"target":34962},{"buffer":0,"byteLength":288,"byteOffset":16816,"target":34962}],"buffers":[{"byteLength":17104,"uri":"lily_pads.bin"}],"images":[],"materials":[{"doubleSided":true,"name":"Prop_FlowerYellow","pbrMetallicRoughness":{"baseColorFactor":[0.8500000238418579,0.6000000238418579,0.05000000074505806,1],"metallicFactor":0,"roughnessFactor":0.699999988079071}},{"doubleSided":true,"name":"Prop_LilyPad","pbrMetallicRoughness":{"baseColorFactor":[0.05999999865889549,0.2199999988079071,0.05000000074505806,1],"metallicFactor":0,"roughnessFactor":0.4000000059604645}},{"doubleSided":true,"name":"Prop_FlowerPink","pbrMetallicRoughness":{"baseColorFactor":[0.8500000238418579,0.3499999940395355,0.5,1],"metallicFactor":0,"roughnessFactor":0.699999988079071}},{"doubleSided":true,"name":"Prop_FlowerWhite","pbrMetallicRoughness":{"baseColorFactor":[0.8500000238418579,0.8199999928474426,0.75,1],"metallicFactor":0,"roughnessFactor":0.699999988079071}}],"meshes":[{"name":"lily_pads","primitives":[{"attributes":{"NORMAL":1,"POSITION":0,"TEXCOORD_0":2},"indices":3,"material":0},{"attributes":{"NORMAL":5,"POSITION":4,"TEXCOORD_0":6},"indices":7,"material":1},{"attributes":{"NORMAL":9,"POSITION":8,"TEXCOORD_0":10},"indices":11,"material":2},{"attributes":{"NORMAL":13,"POSITION":12,"TEXCOORD_0":14},"indices":11,"material":3}]}],"nodes":[{"mesh":0,"name":"lily_pads"}],"scene":0,"scenes":[{"name":"Scene","nodes":[0]}],"textures":[]}
