{"accessors":[{"bufferView":0,"componentType":5126,"count":24,"type":"VEC3"},{"bufferView":1,"componentType":5126,"count":24,"max":[-2.700000047683716,2.299999952316284,1.7000000476837158],"min":[-2.9000000953674316,0.18000000715255737,1.5],"type":"VEC3"},{"bufferView":2,"componentType":5126,"count":24,"type":"VEC2"},{"bufferView":3,"componentType":5123,"count":36,"type":"SCALAR"},{"bufferView":4,"componentType":5126,"count":24,"type":"VEC3"},{"bufferView":5,"componentType":5126,"count":24,"max":[2.9000000953674316,2.299999952316284,1.7000000476837158],"min":[2.700000047683716,0.18000000715255737,1.5],"type":"VEC3"},{"bufferView":6,"componentType":5126,"count":24,"type":"VEC2"},{"bufferView":7,"componentType":5126,"count":20,"type":"VEC3"},{"bufferView":8,"componentType":5126,"count":20,"max":[-3.049999952316284,2.4000000953674316,-1.899999976158142],"min":[-4.050000190734863,0,-3.0999999046325684],"type":"VEC3"},{"bufferView":9,"componentType":5126,"count":20,"type":"VEC2"},{"bufferView":10,"componentType":5123,"count":30,"type":"SCALAR"},{"bufferView":11,"componentType":5126,"count":24,"type":"VEC3"},{"bufferView":12,"componentType":5126,"count":24,"max":[-3.200000047683716,5.872399806976318,-2.0999999046325684],"min":[-3.9000000953674316,2.4000000953674316,-2.9000000953674316],"type":"VEC3"},{"bufferView":13,"componentType":5126,"count":24,"type":"VEC2"},{"bufferView":14,"componentType":5126,"count":20,"type":"VEC3"},{"bufferView":15,"componentType":5126,"count":20,"max":[-0.6000000238418579,2.0999999046325684,0.30000001192092896],"min":[-1.600000023841858,0,0.11999999731779099],"type":"VEC3"},{"bufferView":16,"componentType":5126,"count":6,"type":"VEC3"},{"bufferView":17,"componentType":5126,"count":6,"max":[3,4.822400093078613,0],"min":[-3,2.6723999977111816,-5],"type":"VEC3"},{"bufferView":18,"componentType":5123,"count":6,"type":"SCALAR"},{"bufferView":19,"componentType":5126,"count":20,"type":"VEC3"},{"bufferView":20,"componentType":5126,"count":20,"max":[-1.600000023841858,2.200000047683716,0.3199999928474426],"min":[-1.7200000286102295,0,0.10000000149011612],"type":"VEC3"},{"bufferView":21,"componentType":5126,"count":20,"type":"VEC2"},{"bufferView":22,"componentType":5126,"count":20,"type":"VEC3"},{"bufferView":23,"componentType":5126,"count":20,"max":[-0.47999998927116394,2.200000047683716,0.3199999928474426],"min":[-0.6000000238418579,0,0.10000000149011612],"type":"VEC3"},{"bufferView":24,"componentType":5126,"count":20,"type":"VEC2"},{"bufferView":25,"componentType":5126,"count":24,"type":"VEC3"},{"bufferView":26,"componentType":5126,"count":24,"max":[-0.47999998927116394,2.25,0.3199999928474426],"min":[-1.7200000286102295,2.0999999046325684,0.10000000149011612],"type":"VEC3"},{"bufferView":27,"componentType":5126,"count":24,"type":"VEC2"},{"bufferView":28,"componentType":5126,"count":36,"type":"VEC3"},{"bufferView":29,"componentType":5126,"count":36,"max":[3.3499999046325684,0.31722432374954224,0.17000000178813934],"min":[-3.3499999046325684,0.02277567982673645,-0.17000000178813934],"type":"VEC3"},{"bufferView":30,"componentType":5126,"count":36,"type":"VEC2"},{"bufferView":31,"componentType":5123,"count":60,"type":"SCALAR"},{"bufferView":32,"componentType":5126,"count":36,"type":"VEC3"},{"bufferView":33,"componentType":5126,"count":36,"max":[3.3499999046325684,0.31722432374954224,-4.829999923706055],"min":[-3.3499999046325684,0.02277567982673645,-5.170000076293945],"type":"VEC3"},{"bufferView":34,"componentType":5126,"count":36,"type":"VEC2"},{"bufferView":35,"componentType":5126,"count":36,"type":"VEC3"},{"bufferView":36,"componentType":5126,"count":36,"max":[-2.8299994468688965,0.4736243486404419,0.3499999940395355],"min":[-3.1700000762939453,0.17917568981647491,-5.349999904632568],"type":"VEC3"},{"bufferView":37,"componentType":5126,"count":36,"type":"VEC2"},{"bufferView":38,"componentType":5123,"count":60,"type":"SCALAR"},{"bufferView":39,"componentType":5126,"count":36,"type":"VEC3"},{"bufferView":40,"componentType":5126,"count":36,"max":[3.1700005531311035,0.4736243486404419,0.3499999940395355],"min":[2.8299999237060547,0.17917568981647491,-5.349999904632568],"type":"VEC3"},{"bufferView":41,"componentType":5126,"count":36,"type":"VEC2"},{"bufferView":42,"componentType":5126,"count":36,"type":"VEC3"},{"bufferView":43,"componentType":5126,"count":36,"max":[3.3499999046325684,0.6300243139266968,0.17000000178813934],"min":[-3.3499999046325684,0.3355756998062134,-0.17000000178813934],"type":"VEC3"},{"bufferView":44,"componentType":5126,"count":36,"type":"VEC2"},{"bufferView":45,"componentType":5126,"count":36,"type":"VEC3"},{"bufferView":46,"componentType":5126,"count":36,"max":[3.3499999046325684,0.6300243139266968,-4.829999923706055],"min":[-3.3499999046325684,0.3355756998062134,-5.170000076293945],"type":"VEC3"},{"bufferView":47,"componentType":5126,"count":36,"type":"VEC2"},{"bufferView":48,"componentType":5126,"count":36,"type":"VEC3"},{"bufferView":49,"componentType":5126,"count":36,"max":[-2.8299994468688965,0.7864242792129517,0.3499999940395355],"min":[-3.1700000762939453,0.49197566509246826,-5.349999904632568],"type":"VEC3"},{"bufferView":50,"componentType":5126,"count":36,"type":"VEC2"},{"bufferView":51,"componentType":5126,"count":36,"type":"VEC3"},{"bufferView":52,"componentType":5126,"count":36,"max":[3.1700005531311035,0.7864242792129517,0.3499999940395355],"min":[2.8299999237060547,0.49197566509246826,-5.349999904632568],"type":"VEC3"},{"bufferView":53,"componentType":5126,"count":36,"type":"VEC2"},{"bufferView":54,"componentType":5126,"count":36,"type":"VEC3"},{"bufferView":55,"componentType":5126,"count":36,"max":[3.3499999046325684,0.9428243041038513,0.17000000178813934],"min":[-3.3499999046325684,0.6483756899833679,-0.17000000178813934],"type":"VEC3"},{"bufferView":56,"componentType":5126,"count":36,"type":"VEC2"},{"bufferView":57,"componentType":5126,"count":36,"type":"VEC3"},{"bufferView":58,"componentType":5126,"count":36,"max":[3.3499999046325684,0.9428243041038513,-4.829999923706055],"min":[-3.3499999046325684,0.6483756899833679,-5.170000076293945],"type":"VEC3"},{"bufferView":59,"componentType":5126,"count":36,"type":"VEC2"},{"bufferView":60,"componentType":5126,"count":36,"type":"VEC3"},{"bufferView":61,"componentType":5126,"count":36,"max":[-2.8299994468688965,1.099224328994751,0.3499999940395355],"min":[-3.1700000762939453,0.8047757148742676,-5.349999904632568],"type":"VEC3"},{"bufferView":62,"componentType":5126,"count":36,"type":"VEC2"},{"bufferView":63,"componentType":5126,"count":36,"type":"VEC3"},{"bufferView":64,"componentType":5126,"count":36,"max":[3.1700005531311035,1.099224328994751,0.3499999940395355],"min":[2.8299999237060547,0.8047757148742676,-5.349999904632568],"type":"VEC3"},{"bufferView":65,"componentType":5126,"count":36,"type":"VEC2"},{"bufferView":66,"componentType":5126,"count":36,"type":"VEC3"},{"bufferView":67,"componentType":5126,"count":36,"max":[3.3499999046325684,1.2556242942810059,0.17000000178813934],"min":[-3.3499999046325684,0.9611756801605225,-0.17000000178813934],"type":"VEC3"},{"bufferView":68,"componentType":5126,"count":36,"type":"VEC2"},{"bufferView":69,"componentType":5126,"count":36,"type":"VEC3"},{"bufferView":70,"componentType":5126,"count":36,"max":[3.3499999046325684,1.2556242942810059,-4.829999923706055],"min":[-3.3499999046325684,0.9611756801605225,-5.170000076293945],"type":"VEC3"},{"bufferView":71,"componentType":5126,"count":36,"type":"VEC2"},{"bufferView":72,"componentType":5126,"count":36,"type":"VEC3"},{"bufferView":73,"componentType":5126,"count":36,"max":[-2.8299994468688965,1.4120242595672607,0.3499999940395355],"min":[-3.1700000762939453,1.1175756454467773,-5.349999904632568],"type":"VEC3"},{"bufferView":74,"componentType":5126,"count":36,"type":"VEC2"},{"bufferView":75,"componentType":5126,"count":36,"type":"VEC3"},{"bufferView":76,"componentType":5126,"count":36,"max":[3.1700005531311035,1.4120242595672607,0.3499999940395355],"min":[2.8299999237060547,1.1175756454467773,-5.349999904632568],"type":"VEC3"},{"bufferView":77,"componentType":5126,"count":36,"type":"VEC2"},{"bufferView":78,"componentType":5126,"count":36,"type":"VEC3"},{"bufferView":79,"componentType":5126,"count":36,"max":[3.3499999046325684,1.5684243440628052,0.17000000178813934],"min":[-3.3499999046325684,1.2739757299423218,-0.17000000178813934],"type":"VEC3"},{"bufferView":80,"componentType":5126,"count":36,"type":"VEC2"},{"bufferView":81,"componentType":5126,"count":36,"type":"VEC3"},{"bufferView":82,"componentType":5126,"count":36,"max":[3.3499999046325684,1.5684243440628052,-4.829999923706055],"min":[-3.3499999046325684,1.2739757299423218,-5.170000076293945],"type":"VEC3"},{"bufferView":83,"componentType":5126,"count":36,"type":"VEC2"},{"bufferView":84,"componentType":5126,"count":36,"type":"VEC3"},{"bufferView":85,"componentType":5126,"count":36,"max":[-2.8299994468688965,1.72482430934906,0.3499999940395355],"min":[-3.1700000762939453,1.4303756952285767,-5.349999904632568],"type":"VEC3"},{"bufferView":86,"componentType":5126,"count":36,"type":"VEC2"},{"bufferView":87,"componentType":5126,"count":36,"type":"VEC3"},{"bufferView":88,"componentType":5126,"count":36,"max":[3.1700005531311035,1.72482430934906,0.3499999940395355],"min":[2.8299999237060547,1.4303756952285767,-5.349999904632568],"type":"VEC3"},{"bufferView":89,"componentType":5126,"count":36,"type":"VEC2"},{"bufferView":90,"componentType":5126,"count":36,"type":"VEC3"},{"bufferView":91,"componentType":5126,"count":36,"max":[3.3499999046325684,1.881224274635315,0.17000000178813934],"min":[-3.3499999046325684,1.5867756605148315,-0.17000000178813934],"type":"VEC3"},{"bufferView":92,"componentType":5126,"count":36,"type":"VEC2"},{"bufferView":93,"componentType":5126,"count":36,"type":"VEC3"},{"bufferView":94,"componentType":5126,"count":36,"max":[3.3499999046325684,1.881224274635315,-4.829999923706055],"min":[-3.3499999046325684,1.5867756605148315,-5.170000076293945],"type":"VEC3"},{"bufferView":95,"componentType":5126,"count":36,"type":"VEC2"},{"bufferView":96,"componentType":5126,"count":36,"type":"VEC3"},{"bufferView":97,"componentType":5126,"count":36,"max":[-2.8299994468688965,2.0376243591308594,0.3499999940395355],"min":[-3.1700000762939453,1.743175745010376,-5.349999904632568],"type":"VEC3"},{"bufferView":98,"componentType":5126,"count":36,"type":"VEC2"},{"bufferView":99,"componentType":5126,"count":36,"type":"VEC3"},{"bufferView":100,"componentType":5126,"count":36,"max":[3.1700005531311035,2.0376243591308594,0.3499999940395355],"min":[2.8299999237060547,1.743175745010376,-5.349999904632568],"type":"VEC3"},{"bufferView":101,"componentType":5126,"count":36,"type":"VEC2"},{"bufferView":102,"componentType":5126,"count":36,"type":"VEC3"},{"bufferView":103,"componentType":5126,"count":36,"max":[3.3499999046325684,2.1940243244171143,0.17000000178813934],"min":[-3.3499999046325684,1.8995755910873413,-0.17000000178813934],"type":"VEC3"},{"bufferView":104,"componentType":5126,"count":36,"type":"VEC2"},{"bufferView":105,"componentType":5126,"count":36,"type":"VEC3"},{"bufferView":106,"componentType":5126,"count":36,"max":[3.3499999046325684,2.1940243244171143,-4.829999923706055],"min":[-3.3499999046325684,1.8995755910873413,-5.170000076293945],"type":"VEC3"},{"bufferView":107,"componentType":5126,"count":36,"type":"VEC2"},{"bufferView":108,"componentType":5126,"count":36,"type":"VEC3"},{"bufferView":109,"componentType":5126,"count":36,"max":[-2.8299994468688965,2.3504245281219482,0.3499999940395355],"min":[-3.1700000762939453,2.0559756755828857,-5.349999904632568],"type":"VEC3"},{"bufferView":110,"componentType":5126,"count":36,"type":"VEC2"},{"bufferView":111,"componentType":5126,"count":36,"type":"VEC3"},{"bufferView":112,"componentType":5126,"count":36,"max":[3.1700005531311035,2.3504245281219482,0.3499999940395355],"min":[2.8299999237060547,2.0559756755828857,-5.349999904632568],"type":"VEC3"},{"bufferView":113,"componentType":5126,"count":36,"type":"VEC2"},{"bufferView":114,"componentType":5126,"count":36,"type":"VEC3"},{"bufferView":115,"componentType":5126,"count":36,"max":[3.3499999046325684,2.506824493408203,0.17000000178813934],"min":[-3.3499999046325684,2.2123756408691406,-0.17000000178813934],"type":"VEC3"},{"bufferView":116,"componentType":5126,"count":36,"type":"VEC2"},{"bufferView":117,"componentType":5126,"count":36,"type":"VEC3"},{"bufferView":118,"componentType":5126,"count":36,"max":[3.3499999046325684,2.506824493408203,-4.829999923706055],"min":[-3.3499999046325684,2.2123756408691406,-5.170000076293945],"type":"VEC3"},{"bufferView":119,"componentType":5126,"count":36,"type":"VEC2"},{"bufferView":120,"componentType":5126,"count":36,"type":"VEC3"},{"bufferView":121,"componentType":5126,"count":36,"max":[-2.8299994468688965,2.663224458694458,0.3499999940395355],"min":[-3.1700000762939453,2.3687756061553955,-5.349999904632568],"type":"VEC3"},{"bufferView":122,"componentType":5126,"count":36,"type":"VEC2"},{"bufferView":123,"componentType":5126,"count":36,"type":"VEC3"},{"bufferView":124,"componentType":5126,"count":36,"max":[3.1700005531311035,2.663224458694458,0.3499999940395355],"min":[2.8299999237060547,2.3687756061553955,-5.349999904632568],"type":"VEC3"},{"bufferView":125,"componentType":5126,"count":36,"type":"VEC2"},{"bufferView":126,"componentType":5126,"count":20,"type":"VEC3"},{"bufferView":127,"componentType":5126,"count":20,"max":[3,0.18000000715255737,1.7999999523162842],"min":[-3,0,0.20000000298023224],"type":"VEC3"},{"bufferView":128,"componentType":5126,"count":20,"type":"VEC2"},{"bufferView":129,"componentType":5126,"count":24,"type":"VEC3"},{"bufferView":130,"componentType":5126,"count":24,"max":[3.200000047683716,2.5999999046325684,2.140285015106201],"min":[-3.200000047683716,2.017914295196533,0.17574630677700043],"type":"VEC3"},{"bufferView":131,"componentType":5126,"count":24,"type":"VEC2"},{"bufferView":132,"componentType":5123,"count":36,"type":"SCALAR"},{"bufferView":133,"componentType":5126,"count":24,"type":"VEC3"},{"bufferView":134,"componentType":5126,"count":24,"max":[0.14000000059604645,4.9923996925354,0.6500000953674316],"min":[-0.14000000059604645,4.77239990234375,-5.650000095367432],"type":"VEC3"},{"bufferView":135,"componentType":5126,"count":24,"type":"VEC2"},{"bufferView":136,"componentType":5126,"count":24,"type":"VEC3"},{"bufferView":137,"componentType":5126,"count":24,"max":[3.6000001430511475,4.872399806976318,0.5999999046325684],"min":[-0.09461818635463715,2.10337495803833,-5.599999904632568],"type":"VEC3"},{"bufferView":138,"componentType":5126,"count":24,"type":"VEC2"},{"bufferView":139,"componentType":5123,"count":36,"type":"SCALAR"},{"bufferView":140,"componentType":5126,"count":24,"type":"VEC3"},{"bufferView":141,"componentType":5126,"count":24,"max":[0.09461845457553864,4.872399806976318,0.5999999046325684],"min":[-3.6000003814697266,2.10337495803833,-5.600000381469727],"type":"VEC3"},{"bufferView":142,"componentType":5126,"count":24,"type":"VEC2"},{"bufferView":143,"componentType":5123,"count":36,"type":"SCALAR"},{"bufferView":144,"componentType":5126,"count":24,"type":"VEC3"},{"bufferView":145,"componentType":5126,"count":24,"max":[1.899999976158142,1.899999976158142,0.2800000011920929],"min":[0.8999999761581421,1.100000023841858,0.18000000715255737],"type":"VEC3"},{"bufferView":146,"componentType":5126,"count":24,"type":"VEC3"},{"bufferView":147,"componentType":5126,"count":24,"max":[3.2799999713897705,1.899999976158142,-2],"min":[3.180000066757202,1.100000023841858,-3],"type":"VEC3"},{"bufferView":148,"componentType":5123,"count":36,"type":"SCALAR"},{"bufferView":149,"componentType":5126,"count":24,"type":"VEC3"},{"bufferView":150,"componentType":5126,"count":24,"max":[0.5,1.899999976158142,-5.179999828338623],"min":[-0.5,1.100000023841858,-5.279999732971191],"type":"VEC3"},{"bufferView":151,"componentType":5126,"count":24,"type":"VEC3"},{"bufferView":152,"componentType":5126,"count":24,"max":[2,1.100000023841858,0.3199999928474426],"min":[0.7999999523162842,1,0.20000000298023224],"type":"VEC3"},{"bufferView":153,"componentType":5126,"count":24,"type":"VEC2"},{"bufferView":154,"componentType":5126,"count":24,"type":"VEC3"},{"bufferView":155,"componentType":5126,"count":24,"max":[2,2,0.3199999928474426],"min":[0.7999999523162842,1.899999976158142,0.20000000298023224],"type":"VEC3"},{"bufferView":156,"componentType":5126,"count":24,"type":"VEC2"},{"bufferView":157,"componentType":5126,"count":24,"type":"VEC3"},{"bufferView":158,"componentType":5126,"count":24,"max":[0.8999999761581421,1.899999976158142,0.3199999928474426],"min":[0.7999999523162842,1.100000023841858,0.20000000298023224],"type":"VEC3"},{"bufferView":159,"componentType":5126,"count":24,"type":"VEC2"},{"bufferView":160,"componentType":5126,"count":24,"type":"VEC3"},{"bufferView":161,"componentType":5126,"count":24,"max":[2,1.899999976158142,0.3199999928474426],"min":[1.899999976158142,1.100000023841858,0.20000000298023224],"type":"VEC3"},{"bufferView":162,"componentType":5126,"count":24,"type":"VEC2"},{"bufferView":163,"componentType":5126,"count":24,"type":"VEC3"},{"bufferView":164,"componentType":5126,"count":24,"max":[1.4299999475479126,1.899999976158142,0.3100000023841858],"min":[1.3700000047683716,1.100000023841858,0.21000000834465027],"type":"VEC3"},{"bufferView":165,"componentType":5126,"count":24,"type":"VEC2"},{"bufferView":166,"componentType":5126,"count":24,"type":"VEC3"},{"bufferView":167,"componentType":5126,"count":24,"max":[3.320000171661377,1.100000023841858,-1.899999976158142],"min":[3.200000047683716,1,-3.0999999046325684],"type":"VEC3"},{"bufferView":168,"componentType":5126,"count":24,"type":"VEC2"},{"bufferView":169,"componentType":5126,"count":24,"type":"VEC3"},{"bufferView":170,"componentType":5126,"count":24,"max":[3.320000171661377,2,-1.899999976158142],"min":[3.200000047683716,1.899999976158142,-3.0999999046325684],"type":"VEC3"},{"bufferView":171,"componentType":5126,"count":24,"type":"VEC2"},{"bufferView":172,"componentType":5126,"count":24,"type":"VEC3"},{"bufferView":173,"componentType":5126,"count":24,"max":[3.319999933242798,1.899999976158142,-1.899999976158142],"min":[3.200000047683716,1.100000023841858,-2],"type":"VEC3"},{"bufferView":174,"componentType":5126,"count":24,"type":"VEC2"},{"bufferView":175,"componentType":5126,"count":24,"type":"VEC3"},{"bufferView":176,"componentType":5126,"count":24,"max":[3.320000171661377,1.899999976158142,-3],"min":[3.200000047683716,1.100000023841858,-3.0999999046325684],"type":"VEC3"},{"bufferView":177,"componentType":5126,"count":24,"type":"VEC2"},{"bufferView":178,"componentType":5126,"count":24,"type":"VEC3"},{"bufferView":179,"componentType":5126,"count":24,"max":[3.309999942779541,1.899999976158142,-2.4700000286102295],"min":[3.2100000381469727,1.100000023841858,-2.5299999713897705],"type":"VEC3"},{"bufferView":180,"componentType":5126,"count":24,"type":"VEC2"},{"bufferView":181,"componentType":5126,"count":24,"type":"VEC3"},{"bufferView":182,"componentType":5126,"count":24,"max":[0.6000000238418579,1.100000023841858,-5.199999809265137],"min":[-0.6000000238418579,1,-5.319999694824219],"type":"VEC3"},{"bufferView":183,"componentType":5126,"count":24,"type":"VEC2"},{"bufferView":184,"componentType":5126,"count":24,"type":"VEC3"},{"bufferView":185,"componentType":5126,"count":24,"max":[0.6000000238418579,2,-5.199999809265137],"min":[-0.6000000238418579,1.899999976158142,-5.319999694824219],"type":"VEC3"},{"bufferView":186,"componentType":5126,"count":24,"type":"VEC2"},{"bufferView":187,"componentType":5126,"count":24,"type":"VEC3"},{"bufferView":188,"componentType":5126,"count":24,"max":[0.6000000238418579,1.899999976158142,-5.199999809265137],"min":[0.5,1.100000023841858,-5.319999694824219],"type":"VEC3"},{"bufferView":189,"componentType":5126,"count":24,"type":"VEC2"},{"bufferView":190,"componentType":5126,"count":24,"type":"VEC3"},{"bufferView":191,"componentType":5126,"count":24,"max":[-0.5,1.899999976158142,-5.199999809265137],"min":[-0.6000000238418579,1.100000023841858,-5.319999694824219],"type":"VEC3"},{"bufferView":192,"componentType":5126,"count":24,"type":"VEC2"},{"bufferView":193,"componentType":5126,"count":24,"type":"VEC3"},{"bufferView":194,"componentType":5126,"count":24,"max":[0.030000008642673492,1.899999976158142,-5.210000038146973],"min":[-0.029999999329447746,1.100000023841858,-5.309999942779541],"type":"VEC3"},{"bufferView":195,"componentType":5126,"count":24,"type":"VEC2"}],"asset":{"generator":"Khronos glTF Blender I/O v5.2.40","version":"2.0"},"bufferViews":[{"buffer":0,"byteOffset":0,"byteLength":288,"target":34962},{"buffer":0,"byteOffset":288,"byteLength":288,"target":34962},{"buffer":0,"byteOffset":576,"byteLength":192,"target":34962},{"buffer":0,"byteOffset":768,"byteLength":72,"target":34963},{"buffer":0,"byteOffset":840,"byteLength":288,"target":34962},{"buffer":0,"byteOffset":1128,"byteLength":288,"target":34962},{"buffer":0,"byteOffset":1416,"byteLength":192,"target":34962},{"buffer":0,"byteOffset":1608,"byteLength":240,"target":34962},{"buffer":0,"byteOffset":1848,"byteLength":240,"target":34962},{"buffer":0,"byteOffset":2088,"byteLength":160,"target":34962},{"buffer":0,"byteOffset":2248,"byteLength":60,"target":34963},{"buffer":0,"byteOffset":2308,"byteLength":288,"target":34962},{"buffer":0,"byteOffset":2596,"byteLength":288,"target":34962},{"buffer":0,"byteOffset":2884,"byteLength":192,"target":34962},{"buffer":0,"byteOffset":3076,"byteLength":240,"target":34962},{"buffer":0,"byteOffset":3316,"byteLength":240,"target":34962},{"buffer":0,"byteOffset":3556,"byteLength":72,"target":34962},{"buffer":0,"byteOffset":3628,"byteLength":72,"target":34962},{"buffer":0,"byteOffset":3700,"byteLength":12,"target":34963},{"buffer":0,"byteOffset":3712,"byteLength":240,"target":34962},{"buffer":0,"byteOffset":3952,"byteLength":240,"target":34962},{"buffer":0,"byteOffset":4192,"byteLength":160,"target":34962},{"buffer":0,"byteOffset":4352,"byteLength":240,"target":34962},{"buffer":0,"byteOffset":4592,"byteLength":240,"target":34962},{"buffer":0,"byteOffset":4832,"byteLength":160,"target":34962},{"buffer":0,"byteOffset":4992,"byteLength":288,"target":34962},{"buffer":0,"byteOffset":5280,"byteLength":288,"target":34962},{"buffer":0,"byteOffset":5568,"byteLength":192,"target":34962},{"buffer":0,"byteOffset":5760,"byteLength":432,"target":34962},{"buffer":0,"byteOffset":6192,"byteLength":432,"target":34962},{"buffer":0,"byteOffset":6624,"byteLength":288,"target":34962},{"buffer":0,"byteOffset":6912,"byteLength":120,"target":34963},{"buffer":0,"byteOffset":7032,"byteLength":432,"target":34962},{"buffer":0,"byteOffset":7464,"byteLength":432,"target":34962},{"buffer":0,"byteOffset":7896,"byteLength":288,"target":34962},{"buffer":0,"byteOffset":8184,"byteLength":432,"target":34962},{"buffer":0,"byteOffset":8616,"byteLength":432,"target":34962},{"buffer":0,"byteOffset":9048,"byteLength":288,"target":34962},{"buffer":0,"byteOffset":9336,"byteLength":120,"target":34963},{"buffer":0,"byteOffset":9456,"byteLength":432,"target":34962},{"buffer":0,"byteOffset":9888,"byteLength":432,"target":34962},{"buffer":0,"byteOffset":10320,"byteLength":288,"target":34962},{"buffer":0,"byteOffset":10608,"byteLength":432,"target":34962},{"buffer":0,"byteOffset":11040,"byteLength":432,"target":34962},{"buffer":0,"byteOffset":11472,"byteLength":288,"target":34962},{"buffer":0,"byteOffset":11760,"byteLength":432,"target":34962},{"buffer":0,"byteOffset":12192,"byteLength":432,"target":34962},{"buffer":0,"byteOffset":12624,"byteLength":288,"target":34962},{"buffer":0,"byteOffset":12912,"byteLength":432,"target":34962},{"buffer":0,"byteOffset":13344,"byteLength":432,"target":34962},{"buffer":0,"byteOffset":13776,"byteLength":288,"target":34962},{"buffer":0,"byteOffset":14064,"byteLength":432,"target":34962},{"buffer":0,"byteOffset":14496,"byteLength":432,"target":34962},{"buffer":0,"byteOffset":14928,"byteLength":288,"target":34962},{"buffer":0,"byteOffset":15216,"byteLength":432,"target":34962},{"buffer":0,"byteOffset":15648,"byteLength":432,"target":34962},{"buffer":0,"byteOffset":16080,"byteLength":288,"target":34962},{"buffer":0,"byteOffset":16368,"byteLength":432,"target":34962},{"buffer":0,"byteOffset":16800,"byteLength":432,"target":34962},{"buffer":0,"byteOffset":17232,"byteLength":288,"target":34962},{"buffer":0,"byteOffset":17520,"byteLength":432,"target":34962},{"buffer":0,"byteOffset":17952,"byteLength":432,"target":34962},{"buffer":0,"byteOffset":18384,"byteLength":288,"target":34962},{"buffer":0,"byteOffset":18672,"byteLength":432,"target":34962},{"buffer":0,"byteOffset":19104,"byteLength":432,"target":34962},{"buffer":0,"byteOffset":19536,"byteLength":288,"target":34962},{"buffer":0,"byteOffset":19824,"byteLength":432,"target":34962},{"buffer":0,"byteOffset":20256,"byteLength":432,"target":34962},{"buffer":0,"byteOffset":20688,"byteLength":288,"target":34962},{"buffer":0,"byteOffset":20976,"byteLength":432,"target":34962},{"buffer":0,"byteOffset":21408,"byteLength":432,"target":34962},{"buffer":0,"byteOffset":21840,"byteLength":288,"target":34962},{"buffer":0,"byteOffset":22128,"byteLength":432,"target":34962},{"buffer":0,"byteOffset":22560,"byteLength":432,"target":34962},{"buffer":0,"byteOffset":22992,"byteLength":288,"target":34962},{"buffer":0,"byteOffset":23280,"byteLength":432,"target":34962},{"buffer":0,"byteOffset":23712,"byteLength":432,"target":34962},{"buffer":0,"byteOffset":24144,"byteLength":288,"target":34962},{"buffer":0,"byteOffset":24432,"byteLength":432,"target":34962},{"buffer":0,"byteOffset":24864,"byteLength":432,"target":34962},{"buffer":0,"byteOffset":25296,"byteLength":288,"target":34962},{"buffer":0,"byteOffset":25584,"byteLength":432,"target":34962},{"buffer":0,"byteOffset":26016,"byteLength":432,"target":34962},{"buffer":0,"byteOffset":26448,"byteLength":288,"target":34962},{"buffer":0,"byteOffset":26736,"byteLength":432,"target":34962},{"buffer":0,"byteOffset":27168,"byteLength":432,"target":34962},{"buffer":0,"byteOffset":27600,"byteLength":288,"target":34962},{"buffer":0,"byteOffset":27888,"byteLength":432,"target":34962},{"buffer":0,"byteOffset":28320,"byteLength":432,"target":34962},{"buffer":0,"byteOffset":28752,"byteLength":288,"target":34962},{"buffer":0,"byteOffset":29040,"byteLength":432,"target":34962},{"buffer":0,"byteOffset":29472,"byteLength":432,"target":34962},{"buffer":0,"byteOffset":29904,"byteLength":288,"target":34962},{"buffer":0,"byteOffset":30192,"byteLength":432,"target":34962},{"buffer":0,"byteOffset":30624,"byteLength":432,"target":34962},{"buffer":0,"byteOffset":31056,"byteLength":288,"target":34962},{"buffer":0,"byteOffset":31344,"byteLength":432,"target":34962},{"buffer":0,"byteOffset":31776,"byteLength":432,"target":34962},{"buffer":0,"byteOffset":32208,"byteLength":288,"target":34962},{"buffer":0,"byteOffset":32496,"byteLength":432,"target":34962},{"buffer":0,"byteOffset":32928,"byteLength":432,"target":34962},{"buffer":0,"byteOffset":33360,"byteLength":288,"target":34962},{"buffer":0,"byteOffset":33648,"byteLength":432,"target":34962},{"buffer":0,"byteOffset":34080,"byteLength":432,"target":34962},{"buffer":0,"byteOffset":34512,"byteLength":288,"target":34962},{"buffer":0,"byteOffset":34800,"byteLength":432,"target":34962},{"buffer":0,"byteOffset":35232,"byteLength":432,"target":34962},{"buffer":0,"byteOffset":35664,"byteLength":288,"target":34962},{"buffer":0,"byteOffset":35952,"byteLength":432,"target":34962},{"buffer":0,"byteOffset":36384,"byteLength":432,"target":34962},{"buffer":0,"byteOffset":36816,"byteLength":288,"target":34962},{"buffer":0,"byteOffset":37104,"byteLength":432,"target":34962},{"buffer":0,"byteOffset":37536,"byteLength":432,"target":34962},{"buffer":0,"byteOffset":37968,"byteLength":288,"target":34962},{"buffer":0,"byteOffset":38256,"byteLength":432,"target":34962},{"buffer":0,"byteOffset":38688,"byteLength":432,"target":34962},{"buffer":0,"byteOffset":39120,"byteLength":288,"target":34962},{"buffer":0,"byteOffset":39408,"byteLength":432,"target":34962},{"buffer":0,"byteOffset":39840,"byteLength":432,"target":34962},{"buffer":0,"byteOffset":40272,"byteLength":288,"target":34962},{"buffer":0,"byteOffset":40560,"byteLength":432,"target":34962},{"buffer":0,"byteOffset":40992,"byteLength":432,"target":34962},{"buffer":0,"byteOffset":41424,"byteLength":288,"target":34962},{"buffer":0,"byteOffset":41712,"byteLength":432,"target":34962},{"buffer":0,"byteOffset":42144,"byteLength":432,"target":34962},{"buffer":0,"byteOffset":42576,"byteLength":288,"target":34962},{"buffer":0,"byteOffset":42864,"byteLength":240,"target":34962},{"buffer":0,"byteOffset":43104,"byteLength":240,"target":34962},{"buffer":0,"byteOffset":43344,"byteLength":160,"target":34962},{"buffer":0,"byteOffset":43504,"byteLength":288,"target":34962},{"buffer":0,"byteOffset":43792,"byteLength":288,"target":34962},{"buffer":0,"byteOffset":44080,"byteLength":192,"target":34962},{"buffer":0,"byteOffset":44272,"byteLength":72,"target":34963},{"buffer":0,"byteOffset":44344,"byteLength":288,"target":34962},{"buffer":0,"byteOffset":44632,"byteLength":288,"target":34962},{"buffer":0,"byteOffset":44920,"byteLength":192,"target":34962},{"buffer":0,"byteOffset":45112,"byteLength":288,"target":34962},{"buffer":0,"byteOffset":45400,"byteLength":288,"target":34962},{"buffer":0,"byteOffset":45688,"byteLength":192,"target":34962},{"buffer":0,"byteOffset":45880,"byteLength":72,"target":34963},{"buffer":0,"byteOffset":45952,"byteLength":288,"target":34962},{"buffer":0,"byteOffset":46240,"byteLength":288,"target":34962},{"buffer":0,"byteOffset":46528,"byteLength":192,"target":34962},{"buffer":0,"byteOffset":46720,"byteLength":72,"target":34963},{"buffer":0,"byteOffset":46792,"byteLength":288,"target":34962},{"buffer":0,"byteOffset":47080,"byteLength":288,"target":34962},{"buffer":0,"byteOffset":47368,"byteLength":288,"target":34962},{"buffer":0,"byteOffset":47656,"byteLength":288,"target":34962},{"buffer":0,"byteOffset":47944,"byteLength":72,"target":34963},{"buffer":0,"byteOffset":48016,"byteLength":288,"target":34962},{"buffer":0,"byteOffset":48304,"byteLength":288,"target":34962},{"buffer":0,"byteOffset":48592,"byteLength":288,"target":34962},{"buffer":0,"byteOffset":48880,"byteLength":288,"target":34962},{"buffer":0,"byteOffset":49168,"byteLength":192,"target":34962},{"buffer":0,"byteOffset":49360,"byteLength":288,"target":34962},{"buffer":0,"byteOffset":49648,"byteLength":288,"target":34962},{"buffer":0,"byteOffset":49936,"byteLength":192,"target":34962},{"buffer":0,"byteOffset":50128,"byteLength":288,"target":34962},{"buffer":0,"byteOffset":50416,"byteLength":288,"target":34962},{"buffer":0,"byteOffset":50704,"byteLength":192,"target":34962},{"buffer":0,"byteOffset":50896,"byteLength":288,"target":34962},{"buffer":0,"byteOffset":51184,"byteLength":288,"target":34962},{"buffer":0,"byteOffset":51472,"byteLength":192,"target":34962},{"buffer":0,"byteOffset":51664,"byteLength":288,"target":34962},{"buffer":0,"byteOffset":51952,"byteLength":288,"target":34962},{"buffer":0,"byteOffset":52240,"byteLength":192,"target":34962},{"buffer":0,"byteOffset":52432,"byteLength":288,"target":34962},{"buffer":0,"byteOffset":52720,"byteLength":288,"target":34962},{"buffer":0,"byteOffset":53008,"byteLength":192,"target":34962},{"buffer":0,"byteOffset":53200,"byteLength":288,"target":34962},{"buffer":0,"byteOffset":53488,"byteLength":288,"target":34962},{"buffer":0,"byteOffset":53776,"byteLength":192,"target":34962},{"buffer":0,"byteOffset":53968,"byteLength":288,"target":34962},{"buffer":0,"byteOffset":54256,"byteLength":288,"target":34962},{"buffer":0,"byteOffset":54544,"byteLength":192,"target":34962},{"buffer":0,"byteOffset":54736,"byteLength":288,"target":34962},{"buffer":0,"byteOffset":55024,"byteLength":288,"target":34962},{"buffer":0,"byteOffset":55312,"byteLength":192,"target":34962},{"buffer":0,"byteOffset":55504,"byteLength":288,"target":34962},{"buffer":0,"byteOffset":55792,"byteLength":288,"target":34962},{"buffer":0,"byteOffset":56080,"byteLength":192,"target":34962},{"buffer":0,"byteOffset":56272,"byteLength":288,"target":34962},{"buffer":0,"byteOffset":56560,"byteLength":288,"target":34962},{"buffer":0,"byteOffset":56848,"byteLength":192,"target":34962},{"buffer":0,"byteOffset":57040,"byteLength":288,"target":34962},{"buffer":0,"byteOffset":57328,"byteLength":288,"target":34962},{"buffer":0,"byteOffset":57616,"byteLength":192,"target":34962},{"buffer":0,"byteOffset":57808,"byteLength":288,"target":34962},{"buffer":0,"byteOffset":58096,"byteLength":288,"target":34962},{"buffer":0,"byteOffset":58384,"byteLength":192,"target":34962},{"buffer":0,"byteOffset":58576,"byteLength":288,"target":34962},{"buffer":0,"byteOffset":58864,"byteLength":288,"target":34962},{"buffer":0,"byteOffset":59152,"byteLength":192,"target":34962},{"buffer":0,"byteOffset":59344,"byteLength":288,"target":34962},{"buffer":0,"byteOffset":59632,"byteLength":288,"target":34962},{"buffer":0,"byteOffset":59920,"byteLength":192,"target":34962}],"buffers":[{"byteLength":60112,"uri":"log_cabin.bin"}],"images":[{"name":"T_RoundTiles_Luma","uri":"../village/T_RoundTiles_Luma.png"},{"name":"T_UnevenBrick_BaseColor","uri":"../village/T_UnevenBrick_BaseColor.png"},{"name":"T_WoodTrim_BaseColor","uri":"../village/T_WoodTrim_BaseColor.png"}],"materials":[{"doubleSided":true,"name":"Wood_mid","pbrMetallicRoughness":{"baseColorFactor":[0.5179,0.5489,0.5787,1.0],"baseColorTexture":{"index":2},"metallicFactor":0,"roughnessFactor":0.8500000238418579}},{"doubleSided":true,"name":"Stone","pbrMetallicRoughness":{"baseColorFactor":[1.0,0.9974,0.9977,1.0],"baseColorTexture":{"index":1},"metallicFactor":0,"roughnessFactor":0.8500000238418579}},{"doubleSided":true,"name":"Boards","pbrMetallicRoughness":{"baseColorFactor":[0.09462962299585342,0.03968190774321556,0.015325203537940979,1],"metallicFactor":0,"roughnessFactor":0.8999999761581421}},{"doubleSided":true,"name":"Tiles_brown","pbrMetallicRoughness":{"baseColorFactor":[0.3822,0.1486,0.0653,1.0],"baseColorTexture":{"index":0},"metallicFactor":0,"roughnessFactor":0.699999988079071}},{"doubleSided":true,"name":"Glass","pbrMetallicRoughness":{"baseColorFactor":[0.03310476616024971,0.05087608844041824,0.07828831672668457,1],"metallicFactor":0,"roughnessFactor":0.20000000298023224}}],"meshes":[{"name":"Beam","primitives":[{"attributes":{"NORMAL":0,"POSITION":1,"TEXCOORD_0":2},"indices":3,"material":0}]},{"name":"Beam.001","primitives":[{"attributes":{"NORMAL":4,"POSITION":5,"TEXCOORD_0":6},"indices":3,"material":0}]},{"name":"Chimney","primitives":[{"attributes":{"NORMAL":7,"POSITION":8,"TEXCOORD_0":9},"indices":10,"material":1}]},{"name":"Chimney.001","primitives":[{"attributes":{"NORMAL":11,"POSITION":12,"TEXCOORD_0":13},"indices":3,"material":1}]},{"name":"Door","primitives":[{"attributes":{"NORMAL":14,"POSITION":15},"indices":10,"material":2}]},{"name":"Gable","primitives":[{"attributes":{"NORMAL":16,"POSITION":17},"indices":18,"material":2}]},{"name":"Jamb","primitives":[{"attributes":{"NORMAL":19,"POSITION":20,"TEXCOORD_0":21},"indices":10,"material":0}]},{"name":"Jamb.001","primitives":[{"attributes":{"NORMAL":22,"POSITION":23,"TEXCOORD_0":24},"indices":10,"material":0}]},{"name":"Lintel","primitives":[{"attributes":{"NORMAL":25,"POSITION":26,"TEXCOORD_0":27},"indices":3,"material":0}]},{"name":"Log","primitives":[{"attributes":{"NORMAL":28,"POSITION":29,"TEXCOORD_0":30},"indices":31,"material":0}]},{"name":"Log.001","primitives":[{"attributes":{"NORMAL":32,"POSITION":33,"TEXCOORD_0":34},"indices":31,"material":0}]},{"name":"Log.002","primitives":[{"attributes":{"NORMAL":35,"POSITION":36,"TEXCOORD_0":37},"indices":38,"material":0}]},{"name":"Log.003","primitives":[{"attributes":{"NORMAL":39,"POSITION":40,"TEXCOORD_0":41},"indices":38,"material":0}]},{"name":"Log.004","primitives":[{"attributes":{"NORMAL":42,"POSITION":43,"TEXCOORD_0":44},"indices":31,"material":0}]},{"name":"Log.005","primitives":[{"attributes":{"NORMAL":45,"POSITION":46,"TEXCOORD_0":47},"indices":31,"material":0}]},{"name":"Log.006","primitives":[{"attributes":{"NORMAL":48,"POSITION":49,"TEXCOORD_0":50},"indices":38,"material":0}]},{"name":"Log.007","primitives":[{"attributes":{"NORMAL":51,"POSITION":52,"TEXCOORD_0":53},"indices":38,"material":0}]},{"name":"Log.008","primitives":[{"attributes":{"NORMAL":54,"POSITION":55,"TEXCOORD_0":56},"indices":31,"material":0}]},{"name":"Log.009","primitives":[{"attributes":{"NORMAL":57,"POSITION":58,"TEXCOORD_0":59},"indices":31,"material":0}]},{"name":"Log.010","primitives":[{"attributes":{"NORMAL":60,"POSITION":61,"TEXCOORD_0":62},"indices":38,"material":0}]},{"name":"Log.011","primitives":[{"attributes":{"NORMAL":63,"POSITION":64,"TEXCOORD_0":65},"indices":38,"material":0}]},{"name":"Log.012","primitives":[{"attributes":{"NORMAL":66,"POSITION":67,"TEXCOORD_0":68},"indices":31,"material":0}]},{"name":"Log.013","primitives":[{"attributes":{"NORMAL":69,"POSITION":70,"TEXCOORD_0":71},"indices":31,"material":0}]},{"name":"Log.014","primitives":[{"attributes":{"NORMAL":72,"POSITION":73,"TEXCOORD_0":74},"indices":38,"material":0}]},{"name":"Log.015","primitives":[{"attributes":{"NORMAL":75,"POSITION":76,"TEXCOORD_0":77},"indices":38,"material":0}]},{"name":"Log.016","primitives":[{"attributes":{"NORMAL":78,"POSITION":79,"TEXCOORD_0":80},"indices":31,"material":0}]},{"name":"Log.017","primitives":[{"attributes":{"NORMAL":81,"POSITION":82,"TEXCOORD_0":83},"indices":31,"material":0}]},{"name":"Log.018","primitives":[{"attributes":{"NORMAL":84,"POSITION":85,"TEXCOORD_0":86},"indices":38,"material":0}]},{"name":"Log.019","primitives":[{"attributes":{"NORMAL":87,"POSITION":88,"TEXCOORD_0":89},"indices":38,"material":0}]},{"name":"Log.020","primitives":[{"attributes":{"NORMAL":90,"POSITION":91,"TEXCOORD_0":92},"indices":31,"material":0}]},{"name":"Log.021","primitives":[{"attributes":{"NORMAL":93,"POSITION":94,"TEXCOORD_0":95},"indices":31,"material":0}]},{"name":"Log.022","primitives":[{"attributes":{"NORMAL":96,"POSITION":97,"TEXCOORD_0":98},"indices":38,"material":0}]},{"name":"Log.023","primitives":[{"attributes":{"NORMAL":99,"POSITION":100,"TEXCOORD_0":101},"indices":38,"material":0}]},{"name":"Log.024","primitives":[{"attributes":{"NORMAL":102,"POSITION":103,"TEXCOORD_0":104},"indices":31,"material":0}]},{"name":"Log.025","primitives":[{"attributes":{"NORMAL":105,"POSITION":106,"TEXCOORD_0":107},"indices":31,"material":0}]},{"name":"Log.026","primitives":[{"attributes":{"NORMAL":108,"POSITION":109,"TEXCOORD_0":110},"indices":38,"material":0}]},{"name":"Log.027","primitives":[{"attributes":{"NORMAL":111,"POSITION":112,"TEXCOORD_0":113},"indices":38,"material":0}]},{"name":"Log.028","primitives":[{"attributes":{"NORMAL":114,"POSITION":115,"TEXCOORD_0":116},"indices":31,"material":0}]},{"name":"Log.029","primitives":[{"attributes":{"NORMAL":117,"POSITION":118,"TEXCOORD_0":119},"indices":31,"material":0}]},{"name":"Log.030","primitives":[{"attributes":{"NORMAL":120,"POSITION":121,"TEXCOORD_0":122},"indices":38,"material":0}]},{"name":"Log.031","primitives":[{"attributes":{"NORMAL":123,"POSITION":124,"TEXCOORD_0":125},"indices":38,"material":0}]},{"name":"Porch","primitives":[{"attributes":{"NORMAL":126,"POSITION":127,"TEXCOORD_0":128},"indices":10,"material":0}]},{"name":"PorchRoof","primitives":[{"attributes":{"NORMAL":129,"POSITION":130,"TEXCOORD_0":131},"indices":132,"material":3}]},{"name":"Ridge","primitives":[{"attributes":{"NORMAL":133,"POSITION":134,"TEXCOORD_0":135},"indices":3,"material":3}]},{"name":"RoofSlab","primitives":[{"attributes":{"NORMAL":136,"POSITION":137,"TEXCOORD_0":138},"indices":139,"material":3}]},{"name":"RoofSlab.001","primitives":[{"attributes":{"NORMAL":140,"POSITION":141,"TEXCOORD_0":142},"indices":143,"material":3}]},{"name":"Window","primitives":[{"attributes":{"NORMAL":144,"POSITION":145},"indices":3,"material":4}]},{"name":"Window.001","primitives":[{"attributes":{"NORMAL":146,"POSITION":147},"indices":148,"material":4}]},{"name":"Window.002","primitives":[{"attributes":{"NORMAL":149,"POSITION":150},"indices":3,"material":4}]},{"name":"WindowFrame","primitives":[{"attributes":{"NORMAL":151,"POSITION":152,"TEXCOORD_0":153},"indices":3,"material":0}]},{"name":"WindowFrame.001","primitives":[{"attributes":{"NORMAL":154,"POSITION":155,"TEXCOORD_0":156},"indices":3,"material":0}]},{"name":"WindowFrame.002","primitives":[{"attributes":{"NORMAL":157,"POSITION":158,"TEXCOORD_0":159},"indices":3,"material":0}]},{"name":"WindowFrame.003","primitives":[{"attributes":{"NORMAL":160,"POSITION":161,"TEXCOORD_0":162},"indices":3,"material":0}]},{"name":"WindowFrame.004","primitives":[{"attributes":{"NORMAL":163,"POSITION":164,"TEXCOORD_0":165},"indices":3,"material":0}]},{"name":"WindowFrame.005","primitives":[{"attributes":{"NORMAL":166,"POSITION":167,"TEXCOORD_0":168},"indices":148,"material":0}]},{"name":"WindowFrame.006","primitives":[{"attributes":{"NORMAL":169,"POSITION":170,"TEXCOORD_0":171},"indices":148,"material":0}]},{"name":"WindowFrame.007","primitives":[{"attributes":{"NORMAL":172,"POSITION":173,"TEXCOORD_0":174},"indices":148,"material":0}]},{"name":"WindowFrame.008","primitives":[{"attributes":{"NORMAL":175,"POSITION":176,"TEXCOORD_0":177},"indices":148,"material":0}]},{"name":"WindowFrame.009","primitives":[{"attributes":{"NORMAL":178,"POSITION":179,"TEXCOORD_0":180},"indices":148,"material":0}]},{"name":"WindowFrame.010","primitives":[{"attributes":{"NORMAL":181,"POSITION":182,"TEXCOORD_0":183},"indices":3,"material":0}]},{"name":"WindowFrame.011","primitives":[{"attributes":{"NORMAL":184,"POSITION":185,"TEXCOORD_0":186},"indices":3,"material":0}]},{"name":"WindowFrame.012","primitives":[{"attributes":{"NORMAL":187,"POSITION":188,"TEXCOORD_0":189},"indices":3,"material":0}]},{"name":"WindowFrame.013","primitives":[{"attributes":{"NORMAL":190,"POSITION":191,"TEXCOORD_0":192},"indices":3,"material":0}]},{"name":"WindowFrame.014","primitives":[{"attributes":{"NORMAL":193,"POSITION":194,"TEXCOORD_0":195},"indices":3,"material":0}]}],"nodes":[{"mesh":0,"name":"Beam.062"},{"mesh":1,"name":"Beam.063"},{"mesh":2,"name":"Chimney.059"},{"mesh":3,"name":"Chimney.060"},{"mesh":4,"name":"Door.037"},{"mesh":5,"name":"Gable.035"},{"mesh":6,"name":"Jamb.038"},{"mesh":7,"name":"Jamb.039"},{"mesh":8,"name":"Lintel.040"},{"mesh":9,"name":"Log.001"},{"mesh":10,"name":"Log.002"},{"mesh":11,"name":"Log.003"},{"mesh":12,"name":"Log.004"},{"mesh":13,"name":"Log.005"},{"mesh":14,"name":"Log.006"},{"mesh":15,"name":"Log.007"},{"mesh":16,"name":"Log.008"},{"mesh":17,"name":"Log.009"},{"mesh":18,"name":"Log.010"},{"mesh":19,"name":"Log.011"},{"mesh":20,"name":"Log.012"},{"mesh":21,"name":"Log.013"},{"mesh":22,"name":"Log.014"},{"mesh":23,"name":"Log.015"},{"mesh":24,"name":"Log.016"},{"mesh":25,"name":"Log.017"},{"mesh":26,"name":"Log.018"},{"mesh":27,"name":"Log.019"},{"mesh":28,"name":"Log.020"},{"mesh":29,"name":"Log.021"},{"mesh":30,"name":"Log.022"},{"mesh":31,"name":"Log.023"},{"mesh":32,"name":"Log.024"},{"mesh":33,"name":"Log.025"},{"mesh":34,"name":"Log.026"},{"mesh":35,"name":"Log.027"},{"mesh":36,"name":"Log.028"},{"mesh":37,"name":"Log.029"},{"mesh":38,"name":"Log.030"},{"mesh":39,"name":"Log.031"},{"mesh":40,"name":"Log.032"},{"mesh":41,"name":"Porch.061"},{"mesh":42,"name":"PorchRoof.064"},{"mesh":43,"name":"Ridge.036"},{"mesh":44,"name":"RoofSlab.033"},{"mesh":45,"name":"RoofSlab.034"},{"mesh":46,"name":"Window.041"},{"mesh":47,"name":"Window.047"},{"mesh":48,"name":"Window.053"},{"mesh":49,"name":"WindowFrame.042"},{"mesh":50,"name":"WindowFrame.043"},{"mesh":51,"name":"WindowFrame.044"},{"mesh":52,"name":"WindowFrame.045"},{"mesh":53,"name":"WindowFrame.046"},{"mesh":54,"name":"WindowFrame.048"},{"mesh":55,"name":"WindowFrame.049"},{"mesh":56,"name":"WindowFrame.050"},{"mesh":57,"name":"WindowFrame.051"},{"mesh":58,"name":"WindowFrame.052"},{"mesh":59,"name":"WindowFrame.054"},{"mesh":60,"name":"WindowFrame.055"},{"mesh":61,"name":"WindowFrame.056"},{"mesh":62,"name":"WindowFrame.057"},{"mesh":63,"name":"WindowFrame.058"}],"scene":0,"scenes":[{"name":"Scene","nodes":[0,1,2,3,4,5,6,7,8,9,10,11,12,13,14,15,16,17,18,19,20,21,22,23,24,25,26,27,28,29,30,31,32,33,34,35,36,37,38,39,40,41,42,43,44,45,46,47,48,49,50,51,52,53,54,55,56,57,58,59,60,61,62,63]}],"textures":[{"source":0},{"source":1},{"source":2}]}