{"accessors":[{"bufferView":0,"componentType":5126,"count":20,"type":"VEC3"},{"bufferView":1,"componentType":5126,"count":20,"max":[-1.1699999570846558,9.399999618530273,-0.07000000029802322],"min":[-1.4299999475479126,0,-0.33000001311302185],"type":"VEC3"},{"bufferView":2,"componentType":5126,"count":20,"type":"VEC2"},{"bufferView":3,"componentType":5123,"count":30,"type":"SCALAR"},{"bufferView":4,"componentType":5126,"count":20,"type":"VEC3"},{"bufferView":5,"componentType":5126,"count":20,"max":[-1.1699999570846558,9.399999618530273,-2.6700000762939453],"min":[-1.4299999475479126,0,-2.930000066757202],"type":"VEC3"},{"bufferView":6,"componentType":5126,"count":20,"type":"VEC2"},{"bufferView":7,"componentType":5126,"count":20,"type":"VEC3"},{"bufferView":8,"componentType":5126,"count":20,"max":[1.4299999475479126,9.399999618530273,-0.07000000029802322],"min":[1.1699999570846558,0,-0.33000001311302185],"type":"VEC3"},{"bufferView":9,"componentType":5126,"count":20,"type":"VEC2"},{"bufferView":10,"componentType":5126,"count":20,"type":"VEC3"},{"bufferView":11,"componentType":5126,"count":20,"max":[1.4299999475479126,9.399999618530273,-2.6700000762939453],"min":[1.1699999570846558,0,-2.930000066757202],"type":"VEC3"},{"bufferView":12,"componentType":5126,"count":20,"type":"VEC2"},{"bufferView":13,"componentType":5126,"count":24,"type":"VEC3"},{"bufferView":14,"componentType":5126,"count":24,"max":[1.2999999523162842,2.5399999618530273,-0.14000000059604645],"min":[-1.2999999523162842,2.4000000953674316,-0.25999999046325684],"type":"VEC3"},{"bufferView":15,"componentType":5126,"count":24,"type":"VEC2"},{"bufferView":16,"componentType":5123,"count":36,"type":"SCALAR"},{"bufferView":17,"componentType":5126,"count":24,"type":"VEC3"},{"bufferView":18,"componentType":5126,"count":24,"max":[1.2999999523162842,2.5399999618530273,-2.740000009536743],"min":[-1.2999999523162842,2.4000000953674316,-2.859999895095825],"type":"VEC3"},{"bufferView":19,"componentType":5126,"count":24,"type":"VEC2"},{"bufferView":20,"componentType":5126,"count":24,"type":"VEC3"},{"bufferView":21,"componentType":5126,"count":24,"max":[-1.2400000095367432,2.5399999618530273,-0.20000000298023224],"min":[-1.3600000143051147,2.4000000953674316,-2.799999952316284],"type":"VEC3"},{"bufferView":22,"componentType":5126,"count":24,"type":"VEC2"},{"bufferView":23,"componentType":5126,"count":24,"type":"VEC3"},{"bufferView":24,"componentType":5126,"count":24,"max":[1.3600000143051147,2.5399999618530273,-0.20000000298023224],"min":[1.2400000095367432,2.4000000953674316,-2.799999952316284],"type":"VEC3"},{"bufferView":25,"componentType":5126,"count":24,"type":"VEC2"},{"bufferView":26,"componentType":5126,"count":24,"type":"VEC3"},{"bufferView":27,"componentType":5126,"count":24,"max":[1.2999999523162842,4.940000057220459,-0.14000000059604645],"min":[-1.2999999523162842,4.800000190734863,-0.25999999046325684],"type":"VEC3"},{"bufferView":28,"componentType":5126,"count":24,"type":"VEC2"},{"bufferView":29,"componentType":5126,"count":24,"type":"VEC3"},{"bufferView":30,"componentType":5126,"count":24,"max":[1.2999999523162842,4.940000057220459,-2.740000009536743],"min":[-1.2999999523162842,4.800000190734863,-2.859999895095825],"type":"VEC3"},{"bufferView":31,"componentType":5126,"count":24,"type":"VEC2"},{"bufferView":32,"componentType":5126,"count":24,"type":"VEC3"},{"bufferView":33,"componentType":5126,"count":24,"max":[-1.2400000095367432,4.940000057220459,-0.20000000298023224],"min":[-1.3600000143051147,4.800000190734863,-2.799999952316284],"type":"VEC3"},{"bufferView":34,"componentType":5126,"count":24,"type":"VEC2"},{"bufferView":35,"componentType":5126,"count":24,"type":"VEC3"},{"bufferView":36,"componentType":5126,"count":24,"max":[1.3600000143051147,4.940000057220459,-0.20000000298023224],"min":[1.2400000095367432,4.800000190734863,-2.799999952316284],"type":"VEC3"},{"bufferView":37,"componentType":5126,"count":24,"type":"VEC2"},{"bufferView":38,"componentType":5126,"count":24,"type":"VEC3"},{"bufferView":39,"componentType":5126,"count":24,"max":[1.649999976158142,7.630000114440918,0.1899999976158142],"min":[-1.649999976158142,7.550000190734863,0.10999999940395355],"type":"VEC3"},{"bufferView":40,"componentType":5126,"count":24,"type":"VEC2"},{"bufferView":41,"componentType":5126,"count":24,"type":"VEC3"},{"bufferView":42,"componentType":5126,"count":24,"max":[1.649999976158142,7.630000114440918,-3.109999895095825],"min":[-1.649999976158142,7.550000190734863,-3.190000057220459],"type":"VEC3"},{"bufferView":43,"componentType":5126,"count":24,"type":"VEC2"},{"bufferView":44,"componentType":5126,"count":24,"type":"VEC3"},{"bufferView":45,"componentType":5126,"count":24,"max":[-1.6100000143051147,7.630000114440918,0.15000000596046448],"min":[-1.690000057220459,7.550000190734863,-3.1500000953674316],"type":"VEC3"},{"bufferView":46,"componentType":5126,"count":24,"type":"VEC2"},{"bufferView":47,"componentType":5126,"count":24,"type":"VEC3"},{"bufferView":48,"componentType":5126,"count":24,"max":[1.690000057220459,7.630000114440918,0.15000000596046448],"min":[1.6100000143051147,7.550000190734863,-3.1500000953674316],"type":"VEC3"},{"bufferView":49,"componentType":5126,"count":24,"type":"VEC2"},{"bufferView":50,"componentType":5126,"count":24,"type":"VEC3"},{"bufferView":51,"componentType":5126,"count":24,"max":[1.649999976158142,8.079999923706055,0.1899999976158142],"min":[-1.649999976158142,8,0.10999999940395355],"type":"VEC3"},{"bufferView":52,"componentType":5126,"count":24,"type":"VEC2"},{"bufferView":53,"componentType":5126,"count":24,"type":"VEC3"},{"bufferView":54,"componentType":5126,"count":24,"max":[1.649999976158142,8.079999923706055,-3.109999895095825],"min":[-1.649999976158142,8,-3.190000057220459],"type":"VEC3"},{"bufferView":55,"componentType":5126,"count":24,"type":"VEC2"},{"bufferView":56,"componentType":5126,"count":24,"type":"VEC3"},{"bufferView":57,"componentType":5126,"count":24,"max":[-1.6100000143051147,8.079999923706055,0.15000000596046448],"min":[-1.690000057220459,8,-3.1500000953674316],"type":"VEC3"},{"bufferView":58,"componentType":5126,"count":24,"type":"VEC2"},{"bufferView":59,"componentType":5126,"count":24,"type":"VEC3"},{"bufferView":60,"componentType":5126,"count":24,"max":[1.690000057220459,8.079999923706055,0.15000000596046448],"min":[1.6100000143051147,8,-3.1500000953674316],"type":"VEC3"},{"bufferView":61,"componentType":5126,"count":24,"type":"VEC2"},{"bufferView":62,"componentType":5126,"count":20,"type":"VEC3"},{"bufferView":63,"componentType":5126,"count":20,"max":[-0.25999999046325684,8,0.05000000074505806],"min":[-0.3400000035762787,0,-0.029999999329447746],"type":"VEC3"},{"bufferView":64,"componentType":5126,"count":20,"type":"VEC2"},{"bufferView":65,"componentType":5126,"count":20,"type":"VEC3"},{"bufferView":66,"componentType":5126,"count":20,"max":[0.3400000035762787,8,0.05000000074505806],"min":[0.25999999046325684,0,-0.029999999329447746],"type":"VEC3"},{"bufferView":67,"componentType":5126,"count":20,"type":"VEC2"},{"bufferView":68,"componentType":5126,"count":24,"type":"VEC3"},{"bufferView":69,"componentType":5126,"count":24,"max":[0.30000001192092896,0.3499999940395355,0.03999999910593033],"min":[-0.30000001192092896,0.30000001192092896,-0.019999999552965164],"type":"VEC3"},{"bufferView":70,"componentType":5126,"count":24,"type":"VEC2"},{"bufferView":71,"componentType":5126,"count":24,"type":"VEC3"},{"bufferView":72,"componentType":5126,"count":24,"max":[0.30000001192092896,0.75,0.03999999910593033],"min":[-0.30000001192092896,0.699999988079071,-0.019999999552965164],"type":"VEC3"},{"bufferView":73,"componentType":5126,"count":24,"type":"VEC2"},{"bufferView":74,"componentType":5126,"count":24,"type":"VEC3"},{"bufferView":75,"componentType":5126,"count":24,"max":[0.30000001192092896,1.149999976158142,0.03999999910593033],"min":[-0.30000001192092896,1.100000023841858,-0.019999999552965164],"type":"VEC3"},{"bufferView":76,"componentType":5126,"count":24,"type":"VEC2"},{"bufferView":77,"componentType":5126,"count":24,"type":"VEC3"},{"bufferView":78,"componentType":5126,"count":24,"max":[0.30000001192092896,1.5499999523162842,0.03999999910593033],"min":[-0.30000001192092896,1.5,-0.019999999552965164],"type":"VEC3"},{"bufferView":79,"componentType":5126,"count":24,"type":"VEC2"},{"bufferView":80,"componentType":5126,"count":24,"type":"VEC3"},{"bufferView":81,"componentType":5126,"count":24,"max":[0.30000001192092896,1.9500000476837158,0.03999999910593033],"min":[-0.30000001192092896,1.899999976158142,-0.019999999552965164],"type":"VEC3"},{"bufferView":82,"componentType":5126,"count":24,"type":"VEC2"},{"bufferView":83,"componentType":5126,"count":24,"type":"VEC3"},{"bufferView":84,"componentType":5126,"count":24,"max":[0.30000001192092896,2.3499999046325684,0.03999999910593033],"min":[-0.30000001192092896,2.299999952316284,-0.019999999552965164],"type":"VEC3"},{"bufferView":85,"componentType":5126,"count":24,"type":"VEC2"},{"bufferView":86,"componentType":5126,"count":24,"type":"VEC3"},{"bufferView":87,"componentType":5126,"count":24,"max":[0.30000001192092896,2.75,0.03999999910593033],"min":[-0.30000001192092896,2.700000047683716,-0.019999999552965164],"type":"VEC3"},{"bufferView":88,"componentType":5126,"count":24,"type":"VEC2"},{"bufferView":89,"componentType":5126,"count":24,"type":"VEC3"},{"bufferView":90,"componentType":5126,"count":24,"max":[0.30000001192092896,3.1500000953674316,0.03999999910593033],"min":[-0.30000001192092896,3.0999999046325684,-0.019999999552965164],"type":"VEC3"},{"bufferView":91,"componentType":5126,"count":24,"type":"VEC2"},{"bufferView":92,"componentType":5126,"count":24,"type":"VEC3"},{"bufferView":93,"componentType":5126,"count":24,"max":[0.30000001192092896,3.549999952316284,0.03999999910593033],"min":[-0.30000001192092896,3.5,-0.019999999552965164],"type":"VEC3"},{"bufferView":94,"componentType":5126,"count":24,"type":"VEC2"},{"bufferView":95,"componentType":5126,"count":24,"type":"VEC3"},{"bufferView":96,"componentType":5126,"count":24,"max":[0.30000001192092896,3.950000047683716,0.03999999910593033],"min":[-0.30000001192092896,3.9000000953674316,-0.019999999552965164],"type":"VEC3"},{"bufferView":97,"componentType":5126,"count":24,"type":"VEC2"},{"bufferView":98,"componentType":5126,"count":24,"type":"VEC3"},{"bufferView":99,"componentType":5126,"count":24,"max":[0.30000001192092896,4.349999904632568,0.03999999910593033],"min":[-0.30000001192092896,4.300000190734863,-0.019999999552965164],"type":"VEC3"},{"bufferView":100,"componentType":5126,"count":24,"type":"VEC2"},{"bufferView":101,"componentType":5126,"count":24,"type":"VEC3"},{"bufferView":102,"componentType":5126,"count":24,"max":[0.30000001192092896,4.75,0.03999999910593033],"min":[-0.30000001192092896,4.699999809265137,-0.019999999552965164],"type":"VEC3"},{"bufferView":103,"componentType":5126,"count":24,"type":"VEC2"},{"bufferView":104,"componentType":5126,"count":24,"type":"VEC3"},{"bufferView":105,"componentType":5126,"count":24,"max":[0.30000001192092896,5.150000095367432,0.03999999910593033],"min":[-0.30000001192092896,5.099999904632568,-0.019999999552965164],"type":"VEC3"},{"bufferView":106,"componentType":5126,"count":24,"type":"VEC2"},{"bufferView":107,"componentType":5126,"count":24,"type":"VEC3"},{"bufferView":108,"componentType":5126,"count":24,"max":[0.30000001192092896,5.550000190734863,0.03999999910593033],"min":[-0.30000001192092896,5.5,-0.019999999552965164],"type":"VEC3"},{"bufferView":109,"componentType":5126,"count":24,"type":"VEC2"},{"bufferView":110,"componentType":5126,"count":24,"type":"VEC3"},{"bufferView":111,"componentType":5126,"count":24,"max":[0.30000001192092896,5.949999809265137,0.03999999910593033],"min":[-0.30000001192092896,5.900000095367432,-0.019999999552965164],"type":"VEC3"},{"bufferView":112,"componentType":5126,"count":24,"type":"VEC2"},{"bufferView":113,"componentType":5126,"count":24,"type":"VEC3"},{"bufferView":114,"componentType":5126,"count":24,"max":[0.30000001192092896,6.349999904632568,0.03999999910593033],"min":[-0.30000001192092896,6.300000190734863,-0.019999999552965164],"type":"VEC3"},{"bufferView":115,"componentType":5126,"count":24,"type":"VEC2"},{"bufferView":116,"componentType":5126,"count":24,"type":"VEC3"},{"bufferView":117,"componentType":5126,"count":24,"max":[0.30000001192092896,6.75,0.03999999910593033],"min":[-0.30000001192092896,6.699999809265137,-0.019999999552965164],"type":"VEC3"},{"bufferView":118,"componentType":5126,"count":24,"type":"VEC2"},{"bufferView":119,"componentType":5126,"count":3,"type":"VEC3"},{"bufferView":120,"componentType":5126,"count":3,"max":[0.8999999761581421,12.100000381469727,-1.5],"min":[0.03999999910593033,11.600000381469727,-1.5],"type":"VEC3"},{"bufferView":121,"componentType":5123,"count":3,"type":"SCALAR"},{"bufferView":122,"componentType":5126,"count":20,"type":"VEC3"},{"bufferView":123,"componentType":5126,"count":20,"max":[0.03999999910593033,12.199999809265137,-1.4619576930999756],"min":[-0.032360680401325226,10.800000190734863,-1.5380423069000244],"type":"VEC3"},{"bufferView":124,"componentType":5123,"count":30,"type":"SCALAR"},{"bufferView":125,"componentType":5126,"count":20,"type":"VEC3"},{"bufferView":126,"componentType":5126,"count":20,"max":[-1.0499999523162842,0.30000001192092896,0.05000000074505806],"min":[-1.5499999523162842,0,-0.44999998807907104],"type":"VEC3"},{"bufferView":127,"componentType":5126,"count":20,"type":"VEC2"},{"bufferView":128,"componentType":5126,"count":20,"type":"VEC3"},{"bufferView":129,"componentType":5126,"count":20,"max":[-1.0499999523162842,0.30000001192092896,-2.549999952316284],"min":[-1.5499999523162842,0,-3.049999952316284],"type":"VEC3"},{"bufferView":130,"componentType":5126,"count":20,"type":"VEC2"},{"bufferView":131,"componentType":5126,"count":20,"type":"VEC3"},{"bufferView":132,"componentType":5126,"count":20,"max":[1.5499999523162842,0.30000001192092896,0.05000000074505806],"min":[1.0499999523162842,0,-0.44999998807907104],"type":"VEC3"},{"bufferView":133,"componentType":5126,"count":20,"type":"VEC2"},{"bufferView":134,"componentType":5126,"count":20,"type":"VEC3"},{"bufferView":135,"componentType":5126,"count":20,"max":[1.5499999523162842,0.30000001192092896,-2.549999952316284],"min":[1.0499999523162842,0,-3.049999952316284],"type":"VEC3"},{"bufferView":136,"componentType":5126,"count":20,"type":"VEC2"},{"bufferView":137,"componentType":5126,"count":24,"type":"VEC3"},{"bufferView":138,"componentType":5126,"count":24,"max":[1.7000000476837158,7.199999809265137,0.20000000298023224],"min":[-1.7000000476837158,7,-3.200000047683716],"type":"VEC3"},{"bufferView":139,"componentType":5126,"count":24,"type":"VEC2"},{"bufferView":140,"componentType":5126,"count":32,"type":"VEC3"},{"bufferView":141,"componentType":5126,"count":32,"max":[1.9848527908325195,11,0.4848528206348419],"min":[-1.9848527908325195,9.32800006866455,-3.4848527908325195],"type":"VEC3"},{"bufferView":142,"componentType":5126,"count":32,"type":"VEC2"},{"bufferView":143,"componentType":5123,"count":48,"type":"SCALAR"}],"asset":{"generator":"Khronos glTF Blender I/O v5.2.40","version":"2.0"},"bufferViews":[{"buffer":0,"byteOffset":0,"byteLength":240,"target":34962},{"buffer":0,"byteOffset":240,"byteLength":240,"target":34962},{"buffer":0,"byteOffset":480,"byteLength":160,"target":34962},{"buffer":0,"byteOffset":640,"byteLength":60,"target":34963},{"buffer":0,"byteOffset":700,"byteLength":240,"target":34962},{"buffer":0,"byteOffset":940,"byteLength":240,"target":34962},{"buffer":0,"byteOffset":1180,"byteLength":160,"target":34962},{"buffer":0,"byteOffset":1340,"byteLength":240,"target":34962},{"buffer":0,"byteOffset":1580,"byteLength":240,"target":34962},{"buffer":0,"byteOffset":1820,"byteLength":160,"target":34962},{"buffer":0,"byteOffset":1980,"byteLength":240,"target":34962},{"buffer":0,"byteOffset":2220,"byteLength":240,"target":34962},{"buffer":0,"byteOffset":2460,"byteLength":160,"target":34962},{"buffer":0,"byteOffset":2620,"byteLength":288,"target":34962},{"buffer":0,"byteOffset":2908,"byteLength":288,"target":34962},{"buffer":0,"byteOffset":3196,"byteLength":192,"target":34962},{"buffer":0,"byteOffset":3388,"byteLength":72,"target":34963},{"buffer":0,"byteOffset":3460,"byteLength":288,"target":34962},{"buffer":0,"byteOffset":3748,"byteLength":288,"target":34962},{"buffer":0,"byteOffset":4036,"byteLength":192,"target":34962},{"buffer":0,"byteOffset":4228,"byteLength":288,"target":34962},{"buffer":0,"byteOffset":4516,"byteLength":288,"target":34962},{"buffer":0,"byteOffset":4804,"byteLength":192,"target":34962},{"buffer":0,"byteOffset":4996,"byteLength":288,"target":34962},{"buffer":0,"byteOffset":5284,"byteLength":288,"target":34962},{"buffer":0,"byteOffset":5572,"byteLength":192,"target":34962},{"buffer":0,"byteOffset":5764,"byteLength":288,"target":34962},{"buffer":0,"byteOffset":6052,"byteLength":288,"target":34962},{"buffer":0,"byteOffset":6340,"byteLength":192,"target":34962},{"buffer":0,"byteOffset":6532,"byteLength":288,"target":34962},{"buffer":0,"byteOffset":6820,"byteLength":288,"target":34962},{"buffer":0,"byteOffset":7108,"byteLength":192,"target":34962},{"buffer":0,"byteOffset":7300,"byteLength":288,"target":34962},{"buffer":0,"byteOffset":7588,"byteLength":288,"target":34962},{"buffer":0,"byteOffset":7876,"byteLength":192,"target":34962},{"buffer":0,"byteOffset":8068,"byteLength":288,"target":34962},{"buffer":0,"byteOffset":8356,"byteLength":288,"target":34962},{"buffer":0,"byteOffset":8644,"byteLength":192,"target":34962},{"buffer":0,"byteOffset":8836,"byteLength":288,"target":34962},{"buffer":0,"byteOffset":9124,"byteLength":288,"target":34962},{"buffer":0,"byteOffset":9412,"byteLength":192,"target":34962},{"buffer":0,"byteOffset":9604,"byteLength":288,"target":34962},{"buffer":0,"byteOffset":9892,"byteLength":288,"target":34962},{"buffer":0,"byteOffset":10180,"byteLength":192,"target":34962},{"buffer":0,"byteOffset":10372,"byteLength":288,"target":34962},{"buffer":0,"byteOffset":10660,"byteLength":288,"target":34962},{"buffer":0,"byteOffset":10948,"byteLength":192,"target":34962},{"buffer":0,"byteOffset":11140,"byteLength":288,"target":34962},{"buffer":0,"byteOffset":11428,"byteLength":288,"target":34962},{"buffer":0,"byteOffset":11716,"byteLength":192,"target":34962},{"buffer":0,"byteOffset":11908,"byteLength":288,"target":34962},{"buffer":0,"byteOffset":12196,"byteLength":288,"target":34962},{"buffer":0,"byteOffset":12484,"byteLength":192,"target":34962},{"buffer":0,"byteOffset":12676,"byteLength":288,"target":34962},{"buffer":0,"byteOffset":12964,"byteLength":288,"target":34962},{"buffer":0,"byteOffset":13252,"byteLength":192,"target":34962},{"buffer":0,"byteOffset":13444,"byteLength":288,"target":34962},{"buffer":0,"byteOffset":13732,"byteLength":288,"target":34962},{"buffer":0,"byteOffset":14020,"byteLength":192,"target":34962},{"buffer":0,"byteOffset":14212,"byteLength":288,"target":34962},{"buffer":0,"byteOffset":14500,"byteLength":288,"target":34962},{"buffer":0,"byteOffset":14788,"byteLength":192,"target":34962},{"buffer":0,"byteOffset":14980,"byteLength":240,"target":34962},{"buffer":0,"byteOffset":15220,"byteLength":240,"target":34962},{"buffer":0,"byteOffset":15460,"byteLength":160,"target":34962},{"buffer":0,"byteOffset":15620,"byteLength":240,"target":34962},{"buffer":0,"byteOffset":15860,"byteLength":240,"target":34962},{"buffer":0,"byteOffset":16100,"byteLength":160,"target":34962},{"buffer":0,"byteOffset":16260,"byteLength":288,"target":34962},{"buffer":0,"byteOffset":16548,"byteLength":288,"target":34962},{"buffer":0,"byteOffset":16836,"byteLength":192,"target":34962},{"buffer":0,"byteOffset":17028,"byteLength":288,"target":34962},{"buffer":0,"byteOffset":17316,"byteLength":288,"target":34962},{"buffer":0,"byteOffset":17604,"byteLength":192,"target":34962},{"buffer":0,"byteOffset":17796,"byteLength":288,"target":34962},{"buffer":0,"byteOffset":18084,"byteLength":288,"target":34962},{"buffer":0,"byteOffset":18372,"byteLength":192,"target":34962},{"buffer":0,"byteOffset":18564,"byteLength":288,"target":34962},{"buffer":0,"byteOffset":18852,"byteLength":288,"target":34962},{"buffer":0,"byteOffset":19140,"byteLength":192,"target":34962},{"buffer":0,"byteOffset":19332,"byteLength":288,"target":34962},{"buffer":0,"byteOffset":19620,"byteLength":288,"target":34962},{"buffer":0,"byteOffset":19908,"byteLength":192,"target":34962},{"buffer":0,"byteOffset":20100,"byteLength":288,"target":34962},{"buffer":0,"byteOffset":20388,"byteLength":288,"target":34962},{"buffer":0,"byteOffset":20676,"byteLength":192,"target":34962},{"buffer":0,"byteOffset":20868,"byteLength":288,"target":34962},{"buffer":0,"byteOffset":21156,"byteLength":288,"target":34962},{"buffer":0,"byteOffset":21444,"byteLength":192,"target":34962},{"buffer":0,"byteOffset":21636,"byteLength":288,"target":34962},{"buffer":0,"byteOffset":21924,"byteLength":288,"target":34962},{"buffer":0,"byteOffset":22212,"byteLength":192,"target":34962},{"buffer":0,"byteOffset":22404,"byteLength":288,"target":34962},{"buffer":0,"byteOffset":22692,"byteLength":288,"target":34962},{"buffer":0,"byteOffset":22980,"byteLength":192,"target":34962},{"buffer":0,"byteOffset":23172,"byteLength":288,"target":34962},{"buffer":0,"byteOffset":23460,"byteLength":288,"target":34962},{"buffer":0,"byteOffset":23748,"byteLength":192,"target":34962},{"buffer":0,"byteOffset":23940,"byteLength":288,"target":34962},{"buffer":0,"byteOffset":24228,"byteLength":288,"target":34962},{"buffer":0,"byteOffset":24516,"byteLength":192,"target":34962},{"buffer":0,"byteOffset":24708,"byteLength":288,"target":34962},{"buffer":0,"byteOffset":24996,"byteLength":288,"target":34962},{"buffer":0,"byteOffset":25284,"byteLength":192,"target":34962},{"buffer":0,"byteOffset":25476,"byteLength":288,"target":34962},{"buffer":0,"byteOffset":25764,"byteLength":288,"target":34962},{"buffer":0,"byteOffset":26052,"byteLength":192,"target":34962},{"buffer":0,"byteOffset":26244,"byteLength":288,"target":34962},{"buffer":0,"byteOffset":26532,"byteLength":288,"target":34962},{"buffer":0,"byteOffset":26820,"byteLength":192,"target":34962},{"buffer":0,"byteOffset":27012,"byteLength":288,"target":34962},{"buffer":0,"byteOffset":27300,"byteLength":288,"target":34962},{"buffer":0,"byteOffset":27588,"byteLength":192,"target":34962},{"buffer":0,"byteOffset":27780,"byteLength":288,"target":34962},{"buffer":0,"byteOffset":28068,"byteLength":288,"target":34962},{"buffer":0,"byteOffset":28356,"byteLength":192,"target":34962},{"buffer":0,"byteOffset":28548,"byteLength":288,"target":34962},{"buffer":0,"byteOffset":28836,"byteLength":288,"target":34962},{"buffer":0,"byteOffset":29124,"byteLength":192,"target":34962},{"buffer":0,"byteOffset":29316,"byteLength":36,"target":34962},{"buffer":0,"byteOffset":29352,"byteLength":36,"target":34962},{"buffer":0,"byteOffset":29388,"byteLength":6,"target":34963},{"buffer":0,"byteOffset":29396,"byteLength":240,"target":34962},{"buffer":0,"byteOffset":29636,"byteLength":240,"target":34962},{"buffer":0,"byteOffset":29876,"byteLength":60,"target":34963},{"buffer":0,"byteOffset":29936,"byteLength":240,"target":34962},{"buffer":0,"byteOffset":30176,"byteLength":240,"target":34962},{"buffer":0,"byteOffset":30416,"byteLength":160,"target":34962},{"buffer":0,"byteOffset":30576,"byteLength":240,"target":34962},{"buffer":0,"byteOffset":30816,"byteLength":240,"target":34962},{"buffer":0,"byteOffset":31056,"byteLength":160,"target":34962},{"buffer":0,"byteOffset":31216,"byteLength":240,"target":34962},{"buffer":0,"byteOffset":31456,"byteLength":240,"target":34962},{"buffer":0,"byteOffset":31696,"byteLength":160,"target":34962},{"buffer":0,"byteOffset":31856,"byteLength":240,"target":34962},{"buffer":0,"byteOffset":32096,"byteLength":240,"target":34962},{"buffer":0,"byteOffset":32336,"byteLength":160,"target":34962},{"buffer":0,"byteOffset":32496,"byteLength":288,"target":34962},{"buffer":0,"byteOffset":32784,"byteLength":288,"target":34962},{"buffer":0,"byteOffset":33072,"byteLength":192,"target":34962},{"buffer":0,"byteOffset":33264,"byteLength":384,"target":34962},{"buffer":0,"byteOffset":33648,"byteLength":384,"target":34962},{"buffer":0,"byteOffset":34032,"byteLength":256,"target":34962},{"buffer":0,"byteOffset":34288,"byteLength":96,"target":34963}],"buffers":[{"byteLength":34384,"uri":"lookout.bin"}],"images":[{"name":"T_RockTrim_BaseColor","uri":"../village/T_RockTrim_BaseColor.png"},{"name":"T_RoundTiles_Luma","uri":"../village/T_RoundTiles_Luma.png"},{"name":"T_WoodTrim_BaseColor","uri":"../village/T_WoodTrim_BaseColor.png"}],"materials":[{"doubleSided":true,"name":"Wood_mid","pbrMetallicRoughness":{"baseColorFactor":[0.5179,0.5489,0.5787,1.0],"baseColorTexture":{"index":2},"metallicFactor":0,"roughnessFactor":0.8500000238418579}},{"doubleSided":true,"name":"Cloth","pbrMetallicRoughness":{"baseColorFactor":[0.34239163994789124,0.03310476616024971,0.021980946883559227,1],"metallicFactor":0,"roughnessFactor":0.8999999761581421}},{"doubleSided":true,"name":"Iron","pbrMetallicRoughness":{"baseColorFactor":[0.0134117491543293,0.0134117491543293,0.015325203537940979,1],"metallicFactor":0,"roughnessFactor":0.5}},{"doubleSided":true,"name":"RockTrim","pbrMetallicRoughness":{"baseColorFactor":[1.0,0.9979,1.0,1.0],"baseColorTexture":{"index":0},"metallicFactor":0,"roughnessFactor":0.8500000238418579}},{"doubleSided":true,"name":"Tiles_green","pbrMetallicRoughness":{"baseColorFactor":[0.2433,0.3541,0.2399,1.0],"baseColorTexture":{"index":1},"metallicFactor":0,"roughnessFactor":0.699999988079071}}],"meshes":[{"name":"Beam","primitives":[{"attributes":{"NORMAL":0,"POSITION":1,"TEXCOORD_0":2},"indices":3,"material":0}]},{"name":"Beam.001","primitives":[{"attributes":{"NORMAL":4,"POSITION":5,"TEXCOORD_0":6},"indices":3,"material":0}]},{"name":"Beam.002","primitives":[{"attributes":{"NORMAL":7,"POSITION":8,"TEXCOORD_0":9},"indices":3,"material":0}]},{"name":"Beam.003","primitives":[{"attributes":{"NORMAL":10,"POSITION":11,"TEXCOORD_0":12},"indices":3,"material":0}]},{"name":"Beam.004","primitives":[{"attributes":{"NORMAL":13,"POSITION":14,"TEXCOORD_0":15},"indices":16,"material":0}]},{"name":"Beam.005","primitives":[{"attributes":{"NORMAL":17,"POSITION":18,"TEXCOORD_0":19},"indices":16,"material":0}]},{"name":"Beam.006","primitives":[{"attributes":{"NORMAL":20,"POSITION":21,"TEXCOORD_0":22},"indices":16,"material":0}]},{"name":"Beam.007","primitives":[{"attributes":{"NORMAL":23,"POSITION":24,"TEXCOORD_0":25},"indices":16,"material":0}]},{"name":"Beam.008","primitives":[{"attributes":{"NORMAL":26,"POSITION":27,"TEXCOORD_0":28},"indices":16,"material":0}]},{"name":"Beam.009","primitives":[{"attributes":{"NORMAL":29,"POSITION":30,"TEXCOORD_0":31},"indices":16,"material":0}]},{"name":"Beam.010","primitives":[{"attributes":{"NORMAL":32,"POSITION":33,"TEXCOORD_0":34},"indices":16,"material":0}]},{"name":"Beam.011","primitives":[{"attributes":{"NORMAL":35,"POSITION":36,"TEXCOORD_0":37},"indices":16,"material":0}]},{"name":"Beam.012","primitives":[{"attributes":{"NORMAL":38,"POSITION":39,"TEXCOORD_0":40},"indices":16,"material":0}]},{"name":"Beam.013","primitives":[{"attributes":{"NORMAL":41,"POSITION":42,"TEXCOORD_0":43},"indices":16,"material":0}]},{"name":"Beam.014","primitives":[{"attributes":{"NORMAL":44,"POSITION":45,"TEXCOORD_0":46},"indices":16,"material":0}]},{"name":"Beam.015","primitives":[{"attributes":{"NORMAL":47,"POSITION":48,"TEXCOORD_0":49},"indices":16,"material":0}]},{"name":"Beam.016","primitives":[{"attributes":{"NORMAL":50,"POSITION":51,"TEXCOORD_0":52},"indices":16,"material":0}]},{"name":"Beam.017","primitives":[{"attributes":{"NORMAL":53,"POSITION":54,"TEXCOORD_0":55},"indices":16,"material":0}]},{"name":"Beam.018","primitives":[{"attributes":{"NORMAL":56,"POSITION":57,"TEXCOORD_0":58},"indices":16,"material":0}]},{"name":"Beam.019","primitives":[{"attributes":{"NORMAL":59,"POSITION":60,"TEXCOORD_0":61},"indices":16,"material":0}]},{"name":"Beam.020","primitives":[{"attributes":{"NORMAL":62,"POSITION":63,"TEXCOORD_0":64},"indices":3,"material":0}]},{"name":"Beam.021","primitives":[{"attributes":{"NORMAL":65,"POSITION":66,"TEXCOORD_0":67},"indices":3,"material":0}]},{"name":"Beam.022","primitives":[{"attributes":{"NORMAL":68,"POSITION":69,"TEXCOORD_0":70},"indices":16,"material":0}]},{"name":"Beam.023","primitives":[{"attributes":{"NORMAL":71,"POSITION":72,"TEXCOORD_0":73},"indices":16,"material":0}]},{"name":"Beam.024","primitives":[{"attributes":{"NORMAL":74,"POSITION":75,"TEXCOORD_0":76},"indices":16,"material":0}]},{"name":"Beam.025","primitives":[{"attributes":{"NORMAL":77,"POSITION":78,"TEXCOORD_0":79},"indices":16,"material":0}]},{"name":"Beam.026","primitives":[{"attributes":{"NORMAL":80,"POSITION":81,"TEXCOORD_0":82},"indices":16,"material":0}]},{"name":"Beam.027","primitives":[{"attributes":{"NORMAL":83,"POSITION":84,"TEXCOORD_0":85},"indices":16,"material":0}]},{"name":"Beam.028","primitives":[{"attributes":{"NORMAL":86,"POSITION":87,"TEXCOORD_0":88},"indices":16,"material":0}]},{"name":"Beam.029","primitives":[{"attributes":{"NORMAL":89,"POSITION":90,"TEXCOORD_0":91},"indices":16,"material":0}]},{"name":"Beam.030","primitives":[{"attributes":{"NORMAL":92,"POSITION":93,"TEXCOORD_0":94},"indices":16,"material":0}]},{"name":"Beam.031","primitives":[{"attributes":{"NORMAL":95,"POSITION":96,"TEXCOORD_0":97},"indices":16,"material":0}]},{"name":"Beam.032","primitives":[{"attributes":{"NORMAL":98,"POSITION":99,"TEXCOORD_0":100},"indices":16,"material":0}]},{"name":"Beam.033","primitives":[{"attributes":{"NORMAL":101,"POSITION":102,"TEXCOORD_0":103},"indices":16,"material":0}]},{"name":"Beam.034","primitives":[{"attributes":{"NORMAL":104,"POSITION":105,"TEXCOORD_0":106},"indices":16,"material":0}]},{"name":"Beam.035","primitives":[{"attributes":{"NORMAL":107,"POSITION":108,"TEXCOORD_0":109},"indices":16,"material":0}]},{"name":"Beam.036","primitives":[{"attributes":{"NORMAL":110,"POSITION":111,"TEXCOORD_0":112},"indices":16,"material":0}]},{"name":"Beam.037","primitives":[{"attributes":{"NORMAL":113,"POSITION":114,"TEXCOORD_0":115},"indices":16,"material":0}]},{"name":"Beam.038","primitives":[{"attributes":{"NORMAL":116,"POSITION":117,"TEXCOORD_0":118},"indices":16,"material":0}]},{"name":"Flag","primitives":[{"attributes":{"NORMAL":119,"POSITION":120},"indices":121,"material":1}]},{"name":"Flagpole","primitives":[{"attributes":{"NORMAL":122,"POSITION":123},"indices":124,"material":2}]},{"name":"Pad","primitives":[{"attributes":{"NORMAL":125,"POSITION":126,"TEXCOORD_0":127},"indices":3,"material":3}]},{"name":"Pad.001","primitives":[{"attributes":{"NORMAL":128,"POSITION":129,"TEXCOORD_0":130},"indices":3,"material":3}]},{"name":"Pad.002","primitives":[{"attributes":{"NORMAL":131,"POSITION":132,"TEXCOORD_0":133},"indices":3,"material":3}]},{"name":"Pad.003","primitives":[{"attributes":{"NORMAL":134,"POSITION":135,"TEXCOORD_0":136},"indices":3,"material":3}]},{"name":"Platform","primitives":[{"attributes":{"NORMAL":137,"POSITION":138,"TEXCOORD_0":139},"indices":16,"material":0}]},{"name":"Roof","primitives":[{"attributes":{"NORMAL":140,"POSITION":141,"TEXCOORD_0":142},"indices":143,"material":4}]}],"nodes":[{"mesh":0,"name":"Beam.001"},{"mesh":1,"name":"Beam.003"},{"mesh":2,"name":"Beam.005"},{"mesh":3,"name":"Beam.007"},{"mesh":4,"name":"Beam.009"},{"mesh":5,"name":"Beam.010"},{"mesh":6,"name":"Beam.011"},{"mesh":7,"name":"Beam.012"},{"mesh":8,"name":"Beam.013"},{"mesh":9,"name":"Beam.014"},{"mesh":10,"name":"Beam.015"},{"mesh":11,"name":"Beam.016"},{"mesh":12,"name":"Beam.018"},{"mesh":13,"name":"Beam.019"},{"mesh":14,"name":"Beam.020"},{"mesh":15,"name":"Beam.021"},{"mesh":16,"name":"Beam.022"},{"mesh":17,"name":"Beam.023"},{"mesh":18,"name":"Beam.024"},{"mesh":19,"name":"Beam.025"},{"mesh":20,"name":"Beam.026"},{"mesh":21,"name":"Beam.027"},{"mesh":22,"name":"Beam.028"},{"mesh":23,"name":"Beam.029"},{"mesh":24,"name":"Beam.030"},{"mesh":25,"name":"Beam.031"},{"mesh":26,"name":"Beam.032"},{"mesh":27,"name":"Beam.033"},{"mesh":28,"name":"Beam.034"},{"mesh":29,"name":"Beam.035"},{"mesh":30,"name":"Beam.036"},{"mesh":31,"name":"Beam.037"},{"mesh":32,"name":"Beam.038"},{"mesh":33,"name":"Beam.039"},{"mesh":34,"name":"Beam.040"},{"mesh":35,"name":"Beam.041"},{"mesh":36,"name":"Beam.042"},{"mesh":37,"name":"Beam.043"},{"mesh":38,"name":"Beam.044"},{"mesh":39,"name":"Flag.047"},{"mesh":40,"name":"Flagpole.046"},{"mesh":41,"name":"Pad.002"},{"mesh":42,"name":"Pad.004"},{"mesh":43,"name":"Pad.006"},{"mesh":44,"name":"Pad.008"},{"mesh":45,"name":"Platform.017"},{"mesh":46,"name":"Roof.045"}],"scene":0,"scenes":[{"name":"Scene","nodes":[0,1,2,3,4,5,6,7,8,9,10,11,12,13,14,15,16,17,18,19,20,21,22,23,24,25,26,27,28,29,30,31,32,33,34,35,36,37,38,39,40,41,42,43,44,45,46]}],"textures":[{"source":0},{"source":1},{"source":2}]}