{"accessors":[{"bufferView":0,"componentType":5126,"count":216,"type":"VEC3"},{"bufferView":1,"componentType":5126,"count":216,"max":[1.2000000476837158,2.617518186569214,0.8358055353164673],"min":[-1.2000000476837158,0,-0.8419351577758789],"type":"VEC3"},{"bufferView":2,"componentType":5123,"count":324,"type":"SCALAR"},{"bufferView":3,"componentType":5126,"count":456,"type":"VEC3"},{"bufferView":4,"componentType":5126,"count":456,"max":[1.2000000476837158,1.375,0.5219351649284363],"min":[-1.2000000476837158,0.02000001072883606,-0.7530648112297058],"type":"VEC3"},{"bufferView":5,"componentType":5123,"count":648,"type":"SCALAR"},{"bufferView":6,"componentType":5126,"count":48,"type":"VEC3"},{"bufferView":7,"componentType":5126,"count":48,"max":[0.3499999940395355,0.9700000286102295,0.5319352149963379],"min":[-0.3499999940395355,0.6699999570846558,-0.188064843416214],"type":"VEC3"},{"bufferView":8,"componentType":5123,"count":72,"type":"SCALAR"},{"bufferView":9,"componentType":5126,"count":864,"type":"VEC3"},{"bufferView":10,"componentType":5126,"count":864,"max":[-0.53342604637146,1.2600001096725464,0.31850913166999817],"min":[-0.96657395362854,1.0999999046325684,0.025361239910125732],"type":"VEC3"},{"bufferView":11,"componentType":5123,"count":1152,"type":"SCALAR"},{"bufferView":12,"componentType":5126,"count":864,"type":"VEC3"},{"bufferView":13,"componentType":5126,"count":864,"max":[0.96657395362854,1.2600001096725464,0.31850913166999817],"min":[0.53342604637146,1.0999999046325684,0.025361239910125732],"type":"VEC3"},{"bufferView":14,"componentType":5126,"count":576,"type":"VEC3"},{"bufferView":15,"componentType":5126,"count":576,"max":[0.20706339180469513,1.0950000286102295,0.24899858236312866],"min":[-0.20706339180469513,0.9449999928474426,0.13487178087234497],"type":"VEC3"},{"bufferView":16,"componentType":5123,"count":768,"type":"SCALAR"},{"bufferView":17,"componentType":5126,"count":144,"type":"VEC3"},{"bufferView":18,"componentType":5126,"count":144,"max":[-0.5288097858428955,1.5160000324249268,-0.4068746566772461],"min":[-0.8711901903152466,1.0839998722076416,-0.7492550015449524],"type":"VEC3"},{"bufferView":19,"componentType":5123,"count":192,"type":"SCALAR"},{"bufferView":20,"componentType":5126,"count":432,"type":"VEC3"},{"bufferView":21,"componentType":5126,"count":432,"max":[0.9750000238418579,2.654069423675537,0.8419351577758789],"min":[-1.3000000715255737,1.6875,-0.8332661986351013],"type":"VEC3"},{"bufferView":22,"componentType":5123,"count":720,"type":"SCALAR"},{"bufferView":23,"componentType":5126,"count":432,"type":"VEC3"},{"bufferView":24,"componentType":5126,"count":432,"max":[1.3000000715255737,2.654069423675537,0.8419351577758789],"min":[-0.9750000238418579,1.6875,-0.8332661986351013],"type":"VEC3"}],"asset":{"generator":"Khronos glTF Blender I/O v5.2.40","version":"2.0"},"bufferViews":[{"buffer":0,"byteOffset":0,"byteLength":2592,"target":34962},{"buffer":0,"byteOffset":2592,"byteLength":2592,"target":34962},{"buffer":0,"byteOffset":5184,"byteLength":648,"target":34963},{"buffer":0,"byteOffset":5832,"byteLength":5472,"target":34962},{"buffer":0,"byteOffset":11304,"byteLength":5472,"target":34962},{"buffer":0,"byteOffset":16776,"byteLength":1296,"target":34963},{"buffer":0,"byteOffset":18072,"byteLength":576,"target":34962},{"buffer":0,"byteOffset":18648,"byteLength":576,"target":34962},{"buffer":0,"byteOffset":19224,"byteLength":144,"target":34963},{"buffer":0,"byteOffset":19368,"byteLength":10368,"target":34962},{"buffer":0,"byteOffset":29736,"byteLength":10368,"target":34962},{"buffer":0,"byteOffset":40104,"byteLength":2304,"target":34963},{"buffer":0,"byteOffset":42408,"byteLength":10368,"target":34962},{"buffer":0,"byteOffset":52776,"byteLength":10368,"target":34962},{"buffer":0,"byteOffset":63144,"byteLength":6912,"target":34962},{"buffer":0,"byteOffset":70056,"byteLength":6912,"target":34962},{"buffer":0,"byteOffset":76968,"byteLength":1536,"target":34963},{"buffer":0,"byteOffset":78504,"byteLength":1728,"target":34962},{"buffer":0,"byteOffset":80232,"byteLength":1728,"target":34962},{"buffer":0,"byteOffset":81960,"byteLength":384,"target":34963},{"buffer":0,"byteOffset":82344,"byteLength":5184,"target":34962},{"buffer":0,"byteOffset":87528,"byteLength":5184,"target":34962},{"buffer":0,"byteOffset":92712,"byteLength":1440,"target":34963},{"buffer":0,"byteOffset":94152,"byteLength":5184,"target":34962},{"buffer":0,"byteOffset":99336,"byteLength":5184,"target":34962}],"buffers":[{"byteLength":104520,"uri":"market_stall.bin"}],"images":[],"materials":[{"doubleSided":true,"name":"Stall_WoodDark","pbrMetallicRoughness":{"baseColorFactor":[0.3199999928474426,0.1899999976158142,0.09000000357627869,1],"metallicFactor":0,"roughnessFactor":0.8500000238418579}},{"doubleSided":true,"name":"Stall_Wood","pbrMetallicRoughness":{"baseColorFactor":[0.5,0.3100000023841858,0.15000000596046448,1],"metallicFactor":0,"roughnessFactor":0.8500000238418579}},{"doubleSided":true,"name":"Stall_Cloth","pbrMetallicRoughness":{"baseColorFactor":[0.7200000286102295,0.14000000059604645,0.11999999731779099,1],"metallicFactor":0,"roughnessFactor":0.949999988079071}},{"doubleSided":true,"name":"Stall_Apple","pbrMetallicRoughness":{"baseColorFactor":[0.75,0.11999999731779099,0.10000000149011612,1],"metallicFactor":0,"roughnessFactor":0.6000000238418579}},{"doubleSided":true,"name":"Stall_Orange","pbrMetallicRoughness":{"baseColorFactor":[0.9200000166893005,0.5,0.10000000149011612,1],"metallicFactor":0,"roughnessFactor":0.6000000238418579}},{"doubleSided":true,"name":"Stall_Pear","pbrMetallicRoughness":{"baseColorFactor":[0.6200000047683716,0.7200000286102295,0.20000000298023224,1],"metallicFactor":0,"roughnessFactor":0.6000000238418579}},{"doubleSided":true,"name":"Stall_Sack","pbrMetallicRoughness":{"baseColorFactor":[0.7400000095367432,0.6200000047683716,0.41999998688697815,1],"metallicFactor":0}},{"doubleSided":true,"name":"Stall_StripeA","pbrMetallicRoughness":{"baseColorFactor":[0.7200000286102295,0.14000000059604645,0.11999999731779099,1],"metallicFactor":0,"roughnessFactor":0.8999999761581421}},{"doubleSided":true,"name":"Stall_StripeB","pbrMetallicRoughness":{"baseColorFactor":[0.9300000071525574,0.8700000047683716,0.7200000286102295,1],"metallicFactor":0,"roughnessFactor":0.8999999761581421}}],"meshes":[{"name":"market_stall_red","primitives":[{"attributes":{"NORMAL":0,"POSITION":1},"indices":2,"material":0},{"attributes":{"NORMAL":3,"POSITION":4},"indices":5,"material":1},{"attributes":{"NORMAL":6,"POSITION":7},"indices":8,"material":2},{"attributes":{"NORMAL":9,"POSITION":10},"indices":11,"material":3},{"attributes":{"NORMAL":12,"POSITION":13},"indices":11,"material":4},{"attributes":{"NORMAL":14,"POSITION":15},"indices":16,"material":5},{"attributes":{"NORMAL":17,"POSITION":18},"indices":19,"material":6},{"attributes":{"NORMAL":20,"POSITION":21},"indices":22,"material":7},{"attributes":{"NORMAL":23,"POSITION":24},"indices":22,"material":8}]}],"nodes":[{"mesh":0,"name":"market_stall_red"}],"scene":0,"scenes":[{"name":"Scene","nodes":[0]}],"textures":[]}