{"accessors":[{"bufferView":0,"componentType":5126,"count":216,"max":[1.2000000476837158,2.617518186569214,0.8358055353164673],"min":[-1.2000000476837158,0,-0.8419351577758789],"type":"VEC3"},{"bufferView":1,"componentType":5126,"count":216,"type":"VEC3"},{"bufferView":2,"componentType":5126,"count":216,"type":"VEC2"},{"bufferView":3,"componentType":5123,"count":324,"type":"SCALAR"},{"bufferView":4,"componentType":5126,"count":456,"max":[1.2000000476837158,1.375,0.5219351649284363],"min":[-1.2000000476837158,0.02000001072883606,-0.7530648112297058],"type":"VEC3"},{"bufferView":5,"componentType":5126,"count":456,"type":"VEC3"},{"bufferView":6,"componentType":5126,"count":456,"type":"VEC2"},{"bufferView":7,"componentType":5123,"count":648,"type":"SCALAR"},{"bufferView":8,"componentType":5126,"count":48,"max":[0.3499999940395355,0.9700000286102295,0.5319352149963379],"min":[-0.3499999940395355,0.6699999570846558,-0.188064843416214],"type":"VEC3"},{"bufferView":9,"componentType":5126,"count":48,"type":"VEC3"},{"bufferView":10,"componentType":5126,"count":48,"type":"VEC2"},{"bufferView":11,"componentType":5123,"count":72,"type":"SCALAR"},{"bufferView":12,"componentType":5126,"count":864,"max":[-0.53342604637146,1.2600001096725464,0.31850913166999817],"min":[-0.96657395362854,1.0999999046325684,0.025361239910125732],"type":"VEC3"},{"bufferView":13,"componentType":5126,"count":864,"type":"VEC3"},{"bufferView":14,"componentType":5126,"count":864,"type":"VEC2"},{"bufferView":15,"componentType":5123,"count":1152,"type":"SCALAR"},{"bufferView":16,"componentType":5126,"count":864,"max":[0.96657395362854,1.2600001096725464,0.31850913166999817],"min":[0.53342604637146,1.0999999046325684,0.025361239910125732],"type":"VEC3"},{"bufferView":17,"componentType":5126,"count":864,"type":"VEC3"},{"bufferView":18,"componentType":5126,"count":864,"type":"VEC2"},{"bufferView":19,"componentType":5123,"count":1152,"type":"SCALAR"},{"bufferView":20,"componentType":5126,"count":576,"max":[0.20706339180469513,1.0950000286102295,0.24899858236312866],"min":[-0.20706339180469513,0.9449999928474426,0.13487178087234497],"type":"VEC3"},{"bufferView":21,"componentType":5126,"count":576,"type":"VEC3"},{"bufferView":22,"componentType":5126,"count":576,"type":"VEC2"},{"bufferView":23,"componentType":5123,"count":768,"type":"SCALAR"},{"bufferView":24,"componentType":5126,"count":144,"max":[-0.5288097858428955,1.5160000324249268,-0.4068746566772461],"min":[-0.8711901903152466,1.0839998722076416,-0.7492550015449524],"type":"VEC3"},{"bufferView":25,"componentType":5126,"count":144,"type":"VEC3"},{"bufferView":26,"componentType":5126,"count":144,"type":"VEC2"},{"bufferView":27,"componentType":5123,"count":192,"type":"SCALAR"},{"bufferView":28,"componentType":5126,"count":432,"max":[0.9750000238418579,2.654069423675537,0.8419351577758789],"min":[-1.3000000715255737,1.6875,-0.8332661986351013],"type":"VEC3"},{"bufferView":29,"componentType":5126,"count":432,"type":"VEC3"},{"bufferView":30,"componentType":5126,"count":432,"type":"VEC2"},{"bufferView":31,"componentType":5123,"count":720,"type":"SCALAR"},{"bufferView":32,"componentType":5126,"count":432,"max":[1.3000000715255737,2.654069423675537,0.8419351577758789],"min":[-0.9750000238418579,1.6875,-0.8332661986351013],"type":"VEC3"},{"bufferView":33,"componentType":5126,"count":432,"type":"VEC3"},{"bufferView":34,"componentType":5126,"count":432,"type":"VEC2"}],"asset":{"generator":"Khronos glTF Blender I/O v5.2.40","version":"2.0"},"bufferViews":[{"buffer":0,"byteLength":2592,"byteOffset":0,"target":34962},{"buffer":0,"byteLength":2592,"byteOffset":2592,"target":34962},{"buffer":0,"byteLength":1728,"byteOffset":5184,"target":34962},{"buffer":0,"byteLength":648,"byteOffset":6912,"target":34963},{"buffer":0,"byteLength":5472,"byteOffset":7560,"target":34962},{"buffer":0,"byteLength":5472,"byteOffset":13032,"target":34962},{"buffer":0,"byteLength":3648,"byteOffset":18504,"target":34962},{"buffer":0,"byteLength":1296,"byteOffset":22152,"target":34963},{"buffer":0,"byteLength":576,"byteOffset":23448,"target":34962},{"buffer":0,"byteLength":576,"byteOffset":24024,"target":34962},{"buffer":0,"byteLength":384,"byteOffset":24600,"target":34962},{"buffer":0,"byteLength":144,"byteOffset":24984,"target":34963},{"buffer":0,"byteLength":10368,"byteOffset":25128,"target":34962},{"buffer":0,"byteLength":10368,"byteOffset":35496,"target":34962},{"buffer":0,"byteLength":6912,"byteOffset":45864,"target":34962},{"buffer":0,"byteLength":2304,"byteOffset":52776,"target":34963},{"buffer":0,"byteLength":10368,"byteOffset":55080,"target":34962},{"buffer":0,"byteLength":10368,"byteOffset":65448,"target":34962},{"buffer":0,"byteLength":6912,"byteOffset":75816,"target":34962},{"buffer":0,"byteLength":2304,"byteOffset":82728,"target":34963},{"buffer":0,"byteLength":6912,"byteOffset":85032,"target":34962},{"buffer":0,"byteLength":6912,"byteOffset":91944,"target":34962},{"buffer":0,"byteLength":4608,"byteOffset":98856,"target":34962},{"buffer":0,"byteLength":1536,"byteOffset":103464,"target":34963},{"buffer":0,"byteLength":1728,"byteOffset":105000,"target":34962},{"buffer":0,"byteLength":1728,"byteOffset":106728,"target":34962},{"buffer":0,"byteLength":1152,"byteOffset":108456,"target":34962},{"buffer":0,"byteLength":384,"byteOffset":109608,"target":34963},{"buffer":0,"byteLength":5184,"byteOffset":109992,"target":34962},{"buffer":0,"byteLength":5184,"byteOffset":115176,"target":34962},{"buffer":0,"byteLength":3456,"byteOffset":120360,"target":34962},{"buffer":0,"byteLength":1440,"byteOffset":123816,"target":34963},{"buffer":0,"byteLength":5184,"byteOffset":125256,"target":34962},{"buffer":0,"byteLength":5184,"byteOffset":130440,"target":34962},{"buffer":0,"byteLength":3456,"byteOffset":135624,"target":34962}],"buffers":[{"byteLength":139080,"uri":"market_stall_green.bin"}],"images":[],"materials":[{"doubleSided":true,"name":"Stall_WoodDark","pbrMetallicRoughness":{"baseColorFactor":[0.3199999928474426,0.1899999976158142,0.09000000357627869,1],"metallicFactor":0,"roughnessFactor":0.8500000238418579}},{"doubleSided":true,"name":"Stall_Wood","pbrMetallicRoughness":{"baseColorFactor":[0.5,0.3100000023841858,0.15000000596046448,1],"metallicFactor":0,"roughnessFactor":0.8500000238418579}},{"doubleSided":true,"name":"Stall_Cloth","pbrMetallicRoughness":{"baseColorFactor":[0.1599999964237213,0.41999998688697815,0.18000000715255737,1],"metallicFactor":0,"roughnessFactor":0.949999988079071}},{"doubleSided":true,"name":"Stall_Apple","pbrMetallicRoughness":{"baseColorFactor":[0.75,0.11999999731779099,0.10000000149011612,1],"metallicFactor":0,"roughnessFactor":0.6000000238418579}},{"doubleSided":true,"name":"Stall_Orange","pbrMetallicRoughness":{"baseColorFactor":[0.9200000166893005,0.5,0.10000000149011612,1],"metallicFactor":0,"roughnessFactor":0.6000000238418579}},{"doubleSided":true,"name":"Stall_Pear","pbrMetallicRoughness":{"baseColorFactor":[0.6200000047683716,0.7200000286102295,0.20000000298023224,1],"metallicFactor":0,"roughnessFactor":0.6000000238418579}},{"doubleSided":true,"name":"Stall_Sack","pbrMetallicRoughness":{"baseColorFactor":[0.7400000095367432,0.6200000047683716,0.41999998688697815,1],"metallicFactor":0}},{"doubleSided":true,"name":"Stall_StripeA","pbrMetallicRoughness":{"baseColorFactor":[0.1599999964237213,0.41999998688697815,0.18000000715255737,1],"metallicFactor":0,"roughnessFactor":0.8999999761581421}},{"doubleSided":true,"name":"Stall_StripeB","pbrMetallicRoughness":{"baseColorFactor":[0.9300000071525574,0.8700000047683716,0.7200000286102295,1],"metallicFactor":0,"roughnessFactor":0.8999999761581421}}],"meshes":[{"name":"market_stall_green","primitives":[{"attributes":{"NORMAL":1,"POSITION":0,"TEXCOORD_0":2},"indices":3,"material":0},{"attributes":{"NORMAL":5,"POSITION":4,"TEXCOORD_0":6},"indices":7,"material":1},{"attributes":{"NORMAL":9,"POSITION":8,"TEXCOORD_0":10},"indices":11,"material":2},{"attributes":{"NORMAL":13,"POSITION":12,"TEXCOORD_0":14},"indices":15,"material":3},{"attributes":{"NORMAL":17,"POSITION":16,"TEXCOORD_0":18},"indices":19,"material":4},{"attributes":{"NORMAL":21,"POSITION":20,"TEXCOORD_0":22},"indices":23,"material":5},{"attributes":{"NORMAL":25,"POSITION":24,"TEXCOORD_0":26},"indices":27,"material":6},{"attributes":{"NORMAL":29,"POSITION":28,"TEXCOORD_0":30},"indices":31,"material":7},{"attributes":{"NORMAL":33,"POSITION":32,"TEXCOORD_0":34},"indices":31,"material":8}]}],"nodes":[{"mesh":0,"name":"market_stall_green"}],"scene":0,"scenes":[{"name":"Scene","nodes":[0]}],"textures":[]}
