{"accessors":[{"bufferView":0,"componentType":5126,"count":24,"type":"VEC3"},{"bufferView":1,"componentType":5126,"count":24,"max":[6,2.9600000381469727,0],"min":[-6,2.940000057220459,-7.949999809265137],"type":"VEC3"},{"bufferView":2,"componentType":5126,"count":24,"type":"VEC2"},{"bufferView":3,"componentType":5123,"count":36,"type":"SCALAR"},{"bufferView":4,"componentType":5126,"count":24,"type":"VEC3"},{"bufferView":5,"componentType":5126,"count":24,"max":[6.050000190734863,3.0199999809265137,0.6600000262260437],"min":[-6.050000190734863,2.859999895095825,0.4399999976158142],"type":"VEC3"},{"bufferView":6,"componentType":5126,"count":24,"type":"VEC2"},{"bufferView":7,"componentType":5126,"count":24,"type":"VEC3"},{"bufferView":8,"componentType":5126,"count":24,"max":[0.10508709400892258,2.999999761581421,0.11982007324695587],"min":[-0.10508733242750168,-1.5052728485898115e-07,-0.11982005089521408],"type":"VEC3"},{"bufferView":9,"componentType":5126,"count":24,"type":"VEC2"},{"bufferView":10,"componentType":5123,"count":36,"type":"SCALAR"},{"bufferView":11,"componentType":5126,"count":44,"type":"VEC3"},{"bufferView":12,"componentType":5126,"count":44,"max":[0.1452266424894333,2.999999761581421,0.16558900475502014],"min":[-0.14522837102413177,-1.6249023815362307e-07,-0.16558872163295746],"type":"VEC3"},{"bufferView":13,"componentType":5126,"count":44,"type":"VEC2"},{"bufferView":14,"componentType":5123,"count":102,"type":"SCALAR"},{"bufferView":15,"componentType":5126,"count":44,"type":"VEC3"},{"bufferView":16,"componentType":5126,"count":44,"max":[0.1452266424894333,2.999999761581421,0.16558900475502014],"min":[-0.14522837102413177,-1.6249023815362307e-07,-0.16558872163295746],"type":"VEC3"},{"bufferView":17,"componentType":5126,"count":44,"type":"VEC2"},{"bufferView":18,"componentType":5126,"count":44,"type":"VEC3"},{"bufferView":19,"componentType":5126,"count":44,"max":[0.1452266424894333,2.999999761581421,0.16558900475502014],"min":[-0.14522837102413177,-1.6249023815362307e-07,-0.16558872163295746],"type":"VEC3"},{"bufferView":20,"componentType":5126,"count":44,"type":"VEC2"},{"bufferView":21,"componentType":5126,"count":44,"type":"VEC3"},{"bufferView":22,"componentType":5126,"count":44,"max":[0.1452266424894333,2.999999761581421,0.16558900475502014],"min":[-0.14522837102413177,-1.6249023815362307e-07,-0.16558872163295746],"type":"VEC3"},{"bufferView":23,"componentType":5126,"count":44,"type":"VEC2"},{"bufferView":24,"componentType":5126,"count":44,"type":"VEC3"},{"bufferView":25,"componentType":5126,"count":44,"max":[0.1452266424894333,2.999999761581421,0.16558900475502014],"min":[-0.14522837102413177,-1.6249023815362307e-07,-0.16558872163295746],"type":"VEC3"},{"bufferView":26,"componentType":5126,"count":44,"type":"VEC2"},{"bufferView":27,"componentType":5126,"count":44,"type":"VEC3"},{"bufferView":28,"componentType":5126,"count":44,"max":[0.1452266424894333,2.999999761581421,0.16558900475502014],"min":[-0.14522837102413177,-1.6249023815362307e-07,-0.16558872163295746],"type":"VEC3"},{"bufferView":29,"componentType":5126,"count":44,"type":"VEC2"},{"bufferView":30,"componentType":5126,"count":44,"type":"VEC3"},{"bufferView":31,"componentType":5126,"count":44,"max":[0.1452266424894333,2.999999761581421,0.16558900475502014],"min":[-0.14522837102413177,-1.6249023815362307e-07,-0.16558872163295746],"type":"VEC3"},{"bufferView":32,"componentType":5126,"count":44,"type":"VEC2"},{"bufferView":33,"componentType":5126,"count":44,"type":"VEC3"},{"bufferView":34,"componentType":5126,"count":44,"max":[0.1452266424894333,2.999999761581421,0.16558900475502014],"min":[-0.14522837102413177,-1.6249023815362307e-07,-0.16558872163295746],"type":"VEC3"},{"bufferView":35,"componentType":5126,"count":44,"type":"VEC2"},{"bufferView":36,"componentType":5126,"count":44,"type":"VEC3"},{"bufferView":37,"componentType":5126,"count":44,"max":[0.1452266424894333,2.999999761581421,0.16558900475502014],"min":[-0.14522837102413177,-1.6249023815362307e-07,-0.16558872163295746],"type":"VEC3"},{"bufferView":38,"componentType":5126,"count":44,"type":"VEC2"},{"bufferView":39,"componentType":5126,"count":44,"type":"VEC3"},{"bufferView":40,"componentType":5126,"count":44,"max":[0.1452266424894333,2.999999761581421,0.16558900475502014],"min":[-0.14522837102413177,-1.6249023815362307e-07,-0.16558872163295746],"type":"VEC3"},{"bufferView":41,"componentType":5126,"count":44,"type":"VEC2"},{"bufferView":42,"componentType":5126,"count":44,"type":"VEC3"},{"bufferView":43,"componentType":5126,"count":44,"max":[0.1452266424894333,2.999999761581421,0.16558900475502014],"min":[-0.14522837102413177,-1.6249023815362307e-07,-0.16558872163295746],"type":"VEC3"},{"bufferView":44,"componentType":5126,"count":44,"type":"VEC2"},{"bufferView":45,"componentType":5126,"count":44,"type":"VEC3"},{"bufferView":46,"componentType":5126,"count":44,"max":[0.1452266424894333,2.999999761581421,0.16558900475502014],"min":[-0.14522837102413177,-1.6249023815362307e-07,-0.16558872163295746],"type":"VEC3"},{"bufferView":47,"componentType":5126,"count":44,"type":"VEC2"},{"bufferView":48,"componentType":5126,"count":44,"type":"VEC3"},{"bufferView":49,"componentType":5126,"count":44,"max":[0.1452266424894333,2.999999761581421,0.16558900475502014],"min":[-0.14522837102413177,-1.6249023815362307e-07,-0.16558872163295746],"type":"VEC3"},{"bufferView":50,"componentType":5126,"count":44,"type":"VEC2"},{"bufferView":51,"componentType":5126,"count":44,"type":"VEC3"},{"bufferView":52,"componentType":5126,"count":44,"max":[0.1452266424894333,2.999999761581421,0.16558900475502014],"min":[-0.14522837102413177,-1.6249023815362307e-07,-0.16558872163295746],"type":"VEC3"},{"bufferView":53,"componentType":5126,"count":44,"type":"VEC2"},{"bufferView":54,"componentType":5126,"count":44,"type":"VEC3"},{"bufferView":55,"componentType":5126,"count":44,"max":[0.1452266424894333,2.999999761581421,0.16558900475502014],"min":[-0.14522837102413177,-1.6249023815362307e-07,-0.16558872163295746],"type":"VEC3"},{"bufferView":56,"componentType":5126,"count":44,"type":"VEC2"},{"bufferView":57,"componentType":5126,"count":8,"type":"VEC3"},{"bufferView":58,"componentType":5126,"count":8,"max":[1,0.009999990463256836,1],"min":[-1,-0.010000384412705898,-1],"type":"VEC3"},{"bufferView":59,"componentType":5126,"count":8,"type":"VEC2"},{"bufferView":60,"componentType":5123,"count":12,"type":"SCALAR"},{"bufferView":61,"componentType":5126,"count":64,"type":"VEC3"},{"bufferView":62,"componentType":5126,"count":64,"max":[1,0.009999990463256836,1],"min":[-1,-0.010000384412705898,-1],"type":"VEC3"},{"bufferView":63,"componentType":5126,"count":64,"type":"VEC2"},{"bufferView":64,"componentType":5123,"count":96,"type":"SCALAR"},{"bufferView":65,"componentType":5126,"count":20,"type":"VEC3"},{"bufferView":66,"componentType":5126,"count":20,"max":[-5.739999771118164,0.44999998807907104,0.25999999046325684],"min":[-6.260000228881836,0,-0.25999999046325684],"type":"VEC3"},{"bufferView":67,"componentType":5126,"count":20,"type":"VEC2"},{"bufferView":68,"componentType":5123,"count":30,"type":"SCALAR"},{"bufferView":69,"componentType":5126,"count":20,"type":"VEC3"},{"bufferView":70,"componentType":5126,"count":20,"max":[-3.740000009536743,0.44999998807907104,0.25999999046325684],"min":[-4.260000228881836,0,-0.25999999046325684],"type":"VEC3"},{"bufferView":71,"componentType":5126,"count":20,"type":"VEC2"},{"bufferView":72,"componentType":5126,"count":20,"type":"VEC3"},{"bufferView":73,"componentType":5126,"count":20,"max":[-1.7400000095367432,0.44999998807907104,0.25999999046325684],"min":[-2.259999990463257,0,-0.25999999046325684],"type":"VEC3"},{"bufferView":74,"componentType":5126,"count":20,"type":"VEC2"},{"bufferView":75,"componentType":5126,"count":20,"type":"VEC3"},{"bufferView":76,"componentType":5126,"count":20,"max":[0.25999999046325684,0.44999998807907104,0.25999999046325684],"min":[-0.25999999046325684,0,-0.25999999046325684],"type":"VEC3"},{"bufferView":77,"componentType":5126,"count":20,"type":"VEC2"},{"bufferView":78,"componentType":5126,"count":20,"type":"VEC3"},{"bufferView":79,"componentType":5126,"count":20,"max":[2.259999990463257,0.44999998807907104,0.25999999046325684],"min":[1.7400000095367432,0,-0.25999999046325684],"type":"VEC3"},{"bufferView":80,"componentType":5126,"count":20,"type":"VEC2"},{"bufferView":81,"componentType":5126,"count":20,"type":"VEC3"},{"bufferView":82,"componentType":5126,"count":20,"max":[4.260000228881836,0.44999998807907104,0.25999999046325684],"min":[3.740000009536743,0,-0.25999999046325684],"type":"VEC3"},{"bufferView":83,"componentType":5126,"count":20,"type":"VEC2"},{"bufferView":84,"componentType":5126,"count":20,"type":"VEC3"},{"bufferView":85,"componentType":5126,"count":20,"max":[6.260000228881836,0.44999998807907104,0.25999999046325684],"min":[5.739999771118164,0,-0.25999999046325684],"type":"VEC3"},{"bufferView":86,"componentType":5126,"count":20,"type":"VEC2"},{"bufferView":87,"componentType":5126,"count":20,"type":"VEC3"},{"bufferView":88,"componentType":5126,"count":20,"max":[-5.739999771118164,0.44999998807907104,-1.7400000095367432],"min":[-6.260000228881836,0,-2.259999990463257],"type":"VEC3"},{"bufferView":89,"componentType":5126,"count":20,"type":"VEC2"},{"bufferView":90,"componentType":5126,"count":20,"type":"VEC3"},{"bufferView":91,"componentType":5126,"count":20,"max":[6.260000228881836,0.44999998807907104,-1.7400000095367432],"min":[5.739999771118164,0,-2.259999990463257],"type":"VEC3"},{"bufferView":92,"componentType":5126,"count":20,"type":"VEC2"},{"bufferView":93,"componentType":5126,"count":20,"type":"VEC3"},{"bufferView":94,"componentType":5126,"count":20,"max":[-5.739999771118164,0.44999998807907104,-3.740000009536743],"min":[-6.260000228881836,0,-4.260000228881836],"type":"VEC3"},{"bufferView":95,"componentType":5126,"count":20,"type":"VEC2"},{"bufferView":96,"componentType":5126,"count":20,"type":"VEC3"},{"bufferView":97,"componentType":5126,"count":20,"max":[6.260000228881836,0.44999998807907104,-3.740000009536743],"min":[5.739999771118164,0,-4.260000228881836],"type":"VEC3"},{"bufferView":98,"componentType":5126,"count":20,"type":"VEC2"},{"bufferView":99,"componentType":5126,"count":20,"type":"VEC3"},{"bufferView":100,"componentType":5126,"count":20,"max":[-5.739999771118164,0.44999998807907104,-5.739999771118164],"min":[-6.260000228881836,0,-6.260000228881836],"type":"VEC3"},{"bufferView":101,"componentType":5126,"count":20,"type":"VEC2"},{"bufferView":102,"componentType":5126,"count":20,"type":"VEC3"},{"bufferView":103,"componentType":5126,"count":20,"max":[6.260000228881836,0.44999998807907104,-5.739999771118164],"min":[5.739999771118164,0,-6.260000228881836],"type":"VEC3"},{"bufferView":104,"componentType":5126,"count":20,"type":"VEC2"},{"bufferView":105,"componentType":5126,"count":20,"type":"VEC3"},{"bufferView":106,"componentType":5126,"count":20,"max":[-5.739999771118164,0.44999998807907104,-7.739999771118164],"min":[-6.260000228881836,0,-8.260000228881836],"type":"VEC3"},{"bufferView":107,"componentType":5126,"count":20,"type":"VEC2"},{"bufferView":108,"componentType":5126,"count":20,"type":"VEC3"},{"bufferView":109,"componentType":5126,"count":20,"max":[6.260000228881836,0.44999998807907104,-7.739999771118164],"min":[5.739999771118164,0,-8.260000228881836],"type":"VEC3"},{"bufferView":110,"componentType":5126,"count":20,"type":"VEC2"},{"bufferView":111,"componentType":5126,"count":460,"type":"VEC3"},{"bufferView":112,"componentType":5126,"count":460,"max":[0.5417912006378174,1.0629422664642334,0.5417912006378174],"min":[-0.5417912602424622,0.003361523151397705,-0.5417911410331726],"type":"VEC3"},{"bufferView":113,"componentType":5126,"count":460,"type":"VEC2"},{"bufferView":114,"componentType":5123,"count":690,"type":"SCALAR"},{"bufferView":115,"componentType":5126,"count":488,"type":"VEC3"},{"bufferView":116,"componentType":5126,"count":488,"max":[3.347877264022827,4.383981704711914,0.7941403388977051],"min":[-3.346518039703369,-0.13180209696292877,-0.33496367931365967],"type":"VEC3"},{"bufferView":117,"componentType":5126,"count":488,"type":"VEC2"},{"bufferView":118,"componentType":5123,"count":912,"type":"SCALAR"},{"bufferView":119,"componentType":5126,"count":20,"type":"VEC3"},{"bufferView":120,"componentType":5126,"count":20,"max":[3.1225504875183105,4.377229690551758,1.375610736431554e-11],"min":[-3.1225504875183105,0.019167041406035423,-0.24970144033432007],"type":"VEC3"},{"bufferView":121,"componentType":5126,"count":20,"type":"VEC2"},{"bufferView":122,"componentType":5123,"count":48,"type":"SCALAR"},{"bufferView":123,"componentType":5126,"count":488,"type":"VEC3"},{"bufferView":124,"componentType":5126,"count":488,"max":[3.347877264022827,4.383981704711914,0.7941403388977051],"min":[-3.346518039703369,-0.13180209696292877,-0.33496367931365967],"type":"VEC3"},{"bufferView":125,"componentType":5126,"count":488,"type":"VEC2"},{"bufferView":126,"componentType":5126,"count":20,"type":"VEC3"},{"bufferView":127,"componentType":5126,"count":20,"max":[3.1225504875183105,4.377229690551758,1.375610736431554e-11],"min":[-3.1225504875183105,0.019167041406035423,-0.24970144033432007],"type":"VEC3"},{"bufferView":128,"componentType":5126,"count":20,"type":"VEC2"},{"bufferView":129,"componentType":5126,"count":488,"type":"VEC3"},{"bufferView":130,"componentType":5126,"count":488,"max":[3.347877264022827,4.383981704711914,0.7941403388977051],"min":[-3.346518039703369,-0.13180209696292877,-0.33496367931365967],"type":"VEC3"},{"bufferView":131,"componentType":5126,"count":488,"type":"VEC2"},{"bufferView":132,"componentType":5126,"count":20,"type":"VEC3"},{"bufferView":133,"componentType":5126,"count":20,"max":[3.1225504875183105,4.377229690551758,1.375610736431554e-11],"min":[-3.1225504875183105,0.019167041406035423,-0.24970144033432007],"type":"VEC3"},{"bufferView":134,"componentType":5126,"count":20,"type":"VEC2"},{"bufferView":135,"componentType":5126,"count":488,"type":"VEC3"},{"bufferView":136,"componentType":5126,"count":488,"max":[3.347877264022827,4.383981704711914,0.7941403388977051],"min":[-3.346518039703369,-0.13180209696292877,-0.33496367931365967],"type":"VEC3"},{"bufferView":137,"componentType":5126,"count":488,"type":"VEC2"},{"bufferView":138,"componentType":5126,"count":20,"type":"VEC3"},{"bufferView":139,"componentType":5126,"count":20,"max":[3.1225504875183105,4.377229690551758,1.375610736431554e-11],"min":[-3.1225504875183105,0.019167041406035423,-0.24970144033432007],"type":"VEC3"},{"bufferView":140,"componentType":5126,"count":20,"type":"VEC2"},{"bufferView":141,"componentType":5126,"count":1616,"type":"VEC3"},{"bufferView":142,"componentType":5126,"count":1616,"max":[3.958951234817505,4.342607498168945,4.828753471374512],"min":[-3.958951234817505,-0.7821269035339355,-4.828753471374512],"type":"VEC3"},{"bufferView":143,"componentType":5126,"count":1616,"type":"VEC2"},{"bufferView":144,"componentType":5123,"count":2616,"type":"SCALAR"},{"bufferView":145,"componentType":5126,"count":1540,"type":"VEC3"},{"bufferView":146,"componentType":5126,"count":1540,"max":[4.124891757965088,4.890044689178467,4.8539862632751465],"min":[-4.124891757965088,-0.6384454965591431,-4.756110191345215],"type":"VEC3"},{"bufferView":147,"componentType":5126,"count":1540,"type":"VEC2"},{"bufferView":148,"componentType":5123,"count":4215,"type":"SCALAR"},{"bufferView":149,"componentType":5126,"count":124,"type":"VEC3"},{"bufferView":150,"componentType":5126,"count":124,"max":[0.09985005855560303,0.06566542387008667,0.7651262283325195],"min":[-0.09984996169805527,-0.6772639155387878,-1.62676236925563e-08],"type":"VEC3"},{"bufferView":151,"componentType":5126,"count":124,"type":"VEC2"},{"bufferView":152,"componentType":5123,"count":252,"type":"SCALAR"},{"bufferView":153,"componentType":5126,"count":252,"type":"VEC3"},{"bufferView":154,"componentType":5126,"count":252,"max":[1,3,0.06404569000005722],"min":[-1,-1.1920928955078125e-07,-3.725290298461914e-08],"type":"VEC3"},{"bufferView":155,"componentType":5126,"count":252,"type":"VEC2"},{"bufferView":156,"componentType":5123,"count":576,"type":"SCALAR"},{"bufferView":157,"componentType":5126,"count":252,"type":"VEC3"},{"bufferView":158,"componentType":5126,"count":252,"max":[1,3,0.06404569000005722],"min":[-1,-1.1920928955078125e-07,-3.725290298461914e-08],"type":"VEC3"},{"bufferView":159,"componentType":5126,"count":252,"type":"VEC2"},{"bufferView":160,"componentType":5126,"count":252,"type":"VEC3"},{"bufferView":161,"componentType":5126,"count":252,"max":[1,3,0.06404569000005722],"min":[-1,-1.1920928955078125e-07,-3.725290298461914e-08],"type":"VEC3"},{"bufferView":162,"componentType":5126,"count":252,"type":"VEC2"},{"bufferView":163,"componentType":5126,"count":252,"type":"VEC3"},{"bufferView":164,"componentType":5126,"count":252,"max":[1,3,0.06404569000005722],"min":[-1,-1.1920928955078125e-07,-3.725290298461914e-08],"type":"VEC3"},{"bufferView":165,"componentType":5126,"count":252,"type":"VEC2"},{"bufferView":166,"componentType":5126,"count":252,"type":"VEC3"},{"bufferView":167,"componentType":5126,"count":252,"max":[1,3,0.06404569000005722],"min":[-1,-1.1920928955078125e-07,-3.725290298461914e-08],"type":"VEC3"},{"bufferView":168,"componentType":5126,"count":252,"type":"VEC2"},{"bufferView":169,"componentType":5126,"count":252,"type":"VEC3"},{"bufferView":170,"componentType":5126,"count":252,"max":[1,3,0.06404569000005722],"min":[-1,-1.1920928955078125e-07,-3.725290298461914e-08],"type":"VEC3"},{"bufferView":171,"componentType":5126,"count":252,"type":"VEC2"},{"bufferView":172,"componentType":5126,"count":252,"type":"VEC3"},{"bufferView":173,"componentType":5126,"count":252,"max":[1,3,0.06404569000005722],"min":[-1,-1.1920928955078125e-07,-3.725290298461914e-08],"type":"VEC3"},{"bufferView":174,"componentType":5126,"count":252,"type":"VEC2"},{"bufferView":175,"componentType":5126,"count":252,"type":"VEC3"},{"bufferView":176,"componentType":5126,"count":252,"max":[1,3,0.06404569000005722],"min":[-1,-1.1920928955078125e-07,-3.725290298461914e-08],"type":"VEC3"},{"bufferView":177,"componentType":5126,"count":252,"type":"VEC2"},{"bufferView":178,"componentType":5126,"count":252,"type":"VEC3"},{"bufferView":179,"componentType":5126,"count":252,"max":[1,3,0.06404569000005722],"min":[-1,-1.1920928955078125e-07,-3.725290298461914e-08],"type":"VEC3"},{"bufferView":180,"componentType":5126,"count":252,"type":"VEC2"},{"bufferView":181,"componentType":5126,"count":252,"type":"VEC3"},{"bufferView":182,"componentType":5126,"count":252,"max":[1,3,0.06404569000005722],"min":[-1,-1.1920928955078125e-07,-3.725290298461914e-08],"type":"VEC3"},{"bufferView":183,"componentType":5126,"count":252,"type":"VEC2"},{"bufferView":184,"componentType":5126,"count":252,"type":"VEC3"},{"bufferView":185,"componentType":5126,"count":252,"max":[1,3,0.06404569000005722],"min":[-1,-1.1920928955078125e-07,-3.725290298461914e-08],"type":"VEC3"},{"bufferView":186,"componentType":5126,"count":252,"type":"VEC2"},{"bufferView":187,"componentType":5126,"count":252,"type":"VEC3"},{"bufferView":188,"componentType":5126,"count":252,"max":[1,3,0.06404569000005722],"min":[-1,-1.1920928955078125e-07,-3.725290298461914e-08],"type":"VEC3"},{"bufferView":189,"componentType":5126,"count":252,"type":"VEC2"},{"bufferView":190,"componentType":5126,"count":252,"type":"VEC3"},{"bufferView":191,"componentType":5126,"count":252,"max":[1,3,0.06404569000005722],"min":[-1,-1.1920928955078125e-07,-3.725290298461914e-08],"type":"VEC3"},{"bufferView":192,"componentType":5126,"count":252,"type":"VEC2"},{"bufferView":193,"componentType":5126,"count":252,"type":"VEC3"},{"bufferView":194,"componentType":5126,"count":252,"max":[1,3,0.06404569000005722],"min":[-1,-1.1920928955078125e-07,-3.725290298461914e-08],"type":"VEC3"},{"bufferView":195,"componentType":5126,"count":252,"type":"VEC2"},{"bufferView":196,"componentType":5126,"count":126,"type":"VEC3"},{"bufferView":197,"componentType":5126,"count":126,"max":[1,3.1226887702941895,0.0924467146396637],"min":[-1.0000001192092896,-0.0020958781242370605,-0.3140353262424469],"type":"VEC3"},{"bufferView":198,"componentType":5126,"count":126,"type":"VEC2"},{"bufferView":199,"componentType":5123,"count":240,"type":"SCALAR"},{"bufferView":200,"componentType":5126,"count":12,"type":"VEC3"},{"bufferView":201,"componentType":5126,"count":12,"max":[1,3,1.3113415775478643e-07],"min":[-1,0,-0.2000000923871994],"type":"VEC3"},{"bufferView":202,"componentType":5126,"count":12,"type":"VEC2"},{"bufferView":203,"componentType":5123,"count":18,"type":"SCALAR"},{"bufferView":204,"componentType":5126,"count":126,"type":"VEC3"},{"bufferView":205,"componentType":5126,"count":126,"max":[1,3.1226887702941895,0.0924467146396637],"min":[-1.0000001192092896,-0.0020958781242370605,-0.3140353262424469],"type":"VEC3"},{"bufferView":206,"componentType":5126,"count":126,"type":"VEC2"},{"bufferView":207,"componentType":5126,"count":12,"type":"VEC3"},{"bufferView":208,"componentType":5126,"count":12,"max":[1,3,1.3113415775478643e-07],"min":[-1,0,-0.2000000923871994],"type":"VEC3"},{"bufferView":209,"componentType":5126,"count":12,"type":"VEC2"},{"bufferView":210,"componentType":5126,"count":80,"type":"VEC3"},{"bufferView":211,"componentType":5126,"count":80,"max":[1,3.1226887702941895,0.0924467146396637],"min":[-1.0000001192092896,0.6495776176452637,-0.3140353262424469],"type":"VEC3"},{"bufferView":212,"componentType":5126,"count":80,"type":"VEC2"},{"bufferView":213,"componentType":5123,"count":174,"type":"SCALAR"},{"bufferView":214,"componentType":5126,"count":8,"type":"VEC3"},{"bufferView":215,"componentType":5126,"count":8,"max":[1,3,1.3113415775478643e-07],"min":[-1,0,-0.2000000923871994],"type":"VEC3"},{"bufferView":216,"componentType":5126,"count":8,"type":"VEC2"},{"bufferView":217,"componentType":5123,"count":12,"type":"SCALAR"},{"bufferView":218,"componentType":5126,"count":4,"type":"VEC3"},{"bufferView":219,"componentType":5126,"count":4,"max":[1,0.8799999952316284,4.371138828673793e-08],"min":[-1,0,0],"type":"VEC3"},{"bufferView":220,"componentType":5126,"count":4,"type":"VEC2"},{"bufferView":221,"componentType":5123,"count":6,"type":"SCALAR"},{"bufferView":222,"componentType":5126,"count":88,"type":"VEC3"},{"bufferView":223,"componentType":5126,"count":88,"max":[1,3,1.3113415775478643e-07],"min":[-1,0,-0.2000000923871994],"type":"VEC3"},{"bufferView":224,"componentType":5126,"count":88,"type":"VEC2"},{"bufferView":225,"componentType":5123,"count":264,"type":"SCALAR"},{"bufferView":226,"componentType":5126,"count":22,"type":"VEC3"},{"bufferView":227,"componentType":5126,"count":22,"max":[1,0.8799999952316284,4.371138828673793e-08],"min":[-1,0,0],"type":"VEC3"},{"bufferView":228,"componentType":5126,"count":22,"type":"VEC2"},{"bufferView":229,"componentType":5123,"count":60,"type":"SCALAR"},{"bufferView":230,"componentType":5126,"count":104,"type":"VEC3"},{"bufferView":231,"componentType":5126,"count":104,"max":[1,3.1226887702941895,0.0924467146396637],"min":[-1.0000001192092896,0.6495776176452637,-0.3140353262424469],"type":"VEC3"},{"bufferView":232,"componentType":5126,"count":104,"type":"VEC2"},{"bufferView":233,"componentType":5123,"count":174,"type":"SCALAR"},{"bufferView":234,"componentType":5126,"count":134,"type":"VEC3"},{"bufferView":235,"componentType":5126,"count":134,"max":[1,3.1226887702941895,0.0924467146396637],"min":[-1.0000001192092896,-0.023045778274536133,-0.3140353262424469],"type":"VEC3"},{"bufferView":236,"componentType":5126,"count":134,"type":"VEC2"},{"bufferView":237,"componentType":5123,"count":252,"type":"SCALAR"},{"bufferView":238,"componentType":5126,"count":40,"type":"VEC3"},{"bufferView":239,"componentType":5126,"count":40,"max":[1,3,1.3113415775478643e-07],"min":[-1,0,-0.2000000923871994],"type":"VEC3"},{"bufferView":240,"componentType":5126,"count":40,"type":"VEC2"},{"bufferView":241,"componentType":5123,"count":114,"type":"SCALAR"},{"bufferView":242,"componentType":5126,"count":32,"type":"VEC3"},{"bufferView":243,"componentType":5126,"count":32,"max":[1,3,1.3113417196564114e-07],"min":[-1,0,-0.2000000923871994],"type":"VEC3"},{"bufferView":244,"componentType":5126,"count":32,"type":"VEC2"},{"bufferView":245,"componentType":5123,"count":96,"type":"SCALAR"},{"bufferView":246,"componentType":5126,"count":8,"type":"VEC3"},{"bufferView":247,"componentType":5126,"count":8,"max":[1,0.8799999952316284,4.371138828673793e-08],"min":[-1,0,0],"type":"VEC3"},{"bufferView":248,"componentType":5126,"count":8,"type":"VEC2"},{"bufferView":249,"componentType":5123,"count":18,"type":"SCALAR"},{"bufferView":250,"componentType":5126,"count":80,"type":"VEC3"},{"bufferView":251,"componentType":5126,"count":80,"max":[1,3.1226887702941895,0.0924467146396637],"min":[-1.0000001192092896,0.6495776176452637,-0.3140353262424469],"type":"VEC3"},{"bufferView":252,"componentType":5126,"count":80,"type":"VEC2"},{"bufferView":253,"componentType":5126,"count":402,"type":"VEC3"},{"bufferView":254,"componentType":5126,"count":402,"max":[0.44381028413772583,2.6207287311553955,0.0923665463924408],"min":[-0.44381028413772583,1.01604425907135,-0.2520223557949066],"type":"VEC3"},{"bufferView":255,"componentType":5126,"count":402,"type":"VEC2"},{"bufferView":256,"componentType":5123,"count":786,"type":"SCALAR"},{"bufferView":257,"componentType":5126,"count":83,"type":"VEC3"},{"bufferView":258,"componentType":5126,"count":83,"max":[0.277061402797699,2.478931427001953,0.003888234496116638],"min":[-0.27893951535224915,1.0875728130340576,0.0038879886269569397],"type":"VEC3"},{"bufferView":259,"componentType":5123,"count":153,"type":"SCALAR"},{"bufferView":260,"componentType":5126,"count":272,"type":"VEC3"},{"bufferView":261,"componentType":5126,"count":272,"max":[0.8041172027587891,2.5242888927459717,0.4168574810028076],"min":[-0.8041191101074219,0.94417804479599,-0.26658084988594055],"type":"VEC3"},{"bufferView":262,"componentType":5126,"count":272,"type":"VEC2"},{"bufferView":263,"componentType":5123,"count":408,"type":"SCALAR"},{"bufferView":264,"componentType":5126,"count":45,"type":"VEC3"},{"bufferView":265,"componentType":5126,"count":45,"max":[0.5054702758789062,2.355356216430664,0.003888234496116638],"min":[-0.5054721832275391,1.0971393585205078,0.0038878247141838074],"type":"VEC3"},{"bufferView":266,"componentType":5123,"count":72,"type":"SCALAR"}],"asset":{"generator":"Khronos glTF Blender I/O v5.2.40","version":"2.0"},"bufferViews":[{"buffer":0,"byteOffset":0,"byteLength":288,"target":34962},{"buffer":0,"byteOffset":288,"byteLength":288,"target":34962},{"buffer":0,"byteOffset":576,"byteLength":192,"target":34962},{"buffer":0,"byteOffset":768,"byteLength":72,"target":34963},{"buffer":0,"byteOffset":840,"byteLength":288,"target":34962},{"buffer":0,"byteOffset":1128,"byteLength":288,"target":34962},{"buffer":0,"byteOffset":1416,"byteLength":192,"target":34962},{"buffer":0,"byteOffset":1608,"byteLength":288,"target":34962},{"buffer":0,"byteOffset":1896,"byteLength":288,"target":34962},{"buffer":0,"byteOffset":2184,"byteLength":192,"target":34962},{"buffer":0,"byteOffset":2376,"byteLength":72,"target":34963},{"buffer":0,"byteOffset":2448,"byteLength":528,"target":34962},{"buffer":0,"byteOffset":2976,"byteLength":528,"target":34962},{"buffer":0,"byteOffset":3504,"byteLength":352,"target":34962},{"buffer":0,"byteOffset":3856,"byteLength":204,"target":34963},{"buffer":0,"byteOffset":4060,"byteLength":528,"target":34962},{"buffer":0,"byteOffset":4588,"byteLength":528,"target":34962},{"buffer":0,"byteOffset":5116,"byteLength":352,"target":34962},{"buffer":0,"byteOffset":5468,"byteLength":528,"target":34962},{"buffer":0,"byteOffset":5996,"byteLength":528,"target":34962},{"buffer":0,"byteOffset":6524,"byteLength":352,"target":34962},{"buffer":0,"byteOffset":6876,"byteLength":528,"target":34962},{"buffer":0,"byteOffset":7404,"byteLength":528,"target":34962},{"buffer":0,"byteOffset":7932,"byteLength":352,"target":34962},{"buffer":0,"byteOffset":8284,"byteLength":528,"target":34962},{"buffer":0,"byteOffset":8812,"byteLength":528,"target":34962},{"buffer":0,"byteOffset":9340,"byteLength":352,"target":34962},{"buffer":0,"byteOffset":9692,"byteLength":528,"target":34962},{"buffer":0,"byteOffset":10220,"byteLength":528,"target":34962},{"buffer":0,"byteOffset":10748,"byteLength":352,"target":34962},{"buffer":0,"byteOffset":11100,"byteLength":528,"target":34962},{"buffer":0,"byteOffset":11628,"byteLength":528,"target":34962},{"buffer":0,"byteOffset":12156,"byteLength":352,"target":34962},{"buffer":0,"byteOffset":12508,"byteLength":528,"target":34962},{"buffer":0,"byteOffset":13036,"byteLength":528,"target":34962},{"buffer":0,"byteOffset":13564,"byteLength":352,"target":34962},{"buffer":0,"byteOffset":13916,"byteLength":528,"target":34962},{"buffer":0,"byteOffset":14444,"byteLength":528,"target":34962},{"buffer":0,"byteOffset":14972,"byteLength":352,"target":34962},{"buffer":0,"byteOffset":15324,"byteLength":528,"target":34962},{"buffer":0,"byteOffset":15852,"byteLength":528,"target":34962},{"buffer":0,"byteOffset":16380,"byteLength":352,"target":34962},{"buffer":0,"byteOffset":16732,"byteLength":528,"target":34962},{"buffer":0,"byteOffset":17260,"byteLength":528,"target":34962},{"buffer":0,"byteOffset":17788,"byteLength":352,"target":34962},{"buffer":0,"byteOffset":18140,"byteLength":528,"target":34962},{"buffer":0,"byteOffset":18668,"byteLength":528,"target":34962},{"buffer":0,"byteOffset":19196,"byteLength":352,"target":34962},{"buffer":0,"byteOffset":19548,"byteLength":528,"target":34962},{"buffer":0,"byteOffset":20076,"byteLength":528,"target":34962},{"buffer":0,"byteOffset":20604,"byteLength":352,"target":34962},{"buffer":0,"byteOffset":20956,"byteLength":528,"target":34962},{"buffer":0,"byteOffset":21484,"byteLength":528,"target":34962},{"buffer":0,"byteOffset":22012,"byteLength":352,"target":34962},{"buffer":0,"byteOffset":22364,"byteLength":528,"target":34962},{"buffer":0,"byteOffset":22892,"byteLength":528,"target":34962},{"buffer":0,"byteOffset":23420,"byteLength":352,"target":34962},{"buffer":0,"byteOffset":23772,"byteLength":96,"target":34962},{"buffer":0,"byteOffset":23868,"byteLength":96,"target":34962},{"buffer":0,"byteOffset":23964,"byteLength":64,"target":34962},{"buffer":0,"byteOffset":24028,"byteLength":24,"target":34963},{"buffer":0,"byteOffset":24052,"byteLength":768,"target":34962},{"buffer":0,"byteOffset":24820,"byteLength":768,"target":34962},{"buffer":0,"byteOffset":25588,"byteLength":512,"target":34962},{"buffer":0,"byteOffset":26100,"byteLength":192,"target":34963},{"buffer":0,"byteOffset":26292,"byteLength":240,"target":34962},{"buffer":0,"byteOffset":26532,"byteLength":240,"target":34962},{"buffer":0,"byteOffset":26772,"byteLength":160,"target":34962},{"buffer":0,"byteOffset":26932,"byteLength":60,"target":34963},{"buffer":0,"byteOffset":26992,"byteLength":240,"target":34962},{"buffer":0,"byteOffset":27232,"byteLength":240,"target":34962},{"buffer":0,"byteOffset":27472,"byteLength":160,"target":34962},{"buffer":0,"byteOffset":27632,"byteLength":240,"target":34962},{"buffer":0,"byteOffset":27872,"byteLength":240,"target":34962},{"buffer":0,"byteOffset":28112,"byteLength":160,"target":34962},{"buffer":0,"byteOffset":28272,"byteLength":240,"target":34962},{"buffer":0,"byteOffset":28512,"byteLength":240,"target":34962},{"buffer":0,"byteOffset":28752,"byteLength":160,"target":34962},{"buffer":0,"byteOffset":28912,"byteLength":240,"target":34962},{"buffer":0,"byteOffset":29152,"byteLength":240,"target":34962},{"buffer":0,"byteOffset":29392,"byteLength":160,"target":34962},{"buffer":0,"byteOffset":29552,"byteLength":240,"target":34962},{"buffer":0,"byteOffset":29792,"byteLength":240,"target":34962},{"buffer":0,"byteOffset":30032,"byteLength":160,"target":34962},{"buffer":0,"byteOffset":30192,"byteLength":240,"target":34962},{"buffer":0,"byteOffset":30432,"byteLength":240,"target":34962},{"buffer":0,"byteOffset":30672,"byteLength":160,"target":34962},{"buffer":0,"byteOffset":30832,"byteLength":240,"target":34962},{"buffer":0,"byteOffset":31072,"byteLength":240,"target":34962},{"buffer":0,"byteOffset":31312,"byteLength":160,"target":34962},{"buffer":0,"byteOffset":31472,"byteLength":240,"target":34962},{"buffer":0,"byteOffset":31712,"byteLength":240,"target":34962},{"buffer":0,"byteOffset":31952,"byteLength":160,"target":34962},{"buffer":0,"byteOffset":32112,"byteLength":240,"target":34962},{"buffer":0,"byteOffset":32352,"byteLength":240,"target":34962},{"buffer":0,"byteOffset":32592,"byteLength":160,"target":34962},{"buffer":0,"byteOffset":32752,"byteLength":240,"target":34962},{"buffer":0,"byteOffset":32992,"byteLength":240,"target":34962},{"buffer":0,"byteOffset":33232,"byteLength":160,"target":34962},{"buffer":0,"byteOffset":33392,"byteLength":240,"target":34962},{"buffer":0,"byteOffset":33632,"byteLength":240,"target":34962},{"buffer":0,"byteOffset":33872,"byteLength":160,"target":34962},{"buffer":0,"byteOffset":34032,"byteLength":240,"target":34962},{"buffer":0,"byteOffset":34272,"byteLength":240,"target":34962},{"buffer":0,"byteOffset":34512,"byteLength":160,"target":34962},{"buffer":0,"byteOffset":34672,"byteLength":240,"target":34962},{"buffer":0,"byteOffset":34912,"byteLength":240,"target":34962},{"buffer":0,"byteOffset":35152,"byteLength":160,"target":34962},{"buffer":0,"byteOffset":35312,"byteLength":240,"target":34962},{"buffer":0,"byteOffset":35552,"byteLength":240,"target":34962},{"buffer":0,"byteOffset":35792,"byteLength":160,"target":34962},{"buffer":0,"byteOffset":35952,"byteLength":5520,"target":34962},{"buffer":0,"byteOffset":41472,"byteLength":5520,"target":34962},{"buffer":0,"byteOffset":46992,"byteLength":3680,"target":34962},{"buffer":0,"byteOffset":50672,"byteLength":1380,"target":34963},{"buffer":0,"byteOffset":52052,"byteLength":5856,"target":34962},{"buffer":0,"byteOffset":57908,"byteLength":5856,"target":34962},{"buffer":0,"byteOffset":63764,"byteLength":3904,"target":34962},{"buffer":0,"byteOffset":67668,"byteLength":1824,"target":34963},{"buffer":0,"byteOffset":69492,"byteLength":240,"target":34962},{"buffer":0,"byteOffset":69732,"byteLength":240,"target":34962},{"buffer":0,"byteOffset":69972,"byteLength":160,"target":34962},{"buffer":0,"byteOffset":70132,"byteLength":96,"target":34963},{"buffer":0,"byteOffset":70228,"byteLength":5856,"target":34962},{"buffer":0,"byteOffset":76084,"byteLength":5856,"target":34962},{"buffer":0,"byteOffset":81940,"byteLength":3904,"target":34962},{"buffer":0,"byteOffset":85844,"byteLength":240,"target":34962},{"buffer":0,"byteOffset":86084,"byteLength":240,"target":34962},{"buffer":0,"byteOffset":86324,"byteLength":160,"target":34962},{"buffer":0,"byteOffset":86484,"byteLength":5856,"target":34962},{"buffer":0,"byteOffset":92340,"byteLength":5856,"target":34962},{"buffer":0,"byteOffset":98196,"byteLength":3904,"target":34962},{"buffer":0,"byteOffset":102100,"byteLength":240,"target":34962},{"buffer":0,"byteOffset":102340,"byteLength":240,"target":34962},{"buffer":0,"byteOffset":102580,"byteLength":160,"target":34962},{"buffer":0,"byteOffset":102740,"byteLength":5856,"target":34962},{"buffer":0,"byteOffset":108596,"byteLength":5856,"target":34962},{"buffer":0,"byteOffset":114452,"byteLength":3904,"target":34962},{"buffer":0,"byteOffset":118356,"byteLength":240,"target":34962},{"buffer":0,"byteOffset":118596,"byteLength":240,"target":34962},{"buffer":0,"byteOffset":118836,"byteLength":160,"target":34962},{"buffer":0,"byteOffset":118996,"byteLength":19392,"target":34962},{"buffer":0,"byteOffset":138388,"byteLength":19392,"target":34962},{"buffer":0,"byteOffset":157780,"byteLength":12928,"target":34962},{"buffer":0,"byteOffset":170708,"byteLength":5232,"target":34963},{"buffer":0,"byteOffset":175940,"byteLength":18480,"target":34962},{"buffer":0,"byteOffset":194420,"byteLength":18480,"target":34962},{"buffer":0,"byteOffset":212900,"byteLength":12320,"target":34962},{"buffer":0,"byteOffset":225220,"byteLength":8430,"target":34963},{"buffer":0,"byteOffset":233652,"byteLength":1488,"target":34962},{"buffer":0,"byteOffset":235140,"byteLength":1488,"target":34962},{"buffer":0,"byteOffset":236628,"byteLength":992,"target":34962},{"buffer":0,"byteOffset":237620,"byteLength":504,"target":34963},{"buffer":0,"byteOffset":238124,"byteLength":3024,"target":34962},{"buffer":0,"byteOffset":241148,"byteLength":3024,"target":34962},{"buffer":0,"byteOffset":244172,"byteLength":2016,"target":34962},{"buffer":0,"byteOffset":246188,"byteLength":1152,"target":34963},{"buffer":0,"byteOffset":247340,"byteLength":3024,"target":34962},{"buffer":0,"byteOffset":250364,"byteLength":3024,"target":34962},{"buffer":0,"byteOffset":253388,"byteLength":2016,"target":34962},{"buffer":0,"byteOffset":255404,"byteLength":3024,"target":34962},{"buffer":0,"byteOffset":258428,"byteLength":3024,"target":34962},{"buffer":0,"byteOffset":261452,"byteLength":2016,"target":34962},{"buffer":0,"byteOffset":263468,"byteLength":3024,"target":34962},{"buffer":0,"byteOffset":266492,"byteLength":3024,"target":34962},{"buffer":0,"byteOffset":269516,"byteLength":2016,"target":34962},{"buffer":0,"byteOffset":271532,"byteLength":3024,"target":34962},{"buffer":0,"byteOffset":274556,"byteLength":3024,"target":34962},{"buffer":0,"byteOffset":277580,"byteLength":2016,"target":34962},{"buffer":0,"byteOffset":279596,"byteLength":3024,"target":34962},{"buffer":0,"byteOffset":282620,"byteLength":3024,"target":34962},{"buffer":0,"byteOffset":285644,"byteLength":2016,"target":34962},{"buffer":0,"byteOffset":287660,"byteLength":3024,"target":34962},{"buffer":0,"byteOffset":290684,"byteLength":3024,"target":34962},{"buffer":0,"byteOffset":293708,"byteLength":2016,"target":34962},{"buffer":0,"byteOffset":295724,"byteLength":3024,"target":34962},{"buffer":0,"byteOffset":298748,"byteLength":3024,"target":34962},{"buffer":0,"byteOffset":301772,"byteLength":2016,"target":34962},{"buffer":0,"byteOffset":303788,"byteLength":3024,"target":34962},{"buffer":0,"byteOffset":306812,"byteLength":3024,"target":34962},{"buffer":0,"byteOffset":309836,"byteLength":2016,"target":34962},{"buffer":0,"byteOffset":311852,"byteLength":3024,"target":34962},{"buffer":0,"byteOffset":314876,"byteLength":3024,"target":34962},{"buffer":0,"byteOffset":317900,"byteLength":2016,"target":34962},{"buffer":0,"byteOffset":319916,"byteLength":3024,"target":34962},{"buffer":0,"byteOffset":322940,"byteLength":3024,"target":34962},{"buffer":0,"byteOffset":325964,"byteLength":2016,"target":34962},{"buffer":0,"byteOffset":327980,"byteLength":3024,"target":34962},{"buffer":0,"byteOffset":331004,"byteLength":3024,"target":34962},{"buffer":0,"byteOffset":334028,"byteLength":2016,"target":34962},{"buffer":0,"byteOffset":336044,"byteLength":3024,"target":34962},{"buffer":0,"byteOffset":339068,"byteLength":3024,"target":34962},{"buffer":0,"byteOffset":342092,"byteLength":2016,"target":34962},{"buffer":0,"byteOffset":344108,"byteLength":3024,"target":34962},{"buffer":0,"byteOffset":347132,"byteLength":3024,"target":34962},{"buffer":0,"byteOffset":350156,"byteLength":2016,"target":34962},{"buffer":0,"byteOffset":352172,"byteLength":1512,"target":34962},{"buffer":0,"byteOffset":353684,"byteLength":1512,"target":34962},{"buffer":0,"byteOffset":355196,"byteLength":1008,"target":34962},{"buffer":0,"byteOffset":356204,"byteLength":480,"target":34963},{"buffer":0,"byteOffset":356684,"byteLength":144,"target":34962},{"buffer":0,"byteOffset":356828,"byteLength":144,"target":34962},{"buffer":0,"byteOffset":356972,"byteLength":96,"target":34962},{"buffer":0,"byteOffset":357068,"byteLength":36,"target":34963},{"buffer":0,"byteOffset":357104,"byteLength":1512,"target":34962},{"buffer":0,"byteOffset":358616,"byteLength":1512,"target":34962},{"buffer":0,"byteOffset":360128,"byteLength":1008,"target":34962},{"buffer":0,"byteOffset":361136,"byteLength":144,"target":34962},{"buffer":0,"byteOffset":361280,"byteLength":144,"target":34962},{"buffer":0,"byteOffset":361424,"byteLength":96,"target":34962},{"buffer":0,"byteOffset":361520,"byteLength":960,"target":34962},{"buffer":0,"byteOffset":362480,"byteLength":960,"target":34962},{"buffer":0,"byteOffset":363440,"byteLength":640,"target":34962},{"buffer":0,"byteOffset":364080,"byteLength":348,"target":34963},{"buffer":0,"byteOffset":364428,"byteLength":96,"target":34962},{"buffer":0,"byteOffset":364524,"byteLength":96,"target":34962},{"buffer":0,"byteOffset":364620,"byteLength":64,"target":34962},{"buffer":0,"byteOffset":364684,"byteLength":24,"target":34963},{"buffer":0,"byteOffset":364708,"byteLength":48,"target":34962},{"buffer":0,"byteOffset":364756,"byteLength":48,"target":34962},{"buffer":0,"byteOffset":364804,"byteLength":32,"target":34962},{"buffer":0,"byteOffset":364836,"byteLength":12,"target":34963},{"buffer":0,"byteOffset":364848,"byteLength":1056,"target":34962},{"buffer":0,"byteOffset":365904,"byteLength":1056,"target":34962},{"buffer":0,"byteOffset":366960,"byteLength":704,"target":34962},{"buffer":0,"byteOffset":367664,"byteLength":528,"target":34963},{"buffer":0,"byteOffset":368192,"byteLength":264,"target":34962},{"buffer":0,"byteOffset":368456,"byteLength":264,"target":34962},{"buffer":0,"byteOffset":368720,"byteLength":176,"target":34962},{"buffer":0,"byteOffset":368896,"byteLength":120,"target":34963},{"buffer":0,"byteOffset":369016,"byteLength":1248,"target":34962},{"buffer":0,"byteOffset":370264,"byteLength":1248,"target":34962},{"buffer":0,"byteOffset":371512,"byteLength":832,"target":34962},{"buffer":0,"byteOffset":372344,"byteLength":348,"target":34963},{"buffer":0,"byteOffset":372692,"byteLength":1608,"target":34962},{"buffer":0,"byteOffset":374300,"byteLength":1608,"target":34962},{"buffer":0,"byteOffset":375908,"byteLength":1072,"target":34962},{"buffer":0,"byteOffset":376980,"byteLength":504,"target":34963},{"buffer":0,"byteOffset":377484,"byteLength":480,"target":34962},{"buffer":0,"byteOffset":377964,"byteLength":480,"target":34962},{"buffer":0,"byteOffset":378444,"byteLength":320,"target":34962},{"buffer":0,"byteOffset":378764,"byteLength":228,"target":34963},{"buffer":0,"byteOffset":378992,"byteLength":384,"target":34962},{"buffer":0,"byteOffset":379376,"byteLength":384,"target":34962},{"buffer":0,"byteOffset":379760,"byteLength":256,"target":34962},{"buffer":0,"byteOffset":380016,"byteLength":192,"target":34963},{"buffer":0,"byteOffset":380208,"byteLength":96,"target":34962},{"buffer":0,"byteOffset":380304,"byteLength":96,"target":34962},{"buffer":0,"byteOffset":380400,"byteLength":64,"target":34962},{"buffer":0,"byteOffset":380464,"byteLength":36,"target":34963},{"buffer":0,"byteOffset":380500,"byteLength":960,"target":34962},{"buffer":0,"byteOffset":381460,"byteLength":960,"target":34962},{"buffer":0,"byteOffset":382420,"byteLength":640,"target":34962},{"buffer":0,"byteOffset":383060,"byteLength":4824,"target":34962},{"buffer":0,"byteOffset":387884,"byteLength":4824,"target":34962},{"buffer":0,"byteOffset":392708,"byteLength":3216,"target":34962},{"buffer":0,"byteOffset":395924,"byteLength":1572,"target":34963},{"buffer":0,"byteOffset":397496,"byteLength":996,"target":34962},{"buffer":0,"byteOffset":398492,"byteLength":996,"target":34962},{"buffer":0,"byteOffset":399488,"byteLength":306,"target":34963},{"buffer":0,"byteOffset":399796,"byteLength":3264,"target":34962},{"buffer":0,"byteOffset":403060,"byteLength":3264,"target":34962},{"buffer":0,"byteOffset":406324,"byteLength":2176,"target":34962},{"buffer":0,"byteOffset":408500,"byteLength":816,"target":34963},{"buffer":0,"byteOffset":409316,"byteLength":540,"target":34962},{"buffer":0,"byteOffset":409856,"byteLength":540,"target":34962},{"buffer":0,"byteOffset":410396,"byteLength":144,"target":34963}],"buffers":[{"byteLength":410540,"uri":"market_hall.bin"}],"images":[{"name":"T_Brick_BaseColor","uri":"../village/T_Brick_BaseColor.png"},{"name":"T_Plaster_Luma","uri":"../village/T_Plaster_Luma.png"},{"name":"T_RockTrim_BaseColor","uri":"../village/T_RockTrim_BaseColor.png"},{"name":"T_RoundTiles_BaseColor","uri":"../village/T_RoundTiles_BaseColor.png"},{"name":"T_UnevenBrick_BaseColor","uri":"../village/T_UnevenBrick_BaseColor.png"},{"name":"T_WoodTrim_BaseColor","uri":"../village/T_WoodTrim_BaseColor.png"}],"materials":[{"doubleSided":true,"name":"Wood_mid","pbrMetallicRoughness":{"baseColorFactor":[0.5179,0.5489,0.5787,1.0],"baseColorTexture":{"index":5},"metallicFactor":0,"roughnessFactor":0.8500000238418579}},{"doubleSided":true,"name":"Stone","pbrMetallicRoughness":{"baseColorFactor":[1.0,0.9974,0.9977,1.0],"baseColorTexture":{"index":4},"metallicFactor":0,"roughnessFactor":0.8500000238418579}},{"doubleSided":true,"name":"RockTrim","pbrMetallicRoughness":{"baseColorFactor":[1.0,0.9979,1.0,1.0],"baseColorTexture":{"index":2},"metallicFactor":0,"roughnessFactor":0.8500000238418579}},{"doubleSided":true,"name":"Plaster_white","pbrMetallicRoughness":{"baseColorFactor":[1.0,1.0,0.9092,1.0],"baseColorTexture":{"index":1},"metallicFactor":0,"roughnessFactor":0.8500000238418579}},{"doubleSided":true,"name":"Tiles_red","pbrMetallicRoughness":{"baseColorFactor":[1.0,0.9965,0.9971,1.0],"baseColorTexture":{"index":3},"metallicFactor":0,"roughnessFactor":0.699999988079071}},{"doubleSided":true,"name":"Brick","pbrMetallicRoughness":{"baseColorFactor":[1.0,0.9974,1.0,1.0],"baseColorTexture":{"index":0},"metallicFactor":0,"roughnessFactor":0.8500000238418579}},{"doubleSided":true,"name":"Glass","pbrMetallicRoughness":{"baseColorFactor":[0.03310476616024971,0.05087608844041824,0.07828831672668457,1],"metallicFactor":0,"roughnessFactor":0.20000000298023224}}],"meshes":[{"name":"Beam","primitives":[{"attributes":{"NORMAL":0,"POSITION":1,"TEXCOORD_0":2},"indices":3,"material":0}]},{"name":"Beam.001","primitives":[{"attributes":{"NORMAL":4,"POSITION":5,"TEXCOORD_0":6},"indices":3,"material":0}]},{"name":"kit_Corner_Exterior_Wood","primitives":[{"attributes":{"NORMAL":7,"POSITION":8,"TEXCOORD_0":9},"indices":10,"material":0}]},{"name":"kit_Corner_ExteriorWide_Wood.001","primitives":[{"attributes":{"NORMAL":11,"POSITION":12,"TEXCOORD_0":13},"indices":14,"material":0}]},{"name":"kit_Corner_ExteriorWide_Wood.002","primitives":[{"attributes":{"NORMAL":15,"POSITION":16,"TEXCOORD_0":17},"indices":14,"material":0}]},{"name":"kit_Corner_ExteriorWide_Wood.003","primitives":[{"attributes":{"NORMAL":18,"POSITION":19,"TEXCOORD_0":20},"indices":14,"material":0}]},{"name":"kit_Corner_ExteriorWide_Wood.004","primitives":[{"attributes":{"NORMAL":21,"POSITION":22,"TEXCOORD_0":23},"indices":14,"material":0}]},{"name":"kit_Corner_ExteriorWide_Wood.005","primitives":[{"attributes":{"NORMAL":24,"POSITION":25,"TEXCOORD_0":26},"indices":14,"material":0}]},{"name":"kit_Corner_ExteriorWide_Wood.006","primitives":[{"attributes":{"NORMAL":27,"POSITION":28,"TEXCOORD_0":29},"indices":14,"material":0}]},{"name":"kit_Corner_ExteriorWide_Wood.007","primitives":[{"attributes":{"NORMAL":30,"POSITION":31,"TEXCOORD_0":32},"indices":14,"material":0}]},{"name":"kit_Corner_ExteriorWide_Wood.008","primitives":[{"attributes":{"NORMAL":33,"POSITION":34,"TEXCOORD_0":35},"indices":14,"material":0}]},{"name":"kit_Corner_ExteriorWide_Wood.009","primitives":[{"attributes":{"NORMAL":36,"POSITION":37,"TEXCOORD_0":38},"indices":14,"material":0}]},{"name":"kit_Corner_ExteriorWide_Wood.010","primitives":[{"attributes":{"NORMAL":39,"POSITION":40,"TEXCOORD_0":41},"indices":14,"material":0}]},{"name":"kit_Corner_ExteriorWide_Wood.011","primitives":[{"attributes":{"NORMAL":42,"POSITION":43,"TEXCOORD_0":44},"indices":14,"material":0}]},{"name":"kit_Corner_ExteriorWide_Wood.012","primitives":[{"attributes":{"NORMAL":45,"POSITION":46,"TEXCOORD_0":47},"indices":14,"material":0}]},{"name":"kit_Corner_ExteriorWide_Wood.013","primitives":[{"attributes":{"NORMAL":48,"POSITION":49,"TEXCOORD_0":50},"indices":14,"material":0}]},{"name":"kit_Corner_ExteriorWide_Wood.014","primitives":[{"attributes":{"NORMAL":51,"POSITION":52,"TEXCOORD_0":53},"indices":14,"material":0}]},{"name":"kit_Corner_ExteriorWide_Wood","primitives":[{"attributes":{"NORMAL":54,"POSITION":55,"TEXCOORD_0":56},"indices":14,"material":0}]},{"name":"kit_Floor_UnevenBrick","primitives":[{"attributes":{"NORMAL":57,"POSITION":58,"TEXCOORD_0":59},"indices":60,"material":1}]},{"name":"kit_Floor_WoodDark","primitives":[{"attributes":{"NORMAL":61,"POSITION":62,"TEXCOORD_0":63},"indices":64,"material":0}]},{"name":"Footing","primitives":[{"attributes":{"NORMAL":65,"POSITION":66,"TEXCOORD_0":67},"indices":68,"material":2}]},{"name":"Footing.001","primitives":[{"attributes":{"NORMAL":69,"POSITION":70,"TEXCOORD_0":71},"indices":68,"material":2}]},{"name":"Footing.002","primitives":[{"attributes":{"NORMAL":72,"POSITION":73,"TEXCOORD_0":74},"indices":68,"material":2}]},{"name":"Footing.003","primitives":[{"attributes":{"NORMAL":75,"POSITION":76,"TEXCOORD_0":77},"indices":68,"material":2}]},{"name":"Footing.004","primitives":[{"attributes":{"NORMAL":78,"POSITION":79,"TEXCOORD_0":80},"indices":68,"material":2}]},{"name":"Footing.005","primitives":[{"attributes":{"NORMAL":81,"POSITION":82,"TEXCOORD_0":83},"indices":68,"material":2}]},{"name":"Footing.006","primitives":[{"attributes":{"NORMAL":84,"POSITION":85,"TEXCOORD_0":86},"indices":68,"material":2}]},{"name":"Footing.007","primitives":[{"attributes":{"NORMAL":87,"POSITION":88,"TEXCOORD_0":89},"indices":68,"material":2}]},{"name":"Footing.008","primitives":[{"attributes":{"NORMAL":90,"POSITION":91,"TEXCOORD_0":92},"indices":68,"material":2}]},{"name":"Footing.009","primitives":[{"attributes":{"NORMAL":93,"POSITION":94,"TEXCOORD_0":95},"indices":68,"material":2}]},{"name":"Footing.010","primitives":[{"attributes":{"NORMAL":96,"POSITION":97,"TEXCOORD_0":98},"indices":68,"material":2}]},{"name":"Footing.011","primitives":[{"attributes":{"NORMAL":99,"POSITION":100,"TEXCOORD_0":101},"indices":68,"material":2}]},{"name":"Footing.012","primitives":[{"attributes":{"NORMAL":102,"POSITION":103,"TEXCOORD_0":104},"indices":68,"material":2}]},{"name":"Footing.013","primitives":[{"attributes":{"NORMAL":105,"POSITION":106,"TEXCOORD_0":107},"indices":68,"material":2}]},{"name":"Footing.014","primitives":[{"attributes":{"NORMAL":108,"POSITION":109,"TEXCOORD_0":110},"indices":68,"material":2}]},{"name":"kit_Prop_Crate","primitives":[{"attributes":{"NORMAL":111,"POSITION":112,"TEXCOORD_0":113},"indices":114,"material":0}]},{"name":"kit_Roof_Front_Brick6.001","primitives":[{"attributes":{"NORMAL":115,"POSITION":116,"TEXCOORD_0":117},"indices":118,"material":0},{"attributes":{"NORMAL":119,"POSITION":120,"TEXCOORD_0":121},"indices":122,"material":3}]},{"name":"kit_Roof_Front_Brick6.002","primitives":[{"attributes":{"NORMAL":123,"POSITION":124,"TEXCOORD_0":125},"indices":118,"material":0},{"attributes":{"NORMAL":126,"POSITION":127,"TEXCOORD_0":128},"indices":122,"material":3}]},{"name":"kit_Roof_Front_Brick6.003","primitives":[{"attributes":{"NORMAL":129,"POSITION":130,"TEXCOORD_0":131},"indices":118,"material":0},{"attributes":{"NORMAL":132,"POSITION":133,"TEXCOORD_0":134},"indices":122,"material":3}]},{"name":"kit_Roof_Front_Brick6","primitives":[{"attributes":{"NORMAL":135,"POSITION":136,"TEXCOORD_0":137},"indices":118,"material":0},{"attributes":{"NORMAL":138,"POSITION":139,"TEXCOORD_0":140},"indices":122,"material":3}]},{"name":"kit_Roof_RoundTiles_6x8.001","primitives":[{"attributes":{"NORMAL":141,"POSITION":142,"TEXCOORD_0":143},"indices":144,"material":0},{"attributes":{"NORMAL":145,"POSITION":146,"TEXCOORD_0":147},"indices":148,"material":4}]},{"name":"kit_Roof_Support2","primitives":[{"attributes":{"NORMAL":149,"POSITION":150,"TEXCOORD_0":151},"indices":152,"material":0}]},{"name":"kit_Wall_Arch.001","primitives":[{"attributes":{"NORMAL":153,"POSITION":154,"TEXCOORD_0":155},"indices":156,"material":0}]},{"name":"kit_Wall_Arch.002","primitives":[{"attributes":{"NORMAL":157,"POSITION":158,"TEXCOORD_0":159},"indices":156,"material":0}]},{"name":"kit_Wall_Arch.003","primitives":[{"attributes":{"NORMAL":160,"POSITION":161,"TEXCOORD_0":162},"indices":156,"material":0}]},{"name":"kit_Wall_Arch.004","primitives":[{"attributes":{"NORMAL":163,"POSITION":164,"TEXCOORD_0":165},"indices":156,"material":0}]},{"name":"kit_Wall_Arch.005","primitives":[{"attributes":{"NORMAL":166,"POSITION":167,"TEXCOORD_0":168},"indices":156,"material":0}]},{"name":"kit_Wall_Arch.006","primitives":[{"attributes":{"NORMAL":169,"POSITION":170,"TEXCOORD_0":171},"indices":156,"material":0}]},{"name":"kit_Wall_Arch.007","primitives":[{"attributes":{"NORMAL":172,"POSITION":173,"TEXCOORD_0":174},"indices":156,"material":0}]},{"name":"kit_Wall_Arch.008","primitives":[{"attributes":{"NORMAL":175,"POSITION":176,"TEXCOORD_0":177},"indices":156,"material":0}]},{"name":"kit_Wall_Arch.009","primitives":[{"attributes":{"NORMAL":178,"POSITION":179,"TEXCOORD_0":180},"indices":156,"material":0}]},{"name":"kit_Wall_Arch.010","primitives":[{"attributes":{"NORMAL":181,"POSITION":182,"TEXCOORD_0":183},"indices":156,"material":0}]},{"name":"kit_Wall_Arch.011","primitives":[{"attributes":{"NORMAL":184,"POSITION":185,"TEXCOORD_0":186},"indices":156,"material":0}]},{"name":"kit_Wall_Arch.012","primitives":[{"attributes":{"NORMAL":187,"POSITION":188,"TEXCOORD_0":189},"indices":156,"material":0}]},{"name":"kit_Wall_Arch.013","primitives":[{"attributes":{"NORMAL":190,"POSITION":191,"TEXCOORD_0":192},"indices":156,"material":0}]},{"name":"kit_Wall_Arch","primitives":[{"attributes":{"NORMAL":193,"POSITION":194,"TEXCOORD_0":195},"indices":156,"material":0}]},{"name":"kit_Wall_Plaster_Straight.001","primitives":[{"attributes":{"NORMAL":196,"POSITION":197,"TEXCOORD_0":198},"indices":199,"material":0},{"attributes":{"NORMAL":200,"POSITION":201,"TEXCOORD_0":202},"indices":203,"material":3}]},{"name":"kit_Wall_Plaster_Straight","primitives":[{"attributes":{"NORMAL":204,"POSITION":205,"TEXCOORD_0":206},"indices":199,"material":0},{"attributes":{"NORMAL":207,"POSITION":208,"TEXCOORD_0":209},"indices":203,"material":3}]},{"name":"kit_Wall_Plaster_Straight_Base","primitives":[{"attributes":{"NORMAL":210,"POSITION":211,"TEXCOORD_0":212},"indices":213,"material":0},{"attributes":{"NORMAL":214,"POSITION":215,"TEXCOORD_0":216},"indices":217,"material":3},{"attributes":{"NORMAL":218,"POSITION":219,"TEXCOORD_0":220},"indices":221,"material":5}]},{"name":"kit_Wall_Plaster_Window_Thin_Round.001","primitives":[{"attributes":{"NORMAL":222,"POSITION":223,"TEXCOORD_0":224},"indices":225,"material":3},{"attributes":{"NORMAL":226,"POSITION":227,"TEXCOORD_0":228},"indices":229,"material":3},{"attributes":{"NORMAL":230,"POSITION":231,"TEXCOORD_0":232},"indices":233,"material":0}]},{"name":"kit_Wall_Plaster_Window_Wide_Flat2.001","primitives":[{"attributes":{"NORMAL":234,"POSITION":235,"TEXCOORD_0":236},"indices":237,"material":0},{"attributes":{"NORMAL":238,"POSITION":239,"TEXCOORD_0":240},"indices":241,"material":3}]},{"name":"kit_Wall_Plaster_Window_Wide_Flat.001","primitives":[{"attributes":{"NORMAL":242,"POSITION":243,"TEXCOORD_0":244},"indices":245,"material":3},{"attributes":{"NORMAL":246,"POSITION":247,"TEXCOORD_0":248},"indices":249,"material":3},{"attributes":{"NORMAL":250,"POSITION":251,"TEXCOORD_0":252},"indices":213,"material":0}]},{"name":"kit_Window_Thin_Round1.001","primitives":[{"attributes":{"NORMAL":253,"POSITION":254,"TEXCOORD_0":255},"indices":256,"material":0},{"attributes":{"NORMAL":257,"POSITION":258},"indices":259,"material":6}]},{"name":"kit_Window_Wide_Flat1","primitives":[{"attributes":{"NORMAL":260,"POSITION":261,"TEXCOORD_0":262},"indices":263,"material":0},{"attributes":{"NORMAL":264,"POSITION":265},"indices":266,"material":6}]}],"nodes":[{"mesh":0,"name":"Beam.075"},{"mesh":1,"name":"Beam.092"},{"mesh":2,"name":"Corner_Exterior_Wood.123","translation":[-6,3,0.6000000238418579]},{"mesh":2,"name":"Corner_Exterior_Wood.124","translation":[6,3,0.6000000238418579]},{"mesh":2,"name":"Corner_Exterior_Wood.125","translation":[-6,3,-8]},{"mesh":2,"name":"Corner_Exterior_Wood.126","translation":[6,3,-8]},{"mesh":3,"name":"Corner_ExteriorWide_Wood.021","translation":[-6,0,0]},{"mesh":4,"name":"Corner_ExteriorWide_Wood.022","translation":[6,0,0]},{"mesh":5,"name":"Corner_ExteriorWide_Wood.023","translation":[-6,0,-8]},{"mesh":6,"name":"Corner_ExteriorWide_Wood.024","translation":[6,0,-8]},{"mesh":7,"name":"Corner_ExteriorWide_Wood.025","translation":[-4,0,0]},{"mesh":8,"name":"Corner_ExteriorWide_Wood.026","translation":[-2,0,0]},{"mesh":9,"name":"Corner_ExteriorWide_Wood.027"},{"mesh":10,"name":"Corner_ExteriorWide_Wood.028","translation":[2,0,0]},{"mesh":11,"name":"Corner_ExteriorWide_Wood.029","translation":[4,0,0]},{"mesh":12,"name":"Corner_ExteriorWide_Wood.030","translation":[-6,0,-2]},{"mesh":13,"name":"Corner_ExteriorWide_Wood.031","translation":[6,0,-2]},{"mesh":14,"name":"Corner_ExteriorWide_Wood.032","translation":[-6,0,-4]},{"mesh":15,"name":"Corner_ExteriorWide_Wood.033","translation":[6,0,-4]},{"mesh":16,"name":"Corner_ExteriorWide_Wood.034","translation":[-6,0,-6]},{"mesh":17,"name":"Corner_ExteriorWide_Wood.035","translation":[6,0,-6]},{"mesh":18,"name":"Floor_UnevenBrick.051","translation":[-5,0.019999999552965164,-1]},{"mesh":18,"name":"Floor_UnevenBrick.052","translation":[-5,0.019999999552965164,-3]},{"mesh":18,"name":"Floor_UnevenBrick.053","translation":[-5,0.019999999552965164,-5]},{"mesh":18,"name":"Floor_UnevenBrick.054","translation":[-5,0.019999999552965164,-7]},{"mesh":18,"name":"Floor_UnevenBrick.055","translation":[-3,0.019999999552965164,-1]},{"mesh":18,"name":"Floor_UnevenBrick.056","translation":[-3,0.019999999552965164,-3]},{"mesh":18,"name":"Floor_UnevenBrick.057","translation":[-3,0.019999999552965164,-5]},{"mesh":18,"name":"Floor_UnevenBrick.058","translation":[-3,0.019999999552965164,-7]},{"mesh":18,"name":"Floor_UnevenBrick.059","translation":[-1,0.019999999552965164,-1]},{"mesh":18,"name":"Floor_UnevenBrick.060","translation":[-1,0.019999999552965164,-3]},{"mesh":18,"name":"Floor_UnevenBrick.061","translation":[-1,0.019999999552965164,-5]},{"mesh":18,"name":"Floor_UnevenBrick.062","translation":[-1,0.019999999552965164,-7]},{"mesh":18,"name":"Floor_UnevenBrick.063","translation":[1,0.019999999552965164,-1]},{"mesh":18,"name":"Floor_UnevenBrick.064","translation":[1,0.019999999552965164,-3]},{"mesh":18,"name":"Floor_UnevenBrick.065","translation":[1,0.019999999552965164,-5]},{"mesh":18,"name":"Floor_UnevenBrick.066","translation":[1,0.019999999552965164,-7]},{"mesh":18,"name":"Floor_UnevenBrick.067","translation":[3,0.019999999552965164,-1]},{"mesh":18,"name":"Floor_UnevenBrick.068","translation":[3,0.019999999552965164,-3]},{"mesh":18,"name":"Floor_UnevenBrick.069","translation":[3,0.019999999552965164,-5]},{"mesh":18,"name":"Floor_UnevenBrick.070","translation":[3,0.019999999552965164,-7]},{"mesh":18,"name":"Floor_UnevenBrick.071","translation":[5,0.019999999552965164,-1]},{"mesh":18,"name":"Floor_UnevenBrick.072","translation":[5,0.019999999552965164,-3]},{"mesh":18,"name":"Floor_UnevenBrick.073","translation":[5,0.019999999552965164,-5]},{"mesh":18,"name":"Floor_UnevenBrick.074","translation":[5,0.019999999552965164,-7]},{"mesh":19,"name":"Floor_WoodDark.086","scale":[1,1,0.3499999940395355],"translation":[-5,2.9700000286102295,0.30000001192092896]},{"mesh":19,"name":"Floor_WoodDark.087","scale":[1,1,0.3499999940395355],"translation":[-3,2.9700000286102295,0.30000001192092896]},{"mesh":19,"name":"Floor_WoodDark.088","scale":[1,1,0.3499999940395355],"translation":[-1,2.9700000286102295,0.30000001192092896]},{"mesh":19,"name":"Floor_WoodDark.089","scale":[1,1,0.3499999940395355],"translation":[1,2.9700000286102295,0.30000001192092896]},{"mesh":19,"name":"Floor_WoodDark.090","scale":[1,1,0.3499999940395355],"translation":[3,2.9700000286102295,0.30000001192092896]},{"mesh":19,"name":"Floor_WoodDark.091","scale":[1,1,0.3499999940395355],"translation":[5,2.9700000286102295,0.30000001192092896]},{"mesh":20,"name":"Footing.036"},{"mesh":21,"name":"Footing.037"},{"mesh":22,"name":"Footing.038"},{"mesh":23,"name":"Footing.039"},{"mesh":24,"name":"Footing.040"},{"mesh":25,"name":"Footing.041"},{"mesh":26,"name":"Footing.042"},{"mesh":27,"name":"Footing.043"},{"mesh":28,"name":"Footing.044"},{"mesh":29,"name":"Footing.045"},{"mesh":30,"name":"Footing.046"},{"mesh":31,"name":"Footing.047"},{"mesh":32,"name":"Footing.048"},{"mesh":33,"name":"Footing.049"},{"mesh":34,"name":"Footing.050"},{"mesh":35,"name":"Prop_Crate.076","rotation":[0,0.1736481636762619,0,0.9848077893257141],"translation":[4.199999809265137,0.019999999552965164,-5.800000190734863]},{"mesh":35,"name":"Prop_Crate.077","rotation":[0,-0.08715574443340302,0,0.9961947202682495],"scale":[0.800000011920929,0.800000011920929,0.800000011920929],"translation":[3.0999999046325684,0.019999999552965164,-6.599999904632568]},{"mesh":36,"name":"Roof_Front_Brick6.128","translation":[-3,6.119999885559082,0.6000000238418579]},{"mesh":37,"name":"Roof_Front_Brick6.129","rotation":[0,-1,0,4.371138828673793e-08],"translation":[-3,6.119999885559082,-8]},{"mesh":38,"name":"Roof_Front_Brick6.131","translation":[3,6.119999885559082,0.612000048160553]},{"mesh":39,"name":"Roof_Front_Brick6.132","rotation":[0,-1,0,4.371138828673793e-08],"translation":[3,6.119999885559082,-8.01200008392334]},{"mesh":40,"name":"Roof_RoundTiles_6x8.127","scale":[1,1,1.0750000476837158],"translation":[-3,6.119999885559082,-3.700000047683716]},{"mesh":40,"name":"Roof_RoundTiles_6x8.130","scale":[1,1,1.0750000476837158],"translation":[3,6.119999885559082,-3.700000047683716]},{"mesh":41,"name":"Roof_Support2.078","scale":[1,1,0.8695651888847351],"translation":[-5.869999885559082,3.0199999809265137,0.09000000357627869]},{"mesh":41,"name":"Roof_Support2.079","scale":[1,1,0.8695651888847351],"translation":[-4.192857265472412,3.0199999809265137,0.09000000357627869]},{"mesh":41,"name":"Roof_Support2.080","scale":[1,1,0.8695651888847351],"translation":[-2.515714168548584,3.0199999809265137,0.09000000357627869]},{"mesh":41,"name":"Roof_Support2.081","scale":[1,1,0.8695651888847351],"translation":[-0.8385714292526245,3.0199999809265137,0.09000000357627869]},{"mesh":41,"name":"Roof_Support2.082","scale":[1,1,0.8695651888847351],"translation":[0.8385714292526245,3.0199999809265137,0.09000000357627869]},{"mesh":41,"name":"Roof_Support2.083","scale":[1,1,0.8695651888847351],"translation":[2.515714168548584,3.0199999809265137,0.09000000357627869]},{"mesh":41,"name":"Roof_Support2.084","scale":[1,1,0.8695651888847351],"translation":[4.192857265472412,3.0199999809265137,0.09000000357627869]},{"mesh":41,"name":"Roof_Support2.085","scale":[1,1,0.8695651888847351],"translation":[5.869999885559082,3.0199999809265137,0.09000000357627869]},{"mesh":42,"name":"Wall_Arch.001","scale":[0.9983333349227905,1,1],"translation":[-4.991666316986084,0,0]},{"mesh":43,"name":"Wall_Arch.002","scale":[0.9983333349227905,1,1],"translation":[-2.994999885559082,0,0]},{"mesh":44,"name":"Wall_Arch.003","scale":[0.9983333349227905,1,1],"translation":[-0.9983330965042114,0,0]},{"mesh":45,"name":"Wall_Arch.004","scale":[0.9983333349227905,1,1],"translation":[0.9983335733413696,0,0]},{"mesh":46,"name":"Wall_Arch.005","scale":[0.9983333349227905,1,1],"translation":[2.9950003623962402,0,0]},{"mesh":47,"name":"Wall_Arch.006","scale":[0.9983333349227905,1,1],"translation":[4.991666793823242,0,0]},{"mesh":48,"name":"Wall_Arch.013","rotation":[0,-0.7071068286895752,0,0.7071068286895752],"scale":[0.9975000023841858,1,1],"translation":[-6,0,-6.992499828338623]},{"mesh":49,"name":"Wall_Arch.014","rotation":[0,-0.7071068286895752,0,0.7071068286895752],"scale":[0.9975000023841858,1,1],"translation":[-6,0,-4.997499942779541]},{"mesh":50,"name":"Wall_Arch.015","rotation":[0,-0.7071068286895752,0,0.7071068286895752],"scale":[0.9975000023841858,1,1],"translation":[-6,0,-3.002500057220459]},{"mesh":51,"name":"Wall_Arch.016","rotation":[0,-0.7071068286895752,0,0.7071068286895752],"scale":[0.9975000023841858,1,1],"translation":[-6,0,-1.007500171661377]},{"mesh":52,"name":"Wall_Arch.017","rotation":[0,0.7071068286895752,0,0.7071068286895752],"scale":[0.9975000023841858,1,1],"translation":[6,0,-1.0075000524520874]},{"mesh":53,"name":"Wall_Arch.018","rotation":[0,0.7071068286895752,0,0.7071068286895752],"scale":[0.9975000023841858,1,1],"translation":[6,0,-3.002500057220459]},{"mesh":54,"name":"Wall_Arch.019","rotation":[0,0.7071068286895752,0,0.7071068286895752],"scale":[0.9975000023841858,1,1],"translation":[6,0,-4.997499942779541]},{"mesh":55,"name":"Wall_Arch.020","rotation":[0,0.7071068286895752,0,0.7071068286895752],"scale":[0.9975000023841858,1,1],"translation":[6,0,-6.992499828338623]},{"mesh":56,"name":"Wall_Plaster_Straight+upper.105","rotation":[0,-1,0,4.371138828673793e-08],"scale":[0.9983333349227905,1,1],"translation":[4.991666316986084,3,-8]},{"mesh":56,"name":"Wall_Plaster_Straight+upper.106","rotation":[0,-1,0,4.371138828673793e-08],"scale":[0.9983333349227905,1,1],"translation":[2.994999885559082,3,-8]},{"mesh":56,"name":"Wall_Plaster_Straight+upper.111","rotation":[0,-1,0,4.371138828673793e-08],"scale":[0.9983333349227905,1,1],"translation":[-2.9950003623962402,3,-8]},{"mesh":56,"name":"Wall_Plaster_Straight+upper.112","rotation":[0,-1,0,4.371138828673793e-08],"scale":[0.9983333349227905,1,1],"translation":[-4.991666793823242,3,-8]},{"mesh":56,"name":"Wall_Plaster_Straight+upper.113","rotation":[0,-0.7071068286895752,0,0.7071068286895752],"scale":[1.0724999904632568,1,1],"translation":[-6,3,-6.917499542236328]},{"mesh":56,"name":"Wall_Plaster_Straight+upper.116","rotation":[0,-0.7071068286895752,0,0.7071068286895752],"scale":[1.0724999904632568,1,1],"translation":[-6,3,-2.62749981880188]},{"mesh":56,"name":"Wall_Plaster_Straight+upper.117","rotation":[0,-0.7071068286895752,0,0.7071068286895752],"scale":[1.0724999904632568,1,1],"translation":[-6,3,-0.4824998378753662]},{"mesh":56,"name":"Wall_Plaster_Straight+upper.118","rotation":[0,0.7071068286895752,0,0.7071068286895752],"scale":[1.0724999904632568,1,1],"translation":[6,3,-0.48250001668930054]},{"mesh":56,"name":"Wall_Plaster_Straight+upper.119","rotation":[0,0.7071068286895752,0,0.7071068286895752],"scale":[1.0724999904632568,1,1],"translation":[6,3,-2.627500057220459]},{"mesh":56,"name":"Wall_Plaster_Straight+upper.122","rotation":[0,0.7071068286895752,0,0.7071068286895752],"scale":[1.0724999904632568,1,1],"translation":[6,3,-6.9175004959106445]},{"mesh":57,"name":"Wall_Plaster_Straight.007","rotation":[0,-1,0,4.371138828673793e-08],"scale":[0.9983333349227905,1,1],"translation":[4.991666316986084,0,-8]},{"mesh":57,"name":"Wall_Plaster_Straight.009","rotation":[0,-1,0,4.371138828673793e-08],"scale":[0.9983333349227905,1,1],"translation":[0.9983330965042114,0,-8]},{"mesh":57,"name":"Wall_Plaster_Straight.010","rotation":[0,-1,0,4.371138828673793e-08],"scale":[0.9983333349227905,1,1],"translation":[-0.9983335733413696,0,-8]},{"mesh":57,"name":"Wall_Plaster_Straight.012","rotation":[0,-1,0,4.371138828673793e-08],"scale":[0.9983333349227905,1,1],"translation":[-4.991666793823242,0,-8]},{"mesh":58,"name":"Wall_Plaster_Straight_Base.008","rotation":[0,-1,0,4.371138828673793e-08],"scale":[0.9983333349227905,1,1],"translation":[2.994999885559082,0,-8]},{"mesh":58,"name":"Wall_Plaster_Straight_Base.011","rotation":[0,-1,0,4.371138828673793e-08],"scale":[0.9983333349227905,1,1],"translation":[-2.9950003623962402,0,-8]},{"mesh":59,"name":"Wall_Plaster_Window_Thin_Round+upper.095","scale":[0.9983333349227905,1,1],"translation":[-2.994999885559082,3,0.6000000238418579]},{"mesh":59,"name":"Wall_Plaster_Window_Thin_Round+upper.101","scale":[0.9983333349227905,1,1],"translation":[2.9950003623962402,3,0.6000000238418579]},{"mesh":60,"name":"Wall_Plaster_Window_Wide_Flat2+upper.093","scale":[0.9983333349227905,1,1],"translation":[-4.991666316986084,3,0.6000000238418579]},{"mesh":60,"name":"Wall_Plaster_Window_Wide_Flat2+upper.097","scale":[0.9983333349227905,1,1],"translation":[-0.9983330965042114,3,0.6000000238418579]},{"mesh":60,"name":"Wall_Plaster_Window_Wide_Flat2+upper.099","scale":[0.9983333349227905,1,1],"translation":[0.9983335733413696,3,0.6000000238418579]},{"mesh":60,"name":"Wall_Plaster_Window_Wide_Flat2+upper.103","scale":[0.9983333349227905,1,1],"translation":[4.991666793823242,3,0.6000000238418579]},{"mesh":61,"name":"Wall_Plaster_Window_Wide_Flat+upper.107","rotation":[0,-1,0,4.371138828673793e-08],"scale":[0.9983333349227905,1,1],"translation":[0.9983330965042114,3,-8]},{"mesh":61,"name":"Wall_Plaster_Window_Wide_Flat+upper.109","rotation":[0,-1,0,4.371138828673793e-08],"scale":[0.9983333349227905,1,1],"translation":[-0.9983335733413696,3,-8]},{"mesh":61,"name":"Wall_Plaster_Window_Wide_Flat+upper.114","rotation":[0,-0.7071068286895752,0,0.7071068286895752],"scale":[1.0724999904632568,1,1],"translation":[-6,3,-4.772500038146973]},{"mesh":61,"name":"Wall_Plaster_Window_Wide_Flat+upper.120","rotation":[0,0.7071068286895752,0,0.7071068286895752],"scale":[1.0724999904632568,1,1],"translation":[6,3,-4.772500038146973]},{"mesh":62,"name":"Window_Thin_Round1.096","scale":[0.9983333349227905,1,1],"translation":[-2.994999885559082,3,0.6000000238418579]},{"mesh":62,"name":"Window_Thin_Round1.102","scale":[0.9983333349227905,1,1],"translation":[2.9950003623962402,3,0.6000000238418579]},{"mesh":63,"name":"Window_Wide_Flat1.094","scale":[0.9983333349227905,1,1],"translation":[-4.991666316986084,3,0.6000000238418579]},{"mesh":63,"name":"Window_Wide_Flat1.098","scale":[0.9983333349227905,1,1],"translation":[-0.9983330965042114,3,0.6000000238418579]},{"mesh":63,"name":"Window_Wide_Flat1.100","scale":[0.9983333349227905,1,1],"translation":[0.9983335733413696,3,0.6000000238418579]},{"mesh":63,"name":"Window_Wide_Flat1.104","scale":[0.9983333349227905,1,1],"translation":[4.991666793823242,3,0.6000000238418579]},{"mesh":63,"name":"Window_Wide_Flat1.108","rotation":[0,-1,0,4.371138828673793e-08],"scale":[0.9983333349227905,1,1],"translation":[0.9983330965042114,3,-8]},{"mesh":63,"name":"Window_Wide_Flat1.110","rotation":[0,-1,0,4.371138828673793e-08],"scale":[0.9983333349227905,1,1],"translation":[-0.9983335733413696,3,-8]},{"mesh":63,"name":"Window_Wide_Flat1.115","rotation":[0,-0.7071068286895752,0,0.7071068286895752],"scale":[1.0724999904632568,1,1],"translation":[-6,3,-4.772500038146973]},{"mesh":63,"name":"Window_Wide_Flat1.121","rotation":[0,0.7071068286895752,0,0.7071068286895752],"scale":[1.0724999904632568,1,1],"translation":[6,3,-4.772500038146973]}],"scene":0,"scenes":[{"name":"Scene","nodes":[0,1,2,3,4,5,6,7,8,9,10,11,12,13,14,15,16,17,18,19,20,21,22,23,24,25,26,27,28,29,30,31,32,33,34,35,36,37,38,39,40,41,42,43,44,45,46,47,48,49,50,51,52,53,54,55,56,57,58,59,60,61,62,63,64,65,66,67,68,69,70,71,72,73,74,75,76,77,78,79,80,81,82,83,84,85,86,87,88,89,90,91,92,93,94,95,96,97,98,99,100,101,102,103,104,105,106,107,108,109,110,111,112,113,114,115,116,117,118,119,120,121,122,123,124,125,126,127,128,129,130,131]}],"textures":[{"source":0},{"source":1},{"source":2},{"source":3},{"source":4},{"source":5}]}