{"accessors":[{"bufferView":0,"componentType":5126,"count":24,"type":"VEC3"},{"bufferView":1,"componentType":5126,"count":24,"max":[-2.1700000762939453,4.059999942779541,2.450000047683716],"min":[-2.430000066757202,0.20000000298023224,2.190000057220459],"type":"VEC3"},{"bufferView":2,"componentType":5126,"count":24,"type":"VEC2"},{"bufferView":3,"componentType":5123,"count":36,"type":"SCALAR"},{"bufferView":4,"componentType":5126,"count":24,"type":"VEC3"},{"bufferView":5,"componentType":5126,"count":24,"max":[-0.7699999809265137,4.059999942779541,2.450000047683716],"min":[-1.0299999713897705,0.20000000298023224,2.190000057220459],"type":"VEC3"},{"bufferView":6,"componentType":5126,"count":24,"type":"VEC2"},{"bufferView":7,"componentType":5126,"count":24,"type":"VEC3"},{"bufferView":8,"componentType":5126,"count":24,"max":[1.0299999713897705,4.059999942779541,2.450000047683716],"min":[0.7699999809265137,0.20000000298023224,2.190000057220459],"type":"VEC3"},{"bufferView":9,"componentType":5126,"count":24,"type":"VEC2"},{"bufferView":10,"componentType":5126,"count":24,"type":"VEC3"},{"bufferView":11,"componentType":5126,"count":24,"max":[2.430000066757202,4.059999942779541,2.450000047683716],"min":[2.1700000762939453,0.20000000298023224,2.190000057220459],"type":"VEC3"},{"bufferView":12,"componentType":5126,"count":24,"type":"VEC2"},{"bufferView":13,"componentType":5126,"count":24,"type":"VEC3"},{"bufferView":14,"componentType":5126,"count":24,"max":[2.5,4.159999847412109,2.549999952316284],"min":[-2.5,3.9100000858306885,2.0999999046325684],"type":"VEC3"},{"bufferView":15,"componentType":5126,"count":24,"type":"VEC2"},{"bufferView":16,"componentType":5126,"count":24,"type":"VEC3"},{"bufferView":17,"componentType":5126,"count":24,"max":[-0.47999998927116394,11.646835327148438,-0.9800000190734863],"min":[-0.6200000047683716,9.946834564208984,-1.1200000047683716],"type":"VEC3"},{"bufferView":18,"componentType":5126,"count":24,"type":"VEC2"},{"bufferView":19,"componentType":5126,"count":24,"type":"VEC3"},{"bufferView":20,"componentType":5126,"count":24,"max":[-0.47999998927116394,11.646835327148438,-2.0799999237060547],"min":[-0.6200000047683716,9.946834564208984,-2.2200000286102295],"type":"VEC3"},{"bufferView":21,"componentType":5126,"count":24,"type":"VEC2"},{"bufferView":22,"componentType":5126,"count":24,"type":"VEC3"},{"bufferView":23,"componentType":5126,"count":24,"max":[0.6200000047683716,11.646835327148438,-0.9800000190734863],"min":[0.47999998927116394,9.946834564208984,-1.1200000047683716],"type":"VEC3"},{"bufferView":24,"componentType":5126,"count":24,"type":"VEC2"},{"bufferView":25,"componentType":5126,"count":24,"type":"VEC3"},{"bufferView":26,"componentType":5126,"count":24,"max":[0.6200000047683716,11.646835327148438,-2.0799999237060547],"min":[0.47999998927116394,9.946834564208984,-2.2200000286102295],"type":"VEC3"},{"bufferView":27,"componentType":5126,"count":24,"type":"VEC2"},{"bufferView":28,"componentType":5126,"count":32,"type":"VEC3"},{"bufferView":29,"componentType":5126,"count":32,"max":[0.36000001430511475,11.196834564208984,-1.2400000095367432],"min":[-0.36000001430511475,10.510834693908691,-1.9600000381469727],"type":"VEC3"},{"bufferView":30,"componentType":5126,"count":32,"type":"VEC2"},{"bufferView":31,"componentType":5123,"count":48,"type":"SCALAR"},{"bufferView":32,"componentType":5126,"count":20,"type":"VEC3"},{"bufferView":33,"componentType":5126,"count":20,"max":[0.10508709400892258,2.999999761581421,0.11982007324695587],"min":[-0.10508733242750168,-1.5052728485898115e-07,-0.11982005089521408],"type":"VEC3"},{"bufferView":34,"componentType":5126,"count":20,"type":"VEC2"},{"bufferView":35,"componentType":5123,"count":30,"type":"SCALAR"},{"bufferView":36,"componentType":5126,"count":20,"type":"VEC3"},{"bufferView":37,"componentType":5126,"count":20,"max":[0.10508709400892258,2.999999761581421,0.11982007324695587],"min":[-0.10508733242750168,-1.5052728485898115e-07,-0.11982005089521408],"type":"VEC3"},{"bufferView":38,"componentType":5126,"count":20,"type":"VEC2"},{"bufferView":39,"componentType":5126,"count":20,"type":"VEC3"},{"bufferView":40,"componentType":5126,"count":20,"max":[0.10508709400892258,2.999999761581421,0.11982007324695587],"min":[-0.10508733242750168,-1.5052728485898115e-07,-0.11982005089521408],"type":"VEC3"},{"bufferView":41,"componentType":5126,"count":20,"type":"VEC2"},{"bufferView":42,"componentType":5126,"count":20,"type":"VEC3"},{"bufferView":43,"componentType":5126,"count":20,"max":[0.10508709400892258,2.999999761581421,0.11982007324695587],"min":[-0.10508733242750168,-1.5052728485898115e-07,-0.11982005089521408],"type":"VEC3"},{"bufferView":44,"componentType":5126,"count":20,"type":"VEC2"},{"bufferView":45,"componentType":5126,"count":24,"type":"VEC3"},{"bufferView":46,"componentType":5126,"count":24,"max":[0.6499999761581421,10.096835136413574,-0.949999988079071],"min":[-0.6499999761581421,9.946834564208984,-2.25],"type":"VEC3"},{"bufferView":47,"componentType":5126,"count":24,"type":"VEC2"},{"bufferView":48,"componentType":5126,"count":16,"type":"VEC3"},{"bufferView":49,"componentType":5126,"count":16,"max":[0.8999999761581421,12.646835327148438,-0.699999988079071],"min":[-0.8999999761581421,11.646835327148438,-2.5],"type":"VEC3"},{"bufferView":50,"componentType":5126,"count":16,"type":"VEC2"},{"bufferView":51,"componentType":5123,"count":24,"type":"SCALAR"},{"bufferView":52,"componentType":5126,"count":24,"type":"VEC3"},{"bufferView":53,"componentType":5126,"count":24,"max":[0.05000000074505806,13.146835327148438,-1.5566986799240112],"min":[-0.05000000074505806,12.546834945678711,-1.643301248550415],"type":"VEC3"},{"bufferView":54,"componentType":5123,"count":36,"type":"SCALAR"},{"bufferView":55,"componentType":5126,"count":744,"type":"VEC3"},{"bufferView":56,"componentType":5126,"count":744,"max":[1.0737497806549072,2.3513262271881104,0.06314271688461304],"min":[-0.04626310616731644,0.033089637756347656,-0.05755755677819252],"type":"VEC3"},{"bufferView":57,"componentType":5126,"count":744,"type":"VEC2"},{"bufferView":58,"componentType":5123,"count":1362,"type":"SCALAR"},{"bufferView":59,"componentType":5126,"count":28,"type":"VEC3"},{"bufferView":60,"componentType":5126,"count":28,"max":[0.8667700886726379,1.7624019384384155,0.0312458835542202],"min":[0.1617247760295868,1.3117259740829468,0.031245503574609756],"type":"VEC3"},{"bufferView":61,"componentType":5123,"count":48,"type":"SCALAR"},{"bufferView":62,"componentType":5126,"count":360,"type":"VEC3"},{"bufferView":63,"componentType":5126,"count":360,"max":[0.7034913897514343,2.5548486709594727,0.29893577098846436],"min":[-0.7034929394721985,-0.008544921875,-0.24002820253372192],"type":"VEC3"},{"bufferView":64,"componentType":5126,"count":360,"type":"VEC2"},{"bufferView":65,"componentType":5123,"count":954,"type":"SCALAR"},{"bufferView":66,"componentType":5126,"count":24,"type":"VEC3"},{"bufferView":67,"componentType":5126,"count":24,"max":[-3.174999952316284,2.929999828338623,0.5099999904632568],"min":[-3.2250001430511475,2.879999876022339,0.09000000357627869],"type":"VEC3"},{"bufferView":68,"componentType":5126,"count":24,"type":"VEC3"},{"bufferView":69,"componentType":5126,"count":24,"max":[3.2250001430511475,2.929999828338623,0.5099999904632568],"min":[3.174999952316284,2.879999876022339,0.09000000357627869],"type":"VEC3"},{"bufferView":70,"componentType":5126,"count":24,"type":"VEC3"},{"bufferView":71,"componentType":5126,"count":24,"max":[-3.080000162124634,2.419999837875366,0.5600000023841858],"min":[-3.319999933242798,2.359999895095825,0.3199999928474426],"type":"VEC3"},{"bufferView":72,"componentType":5126,"count":24,"type":"VEC3"},{"bufferView":73,"componentType":5126,"count":24,"max":[3.319999933242798,2.419999837875366,0.5600000023841858],"min":[3.080000162124634,2.359999895095825,0.3199999928474426],"type":"VEC3"},{"bufferView":74,"componentType":5126,"count":24,"type":"VEC3"},{"bufferView":75,"componentType":5126,"count":24,"max":[-3.059999942779541,2.799999952316284,0.5800000429153442],"min":[-3.3400001525878906,2.740000009536743,0.30000001192092896],"type":"VEC3"},{"bufferView":76,"componentType":5126,"count":24,"type":"VEC3"},{"bufferView":77,"componentType":5126,"count":24,"max":[3.3400001525878906,2.799999952316284,0.5800000429153442],"min":[3.059999942779541,2.740000009536743,0.30000001192092896],"type":"VEC3"},{"bufferView":78,"componentType":5126,"count":24,"type":"VEC3"},{"bufferView":79,"componentType":5126,"count":24,"max":[-3.1000001430511475,2.740000009536743,0.5399999618530273],"min":[-3.299999952316284,2.419999837875366,0.3400000035762787],"type":"VEC3"},{"bufferView":80,"componentType":5126,"count":24,"type":"VEC3"},{"bufferView":81,"componentType":5126,"count":24,"max":[3.299999952316284,2.740000009536743,0.5399999618530273],"min":[3.1000001430511475,2.419999837875366,0.3400000035762787],"type":"VEC3"},{"bufferView":82,"componentType":5126,"count":24,"type":"VEC3"},{"bufferView":83,"componentType":5126,"count":24,"max":[-3.184999942779541,2.8899998664855957,0.45000001788139343],"min":[-3.2150001525878906,2.799999952316284,0.42000001668930054],"type":"VEC3"},{"bufferView":84,"componentType":5126,"count":24,"type":"VEC3"},{"bufferView":85,"componentType":5126,"count":24,"max":[3.2150001525878906,2.8899998664855957,0.45000001788139343],"min":[3.184999942779541,2.799999952316284,0.42000001668930054],"type":"VEC3"},{"bufferView":86,"componentType":5126,"count":20,"type":"VEC3"},{"bufferView":87,"componentType":5126,"count":20,"max":[2.5999999046325684,0.20000000298023224,2.5999999046325684],"min":[-2.5999999046325684,0,0],"type":"VEC3"},{"bufferView":88,"componentType":5126,"count":20,"type":"VEC2"},{"bufferView":89,"componentType":5123,"count":30,"type":"SCALAR"},{"bufferView":90,"componentType":5126,"count":129,"type":"VEC3"},{"bufferView":91,"componentType":5126,"count":129,"max":[0.4457784593105316,3,0.4940085709095001],"min":[-0.5000000596046448,5.820766091346741e-08,-0.49400854110717773],"type":"VEC3"},{"bufferView":92,"componentType":5126,"count":129,"type":"VEC2"},{"bufferView":93,"componentType":5123,"count":390,"type":"SCALAR"},{"bufferView":94,"componentType":5126,"count":352,"type":"VEC3"},{"bufferView":95,"componentType":5126,"count":352,"max":[2.215996026992798,2.6399998664855957,0.7941397428512573],"min":[-2.183807373046875,-0.13180206716060638,-0.33496367931365967],"type":"VEC3"},{"bufferView":96,"componentType":5126,"count":352,"type":"VEC2"},{"bufferView":97,"componentType":5123,"count":720,"type":"SCALAR"},{"bufferView":98,"componentType":5126,"count":16,"type":"VEC3"},{"bufferView":99,"componentType":5126,"count":16,"max":[2.188183546066284,2.9367027282714844,9.464429240324534e-12],"min":[-2.1137986183166504,0.019167041406035423,-0.2497011125087738],"type":"VEC3"},{"bufferView":100,"componentType":5126,"count":16,"type":"VEC2"},{"bufferView":101,"componentType":5123,"count":36,"type":"SCALAR"},{"bufferView":102,"componentType":5126,"count":600,"type":"VEC3"},{"bufferView":103,"componentType":5126,"count":600,"max":[4.256076812744141,5.269639492034912,0.794139564037323],"min":[-4.254717826843262,-0.13180209696292877,-0.33496370911598206],"type":"VEC3"},{"bufferView":104,"componentType":5126,"count":600,"type":"VEC2"},{"bufferView":105,"componentType":5123,"count":1056,"type":"SCALAR"},{"bufferView":106,"componentType":5126,"count":16,"type":"VEC3"},{"bufferView":107,"componentType":5126,"count":16,"max":[4.1627702713012695,5.314065933227539,1.6825651982799172e-11],"min":[-4.1627702713012695,0.019167065620422363,-0.24970084428787231],"type":"VEC3"},{"bufferView":108,"componentType":5126,"count":16,"type":"VEC2"},{"bufferView":109,"componentType":5123,"count":36,"type":"SCALAR"},{"bufferView":110,"componentType":5126,"count":1006,"type":"VEC3"},{"bufferView":111,"componentType":5126,"count":1006,"max":[2.5676212310791016,3.200705051422119,2.7454771995544434],"min":[-2.5676212310791016,-0.5157185792922974,-2.73990797996521],"type":"VEC3"},{"bufferView":112,"componentType":5126,"count":1006,"type":"VEC2"},{"bufferView":113,"componentType":5123,"count":1632,"type":"SCALAR"},{"bufferView":114,"componentType":5126,"count":755,"type":"VEC3"},{"bufferView":115,"componentType":5126,"count":755,"max":[2.756538152694702,3.7336742877960205,2.8215668201446533],"min":[-2.756538152694702,-0.3878333568572998,-2.7018470764160156],"type":"VEC3"},{"bufferView":116,"componentType":5126,"count":755,"type":"VEC2"},{"bufferView":117,"componentType":5123,"count":1959,"type":"SCALAR"},{"bufferView":118,"componentType":5126,"count":1694,"type":"VEC3"},{"bufferView":119,"componentType":5126,"count":1694,"max":[4.9567179679870605,5.600559711456299,5.858181953430176],"min":[-4.9567179679870605,-0.7799561023712158,-5.851998329162598],"type":"VEC3"},{"bufferView":120,"componentType":5126,"count":1694,"type":"VEC2"},{"bufferView":121,"componentType":5123,"count":2616,"type":"SCALAR"},{"bufferView":122,"componentType":5126,"count":2194,"type":"VEC3"},{"bufferView":123,"componentType":5126,"count":2194,"max":[4.975997447967529,6.001367092132568,6.0074462890625],"min":[-4.975997447967529,-0.5717926621437073,-5.844740390777588],"type":"VEC3"},{"bufferView":124,"componentType":5126,"count":2194,"type":"VEC2"},{"bufferView":125,"componentType":5123,"count":5448,"type":"SCALAR"},{"bufferView":126,"componentType":5126,"count":64,"type":"VEC3"},{"bufferView":127,"componentType":5126,"count":64,"max":[1,3.1226887702941895,0.09244640171527863],"min":[-1.0000001192092896,2.877309799194336,-0.3140353262424469],"type":"VEC3"},{"bufferView":128,"componentType":5126,"count":64,"type":"VEC2"},{"bufferView":129,"componentType":5123,"count":150,"type":"SCALAR"},{"bufferView":130,"componentType":5126,"count":35,"type":"VEC3"},{"bufferView":131,"componentType":5126,"count":35,"max":[1,3,-0.19999991357326508],"min":[-1,0,-0.2000000923871994],"type":"VEC3"},{"bufferView":132,"componentType":5126,"count":35,"type":"VEC2"},{"bufferView":133,"componentType":5123,"count":123,"type":"SCALAR"},{"bufferView":134,"componentType":5126,"count":43,"type":"VEC3"},{"bufferView":135,"componentType":5126,"count":43,"max":[1,3,1.3113415775478643e-07],"min":[-1,0,0],"type":"VEC3"},{"bufferView":136,"componentType":5126,"count":43,"type":"VEC2"},{"bufferView":137,"componentType":5123,"count":135,"type":"SCALAR"},{"bufferView":138,"componentType":5126,"count":64,"type":"VEC3"},{"bufferView":139,"componentType":5126,"count":64,"max":[1,3.1226887702941895,0.09244640171527863],"min":[-1.0000001192092896,2.877309799194336,-0.3140353262424469],"type":"VEC3"},{"bufferView":140,"componentType":5126,"count":64,"type":"VEC2"},{"bufferView":141,"componentType":5126,"count":4,"type":"VEC3"},{"bufferView":142,"componentType":5126,"count":4,"max":[1,3,-0.19999991357326508],"min":[-1,0,-0.2000000923871994],"type":"VEC3"},{"bufferView":143,"componentType":5126,"count":4,"type":"VEC2"},{"bufferView":144,"componentType":5123,"count":6,"type":"SCALAR"},{"bufferView":145,"componentType":5126,"count":8,"type":"VEC3"},{"bufferView":146,"componentType":5126,"count":8,"max":[1,3,1.3113415775478643e-07],"min":[-1,0,0],"type":"VEC3"},{"bufferView":147,"componentType":5126,"count":8,"type":"VEC2"},{"bufferView":148,"componentType":5123,"count":12,"type":"SCALAR"},{"bufferView":149,"componentType":5126,"count":64,"type":"VEC3"},{"bufferView":150,"componentType":5126,"count":64,"max":[1,3.1226887702941895,0.09244640171527863],"min":[-1.0000001192092896,2.877309799194336,-0.3140353262424469],"type":"VEC3"},{"bufferView":151,"componentType":5126,"count":64,"type":"VEC2"},{"bufferView":152,"componentType":5126,"count":44,"type":"VEC3"},{"bufferView":153,"componentType":5126,"count":44,"max":[1,3,-0.19999991357326508],"min":[-1,0,-0.2000000923871994],"type":"VEC3"},{"bufferView":154,"componentType":5126,"count":44,"type":"VEC2"},{"bufferView":155,"componentType":5123,"count":132,"type":"SCALAR"},{"bufferView":156,"componentType":5126,"count":57,"type":"VEC3"},{"bufferView":157,"componentType":5126,"count":57,"max":[1,3,1.3113415775478643e-07],"min":[-1,0,0],"type":"VEC3"},{"bufferView":158,"componentType":5126,"count":57,"type":"VEC2"},{"bufferView":159,"componentType":5123,"count":192,"type":"SCALAR"},{"bufferView":160,"componentType":5126,"count":64,"type":"VEC3"},{"bufferView":161,"componentType":5126,"count":64,"max":[1,3.1226887702941895,0.09244640171527863],"min":[-1.0000001192092896,2.877309799194336,-0.3140353262424469],"type":"VEC3"},{"bufferView":162,"componentType":5126,"count":64,"type":"VEC2"},{"bufferView":163,"componentType":5123,"count":150,"type":"SCALAR"},{"bufferView":164,"componentType":5126,"count":30,"type":"VEC3"},{"bufferView":165,"componentType":5126,"count":30,"max":[1,3,-0.19999989867210388],"min":[-1,0,-0.2000000923871994],"type":"VEC3"},{"bufferView":166,"componentType":5126,"count":30,"type":"VEC2"},{"bufferView":167,"componentType":5123,"count":90,"type":"SCALAR"},{"bufferView":168,"componentType":5126,"count":36,"type":"VEC3"},{"bufferView":169,"componentType":5126,"count":36,"max":[1,3,1.3113415775478643e-07],"min":[-1,0,0],"type":"VEC3"},{"bufferView":170,"componentType":5126,"count":36,"type":"VEC2"},{"bufferView":171,"componentType":5123,"count":108,"type":"SCALAR"},{"bufferView":172,"componentType":5126,"count":402,"type":"VEC3"},{"bufferView":173,"componentType":5126,"count":402,"max":[0.44381028413772583,2.6207287311553955,0.0923665463924408],"min":[-0.44381028413772583,1.01604425907135,-0.2520223557949066],"type":"VEC3"},{"bufferView":174,"componentType":5126,"count":402,"type":"VEC2"},{"bufferView":175,"componentType":5123,"count":786,"type":"SCALAR"},{"bufferView":176,"componentType":5126,"count":83,"type":"VEC3"},{"bufferView":177,"componentType":5126,"count":83,"max":[0.277061402797699,2.478931427001953,0.003888234496116638],"min":[-0.27893951535224915,1.0875728130340576,0.0038879886269569397],"type":"VEC3"},{"bufferView":178,"componentType":5123,"count":153,"type":"SCALAR"},{"bufferView":179,"componentType":5126,"count":340,"type":"VEC3"},{"bufferView":180,"componentType":5126,"count":340,"max":[0.691490113735199,2.741780996322632,0.27729201316833496],"min":[-0.691490113735199,1.01604425907135,-0.2522830367088318],"type":"VEC3"},{"bufferView":181,"componentType":5126,"count":340,"type":"VEC2"},{"bufferView":182,"componentType":5123,"count":672,"type":"SCALAR"},{"bufferView":183,"componentType":5126,"count":63,"type":"VEC3"},{"bufferView":184,"componentType":5126,"count":63,"max":[0.5413169860839844,2.6192541122436523,0.0038883001543581486],"min":[-0.5445477962493896,1.0647618770599365,0.003887913655489683],"type":"VEC3"},{"bufferView":185,"componentType":5123,"count":123,"type":"SCALAR"},{"bufferView":186,"componentType":5126,"count":222,"type":"VEC3"},{"bufferView":187,"componentType":5126,"count":222,"max":[0.7867056131362915,2.6116669178009033,0.4355051815509796],"min":[-0.8195725083351135,1.0932440757751465,0.059017062187194824],"type":"VEC3"},{"bufferView":188,"componentType":5126,"count":222,"type":"VEC2"},{"bufferView":189,"componentType":5123,"count":336,"type":"SCALAR"}],"asset":{"generator":"Khronos glTF Blender I/O v5.2.40","version":"2.0"},"bufferViews":[{"buffer":0,"byteOffset":0,"byteLength":288,"target":34962},{"buffer":0,"byteOffset":288,"byteLength":288,"target":34962},{"buffer":0,"byteOffset":576,"byteLength":192,"target":34962},{"buffer":0,"byteOffset":768,"byteLength":72,"target":34963},{"buffer":0,"byteOffset":840,"byteLength":288,"target":34962},{"buffer":0,"byteOffset":1128,"byteLength":288,"target":34962},{"buffer":0,"byteOffset":1416,"byteLength":192,"target":34962},{"buffer":0,"byteOffset":1608,"byteLength":288,"target":34962},{"buffer":0,"byteOffset":1896,"byteLength":288,"target":34962},{"buffer":0,"byteOffset":2184,"byteLength":192,"target":34962},{"buffer":0,"byteOffset":2376,"byteLength":288,"target":34962},{"buffer":0,"byteOffset":2664,"byteLength":288,"target":34962},{"buffer":0,"byteOffset":2952,"byteLength":192,"target":34962},{"buffer":0,"byteOffset":3144,"byteLength":288,"target":34962},{"buffer":0,"byteOffset":3432,"byteLength":288,"target":34962},{"buffer":0,"byteOffset":3720,"byteLength":192,"target":34962},{"buffer":0,"byteOffset":3912,"byteLength":288,"target":34962},{"buffer":0,"byteOffset":4200,"byteLength":288,"target":34962},{"buffer":0,"byteOffset":4488,"byteLength":192,"target":34962},{"buffer":0,"byteOffset":4680,"byteLength":288,"target":34962},{"buffer":0,"byteOffset":4968,"byteLength":288,"target":34962},{"buffer":0,"byteOffset":5256,"byteLength":192,"target":34962},{"buffer":0,"byteOffset":5448,"byteLength":288,"target":34962},{"buffer":0,"byteOffset":5736,"byteLength":288,"target":34962},{"buffer":0,"byteOffset":6024,"byteLength":192,"target":34962},{"buffer":0,"byteOffset":6216,"byteLength":288,"target":34962},{"buffer":0,"byteOffset":6504,"byteLength":288,"target":34962},{"buffer":0,"byteOffset":6792,"byteLength":192,"target":34962},{"buffer":0,"byteOffset":6984,"byteLength":384,"target":34962},{"buffer":0,"byteOffset":7368,"byteLength":384,"target":34962},{"buffer":0,"byteOffset":7752,"byteLength":256,"target":34962},{"buffer":0,"byteOffset":8008,"byteLength":96,"target":34963},{"buffer":0,"byteOffset":8104,"byteLength":240,"target":34962},{"buffer":0,"byteOffset":8344,"byteLength":240,"target":34962},{"buffer":0,"byteOffset":8584,"byteLength":160,"target":34962},{"buffer":0,"byteOffset":8744,"byteLength":60,"target":34963},{"buffer":0,"byteOffset":8804,"byteLength":240,"target":34962},{"buffer":0,"byteOffset":9044,"byteLength":240,"target":34962},{"buffer":0,"byteOffset":9284,"byteLength":160,"target":34962},{"buffer":0,"byteOffset":9444,"byteLength":240,"target":34962},{"buffer":0,"byteOffset":9684,"byteLength":240,"target":34962},{"buffer":0,"byteOffset":9924,"byteLength":160,"target":34962},{"buffer":0,"byteOffset":10084,"byteLength":240,"target":34962},{"buffer":0,"byteOffset":10324,"byteLength":240,"target":34962},{"buffer":0,"byteOffset":10564,"byteLength":160,"target":34962},{"buffer":0,"byteOffset":10724,"byteLength":288,"target":34962},{"buffer":0,"byteOffset":11012,"byteLength":288,"target":34962},{"buffer":0,"byteOffset":11300,"byteLength":192,"target":34962},{"buffer":0,"byteOffset":11492,"byteLength":192,"target":34962},{"buffer":0,"byteOffset":11684,"byteLength":192,"target":34962},{"buffer":0,"byteOffset":11876,"byteLength":128,"target":34962},{"buffer":0,"byteOffset":12004,"byteLength":48,"target":34963},{"buffer":0,"byteOffset":12052,"byteLength":288,"target":34962},{"buffer":0,"byteOffset":12340,"byteLength":288,"target":34962},{"buffer":0,"byteOffset":12628,"byteLength":72,"target":34963},{"buffer":0,"byteOffset":12700,"byteLength":8928,"target":34962},{"buffer":0,"byteOffset":21628,"byteLength":8928,"target":34962},{"buffer":0,"byteOffset":30556,"byteLength":5952,"target":34962},{"buffer":0,"byteOffset":36508,"byteLength":2724,"target":34963},{"buffer":0,"byteOffset":39232,"byteLength":336,"target":34962},{"buffer":0,"byteOffset":39568,"byteLength":336,"target":34962},{"buffer":0,"byteOffset":39904,"byteLength":96,"target":34963},{"buffer":0,"byteOffset":40000,"byteLength":4320,"target":34962},{"buffer":0,"byteOffset":44320,"byteLength":4320,"target":34962},{"buffer":0,"byteOffset":48640,"byteLength":2880,"target":34962},{"buffer":0,"byteOffset":51520,"byteLength":1908,"target":34963},{"buffer":0,"byteOffset":53428,"byteLength":288,"target":34962},{"buffer":0,"byteOffset":53716,"byteLength":288,"target":34962},{"buffer":0,"byteOffset":54004,"byteLength":288,"target":34962},{"buffer":0,"byteOffset":54292,"byteLength":288,"target":34962},{"buffer":0,"byteOffset":54580,"byteLength":288,"target":34962},{"buffer":0,"byteOffset":54868,"byteLength":288,"target":34962},{"buffer":0,"byteOffset":55156,"byteLength":288,"target":34962},{"buffer":0,"byteOffset":55444,"byteLength":288,"target":34962},{"buffer":0,"byteOffset":55732,"byteLength":288,"target":34962},{"buffer":0,"byteOffset":56020,"byteLength":288,"target":34962},{"buffer":0,"byteOffset":56308,"byteLength":288,"target":34962},{"buffer":0,"byteOffset":56596,"byteLength":288,"target":34962},{"buffer":0,"byteOffset":56884,"byteLength":288,"target":34962},{"buffer":0,"byteOffset":57172,"byteLength":288,"target":34962},{"buffer":0,"byteOffset":57460,"byteLength":288,"target":34962},{"buffer":0,"byteOffset":57748,"byteLength":288,"target":34962},{"buffer":0,"byteOffset":58036,"byteLength":288,"target":34962},{"buffer":0,"byteOffset":58324,"byteLength":288,"target":34962},{"buffer":0,"byteOffset":58612,"byteLength":288,"target":34962},{"buffer":0,"byteOffset":58900,"byteLength":288,"target":34962},{"buffer":0,"byteOffset":59188,"byteLength":240,"target":34962},{"buffer":0,"byteOffset":59428,"byteLength":240,"target":34962},{"buffer":0,"byteOffset":59668,"byteLength":160,"target":34962},{"buffer":0,"byteOffset":59828,"byteLength":60,"target":34963},{"buffer":0,"byteOffset":59888,"byteLength":1548,"target":34962},{"buffer":0,"byteOffset":61436,"byteLength":1548,"target":34962},{"buffer":0,"byteOffset":62984,"byteLength":1032,"target":34962},{"buffer":0,"byteOffset":64016,"byteLength":780,"target":34963},{"buffer":0,"byteOffset":64796,"byteLength":4224,"target":34962},{"buffer":0,"byteOffset":69020,"byteLength":4224,"target":34962},{"buffer":0,"byteOffset":73244,"byteLength":2816,"target":34962},{"buffer":0,"byteOffset":76060,"byteLength":1440,"target":34963},{"buffer":0,"byteOffset":77500,"byteLength":192,"target":34962},{"buffer":0,"byteOffset":77692,"byteLength":192,"target":34962},{"buffer":0,"byteOffset":77884,"byteLength":128,"target":34962},{"buffer":0,"byteOffset":78012,"byteLength":72,"target":34963},{"buffer":0,"byteOffset":78084,"byteLength":7200,"target":34962},{"buffer":0,"byteOffset":85284,"byteLength":7200,"target":34962},{"buffer":0,"byteOffset":92484,"byteLength":4800,"target":34962},{"buffer":0,"byteOffset":97284,"byteLength":2112,"target":34963},{"buffer":0,"byteOffset":99396,"byteLength":192,"target":34962},{"buffer":0,"byteOffset":99588,"byteLength":192,"target":34962},{"buffer":0,"byteOffset":99780,"byteLength":128,"target":34962},{"buffer":0,"byteOffset":99908,"byteLength":72,"target":34963},{"buffer":0,"byteOffset":99980,"byteLength":12072,"target":34962},{"buffer":0,"byteOffset":112052,"byteLength":12072,"target":34962},{"buffer":0,"byteOffset":124124,"byteLength":8048,"target":34962},{"buffer":0,"byteOffset":132172,"byteLength":3264,"target":34963},{"buffer":0,"byteOffset":135436,"byteLength":9060,"target":34962},{"buffer":0,"byteOffset":144496,"byteLength":9060,"target":34962},{"buffer":0,"byteOffset":153556,"byteLength":6040,"target":34962},{"buffer":0,"byteOffset":159596,"byteLength":3918,"target":34963},{"buffer":0,"byteOffset":163516,"byteLength":20328,"target":34962},{"buffer":0,"byteOffset":183844,"byteLength":20328,"target":34962},{"buffer":0,"byteOffset":204172,"byteLength":13552,"target":34962},{"buffer":0,"byteOffset":217724,"byteLength":5232,"target":34963},{"buffer":0,"byteOffset":222956,"byteLength":26328,"target":34962},{"buffer":0,"byteOffset":249284,"byteLength":26328,"target":34962},{"buffer":0,"byteOffset":275612,"byteLength":17552,"target":34962},{"buffer":0,"byteOffset":293164,"byteLength":10896,"target":34963},{"buffer":0,"byteOffset":304060,"byteLength":768,"target":34962},{"buffer":0,"byteOffset":304828,"byteLength":768,"target":34962},{"buffer":0,"byteOffset":305596,"byteLength":512,"target":34962},{"buffer":0,"byteOffset":306108,"byteLength":300,"target":34963},{"buffer":0,"byteOffset":306408,"byteLength":420,"target":34962},{"buffer":0,"byteOffset":306828,"byteLength":420,"target":34962},{"buffer":0,"byteOffset":307248,"byteLength":280,"target":34962},{"buffer":0,"byteOffset":307528,"byteLength":246,"target":34963},{"buffer":0,"byteOffset":307776,"byteLength":516,"target":34962},{"buffer":0,"byteOffset":308292,"byteLength":516,"target":34962},{"buffer":0,"byteOffset":308808,"byteLength":344,"target":34962},{"buffer":0,"byteOffset":309152,"byteLength":270,"target":34963},{"buffer":0,"byteOffset":309424,"byteLength":768,"target":34962},{"buffer":0,"byteOffset":310192,"byteLength":768,"target":34962},{"buffer":0,"byteOffset":310960,"byteLength":512,"target":34962},{"buffer":0,"byteOffset":311472,"byteLength":48,"target":34962},{"buffer":0,"byteOffset":311520,"byteLength":48,"target":34962},{"buffer":0,"byteOffset":311568,"byteLength":32,"target":34962},{"buffer":0,"byteOffset":311600,"byteLength":12,"target":34963},{"buffer":0,"byteOffset":311612,"byteLength":96,"target":34962},{"buffer":0,"byteOffset":311708,"byteLength":96,"target":34962},{"buffer":0,"byteOffset":311804,"byteLength":64,"target":34962},{"buffer":0,"byteOffset":311868,"byteLength":24,"target":34963},{"buffer":0,"byteOffset":311892,"byteLength":768,"target":34962},{"buffer":0,"byteOffset":312660,"byteLength":768,"target":34962},{"buffer":0,"byteOffset":313428,"byteLength":512,"target":34962},{"buffer":0,"byteOffset":313940,"byteLength":528,"target":34962},{"buffer":0,"byteOffset":314468,"byteLength":528,"target":34962},{"buffer":0,"byteOffset":314996,"byteLength":352,"target":34962},{"buffer":0,"byteOffset":315348,"byteLength":264,"target":34963},{"buffer":0,"byteOffset":315612,"byteLength":684,"target":34962},{"buffer":0,"byteOffset":316296,"byteLength":684,"target":34962},{"buffer":0,"byteOffset":316980,"byteLength":456,"target":34962},{"buffer":0,"byteOffset":317436,"byteLength":384,"target":34963},{"buffer":0,"byteOffset":317820,"byteLength":768,"target":34962},{"buffer":0,"byteOffset":318588,"byteLength":768,"target":34962},{"buffer":0,"byteOffset":319356,"byteLength":512,"target":34962},{"buffer":0,"byteOffset":319868,"byteLength":300,"target":34963},{"buffer":0,"byteOffset":320168,"byteLength":360,"target":34962},{"buffer":0,"byteOffset":320528,"byteLength":360,"target":34962},{"buffer":0,"byteOffset":320888,"byteLength":240,"target":34962},{"buffer":0,"byteOffset":321128,"byteLength":180,"target":34963},{"buffer":0,"byteOffset":321308,"byteLength":432,"target":34962},{"buffer":0,"byteOffset":321740,"byteLength":432,"target":34962},{"buffer":0,"byteOffset":322172,"byteLength":288,"target":34962},{"buffer":0,"byteOffset":322460,"byteLength":216,"target":34963},{"buffer":0,"byteOffset":322676,"byteLength":4824,"target":34962},{"buffer":0,"byteOffset":327500,"byteLength":4824,"target":34962},{"buffer":0,"byteOffset":332324,"byteLength":3216,"target":34962},{"buffer":0,"byteOffset":335540,"byteLength":1572,"target":34963},{"buffer":0,"byteOffset":337112,"byteLength":996,"target":34962},{"buffer":0,"byteOffset":338108,"byteLength":996,"target":34962},{"buffer":0,"byteOffset":339104,"byteLength":306,"target":34963},{"buffer":0,"byteOffset":339412,"byteLength":4080,"target":34962},{"buffer":0,"byteOffset":343492,"byteLength":4080,"target":34962},{"buffer":0,"byteOffset":347572,"byteLength":2720,"target":34962},{"buffer":0,"byteOffset":350292,"byteLength":1344,"target":34963},{"buffer":0,"byteOffset":351636,"byteLength":756,"target":34962},{"buffer":0,"byteOffset":352392,"byteLength":756,"target":34962},{"buffer":0,"byteOffset":353148,"byteLength":246,"target":34963},{"buffer":0,"byteOffset":353396,"byteLength":2664,"target":34962},{"buffer":0,"byteOffset":356060,"byteLength":2664,"target":34962},{"buffer":0,"byteOffset":358724,"byteLength":1776,"target":34962},{"buffer":0,"byteOffset":360500,"byteLength":672,"target":34963}],"buffers":[{"byteLength":361172,"uri":"meeting_hall.bin"}],"images":[{"name":"T_MetalOrnaments_BaseColor","uri":"../village/T_MetalOrnaments_BaseColor.png"},{"name":"T_Plaster_Luma","uri":"../village/T_Plaster_Luma.png"},{"name":"T_RockTrim_BaseColor","uri":"../village/T_RockTrim_BaseColor.png"},{"name":"T_RoundTiles_Luma","uri":"../village/T_RoundTiles_Luma.png"},{"name":"T_UnevenBrick_BaseColor","uri":"../village/T_UnevenBrick_BaseColor.png"},{"name":"T_WoodTrim_BaseColor","uri":"../village/T_WoodTrim_BaseColor.png"}],"materials":[{"doubleSided":true,"name":"Wood_dark","pbrMetallicRoughness":{"baseColorFactor":[0.2329,0.2659,0.2944,1.0],"baseColorTexture":{"index":5},"metallicFactor":0,"roughnessFactor":0.8500000238418579}},{"doubleSided":true,"name":"Metal","pbrMetallicRoughness":{"baseColorFactor":[1.0,0.9972,0.9945,1.0],"baseColorTexture":{"index":0},"metallicFactor":0,"roughnessFactor":0.5}},{"doubleSided":true,"name":"Tiles_slate","pbrMetallicRoughness":{"baseColorFactor":[0.1477,0.1884,0.2641,1.0],"baseColorTexture":{"index":3},"metallicFactor":0,"roughnessFactor":0.699999988079071}},{"doubleSided":true,"name":"Iron","pbrMetallicRoughness":{"baseColorFactor":[0.0134117491543293,0.0134117491543293,0.015325203537940979,1],"metallicFactor":0,"roughnessFactor":0.5}},{"doubleSided":true,"name":"Glass","pbrMetallicRoughness":{"baseColorFactor":[0.03310476616024971,0.05087608844041824,0.07828831672668457,1],"metallicFactor":0,"roughnessFactor":0.20000000298023224}},{"doubleSided":true,"emissiveFactor":[1,0.4479884207248688,0.10048151016235352],"name":"LampGlass","pbrMetallicRoughness":{"baseColorFactor":[1,0.5704815983772278,0.1473190039396286,1],"metallicFactor":0,"roughnessFactor":0.8500000238418579}},{"doubleSided":true,"name":"RockTrim","pbrMetallicRoughness":{"baseColorFactor":[1.0,0.9979,1.0,1.0],"baseColorTexture":{"index":2},"metallicFactor":0,"roughnessFactor":0.8500000238418579}},{"doubleSided":true,"name":"Stone","pbrMetallicRoughness":{"baseColorFactor":[1.0,0.9974,0.9977,1.0],"baseColorTexture":{"index":4},"metallicFactor":0,"roughnessFactor":0.8500000238418579}},{"doubleSided":true,"name":"Plaster_sage","pbrMetallicRoughness":{"baseColorFactor":[0.656,0.7502,0.4764,1.0],"baseColorTexture":{"index":1},"metallicFactor":0,"roughnessFactor":0.8500000238418579}}],"meshes":[{"name":"Beam","primitives":[{"attributes":{"NORMAL":0,"POSITION":1,"TEXCOORD_0":2},"indices":3,"material":0}]},{"name":"Beam.001","primitives":[{"attributes":{"NORMAL":4,"POSITION":5,"TEXCOORD_0":6},"indices":3,"material":0}]},{"name":"Beam.002","primitives":[{"attributes":{"NORMAL":7,"POSITION":8,"TEXCOORD_0":9},"indices":3,"material":0}]},{"name":"Beam.003","primitives":[{"attributes":{"NORMAL":10,"POSITION":11,"TEXCOORD_0":12},"indices":3,"material":0}]},{"name":"Beam.004","primitives":[{"attributes":{"NORMAL":13,"POSITION":14,"TEXCOORD_0":15},"indices":3,"material":0}]},{"name":"Beam.005","primitives":[{"attributes":{"NORMAL":16,"POSITION":17,"TEXCOORD_0":18},"indices":3,"material":0}]},{"name":"Beam.006","primitives":[{"attributes":{"NORMAL":19,"POSITION":20,"TEXCOORD_0":21},"indices":3,"material":0}]},{"name":"Beam.007","primitives":[{"attributes":{"NORMAL":22,"POSITION":23,"TEXCOORD_0":24},"indices":3,"material":0}]},{"name":"Beam.008","primitives":[{"attributes":{"NORMAL":25,"POSITION":26,"TEXCOORD_0":27},"indices":3,"material":0}]},{"name":"Bell","primitives":[{"attributes":{"NORMAL":28,"POSITION":29,"TEXCOORD_0":30},"indices":31,"material":1}]},{"name":"kit_Corner_Exterior_Wood.001","primitives":[{"attributes":{"NORMAL":32,"POSITION":33,"TEXCOORD_0":34},"indices":35,"material":0}]},{"name":"kit_Corner_Exterior_Wood.002","primitives":[{"attributes":{"NORMAL":36,"POSITION":37,"TEXCOORD_0":38},"indices":35,"material":0}]},{"name":"kit_Corner_Exterior_Wood.003","primitives":[{"attributes":{"NORMAL":39,"POSITION":40,"TEXCOORD_0":41},"indices":35,"material":0}]},{"name":"kit_Corner_Exterior_Wood","primitives":[{"attributes":{"NORMAL":42,"POSITION":43,"TEXCOORD_0":44},"indices":35,"material":0}]},{"name":"CoteFloor","primitives":[{"attributes":{"NORMAL":45,"POSITION":46,"TEXCOORD_0":47},"indices":3,"material":0}]},{"name":"CoteRoof","primitives":[{"attributes":{"NORMAL":48,"POSITION":49,"TEXCOORD_0":50},"indices":51,"material":2}]},{"name":"CoteSpire","primitives":[{"attributes":{"NORMAL":52,"POSITION":53},"indices":54,"material":3}]},{"name":"kit_Door_1_Round","primitives":[{"attributes":{"NORMAL":55,"POSITION":56,"TEXCOORD_0":57},"indices":58,"material":0},{"attributes":{"NORMAL":59,"POSITION":60},"indices":61,"material":4}]},{"name":"kit_DoorFrame_Round_WoodDark","primitives":[{"attributes":{"NORMAL":62,"POSITION":63,"TEXCOORD_0":64},"indices":65,"material":0}]},{"name":"LanternArm","primitives":[{"attributes":{"NORMAL":66,"POSITION":67},"indices":3,"material":3}]},{"name":"LanternArm.001","primitives":[{"attributes":{"NORMAL":68,"POSITION":69},"indices":3,"material":3}]},{"name":"LanternBase","primitives":[{"attributes":{"NORMAL":70,"POSITION":71},"indices":3,"material":3}]},{"name":"LanternBase.001","primitives":[{"attributes":{"NORMAL":72,"POSITION":73},"indices":3,"material":3}]},{"name":"LanternCap","primitives":[{"attributes":{"NORMAL":74,"POSITION":75},"indices":3,"material":3}]},{"name":"LanternCap.001","primitives":[{"attributes":{"NORMAL":76,"POSITION":77},"indices":3,"material":3}]},{"name":"LanternGlass","primitives":[{"attributes":{"NORMAL":78,"POSITION":79},"indices":3,"material":5}]},{"name":"LanternGlass.001","primitives":[{"attributes":{"NORMAL":80,"POSITION":81},"indices":3,"material":5}]},{"name":"LanternHook","primitives":[{"attributes":{"NORMAL":82,"POSITION":83},"indices":3,"material":3}]},{"name":"LanternHook.001","primitives":[{"attributes":{"NORMAL":84,"POSITION":85},"indices":3,"material":3}]},{"name":"PorchFloor","primitives":[{"attributes":{"NORMAL":86,"POSITION":87,"TEXCOORD_0":88},"indices":89,"material":6}]},{"name":"kit_Prop_Chimney2","primitives":[{"attributes":{"NORMAL":90,"POSITION":91,"TEXCOORD_0":92},"indices":93,"material":7}]},{"name":"kit_Roof_Front_Brick4","primitives":[{"attributes":{"NORMAL":94,"POSITION":95,"TEXCOORD_0":96},"indices":97,"material":0},{"attributes":{"NORMAL":98,"POSITION":99,"TEXCOORD_0":100},"indices":101,"material":8}]},{"name":"kit_Roof_Front_Brick8","primitives":[{"attributes":{"NORMAL":102,"POSITION":103,"TEXCOORD_0":104},"indices":105,"material":0},{"attributes":{"NORMAL":106,"POSITION":107,"TEXCOORD_0":108},"indices":109,"material":8}]},{"name":"kit_Roof_RoundTiles_4x4.001","primitives":[{"attributes":{"NORMAL":110,"POSITION":111,"TEXCOORD_0":112},"indices":113,"material":0},{"attributes":{"NORMAL":114,"POSITION":115,"TEXCOORD_0":116},"indices":117,"material":2}]},{"name":"kit_Roof_RoundTiles_8x10.001","primitives":[{"attributes":{"NORMAL":118,"POSITION":119,"TEXCOORD_0":120},"indices":121,"material":0},{"attributes":{"NORMAL":122,"POSITION":123,"TEXCOORD_0":124},"indices":125,"material":2}]},{"name":"kit_Wall_UnevenBrick_Door_Round","primitives":[{"attributes":{"NORMAL":126,"POSITION":127,"TEXCOORD_0":128},"indices":129,"material":0},{"attributes":{"NORMAL":130,"POSITION":131,"TEXCOORD_0":132},"indices":133,"material":8},{"attributes":{"NORMAL":134,"POSITION":135,"TEXCOORD_0":136},"indices":137,"material":7}]},{"name":"kit_Wall_UnevenBrick_Straight","primitives":[{"attributes":{"NORMAL":138,"POSITION":139,"TEXCOORD_0":140},"indices":129,"material":0},{"attributes":{"NORMAL":141,"POSITION":142,"TEXCOORD_0":143},"indices":144,"material":8},{"attributes":{"NORMAL":145,"POSITION":146,"TEXCOORD_0":147},"indices":148,"material":7}]},{"name":"kit_Wall_UnevenBrick_Window_Thin_Round","primitives":[{"attributes":{"NORMAL":149,"POSITION":150,"TEXCOORD_0":151},"indices":129,"material":0},{"attributes":{"NORMAL":152,"POSITION":153,"TEXCOORD_0":154},"indices":155,"material":8},{"attributes":{"NORMAL":156,"POSITION":157,"TEXCOORD_0":158},"indices":159,"material":7}]},{"name":"kit_Wall_UnevenBrick_Window_Wide_Round","primitives":[{"attributes":{"NORMAL":160,"POSITION":161,"TEXCOORD_0":162},"indices":163,"material":0},{"attributes":{"NORMAL":164,"POSITION":165,"TEXCOORD_0":166},"indices":167,"material":8},{"attributes":{"NORMAL":168,"POSITION":169,"TEXCOORD_0":170},"indices":171,"material":7}]},{"name":"kit_Window_Thin_Round1.001","primitives":[{"attributes":{"NORMAL":172,"POSITION":173,"TEXCOORD_0":174},"indices":175,"material":0},{"attributes":{"NORMAL":176,"POSITION":177},"indices":178,"material":4}]},{"name":"kit_Window_Wide_Round1.001","primitives":[{"attributes":{"NORMAL":179,"POSITION":180,"TEXCOORD_0":181},"indices":182,"material":0},{"attributes":{"NORMAL":183,"POSITION":184},"indices":185,"material":4}]},{"name":"kit_WindowShutters_Thin_Round_Open","primitives":[{"attributes":{"NORMAL":186,"POSITION":187,"TEXCOORD_0":188},"indices":189,"material":0}]}],"nodes":[{"mesh":0,"name":"Beam.049"},{"mesh":1,"name":"Beam.050"},{"mesh":2,"name":"Beam.051"},{"mesh":3,"name":"Beam.052"},{"mesh":4,"name":"Beam.053"},{"mesh":5,"name":"Beam.056"},{"mesh":6,"name":"Beam.057"},{"mesh":7,"name":"Beam.058"},{"mesh":8,"name":"Beam.059"},{"mesh":9,"name":"Bell.061"},{"mesh":10,"name":"Corner_Exterior_Wood.041","scale":[1,1.3333333730697632,1],"translation":[-6,0,0]},{"mesh":11,"name":"Corner_Exterior_Wood.042","scale":[1,1.3333333730697632,1],"translation":[6,0,0]},{"mesh":12,"name":"Corner_Exterior_Wood.043","scale":[1,1.3333333730697632,1],"translation":[-6,0,-10]},{"mesh":13,"name":"Corner_Exterior_Wood.044","scale":[1,1.3333333730697632,1],"translation":[6,0,-10]},{"mesh":14,"name":"CoteFloor.060"},{"mesh":15,"name":"CoteRoof.062"},{"mesh":16,"name":"CoteSpire.063"},{"mesh":17,"name":"Door_1_Round.008","scale":[1.0696429014205933,1.3333333730697632,1],"translation":[-1.1979997158050537,0,-0.019999999552965164]},{"mesh":17,"name":"Door_1_Round.009","rotation":[0,-1,0,4.371138828673793e-08],"scale":[1.0696429014205933,1.3333333730697632,1],"translation":[1.198000192642212,0,-0.019999999552965164]},{"mesh":18,"name":"DoorFrame_Round_WoodDark.007","scale":[1.996666669845581,1.3333333730697632,1]},{"mesh":19,"name":"LanternArm.065"},{"mesh":20,"name":"LanternArm.070"},{"mesh":21,"name":"LanternBase.069"},{"mesh":22,"name":"LanternBase.074"},{"mesh":23,"name":"LanternCap.067"},{"mesh":24,"name":"LanternCap.072"},{"mesh":25,"name":"LanternGlass.068"},{"mesh":26,"name":"LanternGlass.073"},{"mesh":27,"name":"LanternHook.066"},{"mesh":28,"name":"LanternHook.071"},{"mesh":29,"name":"PorchFloor.048"},{"mesh":30,"name":"Prop_Chimney2.064","translation":[-4,4.5225019454956055,-8.5]},{"mesh":31,"name":"Roof_Front_Brick4.055","scale":[1.350000023841858,1,1],"translation":[0,4.159999847412109,2.75]},{"mesh":32,"name":"Roof_Front_Brick8.046","scale":[1.5,1,1],"translation":[0,4.159999847412109,0.30000001192092896]},{"mesh":32,"name":"Roof_Front_Brick8.047","rotation":[0,-1,0,4.371138828673793e-08],"scale":[1.5,1,1],"translation":[0,4.159999847412109,-10.300000190734863]},{"mesh":33,"name":"Roof_RoundTiles_4x4.054","scale":[1.350000023841858,1,0.75],"translation":[0,4.159999847412109,1.25]},{"mesh":34,"name":"Roof_RoundTiles_8x10.045","scale":[1.5,1,1.059999942779541],"translation":[0,4.159999847412109,-5]},{"mesh":35,"name":"Wall_UnevenBrick_Door_Round.006","scale":[1.996666669845581,1.3333333730697632,1]},{"mesh":36,"name":"Wall_UnevenBrick_Straight.015","rotation":[0,-1,0,4.371138828673793e-08],"scale":[0.9983333349227905,1.3333333730697632,1],"translation":[4.991666316986084,0,-10]},{"mesh":36,"name":"Wall_UnevenBrick_Straight.026","rotation":[0,-1,0,4.371138828673793e-08],"scale":[0.9983333349227905,1.3333333730697632,1],"translation":[-4.991666793823242,0,-10]},{"mesh":36,"name":"Wall_UnevenBrick_Straight.027","rotation":[0,-0.7071068286895752,0,0.7071068286895752],"scale":[0.9980000257492065,1.3333333730697632,1],"translation":[-6,0,-8.991999626159668]},{"mesh":36,"name":"Wall_UnevenBrick_Straight.030","rotation":[0,-0.7071068286895752,0,0.7071068286895752],"scale":[0.9980000257492065,1.3333333730697632,1],"translation":[-6,0,-4.999999046325684]},{"mesh":36,"name":"Wall_UnevenBrick_Straight.033","rotation":[0,-0.7071068286895752,0,0.7071068286895752],"scale":[0.9980000257492065,1.3333333730697632,1],"translation":[-6,0,-1.0079988241195679]},{"mesh":36,"name":"Wall_UnevenBrick_Straight.034","rotation":[0,0.7071068286895752,0,0.7071068286895752],"scale":[0.9980000257492065,1.3333333730697632,1],"translation":[6,0,-1.0080000162124634]},{"mesh":36,"name":"Wall_UnevenBrick_Straight.037","rotation":[0,0.7071068286895752,0,0.7071068286895752],"scale":[0.9980000257492065,1.3333333730697632,1],"translation":[6,0,-5]},{"mesh":36,"name":"Wall_UnevenBrick_Straight.040","rotation":[0,0.7071068286895752,0,0.7071068286895752],"scale":[0.9980000257492065,1.3333333730697632,1],"translation":[6,0,-8.992000579833984]},{"mesh":37,"name":"Wall_UnevenBrick_Window_Thin_Round.001","scale":[0.9983333349227905,1.3333333730697632,1],"translation":[-4.991666316986084,0,0]},{"mesh":37,"name":"Wall_UnevenBrick_Window_Thin_Round.012","scale":[0.9983333349227905,1.3333333730697632,1],"translation":[4.991666793823242,0,0]},{"mesh":37,"name":"Wall_UnevenBrick_Window_Thin_Round.016","rotation":[0,-1,0,4.371138828673793e-08],"scale":[0.9983333349227905,1.3333333730697632,1],"translation":[2.994999885559082,0,-10]},{"mesh":37,"name":"Wall_UnevenBrick_Window_Thin_Round.023","rotation":[0,-1,0,4.371138828673793e-08],"scale":[0.9983333349227905,1.3333333730697632,1],"translation":[-2.9950003623962402,0,-10]},{"mesh":38,"name":"Wall_UnevenBrick_Window_Wide_Round.004","scale":[0.9983333349227905,1.3333333730697632,1],"translation":[-2.994999885559082,0,0]},{"mesh":38,"name":"Wall_UnevenBrick_Window_Wide_Round.010","scale":[0.9983333349227905,1.3333333730697632,1],"translation":[2.9950003623962402,0,0]},{"mesh":38,"name":"Wall_UnevenBrick_Window_Wide_Round.019","rotation":[0,-1,0,4.371138828673793e-08],"scale":[0.9983333349227905,1.3333333730697632,1],"translation":[0.9983330965042114,0,-10]},{"mesh":38,"name":"Wall_UnevenBrick_Window_Wide_Round.021","rotation":[0,-1,0,4.371138828673793e-08],"scale":[0.9983333349227905,1.3333333730697632,1],"translation":[-0.9983335733413696,0,-10]},{"mesh":38,"name":"Wall_UnevenBrick_Window_Wide_Round.028","rotation":[0,-0.7071068286895752,0,0.7071068286895752],"scale":[0.9980000257492065,1.3333333730697632,1],"translation":[-6,0,-6.995999336242676]},{"mesh":38,"name":"Wall_UnevenBrick_Window_Wide_Round.031","rotation":[0,-0.7071068286895752,0,0.7071068286895752],"scale":[0.9980000257492065,1.3333333730697632,1],"translation":[-6,0,-3.0039987564086914]},{"mesh":38,"name":"Wall_UnevenBrick_Window_Wide_Round.035","rotation":[0,0.7071068286895752,0,0.7071068286895752],"scale":[0.9980000257492065,1.3333333730697632,1],"translation":[6,0,-3.004000186920166]},{"mesh":38,"name":"Wall_UnevenBrick_Window_Wide_Round.038","rotation":[0,0.7071068286895752,0,0.7071068286895752],"scale":[0.9980000257492065,1.3333333730697632,1],"translation":[6,0,-6.996000289916992]},{"mesh":39,"name":"Window_Thin_Round1.002","scale":[0.9983333349227905,1.3333333730697632,1],"translation":[-4.991666316986084,0,0]},{"mesh":39,"name":"Window_Thin_Round1.013","scale":[0.9983333349227905,1.3333333730697632,1],"translation":[4.991666793823242,0,0]},{"mesh":39,"name":"Window_Thin_Round1.017","rotation":[0,-1,0,4.371138828673793e-08],"scale":[0.9983333349227905,1.3333333730697632,1],"translation":[2.994999885559082,0,-10]},{"mesh":39,"name":"Window_Thin_Round1.024","rotation":[0,-1,0,4.371138828673793e-08],"scale":[0.9983333349227905,1.3333333730697632,1],"translation":[-2.9950003623962402,0,-10]},{"mesh":40,"name":"Window_Wide_Round1.005","scale":[0.9983333349227905,1.3333333730697632,1],"translation":[-2.994999885559082,0,0]},{"mesh":40,"name":"Window_Wide_Round1.011","scale":[0.9983333349227905,1.3333333730697632,1],"translation":[2.9950003623962402,0,0]},{"mesh":40,"name":"Window_Wide_Round1.020","rotation":[0,-1,0,4.371138828673793e-08],"scale":[0.9983333349227905,1.3333333730697632,1],"translation":[0.9983330965042114,0,-10]},{"mesh":40,"name":"Window_Wide_Round1.022","rotation":[0,-1,0,4.371138828673793e-08],"scale":[0.9983333349227905,1.3333333730697632,1],"translation":[-0.9983335733413696,0,-10]},{"mesh":40,"name":"Window_Wide_Round1.029","rotation":[0,-0.7071068286895752,0,0.7071068286895752],"scale":[0.9980000257492065,1.3333333730697632,1],"translation":[-6,0,-6.995999336242676]},{"mesh":40,"name":"Window_Wide_Round1.032","rotation":[0,-0.7071068286895752,0,0.7071068286895752],"scale":[0.9980000257492065,1.3333333730697632,1],"translation":[-6,0,-3.0039987564086914]},{"mesh":40,"name":"Window_Wide_Round1.036","rotation":[0,0.7071068286895752,0,0.7071068286895752],"scale":[0.9980000257492065,1.3333333730697632,1],"translation":[6,0,-3.004000186920166]},{"mesh":40,"name":"Window_Wide_Round1.039","rotation":[0,0.7071068286895752,0,0.7071068286895752],"scale":[0.9980000257492065,1.3333333730697632,1],"translation":[6,0,-6.996000289916992]},{"mesh":41,"name":"WindowShutters_Thin_Round_Open.003","scale":[0.9983333349227905,1.3333333730697632,1],"translation":[-4.991666316986084,0,0]},{"mesh":41,"name":"WindowShutters_Thin_Round_Open.014","scale":[0.9983333349227905,1.3333333730697632,1],"translation":[4.991666793823242,0,0]},{"mesh":41,"name":"WindowShutters_Thin_Round_Open.018","rotation":[0,-1,0,4.371138828673793e-08],"scale":[0.9983333349227905,1.3333333730697632,1],"translation":[2.994999885559082,0,-10]},{"mesh":41,"name":"WindowShutters_Thin_Round_Open.025","rotation":[0,-1,0,4.371138828673793e-08],"scale":[0.9983333349227905,1.3333333730697632,1],"translation":[-2.9950003623962402,0,-10]}],"scene":0,"scenes":[{"name":"Scene","nodes":[0,1,2,3,4,5,6,7,8,9,10,11,12,13,14,15,16,17,18,19,20,21,22,23,24,25,26,27,28,29,30,31,32,33,34,35,36,37,38,39,40,41,42,43,44,45,46,47,48,49,50,51,52,53,54,55,56,57,58,59,60,61,62,63,64,65,66,67,68,69,70,71,72,73]}],"textures":[{"source":0},{"source":1},{"source":2},{"source":3},{"source":4},{"source":5}]}