{"accessors":[{"bufferView":0,"componentType":5126,"count":60,"type":"VEC3"},{"bufferView":1,"componentType":5126,"count":60,"max":[-0.6597089767456055,0.36000001430511475,0.7926219701766968],"min":[-1.1097090244293213,0,0.2730066180229187],"type":"VEC3"},{"bufferView":2,"componentType":5123,"count":72,"type":"SCALAR"},{"bufferView":3,"componentType":5126,"count":120,"type":"VEC3"},{"bufferView":4,"componentType":5126,"count":120,"max":[1.1097090244293213,0.9844677448272705,0.7616969347000122],"min":[-0.8760381937026978,0.012292683124542236,-0.7926219701766968],"type":"VEC3"},{"bufferView":5,"componentType":5123,"count":120,"type":"SCALAR"},{"bufferView":6,"componentType":5126,"count":112,"type":"VEC3"},{"bufferView":7,"componentType":5126,"count":112,"max":[0.5212908983230591,1.0715999603271484,0.6668142080307007],"min":[-0.9907088875770569,0.6683999300003052,-0.7011857032775879],"type":"VEC3"},{"bufferView":8,"componentType":5123,"count":144,"type":"SCALAR"}],"asset":{"generator":"Khronos glTF Blender I/O v5.2.40","version":"2.0"},"bufferViews":[{"buffer":0,"byteOffset":0,"byteLength":720,"target":34962},{"buffer":0,"byteOffset":720,"byteLength":720,"target":34962},{"buffer":0,"byteOffset":1440,"byteLength":144,"target":34963},{"buffer":0,"byteOffset":1584,"byteLength":1440,"target":34962},{"buffer":0,"byteOffset":3024,"byteLength":1440,"target":34962},{"buffer":0,"byteOffset":4464,"byteLength":240,"target":34963},{"buffer":0,"byteOffset":4704,"byteLength":1344,"target":34962},{"buffer":0,"byteOffset":6048,"byteLength":1344,"target":34962},{"buffer":0,"byteOffset":7392,"byteLength":288,"target":34963}],"buffers":[{"byteLength":7680,"uri":"mossy_rock.bin"}],"images":[],"materials":[{"doubleSided":true,"name":"Prop_Leaf","pbrMetallicRoughness":{"baseColorFactor":[0.07000000029802322,0.20000000298023224,0.03999999910593033,1],"metallicFactor":0,"roughnessFactor":0.8999999761581421}},{"doubleSided":true,"name":"Prop_Rock","pbrMetallicRoughness":{"baseColorFactor":[0.30000001192092896,0.30000001192092896,0.2800000011920929,1],"metallicFactor":0,"roughnessFactor":0.949999988079071}},{"doubleSided":true,"name":"Prop_Moss","pbrMetallicRoughness":{"baseColorFactor":[0.10000000149011612,0.23999999463558197,0.03999999910593033,1],"metallicFactor":0}}],"meshes":[{"name":"mossy_rock","primitives":[{"attributes":{"NORMAL":0,"POSITION":1},"indices":2,"material":0},{"attributes":{"NORMAL":3,"POSITION":4},"indices":5,"material":1},{"attributes":{"NORMAL":6,"POSITION":7},"indices":8,"material":2}]}],"nodes":[{"mesh":0,"name":"mossy_rock"}],"scene":0,"scenes":[{"name":"Scene","nodes":[0]}],"textures":[]}