{"accessors":[{"bufferView":0,"componentType":5126,"count":336,"max":[0.25859037041664124,0.43050000071525574,0.1683267205953598],"min":[-0.39140963554382324,0.15000000596046448,-0.3016732931137085],"type":"VEC3"},{"bufferView":1,"componentType":5126,"count":336,"type":"VEC3"},{"bufferView":2,"componentType":5126,"count":336,"type":"VEC2"},{"bufferView":3,"componentType":5123,"count":432,"type":"SCALAR"},{"bufferView":4,"componentType":5126,"count":594,"max":[0.3576114773750305,0.4083999991416931,0.3631373643875122],"min":[-0.3576115071773529,0,-0.36695703864097595],"type":"VEC3"},{"bufferView":5,"componentType":5126,"count":594,"type":"VEC3"},{"bufferView":6,"componentType":5126,"count":594,"type":"VEC2"},{"bufferView":7,"componentType":5123,"count":816,"type":"SCALAR"},{"bufferView":8,"componentType":5126,"count":220,"max":[0.39921215176582336,0.35100001096725464,0.4169570207595825],"min":[-0.39921215176582336,0.0949999988079071,-0.4169570207595825],"type":"VEC3"},{"bufferView":9,"componentType":5126,"count":220,"type":"VEC3"},{"bufferView":10,"componentType":5126,"count":220,"type":"VEC2"},{"bufferView":11,"componentType":5123,"count":324,"type":"SCALAR"}],"asset":{"generator":"Khronos glTF Blender I/O v5.2.40","version":"2.0"},"bufferViews":[{"buffer":0,"byteLength":4032,"byteOffset":0,"target":34962},{"buffer":0,"byteLength":4032,"byteOffset":4032,"target":34962},{"buffer":0,"byteLength":2688,"byteOffset":8064,"target":34962},{"buffer":0,"byteLength":864,"byteOffset":10752,"target":34963},{"buffer":0,"byteLength":7128,"byteOffset":11616,"target":34962},{"buffer":0,"byteLength":7128,"byteOffset":18744,"target":34962},{"buffer":0,"byteLength":4752,"byteOffset":25872,"target":34962},{"buffer":0,"byteLength":1632,"byteOffset":30624,"target":34963},{"buffer":0,"byteLength":2640,"byteOffset":32256,"target":34962},{"buffer":0,"byteLength":2640,"byteOffset":34896,"target":34962},{"buffer":0,"byteLength":1760,"byteOffset":37536,"target":34962},{"buffer":0,"byteLength":648,"byteOffset":39296,"target":34963}],"buffers":[{"byteLength":39944,"uri":"mushrooms.bin"}],"images":[],"materials":[{"doubleSided":true,"name":"Prop_CapRed","pbrMetallicRoughness":{"baseColorFactor":[0.6200000047683716,0.05999999865889549,0.029999999329447746,1],"metallicFactor":0,"roughnessFactor":0.6000000238418579}},{"doubleSided":true,"name":"Prop_FlowerWhite","pbrMetallicRoughness":{"baseColorFactor":[0.8500000238418579,0.8199999928474426,0.75,1],"metallicFactor":0,"roughnessFactor":0.699999988079071}},{"doubleSided":true,"name":"Prop_CapBrown","pbrMetallicRoughness":{"baseColorFactor":[0.4000000059604645,0.2199999988079071,0.09000000357627869,1],"metallicFactor":0,"roughnessFactor":0.800000011920929}}],"meshes":[{"name":"mushrooms","primitives":[{"attributes":{"NORMAL":1,"POSITION":0,"TEXCOORD_0":2},"indices":3,"material":0},{"attributes":{"NORMAL":5,"POSITION":4,"TEXCOORD_0":6},"indices":7,"material":1},{"attributes":{"NORMAL":9,"POSITION":8,"TEXCOORD_0":10},"indices":11,"material":2}]}],"nodes":[{"mesh":0,"name":"mushrooms"}],"scene":0,"scenes":[{"name":"Scene","nodes":[0]}],"textures":[]}
