{"accessors":[{"bufferView":0,"componentType":5126,"count":24,"max":[0.5981031060218811,10.501232147216797,-4.207736968994141],"min":[0.45810312032699585,9.351232528686523,-4.3477373123168945],"type":"VEC3"},{"bufferView":1,"componentType":5126,"count":24,"type":"VEC3"},{"bufferView":2,"componentType":5126,"count":24,"type":"VEC2"},{"bufferView":3,"componentType":5123,"count":36,"type":"SCALAR"},{"bufferView":4,"componentType":5126,"count":24,"max":[1.3449537754058838,10.501232147216797,-4.954587459564209],"min":[1.204953670501709,9.351232528686523,-5.094587802886963],"type":"VEC3"},{"bufferView":5,"componentType":5126,"count":24,"type":"VEC3"},{"bufferView":6,"componentType":5126,"count":24,"type":"VEC2"},{"bufferView":7,"componentType":5126,"count":24,"max":[1.3449537754058838,10.501232147216797,-6.010794162750244],"min":[1.204953670501709,9.351232528686523,-6.150794506072998],"type":"VEC3"},{"bufferView":8,"componentType":5126,"count":24,"type":"VEC3"},{"bufferView":9,"componentType":5126,"count":24,"type":"VEC2"},{"bufferView":10,"componentType":5126,"count":24,"max":[0.5981031060218811,10.501232147216797,-6.7576446533203125],"min":[0.45810312032699585,9.351232528686523,-6.897644996643066],"type":"VEC3"},{"bufferView":11,"componentType":5126,"count":24,"type":"VEC3"},{"bufferView":12,"componentType":5126,"count":24,"type":"VEC2"},{"bufferView":13,"componentType":5126,"count":24,"max":[-0.45810312032699585,10.501232147216797,-6.7576446533203125],"min":[-0.5981031060218811,9.351232528686523,-6.897644996643066],"type":"VEC3"},{"bufferView":14,"componentType":5126,"count":24,"type":"VEC3"},{"bufferView":15,"componentType":5126,"count":24,"type":"VEC2"},{"bufferView":16,"componentType":5126,"count":24,"max":[-1.204953670501709,10.501232147216797,-6.010794162750244],"min":[-1.3449537754058838,9.351232528686523,-6.150794506072998],"type":"VEC3"},{"bufferView":17,"componentType":5126,"count":24,"type":"VEC3"},{"bufferView":18,"componentType":5126,"count":24,"type":"VEC2"},{"bufferView":19,"componentType":5126,"count":24,"max":[-1.204953670501709,10.501232147216797,-4.954587459564209],"min":[-1.3449537754058838,9.351232528686523,-5.094587802886963],"type":"VEC3"},{"bufferView":20,"componentType":5126,"count":24,"type":"VEC3"},{"bufferView":21,"componentType":5126,"count":24,"type":"VEC2"},{"bufferView":22,"componentType":5126,"count":24,"max":[-0.45810312032699585,10.501232147216797,-4.207736968994141],"min":[-0.5981031060218811,9.351232528686523,-4.3477373123168945],"type":"VEC3"},{"bufferView":23,"componentType":5126,"count":24,"type":"VEC3"},{"bufferView":24,"componentType":5126,"count":24,"type":"VEC2"},{"bufferView":25,"componentType":5126,"count":24,"max":[0.10508709400892258,2.999999761581421,0.11982007324695587],"min":[-0.10508733242750168,-1.5052728485898115e-07,-0.11982005089521408],"type":"VEC3"},{"bufferView":26,"componentType":5126,"count":24,"type":"VEC3"},{"bufferView":27,"componentType":5126,"count":24,"type":"VEC2"},{"bufferView":28,"componentType":5123,"count":36,"type":"SCALAR"},{"bufferView":29,"componentType":5126,"count":40,"max":[1.4320132732391357,9.351232528686523,-4.120677471160889],"min":[-1.4320132732391357,9.05123233795166,-6.984704494476318],"type":"VEC3"},{"bufferView":30,"componentType":5126,"count":40,"type":"VEC3"},{"bufferView":31,"componentType":5126,"count":40,"type":"VEC2"},{"bufferView":32,"componentType":5123,"count":66,"type":"SCALAR"},{"bufferView":33,"componentType":5126,"count":40,"max":[1.2010433673858643,10.451231956481934,-4.35164737701416],"min":[-1.2010433673858643,9.351232528686523,-6.753734588623047],"type":"VEC3"},{"bufferView":34,"componentType":5126,"count":40,"type":"VEC3"},{"bufferView":35,"componentType":5126,"count":40,"type":"VEC2"},{"bufferView":36,"componentType":5126,"count":32,"max":[1.866236686706543,12.05123233795166,-3.6864542961120605],"min":[-1.866236686706543,10.379232406616211,-7.4189276695251465],"type":"VEC3"},{"bufferView":37,"componentType":5126,"count":32,"type":"VEC3"},{"bufferView":38,"componentType":5126,"count":32,"type":"VEC2"},{"bufferView":39,"componentType":5123,"count":48,"type":"SCALAR"},{"bufferView":40,"componentType":5126,"count":744,"max":[1.0737497806549072,2.3513262271881104,0.06314271688461304],"min":[-0.04626310616731644,0.033089637756347656,-0.05755755677819252],"type":"VEC3"},{"bufferView":41,"componentType":5126,"count":744,"type":"VEC3"},{"bufferView":42,"componentType":5126,"count":744,"type":"VEC2"},{"bufferView":43,"componentType":5123,"count":1362,"type":"SCALAR"},{"bufferView":44,"componentType":5126,"count":28,"max":[0.8667700886726379,1.7624019384384155,0.0312458835542202],"min":[0.1617247760295868,1.3117259740829468,0.031245503574609756],"type":"VEC3"},{"bufferView":45,"componentType":5126,"count":28,"type":"VEC3"},{"bufferView":46,"componentType":5126,"count":28,"type":"VEC2"},{"bufferView":47,"componentType":5123,"count":48,"type":"SCALAR"},{"bufferView":48,"componentType":5126,"count":664,"max":[1.0716030597686768,2.134512424468994,0.05755815654993057],"min":[-0.04626310616731644,0.0352252721786499,-0.05755755677819252],"type":"VEC3"},{"bufferView":49,"componentType":5126,"count":664,"type":"VEC3"},{"bufferView":50,"componentType":5126,"count":664,"type":"VEC2"},{"bufferView":51,"componentType":5123,"count":996,"type":"SCALAR"},{"bufferView":52,"componentType":5126,"count":601,"max":[1.0157819986343384,1.2524888515472412,0.0917586237192154],"min":[0.027867160737514496,0.07330965995788574,-0.10770562291145325],"type":"VEC3"},{"bufferView":53,"componentType":5126,"count":601,"type":"VEC3"},{"bufferView":54,"componentType":5126,"count":601,"type":"VEC2"},{"bufferView":55,"componentType":5123,"count":1962,"type":"SCALAR"},{"bufferView":56,"componentType":5126,"count":118,"max":[0.7877825498580933,2.3037145137786865,0.14516234397888184],"min":[-0.7862095236778259,-0.008544828742742538,-0.24328981339931488],"type":"VEC3"},{"bufferView":57,"componentType":5126,"count":118,"type":"VEC3"},{"bufferView":58,"componentType":5126,"count":118,"type":"VEC2"},{"bufferView":59,"componentType":5123,"count":168,"type":"SCALAR"},{"bufferView":60,"componentType":5126,"count":364,"max":[0.7034913897514343,2.5548486709594727,0.29893577098846436],"min":[-0.7034929394721985,-0.008544921875,-0.24002820253372192],"type":"VEC3"},{"bufferView":61,"componentType":5126,"count":364,"type":"VEC3"},{"bufferView":62,"componentType":5126,"count":364,"type":"VEC2"},{"bufferView":63,"componentType":5123,"count":960,"type":"SCALAR"},{"bufferView":64,"componentType":5126,"count":24,"max":[0.07999999821186066,12.951231956481934,-5.4834089279174805],"min":[-0.07999999821186066,11.851232528686523,-5.621973037719727],"type":"VEC3"},{"bufferView":65,"componentType":5126,"count":24,"type":"VEC3"},{"bufferView":66,"componentType":5126,"count":24,"type":"VEC2"},{"bufferView":67,"componentType":5123,"count":36,"type":"SCALAR"},{"bufferView":68,"componentType":5126,"count":32,"max":[0.1599999964237213,12.501232147216797,-5.392691135406494],"min":[-0.1599999964237213,12.251232147216797,-5.712690830230713],"type":"VEC3"},{"bufferView":69,"componentType":5126,"count":32,"type":"VEC3"},{"bufferView":70,"componentType":5126,"count":32,"type":"VEC2"},{"bufferView":71,"componentType":5123,"count":48,"type":"SCALAR"},{"bufferView":72,"componentType":5126,"count":32,"max":[5.6635565757751465,5.230000019073486,0.1108657568693161],"min":[-5.6635565757751465,4.829999923706055,-11.21624755859375],"type":"VEC3"},{"bufferView":73,"componentType":5126,"count":32,"type":"VEC3"},{"bufferView":74,"componentType":5126,"count":32,"type":"VEC2"},{"bufferView":75,"componentType":5123,"count":48,"type":"SCALAR"},{"bufferView":76,"componentType":5126,"count":24,"max":[-1.725000023841858,3.3299999237060547,0.5099999904632568],"min":[-1.774999976158142,3.2799999713897705,0.09000000357627869],"type":"VEC3"},{"bufferView":77,"componentType":5126,"count":24,"type":"VEC3"},{"bufferView":78,"componentType":5126,"count":24,"type":"VEC2"},{"bufferView":79,"componentType":5126,"count":24,"max":[1.774999976158142,3.3299999237060547,0.5099999904632568],"min":[1.725000023841858,3.2799999713897705,0.09000000357627869],"type":"VEC3"},{"bufferView":80,"componentType":5126,"count":24,"type":"VEC3"},{"bufferView":81,"componentType":5126,"count":24,"type":"VEC2"},{"bufferView":82,"componentType":5126,"count":24,"max":[-1.6299999952316284,2.819999933242798,0.5600000023841858],"min":[-1.8700000047683716,2.759999990463257,0.3199999928474426],"type":"VEC3"},{"bufferView":83,"componentType":5126,"count":24,"type":"VEC3"},{"bufferView":84,"componentType":5126,"count":24,"type":"VEC2"},{"bufferView":85,"componentType":5126,"count":24,"max":[1.8700000047683716,2.819999933242798,0.5600000023841858],"min":[1.6299999952316284,2.759999990463257,0.3199999928474426],"type":"VEC3"},{"bufferView":86,"componentType":5126,"count":24,"type":"VEC3"},{"bufferView":87,"componentType":5126,"count":24,"type":"VEC2"},{"bufferView":88,"componentType":5126,"count":24,"max":[-1.6100000143051147,3.200000047683716,0.5800000429153442],"min":[-1.8899999856948853,3.140000104904175,0.30000001192092896],"type":"VEC3"},{"bufferView":89,"componentType":5126,"count":24,"type":"VEC3"},{"bufferView":90,"componentType":5126,"count":24,"type":"VEC2"},{"bufferView":91,"componentType":5126,"count":24,"max":[1.8899999856948853,3.200000047683716,0.5800000429153442],"min":[1.6100000143051147,3.140000104904175,0.30000001192092896],"type":"VEC3"},{"bufferView":92,"componentType":5126,"count":24,"type":"VEC3"},{"bufferView":93,"componentType":5126,"count":24,"type":"VEC2"},{"bufferView":94,"componentType":5126,"count":24,"max":[-1.649999976158142,3.140000104904175,0.5399999618530273],"min":[-1.850000023841858,2.819999933242798,0.3400000035762787],"type":"VEC3"},{"bufferView":95,"componentType":5126,"count":24,"type":"VEC3"},{"bufferView":96,"componentType":5126,"count":24,"type":"VEC2"},{"bufferView":97,"componentType":5126,"count":24,"max":[1.850000023841858,3.140000104904175,0.5399999618530273],"min":[1.649999976158142,2.819999933242798,0.3400000035762787],"type":"VEC3"},{"bufferView":98,"componentType":5126,"count":24,"type":"VEC3"},{"bufferView":99,"componentType":5126,"count":24,"type":"VEC2"},{"bufferView":100,"componentType":5126,"count":24,"max":[-1.7350000143051147,3.2899999618530273,0.45000001788139343],"min":[-1.7649999856948853,3.200000047683716,0.42000001668930054],"type":"VEC3"},{"bufferView":101,"componentType":5126,"count":24,"type":"VEC3"},{"bufferView":102,"componentType":5126,"count":24,"type":"VEC2"},{"bufferView":103,"componentType":5126,"count":24,"max":[1.7649999856948853,3.2899999618530273,0.45000001788139343],"min":[1.7350000143051147,3.200000047683716,0.42000001668930054],"type":"VEC3"},{"bufferView":104,"componentType":5126,"count":24,"type":"VEC3"},{"bufferView":105,"componentType":5126,"count":24,"type":"VEC2"},{"bufferView":106,"componentType":5126,"count":40,"max":[5.968437194824219,0.5,0.4157460033893585],"min":[-5.968437194824219,0,-11.521127700805664],"type":"VEC3"},{"bufferView":107,"componentType":5126,"count":40,"type":"VEC3"},{"bufferView":108,"componentType":5126,"count":40,"type":"VEC2"},{"bufferView":109,"componentType":5126,"count":80,"max":[6.661346435546875,10.380000114440918,1.1086556911468506],"min":[-6.661346435546875,5,-12.214037895202637],"type":"VEC3"},{"bufferView":110,"componentType":5126,"count":80,"type":"VEC3"},{"bufferView":111,"componentType":5126,"count":80,"type":"VEC2"},{"bufferView":112,"componentType":5123,"count":144,"type":"SCALAR"},{"bufferView":113,"componentType":5126,"count":24,"max":[2,0.25,1.2000000476837158],"min":[-2,0,0],"type":"VEC3"},{"bufferView":114,"componentType":5126,"count":24,"type":"VEC3"},{"bufferView":115,"componentType":5126,"count":24,"type":"VEC2"},{"bufferView":116,"componentType":5126,"count":124,"max":[1,3.1226887702941895,0.0924467146396637],"min":[-1.0000001192092896,0.6495776176452637,-0.3140353262424469],"type":"VEC3"},{"bufferView":117,"componentType":5126,"count":124,"type":"VEC3"},{"bufferView":118,"componentType":5126,"count":124,"type":"VEC2"},{"bufferView":119,"componentType":5123,"count":204,"type":"SCALAR"},{"bufferView":120,"componentType":5126,"count":24,"max":[1,3,1.3113415775478643e-07],"min":[-1,0,-0.2000000923871994],"type":"VEC3"},{"bufferView":121,"componentType":5126,"count":24,"type":"VEC3"},{"bufferView":122,"componentType":5126,"count":24,"type":"VEC2"},{"bufferView":123,"componentType":5123,"count":60,"type":"SCALAR"},{"bufferView":124,"componentType":5126,"count":8,"max":[1,0.8799999952316284,4.371138828673793e-08],"min":[-1,0,0],"type":"VEC3"},{"bufferView":125,"componentType":5126,"count":8,"type":"VEC3"},{"bufferView":126,"componentType":5126,"count":8,"type":"VEC2"},{"bufferView":127,"componentType":5123,"count":12,"type":"SCALAR"},{"bufferView":128,"componentType":5126,"count":124,"max":[1,3.1226887702941895,0.0924467146396637],"min":[-1.0000001192092896,0.6495776176452637,-0.3140353262424469],"type":"VEC3"},{"bufferView":129,"componentType":5126,"count":124,"type":"VEC3"},{"bufferView":130,"componentType":5126,"count":124,"type":"VEC2"},{"bufferView":131,"componentType":5126,"count":69,"max":[1,3,1.3113417196564114e-07],"min":[-1,0,-0.2000000923871994],"type":"VEC3"},{"bufferView":132,"componentType":5126,"count":69,"type":"VEC3"},{"bufferView":133,"componentType":5126,"count":69,"type":"VEC2"},{"bufferView":134,"componentType":5123,"count":195,"type":"SCALAR"},{"bufferView":135,"componentType":5126,"count":8,"max":[1,0.9100615382194519,4.3711395392165286e-08],"min":[-1,0,0],"type":"VEC3"},{"bufferView":136,"componentType":5126,"count":8,"type":"VEC3"},{"bufferView":137,"componentType":5126,"count":8,"type":"VEC2"},{"bufferView":138,"componentType":5123,"count":12,"type":"SCALAR"},{"bufferView":139,"componentType":5126,"count":126,"max":[1,3.1226887702941895,0.0924467146396637],"min":[-1.0000001192092896,-0.0020958781242370605,-0.3140353262424469],"type":"VEC3"},{"bufferView":140,"componentType":5126,"count":126,"type":"VEC3"},{"bufferView":141,"componentType":5126,"count":126,"type":"VEC2"},{"bufferView":142,"componentType":5123,"count":240,"type":"SCALAR"},{"bufferView":143,"componentType":5126,"count":12,"max":[1,3,1.3113415775478643e-07],"min":[-1,0,-0.2000000923871994],"type":"VEC3"},{"bufferView":144,"componentType":5126,"count":12,"type":"VEC3"},{"bufferView":145,"componentType":5126,"count":12,"type":"VEC2"},{"bufferView":146,"componentType":5123,"count":18,"type":"SCALAR"},{"bufferView":147,"componentType":5126,"count":80,"max":[1,3.1226887702941895,0.0924467146396637],"min":[-1.0000001192092896,0.6495776176452637,-0.3140353262424469],"type":"VEC3"},{"bufferView":148,"componentType":5126,"count":80,"type":"VEC3"},{"bufferView":149,"componentType":5126,"count":80,"type":"VEC2"},{"bufferView":150,"componentType":5123,"count":174,"type":"SCALAR"},{"bufferView":151,"componentType":5126,"count":60,"max":[1,3,1.3113417196564114e-07],"min":[-1,0,-0.2000000923871994],"type":"VEC3"},{"bufferView":152,"componentType":5126,"count":60,"type":"VEC3"},{"bufferView":153,"componentType":5126,"count":60,"type":"VEC2"},{"bufferView":154,"componentType":5123,"count":180,"type":"SCALAR"},{"bufferView":155,"componentType":5126,"count":8,"max":[1,0.8799999952316284,4.371138828673793e-08],"min":[-1,0,0],"type":"VEC3"},{"bufferView":156,"componentType":5126,"count":8,"type":"VEC3"},{"bufferView":157,"componentType":5126,"count":8,"type":"VEC2"},{"bufferView":158,"componentType":5123,"count":18,"type":"SCALAR"},{"bufferView":159,"componentType":5126,"count":340,"max":[0.691490113735199,2.741780996322632,0.27729201316833496],"min":[-0.691490113735199,1.01604425907135,-0.2522830367088318],"type":"VEC3"},{"bufferView":160,"componentType":5126,"count":340,"type":"VEC3"},{"bufferView":161,"componentType":5126,"count":340,"type":"VEC2"},{"bufferView":162,"componentType":5123,"count":672,"type":"SCALAR"},{"bufferView":163,"componentType":5126,"count":63,"max":[0.5413169860839844,2.6192541122436523,0.0038883001543581486],"min":[-0.5445477962493896,1.0647618770599365,0.003887913655489683],"type":"VEC3"},{"bufferView":164,"componentType":5126,"count":63,"type":"VEC3"},{"bufferView":165,"componentType":5126,"count":63,"type":"VEC2"},{"bufferView":166,"componentType":5123,"count":123,"type":"SCALAR"}],"asset":{"generator":"Khronos glTF Blender I/O v5.2.40","version":"2.0"},"bufferViews":[{"buffer":0,"byteLength":288,"byteOffset":0,"target":34962},{"buffer":0,"byteLength":288,"byteOffset":288,"target":34962},{"buffer":0,"byteLength":192,"byteOffset":576,"target":34962},{"buffer":0,"byteLength":72,"byteOffset":768,"target":34963},{"buffer":0,"byteLength":288,"byteOffset":840,"target":34962},{"buffer":0,"byteLength":288,"byteOffset":1128,"target":34962},{"buffer":0,"byteLength":192,"byteOffset":1416,"target":34962},{"buffer":0,"byteLength":288,"byteOffset":1608,"target":34962},{"buffer":0,"byteLength":288,"byteOffset":1896,"target":34962},{"buffer":0,"byteLength":192,"byteOffset":2184,"target":34962},{"buffer":0,"byteLength":288,"byteOffset":2376,"target":34962},{"buffer":0,"byteLength":288,"byteOffset":2664,"target":34962},{"buffer":0,"byteLength":192,"byteOffset":2952,"target":34962},{"buffer":0,"byteLength":288,"byteOffset":3144,"target":34962},{"buffer":0,"byteLength":288,"byteOffset":3432,"target":34962},{"buffer":0,"byteLength":192,"byteOffset":3720,"target":34962},{"buffer":0,"byteLength":288,"byteOffset":3912,"target":34962},{"buffer":0,"byteLength":288,"byteOffset":4200,"target":34962},{"buffer":0,"byteLength":192,"byteOffset":4488,"target":34962},{"buffer":0,"byteLength":288,"byteOffset":4680,"target":34962},{"buffer":0,"byteLength":288,"byteOffset":4968,"target":34962},{"buffer":0,"byteLength":192,"byteOffset":5256,"target":34962},{"buffer":0,"byteLength":288,"byteOffset":5448,"target":34962},{"buffer":0,"byteLength":288,"byteOffset":5736,"target":34962},{"buffer":0,"byteLength":192,"byteOffset":6024,"target":34962},{"buffer":0,"byteLength":288,"byteOffset":6216,"target":34962},{"buffer":0,"byteLength":288,"byteOffset":6504,"target":34962},{"buffer":0,"byteLength":192,"byteOffset":6792,"target":34962},{"buffer":0,"byteLength":72,"byteOffset":6984,"target":34963},{"buffer":0,"byteLength":480,"byteOffset":7056,"target":34962},{"buffer":0,"byteLength":480,"byteOffset":7536,"target":34962},{"buffer":0,"byteLength":320,"byteOffset":8016,"target":34962},{"buffer":0,"byteLength":132,"byteOffset":8336,"target":34963},{"buffer":0,"byteLength":480,"byteOffset":8468,"target":34962},{"buffer":0,"byteLength":480,"byteOffset":8948,"target":34962},{"buffer":0,"byteLength":320,"byteOffset":9428,"target":34962},{"buffer":0,"byteLength":384,"byteOffset":9748,"target":34962},{"buffer":0,"byteLength":384,"byteOffset":10132,"target":34962},{"buffer":0,"byteLength":256,"byteOffset":10516,"target":34962},{"buffer":0,"byteLength":96,"byteOffset":10772,"target":34963},{"buffer":0,"byteLength":8928,"byteOffset":10868,"target":34962},{"buffer":0,"byteLength":8928,"byteOffset":19796,"target":34962},{"buffer":0,"byteLength":5952,"byteOffset":28724,"target":34962},{"buffer":0,"byteLength":2724,"byteOffset":34676,"target":34963},{"buffer":0,"byteLength":336,"byteOffset":37400,"target":34962},{"buffer":0,"byteLength":336,"byteOffset":37736,"target":34962},{"buffer":0,"byteLength":224,"byteOffset":38072,"target":34962},{"buffer":0,"byteLength":96,"byteOffset":38296,"target":34963},{"buffer":0,"byteLength":7968,"byteOffset":38392,"target":34962},{"buffer":0,"byteLength":7968,"byteOffset":46360,"target":34962},{"buffer":0,"byteLength":5312,"byteOffset":54328,"target":34962},{"buffer":0,"byteLength":1992,"byteOffset":59640,"target":34963},{"buffer":0,"byteLength":7212,"byteOffset":61632,"target":34962},{"buffer":0,"byteLength":7212,"byteOffset":68844,"target":34962},{"buffer":0,"byteLength":4808,"byteOffset":76056,"target":34962},{"buffer":0,"byteLength":3924,"byteOffset":80864,"target":34963},{"buffer":0,"byteLength":1416,"byteOffset":84788,"target":34962},{"buffer":0,"byteLength":1416,"byteOffset":86204,"target":34962},{"buffer":0,"byteLength":944,"byteOffset":87620,"target":34962},{"buffer":0,"byteLength":336,"byteOffset":88564,"target":34963},{"buffer":0,"byteLength":4368,"byteOffset":88900,"target":34962},{"buffer":0,"byteLength":4368,"byteOffset":93268,"target":34962},{"buffer":0,"byteLength":2912,"byteOffset":97636,"target":34962},{"buffer":0,"byteLength":1920,"byteOffset":100548,"target":34963},{"buffer":0,"byteLength":288,"byteOffset":102468,"target":34962},{"buffer":0,"byteLength":288,"byteOffset":102756,"target":34962},{"buffer":0,"byteLength":192,"byteOffset":103044,"target":34962},{"buffer":0,"byteLength":72,"byteOffset":103236,"target":34963},{"buffer":0,"byteLength":384,"byteOffset":103308,"target":34962},{"buffer":0,"byteLength":384,"byteOffset":103692,"target":34962},{"buffer":0,"byteLength":256,"byteOffset":104076,"target":34962},{"buffer":0,"byteLength":96,"byteOffset":104332,"target":34963},{"buffer":0,"byteLength":384,"byteOffset":104428,"target":34962},{"buffer":0,"byteLength":384,"byteOffset":104812,"target":34962},{"buffer":0,"byteLength":256,"byteOffset":105196,"target":34962},{"buffer":0,"byteLength":96,"byteOffset":105452,"target":34963},{"buffer":0,"byteLength":288,"byteOffset":105548,"target":34962},{"buffer":0,"byteLength":288,"byteOffset":105836,"target":34962},{"buffer":0,"byteLength":192,"byteOffset":106124,"target":34962},{"buffer":0,"byteLength":288,"byteOffset":106316,"target":34962},{"buffer":0,"byteLength":288,"byteOffset":106604,"target":34962},{"buffer":0,"byteLength":192,"byteOffset":106892,"target":34962},{"buffer":0,"byteLength":288,"byteOffset":107084,"target":34962},{"buffer":0,"byteLength":288,"byteOffset":107372,"target":34962},{"buffer":0,"byteLength":192,"byteOffset":107660,"target":34962},{"buffer":0,"byteLength":288,"byteOffset":107852,"target":34962},{"buffer":0,"byteLength":288,"byteOffset":108140,"target":34962},{"buffer":0,"byteLength":192,"byteOffset":108428,"target":34962},{"buffer":0,"byteLength":288,"byteOffset":108620,"target":34962},{"buffer":0,"byteLength":288,"byteOffset":108908,"target":34962},{"buffer":0,"byteLength":192,"byteOffset":109196,"target":34962},{"buffer":0,"byteLength":288,"byteOffset":109388,"target":34962},{"buffer":0,"byteLength":288,"byteOffset":109676,"target":34962},{"buffer":0,"byteLength":192,"byteOffset":109964,"target":34962},{"buffer":0,"byteLength":288,"byteOffset":110156,"target":34962},{"buffer":0,"byteLength":288,"byteOffset":110444,"target":34962},{"buffer":0,"byteLength":192,"byteOffset":110732,"target":34962},{"buffer":0,"byteLength":288,"byteOffset":110924,"target":34962},{"buffer":0,"byteLength":288,"byteOffset":111212,"target":34962},{"buffer":0,"byteLength":192,"byteOffset":111500,"target":34962},{"buffer":0,"byteLength":288,"byteOffset":111692,"target":34962},{"buffer":0,"byteLength":288,"byteOffset":111980,"target":34962},{"buffer":0,"byteLength":192,"byteOffset":112268,"target":34962},{"buffer":0,"byteLength":288,"byteOffset":112460,"target":34962},{"buffer":0,"byteLength":288,"byteOffset":112748,"target":34962},{"buffer":0,"byteLength":192,"byteOffset":113036,"target":34962},{"buffer":0,"byteLength":480,"byteOffset":113228,"target":34962},{"buffer":0,"byteLength":480,"byteOffset":113708,"target":34962},{"buffer":0,"byteLength":320,"byteOffset":114188,"target":34962},{"buffer":0,"byteLength":960,"byteOffset":114508,"target":34962},{"buffer":0,"byteLength":960,"byteOffset":115468,"target":34962},{"buffer":0,"byteLength":640,"byteOffset":116428,"target":34962},{"buffer":0,"byteLength":288,"byteOffset":117068,"target":34963},{"buffer":0,"byteLength":288,"byteOffset":117356,"target":34962},{"buffer":0,"byteLength":288,"byteOffset":117644,"target":34962},{"buffer":0,"byteLength":192,"byteOffset":117932,"target":34962},{"buffer":0,"byteLength":1488,"byteOffset":118124,"target":34962},{"buffer":0,"byteLength":1488,"byteOffset":119612,"target":34962},{"buffer":0,"byteLength":992,"byteOffset":121100,"target":34962},{"buffer":0,"byteLength":408,"byteOffset":122092,"target":34963},{"buffer":0,"byteLength":288,"byteOffset":122500,"target":34962},{"buffer":0,"byteLength":288,"byteOffset":122788,"target":34962},{"buffer":0,"byteLength":192,"byteOffset":123076,"target":34962},{"buffer":0,"byteLength":120,"byteOffset":123268,"target":34963},{"buffer":0,"byteLength":96,"byteOffset":123388,"target":34962},{"buffer":0,"byteLength":96,"byteOffset":123484,"target":34962},{"buffer":0,"byteLength":64,"byteOffset":123580,"target":34962},{"buffer":0,"byteLength":24,"byteOffset":123644,"target":34963},{"buffer":0,"byteLength":1488,"byteOffset":123668,"target":34962},{"buffer":0,"byteLength":1488,"byteOffset":125156,"target":34962},{"buffer":0,"byteLength":992,"byteOffset":126644,"target":34962},{"buffer":0,"byteLength":828,"byteOffset":127636,"target":34962},{"buffer":0,"byteLength":828,"byteOffset":128464,"target":34962},{"buffer":0,"byteLength":552,"byteOffset":129292,"target":34962},{"buffer":0,"byteLength":390,"byteOffset":129844,"target":34963},{"buffer":0,"byteLength":96,"byteOffset":130236,"target":34962},{"buffer":0,"byteLength":96,"byteOffset":130332,"target":34962},{"buffer":0,"byteLength":64,"byteOffset":130428,"target":34962},{"buffer":0,"byteLength":24,"byteOffset":130492,"target":34963},{"buffer":0,"byteLength":1512,"byteOffset":130516,"target":34962},{"buffer":0,"byteLength":1512,"byteOffset":132028,"target":34962},{"buffer":0,"byteLength":1008,"byteOffset":133540,"target":34962},{"buffer":0,"byteLength":480,"byteOffset":134548,"target":34963},{"buffer":0,"byteLength":144,"byteOffset":135028,"target":34962},{"buffer":0,"byteLength":144,"byteOffset":135172,"target":34962},{"buffer":0,"byteLength":96,"byteOffset":135316,"target":34962},{"buffer":0,"byteLength":36,"byteOffset":135412,"target":34963},{"buffer":0,"byteLength":960,"byteOffset":135448,"target":34962},{"buffer":0,"byteLength":960,"byteOffset":136408,"target":34962},{"buffer":0,"byteLength":640,"byteOffset":137368,"target":34962},{"buffer":0,"byteLength":348,"byteOffset":138008,"target":34963},{"buffer":0,"byteLength":720,"byteOffset":138356,"target":34962},{"buffer":0,"byteLength":720,"byteOffset":139076,"target":34962},{"buffer":0,"byteLength":480,"byteOffset":139796,"target":34962},{"buffer":0,"byteLength":360,"byteOffset":140276,"target":34963},{"buffer":0,"byteLength":96,"byteOffset":140636,"target":34962},{"buffer":0,"byteLength":96,"byteOffset":140732,"target":34962},{"buffer":0,"byteLength":64,"byteOffset":140828,"target":34962},{"buffer":0,"byteLength":36,"byteOffset":140892,"target":34963},{"buffer":0,"byteLength":4080,"byteOffset":140928,"target":34962},{"buffer":0,"byteLength":4080,"byteOffset":145008,"target":34962},{"buffer":0,"byteLength":2720,"byteOffset":149088,"target":34962},{"buffer":0,"byteLength":1344,"byteOffset":151808,"target":34963},{"buffer":0,"byteLength":756,"byteOffset":153152,"target":34962},{"buffer":0,"byteLength":756,"byteOffset":153908,"target":34962},{"buffer":0,"byteLength":504,"byteOffset":154664,"target":34962},{"buffer":0,"byteLength":246,"byteOffset":155168,"target":34963}],"buffers":[{"byteLength":155416,"uri":"music_hall.bin"}],"images":[{"name":"T_Brick_BaseColor","uri":"../village/T_Brick_BaseColor.png"},{"name":"T_MetalOrnaments_BaseColor","uri":"../village/T_MetalOrnaments_BaseColor.png"},{"name":"T_Plaster_Luma","uri":"../village/T_Plaster_Luma.png"},{"name":"T_RockTrim_BaseColor","uri":"../village/T_RockTrim_BaseColor.png"},{"name":"T_RoundTiles_Luma","uri":"../village/T_RoundTiles_Luma.png"},{"name":"T_WoodTrim_BaseColor","uri":"../village/T_WoodTrim_BaseColor.png"}],"materials":[{"doubleSided":true,"name":"Wood_dark","pbrMetallicRoughness":{"baseColorFactor":[0.2329,0.2659,0.2944,1.0],"baseColorTexture":{"index":5},"metallicFactor":0,"roughnessFactor":0.8500000238418579}},{"doubleSided":true,"emissiveFactor":[1,0.4479884207248688,0.10048151016235352],"name":"LampGlass","pbrMetallicRoughness":{"baseColorFactor":[1,0.5704815983772278,0.1473190039396286,1],"metallicFactor":0,"roughnessFactor":0.8500000238418579}},{"doubleSided":true,"name":"Tiles_teal","pbrMetallicRoughness":{"baseColorFactor":[0.0913,0.2964,0.2915,1.0],"baseColorTexture":{"index":4},"metallicFactor":0,"roughnessFactor":0.699999988079071}},{"doubleSided":true,"name":"Glass","pbrMetallicRoughness":{"baseColorFactor":[0.03310476616024971,0.05087608844041824,0.07828831672668457,1],"metallicFactor":0,"roughnessFactor":0.20000000298023224}},{"doubleSided":true,"name":"Metal","pbrMetallicRoughness":{"baseColorFactor":[1.0,0.9972,0.9945,1.0],"baseColorTexture":{"index":1},"metallicFactor":0,"roughnessFactor":0.5}},{"doubleSided":true,"name":"Iron","pbrMetallicRoughness":{"baseColorFactor":[0.0134117491543293,0.0134117491543293,0.015325203537940979,1],"metallicFactor":0,"roughnessFactor":0.5}},{"doubleSided":true,"name":"SignPaint","pbrMetallicRoughness":{"baseColorFactor":[0.6038273572921753,0.34239163994789124,0.03310476616024971,1],"metallicFactor":0,"roughnessFactor":0.6000000238418579}},{"doubleSided":true,"name":"RockTrim","pbrMetallicRoughness":{"baseColorFactor":[1.0,0.9979,1.0,1.0],"baseColorTexture":{"index":3},"metallicFactor":0,"roughnessFactor":0.8500000238418579}},{"doubleSided":true,"name":"Plaster_white","pbrMetallicRoughness":{"baseColorFactor":[1.0,1.0,0.9092,1.0],"baseColorTexture":{"index":2},"metallicFactor":0,"roughnessFactor":0.8500000238418579}},{"doubleSided":true,"name":"Brick","pbrMetallicRoughness":{"baseColorFactor":[1.0,0.9974,1.0,1.0],"baseColorTexture":{"index":0},"metallicFactor":0,"roughnessFactor":0.8500000238418579}}],"meshes":[{"name":"Beam","primitives":[{"attributes":{"NORMAL":1,"POSITION":0,"TEXCOORD_0":2},"indices":3,"material":0}]},{"name":"Beam.001","primitives":[{"attributes":{"NORMAL":5,"POSITION":4,"TEXCOORD_0":6},"indices":3,"material":0}]},{"name":"Beam.002","primitives":[{"attributes":{"NORMAL":8,"POSITION":7,"TEXCOORD_0":9},"indices":3,"material":0}]},{"name":"Beam.003","primitives":[{"attributes":{"NORMAL":11,"POSITION":10,"TEXCOORD_0":12},"indices":3,"material":0}]},{"name":"Beam.004","primitives":[{"attributes":{"NORMAL":14,"POSITION":13,"TEXCOORD_0":15},"indices":3,"material":0}]},{"name":"Beam.005","primitives":[{"attributes":{"NORMAL":17,"POSITION":16,"TEXCOORD_0":18},"indices":3,"material":0}]},{"name":"Beam.006","primitives":[{"attributes":{"NORMAL":20,"POSITION":19,"TEXCOORD_0":21},"indices":3,"material":0}]},{"name":"Beam.007","primitives":[{"attributes":{"NORMAL":23,"POSITION":22,"TEXCOORD_0":24},"indices":3,"material":0}]},{"name":"kit_Corner_Exterior_Wood","primitives":[{"attributes":{"NORMAL":26,"POSITION":25,"TEXCOORD_0":27},"indices":28,"material":0}]},{"name":"CupolaBase","primitives":[{"attributes":{"NORMAL":30,"POSITION":29,"TEXCOORD_0":31},"indices":32,"material":0}]},{"name":"CupolaGlass","primitives":[{"attributes":{"NORMAL":34,"POSITION":33,"TEXCOORD_0":35},"indices":32,"material":1}]},{"name":"CupolaRoof","primitives":[{"attributes":{"NORMAL":37,"POSITION":36,"TEXCOORD_0":38},"indices":39,"material":2}]},{"name":"kit_Door_1_Round","primitives":[{"attributes":{"NORMAL":41,"POSITION":40,"TEXCOORD_0":42},"indices":43,"material":0},{"attributes":{"NORMAL":45,"POSITION":44,"TEXCOORD_0":46},"indices":47,"material":3}]},{"name":"kit_Door_8_Flat","primitives":[{"attributes":{"NORMAL":49,"POSITION":48,"TEXCOORD_0":50},"indices":51,"material":0},{"attributes":{"NORMAL":53,"POSITION":52,"TEXCOORD_0":54},"indices":55,"material":4}]},{"name":"kit_DoorFrame_Flat_WoodDark","primitives":[{"attributes":{"NORMAL":57,"POSITION":56,"TEXCOORD_0":58},"indices":59,"material":0}]},{"name":"kit_DoorFrame_Round_WoodDark","primitives":[{"attributes":{"NORMAL":61,"POSITION":60,"TEXCOORD_0":62},"indices":63,"material":0}]},{"name":"Finial","primitives":[{"attributes":{"NORMAL":65,"POSITION":64,"TEXCOORD_0":66},"indices":67,"material":5}]},{"name":"FinialBall","primitives":[{"attributes":{"NORMAL":69,"POSITION":68,"TEXCOORD_0":70},"indices":71,"material":6}]},{"name":"Frieze","primitives":[{"attributes":{"NORMAL":73,"POSITION":72,"TEXCOORD_0":74},"indices":75,"material":0}]},{"name":"LanternArm","primitives":[{"attributes":{"NORMAL":77,"POSITION":76,"TEXCOORD_0":78},"indices":3,"material":5}]},{"name":"LanternArm.001","primitives":[{"attributes":{"NORMAL":80,"POSITION":79,"TEXCOORD_0":81},"indices":3,"material":5}]},{"name":"LanternBase","primitives":[{"attributes":{"NORMAL":83,"POSITION":82,"TEXCOORD_0":84},"indices":3,"material":5}]},{"name":"LanternBase.001","primitives":[{"attributes":{"NORMAL":86,"POSITION":85,"TEXCOORD_0":87},"indices":3,"material":5}]},{"name":"LanternCap","primitives":[{"attributes":{"NORMAL":89,"POSITION":88,"TEXCOORD_0":90},"indices":3,"material":5}]},{"name":"LanternCap.001","primitives":[{"attributes":{"NORMAL":92,"POSITION":91,"TEXCOORD_0":93},"indices":3,"material":5}]},{"name":"LanternGlass","primitives":[{"attributes":{"NORMAL":95,"POSITION":94,"TEXCOORD_0":96},"indices":3,"material":1}]},{"name":"LanternGlass.001","primitives":[{"attributes":{"NORMAL":98,"POSITION":97,"TEXCOORD_0":99},"indices":3,"material":1}]},{"name":"LanternHook","primitives":[{"attributes":{"NORMAL":101,"POSITION":100,"TEXCOORD_0":102},"indices":3,"material":5}]},{"name":"LanternHook.001","primitives":[{"attributes":{"NORMAL":104,"POSITION":103,"TEXCOORD_0":105},"indices":3,"material":5}]},{"name":"Plinth","primitives":[{"attributes":{"NORMAL":107,"POSITION":106,"TEXCOORD_0":108},"indices":32,"material":7}]},{"name":"Roof","primitives":[{"attributes":{"NORMAL":110,"POSITION":109,"TEXCOORD_0":111},"indices":112,"material":2}]},{"name":"Step","primitives":[{"attributes":{"NORMAL":114,"POSITION":113,"TEXCOORD_0":115},"indices":3,"material":7}]},{"name":"kit_Wall_Plaster_Door_Flat","primitives":[{"attributes":{"NORMAL":117,"POSITION":116,"TEXCOORD_0":118},"indices":119,"material":0},{"attributes":{"NORMAL":121,"POSITION":120,"TEXCOORD_0":122},"indices":123,"material":8},{"attributes":{"NORMAL":125,"POSITION":124,"TEXCOORD_0":126},"indices":127,"material":7}]},{"name":"kit_Wall_Plaster_Door_Round","primitives":[{"attributes":{"NORMAL":129,"POSITION":128,"TEXCOORD_0":130},"indices":119,"material":0},{"attributes":{"NORMAL":132,"POSITION":131,"TEXCOORD_0":133},"indices":134,"material":8},{"attributes":{"NORMAL":136,"POSITION":135,"TEXCOORD_0":137},"indices":138,"material":7}]},{"name":"kit_Wall_Plaster_Straight","primitives":[{"attributes":{"NORMAL":140,"POSITION":139,"TEXCOORD_0":141},"indices":142,"material":0},{"attributes":{"NORMAL":144,"POSITION":143,"TEXCOORD_0":145},"indices":146,"material":8}]},{"name":"kit_Wall_Plaster_Window_Wide_Round","primitives":[{"attributes":{"NORMAL":148,"POSITION":147,"TEXCOORD_0":149},"indices":150,"material":0},{"attributes":{"NORMAL":152,"POSITION":151,"TEXCOORD_0":153},"indices":154,"material":8},{"attributes":{"NORMAL":156,"POSITION":155,"TEXCOORD_0":157},"indices":158,"material":9}]},{"name":"kit_Window_Wide_Round1.001","primitives":[{"attributes":{"NORMAL":160,"POSITION":159,"TEXCOORD_0":161},"indices":162,"material":0},{"attributes":{"NORMAL":164,"POSITION":163,"TEXCOORD_0":165},"indices":166,"material":3}]}],"nodes":[{"mesh":0,"name":"Beam.047"},{"mesh":1,"name":"Beam.048"},{"mesh":2,"name":"Beam.049"},{"mesh":3,"name":"Beam.050"},{"mesh":4,"name":"Beam.051"},{"mesh":5,"name":"Beam.052"},{"mesh":6,"name":"Beam.053"},{"mesh":7,"name":"Beam.054"},{"mesh":8,"name":"Corner_Exterior_Wood.035","scale":[1,1.5,1],"translation":[-2.299999952316284,0.5,0]},{"mesh":8,"name":"Corner_Exterior_Wood.036","scale":[1,1.5,1],"translation":[2.299999952316284,0.5,0]},{"mesh":8,"name":"Corner_Exterior_Wood.037","scale":[1,1.5,1],"translation":[5.5526909828186035,0.5,-3.2526910305023193]},{"mesh":8,"name":"Corner_Exterior_Wood.038","scale":[1,1.5,1],"translation":[5.5526909828186035,0.5,-7.852690696716309]},{"mesh":8,"name":"Corner_Exterior_Wood.039","scale":[1,1.5,1],"translation":[2.299999952316284,0.5,-11.105381965637207]},{"mesh":8,"name":"Corner_Exterior_Wood.040","scale":[1,1.5,1],"translation":[-2.299999952316284,0.5,-11.105381965637207]},{"mesh":8,"name":"Corner_Exterior_Wood.041","scale":[1,1.5,1],"translation":[-5.5526909828186035,0.5,-7.852690696716309]},{"mesh":8,"name":"Corner_Exterior_Wood.042","scale":[1,1.5,1],"translation":[-5.5526909828186035,0.5,-3.2526910305023193]},{"mesh":9,"name":"CupolaBase.045"},{"mesh":10,"name":"CupolaGlass.046"},{"mesh":11,"name":"CupolaRoof.055"},{"mesh":12,"name":"Door_1_Round.005","scale":[1.2321428060531616,1.5,1],"translation":[-1.3799999952316284,0.5,-0.019999999552965164]},{"mesh":12,"name":"Door_1_Round.006","rotation":[0,-1,0,4.371138828673793e-08],"scale":[1.2321428060531616,1.5,1],"translation":[1.3799999952316284,0.5,-0.019999999552965164]},{"mesh":13,"name":"Door_8_Flat.022","rotation":[0,-1,0,4.371138828673793e-08],"scale":[1.149999976158142,1.5,1],"translation":[-0.5174999833106995,0.5,-11.085381507873535]},{"mesh":14,"name":"DoorFrame_Flat_WoodDark.021","rotation":[0,-1,0,4.371138828673793e-08],"scale":[1.149999976158142,1.5,1],"translation":[-1.149999976158142,0.5,-11.105381965637207]},{"mesh":15,"name":"DoorFrame_Round_WoodDark.004","scale":[2.299999952316284,1.5,1],"translation":[0,0.5,0]},{"mesh":16,"name":"Finial.056"},{"mesh":17,"name":"FinialBall.057"},{"mesh":18,"name":"Frieze.043"},{"mesh":19,"name":"LanternArm.058"},{"mesh":20,"name":"LanternArm.063"},{"mesh":21,"name":"LanternBase.062"},{"mesh":22,"name":"LanternBase.067"},{"mesh":23,"name":"LanternCap.060"},{"mesh":24,"name":"LanternCap.065"},{"mesh":25,"name":"LanternGlass.061"},{"mesh":26,"name":"LanternGlass.066"},{"mesh":27,"name":"LanternHook.059"},{"mesh":28,"name":"LanternHook.064"},{"mesh":29,"name":"Plinth.001"},{"mesh":30,"name":"Roof.044"},{"mesh":31,"name":"Step.002"},{"mesh":32,"name":"Wall_Plaster_Door_Flat.020","rotation":[0,-1,0,4.371138828673793e-08],"scale":[1.149999976158142,1.5,1],"translation":[-1.149999976158142,0.5,-11.105381965637207]},{"mesh":33,"name":"Wall_Plaster_Door_Round.003","scale":[2.299999952316284,1.5,1],"translation":[0,0.5,0]},{"mesh":34,"name":"Wall_Plaster_Straight.019","rotation":[0,-1,0,4.371138828673793e-08],"scale":[1.149999976158142,1.5,1],"translation":[1.149999976158142,0.5,-11.105381965637207]},{"mesh":35,"name":"Wall_Plaster_Window_Wide_Round.007","rotation":[0,0.3826834559440613,0,0.9238795638084412],"scale":[1.149999976158142,1.5,1],"translation":[3.113172769546509,0.5,-0.8131727576255798]},{"mesh":35,"name":"Wall_Plaster_Window_Wide_Round.009","rotation":[0,0.3826834559440613,0,0.9238795638084412],"scale":[1.149999976158142,1.5,1],"translation":[4.739518165588379,0.5,-2.4395182132720947]},{"mesh":35,"name":"Wall_Plaster_Window_Wide_Round.011","rotation":[0,0.7071068286895752,0,0.7071068286895752],"scale":[1.149999976158142,1.5,1],"translation":[5.5526909828186035,0.5,-4.402690887451172]},{"mesh":35,"name":"Wall_Plaster_Window_Wide_Round.013","rotation":[0,0.7071068286895752,0,0.7071068286895752],"scale":[1.149999976158142,1.5,1],"translation":[5.5526909828186035,0.5,-6.702691078186035]},{"mesh":35,"name":"Wall_Plaster_Window_Wide_Round.015","rotation":[0,0.9238795638084412,0,0.3826834559440613],"scale":[1.149999976158142,1.5,1],"translation":[4.739518165588379,0.5,-8.665863037109375]},{"mesh":35,"name":"Wall_Plaster_Window_Wide_Round.017","rotation":[0,0.9238795638084412,0,0.3826834559440613],"scale":[1.149999976158142,1.5,1],"translation":[3.1131725311279297,0.5,-10.292208671569824]},{"mesh":35,"name":"Wall_Plaster_Window_Wide_Round.023","rotation":[0,-0.9238795638084412,0,0.3826833963394165],"scale":[1.149999976158142,1.5,1],"translation":[-3.113172769546509,0.5,-10.29220962524414]},{"mesh":35,"name":"Wall_Plaster_Window_Wide_Round.025","rotation":[0,-0.9238795638084412,0,0.3826833963394165],"scale":[1.149999976158142,1.5,1],"translation":[-4.739518165588379,0.5,-8.665863990783691]},{"mesh":35,"name":"Wall_Plaster_Window_Wide_Round.027","rotation":[0,-0.7071068286895752,0,0.7071068286895752],"scale":[1.149999976158142,1.5,1],"translation":[-5.5526909828186035,0.5,-6.702690601348877]},{"mesh":35,"name":"Wall_Plaster_Window_Wide_Round.029","rotation":[0,-0.7071068286895752,0,0.7071068286895752],"scale":[1.149999976158142,1.5,1],"translation":[-5.5526909828186035,0.5,-4.402690410614014]},{"mesh":35,"name":"Wall_Plaster_Window_Wide_Round.031","rotation":[0,-0.38268348574638367,0,0.9238795042037964],"scale":[1.149999976158142,1.5,1],"translation":[-4.739518165588379,0.5,-2.4395182132720947]},{"mesh":35,"name":"Wall_Plaster_Window_Wide_Round.033","rotation":[0,-0.38268348574638367,0,0.9238795042037964],"scale":[1.149999976158142,1.5,1],"translation":[-3.1131725311279297,0.5,-0.8131727576255798]},{"mesh":36,"name":"Window_Wide_Round1.008","rotation":[0,0.3826834559440613,0,0.9238795638084412],"scale":[1.149999976158142,1.5,1],"translation":[3.113172769546509,0.5,-0.8131727576255798]},{"mesh":36,"name":"Window_Wide_Round1.010","rotation":[0,0.3826834559440613,0,0.9238795638084412],"scale":[1.149999976158142,1.5,1],"translation":[4.739518165588379,0.5,-2.4395182132720947]},{"mesh":36,"name":"Window_Wide_Round1.012","rotation":[0,0.7071068286895752,0,0.7071068286895752],"scale":[1.149999976158142,1.5,1],"translation":[5.5526909828186035,0.5,-4.402690887451172]},{"mesh":36,"name":"Window_Wide_Round1.014","rotation":[0,0.7071068286895752,0,0.7071068286895752],"scale":[1.149999976158142,1.5,1],"translation":[5.5526909828186035,0.5,-6.702691078186035]},{"mesh":36,"name":"Window_Wide_Round1.016","rotation":[0,0.9238795638084412,0,0.3826834559440613],"scale":[1.149999976158142,1.5,1],"translation":[4.739518165588379,0.5,-8.665863037109375]},{"mesh":36,"name":"Window_Wide_Round1.018","rotation":[0,0.9238795638084412,0,0.3826834559440613],"scale":[1.149999976158142,1.5,1],"translation":[3.1131725311279297,0.5,-10.292208671569824]},{"mesh":36,"name":"Window_Wide_Round1.024","rotation":[0,-0.9238795638084412,0,0.3826833963394165],"scale":[1.149999976158142,1.5,1],"translation":[-3.113172769546509,0.5,-10.29220962524414]},{"mesh":36,"name":"Window_Wide_Round1.026","rotation":[0,-0.9238795638084412,0,0.3826833963394165],"scale":[1.149999976158142,1.5,1],"translation":[-4.739518165588379,0.5,-8.665863990783691]},{"mesh":36,"name":"Window_Wide_Round1.028","rotation":[0,-0.7071068286895752,0,0.7071068286895752],"scale":[1.149999976158142,1.5,1],"translation":[-5.5526909828186035,0.5,-6.702690601348877]},{"mesh":36,"name":"Window_Wide_Round1.030","rotation":[0,-0.7071068286895752,0,0.7071068286895752],"scale":[1.149999976158142,1.5,1],"translation":[-5.5526909828186035,0.5,-4.402690410614014]},{"mesh":36,"name":"Window_Wide_Round1.032","rotation":[0,-0.38268348574638367,0,0.9238795042037964],"scale":[1.149999976158142,1.5,1],"translation":[-4.739518165588379,0.5,-2.4395182132720947]},{"mesh":36,"name":"Window_Wide_Round1.034","rotation":[0,-0.38268348574638367,0,0.9238795042037964],"scale":[1.149999976158142,1.5,1],"translation":[-3.1131725311279297,0.5,-0.8131727576255798]}],"scene":0,"scenes":[{"name":"Scene","nodes":[0,1,2,3,4,5,6,7,8,9,10,11,12,13,14,15,16,17,18,19,20,21,22,23,24,25,26,27,28,29,30,31,32,33,34,35,36,37,38,39,40,41,42,43,44,45,46,47,48,49,50,51,52,53,54,55,56,57,58,59,60,61,62,63,64,65,66]}],"textures":[{"source":0},{"source":1},{"source":2},{"source":3},{"source":4},{"source":5}]}
