{"accessors":[{"bufferView":0,"componentType":5126,"count":164,"type":"VEC3"},{"bufferView":1,"componentType":5126,"count":164,"max":[2,12.90999984741211,0.5],"min":[-2,0,-8],"type":"VEC3"},{"bufferView":2,"componentType":5126,"count":164,"type":"VEC2"},{"bufferView":3,"componentType":5123,"count":246,"type":"SCALAR"},{"bufferView":4,"componentType":5126,"count":198,"type":"VEC3"},{"bufferView":5,"componentType":5126,"count":198,"max":[2.049999952316284,12.420000076293945,0.699999988079071],"min":[-2.049999952316284,2.950000047683716,-8],"type":"VEC3"},{"bufferView":6,"componentType":5126,"count":198,"type":"VEC2"},{"bufferView":7,"componentType":5123,"count":294,"type":"SCALAR"},{"bufferView":8,"componentType":5126,"count":2232,"type":"VEC3"},{"bufferView":9,"componentType":5126,"count":2232,"max":[2.109999895095825,10.605663299560547,0.9099999666213989],"min":[-2.109999895095825,0,-8.199999809265137],"type":"VEC3"},{"bufferView":10,"componentType":5126,"count":2232,"type":"VEC2"},{"bufferView":11,"componentType":5123,"count":3348,"type":"SCALAR"},{"bufferView":12,"componentType":5126,"count":236,"type":"VEC3"},{"bufferView":13,"componentType":5126,"count":236,"max":[1.274999976158142,10.399999618530273,0.7399999499320984],"min":[-1.399999976158142,0.8999999761581421,-8.029999732971191],"type":"VEC3"},{"bufferView":14,"componentType":5123,"count":336,"type":"SCALAR"},{"bufferView":15,"componentType":5126,"count":44,"type":"VEC3"},{"bufferView":16,"componentType":5126,"count":44,"max":[1.2300000190734863,13.170000076293945,0.05999999865889549],"min":[0.7200000286102295,1.055999994277954,-6.980000019073486],"type":"VEC3"},{"bufferView":17,"componentType":5123,"count":66,"type":"SCALAR"},{"bufferView":18,"componentType":5126,"count":40,"type":"VEC3"},{"bufferView":19,"componentType":5126,"count":40,"max":[1.5499999523162842,2.450000047683716,0.550000011920929],"min":[-1.5499999523162842,0,0],"type":"VEC3"},{"bufferView":20,"componentType":5126,"count":40,"type":"VEC2"},{"bufferView":21,"componentType":5123,"count":60,"type":"SCALAR"},{"bufferView":22,"componentType":5126,"count":40,"type":"VEC3"},{"bufferView":23,"componentType":5126,"count":40,"max":[1.2350000143051147,3.759999990463257,0.75],"min":[-1.2350000143051147,3.5799999237060547,0.5699999928474426],"type":"VEC3"},{"bufferView":24,"componentType":5126,"count":80,"type":"VEC3"},{"bufferView":25,"componentType":5126,"count":80,"max":[1.2400000095367432,3.859999895095825,0.7100000381469727],"min":[-1.2400000095367432,3.700000047683716,0.5899999737739563],"type":"VEC3"},{"bufferView":26,"componentType":5123,"count":120,"type":"SCALAR"},{"bufferView":27,"componentType":5126,"count":40,"type":"VEC3"},{"bufferView":28,"componentType":5126,"count":40,"max":[0.9900000095367432,3.859999895095825,0.7100000381469727],"min":[-0.9900000095367432,3.700000047683716,0.5899999737739563],"type":"VEC3"},{"bufferView":29,"componentType":5126,"count":264,"type":"VEC3"},{"bufferView":30,"componentType":5126,"count":264,"max":[2.450000524520874,12.59000015258789,1.1500000953674316],"min":[-2.4500010013580322,8.0784912109375,-8.450000762939453],"type":"VEC3"},{"bufferView":31,"componentType":5126,"count":264,"type":"VEC2"},{"bufferView":32,"componentType":5123,"count":396,"type":"SCALAR"}],"asset":{"generator":"Khronos glTF Blender I/O v5.2.40","version":"2.0"},"bufferViews":[{"buffer":0,"byteOffset":0,"byteLength":1968,"target":34962},{"buffer":0,"byteOffset":1968,"byteLength":1968,"target":34962},{"buffer":0,"byteOffset":3936,"byteLength":1312,"target":34962},{"buffer":0,"byteOffset":5248,"byteLength":492,"target":34963},{"buffer":0,"byteOffset":5740,"byteLength":2376,"target":34962},{"buffer":0,"byteOffset":8116,"byteLength":2376,"target":34962},{"buffer":0,"byteOffset":10492,"byteLength":1584,"target":34962},{"buffer":0,"byteOffset":12076,"byteLength":588,"target":34963},{"buffer":0,"byteOffset":12664,"byteLength":26784,"target":34962},{"buffer":0,"byteOffset":39448,"byteLength":26784,"target":34962},{"buffer":0,"byteOffset":66232,"byteLength":17856,"target":34962},{"buffer":0,"byteOffset":84088,"byteLength":6696,"target":34963},{"buffer":0,"byteOffset":90784,"byteLength":2832,"target":34962},{"buffer":0,"byteOffset":93616,"byteLength":2832,"target":34962},{"buffer":0,"byteOffset":96448,"byteLength":672,"target":34963},{"buffer":0,"byteOffset":97120,"byteLength":528,"target":34962},{"buffer":0,"byteOffset":97648,"byteLength":528,"target":34962},{"buffer":0,"byteOffset":98176,"byteLength":132,"target":34963},{"buffer":0,"byteOffset":98308,"byteLength":480,"target":34962},{"buffer":0,"byteOffset":98788,"byteLength":480,"target":34962},{"buffer":0,"byteOffset":99268,"byteLength":320,"target":34962},{"buffer":0,"byteOffset":99588,"byteLength":120,"target":34963},{"buffer":0,"byteOffset":99708,"byteLength":480,"target":34962},{"buffer":0,"byteOffset":100188,"byteLength":480,"target":34962},{"buffer":0,"byteOffset":100668,"byteLength":960,"target":34962},{"buffer":0,"byteOffset":101628,"byteLength":960,"target":34962},{"buffer":0,"byteOffset":102588,"byteLength":240,"target":34963},{"buffer":0,"byteOffset":102828,"byteLength":480,"target":34962},{"buffer":0,"byteOffset":103308,"byteLength":480,"target":34962},{"buffer":0,"byteOffset":103788,"byteLength":3168,"target":34962},{"buffer":0,"byteOffset":106956,"byteLength":3168,"target":34962},{"buffer":0,"byteOffset":110124,"byteLength":2112,"target":34962},{"buffer":0,"byteOffset":112236,"byteLength":792,"target":34963}],"buffers":[{"byteLength":113028,"uri":"narrow_house.bin"}],"images":[{"name":"T_Plaster_Luma","uri":"../village/T_Plaster_Luma.png"},{"name":"T_RockTrim_BaseColor","uri":"../village/T_RockTrim_BaseColor.png"},{"name":"T_RoundTiles_Luma","uri":"../village/T_RoundTiles_Luma.png"},{"name":"T_UnevenBrick_BaseColor","uri":"../village/T_UnevenBrick_BaseColor.png"},{"name":"T_WoodTrim_BaseColor","uri":"../village/T_WoodTrim_BaseColor.png"}],"materials":[{"doubleSided":true,"name":"Stone","pbrMetallicRoughness":{"baseColorFactor":[1.0,0.9974,0.9977,1.0],"baseColorTexture":{"index":3},"metallicFactor":0,"roughnessFactor":0.8500000238418579}},{"doubleSided":true,"name":"HousePlaster","pbrMetallicRoughness":{"baseColorFactor":[0.9099,0.5391,0.4777,1.0],"baseColorTexture":{"index":0},"metallicFactor":0,"roughnessFactor":0.8500000238418579}},{"doubleSided":true,"name":"Wood_dark","pbrMetallicRoughness":{"baseColorFactor":[0.2329,0.2659,0.2944,1.0],"baseColorTexture":{"index":4},"metallicFactor":0,"roughnessFactor":0.8500000238418579}},{"doubleSided":true,"name":"Glass","pbrMetallicRoughness":{"baseColorFactor":[0.03310476616024971,0.05087608844041824,0.07828831672668457,1],"metallicFactor":0,"roughnessFactor":0.20000000298023224}},{"doubleSided":true,"name":"Iron","pbrMetallicRoughness":{"baseColorFactor":[0.0134117491543293,0.0134117491543293,0.015325203537940979,1],"metallicFactor":0,"roughnessFactor":0.5}},{"doubleSided":true,"name":"RockTrim","pbrMetallicRoughness":{"baseColorFactor":[1.0,0.9979,1.0,1.0],"baseColorTexture":{"index":1},"metallicFactor":0,"roughnessFactor":0.8500000238418579}},{"doubleSided":true,"name":"Leaf","pbrMetallicRoughness":{"baseColorFactor":[0.03310476616024971,0.11928018927574158,0.0134117491543293,1],"metallicFactor":0,"roughnessFactor":0.8999999761581421}},{"doubleSided":true,"name":"Cloth","pbrMetallicRoughness":{"baseColorFactor":[0.34239163994789124,0.03310476616024971,0.021980946883559227,1],"metallicFactor":0,"roughnessFactor":0.8999999761581421}},{"doubleSided":true,"emissiveFactor":[1,0.4479884207248688,0.10048151016235352],"name":"LampGlass","pbrMetallicRoughness":{"baseColorFactor":[1,0.5704815983772278,0.1473190039396286,1],"metallicFactor":0,"roughnessFactor":0.8500000238418579}},{"doubleSided":true,"name":"HouseTiles","pbrMetallicRoughness":{"baseColorFactor":[0.1165,0.1149,0.1269,1.0],"baseColorTexture":{"index":2},"metallicFactor":0,"roughnessFactor":0.699999988079071}}],"meshes":[{"name":"Wall","primitives":[{"attributes":{"NORMAL":0,"POSITION":1,"TEXCOORD_0":2},"indices":3,"material":0},{"attributes":{"NORMAL":4,"POSITION":5,"TEXCOORD_0":6},"indices":7,"material":1},{"attributes":{"NORMAL":8,"POSITION":9,"TEXCOORD_0":10},"indices":11,"material":2},{"attributes":{"NORMAL":12,"POSITION":13},"indices":14,"material":3},{"attributes":{"NORMAL":15,"POSITION":16},"indices":17,"material":4},{"attributes":{"NORMAL":18,"POSITION":19,"TEXCOORD_0":20},"indices":21,"material":5},{"attributes":{"NORMAL":22,"POSITION":23},"indices":21,"material":6},{"attributes":{"NORMAL":24,"POSITION":25},"indices":26,"material":7},{"attributes":{"NORMAL":27,"POSITION":28},"indices":21,"material":8},{"attributes":{"NORMAL":29,"POSITION":30,"TEXCOORD_0":31},"indices":32,"material":9}]}],"nodes":[{"mesh":0,"name":"narrow_house"}],"scene":0,"scenes":[{"name":"Scene","nodes":[0]}],"textures":[{"source":0},{"source":1},{"source":2},{"source":3},{"source":4}]}