{"accessors":[{"bufferView":0,"componentType":5126,"count":196,"type":"VEC3"},{"bufferView":1,"componentType":5126,"count":196,"max":[1.9960949420928955,6.184999942779541,2.070775032043457],"min":[-2.5111382007598877,2.440000057220459,-2.070775032043457],"type":"VEC3"},{"bufferView":2,"componentType":5123,"count":252,"type":"SCALAR"},{"bufferView":3,"componentType":5126,"count":30,"type":"VEC3"},{"bufferView":4,"componentType":5126,"count":30,"max":[0.23406341671943665,3,0.2719299793243408],"min":[-0.33657053112983704,0,-0.2707751393318176],"type":"VEC3"},{"bufferView":5,"componentType":5123,"count":48,"type":"SCALAR"},{"bufferView":6,"componentType":5126,"count":196,"type":"VEC3"},{"bufferView":7,"componentType":5126,"count":196,"max":[2.5111382007598877,6.690000057220459,1.5905811786651611],"min":[-1.216152548789978,2.424999952316284,-1.9707753658294678],"type":"VEC3"},{"bufferView":8,"componentType":5123,"count":252,"type":"SCALAR"}],"asset":{"generator":"Khronos glTF Blender I/O v5.2.40","version":"2.0"},"bufferViews":[{"buffer":0,"byteOffset":0,"byteLength":2352,"target":34962},{"buffer":0,"byteOffset":2352,"byteLength":2352,"target":34962},{"buffer":0,"byteOffset":4704,"byteLength":504,"target":34963},{"buffer":0,"byteOffset":5208,"byteLength":360,"target":34962},{"buffer":0,"byteOffset":5568,"byteLength":360,"target":34962},{"buffer":0,"byteOffset":5928,"byteLength":96,"target":34963},{"buffer":0,"byteOffset":6024,"byteLength":2352,"target":34962},{"buffer":0,"byteOffset":8376,"byteLength":2352,"target":34962},{"buffer":0,"byteOffset":10728,"byteLength":504,"target":34963}],"buffers":[{"byteLength":11232,"uri":"oak_low.bin"}],"images":[],"materials":[{"doubleSided":true,"name":"Prop_Canopy","pbrMetallicRoughness":{"baseColorFactor":[0.07000000029802322,0.20000000298023224,0.03999999910593033,1],"metallicFactor":0,"roughnessFactor":0.8999999761581421}},{"doubleSided":true,"name":"Prop_Bark","pbrMetallicRoughness":{"baseColorFactor":[0.1599999964237213,0.07999999821186066,0.03500000014901161,1],"metallicFactor":0,"roughnessFactor":0.8999999761581421}},{"doubleSided":true,"name":"Prop_CanopyLight","pbrMetallicRoughness":{"baseColorFactor":[0.11999999731779099,0.27000001072883606,0.05000000074505806,1],"metallicFactor":0,"roughnessFactor":0.8999999761581421}}],"meshes":[{"name":"oak_low","primitives":[{"attributes":{"NORMAL":0,"POSITION":1},"indices":2,"material":0},{"attributes":{"NORMAL":3,"POSITION":4},"indices":5,"material":1},{"attributes":{"NORMAL":6,"POSITION":7},"indices":8,"material":2}]}],"nodes":[{"mesh":0,"name":"oak_low"}],"scene":0,"scenes":[{"name":"Scene","nodes":[0]}],"textures":[]}