{"accessors":[{"bufferView":0,"componentType":5126,"count":1744,"type":"VEC3"},{"bufferView":1,"componentType":5126,"count":1744,"max":[2.5777812004089355,5.025000095367432,2.787102222442627],"min":[-2.5777812004089355,0,-2.787102222442627],"type":"VEC3"},{"bufferView":2,"componentType":5123,"count":2916,"type":"SCALAR"},{"bufferView":3,"componentType":5126,"count":120,"type":"VEC3"},{"bufferView":4,"componentType":5126,"count":120,"max":[1.6722187995910645,4.599999904632568,2.1871023178100586],"min":[-2.3277812004089355,0,-1.8128976821899414],"type":"VEC3"},{"bufferView":5,"componentType":5126,"count":120,"type":"VEC2"},{"bufferView":6,"componentType":5123,"count":228,"type":"SCALAR"},{"bufferView":7,"componentType":5126,"count":786,"type":"VEC3"},{"bufferView":8,"componentType":5126,"count":786,"max":[1.6922187805175781,7.039999961853027,2.2071022987365723],"min":[-2.347781181335449,5.019999980926514,-1.832897663116455],"type":"VEC3"},{"bufferView":9,"componentType":5123,"count":1146,"type":"SCALAR"},{"bufferView":10,"componentType":5126,"count":428,"type":"VEC3"},{"bufferView":11,"componentType":5126,"count":428,"max":[1.5522187948226929,7.305809020996094,2.5702035427093506],"min":[-2.2077813148498535,5.019999980926514,-1.6928976774215698],"type":"VEC3"},{"bufferView":12,"componentType":5123,"count":636,"type":"SCALAR"},{"bufferView":13,"componentType":5126,"count":1212,"type":"VEC3"},{"bufferView":14,"componentType":5126,"count":1212,"max":[1.4734432697296143,7.084875583648682,2.1678659915924072],"min":[-2.1290056705474854,5.017910003662109,-1.8620924949645996],"type":"VEC3"},{"bufferView":15,"componentType":5123,"count":1938,"type":"SCALAR"},{"bufferView":16,"componentType":5126,"count":348,"type":"VEC3"},{"bufferView":17,"componentType":5126,"count":348,"max":[-0.024704426527023315,7.340897560119629,2.598512649536133],"min":[-0.5560347437858582,1.1500000953674316,0.09199666976928711],"type":"VEC3"},{"bufferView":18,"componentType":5123,"count":516,"type":"SCALAR"},{"bufferView":19,"componentType":5126,"count":432,"type":"VEC3"},{"bufferView":20,"componentType":5126,"count":432,"max":[2.499645233154297,4.200000286102295,2.337102174758911],"min":[-2.0787229537963867,0.32999998331069946,-2.725882053375244],"type":"VEC3"},{"bufferView":21,"componentType":5123,"count":708,"type":"SCALAR"},{"bufferView":22,"componentType":5126,"count":336,"type":"VEC3"},{"bufferView":23,"componentType":5126,"count":336,"max":[1.5620553493499756,4.159999847412109,1.6398141384124756],"min":[-2.2176177501678467,2.950000047683716,-1.2656095027923584],"type":"VEC3"},{"bufferView":24,"componentType":5123,"count":576,"type":"SCALAR"}],"asset":{"generator":"Khronos glTF Blender I/O v5.2.40","version":"2.0"},"bufferViews":[{"buffer":0,"byteOffset":0,"byteLength":20928,"target":34962},{"buffer":0,"byteOffset":20928,"byteLength":20928,"target":34962},{"buffer":0,"byteOffset":41856,"byteLength":5832,"target":34963},{"buffer":0,"byteOffset":47688,"byteLength":1440,"target":34962},{"buffer":0,"byteOffset":49128,"byteLength":1440,"target":34962},{"buffer":0,"byteOffset":50568,"byteLength":960,"target":34962},{"buffer":0,"byteOffset":51528,"byteLength":456,"target":34963},{"buffer":0,"byteOffset":51984,"byteLength":9432,"target":34962},{"buffer":0,"byteOffset":61416,"byteLength":9432,"target":34962},{"buffer":0,"byteOffset":70848,"byteLength":2292,"target":34963},{"buffer":0,"byteOffset":73140,"byteLength":5136,"target":34962},{"buffer":0,"byteOffset":78276,"byteLength":5136,"target":34962},{"buffer":0,"byteOffset":83412,"byteLength":1272,"target":34963},{"buffer":0,"byteOffset":84684,"byteLength":14544,"target":34962},{"buffer":0,"byteOffset":99228,"byteLength":14544,"target":34962},{"buffer":0,"byteOffset":113772,"byteLength":3876,"target":34963},{"buffer":0,"byteOffset":117648,"byteLength":4176,"target":34962},{"buffer":0,"byteOffset":121824,"byteLength":4176,"target":34962},{"buffer":0,"byteOffset":126000,"byteLength":1032,"target":34963},{"buffer":0,"byteOffset":127032,"byteLength":5184,"target":34962},{"buffer":0,"byteOffset":132216,"byteLength":5184,"target":34962},{"buffer":0,"byteOffset":137400,"byteLength":1416,"target":34963},{"buffer":0,"byteOffset":138816,"byteLength":4032,"target":34962},{"buffer":0,"byteOffset":142848,"byteLength":4032,"target":34962},{"buffer":0,"byteOffset":146880,"byteLength":1152,"target":34963}],"buffers":[{"byteLength":148032,"uri":"observatory.bin"}],"images":[{"name":"T_Brick_BaseColor","uri":"../village/T_Brick_BaseColor.png"}],"materials":[{"doubleSided":true,"name":"Observatory_Stone","pbrMetallicRoughness":{"baseColorFactor":[0.6000000238418579,0.5699999928474426,0.5199999809265137,1],"metallicFactor":0,"roughnessFactor":0.8999999761581421}},{"doubleSided":true,"name":"Observatory_Brick","pbrMetallicRoughness":{"baseColorFactor":[1.0,0.94,0.85,1],"baseColorTexture":{"index":0},"metallicFactor":0,"roughnessFactor":0.8999999761581421}},{"doubleSided":true,"name":"Observatory_Dome","pbrMetallicRoughness":{"baseColorFactor":[0.30000001192092896,0.5199999809265137,0.5,1],"metallicFactor":0.30000001192092896,"roughnessFactor":0.6000000238418579}},{"doubleSided":true,"name":"Observatory_Dark","pbrMetallicRoughness":{"baseColorFactor":[0.05000000074505806,0.05000000074505806,0.07000000029802322,1],"metallicFactor":0}},{"doubleSided":true,"name":"Observatory_Rib","pbrMetallicRoughness":{"baseColorFactor":[0.20000000298023224,0.36000001430511475,0.3499999940395355,1],"metallicFactor":0.30000001192092896,"roughnessFactor":0.6000000238418579}},{"doubleSided":true,"name":"Observatory_Brass","pbrMetallicRoughness":{"baseColorFactor":[0.800000011920929,0.6000000238418579,0.25,1],"metallicFactor":0.800000011920929,"roughnessFactor":0.3499999940395355}},{"doubleSided":true,"name":"Observatory_Wood","pbrMetallicRoughness":{"baseColorFactor":[0.3799999952316284,0.2199999988079071,0.10000000149011612,1],"metallicFactor":0,"roughnessFactor":0.8500000238418579}},{"doubleSided":true,"emissiveFactor":[0.6000000238418579,0.45000001788139343,0.21000000476837144],"name":"Observatory_Glass","pbrMetallicRoughness":{"baseColorFactor":[0.949999988079071,0.800000011920929,0.44999998807907104,1],"metallicFactor":0,"roughnessFactor":0.4000000059604645}}],"meshes":[{"name":"Observatory","primitives":[{"attributes":{"NORMAL":0,"POSITION":1},"indices":2,"material":0},{"attributes":{"NORMAL":3,"POSITION":4,"TEXCOORD_0":5},"indices":6,"material":1},{"attributes":{"NORMAL":7,"POSITION":8},"indices":9,"material":2},{"attributes":{"NORMAL":10,"POSITION":11},"indices":12,"material":3},{"attributes":{"NORMAL":13,"POSITION":14},"indices":15,"material":4},{"attributes":{"NORMAL":16,"POSITION":17},"indices":18,"material":5},{"attributes":{"NORMAL":19,"POSITION":20},"indices":21,"material":6},{"attributes":{"NORMAL":22,"POSITION":23},"indices":24,"material":7}]}],"nodes":[{"mesh":0,"name":"Observatory"}],"scene":0,"scenes":[{"name":"Scene","nodes":[0]}],"textures":[{"source":0}]}