{"accessors":[{"bufferView":0,"componentType":5126,"count":144,"type":"VEC3"},{"bufferView":1,"componentType":5126,"count":144,"max":[0.8299999833106995,0.949999988079071,0.27000001072883606],"min":[-0.8299999833106995,0,-0.2499999701976776],"type":"VEC3"},{"bufferView":2,"componentType":5123,"count":216,"type":"SCALAR"},{"bufferView":3,"componentType":5126,"count":168,"type":"VEC3"},{"bufferView":4,"componentType":5126,"count":168,"max":[0.8999999761581421,0.9700000286102295,0.24000000953674316],"min":[-0.8999999761581421,0.4399999976158142,-0.27000001072883606],"type":"VEC3"},{"bufferView":5,"componentType":5123,"count":252,"type":"SCALAR"}],"asset":{"generator":"Khronos glTF Blender I/O v5.2.40","version":"2.0"},"bufferViews":[{"buffer":0,"byteOffset":0,"byteLength":1728,"target":34962},{"buffer":0,"byteOffset":1728,"byteLength":1728,"target":34962},{"buffer":0,"byteOffset":3456,"byteLength":432,"target":34963},{"buffer":0,"byteOffset":3888,"byteLength":2016,"target":34962},{"buffer":0,"byteOffset":5904,"byteLength":2016,"target":34962},{"buffer":0,"byteOffset":7920,"byteLength":504,"target":34963}],"buffers":[{"byteLength":8424,"uri":"park_bench.bin"}],"images":[],"materials":[{"doubleSided":true,"name":"Prop_Iron","pbrMetallicRoughness":{"baseColorFactor":[0.03500000014901161,0.03500000014901161,0.03999999910593033,1],"metallicFactor":0,"roughnessFactor":0.5}},{"doubleSided":true,"name":"Prop_Oak","pbrMetallicRoughness":{"baseColorFactor":[0.3199999928474426,0.17000000178813934,0.07000000029802322,1],"metallicFactor":0,"roughnessFactor":0.8500000238418579}}],"meshes":[{"name":"park_bench","primitives":[{"attributes":{"NORMAL":0,"POSITION":1},"indices":2,"material":0},{"attributes":{"NORMAL":3,"POSITION":4},"indices":5,"material":1}]}],"nodes":[{"mesh":0,"name":"park_bench"}],"scene":0,"scenes":[{"name":"Scene","nodes":[0]}],"textures":[]}