{"accessors":[{"bufferView":0,"componentType":5126,"count":488,"max":[1.0065685510635376,1.149999976158142,0.05828426778316498],"min":[-1.0065685510635376,0,-0.05828426778316498],"type":"VEC3"},{"bufferView":1,"componentType":5126,"count":488,"type":"VEC3"},{"bufferView":2,"componentType":5126,"count":488,"type":"VEC2"},{"bufferView":3,"componentType":5123,"count":666,"type":"SCALAR"}],"asset":{"generator":"Khronos glTF Blender I/O v5.2.40","version":"2.0"},"bufferViews":[{"buffer":0,"byteLength":5856,"byteOffset":0,"target":34962},{"buffer":0,"byteLength":5856,"byteOffset":5856,"target":34962},{"buffer":0,"byteLength":3904,"byteOffset":11712,"target":34962},{"buffer":0,"byteLength":1332,"byteOffset":15616,"target":34963}],"buffers":[{"byteLength":16948,"uri":"picket_fence.bin"}],"images":[],"materials":[{"doubleSided":true,"name":"Prop_PaintWhite","pbrMetallicRoughness":{"baseColorFactor":[0.7799999713897705,0.7599999904632568,0.699999988079071,1],"metallicFactor":0,"roughnessFactor":0.800000011920929}}],"meshes":[{"name":"picket_fence","primitives":[{"attributes":{"NORMAL":1,"POSITION":0,"TEXCOORD_0":2},"indices":3,"material":0}]}],"nodes":[{"mesh":0,"name":"picket_fence"}],"scene":0,"scenes":[{"name":"Scene","nodes":[0]}],"textures":[]}
