{"accessors":[{"bufferView":0,"componentType":5126,"count":126,"max":[1.9498558044433594,7.5,1.9009687900543213],"min":[-1.9498558044433594,1.5999999046325684,-1.9009687900543213],"type":"VEC3"},{"bufferView":1,"componentType":5126,"count":126,"type":"VEC3"},{"bufferView":2,"componentType":5126,"count":126,"type":"VEC2"},{"bufferView":3,"componentType":5123,"count":216,"type":"SCALAR"},{"bufferView":4,"componentType":5126,"count":30,"max":[0.20923243463039398,2.4000000953674316,0.27701491117477417],"min":[-0.20923243463039398,0,-0.12096884846687317],"type":"VEC3"},{"bufferView":5,"componentType":5126,"count":30,"type":"VEC3"},{"bufferView":6,"componentType":5126,"count":30,"type":"VEC2"},{"bufferView":7,"componentType":5123,"count":48,"type":"SCALAR"}],"asset":{"generator":"Khronos glTF Blender I/O v5.2.40","version":"2.0"},"bufferViews":[{"buffer":0,"byteLength":1512,"byteOffset":0,"target":34962},{"buffer":0,"byteLength":1512,"byteOffset":1512,"target":34962},{"buffer":0,"byteLength":1008,"byteOffset":3024,"target":34962},{"buffer":0,"byteLength":432,"byteOffset":4032,"target":34963},{"buffer":0,"byteLength":360,"byteOffset":4464,"target":34962},{"buffer":0,"byteLength":360,"byteOffset":4824,"target":34962},{"buffer":0,"byteLength":240,"byteOffset":5184,"target":34962},{"buffer":0,"byteLength":96,"byteOffset":5424,"target":34963}],"buffers":[{"byteLength":5520,"uri":"pine_low.bin"}],"images":[],"materials":[{"doubleSided":true,"name":"Prop_Needles","pbrMetallicRoughness":{"baseColorFactor":[0.029999999329447746,0.10999999940395355,0.03500000014901161,1],"metallicFactor":0,"roughnessFactor":0.8999999761581421}},{"doubleSided":true,"name":"Prop_Bark","pbrMetallicRoughness":{"baseColorFactor":[0.1599999964237213,0.07999999821186066,0.03500000014901161,1],"metallicFactor":0,"roughnessFactor":0.8999999761581421}}],"meshes":[{"name":"pine_low","primitives":[{"attributes":{"NORMAL":1,"POSITION":0,"TEXCOORD_0":2},"indices":3,"material":0},{"attributes":{"NORMAL":5,"POSITION":4,"TEXCOORD_0":6},"indices":7,"material":1}]}],"nodes":[{"mesh":0,"name":"pine_low"}],"scene":0,"scenes":[{"name":"Scene","nodes":[0]}],"textures":[]}
