{"accessors":[{"bufferView":0,"componentType":5126,"count":150,"max":[0.16633445024490356,0.9372709393501282,0.23343822360038757],"min":[-0.07448404282331467,0.7717240452766418,-0.28465399146080017],"type":"VEC3"},{"bufferView":1,"componentType":5126,"count":150,"type":"VEC3"},{"bufferView":2,"componentType":5126,"count":150,"type":"VEC2"},{"bufferView":3,"componentType":5123,"count":180,"type":"SCALAR"},{"bufferView":4,"componentType":5126,"count":242,"max":[0.5799999833106995,0.6200000047683716,0.5516127943992615],"min":[-0.5799999833106995,0,-0.5516127943992615],"type":"VEC3"},{"bufferView":5,"componentType":5126,"count":242,"type":"VEC3"},{"bufferView":6,"componentType":5126,"count":242,"type":"VEC2"},{"bufferView":7,"componentType":5123,"count":420,"type":"SCALAR"},{"bufferView":8,"componentType":5126,"count":60,"max":[0.43748602271080017,0.5799999833106995,0.46000000834465027],"min":[-0.43748602271080017,0.5600000023841858,-0.46000000834465027],"type":"VEC3"},{"bufferView":9,"componentType":5126,"count":60,"type":"VEC3"},{"bufferView":10,"componentType":5126,"count":60,"type":"VEC2"},{"bufferView":11,"componentType":5123,"count":108,"type":"SCALAR"},{"bufferView":12,"componentType":5126,"count":144,"max":[0.3423803746700287,1.2580000162124634,0.3423803746700287],"min":[-0.3423803746700287,0.5019999742507935,-0.3423803746700287],"type":"VEC3"},{"bufferView":13,"componentType":5126,"count":144,"type":"VEC3"},{"bufferView":14,"componentType":5126,"count":144,"type":"VEC2"},{"bufferView":15,"componentType":5123,"count":192,"type":"SCALAR"},{"bufferView":16,"componentType":5126,"count":98,"max":[0.35398268699645996,1.3899999856948853,0.31623250246047974],"min":[-0.1139826849102974,0.9099999666213989,-0.13999998569488525],"type":"VEC3"},{"bufferView":17,"componentType":5126,"count":98,"type":"VEC3"},{"bufferView":18,"componentType":5126,"count":98,"type":"VEC2"},{"bufferView":19,"componentType":5123,"count":126,"type":"SCALAR"},{"bufferView":20,"componentType":5126,"count":150,"max":[-0.004736203700304031,0.9772489666938782,0.3398854732513428],"min":[-0.2472362369298935,0.833568811416626,0.016341671347618103],"type":"VEC3"},{"bufferView":21,"componentType":5126,"count":150,"type":"VEC3"},{"bufferView":22,"componentType":5126,"count":150,"type":"VEC2"},{"bufferView":23,"componentType":5123,"count":180,"type":"SCALAR"},{"bufferView":24,"componentType":5126,"count":100,"max":[0.050116948783397675,0.9453074932098389,0.11768131703138351],"min":[-0.09290166199207306,0.7951308488845825,-0.21690061688423157],"type":"VEC3"},{"bufferView":25,"componentType":5126,"count":100,"type":"VEC3"},{"bufferView":26,"componentType":5126,"count":100,"type":"VEC2"},{"bufferView":27,"componentType":5123,"count":120,"type":"SCALAR"}],"asset":{"generator":"Khronos glTF Blender I/O v5.2.40","version":"2.0"},"bufferViews":[{"buffer":0,"byteLength":1800,"byteOffset":0,"target":34962},{"buffer":0,"byteLength":1800,"byteOffset":1800,"target":34962},{"buffer":0,"byteLength":1200,"byteOffset":3600,"target":34962},{"buffer":0,"byteLength":360,"byteOffset":4800,"target":34963},{"buffer":0,"byteLength":2904,"byteOffset":5160,"target":34962},{"buffer":0,"byteLength":2904,"byteOffset":8064,"target":34962},{"buffer":0,"byteLength":1936,"byteOffset":10968,"target":34962},{"buffer":0,"byteLength":840,"byteOffset":12904,"target":34963},{"buffer":0,"byteLength":720,"byteOffset":13744,"target":34962},{"buffer":0,"byteLength":720,"byteOffset":14464,"target":34962},{"buffer":0,"byteLength":480,"byteOffset":15184,"target":34962},{"buffer":0,"byteLength":216,"byteOffset":15664,"target":34963},{"buffer":0,"byteLength":1728,"byteOffset":15880,"target":34962},{"buffer":0,"byteLength":1728,"byteOffset":17608,"target":34962},{"buffer":0,"byteLength":1152,"byteOffset":19336,"target":34962},{"buffer":0,"byteLength":384,"byteOffset":20488,"target":34963},{"buffer":0,"byteLength":1176,"byteOffset":20872,"target":34962},{"buffer":0,"byteLength":1176,"byteOffset":22048,"target":34962},{"buffer":0,"byteLength":784,"byteOffset":23224,"target":34962},{"buffer":0,"byteLength":252,"byteOffset":24008,"target":34963},{"buffer":0,"byteLength":1800,"byteOffset":24260,"target":34962},{"buffer":0,"byteLength":1800,"byteOffset":26060,"target":34962},{"buffer":0,"byteLength":1200,"byteOffset":27860,"target":34962},{"buffer":0,"byteLength":360,"byteOffset":29060,"target":34963},{"buffer":0,"byteLength":1200,"byteOffset":29420,"target":34962},{"buffer":0,"byteLength":1200,"byteOffset":30620,"target":34962},{"buffer":0,"byteLength":800,"byteOffset":31820,"target":34962},{"buffer":0,"byteLength":240,"byteOffset":32620,"target":34963}],"buffers":[{"byteLength":32860,"uri":"planter.bin"}],"images":[],"materials":[{"doubleSided":true,"name":"Prop_FlowerPink","pbrMetallicRoughness":{"baseColorFactor":[0.8500000238418579,0.3499999940395355,0.5,1],"metallicFactor":0,"roughnessFactor":0.699999988079071}},{"doubleSided":true,"name":"Prop_Stone","pbrMetallicRoughness":{"baseColorFactor":[0.41999998688697815,0.4000000059604645,0.36000001430511475,1],"metallicFactor":0,"roughnessFactor":0.949999988079071}},{"doubleSided":true,"name":"Prop_Soil","pbrMetallicRoughness":{"baseColorFactor":[0.11999999731779099,0.07000000029802322,0.03500000014901161,1],"metallicFactor":0}},{"doubleSided":true,"name":"Prop_Leaf","pbrMetallicRoughness":{"baseColorFactor":[0.07000000029802322,0.20000000298023224,0.03999999910593033,1],"metallicFactor":0,"roughnessFactor":0.8999999761581421}},{"doubleSided":true,"name":"Prop_LeafDark","pbrMetallicRoughness":{"baseColorFactor":[0.04500000178813934,0.12999999523162842,0.029999999329447746,1],"metallicFactor":0,"roughnessFactor":0.8999999761581421}},{"doubleSided":true,"name":"Prop_FlowerWhite","pbrMetallicRoughness":{"baseColorFactor":[0.8500000238418579,0.8199999928474426,0.75,1],"metallicFactor":0,"roughnessFactor":0.699999988079071}},{"doubleSided":true,"name":"Prop_FlowerRed","pbrMetallicRoughness":{"baseColorFactor":[0.699999988079071,0.05000000074505806,0.05000000074505806,1],"metallicFactor":0,"roughnessFactor":0.699999988079071}}],"meshes":[{"name":"planter","primitives":[{"attributes":{"NORMAL":1,"POSITION":0,"TEXCOORD_0":2},"indices":3,"material":0},{"attributes":{"NORMAL":5,"POSITION":4,"TEXCOORD_0":6},"indices":7,"material":1},{"attributes":{"NORMAL":9,"POSITION":8,"TEXCOORD_0":10},"indices":11,"material":2},{"attributes":{"NORMAL":13,"POSITION":12,"TEXCOORD_0":14},"indices":15,"material":3},{"attributes":{"NORMAL":17,"POSITION":16,"TEXCOORD_0":18},"indices":19,"material":4},{"attributes":{"NORMAL":21,"POSITION":20,"TEXCOORD_0":22},"indices":23,"material":5},{"attributes":{"NORMAL":25,"POSITION":24,"TEXCOORD_0":26},"indices":27,"material":6}]}],"nodes":[{"mesh":0,"name":"planter"}],"scene":0,"scenes":[{"name":"Scene","nodes":[0]}],"textures":[]}
