{"accessors":[{"bufferView":0,"componentType":5126,"count":176,"max":[1.149999976158142,8.25,1.149999976158142],"min":[-1.149999976158142,1.3500003814697266,-1.149999976158142],"type":"VEC3"},{"bufferView":1,"componentType":5126,"count":176,"type":"VEC3"},{"bufferView":2,"componentType":5126,"count":176,"type":"VEC2"},{"bufferView":3,"componentType":5123,"count":240,"type":"SCALAR"},{"bufferView":4,"componentType":5126,"count":30,"max":[0.19021131098270416,2,0.16180340945720673],"min":[-0.19021131098270416,0,-0.20000000298023224],"type":"VEC3"},{"bufferView":5,"componentType":5126,"count":30,"type":"VEC3"},{"bufferView":6,"componentType":5126,"count":30,"type":"VEC2"},{"bufferView":7,"componentType":5123,"count":48,"type":"SCALAR"}],"asset":{"generator":"Khronos glTF Blender I/O v5.2.40","version":"2.0"},"bufferViews":[{"buffer":0,"byteLength":2112,"byteOffset":0,"target":34962},{"buffer":0,"byteLength":2112,"byteOffset":2112,"target":34962},{"buffer":0,"byteLength":1408,"byteOffset":4224,"target":34962},{"buffer":0,"byteLength":480,"byteOffset":5632,"target":34963},{"buffer":0,"byteLength":360,"byteOffset":6112,"target":34962},{"buffer":0,"byteLength":360,"byteOffset":6472,"target":34962},{"buffer":0,"byteLength":240,"byteOffset":6832,"target":34962},{"buffer":0,"byteLength":96,"byteOffset":7072,"target":34963}],"buffers":[{"byteLength":7168,"uri":"poplar_low.bin"}],"images":[],"materials":[{"doubleSided":true,"name":"Prop_Canopy","pbrMetallicRoughness":{"baseColorFactor":[0.07000000029802322,0.20000000298023224,0.03999999910593033,1],"metallicFactor":0,"roughnessFactor":0.8999999761581421}},{"doubleSided":true,"name":"Prop_Bark","pbrMetallicRoughness":{"baseColorFactor":[0.1599999964237213,0.07999999821186066,0.03500000014901161,1],"metallicFactor":0,"roughnessFactor":0.8999999761581421}}],"meshes":[{"name":"poplar_low","primitives":[{"attributes":{"NORMAL":1,"POSITION":0,"TEXCOORD_0":2},"indices":3,"material":0},{"attributes":{"NORMAL":5,"POSITION":4,"TEXCOORD_0":6},"indices":7,"material":1}]}],"nodes":[{"mesh":0,"name":"poplar_low"}],"scene":0,"scenes":[{"name":"Scene","nodes":[0]}],"textures":[]}
