{"accessors":[{"bufferView":0,"componentType":5126,"count":72,"max":[0.8666666746139526,2.5096707344055176,0.9887723922729492],"min":[-1.2999999523162842,1.9903292655944824,-0.9163174033164978],"type":"VEC3"},{"bufferView":1,"componentType":5126,"count":72,"type":"VEC3"},{"bufferView":2,"componentType":5126,"count":72,"type":"VEC2"},{"bufferView":3,"componentType":5123,"count":108,"type":"SCALAR"},{"bufferView":4,"componentType":5126,"count":168,"max":[1.1880422830581665,2.5,0.7185882329940796],"min":[-1.1880422830581665,0,-0.8537724614143372],"type":"VEC3"},{"bufferView":5,"componentType":5126,"count":168,"type":"VEC3"},{"bufferView":6,"componentType":5126,"count":168,"type":"VEC2"},{"bufferView":7,"componentType":5123,"count":264,"type":"SCALAR"},{"bufferView":8,"componentType":5126,"count":72,"max":[1.2999999523162842,2.5096707344055176,0.9887723922729492],"min":[-0.8666666746139526,1.9903292655944824,-0.9163174033164978],"type":"VEC3"},{"bufferView":9,"componentType":5126,"count":72,"type":"VEC3"},{"bufferView":10,"componentType":5126,"count":72,"type":"VEC2"},{"bufferView":11,"componentType":5126,"count":192,"max":[1.149999976158142,1.100000023841858,0.4862275719642639],"min":[-1.225000023841858,0,-0.9887723922729492],"type":"VEC3"},{"bufferView":12,"componentType":5126,"count":192,"type":"VEC3"},{"bufferView":13,"componentType":5126,"count":192,"type":"VEC2"},{"bufferView":14,"componentType":5123,"count":288,"type":"SCALAR"},{"bufferView":15,"componentType":5126,"count":48,"max":[0.25999999046325684,1.1799999475479126,0.36243247985839844],"min":[-1.0099999904632568,0.9503727555274963,-0.4837724566459656],"type":"VEC3"},{"bufferView":16,"componentType":5126,"count":48,"type":"VEC3"},{"bufferView":17,"componentType":5126,"count":48,"type":"VEC2"},{"bufferView":18,"componentType":5123,"count":72,"type":"SCALAR"},{"bufferView":19,"componentType":5126,"count":24,"max":[-0.49000000953674316,1.1799999475479126,-0.1437724381685257],"min":[-1.0099999904632568,1.0800000429153442,-0.4837724566459656],"type":"VEC3"},{"bufferView":20,"componentType":5126,"count":24,"type":"VEC3"},{"bufferView":21,"componentType":5126,"count":24,"type":"VEC2"},{"bufferView":22,"componentType":5123,"count":36,"type":"SCALAR"},{"bufferView":23,"componentType":5126,"count":48,"max":[1.0099999904632568,1.1799999475479126,0.36243247985839844],"min":[-0.25999999046325684,0.9503727555274963,-0.4837724566459656],"type":"VEC3"},{"bufferView":24,"componentType":5126,"count":48,"type":"VEC3"},{"bufferView":25,"componentType":5126,"count":48,"type":"VEC2"},{"bufferView":26,"componentType":5126,"count":24,"max":[1.0099999904632568,1.1096272468566895,0.36243247985839844],"min":[0.49000000953674316,0.9503727555274963,0.010022640228271484],"type":"VEC3"},{"bufferView":27,"componentType":5126,"count":24,"type":"VEC3"},{"bufferView":28,"componentType":5126,"count":24,"type":"VEC2"},{"bufferView":29,"componentType":5123,"count":36,"type":"SCALAR"},{"bufferView":30,"componentType":5126,"count":96,"max":[1.2000000476837158,0.5,-0.5387724041938782],"min":[0.800000011920929,0,-0.8887724280357361],"type":"VEC3"},{"bufferView":31,"componentType":5126,"count":96,"type":"VEC3"},{"bufferView":32,"componentType":5126,"count":96,"type":"VEC2"},{"bufferView":33,"componentType":5123,"count":132,"type":"SCALAR"}],"asset":{"generator":"Khronos glTF Blender I/O v5.2.40","version":"2.0"},"bufferViews":[{"buffer":0,"byteLength":864,"byteOffset":0,"target":34962},{"buffer":0,"byteLength":864,"byteOffset":864,"target":34962},{"buffer":0,"byteLength":576,"byteOffset":1728,"target":34962},{"buffer":0,"byteLength":216,"byteOffset":2304,"target":34963},{"buffer":0,"byteLength":2016,"byteOffset":2520,"target":34962},{"buffer":0,"byteLength":2016,"byteOffset":4536,"target":34962},{"buffer":0,"byteLength":1344,"byteOffset":6552,"target":34962},{"buffer":0,"byteLength":528,"byteOffset":7896,"target":34963},{"buffer":0,"byteLength":864,"byteOffset":8424,"target":34962},{"buffer":0,"byteLength":864,"byteOffset":9288,"target":34962},{"buffer":0,"byteLength":576,"byteOffset":10152,"target":34962},{"buffer":0,"byteLength":2304,"byteOffset":10728,"target":34962},{"buffer":0,"byteLength":2304,"byteOffset":13032,"target":34962},{"buffer":0,"byteLength":1536,"byteOffset":15336,"target":34962},{"buffer":0,"byteLength":576,"byteOffset":16872,"target":34963},{"buffer":0,"byteLength":576,"byteOffset":17448,"target":34962},{"buffer":0,"byteLength":576,"byteOffset":18024,"target":34962},{"buffer":0,"byteLength":384,"byteOffset":18600,"target":34962},{"buffer":0,"byteLength":144,"byteOffset":18984,"target":34963},{"buffer":0,"byteLength":288,"byteOffset":19128,"target":34962},{"buffer":0,"byteLength":288,"byteOffset":19416,"target":34962},{"buffer":0,"byteLength":192,"byteOffset":19704,"target":34962},{"buffer":0,"byteLength":72,"byteOffset":19896,"target":34963},{"buffer":0,"byteLength":576,"byteOffset":19968,"target":34962},{"buffer":0,"byteLength":576,"byteOffset":20544,"target":34962},{"buffer":0,"byteLength":384,"byteOffset":21120,"target":34962},{"buffer":0,"byteLength":288,"byteOffset":21504,"target":34962},{"buffer":0,"byteLength":288,"byteOffset":21792,"target":34962},{"buffer":0,"byteLength":192,"byteOffset":22080,"target":34962},{"buffer":0,"byteLength":72,"byteOffset":22272,"target":34963},{"buffer":0,"byteLength":1152,"byteOffset":22344,"target":34962},{"buffer":0,"byteLength":1152,"byteOffset":23496,"target":34962},{"buffer":0,"byteLength":768,"byteOffset":24648,"target":34962},{"buffer":0,"byteLength":264,"byteOffset":25416,"target":34963}],"buffers":[{"byteLength":25680,"uri":"produce_stall.bin"}],"images":[],"materials":[{"doubleSided":true,"name":"Prop_AwningTeal","pbrMetallicRoughness":{"baseColorFactor":[0.05000000074505806,0.3799999952316284,0.36000001430511475,1],"metallicFactor":0,"roughnessFactor":0.8999999761581421}},{"doubleSided":true,"name":"Prop_OakDark","pbrMetallicRoughness":{"baseColorFactor":[0.18000000715255737,0.09000000357627869,0.03500000014901161,1],"metallicFactor":0,"roughnessFactor":0.8500000238418579}},{"doubleSided":true,"name":"Prop_CreamCloth","pbrMetallicRoughness":{"baseColorFactor":[0.800000011920929,0.7200000286102295,0.5600000023841858,1],"metallicFactor":0}},{"doubleSided":true,"name":"Prop_Oak","pbrMetallicRoughness":{"baseColorFactor":[0.3199999928474426,0.17000000178813934,0.07000000029802322,1],"metallicFactor":0,"roughnessFactor":0.8500000238418579}},{"doubleSided":true,"name":"Prop_Fruit","pbrMetallicRoughness":{"baseColorFactor":[0.6200000047683716,0.05999999865889549,0.029999999329447746,1],"metallicFactor":0,"roughnessFactor":0.6000000238418579}},{"doubleSided":true,"name":"Prop_FlowerOrange","pbrMetallicRoughness":{"baseColorFactor":[0.8999999761581421,0.3199999928474426,0.03999999910593033,1],"metallicFactor":0,"roughnessFactor":0.699999988079071}},{"doubleSided":true,"name":"Prop_Cabbage","pbrMetallicRoughness":{"baseColorFactor":[0.2199999988079071,0.4000000059604645,0.11999999731779099,1],"metallicFactor":0,"roughnessFactor":0.800000011920929}},{"doubleSided":true,"name":"Prop_FlowerYellow","pbrMetallicRoughness":{"baseColorFactor":[0.8500000238418579,0.6000000238418579,0.05000000074505806,1],"metallicFactor":0,"roughnessFactor":0.699999988079071}},{"doubleSided":true,"name":"Prop_Sack","pbrMetallicRoughness":{"baseColorFactor":[0.550000011920929,0.41999998688697815,0.25,1],"metallicFactor":0}}],"meshes":[{"name":"produce_stall","primitives":[{"attributes":{"NORMAL":1,"POSITION":0,"TEXCOORD_0":2},"indices":3,"material":0},{"attributes":{"NORMAL":5,"POSITION":4,"TEXCOORD_0":6},"indices":7,"material":1},{"attributes":{"NORMAL":9,"POSITION":8,"TEXCOORD_0":10},"indices":3,"material":2},{"attributes":{"NORMAL":12,"POSITION":11,"TEXCOORD_0":13},"indices":14,"material":3},{"attributes":{"NORMAL":16,"POSITION":15,"TEXCOORD_0":17},"indices":18,"material":4},{"attributes":{"NORMAL":20,"POSITION":19,"TEXCOORD_0":21},"indices":22,"material":5},{"attributes":{"NORMAL":24,"POSITION":23,"TEXCOORD_0":25},"indices":18,"material":6},{"attributes":{"NORMAL":27,"POSITION":26,"TEXCOORD_0":28},"indices":29,"material":7},{"attributes":{"NORMAL":31,"POSITION":30,"TEXCOORD_0":32},"indices":33,"material":8}]}],"nodes":[{"mesh":0,"name":"produce_stall"}],"scene":0,"scenes":[{"name":"Scene","nodes":[0]}],"textures":[]}
