{"accessors":[{"bufferView":0,"componentType":5126,"count":48,"type":"VEC3"},{"bufferView":1,"componentType":5126,"count":48,"max":[1.0149999856948853,1.149999976158142,0.06499999761581421],"min":[-1.0149999856948853,0,-0.06499999761581421],"type":"VEC3"},{"bufferView":2,"componentType":5123,"count":72,"type":"SCALAR"},{"bufferView":3,"componentType":5126,"count":48,"type":"VEC3"},{"bufferView":4,"componentType":5126,"count":48,"max":[1.0257949829101562,0.9204886555671692,0.019999999552965164],"min":[-1.0257949829101562,0.3295113742351532,-0.05999999865889549],"type":"VEC3"},{"bufferView":5,"componentType":5123,"count":72,"type":"SCALAR"}],"asset":{"generator":"Khronos glTF Blender I/O v5.2.40","version":"2.0"},"bufferViews":[{"buffer":0,"byteOffset":0,"byteLength":576,"target":34962},{"buffer":0,"byteOffset":576,"byteLength":576,"target":34962},{"buffer":0,"byteOffset":1152,"byteLength":144,"target":34963},{"buffer":0,"byteOffset":1296,"byteLength":576,"target":34962},{"buffer":0,"byteOffset":1872,"byteLength":576,"target":34962},{"buffer":0,"byteOffset":2448,"byteLength":144,"target":34963}],"buffers":[{"byteLength":2592,"uri":"rail_fence.bin"}],"images":[],"materials":[{"doubleSided":true,"name":"Prop_OakDark","pbrMetallicRoughness":{"baseColorFactor":[0.18000000715255737,0.09000000357627869,0.03500000014901161,1],"metallicFactor":0,"roughnessFactor":0.8500000238418579}},{"doubleSided":true,"name":"Prop_Oak","pbrMetallicRoughness":{"baseColorFactor":[0.3199999928474426,0.17000000178813934,0.07000000029802322,1],"metallicFactor":0,"roughnessFactor":0.8500000238418579}}],"meshes":[{"name":"rail_fence","primitives":[{"attributes":{"NORMAL":0,"POSITION":1},"indices":2,"material":0},{"attributes":{"NORMAL":3,"POSITION":4},"indices":5,"material":1}]}],"nodes":[{"mesh":0,"name":"rail_fence"}],"scene":0,"scenes":[{"name":"Scene","nodes":[0]}],"textures":[]}