{"accessors":[{"bufferView":0,"componentType":5126,"count":120,"max":[0.41649824380874634,0.9779479503631592,0.5218290686607361],"min":[-0.5745878219604492,0,-0.47757336497306824],"type":"VEC3"},{"bufferView":1,"componentType":5126,"count":120,"type":"VEC3"},{"bufferView":2,"componentType":5126,"count":120,"type":"VEC2"},{"bufferView":3,"componentType":5123,"count":120,"type":"SCALAR"},{"bufferView":4,"componentType":5126,"count":192,"max":[0.5893161296844482,1.697005033493042,0.5646254420280457],"min":[-0.6218783855438232,0.0027751624584198,-0.5646254420280457],"type":"VEC3"},{"bufferView":5,"componentType":5126,"count":192,"type":"VEC3"},{"bufferView":6,"componentType":5126,"count":192,"type":"VEC2"},{"bufferView":7,"componentType":5123,"count":288,"type":"SCALAR"},{"bufferView":8,"componentType":5126,"count":180,"max":[0.6218783855438232,1.7767493724822998,0.5588449239730835],"min":[-0.5500533580780029,0.8459000587463379,-0.3053204119205475],"type":"VEC3"},{"bufferView":9,"componentType":5126,"count":180,"type":"VEC3"},{"bufferView":10,"componentType":5126,"count":180,"type":"VEC2"},{"bufferView":11,"componentType":5123,"count":288,"type":"SCALAR"}],"asset":{"generator":"Khronos glTF Blender I/O v5.2.40","version":"2.0"},"bufferViews":[{"buffer":0,"byteLength":1440,"byteOffset":0,"target":34962},{"buffer":0,"byteLength":1440,"byteOffset":1440,"target":34962},{"buffer":0,"byteLength":960,"byteOffset":2880,"target":34962},{"buffer":0,"byteLength":240,"byteOffset":3840,"target":34963},{"buffer":0,"byteLength":2304,"byteOffset":4080,"target":34962},{"buffer":0,"byteLength":2304,"byteOffset":6384,"target":34962},{"buffer":0,"byteLength":1536,"byteOffset":8688,"target":34962},{"buffer":0,"byteLength":576,"byteOffset":10224,"target":34963},{"buffer":0,"byteLength":2160,"byteOffset":10800,"target":34962},{"buffer":0,"byteLength":2160,"byteOffset":12960,"target":34962},{"buffer":0,"byteLength":1440,"byteOffset":15120,"target":34962},{"buffer":0,"byteLength":576,"byteOffset":16560,"target":34963}],"buffers":[{"byteLength":17136,"uri":"reeds.bin"}],"images":[],"materials":[{"doubleSided":true,"name":"Prop_Leaf","pbrMetallicRoughness":{"baseColorFactor":[0.07000000029802322,0.20000000298023224,0.03999999910593033,1],"metallicFactor":0,"roughnessFactor":0.8999999761581421}},{"doubleSided":true,"name":"Prop_Reed","pbrMetallicRoughness":{"baseColorFactor":[0.20000000298023224,0.30000001192092896,0.07999999821186066,1],"metallicFactor":0,"roughnessFactor":0.8999999761581421}},{"doubleSided":true,"name":"Prop_Cattail","pbrMetallicRoughness":{"baseColorFactor":[0.2199999988079071,0.11999999731779099,0.05000000074505806,1],"metallicFactor":0}}],"meshes":[{"name":"reeds","primitives":[{"attributes":{"NORMAL":1,"POSITION":0,"TEXCOORD_0":2},"indices":3,"material":0},{"attributes":{"NORMAL":5,"POSITION":4,"TEXCOORD_0":6},"indices":7,"material":1},{"attributes":{"NORMAL":9,"POSITION":8,"TEXCOORD_0":10},"indices":11,"material":2}]}],"nodes":[{"mesh":0,"name":"reeds"}],"scene":0,"scenes":[{"name":"Scene","nodes":[0]}],"textures":[]}
