{"accessors":[{"bufferView":0,"componentType":5126,"count":1658,"max":[4.9567179679870605,5.600559711456299,5.858181953430176],"min":[-4.9567179679870605,-0.7799561023712158,-5.851998329162598],"type":"VEC3"},{"bufferView":1,"componentType":5126,"count":1658,"type":"VEC3"},{"bufferView":2,"componentType":5126,"count":1658,"type":"VEC2"},{"bufferView":3,"componentType":5126,"count":1658,"type":"VEC2"},{"bufferView":4,"componentType":5123,"count":2508,"type":"SCALAR"},{"bufferView":5,"componentType":5126,"count":2030,"max":[4.975997447967529,6.001367092132568,6.0074462890625],"min":[-4.975997447967529,-0.5717926621437073,-5.844740390777588],"type":"VEC3"},{"bufferView":6,"componentType":5126,"count":2030,"type":"VEC3"},{"bufferView":7,"componentType":5126,"count":2030,"type":"VEC2"},{"bufferView":8,"componentType":5126,"count":2030,"type":"VEC2"},{"bufferView":9,"componentType":5123,"count":4884,"type":"SCALAR"}],"asset":{"generator":"Khronos glTF Blender I/O v5.2.40","version":"2.0"},"bufferViews":[{"buffer":0,"byteLength":19896,"byteOffset":0,"target":34962},{"buffer":0,"byteLength":19896,"byteOffset":19896,"target":34962},{"buffer":0,"byteLength":13264,"byteOffset":39792,"target":34962},{"buffer":0,"byteLength":13264,"byteOffset":53056,"target":34962},{"buffer":0,"byteLength":5016,"byteOffset":66320,"target":34963},{"buffer":0,"byteLength":24360,"byteOffset":71336,"target":34962},{"buffer":0,"byteLength":24360,"byteOffset":95696,"target":34962},{"buffer":0,"byteLength":16240,"byteOffset":120056,"target":34962},{"buffer":0,"byteLength":16240,"byteOffset":136296,"target":34962},{"buffer":0,"byteLength":9768,"byteOffset":152536,"target":34963}],"buffers":[{"byteLength":162304,"uri":"roof_round_tiles_8x10.bin"}],"images":[{"name":"T_RoundTiles_BaseColor","uri":"../village/T_RoundTiles_BaseColor.png"},{"name":"T_WoodTrim_BaseColor","uri":"../village/T_WoodTrim_BaseColor.png"}],"materials":[{"doubleSided":true,"name":"MI_WoodTrim","pbrMetallicRoughness":{"baseColorFactor":[1.0,1.0,1.0,1.0],"baseColorTexture":{"index":1},"metallicFactor":0}},{"doubleSided":true,"name":"MI_RoundTiles","pbrMetallicRoughness":{"baseColorFactor":[1.0,1.0,1.0,1.0],"baseColorTexture":{"index":0},"metallicFactor":0}}],"meshes":[{"name":"Cube.066","primitives":[{"attributes":{"NORMAL":1,"POSITION":0,"TEXCOORD_0":2,"TEXCOORD_1":3},"indices":4,"material":0},{"attributes":{"NORMAL":6,"POSITION":5,"TEXCOORD_0":7,"TEXCOORD_1":8},"indices":9,"material":1}]}],"nodes":[{"mesh":0,"name":"Roof_RoundTiles_8x10"}],"scene":0,"scenes":[{"name":"Scene","nodes":[0]}],"textures":[{"source":0},{"source":1}]}
