{"accessors":[{"bufferView":0,"componentType":5126,"count":24,"type":"VEC3"},{"bufferView":1,"componentType":5126,"count":24,"max":[2.049999952316284,3.0199999809265137,0.46000000834465027],"min":[-2.049999952316284,2.859999895095825,0.23999999463558197],"type":"VEC3"},{"bufferView":2,"componentType":5126,"count":24,"type":"VEC2"},{"bufferView":3,"componentType":5123,"count":36,"type":"SCALAR"},{"bufferView":4,"componentType":5126,"count":24,"type":"VEC3"},{"bufferView":5,"componentType":5126,"count":24,"max":[0.10508709400892258,2.999999761581421,0.11982007324695587],"min":[-0.10508733242750168,-1.5052728485898115e-07,-0.11982005089521408],"type":"VEC3"},{"bufferView":6,"componentType":5126,"count":24,"type":"VEC2"},{"bufferView":7,"componentType":5123,"count":36,"type":"SCALAR"},{"bufferView":8,"componentType":5126,"count":744,"type":"VEC3"},{"bufferView":9,"componentType":5126,"count":744,"max":[1.0737497806549072,2.3513262271881104,0.06314271688461304],"min":[-0.04626310616731644,0.033089637756347656,-0.05755755677819252],"type":"VEC3"},{"bufferView":10,"componentType":5126,"count":744,"type":"VEC2"},{"bufferView":11,"componentType":5123,"count":1362,"type":"SCALAR"},{"bufferView":12,"componentType":5126,"count":28,"type":"VEC3"},{"bufferView":13,"componentType":5126,"count":28,"max":[0.8667700886726379,1.7624019384384155,0.0312458835542202],"min":[0.1617247760295868,1.3117259740829468,0.031245503574609756],"type":"VEC3"},{"bufferView":14,"componentType":5123,"count":48,"type":"SCALAR"},{"bufferView":15,"componentType":5126,"count":364,"type":"VEC3"},{"bufferView":16,"componentType":5126,"count":364,"max":[0.7034913897514343,2.5548486709594727,0.29893577098846436],"min":[-0.7034929394721985,-0.008544921875,-0.24002820253372192],"type":"VEC3"},{"bufferView":17,"componentType":5126,"count":364,"type":"VEC2"},{"bufferView":18,"componentType":5123,"count":960,"type":"SCALAR"},{"bufferView":19,"componentType":5126,"count":64,"type":"VEC3"},{"bufferView":20,"componentType":5126,"count":64,"max":[1,0.009999990463256836,1],"min":[-1,-0.010000384412705898,-1],"type":"VEC3"},{"bufferView":21,"componentType":5126,"count":64,"type":"VEC2"},{"bufferView":22,"componentType":5123,"count":96,"type":"SCALAR"},{"bufferView":23,"componentType":5126,"count":129,"type":"VEC3"},{"bufferView":24,"componentType":5126,"count":129,"max":[0.4457784593105316,3,0.4940085709095001],"min":[-0.5000000596046448,5.820766091346741e-08,-0.49400854110717773],"type":"VEC3"},{"bufferView":25,"componentType":5126,"count":129,"type":"VEC2"},{"bufferView":26,"componentType":5123,"count":390,"type":"SCALAR"},{"bufferView":27,"componentType":5126,"count":352,"type":"VEC3"},{"bufferView":28,"componentType":5126,"count":352,"max":[2.215996026992798,2.6399998664855957,0.7941397428512573],"min":[-2.183807373046875,-0.13180206716060638,-0.33496367931365967],"type":"VEC3"},{"bufferView":29,"componentType":5126,"count":352,"type":"VEC2"},{"bufferView":30,"componentType":5123,"count":720,"type":"SCALAR"},{"bufferView":31,"componentType":5126,"count":16,"type":"VEC3"},{"bufferView":32,"componentType":5126,"count":16,"max":[2.188183546066284,2.9367027282714844,9.464429240324534e-12],"min":[-2.1137986183166504,0.019167041406035423,-0.2497011125087738],"type":"VEC3"},{"bufferView":33,"componentType":5126,"count":16,"type":"VEC2"},{"bufferView":34,"componentType":5123,"count":36,"type":"SCALAR"},{"bufferView":35,"componentType":5126,"count":1156,"type":"VEC3"},{"bufferView":36,"componentType":5126,"count":1156,"max":[2.5676212310791016,3.200705051422119,4.828753471374512],"min":[-2.5676212310791016,-0.5157185792922974,-4.828753471374512],"type":"VEC3"},{"bufferView":37,"componentType":5126,"count":1156,"type":"VEC2"},{"bufferView":38,"componentType":5123,"count":1860,"type":"SCALAR"},{"bufferView":39,"componentType":5126,"count":1426,"type":"VEC3"},{"bufferView":40,"componentType":5126,"count":1426,"max":[2.756538152694702,3.713447093963623,4.8539862632751465],"min":[-2.756538152694702,-0.3878333568572998,-4.756110191345215],"type":"VEC3"},{"bufferView":41,"componentType":5126,"count":1426,"type":"VEC2"},{"bufferView":42,"componentType":5123,"count":3747,"type":"SCALAR"},{"bufferView":43,"componentType":5126,"count":124,"type":"VEC3"},{"bufferView":44,"componentType":5126,"count":124,"max":[0.09985005855560303,0.06566542387008667,0.7651262283325195],"min":[-0.09984996169805527,-0.6772639155387878,-1.62676236925563e-08],"type":"VEC3"},{"bufferView":45,"componentType":5126,"count":124,"type":"VEC2"},{"bufferView":46,"componentType":5123,"count":252,"type":"SCALAR"},{"bufferView":47,"componentType":5126,"count":24,"type":"VEC3"},{"bufferView":48,"componentType":5126,"count":24,"max":[1.7999999523162842,0.18000000715255737,0.75],"min":[0.20000000298023224,0,0.10000000149011612],"type":"VEC3"},{"bufferView":49,"componentType":5126,"count":24,"type":"VEC2"},{"bufferView":50,"componentType":5126,"count":126,"type":"VEC3"},{"bufferView":51,"componentType":5126,"count":126,"max":[1,3.1226887702941895,0.0924467146396637],"min":[-1.0000001192092896,-0.0020958781242370605,-0.3140353262424469],"type":"VEC3"},{"bufferView":52,"componentType":5126,"count":126,"type":"VEC2"},{"bufferView":53,"componentType":5123,"count":240,"type":"SCALAR"},{"bufferView":54,"componentType":5126,"count":12,"type":"VEC3"},{"bufferView":55,"componentType":5126,"count":12,"max":[1,3,1.3113415775478643e-07],"min":[-1,0,-0.2000000923871994],"type":"VEC3"},{"bufferView":56,"componentType":5126,"count":12,"type":"VEC2"},{"bufferView":57,"componentType":5123,"count":18,"type":"SCALAR"},{"bufferView":58,"componentType":5126,"count":96,"type":"VEC3"},{"bufferView":59,"componentType":5126,"count":96,"max":[1.0017778873443604,3.1226887702941895,0.0924467146396637],"min":[-1.0000001192092896,0.6495776176452637,-0.3140353262424469],"type":"VEC3"},{"bufferView":60,"componentType":5126,"count":96,"type":"VEC2"},{"bufferView":61,"componentType":5123,"count":198,"type":"SCALAR"},{"bufferView":62,"componentType":5126,"count":8,"type":"VEC3"},{"bufferView":63,"componentType":5126,"count":8,"max":[1,3,1.3113415775478643e-07],"min":[-1,0,-0.2000000923871994],"type":"VEC3"},{"bufferView":64,"componentType":5126,"count":8,"type":"VEC2"},{"bufferView":65,"componentType":5123,"count":12,"type":"SCALAR"},{"bufferView":66,"componentType":5126,"count":4,"type":"VEC3"},{"bufferView":67,"componentType":5126,"count":4,"max":[1,0.8799999952316284,4.371138828673793e-08],"min":[-1,0,0],"type":"VEC3"},{"bufferView":68,"componentType":5126,"count":4,"type":"VEC2"},{"bufferView":69,"componentType":5123,"count":6,"type":"SCALAR"},{"bufferView":70,"componentType":5126,"count":96,"type":"VEC3"},{"bufferView":71,"componentType":5126,"count":96,"max":[1,3.1226887702941895,0.0924467146396637],"min":[-1.0017778873443604,0.6495776176452637,-0.3140353262424469],"type":"VEC3"},{"bufferView":72,"componentType":5126,"count":96,"type":"VEC2"},{"bufferView":73,"componentType":5123,"count":198,"type":"SCALAR"},{"bufferView":74,"componentType":5126,"count":8,"type":"VEC3"},{"bufferView":75,"componentType":5126,"count":8,"max":[1,3,1.3113415775478643e-07],"min":[-1,0,-0.2000000923871994],"type":"VEC3"},{"bufferView":76,"componentType":5126,"count":8,"type":"VEC2"},{"bufferView":77,"componentType":5126,"count":4,"type":"VEC3"},{"bufferView":78,"componentType":5126,"count":4,"max":[1,0.8799999952316284,4.371138828673793e-08],"min":[-1,0,0],"type":"VEC3"},{"bufferView":79,"componentType":5126,"count":4,"type":"VEC2"},{"bufferView":80,"componentType":5126,"count":88,"type":"VEC3"},{"bufferView":81,"componentType":5126,"count":88,"max":[1,3,1.3113415775478643e-07],"min":[-1,0,-0.2000000923871994],"type":"VEC3"},{"bufferView":82,"componentType":5126,"count":88,"type":"VEC2"},{"bufferView":83,"componentType":5123,"count":264,"type":"SCALAR"},{"bufferView":84,"componentType":5126,"count":22,"type":"VEC3"},{"bufferView":85,"componentType":5126,"count":22,"max":[1,0.8799999952316284,4.371138828673793e-08],"min":[-1,0,0],"type":"VEC3"},{"bufferView":86,"componentType":5126,"count":22,"type":"VEC2"},{"bufferView":87,"componentType":5123,"count":60,"type":"SCALAR"},{"bufferView":88,"componentType":5126,"count":104,"type":"VEC3"},{"bufferView":89,"componentType":5126,"count":104,"max":[1,3.1226887702941895,0.0924467146396637],"min":[-1.0000001192092896,0.6495776176452637,-0.3140353262424469],"type":"VEC3"},{"bufferView":90,"componentType":5126,"count":104,"type":"VEC2"},{"bufferView":91,"componentType":5123,"count":174,"type":"SCALAR"},{"bufferView":92,"componentType":5126,"count":32,"type":"VEC3"},{"bufferView":93,"componentType":5126,"count":32,"max":[1,3,1.3113417196564114e-07],"min":[-1,0,-0.2000000923871994],"type":"VEC3"},{"bufferView":94,"componentType":5126,"count":32,"type":"VEC2"},{"bufferView":95,"componentType":5123,"count":96,"type":"SCALAR"},{"bufferView":96,"componentType":5126,"count":8,"type":"VEC3"},{"bufferView":97,"componentType":5126,"count":8,"max":[1,0.8799999952316284,4.371138828673793e-08],"min":[-1,0,0],"type":"VEC3"},{"bufferView":98,"componentType":5126,"count":8,"type":"VEC2"},{"bufferView":99,"componentType":5123,"count":18,"type":"SCALAR"},{"bufferView":100,"componentType":5126,"count":80,"type":"VEC3"},{"bufferView":101,"componentType":5126,"count":80,"max":[1,3.1226887702941895,0.0924467146396637],"min":[-1.0000001192092896,0.6495776176452637,-0.3140353262424469],"type":"VEC3"},{"bufferView":102,"componentType":5126,"count":80,"type":"VEC2"},{"bufferView":103,"componentType":5123,"count":174,"type":"SCALAR"},{"bufferView":104,"componentType":5126,"count":80,"type":"VEC3"},{"bufferView":105,"componentType":5126,"count":80,"max":[1,3.1226887702941895,0.0924467146396637],"min":[-1.0000001192092896,0.6495776176452637,-0.3140353262424469],"type":"VEC3"},{"bufferView":106,"componentType":5126,"count":80,"type":"VEC2"},{"bufferView":107,"componentType":5123,"count":174,"type":"SCALAR"},{"bufferView":108,"componentType":5126,"count":60,"type":"VEC3"},{"bufferView":109,"componentType":5126,"count":60,"max":[1,3,1.3113417196564114e-07],"min":[-1,0,-0.2000000923871994],"type":"VEC3"},{"bufferView":110,"componentType":5126,"count":60,"type":"VEC2"},{"bufferView":111,"componentType":5123,"count":180,"type":"SCALAR"},{"bufferView":112,"componentType":5126,"count":8,"type":"VEC3"},{"bufferView":113,"componentType":5126,"count":8,"max":[1,0.8799999952316284,4.371138828673793e-08],"min":[-1,0,0],"type":"VEC3"},{"bufferView":114,"componentType":5126,"count":8,"type":"VEC2"},{"bufferView":115,"componentType":5126,"count":64,"type":"VEC3"},{"bufferView":116,"componentType":5126,"count":64,"max":[1,3.1226887702941895,0.09244640171527863],"min":[-1.0000001192092896,2.877309799194336,-0.3140353262424469],"type":"VEC3"},{"bufferView":117,"componentType":5126,"count":64,"type":"VEC2"},{"bufferView":118,"componentType":5123,"count":150,"type":"SCALAR"},{"bufferView":119,"componentType":5126,"count":35,"type":"VEC3"},{"bufferView":120,"componentType":5126,"count":35,"max":[1,3,-0.19999991357326508],"min":[-1,0,-0.2000000923871994],"type":"VEC3"},{"bufferView":121,"componentType":5126,"count":35,"type":"VEC2"},{"bufferView":122,"componentType":5123,"count":123,"type":"SCALAR"},{"bufferView":123,"componentType":5126,"count":43,"type":"VEC3"},{"bufferView":124,"componentType":5126,"count":43,"max":[1,3,1.3113415775478643e-07],"min":[-1,0,0],"type":"VEC3"},{"bufferView":125,"componentType":5126,"count":43,"type":"VEC2"},{"bufferView":126,"componentType":5123,"count":135,"type":"SCALAR"},{"bufferView":127,"componentType":5126,"count":64,"type":"VEC3"},{"bufferView":128,"componentType":5126,"count":64,"max":[1,3.1226887702941895,0.09244640171527863],"min":[-1.0000001192092896,2.877309799194336,-0.3140353262424469],"type":"VEC3"},{"bufferView":129,"componentType":5126,"count":64,"type":"VEC2"},{"bufferView":130,"componentType":5126,"count":4,"type":"VEC3"},{"bufferView":131,"componentType":5126,"count":4,"max":[1,3,-0.19999991357326508],"min":[-1,0,-0.2000000923871994],"type":"VEC3"},{"bufferView":132,"componentType":5126,"count":4,"type":"VEC2"},{"bufferView":133,"componentType":5123,"count":6,"type":"SCALAR"},{"bufferView":134,"componentType":5126,"count":8,"type":"VEC3"},{"bufferView":135,"componentType":5126,"count":8,"max":[1,3,1.3113415775478643e-07],"min":[-1,0,0],"type":"VEC3"},{"bufferView":136,"componentType":5126,"count":8,"type":"VEC2"},{"bufferView":137,"componentType":5123,"count":12,"type":"SCALAR"},{"bufferView":138,"componentType":5126,"count":64,"type":"VEC3"},{"bufferView":139,"componentType":5126,"count":64,"max":[1,3.1226887702941895,0.09244640171527863],"min":[-1.0000001192092896,2.877309799194336,-0.3140353262424469],"type":"VEC3"},{"bufferView":140,"componentType":5126,"count":64,"type":"VEC2"},{"bufferView":141,"componentType":5126,"count":44,"type":"VEC3"},{"bufferView":142,"componentType":5126,"count":44,"max":[1,3,-0.19999991357326508],"min":[-1,0,-0.2000000923871994],"type":"VEC3"},{"bufferView":143,"componentType":5126,"count":44,"type":"VEC2"},{"bufferView":144,"componentType":5123,"count":132,"type":"SCALAR"},{"bufferView":145,"componentType":5126,"count":57,"type":"VEC3"},{"bufferView":146,"componentType":5126,"count":57,"max":[1,3,1.3113415775478643e-07],"min":[-1,0,0],"type":"VEC3"},{"bufferView":147,"componentType":5126,"count":57,"type":"VEC2"},{"bufferView":148,"componentType":5123,"count":192,"type":"SCALAR"},{"bufferView":149,"componentType":5126,"count":140,"type":"VEC3"},{"bufferView":150,"componentType":5126,"count":140,"max":[0.755696713924408,2.5192716121673584,1.1012494564056396],"min":[-0.6607890129089355,1.3382160663604736,-0.07780461013317108],"type":"VEC3"},{"bufferView":151,"componentType":5126,"count":140,"type":"VEC2"},{"bufferView":152,"componentType":5123,"count":198,"type":"SCALAR"},{"bufferView":153,"componentType":5126,"count":402,"type":"VEC3"},{"bufferView":154,"componentType":5126,"count":402,"max":[0.44381028413772583,2.6207287311553955,0.0923665463924408],"min":[-0.44381028413772583,1.01604425907135,-0.2520223557949066],"type":"VEC3"},{"bufferView":155,"componentType":5126,"count":402,"type":"VEC2"},{"bufferView":156,"componentType":5123,"count":786,"type":"SCALAR"},{"bufferView":157,"componentType":5126,"count":83,"type":"VEC3"},{"bufferView":158,"componentType":5126,"count":83,"max":[0.277061402797699,2.478931427001953,0.003888234496116638],"min":[-0.27893951535224915,1.0875728130340576,0.0038879886269569397],"type":"VEC3"},{"bufferView":159,"componentType":5123,"count":153,"type":"SCALAR"},{"bufferView":160,"componentType":5126,"count":272,"type":"VEC3"},{"bufferView":161,"componentType":5126,"count":272,"max":[0.8041172027587891,2.5242888927459717,0.4168574810028076],"min":[-0.8041191101074219,0.94417804479599,-0.26658084988594055],"type":"VEC3"},{"bufferView":162,"componentType":5126,"count":272,"type":"VEC2"},{"bufferView":163,"componentType":5123,"count":408,"type":"SCALAR"},{"bufferView":164,"componentType":5126,"count":45,"type":"VEC3"},{"bufferView":165,"componentType":5126,"count":45,"max":[0.5054702758789062,2.355356216430664,0.003888234496116638],"min":[-0.5054721832275391,1.0971393585205078,0.0038878247141838074],"type":"VEC3"},{"bufferView":166,"componentType":5123,"count":72,"type":"SCALAR"},{"bufferView":167,"componentType":5126,"count":340,"type":"VEC3"},{"bufferView":168,"componentType":5126,"count":340,"max":[0.691490113735199,2.741780996322632,0.27729201316833496],"min":[-0.691490113735199,1.01604425907135,-0.2522830367088318],"type":"VEC3"},{"bufferView":169,"componentType":5126,"count":340,"type":"VEC2"},{"bufferView":170,"componentType":5123,"count":672,"type":"SCALAR"},{"bufferView":171,"componentType":5126,"count":63,"type":"VEC3"},{"bufferView":172,"componentType":5126,"count":63,"max":[0.5413169860839844,2.6192541122436523,0.0038883001543581486],"min":[-0.5445477962493896,1.0647618770599365,0.003887913655489683],"type":"VEC3"},{"bufferView":173,"componentType":5123,"count":123,"type":"SCALAR"},{"bufferView":174,"componentType":5126,"count":222,"type":"VEC3"},{"bufferView":175,"componentType":5126,"count":222,"max":[0.7867056131362915,2.6116669178009033,0.4355051815509796],"min":[-0.8195725083351135,1.0932440757751465,0.059017062187194824],"type":"VEC3"},{"bufferView":176,"componentType":5126,"count":222,"type":"VEC2"},{"bufferView":177,"componentType":5123,"count":336,"type":"SCALAR"},{"bufferView":178,"componentType":5126,"count":272,"type":"VEC3"},{"bufferView":179,"componentType":5126,"count":272,"max":[1.1035263538360596,2.740431785583496,0.56315016746521],"min":[-1.199957251548767,1.0932440757751465,0.09079486131668091],"type":"VEC3"},{"bufferView":180,"componentType":5126,"count":272,"type":"VEC2"},{"bufferView":181,"componentType":5123,"count":408,"type":"SCALAR"}],"asset":{"generator":"Khronos glTF Blender I/O v5.2.40","version":"2.0"},"bufferViews":[{"buffer":0,"byteOffset":0,"byteLength":288,"target":34962},{"buffer":0,"byteOffset":288,"byteLength":288,"target":34962},{"buffer":0,"byteOffset":576,"byteLength":192,"target":34962},{"buffer":0,"byteOffset":768,"byteLength":72,"target":34963},{"buffer":0,"byteOffset":840,"byteLength":288,"target":34962},{"buffer":0,"byteOffset":1128,"byteLength":288,"target":34962},{"buffer":0,"byteOffset":1416,"byteLength":192,"target":34962},{"buffer":0,"byteOffset":1608,"byteLength":72,"target":34963},{"buffer":0,"byteOffset":1680,"byteLength":8928,"target":34962},{"buffer":0,"byteOffset":10608,"byteLength":8928,"target":34962},{"buffer":0,"byteOffset":19536,"byteLength":5952,"target":34962},{"buffer":0,"byteOffset":25488,"byteLength":2724,"target":34963},{"buffer":0,"byteOffset":28212,"byteLength":336,"target":34962},{"buffer":0,"byteOffset":28548,"byteLength":336,"target":34962},{"buffer":0,"byteOffset":28884,"byteLength":96,"target":34963},{"buffer":0,"byteOffset":28980,"byteLength":4368,"target":34962},{"buffer":0,"byteOffset":33348,"byteLength":4368,"target":34962},{"buffer":0,"byteOffset":37716,"byteLength":2912,"target":34962},{"buffer":0,"byteOffset":40628,"byteLength":1920,"target":34963},{"buffer":0,"byteOffset":42548,"byteLength":768,"target":34962},{"buffer":0,"byteOffset":43316,"byteLength":768,"target":34962},{"buffer":0,"byteOffset":44084,"byteLength":512,"target":34962},{"buffer":0,"byteOffset":44596,"byteLength":192,"target":34963},{"buffer":0,"byteOffset":44788,"byteLength":1548,"target":34962},{"buffer":0,"byteOffset":46336,"byteLength":1548,"target":34962},{"buffer":0,"byteOffset":47884,"byteLength":1032,"target":34962},{"buffer":0,"byteOffset":48916,"byteLength":780,"target":34963},{"buffer":0,"byteOffset":49696,"byteLength":4224,"target":34962},{"buffer":0,"byteOffset":53920,"byteLength":4224,"target":34962},{"buffer":0,"byteOffset":58144,"byteLength":2816,"target":34962},{"buffer":0,"byteOffset":60960,"byteLength":1440,"target":34963},{"buffer":0,"byteOffset":62400,"byteLength":192,"target":34962},{"buffer":0,"byteOffset":62592,"byteLength":192,"target":34962},{"buffer":0,"byteOffset":62784,"byteLength":128,"target":34962},{"buffer":0,"byteOffset":62912,"byteLength":72,"target":34963},{"buffer":0,"byteOffset":62984,"byteLength":13872,"target":34962},{"buffer":0,"byteOffset":76856,"byteLength":13872,"target":34962},{"buffer":0,"byteOffset":90728,"byteLength":9248,"target":34962},{"buffer":0,"byteOffset":99976,"byteLength":3720,"target":34963},{"buffer":0,"byteOffset":103696,"byteLength":17112,"target":34962},{"buffer":0,"byteOffset":120808,"byteLength":17112,"target":34962},{"buffer":0,"byteOffset":137920,"byteLength":11408,"target":34962},{"buffer":0,"byteOffset":149328,"byteLength":7494,"target":34963},{"buffer":0,"byteOffset":156824,"byteLength":1488,"target":34962},{"buffer":0,"byteOffset":158312,"byteLength":1488,"target":34962},{"buffer":0,"byteOffset":159800,"byteLength":992,"target":34962},{"buffer":0,"byteOffset":160792,"byteLength":504,"target":34963},{"buffer":0,"byteOffset":161296,"byteLength":288,"target":34962},{"buffer":0,"byteOffset":161584,"byteLength":288,"target":34962},{"buffer":0,"byteOffset":161872,"byteLength":192,"target":34962},{"buffer":0,"byteOffset":162064,"byteLength":1512,"target":34962},{"buffer":0,"byteOffset":163576,"byteLength":1512,"target":34962},{"buffer":0,"byteOffset":165088,"byteLength":1008,"target":34962},{"buffer":0,"byteOffset":166096,"byteLength":480,"target":34963},{"buffer":0,"byteOffset":166576,"byteLength":144,"target":34962},{"buffer":0,"byteOffset":166720,"byteLength":144,"target":34962},{"buffer":0,"byteOffset":166864,"byteLength":96,"target":34962},{"buffer":0,"byteOffset":166960,"byteLength":36,"target":34963},{"buffer":0,"byteOffset":166996,"byteLength":1152,"target":34962},{"buffer":0,"byteOffset":168148,"byteLength":1152,"target":34962},{"buffer":0,"byteOffset":169300,"byteLength":768,"target":34962},{"buffer":0,"byteOffset":170068,"byteLength":396,"target":34963},{"buffer":0,"byteOffset":170464,"byteLength":96,"target":34962},{"buffer":0,"byteOffset":170560,"byteLength":96,"target":34962},{"buffer":0,"byteOffset":170656,"byteLength":64,"target":34962},{"buffer":0,"byteOffset":170720,"byteLength":24,"target":34963},{"buffer":0,"byteOffset":170744,"byteLength":48,"target":34962},{"buffer":0,"byteOffset":170792,"byteLength":48,"target":34962},{"buffer":0,"byteOffset":170840,"byteLength":32,"target":34962},{"buffer":0,"byteOffset":170872,"byteLength":12,"target":34963},{"buffer":0,"byteOffset":170884,"byteLength":1152,"target":34962},{"buffer":0,"byteOffset":172036,"byteLength":1152,"target":34962},{"buffer":0,"byteOffset":173188,"byteLength":768,"target":34962},{"buffer":0,"byteOffset":173956,"byteLength":396,"target":34963},{"buffer":0,"byteOffset":174352,"byteLength":96,"target":34962},{"buffer":0,"byteOffset":174448,"byteLength":96,"target":34962},{"buffer":0,"byteOffset":174544,"byteLength":64,"target":34962},{"buffer":0,"byteOffset":174608,"byteLength":48,"target":34962},{"buffer":0,"byteOffset":174656,"byteLength":48,"target":34962},{"buffer":0,"byteOffset":174704,"byteLength":32,"target":34962},{"buffer":0,"byteOffset":174736,"byteLength":1056,"target":34962},{"buffer":0,"byteOffset":175792,"byteLength":1056,"target":34962},{"buffer":0,"byteOffset":176848,"byteLength":704,"target":34962},{"buffer":0,"byteOffset":177552,"byteLength":528,"target":34963},{"buffer":0,"byteOffset":178080,"byteLength":264,"target":34962},{"buffer":0,"byteOffset":178344,"byteLength":264,"target":34962},{"buffer":0,"byteOffset":178608,"byteLength":176,"target":34962},{"buffer":0,"byteOffset":178784,"byteLength":120,"target":34963},{"buffer":0,"byteOffset":178904,"byteLength":1248,"target":34962},{"buffer":0,"byteOffset":180152,"byteLength":1248,"target":34962},{"buffer":0,"byteOffset":181400,"byteLength":832,"target":34962},{"buffer":0,"byteOffset":182232,"byteLength":348,"target":34963},{"buffer":0,"byteOffset":182580,"byteLength":384,"target":34962},{"buffer":0,"byteOffset":182964,"byteLength":384,"target":34962},{"buffer":0,"byteOffset":183348,"byteLength":256,"target":34962},{"buffer":0,"byteOffset":183604,"byteLength":192,"target":34963},{"buffer":0,"byteOffset":183796,"byteLength":96,"target":34962},{"buffer":0,"byteOffset":183892,"byteLength":96,"target":34962},{"buffer":0,"byteOffset":183988,"byteLength":64,"target":34962},{"buffer":0,"byteOffset":184052,"byteLength":36,"target":34963},{"buffer":0,"byteOffset":184088,"byteLength":960,"target":34962},{"buffer":0,"byteOffset":185048,"byteLength":960,"target":34962},{"buffer":0,"byteOffset":186008,"byteLength":640,"target":34962},{"buffer":0,"byteOffset":186648,"byteLength":348,"target":34963},{"buffer":0,"byteOffset":186996,"byteLength":960,"target":34962},{"buffer":0,"byteOffset":187956,"byteLength":960,"target":34962},{"buffer":0,"byteOffset":188916,"byteLength":640,"target":34962},{"buffer":0,"byteOffset":189556,"byteLength":348,"target":34963},{"buffer":0,"byteOffset":189904,"byteLength":720,"target":34962},{"buffer":0,"byteOffset":190624,"byteLength":720,"target":34962},{"buffer":0,"byteOffset":191344,"byteLength":480,"target":34962},{"buffer":0,"byteOffset":191824,"byteLength":360,"target":34963},{"buffer":0,"byteOffset":192184,"byteLength":96,"target":34962},{"buffer":0,"byteOffset":192280,"byteLength":96,"target":34962},{"buffer":0,"byteOffset":192376,"byteLength":64,"target":34962},{"buffer":0,"byteOffset":192440,"byteLength":768,"target":34962},{"buffer":0,"byteOffset":193208,"byteLength":768,"target":34962},{"buffer":0,"byteOffset":193976,"byteLength":512,"target":34962},{"buffer":0,"byteOffset":194488,"byteLength":300,"target":34963},{"buffer":0,"byteOffset":194788,"byteLength":420,"target":34962},{"buffer":0,"byteOffset":195208,"byteLength":420,"target":34962},{"buffer":0,"byteOffset":195628,"byteLength":280,"target":34962},{"buffer":0,"byteOffset":195908,"byteLength":246,"target":34963},{"buffer":0,"byteOffset":196156,"byteLength":516,"target":34962},{"buffer":0,"byteOffset":196672,"byteLength":516,"target":34962},{"buffer":0,"byteOffset":197188,"byteLength":344,"target":34962},{"buffer":0,"byteOffset":197532,"byteLength":270,"target":34963},{"buffer":0,"byteOffset":197804,"byteLength":768,"target":34962},{"buffer":0,"byteOffset":198572,"byteLength":768,"target":34962},{"buffer":0,"byteOffset":199340,"byteLength":512,"target":34962},{"buffer":0,"byteOffset":199852,"byteLength":48,"target":34962},{"buffer":0,"byteOffset":199900,"byteLength":48,"target":34962},{"buffer":0,"byteOffset":199948,"byteLength":32,"target":34962},{"buffer":0,"byteOffset":199980,"byteLength":12,"target":34963},{"buffer":0,"byteOffset":199992,"byteLength":96,"target":34962},{"buffer":0,"byteOffset":200088,"byteLength":96,"target":34962},{"buffer":0,"byteOffset":200184,"byteLength":64,"target":34962},{"buffer":0,"byteOffset":200248,"byteLength":24,"target":34963},{"buffer":0,"byteOffset":200272,"byteLength":768,"target":34962},{"buffer":0,"byteOffset":201040,"byteLength":768,"target":34962},{"buffer":0,"byteOffset":201808,"byteLength":512,"target":34962},{"buffer":0,"byteOffset":202320,"byteLength":528,"target":34962},{"buffer":0,"byteOffset":202848,"byteLength":528,"target":34962},{"buffer":0,"byteOffset":203376,"byteLength":352,"target":34962},{"buffer":0,"byteOffset":203728,"byteLength":264,"target":34963},{"buffer":0,"byteOffset":203992,"byteLength":684,"target":34962},{"buffer":0,"byteOffset":204676,"byteLength":684,"target":34962},{"buffer":0,"byteOffset":205360,"byteLength":456,"target":34962},{"buffer":0,"byteOffset":205816,"byteLength":384,"target":34963},{"buffer":0,"byteOffset":206200,"byteLength":1680,"target":34962},{"buffer":0,"byteOffset":207880,"byteLength":1680,"target":34962},{"buffer":0,"byteOffset":209560,"byteLength":1120,"target":34962},{"buffer":0,"byteOffset":210680,"byteLength":396,"target":34963},{"buffer":0,"byteOffset":211076,"byteLength":4824,"target":34962},{"buffer":0,"byteOffset":215900,"byteLength":4824,"target":34962},{"buffer":0,"byteOffset":220724,"byteLength":3216,"target":34962},{"buffer":0,"byteOffset":223940,"byteLength":1572,"target":34963},{"buffer":0,"byteOffset":225512,"byteLength":996,"target":34962},{"buffer":0,"byteOffset":226508,"byteLength":996,"target":34962},{"buffer":0,"byteOffset":227504,"byteLength":306,"target":34963},{"buffer":0,"byteOffset":227812,"byteLength":3264,"target":34962},{"buffer":0,"byteOffset":231076,"byteLength":3264,"target":34962},{"buffer":0,"byteOffset":234340,"byteLength":2176,"target":34962},{"buffer":0,"byteOffset":236516,"byteLength":816,"target":34963},{"buffer":0,"byteOffset":237332,"byteLength":540,"target":34962},{"buffer":0,"byteOffset":237872,"byteLength":540,"target":34962},{"buffer":0,"byteOffset":238412,"byteLength":144,"target":34963},{"buffer":0,"byteOffset":238556,"byteLength":4080,"target":34962},{"buffer":0,"byteOffset":242636,"byteLength":4080,"target":34962},{"buffer":0,"byteOffset":246716,"byteLength":2720,"target":34962},{"buffer":0,"byteOffset":249436,"byteLength":1344,"target":34963},{"buffer":0,"byteOffset":250780,"byteLength":756,"target":34962},{"buffer":0,"byteOffset":251536,"byteLength":756,"target":34962},{"buffer":0,"byteOffset":252292,"byteLength":246,"target":34963},{"buffer":0,"byteOffset":252540,"byteLength":2664,"target":34962},{"buffer":0,"byteOffset":255204,"byteLength":2664,"target":34962},{"buffer":0,"byteOffset":257868,"byteLength":1776,"target":34962},{"buffer":0,"byteOffset":259644,"byteLength":672,"target":34963},{"buffer":0,"byteOffset":260316,"byteLength":3264,"target":34962},{"buffer":0,"byteOffset":263580,"byteLength":3264,"target":34962},{"buffer":0,"byteOffset":266844,"byteLength":2176,"target":34962},{"buffer":0,"byteOffset":269020,"byteLength":816,"target":34963}],"buffers":[{"byteLength":269836,"uri":"row_townhouse.bin"}],"images":[{"name":"T_Plaster_Luma","uri":"../village/T_Plaster_Luma.png"},{"name":"T_RockTrim_BaseColor","uri":"../village/T_RockTrim_BaseColor.png"},{"name":"T_RoundTiles_Luma","uri":"../village/T_RoundTiles_Luma.png"},{"name":"T_UnevenBrick_BaseColor","uri":"../village/T_UnevenBrick_BaseColor.png"},{"name":"T_WoodTrim_BaseColor","uri":"../village/T_WoodTrim_BaseColor.png"}],"materials":[{"doubleSided":true,"name":"Wood_dark","pbrMetallicRoughness":{"baseColorFactor":[0.2329,0.2659,0.2944,1.0],"baseColorTexture":{"index":4},"metallicFactor":0,"roughnessFactor":0.8500000238418579}},{"doubleSided":true,"name":"Glass","pbrMetallicRoughness":{"baseColorFactor":[0.03310476616024971,0.05087608844041824,0.07828831672668457,1],"metallicFactor":0,"roughnessFactor":0.20000000298023224}},{"doubleSided":true,"name":"Stone","pbrMetallicRoughness":{"baseColorFactor":[1.0,0.9974,0.9977,1.0],"baseColorTexture":{"index":3},"metallicFactor":0,"roughnessFactor":0.8500000238418579}},{"doubleSided":true,"name":"Plaster_rose","pbrMetallicRoughness":{"baseColorFactor":[0.9099,0.5391,0.4777,1.0],"baseColorTexture":{"index":0},"metallicFactor":0,"roughnessFactor":0.8500000238418579}},{"doubleSided":true,"name":"Tiles_slate","pbrMetallicRoughness":{"baseColorFactor":[0.1477,0.1884,0.2641,1.0],"baseColorTexture":{"index":2},"metallicFactor":0,"roughnessFactor":0.699999988079071}},{"doubleSided":true,"name":"RockTrim","pbrMetallicRoughness":{"baseColorFactor":[1.0,0.9979,1.0,1.0],"baseColorTexture":{"index":1},"metallicFactor":0,"roughnessFactor":0.8500000238418579}}],"meshes":[{"name":"Beam","primitives":[{"attributes":{"NORMAL":0,"POSITION":1,"TEXCOORD_0":2},"indices":3,"material":0}]},{"name":"kit_Corner_Exterior_Wood","primitives":[{"attributes":{"NORMAL":4,"POSITION":5,"TEXCOORD_0":6},"indices":7,"material":0}]},{"name":"kit_Door_1_Round","primitives":[{"attributes":{"NORMAL":8,"POSITION":9,"TEXCOORD_0":10},"indices":11,"material":0},{"attributes":{"NORMAL":12,"POSITION":13},"indices":14,"material":1}]},{"name":"kit_DoorFrame_Round_WoodDark","primitives":[{"attributes":{"NORMAL":15,"POSITION":16,"TEXCOORD_0":17},"indices":18,"material":0}]},{"name":"kit_Floor_WoodDark","primitives":[{"attributes":{"NORMAL":19,"POSITION":20,"TEXCOORD_0":21},"indices":22,"material":0}]},{"name":"kit_Prop_Chimney2","primitives":[{"attributes":{"NORMAL":23,"POSITION":24,"TEXCOORD_0":25},"indices":26,"material":2}]},{"name":"kit_Roof_Front_Brick4","primitives":[{"attributes":{"NORMAL":27,"POSITION":28,"TEXCOORD_0":29},"indices":30,"material":0},{"attributes":{"NORMAL":31,"POSITION":32,"TEXCOORD_0":33},"indices":34,"material":3}]},{"name":"kit_Roof_RoundTiles_4x8.001","primitives":[{"attributes":{"NORMAL":35,"POSITION":36,"TEXCOORD_0":37},"indices":38,"material":0},{"attributes":{"NORMAL":39,"POSITION":40,"TEXCOORD_0":41},"indices":42,"material":4}]},{"name":"kit_Roof_Support2","primitives":[{"attributes":{"NORMAL":43,"POSITION":44,"TEXCOORD_0":45},"indices":46,"material":0}]},{"name":"Step","primitives":[{"attributes":{"NORMAL":47,"POSITION":48,"TEXCOORD_0":49},"indices":3,"material":5}]},{"name":"kit_Wall_Plaster_Straight.001","primitives":[{"attributes":{"NORMAL":50,"POSITION":51,"TEXCOORD_0":52},"indices":53,"material":0},{"attributes":{"NORMAL":54,"POSITION":55,"TEXCOORD_0":56},"indices":57,"material":3}]},{"name":"kit_Wall_Plaster_Straight_L.001","primitives":[{"attributes":{"NORMAL":58,"POSITION":59,"TEXCOORD_0":60},"indices":61,"material":0},{"attributes":{"NORMAL":62,"POSITION":63,"TEXCOORD_0":64},"indices":65,"material":3},{"attributes":{"NORMAL":66,"POSITION":67,"TEXCOORD_0":68},"indices":69,"material":3}]},{"name":"kit_Wall_Plaster_Straight_R.001","primitives":[{"attributes":{"NORMAL":70,"POSITION":71,"TEXCOORD_0":72},"indices":73,"material":0},{"attributes":{"NORMAL":74,"POSITION":75,"TEXCOORD_0":76},"indices":65,"material":3},{"attributes":{"NORMAL":77,"POSITION":78,"TEXCOORD_0":79},"indices":69,"material":3}]},{"name":"kit_Wall_Plaster_Window_Thin_Round.001","primitives":[{"attributes":{"NORMAL":80,"POSITION":81,"TEXCOORD_0":82},"indices":83,"material":3},{"attributes":{"NORMAL":84,"POSITION":85,"TEXCOORD_0":86},"indices":87,"material":3},{"attributes":{"NORMAL":88,"POSITION":89,"TEXCOORD_0":90},"indices":91,"material":0}]},{"name":"kit_Wall_Plaster_Window_Wide_Flat.001","primitives":[{"attributes":{"NORMAL":92,"POSITION":93,"TEXCOORD_0":94},"indices":95,"material":3},{"attributes":{"NORMAL":96,"POSITION":97,"TEXCOORD_0":98},"indices":99,"material":3},{"attributes":{"NORMAL":100,"POSITION":101,"TEXCOORD_0":102},"indices":103,"material":0}]},{"name":"kit_Wall_Plaster_Window_Wide_Round.001","primitives":[{"attributes":{"NORMAL":104,"POSITION":105,"TEXCOORD_0":106},"indices":107,"material":0},{"attributes":{"NORMAL":108,"POSITION":109,"TEXCOORD_0":110},"indices":111,"material":3},{"attributes":{"NORMAL":112,"POSITION":113,"TEXCOORD_0":114},"indices":99,"material":3}]},{"name":"kit_Wall_UnevenBrick_Door_Round","primitives":[{"attributes":{"NORMAL":115,"POSITION":116,"TEXCOORD_0":117},"indices":118,"material":0},{"attributes":{"NORMAL":119,"POSITION":120,"TEXCOORD_0":121},"indices":122,"material":3},{"attributes":{"NORMAL":123,"POSITION":124,"TEXCOORD_0":125},"indices":126,"material":2}]},{"name":"kit_Wall_UnevenBrick_Straight","primitives":[{"attributes":{"NORMAL":127,"POSITION":128,"TEXCOORD_0":129},"indices":118,"material":0},{"attributes":{"NORMAL":130,"POSITION":131,"TEXCOORD_0":132},"indices":133,"material":3},{"attributes":{"NORMAL":134,"POSITION":135,"TEXCOORD_0":136},"indices":137,"material":2}]},{"name":"kit_Wall_UnevenBrick_Window_Thin_Round","primitives":[{"attributes":{"NORMAL":138,"POSITION":139,"TEXCOORD_0":140},"indices":118,"material":0},{"attributes":{"NORMAL":141,"POSITION":142,"TEXCOORD_0":143},"indices":144,"material":3},{"attributes":{"NORMAL":145,"POSITION":146,"TEXCOORD_0":147},"indices":148,"material":2}]},{"name":"kit_Window_Roof_Wide","primitives":[{"attributes":{"NORMAL":149,"POSITION":150,"TEXCOORD_0":151},"indices":152,"material":0}]},{"name":"kit_Window_Thin_Round1.001","primitives":[{"attributes":{"NORMAL":153,"POSITION":154,"TEXCOORD_0":155},"indices":156,"material":0},{"attributes":{"NORMAL":157,"POSITION":158},"indices":159,"material":1}]},{"name":"kit_Window_Wide_Flat1","primitives":[{"attributes":{"NORMAL":160,"POSITION":161,"TEXCOORD_0":162},"indices":163,"material":0},{"attributes":{"NORMAL":164,"POSITION":165},"indices":166,"material":1}]},{"name":"kit_Window_Wide_Round1.001","primitives":[{"attributes":{"NORMAL":167,"POSITION":168,"TEXCOORD_0":169},"indices":170,"material":0},{"attributes":{"NORMAL":171,"POSITION":172},"indices":173,"material":1}]},{"name":"kit_WindowShutters_Thin_Round_Open","primitives":[{"attributes":{"NORMAL":174,"POSITION":175,"TEXCOORD_0":176},"indices":177,"material":0}]},{"name":"kit_WindowShutters_Wide_Round_Open","primitives":[{"attributes":{"NORMAL":178,"POSITION":179,"TEXCOORD_0":180},"indices":181,"material":0}]}],"nodes":[{"mesh":0,"name":"Beam.028"},{"mesh":1,"name":"Corner_Exterior_Wood.019","translation":[-2,0,0]},{"mesh":1,"name":"Corner_Exterior_Wood.020","translation":[2,0,0]},{"mesh":1,"name":"Corner_Exterior_Wood.021","translation":[-2,0,-8]},{"mesh":1,"name":"Corner_Exterior_Wood.022","translation":[2,0,-8]},{"mesh":1,"name":"Corner_Exterior_Wood.047","translation":[-2,3,0.4000000059604645]},{"mesh":1,"name":"Corner_Exterior_Wood.048","translation":[2,3,0.4000000059604645]},{"mesh":1,"name":"Corner_Exterior_Wood.049","translation":[-2,3,-8]},{"mesh":1,"name":"Corner_Exterior_Wood.050","translation":[2,3,-8]},{"mesh":1,"name":"Corner_Exterior_Wood.067","translation":[-2,6,0.4000000059604645]},{"mesh":1,"name":"Corner_Exterior_Wood.068","translation":[2,6,0.4000000059604645]},{"mesh":1,"name":"Corner_Exterior_Wood.069","translation":[-2,6,-8]},{"mesh":1,"name":"Corner_Exterior_Wood.070","translation":[2,6,-8]},{"mesh":2,"name":"Door_1_Round.006","translation":[0.44999998807907104,0,-0.019999999552965164]},{"mesh":3,"name":"DoorFrame_Round_WoodDark.005","translation":[1,0,0]},{"mesh":4,"name":"Floor_WoodDark.026","scale":[1,1,0.25],"translation":[-1,2.9700000286102295,0.20000000298023224]},{"mesh":4,"name":"Floor_WoodDark.027","scale":[1,1,0.25],"translation":[1,2.9700000286102295,0.20000000298023224]},{"mesh":5,"name":"Prop_Chimney2.074","translation":[0.8999999761581421,9.61859130859375,-6.800000190734863]},{"mesh":6,"name":"Roof_Front_Brick4.072","translation":[0,9.119999885559082,0.4000000059604645]},{"mesh":6,"name":"Roof_Front_Brick4.073","rotation":[0,-1,0,4.371138828673793e-08],"translation":[0,9.119999885559082,-8]},{"mesh":7,"name":"Roof_RoundTiles_4x8.071","scale":[1,1,1.0499999523162842],"translation":[0,9.119999885559082,-3.799999952316284]},{"mesh":8,"name":"Roof_Support2.023","scale":[1,1,0.5797101259231567],"translation":[-1.899999976158142,3.0199999809265137,0.09000000357627869]},{"mesh":8,"name":"Roof_Support2.024","scale":[1,1,0.5797101259231567],"translation":[0,3.0199999809265137,0.09000000357627869]},{"mesh":8,"name":"Roof_Support2.025","scale":[1,1,0.5797101259231567],"translation":[1.899999976158142,3.0199999809265137,0.09000000357627869]},{"mesh":9,"name":"Step.076"},{"mesh":10,"name":"Wall_Plaster_Straight+upper.039","rotation":[0,-0.7071068286895752,0,0.7071068286895752],"scale":[1.0499999523162842,1,1],"translation":[-2,3,-6.949999809265137]},{"mesh":10,"name":"Wall_Plaster_Straight+upper.040","rotation":[0,-0.7071068286895752,0,0.7071068286895752],"scale":[1.0499999523162842,1,1],"translation":[-2,3,-4.850000381469727]},{"mesh":10,"name":"Wall_Plaster_Straight+upper.041","rotation":[0,-0.7071068286895752,0,0.7071068286895752],"scale":[1.0499999523162842,1,1],"translation":[-2,3,-2.750000238418579]},{"mesh":10,"name":"Wall_Plaster_Straight+upper.042","rotation":[0,-0.7071068286895752,0,0.7071068286895752],"scale":[1.0499999523162842,1,1],"translation":[-2,3,-0.6500003337860107]},{"mesh":10,"name":"Wall_Plaster_Straight+upper.043","rotation":[0,0.7071068286895752,0,0.7071068286895752],"scale":[1.0499999523162842,1,1],"translation":[2,3,-0.6499999761581421]},{"mesh":10,"name":"Wall_Plaster_Straight+upper.044","rotation":[0,0.7071068286895752,0,0.7071068286895752],"scale":[1.0499999523162842,1,1],"translation":[2,3,-2.75]},{"mesh":10,"name":"Wall_Plaster_Straight+upper.045","rotation":[0,0.7071068286895752,0,0.7071068286895752],"scale":[1.0499999523162842,1,1],"translation":[2,3,-4.84999942779541]},{"mesh":10,"name":"Wall_Plaster_Straight+upper.046","rotation":[0,0.7071068286895752,0,0.7071068286895752],"scale":[1.0499999523162842,1,1],"translation":[2,3,-6.949999809265137]},{"mesh":10,"name":"Wall_Plaster_Straight+upper.060","rotation":[0,-0.7071068286895752,0,0.7071068286895752],"scale":[1.0499999523162842,1,1],"translation":[-2,6,-4.850000381469727]},{"mesh":10,"name":"Wall_Plaster_Straight+upper.061","rotation":[0,-0.7071068286895752,0,0.7071068286895752],"scale":[1.0499999523162842,1,1],"translation":[-2,6,-2.750000238418579]},{"mesh":10,"name":"Wall_Plaster_Straight+upper.064","rotation":[0,0.7071068286895752,0,0.7071068286895752],"scale":[1.0499999523162842,1,1],"translation":[2,6,-2.75]},{"mesh":10,"name":"Wall_Plaster_Straight+upper.065","rotation":[0,0.7071068286895752,0,0.7071068286895752],"scale":[1.0499999523162842,1,1],"translation":[2,6,-4.84999942779541]},{"mesh":11,"name":"Wall_Plaster_Straight_L+upper.059","rotation":[0,-0.7071068286895752,0,0.7071068286895752],"scale":[1.0499999523162842,1,1],"translation":[-2,6,-6.949999809265137]},{"mesh":11,"name":"Wall_Plaster_Straight_L+upper.063","rotation":[0,0.7071068286895752,0,0.7071068286895752],"scale":[1.0499999523162842,1,1],"translation":[2,6,-0.6499999761581421]},{"mesh":12,"name":"Wall_Plaster_Straight_R+upper.062","rotation":[0,-0.7071068286895752,0,0.7071068286895752],"scale":[1.0499999523162842,1,1],"translation":[-2,6,-0.6500003337860107]},{"mesh":12,"name":"Wall_Plaster_Straight_R+upper.066","rotation":[0,0.7071068286895752,0,0.7071068286895752],"scale":[1.0499999523162842,1,1],"translation":[2,6,-6.949999809265137]},{"mesh":13,"name":"Wall_Plaster_Window_Thin_Round+upper.051","translation":[-1,6,0.4000000059604645]},{"mesh":13,"name":"Wall_Plaster_Window_Thin_Round+upper.053","translation":[1,6,0.4000000059604645]},{"mesh":13,"name":"Wall_Plaster_Window_Thin_Round+upper.055","rotation":[0,-1,0,4.371138828673793e-08],"translation":[1,6,-8]},{"mesh":13,"name":"Wall_Plaster_Window_Thin_Round+upper.057","rotation":[0,-1,0,4.371138828673793e-08],"translation":[-1,6,-8]},{"mesh":14,"name":"Wall_Plaster_Window_Wide_Flat+upper.035","rotation":[0,-1,0,4.371138828673793e-08],"translation":[1,3,-8]},{"mesh":14,"name":"Wall_Plaster_Window_Wide_Flat+upper.037","rotation":[0,-1,0,4.371138828673793e-08],"translation":[-1,3,-8]},{"mesh":15,"name":"Wall_Plaster_Window_Wide_Round+upper.029","translation":[-1,3,0.4000000059604645]},{"mesh":15,"name":"Wall_Plaster_Window_Wide_Round+upper.032","translation":[1,3,0.4000000059604645]},{"mesh":16,"name":"Wall_UnevenBrick_Door_Round.004","translation":[1,0,0]},{"mesh":17,"name":"Wall_UnevenBrick_Straight.010","rotation":[0,-1,0,4.371138828673793e-08],"translation":[-1,0,-8]},{"mesh":17,"name":"Wall_UnevenBrick_Straight.011","rotation":[0,-0.7071068286895752,0,0.7071068286895752],"translation":[-2,0,-7]},{"mesh":17,"name":"Wall_UnevenBrick_Straight.012","rotation":[0,-0.7071068286895752,0,0.7071068286895752],"translation":[-2,0,-5]},{"mesh":17,"name":"Wall_UnevenBrick_Straight.013","rotation":[0,-0.7071068286895752,0,0.7071068286895752],"translation":[-2,0,-3]},{"mesh":17,"name":"Wall_UnevenBrick_Straight.014","rotation":[0,-0.7071068286895752,0,0.7071068286895752],"translation":[-2,0,-1]},{"mesh":17,"name":"Wall_UnevenBrick_Straight.015","rotation":[0,0.7071068286895752,0,0.7071068286895752],"translation":[2,0,-1]},{"mesh":17,"name":"Wall_UnevenBrick_Straight.016","rotation":[0,0.7071068286895752,0,0.7071068286895752],"translation":[2,0,-3]},{"mesh":17,"name":"Wall_UnevenBrick_Straight.017","rotation":[0,0.7071068286895752,0,0.7071068286895752],"translation":[2,0,-5]},{"mesh":17,"name":"Wall_UnevenBrick_Straight.018","rotation":[0,0.7071068286895752,0,0.7071068286895752],"translation":[2,0,-7]},{"mesh":18,"name":"Wall_UnevenBrick_Window_Thin_Round.001","translation":[-1,0,0]},{"mesh":18,"name":"Wall_UnevenBrick_Window_Thin_Round.007","rotation":[0,-1,0,4.371138828673793e-08],"translation":[1,0,-8]},{"mesh":19,"name":"Window_Roof_Wide.075","scale":[1,1,0.800000011920929],"translation":[1,0.41999998688697815,0]},{"mesh":20,"name":"Window_Thin_Round1.002","translation":[-1,0,0]},{"mesh":20,"name":"Window_Thin_Round1.008","rotation":[0,-1,0,4.371138828673793e-08],"translation":[1,0,-8]},{"mesh":20,"name":"Window_Thin_Round1.052","translation":[-1,6,0.4000000059604645]},{"mesh":20,"name":"Window_Thin_Round1.054","translation":[1,6,0.4000000059604645]},{"mesh":20,"name":"Window_Thin_Round1.056","rotation":[0,-1,0,4.371138828673793e-08],"translation":[1,6,-8]},{"mesh":20,"name":"Window_Thin_Round1.058","rotation":[0,-1,0,4.371138828673793e-08],"translation":[-1,6,-8]},{"mesh":21,"name":"Window_Wide_Flat1.036","rotation":[0,-1,0,4.371138828673793e-08],"translation":[1,3,-8]},{"mesh":21,"name":"Window_Wide_Flat1.038","rotation":[0,-1,0,4.371138828673793e-08],"translation":[-1,3,-8]},{"mesh":22,"name":"Window_Wide_Round1.030","translation":[-1,3,0.4000000059604645]},{"mesh":22,"name":"Window_Wide_Round1.033","translation":[1,3,0.4000000059604645]},{"mesh":23,"name":"WindowShutters_Thin_Round_Open.003","translation":[-1,0,0]},{"mesh":23,"name":"WindowShutters_Thin_Round_Open.009","rotation":[0,-1,0,4.371138828673793e-08],"translation":[1,0,-8]},{"mesh":24,"name":"WindowShutters_Wide_Round_Open.031","translation":[-1,3,0.4000000059604645]},{"mesh":24,"name":"WindowShutters_Wide_Round_Open.034","translation":[1,3,0.4000000059604645]}],"scene":0,"scenes":[{"name":"Scene","nodes":[0,1,2,3,4,5,6,7,8,9,10,11,12,13,14,15,16,17,18,19,20,21,22,23,24,25,26,27,28,29,30,31,32,33,34,35,36,37,38,39,40,41,42,43,44,45,46,47,48,49,50,51,52,53,54,55,56,57,58,59,60,61,62,63,64,65,66,67,68,69,70,71,72,73,74,75]}],"textures":[{"source":0},{"source":1},{"source":2},{"source":3},{"source":4}]}