{"accessors":[{"bufferView":0,"componentType":5126,"count":168,"type":"VEC3"},{"bufferView":1,"componentType":5126,"count":168,"max":[0.550000011920929,0.5449975728988647,1.100000023841858],"min":[-0.550000011920929,0.10499759763479233,-1.2549543380737305],"type":"VEC3"},{"bufferView":2,"componentType":5123,"count":252,"type":"SCALAR"},{"bufferView":3,"componentType":5126,"count":280,"type":"VEC3"},{"bufferView":4,"componentType":5126,"count":280,"max":[0.6397578120231628,0.6970475912094116,1.6249158382415771],"min":[-0.6397578120231628,0,-1.6249158382415771],"type":"VEC3"},{"bufferView":5,"componentType":5123,"count":420,"type":"SCALAR"},{"bufferView":6,"componentType":5126,"count":48,"type":"VEC3"},{"bufferView":7,"componentType":5126,"count":48,"max":[0.6200000047683716,0.6549975872039795,1.2999999523162842],"min":[-0.6200000047683716,0.5949976444244385,-1.2999999523162842],"type":"VEC3"},{"bufferView":8,"componentType":5123,"count":72,"type":"SCALAR"}],"asset":{"generator":"Khronos glTF Blender I/O v5.2.40","version":"2.0"},"bufferViews":[{"buffer":0,"byteOffset":0,"byteLength":2016,"target":34962},{"buffer":0,"byteOffset":2016,"byteLength":2016,"target":34962},{"buffer":0,"byteOffset":4032,"byteLength":504,"target":34963},{"buffer":0,"byteOffset":4536,"byteLength":3360,"target":34962},{"buffer":0,"byteOffset":7896,"byteLength":3360,"target":34962},{"buffer":0,"byteOffset":11256,"byteLength":840,"target":34963},{"buffer":0,"byteOffset":12096,"byteLength":576,"target":34962},{"buffer":0,"byteOffset":12672,"byteLength":576,"target":34962},{"buffer":0,"byteOffset":13248,"byteLength":144,"target":34963}],"buffers":[{"byteLength":13392,"uri":"rowboat.bin"}],"images":[],"materials":[{"doubleSided":true,"name":"Prop_Oak","pbrMetallicRoughness":{"baseColorFactor":[0.3199999928474426,0.17000000178813934,0.07000000029802322,1],"metallicFactor":0,"roughnessFactor":0.8500000238418579}},{"doubleSided":true,"name":"Prop_PaintBlue","pbrMetallicRoughness":{"baseColorFactor":[0.11999999731779099,0.25,0.44999998807907104,1],"metallicFactor":0,"roughnessFactor":0.699999988079071}},{"doubleSided":true,"name":"Prop_PaintWhite","pbrMetallicRoughness":{"baseColorFactor":[0.7799999713897705,0.7599999904632568,0.699999988079071,1],"metallicFactor":0,"roughnessFactor":0.800000011920929}}],"meshes":[{"name":"rowboat","primitives":[{"attributes":{"NORMAL":0,"POSITION":1},"indices":2,"material":0},{"attributes":{"NORMAL":3,"POSITION":4},"indices":5,"material":1},{"attributes":{"NORMAL":6,"POSITION":7},"indices":8,"material":2}]}],"nodes":[{"mesh":0,"name":"rowboat"}],"scene":0,"scenes":[{"name":"Scene","nodes":[0]}],"textures":[]}