{"accessors":[{"bufferView":0,"componentType":5126,"count":144,"max":[0.15216904878616333,1.959999918937683,0.15216904878616333],"min":[-0.15216904878616333,1.6399999856948853,-0.15216904878616333],"type":"VEC3"},{"bufferView":1,"componentType":5126,"count":144,"type":"VEC3"},{"bufferView":2,"componentType":5126,"count":144,"type":"VEC2"},{"bufferView":3,"componentType":5123,"count":192,"type":"SCALAR"},{"bufferView":4,"componentType":5126,"count":96,"max":[0.699999988079071,0.25,0.699999988079071],"min":[-0.699999988079071,0,-0.699999988079071],"type":"VEC3"},{"bufferView":5,"componentType":5126,"count":96,"type":"VEC3"},{"bufferView":6,"componentType":5126,"count":96,"type":"VEC2"},{"bufferView":7,"componentType":5123,"count":132,"type":"SCALAR"},{"bufferView":8,"componentType":5126,"count":120,"max":[0.49657031893730164,1.3393017053604126,0.45521795749664307],"min":[-0.583709716796875,0.04422888159751892,-0.5374982357025146],"type":"VEC3"},{"bufferView":9,"componentType":5126,"count":120,"type":"VEC3"},{"bufferView":10,"componentType":5126,"count":120,"type":"VEC2"},{"bufferView":11,"componentType":5123,"count":120,"type":"SCALAR"},{"bufferView":12,"componentType":5126,"count":60,"max":[0.4626023471355438,0.9874751567840576,0.3688623309135437],"min":[-0.4527952969074249,0.49917516112327576,-0.4787799119949341],"type":"VEC3"},{"bufferView":13,"componentType":5126,"count":60,"type":"VEC3"},{"bufferView":14,"componentType":5126,"count":60,"type":"VEC2"},{"bufferView":15,"componentType":5123,"count":60,"type":"SCALAR"},{"bufferView":16,"componentType":5126,"count":320,"max":[0.7199999690055847,2.5199999809265137,0.06657398492097855],"min":[-0.7199999690055847,1.0799999237060547,-0.06657398492097855],"type":"VEC3"},{"bufferView":17,"componentType":5126,"count":320,"type":"VEC3"},{"bufferView":18,"componentType":5126,"count":320,"type":"VEC2"},{"bufferView":19,"componentType":5123,"count":480,"type":"SCALAR"}],"asset":{"generator":"Khronos glTF Blender I/O v5.2.40","version":"2.0"},"bufferViews":[{"buffer":0,"byteLength":1728,"byteOffset":0,"target":34962},{"buffer":0,"byteLength":1728,"byteOffset":1728,"target":34962},{"buffer":0,"byteLength":1152,"byteOffset":3456,"target":34962},{"buffer":0,"byteLength":384,"byteOffset":4608,"target":34963},{"buffer":0,"byteLength":1152,"byteOffset":4992,"target":34962},{"buffer":0,"byteLength":1152,"byteOffset":6144,"target":34962},{"buffer":0,"byteLength":768,"byteOffset":7296,"target":34962},{"buffer":0,"byteLength":264,"byteOffset":8064,"target":34963},{"buffer":0,"byteLength":1440,"byteOffset":8328,"target":34962},{"buffer":0,"byteLength":1440,"byteOffset":9768,"target":34962},{"buffer":0,"byteLength":960,"byteOffset":11208,"target":34962},{"buffer":0,"byteLength":240,"byteOffset":12168,"target":34963},{"buffer":0,"byteLength":720,"byteOffset":12408,"target":34962},{"buffer":0,"byteLength":720,"byteOffset":13128,"target":34962},{"buffer":0,"byteLength":480,"byteOffset":13848,"target":34962},{"buffer":0,"byteLength":120,"byteOffset":14328,"target":34963},{"buffer":0,"byteLength":3840,"byteOffset":14448,"target":34962},{"buffer":0,"byteLength":3840,"byteOffset":18288,"target":34962},{"buffer":0,"byteLength":2560,"byteOffset":22128,"target":34962},{"buffer":0,"byteLength":960,"byteOffset":24688,"target":34963}],"buffers":[{"byteLength":25648,"uri":"sculpture.bin"}],"images":[],"materials":[{"doubleSided":true,"name":"Prop_Marble","pbrMetallicRoughness":{"baseColorFactor":[0.7200000286102295,0.699999988079071,0.6399999856948853,1],"metallicFactor":0,"roughnessFactor":0.6000000238418579}},{"doubleSided":true,"name":"Prop_StoneDark","pbrMetallicRoughness":{"baseColorFactor":[0.25999999046325684,0.25,0.23000000417232513,1],"metallicFactor":0,"roughnessFactor":0.949999988079071}},{"doubleSided":true,"name":"Prop_Stone","pbrMetallicRoughness":{"baseColorFactor":[0.41999998688697815,0.4000000059604645,0.36000001430511475,1],"metallicFactor":0,"roughnessFactor":0.949999988079071}},{"doubleSided":true,"name":"Prop_Rock","pbrMetallicRoughness":{"baseColorFactor":[0.30000001192092896,0.30000001192092896,0.2800000011920929,1],"metallicFactor":0,"roughnessFactor":0.949999988079071}},{"doubleSided":true,"name":"Prop_Bronze","pbrMetallicRoughness":{"baseColorFactor":[0.12999999523162842,0.25999999046325684,0.20000000298023224,1],"metallicFactor":0.6000000238418579,"roughnessFactor":0.44999998807907104}}],"meshes":[{"name":"sculpture","primitives":[{"attributes":{"NORMAL":1,"POSITION":0,"TEXCOORD_0":2},"indices":3,"material":0},{"attributes":{"NORMAL":5,"POSITION":4,"TEXCOORD_0":6},"indices":7,"material":1},{"attributes":{"NORMAL":9,"POSITION":8,"TEXCOORD_0":10},"indices":11,"material":2},{"attributes":{"NORMAL":13,"POSITION":12,"TEXCOORD_0":14},"indices":15,"material":3},{"attributes":{"NORMAL":17,"POSITION":16,"TEXCOORD_0":18},"indices":19,"material":4}]}],"nodes":[{"mesh":0,"name":"sculpture"}],"scene":0,"scenes":[{"name":"Scene","nodes":[0]}],"textures":[]}
