{"accessors":[{"bufferView":0,"componentType":5126,"count":84,"type":"VEC3"},{"bufferView":1,"componentType":5126,"count":84,"max":[0.6053109169006348,3,0.07000000029802322],"min":[-0.6053109765052795,0,-0.07000000029802322],"type":"VEC3"},{"bufferView":2,"componentType":5123,"count":132,"type":"SCALAR"},{"bufferView":3,"componentType":5126,"count":48,"type":"VEC3"},{"bufferView":4,"componentType":5126,"count":48,"max":[0.3853108286857605,2.819999933242798,0.009999999776482582],"min":[-0.1746891736984253,2.620000123977661,-0.009999999776482582],"type":"VEC3"},{"bufferView":5,"componentType":5123,"count":72,"type":"SCALAR"},{"bufferView":6,"componentType":5126,"count":96,"type":"VEC3"},{"bufferView":7,"componentType":5126,"count":96,"max":[0.4803107976913452,2.630000114440918,0.029999999329447746],"min":[-0.2696892023086548,2.130000114440918,-0.029999999329447746],"type":"VEC3"},{"bufferView":8,"componentType":5123,"count":132,"type":"SCALAR"},{"bufferView":9,"componentType":5126,"count":96,"type":"VEC3"},{"bufferView":10,"componentType":5126,"count":96,"max":[0.2553107738494873,2.5300002098083496,0.05000000447034836],"min":[-0.04468920826911926,2.2300000190734863,-0.05000000447034836],"type":"VEC3"},{"bufferView":11,"componentType":5123,"count":168,"type":"SCALAR"}],"asset":{"generator":"Khronos glTF Blender I/O v5.2.40","version":"2.0"},"bufferViews":[{"buffer":0,"byteOffset":0,"byteLength":1008,"target":34962},{"buffer":0,"byteOffset":1008,"byteLength":1008,"target":34962},{"buffer":0,"byteOffset":2016,"byteLength":264,"target":34963},{"buffer":0,"byteOffset":2280,"byteLength":576,"target":34962},{"buffer":0,"byteOffset":2856,"byteLength":576,"target":34962},{"buffer":0,"byteOffset":3432,"byteLength":144,"target":34963},{"buffer":0,"byteOffset":3576,"byteLength":1152,"target":34962},{"buffer":0,"byteOffset":4728,"byteLength":1152,"target":34962},{"buffer":0,"byteOffset":5880,"byteLength":264,"target":34963},{"buffer":0,"byteOffset":6144,"byteLength":1152,"target":34962},{"buffer":0,"byteOffset":7296,"byteLength":1152,"target":34962},{"buffer":0,"byteOffset":8448,"byteLength":336,"target":34963}],"buffers":[{"byteLength":8784,"uri":"shop_sign.bin"}],"images":[],"materials":[{"doubleSided":true,"name":"Prop_OakDark","pbrMetallicRoughness":{"baseColorFactor":[0.18000000715255737,0.09000000357627869,0.03500000014901161,1],"metallicFactor":0,"roughnessFactor":0.8500000238418579}},{"doubleSided":true,"name":"Prop_Iron","pbrMetallicRoughness":{"baseColorFactor":[0.03500000014901161,0.03500000014901161,0.03999999910593033,1],"metallicFactor":0,"roughnessFactor":0.5}},{"doubleSided":true,"name":"Prop_SignPaint","pbrMetallicRoughness":{"baseColorFactor":[0.6000000238418579,0.44999998807907104,0.20000000298023224,1],"metallicFactor":0,"roughnessFactor":0.800000011920929}},{"doubleSided":true,"name":"Prop_FlowerGold","pbrMetallicRoughness":{"baseColorFactor":[0.75,0.41999998688697815,0.019999999552965164,1],"metallicFactor":0,"roughnessFactor":0.699999988079071}}],"meshes":[{"name":"shop_sign","primitives":[{"attributes":{"NORMAL":0,"POSITION":1},"indices":2,"material":0},{"attributes":{"NORMAL":3,"POSITION":4},"indices":5,"material":1},{"attributes":{"NORMAL":6,"POSITION":7},"indices":8,"material":2},{"attributes":{"NORMAL":9,"POSITION":10},"indices":11,"material":3}]}],"nodes":[{"mesh":0,"name":"shop_sign"}],"scene":0,"scenes":[{"name":"Scene","nodes":[0]}],"textures":[]}