{"accessors":[{"bufferView":0,"componentType":5126,"count":320,"max":[3.799999952316284,3.200000047683716,0.019999999552965164],"min":[-3.799999952316284,0,-1],"type":"VEC3"},{"bufferView":1,"componentType":5126,"count":320,"type":"VEC3"},{"bufferView":2,"componentType":5126,"count":320,"type":"VEC2"},{"bufferView":3,"componentType":5123,"count":480,"type":"SCALAR"},{"bufferView":4,"componentType":5126,"count":3050,"max":[4,9.520000457763672,1.5499999523162842],"min":[-4,0,-9.225000381469727],"type":"VEC3"},{"bufferView":5,"componentType":5126,"count":3050,"type":"VEC3"},{"bufferView":6,"componentType":5126,"count":3050,"type":"VEC2"},{"bufferView":7,"componentType":5123,"count":4638,"type":"SCALAR"},{"bufferView":8,"componentType":5126,"count":276,"max":[2.933333396911621,2.940000057220459,1.3949999809265137],"min":[-3.565000057220459,0.6499999761581421,-0.8999999761581421],"type":"VEC3"},{"bufferView":9,"componentType":5126,"count":276,"type":"VEC3"},{"bufferView":10,"componentType":5126,"count":276,"type":"VEC2"},{"bufferView":11,"componentType":5123,"count":450,"type":"SCALAR"},{"bufferView":12,"componentType":5126,"count":120,"max":[2.640000104904175,4.210000038146973,0.8100000023841858],"min":[-2.640000104904175,0.6499999761581421,-0.8999999761581421],"type":"VEC3"},{"bufferView":13,"componentType":5126,"count":120,"type":"VEC3"},{"bufferView":14,"componentType":5126,"count":120,"type":"VEC2"},{"bufferView":15,"componentType":5123,"count":180,"type":"SCALAR"},{"bufferView":16,"componentType":5126,"count":128,"max":[2.933333396911621,2.619999885559082,1.2200000286102295],"min":[-2.933333396911621,0.6499999761581421,-0.8999999761581421],"type":"VEC3"},{"bufferView":17,"componentType":5126,"count":128,"type":"VEC3"},{"bufferView":18,"componentType":5126,"count":128,"type":"VEC2"},{"bufferView":19,"componentType":5123,"count":192,"type":"SCALAR"},{"bufferView":20,"componentType":5126,"count":40,"max":[2.200000047683716,1.4700000286102295,-0.6200000047683716],"min":[-2.200000047683716,1.25,-0.8999999761581421],"type":"VEC3"},{"bufferView":21,"componentType":5126,"count":40,"type":"VEC3"},{"bufferView":22,"componentType":5126,"count":40,"type":"VEC2"},{"bufferView":23,"componentType":5123,"count":60,"type":"SCALAR"},{"bufferView":24,"componentType":5126,"count":96,"max":[3.1500000953674316,2.619999885559082,1.2200000286102295],"min":[-3.1500000953674316,1.850000023841858,-0.8999999761581421],"type":"VEC3"},{"bufferView":25,"componentType":5126,"count":96,"type":"VEC3"},{"bufferView":26,"componentType":5126,"count":96,"type":"VEC2"},{"bufferView":27,"componentType":5123,"count":144,"type":"SCALAR"},{"bufferView":28,"componentType":5126,"count":40,"max":[3.0999999046325684,2.549999952316284,-0.05999999865889549],"min":[-3.0999999046325684,0.6499999761581421,-0.07999999821186066],"type":"VEC3"},{"bufferView":29,"componentType":5126,"count":40,"type":"VEC3"},{"bufferView":30,"componentType":5126,"count":40,"type":"VEC2"},{"bufferView":31,"componentType":5126,"count":164,"max":[3.1500000953674316,10.819999694824219,1.3650000095367432],"min":[-3.515000104904175,1.055999994277954,-9.0600004196167],"type":"VEC3"},{"bufferView":32,"componentType":5126,"count":164,"type":"VEC3"},{"bufferView":33,"componentType":5126,"count":164,"type":"VEC2"},{"bufferView":34,"componentType":5123,"count":246,"type":"SCALAR"},{"bufferView":35,"componentType":5126,"count":260,"max":[3.8299999237060547,7.300000190734863,0.49000000953674316],"min":[-3.8299999237060547,0.8999999761581421,-9.029999732971191],"type":"VEC3"},{"bufferView":36,"componentType":5126,"count":260,"type":"VEC3"},{"bufferView":37,"componentType":5126,"count":260,"type":"VEC2"},{"bufferView":38,"componentType":5123,"count":390,"type":"SCALAR"},{"bufferView":39,"componentType":5126,"count":174,"max":[3.8499999046325684,9.770000457763672,0.44999998807907104],"min":[-3.8499999046325684,0,-9],"type":"VEC3"},{"bufferView":40,"componentType":5126,"count":174,"type":"VEC3"},{"bufferView":41,"componentType":5126,"count":174,"type":"VEC2"},{"bufferView":42,"componentType":5123,"count":258,"type":"SCALAR"},{"bufferView":43,"componentType":5126,"count":72,"max":[3.8499999046325684,10.5600004196167,-6.96999979019165],"min":[-3.8499999046325684,0,-9.050000190734863],"type":"VEC3"},{"bufferView":44,"componentType":5126,"count":72,"type":"VEC3"},{"bufferView":45,"componentType":5126,"count":72,"type":"VEC2"},{"bufferView":46,"componentType":5123,"count":108,"type":"SCALAR"},{"bufferView":47,"componentType":5126,"count":240,"max":[3.3399999141693115,5.400000095367432,0.5299999713897705],"min":[-3.3399999141693115,0.8999999761581421,-9.079999923706055],"type":"VEC3"},{"bufferView":48,"componentType":5126,"count":240,"type":"VEC3"},{"bufferView":49,"componentType":5126,"count":240,"type":"VEC2"},{"bufferView":50,"componentType":5123,"count":360,"type":"SCALAR"},{"bufferView":51,"componentType":5126,"count":40,"max":[2.684999942779541,4.110000133514404,0.8500000238418579],"min":[-2.684999942779541,3.930000066757202,0.6699999570846558],"type":"VEC3"},{"bufferView":52,"componentType":5126,"count":40,"type":"VEC3"},{"bufferView":53,"componentType":5126,"count":40,"type":"VEC2"},{"bufferView":54,"componentType":5126,"count":40,"max":[2.2899999618530273,4.210000038146973,0.8100000023841858],"min":[-2.2899999618530273,4.050000190734863,0.6899999976158142],"type":"VEC3"},{"bufferView":55,"componentType":5126,"count":40,"type":"VEC3"},{"bufferView":56,"componentType":5126,"count":40,"type":"VEC2"},{"bufferView":57,"componentType":5126,"count":72,"max":[4.400000095367432,9.9399995803833,1.049999713897705],"min":[-4.40000057220459,5.447226047515869,-9.600000381469727],"type":"VEC3"},{"bufferView":58,"componentType":5126,"count":72,"type":"VEC3"},{"bufferView":59,"componentType":5126,"count":72,"type":"VEC2"},{"bufferView":60,"componentType":5123,"count":108,"type":"SCALAR"}],"asset":{"generator":"Khronos glTF Blender I/O v5.2.40","version":"2.0"},"bufferViews":[{"buffer":0,"byteLength":3840,"byteOffset":0,"target":34962},{"buffer":0,"byteLength":3840,"byteOffset":3840,"target":34962},{"buffer":0,"byteLength":2560,"byteOffset":7680,"target":34962},{"buffer":0,"byteLength":960,"byteOffset":10240,"target":34963},{"buffer":0,"byteLength":36600,"byteOffset":11200,"target":34962},{"buffer":0,"byteLength":36600,"byteOffset":47800,"target":34962},{"buffer":0,"byteLength":24400,"byteOffset":84400,"target":34962},{"buffer":0,"byteLength":9276,"byteOffset":108800,"target":34963},{"buffer":0,"byteLength":3312,"byteOffset":118076,"target":34962},{"buffer":0,"byteLength":3312,"byteOffset":121388,"target":34962},{"buffer":0,"byteLength":2208,"byteOffset":124700,"target":34962},{"buffer":0,"byteLength":900,"byteOffset":126908,"target":34963},{"buffer":0,"byteLength":1440,"byteOffset":127808,"target":34962},{"buffer":0,"byteLength":1440,"byteOffset":129248,"target":34962},{"buffer":0,"byteLength":960,"byteOffset":130688,"target":34962},{"buffer":0,"byteLength":360,"byteOffset":131648,"target":34963},{"buffer":0,"byteLength":1536,"byteOffset":132008,"target":34962},{"buffer":0,"byteLength":1536,"byteOffset":133544,"target":34962},{"buffer":0,"byteLength":1024,"byteOffset":135080,"target":34962},{"buffer":0,"byteLength":384,"byteOffset":136104,"target":34963},{"buffer":0,"byteLength":480,"byteOffset":136488,"target":34962},{"buffer":0,"byteLength":480,"byteOffset":136968,"target":34962},{"buffer":0,"byteLength":320,"byteOffset":137448,"target":34962},{"buffer":0,"byteLength":120,"byteOffset":137768,"target":34963},{"buffer":0,"byteLength":1152,"byteOffset":137888,"target":34962},{"buffer":0,"byteLength":1152,"byteOffset":139040,"target":34962},{"buffer":0,"byteLength":768,"byteOffset":140192,"target":34962},{"buffer":0,"byteLength":288,"byteOffset":140960,"target":34963},{"buffer":0,"byteLength":480,"byteOffset":141248,"target":34962},{"buffer":0,"byteLength":480,"byteOffset":141728,"target":34962},{"buffer":0,"byteLength":320,"byteOffset":142208,"target":34962},{"buffer":0,"byteLength":1968,"byteOffset":142528,"target":34962},{"buffer":0,"byteLength":1968,"byteOffset":144496,"target":34962},{"buffer":0,"byteLength":1312,"byteOffset":146464,"target":34962},{"buffer":0,"byteLength":492,"byteOffset":147776,"target":34963},{"buffer":0,"byteLength":3120,"byteOffset":148268,"target":34962},{"buffer":0,"byteLength":3120,"byteOffset":151388,"target":34962},{"buffer":0,"byteLength":2080,"byteOffset":154508,"target":34962},{"buffer":0,"byteLength":780,"byteOffset":156588,"target":34963},{"buffer":0,"byteLength":2088,"byteOffset":157368,"target":34962},{"buffer":0,"byteLength":2088,"byteOffset":159456,"target":34962},{"buffer":0,"byteLength":1392,"byteOffset":161544,"target":34962},{"buffer":0,"byteLength":516,"byteOffset":162936,"target":34963},{"buffer":0,"byteLength":864,"byteOffset":163452,"target":34962},{"buffer":0,"byteLength":864,"byteOffset":164316,"target":34962},{"buffer":0,"byteLength":576,"byteOffset":165180,"target":34962},{"buffer":0,"byteLength":216,"byteOffset":165756,"target":34963},{"buffer":0,"byteLength":2880,"byteOffset":165972,"target":34962},{"buffer":0,"byteLength":2880,"byteOffset":168852,"target":34962},{"buffer":0,"byteLength":1920,"byteOffset":171732,"target":34962},{"buffer":0,"byteLength":720,"byteOffset":173652,"target":34963},{"buffer":0,"byteLength":480,"byteOffset":174372,"target":34962},{"buffer":0,"byteLength":480,"byteOffset":174852,"target":34962},{"buffer":0,"byteLength":320,"byteOffset":175332,"target":34962},{"buffer":0,"byteLength":480,"byteOffset":175652,"target":34962},{"buffer":0,"byteLength":480,"byteOffset":176132,"target":34962},{"buffer":0,"byteLength":320,"byteOffset":176612,"target":34962},{"buffer":0,"byteLength":864,"byteOffset":176932,"target":34962},{"buffer":0,"byteLength":864,"byteOffset":177796,"target":34962},{"buffer":0,"byteLength":576,"byteOffset":178660,"target":34962},{"buffer":0,"byteLength":216,"byteOffset":179236,"target":34963}],"buffers":[{"byteLength":179452,"uri":"shop_house.bin"}],"images":[{"name":"T_Plaster_Luma","uri":"../village/T_Plaster_Luma.png"},{"name":"T_RoundTiles_BaseColor","uri":"../village/T_RoundTiles_BaseColor.png"},{"name":"T_UnevenBrick_BaseColor","uri":"../village/T_UnevenBrick_BaseColor.png"},{"name":"T_WoodTrim_BaseColor","uri":"../village/T_WoodTrim_BaseColor.png"}],"materials":[{"doubleSided":true,"name":"ShopPaint","pbrMetallicRoughness":{"baseColorFactor":[0.021980946883559227,0.08353512734174728,0.03968190774321556,1],"metallicFactor":0,"roughnessFactor":0.6000000238418579}},{"doubleSided":true,"name":"Wood_dark","pbrMetallicRoughness":{"baseColorFactor":[0.2329,0.2659,0.2944,1.0],"baseColorTexture":{"index":3},"metallicFactor":0,"roughnessFactor":0.8500000238418579}},{"doubleSided":true,"name":"SignPaint","pbrMetallicRoughness":{"baseColorFactor":[0.6038273572921753,0.34239163994789124,0.03310476616024971,1],"metallicFactor":0,"roughnessFactor":0.6000000238418579}},{"doubleSided":true,"name":"Cloth","pbrMetallicRoughness":{"baseColorFactor":[0.34239163994789124,0.03310476616024971,0.021980946883559227,1],"metallicFactor":0,"roughnessFactor":0.8999999761581421}},{"doubleSided":true,"name":"Cloth2","pbrMetallicRoughness":{"baseColorFactor":[0.7484140992164612,0.6382831931114197,0.4200332760810852,1],"metallicFactor":0,"roughnessFactor":0.8999999761581421}},{"doubleSided":true,"name":"ClothBlue","pbrMetallicRoughness":{"baseColorFactor":[0.027211781591176987,0.07323895394802094,0.2632734179496765,1],"metallicFactor":0,"roughnessFactor":0.8999999761581421}},{"doubleSided":true,"name":"ClothGreen","pbrMetallicRoughness":{"baseColorFactor":[0.03310476616024971,0.1473190039396286,0.07323895394802094,1],"metallicFactor":0,"roughnessFactor":0.8999999761581421}},{"alphaMode":"BLEND","doubleSided":true,"name":"GreenhouseGlass","pbrMetallicRoughness":{"baseColorFactor":[0.5704815983772278,0.7874122858047485,0.7484140992164612,0.3199999928474426],"metallicFactor":0,"roughnessFactor":0.10000000149011612}},{"doubleSided":true,"name":"Iron","pbrMetallicRoughness":{"baseColorFactor":[0.0134117491543293,0.0134117491543293,0.015325203537940979,1],"metallicFactor":0,"roughnessFactor":0.5}},{"doubleSided":true,"name":"Glass","pbrMetallicRoughness":{"baseColorFactor":[0.03310476616024971,0.05087608844041824,0.07828831672668457,1],"metallicFactor":0,"roughnessFactor":0.20000000298023224}},{"doubleSided":true,"name":"HousePlaster","pbrMetallicRoughness":{"baseColorFactor":[0.9099,0.5391,0.4777,1.0],"baseColorTexture":{"index":0},"metallicFactor":0,"roughnessFactor":0.8500000238418579}},{"doubleSided":true,"name":"Stone","pbrMetallicRoughness":{"baseColorFactor":[1.0,0.9974,0.9977,1.0],"baseColorTexture":{"index":2},"metallicFactor":0,"roughnessFactor":0.8500000238418579}},{"doubleSided":true,"name":"ShutterPaint","pbrMetallicRoughness":{"baseColorFactor":[0.021980946883559227,0.07323895394802094,0.03968190774321556,1],"metallicFactor":0,"roughnessFactor":0.699999988079071}},{"doubleSided":true,"name":"Leaf","pbrMetallicRoughness":{"baseColorFactor":[0.03310476616024971,0.11928018927574158,0.0134117491543293,1],"metallicFactor":0,"roughnessFactor":0.8999999761581421}},{"doubleSided":true,"emissiveFactor":[1,0.4479884207248688,0.10048151016235352],"name":"LampGlass","pbrMetallicRoughness":{"baseColorFactor":[1,0.5704815983772278,0.1473190039396286,1],"metallicFactor":0,"roughnessFactor":0.8500000238418579}},{"doubleSided":true,"name":"HouseTiles","pbrMetallicRoughness":{"baseColorFactor":[1.0,0.9965,0.9971,1.0],"baseColorTexture":{"index":1},"metallicFactor":0,"roughnessFactor":0.699999988079071}}],"meshes":[{"name":"Pier","primitives":[{"attributes":{"NORMAL":1,"POSITION":0,"TEXCOORD_0":2},"indices":3,"material":0},{"attributes":{"NORMAL":5,"POSITION":4,"TEXCOORD_0":6},"indices":7,"material":1},{"attributes":{"NORMAL":9,"POSITION":8,"TEXCOORD_0":10},"indices":11,"material":2},{"attributes":{"NORMAL":13,"POSITION":12,"TEXCOORD_0":14},"indices":15,"material":3},{"attributes":{"NORMAL":17,"POSITION":16,"TEXCOORD_0":18},"indices":19,"material":4},{"attributes":{"NORMAL":21,"POSITION":20,"TEXCOORD_0":22},"indices":23,"material":5},{"attributes":{"NORMAL":25,"POSITION":24,"TEXCOORD_0":26},"indices":27,"material":6},{"attributes":{"NORMAL":29,"POSITION":28,"TEXCOORD_0":30},"indices":23,"material":7},{"attributes":{"NORMAL":32,"POSITION":31,"TEXCOORD_0":33},"indices":34,"material":8},{"attributes":{"NORMAL":36,"POSITION":35,"TEXCOORD_0":37},"indices":38,"material":9},{"attributes":{"NORMAL":40,"POSITION":39,"TEXCOORD_0":41},"indices":42,"material":10},{"attributes":{"NORMAL":44,"POSITION":43,"TEXCOORD_0":45},"indices":46,"material":11},{"attributes":{"NORMAL":48,"POSITION":47,"TEXCOORD_0":49},"indices":50,"material":12},{"attributes":{"NORMAL":52,"POSITION":51,"TEXCOORD_0":53},"indices":23,"material":13},{"attributes":{"NORMAL":55,"POSITION":54,"TEXCOORD_0":56},"indices":23,"material":14},{"attributes":{"NORMAL":58,"POSITION":57,"TEXCOORD_0":59},"indices":60,"material":15}]}],"nodes":[{"mesh":0,"name":"shop_house"}],"scene":0,"scenes":[{"name":"Scene","nodes":[0]}],"textures":[{"source":0},{"source":1},{"source":2},{"source":3}]}
