{"accessors":[{"bufferView":0,"componentType":5126,"count":84,"max":[0.676385760307312,2.2100000381469727,0.6576411724090576],"min":[-0.676385760307312,1.6100000143051147,-0.6576411724090576],"type":"VEC3"},{"bufferView":1,"componentType":5126,"count":84,"type":"VEC3"},{"bufferView":2,"componentType":5126,"count":84,"type":"VEC2"},{"bufferView":3,"componentType":5123,"count":120,"type":"SCALAR"},{"bufferView":4,"componentType":5126,"count":48,"max":[-0.25099214911460876,2.5199999809265137,-0.2609071135520935],"min":[-0.39241352677345276,0,-0.4023284912109375],"type":"VEC3"},{"bufferView":5,"componentType":5126,"count":48,"type":"VEC3"},{"bufferView":6,"componentType":5126,"count":48,"type":"VEC2"},{"bufferView":7,"componentType":5123,"count":72,"type":"SCALAR"}],"asset":{"generator":"Khronos glTF Blender I/O v5.2.40","version":"2.0"},"bufferViews":[{"buffer":0,"byteLength":1008,"byteOffset":0,"target":34962},{"buffer":0,"byteLength":1008,"byteOffset":1008,"target":34962},{"buffer":0,"byteLength":672,"byteOffset":2016,"target":34962},{"buffer":0,"byteLength":240,"byteOffset":2688,"target":34963},{"buffer":0,"byteLength":576,"byteOffset":2928,"target":34962},{"buffer":0,"byteLength":576,"byteOffset":3504,"target":34962},{"buffer":0,"byteLength":384,"byteOffset":4080,"target":34962},{"buffer":0,"byteLength":144,"byteOffset":4464,"target":34963}],"buffers":[{"byteLength":4608,"uri":"signpost.bin"}],"images":[],"materials":[{"doubleSided":true,"name":"Prop_SignPaint","pbrMetallicRoughness":{"baseColorFactor":[0.6000000238418579,0.44999998807907104,0.20000000298023224,1],"metallicFactor":0,"roughnessFactor":0.800000011920929}},{"doubleSided":true,"name":"Prop_OakDark","pbrMetallicRoughness":{"baseColorFactor":[0.18000000715255737,0.09000000357627869,0.03500000014901161,1],"metallicFactor":0,"roughnessFactor":0.8500000238418579}}],"meshes":[{"name":"signpost","primitives":[{"attributes":{"NORMAL":1,"POSITION":0,"TEXCOORD_0":2},"indices":3,"material":0},{"attributes":{"NORMAL":5,"POSITION":4,"TEXCOORD_0":6},"indices":7,"material":1}]}],"nodes":[{"mesh":0,"name":"signpost"}],"scene":0,"scenes":[{"name":"Scene","nodes":[0]}],"textures":[]}
