{"accessors":[{"bufferView":0,"componentType":5126,"count":24,"max":[6.599999904632568,0.8999999761581421,-1.5499999523162842],"min":[6.199999809265137,0.7200000286102295,-2.380000114440918],"type":"VEC3"},{"bufferView":1,"componentType":5126,"count":24,"type":"VEC3"},{"bufferView":2,"componentType":5126,"count":24,"type":"VEC2"},{"bufferView":3,"componentType":5123,"count":36,"type":"SCALAR"},{"bufferView":4,"componentType":5126,"count":16,"max":[6.519999980926514,0.9399999976158142,-1.149999976158142],"min":[6.28000020980835,0.699999988079071,-1.5499999523162842],"type":"VEC3"},{"bufferView":5,"componentType":5126,"count":16,"type":"VEC3"},{"bufferView":6,"componentType":5126,"count":16,"type":"VEC2"},{"bufferView":7,"componentType":5123,"count":24,"type":"SCALAR"},{"bufferView":8,"componentType":5126,"count":24,"max":[6.699999809265137,0.5,-1.7000000476837158],"min":[6.099999904632568,0,-2.299999952316284],"type":"VEC3"},{"bufferView":9,"componentType":5126,"count":24,"type":"VEC3"},{"bufferView":10,"componentType":5126,"count":24,"type":"VEC2"},{"bufferView":11,"componentType":5126,"count":24,"max":[6.519999980926514,0.7200000286102295,-1.7000000476837158],"min":[6.28000020980835,0.5,-2.299999952316284],"type":"VEC3"},{"bufferView":12,"componentType":5126,"count":24,"type":"VEC3"},{"bufferView":13,"componentType":5126,"count":24,"type":"VEC2"},{"bufferView":14,"componentType":5126,"count":24,"max":[7.440000057220459,2.5,-0.2800000011920929],"min":[7.199999809265137,0,-0.5199999809265137],"type":"VEC3"},{"bufferView":15,"componentType":5126,"count":24,"type":"VEC3"},{"bufferView":16,"componentType":5126,"count":24,"type":"VEC2"},{"bufferView":17,"componentType":5126,"count":24,"max":[7.440000057220459,2.5,-3.880000114440918],"min":[7.199999809265137,0,-4.119999885559082],"type":"VEC3"},{"bufferView":18,"componentType":5126,"count":24,"type":"VEC3"},{"bufferView":19,"componentType":5126,"count":24,"type":"VEC2"},{"bufferView":20,"componentType":5126,"count":24,"max":[7.440000057220459,2.5,-7.480000019073486],"min":[7.199999809265137,0,-7.71999979019165],"type":"VEC3"},{"bufferView":21,"componentType":5126,"count":24,"type":"VEC3"},{"bufferView":22,"componentType":5126,"count":24,"type":"VEC2"},{"bufferView":23,"componentType":5126,"count":24,"max":[7.5,2.549999952316284,-0.20000000298023224],"min":[7.150000095367432,2.3499999046325684,-7.800000190734863],"type":"VEC3"},{"bufferView":24,"componentType":5126,"count":24,"type":"VEC3"},{"bufferView":25,"componentType":5126,"count":24,"type":"VEC2"},{"bufferView":26,"componentType":5126,"count":24,"max":[5.349999904632568,10.330562591552734,-3.5],"min":[4.349999904632568,2.5999999046325684,-4.5],"type":"VEC3"},{"bufferView":27,"componentType":5126,"count":24,"type":"VEC3"},{"bufferView":28,"componentType":5126,"count":24,"type":"VEC2"},{"bufferView":29,"componentType":5126,"count":24,"max":[5.449999809265137,10.530562400817871,-3.4000000953674316],"min":[4.25,10.330562591552734,-4.599999904632568],"type":"VEC3"},{"bufferView":30,"componentType":5126,"count":24,"type":"VEC3"},{"bufferView":31,"componentType":5126,"count":24,"type":"VEC2"},{"bufferView":32,"componentType":5126,"count":24,"max":[5.400000095367432,0.9200000166893005,-2.799999952316284],"min":[4.300000190734863,0.8500000238418579,-5.199999809265137],"type":"VEC3"},{"bufferView":33,"componentType":5126,"count":24,"type":"VEC3"},{"bufferView":34,"componentType":5126,"count":24,"type":"VEC2"},{"bufferView":35,"componentType":5126,"count":24,"max":[0.10508709400892258,2.999999761581421,0.11982007324695587],"min":[-0.10508733242750168,-1.5052728485898115e-07,-0.11982005089521408],"type":"VEC3"},{"bufferView":36,"componentType":5126,"count":24,"type":"VEC3"},{"bufferView":37,"componentType":5126,"count":24,"type":"VEC2"},{"bufferView":38,"componentType":5123,"count":36,"type":"SCALAR"},{"bufferView":39,"componentType":5126,"count":664,"max":[1.0716030597686768,2.134512424468994,0.05755815654993057],"min":[-0.04626310616731644,0.0352252721786499,-0.05755755677819252],"type":"VEC3"},{"bufferView":40,"componentType":5126,"count":664,"type":"VEC3"},{"bufferView":41,"componentType":5126,"count":664,"type":"VEC2"},{"bufferView":42,"componentType":5123,"count":996,"type":"SCALAR"},{"bufferView":43,"componentType":5126,"count":601,"max":[1.0157819986343384,1.2524888515472412,0.0917586237192154],"min":[0.027867160737514496,0.07330965995788574,-0.10770562291145325],"type":"VEC3"},{"bufferView":44,"componentType":5126,"count":601,"type":"VEC3"},{"bufferView":45,"componentType":5126,"count":601,"type":"VEC2"},{"bufferView":46,"componentType":5123,"count":1962,"type":"SCALAR"},{"bufferView":47,"componentType":5126,"count":118,"max":[0.7877825498580933,2.3037145137786865,0.14516234397888184],"min":[-0.7862095236778259,-0.008544828742742538,-0.24328981339931488],"type":"VEC3"},{"bufferView":48,"componentType":5126,"count":118,"type":"VEC3"},{"bufferView":49,"componentType":5126,"count":118,"type":"VEC2"},{"bufferView":50,"componentType":5123,"count":168,"type":"SCALAR"},{"bufferView":51,"componentType":5126,"count":24,"max":[5.599999904632568,0.8500000238418579,-2.5],"min":[4.099999904632568,0,-5.5],"type":"VEC3"},{"bufferView":52,"componentType":5126,"count":24,"type":"VEC3"},{"bufferView":53,"componentType":5126,"count":24,"type":"VEC2"},{"bufferView":54,"componentType":5126,"count":16,"max":[5.698528289794922,2.799999952316284,-3.1514718532562256],"min":[4.001471996307373,1.899999976158142,-4.848527908325195],"type":"VEC3"},{"bufferView":55,"componentType":5126,"count":16,"type":"VEC3"},{"bufferView":56,"componentType":5126,"count":16,"type":"VEC2"},{"bufferView":57,"componentType":5123,"count":24,"type":"SCALAR"},{"bufferView":58,"componentType":5126,"count":24,"max":[7.800000190734863,3.0999999046325684,0],"min":[3.9782605171203613,2.2819857597351074,-8],"type":"VEC3"},{"bufferView":59,"componentType":5126,"count":24,"type":"VEC3"},{"bufferView":60,"componentType":5126,"count":24,"type":"VEC2"},{"bufferView":61,"componentType":5123,"count":36,"type":"SCALAR"},{"bufferView":62,"componentType":5126,"count":600,"max":[4.256076812744141,5.269639492034912,0.794139564037323],"min":[-4.254717826843262,-0.13180209696292877,-0.33496370911598206],"type":"VEC3"},{"bufferView":63,"componentType":5126,"count":600,"type":"VEC3"},{"bufferView":64,"componentType":5126,"count":600,"type":"VEC2"},{"bufferView":65,"componentType":5123,"count":1056,"type":"SCALAR"},{"bufferView":66,"componentType":5126,"count":16,"max":[4.1627702713012695,5.314065933227539,1.6825651982799172e-11],"min":[-4.1627702713012695,0.019167065620422363,-0.24970084428787231],"type":"VEC3"},{"bufferView":67,"componentType":5126,"count":16,"type":"VEC3"},{"bufferView":68,"componentType":5126,"count":16,"type":"VEC2"},{"bufferView":69,"componentType":5123,"count":36,"type":"SCALAR"},{"bufferView":70,"componentType":5126,"count":1660,"max":[4.9567179679870605,5.600559711456299,4.856163024902344],"min":[-4.9567179679870605,-0.7799561023712158,-4.856163024902344],"type":"VEC3"},{"bufferView":71,"componentType":5126,"count":1660,"type":"VEC3"},{"bufferView":72,"componentType":5126,"count":1660,"type":"VEC2"},{"bufferView":73,"componentType":5123,"count":2574,"type":"SCALAR"},{"bufferView":74,"componentType":5126,"count":1722,"max":[4.975997447967529,6.001367092132568,5.247446537017822],"min":[-4.975997447967529,-0.5717926621437073,-5.08474063873291],"type":"VEC3"},{"bufferView":75,"componentType":5126,"count":1722,"type":"VEC3"},{"bufferView":76,"componentType":5126,"count":1722,"type":"VEC2"},{"bufferView":77,"componentType":5123,"count":4422,"type":"SCALAR"},{"bufferView":78,"componentType":5126,"count":24,"max":[7,0.6000000238418579,-6.199999809265137],"min":[6,0,-7.400000095367432],"type":"VEC3"},{"bufferView":79,"componentType":5126,"count":24,"type":"VEC3"},{"bufferView":80,"componentType":5126,"count":24,"type":"VEC2"},{"bufferView":81,"componentType":5126,"count":24,"max":[6.920000076293945,0.5600000023841858,-6.28000020980835],"min":[6.079999923706055,0.5,-7.320000171661377],"type":"VEC3"},{"bufferView":82,"componentType":5126,"count":24,"type":"VEC3"},{"bufferView":83,"componentType":5126,"count":24,"type":"VEC2"},{"bufferView":84,"componentType":5126,"count":64,"max":[1,3.1226887702941895,0.09244640171527863],"min":[-1.0000001192092896,2.877309799194336,-0.3140353262424469],"type":"VEC3"},{"bufferView":85,"componentType":5126,"count":64,"type":"VEC3"},{"bufferView":86,"componentType":5126,"count":64,"type":"VEC2"},{"bufferView":87,"componentType":5123,"count":150,"type":"SCALAR"},{"bufferView":88,"componentType":5126,"count":12,"max":[1,3,-0.19999991357326508],"min":[-1,0,-0.2000000923871994],"type":"VEC3"},{"bufferView":89,"componentType":5126,"count":12,"type":"VEC3"},{"bufferView":90,"componentType":5126,"count":12,"type":"VEC2"},{"bufferView":91,"componentType":5123,"count":30,"type":"SCALAR"},{"bufferView":92,"componentType":5126,"count":20,"max":[1,3,1.3113415775478643e-07],"min":[-1,0,0],"type":"VEC3"},{"bufferView":93,"componentType":5126,"count":20,"type":"VEC3"},{"bufferView":94,"componentType":5126,"count":20,"type":"VEC2"},{"bufferView":95,"componentType":5123,"count":42,"type":"SCALAR"},{"bufferView":96,"componentType":5126,"count":64,"max":[1,3.1226887702941895,0.09244640171527863],"min":[-1.0000001192092896,2.877309799194336,-0.3140353262424469],"type":"VEC3"},{"bufferView":97,"componentType":5126,"count":64,"type":"VEC3"},{"bufferView":98,"componentType":5126,"count":64,"type":"VEC2"},{"bufferView":99,"componentType":5126,"count":4,"max":[1,3,-0.19999991357326508],"min":[-1,0,-0.2000000923871994],"type":"VEC3"},{"bufferView":100,"componentType":5126,"count":4,"type":"VEC3"},{"bufferView":101,"componentType":5126,"count":4,"type":"VEC2"},{"bufferView":102,"componentType":5123,"count":6,"type":"SCALAR"},{"bufferView":103,"componentType":5126,"count":8,"max":[1,3,1.3113415775478643e-07],"min":[-1,0,0],"type":"VEC3"},{"bufferView":104,"componentType":5126,"count":8,"type":"VEC3"},{"bufferView":105,"componentType":5126,"count":8,"type":"VEC2"},{"bufferView":106,"componentType":5123,"count":12,"type":"SCALAR"},{"bufferView":107,"componentType":5126,"count":64,"max":[1,3.1226887702941895,0.09244640171527863],"min":[-1.0000001192092896,2.877309799194336,-0.3140353262424469],"type":"VEC3"},{"bufferView":108,"componentType":5126,"count":64,"type":"VEC3"},{"bufferView":109,"componentType":5126,"count":64,"type":"VEC2"},{"bufferView":110,"componentType":5123,"count":150,"type":"SCALAR"},{"bufferView":111,"componentType":5126,"count":16,"max":[1,3,-0.19999989867210388],"min":[-1,0,-0.2000000923871994],"type":"VEC3"},{"bufferView":112,"componentType":5126,"count":16,"type":"VEC3"},{"bufferView":113,"componentType":5126,"count":16,"type":"VEC2"},{"bufferView":114,"componentType":5123,"count":48,"type":"SCALAR"},{"bufferView":115,"componentType":5126,"count":22,"max":[1,3,1.3113415775478643e-07],"min":[-1,0,0],"type":"VEC3"},{"bufferView":116,"componentType":5126,"count":22,"type":"VEC3"},{"bufferView":117,"componentType":5126,"count":22,"type":"VEC2"},{"bufferView":118,"componentType":5123,"count":66,"type":"SCALAR"},{"bufferView":119,"componentType":5126,"count":272,"max":[0.8041172027587891,2.5242888927459717,0.4168574810028076],"min":[-0.8041191101074219,0.94417804479599,-0.26658084988594055],"type":"VEC3"},{"bufferView":120,"componentType":5126,"count":272,"type":"VEC3"},{"bufferView":121,"componentType":5126,"count":272,"type":"VEC2"},{"bufferView":122,"componentType":5123,"count":408,"type":"SCALAR"},{"bufferView":123,"componentType":5126,"count":45,"max":[0.5054702758789062,2.355356216430664,0.003888234496116638],"min":[-0.5054721832275391,1.0971393585205078,0.0038878247141838074],"type":"VEC3"},{"bufferView":124,"componentType":5126,"count":45,"type":"VEC3"},{"bufferView":125,"componentType":5126,"count":45,"type":"VEC2"},{"bufferView":126,"componentType":5123,"count":72,"type":"SCALAR"},{"bufferView":127,"componentType":5126,"count":240,"max":[1.2418603897094727,2.51727557182312,0.5931743383407593],"min":[-1.2387090921401978,1.0932440757751465,0.13665564358234406],"type":"VEC3"},{"bufferView":128,"componentType":5126,"count":240,"type":"VEC3"},{"bufferView":129,"componentType":5126,"count":240,"type":"VEC2"},{"bufferView":130,"componentType":5123,"count":360,"type":"SCALAR"}],"asset":{"generator":"Khronos glTF Blender I/O v5.2.40","version":"2.0"},"bufferViews":[{"buffer":0,"byteLength":288,"byteOffset":0,"target":34962},{"buffer":0,"byteLength":288,"byteOffset":288,"target":34962},{"buffer":0,"byteLength":192,"byteOffset":576,"target":34962},{"buffer":0,"byteLength":72,"byteOffset":768,"target":34963},{"buffer":0,"byteLength":192,"byteOffset":840,"target":34962},{"buffer":0,"byteLength":192,"byteOffset":1032,"target":34962},{"buffer":0,"byteLength":128,"byteOffset":1224,"target":34962},{"buffer":0,"byteLength":48,"byteOffset":1352,"target":34963},{"buffer":0,"byteLength":288,"byteOffset":1400,"target":34962},{"buffer":0,"byteLength":288,"byteOffset":1688,"target":34962},{"buffer":0,"byteLength":192,"byteOffset":1976,"target":34962},{"buffer":0,"byteLength":288,"byteOffset":2168,"target":34962},{"buffer":0,"byteLength":288,"byteOffset":2456,"target":34962},{"buffer":0,"byteLength":192,"byteOffset":2744,"target":34962},{"buffer":0,"byteLength":288,"byteOffset":2936,"target":34962},{"buffer":0,"byteLength":288,"byteOffset":3224,"target":34962},{"buffer":0,"byteLength":192,"byteOffset":3512,"target":34962},{"buffer":0,"byteLength":288,"byteOffset":3704,"target":34962},{"buffer":0,"byteLength":288,"byteOffset":3992,"target":34962},{"buffer":0,"byteLength":192,"byteOffset":4280,"target":34962},{"buffer":0,"byteLength":288,"byteOffset":4472,"target":34962},{"buffer":0,"byteLength":288,"byteOffset":4760,"target":34962},{"buffer":0,"byteLength":192,"byteOffset":5048,"target":34962},{"buffer":0,"byteLength":288,"byteOffset":5240,"target":34962},{"buffer":0,"byteLength":288,"byteOffset":5528,"target":34962},{"buffer":0,"byteLength":192,"byteOffset":5816,"target":34962},{"buffer":0,"byteLength":288,"byteOffset":6008,"target":34962},{"buffer":0,"byteLength":288,"byteOffset":6296,"target":34962},{"buffer":0,"byteLength":192,"byteOffset":6584,"target":34962},{"buffer":0,"byteLength":288,"byteOffset":6776,"target":34962},{"buffer":0,"byteLength":288,"byteOffset":7064,"target":34962},{"buffer":0,"byteLength":192,"byteOffset":7352,"target":34962},{"buffer":0,"byteLength":288,"byteOffset":7544,"target":34962},{"buffer":0,"byteLength":288,"byteOffset":7832,"target":34962},{"buffer":0,"byteLength":192,"byteOffset":8120,"target":34962},{"buffer":0,"byteLength":288,"byteOffset":8312,"target":34962},{"buffer":0,"byteLength":288,"byteOffset":8600,"target":34962},{"buffer":0,"byteLength":192,"byteOffset":8888,"target":34962},{"buffer":0,"byteLength":72,"byteOffset":9080,"target":34963},{"buffer":0,"byteLength":7968,"byteOffset":9152,"target":34962},{"buffer":0,"byteLength":7968,"byteOffset":17120,"target":34962},{"buffer":0,"byteLength":5312,"byteOffset":25088,"target":34962},{"buffer":0,"byteLength":1992,"byteOffset":30400,"target":34963},{"buffer":0,"byteLength":7212,"byteOffset":32392,"target":34962},{"buffer":0,"byteLength":7212,"byteOffset":39604,"target":34962},{"buffer":0,"byteLength":4808,"byteOffset":46816,"target":34962},{"buffer":0,"byteLength":3924,"byteOffset":51624,"target":34963},{"buffer":0,"byteLength":1416,"byteOffset":55548,"target":34962},{"buffer":0,"byteLength":1416,"byteOffset":56964,"target":34962},{"buffer":0,"byteLength":944,"byteOffset":58380,"target":34962},{"buffer":0,"byteLength":336,"byteOffset":59324,"target":34963},{"buffer":0,"byteLength":288,"byteOffset":59660,"target":34962},{"buffer":0,"byteLength":288,"byteOffset":59948,"target":34962},{"buffer":0,"byteLength":192,"byteOffset":60236,"target":34962},{"buffer":0,"byteLength":192,"byteOffset":60428,"target":34962},{"buffer":0,"byteLength":192,"byteOffset":60620,"target":34962},{"buffer":0,"byteLength":128,"byteOffset":60812,"target":34962},{"buffer":0,"byteLength":48,"byteOffset":60940,"target":34963},{"buffer":0,"byteLength":288,"byteOffset":60988,"target":34962},{"buffer":0,"byteLength":288,"byteOffset":61276,"target":34962},{"buffer":0,"byteLength":192,"byteOffset":61564,"target":34962},{"buffer":0,"byteLength":72,"byteOffset":61756,"target":34963},{"buffer":0,"byteLength":7200,"byteOffset":61828,"target":34962},{"buffer":0,"byteLength":7200,"byteOffset":69028,"target":34962},{"buffer":0,"byteLength":4800,"byteOffset":76228,"target":34962},{"buffer":0,"byteLength":2112,"byteOffset":81028,"target":34963},{"buffer":0,"byteLength":192,"byteOffset":83140,"target":34962},{"buffer":0,"byteLength":192,"byteOffset":83332,"target":34962},{"buffer":0,"byteLength":128,"byteOffset":83524,"target":34962},{"buffer":0,"byteLength":72,"byteOffset":83652,"target":34963},{"buffer":0,"byteLength":19920,"byteOffset":83724,"target":34962},{"buffer":0,"byteLength":19920,"byteOffset":103644,"target":34962},{"buffer":0,"byteLength":13280,"byteOffset":123564,"target":34962},{"buffer":0,"byteLength":5148,"byteOffset":136844,"target":34963},{"buffer":0,"byteLength":20664,"byteOffset":141992,"target":34962},{"buffer":0,"byteLength":20664,"byteOffset":162656,"target":34962},{"buffer":0,"byteLength":13776,"byteOffset":183320,"target":34962},{"buffer":0,"byteLength":8844,"byteOffset":197096,"target":34963},{"buffer":0,"byteLength":288,"byteOffset":205940,"target":34962},{"buffer":0,"byteLength":288,"byteOffset":206228,"target":34962},{"buffer":0,"byteLength":192,"byteOffset":206516,"target":34962},{"buffer":0,"byteLength":288,"byteOffset":206708,"target":34962},{"buffer":0,"byteLength":288,"byteOffset":206996,"target":34962},{"buffer":0,"byteLength":192,"byteOffset":207284,"target":34962},{"buffer":0,"byteLength":768,"byteOffset":207476,"target":34962},{"buffer":0,"byteLength":768,"byteOffset":208244,"target":34962},{"buffer":0,"byteLength":512,"byteOffset":209012,"target":34962},{"buffer":0,"byteLength":300,"byteOffset":209524,"target":34963},{"buffer":0,"byteLength":144,"byteOffset":209824,"target":34962},{"buffer":0,"byteLength":144,"byteOffset":209968,"target":34962},{"buffer":0,"byteLength":96,"byteOffset":210112,"target":34962},{"buffer":0,"byteLength":60,"byteOffset":210208,"target":34963},{"buffer":0,"byteLength":240,"byteOffset":210268,"target":34962},{"buffer":0,"byteLength":240,"byteOffset":210508,"target":34962},{"buffer":0,"byteLength":160,"byteOffset":210748,"target":34962},{"buffer":0,"byteLength":84,"byteOffset":210908,"target":34963},{"buffer":0,"byteLength":768,"byteOffset":210992,"target":34962},{"buffer":0,"byteLength":768,"byteOffset":211760,"target":34962},{"buffer":0,"byteLength":512,"byteOffset":212528,"target":34962},{"buffer":0,"byteLength":48,"byteOffset":213040,"target":34962},{"buffer":0,"byteLength":48,"byteOffset":213088,"target":34962},{"buffer":0,"byteLength":32,"byteOffset":213136,"target":34962},{"buffer":0,"byteLength":12,"byteOffset":213168,"target":34963},{"buffer":0,"byteLength":96,"byteOffset":213180,"target":34962},{"buffer":0,"byteLength":96,"byteOffset":213276,"target":34962},{"buffer":0,"byteLength":64,"byteOffset":213372,"target":34962},{"buffer":0,"byteLength":24,"byteOffset":213436,"target":34963},{"buffer":0,"byteLength":768,"byteOffset":213460,"target":34962},{"buffer":0,"byteLength":768,"byteOffset":214228,"target":34962},{"buffer":0,"byteLength":512,"byteOffset":214996,"target":34962},{"buffer":0,"byteLength":300,"byteOffset":215508,"target":34963},{"buffer":0,"byteLength":192,"byteOffset":215808,"target":34962},{"buffer":0,"byteLength":192,"byteOffset":216000,"target":34962},{"buffer":0,"byteLength":128,"byteOffset":216192,"target":34962},{"buffer":0,"byteLength":96,"byteOffset":216320,"target":34963},{"buffer":0,"byteLength":264,"byteOffset":216416,"target":34962},{"buffer":0,"byteLength":264,"byteOffset":216680,"target":34962},{"buffer":0,"byteLength":176,"byteOffset":216944,"target":34962},{"buffer":0,"byteLength":132,"byteOffset":217120,"target":34963},{"buffer":0,"byteLength":3264,"byteOffset":217252,"target":34962},{"buffer":0,"byteLength":3264,"byteOffset":220516,"target":34962},{"buffer":0,"byteLength":2176,"byteOffset":223780,"target":34962},{"buffer":0,"byteLength":816,"byteOffset":225956,"target":34963},{"buffer":0,"byteLength":540,"byteOffset":226772,"target":34962},{"buffer":0,"byteLength":540,"byteOffset":227312,"target":34962},{"buffer":0,"byteLength":360,"byteOffset":227852,"target":34962},{"buffer":0,"byteLength":144,"byteOffset":228212,"target":34963},{"buffer":0,"byteLength":2880,"byteOffset":228356,"target":34962},{"buffer":0,"byteLength":2880,"byteOffset":231236,"target":34962},{"buffer":0,"byteLength":1920,"byteOffset":234116,"target":34962},{"buffer":0,"byteLength":720,"byteOffset":236036,"target":34963}],"buffers":[{"byteLength":236756,"uri":"smithy.bin"}],"images":[{"name":"T_Brick_BaseColor","uri":"../village/T_Brick_BaseColor.png"},{"name":"T_MetalOrnaments_BaseColor","uri":"../village/T_MetalOrnaments_BaseColor.png"},{"name":"T_Plaster_Luma","uri":"../village/T_Plaster_Luma.png"},{"name":"T_RockTrim_BaseColor","uri":"../village/T_RockTrim_BaseColor.png"},{"name":"T_RoundTiles_Luma","uri":"../village/T_RoundTiles_Luma.png"},{"name":"T_UnevenBrick_BaseColor","uri":"../village/T_UnevenBrick_BaseColor.png"},{"name":"T_WoodTrim_BaseColor","uri":"../village/T_WoodTrim_BaseColor.png"}],"materials":[{"doubleSided":true,"name":"Iron","pbrMetallicRoughness":{"baseColorFactor":[0.0134117491543293,0.0134117491543293,0.015325203537940979,1],"metallicFactor":0,"roughnessFactor":0.5}},{"doubleSided":true,"name":"Wood_dark","pbrMetallicRoughness":{"baseColorFactor":[0.2329,0.2659,0.2944,1.0],"baseColorTexture":{"index":6},"metallicFactor":0,"roughnessFactor":0.8500000238418579}},{"doubleSided":true,"name":"Brick","pbrMetallicRoughness":{"baseColorFactor":[1.0,0.9974,1.0,1.0],"baseColorTexture":{"index":0},"metallicFactor":0,"roughnessFactor":0.8500000238418579}},{"doubleSided":true,"name":"RockTrim","pbrMetallicRoughness":{"baseColorFactor":[1.0,0.9979,1.0,1.0],"baseColorTexture":{"index":3},"metallicFactor":0,"roughnessFactor":0.8500000238418579}},{"doubleSided":true,"emissiveFactor":[1,0.13286831974983215,0.010022825561463833],"name":"Coals","pbrMetallicRoughness":{"baseColorFactor":[1,0.17064493894577026,0.0134117491543293,1],"metallicFactor":0,"roughnessFactor":0.8500000238418579}},{"doubleSided":true,"name":"Metal","pbrMetallicRoughness":{"baseColorFactor":[1.0,0.9989,0.996,1.0],"baseColorTexture":{"index":1},"metallicFactor":0,"roughnessFactor":0.5}},{"doubleSided":true,"name":"Plaster_white","pbrMetallicRoughness":{"baseColorFactor":[1.0,1.0,0.9092,1.0],"baseColorTexture":{"index":2},"metallicFactor":0,"roughnessFactor":0.8500000238418579}},{"doubleSided":true,"name":"Tiles_charcoal","pbrMetallicRoughness":{"baseColorFactor":[0.1165,0.1149,0.1269,1.0],"baseColorTexture":{"index":4},"metallicFactor":0,"roughnessFactor":0.699999988079071}},{"doubleSided":true,"name":"Glass","pbrMetallicRoughness":{"baseColorFactor":[0.03310476616024971,0.05087608844041824,0.07828831672668457,1],"metallicFactor":0,"roughnessFactor":0.20000000298023224}},{"doubleSided":true,"name":"Stone","pbrMetallicRoughness":{"baseColorFactor":[1.0,0.9974,0.9977,1.0],"baseColorTexture":{"index":5},"metallicFactor":0,"roughnessFactor":0.8500000238418579}}],"meshes":[{"name":"AnvilFace","primitives":[{"attributes":{"NORMAL":1,"POSITION":0,"TEXCOORD_0":2},"indices":3,"material":0}]},{"name":"AnvilHorn","primitives":[{"attributes":{"NORMAL":5,"POSITION":4,"TEXCOORD_0":6},"indices":7,"material":0}]},{"name":"AnvilStump","primitives":[{"attributes":{"NORMAL":9,"POSITION":8,"TEXCOORD_0":10},"indices":3,"material":1}]},{"name":"AnvilWaist","primitives":[{"attributes":{"NORMAL":12,"POSITION":11,"TEXCOORD_0":13},"indices":3,"material":0}]},{"name":"Beam","primitives":[{"attributes":{"NORMAL":15,"POSITION":14,"TEXCOORD_0":16},"indices":3,"material":1}]},{"name":"Beam.001","primitives":[{"attributes":{"NORMAL":18,"POSITION":17,"TEXCOORD_0":19},"indices":3,"material":1}]},{"name":"Beam.002","primitives":[{"attributes":{"NORMAL":21,"POSITION":20,"TEXCOORD_0":22},"indices":3,"material":1}]},{"name":"Beam.003","primitives":[{"attributes":{"NORMAL":24,"POSITION":23,"TEXCOORD_0":25},"indices":3,"material":1}]},{"name":"Chimney","primitives":[{"attributes":{"NORMAL":27,"POSITION":26,"TEXCOORD_0":28},"indices":3,"material":2}]},{"name":"ChimneyCap","primitives":[{"attributes":{"NORMAL":30,"POSITION":29,"TEXCOORD_0":31},"indices":3,"material":3}]},{"name":"Coals","primitives":[{"attributes":{"NORMAL":33,"POSITION":32,"TEXCOORD_0":34},"indices":3,"material":4}]},{"name":"kit_Corner_Exterior_Wood","primitives":[{"attributes":{"NORMAL":36,"POSITION":35,"TEXCOORD_0":37},"indices":38,"material":1}]},{"name":"kit_Door_8_Flat","primitives":[{"attributes":{"NORMAL":40,"POSITION":39,"TEXCOORD_0":41},"indices":42,"material":1},{"attributes":{"NORMAL":44,"POSITION":43,"TEXCOORD_0":45},"indices":46,"material":5}]},{"name":"kit_DoorFrame_Flat_WoodDark","primitives":[{"attributes":{"NORMAL":48,"POSITION":47,"TEXCOORD_0":49},"indices":50,"material":1}]},{"name":"Hearth","primitives":[{"attributes":{"NORMAL":52,"POSITION":51,"TEXCOORD_0":53},"indices":3,"material":2}]},{"name":"Hood","primitives":[{"attributes":{"NORMAL":55,"POSITION":54,"TEXCOORD_0":56},"indices":57,"material":2}]},{"name":"LeanTo","primitives":[{"attributes":{"NORMAL":59,"POSITION":58,"TEXCOORD_0":60},"indices":61,"material":1}]},{"name":"kit_Roof_Front_Brick8","primitives":[{"attributes":{"NORMAL":63,"POSITION":62,"TEXCOORD_0":64},"indices":65,"material":1},{"attributes":{"NORMAL":67,"POSITION":66,"TEXCOORD_0":68},"indices":69,"material":6}]},{"name":"kit_Roof_RoundTiles_8x8.001","primitives":[{"attributes":{"NORMAL":71,"POSITION":70,"TEXCOORD_0":72},"indices":73,"material":1},{"attributes":{"NORMAL":75,"POSITION":74,"TEXCOORD_0":76},"indices":77,"material":7}]},{"name":"Trough","primitives":[{"attributes":{"NORMAL":79,"POSITION":78,"TEXCOORD_0":80},"indices":3,"material":1}]},{"name":"TroughWater","primitives":[{"attributes":{"NORMAL":82,"POSITION":81,"TEXCOORD_0":83},"indices":3,"material":8}]},{"name":"kit_Wall_UnevenBrick_Door_Flat","primitives":[{"attributes":{"NORMAL":85,"POSITION":84,"TEXCOORD_0":86},"indices":87,"material":1},{"attributes":{"NORMAL":89,"POSITION":88,"TEXCOORD_0":90},"indices":91,"material":6},{"attributes":{"NORMAL":93,"POSITION":92,"TEXCOORD_0":94},"indices":95,"material":9}]},{"name":"kit_Wall_UnevenBrick_Straight","primitives":[{"attributes":{"NORMAL":97,"POSITION":96,"TEXCOORD_0":98},"indices":87,"material":1},{"attributes":{"NORMAL":100,"POSITION":99,"TEXCOORD_0":101},"indices":102,"material":6},{"attributes":{"NORMAL":104,"POSITION":103,"TEXCOORD_0":105},"indices":106,"material":9}]},{"name":"kit_Wall_UnevenBrick_Window_Wide_Flat","primitives":[{"attributes":{"NORMAL":108,"POSITION":107,"TEXCOORD_0":109},"indices":110,"material":1},{"attributes":{"NORMAL":112,"POSITION":111,"TEXCOORD_0":113},"indices":114,"material":6},{"attributes":{"NORMAL":116,"POSITION":115,"TEXCOORD_0":117},"indices":118,"material":9}]},{"name":"kit_Window_Wide_Flat1","primitives":[{"attributes":{"NORMAL":120,"POSITION":119,"TEXCOORD_0":121},"indices":122,"material":1},{"attributes":{"NORMAL":124,"POSITION":123,"TEXCOORD_0":125},"indices":126,"material":8}]},{"name":"kit_WindowShutters_Wide_Flat_Open","primitives":[{"attributes":{"NORMAL":128,"POSITION":127,"TEXCOORD_0":129},"indices":130,"material":1}]}],"nodes":[{"mesh":0,"name":"AnvilFace.044"},{"mesh":1,"name":"AnvilHorn.045"},{"mesh":2,"name":"AnvilStump.042"},{"mesh":3,"name":"AnvilWaist.043"},{"mesh":4,"name":"Beam.032"},{"mesh":5,"name":"Beam.033"},{"mesh":6,"name":"Beam.034"},{"mesh":7,"name":"Beam.035"},{"mesh":8,"name":"Chimney.040"},{"mesh":9,"name":"ChimneyCap.041"},{"mesh":10,"name":"Coals.038"},{"mesh":11,"name":"Corner_Exterior_Wood.025","translation":[-4,0,0]},{"mesh":11,"name":"Corner_Exterior_Wood.026","translation":[4,0,0]},{"mesh":11,"name":"Corner_Exterior_Wood.027","translation":[-4,0,-8]},{"mesh":11,"name":"Corner_Exterior_Wood.028","translation":[4,0,-8]},{"mesh":12,"name":"Door_8_Flat.004","translation":[-1.5499999523162842,0,-0.019999999552965164]},{"mesh":13,"name":"DoorFrame_Flat_WoodDark.003","translation":[-1,0,0]},{"mesh":14,"name":"Hearth.037"},{"mesh":15,"name":"Hood.039"},{"mesh":16,"name":"LeanTo.036"},{"mesh":17,"name":"Roof_Front_Brick8.030","translation":[0,3.119999885559082,0]},{"mesh":17,"name":"Roof_Front_Brick8.031","rotation":[0,-1,0,4.371138828673793e-08],"translation":[0,3.119999885559082,-8]},{"mesh":18,"name":"Roof_RoundTiles_8x8.029","translation":[0,3.119999885559082,-4]},{"mesh":19,"name":"Trough.046"},{"mesh":20,"name":"TroughWater.047"},{"mesh":21,"name":"Wall_UnevenBrick_Door_Flat.002","translation":[-1,0,0]},{"mesh":22,"name":"Wall_UnevenBrick_Straight.001","translation":[-3,0,0]},{"mesh":22,"name":"Wall_UnevenBrick_Straight.008","translation":[3,0,0]},{"mesh":22,"name":"Wall_UnevenBrick_Straight.009","rotation":[0,-1,0,4.371138828673793e-08],"translation":[3,0,-8]},{"mesh":22,"name":"Wall_UnevenBrick_Straight.010","rotation":[0,-1,0,4.371138828673793e-08],"translation":[1,0,-8]},{"mesh":22,"name":"Wall_UnevenBrick_Straight.014","rotation":[0,-1,0,4.371138828673793e-08],"translation":[-3,0,-8]},{"mesh":22,"name":"Wall_UnevenBrick_Straight.015","rotation":[0,-0.7071068286895752,0,0.7071068286895752],"translation":[-4,0,-7]},{"mesh":22,"name":"Wall_UnevenBrick_Straight.019","rotation":[0,-0.7071068286895752,0,0.7071068286895752],"translation":[-4,0,-3]},{"mesh":22,"name":"Wall_UnevenBrick_Straight.020","rotation":[0,-0.7071068286895752,0,0.7071068286895752],"translation":[-4,0,-1]},{"mesh":22,"name":"Wall_UnevenBrick_Straight.021","rotation":[0,0.7071068286895752,0,0.7071068286895752],"translation":[4,0,-1]},{"mesh":22,"name":"Wall_UnevenBrick_Straight.022","rotation":[0,0.7071068286895752,0,0.7071068286895752],"translation":[4,0,-3]},{"mesh":22,"name":"Wall_UnevenBrick_Straight.023","rotation":[0,0.7071068286895752,0,0.7071068286895752],"translation":[4,0,-5]},{"mesh":22,"name":"Wall_UnevenBrick_Straight.024","rotation":[0,0.7071068286895752,0,0.7071068286895752],"translation":[4,0,-7]},{"mesh":23,"name":"Wall_UnevenBrick_Window_Wide_Flat.005","translation":[1,0,0]},{"mesh":23,"name":"Wall_UnevenBrick_Window_Wide_Flat.011","rotation":[0,-1,0,4.371138828673793e-08],"translation":[-1,0,-8]},{"mesh":23,"name":"Wall_UnevenBrick_Window_Wide_Flat.016","rotation":[0,-0.7071068286895752,0,0.7071068286895752],"translation":[-4,0,-5]},{"mesh":24,"name":"Window_Wide_Flat1.006","translation":[1,0,0]},{"mesh":24,"name":"Window_Wide_Flat1.012","rotation":[0,-1,0,4.371138828673793e-08],"translation":[-1,0,-8]},{"mesh":24,"name":"Window_Wide_Flat1.017","rotation":[0,-0.7071068286895752,0,0.7071068286895752],"translation":[-4,0,-5]},{"mesh":25,"name":"WindowShutters_Wide_Flat_Open.007","translation":[1,0,0]},{"mesh":25,"name":"WindowShutters_Wide_Flat_Open.013","rotation":[0,-1,0,4.371138828673793e-08],"translation":[-1,0,-8]},{"mesh":25,"name":"WindowShutters_Wide_Flat_Open.018","rotation":[0,-0.7071068286895752,0,0.7071068286895752],"translation":[-4,0,-5]}],"scene":0,"scenes":[{"name":"Scene","nodes":[0,1,2,3,4,5,6,7,8,9,10,11,12,13,14,15,16,17,18,19,20,21,22,23,24,25,26,27,28,29,30,31,32,33,34,35,36,37,38,39,40,41,42,43,44,45,46]}],"textures":[{"source":0},{"source":1},{"source":2},{"source":3},{"source":4},{"source":5},{"source":6}]}
