{"accessors":[{"bufferView":0,"componentType":5126,"count":168,"type":"VEC3"},{"bufferView":1,"componentType":5126,"count":168,"max":[1.6573774814605713,7.5,1.61582350730896],"min":[-1.6573774814605713,1,-1.61582350730896],"type":"VEC3"},{"bufferView":2,"componentType":5123,"count":288,"type":"SCALAR"},{"bufferView":3,"componentType":5126,"count":30,"type":"VEC3"},{"bufferView":4,"componentType":5126,"count":30,"max":[0.19021131098270416,1.7999999523162842,0.2459798902273178],"min":[-0.19021131098270416,0,-0.11582352221012115],"type":"VEC3"},{"bufferView":5,"componentType":5123,"count":48,"type":"SCALAR"}],"asset":{"generator":"Khronos glTF Blender I/O v5.2.40","version":"2.0"},"bufferViews":[{"buffer":0,"byteOffset":0,"byteLength":2016,"target":34962},{"buffer":0,"byteOffset":2016,"byteLength":2016,"target":34962},{"buffer":0,"byteOffset":4032,"byteLength":576,"target":34963},{"buffer":0,"byteOffset":4608,"byteLength":360,"target":34962},{"buffer":0,"byteOffset":4968,"byteLength":360,"target":34962},{"buffer":0,"byteOffset":5328,"byteLength":96,"target":34963}],"buffers":[{"byteLength":5424,"uri":"spruce_low.bin"}],"images":[],"materials":[{"doubleSided":true,"name":"Prop_Needles","pbrMetallicRoughness":{"baseColorFactor":[0.029999999329447746,0.10999999940395355,0.03500000014901161,1],"metallicFactor":0,"roughnessFactor":0.8999999761581421}},{"doubleSided":true,"name":"Prop_Bark","pbrMetallicRoughness":{"baseColorFactor":[0.1599999964237213,0.07999999821186066,0.03500000014901161,1],"metallicFactor":0,"roughnessFactor":0.8999999761581421}}],"meshes":[{"name":"spruce_low","primitives":[{"attributes":{"NORMAL":0,"POSITION":1},"indices":2,"material":0},{"attributes":{"NORMAL":3,"POSITION":4},"indices":5,"material":1}]}],"nodes":[{"mesh":0,"name":"spruce_low"}],"scene":0,"scenes":[{"name":"Scene","nodes":[0]}],"textures":[]}