{"accessors":[{"bufferView":0,"componentType":5126,"count":825,"type":"VEC3"},{"bufferView":1,"componentType":5126,"count":825,"max":[0.684999942779541,4.21999979019165,0.5038712024688721],"min":[-0.5149999856948853,0.8500000238418579,-0.46000000834465027],"type":"VEC3"},{"bufferView":2,"componentType":5123,"count":1200,"type":"SCALAR"},{"bufferView":3,"componentType":5126,"count":96,"type":"VEC3"},{"bufferView":4,"componentType":5126,"count":96,"max":[0.6150000095367432,0.30000001192092896,0.6499999761581421],"min":[-0.684999942779541,0,-0.6499999761581421],"type":"VEC3"},{"bufferView":5,"componentType":5123,"count":132,"type":"SCALAR"},{"bufferView":6,"componentType":5126,"count":192,"type":"VEC3"},{"bufferView":7,"componentType":5126,"count":192,"max":[0.5149999856948853,1.6200000047683716,0.550000011920929],"min":[-0.5850000381469727,0.2999999523162842,-0.550000011920929],"type":"VEC3"},{"bufferView":8,"componentType":5123,"count":264,"type":"SCALAR"},{"bufferView":9,"componentType":5126,"count":20,"type":"VEC3"},{"bufferView":10,"componentType":5126,"count":20,"max":[0.6620633602142334,4.400000095367432,0.068541020154953],"min":[0.5479365587234497,4.21999979019165,-0.03999999910593033],"type":"VEC3"},{"bufferView":11,"componentType":5123,"count":24,"type":"SCALAR"}],"asset":{"generator":"Khronos glTF Blender I/O v5.2.40","version":"2.0"},"bufferViews":[{"buffer":0,"byteOffset":0,"byteLength":9900,"target":34962},{"buffer":0,"byteOffset":9900,"byteLength":9900,"target":34962},{"buffer":0,"byteOffset":19800,"byteLength":2400,"target":34963},{"buffer":0,"byteOffset":22200,"byteLength":1152,"target":34962},{"buffer":0,"byteOffset":23352,"byteLength":1152,"target":34962},{"buffer":0,"byteOffset":24504,"byteLength":264,"target":34963},{"buffer":0,"byteOffset":24768,"byteLength":2304,"target":34962},{"buffer":0,"byteOffset":27072,"byteLength":2304,"target":34962},{"buffer":0,"byteOffset":29376,"byteLength":528,"target":34963},{"buffer":0,"byteOffset":29904,"byteLength":240,"target":34962},{"buffer":0,"byteOffset":30144,"byteLength":240,"target":34962},{"buffer":0,"byteOffset":30384,"byteLength":48,"target":34963}],"buffers":[{"byteLength":30432,"uri":"statue.bin"}],"images":[],"materials":[{"doubleSided":true,"name":"Prop_Bronze","pbrMetallicRoughness":{"baseColorFactor":[0.12999999523162842,0.25999999046325684,0.20000000298023224,1],"metallicFactor":0.6000000238418579,"roughnessFactor":0.44999998807907104}},{"doubleSided":true,"name":"Prop_StoneDark","pbrMetallicRoughness":{"baseColorFactor":[0.25999999046325684,0.25,0.23000000417232513,1],"metallicFactor":0,"roughnessFactor":0.949999988079071}},{"doubleSided":true,"name":"Prop_Marble","pbrMetallicRoughness":{"baseColorFactor":[0.7200000286102295,0.699999988079071,0.6399999856948853,1],"metallicFactor":0,"roughnessFactor":0.6000000238418579}},{"doubleSided":true,"name":"Prop_FlowerYellow","pbrMetallicRoughness":{"baseColorFactor":[0.8500000238418579,0.6000000238418579,0.05000000074505806,1],"metallicFactor":0,"roughnessFactor":0.699999988079071}}],"meshes":[{"name":"statue","primitives":[{"attributes":{"NORMAL":0,"POSITION":1},"indices":2,"material":0},{"attributes":{"NORMAL":3,"POSITION":4},"indices":5,"material":1},{"attributes":{"NORMAL":6,"POSITION":7},"indices":8,"material":2},{"attributes":{"NORMAL":9,"POSITION":10},"indices":11,"material":3}]}],"nodes":[{"mesh":0,"name":"statue"}],"scene":0,"scenes":[{"name":"Scene","nodes":[0]}],"textures":[]}