{"accessors":[{"bufferView":0,"componentType":5126,"count":168,"type":"VEC3"},{"bufferView":1,"componentType":5126,"count":168,"max":[4.829999923706055,6.989999771118164,0],"min":[-4,0,-7],"type":"VEC3"},{"bufferView":2,"componentType":5126,"count":168,"type":"VEC2"},{"bufferView":3,"componentType":5123,"count":252,"type":"SCALAR"},{"bufferView":4,"componentType":5126,"count":84,"type":"VEC3"},{"bufferView":5,"componentType":5126,"count":84,"max":[4.099999904632568,2.5999999046325684,0.11999999731779099],"min":[-4.099999904632568,0,-7.099999904632568],"type":"VEC3"},{"bufferView":6,"componentType":5126,"count":84,"type":"VEC2"},{"bufferView":7,"componentType":5123,"count":126,"type":"SCALAR"},{"bufferView":8,"componentType":5126,"count":1060,"type":"VEC3"},{"bufferView":9,"componentType":5126,"count":1060,"max":[4.570000171661377,5.091851711273193,0.5699999928474426],"min":[-4.570000171661377,0,-7.570000171661377],"type":"VEC3"},{"bufferView":10,"componentType":5126,"count":1060,"type":"VEC2"},{"bufferView":11,"componentType":5123,"count":1590,"type":"SCALAR"},{"bufferView":12,"componentType":5126,"count":44,"type":"VEC3"},{"bufferView":13,"componentType":5126,"count":44,"max":[4.53000020980835,7.25,0.05999999865889549],"min":[-0.10000000149011612,1.055999994277954,-3.380000114440918],"type":"VEC3"},{"bufferView":14,"componentType":5123,"count":66,"type":"SCALAR"},{"bufferView":15,"componentType":5126,"count":120,"type":"VEC3"},{"bufferView":16,"componentType":5126,"count":120,"max":[2.5,5.001852035522461,0.029999999329447746],"min":[-4.03000020980835,1,-7.03000020980835],"type":"VEC3"},{"bufferView":17,"componentType":5123,"count":180,"type":"SCALAR"},{"bufferView":18,"componentType":5126,"count":200,"type":"VEC3"},{"bufferView":19,"componentType":5126,"count":200,"max":[3.0899999141693115,2.200000047683716,0.07999999821186066],"min":[-4.079999923706055,1,-7.080000400543213],"type":"VEC3"},{"bufferView":20,"componentType":5123,"count":300,"type":"SCALAR"},{"bufferView":21,"componentType":5126,"count":40,"type":"VEC3"},{"bufferView":22,"componentType":5126,"count":40,"max":[2.4100000858306885,1.0099999904632568,0.4000000059604645],"min":[-3.109999895095825,0.8299999833106995,0.2199999988079071],"type":"VEC3"},{"bufferView":23,"componentType":5123,"count":60,"type":"SCALAR"},{"bufferView":24,"componentType":5126,"count":80,"type":"VEC3"},{"bufferView":25,"componentType":5126,"count":80,"max":[2.3566665649414062,1.1100000143051147,0.36000001430511475],"min":[-3.056666612625122,0.949999988079071,0.23999999463558197],"type":"VEC3"},{"bufferView":26,"componentType":5123,"count":120,"type":"SCALAR"},{"bufferView":27,"componentType":5126,"count":40,"type":"VEC3"},{"bufferView":28,"componentType":5126,"count":40,"max":[1.9900000095367432,1.1100000143051147,0.36000001430511475],"min":[-2.690000057220459,0.949999988079071,0.23999999463558197],"type":"VEC3"},{"bufferView":29,"componentType":5126,"count":86,"type":"VEC3"},{"bufferView":30,"componentType":5126,"count":86,"max":[4.550000190734863,6.150000095367432,0.550000011920929],"min":[-4.550000190734863,3.1500000953674316,-7.550000190734863],"type":"VEC3"},{"bufferView":31,"componentType":5126,"count":86,"type":"VEC2"},{"bufferView":32,"componentType":5123,"count":126,"type":"SCALAR"},{"bufferView":33,"componentType":5126,"count":30,"type":"VEC3"},{"bufferView":34,"componentType":5126,"count":30,"max":[0.45000001788139343,5.951851844787598,-0.6000000238418579],"min":[-1.25,3.6518518924713135,-2.3000001907348633],"type":"VEC3"},{"bufferView":35,"componentType":5126,"count":30,"type":"VEC2"},{"bufferView":36,"componentType":5123,"count":42,"type":"SCALAR"}],"asset":{"generator":"Khronos glTF Blender I/O v5.2.40","version":"2.0"},"bufferViews":[{"buffer":0,"byteOffset":0,"byteLength":2016,"target":34962},{"buffer":0,"byteOffset":2016,"byteLength":2016,"target":34962},{"buffer":0,"byteOffset":4032,"byteLength":1344,"target":34962},{"buffer":0,"byteOffset":5376,"byteLength":504,"target":34963},{"buffer":0,"byteOffset":5880,"byteLength":1008,"target":34962},{"buffer":0,"byteOffset":6888,"byteLength":1008,"target":34962},{"buffer":0,"byteOffset":7896,"byteLength":672,"target":34962},{"buffer":0,"byteOffset":8568,"byteLength":252,"target":34963},{"buffer":0,"byteOffset":8820,"byteLength":12720,"target":34962},{"buffer":0,"byteOffset":21540,"byteLength":12720,"target":34962},{"buffer":0,"byteOffset":34260,"byteLength":8480,"target":34962},{"buffer":0,"byteOffset":42740,"byteLength":3180,"target":34963},{"buffer":0,"byteOffset":45920,"byteLength":528,"target":34962},{"buffer":0,"byteOffset":46448,"byteLength":528,"target":34962},{"buffer":0,"byteOffset":46976,"byteLength":132,"target":34963},{"buffer":0,"byteOffset":47108,"byteLength":1440,"target":34962},{"buffer":0,"byteOffset":48548,"byteLength":1440,"target":34962},{"buffer":0,"byteOffset":49988,"byteLength":360,"target":34963},{"buffer":0,"byteOffset":50348,"byteLength":2400,"target":34962},{"buffer":0,"byteOffset":52748,"byteLength":2400,"target":34962},{"buffer":0,"byteOffset":55148,"byteLength":600,"target":34963},{"buffer":0,"byteOffset":55748,"byteLength":480,"target":34962},{"buffer":0,"byteOffset":56228,"byteLength":480,"target":34962},{"buffer":0,"byteOffset":56708,"byteLength":120,"target":34963},{"buffer":0,"byteOffset":56828,"byteLength":960,"target":34962},{"buffer":0,"byteOffset":57788,"byteLength":960,"target":34962},{"buffer":0,"byteOffset":58748,"byteLength":240,"target":34963},{"buffer":0,"byteOffset":58988,"byteLength":480,"target":34962},{"buffer":0,"byteOffset":59468,"byteLength":480,"target":34962},{"buffer":0,"byteOffset":59948,"byteLength":1032,"target":34962},{"buffer":0,"byteOffset":60980,"byteLength":1032,"target":34962},{"buffer":0,"byteOffset":62012,"byteLength":688,"target":34962},{"buffer":0,"byteOffset":62700,"byteLength":252,"target":34963},{"buffer":0,"byteOffset":62952,"byteLength":360,"target":34962},{"buffer":0,"byteOffset":63312,"byteLength":360,"target":34962},{"buffer":0,"byteOffset":63672,"byteLength":240,"target":34962},{"buffer":0,"byteOffset":63912,"byteLength":84,"target":34963}],"buffers":[{"byteLength":63996,"uri":"stone_cottage.bin"}],"images":[{"name":"T_Plaster_Luma","uri":"../village/T_Plaster_Luma.png"},{"name":"T_RockTrim_BaseColor","uri":"../village/T_RockTrim_BaseColor.png"},{"name":"T_RoundTiles_Luma","uri":"../village/T_RoundTiles_Luma.png"},{"name":"T_UnevenBrick_BaseColor","uri":"../village/T_UnevenBrick_BaseColor.png"},{"name":"T_WoodTrim_BaseColor","uri":"../village/T_WoodTrim_BaseColor.png"}],"materials":[{"doubleSided":true,"name":"Stone","pbrMetallicRoughness":{"baseColorFactor":[1.0,0.9974,0.9977,1.0],"baseColorTexture":{"index":3},"metallicFactor":0,"roughnessFactor":0.8500000238418579}},{"doubleSided":true,"name":"RockTrim","pbrMetallicRoughness":{"baseColorFactor":[1.0,0.9979,1.0,1.0],"baseColorTexture":{"index":1},"metallicFactor":0,"roughnessFactor":0.8500000238418579}},{"doubleSided":true,"name":"Wood_dark","pbrMetallicRoughness":{"baseColorFactor":[0.2329,0.2659,0.2944,1.0],"baseColorTexture":{"index":4},"metallicFactor":0,"roughnessFactor":0.8500000238418579}},{"doubleSided":true,"name":"Iron","pbrMetallicRoughness":{"baseColorFactor":[0.0134117491543293,0.0134117491543293,0.015325203537940979,1],"metallicFactor":0,"roughnessFactor":0.5}},{"doubleSided":true,"name":"Glass","pbrMetallicRoughness":{"baseColorFactor":[0.03310476616024971,0.05087608844041824,0.07828831672668457,1],"metallicFactor":0,"roughnessFactor":0.20000000298023224}},{"doubleSided":true,"name":"ShutterPaint","pbrMetallicRoughness":{"baseColorFactor":[0.03968190774321556,0.09462962299585342,0.23302200436592102,1],"metallicFactor":0,"roughnessFactor":0.699999988079071}},{"doubleSided":true,"name":"Leaf","pbrMetallicRoughness":{"baseColorFactor":[0.03310476616024971,0.11928018927574158,0.0134117491543293,1],"metallicFactor":0,"roughnessFactor":0.8999999761581421}},{"doubleSided":true,"name":"Cloth","pbrMetallicRoughness":{"baseColorFactor":[0.34239163994789124,0.03310476616024971,0.021980946883559227,1],"metallicFactor":0,"roughnessFactor":0.8999999761581421}},{"doubleSided":true,"emissiveFactor":[1,0.4479884207248688,0.10048151016235352],"name":"LampGlass","pbrMetallicRoughness":{"baseColorFactor":[1,0.5704815983772278,0.1473190039396286,1],"metallicFactor":0,"roughnessFactor":0.8500000238418579}},{"doubleSided":true,"name":"HouseTiles","pbrMetallicRoughness":{"baseColorFactor":[0.3822,0.1486,0.0653,1.0],"baseColorTexture":{"index":2},"metallicFactor":0,"roughnessFactor":0.699999988079071}},{"doubleSided":true,"name":"HousePlaster","pbrMetallicRoughness":{"baseColorFactor":[0.9583,0.7715,0.4434,1.0],"baseColorTexture":{"index":0},"metallicFactor":0,"roughnessFactor":0.8500000238418579}}],"meshes":[{"name":"Wall","primitives":[{"attributes":{"NORMAL":0,"POSITION":1,"TEXCOORD_0":2},"indices":3,"material":0},{"attributes":{"NORMAL":4,"POSITION":5,"TEXCOORD_0":6},"indices":7,"material":1},{"attributes":{"NORMAL":8,"POSITION":9,"TEXCOORD_0":10},"indices":11,"material":2},{"attributes":{"NORMAL":12,"POSITION":13},"indices":14,"material":3},{"attributes":{"NORMAL":15,"POSITION":16},"indices":17,"material":4},{"attributes":{"NORMAL":18,"POSITION":19},"indices":20,"material":5},{"attributes":{"NORMAL":21,"POSITION":22},"indices":23,"material":6},{"attributes":{"NORMAL":24,"POSITION":25},"indices":26,"material":7},{"attributes":{"NORMAL":27,"POSITION":28},"indices":23,"material":8},{"attributes":{"NORMAL":29,"POSITION":30,"TEXCOORD_0":31},"indices":32,"material":9},{"attributes":{"NORMAL":33,"POSITION":34,"TEXCOORD_0":35},"indices":36,"material":10}]}],"nodes":[{"mesh":0,"name":"stone_cottage"}],"scene":0,"scenes":[{"name":"Scene","nodes":[0]}],"textures":[{"source":0},{"source":1},{"source":2},{"source":3},{"source":4}]}