{"accessors":[{"bufferView":0,"componentType":5126,"count":384,"type":"VEC3"},{"bufferView":1,"componentType":5126,"count":384,"max":[1.0199999809265137,0.6350000500679016,0.2800000011920929],"min":[-1.0199999809265137,0,-0.2800000011920929],"type":"VEC3"},{"bufferView":2,"componentType":5123,"count":528,"type":"SCALAR"},{"bufferView":3,"componentType":5126,"count":576,"type":"VEC3"},{"bufferView":4,"componentType":5126,"count":576,"max":[0.9850000143051147,0.5400000214576721,0.2673788368701935],"min":[-0.9850000143051147,0,-0.2647218108177185],"type":"VEC3"},{"bufferView":5,"componentType":5123,"count":792,"type":"SCALAR"}],"asset":{"generator":"Khronos glTF Blender I/O v5.2.40","version":"2.0"},"bufferViews":[{"buffer":0,"byteOffset":0,"byteLength":4608,"target":34962},{"buffer":0,"byteOffset":4608,"byteLength":4608,"target":34962},{"buffer":0,"byteOffset":9216,"byteLength":1056,"target":34963},{"buffer":0,"byteOffset":10272,"byteLength":6912,"target":34962},{"buffer":0,"byteOffset":17184,"byteLength":6912,"target":34962},{"buffer":0,"byteOffset":24096,"byteLength":1584,"target":34963}],"buffers":[{"byteLength":25680,"uri":"stone_wall.bin"}],"images":[],"materials":[{"doubleSided":true,"name":"Prop_StoneDark","pbrMetallicRoughness":{"baseColorFactor":[0.25999999046325684,0.25,0.23000000417232513,1],"metallicFactor":0,"roughnessFactor":0.949999988079071}},{"doubleSided":true,"name":"Prop_Stone","pbrMetallicRoughness":{"baseColorFactor":[0.41999998688697815,0.4000000059604645,0.36000001430511475,1],"metallicFactor":0,"roughnessFactor":0.949999988079071}}],"meshes":[{"name":"stone_wall","primitives":[{"attributes":{"NORMAL":0,"POSITION":1},"indices":2,"material":0},{"attributes":{"NORMAL":3,"POSITION":4},"indices":5,"material":1}]}],"nodes":[{"mesh":0,"name":"stone_wall"}],"scene":0,"scenes":[{"name":"Scene","nodes":[0]}],"textures":[]}