{"accessors":[{"bufferView":0,"componentType":5126,"count":126,"type":"VEC3"},{"bufferView":1,"componentType":5126,"count":126,"max":[0.2800000011920929,0.8999999761581421,0.30000001192092896],"min":[-0.2800000011920929,0,-0.30000001192092896],"type":"VEC3"},{"bufferView":2,"componentType":5123,"count":216,"type":"SCALAR"},{"bufferView":3,"componentType":5126,"count":96,"type":"VEC3"},{"bufferView":4,"componentType":5126,"count":96,"max":[0.27000001072883606,1.0299999713897705,0.2900000214576721],"min":[-0.27000001072883606,0.24000000953674316,-0.25],"type":"VEC3"},{"bufferView":5,"componentType":5123,"count":168,"type":"SCALAR"}],"asset":{"generator":"Khronos glTF Blender I/O v5.2.40","version":"2.0"},"bufferViews":[{"buffer":0,"byteOffset":0,"byteLength":1512,"target":34962},{"buffer":0,"byteOffset":1512,"byteLength":1512,"target":34962},{"buffer":0,"byteOffset":3024,"byteLength":432,"target":34963},{"buffer":0,"byteOffset":3456,"byteLength":1152,"target":34962},{"buffer":0,"byteOffset":4608,"byteLength":1152,"target":34962},{"buffer":0,"byteOffset":5760,"byteLength":336,"target":34963}],"buffers":[{"byteLength":6096,"uri":"street_bin.bin"}],"images":[],"materials":[{"doubleSided":true,"name":"Prop_Iron","pbrMetallicRoughness":{"baseColorFactor":[0.03500000014901161,0.03500000014901161,0.03999999910593033,1],"metallicFactor":0,"roughnessFactor":0.5}},{"doubleSided":true,"name":"Prop_PaintGreen","pbrMetallicRoughness":{"baseColorFactor":[0.14000000059604645,0.30000001192092896,0.1599999964237213,1],"metallicFactor":0,"roughnessFactor":0.699999988079071}}],"meshes":[{"name":"street_bin","primitives":[{"attributes":{"NORMAL":0,"POSITION":1},"indices":2,"material":0},{"attributes":{"NORMAL":3,"POSITION":4},"indices":5,"material":1}]}],"nodes":[{"mesh":0,"name":"street_bin"}],"scene":0,"scenes":[{"name":"Scene","nodes":[0]}],"textures":[]}