{"accessors":[{"bufferView":0,"componentType":5126,"count":60,"max":[0.42500001192092896,0.31760746240615845,0.5598076581954956],"min":[-0.025000065565109253,0.07760746031999588,0.04019233584403992],"type":"VEC3"},{"bufferView":1,"componentType":5126,"count":60,"type":"VEC3"},{"bufferView":2,"componentType":5126,"count":60,"type":"VEC2"},{"bufferView":3,"componentType":5123,"count":72,"type":"SCALAR"},{"bufferView":4,"componentType":5126,"count":178,"max":[0.6969703435897827,0.6476074457168579,0.6969703435897827],"min":[-0.6969703435897827,0,-0.6969703435897827],"type":"VEC3"},{"bufferView":5,"componentType":5126,"count":178,"type":"VEC3"},{"bufferView":6,"componentType":5126,"count":178,"type":"VEC2"},{"bufferView":7,"componentType":5123,"count":288,"type":"SCALAR"},{"bufferView":8,"componentType":5126,"count":48,"max":[0.36000001430511475,0.6676074266433716,0.36000001430511475],"min":[-0.36000001430511475,0.6476074457168579,-0.36000001430511475],"type":"VEC3"},{"bufferView":9,"componentType":5126,"count":48,"type":"VEC3"},{"bufferView":10,"componentType":5126,"count":48,"type":"VEC2"},{"bufferView":11,"componentType":5123,"count":84,"type":"SCALAR"}],"asset":{"generator":"Khronos glTF Blender I/O v5.2.40","version":"2.0"},"bufferViews":[{"buffer":0,"byteLength":720,"byteOffset":0,"target":34962},{"buffer":0,"byteLength":720,"byteOffset":720,"target":34962},{"buffer":0,"byteLength":480,"byteOffset":1440,"target":34962},{"buffer":0,"byteLength":144,"byteOffset":1920,"target":34963},{"buffer":0,"byteLength":2136,"byteOffset":2064,"target":34962},{"buffer":0,"byteLength":2136,"byteOffset":4200,"target":34962},{"buffer":0,"byteLength":1424,"byteOffset":6336,"target":34962},{"buffer":0,"byteLength":576,"byteOffset":7760,"target":34963},{"buffer":0,"byteLength":576,"byteOffset":8336,"target":34962},{"buffer":0,"byteLength":576,"byteOffset":8912,"target":34962},{"buffer":0,"byteLength":384,"byteOffset":9488,"target":34962},{"buffer":0,"byteLength":168,"byteOffset":9872,"target":34963}],"buffers":[{"byteLength":10040,"uri":"stump.bin"}],"images":[],"materials":[{"doubleSided":true,"name":"Prop_Moss","pbrMetallicRoughness":{"baseColorFactor":[0.10000000149011612,0.23999999463558197,0.03999999910593033,1],"metallicFactor":0}},{"doubleSided":true,"name":"Prop_Bark","pbrMetallicRoughness":{"baseColorFactor":[0.1599999964237213,0.07999999821186066,0.03500000014901161,1],"metallicFactor":0,"roughnessFactor":0.8999999761581421}},{"doubleSided":true,"name":"Prop_Sack","pbrMetallicRoughness":{"baseColorFactor":[0.550000011920929,0.41999998688697815,0.25,1],"metallicFactor":0}}],"meshes":[{"name":"stump","primitives":[{"attributes":{"NORMAL":1,"POSITION":0,"TEXCOORD_0":2},"indices":3,"material":0},{"attributes":{"NORMAL":5,"POSITION":4,"TEXCOORD_0":6},"indices":7,"material":1},{"attributes":{"NORMAL":9,"POSITION":8,"TEXCOORD_0":10},"indices":11,"material":2}]}],"nodes":[{"mesh":0,"name":"stump"}],"scene":0,"scenes":[{"name":"Scene","nodes":[0]}],"textures":[]}
