{"accessors":[{"bufferView":0,"componentType":5126,"count":114,"max":[0.2199999988079071,0.8799999952316284,0.2199999988079071],"min":[-0.2199999988079071,0.11999999731779099,-0.2199999988079071],"type":"VEC3"},{"bufferView":1,"componentType":5126,"count":114,"type":"VEC3"},{"bufferView":2,"componentType":5126,"count":114,"type":"VEC2"},{"bufferView":3,"componentType":5123,"count":192,"type":"SCALAR"},{"bufferView":4,"componentType":5126,"count":60,"max":[0.5230811238288879,0.11999999731779099,0.550000011920929],"min":[-0.5230811238288879,0,-0.550000011920929],"type":"VEC3"},{"bufferView":5,"componentType":5126,"count":60,"type":"VEC3"},{"bufferView":6,"componentType":5126,"count":60,"type":"VEC2"},{"bufferView":7,"componentType":5123,"count":108,"type":"SCALAR"},{"bufferView":8,"componentType":5126,"count":90,"max":[0.36000001430511475,1.1905255317687988,0.36000001430511475],"min":[-0.36000001430511475,0.8094744086265564,-0.36000001430511475],"type":"VEC3"},{"bufferView":9,"componentType":5126,"count":90,"type":"VEC3"},{"bufferView":10,"componentType":5126,"count":90,"type":"VEC2"},{"bufferView":11,"componentType":5123,"count":156,"type":"SCALAR"},{"bufferView":12,"componentType":5126,"count":288,"max":[0.33500000834465027,0.9350000023841858,0.33500000834465027],"min":[-0.33500000834465027,0.925000011920929,-0.33500000834465027],"type":"VEC3"},{"bufferView":13,"componentType":5126,"count":288,"type":"VEC3"},{"bufferView":14,"componentType":5126,"count":288,"type":"VEC2"},{"bufferView":15,"componentType":5123,"count":432,"type":"SCALAR"}],"asset":{"generator":"Khronos glTF Blender I/O v5.2.40","version":"2.0"},"bufferViews":[{"buffer":0,"byteLength":1368,"byteOffset":0,"target":34962},{"buffer":0,"byteLength":1368,"byteOffset":1368,"target":34962},{"buffer":0,"byteLength":912,"byteOffset":2736,"target":34962},{"buffer":0,"byteLength":384,"byteOffset":3648,"target":34963},{"buffer":0,"byteLength":720,"byteOffset":4032,"target":34962},{"buffer":0,"byteLength":720,"byteOffset":4752,"target":34962},{"buffer":0,"byteLength":480,"byteOffset":5472,"target":34962},{"buffer":0,"byteLength":216,"byteOffset":5952,"target":34963},{"buffer":0,"byteLength":1080,"byteOffset":6168,"target":34962},{"buffer":0,"byteLength":1080,"byteOffset":7248,"target":34962},{"buffer":0,"byteLength":720,"byteOffset":8328,"target":34962},{"buffer":0,"byteLength":312,"byteOffset":9048,"target":34963},{"buffer":0,"byteLength":3456,"byteOffset":9360,"target":34962},{"buffer":0,"byteLength":3456,"byteOffset":12816,"target":34962},{"buffer":0,"byteLength":2304,"byteOffset":16272,"target":34962},{"buffer":0,"byteLength":864,"byteOffset":18576,"target":34963}],"buffers":[{"byteLength":19440,"uri":"sundial.bin"}],"images":[],"materials":[{"doubleSided":true,"name":"Prop_Stone","pbrMetallicRoughness":{"baseColorFactor":[0.41999998688697815,0.4000000059604645,0.36000001430511475,1],"metallicFactor":0,"roughnessFactor":0.949999988079071}},{"doubleSided":true,"name":"Prop_StoneDark","pbrMetallicRoughness":{"baseColorFactor":[0.25999999046325684,0.25,0.23000000417232513,1],"metallicFactor":0,"roughnessFactor":0.949999988079071}},{"doubleSided":true,"name":"Prop_Bronze","pbrMetallicRoughness":{"baseColorFactor":[0.12999999523162842,0.25999999046325684,0.20000000298023224,1],"metallicFactor":0.6000000238418579,"roughnessFactor":0.44999998807907104}},{"doubleSided":true,"name":"Prop_Marble","pbrMetallicRoughness":{"baseColorFactor":[0.7200000286102295,0.699999988079071,0.6399999856948853,1],"metallicFactor":0,"roughnessFactor":0.6000000238418579}}],"meshes":[{"name":"sundial","primitives":[{"attributes":{"NORMAL":1,"POSITION":0,"TEXCOORD_0":2},"indices":3,"material":0},{"attributes":{"NORMAL":5,"POSITION":4,"TEXCOORD_0":6},"indices":7,"material":1},{"attributes":{"NORMAL":9,"POSITION":8,"TEXCOORD_0":10},"indices":11,"material":2},{"attributes":{"NORMAL":13,"POSITION":12,"TEXCOORD_0":14},"indices":15,"material":3}]}],"nodes":[{"mesh":0,"name":"sundial"}],"scene":0,"scenes":[{"name":"Scene","nodes":[0]}],"textures":[]}
