{"accessors":[{"bufferView":0,"componentType":5126,"count":44,"type":"VEC3"},{"bufferView":1,"componentType":5126,"count":44,"max":[3.0799999237060547,0.44999998807907104,0.5],"min":[-3.0799999237060547,0,-8.079999923706055],"type":"VEC3"},{"bufferView":2,"componentType":5126,"count":44,"type":"VEC2"},{"bufferView":3,"componentType":5123,"count":66,"type":"SCALAR"},{"bufferView":4,"componentType":5126,"count":294,"type":"VEC3"},{"bufferView":5,"componentType":5126,"count":294,"max":[3.049999952316284,13.220000267028809,0.8999999761581421],"min":[-3.049999952316284,0,-8],"type":"VEC3"},{"bufferView":6,"componentType":5126,"count":294,"type":"VEC2"},{"bufferView":7,"componentType":5123,"count":438,"type":"SCALAR"},{"bufferView":8,"componentType":5126,"count":5432,"type":"VEC3"},{"bufferView":9,"componentType":5126,"count":5432,"max":[3.5335631370544434,13.258606910705566,1.4700000286102295],"min":[-3.5335631370544434,0,-8.199999809265137],"type":"VEC3"},{"bufferView":10,"componentType":5126,"count":5432,"type":"VEC2"},{"bufferView":11,"componentType":5123,"count":8148,"type":"SCALAR"},{"bufferView":12,"componentType":5126,"count":44,"type":"VEC3"},{"bufferView":13,"componentType":5126,"count":44,"max":[1.0049999952316284,13.869999885559082,0.05999999865889549],"min":[-1.6799999475479126,1.3799999952316284,-6.179999828338623],"type":"VEC3"},{"bufferView":14,"componentType":5123,"count":66,"type":"SCALAR"},{"bufferView":15,"componentType":5126,"count":510,"type":"VEC3"},{"bufferView":16,"componentType":5126,"count":510,"max":[3.0300002098083496,11.699999809265137,0.9399999976158142],"min":[-3.0299999713897705,0.8999999761581421,-8.029999732971191],"type":"VEC3"},{"bufferView":17,"componentType":5123,"count":720,"type":"SCALAR"},{"bufferView":18,"componentType":5126,"count":160,"type":"VEC3"},{"bufferView":19,"componentType":5126,"count":160,"max":[2.190000057220459,7.650000095367432,0.9799999594688416],"min":[-2.690000057220459,1,-8.079999923706055],"type":"VEC3"},{"bufferView":20,"componentType":5123,"count":240,"type":"SCALAR"},{"bufferView":21,"componentType":5126,"count":40,"type":"VEC3"},{"bufferView":22,"componentType":5126,"count":40,"max":[2.359999895095825,3.759999990463257,0.8500000238418579],"min":[-2.359999895095825,3.5799999237060547,0.6699999570846558],"type":"VEC3"},{"bufferView":23,"componentType":5123,"count":60,"type":"SCALAR"},{"bufferView":24,"componentType":5126,"count":80,"type":"VEC3"},{"bufferView":25,"componentType":5126,"count":80,"max":[2.3566665649414062,3.859999895095825,0.8100000023841858],"min":[-2.3566665649414062,3.700000047683716,0.6899999976158142],"type":"VEC3"},{"bufferView":26,"componentType":5123,"count":120,"type":"SCALAR"},{"bufferView":27,"componentType":5126,"count":40,"type":"VEC3"},{"bufferView":28,"componentType":5126,"count":40,"max":[2.0899999141693115,3.859999895095825,0.8100000023841858],"min":[-2.0899999141693115,3.700000047683716,0.6899999976158142],"type":"VEC3"},{"bufferView":29,"componentType":5126,"count":312,"type":"VEC3"},{"bufferView":30,"componentType":5126,"count":312,"max":[3.5500001907348633,13.390000343322754,1.4500000476837158],"min":[-3.5500006675720215,8.034749984741211,-8.550000190734863],"type":"VEC3"},{"bufferView":31,"componentType":5126,"count":312,"type":"VEC2"},{"bufferView":32,"componentType":5123,"count":468,"type":"SCALAR"},{"bufferView":33,"componentType":5126,"count":48,"type":"VEC3"},{"bufferView":34,"componentType":5126,"count":48,"max":[-1.0700000524520874,13.609999656677246,-5.570000171661377],"min":[-1.9299999475479126,8.850000381469727,-6.429999828338623],"type":"VEC3"},{"bufferView":35,"componentType":5126,"count":48,"type":"VEC2"},{"bufferView":36,"componentType":5123,"count":72,"type":"SCALAR"}],"asset":{"generator":"Khronos glTF Blender I/O v5.2.40","version":"2.0"},"bufferViews":[{"buffer":0,"byteOffset":0,"byteLength":528,"target":34962},{"buffer":0,"byteOffset":528,"byteLength":528,"target":34962},{"buffer":0,"byteOffset":1056,"byteLength":352,"target":34962},{"buffer":0,"byteOffset":1408,"byteLength":132,"target":34963},{"buffer":0,"byteOffset":1540,"byteLength":3528,"target":34962},{"buffer":0,"byteOffset":5068,"byteLength":3528,"target":34962},{"buffer":0,"byteOffset":8596,"byteLength":2352,"target":34962},{"buffer":0,"byteOffset":10948,"byteLength":876,"target":34963},{"buffer":0,"byteOffset":11824,"byteLength":65184,"target":34962},{"buffer":0,"byteOffset":77008,"byteLength":65184,"target":34962},{"buffer":0,"byteOffset":142192,"byteLength":43456,"target":34962},{"buffer":0,"byteOffset":185648,"byteLength":16296,"target":34963},{"buffer":0,"byteOffset":201944,"byteLength":528,"target":34962},{"buffer":0,"byteOffset":202472,"byteLength":528,"target":34962},{"buffer":0,"byteOffset":203000,"byteLength":132,"target":34963},{"buffer":0,"byteOffset":203132,"byteLength":6120,"target":34962},{"buffer":0,"byteOffset":209252,"byteLength":6120,"target":34962},{"buffer":0,"byteOffset":215372,"byteLength":1440,"target":34963},{"buffer":0,"byteOffset":216812,"byteLength":1920,"target":34962},{"buffer":0,"byteOffset":218732,"byteLength":1920,"target":34962},{"buffer":0,"byteOffset":220652,"byteLength":480,"target":34963},{"buffer":0,"byteOffset":221132,"byteLength":480,"target":34962},{"buffer":0,"byteOffset":221612,"byteLength":480,"target":34962},{"buffer":0,"byteOffset":222092,"byteLength":120,"target":34963},{"buffer":0,"byteOffset":222212,"byteLength":960,"target":34962},{"buffer":0,"byteOffset":223172,"byteLength":960,"target":34962},{"buffer":0,"byteOffset":224132,"byteLength":240,"target":34963},{"buffer":0,"byteOffset":224372,"byteLength":480,"target":34962},{"buffer":0,"byteOffset":224852,"byteLength":480,"target":34962},{"buffer":0,"byteOffset":225332,"byteLength":3744,"target":34962},{"buffer":0,"byteOffset":229076,"byteLength":3744,"target":34962},{"buffer":0,"byteOffset":232820,"byteLength":2496,"target":34962},{"buffer":0,"byteOffset":235316,"byteLength":936,"target":34963},{"buffer":0,"byteOffset":236252,"byteLength":576,"target":34962},{"buffer":0,"byteOffset":236828,"byteLength":576,"target":34962},{"buffer":0,"byteOffset":237404,"byteLength":384,"target":34962},{"buffer":0,"byteOffset":237788,"byteLength":144,"target":34963}],"buffers":[{"byteLength":237932,"uri":"tall_house.bin"}],"images":[{"name":"T_Plaster_Luma","uri":"../village/T_Plaster_Luma.png"},{"name":"T_RockTrim_BaseColor","uri":"../village/T_RockTrim_BaseColor.png"},{"name":"T_RoundTiles_BaseColor","uri":"../village/T_RoundTiles_BaseColor.png"},{"name":"T_UnevenBrick_BaseColor","uri":"../village/T_UnevenBrick_BaseColor.png"},{"name":"T_WoodTrim_BaseColor","uri":"../village/T_WoodTrim_BaseColor.png"}],"materials":[{"doubleSided":true,"name":"RockTrim","pbrMetallicRoughness":{"baseColorFactor":[1.0,0.9979,1.0,1.0],"baseColorTexture":{"index":1},"metallicFactor":0,"roughnessFactor":0.8500000238418579}},{"doubleSided":true,"name":"HousePlaster","pbrMetallicRoughness":{"baseColorFactor":[0.9583,0.7715,0.4434,1.0],"baseColorTexture":{"index":0},"metallicFactor":0,"roughnessFactor":0.8500000238418579}},{"doubleSided":true,"name":"Wood_mid","pbrMetallicRoughness":{"baseColorFactor":[0.5179,0.5489,0.5787,1.0],"baseColorTexture":{"index":4},"metallicFactor":0,"roughnessFactor":0.8500000238418579}},{"doubleSided":true,"name":"Iron","pbrMetallicRoughness":{"baseColorFactor":[0.0134117491543293,0.0134117491543293,0.015325203537940979,1],"metallicFactor":0,"roughnessFactor":0.5}},{"doubleSided":true,"name":"Glass","pbrMetallicRoughness":{"baseColorFactor":[0.03310476616024971,0.05087608844041824,0.07828831672668457,1],"metallicFactor":0,"roughnessFactor":0.20000000298023224}},{"doubleSided":true,"name":"ShutterPaint","pbrMetallicRoughness":{"baseColorFactor":[0.10653922706842422,0.04696420207619667,0.017389101907610893,1],"metallicFactor":0,"roughnessFactor":0.699999988079071}},{"doubleSided":true,"name":"Leaf","pbrMetallicRoughness":{"baseColorFactor":[0.03310476616024971,0.11928018927574158,0.0134117491543293,1],"metallicFactor":0,"roughnessFactor":0.8999999761581421}},{"doubleSided":true,"name":"Cloth","pbrMetallicRoughness":{"baseColorFactor":[0.34239163994789124,0.03310476616024971,0.021980946883559227,1],"metallicFactor":0,"roughnessFactor":0.8999999761581421}},{"doubleSided":true,"emissiveFactor":[1,0.4479884207248688,0.10048151016235352],"name":"LampGlass","pbrMetallicRoughness":{"baseColorFactor":[1,0.5704815983772278,0.1473190039396286,1],"metallicFactor":0,"roughnessFactor":0.8500000238418579}},{"doubleSided":true,"name":"HouseTiles","pbrMetallicRoughness":{"baseColorFactor":[1.0,0.9965,0.9971,1.0],"baseColorTexture":{"index":2},"metallicFactor":0,"roughnessFactor":0.699999988079071}},{"doubleSided":true,"name":"Stone","pbrMetallicRoughness":{"baseColorFactor":[1.0,0.9974,0.9977,1.0],"baseColorTexture":{"index":3},"metallicFactor":0,"roughnessFactor":0.8500000238418579}}],"meshes":[{"name":"Plinth","primitives":[{"attributes":{"NORMAL":0,"POSITION":1,"TEXCOORD_0":2},"indices":3,"material":0},{"attributes":{"NORMAL":4,"POSITION":5,"TEXCOORD_0":6},"indices":7,"material":1},{"attributes":{"NORMAL":8,"POSITION":9,"TEXCOORD_0":10},"indices":11,"material":2},{"attributes":{"NORMAL":12,"POSITION":13},"indices":14,"material":3},{"attributes":{"NORMAL":15,"POSITION":16},"indices":17,"material":4},{"attributes":{"NORMAL":18,"POSITION":19},"indices":20,"material":5},{"attributes":{"NORMAL":21,"POSITION":22},"indices":23,"material":6},{"attributes":{"NORMAL":24,"POSITION":25},"indices":26,"material":7},{"attributes":{"NORMAL":27,"POSITION":28},"indices":23,"material":8},{"attributes":{"NORMAL":29,"POSITION":30,"TEXCOORD_0":31},"indices":32,"material":9},{"attributes":{"NORMAL":33,"POSITION":34,"TEXCOORD_0":35},"indices":36,"material":10}]}],"nodes":[{"mesh":0,"name":"tall_house"}],"scene":0,"scenes":[{"name":"Scene","nodes":[0]}],"textures":[{"source":0},{"source":1},{"source":2},{"source":3},{"source":4}]}