{"accessors":[{"bufferView":0,"componentType":5126,"count":24,"type":"VEC3"},{"bufferView":1,"componentType":5126,"count":24,"max":[6.050000190734863,3.0199999809265137,0.6600000262260437],"min":[-6.050000190734863,2.859999895095825,0.4399999976158142],"type":"VEC3"},{"bufferView":2,"componentType":5126,"count":24,"type":"VEC2"},{"bufferView":3,"componentType":5123,"count":36,"type":"SCALAR"},{"bufferView":4,"componentType":5126,"count":24,"type":"VEC3"},{"bufferView":5,"componentType":5126,"count":24,"max":[0.10508709400892258,2.999999761581421,0.11982007324695587],"min":[-0.10508733242750168,-1.5052728485898115e-07,-0.11982005089521408],"type":"VEC3"},{"bufferView":6,"componentType":5126,"count":24,"type":"VEC2"},{"bufferView":7,"componentType":5123,"count":36,"type":"SCALAR"},{"bufferView":8,"componentType":5126,"count":744,"type":"VEC3"},{"bufferView":9,"componentType":5126,"count":744,"max":[1.0737497806549072,2.3513262271881104,0.06314271688461304],"min":[-0.04626310616731644,0.033089637756347656,-0.05755755677819252],"type":"VEC3"},{"bufferView":10,"componentType":5126,"count":744,"type":"VEC2"},{"bufferView":11,"componentType":5123,"count":1362,"type":"SCALAR"},{"bufferView":12,"componentType":5126,"count":28,"type":"VEC3"},{"bufferView":13,"componentType":5126,"count":28,"max":[0.8667700886726379,1.7624019384384155,0.0312458835542202],"min":[0.1617247760295868,1.3117259740829468,0.031245503574609756],"type":"VEC3"},{"bufferView":14,"componentType":5123,"count":48,"type":"SCALAR"},{"bufferView":15,"componentType":5126,"count":364,"type":"VEC3"},{"bufferView":16,"componentType":5126,"count":364,"max":[0.7034913897514343,2.5548486709594727,0.29893577098846436],"min":[-0.7034929394721985,-0.008544921875,-0.24002820253372192],"type":"VEC3"},{"bufferView":17,"componentType":5126,"count":364,"type":"VEC2"},{"bufferView":18,"componentType":5123,"count":960,"type":"SCALAR"},{"bufferView":19,"componentType":5126,"count":64,"type":"VEC3"},{"bufferView":20,"componentType":5126,"count":64,"max":[1,0.009999990463256836,1],"min":[-1,-0.010000384412705898,-1],"type":"VEC3"},{"bufferView":21,"componentType":5126,"count":64,"type":"VEC2"},{"bufferView":22,"componentType":5123,"count":96,"type":"SCALAR"},{"bufferView":23,"componentType":5126,"count":24,"type":"VEC3"},{"bufferView":24,"componentType":5126,"count":24,"max":[-2.7249999046325684,2.5799999237060547,0.5099999904632568],"min":[-2.7750000953674316,2.5299999713897705,0.09000000357627869],"type":"VEC3"},{"bufferView":25,"componentType":5126,"count":24,"type":"VEC3"},{"bufferView":26,"componentType":5126,"count":24,"max":[2.7750000953674316,2.5799999237060547,0.5099999904632568],"min":[2.7249999046325684,2.5299999713897705,0.09000000357627869],"type":"VEC3"},{"bufferView":27,"componentType":5126,"count":24,"type":"VEC3"},{"bufferView":28,"componentType":5126,"count":24,"max":[-2.630000114440918,2.069999933242798,0.5600000023841858],"min":[-2.869999885559082,2.009999990463257,0.3199999928474426],"type":"VEC3"},{"bufferView":29,"componentType":5126,"count":24,"type":"VEC3"},{"bufferView":30,"componentType":5126,"count":24,"max":[2.869999885559082,2.069999933242798,0.5600000023841858],"min":[2.630000114440918,2.009999990463257,0.3199999928474426],"type":"VEC3"},{"bufferView":31,"componentType":5126,"count":24,"type":"VEC3"},{"bufferView":32,"componentType":5126,"count":24,"max":[-2.609999895095825,2.450000047683716,0.5800000429153442],"min":[-2.890000104904175,2.390000104904175,0.30000001192092896],"type":"VEC3"},{"bufferView":33,"componentType":5126,"count":24,"type":"VEC3"},{"bufferView":34,"componentType":5126,"count":24,"max":[2.890000104904175,2.450000047683716,0.5800000429153442],"min":[2.609999895095825,2.390000104904175,0.30000001192092896],"type":"VEC3"},{"bufferView":35,"componentType":5126,"count":24,"type":"VEC3"},{"bufferView":36,"componentType":5126,"count":24,"max":[-2.6500000953674316,2.390000104904175,0.5399999618530273],"min":[-2.8499999046325684,2.069999933242798,0.3400000035762787],"type":"VEC3"},{"bufferView":37,"componentType":5126,"count":24,"type":"VEC3"},{"bufferView":38,"componentType":5126,"count":24,"max":[2.8499999046325684,2.390000104904175,0.5399999618530273],"min":[2.6500000953674316,2.069999933242798,0.3400000035762787],"type":"VEC3"},{"bufferView":39,"componentType":5126,"count":24,"type":"VEC3"},{"bufferView":40,"componentType":5126,"count":24,"max":[-2.734999895095825,2.5399999618530273,0.45000001788139343],"min":[-2.765000104904175,2.450000047683716,0.42000001668930054],"type":"VEC3"},{"bufferView":41,"componentType":5126,"count":24,"type":"VEC3"},{"bufferView":42,"componentType":5126,"count":24,"max":[2.765000104904175,2.5399999618530273,0.45000001788139343],"min":[2.734999895095825,2.450000047683716,0.42000001668930054],"type":"VEC3"},{"bufferView":43,"componentType":5126,"count":129,"type":"VEC3"},{"bufferView":44,"componentType":5126,"count":129,"max":[0.4457784593105316,3,0.4940085709095001],"min":[-0.5000000596046448,5.820766091346741e-08,-0.49400854110717773],"type":"VEC3"},{"bufferView":45,"componentType":5126,"count":129,"type":"VEC2"},{"bufferView":46,"componentType":5123,"count":390,"type":"SCALAR"},{"bufferView":47,"componentType":5126,"count":590,"type":"VEC3"},{"bufferView":48,"componentType":5126,"count":590,"max":[1.796095609664917,2.4071543216705322,1.0531584024429321],"min":[-0.06625044345855713,0.029659956693649292,-1.0530269145965576],"type":"VEC3"},{"bufferView":49,"componentType":5126,"count":590,"type":"VEC2"},{"bufferView":50,"componentType":5123,"count":906,"type":"SCALAR"},{"bufferView":51,"componentType":5126,"count":40,"type":"VEC3"},{"bufferView":52,"componentType":5126,"count":40,"max":[1.6412353515625,2.1810436248779297,0.7208130359649658],"min":[0.20741745829582214,0.07360720634460449,-0.7227497696876526],"type":"VEC3"},{"bufferView":53,"componentType":5126,"count":40,"type":"VEC2"},{"bufferView":54,"componentType":5123,"count":96,"type":"SCALAR"},{"bufferView":55,"componentType":5126,"count":147,"type":"VEC3"},{"bufferView":56,"componentType":5126,"count":147,"max":[1.6450214385986328,1.0366252660751343,0.4369128346443176],"min":[1.6450212001800537,0.24898052215576172,-0.44097065925598145],"type":"VEC3"},{"bufferView":57,"componentType":5123,"count":219,"type":"SCALAR"},{"bufferView":58,"componentType":5126,"count":236,"type":"VEC3"},{"bufferView":59,"componentType":5126,"count":236,"max":[1.900120496749878,2.7272849082946777,1.219645380973816],"min":[-0.019477728754281998,0.9468854665756226,-1.2195141315460205],"type":"VEC3"},{"bufferView":60,"componentType":5126,"count":236,"type":"VEC2"},{"bufferView":61,"componentType":5123,"count":540,"type":"SCALAR"},{"bufferView":62,"componentType":5126,"count":600,"type":"VEC3"},{"bufferView":63,"componentType":5126,"count":600,"max":[4.256076812744141,5.269639492034912,0.794139564037323],"min":[-4.254717826843262,-0.13180209696292877,-0.33496370911598206],"type":"VEC3"},{"bufferView":64,"componentType":5126,"count":600,"type":"VEC2"},{"bufferView":65,"componentType":5123,"count":1056,"type":"SCALAR"},{"bufferView":66,"componentType":5126,"count":16,"type":"VEC3"},{"bufferView":67,"componentType":5126,"count":16,"max":[4.1627702713012695,5.314065933227539,1.6825651982799172e-11],"min":[-4.1627702713012695,0.019167065620422363,-0.24970084428787231],"type":"VEC3"},{"bufferView":68,"componentType":5126,"count":16,"type":"VEC2"},{"bufferView":69,"componentType":5123,"count":36,"type":"SCALAR"},{"bufferView":70,"componentType":5126,"count":1694,"type":"VEC3"},{"bufferView":71,"componentType":5126,"count":1694,"max":[4.9567179679870605,5.600559711456299,5.858181953430176],"min":[-4.9567179679870605,-0.7799561023712158,-5.851998329162598],"type":"VEC3"},{"bufferView":72,"componentType":5126,"count":1694,"type":"VEC2"},{"bufferView":73,"componentType":5123,"count":2616,"type":"SCALAR"},{"bufferView":74,"componentType":5126,"count":2194,"type":"VEC3"},{"bufferView":75,"componentType":5126,"count":2194,"max":[4.975997447967529,6.001367092132568,6.0074462890625],"min":[-4.975997447967529,-0.5717926621437073,-5.844740390777588],"type":"VEC3"},{"bufferView":76,"componentType":5126,"count":2194,"type":"VEC2"},{"bufferView":77,"componentType":5123,"count":5448,"type":"SCALAR"},{"bufferView":78,"componentType":5126,"count":124,"type":"VEC3"},{"bufferView":79,"componentType":5126,"count":124,"max":[0.09985005855560303,0.06566542387008667,0.7651262283325195],"min":[-0.09984996169805527,-0.6772639155387878,-1.62676236925563e-08],"type":"VEC3"},{"bufferView":80,"componentType":5126,"count":124,"type":"VEC2"},{"bufferView":81,"componentType":5123,"count":252,"type":"SCALAR"},{"bufferView":82,"componentType":5126,"count":24,"type":"VEC3"},{"bufferView":83,"componentType":5126,"count":24,"max":[4.070000171661377,4.179999828338623,2.190000057220459],"min":[3.930000066757202,4.019999980926514,0.6899999976158142],"type":"VEC3"},{"bufferView":84,"componentType":5126,"count":24,"type":"VEC2"},{"bufferView":85,"componentType":5126,"count":24,"type":"VEC3"},{"bufferView":86,"componentType":5126,"count":24,"max":[4.050000190734863,3.679999828338623,2.140000104904175],"min":[3.950000047683716,2.8499999046325684,0.9900000095367432],"type":"VEC3"},{"bufferView":87,"componentType":5126,"count":24,"type":"VEC2"},{"bufferView":88,"componentType":5126,"count":24,"type":"VEC3"},{"bufferView":89,"componentType":5126,"count":24,"max":[4.014999866485596,4.019999980926514,1.1549999713897705],"min":[3.984999895095825,3.679999828338623,1.125],"type":"VEC3"},{"bufferView":90,"componentType":5126,"count":24,"type":"VEC3"},{"bufferView":91,"componentType":5126,"count":24,"max":[4.014999866485596,4.019999980926514,2.005000114440918],"min":[3.984999895095825,3.679999828338623,1.9749999046325684],"type":"VEC3"},{"bufferView":92,"componentType":5126,"count":96,"type":"VEC3"},{"bufferView":93,"componentType":5126,"count":96,"max":[4.065000057220459,3.5199999809265137,1.8350000381469727],"min":[3.934999942779541,2.9800000190734863,1.2950000762939453],"type":"VEC3"},{"bufferView":94,"componentType":5123,"count":180,"type":"SCALAR"},{"bufferView":95,"componentType":5126,"count":24,"type":"VEC3"},{"bufferView":96,"componentType":5126,"count":24,"max":[4.059999942779541,3.6999998092651367,2.1700000762939453],"min":[3.940000057220459,3.619999885559082,0.9600000381469727],"type":"VEC3"},{"bufferView":97,"componentType":5126,"count":24,"type":"VEC2"},{"bufferView":98,"componentType":5126,"count":124,"type":"VEC3"},{"bufferView":99,"componentType":5126,"count":124,"max":[1,3.1226887702941895,0.0924467146396637],"min":[-1.0000001192092896,0.6495776176452637,-0.3140353262424469],"type":"VEC3"},{"bufferView":100,"componentType":5126,"count":124,"type":"VEC2"},{"bufferView":101,"componentType":5123,"count":204,"type":"SCALAR"},{"bufferView":102,"componentType":5126,"count":69,"type":"VEC3"},{"bufferView":103,"componentType":5126,"count":69,"max":[1,3,1.3113417196564114e-07],"min":[-1,0,-0.2000000923871994],"type":"VEC3"},{"bufferView":104,"componentType":5126,"count":69,"type":"VEC2"},{"bufferView":105,"componentType":5123,"count":195,"type":"SCALAR"},{"bufferView":106,"componentType":5126,"count":8,"type":"VEC3"},{"bufferView":107,"componentType":5126,"count":8,"max":[1,0.9100615382194519,4.3711395392165286e-08],"min":[-1,0,0],"type":"VEC3"},{"bufferView":108,"componentType":5126,"count":8,"type":"VEC2"},{"bufferView":109,"componentType":5123,"count":12,"type":"SCALAR"},{"bufferView":110,"componentType":5126,"count":126,"type":"VEC3"},{"bufferView":111,"componentType":5126,"count":126,"max":[1,3.1226887702941895,0.0924467146396637],"min":[-1.0000001192092896,-0.0020958781242370605,-0.3140353262424469],"type":"VEC3"},{"bufferView":112,"componentType":5126,"count":126,"type":"VEC2"},{"bufferView":113,"componentType":5123,"count":240,"type":"SCALAR"},{"bufferView":114,"componentType":5126,"count":12,"type":"VEC3"},{"bufferView":115,"componentType":5126,"count":12,"max":[1,3,1.3113415775478643e-07],"min":[-1,0,-0.2000000923871994],"type":"VEC3"},{"bufferView":116,"componentType":5126,"count":12,"type":"VEC2"},{"bufferView":117,"componentType":5123,"count":18,"type":"SCALAR"},{"bufferView":118,"componentType":5126,"count":126,"type":"VEC3"},{"bufferView":119,"componentType":5126,"count":126,"max":[1,3.1226887702941895,0.0924467146396637],"min":[-1.0000001192092896,-0.0020958781242370605,-0.3140353262424469],"type":"VEC3"},{"bufferView":120,"componentType":5126,"count":126,"type":"VEC2"},{"bufferView":121,"componentType":5126,"count":12,"type":"VEC3"},{"bufferView":122,"componentType":5126,"count":12,"max":[1,3,1.3113415775478643e-07],"min":[-1,0,-0.2000000923871994],"type":"VEC3"},{"bufferView":123,"componentType":5126,"count":12,"type":"VEC2"},{"bufferView":124,"componentType":5126,"count":80,"type":"VEC3"},{"bufferView":125,"componentType":5126,"count":80,"max":[1,3.1226887702941895,0.0924467146396637],"min":[-1.0000001192092896,0.6495776176452637,-0.3140353262424469],"type":"VEC3"},{"bufferView":126,"componentType":5126,"count":80,"type":"VEC2"},{"bufferView":127,"componentType":5123,"count":174,"type":"SCALAR"},{"bufferView":128,"componentType":5126,"count":8,"type":"VEC3"},{"bufferView":129,"componentType":5126,"count":8,"max":[1,3,1.3113415775478643e-07],"min":[-1,0,-0.2000000923871994],"type":"VEC3"},{"bufferView":130,"componentType":5126,"count":8,"type":"VEC2"},{"bufferView":131,"componentType":5123,"count":12,"type":"SCALAR"},{"bufferView":132,"componentType":5126,"count":4,"type":"VEC3"},{"bufferView":133,"componentType":5126,"count":4,"max":[1,0.8799999952316284,4.371138828673793e-08],"min":[-1,0,0],"type":"VEC3"},{"bufferView":134,"componentType":5126,"count":4,"type":"VEC2"},{"bufferView":135,"componentType":5123,"count":6,"type":"SCALAR"},{"bufferView":136,"componentType":5126,"count":88,"type":"VEC3"},{"bufferView":137,"componentType":5126,"count":88,"max":[1,3,1.3113415775478643e-07],"min":[-1,0,-0.2000000923871994],"type":"VEC3"},{"bufferView":138,"componentType":5126,"count":88,"type":"VEC2"},{"bufferView":139,"componentType":5123,"count":264,"type":"SCALAR"},{"bufferView":140,"componentType":5126,"count":22,"type":"VEC3"},{"bufferView":141,"componentType":5126,"count":22,"max":[1,0.8799999952316284,4.371138828673793e-08],"min":[-1,0,0],"type":"VEC3"},{"bufferView":142,"componentType":5126,"count":22,"type":"VEC2"},{"bufferView":143,"componentType":5123,"count":60,"type":"SCALAR"},{"bufferView":144,"componentType":5126,"count":104,"type":"VEC3"},{"bufferView":145,"componentType":5126,"count":104,"max":[1,3.1226887702941895,0.0924467146396637],"min":[-1.0000001192092896,0.6495776176452637,-0.3140353262424469],"type":"VEC3"},{"bufferView":146,"componentType":5126,"count":104,"type":"VEC2"},{"bufferView":147,"componentType":5123,"count":174,"type":"SCALAR"},{"bufferView":148,"componentType":5126,"count":134,"type":"VEC3"},{"bufferView":149,"componentType":5126,"count":134,"max":[1,3.1226887702941895,0.0924467146396637],"min":[-1.0000001192092896,-0.023045778274536133,-0.3140353262424469],"type":"VEC3"},{"bufferView":150,"componentType":5126,"count":134,"type":"VEC2"},{"bufferView":151,"componentType":5123,"count":252,"type":"SCALAR"},{"bufferView":152,"componentType":5126,"count":40,"type":"VEC3"},{"bufferView":153,"componentType":5126,"count":40,"max":[1,3,1.3113415775478643e-07],"min":[-1,0,-0.2000000923871994],"type":"VEC3"},{"bufferView":154,"componentType":5126,"count":40,"type":"VEC2"},{"bufferView":155,"componentType":5123,"count":114,"type":"SCALAR"},{"bufferView":156,"componentType":5126,"count":134,"type":"VEC3"},{"bufferView":157,"componentType":5126,"count":134,"max":[1,3.1226887702941895,0.0924467146396637],"min":[-1.0000001192092896,-0.023045778274536133,-0.3140353262424469],"type":"VEC3"},{"bufferView":158,"componentType":5126,"count":134,"type":"VEC2"},{"bufferView":159,"componentType":5126,"count":40,"type":"VEC3"},{"bufferView":160,"componentType":5126,"count":40,"max":[1,3,1.3113415775478643e-07],"min":[-1,0,-0.2000000923871994],"type":"VEC3"},{"bufferView":161,"componentType":5126,"count":40,"type":"VEC2"},{"bufferView":162,"componentType":5126,"count":32,"type":"VEC3"},{"bufferView":163,"componentType":5126,"count":32,"max":[1,3,1.3113417196564114e-07],"min":[-1,0,-0.2000000923871994],"type":"VEC3"},{"bufferView":164,"componentType":5126,"count":32,"type":"VEC2"},{"bufferView":165,"componentType":5123,"count":96,"type":"SCALAR"},{"bufferView":166,"componentType":5126,"count":8,"type":"VEC3"},{"bufferView":167,"componentType":5126,"count":8,"max":[1,0.8799999952316284,4.371138828673793e-08],"min":[-1,0,0],"type":"VEC3"},{"bufferView":168,"componentType":5126,"count":8,"type":"VEC2"},{"bufferView":169,"componentType":5123,"count":18,"type":"SCALAR"},{"bufferView":170,"componentType":5126,"count":80,"type":"VEC3"},{"bufferView":171,"componentType":5126,"count":80,"max":[1,3.1226887702941895,0.0924467146396637],"min":[-1.0000001192092896,0.6495776176452637,-0.3140353262424469],"type":"VEC3"},{"bufferView":172,"componentType":5126,"count":80,"type":"VEC2"},{"bufferView":173,"componentType":5126,"count":32,"type":"VEC3"},{"bufferView":174,"componentType":5126,"count":32,"max":[1,3,1.3113417196564114e-07],"min":[-1,0,-0.2000000923871994],"type":"VEC3"},{"bufferView":175,"componentType":5126,"count":32,"type":"VEC2"},{"bufferView":176,"componentType":5126,"count":8,"type":"VEC3"},{"bufferView":177,"componentType":5126,"count":8,"max":[1,0.8799999952316284,4.371138828673793e-08],"min":[-1,0,0],"type":"VEC3"},{"bufferView":178,"componentType":5126,"count":8,"type":"VEC2"},{"bufferView":179,"componentType":5126,"count":80,"type":"VEC3"},{"bufferView":180,"componentType":5126,"count":80,"max":[1,3.1226887702941895,0.0924467146396637],"min":[-1.0000001192092896,0.6495776176452637,-0.3140353262424469],"type":"VEC3"},{"bufferView":181,"componentType":5126,"count":80,"type":"VEC2"},{"bufferView":182,"componentType":5126,"count":80,"type":"VEC3"},{"bufferView":183,"componentType":5126,"count":80,"max":[1,3.1226887702941895,0.0924467146396637],"min":[-1.0000001192092896,0.6495776176452637,-0.3140353262424469],"type":"VEC3"},{"bufferView":184,"componentType":5126,"count":80,"type":"VEC2"},{"bufferView":185,"componentType":5123,"count":174,"type":"SCALAR"},{"bufferView":186,"componentType":5126,"count":60,"type":"VEC3"},{"bufferView":187,"componentType":5126,"count":60,"max":[1,3,1.3113417196564114e-07],"min":[-1,0,-0.2000000923871994],"type":"VEC3"},{"bufferView":188,"componentType":5126,"count":60,"type":"VEC2"},{"bufferView":189,"componentType":5123,"count":180,"type":"SCALAR"},{"bufferView":190,"componentType":5126,"count":8,"type":"VEC3"},{"bufferView":191,"componentType":5126,"count":8,"max":[1,0.8799999952316284,4.371138828673793e-08],"min":[-1,0,0],"type":"VEC3"},{"bufferView":192,"componentType":5126,"count":8,"type":"VEC2"},{"bufferView":193,"componentType":5126,"count":389,"type":"VEC3"},{"bufferView":194,"componentType":5126,"count":389,"max":[1.000000238418579,3.1226887702941895,0.0924467146396637],"min":[-1.000000238418579,0.6495776176452637,-0.3140353262424469],"type":"VEC3"},{"bufferView":195,"componentType":5126,"count":389,"type":"VEC2"},{"bufferView":196,"componentType":5123,"count":732,"type":"SCALAR"},{"bufferView":197,"componentType":5126,"count":8,"type":"VEC3"},{"bufferView":198,"componentType":5126,"count":8,"max":[1,0.8360880613327026,5.960464477539063e-08],"min":[-1,0,-0.2000001072883606],"type":"VEC3"},{"bufferView":199,"componentType":5126,"count":8,"type":"VEC2"},{"bufferView":200,"componentType":5123,"count":12,"type":"SCALAR"},{"bufferView":201,"componentType":5126,"count":402,"type":"VEC3"},{"bufferView":202,"componentType":5126,"count":402,"max":[0.44381028413772583,2.6207287311553955,0.0923665463924408],"min":[-0.44381028413772583,1.01604425907135,-0.2520223557949066],"type":"VEC3"},{"bufferView":203,"componentType":5126,"count":402,"type":"VEC2"},{"bufferView":204,"componentType":5123,"count":786,"type":"SCALAR"},{"bufferView":205,"componentType":5126,"count":83,"type":"VEC3"},{"bufferView":206,"componentType":5126,"count":83,"max":[0.277061402797699,2.478931427001953,0.003888234496116638],"min":[-0.27893951535224915,1.0875728130340576,0.0038879886269569397],"type":"VEC3"},{"bufferView":207,"componentType":5123,"count":153,"type":"SCALAR"},{"bufferView":208,"componentType":5126,"count":272,"type":"VEC3"},{"bufferView":209,"componentType":5126,"count":272,"max":[0.8041172027587891,2.5242888927459717,0.4168574810028076],"min":[-0.8041191101074219,0.94417804479599,-0.26658084988594055],"type":"VEC3"},{"bufferView":210,"componentType":5126,"count":272,"type":"VEC2"},{"bufferView":211,"componentType":5123,"count":408,"type":"SCALAR"},{"bufferView":212,"componentType":5126,"count":45,"type":"VEC3"},{"bufferView":213,"componentType":5126,"count":45,"max":[0.5054702758789062,2.355356216430664,0.003888234496116638],"min":[-0.5054721832275391,1.0971393585205078,0.0038878247141838074],"type":"VEC3"},{"bufferView":214,"componentType":5123,"count":72,"type":"SCALAR"},{"bufferView":215,"componentType":5126,"count":340,"type":"VEC3"},{"bufferView":216,"componentType":5126,"count":340,"max":[0.691490113735199,2.741780996322632,0.27729201316833496],"min":[-0.691490113735199,1.01604425907135,-0.2522830367088318],"type":"VEC3"},{"bufferView":217,"componentType":5126,"count":340,"type":"VEC2"},{"bufferView":218,"componentType":5123,"count":672,"type":"SCALAR"},{"bufferView":219,"componentType":5126,"count":63,"type":"VEC3"},{"bufferView":220,"componentType":5126,"count":63,"max":[0.5413169860839844,2.6192541122436523,0.0038883001543581486],"min":[-0.5445477962493896,1.0647618770599365,0.003887913655489683],"type":"VEC3"},{"bufferView":221,"componentType":5123,"count":123,"type":"SCALAR"},{"bufferView":222,"componentType":5126,"count":222,"type":"VEC3"},{"bufferView":223,"componentType":5126,"count":222,"max":[0.7867056131362915,2.6116669178009033,0.4355051815509796],"min":[-0.8195725083351135,1.0932440757751465,0.059017062187194824],"type":"VEC3"},{"bufferView":224,"componentType":5126,"count":222,"type":"VEC2"},{"bufferView":225,"componentType":5123,"count":336,"type":"SCALAR"},{"bufferView":226,"componentType":5126,"count":272,"type":"VEC3"},{"bufferView":227,"componentType":5126,"count":272,"max":[1.1035263538360596,2.740431785583496,0.56315016746521],"min":[-1.199957251548767,1.0932440757751465,0.09079486131668091],"type":"VEC3"},{"bufferView":228,"componentType":5126,"count":272,"type":"VEC2"},{"bufferView":229,"componentType":5123,"count":408,"type":"SCALAR"}],"asset":{"generator":"Khronos glTF Blender I/O v5.2.40","version":"2.0"},"bufferViews":[{"buffer":0,"byteOffset":0,"byteLength":288,"target":34962},{"buffer":0,"byteOffset":288,"byteLength":288,"target":34962},{"buffer":0,"byteOffset":576,"byteLength":192,"target":34962},{"buffer":0,"byteOffset":768,"byteLength":72,"target":34963},{"buffer":0,"byteOffset":840,"byteLength":288,"target":34962},{"buffer":0,"byteOffset":1128,"byteLength":288,"target":34962},{"buffer":0,"byteOffset":1416,"byteLength":192,"target":34962},{"buffer":0,"byteOffset":1608,"byteLength":72,"target":34963},{"buffer":0,"byteOffset":1680,"byteLength":8928,"target":34962},{"buffer":0,"byteOffset":10608,"byteLength":8928,"target":34962},{"buffer":0,"byteOffset":19536,"byteLength":5952,"target":34962},{"buffer":0,"byteOffset":25488,"byteLength":2724,"target":34963},{"buffer":0,"byteOffset":28212,"byteLength":336,"target":34962},{"buffer":0,"byteOffset":28548,"byteLength":336,"target":34962},{"buffer":0,"byteOffset":28884,"byteLength":96,"target":34963},{"buffer":0,"byteOffset":28980,"byteLength":4368,"target":34962},{"buffer":0,"byteOffset":33348,"byteLength":4368,"target":34962},{"buffer":0,"byteOffset":37716,"byteLength":2912,"target":34962},{"buffer":0,"byteOffset":40628,"byteLength":1920,"target":34963},{"buffer":0,"byteOffset":42548,"byteLength":768,"target":34962},{"buffer":0,"byteOffset":43316,"byteLength":768,"target":34962},{"buffer":0,"byteOffset":44084,"byteLength":512,"target":34962},{"buffer":0,"byteOffset":44596,"byteLength":192,"target":34963},{"buffer":0,"byteOffset":44788,"byteLength":288,"target":34962},{"buffer":0,"byteOffset":45076,"byteLength":288,"target":34962},{"buffer":0,"byteOffset":45364,"byteLength":288,"target":34962},{"buffer":0,"byteOffset":45652,"byteLength":288,"target":34962},{"buffer":0,"byteOffset":45940,"byteLength":288,"target":34962},{"buffer":0,"byteOffset":46228,"byteLength":288,"target":34962},{"buffer":0,"byteOffset":46516,"byteLength":288,"target":34962},{"buffer":0,"byteOffset":46804,"byteLength":288,"target":34962},{"buffer":0,"byteOffset":47092,"byteLength":288,"target":34962},{"buffer":0,"byteOffset":47380,"byteLength":288,"target":34962},{"buffer":0,"byteOffset":47668,"byteLength":288,"target":34962},{"buffer":0,"byteOffset":47956,"byteLength":288,"target":34962},{"buffer":0,"byteOffset":48244,"byteLength":288,"target":34962},{"buffer":0,"byteOffset":48532,"byteLength":288,"target":34962},{"buffer":0,"byteOffset":48820,"byteLength":288,"target":34962},{"buffer":0,"byteOffset":49108,"byteLength":288,"target":34962},{"buffer":0,"byteOffset":49396,"byteLength":288,"target":34962},{"buffer":0,"byteOffset":49684,"byteLength":288,"target":34962},{"buffer":0,"byteOffset":49972,"byteLength":288,"target":34962},{"buffer":0,"byteOffset":50260,"byteLength":288,"target":34962},{"buffer":0,"byteOffset":50548,"byteLength":1548,"target":34962},{"buffer":0,"byteOffset":52096,"byteLength":1548,"target":34962},{"buffer":0,"byteOffset":53644,"byteLength":1032,"target":34962},{"buffer":0,"byteOffset":54676,"byteLength":780,"target":34963},{"buffer":0,"byteOffset":55456,"byteLength":7080,"target":34962},{"buffer":0,"byteOffset":62536,"byteLength":7080,"target":34962},{"buffer":0,"byteOffset":69616,"byteLength":4720,"target":34962},{"buffer":0,"byteOffset":74336,"byteLength":1812,"target":34963},{"buffer":0,"byteOffset":76148,"byteLength":480,"target":34962},{"buffer":0,"byteOffset":76628,"byteLength":480,"target":34962},{"buffer":0,"byteOffset":77108,"byteLength":320,"target":34962},{"buffer":0,"byteOffset":77428,"byteLength":192,"target":34963},{"buffer":0,"byteOffset":77620,"byteLength":1764,"target":34962},{"buffer":0,"byteOffset":79384,"byteLength":1764,"target":34962},{"buffer":0,"byteOffset":81148,"byteLength":438,"target":34963},{"buffer":0,"byteOffset":81588,"byteLength":2832,"target":34962},{"buffer":0,"byteOffset":84420,"byteLength":2832,"target":34962},{"buffer":0,"byteOffset":87252,"byteLength":1888,"target":34962},{"buffer":0,"byteOffset":89140,"byteLength":1080,"target":34963},{"buffer":0,"byteOffset":90220,"byteLength":7200,"target":34962},{"buffer":0,"byteOffset":97420,"byteLength":7200,"target":34962},{"buffer":0,"byteOffset":104620,"byteLength":4800,"target":34962},{"buffer":0,"byteOffset":109420,"byteLength":2112,"target":34963},{"buffer":0,"byteOffset":111532,"byteLength":192,"target":34962},{"buffer":0,"byteOffset":111724,"byteLength":192,"target":34962},{"buffer":0,"byteOffset":111916,"byteLength":128,"target":34962},{"buffer":0,"byteOffset":112044,"byteLength":72,"target":34963},{"buffer":0,"byteOffset":112116,"byteLength":20328,"target":34962},{"buffer":0,"byteOffset":132444,"byteLength":20328,"target":34962},{"buffer":0,"byteOffset":152772,"byteLength":13552,"target":34962},{"buffer":0,"byteOffset":166324,"byteLength":5232,"target":34963},{"buffer":0,"byteOffset":171556,"byteLength":26328,"target":34962},{"buffer":0,"byteOffset":197884,"byteLength":26328,"target":34962},{"buffer":0,"byteOffset":224212,"byteLength":17552,"target":34962},{"buffer":0,"byteOffset":241764,"byteLength":10896,"target":34963},{"buffer":0,"byteOffset":252660,"byteLength":1488,"target":34962},{"buffer":0,"byteOffset":254148,"byteLength":1488,"target":34962},{"buffer":0,"byteOffset":255636,"byteLength":992,"target":34962},{"buffer":0,"byteOffset":256628,"byteLength":504,"target":34963},{"buffer":0,"byteOffset":257132,"byteLength":288,"target":34962},{"buffer":0,"byteOffset":257420,"byteLength":288,"target":34962},{"buffer":0,"byteOffset":257708,"byteLength":192,"target":34962},{"buffer":0,"byteOffset":257900,"byteLength":288,"target":34962},{"buffer":0,"byteOffset":258188,"byteLength":288,"target":34962},{"buffer":0,"byteOffset":258476,"byteLength":192,"target":34962},{"buffer":0,"byteOffset":258668,"byteLength":288,"target":34962},{"buffer":0,"byteOffset":258956,"byteLength":288,"target":34962},{"buffer":0,"byteOffset":259244,"byteLength":288,"target":34962},{"buffer":0,"byteOffset":259532,"byteLength":288,"target":34962},{"buffer":0,"byteOffset":259820,"byteLength":1152,"target":34962},{"buffer":0,"byteOffset":260972,"byteLength":1152,"target":34962},{"buffer":0,"byteOffset":262124,"byteLength":360,"target":34963},{"buffer":0,"byteOffset":262484,"byteLength":288,"target":34962},{"buffer":0,"byteOffset":262772,"byteLength":288,"target":34962},{"buffer":0,"byteOffset":263060,"byteLength":192,"target":34962},{"buffer":0,"byteOffset":263252,"byteLength":1488,"target":34962},{"buffer":0,"byteOffset":264740,"byteLength":1488,"target":34962},{"buffer":0,"byteOffset":266228,"byteLength":992,"target":34962},{"buffer":0,"byteOffset":267220,"byteLength":408,"target":34963},{"buffer":0,"byteOffset":267628,"byteLength":828,"target":34962},{"buffer":0,"byteOffset":268456,"byteLength":828,"target":34962},{"buffer":0,"byteOffset":269284,"byteLength":552,"target":34962},{"buffer":0,"byteOffset":269836,"byteLength":390,"target":34963},{"buffer":0,"byteOffset":270228,"byteLength":96,"target":34962},{"buffer":0,"byteOffset":270324,"byteLength":96,"target":34962},{"buffer":0,"byteOffset":270420,"byteLength":64,"target":34962},{"buffer":0,"byteOffset":270484,"byteLength":24,"target":34963},{"buffer":0,"byteOffset":270508,"byteLength":1512,"target":34962},{"buffer":0,"byteOffset":272020,"byteLength":1512,"target":34962},{"buffer":0,"byteOffset":273532,"byteLength":1008,"target":34962},{"buffer":0,"byteOffset":274540,"byteLength":480,"target":34963},{"buffer":0,"byteOffset":275020,"byteLength":144,"target":34962},{"buffer":0,"byteOffset":275164,"byteLength":144,"target":34962},{"buffer":0,"byteOffset":275308,"byteLength":96,"target":34962},{"buffer":0,"byteOffset":275404,"byteLength":36,"target":34963},{"buffer":0,"byteOffset":275440,"byteLength":1512,"target":34962},{"buffer":0,"byteOffset":276952,"byteLength":1512,"target":34962},{"buffer":0,"byteOffset":278464,"byteLength":1008,"target":34962},{"buffer":0,"byteOffset":279472,"byteLength":144,"target":34962},{"buffer":0,"byteOffset":279616,"byteLength":144,"target":34962},{"buffer":0,"byteOffset":279760,"byteLength":96,"target":34962},{"buffer":0,"byteOffset":279856,"byteLength":960,"target":34962},{"buffer":0,"byteOffset":280816,"byteLength":960,"target":34962},{"buffer":0,"byteOffset":281776,"byteLength":640,"target":34962},{"buffer":0,"byteOffset":282416,"byteLength":348,"target":34963},{"buffer":0,"byteOffset":282764,"byteLength":96,"target":34962},{"buffer":0,"byteOffset":282860,"byteLength":96,"target":34962},{"buffer":0,"byteOffset":282956,"byteLength":64,"target":34962},{"buffer":0,"byteOffset":283020,"byteLength":24,"target":34963},{"buffer":0,"byteOffset":283044,"byteLength":48,"target":34962},{"buffer":0,"byteOffset":283092,"byteLength":48,"target":34962},{"buffer":0,"byteOffset":283140,"byteLength":32,"target":34962},{"buffer":0,"byteOffset":283172,"byteLength":12,"target":34963},{"buffer":0,"byteOffset":283184,"byteLength":1056,"target":34962},{"buffer":0,"byteOffset":284240,"byteLength":1056,"target":34962},{"buffer":0,"byteOffset":285296,"byteLength":704,"target":34962},{"buffer":0,"byteOffset":286000,"byteLength":528,"target":34963},{"buffer":0,"byteOffset":286528,"byteLength":264,"target":34962},{"buffer":0,"byteOffset":286792,"byteLength":264,"target":34962},{"buffer":0,"byteOffset":287056,"byteLength":176,"target":34962},{"buffer":0,"byteOffset":287232,"byteLength":120,"target":34963},{"buffer":0,"byteOffset":287352,"byteLength":1248,"target":34962},{"buffer":0,"byteOffset":288600,"byteLength":1248,"target":34962},{"buffer":0,"byteOffset":289848,"byteLength":832,"target":34962},{"buffer":0,"byteOffset":290680,"byteLength":348,"target":34963},{"buffer":0,"byteOffset":291028,"byteLength":1608,"target":34962},{"buffer":0,"byteOffset":292636,"byteLength":1608,"target":34962},{"buffer":0,"byteOffset":294244,"byteLength":1072,"target":34962},{"buffer":0,"byteOffset":295316,"byteLength":504,"target":34963},{"buffer":0,"byteOffset":295820,"byteLength":480,"target":34962},{"buffer":0,"byteOffset":296300,"byteLength":480,"target":34962},{"buffer":0,"byteOffset":296780,"byteLength":320,"target":34962},{"buffer":0,"byteOffset":297100,"byteLength":228,"target":34963},{"buffer":0,"byteOffset":297328,"byteLength":1608,"target":34962},{"buffer":0,"byteOffset":298936,"byteLength":1608,"target":34962},{"buffer":0,"byteOffset":300544,"byteLength":1072,"target":34962},{"buffer":0,"byteOffset":301616,"byteLength":480,"target":34962},{"buffer":0,"byteOffset":302096,"byteLength":480,"target":34962},{"buffer":0,"byteOffset":302576,"byteLength":320,"target":34962},{"buffer":0,"byteOffset":302896,"byteLength":384,"target":34962},{"buffer":0,"byteOffset":303280,"byteLength":384,"target":34962},{"buffer":0,"byteOffset":303664,"byteLength":256,"target":34962},{"buffer":0,"byteOffset":303920,"byteLength":192,"target":34963},{"buffer":0,"byteOffset":304112,"byteLength":96,"target":34962},{"buffer":0,"byteOffset":304208,"byteLength":96,"target":34962},{"buffer":0,"byteOffset":304304,"byteLength":64,"target":34962},{"buffer":0,"byteOffset":304368,"byteLength":36,"target":34963},{"buffer":0,"byteOffset":304404,"byteLength":960,"target":34962},{"buffer":0,"byteOffset":305364,"byteLength":960,"target":34962},{"buffer":0,"byteOffset":306324,"byteLength":640,"target":34962},{"buffer":0,"byteOffset":306964,"byteLength":384,"target":34962},{"buffer":0,"byteOffset":307348,"byteLength":384,"target":34962},{"buffer":0,"byteOffset":307732,"byteLength":256,"target":34962},{"buffer":0,"byteOffset":307988,"byteLength":96,"target":34962},{"buffer":0,"byteOffset":308084,"byteLength":96,"target":34962},{"buffer":0,"byteOffset":308180,"byteLength":64,"target":34962},{"buffer":0,"byteOffset":308244,"byteLength":960,"target":34962},{"buffer":0,"byteOffset":309204,"byteLength":960,"target":34962},{"buffer":0,"byteOffset":310164,"byteLength":640,"target":34962},{"buffer":0,"byteOffset":310804,"byteLength":960,"target":34962},{"buffer":0,"byteOffset":311764,"byteLength":960,"target":34962},{"buffer":0,"byteOffset":312724,"byteLength":640,"target":34962},{"buffer":0,"byteOffset":313364,"byteLength":348,"target":34963},{"buffer":0,"byteOffset":313712,"byteLength":720,"target":34962},{"buffer":0,"byteOffset":314432,"byteLength":720,"target":34962},{"buffer":0,"byteOffset":315152,"byteLength":480,"target":34962},{"buffer":0,"byteOffset":315632,"byteLength":360,"target":34963},{"buffer":0,"byteOffset":315992,"byteLength":96,"target":34962},{"buffer":0,"byteOffset":316088,"byteLength":96,"target":34962},{"buffer":0,"byteOffset":316184,"byteLength":64,"target":34962},{"buffer":0,"byteOffset":316248,"byteLength":4668,"target":34962},{"buffer":0,"byteOffset":320916,"byteLength":4668,"target":34962},{"buffer":0,"byteOffset":325584,"byteLength":3112,"target":34962},{"buffer":0,"byteOffset":328696,"byteLength":1464,"target":34963},{"buffer":0,"byteOffset":330160,"byteLength":96,"target":34962},{"buffer":0,"byteOffset":330256,"byteLength":96,"target":34962},{"buffer":0,"byteOffset":330352,"byteLength":64,"target":34962},{"buffer":0,"byteOffset":330416,"byteLength":24,"target":34963},{"buffer":0,"byteOffset":330440,"byteLength":4824,"target":34962},{"buffer":0,"byteOffset":335264,"byteLength":4824,"target":34962},{"buffer":0,"byteOffset":340088,"byteLength":3216,"target":34962},{"buffer":0,"byteOffset":343304,"byteLength":1572,"target":34963},{"buffer":0,"byteOffset":344876,"byteLength":996,"target":34962},{"buffer":0,"byteOffset":345872,"byteLength":996,"target":34962},{"buffer":0,"byteOffset":346868,"byteLength":306,"target":34963},{"buffer":0,"byteOffset":347176,"byteLength":3264,"target":34962},{"buffer":0,"byteOffset":350440,"byteLength":3264,"target":34962},{"buffer":0,"byteOffset":353704,"byteLength":2176,"target":34962},{"buffer":0,"byteOffset":355880,"byteLength":816,"target":34963},{"buffer":0,"byteOffset":356696,"byteLength":540,"target":34962},{"buffer":0,"byteOffset":357236,"byteLength":540,"target":34962},{"buffer":0,"byteOffset":357776,"byteLength":144,"target":34963},{"buffer":0,"byteOffset":357920,"byteLength":4080,"target":34962},{"buffer":0,"byteOffset":362000,"byteLength":4080,"target":34962},{"buffer":0,"byteOffset":366080,"byteLength":2720,"target":34962},{"buffer":0,"byteOffset":368800,"byteLength":1344,"target":34963},{"buffer":0,"byteOffset":370144,"byteLength":756,"target":34962},{"buffer":0,"byteOffset":370900,"byteLength":756,"target":34962},{"buffer":0,"byteOffset":371656,"byteLength":246,"target":34963},{"buffer":0,"byteOffset":371904,"byteLength":2664,"target":34962},{"buffer":0,"byteOffset":374568,"byteLength":2664,"target":34962},{"buffer":0,"byteOffset":377232,"byteLength":1776,"target":34962},{"buffer":0,"byteOffset":379008,"byteLength":672,"target":34963},{"buffer":0,"byteOffset":379680,"byteLength":3264,"target":34962},{"buffer":0,"byteOffset":382944,"byteLength":3264,"target":34962},{"buffer":0,"byteOffset":386208,"byteLength":2176,"target":34962},{"buffer":0,"byteOffset":388384,"byteLength":816,"target":34963}],"buffers":[{"byteLength":389200,"uri":"tavern.bin"}],"images":[{"name":"T_Brick_BaseColor","uri":"../village/T_Brick_BaseColor.png"},{"name":"T_Plaster_Luma","uri":"../village/T_Plaster_Luma.png"},{"name":"T_RockTrim_BaseColor","uri":"../village/T_RockTrim_BaseColor.png"},{"name":"T_RoundTiles_Luma","uri":"../village/T_RoundTiles_Luma.png"},{"name":"T_UnevenBrick_BaseColor","uri":"../village/T_UnevenBrick_BaseColor.png"},{"name":"T_WoodTrim_BaseColor","uri":"../village/T_WoodTrim_BaseColor.png"}],"materials":[{"doubleSided":true,"name":"Wood_dark","pbrMetallicRoughness":{"baseColorFactor":[0.2329,0.2659,0.2944,1.0],"baseColorTexture":{"index":5},"metallicFactor":0,"roughnessFactor":0.8500000238418579}},{"doubleSided":true,"name":"Glass","pbrMetallicRoughness":{"baseColorFactor":[0.03310476616024971,0.05087608844041824,0.07828831672668457,1],"metallicFactor":0,"roughnessFactor":0.20000000298023224}},{"doubleSided":true,"name":"Iron","pbrMetallicRoughness":{"baseColorFactor":[0.0134117491543293,0.0134117491543293,0.015325203537940979,1],"metallicFactor":0,"roughnessFactor":0.5}},{"doubleSided":true,"emissiveFactor":[1,0.4479884207248688,0.10048151016235352],"name":"LampGlass","pbrMetallicRoughness":{"baseColorFactor":[1,0.5704815983772278,0.1473190039396286,1],"metallicFactor":0,"roughnessFactor":0.8500000238418579}},{"doubleSided":true,"name":"Stone","pbrMetallicRoughness":{"baseColorFactor":[1.0,0.9974,0.9977,1.0],"baseColorTexture":{"index":4},"metallicFactor":0,"roughnessFactor":0.8500000238418579}},{"doubleSided":true,"name":"Plaster_ochre","pbrMetallicRoughness":{"baseColorFactor":[0.863,0.4728,0.1434,1.0],"baseColorTexture":{"index":1},"metallicFactor":0,"roughnessFactor":0.8500000238418579}},{"doubleSided":true,"name":"Tiles_green","pbrMetallicRoughness":{"baseColorFactor":[0.2433,0.3541,0.2399,1.0],"baseColorTexture":{"index":3},"metallicFactor":0,"roughnessFactor":0.699999988079071}},{"doubleSided":true,"name":"SignPaint","pbrMetallicRoughness":{"baseColorFactor":[0.6038273572921753,0.34239163994789124,0.03310476616024971,1],"metallicFactor":0,"roughnessFactor":0.6000000238418579}},{"doubleSided":true,"name":"RockTrim","pbrMetallicRoughness":{"baseColorFactor":[1.0,0.9979,1.0,1.0],"baseColorTexture":{"index":2},"metallicFactor":0,"roughnessFactor":0.8500000238418579}},{"doubleSided":true,"name":"Brick","pbrMetallicRoughness":{"baseColorFactor":[1.0,0.9974,1.0,1.0],"baseColorTexture":{"index":0},"metallicFactor":0,"roughnessFactor":0.8500000238418579}}],"meshes":[{"name":"Beam","primitives":[{"attributes":{"NORMAL":0,"POSITION":1,"TEXCOORD_0":2},"indices":3,"material":0}]},{"name":"kit_Corner_Exterior_Wood","primitives":[{"attributes":{"NORMAL":4,"POSITION":5,"TEXCOORD_0":6},"indices":7,"material":0}]},{"name":"kit_Door_1_Round","primitives":[{"attributes":{"NORMAL":8,"POSITION":9,"TEXCOORD_0":10},"indices":11,"material":0},{"attributes":{"NORMAL":12,"POSITION":13},"indices":14,"material":1}]},{"name":"kit_DoorFrame_Round_WoodDark","primitives":[{"attributes":{"NORMAL":15,"POSITION":16,"TEXCOORD_0":17},"indices":18,"material":0}]},{"name":"kit_Floor_WoodDark","primitives":[{"attributes":{"NORMAL":19,"POSITION":20,"TEXCOORD_0":21},"indices":22,"material":0}]},{"name":"LanternArm","primitives":[{"attributes":{"NORMAL":23,"POSITION":24},"indices":3,"material":2}]},{"name":"LanternArm.001","primitives":[{"attributes":{"NORMAL":25,"POSITION":26},"indices":3,"material":2}]},{"name":"LanternBase","primitives":[{"attributes":{"NORMAL":27,"POSITION":28},"indices":3,"material":2}]},{"name":"LanternBase.001","primitives":[{"attributes":{"NORMAL":29,"POSITION":30},"indices":3,"material":2}]},{"name":"LanternCap","primitives":[{"attributes":{"NORMAL":31,"POSITION":32},"indices":3,"material":2}]},{"name":"LanternCap.001","primitives":[{"attributes":{"NORMAL":33,"POSITION":34},"indices":3,"material":2}]},{"name":"LanternGlass","primitives":[{"attributes":{"NORMAL":35,"POSITION":36},"indices":3,"material":3}]},{"name":"LanternGlass.001","primitives":[{"attributes":{"NORMAL":37,"POSITION":38},"indices":3,"material":3}]},{"name":"LanternHook","primitives":[{"attributes":{"NORMAL":39,"POSITION":40},"indices":3,"material":2}]},{"name":"LanternHook.001","primitives":[{"attributes":{"NORMAL":41,"POSITION":42},"indices":3,"material":2}]},{"name":"kit_Prop_Chimney2","primitives":[{"attributes":{"NORMAL":43,"POSITION":44,"TEXCOORD_0":45},"indices":46,"material":4}]},{"name":"kit_Roof_Dormer_RoundTile.001","primitives":[{"attributes":{"NORMAL":47,"POSITION":48,"TEXCOORD_0":49},"indices":50,"material":0},{"attributes":{"NORMAL":51,"POSITION":52,"TEXCOORD_0":53},"indices":54,"material":5},{"attributes":{"NORMAL":55,"POSITION":56},"indices":57,"material":1},{"attributes":{"NORMAL":58,"POSITION":59,"TEXCOORD_0":60},"indices":61,"material":6}]},{"name":"kit_Roof_Front_Brick8","primitives":[{"attributes":{"NORMAL":62,"POSITION":63,"TEXCOORD_0":64},"indices":65,"material":0},{"attributes":{"NORMAL":66,"POSITION":67,"TEXCOORD_0":68},"indices":69,"material":5}]},{"name":"kit_Roof_RoundTiles_8x10.001","primitives":[{"attributes":{"NORMAL":70,"POSITION":71,"TEXCOORD_0":72},"indices":73,"material":0},{"attributes":{"NORMAL":74,"POSITION":75,"TEXCOORD_0":76},"indices":77,"material":6}]},{"name":"kit_Roof_Support2","primitives":[{"attributes":{"NORMAL":78,"POSITION":79,"TEXCOORD_0":80},"indices":81,"material":0}]},{"name":"SignArm","primitives":[{"attributes":{"NORMAL":82,"POSITION":83,"TEXCOORD_0":84},"indices":3,"material":0}]},{"name":"SignBoard","primitives":[{"attributes":{"NORMAL":85,"POSITION":86,"TEXCOORD_0":87},"indices":3,"material":0}]},{"name":"SignChain","primitives":[{"attributes":{"NORMAL":88,"POSITION":89},"indices":3,"material":2}]},{"name":"SignChain.001","primitives":[{"attributes":{"NORMAL":90,"POSITION":91},"indices":3,"material":2}]},{"name":"SignEmblem","primitives":[{"attributes":{"NORMAL":92,"POSITION":93},"indices":94,"material":7}]},{"name":"SignFrame","primitives":[{"attributes":{"NORMAL":95,"POSITION":96,"TEXCOORD_0":97},"indices":3,"material":0}]},{"name":"kit_Wall_Plaster_Door_Round","primitives":[{"attributes":{"NORMAL":98,"POSITION":99,"TEXCOORD_0":100},"indices":101,"material":0},{"attributes":{"NORMAL":102,"POSITION":103,"TEXCOORD_0":104},"indices":105,"material":5},{"attributes":{"NORMAL":106,"POSITION":107,"TEXCOORD_0":108},"indices":109,"material":8}]},{"name":"kit_Wall_Plaster_Straight.001","primitives":[{"attributes":{"NORMAL":110,"POSITION":111,"TEXCOORD_0":112},"indices":113,"material":0},{"attributes":{"NORMAL":114,"POSITION":115,"TEXCOORD_0":116},"indices":117,"material":5}]},{"name":"kit_Wall_Plaster_Straight","primitives":[{"attributes":{"NORMAL":118,"POSITION":119,"TEXCOORD_0":120},"indices":113,"material":0},{"attributes":{"NORMAL":121,"POSITION":122,"TEXCOORD_0":123},"indices":117,"material":5}]},{"name":"kit_Wall_Plaster_Straight_Base","primitives":[{"attributes":{"NORMAL":124,"POSITION":125,"TEXCOORD_0":126},"indices":127,"material":0},{"attributes":{"NORMAL":128,"POSITION":129,"TEXCOORD_0":130},"indices":131,"material":5},{"attributes":{"NORMAL":132,"POSITION":133,"TEXCOORD_0":134},"indices":135,"material":9}]},{"name":"kit_Wall_Plaster_Window_Thin_Round.001","primitives":[{"attributes":{"NORMAL":136,"POSITION":137,"TEXCOORD_0":138},"indices":139,"material":5},{"attributes":{"NORMAL":140,"POSITION":141,"TEXCOORD_0":142},"indices":143,"material":5},{"attributes":{"NORMAL":144,"POSITION":145,"TEXCOORD_0":146},"indices":147,"material":0}]},{"name":"kit_Wall_Plaster_Window_Wide_Flat2.001","primitives":[{"attributes":{"NORMAL":148,"POSITION":149,"TEXCOORD_0":150},"indices":151,"material":0},{"attributes":{"NORMAL":152,"POSITION":153,"TEXCOORD_0":154},"indices":155,"material":5}]},{"name":"kit_Wall_Plaster_Window_Wide_Flat2","primitives":[{"attributes":{"NORMAL":156,"POSITION":157,"TEXCOORD_0":158},"indices":151,"material":0},{"attributes":{"NORMAL":159,"POSITION":160,"TEXCOORD_0":161},"indices":155,"material":5}]},{"name":"kit_Wall_Plaster_Window_Wide_Flat.001","primitives":[{"attributes":{"NORMAL":162,"POSITION":163,"TEXCOORD_0":164},"indices":165,"material":5},{"attributes":{"NORMAL":166,"POSITION":167,"TEXCOORD_0":168},"indices":169,"material":5},{"attributes":{"NORMAL":170,"POSITION":171,"TEXCOORD_0":172},"indices":127,"material":0}]},{"name":"kit_Wall_Plaster_Window_Wide_Flat","primitives":[{"attributes":{"NORMAL":173,"POSITION":174,"TEXCOORD_0":175},"indices":165,"material":5},{"attributes":{"NORMAL":176,"POSITION":177,"TEXCOORD_0":178},"indices":169,"material":9},{"attributes":{"NORMAL":179,"POSITION":180,"TEXCOORD_0":181},"indices":127,"material":0}]},{"name":"kit_Wall_Plaster_Window_Wide_Round","primitives":[{"attributes":{"NORMAL":182,"POSITION":183,"TEXCOORD_0":184},"indices":185,"material":0},{"attributes":{"NORMAL":186,"POSITION":187,"TEXCOORD_0":188},"indices":189,"material":5},{"attributes":{"NORMAL":190,"POSITION":191,"TEXCOORD_0":192},"indices":169,"material":9}]},{"name":"kit_Wall_Plaster_WoodGrid.001","primitives":[{"attributes":{"NORMAL":193,"POSITION":194,"TEXCOORD_0":195},"indices":196,"material":0},{"attributes":{"NORMAL":197,"POSITION":198,"TEXCOORD_0":199},"indices":200,"material":5}]},{"name":"kit_Window_Thin_Round1.001","primitives":[{"attributes":{"NORMAL":201,"POSITION":202,"TEXCOORD_0":203},"indices":204,"material":0},{"attributes":{"NORMAL":205,"POSITION":206},"indices":207,"material":1}]},{"name":"kit_Window_Wide_Flat1","primitives":[{"attributes":{"NORMAL":208,"POSITION":209,"TEXCOORD_0":210},"indices":211,"material":0},{"attributes":{"NORMAL":212,"POSITION":213},"indices":214,"material":1}]},{"name":"kit_Window_Wide_Round1.001","primitives":[{"attributes":{"NORMAL":215,"POSITION":216,"TEXCOORD_0":217},"indices":218,"material":0},{"attributes":{"NORMAL":219,"POSITION":220},"indices":221,"material":1}]},{"name":"kit_WindowShutters_Thin_Round_Open","primitives":[{"attributes":{"NORMAL":222,"POSITION":223,"TEXCOORD_0":224},"indices":225,"material":0}]},{"name":"kit_WindowShutters_Wide_Round_Open","primitives":[{"attributes":{"NORMAL":226,"POSITION":227,"TEXCOORD_0":228},"indices":229,"material":0}]}],"nodes":[{"mesh":0,"name":"Beam.054"},{"mesh":1,"name":"Corner_Exterior_Wood.036","translation":[-6,0,0]},{"mesh":1,"name":"Corner_Exterior_Wood.037","translation":[6,0,0]},{"mesh":1,"name":"Corner_Exterior_Wood.038","translation":[-6,0,-8]},{"mesh":1,"name":"Corner_Exterior_Wood.039","translation":[6,0,-8]},{"mesh":1,"name":"Corner_Exterior_Wood.084","translation":[-6,3,0.6000000238418579]},{"mesh":1,"name":"Corner_Exterior_Wood.085","translation":[6,3,0.6000000238418579]},{"mesh":1,"name":"Corner_Exterior_Wood.086","translation":[-6,3,-8]},{"mesh":1,"name":"Corner_Exterior_Wood.087","translation":[6,3,-8]},{"mesh":2,"name":"Door_1_Round.008","scale":[1.0714285373687744,1,1],"translation":[-1.2000000476837158,0,-0.019999999552965164]},{"mesh":2,"name":"Door_1_Round.009","rotation":[0,-1,0,4.371138828673793e-08],"scale":[1.0714285373687744,1,1],"translation":[1.2000000476837158,0,-0.019999999552965164]},{"mesh":2,"name":"Door_1_Round.019","rotation":[0,-1,0,4.371138828673793e-08],"translation":[1.5499999523162842,0,-7.980000019073486]},{"mesh":3,"name":"DoorFrame_Round_WoodDark.007","scale":[2,1,1]},{"mesh":3,"name":"DoorFrame_Round_WoodDark.018","rotation":[0,-1,0,4.371138828673793e-08],"translation":[1,0,-8]},{"mesh":4,"name":"Floor_WoodDark.048","scale":[1,1,0.3499999940395355],"translation":[-5,2.9700000286102295,0.30000001192092896]},{"mesh":4,"name":"Floor_WoodDark.049","scale":[1,1,0.3499999940395355],"translation":[-3,2.9700000286102295,0.30000001192092896]},{"mesh":4,"name":"Floor_WoodDark.050","scale":[1,1,0.3499999940395355],"translation":[-1,2.9700000286102295,0.30000001192092896]},{"mesh":4,"name":"Floor_WoodDark.051","scale":[1,1,0.3499999940395355],"translation":[1,2.9700000286102295,0.30000001192092896]},{"mesh":4,"name":"Floor_WoodDark.052","scale":[1,1,0.3499999940395355],"translation":[3,2.9700000286102295,0.30000001192092896]},{"mesh":4,"name":"Floor_WoodDark.053","scale":[1,1,0.3499999940395355],"translation":[5,2.9700000286102295,0.30000001192092896]},{"mesh":5,"name":"LanternArm.095"},{"mesh":6,"name":"LanternArm.100"},{"mesh":7,"name":"LanternBase.099"},{"mesh":8,"name":"LanternBase.104"},{"mesh":9,"name":"LanternCap.097"},{"mesh":10,"name":"LanternCap.102"},{"mesh":11,"name":"LanternGlass.098"},{"mesh":12,"name":"LanternGlass.103"},{"mesh":13,"name":"LanternHook.096"},{"mesh":14,"name":"LanternHook.101"},{"mesh":15,"name":"Prop_Chimney2.093","translation":[-4.199999809265137,7.045957565307617,-6.199999809265137]},{"mesh":15,"name":"Prop_Chimney2.094","translation":[4.400000095367432,6.898782730102539,-6.199999809265137]},{"mesh":16,"name":"Roof_Dormer_RoundTile.091","rotation":[0,-0.7071068286895752,0,0.7071068286895752],"translation":[-3,6.462756633758545,0]},{"mesh":16,"name":"Roof_Dormer_RoundTile.092","rotation":[0,-0.7071068286895752,0,0.7071068286895752],"translation":[3,6.47987699508667,0]},{"mesh":17,"name":"Roof_Front_Brick8.089","rotation":[0,-0.7071068286895752,0,0.7071068286895752],"scale":[1.0750000476837158,1,1],"translation":[-6,6.119999885559082,-3.700000047683716]},{"mesh":17,"name":"Roof_Front_Brick8.090","rotation":[0,0.7071068286895752,0,0.7071068286895752],"scale":[1.0750000476837158,1,1],"translation":[6,6.119999885559082,-3.700000047683716]},{"mesh":18,"name":"Roof_RoundTiles_8x10.088","rotation":[0,-0.7071068286895752,0,0.7071068286895752],"scale":[1.0750000476837158,1,1.2000000476837158],"translation":[0,6.119999885559082,-3.700000047683716]},{"mesh":19,"name":"Roof_Support2.040","scale":[1,1,0.8695651888847351],"translation":[-5.900000095367432,3.0199999809265137,0.09000000357627869]},{"mesh":19,"name":"Roof_Support2.041","scale":[1,1,0.8695651888847351],"translation":[-4.214285850524902,3.0199999809265137,0.09000000357627869]},{"mesh":19,"name":"Roof_Support2.042","scale":[1,1,0.8695651888847351],"translation":[-2.528571367263794,3.0199999809265137,0.09000000357627869]},{"mesh":19,"name":"Roof_Support2.043","scale":[1,1,0.8695651888847351],"translation":[-0.8428571224212646,3.0199999809265137,0.09000000357627869]},{"mesh":19,"name":"Roof_Support2.044","scale":[1,1,0.8695651888847351],"translation":[0.8428571224212646,3.0199999809265137,0.09000000357627869]},{"mesh":19,"name":"Roof_Support2.045","scale":[1,1,0.8695651888847351],"translation":[2.528571367263794,3.0199999809265137,0.09000000357627869]},{"mesh":19,"name":"Roof_Support2.046","scale":[1,1,0.8695651888847351],"translation":[4.214285850524902,3.0199999809265137,0.09000000357627869]},{"mesh":19,"name":"Roof_Support2.047","scale":[1,1,0.8695651888847351],"translation":[5.900000095367432,3.0199999809265137,0.09000000357627869]},{"mesh":19,"name":"Roof_Support2.106","scale":[0.800000011920929,0.8999999761581421,0.6000000238418579],"translation":[4,4.039999961853027,0.6899999976158142]},{"mesh":20,"name":"SignArm.105"},{"mesh":21,"name":"SignBoard.109"},{"mesh":22,"name":"SignChain.107"},{"mesh":23,"name":"SignChain.108"},{"mesh":24,"name":"SignEmblem.111"},{"mesh":25,"name":"SignFrame.110"},{"mesh":26,"name":"Wall_Plaster_Door_Round.006","scale":[2,1,1]},{"mesh":26,"name":"Wall_Plaster_Door_Round.017","rotation":[0,-1,0,4.371138828673793e-08],"translation":[1,0,-8]},{"mesh":27,"name":"Wall_Plaster_Straight+upper.067","rotation":[0,-1,0,4.371138828673793e-08],"translation":[5,3,-8]},{"mesh":27,"name":"Wall_Plaster_Straight+upper.070","rotation":[0,-1,0,4.371138828673793e-08],"translation":[1,3,-8]},{"mesh":27,"name":"Wall_Plaster_Straight+upper.071","rotation":[0,-1,0,4.371138828673793e-08],"translation":[-1,3,-8]},{"mesh":27,"name":"Wall_Plaster_Straight+upper.072","rotation":[0,-1,0,4.371138828673793e-08],"translation":[-3,3,-8]},{"mesh":27,"name":"Wall_Plaster_Straight+upper.073","rotation":[0,-1,0,4.371138828673793e-08],"translation":[-5,3,-8]},{"mesh":27,"name":"Wall_Plaster_Straight+upper.074","rotation":[0,-0.7071068286895752,0,0.7071068286895752],"scale":[1.0750000476837158,1,1],"translation":[-6,3,-6.925000190734863]},{"mesh":27,"name":"Wall_Plaster_Straight+upper.077","rotation":[0,-0.7071068286895752,0,0.7071068286895752],"scale":[1.0750000476837158,1,1],"translation":[-6,3,-2.624999761581421]},{"mesh":27,"name":"Wall_Plaster_Straight+upper.078","rotation":[0,-0.7071068286895752,0,0.7071068286895752],"scale":[1.0750000476837158,1,1],"translation":[-6,3,-0.47499966621398926]},{"mesh":27,"name":"Wall_Plaster_Straight+upper.079","rotation":[0,0.7071068286895752,0,0.7071068286895752],"scale":[1.0750000476837158,1,1],"translation":[6,3,-0.4750000238418579]},{"mesh":27,"name":"Wall_Plaster_Straight+upper.080","rotation":[0,0.7071068286895752,0,0.7071068286895752],"scale":[1.0750000476837158,1,1],"translation":[6,3,-2.625]},{"mesh":27,"name":"Wall_Plaster_Straight+upper.083","rotation":[0,0.7071068286895752,0,0.7071068286895752],"scale":[1.0750000476837158,1,1],"translation":[6,3,-6.925000190734863]},{"mesh":28,"name":"Wall_Plaster_Straight.016","rotation":[0,-1,0,4.371138828673793e-08],"translation":[3,0,-8]},{"mesh":28,"name":"Wall_Plaster_Straight.020","rotation":[0,-1,0,4.371138828673793e-08],"translation":[-1,0,-8]},{"mesh":28,"name":"Wall_Plaster_Straight.028","rotation":[0,-0.7071068286895752,0,0.7071068286895752],"translation":[-6,0,-3]},{"mesh":28,"name":"Wall_Plaster_Straight.031","rotation":[0,0.7071068286895752,0,0.7071068286895752],"translation":[6,0,-3]},{"mesh":29,"name":"Wall_Plaster_Straight_Base.015","rotation":[0,-1,0,4.371138828673793e-08],"translation":[5,0,-8]},{"mesh":29,"name":"Wall_Plaster_Straight_Base.023","rotation":[0,-1,0,4.371138828673793e-08],"translation":[-5,0,-8]},{"mesh":29,"name":"Wall_Plaster_Straight_Base.024","rotation":[0,-0.7071068286895752,0,0.7071068286895752],"translation":[-6,0,-7]},{"mesh":29,"name":"Wall_Plaster_Straight_Base.029","rotation":[0,-0.7071068286895752,0,0.7071068286895752],"translation":[-6,0,-1]},{"mesh":29,"name":"Wall_Plaster_Straight_Base.030","rotation":[0,0.7071068286895752,0,0.7071068286895752],"translation":[6,0,-1]},{"mesh":29,"name":"Wall_Plaster_Straight_Base.035","rotation":[0,0.7071068286895752,0,0.7071068286895752],"translation":[6,0,-7]},{"mesh":30,"name":"Wall_Plaster_Window_Thin_Round+upper.055","translation":[-5,3,0.6000000238418579]},{"mesh":30,"name":"Wall_Plaster_Window_Thin_Round+upper.064","translation":[5,3,0.6000000238418579]},{"mesh":31,"name":"Wall_Plaster_Window_Wide_Flat2+upper.058","translation":[-3,3,0.6000000238418579]},{"mesh":31,"name":"Wall_Plaster_Window_Wide_Flat2+upper.062","translation":[3,3,0.6000000238418579]},{"mesh":32,"name":"Wall_Plaster_Window_Wide_Flat2.004","translation":[-3,0,0]},{"mesh":32,"name":"Wall_Plaster_Window_Wide_Flat2.010","translation":[3,0,0]},{"mesh":33,"name":"Wall_Plaster_Window_Wide_Flat+upper.068","rotation":[0,-1,0,4.371138828673793e-08],"translation":[3,3,-8]},{"mesh":33,"name":"Wall_Plaster_Window_Wide_Flat+upper.075","rotation":[0,-0.7071068286895752,0,0.7071068286895752],"scale":[1.0750000476837158,1,1],"translation":[-6,3,-4.774999618530273]},{"mesh":33,"name":"Wall_Plaster_Window_Wide_Flat+upper.081","rotation":[0,0.7071068286895752,0,0.7071068286895752],"scale":[1.0750000476837158,1,1],"translation":[6,3,-4.77500057220459]},{"mesh":34,"name":"Wall_Plaster_Window_Wide_Flat.021","rotation":[0,-1,0,4.371138828673793e-08],"translation":[-3,0,-8]},{"mesh":35,"name":"Wall_Plaster_Window_Wide_Round.001","translation":[-5,0,0]},{"mesh":35,"name":"Wall_Plaster_Window_Wide_Round.012","translation":[5,0,0]},{"mesh":35,"name":"Wall_Plaster_Window_Wide_Round.025","rotation":[0,-0.7071068286895752,0,0.7071068286895752],"translation":[-6,0,-5]},{"mesh":35,"name":"Wall_Plaster_Window_Wide_Round.032","rotation":[0,0.7071068286895752,0,0.7071068286895752],"translation":[6,0,-5]},{"mesh":36,"name":"Wall_Plaster_WoodGrid+upper.060","translation":[-1,3,0.6000000238418579]},{"mesh":36,"name":"Wall_Plaster_WoodGrid+upper.061","translation":[1,3,0.6000000238418579]},{"mesh":37,"name":"Window_Thin_Round1.056","translation":[-5,3,0.6000000238418579]},{"mesh":37,"name":"Window_Thin_Round1.065","translation":[5,3,0.6000000238418579]},{"mesh":38,"name":"Window_Wide_Flat1.005","translation":[-3,0,0]},{"mesh":38,"name":"Window_Wide_Flat1.011","translation":[3,0,0]},{"mesh":38,"name":"Window_Wide_Flat1.022","rotation":[0,-1,0,4.371138828673793e-08],"translation":[-3,0,-8]},{"mesh":38,"name":"Window_Wide_Flat1.059","translation":[-3,3,0.6000000238418579]},{"mesh":38,"name":"Window_Wide_Flat1.063","translation":[3,3,0.6000000238418579]},{"mesh":38,"name":"Window_Wide_Flat1.069","rotation":[0,-1,0,4.371138828673793e-08],"translation":[3,3,-8]},{"mesh":38,"name":"Window_Wide_Flat1.076","rotation":[0,-0.7071068286895752,0,0.7071068286895752],"scale":[1.0750000476837158,1,1],"translation":[-6,3,-4.774999618530273]},{"mesh":38,"name":"Window_Wide_Flat1.082","rotation":[0,0.7071068286895752,0,0.7071068286895752],"scale":[1.0750000476837158,1,1],"translation":[6,3,-4.77500057220459]},{"mesh":39,"name":"Window_Wide_Round1.002","translation":[-5,0,0]},{"mesh":39,"name":"Window_Wide_Round1.013","translation":[5,0,0]},{"mesh":39,"name":"Window_Wide_Round1.026","rotation":[0,-0.7071068286895752,0,0.7071068286895752],"translation":[-6,0,-5]},{"mesh":39,"name":"Window_Wide_Round1.033","rotation":[0,0.7071068286895752,0,0.7071068286895752],"translation":[6,0,-5]},{"mesh":40,"name":"WindowShutters_Thin_Round_Open.057","translation":[-5,3,0.6000000238418579]},{"mesh":40,"name":"WindowShutters_Thin_Round_Open.066","translation":[5,3,0.6000000238418579]},{"mesh":41,"name":"WindowShutters_Wide_Round_Open.003","translation":[-5,0,0]},{"mesh":41,"name":"WindowShutters_Wide_Round_Open.014","translation":[5,0,0]},{"mesh":41,"name":"WindowShutters_Wide_Round_Open.027","rotation":[0,-0.7071068286895752,0,0.7071068286895752],"translation":[-6,0,-5]},{"mesh":41,"name":"WindowShutters_Wide_Round_Open.034","rotation":[0,0.7071068286895752,0,0.7071068286895752],"translation":[6,0,-5]}],"scene":0,"scenes":[{"name":"Scene","nodes":[0,1,2,3,4,5,6,7,8,9,10,11,12,13,14,15,16,17,18,19,20,21,22,23,24,25,26,27,28,29,30,31,32,33,34,35,36,37,38,39,40,41,42,43,44,45,46,47,48,49,50,51,52,53,54,55,56,57,58,59,60,61,62,63,64,65,66,67,68,69,70,71,72,73,74,75,76,77,78,79,80,81,82,83,84,85,86,87,88,89,90,91,92,93,94,95,96,97,98,99,100,101,102,103,104,105,106,107,108,109,110]}],"textures":[{"source":0},{"source":1},{"source":2},{"source":3},{"source":4},{"source":5}]}