{"accessors":[{"bufferView":0,"componentType":5126,"count":252,"type":"VEC3"},{"bufferView":1,"componentType":5126,"count":252,"max":[1.194271445274353,1.071938395500183,1.6655590534210205],"min":[-1.0059735774993896,0.04766952991485596,-0.9059829115867615],"type":"VEC3"},{"bufferView":2,"componentType":5123,"count":324,"type":"SCALAR"},{"bufferView":3,"componentType":5126,"count":168,"type":"VEC3"},{"bufferView":4,"componentType":5126,"count":168,"max":[0.5285112857818604,1.119607925415039,0.9311668872833252],"min":[-1.194271445274353,0,-1.6655590534210205],"type":"VEC3"},{"bufferView":5,"componentType":5123,"count":216,"type":"SCALAR"},{"bufferView":6,"componentType":5126,"count":32,"type":"VEC3"},{"bufferView":7,"componentType":5126,"count":32,"max":[0.20779269933700562,2.8098039627075195,0.4049731492996216],"min":[-0.5622073411941528,0.209803968667984,-0.11502686142921448],"type":"VEC3"},{"bufferView":8,"componentType":5123,"count":48,"type":"SCALAR"},{"bufferView":9,"componentType":5126,"count":168,"type":"VEC3"},{"bufferView":10,"componentType":5126,"count":168,"max":[0.6241067051887512,3.469804048538208,0.8949731588363647],"min":[-0.9785213470458984,1.6498037576675415,-0.60502690076828],"type":"VEC3"},{"bufferView":11,"componentType":5123,"count":216,"type":"SCALAR"}],"asset":{"generator":"Khronos glTF Blender I/O v5.2.40","version":"2.0"},"bufferViews":[{"buffer":0,"byteOffset":0,"byteLength":3024,"target":34962},{"buffer":0,"byteOffset":3024,"byteLength":3024,"target":34962},{"buffer":0,"byteOffset":6048,"byteLength":648,"target":34963},{"buffer":0,"byteOffset":6696,"byteLength":2016,"target":34962},{"buffer":0,"byteOffset":8712,"byteLength":2016,"target":34962},{"buffer":0,"byteOffset":10728,"byteLength":432,"target":34963},{"buffer":0,"byteOffset":11160,"byteLength":384,"target":34962},{"buffer":0,"byteOffset":11544,"byteLength":384,"target":34962},{"buffer":0,"byteOffset":11928,"byteLength":96,"target":34963},{"buffer":0,"byteOffset":12024,"byteLength":2016,"target":34962},{"buffer":0,"byteOffset":14040,"byteLength":2016,"target":34962},{"buffer":0,"byteOffset":16056,"byteLength":432,"target":34963}],"buffers":[{"byteLength":16488,"uri":"thicket.bin"}],"images":[],"materials":[{"doubleSided":true,"name":"Prop_LeafDark","pbrMetallicRoughness":{"baseColorFactor":[0.04500000178813934,0.12999999523162842,0.029999999329447746,1],"metallicFactor":0,"roughnessFactor":0.8999999761581421}},{"doubleSided":true,"name":"Prop_Leaf","pbrMetallicRoughness":{"baseColorFactor":[0.07000000029802322,0.20000000298023224,0.03999999910593033,1],"metallicFactor":0,"roughnessFactor":0.8999999761581421}},{"doubleSided":true,"name":"Prop_Bark","pbrMetallicRoughness":{"baseColorFactor":[0.1599999964237213,0.07999999821186066,0.03500000014901161,1],"metallicFactor":0,"roughnessFactor":0.8999999761581421}},{"doubleSided":true,"name":"Prop_CanopyLight","pbrMetallicRoughness":{"baseColorFactor":[0.11999999731779099,0.27000001072883606,0.05000000074505806,1],"metallicFactor":0,"roughnessFactor":0.8999999761581421}}],"meshes":[{"name":"thicket","primitives":[{"attributes":{"NORMAL":0,"POSITION":1},"indices":2,"material":0},{"attributes":{"NORMAL":3,"POSITION":4},"indices":5,"material":1},{"attributes":{"NORMAL":6,"POSITION":7},"indices":8,"material":2},{"attributes":{"NORMAL":9,"POSITION":10},"indices":11,"material":3}]}],"nodes":[{"mesh":0,"name":"thicket"}],"scene":0,"scenes":[{"name":"Scene","nodes":[0]}],"textures":[]}