{"accessors":[{"bufferView":0,"componentType":5126,"count":112,"type":"VEC3"},{"bufferView":1,"componentType":5126,"count":112,"max":[4,9.760000228881836,0],"min":[-4,0,-9],"type":"VEC3"},{"bufferView":2,"componentType":5126,"count":112,"type":"VEC2"},{"bufferView":3,"componentType":5123,"count":168,"type":"SCALAR"},{"bufferView":4,"componentType":5126,"count":2588,"type":"VEC3"},{"bufferView":5,"componentType":5126,"count":2588,"max":[4.199999809265137,7.9730329513549805,1.5],"min":[-4.199999809265137,0,-9.25],"type":"VEC3"},{"bufferView":6,"componentType":5126,"count":2588,"type":"VEC2"},{"bufferView":7,"componentType":5123,"count":3882,"type":"SCALAR"},{"bufferView":8,"componentType":5126,"count":92,"type":"VEC3"},{"bufferView":9,"componentType":5126,"count":92,"max":[4.03000020980835,7.150000095367432,0.5600000023841858],"min":[-4.03000020980835,0.949999988079071,-9.030000686645508],"type":"VEC3"},{"bufferView":10,"componentType":5123,"count":138,"type":"SCALAR"},{"bufferView":11,"componentType":5126,"count":152,"type":"VEC3"},{"bufferView":12,"componentType":5126,"count":152,"max":[2.7799999713897705,10.020000457763672,0.5600000023841858],"min":[-1.9500000476837158,1.1039999723434448,-5.880000114440918],"type":"VEC3"},{"bufferView":13,"componentType":5123,"count":228,"type":"SCALAR"},{"bufferView":14,"componentType":5126,"count":56,"type":"VEC3"},{"bufferView":15,"componentType":5126,"count":56,"max":[2.5899999141693115,2.140000104904175,0.4699999988079071],"min":[-1.4500000476837158,0.8999999761581421,0.23999999463558197],"type":"VEC3"},{"bufferView":16,"componentType":5123,"count":84,"type":"SCALAR"},{"bufferView":17,"componentType":5126,"count":224,"type":"VEC3"},{"bufferView":18,"componentType":5126,"count":224,"max":[3.7899999618530273,5.150000095367432,0.5799999833106995],"min":[-3.5899999141693115,0.949999988079071,-9.079999923706055],"type":"VEC3"},{"bufferView":19,"componentType":5123,"count":336,"type":"SCALAR"},{"bufferView":20,"componentType":5126,"count":32,"type":"VEC3"},{"bufferView":21,"componentType":5126,"count":32,"max":[3.059999942779541,0.9599999785423279,0.4000000059604645],"min":[-0.36000001430511475,0.7799999713897705,0.2199999988079071],"type":"VEC3"},{"bufferView":22,"componentType":5123,"count":48,"type":"SCALAR"},{"bufferView":23,"componentType":5126,"count":80,"type":"VEC3"},{"bufferView":24,"componentType":5126,"count":80,"max":[2.990000009536743,1.059999942779541,0.36000001430511475],"min":[-0.28999999165534973,0.8999999761581421,0.23999999463558197],"type":"VEC3"},{"bufferView":25,"componentType":5123,"count":120,"type":"SCALAR"},{"bufferView":26,"componentType":5126,"count":104,"type":"VEC3"},{"bufferView":27,"componentType":5126,"count":104,"max":[4,9.069999694824219,0.5000001788139343],"min":[-4,3,-9],"type":"VEC3"},{"bufferView":28,"componentType":5126,"count":104,"type":"VEC2"},{"bufferView":29,"componentType":5123,"count":150,"type":"SCALAR"},{"bufferView":30,"componentType":5126,"count":144,"type":"VEC3"},{"bufferView":31,"componentType":5126,"count":144,"max":[4.550000190734863,9.239999771118164,1],"min":[-4.550000190734863,5.381677627563477,-9.5],"type":"VEC3"},{"bufferView":32,"componentType":5126,"count":144,"type":"VEC2"},{"bufferView":33,"componentType":5123,"count":216,"type":"SCALAR"}],"asset":{"generator":"Khronos glTF Blender I/O v5.2.40","version":"2.0"},"bufferViews":[{"buffer":0,"byteOffset":0,"byteLength":1344,"target":34962},{"buffer":0,"byteOffset":1344,"byteLength":1344,"target":34962},{"buffer":0,"byteOffset":2688,"byteLength":896,"target":34962},{"buffer":0,"byteOffset":3584,"byteLength":336,"target":34963},{"buffer":0,"byteOffset":3920,"byteLength":31056,"target":34962},{"buffer":0,"byteOffset":34976,"byteLength":31056,"target":34962},{"buffer":0,"byteOffset":66032,"byteLength":20704,"target":34962},{"buffer":0,"byteOffset":86736,"byteLength":7764,"target":34963},{"buffer":0,"byteOffset":94500,"byteLength":1104,"target":34962},{"buffer":0,"byteOffset":95604,"byteLength":1104,"target":34962},{"buffer":0,"byteOffset":96708,"byteLength":276,"target":34963},{"buffer":0,"byteOffset":96984,"byteLength":1824,"target":34962},{"buffer":0,"byteOffset":98808,"byteLength":1824,"target":34962},{"buffer":0,"byteOffset":100632,"byteLength":456,"target":34963},{"buffer":0,"byteOffset":101088,"byteLength":672,"target":34962},{"buffer":0,"byteOffset":101760,"byteLength":672,"target":34962},{"buffer":0,"byteOffset":102432,"byteLength":168,"target":34963},{"buffer":0,"byteOffset":102600,"byteLength":2688,"target":34962},{"buffer":0,"byteOffset":105288,"byteLength":2688,"target":34962},{"buffer":0,"byteOffset":107976,"byteLength":672,"target":34963},{"buffer":0,"byteOffset":108648,"byteLength":384,"target":34962},{"buffer":0,"byteOffset":109032,"byteLength":384,"target":34962},{"buffer":0,"byteOffset":109416,"byteLength":96,"target":34963},{"buffer":0,"byteOffset":109512,"byteLength":960,"target":34962},{"buffer":0,"byteOffset":110472,"byteLength":960,"target":34962},{"buffer":0,"byteOffset":111432,"byteLength":240,"target":34963},{"buffer":0,"byteOffset":111672,"byteLength":1248,"target":34962},{"buffer":0,"byteOffset":112920,"byteLength":1248,"target":34962},{"buffer":0,"byteOffset":114168,"byteLength":832,"target":34962},{"buffer":0,"byteOffset":115000,"byteLength":300,"target":34963},{"buffer":0,"byteOffset":115300,"byteLength":1728,"target":34962},{"buffer":0,"byteOffset":117028,"byteLength":1728,"target":34962},{"buffer":0,"byteOffset":118756,"byteLength":1152,"target":34962},{"buffer":0,"byteOffset":119908,"byteLength":432,"target":34963}],"buffers":[{"byteLength":120340,"uri":"timber_house.bin"}],"images":[{"name":"T_Plaster_Luma","uri":"../village/T_Plaster_Luma.png"},{"name":"T_RoundTiles_Luma","uri":"../village/T_RoundTiles_Luma.png"},{"name":"T_UnevenBrick_BaseColor","uri":"../village/T_UnevenBrick_BaseColor.png"},{"name":"T_WoodTrim_BaseColor","uri":"../village/T_WoodTrim_BaseColor.png"}],"materials":[{"doubleSided":true,"name":"Stone","pbrMetallicRoughness":{"baseColorFactor":[1.0,0.9974,0.9977,1.0],"baseColorTexture":{"index":2},"metallicFactor":0,"roughnessFactor":0.8500000238418579}},{"doubleSided":true,"name":"Wood_dark","pbrMetallicRoughness":{"baseColorFactor":[0.2329,0.2659,0.2944,1.0],"baseColorTexture":{"index":3},"metallicFactor":0,"roughnessFactor":0.8500000238418579}},{"doubleSided":true,"name":"Glass","pbrMetallicRoughness":{"baseColorFactor":[0.03310476616024971,0.05087608844041824,0.07828831672668457,1],"metallicFactor":0,"roughnessFactor":0.20000000298023224}},{"doubleSided":true,"name":"Iron","pbrMetallicRoughness":{"baseColorFactor":[0.0134117491543293,0.0134117491543293,0.015325203537940979,1],"metallicFactor":0,"roughnessFactor":0.5}},{"doubleSided":true,"emissiveFactor":[1,0.4479884207248688,0.10048151016235352],"name":"LampGlass","pbrMetallicRoughness":{"baseColorFactor":[1,0.5704815983772278,0.1473190039396286,1],"metallicFactor":0,"roughnessFactor":0.8500000238418579}},{"doubleSided":true,"name":"ShutterPaint","pbrMetallicRoughness":{"baseColorFactor":[0.16264718770980835,0.017389101907610893,0.0134117491543293,1],"metallicFactor":0,"roughnessFactor":0.699999988079071}},{"doubleSided":true,"name":"Leaf","pbrMetallicRoughness":{"baseColorFactor":[0.03310476616024971,0.11928018927574158,0.0134117491543293,1],"metallicFactor":0,"roughnessFactor":0.8999999761581421}},{"doubleSided":true,"name":"Cloth","pbrMetallicRoughness":{"baseColorFactor":[0.34239163994789124,0.03310476616024971,0.021980946883559227,1],"metallicFactor":0,"roughnessFactor":0.8999999761581421}},{"doubleSided":true,"name":"HousePlaster","pbrMetallicRoughness":{"baseColorFactor":[1.0,1.0,0.9092,1.0],"baseColorTexture":{"index":0},"metallicFactor":0,"roughnessFactor":0.8500000238418579}},{"doubleSided":true,"name":"HouseTiles","pbrMetallicRoughness":{"baseColorFactor":[0.3822,0.1486,0.0653,1.0],"baseColorTexture":{"index":1},"metallicFactor":0,"roughnessFactor":0.699999988079071}}],"meshes":[{"name":"Wall","primitives":[{"attributes":{"NORMAL":0,"POSITION":1,"TEXCOORD_0":2},"indices":3,"material":0},{"attributes":{"NORMAL":4,"POSITION":5,"TEXCOORD_0":6},"indices":7,"material":1},{"attributes":{"NORMAL":8,"POSITION":9},"indices":10,"material":2},{"attributes":{"NORMAL":11,"POSITION":12},"indices":13,"material":3},{"attributes":{"NORMAL":14,"POSITION":15},"indices":16,"material":4},{"attributes":{"NORMAL":17,"POSITION":18},"indices":19,"material":5},{"attributes":{"NORMAL":20,"POSITION":21},"indices":22,"material":6},{"attributes":{"NORMAL":23,"POSITION":24},"indices":25,"material":7},{"attributes":{"NORMAL":26,"POSITION":27,"TEXCOORD_0":28},"indices":29,"material":8},{"attributes":{"NORMAL":30,"POSITION":31,"TEXCOORD_0":32},"indices":33,"material":9}]}],"nodes":[{"mesh":0,"name":"timber_house"}],"scene":0,"scenes":[{"name":"Scene","nodes":[0]}],"textures":[{"source":0},{"source":1},{"source":2},{"source":3}]}