{"accessors":[{"bufferView":0,"componentType":5126,"count":252,"type":"VEC3"},{"bufferView":1,"componentType":5126,"count":252,"max":[1.0000003576278687,1.1247994899749756,1.1042530536651611],"min":[-1.0000003576278687,-0.10508717596530914,0.8979700207710266],"type":"VEC3"},{"bufferView":2,"componentType":5126,"count":252,"type":"VEC2"},{"bufferView":3,"componentType":5123,"count":396,"type":"SCALAR"},{"bufferView":4,"componentType":5126,"count":24,"type":"VEC3"},{"bufferView":5,"componentType":5126,"count":24,"max":[4.050000190734863,3.0199999809265137,0.5600000023841858],"min":[-4.050000190734863,2.859999895095825,0.3400000035762787],"type":"VEC3"},{"bufferView":6,"componentType":5126,"count":24,"type":"VEC2"},{"bufferView":7,"componentType":5123,"count":36,"type":"SCALAR"},{"bufferView":8,"componentType":5126,"count":24,"type":"VEC3"},{"bufferView":9,"componentType":5126,"count":24,"max":[0.10508709400892258,2.999999761581421,0.11982007324695587],"min":[-0.10508733242750168,-1.5052728485898115e-07,-0.11982005089521408],"type":"VEC3"},{"bufferView":10,"componentType":5126,"count":24,"type":"VEC2"},{"bufferView":11,"componentType":5123,"count":36,"type":"SCALAR"},{"bufferView":12,"componentType":5126,"count":744,"type":"VEC3"},{"bufferView":13,"componentType":5126,"count":744,"max":[1.0737497806549072,2.3513262271881104,0.06314271688461304],"min":[-0.04626310616731644,0.033089637756347656,-0.05755755677819252],"type":"VEC3"},{"bufferView":14,"componentType":5126,"count":744,"type":"VEC2"},{"bufferView":15,"componentType":5123,"count":1362,"type":"SCALAR"},{"bufferView":16,"componentType":5126,"count":28,"type":"VEC3"},{"bufferView":17,"componentType":5126,"count":28,"max":[0.8667700886726379,1.7624019384384155,0.0312458835542202],"min":[0.1617247760295868,1.3117259740829468,0.031245503574609756],"type":"VEC3"},{"bufferView":18,"componentType":5123,"count":48,"type":"SCALAR"},{"bufferView":19,"componentType":5126,"count":364,"type":"VEC3"},{"bufferView":20,"componentType":5126,"count":364,"max":[0.7034913897514343,2.5548486709594727,0.29893577098846436],"min":[-0.7034929394721985,-0.008544921875,-0.24002820253372192],"type":"VEC3"},{"bufferView":21,"componentType":5126,"count":364,"type":"VEC2"},{"bufferView":22,"componentType":5123,"count":960,"type":"SCALAR"},{"bufferView":23,"componentType":5126,"count":64,"type":"VEC3"},{"bufferView":24,"componentType":5126,"count":64,"max":[1,0.009999990463256836,1],"min":[-1,-0.010000384412705898,-1],"type":"VEC3"},{"bufferView":25,"componentType":5126,"count":64,"type":"VEC2"},{"bufferView":26,"componentType":5123,"count":96,"type":"SCALAR"},{"bufferView":27,"componentType":5126,"count":32,"type":"VEC3"},{"bufferView":28,"componentType":5126,"count":32,"max":[1,0.009999990463256836,2.9976021664879227e-15],"min":[-1,-0.010000384412705898,-1],"type":"VEC3"},{"bufferView":29,"componentType":5126,"count":32,"type":"VEC2"},{"bufferView":30,"componentType":5123,"count":48,"type":"SCALAR"},{"bufferView":31,"componentType":5126,"count":508,"type":"VEC3"},{"bufferView":32,"componentType":5126,"count":508,"max":[0.4383014738559723,3.177875280380249,0.47339576482772827],"min":[-0.4516017735004425,2.8398513793945312,-0.43134835362434387],"type":"VEC3"},{"bufferView":33,"componentType":5126,"count":508,"type":"VEC2"},{"bufferView":34,"componentType":5123,"count":1830,"type":"SCALAR"},{"bufferView":35,"componentType":5126,"count":16,"type":"VEC3"},{"bufferView":36,"componentType":5126,"count":16,"max":[0.4457784593105316,3,0.5000000596046448],"min":[-0.5000000596046448,5.960464477539063e-08,-0.5000000596046448],"type":"VEC3"},{"bufferView":37,"componentType":5126,"count":16,"type":"VEC2"},{"bufferView":38,"componentType":5123,"count":24,"type":"SCALAR"},{"bufferView":39,"componentType":5126,"count":590,"type":"VEC3"},{"bufferView":40,"componentType":5126,"count":590,"max":[1.796095609664917,2.4071543216705322,1.0531584024429321],"min":[-0.06625044345855713,0.029659956693649292,-1.0530269145965576],"type":"VEC3"},{"bufferView":41,"componentType":5126,"count":590,"type":"VEC2"},{"bufferView":42,"componentType":5123,"count":906,"type":"SCALAR"},{"bufferView":43,"componentType":5126,"count":40,"type":"VEC3"},{"bufferView":44,"componentType":5126,"count":40,"max":[1.6412353515625,2.1810436248779297,0.7208130359649658],"min":[0.20741745829582214,0.07360720634460449,-0.7227497696876526],"type":"VEC3"},{"bufferView":45,"componentType":5126,"count":40,"type":"VEC2"},{"bufferView":46,"componentType":5123,"count":96,"type":"SCALAR"},{"bufferView":47,"componentType":5126,"count":147,"type":"VEC3"},{"bufferView":48,"componentType":5126,"count":147,"max":[1.6450214385986328,1.0366252660751343,0.4369128346443176],"min":[1.6450212001800537,0.24898052215576172,-0.44097065925598145],"type":"VEC3"},{"bufferView":49,"componentType":5123,"count":219,"type":"SCALAR"},{"bufferView":50,"componentType":5126,"count":236,"type":"VEC3"},{"bufferView":51,"componentType":5126,"count":236,"max":[1.900120496749878,2.7272849082946777,1.219645380973816],"min":[-0.019477728754281998,0.9468854665756226,-1.2195141315460205],"type":"VEC3"},{"bufferView":52,"componentType":5126,"count":236,"type":"VEC2"},{"bufferView":53,"componentType":5123,"count":540,"type":"SCALAR"},{"bufferView":54,"componentType":5126,"count":600,"type":"VEC3"},{"bufferView":55,"componentType":5126,"count":600,"max":[4.256076812744141,5.269639492034912,0.794139564037323],"min":[-4.254717826843262,-0.13180209696292877,-0.33496370911598206],"type":"VEC3"},{"bufferView":56,"componentType":5126,"count":600,"type":"VEC2"},{"bufferView":57,"componentType":5123,"count":1056,"type":"SCALAR"},{"bufferView":58,"componentType":5126,"count":16,"type":"VEC3"},{"bufferView":59,"componentType":5126,"count":16,"max":[4.1627702713012695,5.314065933227539,1.6825651982799172e-11],"min":[-4.1627702713012695,0.019167065620422363,-0.24970084428787231],"type":"VEC3"},{"bufferView":60,"componentType":5126,"count":16,"type":"VEC2"},{"bufferView":61,"componentType":5123,"count":36,"type":"SCALAR"},{"bufferView":62,"componentType":5126,"count":1660,"type":"VEC3"},{"bufferView":63,"componentType":5126,"count":1660,"max":[4.9567179679870605,5.600559711456299,4.856163024902344],"min":[-4.9567179679870605,-0.7799561023712158,-4.856163024902344],"type":"VEC3"},{"bufferView":64,"componentType":5126,"count":1660,"type":"VEC2"},{"bufferView":65,"componentType":5123,"count":2574,"type":"SCALAR"},{"bufferView":66,"componentType":5126,"count":1722,"type":"VEC3"},{"bufferView":67,"componentType":5126,"count":1722,"max":[4.975997447967529,6.001367092132568,5.247446537017822],"min":[-4.975997447967529,-0.5717926621437073,-5.08474063873291],"type":"VEC3"},{"bufferView":68,"componentType":5126,"count":1722,"type":"VEC2"},{"bufferView":69,"componentType":5123,"count":4422,"type":"SCALAR"},{"bufferView":70,"componentType":5126,"count":124,"type":"VEC3"},{"bufferView":71,"componentType":5126,"count":124,"max":[0.09985005855560303,0.06566542387008667,0.7651262283325195],"min":[-0.09984996169805527,-0.6772639155387878,-1.62676236925563e-08],"type":"VEC3"},{"bufferView":72,"componentType":5126,"count":124,"type":"VEC2"},{"bufferView":73,"componentType":5123,"count":252,"type":"SCALAR"},{"bufferView":74,"componentType":5126,"count":124,"type":"VEC3"},{"bufferView":75,"componentType":5126,"count":124,"max":[1,3.1226887702941895,0.0924467146396637],"min":[-1.0000001192092896,0.6495776176452637,-0.3140353262424469],"type":"VEC3"},{"bufferView":76,"componentType":5126,"count":124,"type":"VEC2"},{"bufferView":77,"componentType":5123,"count":204,"type":"SCALAR"},{"bufferView":78,"componentType":5126,"count":69,"type":"VEC3"},{"bufferView":79,"componentType":5126,"count":69,"max":[1,3,1.3113417196564114e-07],"min":[-1,0,-0.2000000923871994],"type":"VEC3"},{"bufferView":80,"componentType":5126,"count":69,"type":"VEC2"},{"bufferView":81,"componentType":5123,"count":195,"type":"SCALAR"},{"bufferView":82,"componentType":5126,"count":8,"type":"VEC3"},{"bufferView":83,"componentType":5126,"count":8,"max":[1,0.9100615382194519,4.3711395392165286e-08],"min":[-1,0,0],"type":"VEC3"},{"bufferView":84,"componentType":5126,"count":8,"type":"VEC2"},{"bufferView":85,"componentType":5123,"count":12,"type":"SCALAR"},{"bufferView":86,"componentType":5126,"count":126,"type":"VEC3"},{"bufferView":87,"componentType":5126,"count":126,"max":[1,3.1226887702941895,0.0924467146396637],"min":[-1.0000001192092896,-0.0020958781242370605,-0.3140353262424469],"type":"VEC3"},{"bufferView":88,"componentType":5126,"count":126,"type":"VEC2"},{"bufferView":89,"componentType":5123,"count":240,"type":"SCALAR"},{"bufferView":90,"componentType":5126,"count":12,"type":"VEC3"},{"bufferView":91,"componentType":5126,"count":12,"max":[1,3,1.3113415775478643e-07],"min":[-1,0,-0.2000000923871994],"type":"VEC3"},{"bufferView":92,"componentType":5126,"count":12,"type":"VEC2"},{"bufferView":93,"componentType":5123,"count":18,"type":"SCALAR"},{"bufferView":94,"componentType":5126,"count":80,"type":"VEC3"},{"bufferView":95,"componentType":5126,"count":80,"max":[1,3.1226887702941895,0.0924467146396637],"min":[-1.0000001192092896,0.6495776176452637,-0.3140353262424469],"type":"VEC3"},{"bufferView":96,"componentType":5126,"count":80,"type":"VEC2"},{"bufferView":97,"componentType":5123,"count":174,"type":"SCALAR"},{"bufferView":98,"componentType":5126,"count":8,"type":"VEC3"},{"bufferView":99,"componentType":5126,"count":8,"max":[1,3,1.3113415775478643e-07],"min":[-1,0,-0.2000000923871994],"type":"VEC3"},{"bufferView":100,"componentType":5126,"count":8,"type":"VEC2"},{"bufferView":101,"componentType":5123,"count":12,"type":"SCALAR"},{"bufferView":102,"componentType":5126,"count":4,"type":"VEC3"},{"bufferView":103,"componentType":5126,"count":4,"max":[1,0.8799999952316284,4.371138828673793e-08],"min":[-1,0,0],"type":"VEC3"},{"bufferView":104,"componentType":5126,"count":4,"type":"VEC2"},{"bufferView":105,"componentType":5123,"count":6,"type":"SCALAR"},{"bufferView":106,"componentType":5126,"count":88,"type":"VEC3"},{"bufferView":107,"componentType":5126,"count":88,"max":[1,3,1.3113415775478643e-07],"min":[-1,0,-0.2000000923871994],"type":"VEC3"},{"bufferView":108,"componentType":5126,"count":88,"type":"VEC2"},{"bufferView":109,"componentType":5123,"count":264,"type":"SCALAR"},{"bufferView":110,"componentType":5126,"count":22,"type":"VEC3"},{"bufferView":111,"componentType":5126,"count":22,"max":[1,0.8799999952316284,4.371138828673793e-08],"min":[-1,0,0],"type":"VEC3"},{"bufferView":112,"componentType":5126,"count":22,"type":"VEC2"},{"bufferView":113,"componentType":5123,"count":60,"type":"SCALAR"},{"bufferView":114,"componentType":5126,"count":104,"type":"VEC3"},{"bufferView":115,"componentType":5126,"count":104,"max":[1,3.1226887702941895,0.0924467146396637],"min":[-1.0000001192092896,0.6495776176452637,-0.3140353262424469],"type":"VEC3"},{"bufferView":116,"componentType":5126,"count":104,"type":"VEC2"},{"bufferView":117,"componentType":5123,"count":174,"type":"SCALAR"},{"bufferView":118,"componentType":5126,"count":134,"type":"VEC3"},{"bufferView":119,"componentType":5126,"count":134,"max":[1,3.1226887702941895,0.0924467146396637],"min":[-1.0000001192092896,-0.023045778274536133,-0.3140353262424469],"type":"VEC3"},{"bufferView":120,"componentType":5126,"count":134,"type":"VEC2"},{"bufferView":121,"componentType":5123,"count":252,"type":"SCALAR"},{"bufferView":122,"componentType":5126,"count":40,"type":"VEC3"},{"bufferView":123,"componentType":5126,"count":40,"max":[1,3,1.3113415775478643e-07],"min":[-1,0,-0.2000000923871994],"type":"VEC3"},{"bufferView":124,"componentType":5126,"count":40,"type":"VEC2"},{"bufferView":125,"componentType":5123,"count":114,"type":"SCALAR"},{"bufferView":126,"componentType":5126,"count":32,"type":"VEC3"},{"bufferView":127,"componentType":5126,"count":32,"max":[1,3,1.3113417196564114e-07],"min":[-1,0,-0.2000000923871994],"type":"VEC3"},{"bufferView":128,"componentType":5126,"count":32,"type":"VEC2"},{"bufferView":129,"componentType":5123,"count":96,"type":"SCALAR"},{"bufferView":130,"componentType":5126,"count":8,"type":"VEC3"},{"bufferView":131,"componentType":5126,"count":8,"max":[1,0.8799999952316284,4.371138828673793e-08],"min":[-1,0,0],"type":"VEC3"},{"bufferView":132,"componentType":5126,"count":8,"type":"VEC2"},{"bufferView":133,"componentType":5123,"count":18,"type":"SCALAR"},{"bufferView":134,"componentType":5126,"count":80,"type":"VEC3"},{"bufferView":135,"componentType":5126,"count":80,"max":[1,3.1226887702941895,0.0924467146396637],"min":[-1.0000001192092896,0.6495776176452637,-0.3140353262424469],"type":"VEC3"},{"bufferView":136,"componentType":5126,"count":80,"type":"VEC2"},{"bufferView":137,"componentType":5126,"count":32,"type":"VEC3"},{"bufferView":138,"componentType":5126,"count":32,"max":[1,3,1.3113417196564114e-07],"min":[-1,0,-0.2000000923871994],"type":"VEC3"},{"bufferView":139,"componentType":5126,"count":32,"type":"VEC2"},{"bufferView":140,"componentType":5126,"count":8,"type":"VEC3"},{"bufferView":141,"componentType":5126,"count":8,"max":[1,0.8799999952316284,4.371138828673793e-08],"min":[-1,0,0],"type":"VEC3"},{"bufferView":142,"componentType":5126,"count":8,"type":"VEC2"},{"bufferView":143,"componentType":5126,"count":80,"type":"VEC3"},{"bufferView":144,"componentType":5126,"count":80,"max":[1,3.1226887702941895,0.0924467146396637],"min":[-1.0000001192092896,0.6495776176452637,-0.3140353262424469],"type":"VEC3"},{"bufferView":145,"componentType":5126,"count":80,"type":"VEC2"},{"bufferView":146,"componentType":5126,"count":402,"type":"VEC3"},{"bufferView":147,"componentType":5126,"count":402,"max":[0.44381028413772583,2.6207287311553955,0.0923665463924408],"min":[-0.44381028413772583,1.01604425907135,-0.2520223557949066],"type":"VEC3"},{"bufferView":148,"componentType":5126,"count":402,"type":"VEC2"},{"bufferView":149,"componentType":5123,"count":786,"type":"SCALAR"},{"bufferView":150,"componentType":5126,"count":83,"type":"VEC3"},{"bufferView":151,"componentType":5126,"count":83,"max":[0.277061402797699,2.478931427001953,0.003888234496116638],"min":[-0.27893951535224915,1.0875728130340576,0.0038879886269569397],"type":"VEC3"},{"bufferView":152,"componentType":5123,"count":153,"type":"SCALAR"},{"bufferView":153,"componentType":5126,"count":272,"type":"VEC3"},{"bufferView":154,"componentType":5126,"count":272,"max":[0.8041172027587891,2.5242888927459717,0.4168574810028076],"min":[-0.8041191101074219,0.94417804479599,-0.26658084988594055],"type":"VEC3"},{"bufferView":155,"componentType":5126,"count":272,"type":"VEC2"},{"bufferView":156,"componentType":5123,"count":408,"type":"SCALAR"},{"bufferView":157,"componentType":5126,"count":45,"type":"VEC3"},{"bufferView":158,"componentType":5126,"count":45,"max":[0.5054702758789062,2.355356216430664,0.003888234496116638],"min":[-0.5054721832275391,1.0971393585205078,0.0038878247141838074],"type":"VEC3"},{"bufferView":159,"componentType":5123,"count":72,"type":"SCALAR"},{"bufferView":160,"componentType":5126,"count":240,"type":"VEC3"},{"bufferView":161,"componentType":5126,"count":240,"max":[1.2418603897094727,2.51727557182312,0.5931743383407593],"min":[-1.2387090921401978,1.0932440757751465,0.13665564358234406],"type":"VEC3"},{"bufferView":162,"componentType":5126,"count":240,"type":"VEC2"},{"bufferView":163,"componentType":5123,"count":360,"type":"SCALAR"}],"asset":{"generator":"Khronos glTF Blender I/O v5.2.40","version":"2.0"},"bufferViews":[{"buffer":0,"byteOffset":0,"byteLength":3024,"target":34962},{"buffer":0,"byteOffset":3024,"byteLength":3024,"target":34962},{"buffer":0,"byteOffset":6048,"byteLength":2016,"target":34962},{"buffer":0,"byteOffset":8064,"byteLength":792,"target":34963},{"buffer":0,"byteOffset":8856,"byteLength":288,"target":34962},{"buffer":0,"byteOffset":9144,"byteLength":288,"target":34962},{"buffer":0,"byteOffset":9432,"byteLength":192,"target":34962},{"buffer":0,"byteOffset":9624,"byteLength":72,"target":34963},{"buffer":0,"byteOffset":9696,"byteLength":288,"target":34962},{"buffer":0,"byteOffset":9984,"byteLength":288,"target":34962},{"buffer":0,"byteOffset":10272,"byteLength":192,"target":34962},{"buffer":0,"byteOffset":10464,"byteLength":72,"target":34963},{"buffer":0,"byteOffset":10536,"byteLength":8928,"target":34962},{"buffer":0,"byteOffset":19464,"byteLength":8928,"target":34962},{"buffer":0,"byteOffset":28392,"byteLength":5952,"target":34962},{"buffer":0,"byteOffset":34344,"byteLength":2724,"target":34963},{"buffer":0,"byteOffset":37068,"byteLength":336,"target":34962},{"buffer":0,"byteOffset":37404,"byteLength":336,"target":34962},{"buffer":0,"byteOffset":37740,"byteLength":96,"target":34963},{"buffer":0,"byteOffset":37836,"byteLength":4368,"target":34962},{"buffer":0,"byteOffset":42204,"byteLength":4368,"target":34962},{"buffer":0,"byteOffset":46572,"byteLength":2912,"target":34962},{"buffer":0,"byteOffset":49484,"byteLength":1920,"target":34963},{"buffer":0,"byteOffset":51404,"byteLength":768,"target":34962},{"buffer":0,"byteOffset":52172,"byteLength":768,"target":34962},{"buffer":0,"byteOffset":52940,"byteLength":512,"target":34962},{"buffer":0,"byteOffset":53452,"byteLength":192,"target":34963},{"buffer":0,"byteOffset":53644,"byteLength":384,"target":34962},{"buffer":0,"byteOffset":54028,"byteLength":384,"target":34962},{"buffer":0,"byteOffset":54412,"byteLength":256,"target":34962},{"buffer":0,"byteOffset":54668,"byteLength":96,"target":34963},{"buffer":0,"byteOffset":54764,"byteLength":6096,"target":34962},{"buffer":0,"byteOffset":60860,"byteLength":6096,"target":34962},{"buffer":0,"byteOffset":66956,"byteLength":4064,"target":34962},{"buffer":0,"byteOffset":71020,"byteLength":3660,"target":34963},{"buffer":0,"byteOffset":74680,"byteLength":192,"target":34962},{"buffer":0,"byteOffset":74872,"byteLength":192,"target":34962},{"buffer":0,"byteOffset":75064,"byteLength":128,"target":34962},{"buffer":0,"byteOffset":75192,"byteLength":48,"target":34963},{"buffer":0,"byteOffset":75240,"byteLength":7080,"target":34962},{"buffer":0,"byteOffset":82320,"byteLength":7080,"target":34962},{"buffer":0,"byteOffset":89400,"byteLength":4720,"target":34962},{"buffer":0,"byteOffset":94120,"byteLength":1812,"target":34963},{"buffer":0,"byteOffset":95932,"byteLength":480,"target":34962},{"buffer":0,"byteOffset":96412,"byteLength":480,"target":34962},{"buffer":0,"byteOffset":96892,"byteLength":320,"target":34962},{"buffer":0,"byteOffset":97212,"byteLength":192,"target":34963},{"buffer":0,"byteOffset":97404,"byteLength":1764,"target":34962},{"buffer":0,"byteOffset":99168,"byteLength":1764,"target":34962},{"buffer":0,"byteOffset":100932,"byteLength":438,"target":34963},{"buffer":0,"byteOffset":101372,"byteLength":2832,"target":34962},{"buffer":0,"byteOffset":104204,"byteLength":2832,"target":34962},{"buffer":0,"byteOffset":107036,"byteLength":1888,"target":34962},{"buffer":0,"byteOffset":108924,"byteLength":1080,"target":34963},{"buffer":0,"byteOffset":110004,"byteLength":7200,"target":34962},{"buffer":0,"byteOffset":117204,"byteLength":7200,"target":34962},{"buffer":0,"byteOffset":124404,"byteLength":4800,"target":34962},{"buffer":0,"byteOffset":129204,"byteLength":2112,"target":34963},{"buffer":0,"byteOffset":131316,"byteLength":192,"target":34962},{"buffer":0,"byteOffset":131508,"byteLength":192,"target":34962},{"buffer":0,"byteOffset":131700,"byteLength":128,"target":34962},{"buffer":0,"byteOffset":131828,"byteLength":72,"target":34963},{"buffer":0,"byteOffset":131900,"byteLength":19920,"target":34962},{"buffer":0,"byteOffset":151820,"byteLength":19920,"target":34962},{"buffer":0,"byteOffset":171740,"byteLength":13280,"target":34962},{"buffer":0,"byteOffset":185020,"byteLength":5148,"target":34963},{"buffer":0,"byteOffset":190168,"byteLength":20664,"target":34962},{"buffer":0,"byteOffset":210832,"byteLength":20664,"target":34962},{"buffer":0,"byteOffset":231496,"byteLength":13776,"target":34962},{"buffer":0,"byteOffset":245272,"byteLength":8844,"target":34963},{"buffer":0,"byteOffset":254116,"byteLength":1488,"target":34962},{"buffer":0,"byteOffset":255604,"byteLength":1488,"target":34962},{"buffer":0,"byteOffset":257092,"byteLength":992,"target":34962},{"buffer":0,"byteOffset":258084,"byteLength":504,"target":34963},{"buffer":0,"byteOffset":258588,"byteLength":1488,"target":34962},{"buffer":0,"byteOffset":260076,"byteLength":1488,"target":34962},{"buffer":0,"byteOffset":261564,"byteLength":992,"target":34962},{"buffer":0,"byteOffset":262556,"byteLength":408,"target":34963},{"buffer":0,"byteOffset":262964,"byteLength":828,"target":34962},{"buffer":0,"byteOffset":263792,"byteLength":828,"target":34962},{"buffer":0,"byteOffset":264620,"byteLength":552,"target":34962},{"buffer":0,"byteOffset":265172,"byteLength":390,"target":34963},{"buffer":0,"byteOffset":265564,"byteLength":96,"target":34962},{"buffer":0,"byteOffset":265660,"byteLength":96,"target":34962},{"buffer":0,"byteOffset":265756,"byteLength":64,"target":34962},{"buffer":0,"byteOffset":265820,"byteLength":24,"target":34963},{"buffer":0,"byteOffset":265844,"byteLength":1512,"target":34962},{"buffer":0,"byteOffset":267356,"byteLength":1512,"target":34962},{"buffer":0,"byteOffset":268868,"byteLength":1008,"target":34962},{"buffer":0,"byteOffset":269876,"byteLength":480,"target":34963},{"buffer":0,"byteOffset":270356,"byteLength":144,"target":34962},{"buffer":0,"byteOffset":270500,"byteLength":144,"target":34962},{"buffer":0,"byteOffset":270644,"byteLength":96,"target":34962},{"buffer":0,"byteOffset":270740,"byteLength":36,"target":34963},{"buffer":0,"byteOffset":270776,"byteLength":960,"target":34962},{"buffer":0,"byteOffset":271736,"byteLength":960,"target":34962},{"buffer":0,"byteOffset":272696,"byteLength":640,"target":34962},{"buffer":0,"byteOffset":273336,"byteLength":348,"target":34963},{"buffer":0,"byteOffset":273684,"byteLength":96,"target":34962},{"buffer":0,"byteOffset":273780,"byteLength":96,"target":34962},{"buffer":0,"byteOffset":273876,"byteLength":64,"target":34962},{"buffer":0,"byteOffset":273940,"byteLength":24,"target":34963},{"buffer":0,"byteOffset":273964,"byteLength":48,"target":34962},{"buffer":0,"byteOffset":274012,"byteLength":48,"target":34962},{"buffer":0,"byteOffset":274060,"byteLength":32,"target":34962},{"buffer":0,"byteOffset":274092,"byteLength":12,"target":34963},{"buffer":0,"byteOffset":274104,"byteLength":1056,"target":34962},{"buffer":0,"byteOffset":275160,"byteLength":1056,"target":34962},{"buffer":0,"byteOffset":276216,"byteLength":704,"target":34962},{"buffer":0,"byteOffset":276920,"byteLength":528,"target":34963},{"buffer":0,"byteOffset":277448,"byteLength":264,"target":34962},{"buffer":0,"byteOffset":277712,"byteLength":264,"target":34962},{"buffer":0,"byteOffset":277976,"byteLength":176,"target":34962},{"buffer":0,"byteOffset":278152,"byteLength":120,"target":34963},{"buffer":0,"byteOffset":278272,"byteLength":1248,"target":34962},{"buffer":0,"byteOffset":279520,"byteLength":1248,"target":34962},{"buffer":0,"byteOffset":280768,"byteLength":832,"target":34962},{"buffer":0,"byteOffset":281600,"byteLength":348,"target":34963},{"buffer":0,"byteOffset":281948,"byteLength":1608,"target":34962},{"buffer":0,"byteOffset":283556,"byteLength":1608,"target":34962},{"buffer":0,"byteOffset":285164,"byteLength":1072,"target":34962},{"buffer":0,"byteOffset":286236,"byteLength":504,"target":34963},{"buffer":0,"byteOffset":286740,"byteLength":480,"target":34962},{"buffer":0,"byteOffset":287220,"byteLength":480,"target":34962},{"buffer":0,"byteOffset":287700,"byteLength":320,"target":34962},{"buffer":0,"byteOffset":288020,"byteLength":228,"target":34963},{"buffer":0,"byteOffset":288248,"byteLength":384,"target":34962},{"buffer":0,"byteOffset":288632,"byteLength":384,"target":34962},{"buffer":0,"byteOffset":289016,"byteLength":256,"target":34962},{"buffer":0,"byteOffset":289272,"byteLength":192,"target":34963},{"buffer":0,"byteOffset":289464,"byteLength":96,"target":34962},{"buffer":0,"byteOffset":289560,"byteLength":96,"target":34962},{"buffer":0,"byteOffset":289656,"byteLength":64,"target":34962},{"buffer":0,"byteOffset":289720,"byteLength":36,"target":34963},{"buffer":0,"byteOffset":289756,"byteLength":960,"target":34962},{"buffer":0,"byteOffset":290716,"byteLength":960,"target":34962},{"buffer":0,"byteOffset":291676,"byteLength":640,"target":34962},{"buffer":0,"byteOffset":292316,"byteLength":384,"target":34962},{"buffer":0,"byteOffset":292700,"byteLength":384,"target":34962},{"buffer":0,"byteOffset":293084,"byteLength":256,"target":34962},{"buffer":0,"byteOffset":293340,"byteLength":96,"target":34962},{"buffer":0,"byteOffset":293436,"byteLength":96,"target":34962},{"buffer":0,"byteOffset":293532,"byteLength":64,"target":34962},{"buffer":0,"byteOffset":293596,"byteLength":960,"target":34962},{"buffer":0,"byteOffset":294556,"byteLength":960,"target":34962},{"buffer":0,"byteOffset":295516,"byteLength":640,"target":34962},{"buffer":0,"byteOffset":296156,"byteLength":4824,"target":34962},{"buffer":0,"byteOffset":300980,"byteLength":4824,"target":34962},{"buffer":0,"byteOffset":305804,"byteLength":3216,"target":34962},{"buffer":0,"byteOffset":309020,"byteLength":1572,"target":34963},{"buffer":0,"byteOffset":310592,"byteLength":996,"target":34962},{"buffer":0,"byteOffset":311588,"byteLength":996,"target":34962},{"buffer":0,"byteOffset":312584,"byteLength":306,"target":34963},{"buffer":0,"byteOffset":312892,"byteLength":3264,"target":34962},{"buffer":0,"byteOffset":316156,"byteLength":3264,"target":34962},{"buffer":0,"byteOffset":319420,"byteLength":2176,"target":34962},{"buffer":0,"byteOffset":321596,"byteLength":816,"target":34963},{"buffer":0,"byteOffset":322412,"byteLength":540,"target":34962},{"buffer":0,"byteOffset":322952,"byteLength":540,"target":34962},{"buffer":0,"byteOffset":323492,"byteLength":144,"target":34963},{"buffer":0,"byteOffset":323636,"byteLength":2880,"target":34962},{"buffer":0,"byteOffset":326516,"byteLength":2880,"target":34962},{"buffer":0,"byteOffset":329396,"byteLength":1920,"target":34962},{"buffer":0,"byteOffset":331316,"byteLength":720,"target":34963}],"buffers":[{"byteLength":332036,"uri":"townhouse_balcony.bin"}],"images":[{"name":"T_Brick_BaseColor","uri":"../village/T_Brick_BaseColor.png"},{"name":"T_Plaster_Luma","uri":"../village/T_Plaster_Luma.png"},{"name":"T_RockTrim_BaseColor","uri":"../village/T_RockTrim_BaseColor.png"},{"name":"T_RoundTiles_Luma","uri":"../village/T_RoundTiles_Luma.png"},{"name":"T_WoodTrim_BaseColor","uri":"../village/T_WoodTrim_BaseColor.png"}],"materials":[{"doubleSided":true,"name":"Wood_mid","pbrMetallicRoughness":{"baseColorFactor":[0.5179,0.5489,0.5787,1.0],"baseColorTexture":{"index":4},"metallicFactor":0,"roughnessFactor":0.8500000238418579}},{"doubleSided":true,"name":"Glass","pbrMetallicRoughness":{"baseColorFactor":[0.03310476616024971,0.05087608844041824,0.07828831672668457,1],"metallicFactor":0,"roughnessFactor":0.20000000298023224}},{"doubleSided":true,"name":"RockTrim","pbrMetallicRoughness":{"baseColorFactor":[1.0,0.9979,1.0,1.0],"baseColorTexture":{"index":2},"metallicFactor":0,"roughnessFactor":0.8500000238418579}},{"doubleSided":true,"name":"Brick","pbrMetallicRoughness":{"baseColorFactor":[1.0,0.9974,1.0,1.0],"baseColorTexture":{"index":0},"metallicFactor":0,"roughnessFactor":0.8500000238418579}},{"doubleSided":true,"name":"Plaster_ochre","pbrMetallicRoughness":{"baseColorFactor":[0.863,0.4728,0.1434,1.0],"baseColorTexture":{"index":1},"metallicFactor":0,"roughnessFactor":0.8500000238418579}},{"doubleSided":true,"name":"Tiles_brown","pbrMetallicRoughness":{"baseColorFactor":[0.3822,0.1486,0.0653,1.0],"baseColorTexture":{"index":3},"metallicFactor":0,"roughnessFactor":0.699999988079071}}],"meshes":[{"name":"kit_Balcony_Cross_Straight","primitives":[{"attributes":{"NORMAL":0,"POSITION":1,"TEXCOORD_0":2},"indices":3,"material":0}]},{"name":"Beam","primitives":[{"attributes":{"NORMAL":4,"POSITION":5,"TEXCOORD_0":6},"indices":7,"material":0}]},{"name":"kit_Corner_Exterior_Wood","primitives":[{"attributes":{"NORMAL":8,"POSITION":9,"TEXCOORD_0":10},"indices":11,"material":0}]},{"name":"kit_Door_1_Round","primitives":[{"attributes":{"NORMAL":12,"POSITION":13,"TEXCOORD_0":14},"indices":15,"material":0},{"attributes":{"NORMAL":16,"POSITION":17},"indices":18,"material":1}]},{"name":"kit_DoorFrame_Round_WoodDark","primitives":[{"attributes":{"NORMAL":19,"POSITION":20,"TEXCOORD_0":21},"indices":22,"material":0}]},{"name":"kit_Floor_WoodDark","primitives":[{"attributes":{"NORMAL":23,"POSITION":24,"TEXCOORD_0":25},"indices":26,"material":0}]},{"name":"kit_Floor_WoodDark_Half3","primitives":[{"attributes":{"NORMAL":27,"POSITION":28,"TEXCOORD_0":29},"indices":30,"material":0}]},{"name":"kit_Prop_Chimney","primitives":[{"attributes":{"NORMAL":31,"POSITION":32,"TEXCOORD_0":33},"indices":34,"material":2},{"attributes":{"NORMAL":35,"POSITION":36,"TEXCOORD_0":37},"indices":38,"material":3}]},{"name":"kit_Roof_Dormer_RoundTile.001","primitives":[{"attributes":{"NORMAL":39,"POSITION":40,"TEXCOORD_0":41},"indices":42,"material":0},{"attributes":{"NORMAL":43,"POSITION":44,"TEXCOORD_0":45},"indices":46,"material":4},{"attributes":{"NORMAL":47,"POSITION":48},"indices":49,"material":1},{"attributes":{"NORMAL":50,"POSITION":51,"TEXCOORD_0":52},"indices":53,"material":5}]},{"name":"kit_Roof_Front_Brick8","primitives":[{"attributes":{"NORMAL":54,"POSITION":55,"TEXCOORD_0":56},"indices":57,"material":0},{"attributes":{"NORMAL":58,"POSITION":59,"TEXCOORD_0":60},"indices":61,"material":4}]},{"name":"kit_Roof_RoundTiles_8x8.001","primitives":[{"attributes":{"NORMAL":62,"POSITION":63,"TEXCOORD_0":64},"indices":65,"material":0},{"attributes":{"NORMAL":66,"POSITION":67,"TEXCOORD_0":68},"indices":69,"material":5}]},{"name":"kit_Roof_Support2","primitives":[{"attributes":{"NORMAL":70,"POSITION":71,"TEXCOORD_0":72},"indices":73,"material":0}]},{"name":"kit_Wall_Plaster_Door_Round","primitives":[{"attributes":{"NORMAL":74,"POSITION":75,"TEXCOORD_0":76},"indices":77,"material":0},{"attributes":{"NORMAL":78,"POSITION":79,"TEXCOORD_0":80},"indices":81,"material":4},{"attributes":{"NORMAL":82,"POSITION":83,"TEXCOORD_0":84},"indices":85,"material":2}]},{"name":"kit_Wall_Plaster_Straight.001","primitives":[{"attributes":{"NORMAL":86,"POSITION":87,"TEXCOORD_0":88},"indices":89,"material":0},{"attributes":{"NORMAL":90,"POSITION":91,"TEXCOORD_0":92},"indices":93,"material":4}]},{"name":"kit_Wall_Plaster_Straight_Base","primitives":[{"attributes":{"NORMAL":94,"POSITION":95,"TEXCOORD_0":96},"indices":97,"material":0},{"attributes":{"NORMAL":98,"POSITION":99,"TEXCOORD_0":100},"indices":101,"material":4},{"attributes":{"NORMAL":102,"POSITION":103,"TEXCOORD_0":104},"indices":105,"material":3}]},{"name":"kit_Wall_Plaster_Window_Thin_Round.001","primitives":[{"attributes":{"NORMAL":106,"POSITION":107,"TEXCOORD_0":108},"indices":109,"material":4},{"attributes":{"NORMAL":110,"POSITION":111,"TEXCOORD_0":112},"indices":113,"material":4},{"attributes":{"NORMAL":114,"POSITION":115,"TEXCOORD_0":116},"indices":117,"material":0}]},{"name":"kit_Wall_Plaster_Window_Wide_Flat2.001","primitives":[{"attributes":{"NORMAL":118,"POSITION":119,"TEXCOORD_0":120},"indices":121,"material":0},{"attributes":{"NORMAL":122,"POSITION":123,"TEXCOORD_0":124},"indices":125,"material":4}]},{"name":"kit_Wall_Plaster_Window_Wide_Flat.001","primitives":[{"attributes":{"NORMAL":126,"POSITION":127,"TEXCOORD_0":128},"indices":129,"material":4},{"attributes":{"NORMAL":130,"POSITION":131,"TEXCOORD_0":132},"indices":133,"material":4},{"attributes":{"NORMAL":134,"POSITION":135,"TEXCOORD_0":136},"indices":97,"material":0}]},{"name":"kit_Wall_Plaster_Window_Wide_Flat","primitives":[{"attributes":{"NORMAL":137,"POSITION":138,"TEXCOORD_0":139},"indices":129,"material":4},{"attributes":{"NORMAL":140,"POSITION":141,"TEXCOORD_0":142},"indices":133,"material":3},{"attributes":{"NORMAL":143,"POSITION":144,"TEXCOORD_0":145},"indices":97,"material":0}]},{"name":"kit_Window_Thin_Round1.001","primitives":[{"attributes":{"NORMAL":146,"POSITION":147,"TEXCOORD_0":148},"indices":149,"material":0},{"attributes":{"NORMAL":150,"POSITION":151},"indices":152,"material":1}]},{"name":"kit_Window_Wide_Flat1","primitives":[{"attributes":{"NORMAL":153,"POSITION":154,"TEXCOORD_0":155},"indices":156,"material":0},{"attributes":{"NORMAL":157,"POSITION":158},"indices":159,"material":1}]},{"name":"kit_WindowShutters_Wide_Flat_Open","primitives":[{"attributes":{"NORMAL":160,"POSITION":161,"TEXCOORD_0":162},"indices":163,"material":0}]}],"nodes":[{"mesh":0,"name":"Balcony_Cross_Straight.073","translation":[-1,3.0199999809265137,0.4000000059604645]},{"mesh":0,"name":"Balcony_Cross_Straight.075","translation":[1,3.0199999809265137,0.4000000059604645]},{"mesh":1,"name":"Beam.043"},{"mesh":2,"name":"Corner_Exterior_Wood.029","translation":[-4,0,0]},{"mesh":2,"name":"Corner_Exterior_Wood.030","translation":[4,0,0]},{"mesh":2,"name":"Corner_Exterior_Wood.031","translation":[-4,0,-8]},{"mesh":2,"name":"Corner_Exterior_Wood.032","translation":[4,0,-8]},{"mesh":2,"name":"Corner_Exterior_Wood.068","translation":[-4,3,0.5]},{"mesh":2,"name":"Corner_Exterior_Wood.069","translation":[4,3,0.5]},{"mesh":2,"name":"Corner_Exterior_Wood.070","translation":[-4,3,-8]},{"mesh":2,"name":"Corner_Exterior_Wood.071","translation":[4,3,-8]},{"mesh":3,"name":"Door_1_Round.007","translation":[0.44999998807907104,0,-0.019999999552965164]},{"mesh":4,"name":"DoorFrame_Round_WoodDark.006","translation":[1,0,0]},{"mesh":5,"name":"Floor_WoodDark.039","scale":[1,1,0.30000001192092896],"translation":[-3,2.9700000286102295,0.25]},{"mesh":5,"name":"Floor_WoodDark.040","scale":[1,1,0.30000001192092896],"translation":[-1,2.9700000286102295,0.25]},{"mesh":5,"name":"Floor_WoodDark.041","scale":[1,1,0.30000001192092896],"translation":[1,2.9700000286102295,0.25]},{"mesh":5,"name":"Floor_WoodDark.042","scale":[1,1,0.30000001192092896],"translation":[3,2.9700000286102295,0.25]},{"mesh":6,"name":"Floor_WoodDark_Half3.072","rotation":[0,-1,0,4.371138828673793e-08],"translation":[-1,3.0299999713897705,0.5]},{"mesh":6,"name":"Floor_WoodDark_Half3.074","rotation":[0,-1,0,4.371138828673793e-08],"translation":[1,3.0299999713897705,0.5]},{"mesh":7,"name":"Prop_Chimney.084","translation":[2.5999999046325684,6.794145107269287,-6.400000095367432]},{"mesh":8,"name":"Roof_Dormer_RoundTile.082","rotation":[0,-0.7071068286895752,0,0.7071068286895752],"translation":[-2,6.451110363006592,-0.10000002384185791]},{"mesh":8,"name":"Roof_Dormer_RoundTile.083","rotation":[0,-0.7071068286895752,0,0.7071068286895752],"translation":[2,6.474673748016357,-0.10000002384185791]},{"mesh":9,"name":"Roof_Front_Brick8.080","rotation":[0,-0.7071068286895752,0,0.7071068286895752],"scale":[1.0625,1,1],"translation":[-4,6.119999885559082,-3.75]},{"mesh":9,"name":"Roof_Front_Brick8.081","rotation":[0,0.7071068286895752,0,0.7071068286895752],"scale":[1.0625,1,1],"translation":[4,6.119999885559082,-3.75]},{"mesh":10,"name":"Roof_RoundTiles_8x8.079","rotation":[0,-0.7071068286895752,0,0.7071068286895752],"scale":[1.0625,1,1],"translation":[0,6.119999885559082,-3.75]},{"mesh":11,"name":"Roof_Support2.033","scale":[1,1,0.7246376872062683],"translation":[-3.9000000953674316,3.0199999809265137,0.09000000357627869]},{"mesh":11,"name":"Roof_Support2.034","scale":[1,1,0.7246376872062683],"translation":[-2.3399999141693115,3.0199999809265137,0.09000000357627869]},{"mesh":11,"name":"Roof_Support2.035","scale":[1,1,0.7246376872062683],"translation":[-0.7799999713897705,3.0199999809265137,0.09000000357627869]},{"mesh":11,"name":"Roof_Support2.036","scale":[1,1,0.7246376872062683],"translation":[0.7799999713897705,3.0199999809265137,0.09000000357627869]},{"mesh":11,"name":"Roof_Support2.037","scale":[1,1,0.7246376872062683],"translation":[2.3399999141693115,3.0199999809265137,0.09000000357627869]},{"mesh":11,"name":"Roof_Support2.038","scale":[1,1,0.7246376872062683],"translation":[3.9000000953674316,3.0199999809265137,0.09000000357627869]},{"mesh":11,"name":"Roof_Support2.076","scale":[1.2000000476837158,1.2000000476837158,1.25],"translation":[-1.899999976158142,3.0199999809265137,0.550000011920929]},{"mesh":11,"name":"Roof_Support2.077","scale":[1.2000000476837158,1.2000000476837158,1.25],"translation":[0,3.0199999809265137,0.550000011920929]},{"mesh":11,"name":"Roof_Support2.078","scale":[1.2000000476837158,1.2000000476837158,1.25],"translation":[1.899999976158142,3.0199999809265137,0.550000011920929]},{"mesh":12,"name":"Wall_Plaster_Door_Round.005","translation":[1,0,0]},{"mesh":13,"name":"Wall_Plaster_Straight+upper.052","rotation":[0,-1,0,4.371138828673793e-08],"translation":[3,3,-8]},{"mesh":13,"name":"Wall_Plaster_Straight+upper.057","rotation":[0,-1,0,4.371138828673793e-08],"translation":[-3,3,-8]},{"mesh":13,"name":"Wall_Plaster_Straight+upper.058","rotation":[0,-0.7071068286895752,0,0.7071068286895752],"scale":[1.0625,1,1],"translation":[-4,3,-6.9375]},{"mesh":13,"name":"Wall_Plaster_Straight+upper.061","rotation":[0,-0.7071068286895752,0,0.7071068286895752],"scale":[1.0625,1,1],"translation":[-4,3,-2.6875]},{"mesh":13,"name":"Wall_Plaster_Straight+upper.062","rotation":[0,-0.7071068286895752,0,0.7071068286895752],"scale":[1.0625,1,1],"translation":[-4,3,-0.5625]},{"mesh":13,"name":"Wall_Plaster_Straight+upper.063","rotation":[0,0.7071068286895752,0,0.7071068286895752],"scale":[1.0625,1,1],"translation":[4,3,-0.5625]},{"mesh":13,"name":"Wall_Plaster_Straight+upper.064","rotation":[0,0.7071068286895752,0,0.7071068286895752],"scale":[1.0625,1,1],"translation":[4,3,-2.6875]},{"mesh":13,"name":"Wall_Plaster_Straight+upper.067","rotation":[0,0.7071068286895752,0,0.7071068286895752],"scale":[1.0625,1,1],"translation":[4,3,-6.9375]},{"mesh":14,"name":"Wall_Plaster_Straight_Base.004","translation":[-1,0,0]},{"mesh":14,"name":"Wall_Plaster_Straight_Base.011","rotation":[0,-1,0,4.371138828673793e-08],"translation":[3,0,-8]},{"mesh":14,"name":"Wall_Plaster_Straight_Base.016","rotation":[0,-1,0,4.371138828673793e-08],"translation":[-3,0,-8]},{"mesh":14,"name":"Wall_Plaster_Straight_Base.017","rotation":[0,-0.7071068286895752,0,0.7071068286895752],"translation":[-4,0,-7]},{"mesh":14,"name":"Wall_Plaster_Straight_Base.021","rotation":[0,-0.7071068286895752,0,0.7071068286895752],"translation":[-4,0,-3]},{"mesh":14,"name":"Wall_Plaster_Straight_Base.022","rotation":[0,-0.7071068286895752,0,0.7071068286895752],"translation":[-4,0,-1]},{"mesh":14,"name":"Wall_Plaster_Straight_Base.023","rotation":[0,0.7071068286895752,0,0.7071068286895752],"translation":[4,0,-1]},{"mesh":14,"name":"Wall_Plaster_Straight_Base.024","rotation":[0,0.7071068286895752,0,0.7071068286895752],"translation":[4,0,-3]},{"mesh":14,"name":"Wall_Plaster_Straight_Base.028","rotation":[0,0.7071068286895752,0,0.7071068286895752],"translation":[4,0,-7]},{"mesh":15,"name":"Wall_Plaster_Window_Thin_Round+upper.044","translation":[-3,3,0.5]},{"mesh":15,"name":"Wall_Plaster_Window_Thin_Round+upper.050","translation":[3,3,0.5]},{"mesh":16,"name":"Wall_Plaster_Window_Wide_Flat2+upper.046","translation":[-1,3,0.5]},{"mesh":16,"name":"Wall_Plaster_Window_Wide_Flat2+upper.048","translation":[1,3,0.5]},{"mesh":17,"name":"Wall_Plaster_Window_Wide_Flat+upper.053","rotation":[0,-1,0,4.371138828673793e-08],"translation":[1,3,-8]},{"mesh":17,"name":"Wall_Plaster_Window_Wide_Flat+upper.055","rotation":[0,-1,0,4.371138828673793e-08],"translation":[-1,3,-8]},{"mesh":17,"name":"Wall_Plaster_Window_Wide_Flat+upper.059","rotation":[0,-0.7071068286895752,0,0.7071068286895752],"scale":[1.0625,1,1],"translation":[-4,3,-4.8125]},{"mesh":17,"name":"Wall_Plaster_Window_Wide_Flat+upper.065","rotation":[0,0.7071068286895752,0,0.7071068286895752],"scale":[1.0625,1,1],"translation":[4,3,-4.8125]},{"mesh":18,"name":"Wall_Plaster_Window_Wide_Flat.001","translation":[-3,0,0]},{"mesh":18,"name":"Wall_Plaster_Window_Wide_Flat.008","translation":[3,0,0]},{"mesh":18,"name":"Wall_Plaster_Window_Wide_Flat.012","rotation":[0,-1,0,4.371138828673793e-08],"translation":[1,0,-8]},{"mesh":18,"name":"Wall_Plaster_Window_Wide_Flat.014","rotation":[0,-1,0,4.371138828673793e-08],"translation":[-1,0,-8]},{"mesh":18,"name":"Wall_Plaster_Window_Wide_Flat.018","rotation":[0,-0.7071068286895752,0,0.7071068286895752],"translation":[-4,0,-5]},{"mesh":18,"name":"Wall_Plaster_Window_Wide_Flat.025","rotation":[0,0.7071068286895752,0,0.7071068286895752],"translation":[4,0,-5]},{"mesh":19,"name":"Window_Thin_Round1.045","translation":[-3,3,0.5]},{"mesh":19,"name":"Window_Thin_Round1.051","translation":[3,3,0.5]},{"mesh":20,"name":"Window_Wide_Flat1.002","translation":[-3,0,0]},{"mesh":20,"name":"Window_Wide_Flat1.009","translation":[3,0,0]},{"mesh":20,"name":"Window_Wide_Flat1.013","rotation":[0,-1,0,4.371138828673793e-08],"translation":[1,0,-8]},{"mesh":20,"name":"Window_Wide_Flat1.015","rotation":[0,-1,0,4.371138828673793e-08],"translation":[-1,0,-8]},{"mesh":20,"name":"Window_Wide_Flat1.019","rotation":[0,-0.7071068286895752,0,0.7071068286895752],"translation":[-4,0,-5]},{"mesh":20,"name":"Window_Wide_Flat1.026","rotation":[0,0.7071068286895752,0,0.7071068286895752],"translation":[4,0,-5]},{"mesh":20,"name":"Window_Wide_Flat1.047","translation":[-1,3,0.5]},{"mesh":20,"name":"Window_Wide_Flat1.049","translation":[1,3,0.5]},{"mesh":20,"name":"Window_Wide_Flat1.054","rotation":[0,-1,0,4.371138828673793e-08],"translation":[1,3,-8]},{"mesh":20,"name":"Window_Wide_Flat1.056","rotation":[0,-1,0,4.371138828673793e-08],"translation":[-1,3,-8]},{"mesh":20,"name":"Window_Wide_Flat1.060","rotation":[0,-0.7071068286895752,0,0.7071068286895752],"scale":[1.0625,1,1],"translation":[-4,3,-4.8125]},{"mesh":20,"name":"Window_Wide_Flat1.066","rotation":[0,0.7071068286895752,0,0.7071068286895752],"scale":[1.0625,1,1],"translation":[4,3,-4.8125]},{"mesh":21,"name":"WindowShutters_Wide_Flat_Open.003","translation":[-3,0,0]},{"mesh":21,"name":"WindowShutters_Wide_Flat_Open.010","translation":[3,0,0]},{"mesh":21,"name":"WindowShutters_Wide_Flat_Open.020","rotation":[0,-0.7071068286895752,0,0.7071068286895752],"translation":[-4,0,-5]},{"mesh":21,"name":"WindowShutters_Wide_Flat_Open.027","rotation":[0,0.7071068286895752,0,0.7071068286895752],"translation":[4,0,-5]}],"scene":0,"scenes":[{"name":"Scene","nodes":[0,1,2,3,4,5,6,7,8,9,10,11,12,13,14,15,16,17,18,19,20,21,22,23,24,25,26,27,28,29,30,31,32,33,34,35,36,37,38,39,40,41,42,43,44,45,46,47,48,49,50,51,52,53,54,55,56,57,58,59,60,61,62,63,64,65,66,67,68,69,70,71,72,73,74,75,76,77,78,79,80,81,82,83]}],"textures":[{"source":0},{"source":1},{"source":2},{"source":3},{"source":4}]}