{"accessors":[{"bufferView":0,"componentType":5126,"count":24,"max":[3.049999952316284,3.0199999809265137,0.6600000262260437],"min":[-3.049999952316284,2.859999895095825,0.4399999976158142],"type":"VEC3"},{"bufferView":1,"componentType":5126,"count":24,"type":"VEC3"},{"bufferView":2,"componentType":5126,"count":24,"type":"VEC2"},{"bufferView":3,"componentType":5123,"count":36,"type":"SCALAR"},{"bufferView":4,"componentType":5126,"count":24,"max":[3.049999952316284,6.019999980926514,1.2599999904632568],"min":[-3.049999952316284,5.860000133514404,1.0399999618530273],"type":"VEC3"},{"bufferView":5,"componentType":5126,"count":24,"type":"VEC3"},{"bufferView":6,"componentType":5126,"count":24,"type":"VEC2"},{"bufferView":7,"componentType":5126,"count":24,"max":[0.10508709400892258,2.999999761581421,0.11982007324695587],"min":[-0.10508733242750168,-1.5052728485898115e-07,-0.11982005089521408],"type":"VEC3"},{"bufferView":8,"componentType":5126,"count":24,"type":"VEC3"},{"bufferView":9,"componentType":5126,"count":24,"type":"VEC2"},{"bufferView":10,"componentType":5123,"count":36,"type":"SCALAR"},{"bufferView":11,"componentType":5126,"count":744,"max":[1.0737497806549072,2.3513262271881104,0.06314271688461304],"min":[-0.04626310616731644,0.033089637756347656,-0.05755755677819252],"type":"VEC3"},{"bufferView":12,"componentType":5126,"count":744,"type":"VEC3"},{"bufferView":13,"componentType":5126,"count":744,"type":"VEC2"},{"bufferView":14,"componentType":5123,"count":1362,"type":"SCALAR"},{"bufferView":15,"componentType":5126,"count":28,"max":[0.8667700886726379,1.7624019384384155,0.0312458835542202],"min":[0.1617247760295868,1.3117259740829468,0.031245503574609756],"type":"VEC3"},{"bufferView":16,"componentType":5126,"count":28,"type":"VEC3"},{"bufferView":17,"componentType":5126,"count":28,"type":"VEC2"},{"bufferView":18,"componentType":5123,"count":48,"type":"SCALAR"},{"bufferView":19,"componentType":5126,"count":364,"max":[0.7034913897514343,2.5548486709594727,0.29893577098846436],"min":[-0.7034929394721985,-0.008544921875,-0.24002820253372192],"type":"VEC3"},{"bufferView":20,"componentType":5126,"count":364,"type":"VEC3"},{"bufferView":21,"componentType":5126,"count":364,"type":"VEC2"},{"bufferView":22,"componentType":5123,"count":960,"type":"SCALAR"},{"bufferView":23,"componentType":5126,"count":64,"max":[1,0.009999990463256836,1],"min":[-1,-0.010000384412705898,-1],"type":"VEC3"},{"bufferView":24,"componentType":5126,"count":64,"type":"VEC3"},{"bufferView":25,"componentType":5126,"count":64,"type":"VEC2"},{"bufferView":26,"componentType":5123,"count":96,"type":"SCALAR"},{"bufferView":27,"componentType":5126,"count":508,"max":[0.4383014738559723,3.177875280380249,0.47339576482772827],"min":[-0.4516017735004425,2.8398513793945312,-0.43134835362434387],"type":"VEC3"},{"bufferView":28,"componentType":5126,"count":508,"type":"VEC3"},{"bufferView":29,"componentType":5126,"count":508,"type":"VEC2"},{"bufferView":30,"componentType":5123,"count":1830,"type":"SCALAR"},{"bufferView":31,"componentType":5126,"count":16,"max":[0.4457784593105316,3,0.5000000596046448],"min":[-0.5000000596046448,5.960464477539063e-08,-0.5000000596046448],"type":"VEC3"},{"bufferView":32,"componentType":5126,"count":16,"type":"VEC3"},{"bufferView":33,"componentType":5126,"count":16,"type":"VEC2"},{"bufferView":34,"componentType":5123,"count":24,"type":"SCALAR"},{"bufferView":35,"componentType":5126,"count":504,"max":[3.347877264022827,4.383981704711914,0.7941403388977051],"min":[-3.346518039703369,-0.13180209696292877,-0.33496367931365967],"type":"VEC3"},{"bufferView":36,"componentType":5126,"count":504,"type":"VEC3"},{"bufferView":37,"componentType":5126,"count":504,"type":"VEC2"},{"bufferView":38,"componentType":5123,"count":936,"type":"SCALAR"},{"bufferView":39,"componentType":5126,"count":20,"max":[3.1225504875183105,4.377229690551758,1.375610736431554e-11],"min":[-3.1225504875183105,0.019167041406035423,-0.24970144033432007],"type":"VEC3"},{"bufferView":40,"componentType":5126,"count":20,"type":"VEC3"},{"bufferView":41,"componentType":5126,"count":20,"type":"VEC2"},{"bufferView":42,"componentType":5123,"count":48,"type":"SCALAR"},{"bufferView":43,"componentType":5126,"count":1608,"max":[3.958951234817505,4.342607498168945,5.828753471374512],"min":[-3.958951234817505,-0.7821269035339355,-5.828753471374512],"type":"VEC3"},{"bufferView":44,"componentType":5126,"count":1608,"type":"VEC3"},{"bufferView":45,"componentType":5126,"count":1608,"type":"VEC2"},{"bufferView":46,"componentType":5123,"count":2616,"type":"SCALAR"},{"bufferView":47,"componentType":5126,"count":1929,"max":[4.124891757965088,4.890044689178467,5.954605579376221],"min":[-4.124891757965088,-0.6384454965591431,-5.897581100463867],"type":"VEC3"},{"bufferView":48,"componentType":5126,"count":1929,"type":"VEC3"},{"bufferView":49,"componentType":5126,"count":1929,"type":"VEC2"},{"bufferView":50,"componentType":5123,"count":5124,"type":"SCALAR"},{"bufferView":51,"componentType":5126,"count":124,"max":[0.09985005855560303,0.06566542387008667,0.7651262283325195],"min":[-0.09984996169805527,-0.6772639155387878,-1.62676236925563e-08],"type":"VEC3"},{"bufferView":52,"componentType":5126,"count":124,"type":"VEC3"},{"bufferView":53,"componentType":5126,"count":124,"type":"VEC2"},{"bufferView":54,"componentType":5123,"count":252,"type":"SCALAR"},{"bufferView":55,"componentType":5126,"count":124,"max":[1,3.1226887702941895,0.0924467146396637],"min":[-1.0000001192092896,0.6495776176452637,-0.3140353262424469],"type":"VEC3"},{"bufferView":56,"componentType":5126,"count":124,"type":"VEC3"},{"bufferView":57,"componentType":5126,"count":124,"type":"VEC2"},{"bufferView":58,"componentType":5123,"count":204,"type":"SCALAR"},{"bufferView":59,"componentType":5126,"count":69,"max":[1,3,1.3113417196564114e-07],"min":[-1,0,-0.2000000923871994],"type":"VEC3"},{"bufferView":60,"componentType":5126,"count":69,"type":"VEC3"},{"bufferView":61,"componentType":5126,"count":69,"type":"VEC2"},{"bufferView":62,"componentType":5123,"count":195,"type":"SCALAR"},{"bufferView":63,"componentType":5126,"count":8,"max":[1,0.9100615382194519,4.3711395392165286e-08],"min":[-1,0,0],"type":"VEC3"},{"bufferView":64,"componentType":5126,"count":8,"type":"VEC3"},{"bufferView":65,"componentType":5126,"count":8,"type":"VEC2"},{"bufferView":66,"componentType":5123,"count":12,"type":"SCALAR"},{"bufferView":67,"componentType":5126,"count":126,"max":[1,3.1226887702941895,0.0924467146396637],"min":[-1.0000001192092896,-0.0020958781242370605,-0.3140353262424469],"type":"VEC3"},{"bufferView":68,"componentType":5126,"count":126,"type":"VEC3"},{"bufferView":69,"componentType":5126,"count":126,"type":"VEC2"},{"bufferView":70,"componentType":5123,"count":240,"type":"SCALAR"},{"bufferView":71,"componentType":5126,"count":12,"max":[1,3,1.3113415775478643e-07],"min":[-1,0,-0.2000000923871994],"type":"VEC3"},{"bufferView":72,"componentType":5126,"count":12,"type":"VEC3"},{"bufferView":73,"componentType":5126,"count":12,"type":"VEC2"},{"bufferView":74,"componentType":5123,"count":18,"type":"SCALAR"},{"bufferView":75,"componentType":5126,"count":80,"max":[1,3.1226887702941895,0.0924467146396637],"min":[-1.0000001192092896,0.6495776176452637,-0.3140353262424469],"type":"VEC3"},{"bufferView":76,"componentType":5126,"count":80,"type":"VEC3"},{"bufferView":77,"componentType":5126,"count":80,"type":"VEC2"},{"bufferView":78,"componentType":5123,"count":174,"type":"SCALAR"},{"bufferView":79,"componentType":5126,"count":8,"max":[1,3,1.3113415775478643e-07],"min":[-1,0,-0.2000000923871994],"type":"VEC3"},{"bufferView":80,"componentType":5126,"count":8,"type":"VEC3"},{"bufferView":81,"componentType":5126,"count":8,"type":"VEC2"},{"bufferView":82,"componentType":5123,"count":12,"type":"SCALAR"},{"bufferView":83,"componentType":5126,"count":4,"max":[1,0.8799999952316284,4.371138828673793e-08],"min":[-1,0,0],"type":"VEC3"},{"bufferView":84,"componentType":5126,"count":4,"type":"VEC3"},{"bufferView":85,"componentType":5126,"count":4,"type":"VEC2"},{"bufferView":86,"componentType":5123,"count":6,"type":"SCALAR"},{"bufferView":87,"componentType":5126,"count":96,"max":[1.0017778873443604,3.1226887702941895,0.0924467146396637],"min":[-1.0000001192092896,0.6495776176452637,-0.3140353262424469],"type":"VEC3"},{"bufferView":88,"componentType":5126,"count":96,"type":"VEC3"},{"bufferView":89,"componentType":5126,"count":96,"type":"VEC2"},{"bufferView":90,"componentType":5123,"count":198,"type":"SCALAR"},{"bufferView":91,"componentType":5126,"count":8,"max":[1,3,1.3113415775478643e-07],"min":[-1,0,-0.2000000923871994],"type":"VEC3"},{"bufferView":92,"componentType":5126,"count":8,"type":"VEC3"},{"bufferView":93,"componentType":5126,"count":8,"type":"VEC2"},{"bufferView":94,"componentType":5126,"count":4,"max":[1,0.8799999952316284,4.371138828673793e-08],"min":[-1,0,0],"type":"VEC3"},{"bufferView":95,"componentType":5126,"count":4,"type":"VEC3"},{"bufferView":96,"componentType":5126,"count":4,"type":"VEC2"},{"bufferView":97,"componentType":5126,"count":96,"max":[1,3.1226887702941895,0.0924467146396637],"min":[-1.0017778873443604,0.6495776176452637,-0.3140353262424469],"type":"VEC3"},{"bufferView":98,"componentType":5126,"count":96,"type":"VEC3"},{"bufferView":99,"componentType":5126,"count":96,"type":"VEC2"},{"bufferView":100,"componentType":5123,"count":198,"type":"SCALAR"},{"bufferView":101,"componentType":5126,"count":8,"max":[1,3,1.3113415775478643e-07],"min":[-1,0,-0.2000000923871994],"type":"VEC3"},{"bufferView":102,"componentType":5126,"count":8,"type":"VEC3"},{"bufferView":103,"componentType":5126,"count":8,"type":"VEC2"},{"bufferView":104,"componentType":5126,"count":4,"max":[1,0.8799999952316284,4.371138828673793e-08],"min":[-1,0,0],"type":"VEC3"},{"bufferView":105,"componentType":5126,"count":4,"type":"VEC3"},{"bufferView":106,"componentType":5126,"count":4,"type":"VEC2"},{"bufferView":107,"componentType":5126,"count":88,"max":[1,3,1.3113415775478643e-07],"min":[-1,0,-0.2000000923871994],"type":"VEC3"},{"bufferView":108,"componentType":5126,"count":88,"type":"VEC3"},{"bufferView":109,"componentType":5126,"count":88,"type":"VEC2"},{"bufferView":110,"componentType":5123,"count":264,"type":"SCALAR"},{"bufferView":111,"componentType":5126,"count":22,"max":[1,0.8799999952316284,4.371138828673793e-08],"min":[-1,0,0],"type":"VEC3"},{"bufferView":112,"componentType":5126,"count":22,"type":"VEC3"},{"bufferView":113,"componentType":5126,"count":22,"type":"VEC2"},{"bufferView":114,"componentType":5123,"count":60,"type":"SCALAR"},{"bufferView":115,"componentType":5126,"count":104,"max":[1,3.1226887702941895,0.0924467146396637],"min":[-1.0000001192092896,0.6495776176452637,-0.3140353262424469],"type":"VEC3"},{"bufferView":116,"componentType":5126,"count":104,"type":"VEC3"},{"bufferView":117,"componentType":5126,"count":104,"type":"VEC2"},{"bufferView":118,"componentType":5123,"count":174,"type":"SCALAR"},{"bufferView":119,"componentType":5126,"count":134,"max":[1,3.1226887702941895,0.0924467146396637],"min":[-1.0000001192092896,-0.023045778274536133,-0.3140353262424469],"type":"VEC3"},{"bufferView":120,"componentType":5126,"count":134,"type":"VEC3"},{"bufferView":121,"componentType":5126,"count":134,"type":"VEC2"},{"bufferView":122,"componentType":5123,"count":252,"type":"SCALAR"},{"bufferView":123,"componentType":5126,"count":40,"max":[1,3,1.3113415775478643e-07],"min":[-1,0,-0.2000000923871994],"type":"VEC3"},{"bufferView":124,"componentType":5126,"count":40,"type":"VEC3"},{"bufferView":125,"componentType":5126,"count":40,"type":"VEC2"},{"bufferView":126,"componentType":5123,"count":114,"type":"SCALAR"},{"bufferView":127,"componentType":5126,"count":32,"max":[1,3,1.3113417196564114e-07],"min":[-1,0,-0.2000000923871994],"type":"VEC3"},{"bufferView":128,"componentType":5126,"count":32,"type":"VEC3"},{"bufferView":129,"componentType":5126,"count":32,"type":"VEC2"},{"bufferView":130,"componentType":5123,"count":96,"type":"SCALAR"},{"bufferView":131,"componentType":5126,"count":8,"max":[1,0.8799999952316284,4.371138828673793e-08],"min":[-1,0,0],"type":"VEC3"},{"bufferView":132,"componentType":5126,"count":8,"type":"VEC3"},{"bufferView":133,"componentType":5126,"count":8,"type":"VEC2"},{"bufferView":134,"componentType":5123,"count":18,"type":"SCALAR"},{"bufferView":135,"componentType":5126,"count":80,"max":[1,3.1226887702941895,0.0924467146396637],"min":[-1.0000001192092896,0.6495776176452637,-0.3140353262424469],"type":"VEC3"},{"bufferView":136,"componentType":5126,"count":80,"type":"VEC3"},{"bufferView":137,"componentType":5126,"count":80,"type":"VEC2"},{"bufferView":138,"componentType":5126,"count":32,"max":[1,3,1.3113417196564114e-07],"min":[-1,0,-0.2000000923871994],"type":"VEC3"},{"bufferView":139,"componentType":5126,"count":32,"type":"VEC3"},{"bufferView":140,"componentType":5126,"count":32,"type":"VEC2"},{"bufferView":141,"componentType":5126,"count":8,"max":[1,0.8799999952316284,4.371138828673793e-08],"min":[-1,0,0],"type":"VEC3"},{"bufferView":142,"componentType":5126,"count":8,"type":"VEC3"},{"bufferView":143,"componentType":5126,"count":8,"type":"VEC2"},{"bufferView":144,"componentType":5126,"count":80,"max":[1,3.1226887702941895,0.0924467146396637],"min":[-1.0000001192092896,0.6495776176452637,-0.3140353262424469],"type":"VEC3"},{"bufferView":145,"componentType":5126,"count":80,"type":"VEC3"},{"bufferView":146,"componentType":5126,"count":80,"type":"VEC2"},{"bufferView":147,"componentType":5126,"count":80,"max":[1,3.1226887702941895,0.0924467146396637],"min":[-1.0000001192092896,0.6495776176452637,-0.3140353262424469],"type":"VEC3"},{"bufferView":148,"componentType":5126,"count":80,"type":"VEC3"},{"bufferView":149,"componentType":5126,"count":80,"type":"VEC2"},{"bufferView":150,"componentType":5123,"count":174,"type":"SCALAR"},{"bufferView":151,"componentType":5126,"count":60,"max":[1,3,1.3113417196564114e-07],"min":[-1,0,-0.2000000923871994],"type":"VEC3"},{"bufferView":152,"componentType":5126,"count":60,"type":"VEC3"},{"bufferView":153,"componentType":5126,"count":60,"type":"VEC2"},{"bufferView":154,"componentType":5123,"count":180,"type":"SCALAR"},{"bufferView":155,"componentType":5126,"count":8,"max":[1,0.8799999952316284,4.371138828673793e-08],"min":[-1,0,0],"type":"VEC3"},{"bufferView":156,"componentType":5126,"count":8,"type":"VEC3"},{"bufferView":157,"componentType":5126,"count":8,"type":"VEC2"},{"bufferView":158,"componentType":5126,"count":80,"max":[1,3.1226887702941895,0.0924467146396637],"min":[-1.0000001192092896,0.6495776176452637,-0.3140353262424469],"type":"VEC3"},{"bufferView":159,"componentType":5126,"count":80,"type":"VEC3"},{"bufferView":160,"componentType":5126,"count":80,"type":"VEC2"},{"bufferView":161,"componentType":5126,"count":60,"max":[1,3,1.3113417196564114e-07],"min":[-1,0,-0.2000000923871994],"type":"VEC3"},{"bufferView":162,"componentType":5126,"count":60,"type":"VEC3"},{"bufferView":163,"componentType":5126,"count":60,"type":"VEC2"},{"bufferView":164,"componentType":5126,"count":8,"max":[1,0.8799999952316284,4.371138828673793e-08],"min":[-1,0,0],"type":"VEC3"},{"bufferView":165,"componentType":5126,"count":8,"type":"VEC3"},{"bufferView":166,"componentType":5126,"count":8,"type":"VEC2"},{"bufferView":167,"componentType":5126,"count":389,"max":[1.000000238418579,3.1226887702941895,0.0924467146396637],"min":[-1.000000238418579,0.6495776176452637,-0.3140353262424469],"type":"VEC3"},{"bufferView":168,"componentType":5126,"count":389,"type":"VEC3"},{"bufferView":169,"componentType":5126,"count":389,"type":"VEC2"},{"bufferView":170,"componentType":5123,"count":732,"type":"SCALAR"},{"bufferView":171,"componentType":5126,"count":8,"max":[1,0.8360880613327026,5.960464477539063e-08],"min":[-1,0,-0.2000001072883606],"type":"VEC3"},{"bufferView":172,"componentType":5126,"count":8,"type":"VEC3"},{"bufferView":173,"componentType":5126,"count":8,"type":"VEC2"},{"bufferView":174,"componentType":5123,"count":12,"type":"SCALAR"},{"bufferView":175,"componentType":5126,"count":402,"max":[0.44381028413772583,2.6207287311553955,0.0923665463924408],"min":[-0.44381028413772583,1.01604425907135,-0.2520223557949066],"type":"VEC3"},{"bufferView":176,"componentType":5126,"count":402,"type":"VEC3"},{"bufferView":177,"componentType":5126,"count":402,"type":"VEC2"},{"bufferView":178,"componentType":5123,"count":786,"type":"SCALAR"},{"bufferView":179,"componentType":5126,"count":83,"max":[0.277061402797699,2.478931427001953,0.003888234496116638],"min":[-0.27893951535224915,1.0875728130340576,0.0038879886269569397],"type":"VEC3"},{"bufferView":180,"componentType":5126,"count":83,"type":"VEC3"},{"bufferView":181,"componentType":5126,"count":83,"type":"VEC2"},{"bufferView":182,"componentType":5123,"count":153,"type":"SCALAR"},{"bufferView":183,"componentType":5126,"count":272,"max":[0.8041172027587891,2.5242888927459717,0.4168574810028076],"min":[-0.8041191101074219,0.94417804479599,-0.26658084988594055],"type":"VEC3"},{"bufferView":184,"componentType":5126,"count":272,"type":"VEC3"},{"bufferView":185,"componentType":5126,"count":272,"type":"VEC2"},{"bufferView":186,"componentType":5123,"count":408,"type":"SCALAR"},{"bufferView":187,"componentType":5126,"count":45,"max":[0.5054702758789062,2.355356216430664,0.003888234496116638],"min":[-0.5054721832275391,1.0971393585205078,0.0038878247141838074],"type":"VEC3"},{"bufferView":188,"componentType":5126,"count":45,"type":"VEC3"},{"bufferView":189,"componentType":5126,"count":45,"type":"VEC2"},{"bufferView":190,"componentType":5123,"count":72,"type":"SCALAR"},{"bufferView":191,"componentType":5126,"count":340,"max":[0.691490113735199,2.741780996322632,0.27729201316833496],"min":[-0.691490113735199,1.01604425907135,-0.2522830367088318],"type":"VEC3"},{"bufferView":192,"componentType":5126,"count":340,"type":"VEC3"},{"bufferView":193,"componentType":5126,"count":340,"type":"VEC2"},{"bufferView":194,"componentType":5123,"count":672,"type":"SCALAR"},{"bufferView":195,"componentType":5126,"count":63,"max":[0.5413169860839844,2.6192541122436523,0.0038883001543581486],"min":[-0.5445477962493896,1.0647618770599365,0.003887913655489683],"type":"VEC3"},{"bufferView":196,"componentType":5126,"count":63,"type":"VEC3"},{"bufferView":197,"componentType":5126,"count":63,"type":"VEC2"},{"bufferView":198,"componentType":5123,"count":123,"type":"SCALAR"},{"bufferView":199,"componentType":5126,"count":272,"max":[1.1035263538360596,2.740431785583496,0.56315016746521],"min":[-1.199957251548767,1.0932440757751465,0.09079486131668091],"type":"VEC3"},{"bufferView":200,"componentType":5126,"count":272,"type":"VEC3"},{"bufferView":201,"componentType":5126,"count":272,"type":"VEC2"},{"bufferView":202,"componentType":5123,"count":408,"type":"SCALAR"}],"asset":{"generator":"Khronos glTF Blender I/O v5.2.40","version":"2.0"},"bufferViews":[{"buffer":0,"byteLength":288,"byteOffset":0,"target":34962},{"buffer":0,"byteLength":288,"byteOffset":288,"target":34962},{"buffer":0,"byteLength":192,"byteOffset":576,"target":34962},{"buffer":0,"byteLength":72,"byteOffset":768,"target":34963},{"buffer":0,"byteLength":288,"byteOffset":840,"target":34962},{"buffer":0,"byteLength":288,"byteOffset":1128,"target":34962},{"buffer":0,"byteLength":192,"byteOffset":1416,"target":34962},{"buffer":0,"byteLength":288,"byteOffset":1608,"target":34962},{"buffer":0,"byteLength":288,"byteOffset":1896,"target":34962},{"buffer":0,"byteLength":192,"byteOffset":2184,"target":34962},{"buffer":0,"byteLength":72,"byteOffset":2376,"target":34963},{"buffer":0,"byteLength":8928,"byteOffset":2448,"target":34962},{"buffer":0,"byteLength":8928,"byteOffset":11376,"target":34962},{"buffer":0,"byteLength":5952,"byteOffset":20304,"target":34962},{"buffer":0,"byteLength":2724,"byteOffset":26256,"target":34963},{"buffer":0,"byteLength":336,"byteOffset":28980,"target":34962},{"buffer":0,"byteLength":336,"byteOffset":29316,"target":34962},{"buffer":0,"byteLength":224,"byteOffset":29652,"target":34962},{"buffer":0,"byteLength":96,"byteOffset":29876,"target":34963},{"buffer":0,"byteLength":4368,"byteOffset":29972,"target":34962},{"buffer":0,"byteLength":4368,"byteOffset":34340,"target":34962},{"buffer":0,"byteLength":2912,"byteOffset":38708,"target":34962},{"buffer":0,"byteLength":1920,"byteOffset":41620,"target":34963},{"buffer":0,"byteLength":768,"byteOffset":43540,"target":34962},{"buffer":0,"byteLength":768,"byteOffset":44308,"target":34962},{"buffer":0,"byteLength":512,"byteOffset":45076,"target":34962},{"buffer":0,"byteLength":192,"byteOffset":45588,"target":34963},{"buffer":0,"byteLength":6096,"byteOffset":45780,"target":34962},{"buffer":0,"byteLength":6096,"byteOffset":51876,"target":34962},{"buffer":0,"byteLength":4064,"byteOffset":57972,"target":34962},{"buffer":0,"byteLength":3660,"byteOffset":62036,"target":34963},{"buffer":0,"byteLength":192,"byteOffset":65696,"target":34962},{"buffer":0,"byteLength":192,"byteOffset":65888,"target":34962},{"buffer":0,"byteLength":128,"byteOffset":66080,"target":34962},{"buffer":0,"byteLength":48,"byteOffset":66208,"target":34963},{"buffer":0,"byteLength":6048,"byteOffset":66256,"target":34962},{"buffer":0,"byteLength":6048,"byteOffset":72304,"target":34962},{"buffer":0,"byteLength":4032,"byteOffset":78352,"target":34962},{"buffer":0,"byteLength":1872,"byteOffset":82384,"target":34963},{"buffer":0,"byteLength":240,"byteOffset":84256,"target":34962},{"buffer":0,"byteLength":240,"byteOffset":84496,"target":34962},{"buffer":0,"byteLength":160,"byteOffset":84736,"target":34962},{"buffer":0,"byteLength":96,"byteOffset":84896,"target":34963},{"buffer":0,"byteLength":19296,"byteOffset":84992,"target":34962},{"buffer":0,"byteLength":19296,"byteOffset":104288,"target":34962},{"buffer":0,"byteLength":12864,"byteOffset":123584,"target":34962},{"buffer":0,"byteLength":5232,"byteOffset":136448,"target":34963},{"buffer":0,"byteLength":23148,"byteOffset":141680,"target":34962},{"buffer":0,"byteLength":23148,"byteOffset":164828,"target":34962},{"buffer":0,"byteLength":15432,"byteOffset":187976,"target":34962},{"buffer":0,"byteLength":10248,"byteOffset":203408,"target":34963},{"buffer":0,"byteLength":1488,"byteOffset":213656,"target":34962},{"buffer":0,"byteLength":1488,"byteOffset":215144,"target":34962},{"buffer":0,"byteLength":992,"byteOffset":216632,"target":34962},{"buffer":0,"byteLength":504,"byteOffset":217624,"target":34963},{"buffer":0,"byteLength":1488,"byteOffset":218128,"target":34962},{"buffer":0,"byteLength":1488,"byteOffset":219616,"target":34962},{"buffer":0,"byteLength":992,"byteOffset":221104,"target":34962},{"buffer":0,"byteLength":408,"byteOffset":222096,"target":34963},{"buffer":0,"byteLength":828,"byteOffset":222504,"target":34962},{"buffer":0,"byteLength":828,"byteOffset":223332,"target":34962},{"buffer":0,"byteLength":552,"byteOffset":224160,"target":34962},{"buffer":0,"byteLength":390,"byteOffset":224712,"target":34963},{"buffer":0,"byteLength":96,"byteOffset":225104,"target":34962},{"buffer":0,"byteLength":96,"byteOffset":225200,"target":34962},{"buffer":0,"byteLength":64,"byteOffset":225296,"target":34962},{"buffer":0,"byteLength":24,"byteOffset":225360,"target":34963},{"buffer":0,"byteLength":1512,"byteOffset":225384,"target":34962},{"buffer":0,"byteLength":1512,"byteOffset":226896,"target":34962},{"buffer":0,"byteLength":1008,"byteOffset":228408,"target":34962},{"buffer":0,"byteLength":480,"byteOffset":229416,"target":34963},{"buffer":0,"byteLength":144,"byteOffset":229896,"target":34962},{"buffer":0,"byteLength":144,"byteOffset":230040,"target":34962},{"buffer":0,"byteLength":96,"byteOffset":230184,"target":34962},{"buffer":0,"byteLength":36,"byteOffset":230280,"target":34963},{"buffer":0,"byteLength":960,"byteOffset":230316,"target":34962},{"buffer":0,"byteLength":960,"byteOffset":231276,"target":34962},{"buffer":0,"byteLength":640,"byteOffset":232236,"target":34962},{"buffer":0,"byteLength":348,"byteOffset":232876,"target":34963},{"buffer":0,"byteLength":96,"byteOffset":233224,"target":34962},{"buffer":0,"byteLength":96,"byteOffset":233320,"target":34962},{"buffer":0,"byteLength":64,"byteOffset":233416,"target":34962},{"buffer":0,"byteLength":24,"byteOffset":233480,"target":34963},{"buffer":0,"byteLength":48,"byteOffset":233504,"target":34962},{"buffer":0,"byteLength":48,"byteOffset":233552,"target":34962},{"buffer":0,"byteLength":32,"byteOffset":233600,"target":34962},{"buffer":0,"byteLength":12,"byteOffset":233632,"target":34963},{"buffer":0,"byteLength":1152,"byteOffset":233644,"target":34962},{"buffer":0,"byteLength":1152,"byteOffset":234796,"target":34962},{"buffer":0,"byteLength":768,"byteOffset":235948,"target":34962},{"buffer":0,"byteLength":396,"byteOffset":236716,"target":34963},{"buffer":0,"byteLength":96,"byteOffset":237112,"target":34962},{"buffer":0,"byteLength":96,"byteOffset":237208,"target":34962},{"buffer":0,"byteLength":64,"byteOffset":237304,"target":34962},{"buffer":0,"byteLength":48,"byteOffset":237368,"target":34962},{"buffer":0,"byteLength":48,"byteOffset":237416,"target":34962},{"buffer":0,"byteLength":32,"byteOffset":237464,"target":34962},{"buffer":0,"byteLength":1152,"byteOffset":237496,"target":34962},{"buffer":0,"byteLength":1152,"byteOffset":238648,"target":34962},{"buffer":0,"byteLength":768,"byteOffset":239800,"target":34962},{"buffer":0,"byteLength":396,"byteOffset":240568,"target":34963},{"buffer":0,"byteLength":96,"byteOffset":240964,"target":34962},{"buffer":0,"byteLength":96,"byteOffset":241060,"target":34962},{"buffer":0,"byteLength":64,"byteOffset":241156,"target":34962},{"buffer":0,"byteLength":48,"byteOffset":241220,"target":34962},{"buffer":0,"byteLength":48,"byteOffset":241268,"target":34962},{"buffer":0,"byteLength":32,"byteOffset":241316,"target":34962},{"buffer":0,"byteLength":1056,"byteOffset":241348,"target":34962},{"buffer":0,"byteLength":1056,"byteOffset":242404,"target":34962},{"buffer":0,"byteLength":704,"byteOffset":243460,"target":34962},{"buffer":0,"byteLength":528,"byteOffset":244164,"target":34963},{"buffer":0,"byteLength":264,"byteOffset":244692,"target":34962},{"buffer":0,"byteLength":264,"byteOffset":244956,"target":34962},{"buffer":0,"byteLength":176,"byteOffset":245220,"target":34962},{"buffer":0,"byteLength":120,"byteOffset":245396,"target":34963},{"buffer":0,"byteLength":1248,"byteOffset":245516,"target":34962},{"buffer":0,"byteLength":1248,"byteOffset":246764,"target":34962},{"buffer":0,"byteLength":832,"byteOffset":248012,"target":34962},{"buffer":0,"byteLength":348,"byteOffset":248844,"target":34963},{"buffer":0,"byteLength":1608,"byteOffset":249192,"target":34962},{"buffer":0,"byteLength":1608,"byteOffset":250800,"target":34962},{"buffer":0,"byteLength":1072,"byteOffset":252408,"target":34962},{"buffer":0,"byteLength":504,"byteOffset":253480,"target":34963},{"buffer":0,"byteLength":480,"byteOffset":253984,"target":34962},{"buffer":0,"byteLength":480,"byteOffset":254464,"target":34962},{"buffer":0,"byteLength":320,"byteOffset":254944,"target":34962},{"buffer":0,"byteLength":228,"byteOffset":255264,"target":34963},{"buffer":0,"byteLength":384,"byteOffset":255492,"target":34962},{"buffer":0,"byteLength":384,"byteOffset":255876,"target":34962},{"buffer":0,"byteLength":256,"byteOffset":256260,"target":34962},{"buffer":0,"byteLength":192,"byteOffset":256516,"target":34963},{"buffer":0,"byteLength":96,"byteOffset":256708,"target":34962},{"buffer":0,"byteLength":96,"byteOffset":256804,"target":34962},{"buffer":0,"byteLength":64,"byteOffset":256900,"target":34962},{"buffer":0,"byteLength":36,"byteOffset":256964,"target":34963},{"buffer":0,"byteLength":960,"byteOffset":257000,"target":34962},{"buffer":0,"byteLength":960,"byteOffset":257960,"target":34962},{"buffer":0,"byteLength":640,"byteOffset":258920,"target":34962},{"buffer":0,"byteLength":384,"byteOffset":259560,"target":34962},{"buffer":0,"byteLength":384,"byteOffset":259944,"target":34962},{"buffer":0,"byteLength":256,"byteOffset":260328,"target":34962},{"buffer":0,"byteLength":96,"byteOffset":260584,"target":34962},{"buffer":0,"byteLength":96,"byteOffset":260680,"target":34962},{"buffer":0,"byteLength":64,"byteOffset":260776,"target":34962},{"buffer":0,"byteLength":960,"byteOffset":260840,"target":34962},{"buffer":0,"byteLength":960,"byteOffset":261800,"target":34962},{"buffer":0,"byteLength":640,"byteOffset":262760,"target":34962},{"buffer":0,"byteLength":960,"byteOffset":263400,"target":34962},{"buffer":0,"byteLength":960,"byteOffset":264360,"target":34962},{"buffer":0,"byteLength":640,"byteOffset":265320,"target":34962},{"buffer":0,"byteLength":348,"byteOffset":265960,"target":34963},{"buffer":0,"byteLength":720,"byteOffset":266308,"target":34962},{"buffer":0,"byteLength":720,"byteOffset":267028,"target":34962},{"buffer":0,"byteLength":480,"byteOffset":267748,"target":34962},{"buffer":0,"byteLength":360,"byteOffset":268228,"target":34963},{"buffer":0,"byteLength":96,"byteOffset":268588,"target":34962},{"buffer":0,"byteLength":96,"byteOffset":268684,"target":34962},{"buffer":0,"byteLength":64,"byteOffset":268780,"target":34962},{"buffer":0,"byteLength":960,"byteOffset":268844,"target":34962},{"buffer":0,"byteLength":960,"byteOffset":269804,"target":34962},{"buffer":0,"byteLength":640,"byteOffset":270764,"target":34962},{"buffer":0,"byteLength":720,"byteOffset":271404,"target":34962},{"buffer":0,"byteLength":720,"byteOffset":272124,"target":34962},{"buffer":0,"byteLength":480,"byteOffset":272844,"target":34962},{"buffer":0,"byteLength":96,"byteOffset":273324,"target":34962},{"buffer":0,"byteLength":96,"byteOffset":273420,"target":34962},{"buffer":0,"byteLength":64,"byteOffset":273516,"target":34962},{"buffer":0,"byteLength":4668,"byteOffset":273580,"target":34962},{"buffer":0,"byteLength":4668,"byteOffset":278248,"target":34962},{"buffer":0,"byteLength":3112,"byteOffset":282916,"target":34962},{"buffer":0,"byteLength":1464,"byteOffset":286028,"target":34963},{"buffer":0,"byteLength":96,"byteOffset":287492,"target":34962},{"buffer":0,"byteLength":96,"byteOffset":287588,"target":34962},{"buffer":0,"byteLength":64,"byteOffset":287684,"target":34962},{"buffer":0,"byteLength":24,"byteOffset":287748,"target":34963},{"buffer":0,"byteLength":4824,"byteOffset":287772,"target":34962},{"buffer":0,"byteLength":4824,"byteOffset":292596,"target":34962},{"buffer":0,"byteLength":3216,"byteOffset":297420,"target":34962},{"buffer":0,"byteLength":1572,"byteOffset":300636,"target":34963},{"buffer":0,"byteLength":996,"byteOffset":302208,"target":34962},{"buffer":0,"byteLength":996,"byteOffset":303204,"target":34962},{"buffer":0,"byteLength":664,"byteOffset":304200,"target":34962},{"buffer":0,"byteLength":306,"byteOffset":304864,"target":34963},{"buffer":0,"byteLength":3264,"byteOffset":305172,"target":34962},{"buffer":0,"byteLength":3264,"byteOffset":308436,"target":34962},{"buffer":0,"byteLength":2176,"byteOffset":311700,"target":34962},{"buffer":0,"byteLength":816,"byteOffset":313876,"target":34963},{"buffer":0,"byteLength":540,"byteOffset":314692,"target":34962},{"buffer":0,"byteLength":540,"byteOffset":315232,"target":34962},{"buffer":0,"byteLength":360,"byteOffset":315772,"target":34962},{"buffer":0,"byteLength":144,"byteOffset":316132,"target":34963},{"buffer":0,"byteLength":4080,"byteOffset":316276,"target":34962},{"buffer":0,"byteLength":4080,"byteOffset":320356,"target":34962},{"buffer":0,"byteLength":2720,"byteOffset":324436,"target":34962},{"buffer":0,"byteLength":1344,"byteOffset":327156,"target":34963},{"buffer":0,"byteLength":756,"byteOffset":328500,"target":34962},{"buffer":0,"byteLength":756,"byteOffset":329256,"target":34962},{"buffer":0,"byteLength":504,"byteOffset":330012,"target":34962},{"buffer":0,"byteLength":246,"byteOffset":330516,"target":34963},{"buffer":0,"byteLength":3264,"byteOffset":330764,"target":34962},{"buffer":0,"byteLength":3264,"byteOffset":334028,"target":34962},{"buffer":0,"byteLength":2176,"byteOffset":337292,"target":34962},{"buffer":0,"byteLength":816,"byteOffset":339468,"target":34963}],"buffers":[{"byteLength":340284,"uri":"townhouse_jettied.bin"}],"images":[{"name":"T_Brick_BaseColor","uri":"../village/T_Brick_BaseColor.png"},{"name":"T_Plaster_Luma","uri":"../village/T_Plaster_Luma.png"},{"name":"T_RockTrim_BaseColor","uri":"../village/T_RockTrim_BaseColor.png"},{"name":"T_RoundTiles_BaseColor","uri":"../village/T_RoundTiles_BaseColor.png"},{"name":"T_WoodTrim_BaseColor","uri":"../village/T_WoodTrim_BaseColor.png"}],"materials":[{"doubleSided":true,"name":"Wood_light","pbrMetallicRoughness":{"baseColorFactor":[0.9998,0.9995,1.0,1.0],"baseColorTexture":{"index":4},"metallicFactor":0,"roughnessFactor":0.8500000238418579}},{"doubleSided":true,"name":"Glass","pbrMetallicRoughness":{"baseColorFactor":[0.03310476616024971,0.05087608844041824,0.07828831672668457,1],"metallicFactor":0,"roughnessFactor":0.20000000298023224}},{"doubleSided":true,"name":"RockTrim","pbrMetallicRoughness":{"baseColorFactor":[1.0,0.9979,1.0,1.0],"baseColorTexture":{"index":2},"metallicFactor":0,"roughnessFactor":0.8500000238418579}},{"doubleSided":true,"name":"Brick","pbrMetallicRoughness":{"baseColorFactor":[1.0,0.9974,1.0,1.0],"baseColorTexture":{"index":0},"metallicFactor":0,"roughnessFactor":0.8500000238418579}},{"doubleSided":true,"name":"Plaster_cream","pbrMetallicRoughness":{"baseColorFactor":[0.9583,0.7715,0.4434,1.0],"baseColorTexture":{"index":1},"metallicFactor":0,"roughnessFactor":0.8500000238418579}},{"doubleSided":true,"name":"Tiles_red","pbrMetallicRoughness":{"baseColorFactor":[1.0,0.9965,0.9971,1.0],"baseColorTexture":{"index":3},"metallicFactor":0,"roughnessFactor":0.699999988079071}}],"meshes":[{"name":"Beam","primitives":[{"attributes":{"NORMAL":1,"POSITION":0,"TEXCOORD_0":2},"indices":3,"material":0}]},{"name":"Beam.001","primitives":[{"attributes":{"NORMAL":5,"POSITION":4,"TEXCOORD_0":6},"indices":3,"material":0}]},{"name":"kit_Corner_Exterior_Wood","primitives":[{"attributes":{"NORMAL":8,"POSITION":7,"TEXCOORD_0":9},"indices":10,"material":0}]},{"name":"kit_Door_1_Round","primitives":[{"attributes":{"NORMAL":12,"POSITION":11,"TEXCOORD_0":13},"indices":14,"material":0},{"attributes":{"NORMAL":16,"POSITION":15,"TEXCOORD_0":17},"indices":18,"material":1}]},{"name":"kit_DoorFrame_Round_WoodDark","primitives":[{"attributes":{"NORMAL":20,"POSITION":19,"TEXCOORD_0":21},"indices":22,"material":0}]},{"name":"kit_Floor_WoodDark","primitives":[{"attributes":{"NORMAL":24,"POSITION":23,"TEXCOORD_0":25},"indices":26,"material":0}]},{"name":"kit_Prop_Chimney","primitives":[{"attributes":{"NORMAL":28,"POSITION":27,"TEXCOORD_0":29},"indices":30,"material":2},{"attributes":{"NORMAL":32,"POSITION":31,"TEXCOORD_0":33},"indices":34,"material":3}]},{"name":"kit_Roof_Front_Brick6","primitives":[{"attributes":{"NORMAL":36,"POSITION":35,"TEXCOORD_0":37},"indices":38,"material":0},{"attributes":{"NORMAL":40,"POSITION":39,"TEXCOORD_0":41},"indices":42,"material":4}]},{"name":"kit_Roof_RoundTiles_6x10.001","primitives":[{"attributes":{"NORMAL":44,"POSITION":43,"TEXCOORD_0":45},"indices":46,"material":0},{"attributes":{"NORMAL":48,"POSITION":47,"TEXCOORD_0":49},"indices":50,"material":5}]},{"name":"kit_Roof_Support2","primitives":[{"attributes":{"NORMAL":52,"POSITION":51,"TEXCOORD_0":53},"indices":54,"material":0}]},{"name":"kit_Wall_Plaster_Door_Round","primitives":[{"attributes":{"NORMAL":56,"POSITION":55,"TEXCOORD_0":57},"indices":58,"material":0},{"attributes":{"NORMAL":60,"POSITION":59,"TEXCOORD_0":61},"indices":62,"material":4},{"attributes":{"NORMAL":64,"POSITION":63,"TEXCOORD_0":65},"indices":66,"material":2}]},{"name":"kit_Wall_Plaster_Straight.001","primitives":[{"attributes":{"NORMAL":68,"POSITION":67,"TEXCOORD_0":69},"indices":70,"material":0},{"attributes":{"NORMAL":72,"POSITION":71,"TEXCOORD_0":73},"indices":74,"material":4}]},{"name":"kit_Wall_Plaster_Straight_Base","primitives":[{"attributes":{"NORMAL":76,"POSITION":75,"TEXCOORD_0":77},"indices":78,"material":0},{"attributes":{"NORMAL":80,"POSITION":79,"TEXCOORD_0":81},"indices":82,"material":4},{"attributes":{"NORMAL":84,"POSITION":83,"TEXCOORD_0":85},"indices":86,"material":3}]},{"name":"kit_Wall_Plaster_Straight_L.001","primitives":[{"attributes":{"NORMAL":88,"POSITION":87,"TEXCOORD_0":89},"indices":90,"material":0},{"attributes":{"NORMAL":92,"POSITION":91,"TEXCOORD_0":93},"indices":82,"material":4},{"attributes":{"NORMAL":95,"POSITION":94,"TEXCOORD_0":96},"indices":86,"material":4}]},{"name":"kit_Wall_Plaster_Straight_R.001","primitives":[{"attributes":{"NORMAL":98,"POSITION":97,"TEXCOORD_0":99},"indices":100,"material":0},{"attributes":{"NORMAL":102,"POSITION":101,"TEXCOORD_0":103},"indices":82,"material":4},{"attributes":{"NORMAL":105,"POSITION":104,"TEXCOORD_0":106},"indices":86,"material":4}]},{"name":"kit_Wall_Plaster_Window_Thin_Round.001","primitives":[{"attributes":{"NORMAL":108,"POSITION":107,"TEXCOORD_0":109},"indices":110,"material":4},{"attributes":{"NORMAL":112,"POSITION":111,"TEXCOORD_0":113},"indices":114,"material":4},{"attributes":{"NORMAL":116,"POSITION":115,"TEXCOORD_0":117},"indices":118,"material":0}]},{"name":"kit_Wall_Plaster_Window_Wide_Flat2.001","primitives":[{"attributes":{"NORMAL":120,"POSITION":119,"TEXCOORD_0":121},"indices":122,"material":0},{"attributes":{"NORMAL":124,"POSITION":123,"TEXCOORD_0":125},"indices":126,"material":4}]},{"name":"kit_Wall_Plaster_Window_Wide_Flat.001","primitives":[{"attributes":{"NORMAL":128,"POSITION":127,"TEXCOORD_0":129},"indices":130,"material":4},{"attributes":{"NORMAL":132,"POSITION":131,"TEXCOORD_0":133},"indices":134,"material":4},{"attributes":{"NORMAL":136,"POSITION":135,"TEXCOORD_0":137},"indices":78,"material":0}]},{"name":"kit_Wall_Plaster_Window_Wide_Flat","primitives":[{"attributes":{"NORMAL":139,"POSITION":138,"TEXCOORD_0":140},"indices":130,"material":4},{"attributes":{"NORMAL":142,"POSITION":141,"TEXCOORD_0":143},"indices":134,"material":3},{"attributes":{"NORMAL":145,"POSITION":144,"TEXCOORD_0":146},"indices":78,"material":0}]},{"name":"kit_Wall_Plaster_Window_Wide_Round.001","primitives":[{"attributes":{"NORMAL":148,"POSITION":147,"TEXCOORD_0":149},"indices":150,"material":0},{"attributes":{"NORMAL":152,"POSITION":151,"TEXCOORD_0":153},"indices":154,"material":4},{"attributes":{"NORMAL":156,"POSITION":155,"TEXCOORD_0":157},"indices":134,"material":4}]},{"name":"kit_Wall_Plaster_Window_Wide_Round","primitives":[{"attributes":{"NORMAL":159,"POSITION":158,"TEXCOORD_0":160},"indices":150,"material":0},{"attributes":{"NORMAL":162,"POSITION":161,"TEXCOORD_0":163},"indices":154,"material":4},{"attributes":{"NORMAL":165,"POSITION":164,"TEXCOORD_0":166},"indices":134,"material":3}]},{"name":"kit_Wall_Plaster_WoodGrid.001","primitives":[{"attributes":{"NORMAL":168,"POSITION":167,"TEXCOORD_0":169},"indices":170,"material":0},{"attributes":{"NORMAL":172,"POSITION":171,"TEXCOORD_0":173},"indices":174,"material":4}]},{"name":"kit_Window_Thin_Round1.001","primitives":[{"attributes":{"NORMAL":176,"POSITION":175,"TEXCOORD_0":177},"indices":178,"material":0},{"attributes":{"NORMAL":180,"POSITION":179,"TEXCOORD_0":181},"indices":182,"material":1}]},{"name":"kit_Window_Wide_Flat1","primitives":[{"attributes":{"NORMAL":184,"POSITION":183,"TEXCOORD_0":185},"indices":186,"material":0},{"attributes":{"NORMAL":188,"POSITION":187,"TEXCOORD_0":189},"indices":190,"material":1}]},{"name":"kit_Window_Wide_Round1.001","primitives":[{"attributes":{"NORMAL":192,"POSITION":191,"TEXCOORD_0":193},"indices":194,"material":0},{"attributes":{"NORMAL":196,"POSITION":195,"TEXCOORD_0":197},"indices":198,"material":1}]},{"name":"kit_WindowShutters_Wide_Round_Open","primitives":[{"attributes":{"NORMAL":200,"POSITION":199,"TEXCOORD_0":201},"indices":202,"material":0}]}],"nodes":[{"mesh":0,"name":"Beam.036"},{"mesh":1,"name":"Beam.068"},{"mesh":2,"name":"Corner_Exterior_Wood.024","translation":[-3,0,0]},{"mesh":2,"name":"Corner_Exterior_Wood.025","translation":[3,0,0]},{"mesh":2,"name":"Corner_Exterior_Wood.026","translation":[-3,0,-8]},{"mesh":2,"name":"Corner_Exterior_Wood.027","translation":[3,0,-8]},{"mesh":2,"name":"Corner_Exterior_Wood.056","translation":[-3,3,0.6000000238418579]},{"mesh":2,"name":"Corner_Exterior_Wood.057","translation":[3,3,0.6000000238418579]},{"mesh":2,"name":"Corner_Exterior_Wood.058","translation":[-3,3,-8]},{"mesh":2,"name":"Corner_Exterior_Wood.059","translation":[3,3,-8]},{"mesh":2,"name":"Corner_Exterior_Wood.090","translation":[-3,6,1.2000000476837158]},{"mesh":2,"name":"Corner_Exterior_Wood.091","translation":[3,6,1.2000000476837158]},{"mesh":2,"name":"Corner_Exterior_Wood.092","translation":[-3,6,-8]},{"mesh":2,"name":"Corner_Exterior_Wood.093","translation":[3,6,-8]},{"mesh":3,"name":"Door_1_Round.006","translation":[-0.550000011920929,0,-0.019999999552965164]},{"mesh":4,"name":"DoorFrame_Round_WoodDark.005"},{"mesh":5,"name":"Floor_WoodDark.033","scale":[1,1,0.3499999940395355],"translation":[-2,2.9700000286102295,0.30000001192092896]},{"mesh":5,"name":"Floor_WoodDark.034","scale":[1,1,0.3499999940395355],"translation":[0,2.9700000286102295,0.30000001192092896]},{"mesh":5,"name":"Floor_WoodDark.035","scale":[1,1,0.3499999940395355],"translation":[2,2.9700000286102295,0.30000001192092896]},{"mesh":5,"name":"Floor_WoodDark.065","scale":[1,1,0.3499999940395355],"translation":[-2,5.96999979019165,0.8999999761581421]},{"mesh":5,"name":"Floor_WoodDark.066","scale":[1,1,0.3499999940395355],"translation":[0,5.96999979019165,0.8999999761581421]},{"mesh":5,"name":"Floor_WoodDark.067","scale":[1,1,0.3499999940395355],"translation":[2,5.96999979019165,0.8999999761581421]},{"mesh":6,"name":"Prop_Chimney.097","translation":[-1.600000023841858,9.97853946685791,-6]},{"mesh":7,"name":"Roof_Front_Brick6.095","translation":[0,9.119999885559082,1.2000000476837158]},{"mesh":7,"name":"Roof_Front_Brick6.096","rotation":[0,-1,0,4.371138828673793e-08],"translation":[0,9.119999885559082,-8]},{"mesh":8,"name":"Roof_RoundTiles_6x10.094","scale":[1,1,0.9200000166893005],"translation":[0,9.119999885559082,-3.4000000953674316]},{"mesh":9,"name":"Roof_Support2.028","scale":[1,1,0.8695651888847351],"translation":[-2.9000000953674316,3.0199999809265137,0.09000000357627869]},{"mesh":9,"name":"Roof_Support2.029","scale":[1,1,0.8695651888847351],"translation":[-1.4500000476837158,3.0199999809265137,0.09000000357627869]},{"mesh":9,"name":"Roof_Support2.030","scale":[1,1,0.8695651888847351],"translation":[0,3.0199999809265137,0.09000000357627869]},{"mesh":9,"name":"Roof_Support2.031","scale":[1,1,0.8695651888847351],"translation":[1.4500000476837158,3.0199999809265137,0.09000000357627869]},{"mesh":9,"name":"Roof_Support2.032","scale":[1,1,0.8695651888847351],"translation":[2.9000000953674316,3.0199999809265137,0.09000000357627869]},{"mesh":9,"name":"Roof_Support2.060","scale":[1,1,0.8695651888847351],"translation":[-2.9000000953674316,6.019999980926514,0.6899999976158142]},{"mesh":9,"name":"Roof_Support2.061","scale":[1,1,0.8695651888847351],"translation":[-1.4500000476837158,6.019999980926514,0.6899999976158142]},{"mesh":9,"name":"Roof_Support2.062","scale":[1,1,0.8695651888847351],"translation":[0,6.019999980926514,0.6899999976158142]},{"mesh":9,"name":"Roof_Support2.063","scale":[1,1,0.8695651888847351],"translation":[1.4500000476837158,6.019999980926514,0.6899999976158142]},{"mesh":9,"name":"Roof_Support2.064","scale":[1,1,0.8695651888847351],"translation":[2.9000000953674316,6.019999980926514,0.6899999976158142]},{"mesh":10,"name":"Wall_Plaster_Door_Round.004"},{"mesh":11,"name":"Wall_Plaster_Straight+upper.042","rotation":[0,-1,0,4.371138828673793e-08],"translation":[2,3,-8]},{"mesh":11,"name":"Wall_Plaster_Straight+upper.045","rotation":[0,-1,0,4.371138828673793e-08],"translation":[-2,3,-8]},{"mesh":11,"name":"Wall_Plaster_Straight+upper.046","rotation":[0,-0.7071068286895752,0,0.7071068286895752],"scale":[1.0750000476837158,1,1],"translation":[-3,3,-6.925000190734863]},{"mesh":11,"name":"Wall_Plaster_Straight+upper.049","rotation":[0,-0.7071068286895752,0,0.7071068286895752],"scale":[1.0750000476837158,1,1],"translation":[-3,3,-2.624999761581421]},{"mesh":11,"name":"Wall_Plaster_Straight+upper.050","rotation":[0,-0.7071068286895752,0,0.7071068286895752],"scale":[1.0750000476837158,1,1],"translation":[-3,3,-0.47499966621398926]},{"mesh":11,"name":"Wall_Plaster_Straight+upper.051","rotation":[0,0.7071068286895752,0,0.7071068286895752],"scale":[1.0750000476837158,1,1],"translation":[3,3,-0.4750000238418579]},{"mesh":11,"name":"Wall_Plaster_Straight+upper.052","rotation":[0,0.7071068286895752,0,0.7071068286895752],"scale":[1.0750000476837158,1,1],"translation":[3,3,-2.625]},{"mesh":11,"name":"Wall_Plaster_Straight+upper.055","rotation":[0,0.7071068286895752,0,0.7071068286895752],"scale":[1.0750000476837158,1,1],"translation":[3,3,-6.925000190734863]},{"mesh":11,"name":"Wall_Plaster_Straight+upper.077","rotation":[0,-1,0,4.371138828673793e-08],"translation":[0,6,-8]},{"mesh":11,"name":"Wall_Plaster_Straight+upper.080","rotation":[0,-0.7071068286895752,0,0.7071068286895752],"scale":[0.9200000166893005,1,1],"translation":[-3,6,-5.239999771118164]},{"mesh":11,"name":"Wall_Plaster_Straight+upper.081","rotation":[0,-0.7071068286895752,0,0.7071068286895752],"scale":[0.9200000166893005,1,1],"translation":[-3,6,-3.3999996185302734]},{"mesh":11,"name":"Wall_Plaster_Straight+upper.083","rotation":[0,-0.7071068286895752,0,0.7071068286895752],"scale":[0.9200000166893005,1,1],"translation":[-3,6,0.2800005078315735]},{"mesh":11,"name":"Wall_Plaster_Straight+upper.085","rotation":[0,0.7071068286895752,0,0.7071068286895752],"scale":[0.9200000166893005,1,1],"translation":[3,6,-1.559999942779541]},{"mesh":11,"name":"Wall_Plaster_Straight+upper.089","rotation":[0,0.7071068286895752,0,0.7071068286895752],"scale":[0.9200000166893005,1,1],"translation":[3,6,-7.080000400543213]},{"mesh":12,"name":"Wall_Plaster_Straight_Base.009","rotation":[0,-1,0,4.371138828673793e-08],"translation":[2,0,-8]},{"mesh":12,"name":"Wall_Plaster_Straight_Base.012","rotation":[0,-1,0,4.371138828673793e-08],"translation":[-2,0,-8]},{"mesh":12,"name":"Wall_Plaster_Straight_Base.013","rotation":[0,-0.7071068286895752,0,0.7071068286895752],"translation":[-3,0,-7]},{"mesh":12,"name":"Wall_Plaster_Straight_Base.016","rotation":[0,-0.7071068286895752,0,0.7071068286895752],"translation":[-3,0,-3]},{"mesh":12,"name":"Wall_Plaster_Straight_Base.017","rotation":[0,-0.7071068286895752,0,0.7071068286895752],"translation":[-3,0,-1]},{"mesh":12,"name":"Wall_Plaster_Straight_Base.018","rotation":[0,0.7071068286895752,0,0.7071068286895752],"translation":[3,0,-1]},{"mesh":12,"name":"Wall_Plaster_Straight_Base.019","rotation":[0,0.7071068286895752,0,0.7071068286895752],"translation":[3,0,-3]},{"mesh":12,"name":"Wall_Plaster_Straight_Base.023","rotation":[0,0.7071068286895752,0,0.7071068286895752],"translation":[3,0,-7]},{"mesh":13,"name":"Wall_Plaster_Straight_L+upper.076","rotation":[0,-1,0,4.371138828673793e-08],"translation":[2,6,-8]},{"mesh":13,"name":"Wall_Plaster_Straight_L+upper.079","rotation":[0,-0.7071068286895752,0,0.7071068286895752],"scale":[0.9200000166893005,1,1],"translation":[-3,6,-7.079999923706055]},{"mesh":13,"name":"Wall_Plaster_Straight_L+upper.084","rotation":[0,0.7071068286895752,0,0.7071068286895752],"scale":[0.9200000166893005,1,1],"translation":[3,6,0.2800000309944153]},{"mesh":14,"name":"Wall_Plaster_Straight_R+upper.078","rotation":[0,-1,0,4.371138828673793e-08],"translation":[-2,6,-8]},{"mesh":14,"name":"Wall_Plaster_Straight_R+upper.082","rotation":[0,-0.7071068286895752,0,0.7071068286895752],"scale":[0.9200000166893005,1,1],"translation":[-3,6,-1.5599994659423828]},{"mesh":14,"name":"Wall_Plaster_Straight_R+upper.088","rotation":[0,0.7071068286895752,0,0.7071068286895752],"scale":[0.9200000166893005,1,1],"translation":[3,6,-5.240000247955322]},{"mesh":15,"name":"Wall_Plaster_Window_Thin_Round+upper.069","translation":[-2,6,1.2000000476837158]},{"mesh":15,"name":"Wall_Plaster_Window_Thin_Round+upper.074","translation":[2,6,1.2000000476837158]},{"mesh":16,"name":"Wall_Plaster_Window_Wide_Flat2+upper.037","translation":[-2,3,0.6000000238418579]},{"mesh":16,"name":"Wall_Plaster_Window_Wide_Flat2+upper.040","translation":[2,3,0.6000000238418579]},{"mesh":17,"name":"Wall_Plaster_Window_Wide_Flat+upper.043","rotation":[0,-1,0,4.371138828673793e-08],"translation":[0,3,-8]},{"mesh":17,"name":"Wall_Plaster_Window_Wide_Flat+upper.047","rotation":[0,-0.7071068286895752,0,0.7071068286895752],"scale":[1.0750000476837158,1,1],"translation":[-3,3,-4.774999618530273]},{"mesh":17,"name":"Wall_Plaster_Window_Wide_Flat+upper.053","rotation":[0,0.7071068286895752,0,0.7071068286895752],"scale":[1.0750000476837158,1,1],"translation":[3,3,-4.77500057220459]},{"mesh":17,"name":"Wall_Plaster_Window_Wide_Flat+upper.086","rotation":[0,0.7071068286895752,0,0.7071068286895752],"scale":[0.9200000166893005,1,1],"translation":[3,6,-3.4000000953674316]},{"mesh":18,"name":"Wall_Plaster_Window_Wide_Flat.007","translation":[2,0,0]},{"mesh":18,"name":"Wall_Plaster_Window_Wide_Flat.010","rotation":[0,-1,0,4.371138828673793e-08],"translation":[0,0,-8]},{"mesh":18,"name":"Wall_Plaster_Window_Wide_Flat.014","rotation":[0,-0.7071068286895752,0,0.7071068286895752],"translation":[-3,0,-5]},{"mesh":19,"name":"Wall_Plaster_Window_Wide_Round+upper.071","translation":[0,6,1.2000000476837158]},{"mesh":20,"name":"Wall_Plaster_Window_Wide_Round.001","translation":[-2,0,0]},{"mesh":20,"name":"Wall_Plaster_Window_Wide_Round.020","rotation":[0,0.7071068286895752,0,0.7071068286895752],"translation":[3,0,-5]},{"mesh":21,"name":"Wall_Plaster_WoodGrid+upper.039","translation":[0,3,0.6000000238418579]},{"mesh":22,"name":"Window_Thin_Round1.070","translation":[-2,6,1.2000000476837158]},{"mesh":22,"name":"Window_Thin_Round1.075","translation":[2,6,1.2000000476837158]},{"mesh":23,"name":"Window_Wide_Flat1.008","translation":[2,0,0]},{"mesh":23,"name":"Window_Wide_Flat1.011","rotation":[0,-1,0,4.371138828673793e-08],"translation":[0,0,-8]},{"mesh":23,"name":"Window_Wide_Flat1.015","rotation":[0,-0.7071068286895752,0,0.7071068286895752],"translation":[-3,0,-5]},{"mesh":23,"name":"Window_Wide_Flat1.038","translation":[-2,3,0.6000000238418579]},{"mesh":23,"name":"Window_Wide_Flat1.041","translation":[2,3,0.6000000238418579]},{"mesh":23,"name":"Window_Wide_Flat1.044","rotation":[0,-1,0,4.371138828673793e-08],"translation":[0,3,-8]},{"mesh":23,"name":"Window_Wide_Flat1.048","rotation":[0,-0.7071068286895752,0,0.7071068286895752],"scale":[1.0750000476837158,1,1],"translation":[-3,3,-4.774999618530273]},{"mesh":23,"name":"Window_Wide_Flat1.054","rotation":[0,0.7071068286895752,0,0.7071068286895752],"scale":[1.0750000476837158,1,1],"translation":[3,3,-4.77500057220459]},{"mesh":23,"name":"Window_Wide_Flat1.087","rotation":[0,0.7071068286895752,0,0.7071068286895752],"scale":[0.9200000166893005,1,1],"translation":[3,6,-3.4000000953674316]},{"mesh":24,"name":"Window_Wide_Round1.002","translation":[-2,0,0]},{"mesh":24,"name":"Window_Wide_Round1.021","rotation":[0,0.7071068286895752,0,0.7071068286895752],"translation":[3,0,-5]},{"mesh":24,"name":"Window_Wide_Round1.072","translation":[0,6,1.2000000476837158]},{"mesh":25,"name":"WindowShutters_Wide_Round_Open.003","translation":[-2,0,0]},{"mesh":25,"name":"WindowShutters_Wide_Round_Open.022","rotation":[0,0.7071068286895752,0,0.7071068286895752],"translation":[3,0,-5]},{"mesh":25,"name":"WindowShutters_Wide_Round_Open.073","translation":[0,6,1.2000000476837158]}],"scene":0,"scenes":[{"name":"Scene","nodes":[0,1,2,3,4,5,6,7,8,9,10,11,12,13,14,15,16,17,18,19,20,21,22,23,24,25,26,27,28,29,30,31,32,33,34,35,36,37,38,39,40,41,42,43,44,45,46,47,48,49,50,51,52,53,54,55,56,57,58,59,60,61,62,63,64,65,66,67,68,69,70,71,72,73,74,75,76,77,78,79,80,81,82,83,84,85,86,87,88,89,90,91,92,93,94,95,96]}],"textures":[{"source":0},{"source":1},{"source":2},{"source":3},{"source":4}]}
