{"accessors":[{"bufferView":0,"componentType":5126,"count":328,"type":"VEC3"},{"bufferView":1,"componentType":5126,"count":328,"max":[1.940000057220459,2.4000000953674316,0.1599999964237213],"min":[-1.899999976158142,0,-2.5],"type":"VEC3"},{"bufferView":2,"componentType":5126,"count":328,"type":"VEC2"},{"bufferView":3,"componentType":5123,"count":492,"type":"SCALAR"},{"bufferView":4,"componentType":5126,"count":20,"type":"VEC3"},{"bufferView":5,"componentType":5126,"count":20,"max":[1.9600000381469727,1.7000000476837158,0.10000000149011612],"min":[1.940000057220459,1.2000000476837158,-0.3400000035762787],"type":"VEC3"},{"bufferView":6,"componentType":5123,"count":30,"type":"SCALAR"},{"bufferView":7,"componentType":5126,"count":72,"type":"VEC3"},{"bufferView":8,"componentType":5126,"count":72,"max":[1.7000000476837158,3.619999885559082,1.0499999523162842],"min":[-1.7000000476837158,2.093517303466797,-3.450000286102295],"type":"VEC3"},{"bufferView":9,"componentType":5126,"count":72,"type":"VEC2"},{"bufferView":10,"componentType":5123,"count":108,"type":"SCALAR"}],"asset":{"generator":"Khronos glTF Blender I/O v5.2.40","version":"2.0"},"bufferViews":[{"buffer":0,"byteOffset":0,"byteLength":3936,"target":34962},{"buffer":0,"byteOffset":3936,"byteLength":3936,"target":34962},{"buffer":0,"byteOffset":7872,"byteLength":2624,"target":34962},{"buffer":0,"byteOffset":10496,"byteLength":984,"target":34963},{"buffer":0,"byteOffset":11480,"byteLength":240,"target":34962},{"buffer":0,"byteOffset":11720,"byteLength":240,"target":34962},{"buffer":0,"byteOffset":11960,"byteLength":60,"target":34963},{"buffer":0,"byteOffset":12020,"byteLength":864,"target":34962},{"buffer":0,"byteOffset":12884,"byteLength":864,"target":34962},{"buffer":0,"byteOffset":13748,"byteLength":576,"target":34962},{"buffer":0,"byteOffset":14324,"byteLength":216,"target":34963}],"buffers":[{"byteLength":14540,"uri":"trail_shelter.bin"}],"images":[{"name":"T_RoundTiles_Luma","uri":"../village/T_RoundTiles_Luma.png"},{"name":"T_WoodTrim_BaseColor","uri":"../village/T_WoodTrim_BaseColor.png"}],"materials":[{"doubleSided":true,"name":"Wood_dark","pbrMetallicRoughness":{"baseColorFactor":[0.2329,0.2659,0.2944,1.0],"baseColorTexture":{"index":1},"metallicFactor":0,"roughnessFactor":0.8500000238418579}},{"doubleSided":true,"name":"Cloth2","pbrMetallicRoughness":{"baseColorFactor":[0.7484140992164612,0.6382831931114197,0.4200332760810852,1],"metallicFactor":0,"roughnessFactor":0.8999999761581421}},{"doubleSided":true,"name":"HouseTiles","pbrMetallicRoughness":{"baseColorFactor":[0.3822,0.1486,0.0653,1.0],"baseColorTexture":{"index":0},"metallicFactor":0,"roughnessFactor":0.699999988079071}}],"meshes":[{"name":"Post","primitives":[{"attributes":{"NORMAL":0,"POSITION":1,"TEXCOORD_0":2},"indices":3,"material":0},{"attributes":{"NORMAL":4,"POSITION":5},"indices":6,"material":1},{"attributes":{"NORMAL":7,"POSITION":8,"TEXCOORD_0":9},"indices":10,"material":2}]}],"nodes":[{"mesh":0,"name":"trail_shelter"}],"scene":0,"scenes":[{"name":"Scene","nodes":[0]}],"textures":[{"source":0},{"source":1}]}