{"accessors":[{"bufferView":0,"componentType":5126,"count":280,"type":"VEC3"},{"bufferView":1,"componentType":5126,"count":280,"max":[0.9989098310470581,1.059999942779541,-0.29586222767829895],"min":[-0.9989098310470581,0.5400000214576721,-0.48399999737739563],"type":"VEC3"},{"bufferView":2,"componentType":5123,"count":360,"type":"SCALAR"},{"bufferView":3,"componentType":5126,"count":96,"type":"VEC3"},{"bufferView":4,"componentType":5126,"count":96,"max":[1.2000000476837158,0.30000001192092896,0.550000011920929],"min":[-1.2000000476837158,0,-0.550000011920929],"type":"VEC3"},{"bufferView":5,"componentType":5123,"count":132,"type":"SCALAR"},{"bufferView":6,"componentType":5126,"count":24,"type":"VEC3"},{"bufferView":7,"componentType":5126,"count":24,"max":[1.149999976158142,0.33000001311302185,0.5],"min":[-1.149999976158142,0.28999999165534973,-0.5],"type":"VEC3"},{"bufferView":8,"componentType":5123,"count":36,"type":"SCALAR"},{"bufferView":9,"componentType":5126,"count":784,"type":"VEC3"},{"bufferView":10,"componentType":5126,"count":784,"max":[1.0159884691238403,0.5399999618530273,0.39415502548217773],"min":[-1.0059884786605835,0.29999998211860657,-0.21000000834465027],"type":"VEC3"},{"bufferView":11,"componentType":5123,"count":1008,"type":"SCALAR"},{"bufferView":12,"componentType":5126,"count":400,"type":"VEC3"},{"bufferView":13,"componentType":5126,"count":400,"max":[0.9341275691986084,0.5900000333786011,0.3130566477775574],"min":[-0.9241275787353516,0.4099999964237213,-0.12794229388237],"type":"VEC3"},{"bufferView":14,"componentType":5123,"count":480,"type":"SCALAR"},{"bufferView":15,"componentType":5126,"count":144,"type":"VEC3"},{"bufferView":16,"componentType":5126,"count":144,"max":[1.0574413537979126,1.6977729797363281,-0.3739999830722809],"min":[-1.0574413537979126,0.3022270202636719,-0.3919999897480011],"type":"VEC3"},{"bufferView":17,"componentType":5123,"count":192,"type":"SCALAR"}],"asset":{"generator":"Khronos glTF Blender I/O v5.2.40","version":"2.0"},"bufferViews":[{"buffer":0,"byteOffset":0,"byteLength":3360,"target":34962},{"buffer":0,"byteOffset":3360,"byteLength":3360,"target":34962},{"buffer":0,"byteOffset":6720,"byteLength":720,"target":34963},{"buffer":0,"byteOffset":7440,"byteLength":1152,"target":34962},{"buffer":0,"byteOffset":8592,"byteLength":1152,"target":34962},{"buffer":0,"byteOffset":9744,"byteLength":264,"target":34963},{"buffer":0,"byteOffset":10008,"byteLength":288,"target":34962},{"buffer":0,"byteOffset":10296,"byteLength":288,"target":34962},{"buffer":0,"byteOffset":10584,"byteLength":72,"target":34963},{"buffer":0,"byteOffset":10656,"byteLength":9408,"target":34962},{"buffer":0,"byteOffset":20064,"byteLength":9408,"target":34962},{"buffer":0,"byteOffset":29472,"byteLength":2016,"target":34963},{"buffer":0,"byteOffset":31488,"byteLength":4800,"target":34962},{"buffer":0,"byteOffset":36288,"byteLength":4800,"target":34962},{"buffer":0,"byteOffset":41088,"byteLength":960,"target":34963},{"buffer":0,"byteOffset":42048,"byteLength":1728,"target":34962},{"buffer":0,"byteOffset":43776,"byteLength":1728,"target":34962},{"buffer":0,"byteOffset":45504,"byteLength":384,"target":34963}],"buffers":[{"byteLength":45888,"uri":"veg_bed.bin"}],"images":[],"materials":[{"doubleSided":true,"name":"Prop_LeafDark","pbrMetallicRoughness":{"baseColorFactor":[0.04500000178813934,0.12999999523162842,0.029999999329447746,1],"metallicFactor":0,"roughnessFactor":0.8999999761581421}},{"doubleSided":true,"name":"Prop_Oak","pbrMetallicRoughness":{"baseColorFactor":[0.3199999928474426,0.17000000178813934,0.07000000029802322,1],"metallicFactor":0,"roughnessFactor":0.8500000238418579}},{"doubleSided":true,"name":"Prop_Soil","pbrMetallicRoughness":{"baseColorFactor":[0.11999999731779099,0.07000000029802322,0.03500000014901161,1],"metallicFactor":0}},{"doubleSided":true,"name":"Prop_Cabbage","pbrMetallicRoughness":{"baseColorFactor":[0.2199999988079071,0.4000000059604645,0.11999999731779099,1],"metallicFactor":0,"roughnessFactor":0.800000011920929}},{"doubleSided":true,"name":"Prop_Leaf","pbrMetallicRoughness":{"baseColorFactor":[0.07000000029802322,0.20000000298023224,0.03999999910593033,1],"metallicFactor":0,"roughnessFactor":0.8999999761581421}},{"doubleSided":true,"name":"Prop_Sack","pbrMetallicRoughness":{"baseColorFactor":[0.550000011920929,0.41999998688697815,0.25,1],"metallicFactor":0}}],"meshes":[{"name":"veg_bed","primitives":[{"attributes":{"NORMAL":0,"POSITION":1},"indices":2,"material":0},{"attributes":{"NORMAL":3,"POSITION":4},"indices":5,"material":1},{"attributes":{"NORMAL":6,"POSITION":7},"indices":8,"material":2},{"attributes":{"NORMAL":9,"POSITION":10},"indices":11,"material":3},{"attributes":{"NORMAL":12,"POSITION":13},"indices":14,"material":4},{"attributes":{"NORMAL":15,"POSITION":16},"indices":17,"material":5}]}],"nodes":[{"mesh":0,"name":"veg_bed"}],"scene":0,"scenes":[{"name":"Scene","nodes":[0]}],"textures":[]}