{"accessors":[{"bufferView":0,"componentType":5126,"count":288,"type":"VEC3"},{"bufferView":1,"componentType":5126,"count":288,"max":[0.15000000596046448,1.809999942779541,0.8300000429153442],"min":[-0.15000000596046448,0.1499999761581421,-0.32981088757514954],"type":"VEC3"},{"bufferView":2,"componentType":5123,"count":456,"type":"SCALAR"},{"bufferView":3,"componentType":5126,"count":96,"type":"VEC3"},{"bufferView":4,"componentType":5126,"count":96,"max":[0.699999988079071,0.5,-0.22999998927116394],"min":[-0.699999988079071,0,-0.8300000429153442],"type":"VEC3"},{"bufferView":5,"componentType":5123,"count":132,"type":"SCALAR"},{"bufferView":6,"componentType":5126,"count":24,"type":"VEC3"},{"bufferView":7,"componentType":5126,"count":24,"max":[0.6000000238418579,0.48000001907348633,-0.3199999928474426],"min":[-0.6000000238418579,0.4399999976158142,-0.7400000095367432],"type":"VEC3"},{"bufferView":8,"componentType":5123,"count":36,"type":"SCALAR"},{"bufferView":9,"componentType":5126,"count":24,"type":"VEC3"},{"bufferView":10,"componentType":5126,"count":24,"max":[0.25,0.15000000596046448,0.3699999749660492],"min":[-0.25,0,-0.12999999523162842],"type":"VEC3"}],"asset":{"generator":"Khronos glTF Blender I/O v5.2.40","version":"2.0"},"bufferViews":[{"buffer":0,"byteOffset":0,"byteLength":3456,"target":34962},{"buffer":0,"byteOffset":3456,"byteLength":3456,"target":34962},{"buffer":0,"byteOffset":6912,"byteLength":912,"target":34963},{"buffer":0,"byteOffset":7824,"byteLength":1152,"target":34962},{"buffer":0,"byteOffset":8976,"byteLength":1152,"target":34962},{"buffer":0,"byteOffset":10128,"byteLength":264,"target":34963},{"buffer":0,"byteOffset":10392,"byteLength":288,"target":34962},{"buffer":0,"byteOffset":10680,"byteLength":288,"target":34962},{"buffer":0,"byteOffset":10968,"byteLength":72,"target":34963},{"buffer":0,"byteOffset":11040,"byteLength":288,"target":34962},{"buffer":0,"byteOffset":11328,"byteLength":288,"target":34962}],"buffers":[{"byteLength":11616,"uri":"water_pump.bin"}],"images":[],"materials":[{"doubleSided":true,"name":"Prop_Iron","pbrMetallicRoughness":{"baseColorFactor":[0.03500000014901161,0.03500000014901161,0.03999999910593033,1],"metallicFactor":0,"roughnessFactor":0.5}},{"doubleSided":true,"name":"Prop_Stone","pbrMetallicRoughness":{"baseColorFactor":[0.41999998688697815,0.4000000059604645,0.36000001430511475,1],"metallicFactor":0,"roughnessFactor":0.949999988079071}},{"doubleSided":true,"name":"Fountain_Water","pbrMetallicRoughness":{"baseColorFactor":[0.10000000149011612,0.36000001430511475,0.6200000047683716,1],"metallicFactor":0,"roughnessFactor":0.15000000596046448}},{"doubleSided":true,"name":"Prop_StoneDark","pbrMetallicRoughness":{"baseColorFactor":[0.25999999046325684,0.25,0.23000000417232513,1],"metallicFactor":0,"roughnessFactor":0.949999988079071}}],"meshes":[{"name":"water_pump","primitives":[{"attributes":{"NORMAL":0,"POSITION":1},"indices":2,"material":0},{"attributes":{"NORMAL":3,"POSITION":4},"indices":5,"material":1},{"attributes":{"NORMAL":6,"POSITION":7},"indices":8,"material":2},{"attributes":{"NORMAL":9,"POSITION":10},"indices":8,"material":3}]}],"nodes":[{"mesh":0,"name":"water_pump"}],"scene":0,"scenes":[{"name":"Scene","nodes":[0]}],"textures":[]}