{"accessors":[{"bufferView":0,"componentType":5126,"count":84,"max":[0.8999999761581421,1.7933013439178467,0.17000000178813934],"min":[-0.8999999761581421,0.9199999570846558,-0.17000000178813934],"type":"VEC3"},{"bufferView":1,"componentType":5126,"count":84,"type":"VEC3"},{"bufferView":2,"componentType":5126,"count":84,"type":"VEC2"},{"bufferView":3,"componentType":5123,"count":144,"type":"SCALAR"},{"bufferView":4,"componentType":5126,"count":146,"max":[0.949999988079071,0.75,0.949999988079071],"min":[-0.949999988079071,0,-0.949999988079071],"type":"VEC3"},{"bufferView":5,"componentType":5126,"count":146,"type":"VEC3"},{"bufferView":6,"componentType":5126,"count":146,"type":"VEC2"},{"bufferView":7,"componentType":5123,"count":288,"type":"SCALAR"},{"bufferView":8,"componentType":5126,"count":72,"max":[0.75,0.4099999964237213,0.75],"min":[-0.75,0.39000001549720764,-0.75],"type":"VEC3"},{"bufferView":9,"componentType":5126,"count":72,"type":"VEC3"},{"bufferView":10,"componentType":5126,"count":72,"type":"VEC2"},{"bufferView":11,"componentType":5123,"count":132,"type":"SCALAR"},{"bufferView":12,"componentType":5126,"count":48,"max":[0.9800000190734863,0.8300000429153442,0.9800000190734863],"min":[-0.9800000190734863,0.75,-0.9800000190734863],"type":"VEC3"},{"bufferView":13,"componentType":5126,"count":48,"type":"VEC3"},{"bufferView":14,"componentType":5126,"count":48,"type":"VEC2"},{"bufferView":15,"componentType":5123,"count":72,"type":"SCALAR"},{"bufferView":16,"componentType":5126,"count":72,"max":[1.125,3,0.05999999865889549],"min":[-1.125,0.6500000357627869,-0.05999999865889549],"type":"VEC3"},{"bufferView":17,"componentType":5126,"count":72,"type":"VEC3"},{"bufferView":18,"componentType":5126,"count":72,"type":"VEC2"},{"bufferView":19,"componentType":5123,"count":108,"type":"SCALAR"},{"bufferView":20,"componentType":5126,"count":24,"max":[0.009999999776482582,1.7300000190734863,0.009999999776482582],"min":[-0.009999999776482582,1.1299998760223389,-0.009999999776482582],"type":"VEC3"},{"bufferView":21,"componentType":5126,"count":24,"type":"VEC3"},{"bufferView":22,"componentType":5126,"count":24,"type":"VEC2"},{"bufferView":23,"componentType":5123,"count":36,"type":"SCALAR"},{"bufferView":24,"componentType":5126,"count":48,"max":[1.100000023841858,2.9706571102142334,0.7363179922103882],"min":[-1.100000023841858,2.4693429470062256,-0.7363179922103882],"type":"VEC3"},{"bufferView":25,"componentType":5126,"count":48,"type":"VEC3"},{"bufferView":26,"componentType":5126,"count":48,"type":"VEC2"},{"bufferView":27,"componentType":5123,"count":72,"type":"SCALAR"}],"asset":{"generator":"Khronos glTF Blender I/O v5.2.40","version":"2.0"},"bufferViews":[{"buffer":0,"byteLength":1008,"byteOffset":0,"target":34962},{"buffer":0,"byteLength":1008,"byteOffset":1008,"target":34962},{"buffer":0,"byteLength":672,"byteOffset":2016,"target":34962},{"buffer":0,"byteLength":288,"byteOffset":2688,"target":34963},{"buffer":0,"byteLength":1752,"byteOffset":2976,"target":34962},{"buffer":0,"byteLength":1752,"byteOffset":4728,"target":34962},{"buffer":0,"byteLength":1168,"byteOffset":6480,"target":34962},{"buffer":0,"byteLength":576,"byteOffset":7648,"target":34963},{"buffer":0,"byteLength":864,"byteOffset":8224,"target":34962},{"buffer":0,"byteLength":864,"byteOffset":9088,"target":34962},{"buffer":0,"byteLength":576,"byteOffset":9952,"target":34962},{"buffer":0,"byteLength":264,"byteOffset":10528,"target":34963},{"buffer":0,"byteLength":576,"byteOffset":10792,"target":34962},{"buffer":0,"byteLength":576,"byteOffset":11368,"target":34962},{"buffer":0,"byteLength":384,"byteOffset":11944,"target":34962},{"buffer":0,"byteLength":144,"byteOffset":12328,"target":34963},{"buffer":0,"byteLength":864,"byteOffset":12472,"target":34962},{"buffer":0,"byteLength":864,"byteOffset":13336,"target":34962},{"buffer":0,"byteLength":576,"byteOffset":14200,"target":34962},{"buffer":0,"byteLength":216,"byteOffset":14776,"target":34963},{"buffer":0,"byteLength":288,"byteOffset":14992,"target":34962},{"buffer":0,"byteLength":288,"byteOffset":15280,"target":34962},{"buffer":0,"byteLength":192,"byteOffset":15568,"target":34962},{"buffer":0,"byteLength":72,"byteOffset":15760,"target":34963},{"buffer":0,"byteLength":576,"byteOffset":15832,"target":34962},{"buffer":0,"byteLength":576,"byteOffset":16408,"target":34962},{"buffer":0,"byteLength":384,"byteOffset":16984,"target":34962},{"buffer":0,"byteLength":144,"byteOffset":17368,"target":34963}],"buffers":[{"byteLength":17512,"uri":"well.bin"}],"images":[],"materials":[{"doubleSided":true,"name":"Prop_Oak","pbrMetallicRoughness":{"baseColorFactor":[0.3199999928474426,0.17000000178813934,0.07000000029802322,1],"metallicFactor":0,"roughnessFactor":0.8500000238418579}},{"doubleSided":true,"name":"Prop_Stone","pbrMetallicRoughness":{"baseColorFactor":[0.41999998688697815,0.4000000059604645,0.36000001430511475,1],"metallicFactor":0,"roughnessFactor":0.949999988079071}},{"doubleSided":true,"name":"Prop_LilyPad","pbrMetallicRoughness":{"baseColorFactor":[0.05999999865889549,0.2199999988079071,0.05000000074505806,1],"metallicFactor":0,"roughnessFactor":0.4000000059604645}},{"doubleSided":true,"name":"Prop_StoneDark","pbrMetallicRoughness":{"baseColorFactor":[0.25999999046325684,0.25,0.23000000417232513,1],"metallicFactor":0,"roughnessFactor":0.949999988079071}},{"doubleSided":true,"name":"Prop_OakDark","pbrMetallicRoughness":{"baseColorFactor":[0.18000000715255737,0.09000000357627869,0.03500000014901161,1],"metallicFactor":0,"roughnessFactor":0.8500000238418579}},{"doubleSided":true,"name":"Prop_Sack","pbrMetallicRoughness":{"baseColorFactor":[0.550000011920929,0.41999998688697815,0.25,1],"metallicFactor":0}},{"doubleSided":true,"name":"Prop_Tile","pbrMetallicRoughness":{"baseColorFactor":[0.4000000059604645,0.09000000357627869,0.05000000074505806,1],"metallicFactor":0,"roughnessFactor":0.800000011920929}}],"meshes":[{"name":"well","primitives":[{"attributes":{"NORMAL":1,"POSITION":0,"TEXCOORD_0":2},"indices":3,"material":0},{"attributes":{"NORMAL":5,"POSITION":4,"TEXCOORD_0":6},"indices":7,"material":1},{"attributes":{"NORMAL":9,"POSITION":8,"TEXCOORD_0":10},"indices":11,"material":2},{"attributes":{"NORMAL":13,"POSITION":12,"TEXCOORD_0":14},"indices":15,"material":3},{"attributes":{"NORMAL":17,"POSITION":16,"TEXCOORD_0":18},"indices":19,"material":4},{"attributes":{"NORMAL":21,"POSITION":20,"TEXCOORD_0":22},"indices":23,"material":5},{"attributes":{"NORMAL":25,"POSITION":24,"TEXCOORD_0":26},"indices":27,"material":6}]}],"nodes":[{"mesh":0,"name":"well"}],"scene":0,"scenes":[{"name":"Scene","nodes":[0]}],"textures":[]}
