{"accessors":[{"bufferView":0,"componentType":5126,"count":200,"max":[0.5115861296653748,0.511996865272522,1.1538444757461548],"min":[-1.18630850315094,0.3413022756576538,-1.1538444757461548],"type":"VEC3"},{"bufferView":1,"componentType":5126,"count":200,"type":"VEC3"},{"bufferView":2,"componentType":5126,"count":200,"type":"VEC2"},{"bufferView":3,"componentType":5123,"count":240,"type":"SCALAR"},{"bufferView":4,"componentType":5126,"count":168,"max":[1.1180447340011597,0.496420294046402,1.095146656036377],"min":[-1.1284315586090088,0,-1.0831562280654907],"type":"VEC3"},{"bufferView":5,"componentType":5126,"count":168,"type":"VEC3"},{"bufferView":6,"componentType":5126,"count":168,"type":"VEC2"},{"bufferView":7,"componentType":5123,"count":252,"type":"SCALAR"},{"bufferView":8,"componentType":5126,"count":200,"max":[1.18630850315094,0.3725528120994568,0.4327622056007385],"min":[-0.6133227944374084,0.24073705077171326,-0.7304732203483582],"type":"VEC3"},{"bufferView":9,"componentType":5126,"count":200,"type":"VEC3"},{"bufferView":10,"componentType":5126,"count":200,"type":"VEC2"},{"bufferView":11,"componentType":5123,"count":240,"type":"SCALAR"},{"bufferView":12,"componentType":5126,"count":100,"max":[0.5745623707771301,0.55085688829422,1.118882417678833],"min":[-0.10229942202568054,0.33697834610939026,0.4038291871547699],"type":"VEC3"},{"bufferView":13,"componentType":5126,"count":100,"type":"VEC3"},{"bufferView":14,"componentType":5126,"count":100,"type":"VEC2"},{"bufferView":15,"componentType":5123,"count":120,"type":"SCALAR"},{"bufferView":16,"componentType":5126,"count":100,"max":[-0.15615838766098022,0.5123653411865234,0.44234469532966614],"min":[-1.126718282699585,0.22953063249588013,-0.8937976360321045],"type":"VEC3"},{"bufferView":17,"componentType":5126,"count":100,"type":"VEC3"},{"bufferView":18,"componentType":5126,"count":100,"type":"VEC2"},{"bufferView":19,"componentType":5123,"count":120,"type":"SCALAR"},{"bufferView":20,"componentType":5126,"count":100,"max":[0.7667922377586365,0.3520651161670685,0.008792892098426819],"min":[-0.5750928521156311,0.2289944440126419,-0.26116934418678284],"type":"VEC3"},{"bufferView":21,"componentType":5126,"count":100,"type":"VEC3"},{"bufferView":22,"componentType":5126,"count":100,"type":"VEC2"},{"bufferView":23,"componentType":5123,"count":120,"type":"SCALAR"}],"asset":{"generator":"Khronos glTF Blender I/O v5.2.40","version":"2.0"},"bufferViews":[{"buffer":0,"byteLength":2400,"byteOffset":0,"target":34962},{"buffer":0,"byteLength":2400,"byteOffset":2400,"target":34962},{"buffer":0,"byteLength":1600,"byteOffset":4800,"target":34962},{"buffer":0,"byteLength":480,"byteOffset":6400,"target":34963},{"buffer":0,"byteLength":2016,"byteOffset":6880,"target":34962},{"buffer":0,"byteLength":2016,"byteOffset":8896,"target":34962},{"buffer":0,"byteLength":1344,"byteOffset":10912,"target":34962},{"buffer":0,"byteLength":504,"byteOffset":12256,"target":34963},{"buffer":0,"byteLength":2400,"byteOffset":12760,"target":34962},{"buffer":0,"byteLength":2400,"byteOffset":15160,"target":34962},{"buffer":0,"byteLength":1600,"byteOffset":17560,"target":34962},{"buffer":0,"byteLength":480,"byteOffset":19160,"target":34963},{"buffer":0,"byteLength":1200,"byteOffset":19640,"target":34962},{"buffer":0,"byteLength":1200,"byteOffset":20840,"target":34962},{"buffer":0,"byteLength":800,"byteOffset":22040,"target":34962},{"buffer":0,"byteLength":240,"byteOffset":22840,"target":34963},{"buffer":0,"byteLength":1200,"byteOffset":23080,"target":34962},{"buffer":0,"byteLength":1200,"byteOffset":24280,"target":34962},{"buffer":0,"byteLength":800,"byteOffset":25480,"target":34962},{"buffer":0,"byteLength":240,"byteOffset":26280,"target":34963},{"buffer":0,"byteLength":1200,"byteOffset":26520,"target":34962},{"buffer":0,"byteLength":1200,"byteOffset":27720,"target":34962},{"buffer":0,"byteLength":800,"byteOffset":28920,"target":34962},{"buffer":0,"byteLength":240,"byteOffset":29720,"target":34963}],"buffers":[{"byteLength":29960,"uri":"wildflowers.bin"}],"images":[],"materials":[{"doubleSided":true,"name":"Prop_FlowerYellow","pbrMetallicRoughness":{"baseColorFactor":[0.8500000238418579,0.6000000238418579,0.05000000074505806,1],"metallicFactor":0,"roughnessFactor":0.699999988079071}},{"doubleSided":true,"name":"Prop_Leaf","pbrMetallicRoughness":{"baseColorFactor":[0.07000000029802322,0.20000000298023224,0.03999999910593033,1],"metallicFactor":0,"roughnessFactor":0.8999999761581421}},{"doubleSided":true,"name":"Prop_FlowerWhite","pbrMetallicRoughness":{"baseColorFactor":[0.8500000238418579,0.8199999928474426,0.75,1],"metallicFactor":0,"roughnessFactor":0.699999988079071}},{"doubleSided":true,"name":"Prop_FlowerViolet","pbrMetallicRoughness":{"baseColorFactor":[0.3199999928474426,0.11999999731779099,0.6000000238418579,1],"metallicFactor":0,"roughnessFactor":0.699999988079071}},{"doubleSided":true,"name":"Prop_FlowerRed","pbrMetallicRoughness":{"baseColorFactor":[0.699999988079071,0.05000000074505806,0.05000000074505806,1],"metallicFactor":0,"roughnessFactor":0.699999988079071}},{"doubleSided":true,"name":"Prop_FlowerPink","pbrMetallicRoughness":{"baseColorFactor":[0.8500000238418579,0.3499999940395355,0.5,1],"metallicFactor":0,"roughnessFactor":0.699999988079071}}],"meshes":[{"name":"wildflowers","primitives":[{"attributes":{"NORMAL":1,"POSITION":0,"TEXCOORD_0":2},"indices":3,"material":0},{"attributes":{"NORMAL":5,"POSITION":4,"TEXCOORD_0":6},"indices":7,"material":1},{"attributes":{"NORMAL":9,"POSITION":8,"TEXCOORD_0":10},"indices":11,"material":2},{"attributes":{"NORMAL":13,"POSITION":12,"TEXCOORD_0":14},"indices":15,"material":3},{"attributes":{"NORMAL":17,"POSITION":16,"TEXCOORD_0":18},"indices":19,"material":4},{"attributes":{"NORMAL":21,"POSITION":20,"TEXCOORD_0":22},"indices":23,"material":5}]}],"nodes":[{"mesh":0,"name":"wildflowers"}],"scene":0,"scenes":[{"name":"Scene","nodes":[0]}],"textures":[]}
