{"accessors":[{"bufferView":0,"componentType":5126,"count":32,"type":"VEC3"},{"bufferView":1,"componentType":5126,"count":32,"max":[2.65153431892395,3.819999933242798,-0.3048802316188812],"min":[-2.65153431892395,3.5999999046325684,-5.6079487800598145],"type":"VEC3"},{"bufferView":2,"componentType":5126,"count":32,"type":"VEC2"},{"bufferView":3,"componentType":5123,"count":48,"type":"SCALAR"},{"bufferView":4,"componentType":5126,"count":32,"type":"VEC3"},{"bufferView":5,"componentType":5126,"count":32,"max":[2.3435745239257812,6.820000171661377,-0.6128401160240173],"min":[-2.3435745239257812,6.599999904632568,-5.299988746643066],"type":"VEC3"},{"bufferView":6,"componentType":5126,"count":32,"type":"VEC2"},{"bufferView":7,"componentType":5126,"count":4,"type":"VEC3"},{"bufferView":8,"componentType":5126,"count":4,"max":[6.151829242706299,14.743680953979492,0.26358550786972046],"min":[1.025304913520813,9.617156982421875,0.26358550786972046],"type":"VEC3"},{"bufferView":9,"componentType":5123,"count":6,"type":"SCALAR"},{"bufferView":10,"componentType":5126,"count":4,"type":"VEC3"},{"bufferView":11,"componentType":5126,"count":4,"max":[4.843680381774902,8.87469482421875,0.26358550786972046],"min":[-0.2828432321548462,3.7481698989868164,0.26358550786972046],"type":"VEC3"},{"bufferView":12,"componentType":5126,"count":4,"type":"VEC3"},{"bufferView":13,"componentType":5126,"count":4,"max":[-1.0253046751022339,10.182842254638672,0.26358550786972046],"min":[-6.151828289031982,5.05631685256958,0.26358550786972046],"type":"VEC3"},{"bufferView":14,"componentType":5126,"count":4,"type":"VEC3"},{"bufferView":15,"componentType":5126,"count":4,"max":[0.2828415632247925,16.05182647705078,0.26358550786972046],"min":[-4.843684673309326,10.925304412841797,0.26358550786972046],"type":"VEC3"},{"bufferView":16,"componentType":5126,"count":80,"type":"VEC3"},{"bufferView":17,"componentType":5126,"count":80,"max":[2.679250717163086,12,-0.27716386318206787],"min":[-2.679250717163086,9.210000038146973,-5.635664939880371],"type":"VEC3"},{"bufferView":18,"componentType":5126,"count":80,"type":"VEC2"},{"bufferView":19,"componentType":5123,"count":144,"type":"SCALAR"},{"bufferView":20,"componentType":5126,"count":24,"type":"VEC3"},{"bufferView":21,"componentType":5126,"count":24,"max":[0.10000000149011612,12.5,-2.86981201171875],"min":[-0.10000000149011612,11.800000190734863,-3.0430171489715576],"type":"VEC3"},{"bufferView":22,"componentType":5123,"count":36,"type":"SCALAR"},{"bufferView":23,"componentType":5126,"count":40,"type":"VEC3"},{"bufferView":24,"componentType":5126,"count":40,"max":[2.3558928966522217,9.350000381469727,-0.6005216836929321],"min":[-2.3558928966522217,9,-5.312307357788086],"type":"VEC3"},{"bufferView":25,"componentType":5126,"count":40,"type":"VEC2"},{"bufferView":26,"componentType":5123,"count":66,"type":"SCALAR"},{"bufferView":27,"componentType":5126,"count":744,"type":"VEC3"},{"bufferView":28,"componentType":5126,"count":744,"max":[1.0737497806549072,2.3513262271881104,0.06314271688461304],"min":[-0.04626310616731644,0.033089637756347656,-0.05755755677819252],"type":"VEC3"},{"bufferView":29,"componentType":5126,"count":744,"type":"VEC2"},{"bufferView":30,"componentType":5123,"count":1362,"type":"SCALAR"},{"bufferView":31,"componentType":5126,"count":28,"type":"VEC3"},{"bufferView":32,"componentType":5126,"count":28,"max":[0.8667700886726379,1.7624019384384155,0.0312458835542202],"min":[0.1617247760295868,1.3117259740829468,0.031245503574609756],"type":"VEC3"},{"bufferView":33,"componentType":5123,"count":48,"type":"SCALAR"},{"bufferView":34,"componentType":5126,"count":360,"type":"VEC3"},{"bufferView":35,"componentType":5126,"count":360,"max":[0.7034913897514343,2.5548486709594727,0.29893577098846436],"min":[-0.7034929394721985,-0.008544921875,-0.24002820253372192],"type":"VEC3"},{"bufferView":36,"componentType":5126,"count":360,"type":"VEC2"},{"bufferView":37,"componentType":5123,"count":954,"type":"SCALAR"},{"bufferView":38,"componentType":5126,"count":32,"type":"VEC3"},{"bufferView":39,"componentType":5126,"count":32,"max":[3.1873843669891357,0.8999999761581421,0.2309698760509491],"min":[-3.1873843669891357,0,-6.143798828125],"type":"VEC3"},{"bufferView":40,"componentType":5126,"count":32,"type":"VEC2"},{"bufferView":41,"componentType":5126,"count":24,"type":"VEC3"},{"bufferView":42,"componentType":5126,"count":24,"max":[0.3499999940395355,10.25,0.3935855031013489],"min":[-0.3499999940395355,9.549999237060547,0.04358550161123276],"type":"VEC3"},{"bufferView":43,"componentType":5123,"count":36,"type":"SCALAR"},{"bufferView":44,"componentType":5126,"count":24,"type":"VEC3"},{"bufferView":45,"componentType":5126,"count":24,"max":[2.1142492294311523,10.706101417541504,0.3435854911804199],"min":[0.8909545540809631,9.482806205749512,0.2435854971408844],"type":"VEC3"},{"bufferView":46,"componentType":5126,"count":24,"type":"VEC2"},{"bufferView":47,"componentType":5123,"count":36,"type":"SCALAR"},{"bufferView":48,"componentType":5126,"count":24,"type":"VEC3"},{"bufferView":49,"componentType":5126,"count":24,"max":[2.8095710277557373,11.401422500610352,0.3435854911804199],"min":[1.5862764120101929,10.178128242492676,0.2435854971408844],"type":"VEC3"},{"bufferView":50,"componentType":5126,"count":24,"type":"VEC2"},{"bufferView":51,"componentType":5126,"count":24,"type":"VEC3"},{"bufferView":52,"componentType":5126,"count":24,"max":[3.504892587661743,12.096744537353516,0.3435854911804199],"min":[2.2815980911254883,10.873449325561523,0.2435854971408844],"type":"VEC3"},{"bufferView":53,"componentType":5126,"count":24,"type":"VEC2"},{"bufferView":54,"componentType":5126,"count":24,"type":"VEC3"},{"bufferView":55,"componentType":5126,"count":24,"max":[4.200214385986328,12.79206657409668,0.3435854911804199],"min":[2.9769198894500732,11.568771362304688,0.2435854971408844],"type":"VEC3"},{"bufferView":56,"componentType":5126,"count":24,"type":"VEC2"},{"bufferView":57,"componentType":5126,"count":24,"type":"VEC3"},{"bufferView":58,"componentType":5126,"count":24,"max":[4.895535945892334,13.487387657165527,0.3435854911804199],"min":[3.672241449356079,12.264092445373535,0.2435854971408844],"type":"VEC3"},{"bufferView":59,"componentType":5126,"count":24,"type":"VEC2"},{"bufferView":60,"componentType":5126,"count":24,"type":"VEC3"},{"bufferView":61,"componentType":5126,"count":24,"max":[5.590857982635498,14.182708740234375,0.3435854911804199],"min":[4.367563247680664,12.9594144821167,0.2435854971408844],"type":"VEC3"},{"bufferView":62,"componentType":5126,"count":24,"type":"VEC2"},{"bufferView":63,"componentType":5126,"count":24,"type":"VEC3"},{"bufferView":64,"componentType":5126,"count":24,"max":[6.286179542541504,14.878030776977539,0.3435854911804199],"min":[5.06288480758667,13.654735565185547,0.2435854971408844],"type":"VEC3"},{"bufferView":65,"componentType":5126,"count":24,"type":"VEC2"},{"bufferView":66,"componentType":5126,"count":24,"type":"VEC3"},{"bufferView":67,"componentType":5126,"count":24,"max":[0.8061014413833618,9.009044647216797,0.3435854911804199],"min":[-0.41719353199005127,7.785750389099121,0.2435854971408844],"type":"VEC3"},{"bufferView":68,"componentType":5126,"count":24,"type":"VEC2"},{"bufferView":69,"componentType":5123,"count":36,"type":"SCALAR"},{"bufferView":70,"componentType":5126,"count":24,"type":"VEC3"},{"bufferView":71,"componentType":5126,"count":24,"max":[1.5014230012893677,8.313722610473633,0.3435854911804199],"min":[0.2781280279159546,7.090428352355957,0.2435854971408844],"type":"VEC3"},{"bufferView":72,"componentType":5126,"count":24,"type":"VEC2"},{"bufferView":73,"componentType":5126,"count":24,"type":"VEC3"},{"bufferView":74,"componentType":5126,"count":24,"max":[2.196744441986084,7.618401050567627,0.3435854911804199],"min":[0.9734495878219604,6.395106792449951,0.2435854971408844],"type":"VEC3"},{"bufferView":75,"componentType":5126,"count":24,"type":"VEC2"},{"bufferView":76,"componentType":5126,"count":24,"type":"VEC3"},{"bufferView":77,"componentType":5126,"count":24,"max":[2.89206600189209,6.923079490661621,0.3435854911804199],"min":[1.6687711477279663,5.699785232543945,0.2435854971408844],"type":"VEC3"},{"bufferView":78,"componentType":5126,"count":24,"type":"VEC2"},{"bufferView":79,"componentType":5126,"count":24,"type":"VEC3"},{"bufferView":80,"componentType":5126,"count":24,"max":[3.5873873233795166,6.227757453918457,0.3435854911804199],"min":[2.3640923500061035,5.004463195800781,0.2435854971408844],"type":"VEC3"},{"bufferView":81,"componentType":5126,"count":24,"type":"VEC2"},{"bufferView":82,"componentType":5126,"count":24,"type":"VEC3"},{"bufferView":83,"componentType":5126,"count":24,"max":[4.282709121704102,5.532435417175293,0.3435854911804199],"min":[3.0594139099121094,4.309141159057617,0.2435854971408844],"type":"VEC3"},{"bufferView":84,"componentType":5126,"count":24,"type":"VEC2"},{"bufferView":85,"componentType":5126,"count":24,"type":"VEC3"},{"bufferView":86,"componentType":5126,"count":24,"max":[4.978030204772949,4.837113857269287,0.3435854911804199],"min":[3.7547354698181152,3.613819122314453,0.2435854971408844],"type":"VEC3"},{"bufferView":87,"componentType":5126,"count":24,"type":"VEC2"},{"bufferView":88,"componentType":5126,"count":24,"type":"VEC3"},{"bufferView":89,"componentType":5126,"count":24,"max":[-0.890954315662384,10.317192077636719,0.3435854911804199],"min":[-2.1142492294311523,9.093897819519043,0.2435854971408844],"type":"VEC3"},{"bufferView":90,"componentType":5126,"count":24,"type":"VEC2"},{"bufferView":91,"componentType":5123,"count":36,"type":"SCALAR"},{"bufferView":92,"componentType":5126,"count":24,"type":"VEC3"},{"bufferView":93,"componentType":5126,"count":24,"max":[-1.5862758159637451,9.621870040893555,0.3435854911804199],"min":[-2.809570789337158,8.398575782775879,0.2435854971408844],"type":"VEC3"},{"bufferView":94,"componentType":5126,"count":24,"type":"VEC2"},{"bufferView":95,"componentType":5126,"count":24,"type":"VEC3"},{"bufferView":96,"componentType":5126,"count":24,"max":[-2.281597375869751,8.92654800415039,0.3435854911804199],"min":[-3.504892349243164,7.703253746032715,0.2435854971408844],"type":"VEC3"},{"bufferView":97,"componentType":5126,"count":24,"type":"VEC2"},{"bufferView":98,"componentType":5126,"count":24,"type":"VEC3"},{"bufferView":99,"componentType":5126,"count":24,"max":[-2.976918935775757,8.231225967407227,0.3435854911804199],"min":[-4.20021390914917,7.007932186126709,0.2435854971408844],"type":"VEC3"},{"bufferView":100,"componentType":5126,"count":24,"type":"VEC2"},{"bufferView":101,"componentType":5126,"count":24,"type":"VEC3"},{"bufferView":102,"componentType":5126,"count":24,"max":[-3.6722402572631836,7.535904884338379,0.3435854911804199],"min":[-4.895534992218018,6.312610626220703,0.2435854971408844],"type":"VEC3"},{"bufferView":103,"componentType":5126,"count":24,"type":"VEC2"},{"bufferView":104,"componentType":5126,"count":24,"type":"VEC3"},{"bufferView":105,"componentType":5126,"count":24,"max":[-4.3675618171691895,6.840582847595215,0.3435854911804199],"min":[-5.590857028961182,5.617288589477539,0.2435854971408844],"type":"VEC3"},{"bufferView":106,"componentType":5126,"count":24,"type":"VEC2"},{"bufferView":107,"componentType":5126,"count":24,"type":"VEC3"},{"bufferView":108,"componentType":5126,"count":24,"max":[-5.062883377075195,6.145260810852051,0.3435854911804199],"min":[-6.286178112030029,4.921966552734375,0.2435854971408844],"type":"VEC3"},{"bufferView":109,"componentType":5126,"count":24,"type":"VEC2"},{"bufferView":110,"componentType":5126,"count":24,"type":"VEC3"},{"bufferView":111,"componentType":5126,"count":24,"max":[0.41719186305999756,12.014249801635742,0.3435854911804199],"min":[-0.8061022758483887,10.790953636169434,0.2435854971408844],"type":"VEC3"},{"bufferView":112,"componentType":5126,"count":24,"type":"VEC2"},{"bufferView":113,"componentType":5123,"count":36,"type":"SCALAR"},{"bufferView":114,"componentType":5126,"count":24,"type":"VEC3"},{"bufferView":115,"componentType":5126,"count":24,"max":[-0.27813029289245605,12.709569931030273,0.3435854911804199],"min":[-1.5014243125915527,11.486274719238281,0.2435854971408844],"type":"VEC3"},{"bufferView":116,"componentType":5126,"count":24,"type":"VEC2"},{"bufferView":117,"componentType":5126,"count":24,"type":"VEC3"},{"bufferView":118,"componentType":5126,"count":24,"max":[-0.9734524488449097,13.404891967773438,0.3435854911804199],"min":[-2.196746349334717,12.181596755981445,0.2435854971408844],"type":"VEC3"},{"bufferView":119,"componentType":5126,"count":24,"type":"VEC2"},{"bufferView":120,"componentType":5126,"count":24,"type":"VEC3"},{"bufferView":121,"componentType":5126,"count":24,"max":[-1.6687744855880737,14.100213050842285,0.3435854911804199],"min":[-2.892068386077881,12.876917839050293,0.2435854971408844],"type":"VEC3"},{"bufferView":122,"componentType":5126,"count":24,"type":"VEC2"},{"bufferView":123,"componentType":5126,"count":24,"type":"VEC3"},{"bufferView":124,"componentType":5126,"count":24,"max":[-2.364096164703369,14.795534133911133,0.3435854911804199],"min":[-3.587390422821045,13.57223892211914,0.2435854971408844],"type":"VEC3"},{"bufferView":125,"componentType":5126,"count":24,"type":"VEC2"},{"bufferView":126,"componentType":5126,"count":24,"type":"VEC3"},{"bufferView":127,"componentType":5126,"count":24,"max":[-3.0594186782836914,15.490856170654297,0.3435854911804199],"min":[-4.282712459564209,14.267560958862305,0.2435854971408844],"type":"VEC3"},{"bufferView":128,"componentType":5126,"count":24,"type":"VEC2"},{"bufferView":129,"componentType":5126,"count":24,"type":"VEC3"},{"bufferView":130,"componentType":5126,"count":24,"max":[-3.7547402381896973,16.186176300048828,0.3435854911804199],"min":[-4.978034496307373,14.962881088256836,0.2435854971408844],"type":"VEC3"},{"bufferView":131,"componentType":5126,"count":24,"type":"VEC2"},{"bufferView":132,"componentType":5126,"count":24,"type":"VEC3"},{"bufferView":133,"componentType":5126,"count":24,"max":[5.161879539489746,14.849746704101562,0.3435854911804199],"min":[0.9192388653755188,10.60710620880127,0.2435854971408844],"type":"VEC3"},{"bufferView":134,"componentType":5126,"count":24,"type":"VEC2"},{"bufferView":135,"componentType":5126,"count":24,"type":"VEC3"},{"bufferView":136,"componentType":5126,"count":24,"max":[6.257894992828369,13.753730773925781,0.3435854911804199],"min":[2.015254259109497,9.511090278625488,0.2435854971408844],"type":"VEC3"},{"bufferView":137,"componentType":5126,"count":24,"type":"VEC2"},{"bufferView":138,"componentType":5126,"count":24,"type":"VEC3"},{"bufferView":139,"componentType":5126,"count":24,"max":[4.949746131896973,8.98076057434082,0.3435854911804199],"min":[0.7071065902709961,4.738119125366211,0.2435854971408844],"type":"VEC3"},{"bufferView":140,"componentType":5126,"count":24,"type":"VEC2"},{"bufferView":141,"componentType":5126,"count":24,"type":"VEC3"},{"bufferView":142,"componentType":5126,"count":24,"max":[3.8537302017211914,7.8847455978393555,0.3435854911804199],"min":[-0.38890916109085083,3.642104148864746,0.2435854971408844],"type":"VEC3"},{"bufferView":143,"componentType":5126,"count":24,"type":"VEC2"},{"bufferView":144,"componentType":5126,"count":24,"type":"VEC3"},{"bufferView":145,"componentType":5126,"count":24,"max":[-0.9192386865615845,9.192892074584961,0.3435854911804199],"min":[-5.1618781089782715,4.95025110244751,0.2435854971408844],"type":"VEC3"},{"bufferView":146,"componentType":5126,"count":24,"type":"VEC2"},{"bufferView":147,"componentType":5126,"count":24,"type":"VEC3"},{"bufferView":148,"componentType":5126,"count":24,"max":[-2.015254497528076,10.288908004760742,0.3435854911804199],"min":[-6.257894039154053,6.046266555786133,0.2435854971408844],"type":"VEC3"},{"bufferView":149,"componentType":5126,"count":24,"type":"VEC2"},{"bufferView":150,"componentType":5126,"count":24,"type":"VEC3"},{"bufferView":151,"componentType":5126,"count":24,"max":[-0.707107424736023,15.06187629699707,0.3435854911804199],"min":[-4.9497504234313965,10.81923770904541,0.2435854971408844],"type":"VEC3"},{"bufferView":152,"componentType":5126,"count":24,"type":"VEC2"},{"bufferView":153,"componentType":5126,"count":24,"type":"VEC3"},{"bufferView":154,"componentType":5126,"count":24,"max":[0.3889074921607971,16.15789222717285,0.3435854911804199],"min":[-3.8537354469299316,11.915254592895508,0.2435854971408844],"type":"VEC3"},{"bufferView":155,"componentType":5126,"count":24,"type":"VEC2"},{"bufferView":156,"componentType":5126,"count":24,"type":"VEC3"},{"bufferView":157,"componentType":5126,"count":24,"max":[0.25,10.149999618530273,0.14358550310134888],"min":[-0.25,9.649999618530273,-1.0564144849777222],"type":"VEC3"},{"bufferView":158,"componentType":5126,"count":24,"type":"VEC2"},{"bufferView":159,"componentType":5126,"count":24,"type":"VEC3"},{"bufferView":160,"componentType":5126,"count":24,"max":[5.161879539489746,15.061878204345703,0.363585501909256],"min":[0.070710688829422,9.970710754394531,0.22358550131320953],"type":"VEC3"},{"bufferView":161,"componentType":5126,"count":24,"type":"VEC2"},{"bufferView":162,"componentType":5126,"count":24,"type":"VEC3"},{"bufferView":163,"componentType":5126,"count":24,"max":[5.1618781089782715,9.829288482666016,0.363585501909256],"min":[0.07071062177419662,4.738119125366211,0.22358550131320953],"type":"VEC3"},{"bufferView":164,"componentType":5126,"count":24,"type":"VEC2"},{"bufferView":165,"componentType":5126,"count":24,"type":"VEC3"},{"bufferView":166,"componentType":5126,"count":24,"max":[-0.07071062177419662,9.829288482666016,0.363585501909256],"min":[-5.1618781089782715,4.738119125366211,0.22358550131320953],"type":"VEC3"},{"bufferView":167,"componentType":5126,"count":24,"type":"VEC2"},{"bufferView":168,"componentType":5126,"count":24,"type":"VEC3"},{"bufferView":169,"componentType":5126,"count":24,"max":[-0.07071079313755035,15.06187629699707,0.363585501909256],"min":[-5.161882400512695,9.970709800720215,0.22358550131320953],"type":"VEC3"},{"bufferView":170,"componentType":5126,"count":24,"type":"VEC2"},{"bufferView":171,"componentType":5126,"count":40,"type":"VEC3"},{"bufferView":172,"componentType":5126,"count":40,"max":[2.9564144611358643,9,0],"min":[-2.9564144611358643,0,-5.9128289222717285],"type":"VEC3"},{"bufferView":173,"componentType":5126,"count":40,"type":"VEC2"},{"bufferView":174,"componentType":5126,"count":402,"type":"VEC3"},{"bufferView":175,"componentType":5126,"count":402,"max":[0.44381028413772583,2.6207287311553955,0.0923665463924408],"min":[-0.44381028413772583,1.01604425907135,-0.2520223557949066],"type":"VEC3"},{"bufferView":176,"componentType":5126,"count":402,"type":"VEC2"},{"bufferView":177,"componentType":5123,"count":786,"type":"SCALAR"},{"bufferView":178,"componentType":5126,"count":83,"type":"VEC3"},{"bufferView":179,"componentType":5126,"count":83,"max":[0.277061402797699,2.478931427001953,0.003888234496116638],"min":[-0.27893951535224915,1.0875728130340576,0.0038879886269569397],"type":"VEC3"},{"bufferView":180,"componentType":5123,"count":153,"type":"SCALAR"}],"asset":{"generator":"Khronos glTF Blender I/O v5.2.40","version":"2.0"},"bufferViews":[{"buffer":0,"byteOffset":0,"byteLength":384,"target":34962},{"buffer":0,"byteOffset":384,"byteLength":384,"target":34962},{"buffer":0,"byteOffset":768,"byteLength":256,"target":34962},{"buffer":0,"byteOffset":1024,"byteLength":96,"target":34963},{"buffer":0,"byteOffset":1120,"byteLength":384,"target":34962},{"buffer":0,"byteOffset":1504,"byteLength":384,"target":34962},{"buffer":0,"byteOffset":1888,"byteLength":256,"target":34962},{"buffer":0,"byteOffset":2144,"byteLength":48,"target":34962},{"buffer":0,"byteOffset":2192,"byteLength":48,"target":34962},{"buffer":0,"byteOffset":2240,"byteLength":12,"target":34963},{"buffer":0,"byteOffset":2252,"byteLength":48,"target":34962},{"buffer":0,"byteOffset":2300,"byteLength":48,"target":34962},{"buffer":0,"byteOffset":2348,"byteLength":48,"target":34962},{"buffer":0,"byteOffset":2396,"byteLength":48,"target":34962},{"buffer":0,"byteOffset":2444,"byteLength":48,"target":34962},{"buffer":0,"byteOffset":2492,"byteLength":48,"target":34962},{"buffer":0,"byteOffset":2540,"byteLength":960,"target":34962},{"buffer":0,"byteOffset":3500,"byteLength":960,"target":34962},{"buffer":0,"byteOffset":4460,"byteLength":640,"target":34962},{"buffer":0,"byteOffset":5100,"byteLength":288,"target":34963},{"buffer":0,"byteOffset":5388,"byteLength":288,"target":34962},{"buffer":0,"byteOffset":5676,"byteLength":288,"target":34962},{"buffer":0,"byteOffset":5964,"byteLength":72,"target":34963},{"buffer":0,"byteOffset":6036,"byteLength":480,"target":34962},{"buffer":0,"byteOffset":6516,"byteLength":480,"target":34962},{"buffer":0,"byteOffset":6996,"byteLength":320,"target":34962},{"buffer":0,"byteOffset":7316,"byteLength":132,"target":34963},{"buffer":0,"byteOffset":7448,"byteLength":8928,"target":34962},{"buffer":0,"byteOffset":16376,"byteLength":8928,"target":34962},{"buffer":0,"byteOffset":25304,"byteLength":5952,"target":34962},{"buffer":0,"byteOffset":31256,"byteLength":2724,"target":34963},{"buffer":0,"byteOffset":33980,"byteLength":336,"target":34962},{"buffer":0,"byteOffset":34316,"byteLength":336,"target":34962},{"buffer":0,"byteOffset":34652,"byteLength":96,"target":34963},{"buffer":0,"byteOffset":34748,"byteLength":4320,"target":34962},{"buffer":0,"byteOffset":39068,"byteLength":4320,"target":34962},{"buffer":0,"byteOffset":43388,"byteLength":2880,"target":34962},{"buffer":0,"byteOffset":46268,"byteLength":1908,"target":34963},{"buffer":0,"byteOffset":48176,"byteLength":384,"target":34962},{"buffer":0,"byteOffset":48560,"byteLength":384,"target":34962},{"buffer":0,"byteOffset":48944,"byteLength":256,"target":34962},{"buffer":0,"byteOffset":49200,"byteLength":288,"target":34962},{"buffer":0,"byteOffset":49488,"byteLength":288,"target":34962},{"buffer":0,"byteOffset":49776,"byteLength":72,"target":34963},{"buffer":0,"byteOffset":49848,"byteLength":288,"target":34962},{"buffer":0,"byteOffset":50136,"byteLength":288,"target":34962},{"buffer":0,"byteOffset":50424,"byteLength":192,"target":34962},{"buffer":0,"byteOffset":50616,"byteLength":72,"target":34963},{"buffer":0,"byteOffset":50688,"byteLength":288,"target":34962},{"buffer":0,"byteOffset":50976,"byteLength":288,"target":34962},{"buffer":0,"byteOffset":51264,"byteLength":192,"target":34962},{"buffer":0,"byteOffset":51456,"byteLength":288,"target":34962},{"buffer":0,"byteOffset":51744,"byteLength":288,"target":34962},{"buffer":0,"byteOffset":52032,"byteLength":192,"target":34962},{"buffer":0,"byteOffset":52224,"byteLength":288,"target":34962},{"buffer":0,"byteOffset":52512,"byteLength":288,"target":34962},{"buffer":0,"byteOffset":52800,"byteLength":192,"target":34962},{"buffer":0,"byteOffset":52992,"byteLength":288,"target":34962},{"buffer":0,"byteOffset":53280,"byteLength":288,"target":34962},{"buffer":0,"byteOffset":53568,"byteLength":192,"target":34962},{"buffer":0,"byteOffset":53760,"byteLength":288,"target":34962},{"buffer":0,"byteOffset":54048,"byteLength":288,"target":34962},{"buffer":0,"byteOffset":54336,"byteLength":192,"target":34962},{"buffer":0,"byteOffset":54528,"byteLength":288,"target":34962},{"buffer":0,"byteOffset":54816,"byteLength":288,"target":34962},{"buffer":0,"byteOffset":55104,"byteLength":192,"target":34962},{"buffer":0,"byteOffset":55296,"byteLength":288,"target":34962},{"buffer":0,"byteOffset":55584,"byteLength":288,"target":34962},{"buffer":0,"byteOffset":55872,"byteLength":192,"target":34962},{"buffer":0,"byteOffset":56064,"byteLength":72,"target":34963},{"buffer":0,"byteOffset":56136,"byteLength":288,"target":34962},{"buffer":0,"byteOffset":56424,"byteLength":288,"target":34962},{"buffer":0,"byteOffset":56712,"byteLength":192,"target":34962},{"buffer":0,"byteOffset":56904,"byteLength":288,"target":34962},{"buffer":0,"byteOffset":57192,"byteLength":288,"target":34962},{"buffer":0,"byteOffset":57480,"byteLength":192,"target":34962},{"buffer":0,"byteOffset":57672,"byteLength":288,"target":34962},{"buffer":0,"byteOffset":57960,"byteLength":288,"target":34962},{"buffer":0,"byteOffset":58248,"byteLength":192,"target":34962},{"buffer":0,"byteOffset":58440,"byteLength":288,"target":34962},{"buffer":0,"byteOffset":58728,"byteLength":288,"target":34962},{"buffer":0,"byteOffset":59016,"byteLength":192,"target":34962},{"buffer":0,"byteOffset":59208,"byteLength":288,"target":34962},{"buffer":0,"byteOffset":59496,"byteLength":288,"target":34962},{"buffer":0,"byteOffset":59784,"byteLength":192,"target":34962},{"buffer":0,"byteOffset":59976,"byteLength":288,"target":34962},{"buffer":0,"byteOffset":60264,"byteLength":288,"target":34962},{"buffer":0,"byteOffset":60552,"byteLength":192,"target":34962},{"buffer":0,"byteOffset":60744,"byteLength":288,"target":34962},{"buffer":0,"byteOffset":61032,"byteLength":288,"target":34962},{"buffer":0,"byteOffset":61320,"byteLength":192,"target":34962},{"buffer":0,"byteOffset":61512,"byteLength":72,"target":34963},{"buffer":0,"byteOffset":61584,"byteLength":288,"target":34962},{"buffer":0,"byteOffset":61872,"byteLength":288,"target":34962},{"buffer":0,"byteOffset":62160,"byteLength":192,"target":34962},{"buffer":0,"byteOffset":62352,"byteLength":288,"target":34962},{"buffer":0,"byteOffset":62640,"byteLength":288,"target":34962},{"buffer":0,"byteOffset":62928,"byteLength":192,"target":34962},{"buffer":0,"byteOffset":63120,"byteLength":288,"target":34962},{"buffer":0,"byteOffset":63408,"byteLength":288,"target":34962},{"buffer":0,"byteOffset":63696,"byteLength":192,"target":34962},{"buffer":0,"byteOffset":63888,"byteLength":288,"target":34962},{"buffer":0,"byteOffset":64176,"byteLength":288,"target":34962},{"buffer":0,"byteOffset":64464,"byteLength":192,"target":34962},{"buffer":0,"byteOffset":64656,"byteLength":288,"target":34962},{"buffer":0,"byteOffset":64944,"byteLength":288,"target":34962},{"buffer":0,"byteOffset":65232,"byteLength":192,"target":34962},{"buffer":0,"byteOffset":65424,"byteLength":288,"target":34962},{"buffer":0,"byteOffset":65712,"byteLength":288,"target":34962},{"buffer":0,"byteOffset":66000,"byteLength":192,"target":34962},{"buffer":0,"byteOffset":66192,"byteLength":288,"target":34962},{"buffer":0,"byteOffset":66480,"byteLength":288,"target":34962},{"buffer":0,"byteOffset":66768,"byteLength":192,"target":34962},{"buffer":0,"byteOffset":66960,"byteLength":72,"target":34963},{"buffer":0,"byteOffset":67032,"byteLength":288,"target":34962},{"buffer":0,"byteOffset":67320,"byteLength":288,"target":34962},{"buffer":0,"byteOffset":67608,"byteLength":192,"target":34962},{"buffer":0,"byteOffset":67800,"byteLength":288,"target":34962},{"buffer":0,"byteOffset":68088,"byteLength":288,"target":34962},{"buffer":0,"byteOffset":68376,"byteLength":192,"target":34962},{"buffer":0,"byteOffset":68568,"byteLength":288,"target":34962},{"buffer":0,"byteOffset":68856,"byteLength":288,"target":34962},{"buffer":0,"byteOffset":69144,"byteLength":192,"target":34962},{"buffer":0,"byteOffset":69336,"byteLength":288,"target":34962},{"buffer":0,"byteOffset":69624,"byteLength":288,"target":34962},{"buffer":0,"byteOffset":69912,"byteLength":192,"target":34962},{"buffer":0,"byteOffset":70104,"byteLength":288,"target":34962},{"buffer":0,"byteOffset":70392,"byteLength":288,"target":34962},{"buffer":0,"byteOffset":70680,"byteLength":192,"target":34962},{"buffer":0,"byteOffset":70872,"byteLength":288,"target":34962},{"buffer":0,"byteOffset":71160,"byteLength":288,"target":34962},{"buffer":0,"byteOffset":71448,"byteLength":192,"target":34962},{"buffer":0,"byteOffset":71640,"byteLength":288,"target":34962},{"buffer":0,"byteOffset":71928,"byteLength":288,"target":34962},{"buffer":0,"byteOffset":72216,"byteLength":192,"target":34962},{"buffer":0,"byteOffset":72408,"byteLength":288,"target":34962},{"buffer":0,"byteOffset":72696,"byteLength":288,"target":34962},{"buffer":0,"byteOffset":72984,"byteLength":192,"target":34962},{"buffer":0,"byteOffset":73176,"byteLength":288,"target":34962},{"buffer":0,"byteOffset":73464,"byteLength":288,"target":34962},{"buffer":0,"byteOffset":73752,"byteLength":192,"target":34962},{"buffer":0,"byteOffset":73944,"byteLength":288,"target":34962},{"buffer":0,"byteOffset":74232,"byteLength":288,"target":34962},{"buffer":0,"byteOffset":74520,"byteLength":192,"target":34962},{"buffer":0,"byteOffset":74712,"byteLength":288,"target":34962},{"buffer":0,"byteOffset":75000,"byteLength":288,"target":34962},{"buffer":0,"byteOffset":75288,"byteLength":192,"target":34962},{"buffer":0,"byteOffset":75480,"byteLength":288,"target":34962},{"buffer":0,"byteOffset":75768,"byteLength":288,"target":34962},{"buffer":0,"byteOffset":76056,"byteLength":192,"target":34962},{"buffer":0,"byteOffset":76248,"byteLength":288,"target":34962},{"buffer":0,"byteOffset":76536,"byteLength":288,"target":34962},{"buffer":0,"byteOffset":76824,"byteLength":192,"target":34962},{"buffer":0,"byteOffset":77016,"byteLength":288,"target":34962},{"buffer":0,"byteOffset":77304,"byteLength":288,"target":34962},{"buffer":0,"byteOffset":77592,"byteLength":192,"target":34962},{"buffer":0,"byteOffset":77784,"byteLength":288,"target":34962},{"buffer":0,"byteOffset":78072,"byteLength":288,"target":34962},{"buffer":0,"byteOffset":78360,"byteLength":192,"target":34962},{"buffer":0,"byteOffset":78552,"byteLength":288,"target":34962},{"buffer":0,"byteOffset":78840,"byteLength":288,"target":34962},{"buffer":0,"byteOffset":79128,"byteLength":192,"target":34962},{"buffer":0,"byteOffset":79320,"byteLength":288,"target":34962},{"buffer":0,"byteOffset":79608,"byteLength":288,"target":34962},{"buffer":0,"byteOffset":79896,"byteLength":192,"target":34962},{"buffer":0,"byteOffset":80088,"byteLength":288,"target":34962},{"buffer":0,"byteOffset":80376,"byteLength":288,"target":34962},{"buffer":0,"byteOffset":80664,"byteLength":192,"target":34962},{"buffer":0,"byteOffset":80856,"byteLength":288,"target":34962},{"buffer":0,"byteOffset":81144,"byteLength":288,"target":34962},{"buffer":0,"byteOffset":81432,"byteLength":192,"target":34962},{"buffer":0,"byteOffset":81624,"byteLength":480,"target":34962},{"buffer":0,"byteOffset":82104,"byteLength":480,"target":34962},{"buffer":0,"byteOffset":82584,"byteLength":320,"target":34962},{"buffer":0,"byteOffset":82904,"byteLength":4824,"target":34962},{"buffer":0,"byteOffset":87728,"byteLength":4824,"target":34962},{"buffer":0,"byteOffset":92552,"byteLength":3216,"target":34962},{"buffer":0,"byteOffset":95768,"byteLength":1572,"target":34963},{"buffer":0,"byteOffset":97340,"byteLength":996,"target":34962},{"buffer":0,"byteOffset":98336,"byteLength":996,"target":34962},{"buffer":0,"byteOffset":99332,"byteLength":306,"target":34963}],"buffers":[{"byteLength":99640,"uri":"windmill.bin"}],"images":[{"name":"T_Plaster_Luma","uri":"../village/T_Plaster_Luma.png"},{"name":"T_RoundTiles_Luma","uri":"../village/T_RoundTiles_Luma.png"},{"name":"T_UnevenBrick_BaseColor","uri":"../village/T_UnevenBrick_BaseColor.png"},{"name":"T_WoodTrim_BaseColor","uri":"../village/T_WoodTrim_BaseColor.png"}],"materials":[{"doubleSided":true,"name":"Wood_mid","pbrMetallicRoughness":{"baseColorFactor":[0.5179,0.5489,0.5787,1.0],"baseColorTexture":{"index":3},"metallicFactor":0,"roughnessFactor":0.8500000238418579}},{"doubleSided":true,"name":"Cloth2","pbrMetallicRoughness":{"baseColorFactor":[0.7484140992164612,0.6382831931114197,0.4200332760810852,1],"metallicFactor":0,"roughnessFactor":0.8999999761581421}},{"doubleSided":true,"name":"Tiles_brown","pbrMetallicRoughness":{"baseColorFactor":[0.3822,0.1486,0.0653,1.0],"baseColorTexture":{"index":1},"metallicFactor":0,"roughnessFactor":0.699999988079071}},{"doubleSided":true,"name":"Iron","pbrMetallicRoughness":{"baseColorFactor":[0.0134117491543293,0.0134117491543293,0.015325203537940979,1],"metallicFactor":0,"roughnessFactor":0.5}},{"doubleSided":true,"name":"Glass","pbrMetallicRoughness":{"baseColorFactor":[0.03310476616024971,0.05087608844041824,0.07828831672668457,1],"metallicFactor":0,"roughnessFactor":0.20000000298023224}},{"doubleSided":true,"name":"Stone","pbrMetallicRoughness":{"baseColorFactor":[1.0,0.9974,0.9977,1.0],"baseColorTexture":{"index":2},"metallicFactor":0,"roughnessFactor":0.8500000238418579}},{"doubleSided":true,"name":"Plaster_white","pbrMetallicRoughness":{"baseColorFactor":[1.0,1.0,0.9092,1.0],"baseColorTexture":{"index":0},"metallicFactor":0,"roughnessFactor":0.8500000238418579}}],"meshes":[{"name":"Band","primitives":[{"attributes":{"NORMAL":0,"POSITION":1,"TEXCOORD_0":2},"indices":3,"material":0}]},{"name":"Band.001","primitives":[{"attributes":{"NORMAL":4,"POSITION":5,"TEXCOORD_0":6},"indices":3,"material":0}]},{"name":"Canvas","primitives":[{"attributes":{"NORMAL":7,"POSITION":8},"indices":9,"material":1}]},{"name":"Canvas.001","primitives":[{"attributes":{"NORMAL":10,"POSITION":11},"indices":9,"material":1}]},{"name":"Canvas.002","primitives":[{"attributes":{"NORMAL":12,"POSITION":13},"indices":9,"material":1}]},{"name":"Canvas.003","primitives":[{"attributes":{"NORMAL":14,"POSITION":15},"indices":9,"material":1}]},{"name":"Cap","primitives":[{"attributes":{"NORMAL":16,"POSITION":17,"TEXCOORD_0":18},"indices":19,"material":2}]},{"name":"CapFinial","primitives":[{"attributes":{"NORMAL":20,"POSITION":21},"indices":22,"material":3}]},{"name":"CapRing","primitives":[{"attributes":{"NORMAL":23,"POSITION":24,"TEXCOORD_0":25},"indices":26,"material":0}]},{"name":"kit_Door_1_Round","primitives":[{"attributes":{"NORMAL":27,"POSITION":28,"TEXCOORD_0":29},"indices":30,"material":0},{"attributes":{"NORMAL":31,"POSITION":32},"indices":33,"material":4}]},{"name":"kit_DoorFrame_Round_WoodDark","primitives":[{"attributes":{"NORMAL":34,"POSITION":35,"TEXCOORD_0":36},"indices":37,"material":0}]},{"name":"Foot","primitives":[{"attributes":{"NORMAL":38,"POSITION":39,"TEXCOORD_0":40},"indices":3,"material":5}]},{"name":"Hub","primitives":[{"attributes":{"NORMAL":41,"POSITION":42},"indices":43,"material":3}]},{"name":"SailBar","primitives":[{"attributes":{"NORMAL":44,"POSITION":45,"TEXCOORD_0":46},"indices":47,"material":0}]},{"name":"SailBar.001","primitives":[{"attributes":{"NORMAL":48,"POSITION":49,"TEXCOORD_0":50},"indices":47,"material":0}]},{"name":"SailBar.002","primitives":[{"attributes":{"NORMAL":51,"POSITION":52,"TEXCOORD_0":53},"indices":47,"material":0}]},{"name":"SailBar.003","primitives":[{"attributes":{"NORMAL":54,"POSITION":55,"TEXCOORD_0":56},"indices":47,"material":0}]},{"name":"SailBar.004","primitives":[{"attributes":{"NORMAL":57,"POSITION":58,"TEXCOORD_0":59},"indices":47,"material":0}]},{"name":"SailBar.005","primitives":[{"attributes":{"NORMAL":60,"POSITION":61,"TEXCOORD_0":62},"indices":47,"material":0}]},{"name":"SailBar.006","primitives":[{"attributes":{"NORMAL":63,"POSITION":64,"TEXCOORD_0":65},"indices":47,"material":0}]},{"name":"SailBar.007","primitives":[{"attributes":{"NORMAL":66,"POSITION":67,"TEXCOORD_0":68},"indices":69,"material":0}]},{"name":"SailBar.008","primitives":[{"attributes":{"NORMAL":70,"POSITION":71,"TEXCOORD_0":72},"indices":69,"material":0}]},{"name":"SailBar.009","primitives":[{"attributes":{"NORMAL":73,"POSITION":74,"TEXCOORD_0":75},"indices":69,"material":0}]},{"name":"SailBar.010","primitives":[{"attributes":{"NORMAL":76,"POSITION":77,"TEXCOORD_0":78},"indices":69,"material":0}]},{"name":"SailBar.011","primitives":[{"attributes":{"NORMAL":79,"POSITION":80,"TEXCOORD_0":81},"indices":69,"material":0}]},{"name":"SailBar.012","primitives":[{"attributes":{"NORMAL":82,"POSITION":83,"TEXCOORD_0":84},"indices":69,"material":0}]},{"name":"SailBar.013","primitives":[{"attributes":{"NORMAL":85,"POSITION":86,"TEXCOORD_0":87},"indices":69,"material":0}]},{"name":"SailBar.014","primitives":[{"attributes":{"NORMAL":88,"POSITION":89,"TEXCOORD_0":90},"indices":91,"material":0}]},{"name":"SailBar.015","primitives":[{"attributes":{"NORMAL":92,"POSITION":93,"TEXCOORD_0":94},"indices":91,"material":0}]},{"name":"SailBar.016","primitives":[{"attributes":{"NORMAL":95,"POSITION":96,"TEXCOORD_0":97},"indices":91,"material":0}]},{"name":"SailBar.017","primitives":[{"attributes":{"NORMAL":98,"POSITION":99,"TEXCOORD_0":100},"indices":91,"material":0}]},{"name":"SailBar.018","primitives":[{"attributes":{"NORMAL":101,"POSITION":102,"TEXCOORD_0":103},"indices":91,"material":0}]},{"name":"SailBar.019","primitives":[{"attributes":{"NORMAL":104,"POSITION":105,"TEXCOORD_0":106},"indices":91,"material":0}]},{"name":"SailBar.020","primitives":[{"attributes":{"NORMAL":107,"POSITION":108,"TEXCOORD_0":109},"indices":91,"material":0}]},{"name":"SailBar.021","primitives":[{"attributes":{"NORMAL":110,"POSITION":111,"TEXCOORD_0":112},"indices":113,"material":0}]},{"name":"SailBar.022","primitives":[{"attributes":{"NORMAL":114,"POSITION":115,"TEXCOORD_0":116},"indices":113,"material":0}]},{"name":"SailBar.023","primitives":[{"attributes":{"NORMAL":117,"POSITION":118,"TEXCOORD_0":119},"indices":113,"material":0}]},{"name":"SailBar.024","primitives":[{"attributes":{"NORMAL":120,"POSITION":121,"TEXCOORD_0":122},"indices":113,"material":0}]},{"name":"SailBar.025","primitives":[{"attributes":{"NORMAL":123,"POSITION":124,"TEXCOORD_0":125},"indices":113,"material":0}]},{"name":"SailBar.026","primitives":[{"attributes":{"NORMAL":126,"POSITION":127,"TEXCOORD_0":128},"indices":113,"material":0}]},{"name":"SailBar.027","primitives":[{"attributes":{"NORMAL":129,"POSITION":130,"TEXCOORD_0":131},"indices":113,"material":0}]},{"name":"SailRail","primitives":[{"attributes":{"NORMAL":132,"POSITION":133,"TEXCOORD_0":134},"indices":47,"material":0}]},{"name":"SailRail.001","primitives":[{"attributes":{"NORMAL":135,"POSITION":136,"TEXCOORD_0":137},"indices":47,"material":0}]},{"name":"SailRail.002","primitives":[{"attributes":{"NORMAL":138,"POSITION":139,"TEXCOORD_0":140},"indices":69,"material":0}]},{"name":"SailRail.003","primitives":[{"attributes":{"NORMAL":141,"POSITION":142,"TEXCOORD_0":143},"indices":69,"material":0}]},{"name":"SailRail.004","primitives":[{"attributes":{"NORMAL":144,"POSITION":145,"TEXCOORD_0":146},"indices":91,"material":0}]},{"name":"SailRail.005","primitives":[{"attributes":{"NORMAL":147,"POSITION":148,"TEXCOORD_0":149},"indices":91,"material":0}]},{"name":"SailRail.006","primitives":[{"attributes":{"NORMAL":150,"POSITION":151,"TEXCOORD_0":152},"indices":113,"material":0}]},{"name":"SailRail.007","primitives":[{"attributes":{"NORMAL":153,"POSITION":154,"TEXCOORD_0":155},"indices":113,"material":0}]},{"name":"Shaft","primitives":[{"attributes":{"NORMAL":156,"POSITION":157,"TEXCOORD_0":158},"indices":43,"material":0}]},{"name":"Stock","primitives":[{"attributes":{"NORMAL":159,"POSITION":160,"TEXCOORD_0":161},"indices":47,"material":0}]},{"name":"Stock.001","primitives":[{"attributes":{"NORMAL":162,"POSITION":163,"TEXCOORD_0":164},"indices":69,"material":0}]},{"name":"Stock.002","primitives":[{"attributes":{"NORMAL":165,"POSITION":166,"TEXCOORD_0":167},"indices":91,"material":0}]},{"name":"Stock.003","primitives":[{"attributes":{"NORMAL":168,"POSITION":169,"TEXCOORD_0":170},"indices":113,"material":0}]},{"name":"Tower","primitives":[{"attributes":{"NORMAL":171,"POSITION":172,"TEXCOORD_0":173},"indices":26,"material":6}]},{"name":"kit_Window_Thin_Round1.001","primitives":[{"attributes":{"NORMAL":174,"POSITION":175,"TEXCOORD_0":176},"indices":177,"material":0},{"attributes":{"NORMAL":178,"POSITION":179},"indices":180,"material":4}]}],"nodes":[{"mesh":0,"name":"Band.003"},{"mesh":1,"name":"Band.004"},{"mesh":2,"name":"Canvas.027"},{"mesh":3,"name":"Canvas.038"},{"mesh":4,"name":"Canvas.049"},{"mesh":5,"name":"Canvas.060"},{"mesh":6,"name":"Cap.013"},{"mesh":7,"name":"CapFinial.014"},{"mesh":8,"name":"CapRing.012"},{"mesh":9,"name":"Door_1_Round.006","translation":[-0.550000011920929,0,-0.10000000149011612]},{"mesh":10,"name":"DoorFrame_Round_WoodDark.005","translation":[0,0,-0.07999999821186066]},{"mesh":11,"name":"Foot.001"},{"mesh":12,"name":"Hub.016"},{"mesh":13,"name":"SailBar.020"},{"mesh":14,"name":"SailBar.021"},{"mesh":15,"name":"SailBar.022"},{"mesh":16,"name":"SailBar.023"},{"mesh":17,"name":"SailBar.024"},{"mesh":18,"name":"SailBar.025"},{"mesh":19,"name":"SailBar.026"},{"mesh":20,"name":"SailBar.031"},{"mesh":21,"name":"SailBar.032"},{"mesh":22,"name":"SailBar.033"},{"mesh":23,"name":"SailBar.034"},{"mesh":24,"name":"SailBar.035"},{"mesh":25,"name":"SailBar.036"},{"mesh":26,"name":"SailBar.037"},{"mesh":27,"name":"SailBar.042"},{"mesh":28,"name":"SailBar.043"},{"mesh":29,"name":"SailBar.044"},{"mesh":30,"name":"SailBar.045"},{"mesh":31,"name":"SailBar.046"},{"mesh":32,"name":"SailBar.047"},{"mesh":33,"name":"SailBar.048"},{"mesh":34,"name":"SailBar.053"},{"mesh":35,"name":"SailBar.054"},{"mesh":36,"name":"SailBar.055"},{"mesh":37,"name":"SailBar.056"},{"mesh":38,"name":"SailBar.057"},{"mesh":39,"name":"SailBar.058"},{"mesh":40,"name":"SailBar.059"},{"mesh":41,"name":"SailRail.018"},{"mesh":42,"name":"SailRail.019"},{"mesh":43,"name":"SailRail.029"},{"mesh":44,"name":"SailRail.030"},{"mesh":45,"name":"SailRail.040"},{"mesh":46,"name":"SailRail.041"},{"mesh":47,"name":"SailRail.051"},{"mesh":48,"name":"SailRail.052"},{"mesh":49,"name":"Shaft.015"},{"mesh":50,"name":"Stock.017"},{"mesh":51,"name":"Stock.028"},{"mesh":52,"name":"Stock.039"},{"mesh":53,"name":"Stock.050"},{"mesh":54,"name":"Tower.002"},{"mesh":55,"name":"Window_Thin_Round1.007","rotation":[0,0.7071068286895752,0,0.7071068286895752],"translation":[2.5118212699890137,4.199999809265137,-2.9564144611358643]},{"mesh":55,"name":"Window_Thin_Round1.008","rotation":[0,-0.7071068286895752,0,0.7071068286895752],"translation":[-2.5118212699890137,4.199999809265137,-2.9564144611358643]},{"mesh":55,"name":"Window_Thin_Round1.009","rotation":[0,0.3826834559440613,0,0.9238795638084412],"translation":[1.587400197982788,6.800000190734863,-1.3690142631530762]},{"mesh":55,"name":"Window_Thin_Round1.010","rotation":[0,-0.38268348574638367,0,0.9238795042037964],"translation":[-1.587400197982788,6.800000190734863,-1.3690142631530762]},{"mesh":55,"name":"Window_Thin_Round1.011","rotation":[0,-1,0,4.371138828673793e-08],"translation":[0,5.5,-5.334786415100098]}],"scene":0,"scenes":[{"name":"Scene","nodes":[0,1,2,3,4,5,6,7,8,9,10,11,12,13,14,15,16,17,18,19,20,21,22,23,24,25,26,27,28,29,30,31,32,33,34,35,36,37,38,39,40,41,42,43,44,45,46,47,48,49,50,51,52,53,54,55,56,57,58,59]}],"textures":[{"source":0},{"source":1},{"source":2},{"source":3}]}