{"accessors":[{"bufferView":0,"componentType":5126,"count":886,"type":"VEC3"},{"bufferView":1,"componentType":5126,"count":886,"max":[2.799999952316284,2.4000000953674316,0.892478346824646],"min":[-1.8799999952316284,0,-1.6799999475479126],"type":"VEC3"},{"bufferView":2,"componentType":5126,"count":886,"type":"VEC2"},{"bufferView":3,"componentType":5123,"count":1398,"type":"SCALAR"},{"bufferView":4,"componentType":5126,"count":24,"type":"VEC3"},{"bufferView":5,"componentType":5126,"count":24,"max":[2.0999999046325684,2.608287811279297,0.30000001192092896],"min":[-2.0999999046325684,1.8062503337860107,-1.935793161392212],"type":"VEC3"},{"bufferView":6,"componentType":5126,"count":24,"type":"VEC2"},{"bufferView":7,"componentType":5123,"count":36,"type":"SCALAR"}],"asset":{"generator":"Khronos glTF Blender I/O v5.2.40","version":"2.0"},"bufferViews":[{"buffer":0,"byteOffset":0,"byteLength":10632,"target":34962},{"buffer":0,"byteOffset":10632,"byteLength":10632,"target":34962},{"buffer":0,"byteOffset":21264,"byteLength":7088,"target":34962},{"buffer":0,"byteOffset":28352,"byteLength":2796,"target":34963},{"buffer":0,"byteOffset":31148,"byteLength":288,"target":34962},{"buffer":0,"byteOffset":31436,"byteLength":288,"target":34962},{"buffer":0,"byteOffset":31724,"byteLength":192,"target":34962},{"buffer":0,"byteOffset":31916,"byteLength":72,"target":34963}],"buffers":[{"byteLength":31988,"uri":"woodshed.bin"}],"images":[{"name":"T_RoundTiles_Luma","uri":"../village/T_RoundTiles_Luma.png"},{"name":"T_WoodTrim_BaseColor","uri":"../village/T_WoodTrim_BaseColor.png"}],"materials":[{"doubleSided":true,"name":"Wood_dark","pbrMetallicRoughness":{"baseColorFactor":[0.2329,0.2659,0.2944,1.0],"baseColorTexture":{"index":1},"metallicFactor":0,"roughnessFactor":0.8500000238418579}},{"doubleSided":true,"name":"HouseTiles","pbrMetallicRoughness":{"baseColorFactor":[0.3822,0.1486,0.0653,1.0],"baseColorTexture":{"index":0},"metallicFactor":0,"roughnessFactor":0.699999988079071}}],"meshes":[{"name":"Post","primitives":[{"attributes":{"NORMAL":0,"POSITION":1,"TEXCOORD_0":2},"indices":3,"material":0},{"attributes":{"NORMAL":4,"POSITION":5,"TEXCOORD_0":6},"indices":7,"material":1}]}],"nodes":[{"mesh":0,"name":"woodshed"}],"scene":0,"scenes":[{"name":"Scene","nodes":[0]}],"textures":[{"source":0},{"source":1}]}