{"accessors":[{"bufferView":0,"componentType":5126,"count":16,"type":"VEC3"},{"bufferView":1,"componentType":5126,"count":16,"max":[-0.11330120265483856,3.5999999046325684,0.5049999952316284],"min":[-0.2733011841773987,0,0.3449999690055847],"type":"VEC3"},{"bufferView":2,"componentType":5123,"count":24,"type":"SCALAR"},{"bufferView":3,"componentType":5126,"count":84,"type":"VEC3"},{"bufferView":4,"componentType":5126,"count":84,"max":[0.4129166007041931,4.279999732971191,1.125],"min":[-0.7995190620422363,2.319999933242798,-0.2750000059604645],"type":"VEC3"},{"bufferView":5,"componentType":5123,"count":108,"type":"SCALAR"},{"bufferView":6,"componentType":5126,"count":32,"type":"VEC3"},{"bufferView":7,"componentType":5126,"count":32,"max":[1.1066988706588745,1.399999976158142,0.02499997615814209],"min":[-1.1933012008666992,0,-0.3750000298023224],"type":"VEC3"},{"bufferView":8,"componentType":5123,"count":48,"type":"SCALAR"},{"bufferView":9,"componentType":5126,"count":108,"type":"VEC3"},{"bufferView":10,"componentType":5126,"count":108,"max":[1.829422950744629,3.5999999046325684,0.875],"min":[0.1839747428894043,0.5,-1.0250000953674316],"type":"VEC3"},{"bufferView":11,"componentType":5123,"count":180,"type":"SCALAR"},{"bufferView":12,"componentType":5126,"count":84,"type":"VEC3"},{"bufferView":13,"componentType":5126,"count":84,"max":[-0.35717952251434326,2.7225000858306885,0.5750000476837158],"min":[-1.829422950744629,1.2774999141693115,-1.125],"type":"VEC3"},{"bufferView":14,"componentType":5123,"count":108,"type":"SCALAR"}],"asset":{"generator":"Khronos glTF Blender I/O v5.2.40","version":"2.0"},"bufferViews":[{"buffer":0,"byteOffset":0,"byteLength":192,"target":34962},{"buffer":0,"byteOffset":192,"byteLength":192,"target":34962},{"buffer":0,"byteOffset":384,"byteLength":48,"target":34963},{"buffer":0,"byteOffset":432,"byteLength":1008,"target":34962},{"buffer":0,"byteOffset":1440,"byteLength":1008,"target":34962},{"buffer":0,"byteOffset":2448,"byteLength":216,"target":34963},{"buffer":0,"byteOffset":2664,"byteLength":384,"target":34962},{"buffer":0,"byteOffset":3048,"byteLength":384,"target":34962},{"buffer":0,"byteOffset":3432,"byteLength":96,"target":34963},{"buffer":0,"byteOffset":3528,"byteLength":1296,"target":34962},{"buffer":0,"byteOffset":4824,"byteLength":1296,"target":34962},{"buffer":0,"byteOffset":6120,"byteLength":360,"target":34963},{"buffer":0,"byteOffset":6480,"byteLength":1008,"target":34962},{"buffer":0,"byteOffset":7488,"byteLength":1008,"target":34962},{"buffer":0,"byteOffset":8496,"byteLength":216,"target":34963}],"buffers":[{"byteLength":8712,"uri":"young_trees.bin"}],"images":[],"materials":[{"doubleSided":true,"name":"Prop_BirchBark","pbrMetallicRoughness":{"baseColorFactor":[0.75,0.7300000190734863,0.6600000262260437,1],"metallicFactor":0,"roughnessFactor":0.8999999761581421}},{"doubleSided":true,"name":"Prop_CanopyLight","pbrMetallicRoughness":{"baseColorFactor":[0.11999999731779099,0.27000001072883606,0.05000000074505806,1],"metallicFactor":0,"roughnessFactor":0.8999999761581421}},{"doubleSided":true,"name":"Prop_Bark","pbrMetallicRoughness":{"baseColorFactor":[0.1599999964237213,0.07999999821186066,0.03500000014901161,1],"metallicFactor":0,"roughnessFactor":0.8999999761581421}},{"doubleSided":true,"name":"Prop_Needles","pbrMetallicRoughness":{"baseColorFactor":[0.029999999329447746,0.10999999940395355,0.03500000014901161,1],"metallicFactor":0,"roughnessFactor":0.8999999761581421}},{"doubleSided":true,"name":"Prop_Leaf","pbrMetallicRoughness":{"baseColorFactor":[0.07000000029802322,0.20000000298023224,0.03999999910593033,1],"metallicFactor":0,"roughnessFactor":0.8999999761581421}}],"meshes":[{"name":"young_trees","primitives":[{"attributes":{"NORMAL":0,"POSITION":1},"indices":2,"material":0},{"attributes":{"NORMAL":3,"POSITION":4},"indices":5,"material":1},{"attributes":{"NORMAL":6,"POSITION":7},"indices":8,"material":2},{"attributes":{"NORMAL":9,"POSITION":10},"indices":11,"material":3},{"attributes":{"NORMAL":12,"POSITION":13},"indices":14,"material":4}]}],"nodes":[{"mesh":0,"name":"young_trees"}],"scene":0,"scenes":[{"name":"Scene","nodes":[0]}],"textures":[]}