{"accessors":[{"bufferView":0,"componentType":5126,"count":332,"type":"VEC3"},{"bufferView":1,"componentType":5126,"count":332,"max":[6.997051239013672,10.217500686645508,6.802106857299805],"min":[-6.609861373901367,3.0601890087127686,-6.7341461181640625],"type":"VEC3"},{"bufferView":2,"componentType":5126,"count":332,"type":"VEC2"},{"bufferView":3,"componentType":5123,"count":498,"type":"SCALAR"},{"bufferView":4,"componentType":5126,"count":201,"type":"VEC3"},{"bufferView":5,"componentType":5126,"count":201,"max":[3.6163291931152344,5.637564659118652,3.6506712436676025],"min":[-2.927600860595703,-0.3345440924167633,-3.5423123836517334],"type":"VEC3"},{"bufferView":6,"componentType":5126,"count":201,"type":"VEC2"},{"bufferView":7,"componentType":5123,"count":324,"type":"SCALAR"},{"bufferView":8,"componentType":5126,"count":180,"type":"VEC3"},{"bufferView":9,"componentType":5126,"count":180,"max":[4.6483941078186035,8.252033233642578,4.599129676818848],"min":[-4.159495830535889,5.0489702224731445,-4.56484317779541],"type":"VEC3"},{"bufferView":10,"componentType":5123,"count":360,"type":"SCALAR"}],"asset":{"version":"2.0"},"bufferViews":[{"buffer":0,"byteOffset":0,"byteLength":3984,"target":34962},{"buffer":0,"byteOffset":3984,"byteLength":3984,"target":34962},{"buffer":0,"byteOffset":7968,"byteLength":2656,"target":34962},{"buffer":0,"byteOffset":10624,"byteLength":996,"target":34963},{"buffer":0,"byteOffset":11620,"byteLength":2412,"target":34962},{"buffer":0,"byteOffset":14032,"byteLength":2412,"target":34962},{"buffer":0,"byteOffset":16444,"byteLength":1608,"target":34962},{"buffer":0,"byteOffset":18052,"byteLength":648,"target":34963},{"buffer":0,"byteOffset":18700,"byteLength":2160,"target":34962},{"buffer":0,"byteOffset":20860,"byteLength":2160,"target":34962},{"buffer":0,"byteOffset":23020,"byteLength":720,"target":34963}],"buffers":[{"byteLength":23740,"uri":"foliage.oak_old.bin"}],"images":[{"name":"Leaves_NormalTree_C","uri":"../nature/Leaves_NormalTree_C.png"},{"name":"Bark_NormalTree","uri":"../nature/Bark_NormalTree.png"}],"materials":[{"alphaCutoff":0.3,"alphaMode":"MASK","doubleSided":true,"name":"Leaf_Dark","pbrMetallicRoughness":{"baseColorFactor":[0.55,0.78,1.0,1.0],"baseColorTexture":{"index":0},"metallicFactor":0,"roughnessFactor":0.8999999761581421}},{"doubleSided":false,"name":"Bark_Dark","pbrMetallicRoughness":{"baseColorFactor":[0.6,0.55,0.5,1.0],"baseColorTexture":{"index":1},"metallicFactor":0,"roughnessFactor":0.8999999761581421}},{"doubleSided":false,"name":"Core_Dark","pbrMetallicRoughness":{"baseColorFactor":[0.03500000014901161,0.10000000149011612,0,1],"metallicFactor":0}}],"meshes":[{"name":"lod","primitives":[{"attributes":{"NORMAL":0,"POSITION":1,"TEXCOORD_0":2},"indices":3,"material":0}]},{"name":"lod.001","primitives":[{"attributes":{"NORMAL":4,"POSITION":5,"TEXCOORD_0":6},"indices":7,"material":1}]},{"name":"lod.002","primitives":[{"attributes":{"NORMAL":8,"POSITION":9},"indices":10,"material":2}]}],"nodes":[{"mesh":0,"name":"lod"},{"mesh":1,"name":"lod.001"},{"mesh":2,"name":"lod.002"}],"scene":0,"scenes":[{"name":"Scene","nodes":[0,1,2]}],"textures":[{"source":0},{"source":1}]}