{"accessors":[{"bufferView":0,"componentType":5126,"count":64,"type":"VEC3"},{"bufferView":1,"componentType":5126,"count":64,"max":[3.015019178390503,8.419567108154297,2.654853343963623],"min":[-2.9631447792053223,3.308300495147705,-2.759218692779541],"type":"VEC3"},{"bufferView":2,"componentType":5126,"count":64,"type":"VEC2"},{"bufferView":3,"componentType":5123,"count":96,"type":"SCALAR"},{"bufferView":4,"componentType":5126,"count":67,"type":"VEC3"},{"bufferView":5,"componentType":5126,"count":67,"max":[0.9565079808235168,7.599653720855713,1.0223568677902222],"min":[-1.04185950756073,-0.21508082747459412,-0.9992738366127014],"type":"VEC3"},{"bufferView":6,"componentType":5123,"count":99,"type":"SCALAR"},{"bufferView":7,"componentType":5126,"count":88,"type":"VEC3"},{"bufferView":8,"componentType":5126,"count":88,"max":[1.6420257091522217,7.112414360046387,1.7089687585830688],"min":[-1.7653820514678955,3.9026520252227783,-1.5761117935180664],"type":"VEC3"},{"bufferView":9,"componentType":5123,"count":180,"type":"SCALAR"}],"asset":{"version":"2.0"},"bufferViews":[{"buffer":0,"byteOffset":0,"byteLength":768,"target":34962},{"buffer":0,"byteOffset":768,"byteLength":768,"target":34962},{"buffer":0,"byteOffset":1536,"byteLength":512,"target":34962},{"buffer":0,"byteOffset":2048,"byteLength":192,"target":34963},{"buffer":0,"byteOffset":2240,"byteLength":804,"target":34962},{"buffer":0,"byteOffset":3044,"byteLength":804,"target":34962},{"buffer":0,"byteOffset":3848,"byteLength":198,"target":34963},{"buffer":0,"byteOffset":4048,"byteLength":1056,"target":34962},{"buffer":0,"byteOffset":5104,"byteLength":1056,"target":34962},{"buffer":0,"byteOffset":6160,"byteLength":360,"target":34963}],"buffers":[{"byteLength":6520,"uri":"foliage.birch_trio.bin"}],"images":[{"name":"Leaves_NormalTree_C","uri":"../nature/Leaves_NormalTree_C.png"}],"materials":[{"alphaCutoff":0.3,"alphaMode":"MASK","doubleSided":true,"name":"Leaf_Light","pbrMetallicRoughness":{"baseColorFactor":[1.0,1.0,1.0,1.0],"baseColorTexture":{"index":0},"metallicFactor":0,"roughnessFactor":0.8999999761581421}},{"doubleSided":false,"name":"Bark_Birch","pbrMetallicRoughness":{"baseColorFactor":[0.699999988079071,0.6800000071525574,0.6299999952316284,1],"metallicFactor":0,"roughnessFactor":0.800000011920929}},{"doubleSided":false,"name":"Core_Light","pbrMetallicRoughness":{"baseColorFactor":[0.07000000029802322,0.15000000596046448,0,1],"metallicFactor":0}}],"meshes":[{"name":"lod","primitives":[{"attributes":{"NORMAL":0,"POSITION":1,"TEXCOORD_0":2},"indices":3,"material":0}]},{"name":"lod.001","primitives":[{"attributes":{"NORMAL":4,"POSITION":5},"indices":6,"material":1}]},{"name":"lod.003","primitives":[{"attributes":{"NORMAL":7,"POSITION":8},"indices":9,"material":2}]}],"nodes":[{"mesh":0,"name":"lod"},{"mesh":1,"name":"lod.001"},{"name":"lod.002"},{"mesh":2,"name":"lod.003"}],"scene":0,"scenes":[{"name":"Scene","nodes":[0,1,2,3]}],"textures":[{"source":0}]}