{"accessors":[{"bufferView":0,"componentType":5126,"count":40,"type":"VEC3"},{"bufferView":1,"componentType":5126,"count":40,"max":[2.735851764678955,6.328407287597656,2.306586265563965],"min":[-1.9613490104675293,1.7697865962982178,-1.8569353818893433],"type":"VEC3"},{"bufferView":2,"componentType":5126,"count":40,"type":"VEC2"},{"bufferView":3,"componentType":5123,"count":60,"type":"SCALAR"},{"bufferView":4,"componentType":5126,"count":65,"type":"VEC3"},{"bufferView":5,"componentType":5126,"count":65,"max":[1.2988606691360474,4.400367259979248,1.2464251518249512],"min":[-1.2662084102630615,-0.25222036242485046,-1.2847269773483276],"type":"VEC3"},{"bufferView":6,"componentType":5126,"count":65,"type":"VEC2"},{"bufferView":7,"componentType":5123,"count":96,"type":"SCALAR"},{"bufferView":8,"componentType":5126,"count":252,"type":"VEC3"},{"bufferView":9,"componentType":5126,"count":252,"max":[1.7943835258483887,5.205911636352539,1.5525000095367432],"min":[-1.7443675994873047,2.537978410720825,-1.5887136459350586],"type":"VEC3"},{"bufferView":10,"componentType":5123,"count":372,"type":"SCALAR"},{"bufferView":11,"componentType":5126,"count":90,"type":"VEC3"},{"bufferView":12,"componentType":5126,"count":90,"max":[1.1668939590454102,5.14658260345459,0.852065920829773],"min":[-1.0920286178588867,2.9647436141967773,-1.0102472305297852],"type":"VEC3"},{"bufferView":13,"componentType":5123,"count":180,"type":"SCALAR"}],"asset":{"version":"2.0"},"bufferViews":[{"buffer":0,"byteOffset":0,"byteLength":480,"target":34962},{"buffer":0,"byteOffset":480,"byteLength":480,"target":34962},{"buffer":0,"byteOffset":960,"byteLength":320,"target":34962},{"buffer":0,"byteOffset":1280,"byteLength":120,"target":34963},{"buffer":0,"byteOffset":1400,"byteLength":780,"target":34962},{"buffer":0,"byteOffset":2180,"byteLength":780,"target":34962},{"buffer":0,"byteOffset":2960,"byteLength":520,"target":34962},{"buffer":0,"byteOffset":3480,"byteLength":192,"target":34963},{"buffer":0,"byteOffset":3672,"byteLength":3024,"target":34962},{"buffer":0,"byteOffset":6696,"byteLength":3024,"target":34962},{"buffer":0,"byteOffset":9720,"byteLength":744,"target":34963},{"buffer":0,"byteOffset":10464,"byteLength":1080,"target":34962},{"buffer":0,"byteOffset":11544,"byteLength":1080,"target":34962},{"buffer":0,"byteOffset":12624,"byteLength":360,"target":34963}],"buffers":[{"byteLength":12984,"uri":"foliage.rowan.bin"}],"images":[{"name":"Leaves_NormalTree_C","uri":"../nature/Leaves_NormalTree_C.png"},{"name":"Bark_NormalTree","uri":"../nature/Bark_NormalTree.png"}],"materials":[{"alphaCutoff":0.3,"alphaMode":"MASK","doubleSided":true,"name":"Leaf_Mid","pbrMetallicRoughness":{"baseColorFactor":[0.8,1.0,1.0,1.0],"baseColorTexture":{"index":0},"metallicFactor":0,"roughnessFactor":0.8999999761581421}},{"doubleSided":false,"name":"Bark_Gray","pbrMetallicRoughness":{"baseColorFactor":[0.78,0.74,0.7,1.0],"baseColorTexture":{"index":1},"metallicFactor":0,"roughnessFactor":0.8999999761581421}},{"doubleSided":false,"name":"Berry_Rowan","pbrMetallicRoughness":{"baseColorFactor":[0.6200000047683716,0.07999999821186066,0.019999999552965164,1],"metallicFactor":0,"roughnessFactor":0.5}},{"doubleSided":false,"name":"Core_Mid","pbrMetallicRoughness":{"baseColorFactor":[0.05000000074505806,0.12999999523162842,0,1],"metallicFactor":0}}],"meshes":[{"name":"lod","primitives":[{"attributes":{"NORMAL":0,"POSITION":1,"TEXCOORD_0":2},"indices":3,"material":0}]},{"name":"lod.001","primitives":[{"attributes":{"NORMAL":4,"POSITION":5,"TEXCOORD_0":6},"indices":7,"material":1}]},{"name":"lod.002","primitives":[{"attributes":{"NORMAL":8,"POSITION":9},"indices":10,"material":2}]},{"name":"lod.003","primitives":[{"attributes":{"NORMAL":11,"POSITION":12},"indices":13,"material":3}]}],"nodes":[{"mesh":0,"name":"lod"},{"mesh":1,"name":"lod.001"},{"mesh":2,"name":"lod.002"},{"mesh":3,"name":"lod.003"}],"scene":0,"scenes":[{"name":"Scene","nodes":[0,1,2,3]}],"textures":[{"source":0},{"source":1}]}