{"accessors":[{"bufferView":0,"componentType":5126,"count":320,"type":"VEC3"},{"bufferView":1,"componentType":5126,"count":320,"max":[5.462057590484619,9.428738594055176,5.432804584503174],"min":[-6.42622184753418,1.8795881271362305,-6.13692569732666],"type":"VEC3"},{"bufferView":2,"componentType":5126,"count":320,"type":"VEC2"},{"bufferView":3,"componentType":5123,"count":480,"type":"SCALAR"},{"bufferView":4,"componentType":5126,"count":153,"type":"VEC3"},{"bufferView":5,"componentType":5126,"count":153,"max":[3.068645715713501,5.1997270584106445,3.1191747188568115],"min":[-3.0645580291748047,-0.260540246963501,-3.109645128250122],"type":"VEC3"},{"bufferView":6,"componentType":5126,"count":153,"type":"VEC2"},{"bufferView":7,"componentType":5123,"count":192,"type":"SCALAR"},{"bufferView":8,"componentType":5126,"count":180,"type":"VEC3"},{"bufferView":9,"componentType":5126,"count":180,"max":[3.5941436290740967,7.181478977203369,3.3536152839660645],"min":[-3.801363945007324,3.971834421157837,-3.7033395767211914],"type":"VEC3"},{"bufferView":10,"componentType":5123,"count":360,"type":"SCALAR"}],"asset":{"version":"2.0"},"bufferViews":[{"buffer":0,"byteOffset":0,"byteLength":3840,"target":34962},{"buffer":0,"byteOffset":3840,"byteLength":3840,"target":34962},{"buffer":0,"byteOffset":7680,"byteLength":2560,"target":34962},{"buffer":0,"byteOffset":10240,"byteLength":960,"target":34963},{"buffer":0,"byteOffset":11200,"byteLength":1836,"target":34962},{"buffer":0,"byteOffset":13036,"byteLength":1836,"target":34962},{"buffer":0,"byteOffset":14872,"byteLength":1224,"target":34962},{"buffer":0,"byteOffset":16096,"byteLength":384,"target":34963},{"buffer":0,"byteOffset":16480,"byteLength":2160,"target":34962},{"buffer":0,"byteOffset":18640,"byteLength":2160,"target":34962},{"buffer":0,"byteOffset":20800,"byteLength":720,"target":34963}],"buffers":[{"byteLength":21520,"uri":"foliage.linden_broad.bin"}],"images":[{"name":"Leaves_NormalTree_C","uri":"../nature/Leaves_NormalTree_C.png"},{"name":"Bark_NormalTree","uri":"../nature/Bark_NormalTree.png"}],"materials":[{"alphaCutoff":0.3,"alphaMode":"MASK","doubleSided":true,"name":"Leaf_Dark","pbrMetallicRoughness":{"baseColorFactor":[0.55,0.78,1.0,1.0],"baseColorTexture":{"index":0},"metallicFactor":0,"roughnessFactor":0.8999999761581421}},{"doubleSided":false,"name":"Bark_Brown","pbrMetallicRoughness":{"baseColorFactor":[1.0,1.0,1.0,1.0],"baseColorTexture":{"index":1},"metallicFactor":0,"roughnessFactor":0.8999999761581421}},{"doubleSided":false,"name":"Core_Dark","pbrMetallicRoughness":{"baseColorFactor":[0.03500000014901161,0.10000000149011612,0,1],"metallicFactor":0}}],"meshes":[{"name":"lod","primitives":[{"attributes":{"NORMAL":0,"POSITION":1,"TEXCOORD_0":2},"indices":3,"material":0}]},{"name":"lod.001","primitives":[{"attributes":{"NORMAL":4,"POSITION":5,"TEXCOORD_0":6},"indices":7,"material":1}]},{"name":"lod.002","primitives":[{"attributes":{"NORMAL":8,"POSITION":9},"indices":10,"material":2}]}],"nodes":[{"mesh":0,"name":"lod"},{"mesh":1,"name":"lod.001"},{"mesh":2,"name":"lod.002"}],"scene":0,"scenes":[{"name":"Scene","nodes":[0,1,2]}],"textures":[{"source":0},{"source":1}]}