{"accessors":[{"bufferView":0,"componentType":5126,"count":88,"type":"VEC3"},{"bufferView":1,"componentType":5126,"count":88,"max":[4.361985206604004,7.5646233558654785,4.006261825561523],"min":[-3.2154018878936768,-0.16418695449829102,-3.986570119857788],"type":"VEC3"},{"bufferView":2,"componentType":5126,"count":88,"type":"VEC2"},{"bufferView":3,"componentType":5123,"count":132,"type":"SCALAR"},{"bufferView":4,"componentType":5126,"count":123,"type":"VEC3"},{"bufferView":5,"componentType":5126,"count":123,"max":[3.499232530593872,5.599766254425049,2.8135225772857666],"min":[-2.222714424133301,-0.27552124857902527,-3.034548759460449],"type":"VEC3"},{"bufferView":6,"componentType":5126,"count":123,"type":"VEC2"},{"bufferView":7,"componentType":5123,"count":207,"type":"SCALAR"},{"bufferView":8,"componentType":5126,"count":30,"type":"VEC3"},{"bufferView":9,"componentType":5126,"count":30,"max":[1.8716039657592773,5.9955034255981445,1.3716659545898438],"min":[-1.082006573677063,4.410628318786621,-1.5795725584030151],"type":"VEC3"},{"bufferView":10,"componentType":5123,"count":60,"type":"SCALAR"}],"asset":{"version":"2.0"},"bufferViews":[{"buffer":0,"byteOffset":0,"byteLength":1056,"target":34962},{"buffer":0,"byteOffset":1056,"byteLength":1056,"target":34962},{"buffer":0,"byteOffset":2112,"byteLength":704,"target":34962},{"buffer":0,"byteOffset":2816,"byteLength":264,"target":34963},{"buffer":0,"byteOffset":3080,"byteLength":1476,"target":34962},{"buffer":0,"byteOffset":4556,"byteLength":1476,"target":34962},{"buffer":0,"byteOffset":6032,"byteLength":984,"target":34962},{"buffer":0,"byteOffset":7016,"byteLength":414,"target":34963},{"buffer":0,"byteOffset":7432,"byteLength":360,"target":34962},{"buffer":0,"byteOffset":7792,"byteLength":360,"target":34962},{"buffer":0,"byteOffset":8152,"byteLength":120,"target":34963}],"buffers":[{"byteLength":8272,"uri":"foliage.willow_weeping.bin"}],"images":[{"name":"Leaves_NormalTree_C","uri":"../nature/Leaves_NormalTree_C.png"},{"name":"Bark_NormalTree","uri":"../nature/Bark_NormalTree.png"}],"materials":[{"alphaCutoff":0.3,"alphaMode":"MASK","doubleSided":true,"name":"Leaf_Willow","pbrMetallicRoughness":{"baseColorFactor":[1.0,1.0,1.0,1.0],"baseColorTexture":{"index":0},"metallicFactor":0,"roughnessFactor":0.8999999761581421}},{"doubleSided":false,"name":"Bark_Dark","pbrMetallicRoughness":{"baseColorFactor":[0.6,0.55,0.5,1.0],"baseColorTexture":{"index":1},"metallicFactor":0,"roughnessFactor":0.8999999761581421}},{"doubleSided":false,"name":"Core_Willow","pbrMetallicRoughness":{"baseColorFactor":[0.07000000029802322,0.15000000596046448,0,1],"metallicFactor":0}}],"meshes":[{"name":"lod","primitives":[{"attributes":{"NORMAL":0,"POSITION":1,"TEXCOORD_0":2},"indices":3,"material":0}]},{"name":"lod.001","primitives":[{"attributes":{"NORMAL":4,"POSITION":5,"TEXCOORD_0":6},"indices":7,"material":1}]},{"name":"lod.002","primitives":[{"attributes":{"NORMAL":8,"POSITION":9},"indices":10,"material":2}]}],"nodes":[{"mesh":0,"name":"lod"},{"mesh":1,"name":"lod.001"},{"mesh":2,"name":"lod.002"}],"scene":0,"scenes":[{"name":"Scene","nodes":[0,1,2]}],"textures":[{"source":0},{"source":1}]}