{"accessors":[{"bufferView":0,"componentType":5126,"count":260,"type":"VEC3"},{"bufferView":1,"componentType":5126,"count":260,"max":[4.104931831359863,13.85662841796875,3.393073558807373],"min":[-3.593964099884033,4.073529243469238,-3.409541606903076],"type":"VEC3"},{"bufferView":2,"componentType":5126,"count":260,"type":"VEC2"},{"bufferView":3,"componentType":5123,"count":390,"type":"SCALAR"},{"bufferView":4,"componentType":5126,"count":93,"type":"VEC3"},{"bufferView":5,"componentType":5126,"count":93,"max":[1.8999282121658325,10.000653266906738,1.894936442375183],"min":[-1.8789445161819458,-0.2574327886104584,-1.4867929220199585],"type":"VEC3"},{"bufferView":6,"componentType":5126,"count":93,"type":"VEC2"},{"bufferView":7,"componentType":5123,"count":141,"type":"SCALAR"},{"bufferView":8,"componentType":5126,"count":124,"type":"VEC3"},{"bufferView":9,"componentType":5126,"count":124,"max":[1.8577113151550293,12.350078582763672,1.4394476413726807],"min":[-1.7531975507736206,5.550363063812256,-1.3657100200653076],"type":"VEC3"},{"bufferView":10,"componentType":5123,"count":240,"type":"SCALAR"}],"asset":{"version":"2.0"},"bufferViews":[{"buffer":0,"byteOffset":0,"byteLength":3120,"target":34962},{"buffer":0,"byteOffset":3120,"byteLength":3120,"target":34962},{"buffer":0,"byteOffset":6240,"byteLength":2080,"target":34962},{"buffer":0,"byteOffset":8320,"byteLength":780,"target":34963},{"buffer":0,"byteOffset":9100,"byteLength":1116,"target":34962},{"buffer":0,"byteOffset":10216,"byteLength":1116,"target":34962},{"buffer":0,"byteOffset":11332,"byteLength":744,"target":34962},{"buffer":0,"byteOffset":12076,"byteLength":282,"target":34963},{"buffer":0,"byteOffset":12360,"byteLength":1488,"target":34962},{"buffer":0,"byteOffset":13848,"byteLength":1488,"target":34962},{"buffer":0,"byteOffset":15336,"byteLength":480,"target":34963}],"buffers":[{"byteLength":15816,"uri":"foliage.beech_tall.bin"}],"images":[{"name":"Leaves_NormalTree_C","uri":"../nature/Leaves_NormalTree_C.png"},{"name":"Bark_NormalTree","uri":"../nature/Bark_NormalTree.png"}],"materials":[{"alphaCutoff":0.3,"alphaMode":"MASK","doubleSided":true,"name":"Leaf_Light","pbrMetallicRoughness":{"baseColorFactor":[1.0,1.0,1.0,1.0],"baseColorTexture":{"index":0},"metallicFactor":0,"roughnessFactor":0.8999999761581421}},{"doubleSided":false,"name":"Bark_Gray","pbrMetallicRoughness":{"baseColorFactor":[0.78,0.74,0.7,1.0],"baseColorTexture":{"index":1},"metallicFactor":0,"roughnessFactor":0.8999999761581421}},{"doubleSided":false,"name":"Core_Light","pbrMetallicRoughness":{"baseColorFactor":[0.07000000029802322,0.15000000596046448,0,1],"metallicFactor":0}}],"meshes":[{"name":"lod","primitives":[{"attributes":{"NORMAL":0,"POSITION":1,"TEXCOORD_0":2},"indices":3,"material":0}]},{"name":"lod.001","primitives":[{"attributes":{"NORMAL":4,"POSITION":5,"TEXCOORD_0":6},"indices":7,"material":1}]},{"name":"lod.002","primitives":[{"attributes":{"NORMAL":8,"POSITION":9},"indices":10,"material":2}]}],"nodes":[{"mesh":0,"name":"lod"},{"mesh":1,"name":"lod.001"},{"mesh":2,"name":"lod.002"}],"scene":0,"scenes":[{"name":"Scene","nodes":[0,1,2]}],"textures":[{"source":0},{"source":1}]}