{"accessors":[{"bufferView":0,"componentType":5126,"count":372,"type":"VEC3"},{"bufferView":1,"componentType":5126,"count":372,"max":[4.974319934844971,10.387667655944824,3.4093174934387207],"min":[-5.117488861083984,3.9154608249664307,-3.3624958992004395],"type":"VEC3"},{"bufferView":2,"componentType":5126,"count":372,"type":"VEC2"},{"bufferView":3,"componentType":5123,"count":558,"type":"SCALAR"},{"bufferView":4,"componentType":5126,"count":149,"type":"VEC3"},{"bufferView":5,"componentType":5126,"count":149,"max":[3.2961511611938477,7.700921058654785,1.483695149421692],"min":[-1.9432697296142578,-0.258012592792511,-1.5444462299346924],"type":"VEC3"},{"bufferView":6,"componentType":5126,"count":149,"type":"VEC2"},{"bufferView":7,"componentType":5123,"count":213,"type":"SCALAR"},{"bufferView":8,"componentType":5126,"count":180,"type":"VEC3"},{"bufferView":9,"componentType":5126,"count":180,"max":[3.1678225994110107,8.782108306884766,1.903979778289795],"min":[-3.158216714859009,4.9076924324035645,-1.837054967880249],"type":"VEC3"},{"bufferView":10,"componentType":5123,"count":360,"type":"SCALAR"}],"asset":{"version":"2.0"},"bufferViews":[{"buffer":0,"byteOffset":0,"byteLength":4464,"target":34962},{"buffer":0,"byteOffset":4464,"byteLength":4464,"target":34962},{"buffer":0,"byteOffset":8928,"byteLength":2976,"target":34962},{"buffer":0,"byteOffset":11904,"byteLength":1116,"target":34963},{"buffer":0,"byteOffset":13020,"byteLength":1788,"target":34962},{"buffer":0,"byteOffset":14808,"byteLength":1788,"target":34962},{"buffer":0,"byteOffset":16596,"byteLength":1192,"target":34962},{"buffer":0,"byteOffset":17788,"byteLength":426,"target":34963},{"buffer":0,"byteOffset":18216,"byteLength":2160,"target":34962},{"buffer":0,"byteOffset":20376,"byteLength":2160,"target":34962},{"buffer":0,"byteOffset":22536,"byteLength":720,"target":34963}],"buffers":[{"byteLength":23256,"uri":"foliage.oak_forked.bin"}],"images":[{"name":"Leaves_NormalTree_C","uri":"../nature/Leaves_NormalTree_C.png"},{"name":"Bark_NormalTree","uri":"../nature/Bark_NormalTree.png"}],"materials":[{"alphaCutoff":0.3,"alphaMode":"MASK","doubleSided":true,"name":"Leaf_Mid","pbrMetallicRoughness":{"baseColorFactor":[0.8,1.0,1.0,1.0],"baseColorTexture":{"index":0},"metallicFactor":0,"roughnessFactor":0.8999999761581421}},{"doubleSided":false,"name":"Bark_Brown","pbrMetallicRoughness":{"baseColorFactor":[1.0,1.0,1.0,1.0],"baseColorTexture":{"index":1},"metallicFactor":0,"roughnessFactor":0.8999999761581421}},{"doubleSided":false,"name":"Core_Mid","pbrMetallicRoughness":{"baseColorFactor":[0.05000000074505806,0.12999999523162842,0,1],"metallicFactor":0}}],"meshes":[{"name":"lod","primitives":[{"attributes":{"NORMAL":0,"POSITION":1,"TEXCOORD_0":2},"indices":3,"material":0}]},{"name":"lod.001","primitives":[{"attributes":{"NORMAL":4,"POSITION":5,"TEXCOORD_0":6},"indices":7,"material":1}]},{"name":"lod.002","primitives":[{"attributes":{"NORMAL":8,"POSITION":9},"indices":10,"material":2}]}],"nodes":[{"mesh":0,"name":"lod"},{"mesh":1,"name":"lod.001"},{"mesh":2,"name":"lod.002"}],"scene":0,"scenes":[{"name":"Scene","nodes":[0,1,2]}],"textures":[{"source":0},{"source":1}]}