{"accessors":[{"bufferView":0,"componentType":5126,"count":116,"max":[4.859362602233887,5.4935150146484375,5.858312606811523],"min":[-4.941762924194336,-0.7329871654510498,-5.852160930633545],"type":"VEC3"},{"bufferView":1,"componentType":5126,"count":116,"type":"VEC3"},{"bufferView":2,"componentType":5126,"count":116,"type":"VEC2"},{"bufferView":3,"componentType":5126,"count":116,"type":"VEC2"},{"bufferView":4,"componentType":5123,"count":138,"type":"SCALAR"},{"bufferView":5,"componentType":5126,"count":609,"max":[5.062624931335449,5.981728553771973,6.293070316314697],"min":[-5.062625408172607,-0.5609608292579651,-6.042562007904053],"type":"VEC3"},{"bufferView":6,"componentType":5126,"count":609,"type":"VEC3"},{"bufferView":7,"componentType":5126,"count":609,"type":"VEC2"},{"bufferView":8,"componentType":5126,"count":609,"type":"VEC2"},{"bufferView":9,"componentType":5123,"count":741,"type":"SCALAR"}],"asset":{"version":"2.0"},"bufferViews":[{"buffer":0,"byteLength":1392,"byteOffset":0,"target":34962},{"buffer":0,"byteLength":1392,"byteOffset":1392,"target":34962},{"buffer":0,"byteLength":928,"byteOffset":2784,"target":34962},{"buffer":0,"byteLength":928,"byteOffset":3712,"target":34962},{"buffer":0,"byteLength":276,"byteOffset":4640,"target":34963},{"buffer":0,"byteLength":7308,"byteOffset":4916,"target":34962},{"buffer":0,"byteLength":7308,"byteOffset":12224,"target":34962},{"buffer":0,"byteLength":4872,"byteOffset":19532,"target":34962},{"buffer":0,"byteLength":4872,"byteOffset":24404,"target":34962},{"buffer":0,"byteLength":1482,"byteOffset":29276,"target":34963}],"buffers":[{"byteLength":30760,"uri":"generated.roof_round_tiles_8x10.bin"}],"images":[{"name":"T_WoodTrim_BaseColor","uri":"../village/T_WoodTrim_BaseColor.png"},{"name":"T_RoundTiles_BaseColor","uri":"../village/T_RoundTiles_BaseColor.png"}],"materials":[{"doubleSided":true,"name":"MI_WoodTrim","pbrMetallicRoughness":{"baseColorFactor":[1.0,1.0,1.0,1.0],"baseColorTexture":{"index":0},"metallicFactor":0}},{"doubleSided":true,"name":"MI_RoundTiles","pbrMetallicRoughness":{"baseColorFactor":[1.0,1.0,1.0,1.0],"baseColorTexture":{"index":1},"metallicFactor":0}}],"meshes":[{"name":"Cube.066","primitives":[{"attributes":{"NORMAL":1,"POSITION":0,"TEXCOORD_0":2,"TEXCOORD_1":3},"indices":4,"material":0},{"attributes":{"NORMAL":6,"POSITION":5,"TEXCOORD_0":7,"TEXCOORD_1":8},"indices":9,"material":1}]}],"nodes":[{"mesh":0,"name":"Roof_RoundTiles_8x10"}],"scene":0,"scenes":[{"name":"Scene","nodes":[0]}],"textures":[{"source":0},{"source":1}]}
