{"accessors":[{"bufferView":0,"componentType":5126,"count":3956,"max":[5.568984031677246,3.116764545440674,0.5689839124679565],"min":[-5.568984031677246,-0.0020958781242370605,-6.568984031677246],"type":"VEC3"},{"bufferView":1,"componentType":5126,"count":3956,"type":"VEC3"},{"bufferView":2,"componentType":5126,"count":3956,"type":"VEC2"},{"bufferView":3,"componentType":5123,"count":5778,"type":"SCALAR"},{"bufferView":4,"componentType":5126,"count":216,"max":[5.900000095367432,6.890000343322754,0.8328194618225098],"min":[-5.900000095367432,2.5587735176086426,-6.832819938659668],"type":"VEC3"},{"bufferView":5,"componentType":5126,"count":216,"type":"VEC3"},{"bufferView":6,"componentType":5126,"count":216,"type":"VEC2"},{"bufferView":7,"componentType":5123,"count":336,"type":"SCALAR"},{"bufferView":8,"componentType":5126,"count":118,"max":[0.4105340242385864,1.2524888515472412,0.07083018124103546],"min":[0.14875921607017517,0.8647955060005188,-0.12066184729337692],"type":"VEC3"},{"bufferView":9,"componentType":5126,"count":118,"type":"VEC3"},{"bufferView":10,"componentType":5126,"count":118,"type":"VEC2"},{"bufferView":11,"componentType":5123,"count":150,"type":"SCALAR"},{"bufferView":12,"componentType":5126,"count":204,"max":[5.000000476837158,6.570000171661377,2.18556948539117e-07],"min":[-5.000000476837158,0,-6],"type":"VEC3"},{"bufferView":13,"componentType":5126,"count":204,"type":"VEC3"},{"bufferView":14,"componentType":5126,"count":204,"type":"VEC2"},{"bufferView":15,"componentType":5123,"count":456,"type":"SCALAR"},{"bufferView":16,"componentType":5126,"count":18,"max":[4.045778274536133,6.923831462860107,-3.1059913635253906],"min":[3.0999999046325684,3.979999542236328,-4.094008445739746],"type":"VEC3"},{"bufferView":17,"componentType":5126,"count":18,"type":"VEC3"},{"bufferView":18,"componentType":5126,"count":18,"type":"VEC2"},{"bufferView":19,"componentType":5123,"count":36,"type":"SCALAR"},{"bufferView":20,"componentType":5126,"count":46,"max":[5.8000006675720215,6.619999885559082,0.8000001907348633],"min":[-5.800000190734863,2.2588930130004883,-6.8000006675720215],"type":"VEC3"},{"bufferView":21,"componentType":5126,"count":46,"type":"VEC3"},{"bufferView":22,"componentType":5126,"count":46,"type":"VEC2"},{"bufferView":23,"componentType":5123,"count":72,"type":"SCALAR"},{"bufferView":24,"componentType":5126,"count":8,"max":[1,0.8799999952316284,4.371138828673793e-08],"min":[-1,0,0],"type":"VEC3"},{"bufferView":25,"componentType":5126,"count":8,"type":"VEC3"},{"bufferView":26,"componentType":5126,"count":8,"type":"VEC2"},{"bufferView":27,"componentType":5123,"count":12,"type":"SCALAR"},{"bufferView":28,"componentType":5126,"count":22,"max":[5,0.8799999952316284,4.371138828673793e-08],"min":[-5,0,-6],"type":"VEC3"},{"bufferView":29,"componentType":5126,"count":22,"type":"VEC3"},{"bufferView":30,"componentType":5126,"count":22,"type":"VEC2"},{"bufferView":31,"componentType":5123,"count":36,"type":"SCALAR"},{"bufferView":32,"componentType":5126,"count":156,"max":[5.003888130187988,2.355356216430664,0.003888234496116638],"min":[-5.003888130187988,1.0971393585205078,-6.003888130187988],"type":"VEC3"},{"bufferView":33,"componentType":5126,"count":156,"type":"VEC3"},{"bufferView":34,"componentType":5126,"count":156,"type":"VEC2"},{"bufferView":35,"componentType":5123,"count":210,"type":"SCALAR"}],"asset":{"version":"2.0"},"bufferViews":[{"buffer":0,"byteLength":47472,"byteOffset":0,"target":34962},{"buffer":0,"byteLength":47472,"byteOffset":47472,"target":34962},{"buffer":0,"byteLength":31648,"byteOffset":94944,"target":34962},{"buffer":0,"byteLength":11556,"byteOffset":126592,"target":34963},{"buffer":0,"byteLength":2592,"byteOffset":138148,"target":34962},{"buffer":0,"byteLength":2592,"byteOffset":140740,"target":34962},{"buffer":0,"byteLength":1728,"byteOffset":143332,"target":34962},{"buffer":0,"byteLength":672,"byteOffset":145060,"target":34963},{"buffer":0,"byteLength":1416,"byteOffset":145732,"target":34962},{"buffer":0,"byteLength":1416,"byteOffset":147148,"target":34962},{"buffer":0,"byteLength":944,"byteOffset":148564,"target":34962},{"buffer":0,"byteLength":300,"byteOffset":149508,"target":34963},{"buffer":0,"byteLength":2448,"byteOffset":149808,"target":34962},{"buffer":0,"byteLength":2448,"byteOffset":152256,"target":34962},{"buffer":0,"byteLength":1632,"byteOffset":154704,"target":34962},{"buffer":0,"byteLength":912,"byteOffset":156336,"target":34963},{"buffer":0,"byteLength":216,"byteOffset":157248,"target":34962},{"buffer":0,"byteLength":216,"byteOffset":157464,"target":34962},{"buffer":0,"byteLength":144,"byteOffset":157680,"target":34962},{"buffer":0,"byteLength":72,"byteOffset":157824,"target":34963},{"buffer":0,"byteLength":552,"byteOffset":157896,"target":34962},{"buffer":0,"byteLength":552,"byteOffset":158448,"target":34962},{"buffer":0,"byteLength":368,"byteOffset":159000,"target":34962},{"buffer":0,"byteLength":144,"byteOffset":159368,"target":34963},{"buffer":0,"byteLength":96,"byteOffset":159512,"target":34962},{"buffer":0,"byteLength":96,"byteOffset":159608,"target":34962},{"buffer":0,"byteLength":64,"byteOffset":159704,"target":34962},{"buffer":0,"byteLength":24,"byteOffset":159768,"target":34963},{"buffer":0,"byteLength":264,"byteOffset":159792,"target":34962},{"buffer":0,"byteLength":264,"byteOffset":160056,"target":34962},{"buffer":0,"byteLength":176,"byteOffset":160320,"target":34962},{"buffer":0,"byteLength":72,"byteOffset":160496,"target":34963},{"buffer":0,"byteLength":1872,"byteOffset":160568,"target":34962},{"buffer":0,"byteLength":1872,"byteOffset":162440,"target":34962},{"buffer":0,"byteLength":1248,"byteOffset":164312,"target":34962},{"buffer":0,"byteLength":420,"byteOffset":165560,"target":34963}],"buffers":[{"byteLength":165980,"uri":"generated.farmhouse.bin"}],"images":[{"name":"T_WoodTrim_BaseColor","uri":"../village/T_WoodTrim_BaseColor.png"},{"name":"T_MetalOrnaments_BaseColor","uri":"../village/T_MetalOrnaments_BaseColor.png"},{"name":"T_Plaster_Luma","uri":"../village/T_Plaster_Luma.png"},{"name":"T_UnevenBrick_BaseColor","uri":"../village/T_UnevenBrick_BaseColor.png"},{"name":"T_RockTrim_BaseColor","uri":"../village/T_RockTrim_BaseColor.png"},{"name":"T_Brick_BaseColor","uri":"../village/T_Brick_BaseColor.png"}],"materials":[{"doubleSided":true,"name":"Wood_dark","pbrMetallicRoughness":{"baseColorFactor":[0.2329,0.2659,0.2944,1.0],"baseColorTexture":{"index":0},"metallicFactor":0,"roughnessFactor":0.8500000238418579}},{"doubleSided":true,"name":"ThatchDark","pbrMetallicRoughness":{"baseColorFactor":[0.21404114365577698,0.11928018927574158,0.027211781591176987,1],"metallicFactor":0}},{"doubleSided":true,"name":"Metal","pbrMetallicRoughness":{"baseColorFactor":[1.0,0.9972,0.9945,1.0],"baseColorTexture":{"index":1},"metallicFactor":0,"roughnessFactor":0.5}},{"doubleSided":true,"name":"Plaster_white","pbrMetallicRoughness":{"baseColorFactor":[1.0,1.0,0.9092,1.0],"baseColorTexture":{"index":2},"metallicFactor":0,"roughnessFactor":0.8500000238418579}},{"doubleSided":true,"name":"Stone","pbrMetallicRoughness":{"baseColorFactor":[1.0,0.9974,0.9977,1.0],"baseColorTexture":{"index":3},"metallicFactor":0,"roughnessFactor":0.8500000238418579}},{"doubleSided":true,"name":"Thatch","pbrMetallicRoughness":{"baseColorFactor":[0.3931231200695038,0.23302200436592102,0.059253521263599396,1],"metallicFactor":0}},{"doubleSided":true,"name":"RockTrim","pbrMetallicRoughness":{"baseColorFactor":[1.0,0.9979,1.0,1.0],"baseColorTexture":{"index":4},"metallicFactor":0,"roughnessFactor":0.8500000238418579}},{"doubleSided":true,"name":"Brick","pbrMetallicRoughness":{"baseColorFactor":[1.0,0.9974,1.0,1.0],"baseColorTexture":{"index":5},"metallicFactor":0,"roughnessFactor":0.8500000238418579}},{"doubleSided":true,"name":"Glass","pbrMetallicRoughness":{"baseColorFactor":[0.03310476616024971,0.05087608844041824,0.07828831672668457,1],"metallicFactor":0,"roughnessFactor":0.20000000298023224}}],"meshes":[{"name":"lod","primitives":[{"attributes":{"NORMAL":1,"POSITION":0,"TEXCOORD_0":2},"indices":3,"material":0},{"attributes":{"NORMAL":5,"POSITION":4,"TEXCOORD_0":6},"indices":7,"material":1},{"attributes":{"NORMAL":9,"POSITION":8,"TEXCOORD_0":10},"indices":11,"material":2},{"attributes":{"NORMAL":13,"POSITION":12,"TEXCOORD_0":14},"indices":15,"material":3},{"attributes":{"NORMAL":17,"POSITION":16,"TEXCOORD_0":18},"indices":19,"material":4},{"attributes":{"NORMAL":21,"POSITION":20,"TEXCOORD_0":22},"indices":23,"material":5},{"attributes":{"NORMAL":25,"POSITION":24,"TEXCOORD_0":26},"indices":27,"material":6},{"attributes":{"NORMAL":29,"POSITION":28,"TEXCOORD_0":30},"indices":31,"material":7},{"attributes":{"NORMAL":33,"POSITION":32,"TEXCOORD_0":34},"indices":35,"material":8}]}],"nodes":[{"mesh":0,"name":"lod"}],"scene":0,"scenes":[{"name":"Scene","nodes":[0]}],"textures":[{"source":0},{"source":1},{"source":2},{"source":3},{"source":4},{"source":5}]}
