{"accessors":[{"bufferView":0,"componentType":5126,"count":9085,"type":"VEC3"},{"bufferView":1,"componentType":5126,"count":9085,"max":[7.451465129852295,15.470000267028809,2.8386619091033936],"min":[-7.029819965362549,0.5886067748069763,-11.19589900970459],"type":"VEC3"},{"bufferView":2,"componentType":5126,"count":9085,"type":"VEC2"},{"bufferView":3,"componentType":5123,"count":14337,"type":"SCALAR"},{"bufferView":4,"componentType":5126,"count":54,"type":"VEC3"},{"bufferView":5,"componentType":5126,"count":54,"max":[1.1400001049041748,19.020000457763672,-3.7899999618530273],"min":[-1.1400001049041748,14.170000076293945,-6.210000514984131],"type":"VEC3"},{"bufferView":6,"componentType":5123,"count":96,"type":"SCALAR"},{"bufferView":7,"componentType":5126,"count":78,"type":"VEC3"},{"bufferView":8,"componentType":5126,"count":78,"max":[0.5359607934951782,15.170000076293945,-3.81000018119812],"min":[-0.5359607934951782,14.170000076293945,-6.190000057220459],"type":"VEC3"},{"bufferView":9,"componentType":5123,"count":132,"type":"SCALAR"},{"bufferView":10,"componentType":5126,"count":240,"type":"VEC3"},{"bufferView":11,"componentType":5126,"count":240,"max":[6.0038886070251465,7.219254016876221,2.0112459659576416],"min":[-6.0038886070251465,2.0196824073791504,-10.003888130187988],"type":"VEC3"},{"bufferView":12,"componentType":5123,"count":675,"type":"SCALAR"},{"bufferView":13,"componentType":5126,"count":295,"type":"VEC3"},{"bufferView":14,"componentType":5126,"count":295,"max":[6.25,4.599999904632568,2.25],"min":[-6.25,0,-10.25],"type":"VEC3"},{"bufferView":15,"componentType":5126,"count":295,"type":"VEC2"},{"bufferView":16,"componentType":5123,"count":723,"type":"SCALAR"},{"bufferView":17,"componentType":5126,"count":402,"type":"VEC3"},{"bufferView":18,"componentType":5126,"count":402,"max":[7.199999809265137,15.420000076293945,2.000000238418579],"min":[-6.000000476837158,0.6000000238418579,-10.203463554382324],"type":"VEC3"},{"bufferView":19,"componentType":5126,"count":402,"type":"VEC2"},{"bufferView":20,"componentType":5123,"count":648,"type":"SCALAR"},{"bufferView":21,"componentType":5126,"count":912,"type":"VEC3"},{"bufferView":22,"componentType":5126,"count":912,"max":[7.0136895179748535,18.1200008392334,2.924262762069702],"min":[-7.20893669128418,7.181224822998047,-11.219998359680176],"type":"VEC3"},{"bufferView":23,"componentType":5126,"count":912,"type":"VEC2"},{"bufferView":24,"componentType":5123,"count":1191,"type":"SCALAR"},{"bufferView":25,"componentType":5126,"count":9,"type":"VEC3"},{"bufferView":26,"componentType":5126,"count":9,"max":[0.12999999523162842,18.469999313354492,-4.869999885559082],"min":[-0.12999999523162842,18.270000457763672,-5.130000114440918],"type":"VEC3"},{"bufferView":27,"componentType":5123,"count":24,"type":"SCALAR"},{"bufferView":28,"componentType":5126,"count":54,"type":"VEC3"},{"bufferView":29,"componentType":5126,"count":54,"max":[1.440000295639038,0.49104949831962585,4.00067138671875],"min":[-1.440000057220459,-0.12221280485391617,1.9259611368179321],"type":"VEC3"},{"bufferView":30,"componentType":5126,"count":54,"type":"VEC2"},{"bufferView":31,"componentType":5123,"count":96,"type":"SCALAR"},{"bufferView":32,"componentType":5126,"count":20,"type":"VEC3"},{"bufferView":33,"componentType":5126,"count":20,"max":[1.6000003814697266,0.5999999642372131,4],"min":[-1.6000003814697266,-3.056540624782008e-16,2],"type":"VEC3"},{"bufferView":34,"componentType":5126,"count":20,"type":"VEC2"},{"bufferView":35,"componentType":5123,"count":24,"type":"SCALAR"}],"asset":{"version":"2.0"},"bufferViews":[{"buffer":0,"byteOffset":0,"byteLength":109020,"target":34962},{"buffer":0,"byteOffset":109020,"byteLength":109020,"target":34962},{"buffer":0,"byteOffset":218040,"byteLength":72680,"target":34962},{"buffer":0,"byteOffset":290720,"byteLength":28674,"target":34963},{"buffer":0,"byteOffset":319396,"byteLength":648,"target":34962},{"buffer":0,"byteOffset":320044,"byteLength":648,"target":34962},{"buffer":0,"byteOffset":320692,"byteLength":192,"target":34963},{"buffer":0,"byteOffset":320884,"byteLength":936,"target":34962},{"buffer":0,"byteOffset":321820,"byteLength":936,"target":34962},{"buffer":0,"byteOffset":322756,"byteLength":264,"target":34963},{"buffer":0,"byteOffset":323020,"byteLength":2880,"target":34962},{"buffer":0,"byteOffset":325900,"byteLength":2880,"target":34962},{"buffer":0,"byteOffset":328780,"byteLength":1350,"target":34963},{"buffer":0,"byteOffset":330132,"byteLength":3540,"target":34962},{"buffer":0,"byteOffset":333672,"byteLength":3540,"target":34962},{"buffer":0,"byteOffset":337212,"byteLength":2360,"target":34962},{"buffer":0,"byteOffset":339572,"byteLength":1446,"target":34963},{"buffer":0,"byteOffset":341020,"byteLength":4824,"target":34962},{"buffer":0,"byteOffset":345844,"byteLength":4824,"target":34962},{"buffer":0,"byteOffset":350668,"byteLength":3216,"target":34962},{"buffer":0,"byteOffset":353884,"byteLength":1296,"target":34963},{"buffer":0,"byteOffset":355180,"byteLength":10944,"target":34962},{"buffer":0,"byteOffset":366124,"byteLength":10944,"target":34962},{"buffer":0,"byteOffset":377068,"byteLength":7296,"target":34962},{"buffer":0,"byteOffset":384364,"byteLength":2382,"target":34963},{"buffer":0,"byteOffset":386748,"byteLength":108,"target":34962},{"buffer":0,"byteOffset":386856,"byteLength":108,"target":34962},{"buffer":0,"byteOffset":386964,"byteLength":48,"target":34963},{"buffer":0,"byteOffset":387012,"byteLength":648,"target":34962},{"buffer":0,"byteOffset":387660,"byteLength":648,"target":34962},{"buffer":0,"byteOffset":388308,"byteLength":432,"target":34962},{"buffer":0,"byteOffset":388740,"byteLength":192,"target":34963},{"buffer":0,"byteOffset":388932,"byteLength":240,"target":34962},{"buffer":0,"byteOffset":389172,"byteLength":240,"target":34962},{"buffer":0,"byteOffset":389412,"byteLength":160,"target":34962},{"buffer":0,"byteOffset":389572,"byteLength":48,"target":34963}],"buffers":[{"byteLength":389620,"uri":"generated.library.bin"}],"images":[{"name":"T_WoodTrim_BaseColor","uri":"../village/T_WoodTrim_BaseColor.png"},{"name":"T_UnevenBrick_BaseColor","uri":"../village/T_UnevenBrick_BaseColor.png"},{"name":"T_Plaster_Luma","uri":"../village/T_Plaster_Luma.png"},{"name":"T_RoundTiles_Luma","uri":"../village/T_RoundTiles_Luma.png"},{"name":"T_RockTrim_BaseColor","uri":"../village/T_RockTrim_BaseColor.png"},{"name":"T_Brick_BaseColor","uri":"../village/T_Brick_BaseColor.png"}],"materials":[{"doubleSided":true,"name":"Wood_mid","pbrMetallicRoughness":{"baseColorFactor":[0.5179,0.5489,0.5787,1.0],"baseColorTexture":{"index":0},"metallicFactor":0,"roughnessFactor":0.8500000238418579}},{"doubleSided":true,"name":"Iron","pbrMetallicRoughness":{"baseColorFactor":[0.0134117491543293,0.0134117491543293,0.015325203537940979,1],"metallicFactor":0,"roughnessFactor":0.5}},{"doubleSided":true,"name":"ClockFace","pbrMetallicRoughness":{"baseColorFactor":[0.848088264465332,0.8073459267616272,0.6738595366477966,1],"metallicFactor":0,"roughnessFactor":0.6000000238418579}},{"doubleSided":true,"name":"Glass","pbrMetallicRoughness":{"baseColorFactor":[0.03310476616024971,0.05087608844041824,0.07828831672668457,1],"metallicFactor":0,"roughnessFactor":0.20000000298023224}},{"doubleSided":true,"name":"Stone","pbrMetallicRoughness":{"baseColorFactor":[1.0,0.9974,0.9977,1.0],"baseColorTexture":{"index":1},"metallicFactor":0,"roughnessFactor":0.8500000238418579}},{"doubleSided":true,"name":"Plaster_white","pbrMetallicRoughness":{"baseColorFactor":[1.0,1.0,0.9092,1.0],"baseColorTexture":{"index":2},"metallicFactor":0,"roughnessFactor":0.8500000238418579}},{"doubleSided":true,"name":"Tiles_slate","pbrMetallicRoughness":{"baseColorFactor":[0.1477,0.1884,0.2641,1.0],"baseColorTexture":{"index":3},"metallicFactor":0,"roughnessFactor":0.699999988079071}},{"doubleSided":true,"name":"SignPaint","pbrMetallicRoughness":{"baseColorFactor":[0.6038273572921753,0.34239163994789124,0.03310476616024971,1],"metallicFactor":0,"roughnessFactor":0.6000000238418579}},{"doubleSided":true,"name":"RockTrim","pbrMetallicRoughness":{"baseColorFactor":[1.0,0.9979,1.0,1.0],"baseColorTexture":{"index":4},"metallicFactor":0,"roughnessFactor":0.8500000238418579}},{"doubleSided":true,"name":"Brick","pbrMetallicRoughness":{"baseColorFactor":[1.0,0.9974,1.0,1.0],"baseColorTexture":{"index":5},"metallicFactor":0,"roughnessFactor":0.8500000238418579}}],"meshes":[{"name":"lod","primitives":[{"attributes":{"NORMAL":0,"POSITION":1,"TEXCOORD_0":2},"indices":3,"material":0},{"attributes":{"NORMAL":4,"POSITION":5},"indices":6,"material":1},{"attributes":{"NORMAL":7,"POSITION":8},"indices":9,"material":2},{"attributes":{"NORMAL":10,"POSITION":11},"indices":12,"material":3},{"attributes":{"NORMAL":13,"POSITION":14,"TEXCOORD_0":15},"indices":16,"material":4},{"attributes":{"NORMAL":17,"POSITION":18,"TEXCOORD_0":19},"indices":20,"material":5},{"attributes":{"NORMAL":21,"POSITION":22,"TEXCOORD_0":23},"indices":24,"material":6},{"attributes":{"NORMAL":25,"POSITION":26},"indices":27,"material":7},{"attributes":{"NORMAL":28,"POSITION":29,"TEXCOORD_0":30},"indices":31,"material":8},{"attributes":{"NORMAL":32,"POSITION":33,"TEXCOORD_0":34},"indices":35,"material":9}]}],"nodes":[{"mesh":0,"name":"lod"}],"scene":0,"scenes":[{"name":"Scene","nodes":[0]}],"textures":[{"source":0},{"source":1},{"source":2},{"source":3},{"source":4},{"source":5}]}