{"accessors":[{"bufferView":0,"componentType":5126,"count":360,"type":"VEC3"},{"bufferView":1,"componentType":5126,"count":360,"max":[4,12.239999771118164,3],"min":[-4,0,-8],"type":"VEC3"},{"bufferView":2,"componentType":5126,"count":360,"type":"VEC2"},{"bufferView":3,"componentType":5123,"count":540,"type":"SCALAR"},{"bufferView":4,"componentType":5126,"count":360,"type":"VEC3"},{"bufferView":5,"componentType":5126,"count":360,"max":[4.050000190734863,10.819999694824219,3],"min":[-4.050000190734863,0,-8],"type":"VEC3"},{"bufferView":6,"componentType":5126,"count":360,"type":"VEC2"},{"bufferView":7,"componentType":5123,"count":540,"type":"SCALAR"},{"bufferView":8,"componentType":5126,"count":36,"type":"VEC3"},{"bufferView":9,"componentType":5126,"count":36,"max":[2.9200000762939453,4.059999942779541,0.03999999910593033],"min":[-0.6200000047683716,0,-8.039999961853027],"type":"VEC3"},{"bufferView":10,"componentType":5126,"count":36,"type":"VEC2"},{"bufferView":11,"componentType":5123,"count":54,"type":"SCALAR"},{"bufferView":12,"componentType":5126,"count":364,"type":"VEC3"},{"bufferView":13,"componentType":5126,"count":364,"max":[2.940000057220459,10.390000343322754,0.03999999910593033],"min":[-2.990000009536743,0.25999999046325684,-8.039999961853027],"type":"VEC3"},{"bufferView":14,"componentType":5123,"count":546,"type":"SCALAR"},{"bufferView":15,"componentType":5126,"count":60,"type":"VEC3"},{"bufferView":16,"componentType":5126,"count":60,"max":[4.150000095367432,12.5,0.6000000238418579],"min":[-4.150000095367432,10.699999809265137,-5.78000020980835],"type":"VEC3"},{"bufferView":17,"componentType":5123,"count":90,"type":"SCALAR"}],"asset":{"generator":"Khronos glTF Blender I/O v5.2.40","version":"2.0"},"bufferViews":[{"buffer":0,"byteOffset":0,"byteLength":4320,"target":34962},{"buffer":0,"byteOffset":4320,"byteLength":4320,"target":34962},{"buffer":0,"byteOffset":8640,"byteLength":2880,"target":34962},{"buffer":0,"byteOffset":11520,"byteLength":1080,"target":34963},{"buffer":0,"byteOffset":12600,"byteLength":4320,"target":34962},{"buffer":0,"byteOffset":16920,"byteLength":4320,"target":34962},{"buffer":0,"byteOffset":21240,"byteLength":2880,"target":34962},{"buffer":0,"byteOffset":24120,"byteLength":1080,"target":34963},{"buffer":0,"byteOffset":25200,"byteLength":432,"target":34962},{"buffer":0,"byteOffset":25632,"byteLength":432,"target":34962},{"buffer":0,"byteOffset":26064,"byteLength":288,"target":34962},{"buffer":0,"byteOffset":26352,"byteLength":108,"target":34963},{"buffer":0,"byteOffset":26460,"byteLength":4368,"target":34962},{"buffer":0,"byteOffset":30828,"byteLength":4368,"target":34962},{"buffer":0,"byteOffset":35196,"byteLength":1092,"target":34963},{"buffer":0,"byteOffset":36288,"byteLength":720,"target":34962},{"buffer":0,"byteOffset":37008,"byteLength":720,"target":34962},{"buffer":0,"byteOffset":37728,"byteLength":180,"target":34963}],"buffers":[{"byteLength":37908,"uri":"generated.brownstone.bin"}],"images":[{"name":"T_RockTrim_BaseColor","uri":"../village/T_RockTrim_BaseColor.png"},{"name":"T_UnevenBrick_BaseColor","uri":"../village/T_UnevenBrick_BaseColor.png"},{"name":"T_WoodTrim_BaseColor","uri":"../village/T_WoodTrim_BaseColor.png"}],"materials":[{"doubleSided":true,"name":"StoneTinted","pbrMetallicRoughness":{"baseColorFactor":[0.8873,0.4666,0.3746,1.0],"baseColorTexture":{"index":1},"metallicFactor":0,"roughnessFactor":0.8500000238418579}},{"doubleSided":true,"name":"RockTrim","pbrMetallicRoughness":{"baseColorFactor":[1.0,0.9979,1.0,1.0],"baseColorTexture":{"index":0},"metallicFactor":0,"roughnessFactor":0.8500000238418579}},{"doubleSided":true,"name":"Wood_dark","pbrMetallicRoughness":{"baseColorFactor":[0.2329,0.2659,0.2944,1.0],"baseColorTexture":{"index":2},"metallicFactor":0,"roughnessFactor":0.8500000238418579}},{"doubleSided":true,"name":"Glass","pbrMetallicRoughness":{"baseColorFactor":[0.03310476616024971,0.05087608844041824,0.07828831672668457,1],"metallicFactor":0,"roughnessFactor":0.20000000298023224}},{"doubleSided":true,"name":"Iron","pbrMetallicRoughness":{"baseColorFactor":[0.0134117491543293,0.0134117491543293,0.015325203537940979,1],"metallicFactor":0,"roughnessFactor":0.5}}],"meshes":[{"name":"Wall","primitives":[{"attributes":{"NORMAL":0,"POSITION":1,"TEXCOORD_0":2},"indices":3,"material":0},{"attributes":{"NORMAL":4,"POSITION":5,"TEXCOORD_0":6},"indices":7,"material":1},{"attributes":{"NORMAL":8,"POSITION":9,"TEXCOORD_0":10},"indices":11,"material":2},{"attributes":{"NORMAL":12,"POSITION":13},"indices":14,"material":3},{"attributes":{"NORMAL":15,"POSITION":16},"indices":17,"material":4}]}],"nodes":[{"mesh":0,"name":"brownstone"}],"scene":0,"scenes":[{"name":"Scene","nodes":[0]}],"textures":[{"source":0},{"source":1},{"source":2}]}