{"accessors":[{"bufferView":0,"componentType":5126,"count":44,"type":"VEC3"},{"bufferView":1,"componentType":5126,"count":44,"max":[3.0799999237060547,0.44999998807907104,0.5],"min":[-3.0799999237060547,0,-8.079999923706055],"type":"VEC3"},{"bufferView":2,"componentType":5126,"count":44,"type":"VEC2"},{"bufferView":3,"componentType":5123,"count":66,"type":"SCALAR"},{"bufferView":4,"componentType":5126,"count":294,"type":"VEC3"},{"bufferView":5,"componentType":5126,"count":294,"max":[3.049999952316284,13.220000267028809,0.8999999761581421],"min":[-3.049999952316284,0,-8],"type":"VEC3"},{"bufferView":6,"componentType":5126,"count":294,"type":"VEC2"},{"bufferView":7,"componentType":5123,"count":438,"type":"SCALAR"},{"bufferView":8,"componentType":5126,"count":1652,"type":"VEC3"},{"bufferView":9,"componentType":5126,"count":1652,"max":[3.5335631370544434,13.258606910705566,1.4700000286102295],"min":[-3.5335631370544434,0,-8.109999656677246],"type":"VEC3"},{"bufferView":10,"componentType":5126,"count":1652,"type":"VEC2"},{"bufferView":11,"componentType":5123,"count":2478,"type":"SCALAR"},{"bufferView":12,"componentType":5126,"count":420,"type":"VEC3"},{"bufferView":13,"componentType":5126,"count":420,"max":[3.0400002002716064,11.625,0.9500000476837158],"min":[-3.0399999618530273,0.8100000023841858,-8.039999961853027],"type":"VEC3"},{"bufferView":14,"componentType":5123,"count":630,"type":"SCALAR"},{"bufferView":15,"componentType":5126,"count":72,"type":"VEC3"},{"bufferView":16,"componentType":5126,"count":72,"max":[3.5500001907348633,13.390000343322754,1.4500000476837158],"min":[-3.5500006675720215,8.034749984741211,-8.550000190734863],"type":"VEC3"},{"bufferView":17,"componentType":5126,"count":72,"type":"VEC2"},{"bufferView":18,"componentType":5123,"count":108,"type":"SCALAR"},{"bufferView":19,"componentType":5126,"count":48,"type":"VEC3"},{"bufferView":20,"componentType":5126,"count":48,"max":[-1.0700000524520874,13.609999656677246,-5.570000171661377],"min":[-1.9299999475479126,8.850000381469727,-6.429999828338623],"type":"VEC3"},{"bufferView":21,"componentType":5126,"count":48,"type":"VEC2"},{"bufferView":22,"componentType":5123,"count":72,"type":"SCALAR"},{"bufferView":23,"componentType":5126,"count":24,"type":"VEC3"},{"bufferView":24,"componentType":5126,"count":24,"max":[-1.3200000524520874,13.869999885559082,-5.820000171661377],"min":[-1.6799999475479126,13.609999656677246,-6.179999828338623],"type":"VEC3"},{"bufferView":25,"componentType":5123,"count":36,"type":"SCALAR"}],"asset":{"generator":"Khronos glTF Blender I/O v5.2.40","version":"2.0"},"bufferViews":[{"buffer":0,"byteOffset":0,"byteLength":528,"target":34962},{"buffer":0,"byteOffset":528,"byteLength":528,"target":34962},{"buffer":0,"byteOffset":1056,"byteLength":352,"target":34962},{"buffer":0,"byteOffset":1408,"byteLength":132,"target":34963},{"buffer":0,"byteOffset":1540,"byteLength":3528,"target":34962},{"buffer":0,"byteOffset":5068,"byteLength":3528,"target":34962},{"buffer":0,"byteOffset":8596,"byteLength":2352,"target":34962},{"buffer":0,"byteOffset":10948,"byteLength":876,"target":34963},{"buffer":0,"byteOffset":11824,"byteLength":19824,"target":34962},{"buffer":0,"byteOffset":31648,"byteLength":19824,"target":34962},{"buffer":0,"byteOffset":51472,"byteLength":13216,"target":34962},{"buffer":0,"byteOffset":64688,"byteLength":4956,"target":34963},{"buffer":0,"byteOffset":69644,"byteLength":5040,"target":34962},{"buffer":0,"byteOffset":74684,"byteLength":5040,"target":34962},{"buffer":0,"byteOffset":79724,"byteLength":1260,"target":34963},{"buffer":0,"byteOffset":80984,"byteLength":864,"target":34962},{"buffer":0,"byteOffset":81848,"byteLength":864,"target":34962},{"buffer":0,"byteOffset":82712,"byteLength":576,"target":34962},{"buffer":0,"byteOffset":83288,"byteLength":216,"target":34963},{"buffer":0,"byteOffset":83504,"byteLength":576,"target":34962},{"buffer":0,"byteOffset":84080,"byteLength":576,"target":34962},{"buffer":0,"byteOffset":84656,"byteLength":384,"target":34962},{"buffer":0,"byteOffset":85040,"byteLength":144,"target":34963},{"buffer":0,"byteOffset":85184,"byteLength":288,"target":34962},{"buffer":0,"byteOffset":85472,"byteLength":288,"target":34962},{"buffer":0,"byteOffset":85760,"byteLength":72,"target":34963}],"buffers":[{"byteLength":85832,"uri":"generated.tall_house.bin"}],"images":[{"name":"T_Plaster_Luma","uri":"../village/T_Plaster_Luma.png"},{"name":"T_RockTrim_BaseColor","uri":"../village/T_RockTrim_BaseColor.png"},{"name":"T_RoundTiles_BaseColor","uri":"../village/T_RoundTiles_BaseColor.png"},{"name":"T_UnevenBrick_BaseColor","uri":"../village/T_UnevenBrick_BaseColor.png"},{"name":"T_WoodTrim_BaseColor","uri":"../village/T_WoodTrim_BaseColor.png"}],"materials":[{"doubleSided":true,"name":"RockTrim","pbrMetallicRoughness":{"baseColorFactor":[1.0,0.9979,1.0,1.0],"baseColorTexture":{"index":1},"metallicFactor":0,"roughnessFactor":0.8500000238418579}},{"doubleSided":true,"name":"HousePlaster","pbrMetallicRoughness":{"baseColorFactor":[0.9583,0.7715,0.4434,1.0],"baseColorTexture":{"index":0},"metallicFactor":0,"roughnessFactor":0.8500000238418579}},{"doubleSided":true,"name":"Wood_mid","pbrMetallicRoughness":{"baseColorFactor":[0.5179,0.5489,0.5787,1.0],"baseColorTexture":{"index":4},"metallicFactor":0,"roughnessFactor":0.8500000238418579}},{"doubleSided":true,"name":"Glass","pbrMetallicRoughness":{"baseColorFactor":[0.03310476616024971,0.05087608844041824,0.07828831672668457,1],"metallicFactor":0,"roughnessFactor":0.20000000298023224}},{"doubleSided":true,"name":"HouseTiles","pbrMetallicRoughness":{"baseColorFactor":[1.0,0.9965,0.9971,1.0],"baseColorTexture":{"index":2},"metallicFactor":0,"roughnessFactor":0.699999988079071}},{"doubleSided":true,"name":"Stone","pbrMetallicRoughness":{"baseColorFactor":[1.0,0.9974,0.9977,1.0],"baseColorTexture":{"index":3},"metallicFactor":0,"roughnessFactor":0.8500000238418579}},{"doubleSided":true,"name":"Iron","pbrMetallicRoughness":{"baseColorFactor":[0.0134117491543293,0.0134117491543293,0.015325203537940979,1],"metallicFactor":0,"roughnessFactor":0.5}}],"meshes":[{"name":"Plinth","primitives":[{"attributes":{"NORMAL":0,"POSITION":1,"TEXCOORD_0":2},"indices":3,"material":0},{"attributes":{"NORMAL":4,"POSITION":5,"TEXCOORD_0":6},"indices":7,"material":1},{"attributes":{"NORMAL":8,"POSITION":9,"TEXCOORD_0":10},"indices":11,"material":2},{"attributes":{"NORMAL":12,"POSITION":13},"indices":14,"material":3},{"attributes":{"NORMAL":15,"POSITION":16,"TEXCOORD_0":17},"indices":18,"material":4},{"attributes":{"NORMAL":19,"POSITION":20,"TEXCOORD_0":21},"indices":22,"material":5},{"attributes":{"NORMAL":23,"POSITION":24},"indices":25,"material":6}]}],"nodes":[{"mesh":0,"name":"tall_house"}],"scene":0,"scenes":[{"name":"Scene","nodes":[0]}],"textures":[{"source":0},{"source":1},{"source":2},{"source":3},{"source":4}]}