{"accessors":[{"bufferView":0,"componentType":5126,"count":908,"type":"VEC3"},{"bufferView":1,"componentType":5126,"count":908,"max":[9.5,10.039999961853027,0],"min":[-9.5,-3,-32.79999923706055],"type":"VEC3"},{"bufferView":2,"componentType":5123,"count":1374,"type":"SCALAR"},{"bufferView":3,"componentType":5126,"count":324,"type":"VEC3"},{"bufferView":4,"componentType":5126,"count":324,"max":[9.5,10.390000343322754,-8],"min":[-9.5,-3,-33.400001525878906],"type":"VEC3"},{"bufferView":5,"componentType":5126,"count":324,"type":"VEC2"},{"bufferView":6,"componentType":5123,"count":546,"type":"SCALAR"},{"bufferView":7,"componentType":5126,"count":72,"type":"VEC3"},{"bufferView":8,"componentType":5126,"count":72,"max":[8.859999656677246,7.239999771118164,-9.4399995803833],"min":[-8.859999656677246,3.619999885559082,-26.079999923706055],"type":"VEC3"},{"bufferView":9,"componentType":5123,"count":108,"type":"SCALAR"},{"bufferView":10,"componentType":5126,"count":96,"type":"VEC3"},{"bufferView":11,"componentType":5126,"count":96,"max":[9.100000381469727,5.699999809265137,-8.350000381469727],"min":[-9.100000381469727,4.510000228881836,-15.699999809265137],"type":"VEC3"},{"bufferView":12,"componentType":5123,"count":144,"type":"SCALAR"},{"bufferView":13,"componentType":5126,"count":80,"type":"VEC3"},{"bufferView":14,"componentType":5126,"count":80,"max":[3.5450000762939453,7.389999866485596,-8.704999923706055],"min":[-3.5450000762939453,3.299999952316284,-26.139999389648438],"type":"VEC3"},{"bufferView":15,"componentType":5123,"count":120,"type":"SCALAR"},{"bufferView":16,"componentType":5126,"count":40,"type":"VEC3"},{"bufferView":17,"componentType":5126,"count":40,"max":[3.619999885559082,5.289999961853027,-8.630000114440918],"min":[-3.619999885559082,4.949999809265137,-8.869999885559082],"type":"VEC3"},{"bufferView":18,"componentType":5123,"count":60,"type":"SCALAR"},{"bufferView":19,"componentType":5126,"count":260,"type":"VEC3"},{"bufferView":20,"componentType":5126,"count":260,"max":[9.479999542236328,8.039999961853027,-16.700000762939453],"min":[-9.479999542236328,3.640000104904175,-31.555885314941406],"type":"VEC3"},{"bufferView":21,"componentType":5123,"count":408,"type":"SCALAR"},{"bufferView":22,"componentType":5126,"count":80,"type":"VEC3"},{"bufferView":23,"componentType":5126,"count":80,"max":[7.230000019073486,3.859999895095825,-32.16999816894531],"min":[-7.230000019073486,3.640000104904175,-33.029998779296875],"type":"VEC3"},{"bufferView":24,"componentType":5123,"count":120,"type":"SCALAR"}],"asset":{"generator":"Khronos glTF Blender I/O v5.2.40","version":"2.0"},"bufferViews":[{"buffer":0,"byteOffset":0,"byteLength":10896,"target":34962},{"buffer":0,"byteOffset":10896,"byteLength":10896,"target":34962},{"buffer":0,"byteOffset":21792,"byteLength":2748,"target":34963},{"buffer":0,"byteOffset":24540,"byteLength":3888,"target":34962},{"buffer":0,"byteOffset":28428,"byteLength":3888,"target":34962},{"buffer":0,"byteOffset":32316,"byteLength":2592,"target":34962},{"buffer":0,"byteOffset":34908,"byteLength":1092,"target":34963},{"buffer":0,"byteOffset":36000,"byteLength":864,"target":34962},{"buffer":0,"byteOffset":36864,"byteLength":864,"target":34962},{"buffer":0,"byteOffset":37728,"byteLength":216,"target":34963},{"buffer":0,"byteOffset":37944,"byteLength":1152,"target":34962},{"buffer":0,"byteOffset":39096,"byteLength":1152,"target":34962},{"buffer":0,"byteOffset":40248,"byteLength":288,"target":34963},{"buffer":0,"byteOffset":40536,"byteLength":960,"target":34962},{"buffer":0,"byteOffset":41496,"byteLength":960,"target":34962},{"buffer":0,"byteOffset":42456,"byteLength":240,"target":34963},{"buffer":0,"byteOffset":42696,"byteLength":480,"target":34962},{"buffer":0,"byteOffset":43176,"byteLength":480,"target":34962},{"buffer":0,"byteOffset":43656,"byteLength":120,"target":34963},{"buffer":0,"byteOffset":43776,"byteLength":3120,"target":34962},{"buffer":0,"byteOffset":46896,"byteLength":3120,"target":34962},{"buffer":0,"byteOffset":50016,"byteLength":816,"target":34963},{"buffer":0,"byteOffset":50832,"byteLength":960,"target":34962},{"buffer":0,"byteOffset":51792,"byteLength":960,"target":34962},{"buffer":0,"byteOffset":52752,"byteLength":240,"target":34963}],"buffers":[{"byteLength":52992,"uri":"generated.belvedere.bin"}],"images":[{"name":"T_Plaster_Luma","uri":"../village/T_Plaster_Luma.png"}],"materials":[{"doubleSided":true,"name":"GrecoMarble","pbrMetallicRoughness":{"baseColorFactor":[0.8073459267616272,0.7874122858047485,0.7293471097946167,1],"metallicFactor":0,"roughnessFactor":0.4000000059604645}},{"doubleSided":true,"name":"GrecoLimestone","pbrMetallicRoughness":{"baseColorFactor":[0.9026,0.7713,0.5384,1.0],"baseColorTexture":{"index":0},"metallicFactor":0,"roughnessFactor":0.800000011920929}},{"doubleSided":true,"name":"GrecoRedBrown","pbrMetallicRoughness":{"baseColorFactor":[0.13286831974983215,0.027211781591176987,0.011645430698990822,1],"metallicFactor":0,"roughnessFactor":0.800000011920929}},{"doubleSided":true,"name":"GrecoHedge","pbrMetallicRoughness":{"baseColorFactor":[0.02451501414179802,0.06838485598564148,0.0134117491543293,1],"metallicFactor":0,"roughnessFactor":0.949999988079071}},{"doubleSided":true,"name":"GrecoBronze","pbrMetallicRoughness":{"baseColorFactor":[0.04696420207619667,0.01960664801299572,0.00854038167744875,1],"metallicFactor":0,"roughnessFactor":0.44999998807907104}},{"doubleSided":true,"emissiveFactor":[1,0.4200332760810852,0.07323895394802094],"name":"EmitAmber","pbrMetallicRoughness":{"baseColorFactor":[1,0.4200332760810852,0.07323895394802094,1],"metallicFactor":0,"roughnessFactor":0.30000001192092896}},{"doubleSided":true,"name":"GrecoCopper","pbrMetallicRoughness":{"baseColorFactor":[0.3931231200695038,0.11928018927574158,0.03310476616024971,1],"metallicFactor":0,"roughnessFactor":0.4000000059604645}},{"doubleSided":true,"name":"GrecoStoneShade","pbrMetallicRoughness":{"baseColorFactor":[0.5382355451583862,0.4479884207248688,0.3069993257522583,1],"metallicFactor":0,"roughnessFactor":0.8500000238418579}}],"meshes":[{"name":"Step","primitives":[{"attributes":{"NORMAL":0,"POSITION":1},"indices":2,"material":0},{"attributes":{"NORMAL":3,"POSITION":4,"TEXCOORD_0":5},"indices":6,"material":1},{"attributes":{"NORMAL":7,"POSITION":8},"indices":9,"material":2},{"attributes":{"NORMAL":10,"POSITION":11},"indices":12,"material":3},{"attributes":{"NORMAL":13,"POSITION":14},"indices":15,"material":4},{"attributes":{"NORMAL":16,"POSITION":17},"indices":18,"material":5},{"attributes":{"NORMAL":19,"POSITION":20},"indices":21,"material":6},{"attributes":{"NORMAL":22,"POSITION":23},"indices":24,"material":7}]}],"nodes":[{"mesh":0,"name":"belvedere"}],"scene":0,"scenes":[{"name":"Scene","nodes":[0]}],"textures":[{"source":0}]}