{"accessors":[{"bufferView":0,"componentType":5126,"count":192,"max":[5,9.989999771118164,0],"min":[-5,0,-9],"type":"VEC3"},{"bufferView":1,"componentType":5126,"count":192,"type":"VEC3"},{"bufferView":2,"componentType":5126,"count":192,"type":"VEC2"},{"bufferView":3,"componentType":5123,"count":288,"type":"SCALAR"},{"bufferView":4,"componentType":5126,"count":156,"max":[5,8.86683177947998,0],"min":[-5,3.200000047683716,-9],"type":"VEC3"},{"bufferView":5,"componentType":5126,"count":156,"type":"VEC3"},{"bufferView":6,"componentType":5126,"count":156,"type":"VEC2"},{"bufferView":7,"componentType":5123,"count":228,"type":"SCALAR"},{"bufferView":8,"componentType":5126,"count":220,"max":[5.039999961853027,8.006832122802734,0.03999999910593033],"min":[-5.039999961853027,0.8100000023841858,-9.039999961853027],"type":"VEC3"},{"bufferView":9,"componentType":5126,"count":220,"type":"VEC3"},{"bufferView":10,"componentType":5126,"count":220,"type":"VEC2"},{"bufferView":11,"componentType":5123,"count":330,"type":"SCALAR"},{"bufferView":12,"componentType":5126,"count":596,"max":[5.570000171661377,6.170000076293945,0.5699999928474426],"min":[-5.570000171661377,0,-9.569999694824219],"type":"VEC3"},{"bufferView":13,"componentType":5126,"count":596,"type":"VEC3"},{"bufferView":14,"componentType":5126,"count":596,"type":"VEC2"},{"bufferView":15,"componentType":5123,"count":894,"type":"SCALAR"},{"bufferView":16,"componentType":5126,"count":240,"max":[5.039999961853027,8.006832122802734,0.03999999910593033],"min":[-5.039999961853027,0.8100000023841858,-9.039999961853027],"type":"VEC3"},{"bufferView":17,"componentType":5126,"count":240,"type":"VEC3"},{"bufferView":18,"componentType":5126,"count":240,"type":"VEC2"},{"bufferView":19,"componentType":5123,"count":360,"type":"SCALAR"},{"bufferView":20,"componentType":5126,"count":158,"max":[5.550000190734863,9.449999809265137,0.550000011920929],"min":[-5.550000190734863,6.150000095367432,-9.550000190734863],"type":"VEC3"},{"bufferView":21,"componentType":5126,"count":158,"type":"VEC3"},{"bufferView":22,"componentType":5126,"count":158,"type":"VEC2"},{"bufferView":23,"componentType":5123,"count":234,"type":"SCALAR"},{"bufferView":24,"componentType":5126,"count":48,"max":[3.5799999237060547,10.25,-4.920000076293945],"min":[-3.180000066757202,9.789999961853027,-6.079999923706055],"type":"VEC3"},{"bufferView":25,"componentType":5126,"count":48,"type":"VEC3"},{"bufferView":26,"componentType":5126,"count":48,"type":"VEC2"},{"bufferView":27,"componentType":5123,"count":72,"type":"SCALAR"}],"asset":{"generator":"Khronos glTF Blender I/O v5.2.40","version":"2.0"},"bufferViews":[{"buffer":0,"byteLength":2304,"byteOffset":0,"target":34962},{"buffer":0,"byteLength":2304,"byteOffset":2304,"target":34962},{"buffer":0,"byteLength":1536,"byteOffset":4608,"target":34962},{"buffer":0,"byteLength":576,"byteOffset":6144,"target":34963},{"buffer":0,"byteLength":1872,"byteOffset":6720,"target":34962},{"buffer":0,"byteLength":1872,"byteOffset":8592,"target":34962},{"buffer":0,"byteLength":1248,"byteOffset":10464,"target":34962},{"buffer":0,"byteLength":456,"byteOffset":11712,"target":34963},{"buffer":0,"byteLength":2640,"byteOffset":12168,"target":34962},{"buffer":0,"byteLength":2640,"byteOffset":14808,"target":34962},{"buffer":0,"byteLength":1760,"byteOffset":17448,"target":34962},{"buffer":0,"byteLength":660,"byteOffset":19208,"target":34963},{"buffer":0,"byteLength":7152,"byteOffset":19868,"target":34962},{"buffer":0,"byteLength":7152,"byteOffset":27020,"target":34962},{"buffer":0,"byteLength":4768,"byteOffset":34172,"target":34962},{"buffer":0,"byteLength":1788,"byteOffset":38940,"target":34963},{"buffer":0,"byteLength":2880,"byteOffset":40728,"target":34962},{"buffer":0,"byteLength":2880,"byteOffset":43608,"target":34962},{"buffer":0,"byteLength":1920,"byteOffset":46488,"target":34962},{"buffer":0,"byteLength":720,"byteOffset":48408,"target":34963},{"buffer":0,"byteLength":1896,"byteOffset":49128,"target":34962},{"buffer":0,"byteLength":1896,"byteOffset":51024,"target":34962},{"buffer":0,"byteLength":1264,"byteOffset":52920,"target":34962},{"buffer":0,"byteLength":468,"byteOffset":54184,"target":34963},{"buffer":0,"byteLength":576,"byteOffset":54652,"target":34962},{"buffer":0,"byteLength":576,"byteOffset":55228,"target":34962},{"buffer":0,"byteLength":384,"byteOffset":55804,"target":34962},{"buffer":0,"byteLength":144,"byteOffset":56188,"target":34963}],"buffers":[{"byteLength":56332,"uri":"generated.lantern_inn.bin"}],"images":[{"name":"T_Plaster_Luma","uri":"../village/T_Plaster_Luma.png"},{"name":"T_RoundTiles_BaseColor","uri":"../village/T_RoundTiles_BaseColor.png"},{"name":"T_UnevenBrick_BaseColor","uri":"../village/T_UnevenBrick_BaseColor.png"},{"name":"T_WoodTrim_BaseColor","uri":"../village/T_WoodTrim_BaseColor.png"}],"materials":[{"doubleSided":true,"name":"Stone","pbrMetallicRoughness":{"baseColorFactor":[1.0,0.9974,0.9977,1.0],"baseColorTexture":{"index":2},"metallicFactor":0,"roughnessFactor":0.8500000238418579}},{"doubleSided":true,"name":"HousePlaster","pbrMetallicRoughness":{"baseColorFactor":[1.0,0.8583,0.3304,1.0],"baseColorTexture":{"index":0},"metallicFactor":0,"roughnessFactor":0.8500000238418579}},{"doubleSided":true,"emissiveFactor":[1,0.4479884207248688,0.10048151016235352],"name":"LampGlass","pbrMetallicRoughness":{"baseColorFactor":[1,0.5704815983772278,0.1473190039396286,1],"metallicFactor":0,"roughnessFactor":0.8500000238418579}},{"doubleSided":true,"name":"Wood_dark","pbrMetallicRoughness":{"baseColorFactor":[0.2329,0.2659,0.2944,1.0],"baseColorTexture":{"index":3},"metallicFactor":0,"roughnessFactor":0.8500000238418579}},{"doubleSided":true,"name":"Glass","pbrMetallicRoughness":{"baseColorFactor":[0.03310476616024971,0.05087608844041824,0.07828831672668457,1],"metallicFactor":0,"roughnessFactor":0.20000000298023224}},{"doubleSided":true,"name":"HouseTiles","pbrMetallicRoughness":{"baseColorFactor":[1.0,0.9965,0.9971,1.0],"baseColorTexture":{"index":1},"metallicFactor":0,"roughnessFactor":0.699999988079071}},{"doubleSided":true,"name":"Iron","pbrMetallicRoughness":{"baseColorFactor":[0.0134117491543293,0.0134117491543293,0.015325203537940979,1],"metallicFactor":0,"roughnessFactor":0.5}}],"meshes":[{"name":"Wall","primitives":[{"attributes":{"NORMAL":1,"POSITION":0,"TEXCOORD_0":2},"indices":3,"material":0},{"attributes":{"NORMAL":5,"POSITION":4,"TEXCOORD_0":6},"indices":7,"material":1},{"attributes":{"NORMAL":9,"POSITION":8,"TEXCOORD_0":10},"indices":11,"material":2},{"attributes":{"NORMAL":13,"POSITION":12,"TEXCOORD_0":14},"indices":15,"material":3},{"attributes":{"NORMAL":17,"POSITION":16,"TEXCOORD_0":18},"indices":19,"material":4},{"attributes":{"NORMAL":21,"POSITION":20,"TEXCOORD_0":22},"indices":23,"material":5},{"attributes":{"NORMAL":25,"POSITION":24,"TEXCOORD_0":26},"indices":27,"material":6}]}],"nodes":[{"mesh":0,"name":"lantern_inn"}],"scene":0,"scenes":[{"name":"Scene","nodes":[0]}],"textures":[{"source":0},{"source":1},{"source":2},{"source":3}]}
