{"accessors":[{"bufferView":0,"componentType":5126,"count":139,"max":[4.799999713897705,5.644968509674072,1.5],"min":[-4.799999713897705,0.8999999761581421,1.0099999904632568],"type":"VEC3"},{"bufferView":1,"componentType":5126,"count":139,"type":"VEC3"},{"bufferView":2,"componentType":5126,"count":139,"type":"VEC2"},{"bufferView":3,"componentType":5123,"count":192,"type":"SCALAR"},{"bufferView":4,"componentType":5126,"count":8,"max":[4.7182512283325195,0.4749999940395355,1.3415071964263916],"min":[-4.7182512283325195,0.42499998211860657,-3.0359082221984863],"type":"VEC3"},{"bufferView":5,"componentType":5126,"count":8,"type":"VEC3"},{"bufferView":6,"componentType":5126,"count":8,"type":"VEC2"},{"bufferView":7,"componentType":5123,"count":12,"type":"SCALAR"},{"bufferView":8,"componentType":5126,"count":10,"max":[4.640873908996582,0.9394285678863525,2.0093743801116943],"min":[-4.4764556884765625,0.9000000357627869,-3.5271711349487305],"type":"VEC3"},{"bufferView":9,"componentType":5126,"count":10,"type":"VEC3"},{"bufferView":10,"componentType":5126,"count":10,"type":"VEC2"},{"bufferView":11,"componentType":5123,"count":12,"type":"SCALAR"},{"bufferView":12,"componentType":5126,"count":61,"max":[4.608018398284912,1.2000000476837158,3.344285726547241],"min":[-4.56373929977417,0,1.0927717685699463],"type":"VEC3"},{"bufferView":13,"componentType":5126,"count":61,"type":"VEC3"},{"bufferView":14,"componentType":5126,"count":61,"type":"VEC2"},{"bufferView":15,"componentType":5123,"count":69,"type":"SCALAR"},{"bufferView":16,"componentType":5126,"count":92,"max":[4.579999923706055,5.562651634216309,1.4100000858306885],"min":[-4.579999923706055,0.898598313331604,-2.739290475845337],"type":"VEC3"},{"bufferView":17,"componentType":5126,"count":92,"type":"VEC3"},{"bufferView":18,"componentType":5126,"count":92,"type":"VEC2"},{"bufferView":19,"componentType":5123,"count":156,"type":"SCALAR"},{"bufferView":20,"componentType":5126,"count":53,"max":[3.9000000953674316,4.797624111175537,1.1100000143051147],"min":[-3.9000000953674316,0.8999999761581421,-2.7899999618530273],"type":"VEC3"},{"bufferView":21,"componentType":5126,"count":53,"type":"VEC3"},{"bufferView":22,"componentType":5126,"count":53,"type":"VEC2"},{"bufferView":23,"componentType":5123,"count":168,"type":"SCALAR"}],"asset":{"version":"2.0"},"bufferViews":[{"buffer":0,"byteLength":1668,"byteOffset":0,"target":34962},{"buffer":0,"byteLength":1668,"byteOffset":1668,"target":34962},{"buffer":0,"byteLength":1112,"byteOffset":3336,"target":34962},{"buffer":0,"byteLength":384,"byteOffset":4448,"target":34963},{"buffer":0,"byteLength":96,"byteOffset":4832,"target":34962},{"buffer":0,"byteLength":96,"byteOffset":4928,"target":34962},{"buffer":0,"byteLength":64,"byteOffset":5024,"target":34962},{"buffer":0,"byteLength":24,"byteOffset":5088,"target":34963},{"buffer":0,"byteLength":120,"byteOffset":5112,"target":34962},{"buffer":0,"byteLength":120,"byteOffset":5232,"target":34962},{"buffer":0,"byteLength":80,"byteOffset":5352,"target":34962},{"buffer":0,"byteLength":24,"byteOffset":5432,"target":34963},{"buffer":0,"byteLength":732,"byteOffset":5456,"target":34962},{"buffer":0,"byteLength":732,"byteOffset":6188,"target":34962},{"buffer":0,"byteLength":488,"byteOffset":6920,"target":34962},{"buffer":0,"byteLength":138,"byteOffset":7408,"target":34963},{"buffer":0,"byteLength":1104,"byteOffset":7548,"target":34962},{"buffer":0,"byteLength":1104,"byteOffset":8652,"target":34962},{"buffer":0,"byteLength":736,"byteOffset":9756,"target":34962},{"buffer":0,"byteLength":312,"byteOffset":10492,"target":34963},{"buffer":0,"byteLength":636,"byteOffset":10804,"target":34962},{"buffer":0,"byteLength":636,"byteOffset":11440,"target":34962},{"buffer":0,"byteLength":424,"byteOffset":12076,"target":34962},{"buffer":0,"byteLength":336,"byteOffset":12500,"target":34963}],"buffers":[{"byteLength":12836,"uri":"generated.bandshell.bin"}],"images":[{"name":"T_Brick_BaseColor","uri":"../village/T_Brick_BaseColor.png"}],"materials":[{"doubleSided":true,"name":"Bandshell_Accent","pbrMetallicRoughness":{"baseColorFactor":[0.6200000047683716,0.1599999964237213,0.14000000059604645,1],"metallicFactor":0,"roughnessFactor":0.699999988079071}},{"doubleSided":true,"name":"Bandshell_Brick","pbrMetallicRoughness":{"baseColorFactor":[1.0,0.92,0.82,1],"baseColorTexture":{"index":0},"metallicFactor":0,"roughnessFactor":0.8999999761581421}},{"doubleSided":true,"name":"Bandshell_Boards","pbrMetallicRoughness":{"baseColorFactor":[0.550000011920929,0.36000001430511475,0.20000000298023224,1],"metallicFactor":0,"roughnessFactor":0.8500000238418579}},{"doubleSided":true,"name":"Bandshell_Stone","pbrMetallicRoughness":{"baseColorFactor":[0.6200000047683716,0.5899999737739563,0.5400000214576721,1],"metallicFactor":0,"roughnessFactor":0.8999999761581421}},{"doubleSided":true,"name":"Bandshell_Shell","pbrMetallicRoughness":{"baseColorFactor":[0.9300000071525574,0.8899999856948853,0.800000011920929,1],"metallicFactor":0,"roughnessFactor":0.800000011920929}},{"doubleSided":true,"name":"Bandshell_Inner","pbrMetallicRoughness":{"baseColorFactor":[0.30000001192092896,0.44999998807907104,0.6600000262260437,1],"metallicFactor":0,"roughnessFactor":0.800000011920929}}],"meshes":[{"name":"Bandshell","primitives":[{"attributes":{"NORMAL":1,"POSITION":0,"TEXCOORD_0":2},"indices":3,"material":0},{"attributes":{"NORMAL":5,"POSITION":4,"TEXCOORD_0":6},"indices":7,"material":1},{"attributes":{"NORMAL":9,"POSITION":8,"TEXCOORD_0":10},"indices":11,"material":2},{"attributes":{"NORMAL":13,"POSITION":12,"TEXCOORD_0":14},"indices":15,"material":3},{"attributes":{"NORMAL":17,"POSITION":16,"TEXCOORD_0":18},"indices":19,"material":4},{"attributes":{"NORMAL":21,"POSITION":20,"TEXCOORD_0":22},"indices":23,"material":5}]}],"nodes":[{"mesh":0,"name":"Bandshell"}],"scene":0,"scenes":[{"name":"Scene","nodes":[0]}],"textures":[{"source":0}]}
