{"accessors":[{"bufferView":0,"componentType":5126,"count":300,"type":"VEC3"},{"bufferView":1,"componentType":5126,"count":300,"max":[15.680000305175781,11.899999618530273,0],"min":[-15.680000305175781,0,-28.479999542236328],"type":"VEC3"},{"bufferView":2,"componentType":5123,"count":450,"type":"SCALAR"},{"bufferView":3,"componentType":5126,"count":700,"type":"VEC3"},{"bufferView":4,"componentType":5126,"count":700,"max":[15.600000381469727,11.899999618530273,0],"min":[-15.600000381469727,0,-28.549999237060547],"type":"VEC3"},{"bufferView":5,"componentType":5126,"count":700,"type":"VEC2"},{"bufferView":6,"componentType":5123,"count":1110,"type":"SCALAR"},{"bufferView":7,"componentType":5126,"count":80,"type":"VEC3"},{"bufferView":8,"componentType":5126,"count":80,"max":[8.699999809265137,3,-0.10000000149011612],"min":[-8.699999809265137,0.8999999761581421,-7.099999904632568],"type":"VEC3"},{"bufferView":9,"componentType":5123,"count":120,"type":"SCALAR"},{"bufferView":10,"componentType":5126,"count":160,"type":"VEC3"},{"bufferView":11,"componentType":5126,"count":160,"max":[5.445000171661377,6.900000095367432,0.6449999809265137],"min":[-8.260000228881836,0,-20.600000381469727],"type":"VEC3"},{"bufferView":12,"componentType":5123,"count":240,"type":"SCALAR"},{"bufferView":13,"componentType":5126,"count":40,"type":"VEC3"},{"bufferView":14,"componentType":5126,"count":40,"max":[8.420001029968262,8.899999618530273,-10.399999618530273],"min":[-8.419999122619629,1.7400000095367432,-20.600000381469727],"type":"VEC3"},{"bufferView":15,"componentType":5123,"count":60,"type":"SCALAR"},{"bufferView":16,"componentType":5126,"count":80,"type":"VEC3"},{"bufferView":17,"componentType":5126,"count":80,"max":[11.920000076293945,4.690000057220459,0.7200000286102295],"min":[-11.920000076293945,1.850000023841858,-9.739999771118164],"type":"VEC3"}],"asset":{"generator":"Khronos glTF Blender I/O v5.2.40","version":"2.0"},"bufferViews":[{"buffer":0,"byteOffset":0,"byteLength":3600,"target":34962},{"buffer":0,"byteOffset":3600,"byteLength":3600,"target":34962},{"buffer":0,"byteOffset":7200,"byteLength":900,"target":34963},{"buffer":0,"byteOffset":8100,"byteLength":8400,"target":34962},{"buffer":0,"byteOffset":16500,"byteLength":8400,"target":34962},{"buffer":0,"byteOffset":24900,"byteLength":5600,"target":34962},{"buffer":0,"byteOffset":30500,"byteLength":2220,"target":34963},{"buffer":0,"byteOffset":32720,"byteLength":960,"target":34962},{"buffer":0,"byteOffset":33680,"byteLength":960,"target":34962},{"buffer":0,"byteOffset":34640,"byteLength":240,"target":34963},{"buffer":0,"byteOffset":34880,"byteLength":1920,"target":34962},{"buffer":0,"byteOffset":36800,"byteLength":1920,"target":34962},{"buffer":0,"byteOffset":38720,"byteLength":480,"target":34963},{"buffer":0,"byteOffset":39200,"byteLength":480,"target":34962},{"buffer":0,"byteOffset":39680,"byteLength":480,"target":34962},{"buffer":0,"byteOffset":40160,"byteLength":120,"target":34963},{"buffer":0,"byteOffset":40280,"byteLength":960,"target":34962},{"buffer":0,"byteOffset":41240,"byteLength":960,"target":34962}],"buffers":[{"byteLength":42200,"uri":"generated.agora.bin"}],"images":[{"name":"T_Plaster_Luma","uri":"../village/T_Plaster_Luma.png"}],"materials":[{"doubleSided":true,"name":"GrecoStoneShade","pbrMetallicRoughness":{"baseColorFactor":[0.5382355451583862,0.4479884207248688,0.3069993257522583,1],"metallicFactor":0,"roughnessFactor":0.8500000238418579}},{"doubleSided":true,"name":"GrecoLimestone","pbrMetallicRoughness":{"baseColorFactor":[0.9026,0.7713,0.5384,1.0],"baseColorTexture":{"index":0},"metallicFactor":0,"roughnessFactor":0.800000011920929}},{"doubleSided":true,"name":"GrecoHedge","pbrMetallicRoughness":{"baseColorFactor":[0.02451501414179802,0.06838485598564148,0.0134117491543293,1],"metallicFactor":0,"roughnessFactor":0.949999988079071}},{"doubleSided":true,"name":"GrecoBronze","pbrMetallicRoughness":{"baseColorFactor":[0.04696420207619667,0.01960664801299572,0.00854038167744875,1],"metallicFactor":0,"roughnessFactor":0.44999998807907104}},{"doubleSided":true,"name":"GrecoGlass","pbrMetallicRoughness":{"baseColorFactor":[0.010022825561463833,0.011645430698990822,0.0134117491543293,1],"metallicFactor":0,"roughnessFactor":0.15000000596046448}},{"doubleSided":true,"emissiveFactor":[1,0.4200332760810852,0.07323895394802094],"name":"EmitAmber","pbrMetallicRoughness":{"baseColorFactor":[1,0.4200332760810852,0.07323895394802094,1],"metallicFactor":0,"roughnessFactor":0.30000001192092896}}],"meshes":[{"name":"Step","primitives":[{"attributes":{"NORMAL":0,"POSITION":1},"indices":2,"material":0},{"attributes":{"NORMAL":3,"POSITION":4,"TEXCOORD_0":5},"indices":6,"material":1},{"attributes":{"NORMAL":7,"POSITION":8},"indices":9,"material":2},{"attributes":{"NORMAL":10,"POSITION":11},"indices":12,"material":3},{"attributes":{"NORMAL":13,"POSITION":14},"indices":15,"material":4},{"attributes":{"NORMAL":16,"POSITION":17},"indices":9,"material":5}]}],"nodes":[{"mesh":0,"name":"agora"}],"scene":0,"scenes":[{"name":"Scene","nodes":[0]}],"textures":[{"source":0}]}