{"accessors":[{"bufferView":0,"componentType":5126,"count":448,"type":"VEC3"},{"bufferView":1,"componentType":5126,"count":448,"max":[10.479999542236328,15.050000190734863,0],"min":[-10.479999542236328,0,-26.079999923706055],"type":"VEC3"},{"bufferView":2,"componentType":5123,"count":672,"type":"SCALAR"},{"bufferView":3,"componentType":5126,"count":884,"type":"VEC3"},{"bufferView":4,"componentType":5126,"count":884,"max":[10.550000190734863,14.800000190734863,0],"min":[-10.550000190734863,0,-26.149999618530273],"type":"VEC3"},{"bufferView":5,"componentType":5126,"count":884,"type":"VEC2"},{"bufferView":6,"componentType":5123,"count":1356,"type":"SCALAR"},{"bufferView":7,"componentType":5126,"count":120,"type":"VEC3"},{"bufferView":8,"componentType":5126,"count":120,"max":[10.300000190734863,3,-0.10000000149011612],"min":[-10.300000190734863,0.44999998807907104,-9.180000305175781],"type":"VEC3"},{"bufferView":9,"componentType":5123,"count":180,"type":"SCALAR"},{"bufferView":10,"componentType":5126,"count":4,"type":"VEC3"},{"bufferView":11,"componentType":5126,"count":4,"max":[9.600000381469727,1.600000023841858,-12],"min":[-9.600000381469727,1.600000023841858,-25.200000762939453],"type":"VEC3"},{"bufferView":12,"componentType":5123,"count":6,"type":"SCALAR"},{"bufferView":13,"componentType":5126,"count":128,"type":"VEC3"},{"bufferView":14,"componentType":5126,"count":128,"max":[6,6.199999809265137,-11.520000457763672],"min":[-6,1.600000023841858,-13.229999542236328],"type":"VEC3"},{"bufferView":15,"componentType":5123,"count":192,"type":"SCALAR"},{"bufferView":16,"componentType":5126,"count":244,"type":"VEC3"},{"bufferView":17,"componentType":5126,"count":244,"max":[10.039999961853027,9.300000190734863,-11.569999694824219],"min":[-10.039999961853027,2.299999952316284,-25.639999389648438],"type":"VEC3"},{"bufferView":18,"componentType":5123,"count":366,"type":"SCALAR"}],"asset":{"generator":"Khronos glTF Blender I/O v5.2.40","version":"2.0"},"bufferViews":[{"buffer":0,"byteOffset":0,"byteLength":5376,"target":34962},{"buffer":0,"byteOffset":5376,"byteLength":5376,"target":34962},{"buffer":0,"byteOffset":10752,"byteLength":1344,"target":34963},{"buffer":0,"byteOffset":12096,"byteLength":10608,"target":34962},{"buffer":0,"byteOffset":22704,"byteLength":10608,"target":34962},{"buffer":0,"byteOffset":33312,"byteLength":7072,"target":34962},{"buffer":0,"byteOffset":40384,"byteLength":2712,"target":34963},{"buffer":0,"byteOffset":43096,"byteLength":1440,"target":34962},{"buffer":0,"byteOffset":44536,"byteLength":1440,"target":34962},{"buffer":0,"byteOffset":45976,"byteLength":360,"target":34963},{"buffer":0,"byteOffset":46336,"byteLength":48,"target":34962},{"buffer":0,"byteOffset":46384,"byteLength":48,"target":34962},{"buffer":0,"byteOffset":46432,"byteLength":12,"target":34963},{"buffer":0,"byteOffset":46444,"byteLength":1536,"target":34962},{"buffer":0,"byteOffset":47980,"byteLength":1536,"target":34962},{"buffer":0,"byteOffset":49516,"byteLength":384,"target":34963},{"buffer":0,"byteOffset":49900,"byteLength":2928,"target":34962},{"buffer":0,"byteOffset":52828,"byteLength":2928,"target":34962},{"buffer":0,"byteOffset":55756,"byteLength":732,"target":34963}],"buffers":[{"byteLength":56488,"uri":"generated.greco_house.bin"}],"images":[{"name":"T_Plaster_Luma","uri":"../village/T_Plaster_Luma.png"}],"materials":[{"doubleSided":true,"name":"GrecoStoneShade","pbrMetallicRoughness":{"baseColorFactor":[0.5382355451583862,0.4479884207248688,0.3069993257522583,1],"metallicFactor":0,"roughnessFactor":0.8500000238418579}},{"doubleSided":true,"name":"GrecoLimestone","pbrMetallicRoughness":{"baseColorFactor":[0.9026,0.7713,0.5384,1.0],"baseColorTexture":{"index":0},"metallicFactor":0,"roughnessFactor":0.800000011920929}},{"doubleSided":true,"name":"GrecoHedge","pbrMetallicRoughness":{"baseColorFactor":[0.02451501414179802,0.06838485598564148,0.0134117491543293,1],"metallicFactor":0,"roughnessFactor":0.949999988079071}},{"doubleSided":true,"name":"GrecoMarble","pbrMetallicRoughness":{"baseColorFactor":[0.8073459267616272,0.7874122858047485,0.7293471097946167,1],"metallicFactor":0,"roughnessFactor":0.4000000059604645}},{"doubleSided":true,"name":"GrecoBronze","pbrMetallicRoughness":{"baseColorFactor":[0.04696420207619667,0.01960664801299572,0.00854038167744875,1],"metallicFactor":0,"roughnessFactor":0.44999998807907104}},{"doubleSided":true,"name":"GrecoGlass","pbrMetallicRoughness":{"baseColorFactor":[0.010022825561463833,0.011645430698990822,0.0134117491543293,1],"metallicFactor":0,"roughnessFactor":0.15000000596046448}}],"meshes":[{"name":"Step","primitives":[{"attributes":{"NORMAL":0,"POSITION":1},"indices":2,"material":0},{"attributes":{"NORMAL":3,"POSITION":4,"TEXCOORD_0":5},"indices":6,"material":1},{"attributes":{"NORMAL":7,"POSITION":8},"indices":9,"material":2},{"attributes":{"NORMAL":10,"POSITION":11},"indices":12,"material":3},{"attributes":{"NORMAL":13,"POSITION":14},"indices":15,"material":4},{"attributes":{"NORMAL":16,"POSITION":17},"indices":18,"material":5}]}],"nodes":[{"mesh":0,"name":"greco_house"}],"scene":0,"scenes":[{"name":"Scene","nodes":[0]}],"textures":[{"source":0}]}