{"accessors":[{"bufferView":0,"componentType":5126,"count":50,"type":"VEC3"},{"bufferView":1,"componentType":5126,"count":50,"max":[4.4200005531311035,2.75,1.4199999570846558],"min":[-3,1.9199999570846558,-3.499999761581421],"type":"VEC3"},{"bufferView":2,"componentType":5123,"count":66,"type":"SCALAR"},{"bufferView":3,"componentType":5126,"count":50,"type":"VEC3"},{"bufferView":4,"componentType":5126,"count":50,"max":[4.4200005531311035,2.75,1.4199999570846558],"min":[-2.5,1.9199999570846558,-3.999999761581421],"type":"VEC3"},{"bufferView":5,"componentType":5123,"count":66,"type":"SCALAR"},{"bufferView":6,"componentType":5126,"count":39,"type":"VEC3"},{"bufferView":7,"componentType":5126,"count":39,"max":[4.4200005531311035,3.820000410079956,1.4500001668930054],"min":[-3,1.850000023841858,-5.214999675750732],"type":"VEC3"},{"bufferView":8,"componentType":5123,"count":51,"type":"SCALAR"},{"bufferView":9,"componentType":5126,"count":6249,"type":"VEC3"},{"bufferView":10,"componentType":5126,"count":6249,"max":[4.289999961853027,10.503981590270996,0.8287529945373535],"min":[-3.898078441619873,-0.023045778274536133,-8.828752517700195],"type":"VEC3"},{"bufferView":11,"componentType":5126,"count":6249,"type":"VEC2"},{"bufferView":12,"componentType":5123,"count":9213,"type":"SCALAR"},{"bufferView":13,"componentType":5126,"count":369,"type":"VEC3"},{"bufferView":14,"componentType":5126,"count":369,"max":[3.0038883686065674,5.619254112243652,0.011245884001255035],"min":[-3.0038883686065674,1.0647618770599365,-8.003888130187988],"type":"VEC3"},{"bufferView":15,"componentType":5123,"count":513,"type":"SCALAR"},{"bufferView":16,"componentType":5126,"count":108,"type":"VEC3"},{"bufferView":17,"componentType":5126,"count":108,"max":[-0.15183080732822418,1.2524888515472412,-7.879338264465332],"min":[-0.4105340242385864,0.8879135251045227,-8.07158088684082],"type":"VEC3"},{"bufferView":18,"componentType":5126,"count":108,"type":"VEC2"},{"bufferView":19,"componentType":5123,"count":132,"type":"SCALAR"},{"bufferView":20,"componentType":5126,"count":88,"type":"VEC3"},{"bufferView":21,"componentType":5126,"count":88,"max":[3,10.237531661987305,0.75],"min":[-3,0,-8],"type":"VEC3"},{"bufferView":22,"componentType":5126,"count":88,"type":"VEC2"},{"bufferView":23,"componentType":5123,"count":120,"type":"SCALAR"},{"bufferView":24,"componentType":5126,"count":40,"type":"VEC3"},{"bufferView":25,"componentType":5126,"count":40,"max":[3.000000238418579,10.067523956298828,1.1920928955078125e-07],"min":[-3.000000238418579,0,-8],"type":"VEC3"},{"bufferView":26,"componentType":5126,"count":40,"type":"VEC2"},{"bufferView":27,"componentType":5123,"count":54,"type":"SCALAR"},{"bufferView":28,"componentType":5126,"count":496,"type":"VEC3"},{"bufferView":29,"componentType":5126,"count":496,"max":[3.1225504875183105,10.49722957611084,1.3113417196564114e-07],"min":[-3.1225504875183105,0,-8],"type":"VEC3"},{"bufferView":30,"componentType":5126,"count":496,"type":"VEC2"},{"bufferView":31,"componentType":5123,"count":1155,"type":"SCALAR"},{"bufferView":32,"componentType":5126,"count":380,"type":"VEC3"},{"bufferView":33,"componentType":5126,"count":380,"max":[4.124891757965088,11.01004409790039,0.8539862632751465],"min":[-4.124891757965088,5.4815545082092285,-8.756110191345215],"type":"VEC3"},{"bufferView":34,"componentType":5126,"count":380,"type":"VEC2"},{"bufferView":35,"componentType":5123,"count":522,"type":"SCALAR"},{"bufferView":36,"componentType":5126,"count":3,"type":"VEC3"},{"bufferView":37,"componentType":5126,"count":3,"max":[4.144565582275391,3.266507625579834,-5.195000171661377],"min":[3.5984928607940674,2.8059418201446533,-5.206500053405762],"type":"VEC3"},{"bufferView":38,"componentType":5123,"count":3,"type":"SCALAR"}],"asset":{"version":"2.0"},"bufferViews":[{"buffer":0,"byteOffset":0,"byteLength":600,"target":34962},{"buffer":0,"byteOffset":600,"byteLength":600,"target":34962},{"buffer":0,"byteOffset":1200,"byteLength":132,"target":34963},{"buffer":0,"byteOffset":1332,"byteLength":600,"target":34962},{"buffer":0,"byteOffset":1932,"byteLength":600,"target":34962},{"buffer":0,"byteOffset":2532,"byteLength":132,"target":34963},{"buffer":0,"byteOffset":2664,"byteLength":468,"target":34962},{"buffer":0,"byteOffset":3132,"byteLength":468,"target":34962},{"buffer":0,"byteOffset":3600,"byteLength":102,"target":34963},{"buffer":0,"byteOffset":3704,"byteLength":74988,"target":34962},{"buffer":0,"byteOffset":78692,"byteLength":74988,"target":34962},{"buffer":0,"byteOffset":153680,"byteLength":49992,"target":34962},{"buffer":0,"byteOffset":203672,"byteLength":18426,"target":34963},{"buffer":0,"byteOffset":222100,"byteLength":4428,"target":34962},{"buffer":0,"byteOffset":226528,"byteLength":4428,"target":34962},{"buffer":0,"byteOffset":230956,"byteLength":1026,"target":34963},{"buffer":0,"byteOffset":231984,"byteLength":1296,"target":34962},{"buffer":0,"byteOffset":233280,"byteLength":1296,"target":34962},{"buffer":0,"byteOffset":234576,"byteLength":864,"target":34962},{"buffer":0,"byteOffset":235440,"byteLength":264,"target":34963},{"buffer":0,"byteOffset":235704,"byteLength":1056,"target":34962},{"buffer":0,"byteOffset":236760,"byteLength":1056,"target":34962},{"buffer":0,"byteOffset":237816,"byteLength":704,"target":34962},{"buffer":0,"byteOffset":238520,"byteLength":240,"target":34963},{"buffer":0,"byteOffset":238760,"byteLength":480,"target":34962},{"buffer":0,"byteOffset":239240,"byteLength":480,"target":34962},{"buffer":0,"byteOffset":239720,"byteLength":320,"target":34962},{"buffer":0,"byteOffset":240040,"byteLength":108,"target":34963},{"buffer":0,"byteOffset":240148,"byteLength":5952,"target":34962},{"buffer":0,"byteOffset":246100,"byteLength":5952,"target":34962},{"buffer":0,"byteOffset":252052,"byteLength":3968,"target":34962},{"buffer":0,"byteOffset":256020,"byteLength":2310,"target":34963},{"buffer":0,"byteOffset":258332,"byteLength":4560,"target":34962},{"buffer":0,"byteOffset":262892,"byteLength":4560,"target":34962},{"buffer":0,"byteOffset":267452,"byteLength":3040,"target":34962},{"buffer":0,"byteOffset":270492,"byteLength":1044,"target":34963},{"buffer":0,"byteOffset":271536,"byteLength":36,"target":34962},{"buffer":0,"byteOffset":271572,"byteLength":36,"target":34962},{"buffer":0,"byteOffset":271608,"byteLength":6,"target":34963}],"buffers":[{"byteLength":271616,"uri":"generated.corner_shop.bin"}],"images":[{"name":"T_WoodTrim_BaseColor","uri":"../village/T_WoodTrim_BaseColor.png"},{"name":"T_MetalOrnaments_BaseColor","uri":"../village/T_MetalOrnaments_BaseColor.png"},{"name":"T_RockTrim_BaseColor","uri":"../village/T_RockTrim_BaseColor.png"},{"name":"T_Brick_BaseColor","uri":"../village/T_Brick_BaseColor.png"},{"name":"T_Plaster_Luma","uri":"../village/T_Plaster_Luma.png"},{"name":"T_RoundTiles_Luma","uri":"../village/T_RoundTiles_Luma.png"}],"materials":[{"doubleSided":true,"name":"Cloth","pbrMetallicRoughness":{"baseColorFactor":[0.34239163994789124,0.03310476616024971,0.021980946883559227,1],"metallicFactor":0,"roughnessFactor":0.8999999761581421}},{"doubleSided":true,"name":"Cloth2","pbrMetallicRoughness":{"baseColorFactor":[0.7484140992164612,0.6382831931114197,0.4200332760810852,1],"metallicFactor":0,"roughnessFactor":0.8999999761581421}},{"doubleSided":true,"name":"Iron","pbrMetallicRoughness":{"baseColorFactor":[0.0134117491543293,0.0134117491543293,0.015325203537940979,1],"metallicFactor":0,"roughnessFactor":0.5}},{"doubleSided":true,"name":"Wood_light","pbrMetallicRoughness":{"baseColorFactor":[0.9998,0.9995,1.0,1.0],"baseColorTexture":{"index":0},"metallicFactor":0,"roughnessFactor":0.8500000238418579}},{"doubleSided":true,"name":"Glass","pbrMetallicRoughness":{"baseColorFactor":[0.03310476616024971,0.05087608844041824,0.07828831672668457,1],"metallicFactor":0,"roughnessFactor":0.20000000298023224}},{"doubleSided":true,"name":"Metal","pbrMetallicRoughness":{"baseColorFactor":[1.0,0.9972,0.9945,1.0],"baseColorTexture":{"index":1},"metallicFactor":0,"roughnessFactor":0.5}},{"doubleSided":true,"name":"RockTrim","pbrMetallicRoughness":{"baseColorFactor":[1.0,0.9979,1.0,1.0],"baseColorTexture":{"index":2},"metallicFactor":0,"roughnessFactor":0.8500000238418579}},{"doubleSided":true,"name":"Brick","pbrMetallicRoughness":{"baseColorFactor":[1.0,0.9974,1.0,1.0],"baseColorTexture":{"index":3},"metallicFactor":0,"roughnessFactor":0.8500000238418579}},{"doubleSided":true,"name":"Plaster_rose","pbrMetallicRoughness":{"baseColorFactor":[0.9099,0.5391,0.4777,1.0],"baseColorTexture":{"index":4},"metallicFactor":0,"roughnessFactor":0.8500000238418579}},{"doubleSided":true,"name":"Tiles_brown","pbrMetallicRoughness":{"baseColorFactor":[0.3822,0.1486,0.0653,1.0],"baseColorTexture":{"index":5},"metallicFactor":0,"roughnessFactor":0.699999988079071}},{"doubleSided":true,"name":"SignPaint","pbrMetallicRoughness":{"baseColorFactor":[0.6038273572921753,0.34239163994789124,0.03310476616024971,1],"metallicFactor":0,"roughnessFactor":0.6000000238418579}}],"meshes":[{"name":"lod","primitives":[{"attributes":{"NORMAL":0,"POSITION":1},"indices":2,"material":0},{"attributes":{"NORMAL":3,"POSITION":4},"indices":5,"material":1},{"attributes":{"NORMAL":6,"POSITION":7},"indices":8,"material":2},{"attributes":{"NORMAL":9,"POSITION":10,"TEXCOORD_0":11},"indices":12,"material":3},{"attributes":{"NORMAL":13,"POSITION":14},"indices":15,"material":4},{"attributes":{"NORMAL":16,"POSITION":17,"TEXCOORD_0":18},"indices":19,"material":5},{"attributes":{"NORMAL":20,"POSITION":21,"TEXCOORD_0":22},"indices":23,"material":6},{"attributes":{"NORMAL":24,"POSITION":25,"TEXCOORD_0":26},"indices":27,"material":7},{"attributes":{"NORMAL":28,"POSITION":29,"TEXCOORD_0":30},"indices":31,"material":8},{"attributes":{"NORMAL":32,"POSITION":33,"TEXCOORD_0":34},"indices":35,"material":9},{"attributes":{"NORMAL":36,"POSITION":37},"indices":38,"material":10}]}],"nodes":[{"mesh":0,"name":"lod"}],"scene":0,"scenes":[{"name":"Scene","nodes":[0]}],"textures":[{"source":0},{"source":1},{"source":2},{"source":3},{"source":4},{"source":5}]}