{"accessors":[{"bufferView":0,"componentType":5126,"count":7252,"max":[6.861367702484131,10.503981590270996,1.4909098148345947],"min":[-6.861367702484131,-0.0020958781242370605,-8.890910148620605],"type":"VEC3"},{"bufferView":1,"componentType":5126,"count":7252,"type":"VEC3"},{"bufferView":2,"componentType":5126,"count":7252,"type":"VEC2"},{"bufferView":3,"componentType":5123,"count":10803,"type":"SCALAR"},{"bufferView":4,"componentType":5126,"count":88,"max":[6,0.029999990016222,0],"min":[-6,0.009999615140259266,-8],"type":"VEC3"},{"bufferView":5,"componentType":5126,"count":88,"type":"VEC3"},{"bufferView":6,"componentType":5126,"count":88,"type":"VEC2"},{"bufferView":7,"componentType":5123,"count":120,"type":"SCALAR"},{"bufferView":8,"componentType":5126,"count":45,"max":[6.260000228881836,0.3374999761581421,0.25999999046325684],"min":[-6.260000228881836,0.11249999701976776,-8.260000228881836],"type":"VEC3"},{"bufferView":9,"componentType":5126,"count":45,"type":"VEC3"},{"bufferView":10,"componentType":5126,"count":45,"type":"VEC2"},{"bufferView":11,"componentType":5123,"count":45,"type":"SCALAR"},{"bufferView":12,"componentType":5126,"count":515,"max":[6.1225504875183105,10.49722957611084,0.612000048160553],"min":[-6.1225504875183105,-1.1920928955078125e-07,-8.01200008392334],"type":"VEC3"},{"bufferView":13,"componentType":5126,"count":515,"type":"VEC3"},{"bufferView":14,"componentType":5126,"count":515,"type":"VEC2"},{"bufferView":15,"componentType":5123,"count":1101,"type":"SCALAR"},{"bufferView":16,"componentType":5126,"count":1034,"max":[7.124891757965088,11.01004409790039,1.518035650253296],"min":[-7.124891757965088,5.4815545082092285,-8.81281852722168],"type":"VEC3"},{"bufferView":17,"componentType":5126,"count":1034,"type":"VEC3"},{"bufferView":18,"componentType":5126,"count":1034,"type":"VEC2"},{"bufferView":19,"componentType":5123,"count":1323,"type":"SCALAR"},{"bufferView":20,"componentType":5126,"count":8,"max":[4,0.8799999952316284,-8],"min":[-4,0,-8],"type":"VEC3"},{"bufferView":21,"componentType":5126,"count":8,"type":"VEC3"},{"bufferView":22,"componentType":5126,"count":8,"type":"VEC2"},{"bufferView":23,"componentType":5123,"count":12,"type":"SCALAR"},{"bufferView":24,"componentType":5126,"count":356,"max":[6.003888130187988,5.478931427001953,0.6038882732391357],"min":[-6.003888130187988,4.087573051452637,-8.003888130187988],"type":"VEC3"},{"bufferView":25,"componentType":5126,"count":356,"type":"VEC3"},{"bufferView":26,"componentType":5126,"count":356,"type":"VEC2"},{"bufferView":27,"componentType":5123,"count":498,"type":"SCALAR"}],"asset":{"version":"2.0"},"bufferViews":[{"buffer":0,"byteLength":87024,"byteOffset":0,"target":34962},{"buffer":0,"byteLength":87024,"byteOffset":87024,"target":34962},{"buffer":0,"byteLength":58016,"byteOffset":174048,"target":34962},{"buffer":0,"byteLength":21606,"byteOffset":232064,"target":34963},{"buffer":0,"byteLength":1056,"byteOffset":253672,"target":34962},{"buffer":0,"byteLength":1056,"byteOffset":254728,"target":34962},{"buffer":0,"byteLength":704,"byteOffset":255784,"target":34962},{"buffer":0,"byteLength":240,"byteOffset":256488,"target":34963},{"buffer":0,"byteLength":540,"byteOffset":256728,"target":34962},{"buffer":0,"byteLength":540,"byteOffset":257268,"target":34962},{"buffer":0,"byteLength":360,"byteOffset":257808,"target":34962},{"buffer":0,"byteLength":90,"byteOffset":258168,"target":34963},{"buffer":0,"byteLength":6180,"byteOffset":258260,"target":34962},{"buffer":0,"byteLength":6180,"byteOffset":264440,"target":34962},{"buffer":0,"byteLength":4120,"byteOffset":270620,"target":34962},{"buffer":0,"byteLength":2202,"byteOffset":274740,"target":34963},{"buffer":0,"byteLength":12408,"byteOffset":276944,"target":34962},{"buffer":0,"byteLength":12408,"byteOffset":289352,"target":34962},{"buffer":0,"byteLength":8272,"byteOffset":301760,"target":34962},{"buffer":0,"byteLength":2646,"byteOffset":310032,"target":34963},{"buffer":0,"byteLength":96,"byteOffset":312680,"target":34962},{"buffer":0,"byteLength":96,"byteOffset":312776,"target":34962},{"buffer":0,"byteLength":64,"byteOffset":312872,"target":34962},{"buffer":0,"byteLength":24,"byteOffset":312936,"target":34963},{"buffer":0,"byteLength":4272,"byteOffset":312960,"target":34962},{"buffer":0,"byteLength":4272,"byteOffset":317232,"target":34962},{"buffer":0,"byteLength":2848,"byteOffset":321504,"target":34962},{"buffer":0,"byteLength":996,"byteOffset":324352,"target":34963}],"buffers":[{"byteLength":325348,"uri":"generated.market_hall.bin"}],"images":[{"name":"T_WoodTrim_BaseColor","uri":"../village/T_WoodTrim_BaseColor.png"},{"name":"T_UnevenBrick_BaseColor","uri":"../village/T_UnevenBrick_BaseColor.png"},{"name":"T_RockTrim_BaseColor","uri":"../village/T_RockTrim_BaseColor.png"},{"name":"T_Plaster_Luma","uri":"../village/T_Plaster_Luma.png"},{"name":"T_RoundTiles_BaseColor","uri":"../village/T_RoundTiles_BaseColor.png"},{"name":"T_Brick_BaseColor","uri":"../village/T_Brick_BaseColor.png"}],"materials":[{"doubleSided":true,"name":"Wood_mid","pbrMetallicRoughness":{"baseColorFactor":[0.5179,0.5489,0.5787,1.0],"baseColorTexture":{"index":0},"metallicFactor":0,"roughnessFactor":0.8500000238418579}},{"doubleSided":true,"name":"Stone","pbrMetallicRoughness":{"baseColorFactor":[1.0,0.9974,0.9977,1.0],"baseColorTexture":{"index":1},"metallicFactor":0,"roughnessFactor":0.8500000238418579}},{"doubleSided":true,"name":"RockTrim","pbrMetallicRoughness":{"baseColorFactor":[1.0,0.9979,1.0,1.0],"baseColorTexture":{"index":2},"metallicFactor":0,"roughnessFactor":0.8500000238418579}},{"doubleSided":true,"name":"Plaster_white","pbrMetallicRoughness":{"baseColorFactor":[1.0,1.0,0.9092,1.0],"baseColorTexture":{"index":3},"metallicFactor":0,"roughnessFactor":0.8500000238418579}},{"doubleSided":true,"name":"Tiles_red","pbrMetallicRoughness":{"baseColorFactor":[1.0,0.9965,0.9971,1.0],"baseColorTexture":{"index":4},"metallicFactor":0,"roughnessFactor":0.699999988079071}},{"doubleSided":true,"name":"Brick","pbrMetallicRoughness":{"baseColorFactor":[1.0,0.9974,1.0,1.0],"baseColorTexture":{"index":5},"metallicFactor":0,"roughnessFactor":0.8500000238418579}},{"doubleSided":true,"name":"Glass","pbrMetallicRoughness":{"baseColorFactor":[0.03310476616024971,0.05087608844041824,0.07828831672668457,1],"metallicFactor":0,"roughnessFactor":0.20000000298023224}}],"meshes":[{"name":"lod","primitives":[{"attributes":{"NORMAL":1,"POSITION":0,"TEXCOORD_0":2},"indices":3,"material":0},{"attributes":{"NORMAL":5,"POSITION":4,"TEXCOORD_0":6},"indices":7,"material":1},{"attributes":{"NORMAL":9,"POSITION":8,"TEXCOORD_0":10},"indices":11,"material":2},{"attributes":{"NORMAL":13,"POSITION":12,"TEXCOORD_0":14},"indices":15,"material":3},{"attributes":{"NORMAL":17,"POSITION":16,"TEXCOORD_0":18},"indices":19,"material":4},{"attributes":{"NORMAL":21,"POSITION":20,"TEXCOORD_0":22},"indices":23,"material":5},{"attributes":{"NORMAL":25,"POSITION":24,"TEXCOORD_0":26},"indices":27,"material":6}]}],"nodes":[{"mesh":0,"name":"lod"}],"scene":0,"scenes":[{"name":"Scene","nodes":[0]}],"textures":[{"source":0},{"source":1},{"source":2},{"source":3},{"source":4},{"source":5}]}
