{"accessors":[{"bufferView":0,"componentType":5126,"count":6932,"max":[5.568983554840088,6.140000343322754,0.5689838528633118],"min":[-5.568984031677246,-0.008544921875,-8.520000457763672],"type":"VEC3"},{"bufferView":1,"componentType":5126,"count":6932,"type":"VEC3"},{"bufferView":2,"componentType":5126,"count":6932,"type":"VEC2"},{"bufferView":3,"componentType":5123,"count":10914,"type":"SCALAR"},{"bufferView":4,"componentType":5126,"count":612,"max":[5.0038886070251465,5.619254112243652,0.011245884001255035],"min":[-5.0038886070251465,1.0647618770599365,-8.003888130187988],"type":"VEC3"},{"bufferView":5,"componentType":5126,"count":612,"type":"VEC3"},{"bufferView":6,"componentType":5126,"count":612,"type":"VEC2"},{"bufferView":7,"componentType":5123,"count":888,"type":"SCALAR"},{"bufferView":8,"componentType":5126,"count":5,"max":[5.5,8.65333366394043,0.5],"min":[-5.5,6.119999885559082,-8.5],"type":"VEC3"},{"bufferView":9,"componentType":5126,"count":5,"type":"VEC3"},{"bufferView":10,"componentType":5126,"count":5,"type":"VEC2"},{"bufferView":11,"componentType":5123,"count":12,"type":"SCALAR"},{"bufferView":12,"componentType":5126,"count":9,"max":[1.1400001049041748,2.7300002574920654,0.5400000810623169],"min":[0.8600000143051147,2.1750001907348633,0.05000000447034836],"type":"VEC3"},{"bufferView":13,"componentType":5126,"count":9,"type":"VEC3"},{"bufferView":14,"componentType":5126,"count":9,"type":"VEC2"},{"bufferView":15,"componentType":5123,"count":9,"type":"SCALAR"},{"bufferView":16,"componentType":5126,"count":3,"max":[1.1000001430511475,2.5400004386901855,0.44999998807907104],"min":[0.8999999761581421,2.2200000286102295,0.3500000238418579],"type":"VEC3"},{"bufferView":17,"componentType":5126,"count":3,"type":"VEC3"},{"bufferView":18,"componentType":5126,"count":3,"type":"VEC2"},{"bufferView":19,"componentType":5123,"count":3,"type":"SCALAR"},{"bufferView":20,"componentType":5126,"count":126,"max":[5,9.236676216125488,0.75],"min":[-5,0,-5.654451847076416],"type":"VEC3"},{"bufferView":21,"componentType":5126,"count":126,"type":"VEC3"},{"bufferView":22,"componentType":5126,"count":126,"type":"VEC2"},{"bufferView":23,"componentType":5123,"count":186,"type":"SCALAR"},{"bufferView":24,"componentType":5126,"count":49,"max":[5,9.066667556762695,1.1920928955078125e-07],"min":[-5,0,-8],"type":"VEC3"},{"bufferView":25,"componentType":5126,"count":49,"type":"VEC3"},{"bufferView":26,"componentType":5126,"count":49,"type":"VEC2"},{"bufferView":27,"componentType":5123,"count":75,"type":"SCALAR"},{"bufferView":28,"componentType":5126,"count":737,"max":[5,6,1.3113417196564114e-07],"min":[-5,0,-8],"type":"VEC3"},{"bufferView":29,"componentType":5126,"count":737,"type":"VEC3"},{"bufferView":30,"componentType":5126,"count":737,"type":"VEC2"},{"bufferView":31,"componentType":5123,"count":1821,"type":"SCALAR"}],"asset":{"version":"2.0"},"bufferViews":[{"buffer":0,"byteLength":83184,"byteOffset":0,"target":34962},{"buffer":0,"byteLength":83184,"byteOffset":83184,"target":34962},{"buffer":0,"byteLength":55456,"byteOffset":166368,"target":34962},{"buffer":0,"byteLength":21828,"byteOffset":221824,"target":34963},{"buffer":0,"byteLength":7344,"byteOffset":243652,"target":34962},{"buffer":0,"byteLength":7344,"byteOffset":250996,"target":34962},{"buffer":0,"byteLength":4896,"byteOffset":258340,"target":34962},{"buffer":0,"byteLength":1776,"byteOffset":263236,"target":34963},{"buffer":0,"byteLength":60,"byteOffset":265012,"target":34962},{"buffer":0,"byteLength":60,"byteOffset":265072,"target":34962},{"buffer":0,"byteLength":40,"byteOffset":265132,"target":34962},{"buffer":0,"byteLength":24,"byteOffset":265172,"target":34963},{"buffer":0,"byteLength":108,"byteOffset":265196,"target":34962},{"buffer":0,"byteLength":108,"byteOffset":265304,"target":34962},{"buffer":0,"byteLength":72,"byteOffset":265412,"target":34962},{"buffer":0,"byteLength":18,"byteOffset":265484,"target":34963},{"buffer":0,"byteLength":36,"byteOffset":265504,"target":34962},{"buffer":0,"byteLength":36,"byteOffset":265540,"target":34962},{"buffer":0,"byteLength":24,"byteOffset":265576,"target":34962},{"buffer":0,"byteLength":6,"byteOffset":265600,"target":34963},{"buffer":0,"byteLength":1512,"byteOffset":265608,"target":34962},{"buffer":0,"byteLength":1512,"byteOffset":267120,"target":34962},{"buffer":0,"byteLength":1008,"byteOffset":268632,"target":34962},{"buffer":0,"byteLength":372,"byteOffset":269640,"target":34963},{"buffer":0,"byteLength":588,"byteOffset":270012,"target":34962},{"buffer":0,"byteLength":588,"byteOffset":270600,"target":34962},{"buffer":0,"byteLength":392,"byteOffset":271188,"target":34962},{"buffer":0,"byteLength":150,"byteOffset":271580,"target":34963},{"buffer":0,"byteLength":8844,"byteOffset":271732,"target":34962},{"buffer":0,"byteLength":8844,"byteOffset":280576,"target":34962},{"buffer":0,"byteLength":5896,"byteOffset":289420,"target":34962},{"buffer":0,"byteLength":3642,"byteOffset":295316,"target":34963}],"buffers":[{"byteLength":298960,"uri":"generated.hip_house.bin"}],"images":[{"name":"T_WoodTrim_BaseColor","uri":"../village/T_WoodTrim_BaseColor.png"},{"name":"T_RoundTiles_Luma","uri":"../village/T_RoundTiles_Luma.png"},{"name":"T_RockTrim_BaseColor","uri":"../village/T_RockTrim_BaseColor.png"},{"name":"T_Brick_BaseColor","uri":"../village/T_Brick_BaseColor.png"},{"name":"T_Plaster_Luma","uri":"../village/T_Plaster_Luma.png"}],"materials":[{"doubleSided":true,"name":"Wood_dark","pbrMetallicRoughness":{"baseColorFactor":[0.2329,0.2659,0.2944,1.0],"baseColorTexture":{"index":0},"metallicFactor":0,"roughnessFactor":0.8500000238418579}},{"doubleSided":true,"name":"Glass","pbrMetallicRoughness":{"baseColorFactor":[0.03310476616024971,0.05087608844041824,0.07828831672668457,1],"metallicFactor":0,"roughnessFactor":0.20000000298023224}},{"doubleSided":true,"name":"Tiles_slate","pbrMetallicRoughness":{"baseColorFactor":[0.1477,0.1884,0.2641,1.0],"baseColorTexture":{"index":1},"metallicFactor":0,"roughnessFactor":0.699999988079071}},{"doubleSided":true,"name":"Iron","pbrMetallicRoughness":{"baseColorFactor":[0.0134117491543293,0.0134117491543293,0.015325203537940979,1],"metallicFactor":0,"roughnessFactor":0.5}},{"doubleSided":true,"emissiveFactor":[1,0.4479884207248688,0.10048151016235352],"name":"LampGlass","pbrMetallicRoughness":{"baseColorFactor":[1,0.5704815983772278,0.1473190039396286,1],"metallicFactor":0,"roughnessFactor":0.8500000238418579}},{"doubleSided":true,"name":"RockTrim","pbrMetallicRoughness":{"baseColorFactor":[1.0,0.9979,1.0,1.0],"baseColorTexture":{"index":2},"metallicFactor":0,"roughnessFactor":0.8500000238418579}},{"doubleSided":true,"name":"Brick","pbrMetallicRoughness":{"baseColorFactor":[1.0,0.9974,1.0,1.0],"baseColorTexture":{"index":3},"metallicFactor":0,"roughnessFactor":0.8500000238418579}},{"doubleSided":true,"name":"Plaster_sky","pbrMetallicRoughness":{"baseColorFactor":[0.6185,0.7699,0.8996,1.0],"baseColorTexture":{"index":4},"metallicFactor":0,"roughnessFactor":0.8500000238418579}}],"meshes":[{"name":"lod","primitives":[{"attributes":{"NORMAL":1,"POSITION":0,"TEXCOORD_0":2},"indices":3,"material":0},{"attributes":{"NORMAL":5,"POSITION":4,"TEXCOORD_0":6},"indices":7,"material":1},{"attributes":{"NORMAL":9,"POSITION":8,"TEXCOORD_0":10},"indices":11,"material":2},{"attributes":{"NORMAL":13,"POSITION":12,"TEXCOORD_0":14},"indices":15,"material":3},{"attributes":{"NORMAL":17,"POSITION":16,"TEXCOORD_0":18},"indices":19,"material":4},{"attributes":{"NORMAL":21,"POSITION":20,"TEXCOORD_0":22},"indices":23,"material":5},{"attributes":{"NORMAL":25,"POSITION":24,"TEXCOORD_0":26},"indices":27,"material":6},{"attributes":{"NORMAL":29,"POSITION":28,"TEXCOORD_0":30},"indices":31,"material":7}]}],"nodes":[{"mesh":0,"name":"lod"}],"scene":0,"scenes":[{"name":"Scene","nodes":[0]}],"textures":[{"source":0},{"source":1},{"source":2},{"source":3},{"source":4}]}
