{"accessors":[{"bufferView":0,"componentType":5126,"count":8411,"type":"VEC3"},{"bufferView":1,"componentType":5126,"count":8411,"max":[7.02239990234375,11.720560073852539,2.190000057220459],"min":[-7.029819965362549,-0.023045778274536133,-9.028473854064941],"type":"VEC3"},{"bufferView":2,"componentType":5126,"count":8411,"type":"VEC2"},{"bufferView":3,"componentType":5123,"count":12537,"type":"SCALAR"},{"bufferView":4,"componentType":5126,"count":167,"type":"VEC3"},{"bufferView":5,"componentType":5126,"count":167,"max":[6.0038886070251465,7.516502380371094,1.645021677017212],"min":[-6.0038886070251465,1.0647618770599365,-8.011245727539062],"type":"VEC3"},{"bufferView":6,"componentType":5123,"count":432,"type":"SCALAR"},{"bufferView":7,"componentType":5126,"count":128,"type":"VEC3"},{"bufferView":8,"componentType":5126,"count":128,"max":[4.014999866485596,4.019999980926514,2.005000114440918],"min":[-2.890000104904175,2.009999990463257,0.09000000357627869],"type":"VEC3"},{"bufferView":9,"componentType":5123,"count":150,"type":"SCALAR"},{"bufferView":10,"componentType":5126,"count":24,"type":"VEC3"},{"bufferView":11,"componentType":5126,"count":24,"max":[2.8499999046325684,2.390000104904175,0.5399999618530273],"min":[-2.8499999046325684,2.069999933242798,0.3400000035762787],"type":"VEC3"},{"bufferView":12,"componentType":5123,"count":36,"type":"SCALAR"},{"bufferView":13,"componentType":5126,"count":36,"type":"VEC3"},{"bufferView":14,"componentType":5126,"count":36,"max":[4.845778465270996,9.989789962768555,-5.705991268157959],"min":[-4.699999809265137,6.898782730102539,-6.6940083503723145],"type":"VEC3"},{"bufferView":15,"componentType":5126,"count":36,"type":"VEC2"},{"bufferView":16,"componentType":5123,"count":72,"type":"SCALAR"},{"bufferView":17,"componentType":5126,"count":501,"type":"VEC3"},{"bufferView":18,"componentType":5126,"count":501,"max":[6.000000476837158,11.434065818786621,1.6412357091903687],"min":[-6.000000476837158,0,-8.174979209899902],"type":"VEC3"},{"bufferView":19,"componentType":5126,"count":501,"type":"VEC2"},{"bufferView":20,"componentType":5123,"count":930,"type":"SCALAR"},{"bufferView":21,"componentType":5126,"count":755,"type":"VEC3"},{"bufferView":22,"componentType":5126,"count":755,"max":[7.0136895179748535,12.121366500854492,1.900120735168457],"min":[-7.20893669128418,5.5812249183654785,-9.049199104309082],"type":"VEC3"},{"bufferView":23,"componentType":5126,"count":755,"type":"VEC2"},{"bufferView":24,"componentType":5123,"count":993,"type":"SCALAR"},{"bufferView":25,"componentType":5126,"count":21,"type":"VEC3"},{"bufferView":26,"componentType":5126,"count":21,"max":[4.065000057220459,3.428508996963501,1.7435089349746704],"min":[3.934999942779541,2.9800000190734863,1.2950000762939453],"type":"VEC3"},{"bufferView":27,"componentType":5123,"count":33,"type":"SCALAR"},{"bufferView":28,"componentType":5126,"count":16,"type":"VEC3"},{"bufferView":29,"componentType":5126,"count":16,"max":[1.9966670274734497,0.9100615382194519,4.3711395392165286e-08],"min":[-1.996666669845581,0,-8],"type":"VEC3"},{"bufferView":30,"componentType":5126,"count":16,"type":"VEC2"},{"bufferView":31,"componentType":5123,"count":24,"type":"SCALAR"},{"bufferView":32,"componentType":5126,"count":45,"type":"VEC3"},{"bufferView":33,"componentType":5126,"count":45,"max":[6,0.8799999952316284,4.371138828673793e-08],"min":[-6,0,-8],"type":"VEC3"},{"bufferView":34,"componentType":5126,"count":45,"type":"VEC2"},{"bufferView":35,"componentType":5123,"count":69,"type":"SCALAR"}],"asset":{"version":"2.0"},"bufferViews":[{"buffer":0,"byteOffset":0,"byteLength":100932,"target":34962},{"buffer":0,"byteOffset":100932,"byteLength":100932,"target":34962},{"buffer":0,"byteOffset":201864,"byteLength":67288,"target":34962},{"buffer":0,"byteOffset":269152,"byteLength":25074,"target":34963},{"buffer":0,"byteOffset":294228,"byteLength":2004,"target":34962},{"buffer":0,"byteOffset":296232,"byteLength":2004,"target":34962},{"buffer":0,"byteOffset":298236,"byteLength":864,"target":34963},{"buffer":0,"byteOffset":299100,"byteLength":1536,"target":34962},{"buffer":0,"byteOffset":300636,"byteLength":1536,"target":34962},{"buffer":0,"byteOffset":302172,"byteLength":300,"target":34963},{"buffer":0,"byteOffset":302472,"byteLength":288,"target":34962},{"buffer":0,"byteOffset":302760,"byteLength":288,"target":34962},{"buffer":0,"byteOffset":303048,"byteLength":72,"target":34963},{"buffer":0,"byteOffset":303120,"byteLength":432,"target":34962},{"buffer":0,"byteOffset":303552,"byteLength":432,"target":34962},{"buffer":0,"byteOffset":303984,"byteLength":288,"target":34962},{"buffer":0,"byteOffset":304272,"byteLength":144,"target":34963},{"buffer":0,"byteOffset":304416,"byteLength":6012,"target":34962},{"buffer":0,"byteOffset":310428,"byteLength":6012,"target":34962},{"buffer":0,"byteOffset":316440,"byteLength":4008,"target":34962},{"buffer":0,"byteOffset":320448,"byteLength":1860,"target":34963},{"buffer":0,"byteOffset":322308,"byteLength":9060,"target":34962},{"buffer":0,"byteOffset":331368,"byteLength":9060,"target":34962},{"buffer":0,"byteOffset":340428,"byteLength":6040,"target":34962},{"buffer":0,"byteOffset":346468,"byteLength":1986,"target":34963},{"buffer":0,"byteOffset":348456,"byteLength":252,"target":34962},{"buffer":0,"byteOffset":348708,"byteLength":252,"target":34962},{"buffer":0,"byteOffset":348960,"byteLength":66,"target":34963},{"buffer":0,"byteOffset":349028,"byteLength":192,"target":34962},{"buffer":0,"byteOffset":349220,"byteLength":192,"target":34962},{"buffer":0,"byteOffset":349412,"byteLength":128,"target":34962},{"buffer":0,"byteOffset":349540,"byteLength":48,"target":34963},{"buffer":0,"byteOffset":349588,"byteLength":540,"target":34962},{"buffer":0,"byteOffset":350128,"byteLength":540,"target":34962},{"buffer":0,"byteOffset":350668,"byteLength":360,"target":34962},{"buffer":0,"byteOffset":351028,"byteLength":138,"target":34963}],"buffers":[{"byteLength":351168,"uri":"generated.tavern.bin"}],"images":[{"name":"T_WoodTrim_BaseColor","uri":"../village/T_WoodTrim_BaseColor.png"},{"name":"T_UnevenBrick_BaseColor","uri":"../village/T_UnevenBrick_BaseColor.png"},{"name":"T_Plaster_Luma","uri":"../village/T_Plaster_Luma.png"},{"name":"T_RoundTiles_Luma","uri":"../village/T_RoundTiles_Luma.png"},{"name":"T_RockTrim_BaseColor","uri":"../village/T_RockTrim_BaseColor.png"},{"name":"T_Brick_BaseColor","uri":"../village/T_Brick_BaseColor.png"}],"materials":[{"doubleSided":true,"name":"Wood_dark","pbrMetallicRoughness":{"baseColorFactor":[0.2329,0.2659,0.2944,1.0],"baseColorTexture":{"index":0},"metallicFactor":0,"roughnessFactor":0.8500000238418579}},{"doubleSided":true,"name":"Glass","pbrMetallicRoughness":{"baseColorFactor":[0.03310476616024971,0.05087608844041824,0.07828831672668457,1],"metallicFactor":0,"roughnessFactor":0.20000000298023224}},{"doubleSided":true,"name":"Iron","pbrMetallicRoughness":{"baseColorFactor":[0.0134117491543293,0.0134117491543293,0.015325203537940979,1],"metallicFactor":0,"roughnessFactor":0.5}},{"doubleSided":true,"emissiveFactor":[1,0.4479884207248688,0.10048151016235352],"name":"LampGlass","pbrMetallicRoughness":{"baseColorFactor":[1,0.5704815983772278,0.1473190039396286,1],"metallicFactor":0,"roughnessFactor":0.8500000238418579}},{"doubleSided":true,"name":"Stone","pbrMetallicRoughness":{"baseColorFactor":[1.0,0.9974,0.9977,1.0],"baseColorTexture":{"index":1},"metallicFactor":0,"roughnessFactor":0.8500000238418579}},{"doubleSided":true,"name":"Plaster_ochre","pbrMetallicRoughness":{"baseColorFactor":[0.863,0.4728,0.1434,1.0],"baseColorTexture":{"index":2},"metallicFactor":0,"roughnessFactor":0.8500000238418579}},{"doubleSided":true,"name":"Tiles_green","pbrMetallicRoughness":{"baseColorFactor":[0.2433,0.3541,0.2399,1.0],"baseColorTexture":{"index":3},"metallicFactor":0,"roughnessFactor":0.699999988079071}},{"doubleSided":true,"name":"SignPaint","pbrMetallicRoughness":{"baseColorFactor":[0.6038273572921753,0.34239163994789124,0.03310476616024971,1],"metallicFactor":0,"roughnessFactor":0.6000000238418579}},{"doubleSided":true,"name":"RockTrim","pbrMetallicRoughness":{"baseColorFactor":[1.0,0.9979,1.0,1.0],"baseColorTexture":{"index":4},"metallicFactor":0,"roughnessFactor":0.8500000238418579}},{"doubleSided":true,"name":"Brick","pbrMetallicRoughness":{"baseColorFactor":[1.0,0.9974,1.0,1.0],"baseColorTexture":{"index":5},"metallicFactor":0,"roughnessFactor":0.8500000238418579}}],"meshes":[{"name":"lod","primitives":[{"attributes":{"NORMAL":0,"POSITION":1,"TEXCOORD_0":2},"indices":3,"material":0},{"attributes":{"NORMAL":4,"POSITION":5},"indices":6,"material":1},{"attributes":{"NORMAL":7,"POSITION":8},"indices":9,"material":2},{"attributes":{"NORMAL":10,"POSITION":11},"indices":12,"material":3},{"attributes":{"NORMAL":13,"POSITION":14,"TEXCOORD_0":15},"indices":16,"material":4},{"attributes":{"NORMAL":17,"POSITION":18,"TEXCOORD_0":19},"indices":20,"material":5},{"attributes":{"NORMAL":21,"POSITION":22,"TEXCOORD_0":23},"indices":24,"material":6},{"attributes":{"NORMAL":25,"POSITION":26},"indices":27,"material":7},{"attributes":{"NORMAL":28,"POSITION":29,"TEXCOORD_0":30},"indices":31,"material":8},{"attributes":{"NORMAL":32,"POSITION":33,"TEXCOORD_0":34},"indices":35,"material":9}]}],"nodes":[{"mesh":0,"name":"lod"}],"scene":0,"scenes":[{"name":"Scene","nodes":[0]}],"textures":[{"source":0},{"source":1},{"source":2},{"source":3},{"source":4},{"source":5}]}