{"accessors":[{"bufferView":0,"componentType":5126,"count":1829,"max":[3.958951234817505,9,1.2623982429504395],"min":[-5.162398338317871,-0.008544921875,-6.794139862060547],"type":"VEC3"},{"bufferView":1,"componentType":5126,"count":1829,"type":"VEC3"},{"bufferView":2,"componentType":5126,"count":1829,"type":"VEC2"},{"bufferView":3,"componentType":5123,"count":2184,"type":"SCALAR"},{"bufferView":4,"componentType":5126,"count":51,"max":[3.0038883686065674,7.894088268280029,1.1738884449005127],"min":[-5.073887825012207,1.0647680759429932,-6.0038886070251465],"type":"VEC3"},{"bufferView":5,"componentType":5126,"count":51,"type":"VEC3"},{"bufferView":6,"componentType":5126,"count":51,"type":"VEC2"},{"bufferView":7,"componentType":5123,"count":78,"type":"SCALAR"},{"bufferView":8,"componentType":5126,"count":79,"max":[3,6.836309432983398,1.09933340549469],"min":[-5.191014766693115,-1.6568606340449456e-16,-5.054451942443848],"type":"VEC3"},{"bufferView":9,"componentType":5126,"count":79,"type":"VEC3"},{"bufferView":10,"componentType":5126,"count":79,"type":"VEC2"},{"bufferView":11,"componentType":5123,"count":87,"type":"SCALAR"},{"bufferView":12,"componentType":5126,"count":31,"max":[3,6.666301250457764,4.6457344637929054e-09],"min":[-3.000000238418579,-7.271934383866821e-14,-6],"type":"VEC3"},{"bufferView":13,"componentType":5126,"count":31,"type":"VEC3"},{"bufferView":14,"componentType":5126,"count":31,"type":"VEC2"},{"bufferView":15,"componentType":5123,"count":33,"type":"SCALAR"},{"bufferView":16,"componentType":5126,"count":131,"max":[3.1675596237182617,7.424167633056641,1.3113415775478643e-07],"min":[-3.1675596237182617,-7.271934383866821e-14,-6.000000476837158],"type":"VEC3"},{"bufferView":17,"componentType":5126,"count":131,"type":"VEC3"},{"bufferView":18,"componentType":5126,"count":131,"type":"VEC2"},{"bufferView":19,"componentType":5123,"count":291,"type":"SCALAR"},{"bufferView":20,"componentType":5126,"count":384,"max":[4.125484943389893,12.800000190734863,1.8203225135803223],"min":[-5.647981643676758,2.4944920539855957,-6.917879581451416],"type":"VEC3"},{"bufferView":21,"componentType":5126,"count":384,"type":"VEC3"},{"bufferView":22,"componentType":5126,"count":384,"type":"VEC2"},{"bufferView":23,"componentType":5123,"count":624,"type":"SCALAR"},{"bufferView":24,"componentType":5126,"count":9,"max":[-3.225247383117676,13.800000190734863,-0.4942839443683624],"min":[-3.395798444747925,12.499030113220215,-0.6747525334358215],"type":"VEC3"},{"bufferView":25,"componentType":5126,"count":9,"type":"VEC3"},{"bufferView":26,"componentType":5126,"count":9,"type":"VEC2"},{"bufferView":27,"componentType":5123,"count":9,"type":"SCALAR"},{"bufferView":28,"componentType":5126,"count":15,"max":[-1.7040634155273438,9,0.9921796917915344],"min":[-5.122267723083496,0,-2.522739887237549],"type":"VEC3"},{"bufferView":29,"componentType":5126,"count":15,"type":"VEC3"},{"bufferView":30,"componentType":5126,"count":15,"type":"VEC2"},{"bufferView":31,"componentType":5123,"count":21,"type":"SCALAR"}],"asset":{"version":"2.0"},"bufferViews":[{"buffer":0,"byteLength":21948,"byteOffset":0,"target":34962},{"buffer":0,"byteLength":21948,"byteOffset":21948,"target":34962},{"buffer":0,"byteLength":14632,"byteOffset":43896,"target":34962},{"buffer":0,"byteLength":4368,"byteOffset":58528,"target":34963},{"buffer":0,"byteLength":612,"byteOffset":62896,"target":34962},{"buffer":0,"byteLength":612,"byteOffset":63508,"target":34962},{"buffer":0,"byteLength":408,"byteOffset":64120,"target":34962},{"buffer":0,"byteLength":156,"byteOffset":64528,"target":34963},{"buffer":0,"byteLength":948,"byteOffset":64684,"target":34962},{"buffer":0,"byteLength":948,"byteOffset":65632,"target":34962},{"buffer":0,"byteLength":632,"byteOffset":66580,"target":34962},{"buffer":0,"byteLength":174,"byteOffset":67212,"target":34963},{"buffer":0,"byteLength":372,"byteOffset":67388,"target":34962},{"buffer":0,"byteLength":372,"byteOffset":67760,"target":34962},{"buffer":0,"byteLength":248,"byteOffset":68132,"target":34962},{"buffer":0,"byteLength":66,"byteOffset":68380,"target":34963},{"buffer":0,"byteLength":1572,"byteOffset":68448,"target":34962},{"buffer":0,"byteLength":1572,"byteOffset":70020,"target":34962},{"buffer":0,"byteLength":1048,"byteOffset":71592,"target":34962},{"buffer":0,"byteLength":582,"byteOffset":72640,"target":34963},{"buffer":0,"byteLength":4608,"byteOffset":73224,"target":34962},{"buffer":0,"byteLength":4608,"byteOffset":77832,"target":34962},{"buffer":0,"byteLength":3072,"byteOffset":82440,"target":34962},{"buffer":0,"byteLength":1248,"byteOffset":85512,"target":34963},{"buffer":0,"byteLength":108,"byteOffset":86760,"target":34962},{"buffer":0,"byteLength":108,"byteOffset":86868,"target":34962},{"buffer":0,"byteLength":72,"byteOffset":86976,"target":34962},{"buffer":0,"byteLength":18,"byteOffset":87048,"target":34963},{"buffer":0,"byteLength":180,"byteOffset":87068,"target":34962},{"buffer":0,"byteLength":180,"byteOffset":87248,"target":34962},{"buffer":0,"byteLength":120,"byteOffset":87428,"target":34962},{"buffer":0,"byteLength":42,"byteOffset":87548,"target":34963}],"buffers":[{"byteLength":87592,"uri":"generated.cottage_tower.bin"}],"images":[{"name":"T_WoodTrim_BaseColor","uri":"../village/T_WoodTrim_BaseColor.png"},{"name":"T_RockTrim_BaseColor","uri":"../village/T_RockTrim_BaseColor.png"},{"name":"T_Brick_BaseColor","uri":"../village/T_Brick_BaseColor.png"},{"name":"T_Plaster_Luma","uri":"../village/T_Plaster_Luma.png"},{"name":"T_RoundTiles_Luma","uri":"../village/T_RoundTiles_Luma.png"},{"name":"T_UnevenBrick_BaseColor","uri":"../village/T_UnevenBrick_BaseColor.png"}],"materials":[{"doubleSided":true,"name":"Wood_dark","pbrMetallicRoughness":{"baseColorFactor":[0.2329,0.2659,0.2944,1.0],"baseColorTexture":{"index":0},"metallicFactor":0,"roughnessFactor":0.8500000238418579}},{"doubleSided":true,"name":"Glass","pbrMetallicRoughness":{"baseColorFactor":[0.03310476616024971,0.05087608844041824,0.07828831672668457,1],"metallicFactor":0,"roughnessFactor":0.20000000298023224}},{"doubleSided":true,"name":"RockTrim","pbrMetallicRoughness":{"baseColorFactor":[1.0,0.9979,1.0,1.0],"baseColorTexture":{"index":1},"metallicFactor":0,"roughnessFactor":0.8500000238418579}},{"doubleSided":true,"name":"Brick","pbrMetallicRoughness":{"baseColorFactor":[1.0,0.9974,1.0,1.0],"baseColorTexture":{"index":2},"metallicFactor":0,"roughnessFactor":0.8500000238418579}},{"doubleSided":true,"name":"Plaster_white","pbrMetallicRoughness":{"baseColorFactor":[1.0,1.0,0.9092,1.0],"baseColorTexture":{"index":3},"metallicFactor":0,"roughnessFactor":0.8500000238418579}},{"doubleSided":true,"name":"Tiles_brown","pbrMetallicRoughness":{"baseColorFactor":[0.3822,0.1486,0.0653,1.0],"baseColorTexture":{"index":4},"metallicFactor":0,"roughnessFactor":0.699999988079071}},{"doubleSided":true,"name":"Iron","pbrMetallicRoughness":{"baseColorFactor":[0.0134117491543293,0.0134117491543293,0.015325203537940979,1],"metallicFactor":0,"roughnessFactor":0.5}},{"doubleSided":true,"name":"Stone","pbrMetallicRoughness":{"baseColorFactor":[1.0,0.9974,0.9977,1.0],"baseColorTexture":{"index":5},"metallicFactor":0,"roughnessFactor":0.8500000238418579}}],"meshes":[{"name":"lod","primitives":[{"attributes":{"NORMAL":1,"POSITION":0,"TEXCOORD_0":2},"indices":3,"material":0},{"attributes":{"NORMAL":5,"POSITION":4,"TEXCOORD_0":6},"indices":7,"material":1},{"attributes":{"NORMAL":9,"POSITION":8,"TEXCOORD_0":10},"indices":11,"material":2},{"attributes":{"NORMAL":13,"POSITION":12,"TEXCOORD_0":14},"indices":15,"material":3},{"attributes":{"NORMAL":17,"POSITION":16,"TEXCOORD_0":18},"indices":19,"material":4},{"attributes":{"NORMAL":21,"POSITION":20,"TEXCOORD_0":22},"indices":23,"material":5},{"attributes":{"NORMAL":25,"POSITION":24,"TEXCOORD_0":26},"indices":27,"material":6},{"attributes":{"NORMAL":29,"POSITION":28,"TEXCOORD_0":30},"indices":31,"material":7}]}],"nodes":[{"mesh":0,"name":"lod"}],"scene":0,"scenes":[{"name":"Scene","nodes":[0]}],"textures":[{"source":0},{"source":1},{"source":2},{"source":3},{"source":4},{"source":5}]}
