{"accessors":[{"bufferView":0,"componentType":5126,"count":571,"max":[2.5777812004089355,4.941667079925537,2.787102460861206],"min":[-2.708331346511841,0,-2.787102222442627],"type":"VEC3"},{"bufferView":1,"componentType":5126,"count":571,"type":"VEC3"},{"bufferView":2,"componentType":5126,"count":571,"type":"VEC2"},{"bufferView":3,"componentType":5123,"count":771,"type":"SCALAR"},{"bufferView":4,"componentType":5126,"count":30,"max":[1.6042428016662598,4.599999904632568,2.1708691120147705],"min":[-2.028137683868408,0,-1.7966643571853638],"type":"VEC3"},{"bufferView":5,"componentType":5126,"count":30,"type":"VEC3"},{"bufferView":6,"componentType":5126,"count":30,"type":"VEC2"},{"bufferView":7,"componentType":5123,"count":48,"type":"SCALAR"},{"bufferView":8,"componentType":5126,"count":52,"max":[1.7040011882781982,7.094058990478516,2.351490020751953],"min":[-2.359978199005127,5.018294334411621,-1.8074262142181396],"type":"VEC3"},{"bufferView":9,"componentType":5126,"count":52,"type":"VEC3"},{"bufferView":10,"componentType":5126,"count":52,"type":"VEC2"},{"bufferView":11,"componentType":5123,"count":102,"type":"SCALAR"},{"bufferView":12,"componentType":5126,"count":25,"max":[1.5265558958053589,7.19827127456665,2.5156540870666504],"min":[-2.22275447845459,5.021965980529785,-1.6878141164779663],"type":"VEC3"},{"bufferView":13,"componentType":5126,"count":25,"type":"VEC3"},{"bufferView":14,"componentType":5126,"count":25,"type":"VEC2"},{"bufferView":15,"componentType":5123,"count":60,"type":"SCALAR"},{"bufferView":16,"componentType":5126,"count":49,"max":[1.4959654808044434,7.122335910797119,2.18560528755188],"min":[-2.1520214080810547,5.025258541107178,-1.9206740856170654],"type":"VEC3"},{"bufferView":17,"componentType":5126,"count":49,"type":"VEC3"},{"bufferView":18,"componentType":5126,"count":49,"type":"VEC2"},{"bufferView":19,"componentType":5123,"count":51,"type":"SCALAR"},{"bufferView":20,"componentType":5126,"count":9,"max":[-0.09871863573789597,7.239755630493164,2.5743064880371094],"min":[-0.4914207458496094,5.289529800415039,0.1374787837266922],"type":"VEC3"},{"bufferView":21,"componentType":5126,"count":9,"type":"VEC3"},{"bufferView":22,"componentType":5126,"count":9,"type":"VEC2"},{"bufferView":23,"componentType":5123,"count":9,"type":"SCALAR"},{"bufferView":24,"componentType":5126,"count":75,"max":[2.5034942626953125,4.200000286102295,2.3371024131774902],"min":[-2.0691633224487305,0.32999998331069946,-2.6992154121398926],"type":"VEC3"},{"bufferView":25,"componentType":5126,"count":75,"type":"VEC3"},{"bufferView":26,"componentType":5126,"count":75,"type":"VEC2"},{"bufferView":27,"componentType":5123,"count":87,"type":"SCALAR"},{"bufferView":28,"componentType":5126,"count":24,"max":[1.5347503423690796,4.1946845054626465,1.6292599439620972],"min":[-2.1903128623962402,2.950000286102295,-1.2273712158203125],"type":"VEC3"},{"bufferView":29,"componentType":5126,"count":24,"type":"VEC3"},{"bufferView":30,"componentType":5126,"count":24,"type":"VEC2"},{"bufferView":31,"componentType":5123,"count":24,"type":"SCALAR"}],"asset":{"version":"2.0"},"bufferViews":[{"buffer":0,"byteLength":6852,"byteOffset":0,"target":34962},{"buffer":0,"byteLength":6852,"byteOffset":6852,"target":34962},{"buffer":0,"byteLength":4568,"byteOffset":13704,"target":34962},{"buffer":0,"byteLength":1542,"byteOffset":18272,"target":34963},{"buffer":0,"byteLength":360,"byteOffset":19816,"target":34962},{"buffer":0,"byteLength":360,"byteOffset":20176,"target":34962},{"buffer":0,"byteLength":240,"byteOffset":20536,"target":34962},{"buffer":0,"byteLength":96,"byteOffset":20776,"target":34963},{"buffer":0,"byteLength":624,"byteOffset":20872,"target":34962},{"buffer":0,"byteLength":624,"byteOffset":21496,"target":34962},{"buffer":0,"byteLength":416,"byteOffset":22120,"target":34962},{"buffer":0,"byteLength":204,"byteOffset":22536,"target":34963},{"buffer":0,"byteLength":300,"byteOffset":22740,"target":34962},{"buffer":0,"byteLength":300,"byteOffset":23040,"target":34962},{"buffer":0,"byteLength":200,"byteOffset":23340,"target":34962},{"buffer":0,"byteLength":120,"byteOffset":23540,"target":34963},{"buffer":0,"byteLength":588,"byteOffset":23660,"target":34962},{"buffer":0,"byteLength":588,"byteOffset":24248,"target":34962},{"buffer":0,"byteLength":392,"byteOffset":24836,"target":34962},{"buffer":0,"byteLength":102,"byteOffset":25228,"target":34963},{"buffer":0,"byteLength":108,"byteOffset":25332,"target":34962},{"buffer":0,"byteLength":108,"byteOffset":25440,"target":34962},{"buffer":0,"byteLength":72,"byteOffset":25548,"target":34962},{"buffer":0,"byteLength":18,"byteOffset":25620,"target":34963},{"buffer":0,"byteLength":900,"byteOffset":25640,"target":34962},{"buffer":0,"byteLength":900,"byteOffset":26540,"target":34962},{"buffer":0,"byteLength":600,"byteOffset":27440,"target":34962},{"buffer":0,"byteLength":174,"byteOffset":28040,"target":34963},{"buffer":0,"byteLength":288,"byteOffset":28216,"target":34962},{"buffer":0,"byteLength":288,"byteOffset":28504,"target":34962},{"buffer":0,"byteLength":192,"byteOffset":28792,"target":34962},{"buffer":0,"byteLength":48,"byteOffset":28984,"target":34963}],"buffers":[{"byteLength":29032,"uri":"generated.observatory.bin"}],"images":[{"name":"T_Brick_BaseColor","uri":"../village/T_Brick_BaseColor.png"}],"materials":[{"doubleSided":true,"name":"Observatory_Stone","pbrMetallicRoughness":{"baseColorFactor":[0.6000000238418579,0.5699999928474426,0.5199999809265137,1],"metallicFactor":0,"roughnessFactor":0.8999999761581421}},{"doubleSided":true,"name":"Observatory_Brick","pbrMetallicRoughness":{"baseColorFactor":[1.0,0.94,0.85,1],"baseColorTexture":{"index":0},"metallicFactor":0,"roughnessFactor":0.8999999761581421}},{"doubleSided":true,"name":"Observatory_Dome","pbrMetallicRoughness":{"baseColorFactor":[0.30000001192092896,0.5199999809265137,0.5,1],"metallicFactor":0.30000001192092896,"roughnessFactor":0.6000000238418579}},{"doubleSided":true,"name":"Observatory_Dark","pbrMetallicRoughness":{"baseColorFactor":[0.05000000074505806,0.05000000074505806,0.07000000029802322,1],"metallicFactor":0}},{"doubleSided":true,"name":"Observatory_Rib","pbrMetallicRoughness":{"baseColorFactor":[0.20000000298023224,0.36000001430511475,0.3499999940395355,1],"metallicFactor":0.30000001192092896,"roughnessFactor":0.6000000238418579}},{"doubleSided":true,"name":"Observatory_Brass","pbrMetallicRoughness":{"baseColorFactor":[0.800000011920929,0.6000000238418579,0.25,1],"metallicFactor":0.800000011920929,"roughnessFactor":0.3499999940395355}},{"doubleSided":true,"name":"Observatory_Wood","pbrMetallicRoughness":{"baseColorFactor":[0.3799999952316284,0.2199999988079071,0.10000000149011612,1],"metallicFactor":0,"roughnessFactor":0.8500000238418579}},{"doubleSided":true,"emissiveFactor":[0.6000000238418579,0.45000001788139343,0.21000000476837144],"name":"Observatory_Glass","pbrMetallicRoughness":{"baseColorFactor":[0.949999988079071,0.800000011920929,0.44999998807907104,1],"metallicFactor":0,"roughnessFactor":0.4000000059604645}}],"meshes":[{"name":"Observatory","primitives":[{"attributes":{"NORMAL":1,"POSITION":0,"TEXCOORD_0":2},"indices":3,"material":0},{"attributes":{"NORMAL":5,"POSITION":4,"TEXCOORD_0":6},"indices":7,"material":1},{"attributes":{"NORMAL":9,"POSITION":8,"TEXCOORD_0":10},"indices":11,"material":2},{"attributes":{"NORMAL":13,"POSITION":12,"TEXCOORD_0":14},"indices":15,"material":3},{"attributes":{"NORMAL":17,"POSITION":16,"TEXCOORD_0":18},"indices":19,"material":4},{"attributes":{"NORMAL":21,"POSITION":20,"TEXCOORD_0":22},"indices":23,"material":5},{"attributes":{"NORMAL":25,"POSITION":24,"TEXCOORD_0":26},"indices":27,"material":6},{"attributes":{"NORMAL":29,"POSITION":28,"TEXCOORD_0":30},"indices":31,"material":7}]}],"nodes":[{"mesh":0,"name":"Observatory"}],"scene":0,"scenes":[{"name":"Scene","nodes":[0]}],"textures":[{"source":0}]}
