{"accessors":[{"bufferView":0,"componentType":5126,"count":144,"type":"VEC3"},{"bufferView":1,"componentType":5126,"count":144,"max":[4.829999923706055,6.989999771118164,0],"min":[-4,0,-7],"type":"VEC3"},{"bufferView":2,"componentType":5126,"count":144,"type":"VEC2"},{"bufferView":3,"componentType":5123,"count":216,"type":"SCALAR"},{"bufferView":4,"componentType":5126,"count":80,"type":"VEC3"},{"bufferView":5,"componentType":5126,"count":80,"max":[4.079999923706055,2.5999999046325684,0.11999999731779099],"min":[-4.079999923706055,0,-7.079999923706055],"type":"VEC3"},{"bufferView":6,"componentType":5126,"count":80,"type":"VEC2"},{"bufferView":7,"componentType":5123,"count":120,"type":"SCALAR"},{"bufferView":8,"componentType":5126,"count":116,"type":"VEC3"},{"bufferView":9,"componentType":5126,"count":116,"max":[4.570000171661377,3.1700000762939453,0.5699999928474426],"min":[-4.570000171661377,0,-7.570000171661377],"type":"VEC3"},{"bufferView":10,"componentType":5126,"count":116,"type":"VEC2"},{"bufferView":11,"componentType":5123,"count":174,"type":"SCALAR"},{"bufferView":12,"componentType":5126,"count":120,"type":"VEC3"},{"bufferView":13,"componentType":5126,"count":120,"max":[2.5899999141693115,5.091851711273193,0.03999999910593033],"min":[-4.039999961853027,0.9100000262260437,-7.0400004386901855],"type":"VEC3"},{"bufferView":14,"componentType":5123,"count":180,"type":"SCALAR"},{"bufferView":15,"componentType":5126,"count":86,"type":"VEC3"},{"bufferView":16,"componentType":5126,"count":86,"max":[4.550000190734863,6.150000095367432,0.550000011920929],"min":[-4.550000190734863,3.1500000953674316,-7.550000190734863],"type":"VEC3"},{"bufferView":17,"componentType":5126,"count":86,"type":"VEC2"},{"bufferView":18,"componentType":5123,"count":126,"type":"SCALAR"},{"bufferView":19,"componentType":5126,"count":30,"type":"VEC3"},{"bufferView":20,"componentType":5126,"count":30,"max":[0.45000001788139343,5.951851844787598,-0.6000000238418579],"min":[-1.25,3.6518518924713135,-2.3000001907348633],"type":"VEC3"},{"bufferView":21,"componentType":5126,"count":30,"type":"VEC2"},{"bufferView":22,"componentType":5123,"count":42,"type":"SCALAR"},{"bufferView":23,"componentType":5126,"count":20,"type":"VEC3"},{"bufferView":24,"componentType":5126,"count":20,"max":[4.53000020980835,7.25,-3.0199999809265137],"min":[4.170000076293945,6.989999771118164,-3.380000114440918],"type":"VEC3"},{"bufferView":25,"componentType":5123,"count":30,"type":"SCALAR"}],"asset":{"generator":"Khronos glTF Blender I/O v5.2.40","version":"2.0"},"bufferViews":[{"buffer":0,"byteOffset":0,"byteLength":1728,"target":34962},{"buffer":0,"byteOffset":1728,"byteLength":1728,"target":34962},{"buffer":0,"byteOffset":3456,"byteLength":1152,"target":34962},{"buffer":0,"byteOffset":4608,"byteLength":432,"target":34963},{"buffer":0,"byteOffset":5040,"byteLength":960,"target":34962},{"buffer":0,"byteOffset":6000,"byteLength":960,"target":34962},{"buffer":0,"byteOffset":6960,"byteLength":640,"target":34962},{"buffer":0,"byteOffset":7600,"byteLength":240,"target":34963},{"buffer":0,"byteOffset":7840,"byteLength":1392,"target":34962},{"buffer":0,"byteOffset":9232,"byteLength":1392,"target":34962},{"buffer":0,"byteOffset":10624,"byteLength":928,"target":34962},{"buffer":0,"byteOffset":11552,"byteLength":348,"target":34963},{"buffer":0,"byteOffset":11900,"byteLength":1440,"target":34962},{"buffer":0,"byteOffset":13340,"byteLength":1440,"target":34962},{"buffer":0,"byteOffset":14780,"byteLength":360,"target":34963},{"buffer":0,"byteOffset":15140,"byteLength":1032,"target":34962},{"buffer":0,"byteOffset":16172,"byteLength":1032,"target":34962},{"buffer":0,"byteOffset":17204,"byteLength":688,"target":34962},{"buffer":0,"byteOffset":17892,"byteLength":252,"target":34963},{"buffer":0,"byteOffset":18144,"byteLength":360,"target":34962},{"buffer":0,"byteOffset":18504,"byteLength":360,"target":34962},{"buffer":0,"byteOffset":18864,"byteLength":240,"target":34962},{"buffer":0,"byteOffset":19104,"byteLength":84,"target":34963},{"buffer":0,"byteOffset":19188,"byteLength":240,"target":34962},{"buffer":0,"byteOffset":19428,"byteLength":240,"target":34962},{"buffer":0,"byteOffset":19668,"byteLength":60,"target":34963}],"buffers":[{"byteLength":19728,"uri":"generated.stone_cottage.bin"}],"images":[{"name":"T_Plaster_Luma","uri":"../village/T_Plaster_Luma.png"},{"name":"T_RockTrim_BaseColor","uri":"../village/T_RockTrim_BaseColor.png"},{"name":"T_RoundTiles_Luma","uri":"../village/T_RoundTiles_Luma.png"},{"name":"T_UnevenBrick_BaseColor","uri":"../village/T_UnevenBrick_BaseColor.png"},{"name":"T_WoodTrim_BaseColor","uri":"../village/T_WoodTrim_BaseColor.png"}],"materials":[{"doubleSided":true,"name":"Stone","pbrMetallicRoughness":{"baseColorFactor":[1.0,0.9974,0.9977,1.0],"baseColorTexture":{"index":3},"metallicFactor":0,"roughnessFactor":0.8500000238418579}},{"doubleSided":true,"name":"RockTrim","pbrMetallicRoughness":{"baseColorFactor":[1.0,0.9979,1.0,1.0],"baseColorTexture":{"index":1},"metallicFactor":0,"roughnessFactor":0.8500000238418579}},{"doubleSided":true,"name":"Wood_dark","pbrMetallicRoughness":{"baseColorFactor":[0.2329,0.2659,0.2944,1.0],"baseColorTexture":{"index":4},"metallicFactor":0,"roughnessFactor":0.8500000238418579}},{"doubleSided":true,"name":"Glass","pbrMetallicRoughness":{"baseColorFactor":[0.03310476616024971,0.05087608844041824,0.07828831672668457,1],"metallicFactor":0,"roughnessFactor":0.20000000298023224}},{"doubleSided":true,"name":"HouseTiles","pbrMetallicRoughness":{"baseColorFactor":[0.3822,0.1486,0.0653,1.0],"baseColorTexture":{"index":2},"metallicFactor":0,"roughnessFactor":0.699999988079071}},{"doubleSided":true,"name":"HousePlaster","pbrMetallicRoughness":{"baseColorFactor":[0.9583,0.7715,0.4434,1.0],"baseColorTexture":{"index":0},"metallicFactor":0,"roughnessFactor":0.8500000238418579}},{"doubleSided":true,"name":"Iron","pbrMetallicRoughness":{"baseColorFactor":[0.0134117491543293,0.0134117491543293,0.015325203537940979,1],"metallicFactor":0,"roughnessFactor":0.5}}],"meshes":[{"name":"Wall","primitives":[{"attributes":{"NORMAL":0,"POSITION":1,"TEXCOORD_0":2},"indices":3,"material":0},{"attributes":{"NORMAL":4,"POSITION":5,"TEXCOORD_0":6},"indices":7,"material":1},{"attributes":{"NORMAL":8,"POSITION":9,"TEXCOORD_0":10},"indices":11,"material":2},{"attributes":{"NORMAL":12,"POSITION":13},"indices":14,"material":3},{"attributes":{"NORMAL":15,"POSITION":16,"TEXCOORD_0":17},"indices":18,"material":4},{"attributes":{"NORMAL":19,"POSITION":20,"TEXCOORD_0":21},"indices":22,"material":5},{"attributes":{"NORMAL":23,"POSITION":24},"indices":25,"material":6}]}],"nodes":[{"mesh":0,"name":"stone_cottage"}],"scene":0,"scenes":[{"name":"Scene","nodes":[0]}],"textures":[{"source":0},{"source":1},{"source":2},{"source":3},{"source":4}]}