{"accessors":[{"bufferView":0,"componentType":5126,"count":164,"type":"VEC3"},{"bufferView":1,"componentType":5126,"count":164,"max":[2,12.90999984741211,0.5],"min":[-2,0,-8],"type":"VEC3"},{"bufferView":2,"componentType":5126,"count":164,"type":"VEC2"},{"bufferView":3,"componentType":5123,"count":246,"type":"SCALAR"},{"bufferView":4,"componentType":5126,"count":198,"type":"VEC3"},{"bufferView":5,"componentType":5126,"count":198,"max":[2.049999952316284,12.420000076293945,0.699999988079071],"min":[-2.049999952316284,2.950000047683716,-8],"type":"VEC3"},{"bufferView":6,"componentType":5126,"count":198,"type":"VEC2"},{"bufferView":7,"componentType":5123,"count":294,"type":"SCALAR"},{"bufferView":8,"componentType":5126,"count":568,"type":"VEC3"},{"bufferView":9,"componentType":5126,"count":568,"max":[2.109999895095825,10.605663299560547,0.8100000023841858],"min":[-2.109999895095825,0,-8.109999656677246],"type":"VEC3"},{"bufferView":10,"componentType":5126,"count":568,"type":"VEC2"},{"bufferView":11,"componentType":5123,"count":852,"type":"SCALAR"},{"bufferView":12,"componentType":5126,"count":40,"type":"VEC3"},{"bufferView":13,"componentType":5126,"count":40,"max":[1.5499999523162842,2.450000047683716,0.550000011920929],"min":[-1.5499999523162842,0,0],"type":"VEC3"},{"bufferView":14,"componentType":5126,"count":40,"type":"VEC2"},{"bufferView":15,"componentType":5123,"count":60,"type":"SCALAR"},{"bufferView":16,"componentType":5126,"count":180,"type":"VEC3"},{"bufferView":17,"componentType":5126,"count":180,"max":[1.3650000095367432,10.489999771118164,0.75],"min":[-1.4900000095367432,0.8100000023841858,-8.039999961853027],"type":"VEC3"},{"bufferView":18,"componentType":5123,"count":270,"type":"SCALAR"},{"bufferView":19,"componentType":5126,"count":72,"type":"VEC3"},{"bufferView":20,"componentType":5126,"count":72,"max":[2.450000524520874,12.59000015258789,1.1500000953674316],"min":[-2.4500010013580322,8.0784912109375,-8.450000762939453],"type":"VEC3"},{"bufferView":21,"componentType":5126,"count":72,"type":"VEC2"},{"bufferView":22,"componentType":5123,"count":108,"type":"SCALAR"},{"bufferView":23,"componentType":5126,"count":24,"type":"VEC3"},{"bufferView":24,"componentType":5126,"count":24,"max":[1.0800000429153442,13.170000076293945,-6.619999885559082],"min":[0.7200000286102295,12.90999984741211,-6.980000019073486],"type":"VEC3"},{"bufferView":25,"componentType":5123,"count":36,"type":"SCALAR"}],"asset":{"generator":"Khronos glTF Blender I/O v5.2.40","version":"2.0"},"bufferViews":[{"buffer":0,"byteOffset":0,"byteLength":1968,"target":34962},{"buffer":0,"byteOffset":1968,"byteLength":1968,"target":34962},{"buffer":0,"byteOffset":3936,"byteLength":1312,"target":34962},{"buffer":0,"byteOffset":5248,"byteLength":492,"target":34963},{"buffer":0,"byteOffset":5740,"byteLength":2376,"target":34962},{"buffer":0,"byteOffset":8116,"byteLength":2376,"target":34962},{"buffer":0,"byteOffset":10492,"byteLength":1584,"target":34962},{"buffer":0,"byteOffset":12076,"byteLength":588,"target":34963},{"buffer":0,"byteOffset":12664,"byteLength":6816,"target":34962},{"buffer":0,"byteOffset":19480,"byteLength":6816,"target":34962},{"buffer":0,"byteOffset":26296,"byteLength":4544,"target":34962},{"buffer":0,"byteOffset":30840,"byteLength":1704,"target":34963},{"buffer":0,"byteOffset":32544,"byteLength":480,"target":34962},{"buffer":0,"byteOffset":33024,"byteLength":480,"target":34962},{"buffer":0,"byteOffset":33504,"byteLength":320,"target":34962},{"buffer":0,"byteOffset":33824,"byteLength":120,"target":34963},{"buffer":0,"byteOffset":33944,"byteLength":2160,"target":34962},{"buffer":0,"byteOffset":36104,"byteLength":2160,"target":34962},{"buffer":0,"byteOffset":38264,"byteLength":540,"target":34963},{"buffer":0,"byteOffset":38804,"byteLength":864,"target":34962},{"buffer":0,"byteOffset":39668,"byteLength":864,"target":34962},{"buffer":0,"byteOffset":40532,"byteLength":576,"target":34962},{"buffer":0,"byteOffset":41108,"byteLength":216,"target":34963},{"buffer":0,"byteOffset":41324,"byteLength":288,"target":34962},{"buffer":0,"byteOffset":41612,"byteLength":288,"target":34962},{"buffer":0,"byteOffset":41900,"byteLength":72,"target":34963}],"buffers":[{"byteLength":41972,"uri":"generated.narrow_house.bin"}],"images":[{"name":"T_Plaster_Luma","uri":"../village/T_Plaster_Luma.png"},{"name":"T_RockTrim_BaseColor","uri":"../village/T_RockTrim_BaseColor.png"},{"name":"T_RoundTiles_Luma","uri":"../village/T_RoundTiles_Luma.png"},{"name":"T_UnevenBrick_BaseColor","uri":"../village/T_UnevenBrick_BaseColor.png"},{"name":"T_WoodTrim_BaseColor","uri":"../village/T_WoodTrim_BaseColor.png"}],"materials":[{"doubleSided":true,"name":"Stone","pbrMetallicRoughness":{"baseColorFactor":[1.0,0.9974,0.9977,1.0],"baseColorTexture":{"index":3},"metallicFactor":0,"roughnessFactor":0.8500000238418579}},{"doubleSided":true,"name":"HousePlaster","pbrMetallicRoughness":{"baseColorFactor":[0.9099,0.5391,0.4777,1.0],"baseColorTexture":{"index":0},"metallicFactor":0,"roughnessFactor":0.8500000238418579}},{"doubleSided":true,"name":"Wood_dark","pbrMetallicRoughness":{"baseColorFactor":[0.2329,0.2659,0.2944,1.0],"baseColorTexture":{"index":4},"metallicFactor":0,"roughnessFactor":0.8500000238418579}},{"doubleSided":true,"name":"RockTrim","pbrMetallicRoughness":{"baseColorFactor":[1.0,0.9979,1.0,1.0],"baseColorTexture":{"index":1},"metallicFactor":0,"roughnessFactor":0.8500000238418579}},{"doubleSided":true,"name":"Glass","pbrMetallicRoughness":{"baseColorFactor":[0.03310476616024971,0.05087608844041824,0.07828831672668457,1],"metallicFactor":0,"roughnessFactor":0.20000000298023224}},{"doubleSided":true,"name":"HouseTiles","pbrMetallicRoughness":{"baseColorFactor":[0.1165,0.1149,0.1269,1.0],"baseColorTexture":{"index":2},"metallicFactor":0,"roughnessFactor":0.699999988079071}},{"doubleSided":true,"name":"Iron","pbrMetallicRoughness":{"baseColorFactor":[0.0134117491543293,0.0134117491543293,0.015325203537940979,1],"metallicFactor":0,"roughnessFactor":0.5}}],"meshes":[{"name":"Wall","primitives":[{"attributes":{"NORMAL":0,"POSITION":1,"TEXCOORD_0":2},"indices":3,"material":0},{"attributes":{"NORMAL":4,"POSITION":5,"TEXCOORD_0":6},"indices":7,"material":1},{"attributes":{"NORMAL":8,"POSITION":9,"TEXCOORD_0":10},"indices":11,"material":2},{"attributes":{"NORMAL":12,"POSITION":13,"TEXCOORD_0":14},"indices":15,"material":3},{"attributes":{"NORMAL":16,"POSITION":17},"indices":18,"material":4},{"attributes":{"NORMAL":19,"POSITION":20,"TEXCOORD_0":21},"indices":22,"material":5},{"attributes":{"NORMAL":23,"POSITION":24},"indices":25,"material":6}]}],"nodes":[{"mesh":0,"name":"narrow_house"}],"scene":0,"scenes":[{"name":"Scene","nodes":[0]}],"textures":[{"source":0},{"source":1},{"source":2},{"source":3},{"source":4}]}