{"accessors":[{"bufferView":0,"componentType":5126,"count":60,"type":"VEC3"},{"bufferView":1,"componentType":5126,"count":60,"max":[2.950000047683716,9.350000381469727,0.6000000238418579],"min":[-2.950000047683716,0,-9.149999618530273],"type":"VEC3"},{"bufferView":2,"componentType":5126,"count":60,"type":"VEC2"},{"bufferView":3,"componentType":5123,"count":90,"type":"SCALAR"},{"bufferView":4,"componentType":5126,"count":388,"type":"VEC3"},{"bufferView":5,"componentType":5126,"count":388,"max":[3.250000238418579,9.899999618530273,0.75],"min":[-3.250000238418579,0,-9],"type":"VEC3"},{"bufferView":6,"componentType":5126,"count":388,"type":"VEC2"},{"bufferView":7,"componentType":5123,"count":576,"type":"SCALAR"},{"bufferView":8,"componentType":5126,"count":16,"type":"VEC3"},{"bufferView":9,"componentType":5126,"count":16,"max":[0.7699999809265137,2.9600000381469727,0.03999999910593033],"min":[-0.7699999809265137,0.4000000059604645,-0.10000000149011612],"type":"VEC3"},{"bufferView":10,"componentType":5126,"count":16,"type":"VEC2"},{"bufferView":11,"componentType":5123,"count":24,"type":"SCALAR"},{"bufferView":12,"componentType":5126,"count":100,"type":"VEC3"},{"bufferView":13,"componentType":5126,"count":100,"max":[2.8400001525878906,3.7149999141693115,-3.4600000381469727],"min":[-2.8399999141693115,1.5099999904632568,-9.039999961853027],"type":"VEC3"},{"bufferView":14,"componentType":5123,"count":150,"type":"SCALAR"},{"bufferView":15,"componentType":5126,"count":144,"type":"VEC3"},{"bufferView":16,"componentType":5126,"count":144,"max":[3.1499991416931152,10.069999694824219,0.8300000429153442],"min":[-3.1499996185302734,3.6063594818115234,-9.399999618530273],"type":"VEC3"},{"bufferView":17,"componentType":5126,"count":144,"type":"VEC2"},{"bufferView":18,"componentType":5123,"count":216,"type":"SCALAR"}],"asset":{"generator":"Khronos glTF Blender I/O v5.2.40","version":"2.0"},"bufferViews":[{"buffer":0,"byteOffset":0,"byteLength":720,"target":34962},{"buffer":0,"byteOffset":720,"byteLength":720,"target":34962},{"buffer":0,"byteOffset":1440,"byteLength":480,"target":34962},{"buffer":0,"byteOffset":1920,"byteLength":180,"target":34963},{"buffer":0,"byteOffset":2100,"byteLength":4656,"target":34962},{"buffer":0,"byteOffset":6756,"byteLength":4656,"target":34962},{"buffer":0,"byteOffset":11412,"byteLength":3104,"target":34962},{"buffer":0,"byteOffset":14516,"byteLength":1152,"target":34963},{"buffer":0,"byteOffset":15668,"byteLength":192,"target":34962},{"buffer":0,"byteOffset":15860,"byteLength":192,"target":34962},{"buffer":0,"byteOffset":16052,"byteLength":128,"target":34962},{"buffer":0,"byteOffset":16180,"byteLength":48,"target":34963},{"buffer":0,"byteOffset":16228,"byteLength":1200,"target":34962},{"buffer":0,"byteOffset":17428,"byteLength":1200,"target":34962},{"buffer":0,"byteOffset":18628,"byteLength":300,"target":34963},{"buffer":0,"byteOffset":18928,"byteLength":1728,"target":34962},{"buffer":0,"byteOffset":20656,"byteLength":1728,"target":34962},{"buffer":0,"byteOffset":22384,"byteLength":1152,"target":34962},{"buffer":0,"byteOffset":23536,"byteLength":432,"target":34963}],"buffers":[{"byteLength":23968,"uri":"generated.chapel.bin"}],"images":[{"name":"T_RockTrim_BaseColor","uri":"../village/T_RockTrim_BaseColor.png"},{"name":"T_RoundTiles_Luma","uri":"../village/T_RoundTiles_Luma.png"},{"name":"T_UnevenBrick_BaseColor","uri":"../village/T_UnevenBrick_BaseColor.png"},{"name":"T_WoodTrim_BaseColor","uri":"../village/T_WoodTrim_BaseColor.png"}],"materials":[{"doubleSided":true,"name":"RockTrim","pbrMetallicRoughness":{"baseColorFactor":[1.0,0.9979,1.0,1.0],"baseColorTexture":{"index":0},"metallicFactor":0,"roughnessFactor":0.8500000238418579}},{"doubleSided":true,"name":"StoneTinted","pbrMetallicRoughness":{"baseColorFactor":[1.0,1.0,1.0,1.0],"baseColorTexture":{"index":2},"metallicFactor":0,"roughnessFactor":0.8500000238418579}},{"doubleSided":true,"name":"Wood_dark","pbrMetallicRoughness":{"baseColorFactor":[0.2329,0.2659,0.2944,1.0],"baseColorTexture":{"index":3},"metallicFactor":0,"roughnessFactor":0.8500000238418579}},{"doubleSided":true,"name":"Glass","pbrMetallicRoughness":{"baseColorFactor":[0.03310476616024971,0.05087608844041824,0.07828831672668457,1],"metallicFactor":0,"roughnessFactor":0.20000000298023224}},{"doubleSided":true,"name":"HouseTiles","pbrMetallicRoughness":{"baseColorFactor":[0.1477,0.1884,0.2641,1.0],"baseColorTexture":{"index":1},"metallicFactor":0,"roughnessFactor":0.699999988079071}}],"meshes":[{"name":"Plinth","primitives":[{"attributes":{"NORMAL":0,"POSITION":1,"TEXCOORD_0":2},"indices":3,"material":0},{"attributes":{"NORMAL":4,"POSITION":5,"TEXCOORD_0":6},"indices":7,"material":1},{"attributes":{"NORMAL":8,"POSITION":9,"TEXCOORD_0":10},"indices":11,"material":2},{"attributes":{"NORMAL":12,"POSITION":13},"indices":14,"material":3},{"attributes":{"NORMAL":15,"POSITION":16,"TEXCOORD_0":17},"indices":18,"material":4}]}],"nodes":[{"mesh":0,"name":"chapel"}],"scene":0,"scenes":[{"name":"Scene","nodes":[0]}],"textures":[{"source":0},{"source":1},{"source":2},{"source":3}]}