{"accessors":[{"bufferView":0,"componentType":5126,"count":4397,"max":[3.861367702484131,14.30000114440918,0.24725164473056793],"min":[-3.898078680038452,-1.700808525129105e-07,-13.890909194946289],"type":"VEC3"},{"bufferView":1,"componentType":5126,"count":4397,"type":"VEC3"},{"bufferView":2,"componentType":5126,"count":4397,"type":"VEC2"},{"bufferView":3,"componentType":5123,"count":7794,"type":"SCALAR"},{"bufferView":4,"componentType":5126,"count":21,"max":[0.75,14,-1.4867075681686401],"min":[-0.75,12.739999771118164,-2.913292407989502],"type":"VEC3"},{"bufferView":5,"componentType":5126,"count":21,"type":"VEC3"},{"bufferView":6,"componentType":5126,"count":21,"type":"VEC2"},{"bufferView":7,"componentType":5123,"count":30,"type":"SCALAR"},{"bufferView":8,"componentType":5126,"count":12,"max":[2.2911906242370605,11.164782524108887,0.09000006318092346],"min":[-2.2925000190734863,9.382097244262695,-4.495769500732422],"type":"VEC3"},{"bufferView":9,"componentType":5126,"count":12,"type":"VEC3"},{"bufferView":10,"componentType":5126,"count":12,"type":"VEC2"},{"bufferView":11,"componentType":5123,"count":12,"type":"SCALAR"},{"bufferView":12,"componentType":5126,"count":42,"max":[2.3399999141693115,23.299999237060547,0.13500000536441803],"min":[-2.3350000381469727,10.170000076293945,-4.5400004386901855],"type":"VEC3"},{"bufferView":13,"componentType":5126,"count":42,"type":"VEC3"},{"bufferView":14,"componentType":5126,"count":42,"type":"VEC2"},{"bufferView":15,"componentType":5123,"count":42,"type":"SCALAR"},{"bufferView":16,"componentType":5126,"count":66,"max":[2.450000286102295,16.5,1],"min":[-2.450000286102295,0,-4.65000057220459],"type":"VEC3"},{"bufferView":17,"componentType":5126,"count":66,"type":"VEC3"},{"bufferView":18,"componentType":5126,"count":66,"type":"VEC2"},{"bufferView":19,"componentType":5123,"count":66,"type":"SCALAR"},{"bufferView":20,"componentType":5126,"count":635,"max":[3.0038883686065674,7.878931522369385,0.12388823181390762],"min":[-3.0038883686065674,1.4500970840454102,-12.403887748718262],"type":"VEC3"},{"bufferView":21,"componentType":5126,"count":635,"type":"VEC3"},{"bufferView":22,"componentType":5126,"count":635,"type":"VEC2"},{"bufferView":23,"componentType":5123,"count":1005,"type":"SCALAR"},{"bufferView":24,"componentType":5126,"count":195,"max":[3.000000238418579,14.699999809265137,-0.3499999940395355],"min":[-3.000000238418579,0,-12.399999618530273],"type":"VEC3"},{"bufferView":25,"componentType":5126,"count":195,"type":"VEC3"},{"bufferView":26,"componentType":5126,"count":195,"type":"VEC2"},{"bufferView":27,"componentType":5123,"count":525,"type":"SCALAR"},{"bufferView":28,"componentType":5126,"count":192,"max":[3.1225504875183105,8.537229537963867,-4.399999618530273],"min":[-3.1225504875183105,0,-13],"type":"VEC3"},{"bufferView":29,"componentType":5126,"count":192,"type":"VEC3"},{"bufferView":30,"componentType":5126,"count":192,"type":"VEC2"},{"bufferView":31,"componentType":5123,"count":534,"type":"SCALAR"},{"bufferView":32,"componentType":5126,"count":432,"max":[4.124891757965088,22.100000381469727,0.44142135977745056],"min":[-4.124891757965088,3.521554470062256,-13.81281852722168],"type":"VEC3"},{"bufferView":33,"componentType":5126,"count":432,"type":"VEC3"},{"bufferView":34,"componentType":5126,"count":432,"type":"VEC2"},{"bufferView":35,"componentType":5123,"count":570,"type":"SCALAR"},{"bufferView":36,"componentType":5126,"count":17,"max":[0.20000000298023224,22.399999618530273,-2],"min":[-0.20000000298023224,22.100000381469727,-2.4000000953674316],"type":"VEC3"},{"bufferView":37,"componentType":5126,"count":17,"type":"VEC3"},{"bufferView":38,"componentType":5126,"count":17,"type":"VEC2"},{"bufferView":39,"componentType":5123,"count":24,"type":"SCALAR"}],"asset":{"version":"2.0"},"bufferViews":[{"buffer":0,"byteLength":52764,"byteOffset":0,"target":34962},{"buffer":0,"byteLength":52764,"byteOffset":52764,"target":34962},{"buffer":0,"byteLength":35176,"byteOffset":105528,"target":34962},{"buffer":0,"byteLength":15588,"byteOffset":140704,"target":34963},{"buffer":0,"byteLength":252,"byteOffset":156292,"target":34962},{"buffer":0,"byteLength":252,"byteOffset":156544,"target":34962},{"buffer":0,"byteLength":168,"byteOffset":156796,"target":34962},{"buffer":0,"byteLength":60,"byteOffset":156964,"target":34963},{"buffer":0,"byteLength":144,"byteOffset":157024,"target":34962},{"buffer":0,"byteLength":144,"byteOffset":157168,"target":34962},{"buffer":0,"byteLength":96,"byteOffset":157312,"target":34962},{"buffer":0,"byteLength":24,"byteOffset":157408,"target":34963},{"buffer":0,"byteLength":504,"byteOffset":157432,"target":34962},{"buffer":0,"byteLength":504,"byteOffset":157936,"target":34962},{"buffer":0,"byteLength":336,"byteOffset":158440,"target":34962},{"buffer":0,"byteLength":84,"byteOffset":158776,"target":34963},{"buffer":0,"byteLength":792,"byteOffset":158860,"target":34962},{"buffer":0,"byteLength":792,"byteOffset":159652,"target":34962},{"buffer":0,"byteLength":528,"byteOffset":160444,"target":34962},{"buffer":0,"byteLength":132,"byteOffset":160972,"target":34963},{"buffer":0,"byteLength":7620,"byteOffset":161104,"target":34962},{"buffer":0,"byteLength":7620,"byteOffset":168724,"target":34962},{"buffer":0,"byteLength":5080,"byteOffset":176344,"target":34962},{"buffer":0,"byteLength":2010,"byteOffset":181424,"target":34963},{"buffer":0,"byteLength":2340,"byteOffset":183436,"target":34962},{"buffer":0,"byteLength":2340,"byteOffset":185776,"target":34962},{"buffer":0,"byteLength":1560,"byteOffset":188116,"target":34962},{"buffer":0,"byteLength":1050,"byteOffset":189676,"target":34963},{"buffer":0,"byteLength":2304,"byteOffset":190728,"target":34962},{"buffer":0,"byteLength":2304,"byteOffset":193032,"target":34962},{"buffer":0,"byteLength":1536,"byteOffset":195336,"target":34962},{"buffer":0,"byteLength":1068,"byteOffset":196872,"target":34963},{"buffer":0,"byteLength":5184,"byteOffset":197940,"target":34962},{"buffer":0,"byteLength":5184,"byteOffset":203124,"target":34962},{"buffer":0,"byteLength":3456,"byteOffset":208308,"target":34962},{"buffer":0,"byteLength":1140,"byteOffset":211764,"target":34963},{"buffer":0,"byteLength":204,"byteOffset":212904,"target":34962},{"buffer":0,"byteLength":204,"byteOffset":213108,"target":34962},{"buffer":0,"byteLength":136,"byteOffset":213312,"target":34962},{"buffer":0,"byteLength":48,"byteOffset":213448,"target":34963}],"buffers":[{"byteLength":213496,"uri":"generated.clock_tower.bin"}],"images":[{"name":"T_WoodTrim_BaseColor","uri":"../village/T_WoodTrim_BaseColor.png"},{"name":"T_MetalOrnaments_BaseColor","uri":"../village/T_MetalOrnaments_BaseColor.png"},{"name":"T_RockTrim_BaseColor","uri":"../village/T_RockTrim_BaseColor.png"},{"name":"T_UnevenBrick_BaseColor","uri":"../village/T_UnevenBrick_BaseColor.png"},{"name":"T_Plaster_Luma","uri":"../village/T_Plaster_Luma.png"},{"name":"T_RoundTiles_Luma","uri":"../village/T_RoundTiles_Luma.png"}],"materials":[{"doubleSided":true,"name":"Wood_dark","pbrMetallicRoughness":{"baseColorFactor":[0.2329,0.2659,0.2944,1.0],"baseColorTexture":{"index":0},"metallicFactor":0,"roughnessFactor":0.8500000238418579}},{"doubleSided":true,"name":"Metal","pbrMetallicRoughness":{"baseColorFactor":[1.0,0.9972,0.9945,1.0],"baseColorTexture":{"index":1},"metallicFactor":0,"roughnessFactor":0.5}},{"doubleSided":true,"name":"ClockFace","pbrMetallicRoughness":{"baseColorFactor":[0.848088264465332,0.8073459267616272,0.6738595366477966,1],"metallicFactor":0,"roughnessFactor":0.6000000238418579}},{"doubleSided":true,"name":"Iron","pbrMetallicRoughness":{"baseColorFactor":[0.0134117491543293,0.0134117491543293,0.015325203537940979,1],"metallicFactor":0,"roughnessFactor":0.5}},{"doubleSided":true,"name":"RockTrim","pbrMetallicRoughness":{"baseColorFactor":[1.0,0.9979,1.0,1.0],"baseColorTexture":{"index":2},"metallicFactor":0,"roughnessFactor":0.8500000238418579}},{"doubleSided":true,"name":"Glass","pbrMetallicRoughness":{"baseColorFactor":[0.03310476616024971,0.05087608844041824,0.07828831672668457,1],"metallicFactor":0,"roughnessFactor":0.20000000298023224}},{"doubleSided":true,"name":"Stone","pbrMetallicRoughness":{"baseColorFactor":[1.0,0.9974,0.9977,1.0],"baseColorTexture":{"index":3},"metallicFactor":0,"roughnessFactor":0.8500000238418579}},{"doubleSided":true,"name":"Plaster_white","pbrMetallicRoughness":{"baseColorFactor":[1.0,1.0,0.9092,1.0],"baseColorTexture":{"index":4},"metallicFactor":0,"roughnessFactor":0.8500000238418579}},{"doubleSided":true,"name":"Tiles_slate","pbrMetallicRoughness":{"baseColorFactor":[0.1477,0.1884,0.2641,1.0],"baseColorTexture":{"index":5},"metallicFactor":0,"roughnessFactor":0.699999988079071}},{"doubleSided":true,"name":"SignPaint","pbrMetallicRoughness":{"baseColorFactor":[0.6038273572921753,0.34239163994789124,0.03310476616024971,1],"metallicFactor":0,"roughnessFactor":0.6000000238418579}}],"meshes":[{"name":"lod","primitives":[{"attributes":{"NORMAL":1,"POSITION":0,"TEXCOORD_0":2},"indices":3,"material":0},{"attributes":{"NORMAL":5,"POSITION":4,"TEXCOORD_0":6},"indices":7,"material":1},{"attributes":{"NORMAL":9,"POSITION":8,"TEXCOORD_0":10},"indices":11,"material":2},{"attributes":{"NORMAL":13,"POSITION":12,"TEXCOORD_0":14},"indices":15,"material":3},{"attributes":{"NORMAL":17,"POSITION":16,"TEXCOORD_0":18},"indices":19,"material":4},{"attributes":{"NORMAL":21,"POSITION":20,"TEXCOORD_0":22},"indices":23,"material":5},{"attributes":{"NORMAL":25,"POSITION":24,"TEXCOORD_0":26},"indices":27,"material":6},{"attributes":{"NORMAL":29,"POSITION":28,"TEXCOORD_0":30},"indices":31,"material":7},{"attributes":{"NORMAL":33,"POSITION":32,"TEXCOORD_0":34},"indices":35,"material":8},{"attributes":{"NORMAL":37,"POSITION":36,"TEXCOORD_0":38},"indices":39,"material":9}]}],"nodes":[{"mesh":0,"name":"lod"}],"scene":0,"scenes":[{"name":"Scene","nodes":[0]}],"textures":[{"source":0},{"source":1},{"source":2},{"source":3},{"source":4},{"source":5}]}
