{"accessors":[{"bufferView":0,"componentType":5126,"count":38,"type":"VEC3"},{"bufferView":1,"componentType":5126,"count":38,"max":[3.4124999046325684,2.9200000762939453,1.7200000286102295],"min":[-3.9000000953674316,2.140000104904175,0.11999999731779099],"type":"VEC3"},{"bufferView":2,"componentType":5123,"count":54,"type":"SCALAR"},{"bufferView":3,"componentType":5126,"count":42,"type":"VEC3"},{"bufferView":4,"componentType":5126,"count":42,"max":[3.9000000953674316,2.9200000762939453,1.7200000286102295],"min":[-3.4124999046325684,2.140000104904175,0.11999999731779099],"type":"VEC3"},{"bufferView":5,"componentType":5123,"count":66,"type":"SCALAR"},{"bufferView":6,"componentType":5126,"count":46,"type":"VEC3"},{"bufferView":7,"componentType":5126,"count":46,"max":[3.9000003337860107,2.9200000762939453,1.75],"min":[-4.835000038146973,2.0199999809265137,-1.0149999856948853],"type":"VEC3"},{"bufferView":8,"componentType":5123,"count":66,"type":"SCALAR"},{"bufferView":9,"componentType":5126,"count":3712,"type":"VEC3"},{"bufferView":10,"componentType":5126,"count":3712,"max":[4.828754425048828,7.653981685638428,2.799999952316284],"min":[-5.019999980926514,0,-7.354847431182861],"type":"VEC3"},{"bufferView":11,"componentType":5126,"count":3712,"type":"VEC2"},{"bufferView":12,"componentType":5123,"count":5406,"type":"SCALAR"},{"bufferView":13,"componentType":5126,"count":116,"type":"VEC3"},{"bufferView":14,"componentType":5126,"count":116,"max":[1.344814419746399,1.2942557334899902,0.0716620534658432],"min":[1.1466553211212158,1.021915316581726,0.000766294077038765],"type":"VEC3"},{"bufferView":15,"componentType":5126,"count":116,"type":"VEC2"},{"bufferView":16,"componentType":5123,"count":198,"type":"SCALAR"},{"bufferView":17,"componentType":5126,"count":44,"type":"VEC3"},{"bufferView":18,"componentType":5126,"count":44,"max":[2.9457783699035645,6.660053730010986,-4.3059916496276855],"min":[2,3.622951030731201,-5.294008731842041],"type":"VEC3"},{"bufferView":19,"componentType":5126,"count":44,"type":"VEC2"},{"bufferView":20,"componentType":5123,"count":72,"type":"SCALAR"},{"bufferView":21,"componentType":5126,"count":184,"type":"VEC3"},{"bufferView":22,"componentType":5126,"count":184,"max":[4.000000476837158,7.6472296714782715,0.43480587005615234],"min":[-4.000000476837158,0.15000000596046448,-6.434805870056152],"type":"VEC3"},{"bufferView":23,"componentType":5126,"count":184,"type":"VEC2"},{"bufferView":24,"componentType":5123,"count":342,"type":"SCALAR"},{"bufferView":25,"componentType":5126,"count":317,"type":"VEC3"},{"bufferView":26,"componentType":5126,"count":317,"max":[4.756111145019531,8.16004467010498,1.5373811721801758],"min":[-4.853986740112305,2.63155460357666,-7.537382125854492],"type":"VEC3"},{"bufferView":27,"componentType":5126,"count":317,"type":"VEC2"},{"bufferView":28,"componentType":5123,"count":450,"type":"SCALAR"},{"bufferView":29,"componentType":5126,"count":28,"type":"VEC3"},{"bufferView":30,"componentType":5126,"count":28,"max":[-4.375,2.324399948120117,-0.9350000023841858],"min":[-4.857462406158447,1.880000114440918,-1.065000057220459],"type":"VEC3"},{"bufferView":31,"componentType":5123,"count":42,"type":"SCALAR"},{"bufferView":32,"componentType":5126,"count":8,"type":"VEC3"},{"bufferView":33,"componentType":5126,"count":8,"max":[2,1.0299999713897705,4.371138828673793e-08],"min":[0,0.15000000596046448,0],"type":"VEC3"},{"bufferView":34,"componentType":5126,"count":8,"type":"VEC2"},{"bufferView":35,"componentType":5123,"count":12,"type":"SCALAR"},{"bufferView":36,"componentType":5126,"count":28,"type":"VEC3"},{"bufferView":37,"componentType":5126,"count":28,"max":[4,1.0299999713897705,1.1920928955078125e-07],"min":[-4,0.15000000596046448,-6],"type":"VEC3"},{"bufferView":38,"componentType":5126,"count":28,"type":"VEC2"},{"bufferView":39,"componentType":5123,"count":42,"type":"SCALAR"},{"bufferView":40,"componentType":5126,"count":27,"type":"VEC3"},{"bufferView":41,"componentType":5126,"count":27,"max":[4.003888130187988,2.5053563117980957,0.003888234496116638],"min":[-4.003888130187988,1.24713933467865,-3.505472183227539],"type":"VEC3"},{"bufferView":42,"componentType":5123,"count":51,"type":"SCALAR"}],"asset":{"version":"2.0"},"bufferViews":[{"buffer":0,"byteOffset":0,"byteLength":456,"target":34962},{"buffer":0,"byteOffset":456,"byteLength":456,"target":34962},{"buffer":0,"byteOffset":912,"byteLength":108,"target":34963},{"buffer":0,"byteOffset":1020,"byteLength":504,"target":34962},{"buffer":0,"byteOffset":1524,"byteLength":504,"target":34962},{"buffer":0,"byteOffset":2028,"byteLength":132,"target":34963},{"buffer":0,"byteOffset":2160,"byteLength":552,"target":34962},{"buffer":0,"byteOffset":2712,"byteLength":552,"target":34962},{"buffer":0,"byteOffset":3264,"byteLength":132,"target":34963},{"buffer":0,"byteOffset":3396,"byteLength":44544,"target":34962},{"buffer":0,"byteOffset":47940,"byteLength":44544,"target":34962},{"buffer":0,"byteOffset":92484,"byteLength":29696,"target":34962},{"buffer":0,"byteOffset":122180,"byteLength":10812,"target":34963},{"buffer":0,"byteOffset":132992,"byteLength":1392,"target":34962},{"buffer":0,"byteOffset":134384,"byteLength":1392,"target":34962},{"buffer":0,"byteOffset":135776,"byteLength":928,"target":34962},{"buffer":0,"byteOffset":136704,"byteLength":396,"target":34963},{"buffer":0,"byteOffset":137100,"byteLength":528,"target":34962},{"buffer":0,"byteOffset":137628,"byteLength":528,"target":34962},{"buffer":0,"byteOffset":138156,"byteLength":352,"target":34962},{"buffer":0,"byteOffset":138508,"byteLength":144,"target":34963},{"buffer":0,"byteOffset":138652,"byteLength":2208,"target":34962},{"buffer":0,"byteOffset":140860,"byteLength":2208,"target":34962},{"buffer":0,"byteOffset":143068,"byteLength":1472,"target":34962},{"buffer":0,"byteOffset":144540,"byteLength":684,"target":34963},{"buffer":0,"byteOffset":145224,"byteLength":3804,"target":34962},{"buffer":0,"byteOffset":149028,"byteLength":3804,"target":34962},{"buffer":0,"byteOffset":152832,"byteLength":2536,"target":34962},{"buffer":0,"byteOffset":155368,"byteLength":900,"target":34963},{"buffer":0,"byteOffset":156268,"byteLength":336,"target":34962},{"buffer":0,"byteOffset":156604,"byteLength":336,"target":34962},{"buffer":0,"byteOffset":156940,"byteLength":84,"target":34963},{"buffer":0,"byteOffset":157024,"byteLength":96,"target":34962},{"buffer":0,"byteOffset":157120,"byteLength":96,"target":34962},{"buffer":0,"byteOffset":157216,"byteLength":64,"target":34962},{"buffer":0,"byteOffset":157280,"byteLength":24,"target":34963},{"buffer":0,"byteOffset":157304,"byteLength":336,"target":34962},{"buffer":0,"byteOffset":157640,"byteLength":336,"target":34962},{"buffer":0,"byteOffset":157976,"byteLength":224,"target":34962},{"buffer":0,"byteOffset":158200,"byteLength":84,"target":34963},{"buffer":0,"byteOffset":158284,"byteLength":324,"target":34962},{"buffer":0,"byteOffset":158608,"byteLength":324,"target":34962},{"buffer":0,"byteOffset":158932,"byteLength":102,"target":34963}],"buffers":[{"byteLength":159036,"uri":"generated.boardwalk_cafe.bin"}],"images":[{"name":"T_WoodTrim_BaseColor","uri":"../village/T_WoodTrim_BaseColor.png"},{"name":"T_MetalOrnaments_BaseColor","uri":"../village/T_MetalOrnaments_BaseColor.png"},{"name":"T_UnevenBrick_BaseColor","uri":"../village/T_UnevenBrick_BaseColor.png"},{"name":"T_Plaster_Luma","uri":"../village/T_Plaster_Luma.png"},{"name":"T_RoundTiles_BaseColor","uri":"../village/T_RoundTiles_BaseColor.png"},{"name":"T_RockTrim_BaseColor","uri":"../village/T_RockTrim_BaseColor.png"},{"name":"T_Brick_BaseColor","uri":"../village/T_Brick_BaseColor.png"}],"materials":[{"doubleSided":true,"name":"ClothGreen","pbrMetallicRoughness":{"baseColorFactor":[0.03310476616024971,0.1473190039396286,0.07323895394802094,1],"metallicFactor":0,"roughnessFactor":0.8999999761581421}},{"doubleSided":true,"name":"Cloth2","pbrMetallicRoughness":{"baseColorFactor":[0.7484140992164612,0.6382831931114197,0.4200332760810852,1],"metallicFactor":0,"roughnessFactor":0.8999999761581421}},{"doubleSided":true,"name":"Iron","pbrMetallicRoughness":{"baseColorFactor":[0.0134117491543293,0.0134117491543293,0.015325203537940979,1],"metallicFactor":0,"roughnessFactor":0.5}},{"doubleSided":true,"name":"Wood_mid","pbrMetallicRoughness":{"baseColorFactor":[0.5179,0.5489,0.5787,1.0],"baseColorTexture":{"index":0},"metallicFactor":0,"roughnessFactor":0.8500000238418579}},{"doubleSided":true,"name":"Metal","pbrMetallicRoughness":{"baseColorFactor":[1.0,0.9972,0.9945,1.0],"baseColorTexture":{"index":1},"metallicFactor":0,"roughnessFactor":0.5}},{"doubleSided":true,"name":"Stone","pbrMetallicRoughness":{"baseColorFactor":[1.0,0.9974,0.9977,1.0],"baseColorTexture":{"index":2},"metallicFactor":0,"roughnessFactor":0.8500000238418579}},{"doubleSided":true,"name":"Plaster_butter","pbrMetallicRoughness":{"baseColorFactor":[1.0,0.8583,0.3304,1.0],"baseColorTexture":{"index":3},"metallicFactor":0,"roughnessFactor":0.8500000238418579}},{"doubleSided":true,"name":"Tiles_red","pbrMetallicRoughness":{"baseColorFactor":[1.0,0.9965,0.9971,1.0],"baseColorTexture":{"index":4},"metallicFactor":0,"roughnessFactor":0.699999988079071}},{"doubleSided":true,"name":"SignPaint","pbrMetallicRoughness":{"baseColorFactor":[0.6038273572921753,0.34239163994789124,0.03310476616024971,1],"metallicFactor":0,"roughnessFactor":0.6000000238418579}},{"doubleSided":true,"name":"RockTrim","pbrMetallicRoughness":{"baseColorFactor":[1.0,0.9979,1.0,1.0],"baseColorTexture":{"index":5},"metallicFactor":0,"roughnessFactor":0.8500000238418579}},{"doubleSided":true,"name":"Brick","pbrMetallicRoughness":{"baseColorFactor":[1.0,0.9974,1.0,1.0],"baseColorTexture":{"index":6},"metallicFactor":0,"roughnessFactor":0.8500000238418579}},{"doubleSided":true,"name":"Glass","pbrMetallicRoughness":{"baseColorFactor":[0.03310476616024971,0.05087608844041824,0.07828831672668457,1],"metallicFactor":0,"roughnessFactor":0.20000000298023224}}],"meshes":[{"name":"lod","primitives":[{"attributes":{"NORMAL":0,"POSITION":1},"indices":2,"material":0},{"attributes":{"NORMAL":3,"POSITION":4},"indices":5,"material":1},{"attributes":{"NORMAL":6,"POSITION":7},"indices":8,"material":2},{"attributes":{"NORMAL":9,"POSITION":10,"TEXCOORD_0":11},"indices":12,"material":3},{"attributes":{"NORMAL":13,"POSITION":14,"TEXCOORD_0":15},"indices":16,"material":4},{"attributes":{"NORMAL":17,"POSITION":18,"TEXCOORD_0":19},"indices":20,"material":5},{"attributes":{"NORMAL":21,"POSITION":22,"TEXCOORD_0":23},"indices":24,"material":6},{"attributes":{"NORMAL":25,"POSITION":26,"TEXCOORD_0":27},"indices":28,"material":7},{"attributes":{"NORMAL":29,"POSITION":30},"indices":31,"material":8},{"attributes":{"NORMAL":32,"POSITION":33,"TEXCOORD_0":34},"indices":35,"material":9},{"attributes":{"NORMAL":36,"POSITION":37,"TEXCOORD_0":38},"indices":39,"material":10},{"attributes":{"NORMAL":40,"POSITION":41},"indices":42,"material":11}]}],"nodes":[{"mesh":0,"name":"lod"}],"scene":0,"scenes":[{"name":"Scene","nodes":[0]}],"textures":[{"source":0},{"source":1},{"source":2},{"source":3},{"source":4},{"source":5},{"source":6}]}