{"accessors":[{"bufferView":0,"componentType":5126,"count":144,"max":[4,9.760000228881836,0],"min":[-4,0,-9],"type":"VEC3"},{"bufferView":1,"componentType":5126,"count":144,"type":"VEC3"},{"bufferView":2,"componentType":5126,"count":144,"type":"VEC2"},{"bufferView":3,"componentType":5123,"count":216,"type":"SCALAR"},{"bufferView":4,"componentType":5126,"count":780,"max":[4.110000133514404,7.9730329513549805,1.5],"min":[-4.110000133514404,0,-9.25],"type":"VEC3"},{"bufferView":5,"componentType":5126,"count":780,"type":"VEC3"},{"bufferView":6,"componentType":5126,"count":780,"type":"VEC2"},{"bufferView":7,"componentType":5123,"count":1170,"type":"SCALAR"},{"bufferView":8,"componentType":5126,"count":260,"max":[4.039999961853027,7.239999771118164,0.550000011920929],"min":[-4.039999961853027,0.8600000143051147,-9.039999961853027],"type":"VEC3"},{"bufferView":9,"componentType":5126,"count":260,"type":"VEC3"},{"bufferView":10,"componentType":5126,"count":260,"type":"VEC2"},{"bufferView":11,"componentType":5123,"count":390,"type":"SCALAR"},{"bufferView":12,"componentType":5126,"count":108,"max":[4,9.069999694824219,0.5000001788139343],"min":[-4,3,-9],"type":"VEC3"},{"bufferView":13,"componentType":5126,"count":108,"type":"VEC3"},{"bufferView":14,"componentType":5126,"count":108,"type":"VEC2"},{"bufferView":15,"componentType":5123,"count":156,"type":"SCALAR"},{"bufferView":16,"componentType":5126,"count":144,"max":[4.550000190734863,9.239999771118164,1],"min":[-4.550000190734863,5.381677627563477,-9.5],"type":"VEC3"},{"bufferView":17,"componentType":5126,"count":144,"type":"VEC3"},{"bufferView":18,"componentType":5126,"count":144,"type":"VEC2"},{"bufferView":19,"componentType":5123,"count":216,"type":"SCALAR"},{"bufferView":20,"componentType":5126,"count":24,"max":[2.5799999237060547,10.020000457763672,-5.519999980926514],"min":[2.2200000286102295,9.760000228881836,-5.880000114440918],"type":"VEC3"},{"bufferView":21,"componentType":5126,"count":24,"type":"VEC3"},{"bufferView":22,"componentType":5126,"count":24,"type":"VEC2"},{"bufferView":23,"componentType":5123,"count":36,"type":"SCALAR"}],"asset":{"generator":"Khronos glTF Blender I/O v5.2.40","version":"2.0"},"bufferViews":[{"buffer":0,"byteLength":1728,"byteOffset":0,"target":34962},{"buffer":0,"byteLength":1728,"byteOffset":1728,"target":34962},{"buffer":0,"byteLength":1152,"byteOffset":3456,"target":34962},{"buffer":0,"byteLength":432,"byteOffset":4608,"target":34963},{"buffer":0,"byteLength":9360,"byteOffset":5040,"target":34962},{"buffer":0,"byteLength":9360,"byteOffset":14400,"target":34962},{"buffer":0,"byteLength":6240,"byteOffset":23760,"target":34962},{"buffer":0,"byteLength":2340,"byteOffset":30000,"target":34963},{"buffer":0,"byteLength":3120,"byteOffset":32340,"target":34962},{"buffer":0,"byteLength":3120,"byteOffset":35460,"target":34962},{"buffer":0,"byteLength":2080,"byteOffset":38580,"target":34962},{"buffer":0,"byteLength":780,"byteOffset":40660,"target":34963},{"buffer":0,"byteLength":1296,"byteOffset":41440,"target":34962},{"buffer":0,"byteLength":1296,"byteOffset":42736,"target":34962},{"buffer":0,"byteLength":864,"byteOffset":44032,"target":34962},{"buffer":0,"byteLength":312,"byteOffset":44896,"target":34963},{"buffer":0,"byteLength":1728,"byteOffset":45208,"target":34962},{"buffer":0,"byteLength":1728,"byteOffset":46936,"target":34962},{"buffer":0,"byteLength":1152,"byteOffset":48664,"target":34962},{"buffer":0,"byteLength":432,"byteOffset":49816,"target":34963},{"buffer":0,"byteLength":288,"byteOffset":50248,"target":34962},{"buffer":0,"byteLength":288,"byteOffset":50536,"target":34962},{"buffer":0,"byteLength":192,"byteOffset":50824,"target":34962},{"buffer":0,"byteLength":72,"byteOffset":51016,"target":34963}],"buffers":[{"byteLength":51088,"uri":"generated.timber_house.bin"}],"images":[{"name":"T_Plaster_Luma","uri":"../village/T_Plaster_Luma.png"},{"name":"T_RoundTiles_Luma","uri":"../village/T_RoundTiles_Luma.png"},{"name":"T_UnevenBrick_BaseColor","uri":"../village/T_UnevenBrick_BaseColor.png"},{"name":"T_WoodTrim_BaseColor","uri":"../village/T_WoodTrim_BaseColor.png"}],"materials":[{"doubleSided":true,"name":"Stone","pbrMetallicRoughness":{"baseColorFactor":[1.0,0.9974,0.9977,1.0],"baseColorTexture":{"index":2},"metallicFactor":0,"roughnessFactor":0.8500000238418579}},{"doubleSided":true,"name":"Wood_dark","pbrMetallicRoughness":{"baseColorFactor":[0.2329,0.2659,0.2944,1.0],"baseColorTexture":{"index":3},"metallicFactor":0,"roughnessFactor":0.8500000238418579}},{"doubleSided":true,"name":"Glass","pbrMetallicRoughness":{"baseColorFactor":[0.03310476616024971,0.05087608844041824,0.07828831672668457,1],"metallicFactor":0,"roughnessFactor":0.20000000298023224}},{"doubleSided":true,"name":"HousePlaster","pbrMetallicRoughness":{"baseColorFactor":[1.0,1.0,0.9092,1.0],"baseColorTexture":{"index":0},"metallicFactor":0,"roughnessFactor":0.8500000238418579}},{"doubleSided":true,"name":"HouseTiles","pbrMetallicRoughness":{"baseColorFactor":[0.3822,0.1486,0.0653,1.0],"baseColorTexture":{"index":1},"metallicFactor":0,"roughnessFactor":0.699999988079071}},{"doubleSided":true,"name":"Iron","pbrMetallicRoughness":{"baseColorFactor":[0.0134117491543293,0.0134117491543293,0.015325203537940979,1],"metallicFactor":0,"roughnessFactor":0.5}}],"meshes":[{"name":"Wall","primitives":[{"attributes":{"NORMAL":1,"POSITION":0,"TEXCOORD_0":2},"indices":3,"material":0},{"attributes":{"NORMAL":5,"POSITION":4,"TEXCOORD_0":6},"indices":7,"material":1},{"attributes":{"NORMAL":9,"POSITION":8,"TEXCOORD_0":10},"indices":11,"material":2},{"attributes":{"NORMAL":13,"POSITION":12,"TEXCOORD_0":14},"indices":15,"material":3},{"attributes":{"NORMAL":17,"POSITION":16,"TEXCOORD_0":18},"indices":19,"material":4},{"attributes":{"NORMAL":21,"POSITION":20,"TEXCOORD_0":22},"indices":23,"material":5}]}],"nodes":[{"mesh":0,"name":"timber_house"}],"scene":0,"scenes":[{"name":"Scene","nodes":[0]}],"textures":[{"source":0},{"source":1},{"source":2},{"source":3}]}
