{"accessors":[{"bufferView":0,"componentType":5126,"count":52,"type":"VEC3"},{"bufferView":1,"componentType":5126,"count":52,"max":[4.119999885559082,0.6000000238418579,2],"min":[-4.119999885559082,0,-8.119999885559082],"type":"VEC3"},{"bufferView":2,"componentType":5126,"count":52,"type":"VEC2"},{"bufferView":3,"componentType":5123,"count":78,"type":"SCALAR"},{"bufferView":4,"componentType":5126,"count":96,"type":"VEC3"},{"bufferView":5,"componentType":5126,"count":96,"max":[4,6.880000114440918,1.6500000953674316],"min":[-4,0.6000000238418579,-8],"type":"VEC3"},{"bufferView":6,"componentType":5126,"count":96,"type":"VEC2"},{"bufferView":7,"componentType":5123,"count":144,"type":"SCALAR"},{"bufferView":8,"componentType":5126,"count":92,"type":"VEC3"},{"bufferView":9,"componentType":5126,"count":92,"max":[4,7.119999885559082,1.5],"min":[-4,0.6000000238418579,-8.5],"type":"VEC3"},{"bufferView":10,"componentType":5126,"count":92,"type":"VEC2"},{"bufferView":11,"componentType":5123,"count":138,"type":"SCALAR"},{"bufferView":12,"componentType":5126,"count":260,"type":"VEC3"},{"bufferView":13,"componentType":5126,"count":260,"max":[4.039999961853027,6.340000152587891,0.03999999910593033],"min":[-4.039999961853027,1.409999966621399,-8.039999961853027],"type":"VEC3"},{"bufferView":14,"componentType":5123,"count":390,"type":"SCALAR"},{"bufferView":15,"componentType":5126,"count":96,"type":"VEC3"},{"bufferView":16,"componentType":5126,"count":96,"max":[4.130000114440918,3.380000114440918,0.12999999523162842],"min":[-4.130000114440918,0.6000000238418579,-8.130000114440918],"type":"VEC3"},{"bufferView":17,"componentType":5123,"count":144,"type":"SCALAR"},{"bufferView":18,"componentType":5126,"count":168,"type":"VEC3"},{"bufferView":19,"componentType":5126,"count":168,"max":[4.265000343322754,7,1.9000000953674316],"min":[-4.2649993896484375,2.6815249919891357,-8.449999809265137],"type":"VEC3"},{"bufferView":20,"componentType":5126,"count":168,"type":"VEC2"},{"bufferView":21,"componentType":5123,"count":252,"type":"SCALAR"},{"bufferView":22,"componentType":5126,"count":44,"type":"VEC3"},{"bufferView":23,"componentType":5126,"count":44,"max":[1.8300000429153442,7.840000152587891,-6.070000171661377],"min":[0.9700000286102295,3.4000000953674316,-6.929999828338623],"type":"VEC3"},{"bufferView":24,"componentType":5126,"count":44,"type":"VEC2"},{"bufferView":25,"componentType":5123,"count":66,"type":"SCALAR"},{"bufferView":26,"componentType":5126,"count":20,"type":"VEC3"},{"bufferView":27,"componentType":5126,"count":20,"max":[1.5800000429153442,8.100000381469727,-6.320000171661377],"min":[1.2200000286102295,7.840000152587891,-6.679999828338623],"type":"VEC3"},{"bufferView":28,"componentType":5123,"count":30,"type":"SCALAR"}],"asset":{"generator":"Khronos glTF Blender I/O v5.2.40","version":"2.0"},"bufferViews":[{"buffer":0,"byteOffset":0,"byteLength":624,"target":34962},{"buffer":0,"byteOffset":624,"byteLength":624,"target":34962},{"buffer":0,"byteOffset":1248,"byteLength":416,"target":34962},{"buffer":0,"byteOffset":1664,"byteLength":156,"target":34963},{"buffer":0,"byteOffset":1820,"byteLength":1152,"target":34962},{"buffer":0,"byteOffset":2972,"byteLength":1152,"target":34962},{"buffer":0,"byteOffset":4124,"byteLength":768,"target":34962},{"buffer":0,"byteOffset":4892,"byteLength":288,"target":34963},{"buffer":0,"byteOffset":5180,"byteLength":1104,"target":34962},{"buffer":0,"byteOffset":6284,"byteLength":1104,"target":34962},{"buffer":0,"byteOffset":7388,"byteLength":736,"target":34962},{"buffer":0,"byteOffset":8124,"byteLength":276,"target":34963},{"buffer":0,"byteOffset":8400,"byteLength":3120,"target":34962},{"buffer":0,"byteOffset":11520,"byteLength":3120,"target":34962},{"buffer":0,"byteOffset":14640,"byteLength":780,"target":34963},{"buffer":0,"byteOffset":15420,"byteLength":1152,"target":34962},{"buffer":0,"byteOffset":16572,"byteLength":1152,"target":34962},{"buffer":0,"byteOffset":17724,"byteLength":288,"target":34963},{"buffer":0,"byteOffset":18012,"byteLength":2016,"target":34962},{"buffer":0,"byteOffset":20028,"byteLength":2016,"target":34962},{"buffer":0,"byteOffset":22044,"byteLength":1344,"target":34962},{"buffer":0,"byteOffset":23388,"byteLength":504,"target":34963},{"buffer":0,"byteOffset":23892,"byteLength":528,"target":34962},{"buffer":0,"byteOffset":24420,"byteLength":528,"target":34962},{"buffer":0,"byteOffset":24948,"byteLength":352,"target":34962},{"buffer":0,"byteOffset":25300,"byteLength":132,"target":34963},{"buffer":0,"byteOffset":25432,"byteLength":240,"target":34962},{"buffer":0,"byteOffset":25672,"byteLength":240,"target":34962},{"buffer":0,"byteOffset":25912,"byteLength":60,"target":34963}],"buffers":[{"byteLength":25972,"uri":"generated.gambrel_house.bin"}],"images":[{"name":"T_Plaster_Luma","uri":"../village/T_Plaster_Luma.png"},{"name":"T_RockTrim_BaseColor","uri":"../village/T_RockTrim_BaseColor.png"},{"name":"T_RoundTiles_Luma","uri":"../village/T_RoundTiles_Luma.png"},{"name":"T_UnevenBrick_BaseColor","uri":"../village/T_UnevenBrick_BaseColor.png"},{"name":"T_WoodTrim_BaseColor","uri":"../village/T_WoodTrim_BaseColor.png"}],"materials":[{"doubleSided":true,"name":"RockTrim","pbrMetallicRoughness":{"baseColorFactor":[1.0,0.9979,1.0,1.0],"baseColorTexture":{"index":1},"metallicFactor":0,"roughnessFactor":0.8500000238418579}},{"doubleSided":true,"name":"HousePlaster","pbrMetallicRoughness":{"baseColorFactor":[0.656,0.7502,0.4764,1.0],"baseColorTexture":{"index":0},"metallicFactor":0,"roughnessFactor":0.8500000238418579}},{"doubleSided":true,"name":"Wood_dark","pbrMetallicRoughness":{"baseColorFactor":[0.2329,0.2659,0.2944,1.0],"baseColorTexture":{"index":4},"metallicFactor":0,"roughnessFactor":0.8500000238418579}},{"doubleSided":true,"name":"Glass","pbrMetallicRoughness":{"baseColorFactor":[0.03310476616024971,0.05087608844041824,0.07828831672668457,1],"metallicFactor":0,"roughnessFactor":0.20000000298023224}},{"doubleSided":true,"name":"WhitePaint","pbrMetallicRoughness":{"baseColorFactor":[0.8275708556175232,0.8073459267616272,0.7105664610862732,1],"metallicFactor":0,"roughnessFactor":0.6000000238418579}},{"doubleSided":true,"name":"HouseTiles","pbrMetallicRoughness":{"baseColorFactor":[0.1165,0.1149,0.1269,1.0],"baseColorTexture":{"index":2},"metallicFactor":0,"roughnessFactor":0.699999988079071}},{"doubleSided":true,"name":"Stone","pbrMetallicRoughness":{"baseColorFactor":[1.0,0.9974,0.9977,1.0],"baseColorTexture":{"index":3},"metallicFactor":0,"roughnessFactor":0.8500000238418579}},{"doubleSided":true,"name":"Iron","pbrMetallicRoughness":{"baseColorFactor":[0.0134117491543293,0.0134117491543293,0.015325203537940979,1],"metallicFactor":0,"roughnessFactor":0.5}}],"meshes":[{"name":"Plinth","primitives":[{"attributes":{"NORMAL":0,"POSITION":1,"TEXCOORD_0":2},"indices":3,"material":0},{"attributes":{"NORMAL":4,"POSITION":5,"TEXCOORD_0":6},"indices":7,"material":1},{"attributes":{"NORMAL":8,"POSITION":9,"TEXCOORD_0":10},"indices":11,"material":2},{"attributes":{"NORMAL":12,"POSITION":13},"indices":14,"material":3},{"attributes":{"NORMAL":15,"POSITION":16},"indices":17,"material":4},{"attributes":{"NORMAL":18,"POSITION":19,"TEXCOORD_0":20},"indices":21,"material":5},{"attributes":{"NORMAL":22,"POSITION":23,"TEXCOORD_0":24},"indices":25,"material":6},{"attributes":{"NORMAL":26,"POSITION":27},"indices":28,"material":7}]}],"nodes":[{"mesh":0,"name":"gambrel_house"}],"scene":0,"scenes":[{"name":"Scene","nodes":[0]}],"textures":[{"source":0},{"source":1},{"source":2},{"source":3},{"source":4}]}