{"accessors":[{"bufferView":0,"componentType":5126,"count":7666,"max":[3.861367702484131,13.503981590270996,1.994140386581421],"min":[-3.861367702484131,-0.008544921875,-8.794139862060547],"type":"VEC3"},{"bufferView":1,"componentType":5126,"count":7666,"type":"VEC3"},{"bufferView":2,"componentType":5126,"count":7666,"type":"VEC2"},{"bufferView":3,"componentType":5123,"count":11571,"type":"SCALAR"},{"bufferView":4,"componentType":5126,"count":509,"max":[3.0038883686065674,8.619254112243652,1.2038882970809937],"min":[-3.0038881301879883,1.0647618770599365,-8.003888130187988],"type":"VEC3"},{"bufferView":5,"componentType":5126,"count":509,"type":"VEC3"},{"bufferView":6,"componentType":5126,"count":509,"type":"VEC2"},{"bufferView":7,"componentType":5123,"count":726,"type":"SCALAR"},{"bufferView":8,"componentType":5126,"count":26,"max":[1,13.148548126220703,4.3711395392165286e-08],"min":[-2.082885980606079,0,-6.4544525146484375],"type":"VEC3"},{"bufferView":9,"componentType":5126,"count":26,"type":"VEC3"},{"bufferView":10,"componentType":5126,"count":26,"type":"VEC2"},{"bufferView":11,"componentType":5123,"count":30,"type":"SCALAR"},{"bufferView":12,"componentType":5126,"count":68,"max":[3.000000238418579,12.97853946685791,4.371138828673793e-08],"min":[-3.000000238418579,0,-8],"type":"VEC3"},{"bufferView":13,"componentType":5126,"count":68,"type":"VEC3"},{"bufferView":14,"componentType":5126,"count":68,"type":"VEC2"},{"bufferView":15,"componentType":5123,"count":87,"type":"SCALAR"},{"bufferView":16,"componentType":5126,"count":776,"max":[3.1225504875183105,13.49722957611084,1.2000006437301636],"min":[-3.1225504875183105,0,-8.000000953674316],"type":"VEC3"},{"bufferView":17,"componentType":5126,"count":776,"type":"VEC3"},{"bufferView":18,"componentType":5126,"count":776,"type":"VEC2"},{"bufferView":19,"componentType":5123,"count":1665,"type":"SCALAR"},{"bufferView":20,"componentType":5126,"count":446,"max":[4.124891757965088,14.01004409790039,2.0782370567321777],"min":[-4.124891757965088,8.48155403137207,-8.825775146484375],"type":"VEC3"},{"bufferView":21,"componentType":5126,"count":446,"type":"VEC3"},{"bufferView":22,"componentType":5126,"count":446,"type":"VEC2"},{"bufferView":23,"componentType":5123,"count":582,"type":"SCALAR"}],"asset":{"version":"2.0"},"bufferViews":[{"buffer":0,"byteLength":91992,"byteOffset":0,"target":34962},{"buffer":0,"byteLength":91992,"byteOffset":91992,"target":34962},{"buffer":0,"byteLength":61328,"byteOffset":183984,"target":34962},{"buffer":0,"byteLength":23142,"byteOffset":245312,"target":34963},{"buffer":0,"byteLength":6108,"byteOffset":268456,"target":34962},{"buffer":0,"byteLength":6108,"byteOffset":274564,"target":34962},{"buffer":0,"byteLength":4072,"byteOffset":280672,"target":34962},{"buffer":0,"byteLength":1452,"byteOffset":284744,"target":34963},{"buffer":0,"byteLength":312,"byteOffset":286196,"target":34962},{"buffer":0,"byteLength":312,"byteOffset":286508,"target":34962},{"buffer":0,"byteLength":208,"byteOffset":286820,"target":34962},{"buffer":0,"byteLength":60,"byteOffset":287028,"target":34963},{"buffer":0,"byteLength":816,"byteOffset":287088,"target":34962},{"buffer":0,"byteLength":816,"byteOffset":287904,"target":34962},{"buffer":0,"byteLength":544,"byteOffset":288720,"target":34962},{"buffer":0,"byteLength":174,"byteOffset":289264,"target":34963},{"buffer":0,"byteLength":9312,"byteOffset":289440,"target":34962},{"buffer":0,"byteLength":9312,"byteOffset":298752,"target":34962},{"buffer":0,"byteLength":6208,"byteOffset":308064,"target":34962},{"buffer":0,"byteLength":3330,"byteOffset":314272,"target":34963},{"buffer":0,"byteLength":5352,"byteOffset":317604,"target":34962},{"buffer":0,"byteLength":5352,"byteOffset":322956,"target":34962},{"buffer":0,"byteLength":3568,"byteOffset":328308,"target":34962},{"buffer":0,"byteLength":1164,"byteOffset":331876,"target":34963}],"buffers":[{"byteLength":333040,"uri":"generated.townhouse_jettied.bin"}],"images":[{"name":"T_WoodTrim_BaseColor","uri":"../village/T_WoodTrim_BaseColor.png"},{"name":"T_RockTrim_BaseColor","uri":"../village/T_RockTrim_BaseColor.png"},{"name":"T_Brick_BaseColor","uri":"../village/T_Brick_BaseColor.png"},{"name":"T_Plaster_Luma","uri":"../village/T_Plaster_Luma.png"},{"name":"T_RoundTiles_BaseColor","uri":"../village/T_RoundTiles_BaseColor.png"}],"materials":[{"doubleSided":true,"name":"Wood_light","pbrMetallicRoughness":{"baseColorFactor":[0.9998,0.9995,1.0,1.0],"baseColorTexture":{"index":0},"metallicFactor":0,"roughnessFactor":0.8500000238418579}},{"doubleSided":true,"name":"Glass","pbrMetallicRoughness":{"baseColorFactor":[0.03310476616024971,0.05087608844041824,0.07828831672668457,1],"metallicFactor":0,"roughnessFactor":0.20000000298023224}},{"doubleSided":true,"name":"RockTrim","pbrMetallicRoughness":{"baseColorFactor":[1.0,0.9979,1.0,1.0],"baseColorTexture":{"index":1},"metallicFactor":0,"roughnessFactor":0.8500000238418579}},{"doubleSided":true,"name":"Brick","pbrMetallicRoughness":{"baseColorFactor":[1.0,0.9974,1.0,1.0],"baseColorTexture":{"index":2},"metallicFactor":0,"roughnessFactor":0.8500000238418579}},{"doubleSided":true,"name":"Plaster_cream","pbrMetallicRoughness":{"baseColorFactor":[0.9583,0.7715,0.4434,1.0],"baseColorTexture":{"index":3},"metallicFactor":0,"roughnessFactor":0.8500000238418579}},{"doubleSided":true,"name":"Tiles_red","pbrMetallicRoughness":{"baseColorFactor":[1.0,0.9965,0.9971,1.0],"baseColorTexture":{"index":4},"metallicFactor":0,"roughnessFactor":0.699999988079071}}],"meshes":[{"name":"lod","primitives":[{"attributes":{"NORMAL":1,"POSITION":0,"TEXCOORD_0":2},"indices":3,"material":0},{"attributes":{"NORMAL":5,"POSITION":4,"TEXCOORD_0":6},"indices":7,"material":1},{"attributes":{"NORMAL":9,"POSITION":8,"TEXCOORD_0":10},"indices":11,"material":2},{"attributes":{"NORMAL":13,"POSITION":12,"TEXCOORD_0":14},"indices":15,"material":3},{"attributes":{"NORMAL":17,"POSITION":16,"TEXCOORD_0":18},"indices":19,"material":4},{"attributes":{"NORMAL":21,"POSITION":20,"TEXCOORD_0":22},"indices":23,"material":5}]}],"nodes":[{"mesh":0,"name":"lod"}],"scene":0,"scenes":[{"name":"Scene","nodes":[0]}],"textures":[{"source":0},{"source":1},{"source":2},{"source":3},{"source":4}]}
