{"accessors":[{"bufferView":0,"componentType":5126,"count":822,"max":[6.272038459777832,16.15789222717285,0.363585501909256],"min":[-6.257894515991211,0,-5.871959209442139],"type":"VEC3"},{"bufferView":1,"componentType":5126,"count":822,"type":"VEC3"},{"bufferView":2,"componentType":5126,"count":822,"type":"VEC2"},{"bufferView":3,"componentType":5123,"count":942,"type":"SCALAR"},{"bufferView":4,"componentType":5126,"count":16,"max":[6.151829242706299,16.05182647705078,0.26358550786972046],"min":[-6.151828289031982,3.7481698989868164,0.26358550786972046],"type":"VEC3"},{"bufferView":5,"componentType":5126,"count":16,"type":"VEC3"},{"bufferView":6,"componentType":5126,"count":16,"type":"VEC2"},{"bufferView":7,"componentType":5123,"count":24,"type":"SCALAR"},{"bufferView":8,"componentType":5126,"count":17,"max":[2.679250717163086,12,-0.27716386318206787],"min":[-2.679250717163086,9.210000038146973,-5.635664939880371],"type":"VEC3"},{"bufferView":9,"componentType":5126,"count":17,"type":"VEC3"},{"bufferView":10,"componentType":5126,"count":17,"type":"VEC2"},{"bufferView":11,"componentType":5123,"count":24,"type":"SCALAR"},{"bufferView":12,"componentType":5126,"count":12,"max":[0.3499999940395355,12.5,0.3060855269432068],"min":[-0.3499999940395355,9.549999237060547,-3.047135353088379],"type":"VEC3"},{"bufferView":13,"componentType":5126,"count":12,"type":"VEC3"},{"bufferView":14,"componentType":5126,"count":12,"type":"VEC2"},{"bufferView":15,"componentType":5123,"count":12,"type":"SCALAR"},{"bufferView":16,"componentType":5126,"count":81,"max":[2.51570987701416,9.294151306152344,-0.06875412166118622],"min":[-2.51570987701416,1.3117259740829468,-5.338674545288086],"type":"VEC3"},{"bufferView":17,"componentType":5126,"count":81,"type":"VEC3"},{"bufferView":18,"componentType":5126,"count":81,"type":"VEC2"},{"bufferView":19,"componentType":5123,"count":114,"type":"SCALAR"},{"bufferView":20,"componentType":5126,"count":32,"max":[3.1873843669891357,0.8999999761581421,0.2309698760509491],"min":[-3.1873843669891357,0,-6.143798828125],"type":"VEC3"},{"bufferView":21,"componentType":5126,"count":32,"type":"VEC3"},{"bufferView":22,"componentType":5126,"count":32,"type":"VEC2"},{"bufferView":23,"componentType":5123,"count":48,"type":"SCALAR"},{"bufferView":24,"componentType":5126,"count":23,"max":[2.9564144611358643,9.010893821716309,-0.5106143355369568],"min":[-2.9564144611358643,-0.015661906450986862,-6.238941669464111],"type":"VEC3"},{"bufferView":25,"componentType":5126,"count":23,"type":"VEC3"},{"bufferView":26,"componentType":5126,"count":23,"type":"VEC2"},{"bufferView":27,"componentType":5123,"count":33,"type":"SCALAR"}],"asset":{"version":"2.0"},"bufferViews":[{"buffer":0,"byteLength":9864,"byteOffset":0,"target":34962},{"buffer":0,"byteLength":9864,"byteOffset":9864,"target":34962},{"buffer":0,"byteLength":6576,"byteOffset":19728,"target":34962},{"buffer":0,"byteLength":1884,"byteOffset":26304,"target":34963},{"buffer":0,"byteLength":192,"byteOffset":28188,"target":34962},{"buffer":0,"byteLength":192,"byteOffset":28380,"target":34962},{"buffer":0,"byteLength":128,"byteOffset":28572,"target":34962},{"buffer":0,"byteLength":48,"byteOffset":28700,"target":34963},{"buffer":0,"byteLength":204,"byteOffset":28748,"target":34962},{"buffer":0,"byteLength":204,"byteOffset":28952,"target":34962},{"buffer":0,"byteLength":136,"byteOffset":29156,"target":34962},{"buffer":0,"byteLength":48,"byteOffset":29292,"target":34963},{"buffer":0,"byteLength":144,"byteOffset":29340,"target":34962},{"buffer":0,"byteLength":144,"byteOffset":29484,"target":34962},{"buffer":0,"byteLength":96,"byteOffset":29628,"target":34962},{"buffer":0,"byteLength":24,"byteOffset":29724,"target":34963},{"buffer":0,"byteLength":972,"byteOffset":29748,"target":34962},{"buffer":0,"byteLength":972,"byteOffset":30720,"target":34962},{"buffer":0,"byteLength":648,"byteOffset":31692,"target":34962},{"buffer":0,"byteLength":228,"byteOffset":32340,"target":34963},{"buffer":0,"byteLength":384,"byteOffset":32568,"target":34962},{"buffer":0,"byteLength":384,"byteOffset":32952,"target":34962},{"buffer":0,"byteLength":256,"byteOffset":33336,"target":34962},{"buffer":0,"byteLength":96,"byteOffset":33592,"target":34963},{"buffer":0,"byteLength":276,"byteOffset":33688,"target":34962},{"buffer":0,"byteLength":276,"byteOffset":33964,"target":34962},{"buffer":0,"byteLength":184,"byteOffset":34240,"target":34962},{"buffer":0,"byteLength":66,"byteOffset":34424,"target":34963}],"buffers":[{"byteLength":34492,"uri":"generated.windmill.bin"}],"images":[{"name":"T_WoodTrim_BaseColor","uri":"../village/T_WoodTrim_BaseColor.png"},{"name":"T_RoundTiles_Luma","uri":"../village/T_RoundTiles_Luma.png"},{"name":"T_UnevenBrick_BaseColor","uri":"../village/T_UnevenBrick_BaseColor.png"},{"name":"T_Plaster_Luma","uri":"../village/T_Plaster_Luma.png"}],"materials":[{"doubleSided":true,"name":"Wood_mid","pbrMetallicRoughness":{"baseColorFactor":[0.5179,0.5489,0.5787,1.0],"baseColorTexture":{"index":0},"metallicFactor":0,"roughnessFactor":0.8500000238418579}},{"doubleSided":true,"name":"Cloth2","pbrMetallicRoughness":{"baseColorFactor":[0.7484140992164612,0.6382831931114197,0.4200332760810852,1],"metallicFactor":0,"roughnessFactor":0.8999999761581421}},{"doubleSided":true,"name":"Tiles_brown","pbrMetallicRoughness":{"baseColorFactor":[0.3822,0.1486,0.0653,1.0],"baseColorTexture":{"index":1},"metallicFactor":0,"roughnessFactor":0.699999988079071}},{"doubleSided":true,"name":"Iron","pbrMetallicRoughness":{"baseColorFactor":[0.0134117491543293,0.0134117491543293,0.015325203537940979,1],"metallicFactor":0,"roughnessFactor":0.5}},{"doubleSided":true,"name":"Glass","pbrMetallicRoughness":{"baseColorFactor":[0.03310476616024971,0.05087608844041824,0.07828831672668457,1],"metallicFactor":0,"roughnessFactor":0.20000000298023224}},{"doubleSided":true,"name":"Stone","pbrMetallicRoughness":{"baseColorFactor":[1.0,0.9974,0.9977,1.0],"baseColorTexture":{"index":2},"metallicFactor":0,"roughnessFactor":0.8500000238418579}},{"doubleSided":true,"name":"Plaster_white","pbrMetallicRoughness":{"baseColorFactor":[1.0,1.0,0.9092,1.0],"baseColorTexture":{"index":3},"metallicFactor":0,"roughnessFactor":0.8500000238418579}}],"meshes":[{"name":"lod","primitives":[{"attributes":{"NORMAL":1,"POSITION":0,"TEXCOORD_0":2},"indices":3,"material":0},{"attributes":{"NORMAL":5,"POSITION":4,"TEXCOORD_0":6},"indices":7,"material":1},{"attributes":{"NORMAL":9,"POSITION":8,"TEXCOORD_0":10},"indices":11,"material":2},{"attributes":{"NORMAL":13,"POSITION":12,"TEXCOORD_0":14},"indices":15,"material":3},{"attributes":{"NORMAL":17,"POSITION":16,"TEXCOORD_0":18},"indices":19,"material":4},{"attributes":{"NORMAL":21,"POSITION":20,"TEXCOORD_0":22},"indices":23,"material":5},{"attributes":{"NORMAL":25,"POSITION":24,"TEXCOORD_0":26},"indices":27,"material":6}]}],"nodes":[{"mesh":0,"name":"lod"}],"scene":0,"scenes":[{"name":"Scene","nodes":[0]}],"textures":[{"source":0},{"source":1},{"source":2},{"source":3}]}
