{"accessors":[{"bufferView":0,"componentType":5126,"count":32,"max":[1.2000000476837158,2.617518186569214,0.8358055353164673],"min":[-1.2000000476837158,0,-0.8349999785423279],"type":"VEC3"},{"bufferView":1,"componentType":5126,"count":32,"type":"VEC3"},{"bufferView":2,"componentType":5126,"count":32,"type":"VEC2"},{"bufferView":3,"componentType":5123,"count":36,"type":"SCALAR"},{"bufferView":4,"componentType":5126,"count":103,"max":[1.204687476158142,1.375,0.5266226530075073],"min":[-1.204687476158142,0.02000001072883606,-0.7530648112297058],"type":"VEC3"},{"bufferView":5,"componentType":5126,"count":103,"type":"VEC3"},{"bufferView":6,"componentType":5126,"count":103,"type":"VEC2"},{"bufferView":7,"componentType":5123,"count":147,"type":"SCALAR"},{"bufferView":8,"componentType":5126,"count":16,"max":[0.3499999940395355,0.9700000286102295,0.5319352149963379],"min":[-0.3499999940395355,0.6699999570846558,-0.18806485831737518],"type":"VEC3"},{"bufferView":9,"componentType":5126,"count":16,"type":"VEC3"},{"bufferView":10,"componentType":5126,"count":16,"type":"VEC2"},{"bufferView":11,"componentType":5123,"count":24,"type":"SCALAR"},{"bufferView":12,"componentType":5126,"count":28,"max":[-0.5203734040260315,1.5187718868255615,-0.3914892077445984],"min":[-0.8833937644958496,1.0867811441421509,-0.7648994326591492],"type":"VEC3"},{"bufferView":13,"componentType":5126,"count":28,"type":"VEC3"},{"bufferView":14,"componentType":5126,"count":28,"type":"VEC2"},{"bufferView":15,"componentType":5123,"count":42,"type":"SCALAR"},{"bufferView":16,"componentType":5126,"count":214,"max":[0.9814791679382324,2.654069423675537,0.8419351577758789],"min":[-1.3000000715255737,1.671395182609558,-0.8332661986351013],"type":"VEC3"},{"bufferView":17,"componentType":5126,"count":214,"type":"VEC3"},{"bufferView":18,"componentType":5126,"count":214,"type":"VEC2"},{"bufferView":19,"componentType":5123,"count":324,"type":"SCALAR"},{"bufferView":20,"componentType":5126,"count":166,"max":[1.3073632717132568,2.654069423675537,0.8419351577758789],"min":[-0.9823631644248962,1.671395182609558,-0.8332661986351013],"type":"VEC3"},{"bufferView":21,"componentType":5126,"count":166,"type":"VEC3"},{"bufferView":22,"componentType":5126,"count":166,"type":"VEC2"},{"bufferView":23,"componentType":5123,"count":246,"type":"SCALAR"}],"asset":{"version":"2.0"},"bufferViews":[{"buffer":0,"byteLength":384,"byteOffset":0,"target":34962},{"buffer":0,"byteLength":384,"byteOffset":384,"target":34962},{"buffer":0,"byteLength":256,"byteOffset":768,"target":34962},{"buffer":0,"byteLength":72,"byteOffset":1024,"target":34963},{"buffer":0,"byteLength":1236,"byteOffset":1096,"target":34962},{"buffer":0,"byteLength":1236,"byteOffset":2332,"target":34962},{"buffer":0,"byteLength":824,"byteOffset":3568,"target":34962},{"buffer":0,"byteLength":294,"byteOffset":4392,"target":34963},{"buffer":0,"byteLength":192,"byteOffset":4688,"target":34962},{"buffer":0,"byteLength":192,"byteOffset":4880,"target":34962},{"buffer":0,"byteLength":128,"byteOffset":5072,"target":34962},{"buffer":0,"byteLength":48,"byteOffset":5200,"target":34963},{"buffer":0,"byteLength":336,"byteOffset":5248,"target":34962},{"buffer":0,"byteLength":336,"byteOffset":5584,"target":34962},{"buffer":0,"byteLength":224,"byteOffset":5920,"target":34962},{"buffer":0,"byteLength":84,"byteOffset":6144,"target":34963},{"buffer":0,"byteLength":2568,"byteOffset":6228,"target":34962},{"buffer":0,"byteLength":2568,"byteOffset":8796,"target":34962},{"buffer":0,"byteLength":1712,"byteOffset":11364,"target":34962},{"buffer":0,"byteLength":648,"byteOffset":13076,"target":34963},{"buffer":0,"byteLength":1992,"byteOffset":13724,"target":34962},{"buffer":0,"byteLength":1992,"byteOffset":15716,"target":34962},{"buffer":0,"byteLength":1328,"byteOffset":17708,"target":34962},{"buffer":0,"byteLength":492,"byteOffset":19036,"target":34963}],"buffers":[{"byteLength":19528,"uri":"generated.market_stall_blue.bin"}],"materials":[{"doubleSided":true,"name":"Stall_WoodDark","pbrMetallicRoughness":{"baseColorFactor":[0.3199999928474426,0.1899999976158142,0.09000000357627869,1],"metallicFactor":0,"roughnessFactor":0.8500000238418579}},{"doubleSided":true,"name":"Stall_Wood","pbrMetallicRoughness":{"baseColorFactor":[0.5,0.3100000023841858,0.15000000596046448,1],"metallicFactor":0,"roughnessFactor":0.8500000238418579}},{"doubleSided":true,"name":"Stall_Cloth","pbrMetallicRoughness":{"baseColorFactor":[0.1599999964237213,0.30000001192092896,0.6000000238418579,1],"metallicFactor":0,"roughnessFactor":0.949999988079071}},{"doubleSided":true,"name":"Stall_Sack","pbrMetallicRoughness":{"baseColorFactor":[0.7400000095367432,0.6200000047683716,0.41999998688697815,1],"metallicFactor":0}},{"doubleSided":true,"name":"Stall_StripeA","pbrMetallicRoughness":{"baseColorFactor":[0.1599999964237213,0.30000001192092896,0.6000000238418579,1],"metallicFactor":0,"roughnessFactor":0.8999999761581421}},{"doubleSided":true,"name":"Stall_StripeB","pbrMetallicRoughness":{"baseColorFactor":[0.9300000071525574,0.8700000047683716,0.7200000286102295,1],"metallicFactor":0,"roughnessFactor":0.8999999761581421}}],"meshes":[{"name":"market_stall_blue","primitives":[{"attributes":{"NORMAL":1,"POSITION":0,"TEXCOORD_0":2},"indices":3,"material":0},{"attributes":{"NORMAL":5,"POSITION":4,"TEXCOORD_0":6},"indices":7,"material":1},{"attributes":{"NORMAL":9,"POSITION":8,"TEXCOORD_0":10},"indices":11,"material":2},{"attributes":{"NORMAL":13,"POSITION":12,"TEXCOORD_0":14},"indices":15,"material":3},{"attributes":{"NORMAL":17,"POSITION":16,"TEXCOORD_0":18},"indices":19,"material":4},{"attributes":{"NORMAL":21,"POSITION":20,"TEXCOORD_0":22},"indices":23,"material":5}]}],"nodes":[{"mesh":0,"name":"market_stall_blue"}],"scene":0,"scenes":[{"name":"Scene","nodes":[0]}]}
