{"accessors":[{"bufferView":0,"componentType":5126,"count":1609,"type":"VEC3"},{"bufferView":1,"componentType":5126,"count":1609,"max":[3.0999999046325684,7.709000110626221,0.5999999046325684],"min":[-3.183941125869751,0.3474849462509155,-8.600000381469727],"type":"VEC3"},{"bufferView":2,"componentType":5126,"count":1609,"type":"VEC2"},{"bufferView":3,"componentType":5123,"count":2316,"type":"SCALAR"},{"bufferView":4,"componentType":5126,"count":112,"type":"VEC3"},{"bufferView":5,"componentType":5126,"count":112,"max":[-2.8395559787750244,1.8529866933822632,-2.589465856552124],"min":[-3.073420763015747,1.407646894454956,-2.8672921657562256],"type":"VEC3"},{"bufferView":6,"componentType":5126,"count":112,"type":"VEC2"},{"bufferView":7,"componentType":5123,"count":120,"type":"SCALAR"},{"bufferView":8,"componentType":5126,"count":3,"type":"VEC3"},{"bufferView":9,"componentType":5126,"count":3,"max":[3.200000286102295,0.17499999701976776,0.20000001788139343],"min":[-3.200000286102295,0.17499999701976776,-8.199999809265137],"type":"VEC3"},{"bufferView":10,"componentType":5126,"count":3,"type":"VEC2"},{"bufferView":11,"componentType":5123,"count":3,"type":"SCALAR"},{"bufferView":12,"componentType":5126,"count":9,"type":"VEC3"},{"bufferView":13,"componentType":5126,"count":9,"max":[3,7.593999862670898,0.08999999612569809],"min":[-3,4.24399995803833,-8],"type":"VEC3"},{"bufferView":14,"componentType":5123,"count":9,"type":"SCALAR"},{"bufferView":15,"componentType":5126,"count":9,"type":"VEC3"},{"bufferView":16,"componentType":5126,"count":9,"max":[-3,2.9675002098083496,-3.8600001335144043],"min":[-3.4900002479553223,2.4250001907348633,-4.140000343322754],"type":"VEC3"},{"bufferView":17,"componentType":5123,"count":9,"type":"SCALAR"},{"bufferView":18,"componentType":5126,"count":3,"type":"VEC3"},{"bufferView":19,"componentType":5126,"count":3,"max":[-3.25,2.7900004386901855,-3.950000286102295],"min":[-3.450000286102295,2.4700000286102295,-4.050000190734863],"type":"VEC3"},{"bufferView":20,"componentType":5126,"count":32,"type":"VEC3"},{"bufferView":21,"componentType":5126,"count":32,"max":[3.4750163555145264,7.644000053405762,0.5500001907348633],"min":[-3.4750161170959473,3.5545051097869873,-8.550000190734863],"type":"VEC3"},{"bufferView":22,"componentType":5126,"count":32,"type":"VEC2"},{"bufferView":23,"componentType":5123,"count":36,"type":"SCALAR"},{"bufferView":24,"componentType":5126,"count":126,"type":"VEC3"},{"bufferView":25,"componentType":5126,"count":126,"max":[3.000000238418579,3.950000047683716,1.1920928955078125e-07],"min":[-3.000000238418579,0.3499998450279236,-8],"type":"VEC3"},{"bufferView":26,"componentType":5126,"count":126,"type":"VEC2"},{"bufferView":27,"componentType":5123,"count":186,"type":"SCALAR"},{"bufferView":28,"componentType":5126,"count":8,"type":"VEC3"},{"bufferView":29,"componentType":5126,"count":8,"max":[-2.999999761581421,1.406000018119812,-1.9999998807907104],"min":[-3.000000238418579,0.3499999940395355,-4],"type":"VEC3"},{"bufferView":30,"componentType":5126,"count":8,"type":"VEC2"},{"bufferView":31,"componentType":5123,"count":12,"type":"SCALAR"}],"asset":{"version":"2.0"},"bufferViews":[{"buffer":0,"byteOffset":0,"byteLength":19308,"target":34962},{"buffer":0,"byteOffset":19308,"byteLength":19308,"target":34962},{"buffer":0,"byteOffset":38616,"byteLength":12872,"target":34962},{"buffer":0,"byteOffset":51488,"byteLength":4632,"target":34963},{"buffer":0,"byteOffset":56120,"byteLength":1344,"target":34962},{"buffer":0,"byteOffset":57464,"byteLength":1344,"target":34962},{"buffer":0,"byteOffset":58808,"byteLength":896,"target":34962},{"buffer":0,"byteOffset":59704,"byteLength":240,"target":34963},{"buffer":0,"byteOffset":59944,"byteLength":36,"target":34962},{"buffer":0,"byteOffset":59980,"byteLength":36,"target":34962},{"buffer":0,"byteOffset":60016,"byteLength":24,"target":34962},{"buffer":0,"byteOffset":60040,"byteLength":6,"target":34963},{"buffer":0,"byteOffset":60048,"byteLength":108,"target":34962},{"buffer":0,"byteOffset":60156,"byteLength":108,"target":34962},{"buffer":0,"byteOffset":60264,"byteLength":18,"target":34963},{"buffer":0,"byteOffset":60284,"byteLength":108,"target":34962},{"buffer":0,"byteOffset":60392,"byteLength":108,"target":34962},{"buffer":0,"byteOffset":60500,"byteLength":18,"target":34963},{"buffer":0,"byteOffset":60520,"byteLength":36,"target":34962},{"buffer":0,"byteOffset":60556,"byteLength":36,"target":34962},{"buffer":0,"byteOffset":60592,"byteLength":384,"target":34962},{"buffer":0,"byteOffset":60976,"byteLength":384,"target":34962},{"buffer":0,"byteOffset":61360,"byteLength":256,"target":34962},{"buffer":0,"byteOffset":61616,"byteLength":72,"target":34963},{"buffer":0,"byteOffset":61688,"byteLength":1512,"target":34962},{"buffer":0,"byteOffset":63200,"byteLength":1512,"target":34962},{"buffer":0,"byteOffset":64712,"byteLength":1008,"target":34962},{"buffer":0,"byteOffset":65720,"byteLength":372,"target":34963},{"buffer":0,"byteOffset":66092,"byteLength":96,"target":34962},{"buffer":0,"byteOffset":66188,"byteLength":96,"target":34962},{"buffer":0,"byteOffset":66284,"byteLength":64,"target":34962},{"buffer":0,"byteOffset":66348,"byteLength":24,"target":34963}],"buffers":[{"byteLength":66372,"uri":"generated.boathouse.bin"}],"images":[{"name":"T_WoodTrim_BaseColor","uri":"../village/T_WoodTrim_BaseColor.png"},{"name":"T_MetalOrnaments_BaseColor","uri":"../village/T_MetalOrnaments_BaseColor.png"},{"name":"T_UnevenBrick_BaseColor","uri":"../village/T_UnevenBrick_BaseColor.png"},{"name":"T_RoundTiles_Luma","uri":"../village/T_RoundTiles_Luma.png"},{"name":"T_Plaster_Luma","uri":"../village/T_Plaster_Luma.png"},{"name":"T_RockTrim_BaseColor","uri":"../village/T_RockTrim_BaseColor.png"}],"materials":[{"doubleSided":true,"name":"Wood_dark","pbrMetallicRoughness":{"baseColorFactor":[0.2329,0.2659,0.2944,1.0],"baseColorTexture":{"index":0},"metallicFactor":0,"roughnessFactor":0.8500000238418579}},{"doubleSided":true,"name":"Metal","pbrMetallicRoughness":{"baseColorFactor":[1.0,0.9972,0.9945,1.0],"baseColorTexture":{"index":1},"metallicFactor":0,"roughnessFactor":0.5}},{"doubleSided":true,"name":"Stone","pbrMetallicRoughness":{"baseColorFactor":[1.0,0.9974,0.9977,1.0],"baseColorTexture":{"index":2},"metallicFactor":0,"roughnessFactor":0.8500000238418579}},{"doubleSided":true,"name":"Boards","pbrMetallicRoughness":{"baseColorFactor":[0.09462962299585342,0.03968190774321556,0.015325203537940979,1],"metallicFactor":0,"roughnessFactor":0.8999999761581421}},{"doubleSided":true,"name":"Iron","pbrMetallicRoughness":{"baseColorFactor":[0.0134117491543293,0.0134117491543293,0.015325203537940979,1],"metallicFactor":0,"roughnessFactor":0.5}},{"doubleSided":true,"emissiveFactor":[1,0.4479884207248688,0.10048151016235352],"name":"LampGlass","pbrMetallicRoughness":{"baseColorFactor":[1,0.5704815983772278,0.1473190039396286,1],"metallicFactor":0,"roughnessFactor":0.8500000238418579}},{"doubleSided":true,"name":"Tiles_brown","pbrMetallicRoughness":{"baseColorFactor":[0.3822,0.1486,0.0653,1.0],"baseColorTexture":{"index":3},"metallicFactor":0,"roughnessFactor":0.699999988079071}},{"doubleSided":true,"name":"Plaster_white","pbrMetallicRoughness":{"baseColorFactor":[1.0,1.0,0.9092,1.0],"baseColorTexture":{"index":4},"metallicFactor":0,"roughnessFactor":0.8500000238418579}},{"doubleSided":true,"name":"RockTrim","pbrMetallicRoughness":{"baseColorFactor":[1.0,0.9979,1.0,1.0],"baseColorTexture":{"index":5},"metallicFactor":0,"roughnessFactor":0.8500000238418579}}],"meshes":[{"name":"lod","primitives":[{"attributes":{"NORMAL":0,"POSITION":1,"TEXCOORD_0":2},"indices":3,"material":0},{"attributes":{"NORMAL":4,"POSITION":5,"TEXCOORD_0":6},"indices":7,"material":1},{"attributes":{"NORMAL":8,"POSITION":9,"TEXCOORD_0":10},"indices":11,"material":2},{"attributes":{"NORMAL":12,"POSITION":13},"indices":14,"material":3},{"attributes":{"NORMAL":15,"POSITION":16},"indices":17,"material":4},{"attributes":{"NORMAL":18,"POSITION":19},"indices":11,"material":5},{"attributes":{"NORMAL":20,"POSITION":21,"TEXCOORD_0":22},"indices":23,"material":6},{"attributes":{"NORMAL":24,"POSITION":25,"TEXCOORD_0":26},"indices":27,"material":7},{"attributes":{"NORMAL":28,"POSITION":29,"TEXCOORD_0":30},"indices":31,"material":8}]}],"nodes":[{"mesh":0,"name":"lod"}],"scene":0,"scenes":[{"name":"Scene","nodes":[0]}],"textures":[{"source":0},{"source":1},{"source":2},{"source":3},{"source":4},{"source":5}]}