{"accessors":[{"bufferView":0,"componentType":5126,"count":24,"type":"VEC3"},{"bufferView":1,"componentType":5126,"count":24,"max":[4.079999923706055,0.5,0.07999999821186066],"min":[-4.079999923706055,0,-8.079999923706055],"type":"VEC3"},{"bufferView":2,"componentType":5126,"count":24,"type":"VEC2"},{"bufferView":3,"componentType":5123,"count":36,"type":"SCALAR"},{"bufferView":4,"componentType":5126,"count":264,"type":"VEC3"},{"bufferView":5,"componentType":5126,"count":264,"max":[4,9.470000267028809,0.800000011920929],"min":[-4,0,-8],"type":"VEC3"},{"bufferView":6,"componentType":5126,"count":264,"type":"VEC2"},{"bufferView":7,"componentType":5123,"count":384,"type":"SCALAR"},{"bufferView":8,"componentType":5126,"count":1096,"type":"VEC3"},{"bufferView":9,"componentType":5126,"count":1096,"max":[4.110000133514404,5.900000095367432,1.5700000524520874],"min":[-4.110000133514404,0,-8.25],"type":"VEC3"},{"bufferView":10,"componentType":5126,"count":1096,"type":"VEC2"},{"bufferView":11,"componentType":5123,"count":1644,"type":"SCALAR"},{"bufferView":12,"componentType":5126,"count":288,"type":"VEC3"},{"bufferView":13,"componentType":5126,"count":288,"max":[4.550000190734863,9.640000343322754,1],"min":[-4.550000190734863,2.2939836978912354,-8.5],"type":"VEC3"},{"bufferView":14,"componentType":5126,"count":288,"type":"VEC2"},{"bufferView":15,"componentType":5123,"count":432,"type":"SCALAR"},{"bufferView":16,"componentType":5126,"count":360,"type":"VEC3"},{"bufferView":17,"componentType":5126,"count":360,"max":[4.039999961853027,7.919473648071289,0.5400000214576721],"min":[-4.039999961853027,0.8600000143051147,-8.039999961853027],"type":"VEC3"},{"bufferView":18,"componentType":5123,"count":540,"type":"SCALAR"},{"bufferView":19,"componentType":5126,"count":48,"type":"VEC3"},{"bufferView":20,"componentType":5126,"count":48,"max":[3.130000114440918,10.0600004196167,-5.869999885559082],"min":[2.2699999809265137,5.900000095367432,-6.730000019073486],"type":"VEC3"},{"bufferView":21,"componentType":5126,"count":48,"type":"VEC2"},{"bufferView":22,"componentType":5123,"count":72,"type":"SCALAR"},{"bufferView":23,"componentType":5126,"count":24,"type":"VEC3"},{"bufferView":24,"componentType":5126,"count":24,"max":[2.880000114440918,10.319999694824219,-6.119999885559082],"min":[2.5199999809265137,10.0600004196167,-6.480000019073486],"type":"VEC3"}],"asset":{"generator":"Khronos glTF Blender I/O v5.2.40","version":"2.0"},"bufferViews":[{"buffer":0,"byteOffset":0,"byteLength":288,"target":34962},{"buffer":0,"byteOffset":288,"byteLength":288,"target":34962},{"buffer":0,"byteOffset":576,"byteLength":192,"target":34962},{"buffer":0,"byteOffset":768,"byteLength":72,"target":34963},{"buffer":0,"byteOffset":840,"byteLength":3168,"target":34962},{"buffer":0,"byteOffset":4008,"byteLength":3168,"target":34962},{"buffer":0,"byteOffset":7176,"byteLength":2112,"target":34962},{"buffer":0,"byteOffset":9288,"byteLength":768,"target":34963},{"buffer":0,"byteOffset":10056,"byteLength":13152,"target":34962},{"buffer":0,"byteOffset":23208,"byteLength":13152,"target":34962},{"buffer":0,"byteOffset":36360,"byteLength":8768,"target":34962},{"buffer":0,"byteOffset":45128,"byteLength":3288,"target":34963},{"buffer":0,"byteOffset":48416,"byteLength":3456,"target":34962},{"buffer":0,"byteOffset":51872,"byteLength":3456,"target":34962},{"buffer":0,"byteOffset":55328,"byteLength":2304,"target":34962},{"buffer":0,"byteOffset":57632,"byteLength":864,"target":34963},{"buffer":0,"byteOffset":58496,"byteLength":4320,"target":34962},{"buffer":0,"byteOffset":62816,"byteLength":4320,"target":34962},{"buffer":0,"byteOffset":67136,"byteLength":1080,"target":34963},{"buffer":0,"byteOffset":68216,"byteLength":576,"target":34962},{"buffer":0,"byteOffset":68792,"byteLength":576,"target":34962},{"buffer":0,"byteOffset":69368,"byteLength":384,"target":34962},{"buffer":0,"byteOffset":69752,"byteLength":144,"target":34963},{"buffer":0,"byteOffset":69896,"byteLength":288,"target":34962},{"buffer":0,"byteOffset":70184,"byteLength":288,"target":34962}],"buffers":[{"byteLength":70472,"uri":"generated.dormer_house.bin"}],"images":[{"name":"T_Plaster_Luma","uri":"../village/T_Plaster_Luma.png"},{"name":"T_RockTrim_BaseColor","uri":"../village/T_RockTrim_BaseColor.png"},{"name":"T_RoundTiles_Luma","uri":"../village/T_RoundTiles_Luma.png"},{"name":"T_UnevenBrick_BaseColor","uri":"../village/T_UnevenBrick_BaseColor.png"},{"name":"T_WoodTrim_BaseColor","uri":"../village/T_WoodTrim_BaseColor.png"}],"materials":[{"doubleSided":true,"name":"RockTrim","pbrMetallicRoughness":{"baseColorFactor":[1.0,0.9979,1.0,1.0],"baseColorTexture":{"index":1},"metallicFactor":0,"roughnessFactor":0.8500000238418579}},{"doubleSided":true,"name":"HousePlaster","pbrMetallicRoughness":{"baseColorFactor":[0.863,0.4728,0.1434,1.0],"baseColorTexture":{"index":0},"metallicFactor":0,"roughnessFactor":0.8500000238418579}},{"doubleSided":true,"name":"Wood_mid","pbrMetallicRoughness":{"baseColorFactor":[0.5179,0.5489,0.5787,1.0],"baseColorTexture":{"index":4},"metallicFactor":0,"roughnessFactor":0.8500000238418579}},{"doubleSided":true,"name":"HouseTiles","pbrMetallicRoughness":{"baseColorFactor":[0.3822,0.1486,0.0653,1.0],"baseColorTexture":{"index":2},"metallicFactor":0,"roughnessFactor":0.699999988079071}},{"doubleSided":true,"name":"Glass","pbrMetallicRoughness":{"baseColorFactor":[0.03310476616024971,0.05087608844041824,0.07828831672668457,1],"metallicFactor":0,"roughnessFactor":0.20000000298023224}},{"doubleSided":true,"name":"Stone","pbrMetallicRoughness":{"baseColorFactor":[1.0,0.9974,0.9977,1.0],"baseColorTexture":{"index":3},"metallicFactor":0,"roughnessFactor":0.8500000238418579}},{"doubleSided":true,"name":"Iron","pbrMetallicRoughness":{"baseColorFactor":[0.0134117491543293,0.0134117491543293,0.015325203537940979,1],"metallicFactor":0,"roughnessFactor":0.5}}],"meshes":[{"name":"Plinth","primitives":[{"attributes":{"NORMAL":0,"POSITION":1,"TEXCOORD_0":2},"indices":3,"material":0},{"attributes":{"NORMAL":4,"POSITION":5,"TEXCOORD_0":6},"indices":7,"material":1},{"attributes":{"NORMAL":8,"POSITION":9,"TEXCOORD_0":10},"indices":11,"material":2},{"attributes":{"NORMAL":12,"POSITION":13,"TEXCOORD_0":14},"indices":15,"material":3},{"attributes":{"NORMAL":16,"POSITION":17},"indices":18,"material":4},{"attributes":{"NORMAL":19,"POSITION":20,"TEXCOORD_0":21},"indices":22,"material":5},{"attributes":{"NORMAL":23,"POSITION":24},"indices":3,"material":6}]}],"nodes":[{"mesh":0,"name":"dormer_house"}],"scene":0,"scenes":[{"name":"Scene","nodes":[0]}],"textures":[{"source":0},{"source":1},{"source":2},{"source":3},{"source":4}]}