{"accessors":[{"bufferView":0,"componentType":5126,"count":7363,"type":"VEC3"},{"bufferView":1,"componentType":5126,"count":7363,"max":[4.85616397857666,11.720560073852539,1.6960959434509277],"min":[-4.85616397857666,-0.008544921875,-9.015419960021973],"type":"VEC3"},{"bufferView":2,"componentType":5126,"count":7363,"type":"VEC2"},{"bufferView":3,"componentType":5123,"count":10608,"type":"SCALAR"},{"bufferView":4,"componentType":5126,"count":656,"type":"VEC3"},{"bufferView":5,"componentType":5126,"count":656,"max":[4.003888130187988,7.511299133300781,1.545021653175354],"min":[-4.003888130187988,1.0971393585205078,-8.003888130187988],"type":"VEC3"},{"bufferView":6,"componentType":5123,"count":885,"type":"SCALAR"},{"bufferView":7,"componentType":5126,"count":26,"type":"VEC3"},{"bufferView":8,"componentType":5126,"count":26,"max":[3.0830180644989014,9.964153289794922,4.3711395392165286e-08],"min":[0,0,-6.854452133178711],"type":"VEC3"},{"bufferView":9,"componentType":5126,"count":26,"type":"VEC2"},{"bufferView":10,"componentType":5123,"count":30,"type":"SCALAR"},{"bufferView":11,"componentType":5126,"count":75,"type":"VEC3"},{"bufferView":12,"componentType":5126,"count":75,"max":[4,9.794145584106445,1.1920928955078125e-07],"min":[-4,0,-8],"type":"VEC3"},{"bufferView":13,"componentType":5126,"count":75,"type":"VEC2"},{"bufferView":14,"componentType":5123,"count":96,"type":"SCALAR"},{"bufferView":15,"componentType":5126,"count":642,"type":"VEC3"},{"bufferView":16,"componentType":5126,"count":642,"max":[4.000000476837158,11.434065818786621,1.5412356853485107],"min":[-4.000000476837158,0,-8.172944068908691],"type":"VEC3"},{"bufferView":17,"componentType":5126,"count":642,"type":"VEC2"},{"bufferView":18,"componentType":5123,"count":1485,"type":"SCALAR"},{"bufferView":19,"componentType":5126,"count":1159,"type":"VEC3"},{"bufferView":20,"componentType":5126,"count":1159,"max":[5.084741115570068,12.121366500854492,1.8001207113265991],"min":[-5.2474470138549805,5.5482072830200195,-9.036998748779297],"type":"VEC3"},{"bufferView":21,"componentType":5126,"count":1159,"type":"VEC2"},{"bufferView":22,"componentType":5123,"count":1497,"type":"SCALAR"}],"asset":{"version":"2.0"},"bufferViews":[{"buffer":0,"byteOffset":0,"byteLength":88356,"target":34962},{"buffer":0,"byteOffset":88356,"byteLength":88356,"target":34962},{"buffer":0,"byteOffset":176712,"byteLength":58904,"target":34962},{"buffer":0,"byteOffset":235616,"byteLength":21216,"target":34963},{"buffer":0,"byteOffset":256832,"byteLength":7872,"target":34962},{"buffer":0,"byteOffset":264704,"byteLength":7872,"target":34962},{"buffer":0,"byteOffset":272576,"byteLength":1770,"target":34963},{"buffer":0,"byteOffset":274348,"byteLength":312,"target":34962},{"buffer":0,"byteOffset":274660,"byteLength":312,"target":34962},{"buffer":0,"byteOffset":274972,"byteLength":208,"target":34962},{"buffer":0,"byteOffset":275180,"byteLength":60,"target":34963},{"buffer":0,"byteOffset":275240,"byteLength":900,"target":34962},{"buffer":0,"byteOffset":276140,"byteLength":900,"target":34962},{"buffer":0,"byteOffset":277040,"byteLength":600,"target":34962},{"buffer":0,"byteOffset":277640,"byteLength":192,"target":34963},{"buffer":0,"byteOffset":277832,"byteLength":7704,"target":34962},{"buffer":0,"byteOffset":285536,"byteLength":7704,"target":34962},{"buffer":0,"byteOffset":293240,"byteLength":5136,"target":34962},{"buffer":0,"byteOffset":298376,"byteLength":2970,"target":34963},{"buffer":0,"byteOffset":301348,"byteLength":13908,"target":34962},{"buffer":0,"byteOffset":315256,"byteLength":13908,"target":34962},{"buffer":0,"byteOffset":329164,"byteLength":9272,"target":34962},{"buffer":0,"byteOffset":338436,"byteLength":2994,"target":34963}],"buffers":[{"byteLength":341432,"uri":"generated.townhouse_balcony.bin"}],"images":[{"name":"T_WoodTrim_BaseColor","uri":"../village/T_WoodTrim_BaseColor.png"},{"name":"T_RockTrim_BaseColor","uri":"../village/T_RockTrim_BaseColor.png"},{"name":"T_Brick_BaseColor","uri":"../village/T_Brick_BaseColor.png"},{"name":"T_Plaster_Luma","uri":"../village/T_Plaster_Luma.png"},{"name":"T_RoundTiles_Luma","uri":"../village/T_RoundTiles_Luma.png"}],"materials":[{"doubleSided":true,"name":"Wood_mid","pbrMetallicRoughness":{"baseColorFactor":[0.5179,0.5489,0.5787,1.0],"baseColorTexture":{"index":0},"metallicFactor":0,"roughnessFactor":0.8500000238418579}},{"doubleSided":true,"name":"Glass","pbrMetallicRoughness":{"baseColorFactor":[0.03310476616024971,0.05087608844041824,0.07828831672668457,1],"metallicFactor":0,"roughnessFactor":0.20000000298023224}},{"doubleSided":true,"name":"RockTrim","pbrMetallicRoughness":{"baseColorFactor":[1.0,0.9979,1.0,1.0],"baseColorTexture":{"index":1},"metallicFactor":0,"roughnessFactor":0.8500000238418579}},{"doubleSided":true,"name":"Brick","pbrMetallicRoughness":{"baseColorFactor":[1.0,0.9974,1.0,1.0],"baseColorTexture":{"index":2},"metallicFactor":0,"roughnessFactor":0.8500000238418579}},{"doubleSided":true,"name":"Plaster_ochre","pbrMetallicRoughness":{"baseColorFactor":[0.863,0.4728,0.1434,1.0],"baseColorTexture":{"index":3},"metallicFactor":0,"roughnessFactor":0.8500000238418579}},{"doubleSided":true,"name":"Tiles_brown","pbrMetallicRoughness":{"baseColorFactor":[0.3822,0.1486,0.0653,1.0],"baseColorTexture":{"index":4},"metallicFactor":0,"roughnessFactor":0.699999988079071}}],"meshes":[{"name":"lod","primitives":[{"attributes":{"NORMAL":0,"POSITION":1,"TEXCOORD_0":2},"indices":3,"material":0},{"attributes":{"NORMAL":4,"POSITION":5},"indices":6,"material":1},{"attributes":{"NORMAL":7,"POSITION":8,"TEXCOORD_0":9},"indices":10,"material":2},{"attributes":{"NORMAL":11,"POSITION":12,"TEXCOORD_0":13},"indices":14,"material":3},{"attributes":{"NORMAL":15,"POSITION":16,"TEXCOORD_0":17},"indices":18,"material":4},{"attributes":{"NORMAL":19,"POSITION":20,"TEXCOORD_0":21},"indices":22,"material":5}]}],"nodes":[{"mesh":0,"name":"lod"}],"scene":0,"scenes":[{"name":"Scene","nodes":[0]}],"textures":[{"source":0},{"source":1},{"source":2},{"source":3},{"source":4}]}