{"accessors":[{"bufferView":0,"componentType":5126,"count":5457,"type":"VEC3"},{"bufferView":1,"componentType":5126,"count":5457,"max":[7.435076713562012,11.646835327148438,3.5441396236419678],"min":[-7.435076713562012,-0.011393229477107525,-11.203117370605469],"type":"VEC3"},{"bufferView":2,"componentType":5126,"count":5457,"type":"VEC2"},{"bufferView":3,"componentType":5123,"count":8733,"type":"SCALAR"},{"bufferView":4,"componentType":5126,"count":24,"type":"VEC3"},{"bufferView":5,"componentType":5126,"count":24,"max":[0.36000001430511475,11.196834564208984,-1.2400000095367432],"min":[-0.36000001430511475,10.510834693908691,-1.9600000381469727],"type":"VEC3"},{"bufferView":6,"componentType":5126,"count":24,"type":"VEC2"},{"bufferView":7,"componentType":5123,"count":24,"type":"SCALAR"},{"bufferView":8,"componentType":5126,"count":884,"type":"VEC3"},{"bufferView":9,"componentType":5126,"count":884,"max":[7.463995933532715,12.646835327148438,3.3661751747131348],"min":[-7.463995933532715,3.621224880218506,-11.195425033569336],"type":"VEC3"},{"bufferView":10,"componentType":5126,"count":884,"type":"VEC2"},{"bufferView":11,"componentType":5123,"count":1176,"type":"SCALAR"},{"bufferView":12,"componentType":5126,"count":118,"type":"VEC3"},{"bufferView":13,"componentType":5126,"count":118,"max":[3.3400001525878906,13.146835327148438,0.5800000429153442],"min":[-3.3400001525878906,2.359999895095825,-1.643301248550415],"type":"VEC3"},{"bufferView":14,"componentType":5123,"count":126,"type":"SCALAR"},{"bufferView":15,"componentType":5126,"count":201,"type":"VEC3"},{"bufferView":16,"componentType":5126,"count":201,"max":[6.0038886070251465,3.4923388957977295,0.011245884001255035],"min":[-6.0038886070251465,1.419682502746582,-10.003888130187988],"type":"VEC3"},{"bufferView":17,"componentType":5123,"count":603,"type":"SCALAR"},{"bufferView":18,"componentType":5126,"count":24,"type":"VEC3"},{"bufferView":19,"componentType":5126,"count":24,"max":[3.299999952316284,2.740000009536743,0.5399999618530273],"min":[-3.299999952316284,2.419999837875366,0.3400000035762787],"type":"VEC3"},{"bufferView":20,"componentType":5123,"count":36,"type":"SCALAR"},{"bufferView":21,"componentType":5126,"count":16,"type":"VEC3"},{"bufferView":22,"componentType":5126,"count":16,"max":[2.5999999046325684,0.20000000298023224,2.5999999046325684],"min":[-2.5999999046325684,0,0],"type":"VEC3"},{"bufferView":23,"componentType":5126,"count":16,"type":"VEC2"},{"bufferView":24,"componentType":5123,"count":24,"type":"SCALAR"},{"bufferView":25,"componentType":5126,"count":254,"type":"VEC3"},{"bufferView":26,"componentType":5126,"count":254,"max":[6.000000476837158,7.466333866119385,1.3113415775478643e-07],"min":[-6.000000476837158,0,-10],"type":"VEC3"},{"bufferView":27,"componentType":5126,"count":254,"type":"VEC2"},{"bufferView":28,"componentType":5123,"count":627,"type":"SCALAR"},{"bufferView":29,"componentType":5126,"count":17,"type":"VEC3"},{"bufferView":30,"componentType":5126,"count":17,"max":[6.244155406951904,9.474065780639648,2.75],"min":[-6.244155406951904,0,-10.30000114440918],"type":"VEC3"},{"bufferView":31,"componentType":5126,"count":17,"type":"VEC2"},{"bufferView":32,"componentType":5123,"count":27,"type":"SCALAR"}],"asset":{"version":"2.0"},"bufferViews":[{"buffer":0,"byteOffset":0,"byteLength":65484,"target":34962},{"buffer":0,"byteOffset":65484,"byteLength":65484,"target":34962},{"buffer":0,"byteOffset":130968,"byteLength":43656,"target":34962},{"buffer":0,"byteOffset":174624,"byteLength":17466,"target":34963},{"buffer":0,"byteOffset":192092,"byteLength":288,"target":34962},{"buffer":0,"byteOffset":192380,"byteLength":288,"target":34962},{"buffer":0,"byteOffset":192668,"byteLength":192,"target":34962},{"buffer":0,"byteOffset":192860,"byteLength":48,"target":34963},{"buffer":0,"byteOffset":192908,"byteLength":10608,"target":34962},{"buffer":0,"byteOffset":203516,"byteLength":10608,"target":34962},{"buffer":0,"byteOffset":214124,"byteLength":7072,"target":34962},{"buffer":0,"byteOffset":221196,"byteLength":2352,"target":34963},{"buffer":0,"byteOffset":223548,"byteLength":1416,"target":34962},{"buffer":0,"byteOffset":224964,"byteLength":1416,"target":34962},{"buffer":0,"byteOffset":226380,"byteLength":252,"target":34963},{"buffer":0,"byteOffset":226632,"byteLength":2412,"target":34962},{"buffer":0,"byteOffset":229044,"byteLength":2412,"target":34962},{"buffer":0,"byteOffset":231456,"byteLength":1206,"target":34963},{"buffer":0,"byteOffset":232664,"byteLength":288,"target":34962},{"buffer":0,"byteOffset":232952,"byteLength":288,"target":34962},{"buffer":0,"byteOffset":233240,"byteLength":72,"target":34963},{"buffer":0,"byteOffset":233312,"byteLength":192,"target":34962},{"buffer":0,"byteOffset":233504,"byteLength":192,"target":34962},{"buffer":0,"byteOffset":233696,"byteLength":128,"target":34962},{"buffer":0,"byteOffset":233824,"byteLength":48,"target":34963},{"buffer":0,"byteOffset":233872,"byteLength":3048,"target":34962},{"buffer":0,"byteOffset":236920,"byteLength":3048,"target":34962},{"buffer":0,"byteOffset":239968,"byteLength":2032,"target":34962},{"buffer":0,"byteOffset":242000,"byteLength":1254,"target":34963},{"buffer":0,"byteOffset":243256,"byteLength":204,"target":34962},{"buffer":0,"byteOffset":243460,"byteLength":204,"target":34962},{"buffer":0,"byteOffset":243664,"byteLength":136,"target":34962},{"buffer":0,"byteOffset":243800,"byteLength":54,"target":34963}],"buffers":[{"byteLength":243856,"uri":"generated.meeting_hall.bin"}],"images":[{"name":"T_WoodTrim_BaseColor","uri":"../village/T_WoodTrim_BaseColor.png"},{"name":"T_MetalOrnaments_BaseColor","uri":"../village/T_MetalOrnaments_BaseColor.png"},{"name":"T_RoundTiles_Luma","uri":"../village/T_RoundTiles_Luma.png"},{"name":"T_RockTrim_BaseColor","uri":"../village/T_RockTrim_BaseColor.png"},{"name":"T_UnevenBrick_BaseColor","uri":"../village/T_UnevenBrick_BaseColor.png"},{"name":"T_Plaster_Luma","uri":"../village/T_Plaster_Luma.png"}],"materials":[{"doubleSided":true,"name":"Wood_dark","pbrMetallicRoughness":{"baseColorFactor":[0.2329,0.2659,0.2944,1.0],"baseColorTexture":{"index":0},"metallicFactor":0,"roughnessFactor":0.8500000238418579}},{"doubleSided":true,"name":"Metal","pbrMetallicRoughness":{"baseColorFactor":[1.0,0.9972,0.9945,1.0],"baseColorTexture":{"index":1},"metallicFactor":0,"roughnessFactor":0.5}},{"doubleSided":true,"name":"Tiles_slate","pbrMetallicRoughness":{"baseColorFactor":[0.1477,0.1884,0.2641,1.0],"baseColorTexture":{"index":2},"metallicFactor":0,"roughnessFactor":0.699999988079071}},{"doubleSided":true,"name":"Iron","pbrMetallicRoughness":{"baseColorFactor":[0.0134117491543293,0.0134117491543293,0.015325203537940979,1],"metallicFactor":0,"roughnessFactor":0.5}},{"doubleSided":true,"name":"Glass","pbrMetallicRoughness":{"baseColorFactor":[0.03310476616024971,0.05087608844041824,0.07828831672668457,1],"metallicFactor":0,"roughnessFactor":0.20000000298023224}},{"doubleSided":true,"emissiveFactor":[1,0.4479884207248688,0.10048151016235352],"name":"LampGlass","pbrMetallicRoughness":{"baseColorFactor":[1,0.5704815983772278,0.1473190039396286,1],"metallicFactor":0,"roughnessFactor":0.8500000238418579}},{"doubleSided":true,"name":"RockTrim","pbrMetallicRoughness":{"baseColorFactor":[1.0,0.9979,1.0,1.0],"baseColorTexture":{"index":3},"metallicFactor":0,"roughnessFactor":0.8500000238418579}},{"doubleSided":true,"name":"Stone","pbrMetallicRoughness":{"baseColorFactor":[1.0,0.9974,0.9977,1.0],"baseColorTexture":{"index":4},"metallicFactor":0,"roughnessFactor":0.8500000238418579}},{"doubleSided":true,"name":"Plaster_sage","pbrMetallicRoughness":{"baseColorFactor":[0.656,0.7502,0.4764,1.0],"baseColorTexture":{"index":5},"metallicFactor":0,"roughnessFactor":0.8500000238418579}}],"meshes":[{"name":"lod","primitives":[{"attributes":{"NORMAL":0,"POSITION":1,"TEXCOORD_0":2},"indices":3,"material":0},{"attributes":{"NORMAL":4,"POSITION":5,"TEXCOORD_0":6},"indices":7,"material":1},{"attributes":{"NORMAL":8,"POSITION":9,"TEXCOORD_0":10},"indices":11,"material":2},{"attributes":{"NORMAL":12,"POSITION":13},"indices":14,"material":3},{"attributes":{"NORMAL":15,"POSITION":16},"indices":17,"material":4},{"attributes":{"NORMAL":18,"POSITION":19},"indices":20,"material":5},{"attributes":{"NORMAL":21,"POSITION":22,"TEXCOORD_0":23},"indices":24,"material":6},{"attributes":{"NORMAL":25,"POSITION":26,"TEXCOORD_0":27},"indices":28,"material":7},{"attributes":{"NORMAL":29,"POSITION":30,"TEXCOORD_0":31},"indices":32,"material":8}]}],"nodes":[{"mesh":0,"name":"lod"}],"scene":0,"scenes":[{"name":"Scene","nodes":[0]}],"textures":[{"source":0},{"source":1},{"source":2},{"source":3},{"source":4},{"source":5}]}