{"accessors":[{"bufferView":0,"componentType":5126,"count":2455,"max":[2.4751474857330322,12.32070541381836,1.2703349590301514],"min":[-2.475148916244507,-1.5052728485898115e-07,-8.87033462524414],"type":"VEC3"},{"bufferView":1,"componentType":5126,"count":2455,"type":"VEC3"},{"bufferView":2,"componentType":5126,"count":2455,"type":"VEC2"},{"bufferView":3,"componentType":5123,"count":2841,"type":"SCALAR"},{"bufferView":4,"componentType":5126,"count":56,"max":[1.5423359870910645,8.494152069091797,0.4038889408111572],"min":[-1.5459989309310913,1.0875728130340576,-8.003889083862305],"type":"VEC3"},{"bufferView":5,"componentType":5126,"count":56,"type":"VEC3"},{"bufferView":6,"componentType":5126,"count":56,"type":"VEC2"},{"bufferView":7,"componentType":5123,"count":102,"type":"SCALAR"},{"bufferView":8,"componentType":5126,"count":60,"max":[2,12.655694007873535,1.3113415775478643e-07],"min":[-2,-1.1840316757038834e-15,-8],"type":"VEC3"},{"bufferView":9,"componentType":5126,"count":60,"type":"VEC3"},{"bufferView":10,"componentType":5126,"count":60,"type":"VEC2"},{"bufferView":11,"componentType":5123,"count":117,"type":"SCALAR"},{"bufferView":12,"componentType":5126,"count":276,"max":[2.188183546066284,12.056702613830566,0.4000001549720764],"min":[-2.188183546066284,-1.919807459435218e-14,-8],"type":"VEC3"},{"bufferView":13,"componentType":5126,"count":276,"type":"VEC3"},{"bufferView":14,"componentType":5126,"count":276,"type":"VEC2"},{"bufferView":15,"componentType":5123,"count":591,"type":"SCALAR"},{"bufferView":16,"componentType":5126,"count":556,"max":[2.7836456298828125,12.813876152038574,1.2916091680526733],"min":[-2.7836458683013916,8.748912811279297,-8.872535705566406],"type":"VEC3"},{"bufferView":17,"componentType":5126,"count":556,"type":"VEC3"},{"bufferView":18,"componentType":5126,"count":556,"type":"VEC2"},{"bufferView":19,"componentType":5123,"count":840,"type":"SCALAR"},{"bufferView":20,"componentType":5126,"count":3,"max":[1.7999999523162842,0.13500000536441803,0.75],"min":[0.20000001788139343,0,0.26250001788139343],"type":"VEC3"},{"bufferView":21,"componentType":5126,"count":3,"type":"VEC3"},{"bufferView":22,"componentType":5126,"count":3,"type":"VEC2"},{"bufferView":23,"componentType":5123,"count":3,"type":"SCALAR"}],"asset":{"version":"2.0"},"bufferViews":[{"buffer":0,"byteLength":29460,"byteOffset":0,"target":34962},{"buffer":0,"byteLength":29460,"byteOffset":29460,"target":34962},{"buffer":0,"byteLength":19640,"byteOffset":58920,"target":34962},{"buffer":0,"byteLength":5682,"byteOffset":78560,"target":34963},{"buffer":0,"byteLength":672,"byteOffset":84244,"target":34962},{"buffer":0,"byteLength":672,"byteOffset":84916,"target":34962},{"buffer":0,"byteLength":448,"byteOffset":85588,"target":34962},{"buffer":0,"byteLength":204,"byteOffset":86036,"target":34963},{"buffer":0,"byteLength":720,"byteOffset":86240,"target":34962},{"buffer":0,"byteLength":720,"byteOffset":86960,"target":34962},{"buffer":0,"byteLength":480,"byteOffset":87680,"target":34962},{"buffer":0,"byteLength":234,"byteOffset":88160,"target":34963},{"buffer":0,"byteLength":3312,"byteOffset":88396,"target":34962},{"buffer":0,"byteLength":3312,"byteOffset":91708,"target":34962},{"buffer":0,"byteLength":2208,"byteOffset":95020,"target":34962},{"buffer":0,"byteLength":1182,"byteOffset":97228,"target":34963},{"buffer":0,"byteLength":6672,"byteOffset":98412,"target":34962},{"buffer":0,"byteLength":6672,"byteOffset":105084,"target":34962},{"buffer":0,"byteLength":4448,"byteOffset":111756,"target":34962},{"buffer":0,"byteLength":1680,"byteOffset":116204,"target":34963},{"buffer":0,"byteLength":36,"byteOffset":117884,"target":34962},{"buffer":0,"byteLength":36,"byteOffset":117920,"target":34962},{"buffer":0,"byteLength":24,"byteOffset":117956,"target":34962},{"buffer":0,"byteLength":6,"byteOffset":117980,"target":34963}],"buffers":[{"byteLength":117988,"uri":"generated.row_townhouse.bin"}],"images":[{"name":"T_WoodTrim_BaseColor","uri":"../village/T_WoodTrim_BaseColor.png"},{"name":"T_UnevenBrick_BaseColor","uri":"../village/T_UnevenBrick_BaseColor.png"},{"name":"T_Plaster_Luma","uri":"../village/T_Plaster_Luma.png"},{"name":"T_RoundTiles_Luma","uri":"../village/T_RoundTiles_Luma.png"},{"name":"T_RockTrim_BaseColor","uri":"../village/T_RockTrim_BaseColor.png"}],"materials":[{"doubleSided":true,"name":"Wood_dark","pbrMetallicRoughness":{"baseColorFactor":[0.2329,0.2659,0.2944,1.0],"baseColorTexture":{"index":0},"metallicFactor":0,"roughnessFactor":0.8500000238418579}},{"doubleSided":true,"name":"Glass","pbrMetallicRoughness":{"baseColorFactor":[0.03310476616024971,0.05087608844041824,0.07828831672668457,1],"metallicFactor":0,"roughnessFactor":0.20000000298023224}},{"doubleSided":true,"name":"Stone","pbrMetallicRoughness":{"baseColorFactor":[1.0,0.9974,0.9977,1.0],"baseColorTexture":{"index":1},"metallicFactor":0,"roughnessFactor":0.8500000238418579}},{"doubleSided":true,"name":"Plaster_rose","pbrMetallicRoughness":{"baseColorFactor":[0.9099,0.5391,0.4777,1.0],"baseColorTexture":{"index":2},"metallicFactor":0,"roughnessFactor":0.8500000238418579}},{"doubleSided":true,"name":"Tiles_slate","pbrMetallicRoughness":{"baseColorFactor":[0.1477,0.1884,0.2641,1.0],"baseColorTexture":{"index":3},"metallicFactor":0,"roughnessFactor":0.699999988079071}},{"doubleSided":true,"name":"RockTrim","pbrMetallicRoughness":{"baseColorFactor":[1.0,0.9979,1.0,1.0],"baseColorTexture":{"index":4},"metallicFactor":0,"roughnessFactor":0.8500000238418579}}],"meshes":[{"name":"lod","primitives":[{"attributes":{"NORMAL":1,"POSITION":0,"TEXCOORD_0":2},"indices":3,"material":0},{"attributes":{"NORMAL":5,"POSITION":4,"TEXCOORD_0":6},"indices":7,"material":1},{"attributes":{"NORMAL":9,"POSITION":8,"TEXCOORD_0":10},"indices":11,"material":2},{"attributes":{"NORMAL":13,"POSITION":12,"TEXCOORD_0":14},"indices":15,"material":3},{"attributes":{"NORMAL":17,"POSITION":16,"TEXCOORD_0":18},"indices":19,"material":4},{"attributes":{"NORMAL":21,"POSITION":20,"TEXCOORD_0":22},"indices":23,"material":5}]}],"nodes":[{"mesh":0,"name":"lod"}],"scene":0,"scenes":[{"name":"Scene","nodes":[0]}],"textures":[{"source":0},{"source":1},{"source":2},{"source":3},{"source":4}]}
