{"accessors":[{"bufferView":0,"componentType":5126,"count":112,"type":"VEC3"},{"bufferView":1,"componentType":5126,"count":112,"max":[3.799999952316284,3.200000047683716,0],"min":[-3.799999952316284,0,-0.30000001192092896],"type":"VEC3"},{"bufferView":2,"componentType":5123,"count":168,"type":"SCALAR"},{"bufferView":3,"componentType":5126,"count":248,"type":"VEC3"},{"bufferView":4,"componentType":5126,"count":248,"max":[3.8399999141693115,7.389999866485596,0.5],"min":[-3.8400001525878906,0.6499999761581421,-9.039999961853027],"type":"VEC3"},{"bufferView":5,"componentType":5123,"count":372,"type":"SCALAR"},{"bufferView":6,"componentType":5126,"count":72,"type":"VEC3"},{"bufferView":7,"componentType":5126,"count":72,"max":[3.1500000953674316,10.819999694824219,1.25],"min":[-3.1500000953674316,1.7200000286102295,-7.579999923706055],"type":"VEC3"},{"bufferView":8,"componentType":5123,"count":108,"type":"SCALAR"},{"bufferView":9,"componentType":5126,"count":20,"type":"VEC3"},{"bufferView":10,"componentType":5126,"count":20,"max":[2.200000047683716,2.940000057220459,0.15000000596046448],"min":[-2.200000047683716,2.819999933242798,0.10999999940395355],"type":"VEC3"},{"bufferView":11,"componentType":5123,"count":30,"type":"SCALAR"},{"bufferView":12,"componentType":5126,"count":540,"type":"VEC3"},{"bufferView":13,"componentType":5126,"count":540,"max":[3.9100000858306885,9.520000457763672,0.5600000023841858],"min":[-3.9100000858306885,0,-9.225000381469727],"type":"VEC3"},{"bufferView":14,"componentType":5126,"count":540,"type":"VEC2"},{"bufferView":15,"componentType":5123,"count":810,"type":"SCALAR"},{"bufferView":16,"componentType":5126,"count":146,"type":"VEC3"},{"bufferView":17,"componentType":5126,"count":146,"max":[3.8499999046325684,9.770000457763672,0.44999998807907104],"min":[-3.8499999046325684,0,-9],"type":"VEC3"},{"bufferView":18,"componentType":5126,"count":146,"type":"VEC2"},{"bufferView":19,"componentType":5123,"count":216,"type":"SCALAR"},{"bufferView":20,"componentType":5126,"count":64,"type":"VEC3"},{"bufferView":21,"componentType":5126,"count":64,"max":[3.8499999046325684,10.5600004196167,-6.96999979019165],"min":[-3.8499999046325684,0,-9.050000190734863],"type":"VEC3"},{"bufferView":22,"componentType":5126,"count":64,"type":"VEC2"},{"bufferView":23,"componentType":5123,"count":96,"type":"SCALAR"},{"bufferView":24,"componentType":5126,"count":56,"type":"VEC3"},{"bufferView":25,"componentType":5126,"count":56,"max":[3.1500000953674316,2.619999885559082,1.2200000286102295],"min":[-3.1500000953674316,1.8899999856948853,0.019999999552965164],"type":"VEC3"},{"bufferView":26,"componentType":5123,"count":84,"type":"SCALAR"},{"bufferView":27,"componentType":5126,"count":48,"type":"VEC3"},{"bufferView":28,"componentType":5126,"count":48,"max":[2.665384531021118,2.619999885559082,1.2200000286102295],"min":[-2.665384531021118,1.8899999856948853,0.019999999552965164],"type":"VEC3"},{"bufferView":29,"componentType":5123,"count":72,"type":"SCALAR"},{"bufferView":30,"componentType":5126,"count":72,"type":"VEC3"},{"bufferView":31,"componentType":5126,"count":72,"max":[4.400000095367432,9.9399995803833,1.049999713897705],"min":[-4.40000057220459,5.447226047515869,-9.600000381469727],"type":"VEC3"},{"bufferView":32,"componentType":5126,"count":72,"type":"VEC2"},{"bufferView":33,"componentType":5123,"count":108,"type":"SCALAR"}],"asset":{"generator":"Khronos glTF Blender I/O v5.2.40","version":"2.0"},"bufferViews":[{"buffer":0,"byteOffset":0,"byteLength":1344,"target":34962},{"buffer":0,"byteOffset":1344,"byteLength":1344,"target":34962},{"buffer":0,"byteOffset":2688,"byteLength":336,"target":34963},{"buffer":0,"byteOffset":3024,"byteLength":2976,"target":34962},{"buffer":0,"byteOffset":6000,"byteLength":2976,"target":34962},{"buffer":0,"byteOffset":8976,"byteLength":744,"target":34963},{"buffer":0,"byteOffset":9720,"byteLength":864,"target":34962},{"buffer":0,"byteOffset":10584,"byteLength":864,"target":34962},{"buffer":0,"byteOffset":11448,"byteLength":216,"target":34963},{"buffer":0,"byteOffset":11664,"byteLength":240,"target":34962},{"buffer":0,"byteOffset":11904,"byteLength":240,"target":34962},{"buffer":0,"byteOffset":12144,"byteLength":60,"target":34963},{"buffer":0,"byteOffset":12204,"byteLength":6480,"target":34962},{"buffer":0,"byteOffset":18684,"byteLength":6480,"target":34962},{"buffer":0,"byteOffset":25164,"byteLength":4320,"target":34962},{"buffer":0,"byteOffset":29484,"byteLength":1620,"target":34963},{"buffer":0,"byteOffset":31104,"byteLength":1752,"target":34962},{"buffer":0,"byteOffset":32856,"byteLength":1752,"target":34962},{"buffer":0,"byteOffset":34608,"byteLength":1168,"target":34962},{"buffer":0,"byteOffset":35776,"byteLength":432,"target":34963},{"buffer":0,"byteOffset":36208,"byteLength":768,"target":34962},{"buffer":0,"byteOffset":36976,"byteLength":768,"target":34962},{"buffer":0,"byteOffset":37744,"byteLength":512,"target":34962},{"buffer":0,"byteOffset":38256,"byteLength":192,"target":34963},{"buffer":0,"byteOffset":38448,"byteLength":672,"target":34962},{"buffer":0,"byteOffset":39120,"byteLength":672,"target":34962},{"buffer":0,"byteOffset":39792,"byteLength":168,"target":34963},{"buffer":0,"byteOffset":39960,"byteLength":576,"target":34962},{"buffer":0,"byteOffset":40536,"byteLength":576,"target":34962},{"buffer":0,"byteOffset":41112,"byteLength":144,"target":34963},{"buffer":0,"byteOffset":41256,"byteLength":864,"target":34962},{"buffer":0,"byteOffset":42120,"byteLength":864,"target":34962},{"buffer":0,"byteOffset":42984,"byteLength":576,"target":34962},{"buffer":0,"byteOffset":43560,"byteLength":216,"target":34963}],"buffers":[{"byteLength":43776,"uri":"generated.shop_house.bin"}],"images":[{"name":"T_Plaster_Luma","uri":"../village/T_Plaster_Luma.png"},{"name":"T_RoundTiles_BaseColor","uri":"../village/T_RoundTiles_BaseColor.png"},{"name":"T_UnevenBrick_BaseColor","uri":"../village/T_UnevenBrick_BaseColor.png"},{"name":"T_WoodTrim_BaseColor","uri":"../village/T_WoodTrim_BaseColor.png"}],"materials":[{"doubleSided":true,"name":"ShopPaint","pbrMetallicRoughness":{"baseColorFactor":[0.021980946883559227,0.08353512734174728,0.03968190774321556,1],"metallicFactor":0,"roughnessFactor":0.6000000238418579}},{"doubleSided":true,"name":"Glass","pbrMetallicRoughness":{"baseColorFactor":[0.03310476616024971,0.05087608844041824,0.07828831672668457,1],"metallicFactor":0,"roughnessFactor":0.20000000298023224}},{"doubleSided":true,"name":"Iron","pbrMetallicRoughness":{"baseColorFactor":[0.0134117491543293,0.0134117491543293,0.015325203537940979,1],"metallicFactor":0,"roughnessFactor":0.5}},{"doubleSided":true,"name":"SignPaint","pbrMetallicRoughness":{"baseColorFactor":[0.6038273572921753,0.34239163994789124,0.03310476616024971,1],"metallicFactor":0,"roughnessFactor":0.6000000238418579}},{"doubleSided":true,"name":"Wood_dark","pbrMetallicRoughness":{"baseColorFactor":[0.2329,0.2659,0.2944,1.0],"baseColorTexture":{"index":3},"metallicFactor":0,"roughnessFactor":0.8500000238418579}},{"doubleSided":true,"name":"HousePlaster","pbrMetallicRoughness":{"baseColorFactor":[0.9099,0.5391,0.4777,1.0],"baseColorTexture":{"index":0},"metallicFactor":0,"roughnessFactor":0.8500000238418579}},{"doubleSided":true,"name":"Stone","pbrMetallicRoughness":{"baseColorFactor":[1.0,0.9974,0.9977,1.0],"baseColorTexture":{"index":2},"metallicFactor":0,"roughnessFactor":0.8500000238418579}},{"doubleSided":true,"name":"ClothGreen","pbrMetallicRoughness":{"baseColorFactor":[0.03310476616024971,0.1473190039396286,0.07323895394802094,1],"metallicFactor":0,"roughnessFactor":0.8999999761581421}},{"doubleSided":true,"name":"Cloth2","pbrMetallicRoughness":{"baseColorFactor":[0.7484140992164612,0.6382831931114197,0.4200332760810852,1],"metallicFactor":0,"roughnessFactor":0.8999999761581421}},{"doubleSided":true,"name":"HouseTiles","pbrMetallicRoughness":{"baseColorFactor":[1.0,0.9965,0.9971,1.0],"baseColorTexture":{"index":1},"metallicFactor":0,"roughnessFactor":0.699999988079071}}],"meshes":[{"name":"Pier","primitives":[{"attributes":{"NORMAL":0,"POSITION":1},"indices":2,"material":0},{"attributes":{"NORMAL":3,"POSITION":4},"indices":5,"material":1},{"attributes":{"NORMAL":6,"POSITION":7},"indices":8,"material":2},{"attributes":{"NORMAL":9,"POSITION":10},"indices":11,"material":3},{"attributes":{"NORMAL":12,"POSITION":13,"TEXCOORD_0":14},"indices":15,"material":4},{"attributes":{"NORMAL":16,"POSITION":17,"TEXCOORD_0":18},"indices":19,"material":5},{"attributes":{"NORMAL":20,"POSITION":21,"TEXCOORD_0":22},"indices":23,"material":6},{"attributes":{"NORMAL":24,"POSITION":25},"indices":26,"material":7},{"attributes":{"NORMAL":27,"POSITION":28},"indices":29,"material":8},{"attributes":{"NORMAL":30,"POSITION":31,"TEXCOORD_0":32},"indices":33,"material":9}]}],"nodes":[{"mesh":0,"name":"shop_house"}],"scene":0,"scenes":[{"name":"Scene","nodes":[0]}],"textures":[{"source":0},{"source":1},{"source":2},{"source":3}]}