{"accessors":[{"bufferView":0,"componentType":5126,"count":18,"type":"VEC3"},{"bufferView":1,"componentType":5126,"count":18,"max":[6.599999904632568,0.9399999976158142,-1.149999976158142],"min":[6.199999809265137,0.5550000071525574,-2.380000114440918],"type":"VEC3"},{"bufferView":2,"componentType":5123,"count":18,"type":"SCALAR"},{"bufferView":3,"componentType":5126,"count":2673,"type":"VEC3"},{"bufferView":4,"componentType":5126,"count":2673,"max":[7.789130687713623,8.720561027526855,0.8561630249023438],"min":[-4.955689907073975,-1.5052728485898115e-07,-8.856163024902344],"type":"VEC3"},{"bufferView":5,"componentType":5126,"count":2673,"type":"VEC2"},{"bufferView":6,"componentType":5123,"count":3795,"type":"SCALAR"},{"bufferView":7,"componentType":5126,"count":18,"type":"VEC3"},{"bufferView":8,"componentType":5126,"count":18,"max":[5.698528289794922,10.330562591552734,-2.5],"min":[4.001471996307373,0.42500004172325134,-5.5],"type":"VEC3"},{"bufferView":9,"componentType":5126,"count":18,"type":"VEC2"},{"bufferView":10,"componentType":5123,"count":18,"type":"SCALAR"},{"bufferView":11,"componentType":5126,"count":3,"type":"VEC3"},{"bufferView":12,"componentType":5126,"count":3,"max":[5.449999809265137,10.480562210083008,-3.4000003337860107],"min":[4.25,10.380562782287598,-4.599999904632568],"type":"VEC3"},{"bufferView":13,"componentType":5126,"count":3,"type":"VEC2"},{"bufferView":14,"componentType":5123,"count":3,"type":"SCALAR"},{"bufferView":15,"componentType":5126,"count":3,"type":"VEC3"},{"bufferView":16,"componentType":5126,"count":3,"max":[5.40000057220459,0.8850000500679016,-2.799999952316284],"min":[4.300000190734863,0.8850000500679016,-5.199999809265137],"type":"VEC3"},{"bufferView":17,"componentType":5123,"count":3,"type":"SCALAR"},{"bufferView":18,"componentType":5126,"count":118,"type":"VEC3"},{"bufferView":19,"componentType":5126,"count":118,"max":[-0.5894659161567688,1.2524888515472412,0.0715305432677269],"min":[-0.8605493903160095,0.859052300453186,-0.12066184729337692],"type":"VEC3"},{"bufferView":20,"componentType":5126,"count":118,"type":"VEC2"},{"bufferView":21,"componentType":5123,"count":156,"type":"SCALAR"},{"bufferView":22,"componentType":5126,"count":104,"type":"VEC3"},{"bufferView":23,"componentType":5126,"count":104,"max":[4.1627702713012695,8.434065818786621,1.1920928955078125e-07],"min":[-4.1627702713012695,0,-8],"type":"VEC3"},{"bufferView":24,"componentType":5126,"count":104,"type":"VEC2"},{"bufferView":25,"componentType":5123,"count":210,"type":"SCALAR"},{"bufferView":26,"componentType":5126,"count":634,"type":"VEC3"},{"bufferView":27,"componentType":5126,"count":634,"max":[4.975997447967529,9.121366500854492,1.2474465370178223],"min":[-4.975997447967529,2.5482072830200195,-9.08474063873291],"type":"VEC3"},{"bufferView":28,"componentType":5126,"count":634,"type":"VEC2"},{"bufferView":29,"componentType":5123,"count":798,"type":"SCALAR"},{"bufferView":30,"componentType":5126,"count":97,"type":"VEC3"},{"bufferView":31,"componentType":5126,"count":97,"max":[6.920000076293945,2.355356216430664,0.003888234496116638],"min":[-4.003888130187988,0.5300000309944153,-8.003888130187988],"type":"VEC3"},{"bufferView":32,"componentType":5123,"count":129,"type":"SCALAR"},{"bufferView":33,"componentType":5126,"count":92,"type":"VEC3"},{"bufferView":34,"componentType":5126,"count":92,"max":[4,3,1.3113415775478643e-07],"min":[-4,0,-8],"type":"VEC3"},{"bufferView":35,"componentType":5126,"count":92,"type":"VEC2"},{"bufferView":36,"componentType":5123,"count":195,"type":"SCALAR"}],"asset":{"version":"2.0"},"bufferViews":[{"buffer":0,"byteOffset":0,"byteLength":216,"target":34962},{"buffer":0,"byteOffset":216,"byteLength":216,"target":34962},{"buffer":0,"byteOffset":432,"byteLength":36,"target":34963},{"buffer":0,"byteOffset":468,"byteLength":32076,"target":34962},{"buffer":0,"byteOffset":32544,"byteLength":32076,"target":34962},{"buffer":0,"byteOffset":64620,"byteLength":21384,"target":34962},{"buffer":0,"byteOffset":86004,"byteLength":7590,"target":34963},{"buffer":0,"byteOffset":93596,"byteLength":216,"target":34962},{"buffer":0,"byteOffset":93812,"byteLength":216,"target":34962},{"buffer":0,"byteOffset":94028,"byteLength":144,"target":34962},{"buffer":0,"byteOffset":94172,"byteLength":36,"target":34963},{"buffer":0,"byteOffset":94208,"byteLength":36,"target":34962},{"buffer":0,"byteOffset":94244,"byteLength":36,"target":34962},{"buffer":0,"byteOffset":94280,"byteLength":24,"target":34962},{"buffer":0,"byteOffset":94304,"byteLength":6,"target":34963},{"buffer":0,"byteOffset":94312,"byteLength":36,"target":34962},{"buffer":0,"byteOffset":94348,"byteLength":36,"target":34962},{"buffer":0,"byteOffset":94384,"byteLength":6,"target":34963},{"buffer":0,"byteOffset":94392,"byteLength":1416,"target":34962},{"buffer":0,"byteOffset":95808,"byteLength":1416,"target":34962},{"buffer":0,"byteOffset":97224,"byteLength":944,"target":34962},{"buffer":0,"byteOffset":98168,"byteLength":312,"target":34963},{"buffer":0,"byteOffset":98480,"byteLength":1248,"target":34962},{"buffer":0,"byteOffset":99728,"byteLength":1248,"target":34962},{"buffer":0,"byteOffset":100976,"byteLength":832,"target":34962},{"buffer":0,"byteOffset":101808,"byteLength":420,"target":34963},{"buffer":0,"byteOffset":102228,"byteLength":7608,"target":34962},{"buffer":0,"byteOffset":109836,"byteLength":7608,"target":34962},{"buffer":0,"byteOffset":117444,"byteLength":5072,"target":34962},{"buffer":0,"byteOffset":122516,"byteLength":1596,"target":34963},{"buffer":0,"byteOffset":124112,"byteLength":1164,"target":34962},{"buffer":0,"byteOffset":125276,"byteLength":1164,"target":34962},{"buffer":0,"byteOffset":126440,"byteLength":258,"target":34963},{"buffer":0,"byteOffset":126700,"byteLength":1104,"target":34962},{"buffer":0,"byteOffset":127804,"byteLength":1104,"target":34962},{"buffer":0,"byteOffset":128908,"byteLength":736,"target":34962},{"buffer":0,"byteOffset":129644,"byteLength":390,"target":34963}],"buffers":[{"byteLength":130036,"uri":"generated.smithy.bin"}],"images":[{"name":"T_WoodTrim_BaseColor","uri":"../village/T_WoodTrim_BaseColor.png"},{"name":"T_Brick_BaseColor","uri":"../village/T_Brick_BaseColor.png"},{"name":"T_RockTrim_BaseColor","uri":"../village/T_RockTrim_BaseColor.png"},{"name":"T_MetalOrnaments_BaseColor","uri":"../village/T_MetalOrnaments_BaseColor.png"},{"name":"T_Plaster_Luma","uri":"../village/T_Plaster_Luma.png"},{"name":"T_RoundTiles_Luma","uri":"../village/T_RoundTiles_Luma.png"},{"name":"T_UnevenBrick_BaseColor","uri":"../village/T_UnevenBrick_BaseColor.png"}],"materials":[{"doubleSided":true,"name":"Iron","pbrMetallicRoughness":{"baseColorFactor":[0.0134117491543293,0.0134117491543293,0.015325203537940979,1],"metallicFactor":0,"roughnessFactor":0.5}},{"doubleSided":true,"name":"Wood_dark","pbrMetallicRoughness":{"baseColorFactor":[0.2329,0.2659,0.2944,1.0],"baseColorTexture":{"index":0},"metallicFactor":0,"roughnessFactor":0.8500000238418579}},{"doubleSided":true,"name":"Brick","pbrMetallicRoughness":{"baseColorFactor":[1.0,0.9974,1.0,1.0],"baseColorTexture":{"index":1},"metallicFactor":0,"roughnessFactor":0.8500000238418579}},{"doubleSided":true,"name":"RockTrim","pbrMetallicRoughness":{"baseColorFactor":[1.0,0.9979,1.0,1.0],"baseColorTexture":{"index":2},"metallicFactor":0,"roughnessFactor":0.8500000238418579}},{"doubleSided":true,"emissiveFactor":[1,0.13286831974983215,0.010022825561463833],"name":"Coals","pbrMetallicRoughness":{"baseColorFactor":[1,0.17064493894577026,0.0134117491543293,1],"metallicFactor":0,"roughnessFactor":0.8500000238418579}},{"doubleSided":true,"name":"Metal","pbrMetallicRoughness":{"baseColorFactor":[1.0,0.9972,0.9945,1.0],"baseColorTexture":{"index":3},"metallicFactor":0,"roughnessFactor":0.5}},{"doubleSided":true,"name":"Plaster_white","pbrMetallicRoughness":{"baseColorFactor":[1.0,1.0,0.9092,1.0],"baseColorTexture":{"index":4},"metallicFactor":0,"roughnessFactor":0.8500000238418579}},{"doubleSided":true,"name":"Tiles_charcoal","pbrMetallicRoughness":{"baseColorFactor":[0.1165,0.1149,0.1269,1.0],"baseColorTexture":{"index":5},"metallicFactor":0,"roughnessFactor":0.699999988079071}},{"doubleSided":true,"name":"Glass","pbrMetallicRoughness":{"baseColorFactor":[0.03310476616024971,0.05087608844041824,0.07828831672668457,1],"metallicFactor":0,"roughnessFactor":0.20000000298023224}},{"doubleSided":true,"name":"Stone","pbrMetallicRoughness":{"baseColorFactor":[1.0,0.9974,0.9977,1.0],"baseColorTexture":{"index":6},"metallicFactor":0,"roughnessFactor":0.8500000238418579}}],"meshes":[{"name":"lod","primitives":[{"attributes":{"NORMAL":0,"POSITION":1},"indices":2,"material":0},{"attributes":{"NORMAL":3,"POSITION":4,"TEXCOORD_0":5},"indices":6,"material":1},{"attributes":{"NORMAL":7,"POSITION":8,"TEXCOORD_0":9},"indices":10,"material":2},{"attributes":{"NORMAL":11,"POSITION":12,"TEXCOORD_0":13},"indices":14,"material":3},{"attributes":{"NORMAL":15,"POSITION":16},"indices":17,"material":4},{"attributes":{"NORMAL":18,"POSITION":19,"TEXCOORD_0":20},"indices":21,"material":5},{"attributes":{"NORMAL":22,"POSITION":23,"TEXCOORD_0":24},"indices":25,"material":6},{"attributes":{"NORMAL":26,"POSITION":27,"TEXCOORD_0":28},"indices":29,"material":7},{"attributes":{"NORMAL":30,"POSITION":31},"indices":32,"material":8},{"attributes":{"NORMAL":33,"POSITION":34,"TEXCOORD_0":35},"indices":36,"material":9}]}],"nodes":[{"mesh":0,"name":"lod"}],"scene":0,"scenes":[{"name":"Scene","nodes":[0]}],"textures":[{"source":0},{"source":1},{"source":2},{"source":3},{"source":4},{"source":5},{"source":6}]}