{"accessors":[{"bufferView":0,"componentType":5126,"count":232,"type":"VEC3"},{"bufferView":1,"componentType":5126,"count":232,"max":[18.479999542236328,12.420000076293945,0],"min":[-18.479999542236328,0,-30.8799991607666],"type":"VEC3"},{"bufferView":2,"componentType":5123,"count":348,"type":"SCALAR"},{"bufferView":3,"componentType":5126,"count":96,"type":"VEC3"},{"bufferView":4,"componentType":5126,"count":96,"max":[16.600000381469727,1.4900000095367432,0],"min":[-16.600000381469727,0,-4.800000190734863],"type":"VEC3"},{"bufferView":5,"componentType":5126,"count":96,"type":"VEC2"},{"bufferView":6,"componentType":5123,"count":144,"type":"SCALAR"},{"bufferView":7,"componentType":5126,"count":780,"type":"VEC3"},{"bufferView":8,"componentType":5126,"count":780,"max":[18.100000381469727,9.869999885559082,0.6449999809265137],"min":[-18.100000381469727,0,-9.399999618530273],"type":"VEC3"},{"bufferView":9,"componentType":5123,"count":1320,"type":"SCALAR"},{"bufferView":10,"componentType":5126,"count":40,"type":"VEC3"},{"bufferView":11,"componentType":5126,"count":40,"max":[16.479999542236328,1.149999976158142,-3.2200000286102295],"min":[-16.479999542236328,0.8500000238418579,-4.679999828338623],"type":"VEC3"},{"bufferView":12,"componentType":5123,"count":60,"type":"SCALAR"},{"bufferView":13,"componentType":5126,"count":540,"type":"VEC3"},{"bufferView":14,"componentType":5126,"count":540,"max":[18.5,13.970000267028809,-4.599999904632568],"min":[-18.5,0,-30.899999618530273],"type":"VEC3"},{"bufferView":15,"componentType":5126,"count":540,"type":"VEC2"},{"bufferView":16,"componentType":5123,"count":870,"type":"SCALAR"},{"bufferView":17,"componentType":5126,"count":72,"type":"VEC3"},{"bufferView":18,"componentType":5126,"count":72,"max":[2.5,9.119999885559082,-9.399999618530273],"min":[-2.5,1.9199999570846558,-10.559999465942383],"type":"VEC3"},{"bufferView":19,"componentType":5123,"count":108,"type":"SCALAR"},{"bufferView":20,"componentType":5126,"count":96,"type":"VEC3"},{"bufferView":21,"componentType":5126,"count":96,"max":[18.020002365112305,9.720000267028809,-9.579999923706055],"min":[-18.01999855041504,2.819999933242798,-26],"type":"VEC3"},{"bufferView":22,"componentType":5123,"count":144,"type":"SCALAR"},{"bufferView":23,"componentType":5126,"count":80,"type":"VEC3"},{"bufferView":24,"componentType":5126,"count":80,"max":[10.319999694824219,5.510000228881836,0.7200000286102295],"min":[-10.319999694824219,1.850000023841858,-9.34000015258789],"type":"VEC3"},{"bufferView":25,"componentType":5123,"count":120,"type":"SCALAR"}],"asset":{"generator":"Khronos glTF Blender I/O v5.2.40","version":"2.0"},"bufferViews":[{"buffer":0,"byteOffset":0,"byteLength":2784,"target":34962},{"buffer":0,"byteOffset":2784,"byteLength":2784,"target":34962},{"buffer":0,"byteOffset":5568,"byteLength":696,"target":34963},{"buffer":0,"byteOffset":6264,"byteLength":1152,"target":34962},{"buffer":0,"byteOffset":7416,"byteLength":1152,"target":34962},{"buffer":0,"byteOffset":8568,"byteLength":768,"target":34962},{"buffer":0,"byteOffset":9336,"byteLength":288,"target":34963},{"buffer":0,"byteOffset":9624,"byteLength":9360,"target":34962},{"buffer":0,"byteOffset":18984,"byteLength":9360,"target":34962},{"buffer":0,"byteOffset":28344,"byteLength":2640,"target":34963},{"buffer":0,"byteOffset":30984,"byteLength":480,"target":34962},{"buffer":0,"byteOffset":31464,"byteLength":480,"target":34962},{"buffer":0,"byteOffset":31944,"byteLength":120,"target":34963},{"buffer":0,"byteOffset":32064,"byteLength":6480,"target":34962},{"buffer":0,"byteOffset":38544,"byteLength":6480,"target":34962},{"buffer":0,"byteOffset":45024,"byteLength":4320,"target":34962},{"buffer":0,"byteOffset":49344,"byteLength":1740,"target":34963},{"buffer":0,"byteOffset":51084,"byteLength":864,"target":34962},{"buffer":0,"byteOffset":51948,"byteLength":864,"target":34962},{"buffer":0,"byteOffset":52812,"byteLength":216,"target":34963},{"buffer":0,"byteOffset":53028,"byteLength":1152,"target":34962},{"buffer":0,"byteOffset":54180,"byteLength":1152,"target":34962},{"buffer":0,"byteOffset":55332,"byteLength":288,"target":34963},{"buffer":0,"byteOffset":55620,"byteLength":960,"target":34962},{"buffer":0,"byteOffset":56580,"byteLength":960,"target":34962},{"buffer":0,"byteOffset":57540,"byteLength":240,"target":34963}],"buffers":[{"byteLength":57780,"uri":"generated.civic_hall.bin"}],"images":[{"name":"T_Plaster_Luma","uri":"../village/T_Plaster_Luma.png"},{"name":"T_WoodTrim_BaseColor","uri":"../village/T_WoodTrim_BaseColor.png"}],"materials":[{"doubleSided":true,"name":"GrecoStoneShade","pbrMetallicRoughness":{"baseColorFactor":[0.5382355451583862,0.4479884207248688,0.3069993257522583,1],"metallicFactor":0,"roughnessFactor":0.8500000238418579}},{"doubleSided":true,"name":"GrecoWalnut","pbrMetallicRoughness":{"baseColorFactor":[0.1509,0.1765,0.2002,1.0],"baseColorTexture":{"index":1},"metallicFactor":0,"roughnessFactor":0.6000000238418579}},{"doubleSided":true,"name":"GrecoBronze","pbrMetallicRoughness":{"baseColorFactor":[0.04696420207619667,0.01960664801299572,0.00854038167744875,1],"metallicFactor":0,"roughnessFactor":0.44999998807907104}},{"doubleSided":true,"name":"GrecoHedge","pbrMetallicRoughness":{"baseColorFactor":[0.02451501414179802,0.06838485598564148,0.0134117491543293,1],"metallicFactor":0,"roughnessFactor":0.949999988079071}},{"doubleSided":true,"name":"GrecoLimestone","pbrMetallicRoughness":{"baseColorFactor":[0.9026,0.7713,0.5384,1.0],"baseColorTexture":{"index":0},"metallicFactor":0,"roughnessFactor":0.800000011920929}},{"doubleSided":true,"name":"GrecoCopper","pbrMetallicRoughness":{"baseColorFactor":[0.3931231200695038,0.11928018927574158,0.03310476616024971,1],"metallicFactor":0,"roughnessFactor":0.4000000059604645}},{"doubleSided":true,"name":"GrecoGlass","pbrMetallicRoughness":{"baseColorFactor":[0.010022825561463833,0.011645430698990822,0.0134117491543293,1],"metallicFactor":0,"roughnessFactor":0.15000000596046448}},{"doubleSided":true,"emissiveFactor":[1,0.4200332760810852,0.07323895394802094],"name":"EmitAmber","pbrMetallicRoughness":{"baseColorFactor":[1,0.4200332760810852,0.07323895394802094,1],"metallicFactor":0,"roughnessFactor":0.30000001192092896}}],"meshes":[{"name":"Step","primitives":[{"attributes":{"NORMAL":0,"POSITION":1},"indices":2,"material":0},{"attributes":{"NORMAL":3,"POSITION":4,"TEXCOORD_0":5},"indices":6,"material":1},{"attributes":{"NORMAL":7,"POSITION":8},"indices":9,"material":2},{"attributes":{"NORMAL":10,"POSITION":11},"indices":12,"material":3},{"attributes":{"NORMAL":13,"POSITION":14,"TEXCOORD_0":15},"indices":16,"material":4},{"attributes":{"NORMAL":17,"POSITION":18},"indices":19,"material":5},{"attributes":{"NORMAL":20,"POSITION":21},"indices":22,"material":6},{"attributes":{"NORMAL":23,"POSITION":24},"indices":25,"material":7}]}],"nodes":[{"mesh":0,"name":"civic_hall"}],"scene":0,"scenes":[{"name":"Scene","nodes":[0]}],"textures":[{"source":0},{"source":1}]}