{"accessors":[{"bufferView":0,"componentType":5126,"count":3,"max":[-1,2.75,1.47960364818573],"min":[-3,1.9217967987060547,0.1199999675154686],"type":"VEC3"},{"bufferView":1,"componentType":5126,"count":3,"type":"VEC3"},{"bufferView":2,"componentType":5126,"count":3,"type":"VEC2"},{"bufferView":3,"componentType":5123,"count":3,"type":"SCALAR"},{"bufferView":4,"componentType":5126,"count":7,"max":[3,2.75,1.47960364818573],"min":[-3,1.9230707883834839,0.1199999675154686],"type":"VEC3"},{"bufferView":5,"componentType":5126,"count":7,"type":"VEC3"},{"bufferView":6,"componentType":5126,"count":7,"type":"VEC2"},{"bufferView":7,"componentType":5123,"count":9,"type":"SCALAR"},{"bufferView":8,"componentType":5126,"count":9,"max":[4.412500381469727,2.2300000190734863,1.4500001668930054],"min":[-3,0.40000003576278687,-5.050000190734863],"type":"VEC3"},{"bufferView":9,"componentType":5126,"count":9,"type":"VEC3"},{"bufferView":10,"componentType":5126,"count":9,"type":"VEC2"},{"bufferView":11,"componentType":5123,"count":9,"type":"SCALAR"},{"bufferView":12,"componentType":5126,"count":2250,"max":[3.77716326713562,10.503981590270996,1.7999999523162842],"min":[-3.77716326713562,-1.5052728485898115e-07,-8.87017822265625],"type":"VEC3"},{"bufferView":13,"componentType":5126,"count":2250,"type":"VEC3"},{"bufferView":14,"componentType":5126,"count":2250,"type":"VEC2"},{"bufferView":15,"componentType":5123,"count":2637,"type":"SCALAR"},{"bufferView":16,"componentType":5126,"count":48,"max":[3.0038883686065674,5.494088172912598,0.40388914942741394],"min":[-3.0038881301879883,1.0971392393112183,-8.003889083862305],"type":"VEC3"},{"bufferView":17,"componentType":5126,"count":48,"type":"VEC3"},{"bufferView":18,"componentType":5126,"count":48,"type":"VEC2"},{"bufferView":19,"componentType":5123,"count":69,"type":"SCALAR"},{"bufferView":20,"componentType":5126,"count":45,"max":[4.500728130340576,12.488177299499512,1.1920928955078125e-07],"min":[-3,-3.117775135286216e-14,-8],"type":"VEC3"},{"bufferView":21,"componentType":5126,"count":45,"type":"VEC3"},{"bufferView":22,"componentType":5126,"count":45,"type":"VEC2"},{"bufferView":23,"componentType":5123,"count":54,"type":"SCALAR"},{"bufferView":24,"componentType":5126,"count":3,"max":[4.570000648498535,0.875,-4.300000190734863],"min":[4.019999980926514,0.625,-4.90000057220459],"type":"VEC3"},{"bufferView":25,"componentType":5126,"count":3,"type":"VEC3"},{"bufferView":26,"componentType":5126,"count":3,"type":"VEC2"},{"bufferView":27,"componentType":5123,"count":3,"type":"SCALAR"},{"bufferView":28,"componentType":5126,"count":60,"max":[3.9000003337860107,12.638176918029785,0.75],"min":[-3,1.3744515402637838e-22,-6.3000006675720215],"type":"VEC3"},{"bufferView":29,"componentType":5126,"count":60,"type":"VEC3"},{"bufferView":30,"componentType":5126,"count":60,"type":"VEC2"},{"bufferView":31,"componentType":5123,"count":84,"type":"SCALAR"},{"bufferView":32,"componentType":5126,"count":265,"max":[3.1675596237182617,10.42416763305664,0.4000001549720764],"min":[-3.1675596237182617,-3.117775135286216e-14,-8],"type":"VEC3"},{"bufferView":33,"componentType":5126,"count":265,"type":"VEC3"},{"bufferView":34,"componentType":5126,"count":265,"type":"VEC2"},{"bufferView":35,"componentType":5123,"count":525,"type":"SCALAR"},{"bufferView":36,"componentType":5126,"count":383,"max":[4.125591278076172,10.999601364135742,1.2895113229751587],"min":[-4.125591278076172,5.494248390197754,-8.789544105529785],"type":"VEC3"},{"bufferView":37,"componentType":5126,"count":383,"type":"VEC3"},{"bufferView":38,"componentType":5126,"count":383,"type":"VEC2"},{"bufferView":39,"componentType":5123,"count":612,"type":"SCALAR"},{"bufferView":40,"componentType":5126,"count":3,"max":[-2.88700008392334,3.4299156665802,1.5442626476287842],"min":[-2.9130001068115234,2.947657823562622,0.9737462997436523],"type":"VEC3"},{"bufferView":41,"componentType":5126,"count":3,"type":"VEC3"},{"bufferView":42,"componentType":5126,"count":3,"type":"VEC2"},{"bufferView":43,"componentType":5123,"count":3,"type":"SCALAR"}],"asset":{"version":"2.0"},"bufferViews":[{"buffer":0,"byteLength":36,"byteOffset":0,"target":34962},{"buffer":0,"byteLength":36,"byteOffset":36,"target":34962},{"buffer":0,"byteLength":24,"byteOffset":72,"target":34962},{"buffer":0,"byteLength":6,"byteOffset":96,"target":34963},{"buffer":0,"byteLength":84,"byteOffset":104,"target":34962},{"buffer":0,"byteLength":84,"byteOffset":188,"target":34962},{"buffer":0,"byteLength":56,"byteOffset":272,"target":34962},{"buffer":0,"byteLength":18,"byteOffset":328,"target":34963},{"buffer":0,"byteLength":108,"byteOffset":348,"target":34962},{"buffer":0,"byteLength":108,"byteOffset":456,"target":34962},{"buffer":0,"byteLength":72,"byteOffset":564,"target":34962},{"buffer":0,"byteLength":18,"byteOffset":636,"target":34963},{"buffer":0,"byteLength":27000,"byteOffset":656,"target":34962},{"buffer":0,"byteLength":27000,"byteOffset":27656,"target":34962},{"buffer":0,"byteLength":18000,"byteOffset":54656,"target":34962},{"buffer":0,"byteLength":5274,"byteOffset":72656,"target":34963},{"buffer":0,"byteLength":576,"byteOffset":77932,"target":34962},{"buffer":0,"byteLength":576,"byteOffset":78508,"target":34962},{"buffer":0,"byteLength":384,"byteOffset":79084,"target":34962},{"buffer":0,"byteLength":138,"byteOffset":79468,"target":34963},{"buffer":0,"byteLength":540,"byteOffset":79608,"target":34962},{"buffer":0,"byteLength":540,"byteOffset":80148,"target":34962},{"buffer":0,"byteLength":360,"byteOffset":80688,"target":34962},{"buffer":0,"byteLength":108,"byteOffset":81048,"target":34963},{"buffer":0,"byteLength":36,"byteOffset":81156,"target":34962},{"buffer":0,"byteLength":36,"byteOffset":81192,"target":34962},{"buffer":0,"byteLength":24,"byteOffset":81228,"target":34962},{"buffer":0,"byteLength":6,"byteOffset":81252,"target":34963},{"buffer":0,"byteLength":720,"byteOffset":81260,"target":34962},{"buffer":0,"byteLength":720,"byteOffset":81980,"target":34962},{"buffer":0,"byteLength":480,"byteOffset":82700,"target":34962},{"buffer":0,"byteLength":168,"byteOffset":83180,"target":34963},{"buffer":0,"byteLength":3180,"byteOffset":83348,"target":34962},{"buffer":0,"byteLength":3180,"byteOffset":86528,"target":34962},{"buffer":0,"byteLength":2120,"byteOffset":89708,"target":34962},{"buffer":0,"byteLength":1050,"byteOffset":91828,"target":34963},{"buffer":0,"byteLength":4596,"byteOffset":92880,"target":34962},{"buffer":0,"byteLength":4596,"byteOffset":97476,"target":34962},{"buffer":0,"byteLength":3064,"byteOffset":102072,"target":34962},{"buffer":0,"byteLength":1224,"byteOffset":105136,"target":34963},{"buffer":0,"byteLength":36,"byteOffset":106360,"target":34962},{"buffer":0,"byteLength":36,"byteOffset":106396,"target":34962},{"buffer":0,"byteLength":24,"byteOffset":106432,"target":34962},{"buffer":0,"byteLength":6,"byteOffset":106456,"target":34963}],"buffers":[{"byteLength":106464,"uri":"generated.bakery.bin"}],"images":[{"name":"T_WoodTrim_BaseColor","uri":"../village/T_WoodTrim_BaseColor.png"},{"name":"T_Brick_BaseColor","uri":"../village/T_Brick_BaseColor.png"},{"name":"T_RockTrim_BaseColor","uri":"../village/T_RockTrim_BaseColor.png"},{"name":"T_Plaster_Luma","uri":"../village/T_Plaster_Luma.png"},{"name":"T_RoundTiles_BaseColor","uri":"../village/T_RoundTiles_BaseColor.png"}],"materials":[{"doubleSided":true,"name":"Cloth","pbrMetallicRoughness":{"baseColorFactor":[0.34239163994789124,0.03310476616024971,0.021980946883559227,1],"metallicFactor":0,"roughnessFactor":0.8999999761581421}},{"doubleSided":true,"name":"Cloth2","pbrMetallicRoughness":{"baseColorFactor":[0.7484140992164612,0.6382831931114197,0.4200332760810852,1],"metallicFactor":0,"roughnessFactor":0.8999999761581421}},{"doubleSided":true,"name":"Iron","pbrMetallicRoughness":{"baseColorFactor":[0.0134117491543293,0.0134117491543293,0.015325203537940979,1],"metallicFactor":0,"roughnessFactor":0.5}},{"doubleSided":true,"name":"Wood_mid","pbrMetallicRoughness":{"baseColorFactor":[0.5179,0.5489,0.5787,1.0],"baseColorTexture":{"index":0},"metallicFactor":0,"roughnessFactor":0.8500000238418579}},{"doubleSided":true,"name":"Glass","pbrMetallicRoughness":{"baseColorFactor":[0.03310476616024971,0.05087608844041824,0.07828831672668457,1],"metallicFactor":0,"roughnessFactor":0.20000000298023224}},{"doubleSided":true,"name":"Brick","pbrMetallicRoughness":{"baseColorFactor":[1.0,0.9974,1.0,1.0],"baseColorTexture":{"index":1},"metallicFactor":0,"roughnessFactor":0.8500000238418579}},{"doubleSided":true,"emissiveFactor":[1,0.13286831974983215,0.010022825561463833],"name":"Coals","pbrMetallicRoughness":{"baseColorFactor":[1,0.17064493894577026,0.0134117491543293,1],"metallicFactor":0,"roughnessFactor":0.8500000238418579}},{"doubleSided":true,"name":"RockTrim","pbrMetallicRoughness":{"baseColorFactor":[1.0,0.9979,1.0,1.0],"baseColorTexture":{"index":2},"metallicFactor":0,"roughnessFactor":0.8500000238418579}},{"doubleSided":true,"name":"Plaster_butter","pbrMetallicRoughness":{"baseColorFactor":[1.0,0.8583,0.3304,1.0],"baseColorTexture":{"index":3},"metallicFactor":0,"roughnessFactor":0.8500000238418579}},{"doubleSided":true,"name":"Tiles_red","pbrMetallicRoughness":{"baseColorFactor":[1.0,0.9965,0.9971,1.0],"baseColorTexture":{"index":4},"metallicFactor":0,"roughnessFactor":0.699999988079071}},{"doubleSided":true,"name":"SignPaint","pbrMetallicRoughness":{"baseColorFactor":[0.6038273572921753,0.34239163994789124,0.03310476616024971,1],"metallicFactor":0,"roughnessFactor":0.6000000238418579}}],"meshes":[{"name":"lod","primitives":[{"attributes":{"NORMAL":1,"POSITION":0,"TEXCOORD_0":2},"indices":3,"material":0},{"attributes":{"NORMAL":5,"POSITION":4,"TEXCOORD_0":6},"indices":7,"material":1},{"attributes":{"NORMAL":9,"POSITION":8,"TEXCOORD_0":10},"indices":11,"material":2},{"attributes":{"NORMAL":13,"POSITION":12,"TEXCOORD_0":14},"indices":15,"material":3},{"attributes":{"NORMAL":17,"POSITION":16,"TEXCOORD_0":18},"indices":19,"material":4},{"attributes":{"NORMAL":21,"POSITION":20,"TEXCOORD_0":22},"indices":23,"material":5},{"attributes":{"NORMAL":25,"POSITION":24,"TEXCOORD_0":26},"indices":27,"material":6},{"attributes":{"NORMAL":29,"POSITION":28,"TEXCOORD_0":30},"indices":31,"material":7},{"attributes":{"NORMAL":33,"POSITION":32,"TEXCOORD_0":34},"indices":35,"material":8},{"attributes":{"NORMAL":37,"POSITION":36,"TEXCOORD_0":38},"indices":39,"material":9},{"attributes":{"NORMAL":41,"POSITION":40,"TEXCOORD_0":42},"indices":43,"material":10}]}],"nodes":[{"mesh":0,"name":"lod"}],"scene":0,"scenes":[{"name":"Scene","nodes":[0]}],"textures":[{"source":0},{"source":1},{"source":2},{"source":3},{"source":4}]}
