{"accessors":[{"bufferView":0,"componentType":5126,"count":6325,"type":"VEC3"},{"bufferView":1,"componentType":5126,"count":6325,"max":[4.828754425048828,10.503981590270996,0.7941397428512573],"min":[-4.828754425048828,-0.008544921875,-10.958951950073242],"type":"VEC3"},{"bufferView":2,"componentType":5126,"count":6325,"type":"VEC2"},{"bufferView":3,"componentType":5123,"count":9504,"type":"SCALAR"},{"bufferView":4,"componentType":5126,"count":158,"type":"VEC3"},{"bufferView":5,"componentType":5126,"count":158,"max":[4.003888130187988,5.619254112243652,0.0038883001543581486],"min":[-4.0038886070251465,1.0647618770599365,-10.003888130187988],"type":"VEC3"},{"bufferView":6,"componentType":5123,"count":411,"type":"SCALAR"},{"bufferView":7,"componentType":5126,"count":186,"type":"VEC3"},{"bufferView":8,"componentType":5126,"count":186,"max":[3.989999771118164,10.55300235748291,-4],"min":[1.9516419172286987,0,-8.825141906738281],"type":"VEC3"},{"bufferView":9,"componentType":5126,"count":186,"type":"VEC2"},{"bufferView":10,"componentType":5123,"count":246,"type":"SCALAR"},{"bufferView":11,"componentType":5126,"count":88,"type":"VEC3"},{"bufferView":12,"componentType":5126,"count":88,"max":[4,10.317298889160156,1.1920928955078125e-07],"min":[-4,0,-10],"type":"VEC3"},{"bufferView":13,"componentType":5126,"count":88,"type":"VEC2"},{"bufferView":14,"componentType":5123,"count":126,"type":"SCALAR"},{"bufferView":15,"componentType":5126,"count":364,"type":"VEC3"},{"bufferView":16,"componentType":5126,"count":364,"max":[4.000000476837158,10.49722957611084,1.3113415775478643e-07],"min":[-4.111344814300537,0.8799999952316284,-10.122550964355469],"type":"VEC3"},{"bufferView":17,"componentType":5126,"count":364,"type":"VEC2"},{"bufferView":18,"componentType":5123,"count":765,"type":"SCALAR"},{"bufferView":19,"componentType":5126,"count":719,"type":"VEC3"},{"bufferView":20,"componentType":5126,"count":719,"max":[4.756111145019531,11.01004409790039,0.6689450740814209],"min":[-4.853986740112305,5.4815545082092285,-11.124893188476562],"type":"VEC3"},{"bufferView":21,"componentType":5126,"count":719,"type":"VEC2"},{"bufferView":22,"componentType":5123,"count":966,"type":"SCALAR"}],"asset":{"version":"2.0"},"bufferViews":[{"buffer":0,"byteOffset":0,"byteLength":75900,"target":34962},{"buffer":0,"byteOffset":75900,"byteLength":75900,"target":34962},{"buffer":0,"byteOffset":151800,"byteLength":50600,"target":34962},{"buffer":0,"byteOffset":202400,"byteLength":19008,"target":34963},{"buffer":0,"byteOffset":221408,"byteLength":1896,"target":34962},{"buffer":0,"byteOffset":223304,"byteLength":1896,"target":34962},{"buffer":0,"byteOffset":225200,"byteLength":822,"target":34963},{"buffer":0,"byteOffset":226024,"byteLength":2232,"target":34962},{"buffer":0,"byteOffset":228256,"byteLength":2232,"target":34962},{"buffer":0,"byteOffset":230488,"byteLength":1488,"target":34962},{"buffer":0,"byteOffset":231976,"byteLength":492,"target":34963},{"buffer":0,"byteOffset":232468,"byteLength":1056,"target":34962},{"buffer":0,"byteOffset":233524,"byteLength":1056,"target":34962},{"buffer":0,"byteOffset":234580,"byteLength":704,"target":34962},{"buffer":0,"byteOffset":235284,"byteLength":252,"target":34963},{"buffer":0,"byteOffset":235536,"byteLength":4368,"target":34962},{"buffer":0,"byteOffset":239904,"byteLength":4368,"target":34962},{"buffer":0,"byteOffset":244272,"byteLength":2912,"target":34962},{"buffer":0,"byteOffset":247184,"byteLength":1530,"target":34963},{"buffer":0,"byteOffset":248716,"byteLength":8628,"target":34962},{"buffer":0,"byteOffset":257344,"byteLength":8628,"target":34962},{"buffer":0,"byteOffset":265972,"byteLength":5752,"target":34962},{"buffer":0,"byteOffset":271724,"byteLength":1932,"target":34963}],"buffers":[{"byteLength":273656,"uri":"generated.l_house.bin"}],"images":[{"name":"T_WoodTrim_BaseColor","uri":"../village/T_WoodTrim_BaseColor.png"},{"name":"T_RockTrim_BaseColor","uri":"../village/T_RockTrim_BaseColor.png"},{"name":"T_Brick_BaseColor","uri":"../village/T_Brick_BaseColor.png"},{"name":"T_Plaster_Luma","uri":"../village/T_Plaster_Luma.png"},{"name":"T_RoundTiles_Luma","uri":"../village/T_RoundTiles_Luma.png"}],"materials":[{"doubleSided":true,"name":"Wood_mid","pbrMetallicRoughness":{"baseColorFactor":[0.5179,0.5489,0.5787,1.0],"baseColorTexture":{"index":0},"metallicFactor":0,"roughnessFactor":0.8500000238418579}},{"doubleSided":true,"name":"Glass","pbrMetallicRoughness":{"baseColorFactor":[0.03310476616024971,0.05087608844041824,0.07828831672668457,1],"metallicFactor":0,"roughnessFactor":0.20000000298023224}},{"doubleSided":true,"name":"RockTrim","pbrMetallicRoughness":{"baseColorFactor":[1.0,0.9979,1.0,1.0],"baseColorTexture":{"index":1},"metallicFactor":0,"roughnessFactor":0.8500000238418579}},{"doubleSided":true,"name":"Brick","pbrMetallicRoughness":{"baseColorFactor":[1.0,0.9974,1.0,1.0],"baseColorTexture":{"index":2},"metallicFactor":0,"roughnessFactor":0.8500000238418579}},{"doubleSided":true,"name":"Plaster_cream","pbrMetallicRoughness":{"baseColorFactor":[0.9583,0.7715,0.4434,1.0],"baseColorTexture":{"index":3},"metallicFactor":0,"roughnessFactor":0.8500000238418579}},{"doubleSided":true,"name":"Tiles_green","pbrMetallicRoughness":{"baseColorFactor":[0.2433,0.3541,0.2399,1.0],"baseColorTexture":{"index":4},"metallicFactor":0,"roughnessFactor":0.699999988079071}}],"meshes":[{"name":"lod","primitives":[{"attributes":{"NORMAL":0,"POSITION":1,"TEXCOORD_0":2},"indices":3,"material":0},{"attributes":{"NORMAL":4,"POSITION":5},"indices":6,"material":1},{"attributes":{"NORMAL":7,"POSITION":8,"TEXCOORD_0":9},"indices":10,"material":2},{"attributes":{"NORMAL":11,"POSITION":12,"TEXCOORD_0":13},"indices":14,"material":3},{"attributes":{"NORMAL":15,"POSITION":16,"TEXCOORD_0":17},"indices":18,"material":4},{"attributes":{"NORMAL":19,"POSITION":20,"TEXCOORD_0":21},"indices":22,"material":5}]}],"nodes":[{"mesh":0,"name":"lod"}],"scene":0,"scenes":[{"name":"Scene","nodes":[0]}],"textures":[{"source":0},{"source":1},{"source":2},{"source":3},{"source":4}]}