{"accessors":[{"bufferView":0,"componentType":5126,"count":236,"max":[2.3992793560028076,2.501760959625244,2.3992793560028076],"min":[-2.3992793560028076,0.05000000447034836,-2.3992793560028076],"type":"VEC3"},{"bufferView":1,"componentType":5126,"count":236,"type":"VEC3"},{"bufferView":2,"componentType":5126,"count":236,"type":"VEC2"},{"bufferView":3,"componentType":5123,"count":594,"type":"SCALAR"},{"bufferView":4,"componentType":5126,"count":48,"max":[1.875891089439392,2.4633333683013916,1.9420653581619263],"min":[-1.899429440498352,0.5550000667572021,-1.9420653581619263],"type":"VEC3"},{"bufferView":5,"componentType":5126,"count":48,"type":"VEC3"},{"bufferView":6,"componentType":5126,"count":48,"type":"VEC2"},{"bufferView":7,"componentType":5123,"count":108,"type":"SCALAR"},{"bufferView":8,"componentType":5126,"count":194,"max":[1.958739161491394,2.77561092376709,1.958739161491394],"min":[-1.958739161491394,0.2900000214576721,-1.958739161491394],"type":"VEC3"},{"bufferView":9,"componentType":5126,"count":194,"type":"VEC3"},{"bufferView":10,"componentType":5126,"count":194,"type":"VEC2"},{"bufferView":11,"componentType":5123,"count":234,"type":"SCALAR"},{"bufferView":12,"componentType":5126,"count":84,"max":[1.0953404903411865,3.0115268230438232,1.1007298231124878],"min":[-1.1007298231124878,0.5700000524520874,-1.0876414775848389],"type":"VEC3"},{"bufferView":13,"componentType":5126,"count":84,"type":"VEC3"},{"bufferView":14,"componentType":5126,"count":84,"type":"VEC2"},{"bufferView":15,"componentType":5123,"count":84,"type":"SCALAR"}],"asset":{"version":"2.0"},"bufferViews":[{"buffer":0,"byteLength":2832,"byteOffset":0,"target":34962},{"buffer":0,"byteLength":2832,"byteOffset":2832,"target":34962},{"buffer":0,"byteLength":1888,"byteOffset":5664,"target":34962},{"buffer":0,"byteLength":1188,"byteOffset":7552,"target":34963},{"buffer":0,"byteLength":576,"byteOffset":8740,"target":34962},{"buffer":0,"byteLength":576,"byteOffset":9316,"target":34962},{"buffer":0,"byteLength":384,"byteOffset":9892,"target":34962},{"buffer":0,"byteLength":216,"byteOffset":10276,"target":34963},{"buffer":0,"byteLength":2328,"byteOffset":10492,"target":34962},{"buffer":0,"byteLength":2328,"byteOffset":12820,"target":34962},{"buffer":0,"byteLength":1552,"byteOffset":15148,"target":34962},{"buffer":0,"byteLength":468,"byteOffset":16700,"target":34963},{"buffer":0,"byteLength":1008,"byteOffset":17168,"target":34962},{"buffer":0,"byteLength":1008,"byteOffset":18176,"target":34962},{"buffer":0,"byteLength":672,"byteOffset":19184,"target":34962},{"buffer":0,"byteLength":168,"byteOffset":19856,"target":34963}],"buffers":[{"byteLength":20024,"uri":"generated.fountain.bin"}],"materials":[{"doubleSided":true,"name":"Fountain_Stone","pbrMetallicRoughness":{"baseColorFactor":[0.7400000095367432,0.699999988079071,0.6200000047683716,1],"metallicFactor":0,"roughnessFactor":0.8500000238418579}},{"doubleSided":true,"name":"Fountain_Water","pbrMetallicRoughness":{"baseColorFactor":[0.10000000149011612,0.36000001430511475,0.6200000047683716,1],"metallicFactor":0,"roughnessFactor":0.15000000596046448}},{"doubleSided":true,"name":"Fountain_Trim","pbrMetallicRoughness":{"baseColorFactor":[0.5600000023841858,0.5299999713897705,0.47999998927116394,1],"metallicFactor":0,"roughnessFactor":0.8500000238418579}},{"doubleSided":true,"name":"Fountain_Spill","pbrMetallicRoughness":{"baseColorFactor":[0.4000000059604645,0.699999988079071,0.8999999761581421,1],"metallicFactor":0,"roughnessFactor":0.10000000149011612}}],"meshes":[{"name":"Fountain","primitives":[{"attributes":{"NORMAL":1,"POSITION":0,"TEXCOORD_0":2},"indices":3,"material":0},{"attributes":{"NORMAL":5,"POSITION":4,"TEXCOORD_0":6},"indices":7,"material":1},{"attributes":{"NORMAL":9,"POSITION":8,"TEXCOORD_0":10},"indices":11,"material":2},{"attributes":{"NORMAL":13,"POSITION":12,"TEXCOORD_0":14},"indices":15,"material":3}]}],"nodes":[{"mesh":0,"name":"Fountain"}],"scene":0,"scenes":[{"name":"Scene","nodes":[0]}]}
