{"accessors":[{"bufferView":0,"componentType":5126,"count":101,"type":"VEC3"},{"bufferView":1,"componentType":5126,"count":101,"max":[1.2000000476837158,2.617518186569214,0.8358055353164673],"min":[-1.2000000476837158,0,-0.8419351577758789],"type":"VEC3"},{"bufferView":2,"componentType":5123,"count":117,"type":"SCALAR"},{"bufferView":3,"componentType":5126,"count":113,"type":"VEC3"},{"bufferView":4,"componentType":5126,"count":113,"max":[1.204687476158142,1.375,0.5266226530075073],"min":[-1.3659089803695679,0.02000001072883606,-0.7530648112297058],"type":"VEC3"},{"bufferView":5,"componentType":5123,"count":141,"type":"SCALAR"},{"bufferView":6,"componentType":5126,"count":37,"type":"VEC3"},{"bufferView":7,"componentType":5126,"count":37,"max":[0.3499999940395355,0.9700000286102295,0.5319352149963379],"min":[-0.3499999940395355,0.6699999570846558,-0.188064843416214],"type":"VEC3"},{"bufferView":8,"componentType":5123,"count":51,"type":"SCALAR"},{"bufferView":9,"componentType":5126,"count":99,"type":"VEC3"},{"bufferView":10,"componentType":5126,"count":99,"max":[-0.53342604637146,1.2577848434448242,0.31850913166999817],"min":[-0.96657395362854,1.1333688497543335,0.025361239910125732],"type":"VEC3"},{"bufferView":11,"componentType":5123,"count":150,"type":"SCALAR"},{"bufferView":12,"componentType":5126,"count":100,"type":"VEC3"},{"bufferView":13,"componentType":5126,"count":100,"max":[0.96657395362854,1.2577848434448242,0.31850913166999817],"min":[0.53342604637146,1.1333688497543335,0.025361239910125732],"type":"VEC3"},{"bufferView":14,"componentType":5123,"count":147,"type":"SCALAR"},{"bufferView":15,"componentType":5126,"count":96,"type":"VEC3"},{"bufferView":16,"componentType":5126,"count":96,"max":[0.1852671205997467,1.0796319246292114,0.22720229625701904],"min":[-0.1852671205997467,0.9593237042427063,0.1566680669784546],"type":"VEC3"},{"bufferView":17,"componentType":5123,"count":96,"type":"SCALAR"},{"bufferView":18,"componentType":5126,"count":24,"type":"VEC3"},{"bufferView":19,"componentType":5126,"count":24,"max":[-0.5941986441612244,1.4705077409744263,-0.47226348519325256],"min":[-0.8058013319969177,1.1252522468566895,-0.6838662028312683],"type":"VEC3"},{"bufferView":20,"componentType":5123,"count":24,"type":"SCALAR"},{"bufferView":21,"componentType":5126,"count":93,"type":"VEC3"},{"bufferView":22,"componentType":5126,"count":93,"max":[0.9750000238418579,2.0300002098083496,0.8419351577758789],"min":[-1.3000000715255737,1.6597416400909424,0.8219351768493652],"type":"VEC3"},{"bufferView":23,"componentType":5123,"count":147,"type":"SCALAR"},{"bufferView":24,"componentType":5126,"count":96,"type":"VEC3"},{"bufferView":25,"componentType":5126,"count":96,"max":[1.3000000715255737,2.6446897983551025,0.8419351577758789],"min":[-1.3000000715255737,1.6597416400909424,-0.8286427855491638],"type":"VEC3"},{"bufferView":26,"componentType":5123,"count":150,"type":"SCALAR"}],"asset":{"version":"2.0"},"bufferViews":[{"buffer":0,"byteOffset":0,"byteLength":1212,"target":34962},{"buffer":0,"byteOffset":1212,"byteLength":1212,"target":34962},{"buffer":0,"byteOffset":2424,"byteLength":234,"target":34963},{"buffer":0,"byteOffset":2660,"byteLength":1356,"target":34962},{"buffer":0,"byteOffset":4016,"byteLength":1356,"target":34962},{"buffer":0,"byteOffset":5372,"byteLength":282,"target":34963},{"buffer":0,"byteOffset":5656,"byteLength":444,"target":34962},{"buffer":0,"byteOffset":6100,"byteLength":444,"target":34962},{"buffer":0,"byteOffset":6544,"byteLength":102,"target":34963},{"buffer":0,"byteOffset":6648,"byteLength":1188,"target":34962},{"buffer":0,"byteOffset":7836,"byteLength":1188,"target":34962},{"buffer":0,"byteOffset":9024,"byteLength":300,"target":34963},{"buffer":0,"byteOffset":9324,"byteLength":1200,"target":34962},{"buffer":0,"byteOffset":10524,"byteLength":1200,"target":34962},{"buffer":0,"byteOffset":11724,"byteLength":294,"target":34963},{"buffer":0,"byteOffset":12020,"byteLength":1152,"target":34962},{"buffer":0,"byteOffset":13172,"byteLength":1152,"target":34962},{"buffer":0,"byteOffset":14324,"byteLength":192,"target":34963},{"buffer":0,"byteOffset":14516,"byteLength":288,"target":34962},{"buffer":0,"byteOffset":14804,"byteLength":288,"target":34962},{"buffer":0,"byteOffset":15092,"byteLength":48,"target":34963},{"buffer":0,"byteOffset":15140,"byteLength":1116,"target":34962},{"buffer":0,"byteOffset":16256,"byteLength":1116,"target":34962},{"buffer":0,"byteOffset":17372,"byteLength":294,"target":34963},{"buffer":0,"byteOffset":17668,"byteLength":1152,"target":34962},{"buffer":0,"byteOffset":18820,"byteLength":1152,"target":34962},{"buffer":0,"byteOffset":19972,"byteLength":300,"target":34963}],"buffers":[{"byteLength":20272,"uri":"generated.market_stall.bin"}],"materials":[{"doubleSided":true,"name":"Stall_WoodDark","pbrMetallicRoughness":{"baseColorFactor":[0.3199999928474426,0.1899999976158142,0.09000000357627869,1],"metallicFactor":0,"roughnessFactor":0.8500000238418579}},{"doubleSided":true,"name":"Stall_Wood","pbrMetallicRoughness":{"baseColorFactor":[0.5,0.3100000023841858,0.15000000596046448,1],"metallicFactor":0,"roughnessFactor":0.8500000238418579}},{"doubleSided":true,"name":"Stall_Cloth","pbrMetallicRoughness":{"baseColorFactor":[0.7200000286102295,0.14000000059604645,0.11999999731779099,1],"metallicFactor":0,"roughnessFactor":0.949999988079071}},{"doubleSided":true,"name":"Stall_Apple","pbrMetallicRoughness":{"baseColorFactor":[0.75,0.11999999731779099,0.10000000149011612,1],"metallicFactor":0,"roughnessFactor":0.6000000238418579}},{"doubleSided":true,"name":"Stall_Orange","pbrMetallicRoughness":{"baseColorFactor":[0.9200000166893005,0.5,0.10000000149011612,1],"metallicFactor":0,"roughnessFactor":0.6000000238418579}},{"doubleSided":true,"name":"Stall_Pear","pbrMetallicRoughness":{"baseColorFactor":[0.6200000047683716,0.7200000286102295,0.20000000298023224,1],"metallicFactor":0,"roughnessFactor":0.6000000238418579}},{"doubleSided":true,"name":"Stall_Sack","pbrMetallicRoughness":{"baseColorFactor":[0.7400000095367432,0.6200000047683716,0.41999998688697815,1],"metallicFactor":0}},{"doubleSided":true,"name":"Stall_StripeA","pbrMetallicRoughness":{"baseColorFactor":[0.7200000286102295,0.14000000059604645,0.11999999731779099,1],"metallicFactor":0,"roughnessFactor":0.8999999761581421}},{"doubleSided":true,"name":"Stall_StripeB","pbrMetallicRoughness":{"baseColorFactor":[0.9300000071525574,0.8700000047683716,0.7200000286102295,1],"metallicFactor":0,"roughnessFactor":0.8999999761581421}}],"meshes":[{"name":"market_stall_red","primitives":[{"attributes":{"NORMAL":0,"POSITION":1},"indices":2,"material":0},{"attributes":{"NORMAL":3,"POSITION":4},"indices":5,"material":1},{"attributes":{"NORMAL":6,"POSITION":7},"indices":8,"material":2},{"attributes":{"NORMAL":9,"POSITION":10},"indices":11,"material":3},{"attributes":{"NORMAL":12,"POSITION":13},"indices":14,"material":4},{"attributes":{"NORMAL":15,"POSITION":16},"indices":17,"material":5},{"attributes":{"NORMAL":18,"POSITION":19},"indices":20,"material":6},{"attributes":{"NORMAL":21,"POSITION":22},"indices":23,"material":7},{"attributes":{"NORMAL":24,"POSITION":25},"indices":26,"material":8}]}],"nodes":[{"mesh":0,"name":"market_stall_red"}],"scene":0,"scenes":[{"name":"Scene","nodes":[0]}]}