{"accessors":[{"bufferView":0,"componentType":5126,"count":32,"max":[1.2000000476837158,2.5999999046325684,0.8358055353164673],"min":[-1.2000000476837158,0,-0.8280647993087769],"type":"VEC3"},{"bufferView":1,"componentType":5126,"count":32,"type":"VEC3"},{"bufferView":2,"componentType":5126,"count":32,"type":"VEC2"},{"bufferView":3,"componentType":5123,"count":36,"type":"SCALAR"},{"bufferView":4,"componentType":5126,"count":55,"max":[1.204687476158142,1.2916666269302368,0.5266226530075073],"min":[-1.204687476158142,0.02000001072883606,-0.7530648112297058],"type":"VEC3"},{"bufferView":5,"componentType":5126,"count":55,"type":"VEC3"},{"bufferView":6,"componentType":5126,"count":55,"type":"VEC2"},{"bufferView":7,"componentType":5123,"count":75,"type":"SCALAR"},{"bufferView":8,"componentType":5126,"count":16,"max":[0.3499999940395355,0.9700000286102295,0.5319352149963379],"min":[-0.3499999940395355,0.6699999570846558,-0.18806485831737518],"type":"VEC3"},{"bufferView":9,"componentType":5126,"count":16,"type":"VEC3"},{"bufferView":10,"componentType":5126,"count":16,"type":"VEC2"},{"bufferView":11,"componentType":5123,"count":24,"type":"SCALAR"},{"bufferView":12,"componentType":5126,"count":63,"max":[-0.5182958245277405,1.271640658378601,0.3127107322216034],"min":[-0.9811424612998962,1.0888068675994873,0.016544703394174576],"type":"VEC3"},{"bufferView":13,"componentType":5126,"count":63,"type":"VEC3"},{"bufferView":14,"componentType":5126,"count":63,"type":"VEC2"},{"bufferView":15,"componentType":5123,"count":63,"type":"SCALAR"},{"bufferView":16,"componentType":5126,"count":72,"max":[0.9811424612998962,1.271193265914917,0.3127107322216034],"min":[0.5581261515617371,1.0888067483901978,0.015753138810396194],"type":"VEC3"},{"bufferView":17,"componentType":5126,"count":72,"type":"VEC3"},{"bufferView":18,"componentType":5126,"count":72,"type":"VEC2"},{"bufferView":19,"componentType":5123,"count":72,"type":"SCALAR"},{"bufferView":20,"componentType":5126,"count":21,"max":[0.18086515367031097,1.1047701835632324,0.25769752264022827],"min":[-0.2104509323835373,0.9429281949996948,0.13228484988212585],"type":"VEC3"},{"bufferView":21,"componentType":5126,"count":21,"type":"VEC3"},{"bufferView":22,"componentType":5126,"count":21,"type":"VEC2"},{"bufferView":23,"componentType":5123,"count":21,"type":"SCALAR"},{"bufferView":24,"componentType":5126,"count":24,"max":[-0.5203734040260315,1.5187718868255615,-0.3914892077445984],"min":[-0.8833937644958496,1.0642950534820557,-0.7648994326591492],"type":"VEC3"},{"bufferView":25,"componentType":5126,"count":24,"type":"VEC3"},{"bufferView":26,"componentType":5126,"count":24,"type":"VEC2"},{"bufferView":27,"componentType":5123,"count":36,"type":"SCALAR"},{"bufferView":28,"componentType":5126,"count":174,"max":[0.9814791679382324,2.654069423675537,0.8419351577758789],"min":[-1.3000000715255737,1.671075463294983,-0.8332661986351013],"type":"VEC3"},{"bufferView":29,"componentType":5126,"count":174,"type":"VEC3"},{"bufferView":30,"componentType":5126,"count":174,"type":"VEC2"},{"bufferView":31,"componentType":5123,"count":246,"type":"SCALAR"},{"bufferView":32,"componentType":5126,"count":150,"max":[1.3000000715255737,2.654069423675537,0.8419351577758789],"min":[-0.9823631644248962,1.671075463294983,-0.8332661986351013],"type":"VEC3"},{"bufferView":33,"componentType":5126,"count":150,"type":"VEC3"},{"bufferView":34,"componentType":5126,"count":150,"type":"VEC2"},{"bufferView":35,"componentType":5123,"count":210,"type":"SCALAR"}],"asset":{"version":"2.0"},"bufferViews":[{"buffer":0,"byteLength":384,"byteOffset":0,"target":34962},{"buffer":0,"byteLength":384,"byteOffset":384,"target":34962},{"buffer":0,"byteLength":256,"byteOffset":768,"target":34962},{"buffer":0,"byteLength":72,"byteOffset":1024,"target":34963},{"buffer":0,"byteLength":660,"byteOffset":1096,"target":34962},{"buffer":0,"byteLength":660,"byteOffset":1756,"target":34962},{"buffer":0,"byteLength":440,"byteOffset":2416,"target":34962},{"buffer":0,"byteLength":150,"byteOffset":2856,"target":34963},{"buffer":0,"byteLength":192,"byteOffset":3008,"target":34962},{"buffer":0,"byteLength":192,"byteOffset":3200,"target":34962},{"buffer":0,"byteLength":128,"byteOffset":3392,"target":34962},{"buffer":0,"byteLength":48,"byteOffset":3520,"target":34963},{"buffer":0,"byteLength":756,"byteOffset":3568,"target":34962},{"buffer":0,"byteLength":756,"byteOffset":4324,"target":34962},{"buffer":0,"byteLength":504,"byteOffset":5080,"target":34962},{"buffer":0,"byteLength":126,"byteOffset":5584,"target":34963},{"buffer":0,"byteLength":864,"byteOffset":5712,"target":34962},{"buffer":0,"byteLength":864,"byteOffset":6576,"target":34962},{"buffer":0,"byteLength":576,"byteOffset":7440,"target":34962},{"buffer":0,"byteLength":144,"byteOffset":8016,"target":34963},{"buffer":0,"byteLength":252,"byteOffset":8160,"target":34962},{"buffer":0,"byteLength":252,"byteOffset":8412,"target":34962},{"buffer":0,"byteLength":168,"byteOffset":8664,"target":34962},{"buffer":0,"byteLength":42,"byteOffset":8832,"target":34963},{"buffer":0,"byteLength":288,"byteOffset":8876,"target":34962},{"buffer":0,"byteLength":288,"byteOffset":9164,"target":34962},{"buffer":0,"byteLength":192,"byteOffset":9452,"target":34962},{"buffer":0,"byteLength":72,"byteOffset":9644,"target":34963},{"buffer":0,"byteLength":2088,"byteOffset":9716,"target":34962},{"buffer":0,"byteLength":2088,"byteOffset":11804,"target":34962},{"buffer":0,"byteLength":1392,"byteOffset":13892,"target":34962},{"buffer":0,"byteLength":492,"byteOffset":15284,"target":34963},{"buffer":0,"byteLength":1800,"byteOffset":15776,"target":34962},{"buffer":0,"byteLength":1800,"byteOffset":17576,"target":34962},{"buffer":0,"byteLength":1200,"byteOffset":19376,"target":34962},{"buffer":0,"byteLength":420,"byteOffset":20576,"target":34963}],"buffers":[{"byteLength":20996,"uri":"generated.market_stall_red.bin"}],"materials":[{"doubleSided":true,"name":"Stall_WoodDark","pbrMetallicRoughness":{"baseColorFactor":[0.3199999928474426,0.1899999976158142,0.09000000357627869,1],"metallicFactor":0,"roughnessFactor":0.8500000238418579}},{"doubleSided":true,"name":"Stall_Wood","pbrMetallicRoughness":{"baseColorFactor":[0.5,0.3100000023841858,0.15000000596046448,1],"metallicFactor":0,"roughnessFactor":0.8500000238418579}},{"doubleSided":true,"name":"Stall_Cloth","pbrMetallicRoughness":{"baseColorFactor":[0.7200000286102295,0.14000000059604645,0.11999999731779099,1],"metallicFactor":0,"roughnessFactor":0.949999988079071}},{"doubleSided":true,"name":"Stall_Apple","pbrMetallicRoughness":{"baseColorFactor":[0.75,0.11999999731779099,0.10000000149011612,1],"metallicFactor":0,"roughnessFactor":0.6000000238418579}},{"doubleSided":true,"name":"Stall_Orange","pbrMetallicRoughness":{"baseColorFactor":[0.9200000166893005,0.5,0.10000000149011612,1],"metallicFactor":0,"roughnessFactor":0.6000000238418579}},{"doubleSided":true,"name":"Stall_Pear","pbrMetallicRoughness":{"baseColorFactor":[0.6200000047683716,0.7200000286102295,0.20000000298023224,1],"metallicFactor":0,"roughnessFactor":0.6000000238418579}},{"doubleSided":true,"name":"Stall_Sack","pbrMetallicRoughness":{"baseColorFactor":[0.7400000095367432,0.6200000047683716,0.41999998688697815,1],"metallicFactor":0}},{"doubleSided":true,"name":"Stall_StripeA","pbrMetallicRoughness":{"baseColorFactor":[0.7200000286102295,0.14000000059604645,0.11999999731779099,1],"metallicFactor":0,"roughnessFactor":0.8999999761581421}},{"doubleSided":true,"name":"Stall_StripeB","pbrMetallicRoughness":{"baseColorFactor":[0.9300000071525574,0.8700000047683716,0.7200000286102295,1],"metallicFactor":0,"roughnessFactor":0.8999999761581421}}],"meshes":[{"name":"market_stall_red","primitives":[{"attributes":{"NORMAL":1,"POSITION":0,"TEXCOORD_0":2},"indices":3,"material":0},{"attributes":{"NORMAL":5,"POSITION":4,"TEXCOORD_0":6},"indices":7,"material":1},{"attributes":{"NORMAL":9,"POSITION":8,"TEXCOORD_0":10},"indices":11,"material":2},{"attributes":{"NORMAL":13,"POSITION":12,"TEXCOORD_0":14},"indices":15,"material":3},{"attributes":{"NORMAL":17,"POSITION":16,"TEXCOORD_0":18},"indices":19,"material":4},{"attributes":{"NORMAL":21,"POSITION":20,"TEXCOORD_0":22},"indices":23,"material":5},{"attributes":{"NORMAL":25,"POSITION":24,"TEXCOORD_0":26},"indices":27,"material":6},{"attributes":{"NORMAL":29,"POSITION":28,"TEXCOORD_0":30},"indices":31,"material":7},{"attributes":{"NORMAL":33,"POSITION":32,"TEXCOORD_0":34},"indices":35,"material":8}]}],"nodes":[{"mesh":0,"name":"market_stall_red"}],"scene":0,"scenes":[{"name":"Scene","nodes":[0]}]}
