{"accessors":[{"bufferView":0,"componentType":5126,"count":6265,"max":[5.829983234405518,10.501232147216797,0.21775920689105988],"min":[-5.829983234405518,0.48718446493148804,-11.29268741607666],"type":"VEC3"},{"bufferView":1,"componentType":5126,"count":6265,"type":"VEC3"},{"bufferView":2,"componentType":5126,"count":6265,"type":"VEC2"},{"bufferView":3,"componentType":5123,"count":10605,"type":"SCALAR"},{"bufferView":4,"componentType":5126,"count":17,"max":[1.8500001430511475,10.451231956481934,0.4899999797344208],"min":[-1.8500001430511475,2.820000171661377,-6.753734588623047],"type":"VEC3"},{"bufferView":5,"componentType":5126,"count":17,"type":"VEC3"},{"bufferView":6,"componentType":5126,"count":17,"type":"VEC2"},{"bufferView":7,"componentType":5123,"count":30,"type":"SCALAR"},{"bufferView":8,"componentType":5126,"count":34,"max":[6.661346435546875,12.05123233795166,1.1086556911468506],"min":[-6.661346435546875,5,-12.214037895202637],"type":"VEC3"},{"bufferView":9,"componentType":5126,"count":34,"type":"VEC3"},{"bufferView":10,"componentType":5126,"count":34,"type":"VEC2"},{"bufferView":11,"componentType":5123,"count":48,"type":"SCALAR"},{"bufferView":12,"componentType":5126,"count":440,"max":[5.55657958984375,4.4288811683654785,0.011245884001255035],"min":[-5.55657958984375,2.0971426963806152,-10.737770080566406],"type":"VEC3"},{"bufferView":13,"componentType":5126,"count":440,"type":"VEC3"},{"bufferView":14,"componentType":5126,"count":440,"type":"VEC2"},{"bufferView":15,"componentType":5123,"count":678,"type":"SCALAR"},{"bufferView":16,"componentType":5126,"count":114,"max":[-1.332014799118042,2.3787331581115723,-10.946231842041016],"min":[-1.6221141815185547,1.8374875783920288,-11.175313949584961],"type":"VEC3"},{"bufferView":17,"componentType":5126,"count":114,"type":"VEC3"},{"bufferView":18,"componentType":5126,"count":114,"type":"VEC2"},{"bufferView":19,"componentType":5123,"count":132,"type":"SCALAR"},{"bufferView":20,"componentType":5126,"count":36,"max":[1.8900001049041748,12.951231956481934,0.5800000429153442],"min":[-1.8900001049041748,2.7750000953674316,-5.621973037719727],"type":"VEC3"},{"bufferView":21,"componentType":5126,"count":36,"type":"VEC3"},{"bufferView":22,"componentType":5126,"count":36,"type":"VEC2"},{"bufferView":23,"componentType":5123,"count":36,"type":"SCALAR"},{"bufferView":24,"componentType":5126,"count":17,"max":[0.1599999964237213,12.501232147216797,-5.392691135406494],"min":[-0.1599999964237213,12.251232147216797,-5.712690830230713],"type":"VEC3"},{"bufferView":25,"componentType":5126,"count":17,"type":"VEC3"},{"bufferView":26,"componentType":5126,"count":17,"type":"VEC2"},{"bufferView":27,"componentType":5123,"count":24,"type":"SCALAR"},{"bufferView":28,"componentType":5126,"count":43,"max":[6.37094783782959,1.8650922775268555,1.2000000476837158],"min":[-5.968437194824219,0,-12.322827339172363],"type":"VEC3"},{"bufferView":29,"componentType":5126,"count":43,"type":"VEC3"},{"bufferView":30,"componentType":5126,"count":43,"type":"VEC2"},{"bufferView":31,"componentType":5123,"count":63,"type":"SCALAR"},{"bufferView":32,"componentType":5126,"count":462,"max":[5.5526909828186035,5,1.7881393432617188e-07],"min":[-5.5526909828186035,0.5,-11.105381965637207],"type":"VEC3"},{"bufferView":33,"componentType":5126,"count":462,"type":"VEC3"},{"bufferView":34,"componentType":5126,"count":462,"type":"VEC2"},{"bufferView":35,"componentType":5123,"count":1344,"type":"SCALAR"},{"bufferView":36,"componentType":5126,"count":48,"max":[5.5526909828186035,1.9399999380111694,1.1920928955078125e-07],"min":[-5.5526909828186035,0.5,-11.105381965637207],"type":"VEC3"},{"bufferView":37,"componentType":5126,"count":48,"type":"VEC3"},{"bufferView":38,"componentType":5126,"count":48,"type":"VEC2"},{"bufferView":39,"componentType":5123,"count":72,"type":"SCALAR"}],"asset":{"version":"2.0"},"bufferViews":[{"buffer":0,"byteLength":75180,"byteOffset":0,"target":34962},{"buffer":0,"byteLength":75180,"byteOffset":75180,"target":34962},{"buffer":0,"byteLength":50120,"byteOffset":150360,"target":34962},{"buffer":0,"byteLength":21210,"byteOffset":200480,"target":34963},{"buffer":0,"byteLength":204,"byteOffset":221692,"target":34962},{"buffer":0,"byteLength":204,"byteOffset":221896,"target":34962},{"buffer":0,"byteLength":136,"byteOffset":222100,"target":34962},{"buffer":0,"byteLength":60,"byteOffset":222236,"target":34963},{"buffer":0,"byteLength":408,"byteOffset":222296,"target":34962},{"buffer":0,"byteLength":408,"byteOffset":222704,"target":34962},{"buffer":0,"byteLength":272,"byteOffset":223112,"target":34962},{"buffer":0,"byteLength":96,"byteOffset":223384,"target":34963},{"buffer":0,"byteLength":5280,"byteOffset":223480,"target":34962},{"buffer":0,"byteLength":5280,"byteOffset":228760,"target":34962},{"buffer":0,"byteLength":3520,"byteOffset":234040,"target":34962},{"buffer":0,"byteLength":1356,"byteOffset":237560,"target":34963},{"buffer":0,"byteLength":1368,"byteOffset":238916,"target":34962},{"buffer":0,"byteLength":1368,"byteOffset":240284,"target":34962},{"buffer":0,"byteLength":912,"byteOffset":241652,"target":34962},{"buffer":0,"byteLength":264,"byteOffset":242564,"target":34963},{"buffer":0,"byteLength":432,"byteOffset":242828,"target":34962},{"buffer":0,"byteLength":432,"byteOffset":243260,"target":34962},{"buffer":0,"byteLength":288,"byteOffset":243692,"target":34962},{"buffer":0,"byteLength":72,"byteOffset":243980,"target":34963},{"buffer":0,"byteLength":204,"byteOffset":244052,"target":34962},{"buffer":0,"byteLength":204,"byteOffset":244256,"target":34962},{"buffer":0,"byteLength":136,"byteOffset":244460,"target":34962},{"buffer":0,"byteLength":48,"byteOffset":244596,"target":34963},{"buffer":0,"byteLength":516,"byteOffset":244644,"target":34962},{"buffer":0,"byteLength":516,"byteOffset":245160,"target":34962},{"buffer":0,"byteLength":344,"byteOffset":245676,"target":34962},{"buffer":0,"byteLength":126,"byteOffset":246020,"target":34963},{"buffer":0,"byteLength":5544,"byteOffset":246148,"target":34962},{"buffer":0,"byteLength":5544,"byteOffset":251692,"target":34962},{"buffer":0,"byteLength":3696,"byteOffset":257236,"target":34962},{"buffer":0,"byteLength":2688,"byteOffset":260932,"target":34963},{"buffer":0,"byteLength":576,"byteOffset":263620,"target":34962},{"buffer":0,"byteLength":576,"byteOffset":264196,"target":34962},{"buffer":0,"byteLength":384,"byteOffset":264772,"target":34962},{"buffer":0,"byteLength":144,"byteOffset":265156,"target":34963}],"buffers":[{"byteLength":265300,"uri":"generated.music_hall.bin"}],"images":[{"name":"T_WoodTrim_BaseColor","uri":"../village/T_WoodTrim_BaseColor.png"},{"name":"T_RoundTiles_Luma","uri":"../village/T_RoundTiles_Luma.png"},{"name":"T_MetalOrnaments_BaseColor","uri":"../village/T_MetalOrnaments_BaseColor.png"},{"name":"T_RockTrim_BaseColor","uri":"../village/T_RockTrim_BaseColor.png"},{"name":"T_Plaster_Luma","uri":"../village/T_Plaster_Luma.png"},{"name":"T_Brick_BaseColor","uri":"../village/T_Brick_BaseColor.png"}],"materials":[{"doubleSided":true,"name":"Wood_dark","pbrMetallicRoughness":{"baseColorFactor":[0.2329,0.2659,0.2944,1.0],"baseColorTexture":{"index":0},"metallicFactor":0,"roughnessFactor":0.8500000238418579}},{"doubleSided":true,"emissiveFactor":[1,0.4479884207248688,0.10048151016235352],"name":"LampGlass","pbrMetallicRoughness":{"baseColorFactor":[1,0.5704815983772278,0.1473190039396286,1],"metallicFactor":0,"roughnessFactor":0.8500000238418579}},{"doubleSided":true,"name":"Tiles_teal","pbrMetallicRoughness":{"baseColorFactor":[0.0913,0.2964,0.2915,1.0],"baseColorTexture":{"index":1},"metallicFactor":0,"roughnessFactor":0.699999988079071}},{"doubleSided":true,"name":"Glass","pbrMetallicRoughness":{"baseColorFactor":[0.03310476616024971,0.05087608844041824,0.07828831672668457,1],"metallicFactor":0,"roughnessFactor":0.20000000298023224}},{"doubleSided":true,"name":"Metal","pbrMetallicRoughness":{"baseColorFactor":[1.0,0.9972,0.9945,1.0],"baseColorTexture":{"index":2},"metallicFactor":0,"roughnessFactor":0.5}},{"doubleSided":true,"name":"Iron","pbrMetallicRoughness":{"baseColorFactor":[0.0134117491543293,0.0134117491543293,0.015325203537940979,1],"metallicFactor":0,"roughnessFactor":0.5}},{"doubleSided":true,"name":"SignPaint","pbrMetallicRoughness":{"baseColorFactor":[0.6038273572921753,0.34239163994789124,0.03310476616024971,1],"metallicFactor":0,"roughnessFactor":0.6000000238418579}},{"doubleSided":true,"name":"RockTrim","pbrMetallicRoughness":{"baseColorFactor":[1.0,0.9979,1.0,1.0],"baseColorTexture":{"index":3},"metallicFactor":0,"roughnessFactor":0.8500000238418579}},{"doubleSided":true,"name":"Plaster_white","pbrMetallicRoughness":{"baseColorFactor":[1.0,1.0,0.9092,1.0],"baseColorTexture":{"index":4},"metallicFactor":0,"roughnessFactor":0.8500000238418579}},{"doubleSided":true,"name":"Brick","pbrMetallicRoughness":{"baseColorFactor":[1.0,0.9974,1.0,1.0],"baseColorTexture":{"index":5},"metallicFactor":0,"roughnessFactor":0.8500000238418579}}],"meshes":[{"name":"lod","primitives":[{"attributes":{"NORMAL":1,"POSITION":0,"TEXCOORD_0":2},"indices":3,"material":0},{"attributes":{"NORMAL":5,"POSITION":4,"TEXCOORD_0":6},"indices":7,"material":1},{"attributes":{"NORMAL":9,"POSITION":8,"TEXCOORD_0":10},"indices":11,"material":2},{"attributes":{"NORMAL":13,"POSITION":12,"TEXCOORD_0":14},"indices":15,"material":3},{"attributes":{"NORMAL":17,"POSITION":16,"TEXCOORD_0":18},"indices":19,"material":4},{"attributes":{"NORMAL":21,"POSITION":20,"TEXCOORD_0":22},"indices":23,"material":5},{"attributes":{"NORMAL":25,"POSITION":24,"TEXCOORD_0":26},"indices":27,"material":6},{"attributes":{"NORMAL":29,"POSITION":28,"TEXCOORD_0":30},"indices":31,"material":7},{"attributes":{"NORMAL":33,"POSITION":32,"TEXCOORD_0":34},"indices":35,"material":8},{"attributes":{"NORMAL":37,"POSITION":36,"TEXCOORD_0":38},"indices":39,"material":9}]}],"nodes":[{"mesh":0,"name":"lod"}],"scene":0,"scenes":[{"name":"Scene","nodes":[0]}],"textures":[{"source":0},{"source":1},{"source":2},{"source":3},{"source":4},{"source":5}]}
