{"accessors":[{"bufferView":0,"componentType":5126,"count":2374,"max":[3.568983793258667,3.116764545440674,0.5400766730308533],"min":[-3.568984270095825,-0.008544921875,-5.416857719421387],"type":"VEC3"},{"bufferView":1,"componentType":5126,"count":2374,"type":"VEC3"},{"bufferView":2,"componentType":5126,"count":2374,"type":"VEC2"},{"bufferView":3,"componentType":5123,"count":3606,"type":"SCALAR"},{"bufferView":4,"componentType":5126,"count":216,"max":[3.9000000953674316,6.289999961853027,0.8484940528869629],"min":[-3.9000000953674316,2.562319278717041,-5.848494529724121],"type":"VEC3"},{"bufferView":5,"componentType":5126,"count":216,"type":"VEC3"},{"bufferView":6,"componentType":5126,"count":216,"type":"VEC2"},{"bufferView":7,"componentType":5123,"count":336,"type":"SCALAR"},{"bufferView":8,"componentType":5126,"count":182,"max":[3.0038883686065674,2.6192541122436523,0.011245884001255035],"min":[-3.0038881301879883,1.0647618770599365,-5.003888130187988],"type":"VEC3"},{"bufferView":9,"componentType":5126,"count":182,"type":"VEC3"},{"bufferView":10,"componentType":5126,"count":182,"type":"VEC2"},{"bufferView":11,"componentType":5123,"count":261,"type":"SCALAR"},{"bufferView":12,"componentType":5126,"count":213,"max":[3.000000238418579,5.96999979019165,1.3113415775478643e-07],"min":[-3.000000238418579,0,-5],"type":"VEC3"},{"bufferView":13,"componentType":5126,"count":213,"type":"VEC3"},{"bufferView":14,"componentType":5126,"count":213,"type":"VEC2"},{"bufferView":15,"componentType":5123,"count":543,"type":"SCALAR"},{"bufferView":16,"componentType":5126,"count":18,"max":[2.045778512954712,6.339831829071045,-2.6059913635253906],"min":[1.0999999046325684,3.3959999084472656,-3.594008445739746],"type":"VEC3"},{"bufferView":17,"componentType":5126,"count":18,"type":"VEC3"},{"bufferView":18,"componentType":5126,"count":18,"type":"VEC2"},{"bufferView":19,"componentType":5123,"count":36,"type":"SCALAR"},{"bufferView":20,"componentType":5126,"count":46,"max":[3.8000004291534424,6.019999980926514,0.8000006675720215],"min":[-3.8000001907348633,2.2761011123657227,-5.80000114440918],"type":"VEC3"},{"bufferView":21,"componentType":5126,"count":46,"type":"VEC3"},{"bufferView":22,"componentType":5126,"count":46,"type":"VEC2"},{"bufferView":23,"componentType":5123,"count":72,"type":"SCALAR"},{"bufferView":24,"componentType":5126,"count":8,"max":[1,0.9100615382194519,4.3711395392165286e-08],"min":[-1,0,0],"type":"VEC3"},{"bufferView":25,"componentType":5126,"count":8,"type":"VEC3"},{"bufferView":26,"componentType":5126,"count":8,"type":"VEC2"},{"bufferView":27,"componentType":5123,"count":12,"type":"SCALAR"},{"bufferView":28,"componentType":5126,"count":22,"max":[3.000000238418579,0.8799999952316284,4.371138828673793e-08],"min":[-3.000000238418579,0,-5],"type":"VEC3"},{"bufferView":29,"componentType":5126,"count":22,"type":"VEC3"},{"bufferView":30,"componentType":5126,"count":22,"type":"VEC2"},{"bufferView":31,"componentType":5123,"count":36,"type":"SCALAR"}],"asset":{"version":"2.0"},"bufferViews":[{"buffer":0,"byteLength":28488,"byteOffset":0,"target":34962},{"buffer":0,"byteLength":28488,"byteOffset":28488,"target":34962},{"buffer":0,"byteLength":18992,"byteOffset":56976,"target":34962},{"buffer":0,"byteLength":7212,"byteOffset":75968,"target":34963},{"buffer":0,"byteLength":2592,"byteOffset":83180,"target":34962},{"buffer":0,"byteLength":2592,"byteOffset":85772,"target":34962},{"buffer":0,"byteLength":1728,"byteOffset":88364,"target":34962},{"buffer":0,"byteLength":672,"byteOffset":90092,"target":34963},{"buffer":0,"byteLength":2184,"byteOffset":90764,"target":34962},{"buffer":0,"byteLength":2184,"byteOffset":92948,"target":34962},{"buffer":0,"byteLength":1456,"byteOffset":95132,"target":34962},{"buffer":0,"byteLength":522,"byteOffset":96588,"target":34963},{"buffer":0,"byteLength":2556,"byteOffset":97112,"target":34962},{"buffer":0,"byteLength":2556,"byteOffset":99668,"target":34962},{"buffer":0,"byteLength":1704,"byteOffset":102224,"target":34962},{"buffer":0,"byteLength":1086,"byteOffset":103928,"target":34963},{"buffer":0,"byteLength":216,"byteOffset":105016,"target":34962},{"buffer":0,"byteLength":216,"byteOffset":105232,"target":34962},{"buffer":0,"byteLength":144,"byteOffset":105448,"target":34962},{"buffer":0,"byteLength":72,"byteOffset":105592,"target":34963},{"buffer":0,"byteLength":552,"byteOffset":105664,"target":34962},{"buffer":0,"byteLength":552,"byteOffset":106216,"target":34962},{"buffer":0,"byteLength":368,"byteOffset":106768,"target":34962},{"buffer":0,"byteLength":144,"byteOffset":107136,"target":34963},{"buffer":0,"byteLength":96,"byteOffset":107280,"target":34962},{"buffer":0,"byteLength":96,"byteOffset":107376,"target":34962},{"buffer":0,"byteLength":64,"byteOffset":107472,"target":34962},{"buffer":0,"byteLength":24,"byteOffset":107536,"target":34963},{"buffer":0,"byteLength":264,"byteOffset":107560,"target":34962},{"buffer":0,"byteLength":264,"byteOffset":107824,"target":34962},{"buffer":0,"byteLength":176,"byteOffset":108088,"target":34962},{"buffer":0,"byteLength":72,"byteOffset":108264,"target":34963}],"buffers":[{"byteLength":108336,"uri":"generated.cottage_thatch.bin"}],"images":[{"name":"T_WoodTrim_BaseColor","uri":"../village/T_WoodTrim_BaseColor.png"},{"name":"T_Plaster_Luma","uri":"../village/T_Plaster_Luma.png"},{"name":"T_UnevenBrick_BaseColor","uri":"../village/T_UnevenBrick_BaseColor.png"},{"name":"T_RockTrim_BaseColor","uri":"../village/T_RockTrim_BaseColor.png"},{"name":"T_Brick_BaseColor","uri":"../village/T_Brick_BaseColor.png"}],"materials":[{"doubleSided":true,"name":"Wood_mid","pbrMetallicRoughness":{"baseColorFactor":[0.5179,0.5489,0.5787,1.0],"baseColorTexture":{"index":0},"metallicFactor":0,"roughnessFactor":0.8500000238418579}},{"doubleSided":true,"name":"ThatchDark","pbrMetallicRoughness":{"baseColorFactor":[0.21404114365577698,0.11928018927574158,0.027211781591176987,1],"metallicFactor":0}},{"doubleSided":true,"name":"Glass","pbrMetallicRoughness":{"baseColorFactor":[0.03310476616024971,0.05087608844041824,0.07828831672668457,1],"metallicFactor":0,"roughnessFactor":0.20000000298023224}},{"doubleSided":true,"name":"Plaster_terracotta","pbrMetallicRoughness":{"baseColorFactor":[0.7697,0.3063,0.1781,1.0],"baseColorTexture":{"index":1},"metallicFactor":0,"roughnessFactor":0.8500000238418579}},{"doubleSided":true,"name":"Stone","pbrMetallicRoughness":{"baseColorFactor":[1.0,0.9974,0.9977,1.0],"baseColorTexture":{"index":2},"metallicFactor":0,"roughnessFactor":0.8500000238418579}},{"doubleSided":true,"name":"Thatch","pbrMetallicRoughness":{"baseColorFactor":[0.3931231200695038,0.23302200436592102,0.059253521263599396,1],"metallicFactor":0}},{"doubleSided":true,"name":"RockTrim","pbrMetallicRoughness":{"baseColorFactor":[1.0,0.9979,1.0,1.0],"baseColorTexture":{"index":3},"metallicFactor":0,"roughnessFactor":0.8500000238418579}},{"doubleSided":true,"name":"Brick","pbrMetallicRoughness":{"baseColorFactor":[1.0,0.9974,1.0,1.0],"baseColorTexture":{"index":4},"metallicFactor":0,"roughnessFactor":0.8500000238418579}}],"meshes":[{"name":"lod","primitives":[{"attributes":{"NORMAL":1,"POSITION":0,"TEXCOORD_0":2},"indices":3,"material":0},{"attributes":{"NORMAL":5,"POSITION":4,"TEXCOORD_0":6},"indices":7,"material":1},{"attributes":{"NORMAL":9,"POSITION":8,"TEXCOORD_0":10},"indices":11,"material":2},{"attributes":{"NORMAL":13,"POSITION":12,"TEXCOORD_0":14},"indices":15,"material":3},{"attributes":{"NORMAL":17,"POSITION":16,"TEXCOORD_0":18},"indices":19,"material":4},{"attributes":{"NORMAL":21,"POSITION":20,"TEXCOORD_0":22},"indices":23,"material":5},{"attributes":{"NORMAL":25,"POSITION":24,"TEXCOORD_0":26},"indices":27,"material":6},{"attributes":{"NORMAL":29,"POSITION":28,"TEXCOORD_0":30},"indices":31,"material":7}]}],"nodes":[{"mesh":0,"name":"lod"}],"scene":0,"scenes":[{"name":"Scene","nodes":[0]}],"textures":[{"source":0},{"source":1},{"source":2},{"source":3},{"source":4}]}
