{"accessors":[{"bufferView":0,"componentType":5126,"count":8,"max":[1.899999976158142,5.799999713897705,0.8100000619888306],"min":[-1.899999976158142,3.9010202884674072,0.8100000023841858],"type":"VEC3"},{"bufferView":1,"componentType":5126,"count":8,"type":"VEC3"},{"bufferView":2,"componentType":5126,"count":8,"type":"VEC2"},{"bufferView":3,"componentType":5123,"count":12,"type":"SCALAR"},{"bufferView":4,"componentType":5126,"count":27,"max":[6.395798683166504,13,0.8350000977516174],"min":[-2.890000104904175,2.4050002098083496,0.09000000357627869],"type":"VEC3"},{"bufferView":5,"componentType":5126,"count":27,"type":"VEC3"},{"bufferView":6,"componentType":5126,"count":27,"type":"VEC2"},{"bufferView":7,"componentType":5123,"count":27,"type":"SCALAR"},{"bufferView":8,"componentType":5126,"count":6,"max":[1.6121059656143188,5.33644962310791,0.831428587436676],"min":[-1.7558993101119995,4.814352512359619,0.8278788328170776],"type":"VEC3"},{"bufferView":9,"componentType":5126,"count":6,"type":"VEC3"},{"bufferView":10,"componentType":5126,"count":6,"type":"VEC2"},{"bufferView":11,"componentType":5123,"count":6,"type":"SCALAR"},{"bufferView":12,"componentType":5126,"count":4213,"max":[7.9659247398376465,11.629745483398438,1.7960962057113647],"min":[-6.971485137939453,-1.4704750128657906e-07,-11.099117279052734],"type":"VEC3"},{"bufferView":13,"componentType":5126,"count":4213,"type":"VEC3"},{"bufferView":14,"componentType":5126,"count":4213,"type":"VEC2"},{"bufferView":15,"componentType":5123,"count":4947,"type":"SCALAR"},{"bufferView":16,"componentType":5126,"count":129,"max":[7.615232467651367,7.89415168762207,1.6450217962265015],"min":[-6.0038886070251465,1.0647680759429932,-10.003889083862305],"type":"VEC3"},{"bufferView":17,"componentType":5126,"count":129,"type":"VEC3"},{"bufferView":18,"componentType":5126,"count":129,"type":"VEC2"},{"bufferView":19,"componentType":5123,"count":168,"type":"SCALAR"},{"bufferView":20,"componentType":5126,"count":6,"max":[2.799999952316284,2.390000104904175,0.5399999618530273],"min":[-2.799999952316284,2.070000171661377,0.3400000035762787],"type":"VEC3"},{"bufferView":21,"componentType":5126,"count":6,"type":"VEC3"},{"bufferView":22,"componentType":5126,"count":6,"type":"VEC2"},{"bufferView":23,"componentType":5123,"count":6,"type":"SCALAR"},{"bufferView":24,"componentType":5126,"count":141,"max":[7.623317718505859,10.030052185058594,1.8235421180725098],"min":[-6,-2.3717372509373638e-17,-10],"type":"VEC3"},{"bufferView":25,"componentType":5126,"count":141,"type":"VEC3"},{"bufferView":26,"componentType":5126,"count":141,"type":"VEC2"},{"bufferView":27,"componentType":5123,"count":288,"type":"SCALAR"},{"bufferView":28,"componentType":5126,"count":355,"max":[6.000000953674316,11.336907386779785,1.6412361860275269],"min":[-6.000001430511475,-1.3966399100800281e-15,-10.21567153930664],"type":"VEC3"},{"bufferView":29,"componentType":5126,"count":355,"type":"VEC3"},{"bufferView":30,"componentType":5126,"count":355,"type":"VEC2"},{"bufferView":31,"componentType":5123,"count":747,"type":"SCALAR"},{"bufferView":32,"componentType":5126,"count":1232,"max":[8.360530853271484,12.100359916687012,2.1416029930114746],"min":[-7.008048057556152,5.537780284881592,-11.359929084777832],"type":"VEC3"},{"bufferView":33,"componentType":5126,"count":1232,"type":"VEC3"},{"bufferView":34,"componentType":5126,"count":1232,"type":"VEC2"},{"bufferView":35,"componentType":5123,"count":1788,"type":"SCALAR"},{"bufferView":36,"componentType":5126,"count":18,"max":[7.940737724304199,0.5,1.679718017578125],"min":[5.013786792755127,0,-1.2006909847259521],"type":"VEC3"},{"bufferView":37,"componentType":5126,"count":18,"type":"VEC3"},{"bufferView":38,"componentType":5126,"count":18,"type":"VEC2"},{"bufferView":39,"componentType":5123,"count":18,"type":"SCALAR"}],"asset":{"version":"2.0"},"bufferViews":[{"buffer":0,"byteLength":96,"byteOffset":0,"target":34962},{"buffer":0,"byteLength":96,"byteOffset":96,"target":34962},{"buffer":0,"byteLength":64,"byteOffset":192,"target":34962},{"buffer":0,"byteLength":24,"byteOffset":256,"target":34963},{"buffer":0,"byteLength":324,"byteOffset":280,"target":34962},{"buffer":0,"byteLength":324,"byteOffset":604,"target":34962},{"buffer":0,"byteLength":216,"byteOffset":928,"target":34962},{"buffer":0,"byteLength":54,"byteOffset":1144,"target":34963},{"buffer":0,"byteLength":72,"byteOffset":1200,"target":34962},{"buffer":0,"byteLength":72,"byteOffset":1272,"target":34962},{"buffer":0,"byteLength":48,"byteOffset":1344,"target":34962},{"buffer":0,"byteLength":12,"byteOffset":1392,"target":34963},{"buffer":0,"byteLength":50556,"byteOffset":1404,"target":34962},{"buffer":0,"byteLength":50556,"byteOffset":51960,"target":34962},{"buffer":0,"byteLength":33704,"byteOffset":102516,"target":34962},{"buffer":0,"byteLength":9894,"byteOffset":136220,"target":34963},{"buffer":0,"byteLength":1548,"byteOffset":146116,"target":34962},{"buffer":0,"byteLength":1548,"byteOffset":147664,"target":34962},{"buffer":0,"byteLength":1032,"byteOffset":149212,"target":34962},{"buffer":0,"byteLength":336,"byteOffset":150244,"target":34963},{"buffer":0,"byteLength":72,"byteOffset":150580,"target":34962},{"buffer":0,"byteLength":72,"byteOffset":150652,"target":34962},{"buffer":0,"byteLength":48,"byteOffset":150724,"target":34962},{"buffer":0,"byteLength":12,"byteOffset":150772,"target":34963},{"buffer":0,"byteLength":1692,"byteOffset":150784,"target":34962},{"buffer":0,"byteLength":1692,"byteOffset":152476,"target":34962},{"buffer":0,"byteLength":1128,"byteOffset":154168,"target":34962},{"buffer":0,"byteLength":576,"byteOffset":155296,"target":34963},{"buffer":0,"byteLength":4260,"byteOffset":155872,"target":34962},{"buffer":0,"byteLength":4260,"byteOffset":160132,"target":34962},{"buffer":0,"byteLength":2840,"byteOffset":164392,"target":34962},{"buffer":0,"byteLength":1494,"byteOffset":167232,"target":34963},{"buffer":0,"byteLength":14784,"byteOffset":168728,"target":34962},{"buffer":0,"byteLength":14784,"byteOffset":183512,"target":34962},{"buffer":0,"byteLength":9856,"byteOffset":198296,"target":34962},{"buffer":0,"byteLength":3576,"byteOffset":208152,"target":34963},{"buffer":0,"byteLength":216,"byteOffset":211728,"target":34962},{"buffer":0,"byteLength":216,"byteOffset":211944,"target":34962},{"buffer":0,"byteLength":144,"byteOffset":212160,"target":34962},{"buffer":0,"byteLength":36,"byteOffset":212304,"target":34963}],"buffers":[{"byteLength":212340,"uri":"generated.guild_hall.bin"}],"images":[{"name":"T_WoodTrim_BaseColor","uri":"../village/T_WoodTrim_BaseColor.png"},{"name":"T_UnevenBrick_BaseColor","uri":"../village/T_UnevenBrick_BaseColor.png"},{"name":"T_Plaster_Luma","uri":"../village/T_Plaster_Luma.png"},{"name":"T_RoundTiles_Luma","uri":"../village/T_RoundTiles_Luma.png"},{"name":"T_RockTrim_BaseColor","uri":"../village/T_RockTrim_BaseColor.png"}],"materials":[{"doubleSided":true,"name":"ClothBlue","pbrMetallicRoughness":{"baseColorFactor":[0.027211781591176987,0.07323895394802094,0.2632734179496765,1],"metallicFactor":0,"roughnessFactor":0.8999999761581421}},{"doubleSided":true,"name":"Iron","pbrMetallicRoughness":{"baseColorFactor":[0.0134117491543293,0.0134117491543293,0.015325203537940979,1],"metallicFactor":0,"roughnessFactor":0.5}},{"doubleSided":true,"name":"SignPaint","pbrMetallicRoughness":{"baseColorFactor":[0.6038273572921753,0.34239163994789124,0.03310476616024971,1],"metallicFactor":0,"roughnessFactor":0.6000000238418579}},{"doubleSided":true,"name":"Wood_dark","pbrMetallicRoughness":{"baseColorFactor":[0.2329,0.2659,0.2944,1.0],"baseColorTexture":{"index":0},"metallicFactor":0,"roughnessFactor":0.8500000238418579}},{"doubleSided":true,"name":"Glass","pbrMetallicRoughness":{"baseColorFactor":[0.03310476616024971,0.05087608844041824,0.07828831672668457,1],"metallicFactor":0,"roughnessFactor":0.20000000298023224}},{"doubleSided":true,"emissiveFactor":[1,0.4479884207248688,0.10048151016235352],"name":"LampGlass","pbrMetallicRoughness":{"baseColorFactor":[1,0.5704815983772278,0.1473190039396286,1],"metallicFactor":0,"roughnessFactor":0.8500000238418579}},{"doubleSided":true,"name":"Stone","pbrMetallicRoughness":{"baseColorFactor":[1.0,0.9974,0.9977,1.0],"baseColorTexture":{"index":1},"metallicFactor":0,"roughnessFactor":0.8500000238418579}},{"doubleSided":true,"name":"Plaster_lilac","pbrMetallicRoughness":{"baseColorFactor":[0.7273,0.6123,0.851,1.0],"baseColorTexture":{"index":2},"metallicFactor":0,"roughnessFactor":0.8500000238418579}},{"doubleSided":true,"name":"Tiles_plum","pbrMetallicRoughness":{"baseColorFactor":[0.3092,0.1151,0.1462,1.0],"baseColorTexture":{"index":3},"metallicFactor":0,"roughnessFactor":0.699999988079071}},{"doubleSided":true,"name":"RockTrim","pbrMetallicRoughness":{"baseColorFactor":[1.0,0.9979,1.0,1.0],"baseColorTexture":{"index":4},"metallicFactor":0,"roughnessFactor":0.8500000238418579}}],"meshes":[{"name":"lod","primitives":[{"attributes":{"NORMAL":1,"POSITION":0,"TEXCOORD_0":2},"indices":3,"material":0},{"attributes":{"NORMAL":5,"POSITION":4,"TEXCOORD_0":6},"indices":7,"material":1},{"attributes":{"NORMAL":9,"POSITION":8,"TEXCOORD_0":10},"indices":11,"material":2},{"attributes":{"NORMAL":13,"POSITION":12,"TEXCOORD_0":14},"indices":15,"material":3},{"attributes":{"NORMAL":17,"POSITION":16,"TEXCOORD_0":18},"indices":19,"material":4},{"attributes":{"NORMAL":21,"POSITION":20,"TEXCOORD_0":22},"indices":23,"material":5},{"attributes":{"NORMAL":25,"POSITION":24,"TEXCOORD_0":26},"indices":27,"material":6},{"attributes":{"NORMAL":29,"POSITION":28,"TEXCOORD_0":30},"indices":31,"material":7},{"attributes":{"NORMAL":33,"POSITION":32,"TEXCOORD_0":34},"indices":35,"material":8},{"attributes":{"NORMAL":37,"POSITION":36,"TEXCOORD_0":38},"indices":39,"material":9}]}],"nodes":[{"mesh":0,"name":"lod"}],"scene":0,"scenes":[{"name":"Scene","nodes":[0]}],"textures":[{"source":0},{"source":1},{"source":2},{"source":3},{"source":4}]}
