{"accessors":[{"bufferView":0,"componentType":5126,"count":690,"type":"VEC3"},{"bufferView":1,"componentType":5126,"count":690,"max":[3.439915657043457,7.201552391052246,3.151174783706665],"min":[-3.513524055480957,0.6843829154968262,-2.8020381927490234],"type":"VEC3"},{"bufferView":2,"componentType":5126,"count":690,"type":"VEC2"},{"bufferView":3,"componentType":5123,"count":1080,"type":"SCALAR"},{"bufferView":4,"componentType":5126,"count":2289,"type":"VEC3"},{"bufferView":5,"componentType":5126,"count":2289,"max":[1.322555422782898,6.778788089752197,1.4154813289642334],"min":[-0.8848940134048462,-0.25062790513038635,-1.892602562904358],"type":"VEC3"},{"bufferView":6,"componentType":5126,"count":2289,"type":"VEC2"},{"bufferView":7,"componentType":5123,"count":3207,"type":"SCALAR"}],"asset":{"version":"2.0"},"bufferViews":[{"buffer":0,"byteOffset":0,"byteLength":8280,"target":34962},{"buffer":0,"byteOffset":8280,"byteLength":8280,"target":34962},{"buffer":0,"byteOffset":16560,"byteLength":5520,"target":34962},{"buffer":0,"byteOffset":22080,"byteLength":2160,"target":34963},{"buffer":0,"byteOffset":24240,"byteLength":27468,"target":34962},{"buffer":0,"byteOffset":51708,"byteLength":27468,"target":34962},{"buffer":0,"byteOffset":79176,"byteLength":18312,"target":34962},{"buffer":0,"byteOffset":97488,"byteLength":6414,"target":34963}],"buffers":[{"byteLength":103904,"uri":"nature.Pine_2.bin"}],"images":[{"name":"Leaf_Pine_C","uri":"../nature/Leaf_Pine_C.png"},{"name":"Bark_NormalTree","uri":"../nature/Bark_NormalTree.png"}],"materials":[{"alphaCutoff":0.20000000298023224,"alphaMode":"MASK","doubleSided":true,"name":"Leaves_Pine","pbrMetallicRoughness":{"baseColorTexture":{"index":0},"metallicFactor":0}},{"alphaCutoff":0.20000000298023224,"alphaMode":"MASK","doubleSided":true,"name":"Bark_NormalTree","pbrMetallicRoughness":{"baseColorTexture":{"index":1},"metallicFactor":0}}],"meshes":[{"name":"tree.029","primitives":[{"attributes":{"NORMAL":0,"POSITION":1,"TEXCOORD_0":2},"indices":3,"material":0}]},{"name":"tree.001","primitives":[{"attributes":{"NORMAL":4,"POSITION":5,"TEXCOORD_0":6},"indices":7,"material":1}]}],"nodes":[{"mesh":0,"name":"Pine_2"},{"mesh":1,"name":"Pine_2.001"}],"scene":0,"scenes":[{"name":"Scene","nodes":[0,1]}],"textures":[{"source":0},{"source":1}]}