{"accessors":[{"bufferView":0,"componentType":5126,"count":1912,"max":[2.4091460704803467,7.301299571990967,2.7019214630126953],"min":[-2.514692544937134,2.0814883708953857,-2.2854080200195312],"type":"VEC3"},{"bufferView":1,"componentType":5126,"count":1912,"type":"VEC3"},{"bufferView":2,"componentType":5126,"count":1912,"type":"VEC2"},{"bufferView":3,"componentType":5123,"count":2868,"type":"SCALAR"},{"bufferView":4,"componentType":5126,"count":3001,"max":[1.266628623008728,6.495020389556885,1.353082537651062],"min":[-1.3557347059249878,-0.30414074659347534,-1.126320481300354],"type":"VEC3"},{"bufferView":5,"componentType":5126,"count":3001,"type":"VEC3"},{"bufferView":6,"componentType":5126,"count":3001,"type":"VEC2"},{"bufferView":7,"componentType":5123,"count":4143,"type":"SCALAR"}],"asset":{"version":"2.0"},"bufferViews":[{"buffer":0,"byteLength":22944,"byteOffset":0,"target":34962},{"buffer":0,"byteLength":22944,"byteOffset":22944,"target":34962},{"buffer":0,"byteLength":15296,"byteOffset":45888,"target":34962},{"buffer":0,"byteLength":5736,"byteOffset":61184,"target":34963},{"buffer":0,"byteLength":36012,"byteOffset":66920,"target":34962},{"buffer":0,"byteLength":36012,"byteOffset":102932,"target":34962},{"buffer":0,"byteLength":24008,"byteOffset":138944,"target":34962},{"buffer":0,"byteLength":8286,"byteOffset":162952,"target":34963}],"buffers":[{"byteLength":171240,"uri":"nature.CommonTree_1.bin"}],"images":[{"name":"Leaves_NormalTree_C","uri":"../nature/Leaves_NormalTree_C.png"},{"name":"Bark_NormalTree","uri":"../nature/Bark_NormalTree.png"}],"materials":[{"alphaCutoff":0.20000000298023224,"alphaMode":"MASK","doubleSided":true,"name":"Leaves_NormalTree","pbrMetallicRoughness":{"baseColorTexture":{"index":0},"metallicFactor":0}},{"alphaCutoff":0.20000000298023224,"alphaMode":"MASK","doubleSided":true,"name":"Bark_NormalTree","pbrMetallicRoughness":{"baseColorTexture":{"index":1},"metallicFactor":0}}],"meshes":[{"name":"tree.023","primitives":[{"attributes":{"NORMAL":1,"POSITION":0,"TEXCOORD_0":2},"indices":3,"material":0}]},{"name":"tree.001","primitives":[{"attributes":{"NORMAL":5,"POSITION":4,"TEXCOORD_0":6},"indices":7,"material":1}]}],"nodes":[{"mesh":0,"name":"CommonTree_1"},{"mesh":1,"name":"CommonTree_1.001"}],"scene":0,"scenes":[{"name":"Scene","nodes":[0,1]}],"textures":[{"source":0},{"source":1}]}
