{"accessors":[{"bufferView":0,"componentType":5126,"count":298,"type":"VEC3"},{"bufferView":1,"componentType":5126,"count":298,"max":[0.8452179431915283,1.374233365058899,1.0295015573501587],"min":[-0.7465978860855103,0.22417870163917542,-0.8456394076347351],"type":"VEC3"},{"bufferView":2,"componentType":5126,"count":298,"type":"VEC2"},{"bufferView":3,"componentType":5123,"count":432,"type":"SCALAR"},{"bufferView":4,"componentType":5126,"count":616,"type":"VEC3"},{"bufferView":5,"componentType":5126,"count":616,"max":[1.1824967861175537,1.5896955728530884,1.1773457527160645],"min":[-1.052633285522461,-0.4643426835536957,-1.0971697568893433],"type":"VEC3"},{"bufferView":6,"componentType":5126,"count":616,"type":"VEC2"},{"bufferView":7,"componentType":5123,"count":924,"type":"SCALAR"}],"asset":{"version":"2.0"},"bufferViews":[{"buffer":0,"byteOffset":0,"byteLength":3576,"target":34962},{"buffer":0,"byteOffset":3576,"byteLength":3576,"target":34962},{"buffer":0,"byteOffset":7152,"byteLength":2384,"target":34962},{"buffer":0,"byteOffset":9536,"byteLength":864,"target":34963},{"buffer":0,"byteOffset":10400,"byteLength":7392,"target":34962},{"buffer":0,"byteOffset":17792,"byteLength":7392,"target":34962},{"buffer":0,"byteOffset":25184,"byteLength":4928,"target":34962},{"buffer":0,"byteOffset":30112,"byteLength":1848,"target":34963}],"buffers":[{"byteLength":31960,"uri":"nature.Bush_Common_Flowers.bin"}],"images":[{"name":"Flowers","uri":"../nature/Flowers.png"},{"name":"Leaves_NormalTree_C","uri":"../nature/Leaves_NormalTree_C.png"}],"materials":[{"alphaCutoff":0.20000000298023224,"alphaMode":"MASK","doubleSided":true,"name":"Flowers","pbrMetallicRoughness":{"baseColorTexture":{"index":0},"metallicFactor":0}},{"alphaCutoff":0.20000000298023224,"alphaMode":"MASK","doubleSided":true,"name":"Leaves_NormalTree","pbrMetallicRoughness":{"baseColorTexture":{"index":1},"metallicFactor":0}}],"meshes":[{"name":"tree.009","primitives":[{"attributes":{"NORMAL":0,"POSITION":1,"TEXCOORD_0":2},"indices":3,"material":0}]},{"name":"tree.001","primitives":[{"attributes":{"NORMAL":4,"POSITION":5,"TEXCOORD_0":6},"indices":7,"material":1}]}],"nodes":[{"mesh":0,"name":"Bush_Common_Flowers"},{"mesh":1,"name":"Bush_Common_Flowers.001"}],"scene":0,"scenes":[{"name":"Scene","nodes":[0,1]}],"textures":[{"source":0},{"source":1}]}