{"accessors":[{"bufferView":0,"componentType":5126,"count":1208,"type":"VEC3"},{"bufferView":1,"componentType":5126,"count":1208,"max":[2.6555864810943604,9.661112785339355,2.675565004348755],"min":[-2.55257248878479,2.1251988410949707,-2.6184518337249756],"type":"VEC3"},{"bufferView":2,"componentType":5126,"count":1208,"type":"VEC2"},{"bufferView":3,"componentType":5123,"count":1812,"type":"SCALAR"},{"bufferView":4,"componentType":5126,"count":1315,"type":"VEC3"},{"bufferView":5,"componentType":5126,"count":1315,"max":[1.0308020114898682,7.97797966003418,1.1023304462432861],"min":[-0.8492617607116699,-0.3063712418079376,-0.8658961653709412],"type":"VEC3"},{"bufferView":6,"componentType":5126,"count":1315,"type":"VEC2"},{"bufferView":7,"componentType":5123,"count":1713,"type":"SCALAR"}],"asset":{"version":"2.0"},"bufferViews":[{"buffer":0,"byteOffset":0,"byteLength":14496,"target":34962},{"buffer":0,"byteOffset":14496,"byteLength":14496,"target":34962},{"buffer":0,"byteOffset":28992,"byteLength":9664,"target":34962},{"buffer":0,"byteOffset":38656,"byteLength":3624,"target":34963},{"buffer":0,"byteOffset":42280,"byteLength":15780,"target":34962},{"buffer":0,"byteOffset":58060,"byteLength":15780,"target":34962},{"buffer":0,"byteOffset":73840,"byteLength":10520,"target":34962},{"buffer":0,"byteOffset":84360,"byteLength":3426,"target":34963}],"buffers":[{"byteLength":87788,"uri":"nature.CommonTree_3.bin"}],"images":[{"name":"Leaves_NormalTree_C","uri":"../nature/Leaves_NormalTree_C.png"},{"name":"Bark_NormalTree","uri":"../nature/Bark_NormalTree.png"}],"materials":[{"alphaCutoff":0.20000000298023224,"alphaMode":"MASK","doubleSided":true,"name":"Leaves_NormalTree","pbrMetallicRoughness":{"baseColorTexture":{"index":0},"metallicFactor":0}},{"alphaCutoff":0.20000000298023224,"alphaMode":"MASK","doubleSided":true,"name":"Bark_NormalTree","pbrMetallicRoughness":{"baseColorTexture":{"index":1},"metallicFactor":0}}],"meshes":[{"name":"tree.025","primitives":[{"attributes":{"NORMAL":0,"POSITION":1,"TEXCOORD_0":2},"indices":3,"material":0}]},{"name":"tree.001","primitives":[{"attributes":{"NORMAL":4,"POSITION":5,"TEXCOORD_0":6},"indices":7,"material":1}]}],"nodes":[{"mesh":0,"name":"CommonTree_3"},{"mesh":1,"name":"CommonTree_3.001"}],"scene":0,"scenes":[{"name":"Scene","nodes":[0,1]}],"textures":[{"source":0},{"source":1}]}