{"accessors":[{"bufferView":0,"componentType":5126,"count":548,"type":"VEC3"},{"bufferView":1,"componentType":5126,"count":548,"max":[2.5911903381347656,9.48044204711914,2.201932907104492],"min":[-2.3477015495300293,5.274148464202881,-2.627216339111328],"type":"VEC3"},{"bufferView":2,"componentType":5126,"count":548,"type":"VEC2"},{"bufferView":3,"componentType":5123,"count":822,"type":"SCALAR"},{"bufferView":4,"componentType":5126,"count":1424,"type":"VEC3"},{"bufferView":5,"componentType":5126,"count":1424,"max":[0.9760327935218811,7.945838928222656,0.9469423294067383],"min":[-1.1626752614974976,-0.27171000838279724,-0.8295257687568665],"type":"VEC3"},{"bufferView":6,"componentType":5126,"count":1424,"type":"VEC2"},{"bufferView":7,"componentType":5123,"count":1830,"type":"SCALAR"}],"asset":{"version":"2.0"},"bufferViews":[{"buffer":0,"byteOffset":0,"byteLength":6576,"target":34962},{"buffer":0,"byteOffset":6576,"byteLength":6576,"target":34962},{"buffer":0,"byteOffset":13152,"byteLength":4384,"target":34962},{"buffer":0,"byteOffset":17536,"byteLength":1644,"target":34963},{"buffer":0,"byteOffset":19180,"byteLength":17088,"target":34962},{"buffer":0,"byteOffset":36268,"byteLength":17088,"target":34962},{"buffer":0,"byteOffset":53356,"byteLength":11392,"target":34962},{"buffer":0,"byteOffset":64748,"byteLength":3660,"target":34963}],"buffers":[{"byteLength":68408,"uri":"nature.CommonTree_4.bin"}],"images":[{"name":"Leaves_NormalTree_C","uri":"../nature/Leaves_NormalTree_C.png"},{"name":"Bark_NormalTree","uri":"../nature/Bark_NormalTree.png"}],"materials":[{"alphaCutoff":0.20000000298023224,"alphaMode":"MASK","doubleSided":true,"name":"Leaves_NormalTree","pbrMetallicRoughness":{"baseColorTexture":{"index":0},"metallicFactor":0}},{"alphaCutoff":0.20000000298023224,"alphaMode":"MASK","doubleSided":true,"name":"Bark_NormalTree","pbrMetallicRoughness":{"baseColorTexture":{"index":1},"metallicFactor":0}}],"meshes":[{"name":"tree.026","primitives":[{"attributes":{"NORMAL":0,"POSITION":1,"TEXCOORD_0":2},"indices":3,"material":0}]},{"name":"tree.001","primitives":[{"attributes":{"NORMAL":4,"POSITION":5,"TEXCOORD_0":6},"indices":7,"material":1}]}],"nodes":[{"mesh":0,"name":"CommonTree_4"},{"mesh":1,"name":"CommonTree_4.001"}],"scene":0,"scenes":[{"name":"Scene","nodes":[0,1]}],"textures":[{"source":0},{"source":1}]}