{"accessors":[{"bufferView":0,"componentType":5126,"count":437,"type":"VEC3"},{"bufferView":1,"componentType":5126,"count":437,"max":[3.4058990478515625,7.192455291748047,2.908313751220703],"min":[-3.1059060096740723,1.5242506265640259,-2.490649938583374],"type":"VEC3"},{"bufferView":2,"componentType":5126,"count":437,"type":"VEC2"},{"bufferView":3,"componentType":5123,"count":762,"type":"SCALAR"},{"bufferView":4,"componentType":5126,"count":1879,"type":"VEC3"},{"bufferView":5,"componentType":5126,"count":1879,"max":[1.3389160633087158,6.778263568878174,1.3262922763824463],"min":[-1.0731090307235718,-0.25062790513038635,-1.8895987272262573],"type":"VEC3"},{"bufferView":6,"componentType":5126,"count":1879,"type":"VEC2"},{"bufferView":7,"componentType":5123,"count":2427,"type":"SCALAR"}],"asset":{"version":"2.0"},"bufferViews":[{"buffer":0,"byteOffset":0,"byteLength":5244,"target":34962},{"buffer":0,"byteOffset":5244,"byteLength":5244,"target":34962},{"buffer":0,"byteOffset":10488,"byteLength":3496,"target":34962},{"buffer":0,"byteOffset":13984,"byteLength":1524,"target":34963},{"buffer":0,"byteOffset":15508,"byteLength":22548,"target":34962},{"buffer":0,"byteOffset":38056,"byteLength":22548,"target":34962},{"buffer":0,"byteOffset":60604,"byteLength":15032,"target":34962},{"buffer":0,"byteOffset":75636,"byteLength":4854,"target":34963}],"buffers":[{"byteLength":80492,"uri":"nature.Pine_1.bin"}],"images":[{"name":"Leaf_Pine_C","uri":"../nature/Leaf_Pine_C.png"},{"name":"Bark_NormalTree","uri":"../nature/Bark_NormalTree.png"}],"materials":[{"alphaCutoff":0.20000000298023224,"alphaMode":"MASK","doubleSided":true,"name":"Leaves_Pine","pbrMetallicRoughness":{"baseColorTexture":{"index":0},"metallicFactor":0}},{"alphaCutoff":0.20000000298023224,"alphaMode":"MASK","doubleSided":true,"name":"Bark_NormalTree","pbrMetallicRoughness":{"baseColorTexture":{"index":1},"metallicFactor":0}}],"meshes":[{"name":"tree.028","primitives":[{"attributes":{"NORMAL":0,"POSITION":1,"TEXCOORD_0":2},"indices":3,"material":0}]},{"name":"tree.001","primitives":[{"attributes":{"NORMAL":4,"POSITION":5,"TEXCOORD_0":6},"indices":7,"material":1}]}],"nodes":[{"mesh":0,"name":"Pine_1"},{"mesh":1,"name":"Pine_1.001"}],"scene":0,"scenes":[{"name":"Scene","nodes":[0,1]}],"textures":[{"source":0},{"source":1}]}