{"accessors":[{"bufferView":0,"componentType":5126,"count":628,"type":"VEC3"},{"bufferView":1,"componentType":5126,"count":628,"max":[1.0469058752059937,1.5896955728530884,1.0826811790466309],"min":[-1.0087673664093018,-0.5354089736938477,-1.1390451192855835],"type":"VEC3"},{"bufferView":2,"componentType":5126,"count":628,"type":"VEC2"},{"bufferView":3,"componentType":5123,"count":942,"type":"SCALAR"}],"asset":{"version":"2.0"},"bufferViews":[{"buffer":0,"byteOffset":0,"byteLength":7536,"target":34962},{"buffer":0,"byteOffset":7536,"byteLength":7536,"target":34962},{"buffer":0,"byteOffset":15072,"byteLength":5024,"target":34962},{"buffer":0,"byteOffset":20096,"byteLength":1884,"target":34963}],"buffers":[{"byteLength":21980,"uri":"nature.Bush_Common.bin"}],"images":[{"name":"Leaves_TwistedTree_C","uri":"../nature/Leaves_TwistedTree_C.png"}],"materials":[{"alphaCutoff":0.20000000298023224,"alphaMode":"MASK","doubleSided":true,"name":"Leaves_TwistedTree","pbrMetallicRoughness":{"baseColorTexture":{"index":0},"metallicFactor":0}}],"meshes":[{"name":"tree.008","primitives":[{"attributes":{"NORMAL":0,"POSITION":1,"TEXCOORD_0":2},"indices":3,"material":0}]}],"nodes":[{"mesh":0,"name":"Bush_Common"}],"scene":0,"scenes":[{"name":"Scene","nodes":[0]}],"textures":[{"source":0}]}