{"accessors":[{"bufferView":0,"componentType":5126,"count":1332,"max":[1.9594261646270752,7.092245578765869,2.4038007259368896],"min":[-2.2578163146972656,2.058007001876831,-2.4788005352020264],"type":"VEC3"},{"bufferView":1,"componentType":5126,"count":1332,"type":"VEC3"},{"bufferView":2,"componentType":5126,"count":1332,"type":"VEC2"},{"bufferView":3,"componentType":5123,"count":1998,"type":"SCALAR"},{"bufferView":4,"componentType":5126,"count":1769,"max":[0.8960926532745361,5.449562072753906,0.7929203510284424],"min":[-0.8957228064537048,-0.31571996212005615,-0.9141135215759277],"type":"VEC3"},{"bufferView":5,"componentType":5126,"count":1769,"type":"VEC3"},{"bufferView":6,"componentType":5126,"count":1769,"type":"VEC2"},{"bufferView":7,"componentType":5123,"count":2469,"type":"SCALAR"}],"asset":{"version":"2.0"},"bufferViews":[{"buffer":0,"byteLength":15984,"byteOffset":0,"target":34962},{"buffer":0,"byteLength":15984,"byteOffset":15984,"target":34962},{"buffer":0,"byteLength":10656,"byteOffset":31968,"target":34962},{"buffer":0,"byteLength":3996,"byteOffset":42624,"target":34963},{"buffer":0,"byteLength":21228,"byteOffset":46620,"target":34962},{"buffer":0,"byteLength":21228,"byteOffset":67848,"target":34962},{"buffer":0,"byteLength":14152,"byteOffset":89076,"target":34962},{"buffer":0,"byteLength":4938,"byteOffset":103228,"target":34963}],"buffers":[{"byteLength":108168,"uri":"nature.CommonTree_5.bin"}],"images":[{"name":"Leaves_NormalTree_C","uri":"../nature/Leaves_NormalTree_C.png"},{"name":"Bark_NormalTree","uri":"../nature/Bark_NormalTree.png"}],"materials":[{"alphaCutoff":0.20000000298023224,"alphaMode":"MASK","doubleSided":true,"name":"Leaves_NormalTree","pbrMetallicRoughness":{"baseColorTexture":{"index":0},"metallicFactor":0}},{"alphaCutoff":0.20000000298023224,"alphaMode":"MASK","doubleSided":true,"name":"Bark_NormalTree","pbrMetallicRoughness":{"baseColorTexture":{"index":1},"metallicFactor":0}}],"meshes":[{"name":"tree.027","primitives":[{"attributes":{"NORMAL":1,"POSITION":0,"TEXCOORD_0":2},"indices":3,"material":0}]},{"name":"tree.001","primitives":[{"attributes":{"NORMAL":5,"POSITION":4,"TEXCOORD_0":6},"indices":7,"material":1}]}],"nodes":[{"mesh":0,"name":"CommonTree_5"},{"mesh":1,"name":"CommonTree_5.001"}],"scene":0,"scenes":[{"name":"Scene","nodes":[0,1]}],"textures":[{"source":0},{"source":1}]}
