{"accessors":[{"bufferView":0,"componentType":5126,"count":987,"max":[0.9729019999504089,2.8523812294006348,0.07474174350500107],"min":[-0.9665901064872742,-3.811290662270039e-05,-0.07474163919687271],"type":"VEC3"},{"bufferView":1,"componentType":5126,"count":987,"type":"VEC3"},{"bufferView":2,"componentType":5126,"count":987,"type":"VEC2"},{"bufferView":3,"componentType":5123,"count":1794,"type":"SCALAR"}],"asset":{"version":"2.0"},"bufferViews":[{"buffer":0,"byteLength":11844,"byteOffset":0,"target":34962},{"buffer":0,"byteLength":11844,"byteOffset":11844,"target":34962},{"buffer":0,"byteLength":7896,"byteOffset":23688,"target":34962},{"buffer":0,"byteLength":3588,"byteOffset":31584,"target":34963}],"buffers":[{"byteLength":35172,"uri":"village.Prop_MetalFence_Ornament.bin"}],"images":[{"name":"T_MetalOrnaments_BaseColor","uri":"../village/T_MetalOrnaments_BaseColor.png"}],"materials":[{"doubleSided":true,"name":"MI_MetalOrnaments","pbrMetallicRoughness":{"baseColorTexture":{"index":0}}}],"meshes":[{"name":"Torus.013","primitives":[{"attributes":{"NORMAL":1,"POSITION":0,"TEXCOORD_0":2},"indices":3,"material":0}]}],"nodes":[{"mesh":0,"name":"Prop_MetalFence_Ornament"}],"scene":0,"scenes":[{"name":"Scene","nodes":[0]}],"textures":[{"source":0}]}
