{"accessors":[{"bufferView":0,"componentType":5126,"count":1216,"max":[4.9567179679870605,5.600559711456299,5.858181953430176],"min":[-4.9567179679870605,-0.7799561023712158,-5.851998329162598],"type":"VEC3"},{"bufferView":1,"componentType":5126,"count":1216,"type":"VEC3"},{"bufferView":2,"componentType":5126,"count":1216,"type":"VEC2"},{"bufferView":3,"componentType":5126,"count":1216,"type":"VEC2"},{"bufferView":4,"componentType":5123,"count":1944,"type":"SCALAR"},{"bufferView":5,"componentType":5126,"count":411,"max":[4.975997447967529,6.001367092132568,6.0074462890625],"min":[-4.975997447967529,-0.5717926621437073,-5.844740390777588],"type":"VEC3"},{"bufferView":6,"componentType":5126,"count":411,"type":"VEC3"},{"bufferView":7,"componentType":5126,"count":411,"type":"VEC2"},{"bufferView":8,"componentType":5126,"count":411,"type":"VEC2"},{"bufferView":9,"componentType":5123,"count":567,"type":"SCALAR"}],"asset":{"version":"2.0"},"bufferViews":[{"buffer":0,"byteLength":14592,"byteOffset":0,"target":34962},{"buffer":0,"byteLength":14592,"byteOffset":14592,"target":34962},{"buffer":0,"byteLength":9728,"byteOffset":29184,"target":34962},{"buffer":0,"byteLength":9728,"byteOffset":38912,"target":34962},{"buffer":0,"byteLength":3888,"byteOffset":48640,"target":34963},{"buffer":0,"byteLength":4932,"byteOffset":52528,"target":34962},{"buffer":0,"byteLength":4932,"byteOffset":57460,"target":34962},{"buffer":0,"byteLength":3288,"byteOffset":62392,"target":34962},{"buffer":0,"byteLength":3288,"byteOffset":65680,"target":34962},{"buffer":0,"byteLength":1134,"byteOffset":68968,"target":34963}],"buffers":[{"byteLength":70104,"uri":"village.Roof_RoundTiles_8x10.bin"}],"images":[{"name":"T_WoodTrim_BaseColor","uri":"../village/T_WoodTrim_BaseColor.png"},{"name":"T_RoundTiles_BaseColor","uri":"../village/T_RoundTiles_BaseColor.png"}],"materials":[{"doubleSided":true,"name":"MI_WoodTrim","pbrMetallicRoughness":{"baseColorTexture":{"index":0},"metallicFactor":0}},{"doubleSided":true,"name":"MI_RoundTiles","pbrMetallicRoughness":{"baseColorTexture":{"index":1},"metallicFactor":0}}],"meshes":[{"name":"Cube.066","primitives":[{"attributes":{"NORMAL":1,"POSITION":0,"TEXCOORD_0":2,"TEXCOORD_1":3},"indices":4,"material":0},{"attributes":{"NORMAL":6,"POSITION":5,"TEXCOORD_0":7,"TEXCOORD_1":8},"indices":9,"material":1}]}],"nodes":[{"mesh":0,"name":"Roof_RoundTiles_8x10"}],"scene":0,"scenes":[{"name":"Scene","nodes":[0]}],"textures":[{"source":0},{"source":1}]}
