{"accessors":[{"bufferView":0,"componentType":5126,"count":809,"max":[0.9855080842971802,1.5307010412216187,0.863550066947937],"min":[-0.9893900156021118,-0.021996179595589638,-3.149759531021118],"type":"VEC3"},{"bufferView":1,"componentType":5126,"count":809,"type":"VEC3"},{"bufferView":2,"componentType":5126,"count":809,"type":"VEC2"},{"bufferView":3,"componentType":5126,"count":809,"type":"VEC2"},{"bufferView":4,"componentType":5123,"count":999,"type":"SCALAR"}],"asset":{"version":"2.0"},"bufferViews":[{"buffer":0,"byteLength":9708,"byteOffset":0,"target":34962},{"buffer":0,"byteLength":9708,"byteOffset":9708,"target":34962},{"buffer":0,"byteLength":6472,"byteOffset":19416,"target":34962},{"buffer":0,"byteLength":6472,"byteOffset":25888,"target":34962},{"buffer":0,"byteLength":1998,"byteOffset":32360,"target":34963}],"buffers":[{"byteLength":34360,"uri":"village.Prop_Wagon.bin"}],"images":[{"name":"T_WoodTrim_BaseColor","uri":"../village/T_WoodTrim_BaseColor.png"}],"materials":[{"doubleSided":true,"name":"MI_WoodTrim_Wear","pbrMetallicRoughness":{"baseColorTexture":{"index":0},"metallicFactor":0}}],"meshes":[{"name":"Cube.043","primitives":[{"attributes":{"NORMAL":1,"POSITION":0,"TEXCOORD_0":2,"TEXCOORD_1":3},"indices":4,"material":0}]}],"nodes":[{"mesh":0,"name":"Prop_Wagon"}],"scene":0,"scenes":[{"name":"Scene","nodes":[0]}],"textures":[{"source":0}]}
