{"accessors":[{"bufferView":0,"componentType":5126,"count":290,"max":[0.6906061172485352,2.741780996322632,0.27729204297065735],"min":[-0.6906061172485352,1.0458990335464478,-0.2522830367088318],"type":"VEC3"},{"bufferView":1,"componentType":5126,"count":290,"type":"VEC3"},{"bufferView":2,"componentType":5126,"count":290,"type":"VEC2"},{"bufferView":3,"componentType":5126,"count":290,"type":"VEC2"},{"bufferView":4,"componentType":5123,"count":480,"type":"SCALAR"},{"bufferView":5,"componentType":5126,"count":34,"max":[0.5413169860839844,2.6192541122436523,0.0038883001543581486],"min":[-0.5445477962493896,1.0647618770599365,0.003887913655489683],"type":"VEC3"},{"bufferView":6,"componentType":5126,"count":34,"type":"VEC3"},{"bufferView":7,"componentType":5126,"count":34,"type":"VEC2"},{"bufferView":8,"componentType":5126,"count":34,"type":"VEC2"},{"bufferView":9,"componentType":5123,"count":51,"type":"SCALAR"}],"asset":{"version":"2.0"},"bufferViews":[{"buffer":0,"byteLength":3480,"byteOffset":0,"target":34962},{"buffer":0,"byteLength":3480,"byteOffset":3480,"target":34962},{"buffer":0,"byteLength":2320,"byteOffset":6960,"target":34962},{"buffer":0,"byteLength":2320,"byteOffset":9280,"target":34962},{"buffer":0,"byteLength":960,"byteOffset":11600,"target":34963},{"buffer":0,"byteLength":408,"byteOffset":12560,"target":34962},{"buffer":0,"byteLength":408,"byteOffset":12968,"target":34962},{"buffer":0,"byteLength":272,"byteOffset":13376,"target":34962},{"buffer":0,"byteLength":272,"byteOffset":13648,"target":34962},{"buffer":0,"byteLength":102,"byteOffset":13920,"target":34963}],"buffers":[{"byteLength":14024,"uri":"village.Window_Wide_Round1.bin"}],"images":[{"name":"T_WoodTrim_BaseColor","uri":"../village/T_WoodTrim_BaseColor.png"}],"materials":[{"doubleSided":true,"name":"MI_WoodTrim_Wear","pbrMetallicRoughness":{"baseColorTexture":{"index":0},"metallicFactor":0}},{"alphaMode":"BLEND","doubleSided":true,"name":"MI_WindowGlass","pbrMetallicRoughness":{"baseColorFactor":[0.800000011920929,0.800000011920929,0.800000011920929,0.09545451402664185],"metallicFactor":0,"roughnessFactor":0.5}}],"meshes":[{"name":"Cube.147","primitives":[{"attributes":{"NORMAL":1,"POSITION":0,"TEXCOORD_0":2,"TEXCOORD_1":3},"indices":4,"material":0},{"attributes":{"NORMAL":6,"POSITION":5,"TEXCOORD_0":7,"TEXCOORD_1":8},"indices":9,"material":1}]}],"nodes":[{"mesh":0,"name":"Window_Wide_Round1"}],"scene":0,"scenes":[{"name":"Scene","nodes":[0]}],"textures":[{"source":0}]}
