{"accessors":[{"bufferView":0,"componentType":5126,"count":1682,"max":[0.9789982438087463,2.8683502674102783,0.07802899926900864],"min":[-0.9701056480407715,-1.1920928955078125e-07,-0.07802898436784744],"type":"VEC3"},{"bufferView":1,"componentType":5126,"count":1682,"type":"VEC3"},{"bufferView":2,"componentType":5126,"count":1682,"type":"VEC2"},{"bufferView":3,"componentType":5123,"count":4116,"type":"SCALAR"}],"asset":{"version":"2.0"},"bufferViews":[{"buffer":0,"byteLength":20184,"byteOffset":0,"target":34962},{"buffer":0,"byteLength":20184,"byteOffset":20184,"target":34962},{"buffer":0,"byteLength":13456,"byteOffset":40368,"target":34962},{"buffer":0,"byteLength":8232,"byteOffset":53824,"target":34963}],"buffers":[{"byteLength":62056,"uri":"village.Prop_MetalFence_Simple.bin"}],"images":[{"name":"T_MetalOrnaments_BaseColor","uri":"../village/T_MetalOrnaments_BaseColor.png"}],"materials":[{"doubleSided":true,"name":"MI_MetalOrnaments","pbrMetallicRoughness":{"baseColorTexture":{"index":0}}}],"meshes":[{"name":"Torus.011","primitives":[{"attributes":{"NORMAL":1,"POSITION":0,"TEXCOORD_0":2},"indices":3,"material":0}]}],"nodes":[{"mesh":0,"name":"Prop_MetalFence_Simple"}],"scene":0,"scenes":[{"name":"Scene","nodes":[0]}],"textures":[{"source":0}]}
