{"accessors":[{"bufferView":0,"componentType":5126,"count":295,"type":"VEC3"},{"bufferView":1,"componentType":5126,"count":295,"max":[1.000000238418579,3.116764545440674,0.0924467146396637],"min":[-1.000000238418579,0.6495776176452637,-0.3143526315689087],"type":"VEC3"},{"bufferView":2,"componentType":5126,"count":295,"type":"VEC2"},{"bufferView":3,"componentType":5123,"count":447,"type":"SCALAR"},{"bufferView":4,"componentType":5126,"count":8,"type":"VEC3"},{"bufferView":5,"componentType":5126,"count":8,"max":[1,0.8360880613327026,5.960464477539063e-08],"min":[-1,0,-0.2000001072883606],"type":"VEC3"},{"bufferView":6,"componentType":5126,"count":8,"type":"VEC2"},{"bufferView":7,"componentType":5123,"count":12,"type":"SCALAR"}],"asset":{"version":"2.0"},"bufferViews":[{"buffer":0,"byteOffset":0,"byteLength":3540,"target":34962},{"buffer":0,"byteOffset":3540,"byteLength":3540,"target":34962},{"buffer":0,"byteOffset":7080,"byteLength":2360,"target":34962},{"buffer":0,"byteOffset":9440,"byteLength":894,"target":34963},{"buffer":0,"byteOffset":10336,"byteLength":96,"target":34962},{"buffer":0,"byteOffset":10432,"byteLength":96,"target":34962},{"buffer":0,"byteOffset":10528,"byteLength":64,"target":34962},{"buffer":0,"byteOffset":10592,"byteLength":24,"target":34963}],"buffers":[{"byteLength":10616,"uri":"village.Wall_Plaster_WoodGrid.bin"}],"images":[{"name":"T_WoodTrim_BaseColor","uri":"../village/T_WoodTrim_BaseColor.png"},{"name":"T_Plaster_BaseColor","uri":"../village/T_Plaster_BaseColor.png"}],"materials":[{"doubleSided":true,"name":"MI_WoodTrim","pbrMetallicRoughness":{"baseColorTexture":{"index":0},"metallicFactor":0}},{"doubleSided":true,"name":"MI_Plaster","pbrMetallicRoughness":{"baseColorTexture":{"index":1}}}],"meshes":[{"name":"Cube.118","primitives":[{"attributes":{"NORMAL":0,"POSITION":1,"TEXCOORD_0":2},"indices":3,"material":0},{"attributes":{"NORMAL":4,"POSITION":5,"TEXCOORD_0":6},"indices":7,"material":1}]}],"nodes":[{"mesh":0,"name":"Wall_Plaster_WoodGrid"}],"scene":0,"scenes":[{"name":"Scene","nodes":[0]}],"textures":[{"source":0},{"source":1}]}