{"accessors":[{"bufferView":0,"componentType":5126,"count":151,"type":"VEC3"},{"bufferView":1,"componentType":5126,"count":151,"max":[0.8041172027587891,2.5242881774902344,0.4168574810028076],"min":[-0.8041188716888428,0.9911235570907593,-0.2665805220603943],"type":"VEC3"},{"bufferView":2,"componentType":5126,"count":151,"type":"VEC2"},{"bufferView":3,"componentType":5123,"count":207,"type":"SCALAR"},{"bufferView":4,"componentType":5126,"count":31,"type":"VEC3"},{"bufferView":5,"componentType":5126,"count":31,"max":[0.5054702758789062,2.355356216430664,0.003888234496116638],"min":[-0.5054721832275391,1.0971393585205078,0.0038878247141838074],"type":"VEC3"},{"bufferView":6,"componentType":5123,"count":42,"type":"SCALAR"}],"asset":{"version":"2.0"},"bufferViews":[{"buffer":0,"byteOffset":0,"byteLength":1812,"target":34962},{"buffer":0,"byteOffset":1812,"byteLength":1812,"target":34962},{"buffer":0,"byteOffset":3624,"byteLength":1208,"target":34962},{"buffer":0,"byteOffset":4832,"byteLength":414,"target":34963},{"buffer":0,"byteOffset":5248,"byteLength":372,"target":34962},{"buffer":0,"byteOffset":5620,"byteLength":372,"target":34962},{"buffer":0,"byteOffset":5992,"byteLength":84,"target":34963}],"buffers":[{"byteLength":6076,"uri":"village.Window_Wide_Flat1.bin"}],"images":[{"name":"T_WoodTrim_BaseColor","uri":"../village/T_WoodTrim_BaseColor.png"}],"materials":[{"doubleSided":true,"name":"MI_WoodTrim","pbrMetallicRoughness":{"baseColorTexture":{"index":0},"metallicFactor":0}},{"alphaMode":"BLEND","doubleSided":true,"name":"MI_WindowGlass","pbrMetallicRoughness":{"baseColorFactor":[0.800000011920929,0.800000011920929,0.800000011920929,0.09545451402664185],"metallicFactor":0,"roughnessFactor":0.5}}],"meshes":[{"name":"Cube.153","primitives":[{"attributes":{"NORMAL":0,"POSITION":1,"TEXCOORD_0":2},"indices":3,"material":0},{"attributes":{"NORMAL":4,"POSITION":5},"indices":6,"material":1}]}],"nodes":[{"mesh":0,"name":"Window_Wide_Flat1"}],"scene":0,"scenes":[{"name":"Scene","nodes":[0]}],"textures":[{"source":0}]}