{"accessors":[{"bufferView":0,"componentType":5126,"count":60,"max":[1,3.116764783859253,0.0924467146396637],"min":[-1.0000001192092896,-0.002048476366326213,-0.3140340745449066],"type":"VEC3"},{"bufferView":1,"componentType":5126,"count":60,"type":"VEC3"},{"bufferView":2,"componentType":5126,"count":60,"type":"VEC2"},{"bufferView":3,"componentType":5126,"count":60,"type":"VEC2"},{"bufferView":4,"componentType":5123,"count":78,"type":"SCALAR"},{"bufferView":5,"componentType":5126,"count":8,"max":[1,3,1.3113415775478643e-07],"min":[-1,0,-0.2000000923871994],"type":"VEC3"},{"bufferView":6,"componentType":5126,"count":8,"type":"VEC3"},{"bufferView":7,"componentType":5126,"count":8,"type":"VEC2"},{"bufferView":8,"componentType":5126,"count":8,"type":"VEC2"},{"bufferView":9,"componentType":5123,"count":12,"type":"SCALAR"}],"asset":{"version":"2.0"},"bufferViews":[{"buffer":0,"byteLength":720,"byteOffset":0,"target":34962},{"buffer":0,"byteLength":720,"byteOffset":720,"target":34962},{"buffer":0,"byteLength":480,"byteOffset":1440,"target":34962},{"buffer":0,"byteLength":480,"byteOffset":1920,"target":34962},{"buffer":0,"byteLength":156,"byteOffset":2400,"target":34963},{"buffer":0,"byteLength":96,"byteOffset":2556,"target":34962},{"buffer":0,"byteLength":96,"byteOffset":2652,"target":34962},{"buffer":0,"byteLength":64,"byteOffset":2748,"target":34962},{"buffer":0,"byteLength":64,"byteOffset":2812,"target":34962},{"buffer":0,"byteLength":24,"byteOffset":2876,"target":34963}],"buffers":[{"byteLength":2900,"uri":"village.Wall_Plaster_Straight.bin"}],"images":[{"name":"T_WoodTrim_BaseColor","uri":"../village/T_WoodTrim_BaseColor.png"},{"name":"T_Plaster_BaseColor","uri":"../village/T_Plaster_BaseColor.png"}],"materials":[{"doubleSided":true,"name":"MI_WoodTrim","pbrMetallicRoughness":{"baseColorTexture":{"index":0},"metallicFactor":0}},{"doubleSided":true,"name":"MI_Plaster","pbrMetallicRoughness":{"baseColorTexture":{"index":1}}}],"meshes":[{"name":"Cube.027","primitives":[{"attributes":{"NORMAL":1,"POSITION":0,"TEXCOORD_0":2,"TEXCOORD_1":3},"indices":4,"material":0},{"attributes":{"NORMAL":6,"POSITION":5,"TEXCOORD_0":7,"TEXCOORD_1":8},"indices":9,"material":1}]}],"nodes":[{"mesh":0,"name":"Wall_Plaster_Straight"}],"scene":0,"scenes":[{"name":"Scene","nodes":[0]}],"textures":[{"source":0},{"source":1}]}
