{"accessors":[{"bufferView":0,"componentType":5126,"count":39,"max":[1,3.116764783859253,0.0924467146396637],"min":[-1.0000001192092896,0.6495776176452637,-0.3140353262424469],"type":"VEC3"},{"bufferView":1,"componentType":5126,"count":39,"type":"VEC3"},{"bufferView":2,"componentType":5126,"count":39,"type":"VEC2"},{"bufferView":3,"componentType":5126,"count":39,"type":"VEC2"},{"bufferView":4,"componentType":5123,"count":51,"type":"SCALAR"},{"bufferView":5,"componentType":5126,"count":26,"max":[1,3,1.3113415775478643e-07],"min":[-1,-2.2945312565863184e-16,-0.2000000923871994],"type":"VEC3"},{"bufferView":6,"componentType":5126,"count":26,"type":"VEC3"},{"bufferView":7,"componentType":5126,"count":26,"type":"VEC2"},{"bufferView":8,"componentType":5126,"count":26,"type":"VEC2"},{"bufferView":9,"componentType":5123,"count":78,"type":"SCALAR"}],"asset":{"version":"2.0"},"bufferViews":[{"buffer":0,"byteLength":468,"byteOffset":0,"target":34962},{"buffer":0,"byteLength":468,"byteOffset":468,"target":34962},{"buffer":0,"byteLength":312,"byteOffset":936,"target":34962},{"buffer":0,"byteLength":312,"byteOffset":1248,"target":34962},{"buffer":0,"byteLength":102,"byteOffset":1560,"target":34963},{"buffer":0,"byteLength":312,"byteOffset":1664,"target":34962},{"buffer":0,"byteLength":312,"byteOffset":1976,"target":34962},{"buffer":0,"byteLength":208,"byteOffset":2288,"target":34962},{"buffer":0,"byteLength":208,"byteOffset":2496,"target":34962},{"buffer":0,"byteLength":156,"byteOffset":2704,"target":34963}],"buffers":[{"byteLength":2860,"uri":"village.Wall_Plaster_Window_Wide_Round.bin"}],"images":[{"name":"T_WoodTrim_BaseColor","uri":"../village/T_WoodTrim_BaseColor.png"},{"name":"T_Plaster_BaseColor","uri":"../village/T_Plaster_BaseColor.png"}],"materials":[{"doubleSided":true,"name":"MI_WoodTrim","pbrMetallicRoughness":{"baseColorTexture":{"index":0},"metallicFactor":0}},{"doubleSided":true,"name":"MI_Plaster","pbrMetallicRoughness":{"baseColorTexture":{"index":1}}}],"meshes":[{"name":"Cube.220","primitives":[{"attributes":{"NORMAL":1,"POSITION":0,"TEXCOORD_0":2,"TEXCOORD_1":3},"indices":4,"material":0},{"attributes":{"NORMAL":6,"POSITION":5,"TEXCOORD_0":7,"TEXCOORD_1":8},"indices":9,"material":1}]}],"nodes":[{"mesh":0,"name":"Wall_Plaster_Window_Wide_Round"}],"scene":0,"scenes":[{"name":"Scene","nodes":[0]}],"textures":[{"source":0},{"source":1}]}
