{"accessors":[{"bufferView":0,"componentType":5126,"count":104,"max":[0.7232750654220581,2.545474052429199,0.29893577098846436],"min":[-0.7224602699279785,-0.008544921875,-0.24002820253372192],"type":"VEC3"},{"bufferView":1,"componentType":5126,"count":104,"type":"VEC3"},{"bufferView":2,"componentType":5126,"count":104,"type":"VEC2"},{"bufferView":3,"componentType":5123,"count":192,"type":"SCALAR"}],"asset":{"version":"2.0"},"bufferViews":[{"buffer":0,"byteLength":1248,"byteOffset":0,"target":34962},{"buffer":0,"byteLength":1248,"byteOffset":1248,"target":34962},{"buffer":0,"byteLength":832,"byteOffset":2496,"target":34962},{"buffer":0,"byteLength":384,"byteOffset":3328,"target":34963}],"buffers":[{"byteLength":3712,"uri":"village.DoorFrame_Round_WoodDark.bin"}],"images":[{"name":"T_WoodTrim_BaseColor","uri":"../village/T_WoodTrim_BaseColor.png"}],"materials":[{"doubleSided":true,"name":"MI_WoodTrim","pbrMetallicRoughness":{"baseColorTexture":{"index":0},"metallicFactor":0}}],"meshes":[{"name":"Cube.251","primitives":[{"attributes":{"NORMAL":1,"POSITION":0,"TEXCOORD_0":2},"indices":3,"material":0}]}],"nodes":[{"mesh":0,"name":"DoorFrame_Round_WoodDark"}],"scene":0,"scenes":[{"name":"Scene","nodes":[0]}],"textures":[{"source":0}]}
