{"accessors":[{"bufferView":0,"componentType":5126,"count":43,"max":[1,3.116764545440674,0.0924467146396637],"min":[-1.0000001192092896,0.6495776176452637,-0.3140353262424469],"type":"VEC3"},{"bufferView":1,"componentType":5126,"count":43,"type":"VEC3"},{"bufferView":2,"componentType":5126,"count":43,"type":"VEC2"},{"bufferView":3,"componentType":5126,"count":43,"type":"VEC2"},{"bufferView":4,"componentType":5123,"count":63,"type":"SCALAR"},{"bufferView":5,"componentType":5126,"count":8,"max":[1,3,1.3113415775478643e-07],"min":[-1,-1.4672848666309805e-16,-0.2000000923871994],"type":"VEC3"},{"bufferView":6,"componentType":5126,"count":8,"type":"VEC3"},{"bufferView":7,"componentType":5126,"count":8,"type":"VEC2"},{"bufferView":8,"componentType":5126,"count":8,"type":"VEC2"},{"bufferView":9,"componentType":5123,"count":12,"type":"SCALAR"}],"asset":{"version":"2.0"},"bufferViews":[{"buffer":0,"byteLength":516,"byteOffset":0,"target":34962},{"buffer":0,"byteLength":516,"byteOffset":516,"target":34962},{"buffer":0,"byteLength":344,"byteOffset":1032,"target":34962},{"buffer":0,"byteLength":344,"byteOffset":1376,"target":34962},{"buffer":0,"byteLength":126,"byteOffset":1720,"target":34963},{"buffer":0,"byteLength":96,"byteOffset":1848,"target":34962},{"buffer":0,"byteLength":96,"byteOffset":1944,"target":34962},{"buffer":0,"byteLength":64,"byteOffset":2040,"target":34962},{"buffer":0,"byteLength":64,"byteOffset":2104,"target":34962},{"buffer":0,"byteLength":24,"byteOffset":2168,"target":34963}],"buffers":[{"byteLength":2192,"uri":"village.Wall_Plaster_Straight_Base.bin"}],"images":[{"name":"T_WoodTrim_BaseColor","uri":"../village/T_WoodTrim_BaseColor.png"},{"name":"T_Plaster_BaseColor","uri":"../village/T_Plaster_BaseColor.png"}],"materials":[{"doubleSided":true,"name":"MI_WoodTrim","pbrMetallicRoughness":{"baseColorTexture":{"index":0},"metallicFactor":0}},{"doubleSided":true,"name":"MI_Plaster","pbrMetallicRoughness":{"baseColorTexture":{"index":1}}}],"meshes":[{"name":"Cube.006","primitives":[{"attributes":{"NORMAL":1,"POSITION":0,"TEXCOORD_0":2,"TEXCOORD_1":3},"indices":4,"material":0},{"attributes":{"NORMAL":6,"POSITION":5,"TEXCOORD_0":7,"TEXCOORD_1":8},"indices":9,"material":1}]}],"nodes":[{"mesh":0,"name":"Wall_Plaster_Straight_Base"}],"scene":0,"scenes":[{"name":"Scene","nodes":[0]}],"textures":[{"source":0},{"source":1}]}
