{"accessors":[{"bufferView":0,"componentType":5126,"count":396,"max":[0.43734046816825867,3.1769649982452393,0.4721558392047882],"min":[-0.4508601427078247,2.8398513793945312,-0.43134182691574097],"type":"VEC3"},{"bufferView":1,"componentType":5126,"count":396,"type":"VEC3"},{"bufferView":2,"componentType":5126,"count":396,"type":"VEC2"},{"bufferView":3,"componentType":5123,"count":900,"type":"SCALAR"},{"bufferView":4,"componentType":5126,"count":16,"max":[0.4457784593105316,3,0.5000000596046448],"min":[-0.5000000596046448,5.960464477539063e-08,-0.5000000596046448],"type":"VEC3"},{"bufferView":5,"componentType":5126,"count":16,"type":"VEC3"},{"bufferView":6,"componentType":5126,"count":16,"type":"VEC2"},{"bufferView":7,"componentType":5123,"count":24,"type":"SCALAR"}],"asset":{"version":"2.0"},"bufferViews":[{"buffer":0,"byteLength":4752,"byteOffset":0,"target":34962},{"buffer":0,"byteLength":4752,"byteOffset":4752,"target":34962},{"buffer":0,"byteLength":3168,"byteOffset":9504,"target":34962},{"buffer":0,"byteLength":1800,"byteOffset":12672,"target":34963},{"buffer":0,"byteLength":192,"byteOffset":14472,"target":34962},{"buffer":0,"byteLength":192,"byteOffset":14664,"target":34962},{"buffer":0,"byteLength":128,"byteOffset":14856,"target":34962},{"buffer":0,"byteLength":48,"byteOffset":14984,"target":34963}],"buffers":[{"byteLength":15032,"uri":"village.Prop_Chimney.bin"}],"images":[{"name":"T_RockTrim_BaseColor","uri":"../village/T_RockTrim_BaseColor.png"},{"name":"T_Brick_BaseColor","uri":"../village/T_Brick_BaseColor.png"}],"materials":[{"doubleSided":true,"name":"MI_RockTrim","pbrMetallicRoughness":{"baseColorTexture":{"index":0}}},{"doubleSided":true,"name":"MI_Brick","pbrMetallicRoughness":{"baseColorTexture":{"index":1},"metallicFactor":0}}],"meshes":[{"name":"Cube.017_Retopology.006","primitives":[{"attributes":{"NORMAL":1,"POSITION":0,"TEXCOORD_0":2},"indices":3,"material":0},{"attributes":{"NORMAL":5,"POSITION":4,"TEXCOORD_0":6},"indices":7,"material":1}]}],"nodes":[{"mesh":0,"name":"Prop_Chimney"}],"scene":0,"scenes":[{"name":"Scene","nodes":[0]}],"textures":[{"source":0},{"source":1}]}
