{"accessors":[{"bufferView":0,"componentType":5126,"count":354,"max":[4.256076812744141,5.269639492034912,0.794139564037323],"min":[-4.254717826843262,-0.13180206716060638,-0.25953277945518494],"type":"VEC3"},{"bufferView":1,"componentType":5126,"count":354,"type":"VEC3"},{"bufferView":2,"componentType":5126,"count":354,"type":"VEC2"},{"bufferView":3,"componentType":5123,"count":522,"type":"SCALAR"},{"bufferView":4,"componentType":5126,"count":10,"max":[4.1627702713012695,5.314065933227539,1.6825651982799172e-11],"min":[-4.1627702713012695,0.019167065620422363,-0.24970084428787231],"type":"VEC3"},{"bufferView":5,"componentType":5126,"count":10,"type":"VEC3"},{"bufferView":6,"componentType":5126,"count":10,"type":"VEC2"},{"bufferView":7,"componentType":5123,"count":18,"type":"SCALAR"}],"asset":{"version":"2.0"},"bufferViews":[{"buffer":0,"byteLength":4248,"byteOffset":0,"target":34962},{"buffer":0,"byteLength":4248,"byteOffset":4248,"target":34962},{"buffer":0,"byteLength":2832,"byteOffset":8496,"target":34962},{"buffer":0,"byteLength":1044,"byteOffset":11328,"target":34963},{"buffer":0,"byteLength":120,"byteOffset":12372,"target":34962},{"buffer":0,"byteLength":120,"byteOffset":12492,"target":34962},{"buffer":0,"byteLength":80,"byteOffset":12612,"target":34962},{"buffer":0,"byteLength":36,"byteOffset":12692,"target":34963}],"buffers":[{"byteLength":12728,"uri":"village.Roof_Front_Brick8.bin"}],"images":[{"name":"T_WoodTrim_BaseColor","uri":"../village/T_WoodTrim_BaseColor.png"},{"name":"T_Plaster_BaseColor","uri":"../village/T_Plaster_BaseColor.png"}],"materials":[{"doubleSided":true,"name":"MI_WoodTrim","pbrMetallicRoughness":{"baseColorTexture":{"index":0},"metallicFactor":0}},{"doubleSided":true,"name":"MI_Plaster","pbrMetallicRoughness":{"baseColorTexture":{"index":1}}}],"meshes":[{"name":"Cube.166","primitives":[{"attributes":{"NORMAL":1,"POSITION":0,"TEXCOORD_0":2},"indices":3,"material":0},{"attributes":{"NORMAL":5,"POSITION":4,"TEXCOORD_0":6},"indices":7,"material":1}]}],"nodes":[{"mesh":0,"name":"Roof_Front_Brick8"}],"scene":0,"scenes":[{"name":"Scene","nodes":[0]}],"textures":[{"source":0},{"source":1}]}
