{"accessors":[{"bufferView":0,"componentType":5126,"count":274,"max":[1.0716030597686768,2.3558475971221924,0.06528931111097336],"min":[-0.043106503784656525,0.033089637756347656,-0.06549837440252304],"type":"VEC3"},{"bufferView":1,"componentType":5126,"count":274,"type":"VEC3"},{"bufferView":2,"componentType":5126,"count":274,"type":"VEC2"},{"bufferView":3,"componentType":5126,"count":274,"type":"VEC2"},{"bufferView":4,"componentType":5123,"count":564,"type":"SCALAR"},{"bufferView":5,"componentType":5126,"count":732,"max":[1.009713888168335,2.2858057022094727,0.09196425974369049],"min":[0.0035822317004203796,0.1197616457939148,-0.11758767068386078],"type":"VEC3"},{"bufferView":6,"componentType":5126,"count":732,"type":"VEC3"},{"bufferView":7,"componentType":5126,"count":732,"type":"VEC2"},{"bufferView":8,"componentType":5126,"count":732,"type":"VEC2"},{"bufferView":9,"componentType":5123,"count":1278,"type":"SCALAR"}],"asset":{"version":"2.0"},"bufferViews":[{"buffer":0,"byteLength":3288,"byteOffset":0,"target":34962},{"buffer":0,"byteLength":3288,"byteOffset":3288,"target":34962},{"buffer":0,"byteLength":2192,"byteOffset":6576,"target":34962},{"buffer":0,"byteLength":2192,"byteOffset":8768,"target":34962},{"buffer":0,"byteLength":1128,"byteOffset":10960,"target":34963},{"buffer":0,"byteLength":8784,"byteOffset":12088,"target":34962},{"buffer":0,"byteLength":8784,"byteOffset":20872,"target":34962},{"buffer":0,"byteLength":5856,"byteOffset":29656,"target":34962},{"buffer":0,"byteLength":5856,"byteOffset":35512,"target":34962},{"buffer":0,"byteLength":2556,"byteOffset":41368,"target":34963}],"buffers":[{"byteLength":43924,"uri":"village.Door_4_Round.bin"}],"images":[{"name":"T_WoodTrim_BaseColor","uri":"../village/T_WoodTrim_BaseColor.png"},{"name":"T_MetalOrnaments_BaseColor","uri":"../village/T_MetalOrnaments_BaseColor.png"}],"materials":[{"doubleSided":true,"name":"MI_WoodTrim_Wear","pbrMetallicRoughness":{"baseColorTexture":{"index":0},"metallicFactor":0}},{"doubleSided":true,"name":"MI_MetalOrnaments","pbrMetallicRoughness":{"baseColorTexture":{"index":1}}}],"meshes":[{"name":"Cube.195","primitives":[{"attributes":{"NORMAL":1,"POSITION":0,"TEXCOORD_0":2,"TEXCOORD_1":3},"indices":4,"material":0},{"attributes":{"NORMAL":6,"POSITION":5,"TEXCOORD_0":7,"TEXCOORD_1":8},"indices":9,"material":1}]}],"nodes":[{"mesh":0,"name":"Door_4_Round"}],"scene":0,"scenes":[{"name":"Scene","nodes":[0]}],"textures":[{"source":0},{"source":1}]}
