{"accessors":[{"bufferView":0,"componentType":5126,"count":16,"max":[1,3,1.3113415775478643e-07],"min":[-1,-2.5132322518916226e-16,-0.2000000923871994],"type":"VEC3"},{"bufferView":1,"componentType":5126,"count":16,"type":"VEC3"},{"bufferView":2,"componentType":5126,"count":16,"type":"VEC2"},{"bufferView":3,"componentType":5126,"count":16,"type":"VEC2"},{"bufferView":4,"componentType":5123,"count":48,"type":"SCALAR"},{"bufferView":5,"componentType":5126,"count":44,"max":[1,3.116764545440674,0.0924467146396637],"min":[-1.0000001192092896,0.6495776176452637,-0.3140353262424469],"type":"VEC3"},{"bufferView":6,"componentType":5126,"count":44,"type":"VEC3"},{"bufferView":7,"componentType":5126,"count":44,"type":"VEC2"},{"bufferView":8,"componentType":5126,"count":44,"type":"VEC2"},{"bufferView":9,"componentType":5123,"count":66,"type":"SCALAR"}],"asset":{"version":"2.0"},"bufferViews":[{"buffer":0,"byteLength":192,"byteOffset":0,"target":34962},{"buffer":0,"byteLength":192,"byteOffset":192,"target":34962},{"buffer":0,"byteLength":128,"byteOffset":384,"target":34962},{"buffer":0,"byteLength":128,"byteOffset":512,"target":34962},{"buffer":0,"byteLength":96,"byteOffset":640,"target":34963},{"buffer":0,"byteLength":528,"byteOffset":736,"target":34962},{"buffer":0,"byteLength":528,"byteOffset":1264,"target":34962},{"buffer":0,"byteLength":352,"byteOffset":1792,"target":34962},{"buffer":0,"byteLength":352,"byteOffset":2144,"target":34962},{"buffer":0,"byteLength":132,"byteOffset":2496,"target":34963}],"buffers":[{"byteLength":2628,"uri":"village.Wall_Plaster_Window_Wide_Flat.bin"}],"images":[{"name":"T_Plaster_BaseColor","uri":"../village/T_Plaster_BaseColor.png"},{"name":"T_WoodTrim_BaseColor","uri":"../village/T_WoodTrim_BaseColor.png"}],"materials":[{"doubleSided":true,"name":"MI_Plaster","pbrMetallicRoughness":{"baseColorTexture":{"index":0}}},{"doubleSided":true,"name":"MI_WoodTrim","pbrMetallicRoughness":{"baseColorTexture":{"index":1},"metallicFactor":0}}],"meshes":[{"name":"Plane.030","primitives":[{"attributes":{"NORMAL":1,"POSITION":0,"TEXCOORD_0":2,"TEXCOORD_1":3},"indices":4,"material":0},{"attributes":{"NORMAL":6,"POSITION":5,"TEXCOORD_0":7,"TEXCOORD_1":8},"indices":9,"material":1}]}],"nodes":[{"mesh":0,"name":"Wall_Plaster_Window_Wide_Flat"}],"scene":0,"scenes":[{"name":"Scene","nodes":[0]}],"textures":[{"source":0},{"source":1}]}
