{
  "accessors": [
    {
      "bufferView": 0,
      "componentType": 5126,
      "count": 24,
      "max": [
        0.625,
        3.4000000953674316,
        3.205000162124634
      ],
      "min": [
        -0.625,
        1,
        3.075000047683716
      ],
      "type": "VEC3"
    },
    {
      "bufferView": 1,
      "componentType": 5126,
      "count": 24,
      "type": "VEC3"
    },
    {
      "bufferView": 2,
      "componentType": 5126,
      "count": 24,
      "type": "VEC2"
    },
    {
      "bufferView": 3,
      "componentType": 5123,
      "count": 36,
      "type": "SCALAR"
    },
    {
      "bufferView": 4,
      "componentType": 5126,
      "count": 120,
      "max": [
        3.0999999046325684,
        19.375,
        3.0999999046325684
      ],
      "min": [
        -3.0999999046325684,
        19.025001525878906,
        -3.0999999046325684
      ],
      "type": "VEC3"
    },
    {
      "bufferView": 5,
      "componentType": 5126,
      "count": 120,
      "type": "VEC3"
    },
    {
      "bufferView": 6,
      "componentType": 5126,
      "count": 120,
      "type": "VEC2"
    },
    {
      "bufferView": 7,
      "componentType": 5123,
      "count": 228,
      "type": "SCALAR"
    },
    {
      "bufferView": 9,
      "componentType": 5126,
      "count": 320,
      "max": [
        2.9600000381469727,
        20.35999870300293,
        2.9600000381469727
      ],
      "min": [
        -2.9600000381469727,
        20.239999771118164,
        -2.9600000381469727
      ],
      "type": "VEC3"
    },
    {
      "bufferView": 10,
      "componentType": 5126,
      "count": 320,
      "type": "VEC3"
    },
    {
      "bufferView": 11,
      "componentType": 5126,
      "count": 320,
      "type": "VEC2"
    },
    {
      "bufferView": 12,
      "componentType": 5123,
      "count": 480,
      "type": "SCALAR"
    },
    {
      "bufferView": 13,
      "componentType": 5126,
      "count": 36,
      "max": [
        1.8779422044754028,
        22,
        0.09000000357627869
      ],
      "min": [
        1.7220577001571655,
        19.400001525878906,
        -0.09000000357627869
      ],
      "type": "VEC3"
    },
    {
      "bufferView": 14,
      "componentType": 5126,
      "count": 36,
      "type": "VEC3"
    },
    {
      "bufferView": 15,
      "componentType": 5126,
      "count": 36,
      "type": "VEC2"
    },
    {
      "bufferView": 16,
      "componentType": 5123,
      "count": 60,
      "type": "SCALAR"
    },
    {
      "bufferView": 17,
      "componentType": 5126,
      "count": 36,
      "max": [
        1.3507344722747803,
        22,
        -1.1827921867370605
      ],
      "min": [
        1.194849967956543,
        19.400001525878906,
        -1.3627922534942627
      ],
      "type": "VEC3"
    },
    {
      "bufferView": 18,
      "componentType": 5126,
      "count": 36,
      "type": "VEC3"
    },
    {
      "bufferView": 19,
      "componentType": 5126,
      "count": 36,
      "type": "VEC2"
    },
    {
      "bufferView": 20,
      "componentType": 5126,
      "count": 36,
      "max": [
        0.07794229686260223,
        22,
        -1.709999918937683
      ],
      "min": [
        -0.07794229686260223,
        19.400001525878906,
        -1.8899999856948853
      ],
      "type": "VEC3"
    },
    {
      "bufferView": 21,
      "componentType": 5126,
      "count": 36,
      "type": "VEC3"
    },
    {
      "bufferView": 22,
      "componentType": 5126,
      "count": 36,
      "type": "VEC2"
    },
    {
      "bufferView": 23,
      "componentType": 5126,
      "count": 36,
      "max": [
        -1.194849967956543,
        22,
        -1.1827921867370605
      ],
      "min": [
        -1.3507344722747803,
        19.400001525878906,
        -1.3627922534942627
      ],
      "type": "VEC3"
    },
    {
      "bufferView": 24,
      "componentType": 5126,
      "count": 36,
      "type": "VEC3"
    },
    {
      "bufferView": 25,
      "componentType": 5126,
      "count": 36,
      "type": "VEC2"
    },
    {
      "bufferView": 26,
      "componentType": 5126,
      "count": 36,
      "max": [
        -1.7220577001571655,
        22,
        0.09000000357627869
      ],
      "min": [
        -1.8779422044754028,
        19.400001525878906,
        -0.09000000357627869
      ],
      "type": "VEC3"
    },
    {
      "bufferView": 27,
      "componentType": 5126,
      "count": 36,
      "type": "VEC3"
    },
    {
      "bufferView": 28,
      "componentType": 5126,
      "count": 36,
      "type": "VEC2"
    },
    {
      "bufferView": 29,
      "componentType": 5126,
      "count": 36,
      "max": [
        -1.194849967956543,
        22,
        1.3627922534942627
      ],
      "min": [
        -1.3507344722747803,
        19.400001525878906,
        1.1827921867370605
      ],
      "type": "VEC3"
    },
    {
      "bufferView": 30,
      "componentType": 5126,
      "count": 36,
      "type": "VEC3"
    },
    {
      "bufferView": 31,
      "componentType": 5126,
      "count": 36,
      "type": "VEC2"
    },
    {
      "bufferView": 32,
      "componentType": 5126,
      "count": 36,
      "max": [
        0.07794229686260223,
        22,
        1.8899999856948853
      ],
      "min": [
        -0.07794229686260223,
        19.400001525878906,
        1.709999918937683
      ],
      "type": "VEC3"
    },
    {
      "bufferView": 33,
      "componentType": 5126,
      "count": 36,
      "type": "VEC3"
    },
    {
      "bufferView": 34,
      "componentType": 5126,
      "count": 36,
      "type": "VEC2"
    },
    {
      "bufferView": 35,
      "componentType": 5126,
      "count": 36,
      "max": [
        1.3507344722747803,
        22,
        1.3627922534942627
      ],
      "min": [
        1.194849967956543,
        19.400001525878906,
        1.1827921867370605
      ],
      "type": "VEC3"
    },
    {
      "bufferView": 36,
      "componentType": 5126,
      "count": 36,
      "type": "VEC3"
    },
    {
      "bufferView": 37,
      "componentType": 5126,
      "count": 36,
      "type": "VEC2"
    },
    {
      "bufferView": 38,
      "componentType": 5126,
      "count": 480,
      "max": [
        0.800000011920929,
        21.399999618530273,
        0.7999999523162842
      ],
      "min": [
        -0.7999999523162842,
        19.80000114440918,
        -0.800000011920929
      ],
      "type": "VEC3"
    },
    {
      "bufferView": 39,
      "componentType": 5126,
      "count": 480,
      "type": "VEC3"
    },
    {
      "bufferView": 40,
      "componentType": 5126,
      "count": 480,
      "type": "VEC2"
    },
    {
      "bufferView": 41,
      "componentType": 5123,
      "count": 672,
      "type": "SCALAR"
    },
    {
      "bufferView": 42,
      "componentType": 5126,
      "count": 120,
      "max": [
        4,
        1,
        4
      ],
      "min": [
        -4,
        0,
        -4
      ],
      "type": "VEC3"
    },
    {
      "bufferView": 43,
      "componentType": 5126,
      "count": 120,
      "type": "VEC3"
    },
    {
      "bufferView": 44,
      "componentType": 5126,
      "count": 120,
      "type": "VEC2"
    },
    {
      "bufferView": 45,
      "componentType": 5126,
      "count": 24,
      "max": [
        2.955000162124634,
        20.299999237060547,
        0.054999999701976776
      ],
      "min": [
        2.8450000286102295,
        19.299999237060547,
        -0.054999999701976776
      ],
      "type": "VEC3"
    },
    {
      "bufferView": 46,
      "componentType": 5126,
      "count": 24,
      "type": "VEC3"
    },
    {
      "bufferView": 47,
      "componentType": 5126,
      "count": 24,
      "type": "VEC2"
    },
    {
      "bufferView": 48,
      "componentType": 5123,
      "count": 36,
      "type": "SCALAR"
    },
    {
      "bufferView": 49,
      "componentType": 5126,
      "count": 24,
      "max": [
        2.813063859939575,
        20.299999237060547,
        -0.8411492705345154
      ],
      "min": [
        2.703063726425171,
        19.299999237060547,
        -0.9511492848396301
      ],
      "type": "VEC3"
    },
    {
      "bufferView": 50,
      "componentType": 5126,
      "count": 24,
      "type": "VEC3"
    },
    {
      "bufferView": 51,
      "componentType": 5126,
      "count": 24,
      "type": "VEC2"
    },
    {
      "bufferView": 52,
      "componentType": 5126,
      "count": 24,
      "max": [
        2.401149272918701,
        20.299999237060547,
        -1.649577260017395
      ],
      "min": [
        2.291149139404297,
        19.299999237060547,
        -1.7595771551132202
      ],
      "type": "VEC3"
    },
    {
      "bufferView": 53,
      "componentType": 5126,
      "count": 24,
      "type": "VEC3"
    },
    {
      "bufferView": 54,
      "componentType": 5126,
      "count": 24,
      "type": "VEC2"
    },
    {
      "bufferView": 55,
      "componentType": 5126,
      "count": 24,
      "max": [
        1.7595771551132202,
        20.299999237060547,
        -2.291149139404297
      ],
      "min": [
        1.649577260017395,
        19.299999237060547,
        -2.401149272918701
      ],
      "type": "VEC3"
    },
    {
      "bufferView": 56,
      "componentType": 5126,
      "count": 24,
      "type": "VEC3"
    },
    {
      "bufferView": 57,
      "componentType": 5126,
      "count": 24,
      "type": "VEC2"
    },
    {
      "bufferView": 58,
      "componentType": 5126,
      "count": 24,
      "max": [
        0.9511492848396301,
        20.299999237060547,
        -2.703063726425171
      ],
      "min": [
        0.8411492705345154,
        19.299999237060547,
        -2.813063859939575
      ],
      "type": "VEC3"
    },
    {
      "bufferView": 59,
      "componentType": 5126,
      "count": 24,
      "type": "VEC3"
    },
    {
      "bufferView": 60,
      "componentType": 5126,
      "count": 24,
      "type": "VEC2"
    },
    {
      "bufferView": 61,
      "componentType": 5126,
      "count": 24,
      "max": [
        0.054999999701976776,
        20.299999237060547,
        -2.8450000286102295
      ],
      "min": [
        -0.054999999701976776,
        19.299999237060547,
        -2.955000162124634
      ],
      "type": "VEC3"
    },
    {
      "bufferView": 62,
      "componentType": 5126,
      "count": 24,
      "type": "VEC3"
    },
    {
      "bufferView": 63,
      "componentType": 5126,
      "count": 24,
      "type": "VEC2"
    },
    {
      "bufferView": 64,
      "componentType": 5126,
      "count": 24,
      "max": [
        -0.8411492705345154,
        20.299999237060547,
        -2.703063726425171
      ],
      "min": [
        -0.9511492848396301,
        19.299999237060547,
        -2.813063859939575
      ],
      "type": "VEC3"
    },
    {
      "bufferView": 65,
      "componentType": 5126,
      "count": 24,
      "type": "VEC3"
    },
    {
      "bufferView": 66,
      "componentType": 5126,
      "count": 24,
      "type": "VEC2"
    },
    {
      "bufferView": 67,
      "componentType": 5126,
      "count": 24,
      "max": [
        -1.649577260017395,
        20.299999237060547,
        -2.291149139404297
      ],
      "min": [
        -1.7595771551132202,
        19.299999237060547,
        -2.401149272918701
      ],
      "type": "VEC3"
    },
    {
      "bufferView": 68,
      "componentType": 5126,
      "count": 24,
      "type": "VEC3"
    },
    {
      "bufferView": 69,
      "componentType": 5126,
      "count": 24,
      "type": "VEC2"
    },
    {
      "bufferView": 70,
      "componentType": 5126,
      "count": 24,
      "max": [
        -2.291149139404297,
        20.299999237060547,
        -1.649577260017395
      ],
      "min": [
        -2.401149272918701,
        19.299999237060547,
        -1.7595771551132202
      ],
      "type": "VEC3"
    },
    {
      "bufferView": 71,
      "componentType": 5126,
      "count": 24,
      "type": "VEC3"
    },
    {
      "bufferView": 72,
      "componentType": 5126,
      "count": 24,
      "type": "VEC2"
    },
    {
      "bufferView": 73,
      "componentType": 5126,
      "count": 24,
      "max": [
        -2.703063726425171,
        20.299999237060547,
        -0.8411492705345154
      ],
      "min": [
        -2.813063859939575,
        19.299999237060547,
        -0.9511492848396301
      ],
      "type": "VEC3"
    },
    {
      "bufferView": 74,
      "componentType": 5126,
      "count": 24,
      "type": "VEC3"
    },
    {
      "bufferView": 75,
      "componentType": 5126,
      "count": 24,
      "type": "VEC2"
    },
    {
      "bufferView": 76,
      "componentType": 5126,
      "count": 24,
      "max": [
        -2.8450000286102295,
        20.299999237060547,
        0.054999999701976776
      ],
      "min": [
        -2.955000162124634,
        19.299999237060547,
        -0.054999999701976776
      ],
      "type": "VEC3"
    },
    {
      "bufferView": 77,
      "componentType": 5126,
      "count": 24,
      "type": "VEC3"
    },
    {
      "bufferView": 78,
      "componentType": 5126,
      "count": 24,
      "type": "VEC2"
    },
    {
      "bufferView": 79,
      "componentType": 5126,
      "count": 24,
      "max": [
        -2.703063726425171,
        20.299999237060547,
        0.9511492848396301
      ],
      "min": [
        -2.813063859939575,
        19.299999237060547,
        0.8411492705345154
      ],
      "type": "VEC3"
    },
    {
      "bufferView": 80,
      "componentType": 5126,
      "count": 24,
      "type": "VEC3"
    },
    {
      "bufferView": 81,
      "componentType": 5126,
      "count": 24,
      "type": "VEC2"
    },
    {
      "bufferView": 82,
      "componentType": 5126,
      "count": 24,
      "max": [
        -2.291149139404297,
        20.299999237060547,
        1.7595771551132202
      ],
      "min": [
        -2.401149272918701,
        19.299999237060547,
        1.649577260017395
      ],
      "type": "VEC3"
    },
    {
      "bufferView": 83,
      "componentType": 5126,
      "count": 24,
      "type": "VEC3"
    },
    {
      "bufferView": 84,
      "componentType": 5126,
      "count": 24,
      "type": "VEC2"
    },
    {
      "bufferView": 85,
      "componentType": 5126,
      "count": 24,
      "max": [
        -1.649577260017395,
        20.299999237060547,
        2.401149272918701
      ],
      "min": [
        -1.7595771551132202,
        19.299999237060547,
        2.291149139404297
      ],
      "type": "VEC3"
    },
    {
      "bufferView": 86,
      "componentType": 5126,
      "count": 24,
      "type": "VEC3"
    },
    {
      "bufferView": 87,
      "componentType": 5126,
      "count": 24,
      "type": "VEC2"
    },
    {
      "bufferView": 88,
      "componentType": 5126,
      "count": 24,
      "max": [
        -0.8411492705345154,
        20.299999237060547,
        2.813063859939575
      ],
      "min": [
        -0.9511492848396301,
        19.299999237060547,
        2.703063726425171
      ],
      "type": "VEC3"
    },
    {
      "bufferView": 89,
      "componentType": 5126,
      "count": 24,
      "type": "VEC3"
    },
    {
      "bufferView": 90,
      "componentType": 5126,
      "count": 24,
      "type": "VEC2"
    },
    {
      "bufferView": 91,
      "componentType": 5126,
      "count": 24,
      "max": [
        0.054999999701976776,
        20.299999237060547,
        2.955000162124634
      ],
      "min": [
        -0.054999999701976776,
        19.299999237060547,
        2.8450000286102295
      ],
      "type": "VEC3"
    },
    {
      "bufferView": 92,
      "componentType": 5126,
      "count": 24,
      "type": "VEC3"
    },
    {
      "bufferView": 93,
      "componentType": 5126,
      "count": 24,
      "type": "VEC2"
    },
    {
      "bufferView": 94,
      "componentType": 5126,
      "count": 24,
      "max": [
        0.9511492848396301,
        20.299999237060547,
        2.813063859939575
      ],
      "min": [
        0.8411492705345154,
        19.299999237060547,
        2.703063726425171
      ],
      "type": "VEC3"
    },
    {
      "bufferView": 95,
      "componentType": 5126,
      "count": 24,
      "type": "VEC3"
    },
    {
      "bufferView": 96,
      "componentType": 5126,
      "count": 24,
      "type": "VEC2"
    },
    {
      "bufferView": 97,
      "componentType": 5126,
      "count": 24,
      "max": [
        1.7595771551132202,
        20.299999237060547,
        2.401149272918701
      ],
      "min": [
        1.649577260017395,
        19.299999237060547,
        2.291149139404297
      ],
      "type": "VEC3"
    },
    {
      "bufferView": 98,
      "componentType": 5126,
      "count": 24,
      "type": "VEC3"
    },
    {
      "bufferView": 99,
      "componentType": 5126,
      "count": 24,
      "type": "VEC2"
    },
    {
      "bufferView": 100,
      "componentType": 5126,
      "count": 24,
      "max": [
        2.401149272918701,
        20.299999237060547,
        1.7595771551132202
      ],
      "min": [
        2.291149139404297,
        19.299999237060547,
        1.649577260017395
      ],
      "type": "VEC3"
    },
    {
      "bufferView": 101,
      "componentType": 5126,
      "count": 24,
      "type": "VEC3"
    },
    {
      "bufferView": 102,
      "componentType": 5126,
      "count": 24,
      "type": "VEC2"
    },
    {
      "bufferView": 103,
      "componentType": 5126,
      "count": 24,
      "max": [
        2.813063859939575,
        20.299999237060547,
        0.9511492848396301
      ],
      "min": [
        2.703063726425171,
        19.299999237060547,
        0.8411492705345154
      ],
      "type": "VEC3"
    },
    {
      "bufferView": 104,
      "componentType": 5126,
      "count": 24,
      "type": "VEC3"
    },
    {
      "bufferView": 105,
      "componentType": 5126,
      "count": 24,
      "type": "VEC2"
    },
    {
      "bufferView": 106,
      "componentType": 5126,
      "count": 64,
      "max": [
        2.4000000953674316,
        23.350000381469727,
        2.4000000953674316
      ],
      "min": [
        -2.4000000953674316,
        21.850000381469727,
        -2.4000000953674316
      ],
      "type": "VEC3"
    },
    {
      "bufferView": 107,
      "componentType": 5126,
      "count": 64,
      "type": "VEC3"
    },
    {
      "bufferView": 108,
      "componentType": 5126,
      "count": 64,
      "type": "VEC2"
    },
    {
      "bufferView": 109,
      "componentType": 5123,
      "count": 90,
      "type": "SCALAR"
    },
    {
      "bufferView": 110,
      "componentType": 5126,
      "count": 120,
      "max": [
        3.137777805328369,
        3.0999999046325684,
        3.137777805328369
      ],
      "min": [
        -3.137777805328369,
        2.9000000953674316,
        -3.137777805328369
      ],
      "type": "VEC3"
    },
    {
      "bufferView": 111,
      "componentType": 5126,
      "count": 120,
      "type": "VEC3"
    },
    {
      "bufferView": 112,
      "componentType": 5126,
      "count": 120,
      "type": "VEC2"
    },
    {
      "bufferView": 113,
      "componentType": 5126,
      "count": 120,
      "max": [
        2.8933334350585938,
        7.099999904632568,
        2.8933334350585938
      ],
      "min": [
        -2.8933334350585938,
        6.900000095367432,
        -2.8933334350585938
      ],
      "type": "VEC3"
    },
    {
      "bufferView": 114,
      "componentType": 5126,
      "count": 120,
      "type": "VEC3"
    },
    {
      "bufferView": 115,
      "componentType": 5126,
      "count": 120,
      "type": "VEC2"
    },
    {
      "bufferView": 116,
      "componentType": 5126,
      "count": 120,
      "max": [
        2.6488888263702393,
        11.100000381469727,
        2.6488888263702393
      ],
      "min": [
        -2.6488888263702393,
        10.899999618530273,
        -2.6488888263702393
      ],
      "type": "VEC3"
    },
    {
      "bufferView": 117,
      "componentType": 5126,
      "count": 120,
      "type": "VEC3"
    },
    {
      "bufferView": 118,
      "componentType": 5126,
      "count": 120,
      "type": "VEC2"
    },
    {
      "bufferView": 119,
      "componentType": 5126,
      "count": 120,
      "max": [
        2.404444456100464,
        15.100000381469727,
        2.404444456100464
      ],
      "min": [
        -2.404444456100464,
        14.899999618530273,
        -2.404444456100464
      ],
      "type": "VEC3"
    },
    {
      "bufferView": 120,
      "componentType": 5126,
      "count": 120,
      "type": "VEC3"
    },
    {
      "bufferView": 121,
      "componentType": 5126,
      "count": 120,
      "type": "VEC2"
    },
    {
      "bufferView": 122,
      "componentType": 5126,
      "count": 120,
      "max": [
        3.200000047683716,
        19,
        3.200000047683716
      ],
      "min": [
        -3.200000047683716,
        1,
        -3.200000047683716
      ],
      "type": "VEC3"
    },
    {
      "bufferView": 123,
      "componentType": 5126,
      "count": 120,
      "type": "VEC3"
    },
    {
      "bufferView": 124,
      "componentType": 5126,
      "count": 120,
      "type": "VEC2"
    },
    {
      "bufferView": 125,
      "componentType": 5126,
      "count": 24,
      "max": [
        0.32499998807907104,
        6.550000190734863,
        2.969444513320923
      ],
      "min": [
        -0.32499998807907104,
        5.449999809265137,
        2.819444417953491
      ],
      "type": "VEC3"
    },
    {
      "bufferView": 126,
      "componentType": 5126,
      "count": 24,
      "type": "VEC3"
    },
    {
      "bufferView": 127,
      "componentType": 5126,
      "count": 24,
      "type": "VEC2"
    },
    {
      "bufferView": 128,
      "componentType": 5126,
      "count": 24,
      "max": [
        0.32499998807907104,
        10.550000190734863,
        2.7250001430511475
      ],
      "min": [
        -0.32499998807907104,
        9.449999809265137,
        2.575000047683716
      ],
      "type": "VEC3"
    },
    {
      "bufferView": 129,
      "componentType": 5126,
      "count": 24,
      "type": "VEC3"
    },
    {
      "bufferView": 130,
      "componentType": 5126,
      "count": 24,
      "type": "VEC2"
    },
    {
      "bufferView": 131,
      "componentType": 5126,
      "count": 24,
      "max": [
        0.32499998807907104,
        14.550000190734863,
        2.480555534362793
      ],
      "min": [
        -0.32499998807907104,
        13.449999809265137,
        2.3305554389953613
      ],
      "type": "VEC3"
    },
    {
      "bufferView": 132,
      "componentType": 5126,
      "count": 24,
      "type": "VEC3"
    },
    {
      "bufferView": 133,
      "componentType": 5126,
      "count": 24,
      "type": "VEC2"
    }
  ],
  "asset": {
    "generator": "Khronos glTF Blender I/O v5.2.40",
    "version": "2.0"
  },
  "bufferViews": [
    {
      "buffer": 0,
      "byteLength": 288,
      "byteOffset": 0,
      "target": 34962
    },
    {
      "buffer": 0,
      "byteLength": 288,
      "byteOffset": 288,
      "target": 34962
    },
    {
      "buffer": 0,
      "byteLength": 192,
      "byteOffset": 576,
      "target": 34962
    },
    {
      "buffer": 0,
      "byteLength": 72,
      "byteOffset": 768,
      "target": 34963
    },
    {
      "buffer": 0,
      "byteLength": 1440,
      "byteOffset": 840,
      "target": 34962
    },
    {
      "buffer": 0,
      "byteLength": 1440,
      "byteOffset": 2280,
      "target": 34962
    },
    {
      "buffer": 0,
      "byteLength": 960,
      "byteOffset": 3720,
      "target": 34962
    },
    {
      "buffer": 0,
      "byteLength": 456,
      "byteOffset": 4680,
      "target": 34963
    },
    {
      "buffer": 0,
      "byteLength": 22702,
      "byteOffset": 5136
    },
    {
      "buffer": 0,
      "byteLength": 3840,
      "byteOffset": 27840,
      "target": 34962
    },
    {
      "buffer": 0,
      "byteLength": 3840,
      "byteOffset": 31680,
      "target": 34962
    },
    {
      "buffer": 0,
      "byteLength": 2560,
      "byteOffset": 35520,
      "target": 34962
    },
    {
      "buffer": 0,
      "byteLength": 960,
      "byteOffset": 38080,
      "target": 34963
    },
    {
      "buffer": 0,
      "byteLength": 432,
      "byteOffset": 39040,
      "target": 34962
    },
    {
      "buffer": 0,
      "byteLength": 432,
      "byteOffset": 39472,
      "target": 34962
    },
    {
      "buffer": 0,
      "byteLength": 288,
      "byteOffset": 39904,
      "target": 34962
    },
    {
      "buffer": 0,
      "byteLength": 120,
      "byteOffset": 40192,
      "target": 34963
    },
    {
      "buffer": 0,
      "byteLength": 432,
      "byteOffset": 40312,
      "target": 34962
    },
    {
      "buffer": 0,
      "byteLength": 432,
      "byteOffset": 40744,
      "target": 34962
    },
    {
      "buffer": 0,
      "byteLength": 288,
      "byteOffset": 41176,
      "target": 34962
    },
    {
      "buffer": 0,
      "byteLength": 432,
      "byteOffset": 41464,
      "target": 34962
    },
    {
      "buffer": 0,
      "byteLength": 432,
      "byteOffset": 41896,
      "target": 34962
    },
    {
      "buffer": 0,
      "byteLength": 288,
      "byteOffset": 42328,
      "target": 34962
    },
    {
      "buffer": 0,
      "byteLength": 432,
      "byteOffset": 42616,
      "target": 34962
    },
    {
      "buffer": 0,
      "byteLength": 432,
      "byteOffset": 43048,
      "target": 34962
    },
    {
      "buffer": 0,
      "byteLength": 288,
      "byteOffset": 43480,
      "target": 34962
    },
    {
      "buffer": 0,
      "byteLength": 432,
      "byteOffset": 43768,
      "target": 34962
    },
    {
      "buffer": 0,
      "byteLength": 432,
      "byteOffset": 44200,
      "target": 34962
    },
    {
      "buffer": 0,
      "byteLength": 288,
      "byteOffset": 44632,
      "target": 34962
    },
    {
      "buffer": 0,
      "byteLength": 432,
      "byteOffset": 44920,
      "target": 34962
    },
    {
      "buffer": 0,
      "byteLength": 432,
      "byteOffset": 45352,
      "target": 34962
    },
    {
      "buffer": 0,
      "byteLength": 288,
      "byteOffset": 45784,
      "target": 34962
    },
    {
      "buffer": 0,
      "byteLength": 432,
      "byteOffset": 46072,
      "target": 34962
    },
    {
      "buffer": 0,
      "byteLength": 432,
      "byteOffset": 46504,
      "target": 34962
    },
    {
      "buffer": 0,
      "byteLength": 288,
      "byteOffset": 46936,
      "target": 34962
    },
    {
      "buffer": 0,
      "byteLength": 432,
      "byteOffset": 47224,
      "target": 34962
    },
    {
      "buffer": 0,
      "byteLength": 432,
      "byteOffset": 47656,
      "target": 34962
    },
    {
      "buffer": 0,
      "byteLength": 288,
      "byteOffset": 48088,
      "target": 34962
    },
    {
      "buffer": 0,
      "byteLength": 5760,
      "byteOffset": 48376,
      "target": 34962
    },
    {
      "buffer": 0,
      "byteLength": 5760,
      "byteOffset": 54136,
      "target": 34962
    },
    {
      "buffer": 0,
      "byteLength": 3840,
      "byteOffset": 59896,
      "target": 34962
    },
    {
      "buffer": 0,
      "byteLength": 1344,
      "byteOffset": 63736,
      "target": 34963
    },
    {
      "buffer": 0,
      "byteLength": 1440,
      "byteOffset": 65080,
      "target": 34962
    },
    {
      "buffer": 0,
      "byteLength": 1440,
      "byteOffset": 66520,
      "target": 34962
    },
    {
      "buffer": 0,
      "byteLength": 960,
      "byteOffset": 67960,
      "target": 34962
    },
    {
      "buffer": 0,
      "byteLength": 288,
      "byteOffset": 68920,
      "target": 34962
    },
    {
      "buffer": 0,
      "byteLength": 288,
      "byteOffset": 69208,
      "target": 34962
    },
    {
      "buffer": 0,
      "byteLength": 192,
      "byteOffset": 69496,
      "target": 34962
    },
    {
      "buffer": 0,
      "byteLength": 72,
      "byteOffset": 69688,
      "target": 34963
    },
    {
      "buffer": 0,
      "byteLength": 288,
      "byteOffset": 69760,
      "target": 34962
    },
    {
      "buffer": 0,
      "byteLength": 288,
      "byteOffset": 70048,
      "target": 34962
    },
    {
      "buffer": 0,
      "byteLength": 192,
      "byteOffset": 70336,
      "target": 34962
    },
    {
      "buffer": 0,
      "byteLength": 288,
      "byteOffset": 70528,
      "target": 34962
    },
    {
      "buffer": 0,
      "byteLength": 288,
      "byteOffset": 70816,
      "target": 34962
    },
    {
      "buffer": 0,
      "byteLength": 192,
      "byteOffset": 71104,
      "target": 34962
    },
    {
      "buffer": 0,
      "byteLength": 288,
      "byteOffset": 71296,
      "target": 34962
    },
    {
      "buffer": 0,
      "byteLength": 288,
      "byteOffset": 71584,
      "target": 34962
    },
    {
      "buffer": 0,
      "byteLength": 192,
      "byteOffset": 71872,
      "target": 34962
    },
    {
      "buffer": 0,
      "byteLength": 288,
      "byteOffset": 72064,
      "target": 34962
    },
    {
      "buffer": 0,
      "byteLength": 288,
      "byteOffset": 72352,
      "target": 34962
    },
    {
      "buffer": 0,
      "byteLength": 192,
      "byteOffset": 72640,
      "target": 34962
    },
    {
      "buffer": 0,
      "byteLength": 288,
      "byteOffset": 72832,
      "target": 34962
    },
    {
      "buffer": 0,
      "byteLength": 288,
      "byteOffset": 73120,
      "target": 34962
    },
    {
      "buffer": 0,
      "byteLength": 192,
      "byteOffset": 73408,
      "target": 34962
    },
    {
      "buffer": 0,
      "byteLength": 288,
      "byteOffset": 73600,
      "target": 34962
    },
    {
      "buffer": 0,
      "byteLength": 288,
      "byteOffset": 73888,
      "target": 34962
    },
    {
      "buffer": 0,
      "byteLength": 192,
      "byteOffset": 74176,
      "target": 34962
    },
    {
      "buffer": 0,
      "byteLength": 288,
      "byteOffset": 74368,
      "target": 34962
    },
    {
      "buffer": 0,
      "byteLength": 288,
      "byteOffset": 74656,
      "target": 34962
    },
    {
      "buffer": 0,
      "byteLength": 192,
      "byteOffset": 74944,
      "target": 34962
    },
    {
      "buffer": 0,
      "byteLength": 288,
      "byteOffset": 75136,
      "target": 34962
    },
    {
      "buffer": 0,
      "byteLength": 288,
      "byteOffset": 75424,
      "target": 34962
    },
    {
      "buffer": 0,
      "byteLength": 192,
      "byteOffset": 75712,
      "target": 34962
    },
    {
      "buffer": 0,
      "byteLength": 288,
      "byteOffset": 75904,
      "target": 34962
    },
    {
      "buffer": 0,
      "byteLength": 288,
      "byteOffset": 76192,
      "target": 34962
    },
    {
      "buffer": 0,
      "byteLength": 192,
      "byteOffset": 76480,
      "target": 34962
    },
    {
      "buffer": 0,
      "byteLength": 288,
      "byteOffset": 76672,
      "target": 34962
    },
    {
      "buffer": 0,
      "byteLength": 288,
      "byteOffset": 76960,
      "target": 34962
    },
    {
      "buffer": 0,
      "byteLength": 192,
      "byteOffset": 77248,
      "target": 34962
    },
    {
      "buffer": 0,
      "byteLength": 288,
      "byteOffset": 77440,
      "target": 34962
    },
    {
      "buffer": 0,
      "byteLength": 288,
      "byteOffset": 77728,
      "target": 34962
    },
    {
      "buffer": 0,
      "byteLength": 192,
      "byteOffset": 78016,
      "target": 34962
    },
    {
      "buffer": 0,
      "byteLength": 288,
      "byteOffset": 78208,
      "target": 34962
    },
    {
      "buffer": 0,
      "byteLength": 288,
      "byteOffset": 78496,
      "target": 34962
    },
    {
      "buffer": 0,
      "byteLength": 192,
      "byteOffset": 78784,
      "target": 34962
    },
    {
      "buffer": 0,
      "byteLength": 288,
      "byteOffset": 78976,
      "target": 34962
    },
    {
      "buffer": 0,
      "byteLength": 288,
      "byteOffset": 79264,
      "target": 34962
    },
    {
      "buffer": 0,
      "byteLength": 192,
      "byteOffset": 79552,
      "target": 34962
    },
    {
      "buffer": 0,
      "byteLength": 288,
      "byteOffset": 79744,
      "target": 34962
    },
    {
      "buffer": 0,
      "byteLength": 288,
      "byteOffset": 80032,
      "target": 34962
    },
    {
      "buffer": 0,
      "byteLength": 192,
      "byteOffset": 80320,
      "target": 34962
    },
    {
      "buffer": 0,
      "byteLength": 288,
      "byteOffset": 80512,
      "target": 34962
    },
    {
      "buffer": 0,
      "byteLength": 288,
      "byteOffset": 80800,
      "target": 34962
    },
    {
      "buffer": 0,
      "byteLength": 192,
      "byteOffset": 81088,
      "target": 34962
    },
    {
      "buffer": 0,
      "byteLength": 288,
      "byteOffset": 81280,
      "target": 34962
    },
    {
      "buffer": 0,
      "byteLength": 288,
      "byteOffset": 81568,
      "target": 34962
    },
    {
      "buffer": 0,
      "byteLength": 192,
      "byteOffset": 81856,
      "target": 34962
    },
    {
      "buffer": 0,
      "byteLength": 288,
      "byteOffset": 82048,
      "target": 34962
    },
    {
      "buffer": 0,
      "byteLength": 288,
      "byteOffset": 82336,
      "target": 34962
    },
    {
      "buffer": 0,
      "byteLength": 192,
      "byteOffset": 82624,
      "target": 34962
    },
    {
      "buffer": 0,
      "byteLength": 288,
      "byteOffset": 82816,
      "target": 34962
    },
    {
      "buffer": 0,
      "byteLength": 288,
      "byteOffset": 83104,
      "target": 34962
    },
    {
      "buffer": 0,
      "byteLength": 192,
      "byteOffset": 83392,
      "target": 34962
    },
    {
      "buffer": 0,
      "byteLength": 288,
      "byteOffset": 83584,
      "target": 34962
    },
    {
      "buffer": 0,
      "byteLength": 288,
      "byteOffset": 83872,
      "target": 34962
    },
    {
      "buffer": 0,
      "byteLength": 192,
      "byteOffset": 84160,
      "target": 34962
    },
    {
      "buffer": 0,
      "byteLength": 768,
      "byteOffset": 84352,
      "target": 34962
    },
    {
      "buffer": 0,
      "byteLength": 768,
      "byteOffset": 85120,
      "target": 34962
    },
    {
      "buffer": 0,
      "byteLength": 512,
      "byteOffset": 85888,
      "target": 34962
    },
    {
      "buffer": 0,
      "byteLength": 180,
      "byteOffset": 86400,
      "target": 34963
    },
    {
      "buffer": 0,
      "byteLength": 1440,
      "byteOffset": 86580,
      "target": 34962
    },
    {
      "buffer": 0,
      "byteLength": 1440,
      "byteOffset": 88020,
      "target": 34962
    },
    {
      "buffer": 0,
      "byteLength": 960,
      "byteOffset": 89460,
      "target": 34962
    },
    {
      "buffer": 0,
      "byteLength": 1440,
      "byteOffset": 90420,
      "target": 34962
    },
    {
      "buffer": 0,
      "byteLength": 1440,
      "byteOffset": 91860,
      "target": 34962
    },
    {
      "buffer": 0,
      "byteLength": 960,
      "byteOffset": 93300,
      "target": 34962
    },
    {
      "buffer": 0,
      "byteLength": 1440,
      "byteOffset": 94260,
      "target": 34962
    },
    {
      "buffer": 0,
      "byteLength": 1440,
      "byteOffset": 95700,
      "target": 34962
    },
    {
      "buffer": 0,
      "byteLength": 960,
      "byteOffset": 97140,
      "target": 34962
    },
    {
      "buffer": 0,
      "byteLength": 1440,
      "byteOffset": 98100,
      "target": 34962
    },
    {
      "buffer": 0,
      "byteLength": 1440,
      "byteOffset": 99540,
      "target": 34962
    },
    {
      "buffer": 0,
      "byteLength": 960,
      "byteOffset": 100980,
      "target": 34962
    },
    {
      "buffer": 0,
      "byteLength": 1440,
      "byteOffset": 101940,
      "target": 34962
    },
    {
      "buffer": 0,
      "byteLength": 1440,
      "byteOffset": 103380,
      "target": 34962
    },
    {
      "buffer": 0,
      "byteLength": 960,
      "byteOffset": 104820,
      "target": 34962
    },
    {
      "buffer": 0,
      "byteLength": 288,
      "byteOffset": 105780,
      "target": 34962
    },
    {
      "buffer": 0,
      "byteLength": 288,
      "byteOffset": 106068,
      "target": 34962
    },
    {
      "buffer": 0,
      "byteLength": 192,
      "byteOffset": 106356,
      "target": 34962
    },
    {
      "buffer": 0,
      "byteLength": 288,
      "byteOffset": 106548,
      "target": 34962
    },
    {
      "buffer": 0,
      "byteLength": 288,
      "byteOffset": 106836,
      "target": 34962
    },
    {
      "buffer": 0,
      "byteLength": 192,
      "byteOffset": 107124,
      "target": 34962
    },
    {
      "buffer": 0,
      "byteLength": 288,
      "byteOffset": 107316,
      "target": 34962
    },
    {
      "buffer": 0,
      "byteLength": 288,
      "byteOffset": 107604,
      "target": 34962
    },
    {
      "buffer": 0,
      "byteLength": 192,
      "byteOffset": 107892,
      "target": 34962
    }
  ],
  "buffers": [
    {
      "byteLength": 108084,
      "uri": "lighthouse.bin"
    }
  ],
  "images": [
    {
      "name": "Coast_Rock_BaseColor",
      "uri": "coast_8cdb7ca38b8c1e3f88ee0a1f.png"
    }
  ],
  "materials": [
    {
      "doubleSided": true,
      "name": "Coast_wood",
      "pbrMetallicRoughness": {
        "baseColorFactor": [
          0.3100000023841858,
          0.20000000298023224,
          0.11999999731779099,
          1
        ],
        "metallicFactor": 0,
        "roughnessFactor": 0.8700000047683716
      }
    },
    {
      "doubleSided": true,
      "name": "Coast_rock",
      "pbrMetallicRoughness": {
        "baseColorTexture": {
          "index": 0
        },
        "metallicFactor": 0,
        "roughnessFactor": 0.949999988079071
      }
    },
    {
      "doubleSided": true,
      "name": "Coast_iron",
      "pbrMetallicRoughness": {
        "baseColorFactor": [
          0.10000000149011612,
          0.12999999523162842,
          0.14000000059604645,
          1
        ],
        "metallicFactor": 0,
        "roughnessFactor": 0.6000000238418579
      }
    },
    {
      "doubleSided": true,
      "emissiveFactor": [
        1,
        0.6000000238418579,
        0.15000000596046448
      ],
      "name": "Coast_Lens",
      "pbrMetallicRoughness": {
        "baseColorFactor": [
          1,
          0.7900000214576721,
          0.3799999952316284,
          1
        ],
        "metallicFactor": 0,
        "roughnessFactor": 0.25
      }
    },
    {
      "doubleSided": true,
      "name": "Coast_roof",
      "pbrMetallicRoughness": {
        "baseColorFactor": [
          0.23999999463558197,
          0.3100000023841858,
          0.3400000035762787,
          1
        ],
        "metallicFactor": 0,
        "roughnessFactor": 0.8999999761581421
      }
    },
    {
      "doubleSided": true,
      "name": "Coast_white",
      "pbrMetallicRoughness": {
        "baseColorFactor": [
          0.8299999833106995,
          0.8100000023841858,
          0.7099999785423279,
          1
        ],
        "metallicFactor": 0,
        "roughnessFactor": 0.800000011920929
      }
    }
  ],
  "meshes": [
    {
      "name": "Cube",
      "primitives": [
        {
          "attributes": {
            "NORMAL": 1,
            "POSITION": 0,
            "TEXCOORD_0": 2
          },
          "indices": 3,
          "material": 0
        }
      ]
    },
    {
      "name": "Cone.006",
      "primitives": [
        {
          "attributes": {
            "NORMAL": 5,
            "POSITION": 4,
            "TEXCOORD_0": 6
          },
          "indices": 7,
          "material": 1
        }
      ]
    },
    {
      "name": "Torus",
      "primitives": [
        {
          "attributes": {
            "NORMAL": 9,
            "POSITION": 8,
            "TEXCOORD_0": 10
          },
          "indices": 11,
          "material": 2
        }
      ]
    },
    {
      "name": "Cone.027",
      "primitives": [
        {
          "attributes": {
            "NORMAL": 13,
            "POSITION": 12,
            "TEXCOORD_0": 14
          },
          "indices": 15,
          "material": 2
        }
      ]
    },
    {
      "name": "Cone.028",
      "primitives": [
        {
          "attributes": {
            "NORMAL": 17,
            "POSITION": 16,
            "TEXCOORD_0": 18
          },
          "indices": 15,
          "material": 2
        }
      ]
    },
    {
      "name": "Cone.029",
      "primitives": [
        {
          "attributes": {
            "NORMAL": 20,
            "POSITION": 19,
            "TEXCOORD_0": 21
          },
          "indices": 15,
          "material": 2
        }
      ]
    },
    {
      "name": "Cone.030",
      "primitives": [
        {
          "attributes": {
            "NORMAL": 23,
            "POSITION": 22,
            "TEXCOORD_0": 24
          },
          "indices": 15,
          "material": 2
        }
      ]
    },
    {
      "name": "Cone.031",
      "primitives": [
        {
          "attributes": {
            "NORMAL": 26,
            "POSITION": 25,
            "TEXCOORD_0": 27
          },
          "indices": 15,
          "material": 2
        }
      ]
    },
    {
      "name": "Cone.032",
      "primitives": [
        {
          "attributes": {
            "NORMAL": 29,
            "POSITION": 28,
            "TEXCOORD_0": 30
          },
          "indices": 15,
          "material": 2
        }
      ]
    },
    {
      "name": "Cone.033",
      "primitives": [
        {
          "attributes": {
            "NORMAL": 32,
            "POSITION": 31,
            "TEXCOORD_0": 33
          },
          "indices": 15,
          "material": 2
        }
      ]
    },
    {
      "name": "Cone.034",
      "primitives": [
        {
          "attributes": {
            "NORMAL": 35,
            "POSITION": 34,
            "TEXCOORD_0": 36
          },
          "indices": 15,
          "material": 2
        }
      ]
    },
    {
      "name": "Sphere",
      "primitives": [
        {
          "attributes": {
            "NORMAL": 38,
            "POSITION": 37,
            "TEXCOORD_0": 39
          },
          "indices": 40,
          "material": 3
        }
      ]
    },
    {
      "name": "Cone",
      "primitives": [
        {
          "attributes": {
            "NORMAL": 42,
            "POSITION": 41,
            "TEXCOORD_0": 43
          },
          "indices": 7,
          "material": 1
        }
      ]
    },
    {
      "name": "Cone.007",
      "primitives": [
        {
          "attributes": {
            "NORMAL": 45,
            "POSITION": 44,
            "TEXCOORD_0": 46
          },
          "indices": 47,
          "material": 2
        }
      ]
    },
    {
      "name": "Cone.008",
      "primitives": [
        {
          "attributes": {
            "NORMAL": 49,
            "POSITION": 48,
            "TEXCOORD_0": 50
          },
          "indices": 47,
          "material": 2
        }
      ]
    },
    {
      "name": "Cone.009",
      "primitives": [
        {
          "attributes": {
            "NORMAL": 52,
            "POSITION": 51,
            "TEXCOORD_0": 53
          },
          "indices": 47,
          "material": 2
        }
      ]
    },
    {
      "name": "Cone.010",
      "primitives": [
        {
          "attributes": {
            "NORMAL": 55,
            "POSITION": 54,
            "TEXCOORD_0": 56
          },
          "indices": 47,
          "material": 2
        }
      ]
    },
    {
      "name": "Cone.011",
      "primitives": [
        {
          "attributes": {
            "NORMAL": 58,
            "POSITION": 57,
            "TEXCOORD_0": 59
          },
          "indices": 47,
          "material": 2
        }
      ]
    },
    {
      "name": "Cone.012",
      "primitives": [
        {
          "attributes": {
            "NORMAL": 61,
            "POSITION": 60,
            "TEXCOORD_0": 62
          },
          "indices": 47,
          "material": 2
        }
      ]
    },
    {
      "name": "Cone.013",
      "primitives": [
        {
          "attributes": {
            "NORMAL": 64,
            "POSITION": 63,
            "TEXCOORD_0": 65
          },
          "indices": 47,
          "material": 2
        }
      ]
    },
    {
      "name": "Cone.014",
      "primitives": [
        {
          "attributes": {
            "NORMAL": 67,
            "POSITION": 66,
            "TEXCOORD_0": 68
          },
          "indices": 47,
          "material": 2
        }
      ]
    },
    {
      "name": "Cone.015",
      "primitives": [
        {
          "attributes": {
            "NORMAL": 70,
            "POSITION": 69,
            "TEXCOORD_0": 71
          },
          "indices": 47,
          "material": 2
        }
      ]
    },
    {
      "name": "Cone.016",
      "primitives": [
        {
          "attributes": {
            "NORMAL": 73,
            "POSITION": 72,
            "TEXCOORD_0": 74
          },
          "indices": 47,
          "material": 2
        }
      ]
    },
    {
      "name": "Cone.017",
      "primitives": [
        {
          "attributes": {
            "NORMAL": 76,
            "POSITION": 75,
            "TEXCOORD_0": 77
          },
          "indices": 47,
          "material": 2
        }
      ]
    },
    {
      "name": "Cone.018",
      "primitives": [
        {
          "attributes": {
            "NORMAL": 79,
            "POSITION": 78,
            "TEXCOORD_0": 80
          },
          "indices": 47,
          "material": 2
        }
      ]
    },
    {
      "name": "Cone.019",
      "primitives": [
        {
          "attributes": {
            "NORMAL": 82,
            "POSITION": 81,
            "TEXCOORD_0": 83
          },
          "indices": 47,
          "material": 2
        }
      ]
    },
    {
      "name": "Cone.020",
      "primitives": [
        {
          "attributes": {
            "NORMAL": 85,
            "POSITION": 84,
            "TEXCOORD_0": 86
          },
          "indices": 47,
          "material": 2
        }
      ]
    },
    {
      "name": "Cone.021",
      "primitives": [
        {
          "attributes": {
            "NORMAL": 88,
            "POSITION": 87,
            "TEXCOORD_0": 89
          },
          "indices": 47,
          "material": 2
        }
      ]
    },
    {
      "name": "Cone.022",
      "primitives": [
        {
          "attributes": {
            "NORMAL": 91,
            "POSITION": 90,
            "TEXCOORD_0": 92
          },
          "indices": 47,
          "material": 2
        }
      ]
    },
    {
      "name": "Cone.023",
      "primitives": [
        {
          "attributes": {
            "NORMAL": 94,
            "POSITION": 93,
            "TEXCOORD_0": 95
          },
          "indices": 47,
          "material": 2
        }
      ]
    },
    {
      "name": "Cone.024",
      "primitives": [
        {
          "attributes": {
            "NORMAL": 97,
            "POSITION": 96,
            "TEXCOORD_0": 98
          },
          "indices": 47,
          "material": 2
        }
      ]
    },
    {
      "name": "Cone.025",
      "primitives": [
        {
          "attributes": {
            "NORMAL": 100,
            "POSITION": 99,
            "TEXCOORD_0": 101
          },
          "indices": 47,
          "material": 2
        }
      ]
    },
    {
      "name": "Cone.026",
      "primitives": [
        {
          "attributes": {
            "NORMAL": 103,
            "POSITION": 102,
            "TEXCOORD_0": 104
          },
          "indices": 47,
          "material": 2
        }
      ]
    },
    {
      "name": "Cone.035",
      "primitives": [
        {
          "attributes": {
            "NORMAL": 106,
            "POSITION": 105,
            "TEXCOORD_0": 107
          },
          "indices": 108,
          "material": 4
        }
      ]
    },
    {
      "name": "Cone.002",
      "primitives": [
        {
          "attributes": {
            "NORMAL": 110,
            "POSITION": 109,
            "TEXCOORD_0": 111
          },
          "indices": 7,
          "material": 1
        }
      ]
    },
    {
      "name": "Cone.003",
      "primitives": [
        {
          "attributes": {
            "NORMAL": 113,
            "POSITION": 112,
            "TEXCOORD_0": 114
          },
          "indices": 7,
          "material": 1
        }
      ]
    },
    {
      "name": "Cone.004",
      "primitives": [
        {
          "attributes": {
            "NORMAL": 116,
            "POSITION": 115,
            "TEXCOORD_0": 117
          },
          "indices": 7,
          "material": 1
        }
      ]
    },
    {
      "name": "Cone.005",
      "primitives": [
        {
          "attributes": {
            "NORMAL": 119,
            "POSITION": 118,
            "TEXCOORD_0": 120
          },
          "indices": 7,
          "material": 1
        }
      ]
    },
    {
      "name": "Cone.001",
      "primitives": [
        {
          "attributes": {
            "NORMAL": 122,
            "POSITION": 121,
            "TEXCOORD_0": 123
          },
          "indices": 7,
          "material": 5
        }
      ]
    },
    {
      "name": "Cube.001",
      "primitives": [
        {
          "attributes": {
            "NORMAL": 125,
            "POSITION": 124,
            "TEXCOORD_0": 126
          },
          "indices": 3,
          "material": 4
        }
      ]
    },
    {
      "name": "Cube.002",
      "primitives": [
        {
          "attributes": {
            "NORMAL": 128,
            "POSITION": 127,
            "TEXCOORD_0": 129
          },
          "indices": 3,
          "material": 4
        }
      ]
    },
    {
      "name": "Cube.003",
      "primitives": [
        {
          "attributes": {
            "NORMAL": 131,
            "POSITION": 130,
            "TEXCOORD_0": 132
          },
          "indices": 3,
          "material": 4
        }
      ]
    }
  ],
  "nodes": [
    {
      "mesh": 0,
      "name": "Door"
    },
    {
      "mesh": 1,
      "name": "Gallery"
    },
    {
      "mesh": 2,
      "name": "GalleryRail"
    },
    {
      "mesh": 3,
      "name": "LanternFrame"
    },
    {
      "mesh": 4,
      "name": "LanternFrame.001"
    },
    {
      "mesh": 5,
      "name": "LanternFrame.002"
    },
    {
      "mesh": 6,
      "name": "LanternFrame.003"
    },
    {
      "mesh": 7,
      "name": "LanternFrame.004"
    },
    {
      "mesh": 8,
      "name": "LanternFrame.005"
    },
    {
      "mesh": 9,
      "name": "LanternFrame.006"
    },
    {
      "mesh": 10,
      "name": "LanternFrame.007"
    },
    {
      "mesh": 11,
      "name": "Lens"
    },
    {
      "mesh": 12,
      "name": "Plinth"
    },
    {
      "mesh": 13,
      "name": "RailPost"
    },
    {
      "mesh": 14,
      "name": "RailPost.001"
    },
    {
      "mesh": 15,
      "name": "RailPost.002"
    },
    {
      "mesh": 16,
      "name": "RailPost.003"
    },
    {
      "mesh": 17,
      "name": "RailPost.004"
    },
    {
      "mesh": 18,
      "name": "RailPost.005"
    },
    {
      "mesh": 19,
      "name": "RailPost.006"
    },
    {
      "mesh": 20,
      "name": "RailPost.007"
    },
    {
      "mesh": 21,
      "name": "RailPost.008"
    },
    {
      "mesh": 22,
      "name": "RailPost.009"
    },
    {
      "mesh": 23,
      "name": "RailPost.010"
    },
    {
      "mesh": 24,
      "name": "RailPost.011"
    },
    {
      "mesh": 25,
      "name": "RailPost.012"
    },
    {
      "mesh": 26,
      "name": "RailPost.013"
    },
    {
      "mesh": 27,
      "name": "RailPost.014"
    },
    {
      "mesh": 28,
      "name": "RailPost.015"
    },
    {
      "mesh": 29,
      "name": "RailPost.016"
    },
    {
      "mesh": 30,
      "name": "RailPost.017"
    },
    {
      "mesh": 31,
      "name": "RailPost.018"
    },
    {
      "mesh": 32,
      "name": "RailPost.019"
    },
    {
      "mesh": 33,
      "name": "Roof"
    },
    {
      "mesh": 34,
      "name": "StoneCourse"
    },
    {
      "mesh": 35,
      "name": "StoneCourse.001"
    },
    {
      "mesh": 36,
      "name": "StoneCourse.002"
    },
    {
      "mesh": 37,
      "name": "StoneCourse.003"
    },
    {
      "mesh": 38,
      "name": "Tower"
    },
    {
      "mesh": 39,
      "name": "Window"
    },
    {
      "mesh": 40,
      "name": "Window.001"
    },
    {
      "mesh": 41,
      "name": "Window.002"
    }
  ],
  "samplers": [
    {
      "magFilter": 9729,
      "minFilter": 9987
    }
  ],
  "scene": 0,
  "scenes": [
    {
      "name": "Scene",
      "nodes": [
        0,
        1,
        2,
        3,
        4,
        5,
        6,
        7,
        8,
        9,
        10,
        11,
        12,
        13,
        14,
        15,
        16,
        17,
        18,
        19,
        20,
        21,
        22,
        23,
        24,
        25,
        26,
        27,
        28,
        29,
        30,
        31,
        32,
        33,
        34,
        35,
        36,
        37,
        38,
        39,
        40,
        41
      ]
    }
  ],
  "textures": [
    {
      "sampler": 0,
      "source": 0
    }
  ]
}
