<?xml version="1.0" encoding="UTF-8"?>
<svg xmlns="http://www.w3.org/2000/svg" viewBox="0 0 400 240" font-family="ui-monospace, SFMono-Regular, Menlo, Consolas, monospace">
  <defs>
    <linearGradient id="bg" x1="0" y1="0" x2="0" y2="1">
      <stop offset="0" stop-color="#0b0d10"/><stop offset="1" stop-color="#14181d"/>
    </linearGradient>
  </defs>
  <rect width="400" height="240" fill="url(#bg)"/>
  <text x="24" y="34" fill="#9aa4b2" font-size="10" letter-spacing="2">\\  MARKET 2</text>
  <text x="24" y="70" fill="#CA6BFF" font-size="32" font-weight="700">DATA</text>
  <line x1="24" y1="88" x2="110" y2="88" stroke="#CA6BFF" stroke-width="2"/>
  <text x="24" y="118" fill="#e6edf3" font-size="12">NIP-90 · kinds 5960 · 6960 · 31990</text>
  <text x="24" y="138" fill="#e6edf3" font-size="12">open handler registry</text>
  <text x="24" y="158" fill="#9aa4b2" font-size="11">live on damus · primal relays</text>
  <g transform="translate(280 80)" stroke="#CA6BFF" stroke-width="1.5" fill="none">
    <circle cx="0" cy="0" r="8" fill="#CA6BFF"/>
    <line x1="0" y1="0" x2="40" y2="-20"/>
    <line x1="0" y1="0" x2="40" y2="20"/>
    <line x1="0" y1="0" x2="-20" y2="30"/>
    <circle cx="40" cy="-20" r="5" fill="#CA6BFF" opacity="0.6"/>
    <circle cx="40" cy="20" r="5" fill="#CA6BFF" opacity="0.6"/>
    <circle cx="-20" cy="30" r="5" fill="#CA6BFF" opacity="0.6"/>
    <line x1="40" y1="-20" x2="70" y2="-30"/>
    <line x1="40" y1="20" x2="70" y2="30"/>
    <circle cx="70" cy="-30" r="4" fill="#CA6BFF" opacity="0.4"/>
    <circle cx="70" cy="30" r="4" fill="#CA6BFF" opacity="0.4"/>
  </g>
  <text x="24" y="218" fill="#5a6271" font-size="10" letter-spacing="1">openagents · data market</text>
</svg>
