{"accessors":[{"bufferView":0,"componentType":5126,"count":135,"max":[1.9245421886444092,10.032809257507324,1.9160760641098022],"min":[-1.8933719396591187,-0.25,-1.531430721282959],"type":"VEC3"},{"bufferView":1,"componentType":5126,"count":135,"type":"VEC3"},{"bufferView":2,"componentType":5126,"count":135,"type":"VEC2"},{"bufferView":3,"componentType":5123,"count":408,"type":"SCALAR"},{"bufferView":4,"componentType":5126,"count":121,"max":[1.8577113151550293,12.350078582763672,1.4394476413726807],"min":[-1.7531975507736206,5.550363063812256,-1.3657100200653076],"type":"VEC3"},{"bufferView":5,"componentType":5126,"count":121,"type":"VEC3"},{"bufferView":6,"componentType":5126,"count":121,"type":"VEC2"},{"bufferView":7,"componentType":5123,"count":240,"type":"SCALAR"},{"bufferView":8,"componentType":5126,"count":840,"max":[3.154376745223999,13.316996574401855,2.607940435409546],"min":[-2.7526285648345947,4.703609943389893,-2.6192712783813477],"type":"VEC3"},{"bufferView":9,"componentType":5126,"count":840,"type":"VEC3"},{"bufferView":10,"componentType":5126,"count":840,"type":"VEC2"},{"bufferView":11,"componentType":5123,"count":1260,"type":"SCALAR"}],"asset":{"version":"2.0"},"bufferViews":[{"buffer":0,"byteLength":1620,"byteOffset":0,"target":34962},{"buffer":0,"byteLength":1620,"byteOffset":1620,"target":34962},{"buffer":0,"byteLength":1080,"byteOffset":3240,"target":34962},{"buffer":0,"byteLength":816,"byteOffset":4320,"target":34963},{"buffer":0,"byteLength":1452,"byteOffset":5136,"target":34962},{"buffer":0,"byteLength":1452,"byteOffset":6588,"target":34962},{"buffer":0,"byteLength":968,"byteOffset":8040,"target":34962},{"buffer":0,"byteLength":480,"byteOffset":9008,"target":34963},{"buffer":0,"byteLength":10080,"byteOffset":9488,"target":34962},{"buffer":0,"byteLength":10080,"byteOffset":19568,"target":34962},{"buffer":0,"byteLength":6720,"byteOffset":29648,"target":34962},{"buffer":0,"byteLength":2520,"byteOffset":36368,"target":34963}],"buffers":[{"byteLength":38888,"uri":"beech_tall.bin"}],"images":[{"name":"Bark_NormalTree","uri":"../nature/Bark_NormalTree.png"},{"name":"Leaves_NormalTree_C","uri":"../nature/Leaves_NormalTree_C.png"}],"materials":[{"doubleSided":false,"name":"Bark_Gray","pbrMetallicRoughness":{"baseColorFactor":[0.78,0.74,0.7,1.0],"baseColorTexture":{"index":0},"metallicFactor":0,"roughnessFactor":0.8999999761581421}},{"doubleSided":false,"name":"Core_Light","pbrMetallicRoughness":{"baseColorFactor":[0.07000000029802322,0.15000000596046448,0,1],"metallicFactor":0}},{"alphaCutoff":0.3,"alphaMode":"MASK","doubleSided":true,"name":"Leaf_Light","pbrMetallicRoughness":{"baseColorFactor":[1.0,1.0,1.0,1.0],"baseColorTexture":{"index":1},"metallicFactor":0,"roughnessFactor":0.8999999761581421}}],"meshes":[{"name":"beech_tall_Bark_Gray","primitives":[{"attributes":{"NORMAL":1,"POSITION":0,"TEXCOORD_0":2},"indices":3,"material":0}]},{"name":"beech_tall_Core_Light","primitives":[{"attributes":{"NORMAL":5,"POSITION":4,"TEXCOORD_0":6},"indices":7,"material":1}]},{"name":"beech_tall_Leaf_Light","primitives":[{"attributes":{"NORMAL":9,"POSITION":8,"TEXCOORD_0":10},"indices":11,"material":2}]}],"nodes":[{"mesh":0,"name":"beech_tall_Bark_Gray"},{"mesh":1,"name":"beech_tall_Core_Light"},{"mesh":2,"name":"beech_tall_Leaf_Light"}],"scene":0,"scenes":[{"name":"Scene","nodes":[0,1,2]}],"textures":[{"source":0},{"source":1}]}
