{"accessors":[{"bufferView":0,"componentType":5126,"count":102,"type":"VEC3"},{"bufferView":1,"componentType":5126,"count":102,"max":[1.2153974771499634,7.603363037109375,1.3274919986724854],"min":[-1.493103265762329,-0.21508082747459412,-1.4926849603652954],"type":"VEC3"},{"bufferView":2,"componentType":5123,"count":288,"type":"SCALAR"},{"bufferView":3,"componentType":5126,"count":216,"type":"VEC3"},{"bufferView":4,"componentType":5126,"count":216,"max":[0.5236579775810242,3.8491930961608887,0.6293815970420837],"min":[-0.6366907954216003,0.8150337934494019,-0.5048167109489441],"type":"VEC3"},{"bufferView":5,"componentType":5123,"count":324,"type":"SCALAR"},{"bufferView":6,"componentType":5126,"count":81,"type":"VEC3"},{"bufferView":7,"componentType":5126,"count":81,"max":[1.6420257091522217,7.112414360046387,1.7089687585830688],"min":[-1.7653820514678955,3.9026520252227783,-1.5761117935180664],"type":"VEC3"},{"bufferView":8,"componentType":5123,"count":180,"type":"SCALAR"},{"bufferView":9,"componentType":5126,"count":300,"type":"VEC3"},{"bufferView":10,"componentType":5126,"count":300,"max":[2.5618016719818115,8.148828506469727,2.572615385055542],"min":[-2.7740554809570312,3.6272263526916504,-2.383596897125244],"type":"VEC3"},{"bufferView":11,"componentType":5126,"count":300,"type":"VEC2"},{"bufferView":12,"componentType":5123,"count":450,"type":"SCALAR"}],"asset":{"version":"2.0"},"bufferViews":[{"buffer":0,"byteOffset":0,"byteLength":1224,"target":34962},{"buffer":0,"byteOffset":1224,"byteLength":1224,"target":34962},{"buffer":0,"byteOffset":2448,"byteLength":576,"target":34963},{"buffer":0,"byteOffset":3024,"byteLength":2592,"target":34962},{"buffer":0,"byteOffset":5616,"byteLength":2592,"target":34962},{"buffer":0,"byteOffset":8208,"byteLength":648,"target":34963},{"buffer":0,"byteOffset":8856,"byteLength":972,"target":34962},{"buffer":0,"byteOffset":9828,"byteLength":972,"target":34962},{"buffer":0,"byteOffset":10800,"byteLength":360,"target":34963},{"buffer":0,"byteOffset":11160,"byteLength":3600,"target":34962},{"buffer":0,"byteOffset":14760,"byteLength":3600,"target":34962},{"buffer":0,"byteOffset":18360,"byteLength":2400,"target":34962},{"buffer":0,"byteOffset":20760,"byteLength":900,"target":34963}],"buffers":[{"byteLength":21660,"uri":"birch_trio.bin"}],"images":[{"name":"Leaves_NormalTree_C","uri":"../nature/Leaves_NormalTree_C.png"}],"materials":[{"doubleSided":false,"name":"Bark_Birch","pbrMetallicRoughness":{"baseColorFactor":[0.699999988079071,0.6800000071525574,0.6299999952316284,1],"metallicFactor":0,"roughnessFactor":0.800000011920929}},{"doubleSided":false,"name":"Bark_Knot","pbrMetallicRoughness":{"baseColorFactor":[0.07999999821186066,0.07000000029802322,0.05999999865889549,1],"metallicFactor":0,"roughnessFactor":0.8999999761581421}},{"doubleSided":false,"name":"Core_Light","pbrMetallicRoughness":{"baseColorFactor":[0.07000000029802322,0.15000000596046448,0,1],"metallicFactor":0}},{"alphaCutoff":0.3,"alphaMode":"MASK","doubleSided":true,"name":"Leaf_Light","pbrMetallicRoughness":{"baseColorFactor":[1.0,1.0,1.0,1.0],"baseColorTexture":{"index":0},"metallicFactor":0,"roughnessFactor":0.8999999761581421}}],"meshes":[{"name":"birch_trio_Bark_Birch","primitives":[{"attributes":{"NORMAL":0,"POSITION":1},"indices":2,"material":0}]},{"name":"birch_trio_Bark_Knot","primitives":[{"attributes":{"NORMAL":3,"POSITION":4},"indices":5,"material":1}]},{"name":"birch_trio_Core_Light","primitives":[{"attributes":{"NORMAL":6,"POSITION":7},"indices":8,"material":2}]},{"name":"birch_trio_Leaf_Light","primitives":[{"attributes":{"NORMAL":9,"POSITION":10,"TEXCOORD_0":11},"indices":12,"material":3}]}],"nodes":[{"mesh":0,"name":"birch_trio_Bark_Birch"},{"mesh":1,"name":"birch_trio_Bark_Knot"},{"mesh":2,"name":"birch_trio_Core_Light"},{"mesh":3,"name":"birch_trio_Leaf_Light"}],"scene":0,"scenes":[{"name":"Scene","nodes":[0,1,2,3]}],"textures":[{"source":0}]}