{"accessors":[{"bufferView":0,"componentType":5126,"count":60,"type":"VEC3"},{"bufferView":1,"componentType":5126,"count":60,"max":[1.100000023841858,0.36901482939720154,0.43951866030693054],"min":[-0.3004796802997589,-0.2849999964237213,-0.8370504975318909],"type":"VEC3"},{"bufferView":2,"componentType":5126,"count":60,"type":"VEC2"},{"bufferView":3,"componentType":5123,"count":108,"type":"SCALAR"},{"bufferView":4,"componentType":5126,"count":182,"type":"VEC3"},{"bufferView":5,"componentType":5126,"count":182,"max":[1.6073179244995117,1.1519032716751099,1.2391111850738525],"min":[-1.4002634286880493,0.30250000953674316,-1.0660791397094727],"type":"VEC3"},{"bufferView":6,"componentType":5126,"count":182,"type":"VEC2"},{"bufferView":7,"componentType":5123,"count":186,"type":"SCALAR"},{"bufferView":8,"componentType":5126,"count":764,"type":"VEC3"},{"bufferView":9,"componentType":5126,"count":764,"max":[1.7332310676574707,1.1519032716751099,1.2571378946304321],"min":[-1.4002634286880493,0.11441842466592789,-1.2157971858978271],"type":"VEC3"},{"bufferView":10,"componentType":5126,"count":764,"type":"VEC2"},{"bufferView":11,"componentType":5123,"count":774,"type":"SCALAR"}],"asset":{"version":"2.0"},"bufferViews":[{"buffer":0,"byteOffset":0,"byteLength":720,"target":34962},{"buffer":0,"byteOffset":720,"byteLength":720,"target":34962},{"buffer":0,"byteOffset":1440,"byteLength":480,"target":34962},{"buffer":0,"byteOffset":1920,"byteLength":216,"target":34963},{"buffer":0,"byteOffset":2136,"byteLength":2184,"target":34962},{"buffer":0,"byteOffset":4320,"byteLength":2184,"target":34962},{"buffer":0,"byteOffset":6504,"byteLength":1456,"target":34962},{"buffer":0,"byteOffset":7960,"byteLength":372,"target":34963},{"buffer":0,"byteOffset":8332,"byteLength":9168,"target":34962},{"buffer":0,"byteOffset":17500,"byteLength":9168,"target":34962},{"buffer":0,"byteOffset":26668,"byteLength":6112,"target":34962},{"buffer":0,"byteOffset":32780,"byteLength":1548,"target":34963}],"buffers":[{"byteLength":34328,"uri":"boulder_cluster.bin"}],"images":[{"name":"Leaves","uri":"../nature/Leaves.png"},{"name":"Rocks_Diffuse","uri":"../nature/Rocks_Diffuse.png"}],"materials":[{"alphaCutoff":0.3,"alphaMode":"MASK","doubleSided":true,"name":"Fern_Frond","pbrMetallicRoughness":{"baseColorFactor":[0.75,0.95,0.7,1.0],"baseColorTexture":{"index":0},"metallicFactor":0,"roughnessFactor":0.8999999761581421}},{"doubleSided":false,"name":"Stone_Moss","pbrMetallicRoughness":{"baseColorFactor":[0.5,0.75,0.4,1.0],"baseColorTexture":{"index":1},"metallicFactor":0,"roughnessFactor":0.8999999761581421}},{"doubleSided":false,"name":"Stone_Rock","pbrMetallicRoughness":{"baseColorFactor":[0.95,0.95,0.9,1.0],"baseColorTexture":{"index":1},"metallicFactor":0,"roughnessFactor":0.8999999761581421}}],"meshes":[{"name":"boulder_cluster_Fern_Frond","primitives":[{"attributes":{"NORMAL":0,"POSITION":1,"TEXCOORD_0":2},"indices":3,"material":0}]},{"name":"boulder_cluster_Stone_Moss","primitives":[{"attributes":{"NORMAL":4,"POSITION":5,"TEXCOORD_0":6},"indices":7,"material":1}]},{"name":"boulder_cluster_Stone_Rock","primitives":[{"attributes":{"NORMAL":8,"POSITION":9,"TEXCOORD_0":10},"indices":11,"material":2}]}],"nodes":[{"mesh":0,"name":"boulder_cluster_Fern_Frond"},{"mesh":1,"name":"boulder_cluster_Stone_Moss"},{"mesh":2,"name":"boulder_cluster_Stone_Rock"}],"scene":0,"scenes":[{"name":"Scene","nodes":[0,1,2]}],"textures":[{"source":0},{"source":1}]}