{"accessors":[{"bufferView":0,"componentType":5126,"count":48,"type":"VEC3"},{"bufferView":1,"componentType":5126,"count":48,"max":[1.8059090375900269,0.9150225520133972,1.301336407661438],"min":[-1.8026432991027832,-0.013860397040843964,-1.3062658309936523],"type":"VEC3"},{"bufferView":2,"componentType":5126,"count":48,"type":"VEC2"},{"bufferView":3,"componentType":5123,"count":144,"type":"SCALAR"},{"bufferView":4,"componentType":5126,"count":240,"type":"VEC3"},{"bufferView":5,"componentType":5126,"count":240,"max":[1.1963125467300415,1.0321366786956787,0.8968039751052856],"min":[-0.8076973557472229,0.5926642417907715,-0.7282227277755737],"type":"VEC3"},{"bufferView":6,"componentType":5123,"count":360,"type":"SCALAR"},{"bufferView":7,"componentType":5126,"count":149,"type":"VEC3"},{"bufferView":8,"componentType":5126,"count":149,"max":[1.2697532176971436,0.8869783282279968,0.9698053598403931],"min":[-1.3331785202026367,0.02522420883178711,-0.9631875157356262],"type":"VEC3"},{"bufferView":9,"componentType":5123,"count":300,"type":"SCALAR"},{"bufferView":10,"componentType":5126,"count":116,"type":"VEC3"},{"bufferView":11,"componentType":5126,"count":116,"max":[1.624433159828186,1.3219364881515503,1.4916735887527466],"min":[-1.5029034614562988,-0.2636367678642273,-1.2790404558181763],"type":"VEC3"},{"bufferView":12,"componentType":5126,"count":116,"type":"VEC2"},{"bufferView":13,"componentType":5123,"count":174,"type":"SCALAR"}],"asset":{"version":"2.0"},"bufferViews":[{"buffer":0,"byteOffset":0,"byteLength":576,"target":34962},{"buffer":0,"byteOffset":576,"byteLength":576,"target":34962},{"buffer":0,"byteOffset":1152,"byteLength":384,"target":34962},{"buffer":0,"byteOffset":1536,"byteLength":288,"target":34963},{"buffer":0,"byteOffset":1824,"byteLength":2880,"target":34962},{"buffer":0,"byteOffset":4704,"byteLength":2880,"target":34962},{"buffer":0,"byteOffset":7584,"byteLength":720,"target":34963},{"buffer":0,"byteOffset":8304,"byteLength":1788,"target":34962},{"buffer":0,"byteOffset":10092,"byteLength":1788,"target":34962},{"buffer":0,"byteOffset":11880,"byteLength":600,"target":34963},{"buffer":0,"byteOffset":12480,"byteLength":1392,"target":34962},{"buffer":0,"byteOffset":13872,"byteLength":1392,"target":34962},{"buffer":0,"byteOffset":15264,"byteLength":928,"target":34962},{"buffer":0,"byteOffset":16192,"byteLength":348,"target":34963}],"buffers":[{"byteLength":16540,"uri":"bramble.bin"}],"images":[{"name":"Bark_NormalTree","uri":"../nature/Bark_NormalTree.png"},{"name":"Leaves_NormalTree_C","uri":"../nature/Leaves_NormalTree_C.png"}],"materials":[{"doubleSided":false,"name":"Bark_Dark","pbrMetallicRoughness":{"baseColorFactor":[0.6,0.55,0.5,1.0],"baseColorTexture":{"index":0},"metallicFactor":0,"roughnessFactor":0.8999999761581421}},{"doubleSided":false,"name":"Berry_Red","pbrMetallicRoughness":{"baseColorFactor":[0.44999998807907104,0.019999999552965164,0.029999999329447746,1],"metallicFactor":0,"roughnessFactor":0.5}},{"doubleSided":false,"name":"Core_Mid","pbrMetallicRoughness":{"baseColorFactor":[0.05000000074505806,0.12999999523162842,0,1],"metallicFactor":0}},{"alphaCutoff":0.3,"alphaMode":"MASK","doubleSided":true,"name":"Leaf_Mid","pbrMetallicRoughness":{"baseColorFactor":[0.8,1.0,1.0,1.0],"baseColorTexture":{"index":1},"metallicFactor":0,"roughnessFactor":0.8999999761581421}}],"meshes":[{"name":"bramble_Bark_Dark","primitives":[{"attributes":{"NORMAL":0,"POSITION":1,"TEXCOORD_0":2},"indices":3,"material":0}]},{"name":"bramble_Berry_Red","primitives":[{"attributes":{"NORMAL":4,"POSITION":5},"indices":6,"material":1}]},{"name":"bramble_Core_Mid","primitives":[{"attributes":{"NORMAL":7,"POSITION":8},"indices":9,"material":2}]},{"name":"bramble_Leaf_Mid","primitives":[{"attributes":{"NORMAL":10,"POSITION":11,"TEXCOORD_0":12},"indices":13,"material":3}]}],"nodes":[{"mesh":0,"name":"bramble_Bark_Dark"},{"mesh":1,"name":"bramble_Berry_Red"},{"mesh":2,"name":"bramble_Core_Mid"},{"mesh":3,"name":"bramble_Leaf_Mid"}],"scene":0,"scenes":[{"name":"Scene","nodes":[0,1,2,3]}],"textures":[{"source":0},{"source":1}]}