{"accessors":[{"bufferView":0,"componentType":5126,"count":24,"max":[0.550000011920929,0.029999999329447746,0.550000011920929],"min":[-0.550000011920929,0.009999999776482582,-0.550000011920929],"type":"VEC3"},{"bufferView":1,"componentType":5126,"count":24,"type":"VEC3"},{"bufferView":2,"componentType":5126,"count":24,"type":"VEC2"},{"bufferView":3,"componentType":5123,"count":24,"type":"SCALAR"},{"bufferView":4,"componentType":5126,"count":132,"max":[2.595048666000366,0.6371189951896667,2.518181085586548],"min":[-2.551201581954956,-0.011384867131710052,-1.9943348169326782],"type":"VEC3"},{"bufferView":5,"componentType":5126,"count":132,"type":"VEC3"},{"bufferView":6,"componentType":5126,"count":132,"type":"VEC2"},{"bufferView":7,"componentType":5123,"count":339,"type":"SCALAR"},{"bufferView":8,"componentType":5126,"count":27,"max":[0.24061936140060425,0.1353495568037033,0.2596511244773865],"min":[-0.2965978980064392,-0.009149957448244095,-0.2635432183742523],"type":"VEC3"},{"bufferView":9,"componentType":5126,"count":27,"type":"VEC3"},{"bufferView":10,"componentType":5126,"count":27,"type":"VEC2"},{"bufferView":11,"componentType":5123,"count":60,"type":"SCALAR"},{"bufferView":12,"componentType":5126,"count":95,"max":[0.19999998807907104,0.6699999570846558,0.18385285139083862],"min":[-0.13746973872184753,0.03999999910593033,-0.18318352103233337],"type":"VEC3"},{"bufferView":13,"componentType":5126,"count":95,"type":"VEC3"},{"bufferView":14,"componentType":5126,"count":95,"type":"VEC2"},{"bufferView":15,"componentType":5123,"count":135,"type":"SCALAR"},{"bufferView":16,"componentType":5126,"count":600,"max":[0.7686496376991272,0.23789767920970917,0.7074518203735352],"min":[-0.7610297203063965,0.038283463567495346,-0.715593695640564],"type":"VEC3"},{"bufferView":17,"componentType":5126,"count":600,"type":"VEC3"},{"bufferView":18,"componentType":5126,"count":600,"type":"VEC2"},{"bufferView":19,"componentType":5123,"count":600,"type":"SCALAR"}],"asset":{"version":"2.0"},"bufferViews":[{"buffer":0,"byteLength":288,"byteOffset":0,"target":34962},{"buffer":0,"byteLength":288,"byteOffset":288,"target":34962},{"buffer":0,"byteLength":192,"byteOffset":576,"target":34962},{"buffer":0,"byteLength":48,"byteOffset":768,"target":34963},{"buffer":0,"byteLength":1584,"byteOffset":816,"target":34962},{"buffer":0,"byteLength":1584,"byteOffset":2400,"target":34962},{"buffer":0,"byteLength":1056,"byteOffset":3984,"target":34962},{"buffer":0,"byteLength":678,"byteOffset":5040,"target":34963},{"buffer":0,"byteLength":324,"byteOffset":5720,"target":34962},{"buffer":0,"byteLength":324,"byteOffset":6044,"target":34962},{"buffer":0,"byteLength":216,"byteOffset":6368,"target":34962},{"buffer":0,"byteLength":120,"byteOffset":6584,"target":34963},{"buffer":0,"byteLength":1140,"byteOffset":6704,"target":34962},{"buffer":0,"byteLength":1140,"byteOffset":7844,"target":34962},{"buffer":0,"byteLength":760,"byteOffset":8984,"target":34962},{"buffer":0,"byteLength":270,"byteOffset":9744,"target":34963},{"buffer":0,"byteLength":7200,"byteOffset":10016,"target":34962},{"buffer":0,"byteLength":7200,"byteOffset":17216,"target":34962},{"buffer":0,"byteLength":4800,"byteOffset":24416,"target":34962},{"buffer":0,"byteLength":1200,"byteOffset":29216,"target":34963}],"buffers":[{"byteLength":30416,"uri":"campfire.bin"}],"images":[{"name":"Bark_NormalTree","uri":"../nature/Bark_NormalTree.png"},{"name":"Rocks_Diffuse","uri":"../nature/Rocks_Diffuse.png"}],"materials":[{"doubleSided":false,"name":"Ash","pbrMetallicRoughness":{"baseColorFactor":[0.07999999821186066,0.07000000029802322,0.06499999761581421,1],"metallicFactor":0}},{"doubleSided":false,"name":"Bark_Dark","pbrMetallicRoughness":{"baseColorFactor":[0.6,0.55,0.5,1.0],"baseColorTexture":{"index":0},"metallicFactor":0,"roughnessFactor":0.8999999761581421}},{"doubleSided":false,"emissiveFactor":[1,0.41999998688697815,0.07999999821186066],"name":"Embers_Glow","pbrMetallicRoughness":{"baseColorFactor":[1,0.41999998688697815,0.07999999821186066,1],"metallicFactor":0,"roughnessFactor":0.4000000059604645}},{"doubleSided":false,"emissiveFactor":[1,0.6499999761581421,0.20000000298023224],"name":"Flame_Glow","pbrMetallicRoughness":{"baseColorFactor":[1,0.699999988079071,0.20000000298023224,1],"metallicFactor":0,"roughnessFactor":0.30000001192092896}},{"doubleSided":false,"name":"Stone_Rock","pbrMetallicRoughness":{"baseColorFactor":[0.95,0.95,0.9,1.0],"baseColorTexture":{"index":1},"metallicFactor":0,"roughnessFactor":0.8999999761581421}}],"meshes":[{"name":"campfire_Ash","primitives":[{"attributes":{"NORMAL":1,"POSITION":0,"TEXCOORD_0":2},"indices":3,"material":0}]},{"name":"campfire_Bark_Dark","primitives":[{"attributes":{"NORMAL":5,"POSITION":4,"TEXCOORD_0":6},"indices":7,"material":1}]},{"name":"campfire_Embers_Glow","primitives":[{"attributes":{"NORMAL":9,"POSITION":8,"TEXCOORD_0":10},"indices":11,"material":2}]},{"name":"campfire_Flame_Glow","primitives":[{"attributes":{"NORMAL":13,"POSITION":12,"TEXCOORD_0":14},"indices":15,"material":3}]},{"name":"campfire_Stone_Rock","primitives":[{"attributes":{"NORMAL":17,"POSITION":16,"TEXCOORD_0":18},"indices":19,"material":4}]}],"nodes":[{"mesh":0,"name":"campfire_Ash"},{"mesh":1,"name":"campfire_Bark_Dark"},{"mesh":2,"name":"campfire_Embers_Glow"},{"mesh":3,"name":"campfire_Flame_Glow"},{"mesh":4,"name":"campfire_Stone_Rock"}],"scene":0,"scenes":[{"name":"Scene","nodes":[0,1,2,3,4]}],"textures":[{"source":0},{"source":1}]}
