{"accessors":[{"bufferView":0,"componentType":5126,"count":100,"max":[2.9000000953674316,0.6205841302871704,-0.009895012713968754],"min":[-2.822056770324707,0.060000017285346985,-1.185787558555603],"type":"VEC3"},{"bufferView":1,"componentType":5126,"count":100,"type":"VEC3"},{"bufferView":2,"componentType":5126,"count":100,"type":"VEC2"},{"bufferView":3,"componentType":5123,"count":180,"type":"SCALAR"},{"bufferView":4,"componentType":5126,"count":162,"max":[2.7874295711517334,1.2434356212615967,0.4293787479400635],"min":[-3.040109395980835,0.20337443053722382,-0.4128971993923187],"type":"VEC3"},{"bufferView":5,"componentType":5126,"count":162,"type":"VEC3"},{"bufferView":6,"componentType":5126,"count":162,"type":"VEC2"},{"bufferView":7,"componentType":5123,"count":162,"type":"SCALAR"},{"bufferView":8,"componentType":5126,"count":1546,"max":[3.022871971130371,1.2801153659820557,0.46481484174728394],"min":[-3.1183083057403564,-0.07538065314292908,-0.4796333611011505],"type":"VEC3"},{"bufferView":9,"componentType":5126,"count":1546,"type":"VEC3"},{"bufferView":10,"componentType":5126,"count":1546,"type":"VEC2"},{"bufferView":11,"componentType":5123,"count":1578,"type":"SCALAR"},{"bufferView":12,"componentType":5126,"count":100,"max":[1.2999999523162842,0.25999999046325684,1.6945500373840332],"min":[-1.4133175611495972,0.019999999552965164,-0.05000000074505806],"type":"VEC3"},{"bufferView":13,"componentType":5126,"count":100,"type":"VEC3"},{"bufferView":14,"componentType":5126,"count":100,"type":"VEC2"},{"bufferView":15,"componentType":5123,"count":192,"type":"SCALAR"},{"bufferView":16,"componentType":5126,"count":16,"max":[1.2999999523162842,0.25999999046325684,0.30000001192092896],"min":[-1.2999999523162842,0.019999999552965164,-1.600000023841858],"type":"VEC3"},{"bufferView":17,"componentType":5126,"count":16,"type":"VEC3"},{"bufferView":18,"componentType":5126,"count":16,"type":"VEC2"},{"bufferView":19,"componentType":5123,"count":24,"type":"SCALAR"}],"asset":{"version":"2.0"},"bufferViews":[{"buffer":0,"byteLength":1200,"byteOffset":0,"target":34962},{"buffer":0,"byteLength":1200,"byteOffset":1200,"target":34962},{"buffer":0,"byteLength":800,"byteOffset":2400,"target":34962},{"buffer":0,"byteLength":360,"byteOffset":3200,"target":34963},{"buffer":0,"byteLength":1944,"byteOffset":3560,"target":34962},{"buffer":0,"byteLength":1944,"byteOffset":5504,"target":34962},{"buffer":0,"byteLength":1296,"byteOffset":7448,"target":34962},{"buffer":0,"byteLength":324,"byteOffset":8744,"target":34963},{"buffer":0,"byteLength":18552,"byteOffset":9068,"target":34962},{"buffer":0,"byteLength":18552,"byteOffset":27620,"target":34962},{"buffer":0,"byteLength":12368,"byteOffset":46172,"target":34962},{"buffer":0,"byteLength":3156,"byteOffset":58540,"target":34963},{"buffer":0,"byteLength":1200,"byteOffset":61696,"target":34962},{"buffer":0,"byteLength":1200,"byteOffset":62896,"target":34962},{"buffer":0,"byteLength":800,"byteOffset":64096,"target":34962},{"buffer":0,"byteLength":384,"byteOffset":64896,"target":34963},{"buffer":0,"byteLength":192,"byteOffset":65280,"target":34962},{"buffer":0,"byteLength":192,"byteOffset":65472,"target":34962},{"buffer":0,"byteLength":128,"byteOffset":65664,"target":34962},{"buffer":0,"byteLength":48,"byteOffset":65792,"target":34963}],"buffers":[{"byteLength":65840,"uri":"cascade.bin"}],"images":[{"name":"Leaves","uri":"../nature/Leaves.png"},{"name":"Rocks_Diffuse","uri":"../nature/Rocks_Diffuse.png"}],"materials":[{"alphaCutoff":0.3,"alphaMode":"MASK","doubleSided":true,"name":"Fern_Frond","pbrMetallicRoughness":{"baseColorFactor":[0.75,0.95,0.7,1.0],"baseColorTexture":{"index":0},"metallicFactor":0,"roughnessFactor":0.8999999761581421}},{"doubleSided":false,"name":"Stone_Moss","pbrMetallicRoughness":{"baseColorFactor":[0.5,0.75,0.4,1.0],"baseColorTexture":{"index":1},"metallicFactor":0,"roughnessFactor":0.8999999761581421}},{"doubleSided":false,"name":"Stone_Rock","pbrMetallicRoughness":{"baseColorFactor":[0.95,0.95,0.9,1.0],"baseColorTexture":{"index":1},"metallicFactor":0,"roughnessFactor":0.8999999761581421}},{"doubleSided":false,"name":"Water_Foam","pbrMetallicRoughness":{"baseColorFactor":[0.800000011920929,0.8600000143051147,0.8799999952316284,1],"metallicFactor":0,"roughnessFactor":0.4000000059604645}},{"doubleSided":false,"name":"Water_Run","pbrMetallicRoughness":{"baseColorFactor":[0.05999999865889549,0.12999999523162842,0.1899999976158142,1],"metallicFactor":0,"roughnessFactor":0.10000000149011612}}],"meshes":[{"name":"cascade_Fern_Frond","primitives":[{"attributes":{"NORMAL":1,"POSITION":0,"TEXCOORD_0":2},"indices":3,"material":0}]},{"name":"cascade_Stone_Moss","primitives":[{"attributes":{"NORMAL":5,"POSITION":4,"TEXCOORD_0":6},"indices":7,"material":1}]},{"name":"cascade_Stone_Rock","primitives":[{"attributes":{"NORMAL":9,"POSITION":8,"TEXCOORD_0":10},"indices":11,"material":2}]},{"name":"cascade_Water_Foam","primitives":[{"attributes":{"NORMAL":13,"POSITION":12,"TEXCOORD_0":14},"indices":15,"material":3}]},{"name":"cascade_Water_Run","primitives":[{"attributes":{"NORMAL":17,"POSITION":16,"TEXCOORD_0":18},"indices":19,"material":4}]}],"nodes":[{"mesh":0,"name":"cascade_Fern_Frond"},{"mesh":1,"name":"cascade_Stone_Moss"},{"mesh":2,"name":"cascade_Stone_Rock"},{"mesh":3,"name":"cascade_Water_Foam"},{"mesh":4,"name":"cascade_Water_Run"}],"scene":0,"scenes":[{"name":"Scene","nodes":[0,1,2,3,4]}],"textures":[{"source":0},{"source":1}]}
