{"accessors":[{"bufferView":0,"componentType":5126,"count":232,"max":[2.5142178535461426,3.675474166870117,1.6479438543319702],"min":[-2.314547061920166,0.27281349897384644,-1.7113908529281616],"type":"VEC3"},{"bufferView":1,"componentType":5126,"count":232,"type":"VEC3"},{"bufferView":2,"componentType":5126,"count":232,"type":"VEC2"},{"bufferView":3,"componentType":5123,"count":234,"type":"SCALAR"},{"bufferView":4,"componentType":5126,"count":1176,"max":[2.606938362121582,3.675474166870117,1.675776481628418],"min":[-2.314547061920166,0.15992577373981476,-1.8006747961044312],"type":"VEC3"},{"bufferView":5,"componentType":5126,"count":1176,"type":"VEC3"},{"bufferView":6,"componentType":5126,"count":1176,"type":"VEC2"},{"bufferView":7,"componentType":5123,"count":1206,"type":"SCALAR"}],"asset":{"version":"2.0"},"bufferViews":[{"buffer":0,"byteLength":2784,"byteOffset":0,"target":34962},{"buffer":0,"byteLength":2784,"byteOffset":2784,"target":34962},{"buffer":0,"byteLength":1856,"byteOffset":5568,"target":34962},{"buffer":0,"byteLength":468,"byteOffset":7424,"target":34963},{"buffer":0,"byteLength":14112,"byteOffset":7892,"target":34962},{"buffer":0,"byteLength":14112,"byteOffset":22004,"target":34962},{"buffer":0,"byteLength":9408,"byteOffset":36116,"target":34962},{"buffer":0,"byteLength":2412,"byteOffset":45524,"target":34963}],"buffers":[{"byteLength":47936,"uri":"cliff_rock.bin"}],"images":[{"name":"Rocks_Diffuse","uri":"../nature/Rocks_Diffuse.png"}],"materials":[{"doubleSided":false,"name":"Stone_Moss","pbrMetallicRoughness":{"baseColorFactor":[0.5,0.75,0.4,1.0],"baseColorTexture":{"index":0},"metallicFactor":0,"roughnessFactor":0.8999999761581421}},{"doubleSided":false,"name":"Stone_Rock","pbrMetallicRoughness":{"baseColorFactor":[0.95,0.95,0.9,1.0],"baseColorTexture":{"index":0},"metallicFactor":0,"roughnessFactor":0.8999999761581421}}],"meshes":[{"name":"cliff_rock_Stone_Moss","primitives":[{"attributes":{"NORMAL":1,"POSITION":0,"TEXCOORD_0":2},"indices":3,"material":0}]},{"name":"cliff_rock_Stone_Rock","primitives":[{"attributes":{"NORMAL":5,"POSITION":4,"TEXCOORD_0":6},"indices":7,"material":1}]}],"nodes":[{"mesh":0,"name":"cliff_rock_Stone_Moss"},{"mesh":1,"name":"cliff_rock_Stone_Rock"}],"scene":0,"scenes":[{"name":"Scene","nodes":[0,1]}],"textures":[{"source":0}]}
