{"accessors":[{"bufferView":0,"componentType":5126,"count":130,"type":"VEC3"},{"bufferView":1,"componentType":5126,"count":130,"max":[1.1040717363357544,0.7835521101951599,0.9566930532455444],"min":[-1.0995776653289795,-0.4722537100315094,-0.8746238946914673],"type":"VEC3"},{"bufferView":2,"componentType":5126,"count":130,"type":"VEC2"},{"bufferView":3,"componentType":5123,"count":234,"type":"SCALAR"}],"asset":{"version":"2.0"},"bufferViews":[{"buffer":0,"byteOffset":0,"byteLength":1560,"target":34962},{"buffer":0,"byteOffset":1560,"byteLength":1560,"target":34962},{"buffer":0,"byteOffset":3120,"byteLength":1040,"target":34962},{"buffer":0,"byteOffset":4160,"byteLength":468,"target":34963}],"buffers":[{"byteLength":4628,"uri":"fern_clump.bin"}],"images":[{"name":"Leaves","uri":"../nature/Leaves.png"}],"materials":[{"alphaCutoff":0.3,"alphaMode":"MASK","doubleSided":true,"name":"Fern_Frond","pbrMetallicRoughness":{"baseColorFactor":[0.75,0.95,0.7,1.0],"baseColorTexture":{"index":0},"metallicFactor":0,"roughnessFactor":0.8999999761581421}}],"meshes":[{"name":"fern_clump_Fern_Frond","primitives":[{"attributes":{"NORMAL":0,"POSITION":1,"TEXCOORD_0":2},"indices":3,"material":0}]}],"nodes":[{"mesh":0,"name":"fern_clump_Fern_Frond"}],"scene":0,"scenes":[{"name":"Scene","nodes":[0]}],"textures":[{"source":0}]}