{"accessors":[{"bufferView":0,"componentType":5126,"count":200,"type":"VEC3"},{"bufferView":1,"componentType":5126,"count":200,"max":[1.876427173614502,0.6472869515419006,1.001550316810608],"min":[-1.6468801498413086,-0.43165045976638794,-1.5066955089569092],"type":"VEC3"},{"bufferView":2,"componentType":5126,"count":200,"type":"VEC2"},{"bufferView":3,"componentType":5123,"count":360,"type":"SCALAR"},{"bufferView":4,"componentType":5126,"count":60,"type":"VEC3"},{"bufferView":5,"componentType":5126,"count":60,"max":[1.2478424310684204,0.6322252154350281,0.8527054190635681],"min":[-0.8316301107406616,-0.019999999552965164,-0.8680137991905212],"type":"VEC3"},{"bufferView":6,"componentType":5126,"count":60,"type":"VEC2"},{"bufferView":7,"componentType":5123,"count":108,"type":"SCALAR"}],"asset":{"version":"2.0"},"bufferViews":[{"buffer":0,"byteOffset":0,"byteLength":2400,"target":34962},{"buffer":0,"byteOffset":2400,"byteLength":2400,"target":34962},{"buffer":0,"byteOffset":4800,"byteLength":1600,"target":34962},{"buffer":0,"byteOffset":6400,"byteLength":720,"target":34963},{"buffer":0,"byteOffset":7120,"byteLength":720,"target":34962},{"buffer":0,"byteOffset":7840,"byteLength":720,"target":34962},{"buffer":0,"byteOffset":8560,"byteLength":480,"target":34962},{"buffer":0,"byteOffset":9040,"byteLength":216,"target":34963}],"buffers":[{"byteLength":9256,"uri":"fern_bank.bin"}],"images":[{"name":"Grass","uri":"../nature/Grass.png"},{"name":"Leaves","uri":"../nature/Leaves.png"}],"materials":[{"alphaCutoff":0.3,"alphaMode":"MASK","doubleSided":true,"name":"Fern_Frond","pbrMetallicRoughness":{"baseColorFactor":[0.75,0.95,0.7,1.0],"baseColorTexture":{"index":1},"metallicFactor":0,"roughnessFactor":0.8999999761581421}},{"doubleSided":false,"name":"Grass_Blade","pbrMetallicRoughness":{"baseColorFactor":[1.0,1.0,1.0,1.0],"baseColorTexture":{"index":0},"metallicFactor":0,"roughnessFactor":0.8999999761581421}}],"meshes":[{"name":"fern_bank_Fern_Frond","primitives":[{"attributes":{"NORMAL":0,"POSITION":1,"TEXCOORD_0":2},"indices":3,"material":0}]},{"name":"fern_bank_Grass_Blade","primitives":[{"attributes":{"NORMAL":4,"POSITION":5,"TEXCOORD_0":6},"indices":7,"material":1}]}],"nodes":[{"mesh":0,"name":"fern_bank_Fern_Frond"},{"mesh":1,"name":"fern_bank_Grass_Blade"}],"scene":0,"scenes":[{"name":"Scene","nodes":[0,1]}],"textures":[{"source":0},{"source":1}]}