{"accessors":[{"bufferView":0,"componentType":5126,"count":68,"type":"VEC3"},{"bufferView":1,"componentType":5126,"count":68,"max":[0.9181119203567505,9.5,0.8517909646034241],"min":[-0.8067798018455505,-0.25,-0.9481493234634399],"type":"VEC3"},{"bufferView":2,"componentType":5126,"count":68,"type":"VEC2"},{"bufferView":3,"componentType":5123,"count":204,"type":"SCALAR"},{"bufferView":4,"componentType":5126,"count":232,"type":"VEC3"},{"bufferView":5,"componentType":5126,"count":232,"max":[2.1389999389648438,10.25,2.0853707790374756],"min":[-1.9271724224090576,0.925000011920929,-2.0853707790374756],"type":"VEC3"},{"bufferView":6,"componentType":5123,"count":336,"type":"SCALAR"},{"bufferView":7,"componentType":5126,"count":486,"type":"VEC3"},{"bufferView":8,"componentType":5126,"count":486,"max":[3.6143219470977783,10.050000190734863,3.6236379146575928],"min":[-3.3606534004211426,0.5499999523162842,-3.5419750213623047],"type":"VEC3"},{"bufferView":9,"componentType":5126,"count":486,"type":"VEC2"},{"bufferView":10,"componentType":5123,"count":972,"type":"SCALAR"}],"asset":{"version":"2.0"},"bufferViews":[{"buffer":0,"byteOffset":0,"byteLength":816,"target":34962},{"buffer":0,"byteOffset":816,"byteLength":816,"target":34962},{"buffer":0,"byteOffset":1632,"byteLength":544,"target":34962},{"buffer":0,"byteOffset":2176,"byteLength":408,"target":34963},{"buffer":0,"byteOffset":2584,"byteLength":2784,"target":34962},{"buffer":0,"byteOffset":5368,"byteLength":2784,"target":34962},{"buffer":0,"byteOffset":8152,"byteLength":672,"target":34963},{"buffer":0,"byteOffset":8824,"byteLength":5832,"target":34962},{"buffer":0,"byteOffset":14656,"byteLength":5832,"target":34962},{"buffer":0,"byteOffset":20488,"byteLength":3888,"target":34962},{"buffer":0,"byteOffset":24376,"byteLength":1944,"target":34963}],"buffers":[{"byteLength":26320,"uri":"fir.bin"}],"images":[{"name":"Bark_NormalTree","uri":"../nature/Bark_NormalTree.png"},{"name":"Leaf_Pine_C","uri":"../nature/Leaf_Pine_C.png"}],"materials":[{"doubleSided":false,"name":"Bark_Dark","pbrMetallicRoughness":{"baseColorFactor":[0.6,0.55,0.5,1.0],"baseColorTexture":{"index":0},"metallicFactor":0,"roughnessFactor":0.8999999761581421}},{"doubleSided":false,"name":"Core_Fir","pbrMetallicRoughness":{"baseColorFactor":[0.019999999552965164,0.05999999865889549,0.009999999776482582,1],"metallicFactor":0}},{"alphaCutoff":0.3,"alphaMode":"MASK","doubleSided":true,"name":"Leaf_Fir","pbrMetallicRoughness":{"baseColorFactor":[0.8,0.95,1.0,1.0],"baseColorTexture":{"index":1},"metallicFactor":0,"roughnessFactor":0.8999999761581421}}],"meshes":[{"name":"fir_Bark_Dark","primitives":[{"attributes":{"NORMAL":0,"POSITION":1,"TEXCOORD_0":2},"indices":3,"material":0}]},{"name":"fir_Core_Fir","primitives":[{"attributes":{"NORMAL":4,"POSITION":5},"indices":6,"material":1}]},{"name":"fir_Leaf_Fir","primitives":[{"attributes":{"NORMAL":7,"POSITION":8,"TEXCOORD_0":9},"indices":10,"material":2}]}],"nodes":[{"mesh":0,"name":"fir_Bark_Dark"},{"mesh":1,"name":"fir_Core_Fir"},{"mesh":2,"name":"fir_Leaf_Fir"}],"scene":0,"scenes":[{"name":"Scene","nodes":[0,1,2]}],"textures":[{"source":0},{"source":1}]}