{"accessors":[{"bufferView":0,"componentType":5126,"count":100,"max":[0.5823028683662415,1.0081878900527954,0.5439347624778748],"min":[-0.3928094208240509,-0.019999999552965164,-0.5016813278198242],"type":"VEC3"},{"bufferView":1,"componentType":5126,"count":100,"type":"VEC3"},{"bufferView":2,"componentType":5126,"count":100,"type":"VEC2"},{"bufferView":3,"componentType":5123,"count":180,"type":"SCALAR"},{"bufferView":4,"componentType":5126,"count":40,"max":[0.6757557392120361,1.0532816648483276,0.5199297666549683],"min":[-0.3174320459365845,-0.019999999552965164,-0.7014217376708984],"type":"VEC3"},{"bufferView":5,"componentType":5126,"count":40,"type":"VEC3"},{"bufferView":6,"componentType":5126,"count":40,"type":"VEC2"},{"bufferView":7,"componentType":5123,"count":72,"type":"SCALAR"}],"asset":{"version":"2.0"},"bufferViews":[{"buffer":0,"byteLength":1200,"byteOffset":0,"target":34962},{"buffer":0,"byteLength":1200,"byteOffset":1200,"target":34962},{"buffer":0,"byteLength":800,"byteOffset":2400,"target":34962},{"buffer":0,"byteLength":360,"byteOffset":3200,"target":34963},{"buffer":0,"byteLength":480,"byteOffset":3560,"target":34962},{"buffer":0,"byteLength":480,"byteOffset":4040,"target":34962},{"buffer":0,"byteLength":320,"byteOffset":4520,"target":34962},{"buffer":0,"byteLength":144,"byteOffset":4840,"target":34963}],"buffers":[{"byteLength":4984,"uri":"grass_tall.bin"}],"images":[{"name":"Grass","uri":"../nature/Grass.png"}],"materials":[{"doubleSided":false,"name":"Grass_Blade","pbrMetallicRoughness":{"baseColorFactor":[1.0,1.0,1.0,1.0],"baseColorTexture":{"index":0},"metallicFactor":0,"roughnessFactor":0.8999999761581421}},{"doubleSided":false,"name":"Grass_BladeLight","pbrMetallicRoughness":{"baseColorFactor":[1.0,1.0,1.0,1.0],"baseColorTexture":{"index":0},"metallicFactor":0,"roughnessFactor":0.8999999761581421}}],"meshes":[{"name":"grass_tall_Grass_Blade","primitives":[{"attributes":{"NORMAL":1,"POSITION":0,"TEXCOORD_0":2},"indices":3,"material":0}]},{"name":"grass_tall_Grass_BladeLight","primitives":[{"attributes":{"NORMAL":5,"POSITION":4,"TEXCOORD_0":6},"indices":7,"material":1}]}],"nodes":[{"mesh":0,"name":"grass_tall_Grass_Blade"},{"mesh":1,"name":"grass_tall_Grass_BladeLight"}],"scene":0,"scenes":[{"name":"Scene","nodes":[0,1]}],"textures":[{"source":0}]}
