{"accessors":[{"bufferView":0,"componentType":5126,"count":312,"type":"VEC3"},{"bufferView":1,"componentType":5126,"count":312,"max":[2.8399999141693115,2.9200000762939453,0.38999998569488525],"min":[-2.8399999141693115,0.04000002145767212,-0.38999998569488525],"type":"VEC3"},{"bufferView":2,"componentType":5123,"count":468,"type":"SCALAR"},{"bufferView":3,"componentType":5126,"count":756,"type":"VEC3"},{"bufferView":4,"componentType":5126,"count":756,"max":[3.3099725246429443,3.2461562156677246,0.9021273851394653],"min":[-3.260328531265259,-0.32764536142349243,-0.8694113492965698],"type":"VEC3"},{"bufferView":5,"componentType":5126,"count":756,"type":"VEC2"},{"bufferView":6,"componentType":5123,"count":1134,"type":"SCALAR"},{"bufferView":7,"componentType":5126,"count":336,"type":"VEC3"},{"bufferView":8,"componentType":5126,"count":336,"max":[1.6464805603027344,1.0499999523162842,-0.08869796991348267],"min":[-1.6464804410934448,0.050000011920928955,-1.3090226650238037],"type":"VEC3"},{"bufferView":9,"componentType":5123,"count":504,"type":"SCALAR"}],"asset":{"version":"2.0"},"bufferViews":[{"buffer":0,"byteOffset":0,"byteLength":3744,"target":34962},{"buffer":0,"byteOffset":3744,"byteLength":3744,"target":34962},{"buffer":0,"byteOffset":7488,"byteLength":936,"target":34963},{"buffer":0,"byteOffset":8424,"byteLength":9072,"target":34962},{"buffer":0,"byteOffset":17496,"byteLength":9072,"target":34962},{"buffer":0,"byteOffset":26568,"byteLength":6048,"target":34962},{"buffer":0,"byteOffset":32616,"byteLength":2268,"target":34963},{"buffer":0,"byteOffset":34884,"byteLength":4032,"target":34962},{"buffer":0,"byteOffset":38916,"byteLength":4032,"target":34962},{"buffer":0,"byteOffset":42948,"byteLength":1008,"target":34963}],"buffers":[{"byteLength":43956,"uri":"hedge_gate.bin"}],"images":[{"name":"Leaves_NormalTree_C","uri":"../nature/Leaves_NormalTree_C.png"}],"materials":[{"doubleSided":false,"name":"Core_Hedge","pbrMetallicRoughness":{"baseColorFactor":[0.03500000014901161,0.10000000149011612,0,1],"metallicFactor":0}},{"alphaCutoff":0.3,"alphaMode":"MASK","doubleSided":true,"name":"Leaf_Hedge","pbrMetallicRoughness":{"baseColorFactor":[0.55,0.8,1.0,1.0],"baseColorTexture":{"index":0},"metallicFactor":0,"roughnessFactor":0.8999999761581421}},{"doubleSided":false,"name":"Trellis_Wood","pbrMetallicRoughness":{"baseColorFactor":[0.36000001430511475,0.2199999988079071,0.10000000149011612,1],"metallicFactor":0,"roughnessFactor":0.8500000238418579}}],"meshes":[{"name":"hedge_gate_Core_Hedge","primitives":[{"attributes":{"NORMAL":0,"POSITION":1},"indices":2,"material":0}]},{"name":"hedge_gate_Leaf_Hedge","primitives":[{"attributes":{"NORMAL":3,"POSITION":4,"TEXCOORD_0":5},"indices":6,"material":1}]},{"name":"hedge_gate_Trellis_Wood","primitives":[{"attributes":{"NORMAL":7,"POSITION":8},"indices":9,"material":2}]}],"nodes":[{"mesh":0,"name":"hedge_gate_Core_Hedge"},{"mesh":1,"name":"hedge_gate_Leaf_Hedge"},{"mesh":2,"name":"hedge_gate_Trellis_Wood"}],"scene":0,"scenes":[{"name":"Scene","nodes":[0,1,2]}],"textures":[{"source":0}]}