{"accessors":[{"bufferView":0,"componentType":5126,"count":24,"max":[1.940000057220459,1.3600000143051147,0.38999998569488525],"min":[-1.940000057220459,0.039999961853027344,-0.38999998569488525],"type":"VEC3"},{"bufferView":1,"componentType":5126,"count":24,"type":"VEC3"},{"bufferView":2,"componentType":5126,"count":24,"type":"VEC2"},{"bufferView":3,"componentType":5123,"count":36,"type":"SCALAR"},{"bufferView":4,"componentType":5126,"count":616,"max":[2.4418556690216064,1.8165596723556519,0.9058595895767212],"min":[-2.4638314247131348,-0.38938283920288086,-0.8653519153594971],"type":"VEC3"},{"bufferView":5,"componentType":5126,"count":616,"type":"VEC3"},{"bufferView":6,"componentType":5126,"count":616,"type":"VEC2"},{"bufferView":7,"componentType":5123,"count":924,"type":"SCALAR"}],"asset":{"version":"2.0"},"bufferViews":[{"buffer":0,"byteLength":288,"byteOffset":0,"target":34962},{"buffer":0,"byteLength":288,"byteOffset":288,"target":34962},{"buffer":0,"byteLength":192,"byteOffset":576,"target":34962},{"buffer":0,"byteLength":72,"byteOffset":768,"target":34963},{"buffer":0,"byteLength":7392,"byteOffset":840,"target":34962},{"buffer":0,"byteLength":7392,"byteOffset":8232,"target":34962},{"buffer":0,"byteLength":4928,"byteOffset":15624,"target":34962},{"buffer":0,"byteLength":1848,"byteOffset":20552,"target":34963}],"buffers":[{"byteLength":22400,"uri":"hedge_long.bin"}],"images":[{"name":"Leaves_NormalTree_C","uri":"../nature/Leaves_NormalTree_C.png"}],"materials":[{"doubleSided":false,"name":"Core_Hedge","pbrMetallicRoughness":{"baseColorFactor":[0.03500000014901161,0.10000000149011612,0,1],"metallicFactor":0}},{"alphaCutoff":0.3,"alphaMode":"MASK","doubleSided":true,"name":"Leaf_Hedge","pbrMetallicRoughness":{"baseColorFactor":[0.55,0.8,1.0,1.0],"baseColorTexture":{"index":0},"metallicFactor":0,"roughnessFactor":0.8999999761581421}}],"meshes":[{"name":"hedge_long_Core_Hedge","primitives":[{"attributes":{"NORMAL":1,"POSITION":0,"TEXCOORD_0":2},"indices":3,"material":0}]},{"name":"hedge_long_Leaf_Hedge","primitives":[{"attributes":{"NORMAL":5,"POSITION":4,"TEXCOORD_0":6},"indices":7,"material":1}]}],"nodes":[{"mesh":0,"name":"hedge_long_Core_Hedge"},{"mesh":1,"name":"hedge_long_Leaf_Hedge"}],"scene":0,"scenes":[{"name":"Scene","nodes":[0,1]}],"textures":[{"source":0}]}
