{"accessors":[{"bufferView":0,"componentType":5126,"count":184,"max":[1.5467605590820312,1.3604986667633057,0.24454684555530548],"min":[-1.4064160585403442,-0.25563159584999084,-0.4296295940876007],"type":"VEC3"},{"bufferView":1,"componentType":5126,"count":184,"type":"VEC3"},{"bufferView":2,"componentType":5126,"count":184,"type":"VEC2"},{"bufferView":3,"componentType":5123,"count":276,"type":"SCALAR"}],"asset":{"version":"2.0"},"bufferViews":[{"buffer":0,"byteLength":2208,"byteOffset":0,"target":34962},{"buffer":0,"byteLength":2208,"byteOffset":2208,"target":34962},{"buffer":0,"byteLength":1472,"byteOffset":4416,"target":34962},{"buffer":0,"byteLength":552,"byteOffset":5888,"target":34963}],"buffers":[{"byteLength":6440,"uri":"ivy_low.bin"}],"images":[{"name":"Leaves_NormalTree_C","uri":"../nature/Leaves_NormalTree_C.png"}],"materials":[{"alphaCutoff":0.3,"alphaMode":"MASK","doubleSided":true,"name":"Leaf_Ivy","pbrMetallicRoughness":{"baseColorFactor":[0.6,0.85,1.0,1.0],"baseColorTexture":{"index":0},"metallicFactor":0,"roughnessFactor":0.8999999761581421}}],"meshes":[{"name":"ivy_low_Leaf_Ivy","primitives":[{"attributes":{"NORMAL":1,"POSITION":0,"TEXCOORD_0":2},"indices":3,"material":0}]}],"nodes":[{"mesh":0,"name":"ivy_low_Leaf_Ivy"}],"scene":0,"scenes":[{"name":"Scene","nodes":[0]}],"textures":[{"source":0}]}
