{"accessors":[{"bufferView":0,"componentType":5126,"count":80,"type":"VEC3"},{"bufferView":1,"componentType":5126,"count":80,"max":[1.1800073385238647,2.301386833190918,0.1550000011920929],"min":[-1.097164273262024,-0.007842892780900002,0.10999999940395355],"type":"VEC3"},{"bufferView":2,"componentType":5126,"count":80,"type":"VEC2"},{"bufferView":3,"componentType":5123,"count":270,"type":"SCALAR"},{"bufferView":4,"componentType":5126,"count":320,"type":"VEC3"},{"bufferView":5,"componentType":5126,"count":320,"max":[1.6721378564834595,2.7533645629882812,0.38747870922088623],"min":[-1.6557490825653076,-0.3307528793811798,-0.026324793696403503],"type":"VEC3"},{"bufferView":6,"componentType":5126,"count":320,"type":"VEC2"},{"bufferView":7,"componentType":5123,"count":480,"type":"SCALAR"}],"asset":{"version":"2.0"},"bufferViews":[{"buffer":0,"byteOffset":0,"byteLength":960,"target":34962},{"buffer":0,"byteOffset":960,"byteLength":960,"target":34962},{"buffer":0,"byteOffset":1920,"byteLength":640,"target":34962},{"buffer":0,"byteOffset":2560,"byteLength":540,"target":34963},{"buffer":0,"byteOffset":3100,"byteLength":3840,"target":34962},{"buffer":0,"byteOffset":6940,"byteLength":3840,"target":34962},{"buffer":0,"byteOffset":10780,"byteLength":2560,"target":34962},{"buffer":0,"byteOffset":13340,"byteLength":960,"target":34963}],"buffers":[{"byteLength":14300,"uri":"ivy_wall.bin"}],"images":[{"name":"Bark_NormalTree","uri":"../nature/Bark_NormalTree.png"},{"name":"Leaves_NormalTree_C","uri":"../nature/Leaves_NormalTree_C.png"}],"materials":[{"doubleSided":false,"name":"Bark_Dark","pbrMetallicRoughness":{"baseColorFactor":[0.6,0.55,0.5,1.0],"baseColorTexture":{"index":0},"metallicFactor":0,"roughnessFactor":0.8999999761581421}},{"alphaCutoff":0.3,"alphaMode":"MASK","doubleSided":true,"name":"Leaf_Ivy","pbrMetallicRoughness":{"baseColorFactor":[0.6,0.85,1.0,1.0],"baseColorTexture":{"index":1},"metallicFactor":0,"roughnessFactor":0.8999999761581421}}],"meshes":[{"name":"ivy_wall_Bark_Dark","primitives":[{"attributes":{"NORMAL":0,"POSITION":1,"TEXCOORD_0":2},"indices":3,"material":0}]},{"name":"ivy_wall_Leaf_Ivy","primitives":[{"attributes":{"NORMAL":4,"POSITION":5,"TEXCOORD_0":6},"indices":7,"material":1}]}],"nodes":[{"mesh":0,"name":"ivy_wall_Bark_Dark"},{"mesh":1,"name":"ivy_wall_Leaf_Ivy"}],"scene":0,"scenes":[{"name":"Scene","nodes":[0,1]}],"textures":[{"source":0},{"source":1}]}