{"accessors":[{"bufferView":0,"componentType":5126,"count":176,"type":"VEC3"},{"bufferView":1,"componentType":5126,"count":176,"max":[3.071207284927368,5.245095729827881,3.1424567699432373],"min":[-3.0703675746917725,-0.25,-3.1443324089050293],"type":"VEC3"},{"bufferView":2,"componentType":5126,"count":176,"type":"VEC2"},{"bufferView":3,"componentType":5123,"count":552,"type":"SCALAR"},{"bufferView":4,"componentType":5126,"count":180,"type":"VEC3"},{"bufferView":5,"componentType":5126,"count":180,"max":[3.5941436290740967,7.181478977203369,3.3536152839660645],"min":[-3.801363945007324,3.971834421157837,-3.7033395767211914],"type":"VEC3"},{"bufferView":6,"componentType":5123,"count":360,"type":"SCALAR"},{"bufferView":7,"componentType":5126,"count":1100,"type":"VEC3"},{"bufferView":8,"componentType":5126,"count":1100,"max":[4.8451642990112305,8.557825088500977,4.6792988777160645],"min":[-5.066679000854492,3.030564308166504,-5.005130767822266],"type":"VEC3"},{"bufferView":9,"componentType":5126,"count":1100,"type":"VEC2"},{"bufferView":10,"componentType":5123,"count":1650,"type":"SCALAR"}],"asset":{"version":"2.0"},"bufferViews":[{"buffer":0,"byteOffset":0,"byteLength":2112,"target":34962},{"buffer":0,"byteOffset":2112,"byteLength":2112,"target":34962},{"buffer":0,"byteOffset":4224,"byteLength":1408,"target":34962},{"buffer":0,"byteOffset":5632,"byteLength":1104,"target":34963},{"buffer":0,"byteOffset":6736,"byteLength":2160,"target":34962},{"buffer":0,"byteOffset":8896,"byteLength":2160,"target":34962},{"buffer":0,"byteOffset":11056,"byteLength":720,"target":34963},{"buffer":0,"byteOffset":11776,"byteLength":13200,"target":34962},{"buffer":0,"byteOffset":24976,"byteLength":13200,"target":34962},{"buffer":0,"byteOffset":38176,"byteLength":8800,"target":34962},{"buffer":0,"byteOffset":46976,"byteLength":3300,"target":34963}],"buffers":[{"byteLength":50276,"uri":"linden_broad.bin"}],"images":[{"name":"Bark_NormalTree","uri":"../nature/Bark_NormalTree.png"},{"name":"Leaves_NormalTree_C","uri":"../nature/Leaves_NormalTree_C.png"}],"materials":[{"doubleSided":false,"name":"Bark_Brown","pbrMetallicRoughness":{"baseColorFactor":[1.0,1.0,1.0,1.0],"baseColorTexture":{"index":0},"metallicFactor":0,"roughnessFactor":0.8999999761581421}},{"doubleSided":false,"name":"Core_Dark","pbrMetallicRoughness":{"baseColorFactor":[0.03500000014901161,0.10000000149011612,0,1],"metallicFactor":0}},{"alphaCutoff":0.3,"alphaMode":"MASK","doubleSided":true,"name":"Leaf_Dark","pbrMetallicRoughness":{"baseColorFactor":[0.55,0.78,1.0,1.0],"baseColorTexture":{"index":1},"metallicFactor":0,"roughnessFactor":0.8999999761581421}}],"meshes":[{"name":"linden_broad_Bark_Brown","primitives":[{"attributes":{"NORMAL":0,"POSITION":1,"TEXCOORD_0":2},"indices":3,"material":0}]},{"name":"linden_broad_Core_Dark","primitives":[{"attributes":{"NORMAL":4,"POSITION":5},"indices":6,"material":1}]},{"name":"linden_broad_Leaf_Dark","primitives":[{"attributes":{"NORMAL":7,"POSITION":8,"TEXCOORD_0":9},"indices":10,"material":2}]}],"nodes":[{"mesh":0,"name":"linden_broad_Bark_Brown"},{"mesh":1,"name":"linden_broad_Core_Dark"},{"mesh":2,"name":"linden_broad_Leaf_Dark"}],"scene":0,"scenes":[{"name":"Scene","nodes":[0,1,2]}],"textures":[{"source":0},{"source":1}]}