{"accessors":[{"bufferView":0,"componentType":5126,"count":64,"max":[2.3922219276428223,1.2209080457687378,0.5184481739997864],"min":[-2.434251070022583,-0.055314719676971436,-1.0173052549362183],"type":"VEC3"},{"bufferView":1,"componentType":5126,"count":64,"type":"VEC3"},{"bufferView":2,"componentType":5126,"count":64,"type":"VEC2"},{"bufferView":3,"componentType":5123,"count":216,"type":"SCALAR"},{"bufferView":4,"componentType":5126,"count":25,"max":[-0.6709675788879395,0.7287470698356628,0.20350663363933563],"min":[-1.9090602397918701,0.5087769627571106,-0.26464033126831055],"type":"VEC3"},{"bufferView":5,"componentType":5126,"count":25,"type":"VEC3"},{"bufferView":6,"componentType":5126,"count":25,"type":"VEC2"},{"bufferView":7,"componentType":5123,"count":60,"type":"SCALAR"},{"bufferView":8,"componentType":5126,"count":96,"max":[2.5571062564849854,0.6480000019073486,0.47720959782600403],"min":[-2.725477933883667,-0.03600001335144043,-0.9873911142349243],"type":"VEC3"},{"bufferView":9,"componentType":5126,"count":96,"type":"VEC3"},{"bufferView":10,"componentType":5126,"count":96,"type":"VEC2"},{"bufferView":11,"componentType":5123,"count":96,"type":"SCALAR"}],"asset":{"version":"2.0"},"bufferViews":[{"buffer":0,"byteLength":768,"byteOffset":0,"target":34962},{"buffer":0,"byteLength":768,"byteOffset":768,"target":34962},{"buffer":0,"byteLength":512,"byteOffset":1536,"target":34962},{"buffer":0,"byteLength":432,"byteOffset":2048,"target":34963},{"buffer":0,"byteLength":300,"byteOffset":2480,"target":34962},{"buffer":0,"byteLength":300,"byteOffset":2780,"target":34962},{"buffer":0,"byteLength":200,"byteOffset":3080,"target":34962},{"buffer":0,"byteLength":120,"byteOffset":3280,"target":34963},{"buffer":0,"byteLength":1152,"byteOffset":3400,"target":34962},{"buffer":0,"byteLength":1152,"byteOffset":4552,"target":34962},{"buffer":0,"byteLength":768,"byteOffset":5704,"target":34962},{"buffer":0,"byteLength":192,"byteOffset":6472,"target":34963}],"buffers":[{"byteLength":6664,"uri":"log_broken.bin"}],"images":[{"name":"Bark_NormalTree","uri":"../nature/Bark_NormalTree.png"}],"materials":[{"doubleSided":false,"name":"Bark_Dark","pbrMetallicRoughness":{"baseColorFactor":[0.6,0.55,0.5,1.0],"baseColorTexture":{"index":0},"metallicFactor":0,"roughnessFactor":0.8999999761581421}},{"doubleSided":false,"name":"Moss_Cap","pbrMetallicRoughness":{"baseColorFactor":[0.09000000357627869,0.20000000298023224,0.029999999329447746,1],"metallicFactor":0}},{"doubleSided":false,"name":"Wood_EndGrain","pbrMetallicRoughness":{"baseColorFactor":[0.41999998688697815,0.27000001072883606,0.11999999731779099,1],"metallicFactor":0,"roughnessFactor":0.8999999761581421}}],"meshes":[{"name":"log_broken_Bark_Dark","primitives":[{"attributes":{"NORMAL":1,"POSITION":0,"TEXCOORD_0":2},"indices":3,"material":0}]},{"name":"log_broken_Moss_Cap","primitives":[{"attributes":{"NORMAL":5,"POSITION":4,"TEXCOORD_0":6},"indices":7,"material":1}]},{"name":"log_broken_Wood_EndGrain","primitives":[{"attributes":{"NORMAL":9,"POSITION":8,"TEXCOORD_0":10},"indices":11,"material":2}]}],"nodes":[{"mesh":0,"name":"log_broken_Bark_Dark"},{"mesh":1,"name":"log_broken_Moss_Cap"},{"mesh":2,"name":"log_broken_Wood_EndGrain"}],"scene":0,"scenes":[{"name":"Scene","nodes":[0,1,2]}],"textures":[{"source":0}]}
