{"accessors":[{"bufferView":0,"componentType":5126,"count":50,"max":[2.0999999046325684,0.8800826072692871,0.472455769777298],"min":[-2.0999999046325684,-0.06519606709480286,-1.1105337142944336],"type":"VEC3"},{"bufferView":1,"componentType":5126,"count":50,"type":"VEC3"},{"bufferView":2,"componentType":5126,"count":50,"type":"VEC2"},{"bufferView":3,"componentType":5123,"count":186,"type":"SCALAR"},{"bufferView":4,"componentType":5126,"count":48,"max":[1.8995857238769531,0.9494353532791138,0.3193407952785492],"min":[-1.827032446861267,0.670470654964447,-0.34954822063446045],"type":"VEC3"},{"bufferView":5,"componentType":5126,"count":48,"type":"VEC3"},{"bufferView":6,"componentType":5126,"count":48,"type":"VEC2"},{"bufferView":7,"componentType":5123,"count":120,"type":"SCALAR"},{"bufferView":8,"componentType":5126,"count":72,"max":[2.0999999046325684,0.8807077407836914,0.4510524570941925],"min":[-2.0999999046325684,-0.06470771878957748,-0.47999998927116394],"type":"VEC3"},{"bufferView":9,"componentType":5126,"count":72,"type":"VEC3"},{"bufferView":10,"componentType":5126,"count":72,"type":"VEC2"},{"bufferView":11,"componentType":5123,"count":108,"type":"SCALAR"},{"bufferView":12,"componentType":5126,"count":36,"max":[2.0999999046325684,0.729441225528717,0.3067156672477722],"min":[-2.0999999046325684,0.0865587517619133,-0.3264000117778778],"type":"VEC3"},{"bufferView":13,"componentType":5126,"count":36,"type":"VEC3"},{"bufferView":14,"componentType":5126,"count":36,"type":"VEC2"},{"bufferView":15,"componentType":5123,"count":54,"type":"SCALAR"}],"asset":{"version":"2.0"},"bufferViews":[{"buffer":0,"byteLength":600,"byteOffset":0,"target":34962},{"buffer":0,"byteLength":600,"byteOffset":600,"target":34962},{"buffer":0,"byteLength":400,"byteOffset":1200,"target":34962},{"buffer":0,"byteLength":372,"byteOffset":1600,"target":34963},{"buffer":0,"byteLength":576,"byteOffset":1972,"target":34962},{"buffer":0,"byteLength":576,"byteOffset":2548,"target":34962},{"buffer":0,"byteLength":384,"byteOffset":3124,"target":34962},{"buffer":0,"byteLength":240,"byteOffset":3508,"target":34963},{"buffer":0,"byteLength":864,"byteOffset":3748,"target":34962},{"buffer":0,"byteLength":864,"byteOffset":4612,"target":34962},{"buffer":0,"byteLength":576,"byteOffset":5476,"target":34962},{"buffer":0,"byteLength":216,"byteOffset":6052,"target":34963},{"buffer":0,"byteLength":432,"byteOffset":6268,"target":34962},{"buffer":0,"byteLength":432,"byteOffset":6700,"target":34962},{"buffer":0,"byteLength":288,"byteOffset":7132,"target":34962},{"buffer":0,"byteLength":108,"byteOffset":7420,"target":34963}],"buffers":[{"byteLength":7528,"uri":"log_hollow.bin"}],"images":[{"name":"Bark_NormalTree","uri":"../nature/Bark_NormalTree.png"}],"materials":[{"doubleSided":false,"name":"Bark_Brown","pbrMetallicRoughness":{"baseColorFactor":[1.0,1.0,1.0,1.0],"baseColorTexture":{"index":0},"metallicFactor":0,"roughnessFactor":0.8999999761581421}},{"doubleSided":false,"name":"Moss_Cap","pbrMetallicRoughness":{"baseColorFactor":[0.09000000357627869,0.20000000298023224,0.029999999329447746,1],"metallicFactor":0}},{"doubleSided":false,"name":"Wood_EndGrain","pbrMetallicRoughness":{"baseColorFactor":[0.41999998688697815,0.27000001072883606,0.11999999731779099,1],"metallicFactor":0,"roughnessFactor":0.8999999761581421}},{"doubleSided":false,"name":"Wood_Rot","pbrMetallicRoughness":{"baseColorFactor":[0.20000000298023224,0.10999999940395355,0.05000000074505806,1],"metallicFactor":0,"roughnessFactor":0.8999999761581421}}],"meshes":[{"name":"log_hollow_Bark_Brown","primitives":[{"attributes":{"NORMAL":1,"POSITION":0,"TEXCOORD_0":2},"indices":3,"material":0}]},{"name":"log_hollow_Moss_Cap","primitives":[{"attributes":{"NORMAL":5,"POSITION":4,"TEXCOORD_0":6},"indices":7,"material":1}]},{"name":"log_hollow_Wood_EndGrain","primitives":[{"attributes":{"NORMAL":9,"POSITION":8,"TEXCOORD_0":10},"indices":11,"material":2}]},{"name":"log_hollow_Wood_Rot","primitives":[{"attributes":{"NORMAL":13,"POSITION":12,"TEXCOORD_0":14},"indices":15,"material":3}]}],"nodes":[{"mesh":0,"name":"log_hollow_Bark_Brown"},{"mesh":1,"name":"log_hollow_Moss_Cap"},{"mesh":2,"name":"log_hollow_Wood_EndGrain"},{"mesh":3,"name":"log_hollow_Wood_Rot"}],"scene":0,"scenes":[{"name":"Scene","nodes":[0,1,2,3]}],"textures":[{"source":0}]}
