{"accessors":[{"bufferView":0,"componentType":5126,"count":40,"max":[0.8311331868171692,0.03999999910593033,1.0836061239242554],"min":[-1.1089386940002441,0.03999999910593033,-1.3180514574050903],"type":"VEC3"},{"bufferView":1,"componentType":5126,"count":40,"type":"VEC3"},{"bufferView":2,"componentType":5126,"count":40,"type":"VEC2"},{"bufferView":3,"componentType":5123,"count":60,"type":"SCALAR"},{"bufferView":4,"componentType":5126,"count":450,"max":[1.742765188217163,0.2931370437145233,1.8234813213348389],"min":[-1.7204371690750122,0.07800000160932541,-1.8178002834320068],"type":"VEC3"},{"bufferView":5,"componentType":5126,"count":450,"type":"VEC3"},{"bufferView":6,"componentType":5126,"count":450,"type":"VEC2"},{"bufferView":7,"componentType":5123,"count":540,"type":"SCALAR"},{"bufferView":8,"componentType":5126,"count":150,"max":[1.645849347114563,0.3065514862537384,1.7037185430526733],"min":[-1.1617183685302734,0.10504133254289627,-1.4904321432113647],"type":"VEC3"},{"bufferView":9,"componentType":5126,"count":150,"type":"VEC3"},{"bufferView":10,"componentType":5126,"count":150,"type":"VEC2"},{"bufferView":11,"componentType":5123,"count":180,"type":"SCALAR"},{"bufferView":12,"componentType":5126,"count":368,"max":[1.7019652128219604,0.20436766743659973,1.7856179475784302],"min":[-1.6660908460617065,0,-1.7387561798095703],"type":"VEC3"},{"bufferView":13,"componentType":5126,"count":368,"type":"VEC3"},{"bufferView":14,"componentType":5126,"count":368,"type":"VEC2"},{"bufferView":15,"componentType":5123,"count":552,"type":"SCALAR"},{"bufferView":16,"componentType":5126,"count":550,"max":[1.6127665042877197,0.2954155504703522,1.8111127614974976],"min":[-1.6954319477081299,0.07800000160932541,-1.7323009967803955],"type":"VEC3"},{"bufferView":17,"componentType":5126,"count":550,"type":"VEC3"},{"bufferView":18,"componentType":5126,"count":550,"type":"VEC2"},{"bufferView":19,"componentType":5123,"count":660,"type":"SCALAR"}],"asset":{"version":"2.0"},"bufferViews":[{"buffer":0,"byteLength":480,"byteOffset":0,"target":34962},{"buffer":0,"byteLength":480,"byteOffset":480,"target":34962},{"buffer":0,"byteLength":320,"byteOffset":960,"target":34962},{"buffer":0,"byteLength":120,"byteOffset":1280,"target":34963},{"buffer":0,"byteLength":5400,"byteOffset":1400,"target":34962},{"buffer":0,"byteLength":5400,"byteOffset":6800,"target":34962},{"buffer":0,"byteLength":3600,"byteOffset":12200,"target":34962},{"buffer":0,"byteLength":1080,"byteOffset":15800,"target":34963},{"buffer":0,"byteLength":1800,"byteOffset":16880,"target":34962},{"buffer":0,"byteLength":1800,"byteOffset":18680,"target":34962},{"buffer":0,"byteLength":1200,"byteOffset":20480,"target":34962},{"buffer":0,"byteLength":360,"byteOffset":21680,"target":34963},{"buffer":0,"byteLength":4416,"byteOffset":22040,"target":34962},{"buffer":0,"byteLength":4416,"byteOffset":26456,"target":34962},{"buffer":0,"byteLength":2944,"byteOffset":30872,"target":34962},{"buffer":0,"byteLength":1104,"byteOffset":33816,"target":34963},{"buffer":0,"byteLength":6600,"byteOffset":34920,"target":34962},{"buffer":0,"byteLength":6600,"byteOffset":41520,"target":34962},{"buffer":0,"byteLength":4400,"byteOffset":48120,"target":34962},{"buffer":0,"byteLength":1320,"byteOffset":52520,"target":34963}],"buffers":[{"byteLength":53840,"uri":"mushroom_ring.bin"}],"images":[{"name":"Leaves","uri":"../nature/Leaves.png"}],"materials":[{"alphaCutoff":0.3,"alphaMode":"MASK","doubleSided":true,"name":"Clover_Leaf","pbrMetallicRoughness":{"baseColorFactor":[1.0,1.0,1.0,1.0],"baseColorTexture":{"index":0},"metallicFactor":0,"roughnessFactor":0.8999999761581421}},{"doubleSided":false,"name":"Mushroom_Cream","pbrMetallicRoughness":{"baseColorFactor":[0.75,0.6200000047683716,0.44999998807907104,1],"metallicFactor":0,"roughnessFactor":0.8999999761581421}},{"doubleSided":false,"name":"Mushroom_Red","pbrMetallicRoughness":{"baseColorFactor":[0.6200000047683716,0.05999999865889549,0.029999999329447746,1],"metallicFactor":0,"roughnessFactor":0.8999999761581421}},{"doubleSided":false,"name":"Mushroom_Stem","pbrMetallicRoughness":{"baseColorFactor":[0.7799999713897705,0.7200000286102295,0.6000000238418579,1],"metallicFactor":0,"roughnessFactor":0.8999999761581421}},{"doubleSided":false,"name":"Mushroom_Tan","pbrMetallicRoughness":{"baseColorFactor":[0.47999998927116394,0.30000001192092896,0.15000000596046448,1],"metallicFactor":0,"roughnessFactor":0.8999999761581421}}],"meshes":[{"name":"mushroom_ring_Clover_Leaf","primitives":[{"attributes":{"NORMAL":1,"POSITION":0,"TEXCOORD_0":2},"indices":3,"material":0}]},{"name":"mushroom_ring_Mushroom_Cream","primitives":[{"attributes":{"NORMAL":5,"POSITION":4,"TEXCOORD_0":6},"indices":7,"material":1}]},{"name":"mushroom_ring_Mushroom_Red","primitives":[{"attributes":{"NORMAL":9,"POSITION":8,"TEXCOORD_0":10},"indices":11,"material":2}]},{"name":"mushroom_ring_Mushroom_Stem","primitives":[{"attributes":{"NORMAL":13,"POSITION":12,"TEXCOORD_0":14},"indices":15,"material":3}]},{"name":"mushroom_ring_Mushroom_Tan","primitives":[{"attributes":{"NORMAL":17,"POSITION":16,"TEXCOORD_0":18},"indices":19,"material":4}]}],"nodes":[{"mesh":0,"name":"mushroom_ring_Clover_Leaf"},{"mesh":1,"name":"mushroom_ring_Mushroom_Cream"},{"mesh":2,"name":"mushroom_ring_Mushroom_Red"},{"mesh":3,"name":"mushroom_ring_Mushroom_Stem"},{"mesh":4,"name":"mushroom_ring_Mushroom_Tan"}],"scene":0,"scenes":[{"name":"Scene","nodes":[0,1,2,3,4]}],"textures":[{"source":0}]}
