{"accessors":[{"bufferView":0,"componentType":5126,"count":162,"type":"VEC3"},{"bufferView":1,"componentType":5126,"count":162,"max":[3.3201990127563477,7.722227096557617,1.5180745124816895],"min":[-1.945717453956604,-0.25,-1.5712260007858276],"type":"VEC3"},{"bufferView":2,"componentType":5126,"count":162,"type":"VEC2"},{"bufferView":3,"componentType":5123,"count":480,"type":"SCALAR"},{"bufferView":4,"componentType":5126,"count":180,"type":"VEC3"},{"bufferView":5,"componentType":5126,"count":180,"max":[3.1678225994110107,8.782108306884766,1.903979778289795],"min":[-3.158216714859009,4.9076924324035645,-1.837054967880249],"type":"VEC3"},{"bufferView":6,"componentType":5123,"count":360,"type":"SCALAR"},{"bufferView":7,"componentType":5126,"count":880,"type":"VEC3"},{"bufferView":8,"componentType":5126,"count":880,"max":[4.42424201965332,9.822013854980469,2.875030040740967],"min":[-4.408464431762695,4.165143966674805,-2.891522169113159],"type":"VEC3"},{"bufferView":9,"componentType":5126,"count":880,"type":"VEC2"},{"bufferView":10,"componentType":5123,"count":1320,"type":"SCALAR"}],"asset":{"version":"2.0"},"bufferViews":[{"buffer":0,"byteOffset":0,"byteLength":1944,"target":34962},{"buffer":0,"byteOffset":1944,"byteLength":1944,"target":34962},{"buffer":0,"byteOffset":3888,"byteLength":1296,"target":34962},{"buffer":0,"byteOffset":5184,"byteLength":960,"target":34963},{"buffer":0,"byteOffset":6144,"byteLength":2160,"target":34962},{"buffer":0,"byteOffset":8304,"byteLength":2160,"target":34962},{"buffer":0,"byteOffset":10464,"byteLength":720,"target":34963},{"buffer":0,"byteOffset":11184,"byteLength":10560,"target":34962},{"buffer":0,"byteOffset":21744,"byteLength":10560,"target":34962},{"buffer":0,"byteOffset":32304,"byteLength":7040,"target":34962},{"buffer":0,"byteOffset":39344,"byteLength":2640,"target":34963}],"buffers":[{"byteLength":41984,"uri":"oak_forked.bin"}],"images":[{"name":"Bark_NormalTree","uri":"../nature/Bark_NormalTree.png"},{"name":"Leaves_NormalTree_C","uri":"../nature/Leaves_NormalTree_C.png"}],"materials":[{"doubleSided":false,"name":"Bark_Brown","pbrMetallicRoughness":{"baseColorFactor":[1.0,1.0,1.0,1.0],"baseColorTexture":{"index":0},"metallicFactor":0,"roughnessFactor":0.8999999761581421}},{"doubleSided":false,"name":"Core_Mid","pbrMetallicRoughness":{"baseColorFactor":[0.05000000074505806,0.12999999523162842,0,1],"metallicFactor":0}},{"alphaCutoff":0.3,"alphaMode":"MASK","doubleSided":true,"name":"Leaf_Mid","pbrMetallicRoughness":{"baseColorFactor":[0.8,1.0,1.0,1.0],"baseColorTexture":{"index":1},"metallicFactor":0,"roughnessFactor":0.8999999761581421}}],"meshes":[{"name":"oak_forked_Bark_Brown","primitives":[{"attributes":{"NORMAL":0,"POSITION":1,"TEXCOORD_0":2},"indices":3,"material":0}]},{"name":"oak_forked_Core_Mid","primitives":[{"attributes":{"NORMAL":4,"POSITION":5},"indices":6,"material":1}]},{"name":"oak_forked_Leaf_Mid","primitives":[{"attributes":{"NORMAL":7,"POSITION":8,"TEXCOORD_0":9},"indices":10,"material":2}]}],"nodes":[{"mesh":0,"name":"oak_forked_Bark_Brown"},{"mesh":1,"name":"oak_forked_Core_Mid"},{"mesh":2,"name":"oak_forked_Leaf_Mid"}],"scene":0,"scenes":[{"name":"Scene","nodes":[0,1,2]}],"textures":[{"source":0},{"source":1}]}