{"accessors":[{"bufferView":0,"componentType":5126,"count":280,"max":[4.469864845275879,6.4741668701171875,4.172399997711182],"min":[-4.178496360778809,-0.25,-4.585326671600342],"type":"VEC3"},{"bufferView":1,"componentType":5126,"count":280,"type":"VEC3"},{"bufferView":2,"componentType":5126,"count":280,"type":"VEC2"},{"bufferView":3,"componentType":5123,"count":930,"type":"SCALAR"},{"bufferView":4,"componentType":5126,"count":180,"max":[4.6483941078186035,8.252033233642578,4.599129676818848],"min":[-4.159495830535889,5.0489702224731445,-4.56484317779541],"type":"VEC3"},{"bufferView":5,"componentType":5126,"count":180,"type":"VEC3"},{"bufferView":6,"componentType":5126,"count":180,"type":"VEC2"},{"bufferView":7,"componentType":5123,"count":360,"type":"SCALAR"},{"bufferView":8,"componentType":5126,"count":1152,"max":[5.802488327026367,9.670721054077148,5.835913181304932],"min":[-5.822717189788818,4.350546360015869,-6.208845138549805],"type":"VEC3"},{"bufferView":9,"componentType":5126,"count":1152,"type":"VEC3"},{"bufferView":10,"componentType":5126,"count":1152,"type":"VEC2"},{"bufferView":11,"componentType":5123,"count":1728,"type":"SCALAR"}],"asset":{"version":"2.0"},"bufferViews":[{"buffer":0,"byteLength":3360,"byteOffset":0,"target":34962},{"buffer":0,"byteLength":3360,"byteOffset":3360,"target":34962},{"buffer":0,"byteLength":2240,"byteOffset":6720,"target":34962},{"buffer":0,"byteLength":1860,"byteOffset":8960,"target":34963},{"buffer":0,"byteLength":2160,"byteOffset":10820,"target":34962},{"buffer":0,"byteLength":2160,"byteOffset":12980,"target":34962},{"buffer":0,"byteLength":1440,"byteOffset":15140,"target":34962},{"buffer":0,"byteLength":720,"byteOffset":16580,"target":34963},{"buffer":0,"byteLength":13824,"byteOffset":17300,"target":34962},{"buffer":0,"byteLength":13824,"byteOffset":31124,"target":34962},{"buffer":0,"byteLength":9216,"byteOffset":44948,"target":34962},{"buffer":0,"byteLength":3456,"byteOffset":54164,"target":34963}],"buffers":[{"byteLength":57620,"uri":"oak_old.bin"}],"images":[{"name":"Bark_NormalTree","uri":"../nature/Bark_NormalTree.png"},{"name":"Leaves_NormalTree_C","uri":"../nature/Leaves_NormalTree_C.png"}],"materials":[{"doubleSided":false,"name":"Bark_Dark","pbrMetallicRoughness":{"baseColorFactor":[0.6,0.55,0.5,1.0],"baseColorTexture":{"index":0},"metallicFactor":0,"roughnessFactor":0.8999999761581421}},{"doubleSided":false,"name":"Core_Dark","pbrMetallicRoughness":{"baseColorFactor":[0.03500000014901161,0.10000000149011612,0,1],"metallicFactor":0}},{"alphaCutoff":0.3,"alphaMode":"MASK","doubleSided":true,"name":"Leaf_Dark","pbrMetallicRoughness":{"baseColorFactor":[0.55,0.78,1.0,1.0],"baseColorTexture":{"index":1},"metallicFactor":0,"roughnessFactor":0.8999999761581421}}],"meshes":[{"name":"oak_old_Bark_Dark","primitives":[{"attributes":{"NORMAL":1,"POSITION":0,"TEXCOORD_0":2},"indices":3,"material":0}]},{"name":"oak_old_Core_Dark","primitives":[{"attributes":{"NORMAL":5,"POSITION":4,"TEXCOORD_0":6},"indices":7,"material":1}]},{"name":"oak_old_Leaf_Dark","primitives":[{"attributes":{"NORMAL":9,"POSITION":8,"TEXCOORD_0":10},"indices":11,"material":2}]}],"nodes":[{"mesh":0,"name":"oak_old_Bark_Dark"},{"mesh":1,"name":"oak_old_Core_Dark"},{"mesh":2,"name":"oak_old_Leaf_Dark"}],"scene":0,"scenes":[{"name":"Scene","nodes":[0,1,2]}],"textures":[{"source":0},{"source":1}]}
