{"accessors":[{"bufferView":0,"componentType":5126,"count":4,"type":"VEC3"},{"bufferView":1,"componentType":5126,"count":4,"max":[0.16888968646526337,0.8420705795288086,-0.07341081649065018],"min":[-0.037327419966459274,0.7434711456298828,-0.28798091411590576],"type":"VEC3"},{"bufferView":2,"componentType":5126,"count":4,"type":"VEC2"},{"bufferView":3,"componentType":5123,"count":6,"type":"SCALAR"},{"bufferView":4,"componentType":5126,"count":4,"type":"VEC3"},{"bufferView":5,"componentType":5126,"count":4,"max":[-0.4108161926269531,0.9131237864494324,-0.06343420594930649],"min":[-0.6497694253921509,0.879814088344574,-0.30010470747947693],"type":"VEC3"},{"bufferView":6,"componentType":5126,"count":4,"type":"VEC2"},{"bufferView":7,"componentType":5126,"count":8,"type":"VEC3"},{"bufferView":8,"componentType":5126,"count":8,"max":[0.29875099658966064,0.9003695845603943,0.10988733172416687],"min":[-0.4094131588935852,0.76106196641922,-0.1742931306362152],"type":"VEC3"},{"bufferView":9,"componentType":5126,"count":8,"type":"VEC2"},{"bufferView":10,"componentType":5123,"count":12,"type":"SCALAR"},{"bufferView":11,"componentType":5126,"count":4,"type":"VEC3"},{"bufferView":12,"componentType":5126,"count":4,"max":[0.01844485104084015,0.81432044506073,0.23535585403442383],"min":[-0.2308151125907898,0.7226885557174683,-0.023012619465589523],"type":"VEC3"},{"bufferView":13,"componentType":5126,"count":4,"type":"VEC2"},{"bufferView":14,"componentType":5126,"count":8,"type":"VEC3"},{"bufferView":15,"componentType":5126,"count":8,"max":[0.7185264229774475,0.9047972559928894,0.2541472017765045],"min":[0.1920842081308365,0.7315596342086792,-0.1414603292942047],"type":"VEC3"},{"bufferView":16,"componentType":5126,"count":8,"type":"VEC2"},{"bufferView":17,"componentType":5126,"count":57,"type":"VEC3"},{"bufferView":18,"componentType":5126,"count":57,"max":[0.5745968222618103,0.7970339059829712,0.1669846773147583],"min":[-0.6053211688995361,0.44491666555404663,-0.15198734402656555],"type":"VEC3"},{"bufferView":19,"componentType":5123,"count":120,"type":"SCALAR"},{"bufferView":20,"componentType":5126,"count":40,"type":"VEC3"},{"bufferView":21,"componentType":5126,"count":40,"max":[0.7732227444648743,0.5574980974197388,0.36354687809944153],"min":[-0.7694092988967896,-0.02387288212776184,-0.3616032302379608],"type":"VEC3"},{"bufferView":22,"componentType":5126,"count":40,"type":"VEC2"},{"bufferView":23,"componentType":5123,"count":60,"type":"SCALAR"},{"bufferView":24,"componentType":5126,"count":40,"type":"VEC3"},{"bufferView":25,"componentType":5126,"count":40,"max":[0.8904528617858887,0.9694147706031799,0.3828209936618805],"min":[-0.7572794556617737,0.22066256403923035,-0.3644624650478363],"type":"VEC3"},{"bufferView":26,"componentType":5126,"count":40,"type":"VEC2"},{"bufferView":27,"componentType":5126,"count":24,"type":"VEC3"},{"bufferView":28,"componentType":5126,"count":24,"max":[0.6499999761581421,0.49000000953674316,0.22499999403953552],"min":[-0.6499999761581421,0.44999998807907104,-0.22499999403953552],"type":"VEC3"},{"bufferView":29,"componentType":5123,"count":36,"type":"SCALAR"},{"bufferView":30,"componentType":5126,"count":24,"type":"VEC3"},{"bufferView":31,"componentType":5126,"count":24,"max":[0.699999988079071,0.47999998927116394,0.2750000059604645],"min":[-0.699999988079071,0,-0.2750000059604645],"type":"VEC3"}],"asset":{"version":"2.0"},"bufferViews":[{"buffer":0,"byteOffset":0,"byteLength":48,"target":34962},{"buffer":0,"byteOffset":48,"byteLength":48,"target":34962},{"buffer":0,"byteOffset":96,"byteLength":32,"target":34962},{"buffer":0,"byteOffset":128,"byteLength":12,"target":34963},{"buffer":0,"byteOffset":140,"byteLength":48,"target":34962},{"buffer":0,"byteOffset":188,"byteLength":48,"target":34962},{"buffer":0,"byteOffset":236,"byteLength":32,"target":34962},{"buffer":0,"byteOffset":268,"byteLength":96,"target":34962},{"buffer":0,"byteOffset":364,"byteLength":96,"target":34962},{"buffer":0,"byteOffset":460,"byteLength":64,"target":34962},{"buffer":0,"byteOffset":524,"byteLength":24,"target":34963},{"buffer":0,"byteOffset":548,"byteLength":48,"target":34962},{"buffer":0,"byteOffset":596,"byteLength":48,"target":34962},{"buffer":0,"byteOffset":644,"byteLength":32,"target":34962},{"buffer":0,"byteOffset":676,"byteLength":96,"target":34962},{"buffer":0,"byteOffset":772,"byteLength":96,"target":34962},{"buffer":0,"byteOffset":868,"byteLength":64,"target":34962},{"buffer":0,"byteOffset":932,"byteLength":684,"target":34962},{"buffer":0,"byteOffset":1616,"byteLength":684,"target":34962},{"buffer":0,"byteOffset":2300,"byteLength":240,"target":34963},{"buffer":0,"byteOffset":2540,"byteLength":480,"target":34962},{"buffer":0,"byteOffset":3020,"byteLength":480,"target":34962},{"buffer":0,"byteOffset":3500,"byteLength":320,"target":34962},{"buffer":0,"byteOffset":3820,"byteLength":120,"target":34963},{"buffer":0,"byteOffset":3940,"byteLength":480,"target":34962},{"buffer":0,"byteOffset":4420,"byteLength":480,"target":34962},{"buffer":0,"byteOffset":4900,"byteLength":320,"target":34962},{"buffer":0,"byteOffset":5220,"byteLength":288,"target":34962},{"buffer":0,"byteOffset":5508,"byteLength":288,"target":34962},{"buffer":0,"byteOffset":5796,"byteLength":72,"target":34963},{"buffer":0,"byteOffset":5868,"byteLength":288,"target":34962},{"buffer":0,"byteOffset":6156,"byteLength":288,"target":34962}],"buffers":[{"byteLength":6444,"uri":"planter_overflow.bin"}],"images":[{"name":"Flowers","uri":"../nature/Flowers.png"},{"name":"Leaves_NormalTree_C","uri":"../nature/Leaves_NormalTree_C.png"}],"materials":[{"alphaCutoff":0.3,"alphaMode":"MASK","doubleSided":true,"name":"Bloom_Cream","pbrMetallicRoughness":{"baseColorFactor":[1.0,1.0,1.0,1.0],"baseColorTexture":{"index":0},"metallicFactor":0,"roughnessFactor":0.8999999761581421}},{"alphaCutoff":0.3,"alphaMode":"MASK","doubleSided":true,"name":"Bloom_Pink","pbrMetallicRoughness":{"baseColorFactor":[1.0,1.0,1.0,1.0],"baseColorTexture":{"index":0},"metallicFactor":0,"roughnessFactor":0.8999999761581421}},{"alphaCutoff":0.3,"alphaMode":"MASK","doubleSided":true,"name":"Bloom_Red","pbrMetallicRoughness":{"baseColorFactor":[1.0,1.0,1.0,1.0],"baseColorTexture":{"index":0},"metallicFactor":0,"roughnessFactor":0.8999999761581421}},{"alphaCutoff":0.3,"alphaMode":"MASK","doubleSided":true,"name":"Bloom_Violet","pbrMetallicRoughness":{"baseColorFactor":[1.0,1.0,1.0,1.0],"baseColorTexture":{"index":0},"metallicFactor":0,"roughnessFactor":0.8999999761581421}},{"alphaCutoff":0.3,"alphaMode":"MASK","doubleSided":true,"name":"Bloom_Yellow","pbrMetallicRoughness":{"baseColorFactor":[1.0,1.0,1.0,1.0],"baseColorTexture":{"index":0},"metallicFactor":0,"roughnessFactor":0.8999999761581421}},{"doubleSided":false,"name":"Core_Mid","pbrMetallicRoughness":{"baseColorFactor":[0.05000000074505806,0.12999999523162842,0,1],"metallicFactor":0}},{"alphaCutoff":0.3,"alphaMode":"MASK","doubleSided":true,"name":"Leaf_Ivy","pbrMetallicRoughness":{"baseColorFactor":[0.6,0.85,1.0,1.0],"baseColorTexture":{"index":1},"metallicFactor":0,"roughnessFactor":0.8999999761581421}},{"alphaCutoff":0.3,"alphaMode":"MASK","doubleSided":true,"name":"Leaf_Mid","pbrMetallicRoughness":{"baseColorFactor":[0.8,1.0,1.0,1.0],"baseColorTexture":{"index":1},"metallicFactor":0,"roughnessFactor":0.8999999761581421}},{"doubleSided":false,"name":"Soil_Dark","pbrMetallicRoughness":{"baseColorFactor":[0.10000000149011612,0.05999999865889549,0.029999999329447746,1],"metallicFactor":0}},{"doubleSided":false,"name":"Trellis_Wood","pbrMetallicRoughness":{"baseColorFactor":[0.36000001430511475,0.2199999988079071,0.10000000149011612,1],"metallicFactor":0,"roughnessFactor":0.8500000238418579}}],"meshes":[{"name":"planter_overflow_Bloom_Cream","primitives":[{"attributes":{"NORMAL":0,"POSITION":1,"TEXCOORD_0":2},"indices":3,"material":0}]},{"name":"planter_overflow_Bloom_Pink","primitives":[{"attributes":{"NORMAL":4,"POSITION":5,"TEXCOORD_0":6},"indices":3,"material":1}]},{"name":"planter_overflow_Bloom_Red","primitives":[{"attributes":{"NORMAL":7,"POSITION":8,"TEXCOORD_0":9},"indices":10,"material":2}]},{"name":"planter_overflow_Bloom_Violet","primitives":[{"attributes":{"NORMAL":11,"POSITION":12,"TEXCOORD_0":13},"indices":3,"material":3}]},{"name":"planter_overflow_Bloom_Yellow","primitives":[{"attributes":{"NORMAL":14,"POSITION":15,"TEXCOORD_0":16},"indices":10,"material":4}]},{"name":"planter_overflow_Core_Mid","primitives":[{"attributes":{"NORMAL":17,"POSITION":18},"indices":19,"material":5}]},{"name":"planter_overflow_Leaf_Ivy","primitives":[{"attributes":{"NORMAL":20,"POSITION":21,"TEXCOORD_0":22},"indices":23,"material":6}]},{"name":"planter_overflow_Leaf_Mid","primitives":[{"attributes":{"NORMAL":24,"POSITION":25,"TEXCOORD_0":26},"indices":23,"material":7}]},{"name":"planter_overflow_Soil_Dark","primitives":[{"attributes":{"NORMAL":27,"POSITION":28},"indices":29,"material":8}]},{"name":"planter_overflow_Trellis_Wood","primitives":[{"attributes":{"NORMAL":30,"POSITION":31},"indices":29,"material":9}]}],"nodes":[{"mesh":0,"name":"planter_overflow_Bloom_Cream"},{"mesh":1,"name":"planter_overflow_Bloom_Pink"},{"mesh":2,"name":"planter_overflow_Bloom_Red"},{"mesh":3,"name":"planter_overflow_Bloom_Violet"},{"mesh":4,"name":"planter_overflow_Bloom_Yellow"},{"mesh":5,"name":"planter_overflow_Core_Mid"},{"mesh":6,"name":"planter_overflow_Leaf_Ivy"},{"mesh":7,"name":"planter_overflow_Leaf_Mid"},{"mesh":8,"name":"planter_overflow_Soil_Dark"},{"mesh":9,"name":"planter_overflow_Trellis_Wood"}],"scene":0,"scenes":[{"name":"Scene","nodes":[0,1,2,3,4,5,6,7,8,9]}],"textures":[{"source":0},{"source":1}]}