{"accessors":[{"bufferView":0,"componentType":5126,"count":120,"type":"VEC3"},{"bufferView":1,"componentType":5126,"count":120,"max":[1.4864367246627808,0.4031102657318115,2.0036935806274414],"min":[-1.7359949350357056,-0.15511316061019897,-1.7952812910079956],"type":"VEC3"},{"bufferView":2,"componentType":5126,"count":120,"type":"VEC2"},{"bufferView":3,"componentType":5123,"count":432,"type":"SCALAR"}],"asset":{"version":"2.0"},"bufferViews":[{"buffer":0,"byteOffset":0,"byteLength":1440,"target":34962},{"buffer":0,"byteOffset":1440,"byteLength":1440,"target":34962},{"buffer":0,"byteOffset":2880,"byteLength":960,"target":34962},{"buffer":0,"byteOffset":3840,"byteLength":864,"target":34963}],"buffers":[{"byteLength":4704,"uri":"roots_spread.bin"}],"images":[{"name":"Bark_NormalTree","uri":"../nature/Bark_NormalTree.png"}],"materials":[{"doubleSided":false,"name":"Bark_Brown","pbrMetallicRoughness":{"baseColorFactor":[1.0,1.0,1.0,1.0],"baseColorTexture":{"index":0},"metallicFactor":0,"roughnessFactor":0.8999999761581421}}],"meshes":[{"name":"roots_spread_Bark_Brown","primitives":[{"attributes":{"NORMAL":0,"POSITION":1,"TEXCOORD_0":2},"indices":3,"material":0}]}],"nodes":[{"mesh":0,"name":"roots_spread_Bark_Brown"}],"scene":0,"scenes":[{"name":"Scene","nodes":[0]}],"textures":[{"source":0}]}