{"accessors":[{"bufferView":0,"componentType":5126,"count":372,"max":[1.5734360218048096,1.6561309099197388,1.3895505666732788],"min":[-1.8007168769836426,-0.23257088661193848,-1.3773350715637207],"type":"VEC3"},{"bufferView":1,"componentType":5126,"count":372,"type":"VEC3"},{"bufferView":2,"componentType":5126,"count":372,"type":"VEC2"},{"bufferView":3,"componentType":5123,"count":1530,"type":"SCALAR"},{"bufferView":4,"componentType":5126,"count":25,"max":[2.1126270294189453,0.5727577805519104,0.01158815622329712],"min":[-2.024097204208374,-0.28476178646087646,-1.7470556497573853],"type":"VEC3"},{"bufferView":5,"componentType":5126,"count":25,"type":"VEC3"},{"bufferView":6,"componentType":5126,"count":25,"type":"VEC2"},{"bufferView":7,"componentType":5123,"count":60,"type":"SCALAR"}],"asset":{"version":"2.0"},"bufferViews":[{"buffer":0,"byteLength":4464,"byteOffset":0,"target":34962},{"buffer":0,"byteLength":4464,"byteOffset":4464,"target":34962},{"buffer":0,"byteLength":2976,"byteOffset":8928,"target":34962},{"buffer":0,"byteLength":3060,"byteOffset":11904,"target":34963},{"buffer":0,"byteLength":300,"byteOffset":14964,"target":34962},{"buffer":0,"byteLength":300,"byteOffset":15264,"target":34962},{"buffer":0,"byteLength":200,"byteOffset":15564,"target":34962},{"buffer":0,"byteLength":120,"byteOffset":15764,"target":34963}],"buffers":[{"byteLength":15884,"uri":"root_arch.bin"}],"images":[{"name":"Bark_NormalTree","uri":"../nature/Bark_NormalTree.png"},{"name":"Rocks_Diffuse","uri":"../nature/Rocks_Diffuse.png"}],"materials":[{"doubleSided":false,"name":"Bark_Dark","pbrMetallicRoughness":{"baseColorFactor":[0.6,0.55,0.5,1.0],"baseColorTexture":{"index":0},"metallicFactor":0,"roughnessFactor":0.8999999761581421}},{"doubleSided":false,"name":"Moss_Bank","pbrMetallicRoughness":{"baseColorFactor":[0.55,0.75,0.45,1.0],"baseColorTexture":{"index":1},"metallicFactor":0,"roughnessFactor":0.8999999761581421}}],"meshes":[{"name":"root_arch_Bark_Dark","primitives":[{"attributes":{"NORMAL":1,"POSITION":0,"TEXCOORD_0":2},"indices":3,"material":0}]},{"name":"root_arch_Moss_Bank","primitives":[{"attributes":{"NORMAL":5,"POSITION":4,"TEXCOORD_0":6},"indices":7,"material":1}]}],"nodes":[{"mesh":0,"name":"root_arch_Bark_Dark"},{"mesh":1,"name":"root_arch_Moss_Bank"}],"scene":0,"scenes":[{"name":"Scene","nodes":[0,1]}],"textures":[{"source":0},{"source":1}]}
