{"accessors":[{"bufferView":0,"componentType":5126,"count":28,"max":[0.6087629795074463,1.7031431198120117,0.44639796018600464],"min":[-0.42798954248428345,0.27673104405403137,0.3176117241382599],"type":"VEC3"},{"bufferView":1,"componentType":5126,"count":28,"type":"VEC3"},{"bufferView":2,"componentType":5126,"count":28,"type":"VEC2"},{"bufferView":3,"componentType":5123,"count":42,"type":"SCALAR"},{"bufferView":4,"componentType":5126,"count":36,"max":[0.7513425946235657,2.3794777393341064,0.449806272983551],"min":[-0.6018829941749573,0.4504350423812866,0.3297644257545471],"type":"VEC3"},{"bufferView":5,"componentType":5126,"count":36,"type":"VEC3"},{"bufferView":6,"componentType":5126,"count":36,"type":"VEC2"},{"bufferView":7,"componentType":5123,"count":54,"type":"SCALAR"},{"bufferView":8,"componentType":5126,"count":136,"max":[1.1692657470703125,2.421968698501587,0.4822115898132324],"min":[-1.1127021312713623,-0.2378992736339569,0.13159997761249542],"type":"VEC3"},{"bufferView":9,"componentType":5126,"count":136,"type":"VEC3"},{"bufferView":10,"componentType":5126,"count":136,"type":"VEC2"},{"bufferView":11,"componentType":5123,"count":204,"type":"SCALAR"},{"bufferView":12,"componentType":5126,"count":408,"max":[1.0684230327606201,2.4200000762939453,0.28999999165534973],"min":[-1.0684230327606201,0,0.1850000023841858],"type":"VEC3"},{"bufferView":13,"componentType":5126,"count":408,"type":"VEC3"},{"bufferView":14,"componentType":5126,"count":408,"type":"VEC2"},{"bufferView":15,"componentType":5123,"count":612,"type":"SCALAR"}],"asset":{"version":"2.0"},"bufferViews":[{"buffer":0,"byteLength":336,"byteOffset":0,"target":34962},{"buffer":0,"byteLength":336,"byteOffset":336,"target":34962},{"buffer":0,"byteLength":224,"byteOffset":672,"target":34962},{"buffer":0,"byteLength":84,"byteOffset":896,"target":34963},{"buffer":0,"byteLength":432,"byteOffset":980,"target":34962},{"buffer":0,"byteLength":432,"byteOffset":1412,"target":34962},{"buffer":0,"byteLength":288,"byteOffset":1844,"target":34962},{"buffer":0,"byteLength":108,"byteOffset":2132,"target":34963},{"buffer":0,"byteLength":1632,"byteOffset":2240,"target":34962},{"buffer":0,"byteLength":1632,"byteOffset":3872,"target":34962},{"buffer":0,"byteLength":1088,"byteOffset":5504,"target":34962},{"buffer":0,"byteLength":408,"byteOffset":6592,"target":34963},{"buffer":0,"byteLength":4896,"byteOffset":7000,"target":34962},{"buffer":0,"byteLength":4896,"byteOffset":11896,"target":34962},{"buffer":0,"byteLength":3264,"byteOffset":16792,"target":34962},{"buffer":0,"byteLength":1224,"byteOffset":20056,"target":34963}],"buffers":[{"byteLength":21280,"uri":"rose_trellis.bin"}],"images":[{"name":"Flowers","uri":"../nature/Flowers.png"},{"name":"Leaves_NormalTree_C","uri":"../nature/Leaves_NormalTree_C.png"}],"materials":[{"alphaCutoff":0.3,"alphaMode":"MASK","doubleSided":true,"name":"Bloom_Pink","pbrMetallicRoughness":{"baseColorFactor":[1.0,1.0,1.0,1.0],"baseColorTexture":{"index":0},"metallicFactor":0,"roughnessFactor":0.8999999761581421}},{"alphaCutoff":0.3,"alphaMode":"MASK","doubleSided":true,"name":"Bloom_Red","pbrMetallicRoughness":{"baseColorFactor":[1.0,1.0,1.0,1.0],"baseColorTexture":{"index":0},"metallicFactor":0,"roughnessFactor":0.8999999761581421}},{"alphaCutoff":0.3,"alphaMode":"MASK","doubleSided":true,"name":"Leaf_Dark","pbrMetallicRoughness":{"baseColorFactor":[0.55,0.78,1.0,1.0],"baseColorTexture":{"index":1},"metallicFactor":0,"roughnessFactor":0.8999999761581421}},{"doubleSided":false,"name":"Trellis_Wood","pbrMetallicRoughness":{"baseColorFactor":[0.36000001430511475,0.2199999988079071,0.10000000149011612,1],"metallicFactor":0,"roughnessFactor":0.8500000238418579}}],"meshes":[{"name":"rose_trellis_Bloom_Pink","primitives":[{"attributes":{"NORMAL":1,"POSITION":0,"TEXCOORD_0":2},"indices":3,"material":0}]},{"name":"rose_trellis_Bloom_Red","primitives":[{"attributes":{"NORMAL":5,"POSITION":4,"TEXCOORD_0":6},"indices":7,"material":1}]},{"name":"rose_trellis_Leaf_Dark","primitives":[{"attributes":{"NORMAL":9,"POSITION":8,"TEXCOORD_0":10},"indices":11,"material":2}]},{"name":"rose_trellis_Trellis_Wood","primitives":[{"attributes":{"NORMAL":13,"POSITION":12,"TEXCOORD_0":14},"indices":15,"material":3}]}],"nodes":[{"mesh":0,"name":"rose_trellis_Bloom_Pink"},{"mesh":1,"name":"rose_trellis_Bloom_Red"},{"mesh":2,"name":"rose_trellis_Leaf_Dark"},{"mesh":3,"name":"rose_trellis_Trellis_Wood"}],"scene":0,"scenes":[{"name":"Scene","nodes":[0,1,2,3]}],"textures":[{"source":0},{"source":1}]}
