{"accessors":[{"bufferView":0,"componentType":5126,"count":98,"type":"VEC3"},{"bufferView":1,"componentType":5126,"count":98,"max":[1.306467890739441,4.415360927581787,1.2549434900283813],"min":[-1.2706916332244873,-0.25,-1.2902451753616333],"type":"VEC3"},{"bufferView":2,"componentType":5126,"count":98,"type":"VEC2"},{"bufferView":3,"componentType":5123,"count":276,"type":"SCALAR"},{"bufferView":4,"componentType":5126,"count":792,"type":"VEC3"},{"bufferView":5,"componentType":5126,"count":792,"max":[1.7454980611801147,5.16586971282959,1.563939094543457],"min":[-1.6756609678268433,2.5780205726623535,-1.60154128074646],"type":"VEC3"},{"bufferView":6,"componentType":5123,"count":1188,"type":"SCALAR"},{"bufferView":7,"componentType":5126,"count":90,"type":"VEC3"},{"bufferView":8,"componentType":5126,"count":90,"max":[1.1668939590454102,5.14658260345459,0.852065920829773],"min":[-1.0920286178588867,2.9647436141967773,-1.0102472305297852],"type":"VEC3"},{"bufferView":9,"componentType":5123,"count":180,"type":"SCALAR"},{"bufferView":10,"componentType":5126,"count":196,"type":"VEC3"},{"bufferView":11,"componentType":5126,"count":196,"max":[2.0115737915039062,6.004489898681641,1.5675556659698486],"min":[-1.801602840423584,2.4951775074005127,-1.711440086364746],"type":"VEC3"},{"bufferView":12,"componentType":5126,"count":196,"type":"VEC2"},{"bufferView":13,"componentType":5123,"count":294,"type":"SCALAR"}],"asset":{"version":"2.0"},"bufferViews":[{"buffer":0,"byteOffset":0,"byteLength":1176,"target":34962},{"buffer":0,"byteOffset":1176,"byteLength":1176,"target":34962},{"buffer":0,"byteOffset":2352,"byteLength":784,"target":34962},{"buffer":0,"byteOffset":3136,"byteLength":552,"target":34963},{"buffer":0,"byteOffset":3688,"byteLength":9504,"target":34962},{"buffer":0,"byteOffset":13192,"byteLength":9504,"target":34962},{"buffer":0,"byteOffset":22696,"byteLength":2376,"target":34963},{"buffer":0,"byteOffset":25072,"byteLength":1080,"target":34962},{"buffer":0,"byteOffset":26152,"byteLength":1080,"target":34962},{"buffer":0,"byteOffset":27232,"byteLength":360,"target":34963},{"buffer":0,"byteOffset":27592,"byteLength":2352,"target":34962},{"buffer":0,"byteOffset":29944,"byteLength":2352,"target":34962},{"buffer":0,"byteOffset":32296,"byteLength":1568,"target":34962},{"buffer":0,"byteOffset":33864,"byteLength":588,"target":34963}],"buffers":[{"byteLength":34452,"uri":"rowan.bin"}],"images":[{"name":"Bark_NormalTree","uri":"../nature/Bark_NormalTree.png"},{"name":"Leaves_NormalTree_C","uri":"../nature/Leaves_NormalTree_C.png"}],"materials":[{"doubleSided":false,"name":"Bark_Gray","pbrMetallicRoughness":{"baseColorFactor":[0.78,0.74,0.7,1.0],"baseColorTexture":{"index":0},"metallicFactor":0,"roughnessFactor":0.8999999761581421}},{"doubleSided":false,"name":"Berry_Rowan","pbrMetallicRoughness":{"baseColorFactor":[0.6200000047683716,0.07999999821186066,0.019999999552965164,1],"metallicFactor":0,"roughnessFactor":0.5}},{"doubleSided":false,"name":"Core_Mid","pbrMetallicRoughness":{"baseColorFactor":[0.05000000074505806,0.12999999523162842,0,1],"metallicFactor":0}},{"alphaCutoff":0.3,"alphaMode":"MASK","doubleSided":true,"name":"Leaf_Mid","pbrMetallicRoughness":{"baseColorFactor":[0.8,1.0,1.0,1.0],"baseColorTexture":{"index":1},"metallicFactor":0,"roughnessFactor":0.8999999761581421}}],"meshes":[{"name":"rowan_Bark_Gray","primitives":[{"attributes":{"NORMAL":0,"POSITION":1,"TEXCOORD_0":2},"indices":3,"material":0}]},{"name":"rowan_Berry_Rowan","primitives":[{"attributes":{"NORMAL":4,"POSITION":5},"indices":6,"material":1}]},{"name":"rowan_Core_Mid","primitives":[{"attributes":{"NORMAL":7,"POSITION":8},"indices":9,"material":2}]},{"name":"rowan_Leaf_Mid","primitives":[{"attributes":{"NORMAL":10,"POSITION":11,"TEXCOORD_0":12},"indices":13,"material":3}]}],"nodes":[{"mesh":0,"name":"rowan_Bark_Gray"},{"mesh":1,"name":"rowan_Berry_Rowan"},{"mesh":2,"name":"rowan_Core_Mid"},{"mesh":3,"name":"rowan_Leaf_Mid"}],"scene":0,"scenes":[{"name":"Scene","nodes":[0,1,2,3]}],"textures":[{"source":0},{"source":1}]}