{"accessors":[{"bufferView":0,"componentType":5126,"count":58,"max":[0.6725351214408875,2.0454277992248535,0.5827722549438477],"min":[-0.5293596982955933,0.17463356256484985,-0.4711678922176361],"type":"VEC3"},{"bufferView":1,"componentType":5126,"count":58,"type":"VEC3"},{"bufferView":2,"componentType":5126,"count":58,"type":"VEC2"},{"bufferView":3,"componentType":5123,"count":120,"type":"SCALAR"},{"bufferView":4,"componentType":5126,"count":88,"max":[0.9803336262702942,2.36116886138916,0.9858084917068481],"min":[-0.8949093222618103,-0.2007312774658203,-0.9821322560310364],"type":"VEC3"},{"bufferView":5,"componentType":5126,"count":88,"type":"VEC3"},{"bufferView":6,"componentType":5126,"count":88,"type":"VEC2"},{"bufferView":7,"componentType":5123,"count":132,"type":"SCALAR"}],"asset":{"version":"2.0"},"bufferViews":[{"buffer":0,"byteLength":696,"byteOffset":0,"target":34962},{"buffer":0,"byteLength":696,"byteOffset":696,"target":34962},{"buffer":0,"byteLength":464,"byteOffset":1392,"target":34962},{"buffer":0,"byteLength":240,"byteOffset":1856,"target":34963},{"buffer":0,"byteLength":1056,"byteOffset":2096,"target":34962},{"buffer":0,"byteLength":1056,"byteOffset":3152,"target":34962},{"buffer":0,"byteLength":704,"byteOffset":4208,"target":34962},{"buffer":0,"byteLength":264,"byteOffset":4912,"target":34963}],"buffers":[{"byteLength":5176,"uri":"shrub_tall.bin"}],"images":[{"name":"Leaves_NormalTree_C","uri":"../nature/Leaves_NormalTree_C.png"}],"materials":[{"doubleSided":false,"name":"Core_Dark","pbrMetallicRoughness":{"baseColorFactor":[0.03500000014901161,0.10000000149011612,0,1],"metallicFactor":0}},{"alphaCutoff":0.3,"alphaMode":"MASK","doubleSided":true,"name":"Leaf_Dark","pbrMetallicRoughness":{"baseColorFactor":[0.55,0.78,1.0,1.0],"baseColorTexture":{"index":0},"metallicFactor":0,"roughnessFactor":0.8999999761581421}}],"meshes":[{"name":"shrub_tall_Core_Dark","primitives":[{"attributes":{"NORMAL":1,"POSITION":0,"TEXCOORD_0":2},"indices":3,"material":0}]},{"name":"shrub_tall_Leaf_Dark","primitives":[{"attributes":{"NORMAL":5,"POSITION":4,"TEXCOORD_0":6},"indices":7,"material":1}]}],"nodes":[{"mesh":0,"name":"shrub_tall_Core_Dark"},{"mesh":1,"name":"shrub_tall_Leaf_Dark"}],"scene":0,"scenes":[{"name":"Scene","nodes":[0,1]}],"textures":[{"source":0}]}
