{"accessors":[{"bufferView":0,"componentType":5126,"count":84,"type":"VEC3"},{"bufferView":1,"componentType":5126,"count":84,"max":[0.9167837500572205,1.5500158071517944,0.9614596366882324],"min":[-1.0082273483276367,0.5922760963439941,-0.9871534705162048],"type":"VEC3"},{"bufferView":2,"componentType":5126,"count":84,"type":"VEC2"},{"bufferView":3,"componentType":5123,"count":126,"type":"SCALAR"},{"bufferView":4,"componentType":5126,"count":60,"type":"VEC3"},{"bufferView":5,"componentType":5126,"count":60,"max":[0.9060441851615906,1.2722264528274536,0.6015673279762268],"min":[-0.5976293683052063,0.15641877055168152,-0.782341718673706],"type":"VEC3"},{"bufferView":6,"componentType":5123,"count":120,"type":"SCALAR"},{"bufferView":7,"componentType":5126,"count":84,"type":"VEC3"},{"bufferView":8,"componentType":5126,"count":84,"max":[1.3391094207763672,1.6397987604141235,0.896198570728302],"min":[-1.0595510005950928,-0.2133587896823883,-1.1154794692993164],"type":"VEC3"},{"bufferView":9,"componentType":5126,"count":84,"type":"VEC2"}],"asset":{"version":"2.0"},"bufferViews":[{"buffer":0,"byteOffset":0,"byteLength":1008,"target":34962},{"buffer":0,"byteOffset":1008,"byteLength":1008,"target":34962},{"buffer":0,"byteOffset":2016,"byteLength":672,"target":34962},{"buffer":0,"byteOffset":2688,"byteLength":252,"target":34963},{"buffer":0,"byteOffset":2940,"byteLength":720,"target":34962},{"buffer":0,"byteOffset":3660,"byteLength":720,"target":34962},{"buffer":0,"byteOffset":4380,"byteLength":240,"target":34963},{"buffer":0,"byteOffset":4620,"byteLength":1008,"target":34962},{"buffer":0,"byteOffset":5628,"byteLength":1008,"target":34962},{"buffer":0,"byteOffset":6636,"byteLength":672,"target":34962}],"buffers":[{"byteLength":7308,"uri":"shrub_flowering.bin"}],"images":[{"name":"Flowers","uri":"../nature/Flowers.png"},{"name":"Leaves_NormalTree_C","uri":"../nature/Leaves_NormalTree_C.png"}],"materials":[{"alphaCutoff":0.3,"alphaMode":"MASK","doubleSided":true,"name":"Bloom_Pink","pbrMetallicRoughness":{"baseColorFactor":[1.0,0.9,0.95,1.0],"baseColorTexture":{"index":0},"metallicFactor":0,"roughnessFactor":0.8999999761581421}},{"doubleSided":false,"name":"Core_Light","pbrMetallicRoughness":{"baseColorFactor":[0.07000000029802322,0.15000000596046448,0,1],"metallicFactor":0}},{"alphaCutoff":0.3,"alphaMode":"MASK","doubleSided":true,"name":"Leaf_Light","pbrMetallicRoughness":{"baseColorFactor":[1.0,1.0,1.0,1.0],"baseColorTexture":{"index":1},"metallicFactor":0,"roughnessFactor":0.8999999761581421}}],"meshes":[{"name":"shrub_flowering_Bloom_Pink","primitives":[{"attributes":{"NORMAL":0,"POSITION":1,"TEXCOORD_0":2},"indices":3,"material":0}]},{"name":"shrub_flowering_Core_Light","primitives":[{"attributes":{"NORMAL":4,"POSITION":5},"indices":6,"material":1}]},{"name":"shrub_flowering_Leaf_Light","primitives":[{"attributes":{"NORMAL":7,"POSITION":8,"TEXCOORD_0":9},"indices":3,"material":2}]}],"nodes":[{"mesh":0,"name":"shrub_flowering_Bloom_Pink"},{"mesh":1,"name":"shrub_flowering_Core_Light"},{"mesh":2,"name":"shrub_flowering_Leaf_Light"}],"scene":0,"scenes":[{"name":"Scene","nodes":[0,1,2]}],"textures":[{"source":0},{"source":1}]}