{"accessors":[{"bufferView":0,"componentType":5126,"count":90,"type":"VEC3"},{"bufferView":1,"componentType":5126,"count":90,"max":[1.166007399559021,1.0474393367767334,0.7155652046203613],"min":[-1.1989521980285645,0.09310385584831238,-0.7158809304237366],"type":"VEC3"},{"bufferView":2,"componentType":5123,"count":180,"type":"SCALAR"},{"bufferView":3,"componentType":5126,"count":132,"type":"VEC3"},{"bufferView":4,"componentType":5126,"count":132,"max":[1.6378018856048584,1.3851453065872192,1.214289665222168],"min":[-1.6428312063217163,-0.46369126439094543,-1.340710163116455],"type":"VEC3"},{"bufferView":5,"componentType":5126,"count":132,"type":"VEC2"},{"bufferView":6,"componentType":5123,"count":198,"type":"SCALAR"}],"asset":{"version":"2.0"},"bufferViews":[{"buffer":0,"byteOffset":0,"byteLength":1080,"target":34962},{"buffer":0,"byteOffset":1080,"byteLength":1080,"target":34962},{"buffer":0,"byteOffset":2160,"byteLength":360,"target":34963},{"buffer":0,"byteOffset":2520,"byteLength":1584,"target":34962},{"buffer":0,"byteOffset":4104,"byteLength":1584,"target":34962},{"buffer":0,"byteOffset":5688,"byteLength":1056,"target":34962},{"buffer":0,"byteOffset":6744,"byteLength":396,"target":34963}],"buffers":[{"byteLength":7140,"uri":"shrub_mound.bin"}],"images":[{"name":"Leaves_NormalTree_C","uri":"../nature/Leaves_NormalTree_C.png"}],"materials":[{"doubleSided":false,"name":"Core_Mid","pbrMetallicRoughness":{"baseColorFactor":[0.05000000074505806,0.12999999523162842,0,1],"metallicFactor":0}},{"alphaCutoff":0.3,"alphaMode":"MASK","doubleSided":true,"name":"Leaf_Mid","pbrMetallicRoughness":{"baseColorFactor":[0.8,1.0,1.0,1.0],"baseColorTexture":{"index":0},"metallicFactor":0,"roughnessFactor":0.8999999761581421}}],"meshes":[{"name":"shrub_mound_Core_Mid","primitives":[{"attributes":{"NORMAL":0,"POSITION":1},"indices":2,"material":0}]},{"name":"shrub_mound_Leaf_Mid","primitives":[{"attributes":{"NORMAL":3,"POSITION":4,"TEXCOORD_0":5},"indices":6,"material":1}]}],"nodes":[{"mesh":0,"name":"shrub_mound_Core_Mid"},{"mesh":1,"name":"shrub_mound_Leaf_Mid"}],"scene":0,"scenes":[{"name":"Scene","nodes":[0,1]}],"textures":[{"source":0}]}