{"accessors":[{"bufferView":0,"componentType":5126,"count":68,"type":"VEC3"},{"bufferView":1,"componentType":5126,"count":68,"max":[1.3854377269744873,2.2452645301818848,1.2725582122802734],"min":[-1.1759202480316162,1.3514748811721802,-1.2113702297210693],"type":"VEC3"},{"bufferView":2,"componentType":5126,"count":68,"type":"VEC2"},{"bufferView":3,"componentType":5123,"count":102,"type":"SCALAR"},{"bufferView":4,"componentType":5126,"count":90,"type":"VEC3"},{"bufferView":5,"componentType":5126,"count":90,"max":[1.1813580989837646,1.8559529781341553,0.9812164306640625],"min":[-1.11857271194458,0.3016499876976013,-0.9077664613723755],"type":"VEC3"},{"bufferView":6,"componentType":5123,"count":180,"type":"SCALAR"},{"bufferView":7,"componentType":5126,"count":156,"type":"VEC3"},{"bufferView":8,"componentType":5126,"count":156,"max":[1.4690405130386353,2.286025285720825,1.2515959739685059],"min":[-1.5058929920196533,0.024568282067775726,-1.245443344116211],"type":"VEC3"},{"bufferView":9,"componentType":5126,"count":156,"type":"VEC2"},{"bufferView":10,"componentType":5123,"count":234,"type":"SCALAR"}],"asset":{"version":"2.0"},"bufferViews":[{"buffer":0,"byteOffset":0,"byteLength":816,"target":34962},{"buffer":0,"byteOffset":816,"byteLength":816,"target":34962},{"buffer":0,"byteOffset":1632,"byteLength":544,"target":34962},{"buffer":0,"byteOffset":2176,"byteLength":204,"target":34963},{"buffer":0,"byteOffset":2380,"byteLength":1080,"target":34962},{"buffer":0,"byteOffset":3460,"byteLength":1080,"target":34962},{"buffer":0,"byteOffset":4540,"byteLength":360,"target":34963},{"buffer":0,"byteOffset":4900,"byteLength":1872,"target":34962},{"buffer":0,"byteOffset":6772,"byteLength":1872,"target":34962},{"buffer":0,"byteOffset":8644,"byteLength":1248,"target":34962},{"buffer":0,"byteOffset":9892,"byteLength":468,"target":34963}],"buffers":[{"byteLength":10360,"uri":"shrub_elder.bin"}],"images":[{"name":"Flowers","uri":"../nature/Flowers.png"},{"name":"Leaves_NormalTree_C","uri":"../nature/Leaves_NormalTree_C.png"}],"materials":[{"alphaCutoff":0.3,"alphaMode":"MASK","doubleSided":true,"name":"Bloom_Cream","pbrMetallicRoughness":{"baseColorFactor":[1.0,1.0,0.92,1.0],"baseColorTexture":{"index":0},"metallicFactor":0,"roughnessFactor":0.8999999761581421}},{"doubleSided":false,"name":"Core_Dark","pbrMetallicRoughness":{"baseColorFactor":[0.03500000014901161,0.10000000149011612,0,1],"metallicFactor":0}},{"alphaCutoff":0.3,"alphaMode":"MASK","doubleSided":true,"name":"Leaf_Dark","pbrMetallicRoughness":{"baseColorFactor":[0.55,0.78,1.0,1.0],"baseColorTexture":{"index":1},"metallicFactor":0,"roughnessFactor":0.8999999761581421}}],"meshes":[{"name":"shrub_elder_Bloom_Cream","primitives":[{"attributes":{"NORMAL":0,"POSITION":1,"TEXCOORD_0":2},"indices":3,"material":0}]},{"name":"shrub_elder_Core_Dark","primitives":[{"attributes":{"NORMAL":4,"POSITION":5},"indices":6,"material":1}]},{"name":"shrub_elder_Leaf_Dark","primitives":[{"attributes":{"NORMAL":7,"POSITION":8,"TEXCOORD_0":9},"indices":10,"material":2}]}],"nodes":[{"mesh":0,"name":"shrub_elder_Bloom_Cream"},{"mesh":1,"name":"shrub_elder_Core_Dark"},{"mesh":2,"name":"shrub_elder_Leaf_Dark"}],"scene":0,"scenes":[{"name":"Scene","nodes":[0,1,2]}],"textures":[{"source":0},{"source":1}]}