{"accessors":[{"bufferView":0,"componentType":5126,"count":72,"type":"VEC3"},{"bufferView":1,"componentType":5126,"count":72,"max":[0.7781586050987244,3.1934664249420166,0.9203481674194336],"min":[-1.117852807044983,-0.012329482473433018,-1.1175497770309448],"type":"VEC3"},{"bufferView":2,"componentType":5126,"count":72,"type":"VEC2"},{"bufferView":3,"componentType":5123,"count":162,"type":"SCALAR"},{"bufferView":4,"componentType":5126,"count":120,"type":"VEC3"},{"bufferView":5,"componentType":5126,"count":120,"max":[0.8297874927520752,3.050018548965454,0.8896027207374573],"min":[-0.8639077544212341,2.0530600547790527,-1.1244410276412964],"type":"VEC3"},{"bufferView":6,"componentType":5123,"count":180,"type":"SCALAR"},{"bufferView":7,"componentType":5126,"count":90,"type":"VEC3"},{"bufferView":8,"componentType":5126,"count":90,"max":[0.9506334066390991,3.120105028152466,0.8325222134590149],"min":[-0.9807553291320801,1.3692331314086914,-0.7022099494934082],"type":"VEC3"},{"bufferView":9,"componentType":5123,"count":180,"type":"SCALAR"},{"bufferView":10,"componentType":5126,"count":140,"type":"VEC3"},{"bufferView":11,"componentType":5126,"count":140,"max":[1.5601410865783691,3.578267812728882,1.6183358430862427],"min":[-1.760399580001831,0.9897502660751343,-1.1551836729049683],"type":"VEC3"},{"bufferView":12,"componentType":5126,"count":140,"type":"VEC2"},{"bufferView":13,"componentType":5123,"count":210,"type":"SCALAR"}],"asset":{"version":"2.0"},"bufferViews":[{"buffer":0,"byteOffset":0,"byteLength":864,"target":34962},{"buffer":0,"byteOffset":864,"byteLength":864,"target":34962},{"buffer":0,"byteOffset":1728,"byteLength":576,"target":34962},{"buffer":0,"byteOffset":2304,"byteLength":324,"target":34963},{"buffer":0,"byteOffset":2628,"byteLength":1440,"target":34962},{"buffer":0,"byteOffset":4068,"byteLength":1440,"target":34962},{"buffer":0,"byteOffset":5508,"byteLength":360,"target":34963},{"buffer":0,"byteOffset":5868,"byteLength":1080,"target":34962},{"buffer":0,"byteOffset":6948,"byteLength":1080,"target":34962},{"buffer":0,"byteOffset":8028,"byteLength":360,"target":34963},{"buffer":0,"byteOffset":8388,"byteLength":1680,"target":34962},{"buffer":0,"byteOffset":10068,"byteLength":1680,"target":34962},{"buffer":0,"byteOffset":11748,"byteLength":1120,"target":34962},{"buffer":0,"byteOffset":12868,"byteLength":420,"target":34963}],"buffers":[{"byteLength":13288,"uri":"shrub_hazel.bin"}],"images":[{"name":"Bark_NormalTree","uri":"../nature/Bark_NormalTree.png"},{"name":"Leaves_NormalTree_C","uri":"../nature/Leaves_NormalTree_C.png"}],"materials":[{"doubleSided":false,"name":"Bark_Brown","pbrMetallicRoughness":{"baseColorFactor":[1.0,1.0,1.0,1.0],"baseColorTexture":{"index":0},"metallicFactor":0,"roughnessFactor":0.8999999761581421}},{"doubleSided":false,"name":"Catkin","pbrMetallicRoughness":{"baseColorFactor":[0.550000011920929,0.5,0.18000000715255737,1],"metallicFactor":0,"roughnessFactor":0.8999999761581421}},{"doubleSided":false,"name":"Core_Mid","pbrMetallicRoughness":{"baseColorFactor":[0.05000000074505806,0.12999999523162842,0,1],"metallicFactor":0}},{"alphaCutoff":0.3,"alphaMode":"MASK","doubleSided":true,"name":"Leaf_Mid","pbrMetallicRoughness":{"baseColorFactor":[0.8,1.0,1.0,1.0],"baseColorTexture":{"index":1},"metallicFactor":0,"roughnessFactor":0.8999999761581421}}],"meshes":[{"name":"shrub_hazel_Bark_Brown","primitives":[{"attributes":{"NORMAL":0,"POSITION":1,"TEXCOORD_0":2},"indices":3,"material":0}]},{"name":"shrub_hazel_Catkin","primitives":[{"attributes":{"NORMAL":4,"POSITION":5},"indices":6,"material":1}]},{"name":"shrub_hazel_Core_Mid","primitives":[{"attributes":{"NORMAL":7,"POSITION":8},"indices":9,"material":2}]},{"name":"shrub_hazel_Leaf_Mid","primitives":[{"attributes":{"NORMAL":10,"POSITION":11,"TEXCOORD_0":12},"indices":13,"material":3}]}],"nodes":[{"mesh":0,"name":"shrub_hazel_Bark_Brown"},{"mesh":1,"name":"shrub_hazel_Catkin"},{"mesh":2,"name":"shrub_hazel_Core_Mid"},{"mesh":3,"name":"shrub_hazel_Leaf_Mid"}],"scene":0,"scenes":[{"name":"Scene","nodes":[0,1,2,3]}],"textures":[{"source":0},{"source":1}]}