{"accessors":[{"bufferView":0,"componentType":5126,"count":255,"max":[2.3932688236236572,7.165950298309326,1.682997703552246],"min":[-2.021472454071045,-0.25,-2.133312463760376],"type":"VEC3"},{"bufferView":1,"componentType":5126,"count":255,"type":"VEC3"},{"bufferView":2,"componentType":5126,"count":255,"type":"VEC2"},{"bufferView":3,"componentType":5123,"count":756,"type":"SCALAR"}],"asset":{"version":"2.0"},"bufferViews":[{"buffer":0,"byteLength":3060,"byteOffset":0,"target":34962},{"buffer":0,"byteLength":3060,"byteOffset":3060,"target":34962},{"buffer":0,"byteLength":2040,"byteOffset":6120,"target":34962},{"buffer":0,"byteLength":1512,"byteOffset":8160,"target":34963}],"buffers":[{"byteLength":9672,"uri":"snag.bin"}],"images":[{"name":"Bark_NormalTree","uri":"../nature/Bark_NormalTree.png"}],"materials":[{"doubleSided":false,"name":"Bark_Silver","pbrMetallicRoughness":{"baseColorFactor":[1.0,0.96,0.9,1.0],"baseColorTexture":{"index":0},"metallicFactor":0,"roughnessFactor":0.8999999761581421}}],"meshes":[{"name":"snag_Bark_Silver","primitives":[{"attributes":{"NORMAL":1,"POSITION":0,"TEXCOORD_0":2},"indices":3,"material":0}]}],"nodes":[{"mesh":0,"name":"snag_Bark_Silver"}],"scene":0,"scenes":[{"name":"Scene","nodes":[0]}],"textures":[{"source":0}]}
