{"accessors":[{"bufferView":0,"componentType":5126,"count":16,"type":"VEC3"},{"bufferView":1,"componentType":5126,"count":16,"max":[0.4426523447036743,1.6911771297454834,0.22512316703796387],"min":[-0.2709788680076599,1.2854206562042236,-0.23308499157428741],"type":"VEC3"},{"bufferView":2,"componentType":5126,"count":16,"type":"VEC2"},{"bufferView":3,"componentType":5123,"count":18,"type":"SCALAR"},{"bufferView":4,"componentType":5126,"count":220,"type":"VEC3"},{"bufferView":5,"componentType":5126,"count":220,"max":[0.5814585089683533,1.646965742111206,0.4585566818714142],"min":[-0.6217716932296753,0.39587610960006714,-0.37846049666404724],"type":"VEC3"},{"bufferView":6,"componentType":5126,"count":220,"type":"VEC2"},{"bufferView":7,"componentType":5123,"count":222,"type":"SCALAR"}],"asset":{"version":"2.0"},"bufferViews":[{"buffer":0,"byteOffset":0,"byteLength":192,"target":34962},{"buffer":0,"byteOffset":192,"byteLength":192,"target":34962},{"buffer":0,"byteOffset":384,"byteLength":128,"target":34962},{"buffer":0,"byteOffset":512,"byteLength":36,"target":34963},{"buffer":0,"byteOffset":548,"byteLength":2640,"target":34962},{"buffer":0,"byteOffset":3188,"byteLength":2640,"target":34962},{"buffer":0,"byteOffset":5828,"byteLength":1760,"target":34962},{"buffer":0,"byteOffset":7588,"byteLength":444,"target":34963}],"buffers":[{"byteLength":8032,"uri":"standing_stone_squat.bin"}],"images":[{"name":"Rocks_Diffuse","uri":"../nature/Rocks_Diffuse.png"}],"materials":[{"doubleSided":false,"name":"Stone_Moss","pbrMetallicRoughness":{"baseColorFactor":[0.5,0.75,0.4,1.0],"baseColorTexture":{"index":0},"metallicFactor":0,"roughnessFactor":0.8999999761581421}},{"doubleSided":false,"name":"Stone_Rock","pbrMetallicRoughness":{"baseColorFactor":[0.95,0.95,0.9,1.0],"baseColorTexture":{"index":0},"metallicFactor":0,"roughnessFactor":0.8999999761581421}}],"meshes":[{"name":"standing_stone_squat_Stone_Moss","primitives":[{"attributes":{"NORMAL":0,"POSITION":1,"TEXCOORD_0":2},"indices":3,"material":0}]},{"name":"standing_stone_squat_Stone_Rock","primitives":[{"attributes":{"NORMAL":4,"POSITION":5,"TEXCOORD_0":6},"indices":7,"material":1}]}],"nodes":[{"mesh":0,"name":"standing_stone_squat_Stone_Moss"},{"mesh":1,"name":"standing_stone_squat_Stone_Rock"}],"scene":0,"scenes":[{"name":"Scene","nodes":[0,1]}],"textures":[{"source":0}]}