{"accessors":[{"bufferView":0,"componentType":5126,"count":44,"type":"VEC3"},{"bufferView":1,"componentType":5126,"count":44,"max":[0.638012707233429,2.614152193069458,0.45351681113243103],"min":[-0.6015704274177551,-0.3413226902484894,-0.351158082485199],"type":"VEC3"},{"bufferView":2,"componentType":5126,"count":44,"type":"VEC2"},{"bufferView":3,"componentType":5123,"count":54,"type":"SCALAR"},{"bufferView":4,"componentType":5126,"count":76,"type":"VEC3"},{"bufferView":5,"componentType":5126,"count":76,"max":[0.638012707233429,2.5170412063598633,0.45351681113243103],"min":[-0.6015704274177551,-0.3413226902484894,-0.351158082485199],"type":"VEC3"},{"bufferView":6,"componentType":5126,"count":76,"type":"VEC2"},{"bufferView":7,"componentType":5123,"count":114,"type":"SCALAR"}],"asset":{"version":"2.0"},"bufferViews":[{"buffer":0,"byteOffset":0,"byteLength":528,"target":34962},{"buffer":0,"byteOffset":528,"byteLength":528,"target":34962},{"buffer":0,"byteOffset":1056,"byteLength":352,"target":34962},{"buffer":0,"byteOffset":1408,"byteLength":108,"target":34963},{"buffer":0,"byteOffset":1516,"byteLength":912,"target":34962},{"buffer":0,"byteOffset":2428,"byteLength":912,"target":34962},{"buffer":0,"byteOffset":3340,"byteLength":608,"target":34962},{"buffer":0,"byteOffset":3948,"byteLength":228,"target":34963}],"buffers":[{"byteLength":4176,"uri":"standing_stone.bin"}],"images":[{"name":"Rocks_Diffuse","uri":"../nature/Rocks_Diffuse.png"}],"materials":[{"doubleSided":false,"name":"Stone_Moss","pbrMetallicRoughness":{"baseColorFactor":[0.5,0.75,0.4,1.0],"baseColorTexture":{"index":0},"metallicFactor":0,"roughnessFactor":0.8999999761581421}},{"doubleSided":false,"name":"Stone_Rock","pbrMetallicRoughness":{"baseColorFactor":[0.95,0.95,0.9,1.0],"baseColorTexture":{"index":0},"metallicFactor":0,"roughnessFactor":0.8999999761581421}}],"meshes":[{"name":"standing_stone_Stone_Moss","primitives":[{"attributes":{"NORMAL":0,"POSITION":1,"TEXCOORD_0":2},"indices":3,"material":0}]},{"name":"standing_stone_Stone_Rock","primitives":[{"attributes":{"NORMAL":4,"POSITION":5,"TEXCOORD_0":6},"indices":7,"material":1}]}],"nodes":[{"mesh":0,"name":"standing_stone_Stone_Moss"},{"mesh":1,"name":"standing_stone_Stone_Rock"}],"scene":0,"scenes":[{"name":"Scene","nodes":[0,1]}],"textures":[{"source":0}]}