{"accessors":[{"bufferView":0,"componentType":5126,"count":150,"max":[1.2797116041183472,0.550000011920929,0.985309362411499],"min":[-0.9040846824645996,-0.20000000298023224,-0.8976560235023499],"type":"VEC3"},{"bufferView":1,"componentType":5126,"count":150,"type":"VEC3"},{"bufferView":2,"componentType":5126,"count":150,"type":"VEC2"},{"bufferView":3,"componentType":5123,"count":558,"type":"SCALAR"},{"bufferView":4,"componentType":5126,"count":180,"max":[0.6139345765113831,0.39000001549720764,-0.171989306807518],"min":[-0.17605973780155182,0.1899999976158142,-0.6883295178413391],"type":"VEC3"},{"bufferView":5,"componentType":5126,"count":180,"type":"VEC3"},{"bufferView":6,"componentType":5126,"count":180,"type":"VEC2"},{"bufferView":7,"componentType":5123,"count":216,"type":"SCALAR"},{"bufferView":8,"componentType":5126,"count":27,"max":[0.43082886934280396,0.7078357934951782,0.22879616916179657],"min":[-0.264986127614975,0.5004143118858337,-0.2633056640625],"type":"VEC3"},{"bufferView":9,"componentType":5126,"count":27,"type":"VEC3"},{"bufferView":10,"componentType":5126,"count":27,"type":"VEC2"},{"bufferView":11,"componentType":5123,"count":60,"type":"SCALAR"},{"bufferView":12,"componentType":5126,"count":63,"max":[0.5,0.5899999737739563,0.49240386486053467],"min":[-0.46984630823135376,0.550000011920929,-0.49240386486053467],"type":"VEC3"},{"bufferView":13,"componentType":5126,"count":63,"type":"VEC3"},{"bufferView":14,"componentType":5126,"count":63,"type":"VEC2"},{"bufferView":15,"componentType":5123,"count":81,"type":"SCALAR"}],"asset":{"version":"2.0"},"bufferViews":[{"buffer":0,"byteLength":1800,"byteOffset":0,"target":34962},{"buffer":0,"byteLength":1800,"byteOffset":1800,"target":34962},{"buffer":0,"byteLength":1200,"byteOffset":3600,"target":34962},{"buffer":0,"byteLength":1116,"byteOffset":4800,"target":34963},{"buffer":0,"byteLength":2160,"byteOffset":5916,"target":34962},{"buffer":0,"byteLength":2160,"byteOffset":8076,"target":34962},{"buffer":0,"byteLength":1440,"byteOffset":10236,"target":34962},{"buffer":0,"byteLength":432,"byteOffset":11676,"target":34963},{"buffer":0,"byteLength":324,"byteOffset":12108,"target":34962},{"buffer":0,"byteLength":324,"byteOffset":12432,"target":34962},{"buffer":0,"byteLength":216,"byteOffset":12756,"target":34962},{"buffer":0,"byteLength":120,"byteOffset":12972,"target":34963},{"buffer":0,"byteLength":756,"byteOffset":13092,"target":34962},{"buffer":0,"byteLength":756,"byteOffset":13848,"target":34962},{"buffer":0,"byteLength":504,"byteOffset":14604,"target":34962},{"buffer":0,"byteLength":162,"byteOffset":15108,"target":34963}],"buffers":[{"byteLength":15272,"uri":"stump_mossy.bin"}],"images":[{"name":"Bark_NormalTree","uri":"../nature/Bark_NormalTree.png"}],"materials":[{"doubleSided":false,"name":"Bark_Brown","pbrMetallicRoughness":{"baseColorFactor":[1.0,1.0,1.0,1.0],"baseColorTexture":{"index":0},"metallicFactor":0,"roughnessFactor":0.8999999761581421}},{"doubleSided":false,"name":"Fungus_Shelf","pbrMetallicRoughness":{"baseColorFactor":[0.6200000047683716,0.41999998688697815,0.18000000715255737,1],"metallicFactor":0,"roughnessFactor":0.8999999761581421}},{"doubleSided":false,"name":"Moss_Cap","pbrMetallicRoughness":{"baseColorFactor":[0.09000000357627869,0.20000000298023224,0.029999999329447746,1],"metallicFactor":0}},{"doubleSided":false,"name":"Wood_EndGrain","pbrMetallicRoughness":{"baseColorFactor":[0.41999998688697815,0.27000001072883606,0.11999999731779099,1],"metallicFactor":0,"roughnessFactor":0.8999999761581421}}],"meshes":[{"name":"stump_mossy_Bark_Brown","primitives":[{"attributes":{"NORMAL":1,"POSITION":0,"TEXCOORD_0":2},"indices":3,"material":0}]},{"name":"stump_mossy_Fungus_Shelf","primitives":[{"attributes":{"NORMAL":5,"POSITION":4,"TEXCOORD_0":6},"indices":7,"material":1}]},{"name":"stump_mossy_Moss_Cap","primitives":[{"attributes":{"NORMAL":9,"POSITION":8,"TEXCOORD_0":10},"indices":11,"material":2}]},{"name":"stump_mossy_Wood_EndGrain","primitives":[{"attributes":{"NORMAL":13,"POSITION":12,"TEXCOORD_0":14},"indices":15,"material":3}]}],"nodes":[{"mesh":0,"name":"stump_mossy_Bark_Brown"},{"mesh":1,"name":"stump_mossy_Fungus_Shelf"},{"mesh":2,"name":"stump_mossy_Moss_Cap"},{"mesh":3,"name":"stump_mossy_Wood_EndGrain"}],"scene":0,"scenes":[{"name":"Scene","nodes":[0,1,2,3]}],"textures":[{"source":0}]}
