{"accessors":[{"bufferView":0,"componentType":5126,"count":123,"type":"VEC3"},{"bufferView":1,"componentType":5126,"count":123,"max":[0.7602964639663696,1.100000023841858,1.0324501991271973],"min":[-0.7650749683380127,-0.20000000298023224,-0.8599055409431458],"type":"VEC3"},{"bufferView":2,"componentType":5126,"count":123,"type":"VEC2"},{"bufferView":3,"componentType":5123,"count":456,"type":"SCALAR"},{"bufferView":4,"componentType":5126,"count":25,"type":"VEC3"},{"bufferView":5,"componentType":5126,"count":25,"max":[0.31258511543273926,0.29631102085113525,0.011886537075042725],"min":[-0.7141657471656799,-0.07791248708963394,-0.589424192905426],"type":"VEC3"},{"bufferView":6,"componentType":5123,"count":60,"type":"SCALAR"},{"bufferView":7,"componentType":5126,"count":48,"type":"VEC3"},{"bufferView":8,"componentType":5126,"count":48,"max":[0.4000000059604645,1.8467098474502563,0.4000000059604645],"min":[-0.4000000059604645,1.100000023841858,-0.4000000059604645],"type":"VEC3"},{"bufferView":9,"componentType":5123,"count":48,"type":"SCALAR"}],"asset":{"version":"2.0"},"bufferViews":[{"buffer":0,"byteOffset":0,"byteLength":1476,"target":34962},{"buffer":0,"byteOffset":1476,"byteLength":1476,"target":34962},{"buffer":0,"byteOffset":2952,"byteLength":984,"target":34962},{"buffer":0,"byteOffset":3936,"byteLength":912,"target":34963},{"buffer":0,"byteOffset":4848,"byteLength":300,"target":34962},{"buffer":0,"byteOffset":5148,"byteLength":300,"target":34962},{"buffer":0,"byteOffset":5448,"byteLength":120,"target":34963},{"buffer":0,"byteOffset":5568,"byteLength":576,"target":34962},{"buffer":0,"byteOffset":6144,"byteLength":576,"target":34962},{"buffer":0,"byteOffset":6720,"byteLength":96,"target":34963}],"buffers":[{"byteLength":6816,"uri":"stump_broken.bin"}],"images":[{"name":"Bark_NormalTree","uri":"../nature/Bark_NormalTree.png"}],"materials":[{"doubleSided":false,"name":"Bark_Dark","pbrMetallicRoughness":{"baseColorFactor":[0.6,0.55,0.5,1.0],"baseColorTexture":{"index":0},"metallicFactor":0,"roughnessFactor":0.8999999761581421}},{"doubleSided":false,"name":"Moss_Cap","pbrMetallicRoughness":{"baseColorFactor":[0.09000000357627869,0.20000000298023224,0.029999999329447746,1],"metallicFactor":0}},{"doubleSided":false,"name":"Wood_EndGrain","pbrMetallicRoughness":{"baseColorFactor":[0.41999998688697815,0.27000001072883606,0.11999999731779099,1],"metallicFactor":0,"roughnessFactor":0.8999999761581421}}],"meshes":[{"name":"stump_broken_Bark_Dark","primitives":[{"attributes":{"NORMAL":0,"POSITION":1,"TEXCOORD_0":2},"indices":3,"material":0}]},{"name":"stump_broken_Moss_Cap","primitives":[{"attributes":{"NORMAL":4,"POSITION":5},"indices":6,"material":1}]},{"name":"stump_broken_Wood_EndGrain","primitives":[{"attributes":{"NORMAL":7,"POSITION":8},"indices":9,"material":2}]}],"nodes":[{"mesh":0,"name":"stump_broken_Bark_Dark"},{"mesh":1,"name":"stump_broken_Moss_Cap"},{"mesh":2,"name":"stump_broken_Wood_EndGrain"}],"scene":0,"scenes":[{"name":"Scene","nodes":[0,1,2]}],"textures":[{"source":0}]}