{"accessors":[{"bufferView":0,"componentType":5126,"count":4,"max":[0.1305162012577057,0.7740858197212219,0.27634793519973755],"min":[-0.12360554188489914,0.6518835425376892,-0.005617812275886536],"type":"VEC3"},{"bufferView":1,"componentType":5126,"count":4,"type":"VEC3"},{"bufferView":2,"componentType":5126,"count":4,"type":"VEC2"},{"bufferView":3,"componentType":5123,"count":6,"type":"SCALAR"},{"bufferView":4,"componentType":5126,"count":4,"max":[0.43469589948654175,0.4978262782096863,-0.07954683154821396],"min":[0.2169627994298935,0.43116259574890137,-0.3069671392440796],"type":"VEC3"},{"bufferView":5,"componentType":5126,"count":4,"type":"VEC3"},{"bufferView":6,"componentType":5126,"count":4,"type":"VEC2"},{"bufferView":7,"componentType":5126,"count":4,"max":[0.20618943870067596,0.5094708800315857,0.1939184069633484],"min":[-0.07415588200092316,0.4727337658405304,-0.08400967717170715],"type":"VEC3"},{"bufferView":8,"componentType":5126,"count":4,"type":"VEC3"},{"bufferView":9,"componentType":5126,"count":4,"type":"VEC2"},{"bufferView":10,"componentType":5126,"count":8,"max":[0.2844543755054474,0.8531386256217957,0.5636962652206421],"min":[-0.3152889013290405,0.531684398651123,-0.24507731199264526],"type":"VEC3"},{"bufferView":11,"componentType":5126,"count":8,"type":"VEC3"},{"bufferView":12,"componentType":5126,"count":8,"type":"VEC2"},{"bufferView":13,"componentType":5123,"count":12,"type":"SCALAR"},{"bufferView":14,"componentType":5126,"count":8,"max":[0.04545944929122925,0.8481113910675049,0.23073196411132812],"min":[-0.5425792336463928,0.6561166048049927,-0.3819889426231384],"type":"VEC3"},{"bufferView":15,"componentType":5126,"count":8,"type":"VEC3"},{"bufferView":16,"componentType":5126,"count":8,"type":"VEC2"},{"bufferView":17,"componentType":5126,"count":70,"max":[0.4701901972293854,0.7412220239639282,0.5054430961608887],"min":[-0.5726088881492615,-0.019999999552965164,-0.44952255487442017],"type":"VEC3"},{"bufferView":18,"componentType":5126,"count":70,"type":"VEC3"},{"bufferView":19,"componentType":5126,"count":70,"type":"VEC2"},{"bufferView":20,"componentType":5123,"count":126,"type":"SCALAR"},{"bufferView":21,"componentType":5126,"count":56,"max":[0.3636128306388855,0.8002771139144897,0.43942245841026306],"min":[-0.4273020029067993,-0.001430691685527563,-0.37568625807762146],"type":"VEC3"},{"bufferView":22,"componentType":5126,"count":56,"type":"VEC3"},{"bufferView":23,"componentType":5126,"count":56,"type":"VEC2"},{"bufferView":24,"componentType":5123,"count":126,"type":"SCALAR"}],"asset":{"version":"2.0"},"bufferViews":[{"buffer":0,"byteLength":48,"byteOffset":0,"target":34962},{"buffer":0,"byteLength":48,"byteOffset":48,"target":34962},{"buffer":0,"byteLength":32,"byteOffset":96,"target":34962},{"buffer":0,"byteLength":12,"byteOffset":128,"target":34963},{"buffer":0,"byteLength":48,"byteOffset":140,"target":34962},{"buffer":0,"byteLength":48,"byteOffset":188,"target":34962},{"buffer":0,"byteLength":32,"byteOffset":236,"target":34962},{"buffer":0,"byteLength":48,"byteOffset":268,"target":34962},{"buffer":0,"byteLength":48,"byteOffset":316,"target":34962},{"buffer":0,"byteLength":32,"byteOffset":364,"target":34962},{"buffer":0,"byteLength":96,"byteOffset":396,"target":34962},{"buffer":0,"byteLength":96,"byteOffset":492,"target":34962},{"buffer":0,"byteLength":64,"byteOffset":588,"target":34962},{"buffer":0,"byteLength":24,"byteOffset":652,"target":34963},{"buffer":0,"byteLength":96,"byteOffset":676,"target":34962},{"buffer":0,"byteLength":96,"byteOffset":772,"target":34962},{"buffer":0,"byteLength":64,"byteOffset":868,"target":34962},{"buffer":0,"byteLength":840,"byteOffset":932,"target":34962},{"buffer":0,"byteLength":840,"byteOffset":1772,"target":34962},{"buffer":0,"byteLength":560,"byteOffset":2612,"target":34962},{"buffer":0,"byteLength":252,"byteOffset":3172,"target":34963},{"buffer":0,"byteLength":672,"byteOffset":3424,"target":34962},{"buffer":0,"byteLength":672,"byteOffset":4096,"target":34962},{"buffer":0,"byteLength":448,"byteOffset":4768,"target":34962},{"buffer":0,"byteLength":252,"byteOffset":5216,"target":34963}],"buffers":[{"byteLength":5468,"uri":"wildflower_clump.bin"}],"images":[{"name":"Flowers","uri":"../nature/Flowers.png"},{"name":"Grass","uri":"../nature/Grass.png"}],"materials":[{"alphaCutoff":0.3,"alphaMode":"MASK","doubleSided":true,"name":"Bloom_Cream","pbrMetallicRoughness":{"baseColorFactor":[1.0,1.0,1.0,1.0],"baseColorTexture":{"index":0},"metallicFactor":0,"roughnessFactor":0.8999999761581421}},{"alphaCutoff":0.3,"alphaMode":"MASK","doubleSided":true,"name":"Bloom_Pink","pbrMetallicRoughness":{"baseColorFactor":[1.0,1.0,1.0,1.0],"baseColorTexture":{"index":0},"metallicFactor":0,"roughnessFactor":0.8999999761581421}},{"alphaCutoff":0.3,"alphaMode":"MASK","doubleSided":true,"name":"Bloom_Red","pbrMetallicRoughness":{"baseColorFactor":[1.0,1.0,1.0,1.0],"baseColorTexture":{"index":0},"metallicFactor":0,"roughnessFactor":0.8999999761581421}},{"alphaCutoff":0.3,"alphaMode":"MASK","doubleSided":true,"name":"Bloom_Violet","pbrMetallicRoughness":{"baseColorFactor":[1.0,1.0,1.0,1.0],"baseColorTexture":{"index":0},"metallicFactor":0,"roughnessFactor":0.8999999761581421}},{"alphaCutoff":0.3,"alphaMode":"MASK","doubleSided":true,"name":"Bloom_Yellow","pbrMetallicRoughness":{"baseColorFactor":[1.0,1.0,1.0,1.0],"baseColorTexture":{"index":0},"metallicFactor":0,"roughnessFactor":0.8999999761581421}},{"doubleSided":false,"name":"Grass_Blade","pbrMetallicRoughness":{"baseColorFactor":[1.0,1.0,1.0,1.0],"baseColorTexture":{"index":1},"metallicFactor":0,"roughnessFactor":0.8999999761581421}},{"doubleSided":false,"name":"Stem_Green","pbrMetallicRoughness":{"baseColorFactor":[0.07999999821186066,0.20000000298023224,0.029999999329447746,1],"metallicFactor":0,"roughnessFactor":0.8999999761581421}}],"meshes":[{"name":"wildflower_clump_Bloom_Cream","primitives":[{"attributes":{"NORMAL":1,"POSITION":0,"TEXCOORD_0":2},"indices":3,"material":0}]},{"name":"wildflower_clump_Bloom_Pink","primitives":[{"attributes":{"NORMAL":5,"POSITION":4,"TEXCOORD_0":6},"indices":3,"material":1}]},{"name":"wildflower_clump_Bloom_Red","primitives":[{"attributes":{"NORMAL":8,"POSITION":7,"TEXCOORD_0":9},"indices":3,"material":2}]},{"name":"wildflower_clump_Bloom_Violet","primitives":[{"attributes":{"NORMAL":11,"POSITION":10,"TEXCOORD_0":12},"indices":13,"material":3}]},{"name":"wildflower_clump_Bloom_Yellow","primitives":[{"attributes":{"NORMAL":15,"POSITION":14,"TEXCOORD_0":16},"indices":13,"material":4}]},{"name":"wildflower_clump_Grass_Blade","primitives":[{"attributes":{"NORMAL":18,"POSITION":17,"TEXCOORD_0":19},"indices":20,"material":5}]},{"name":"wildflower_clump_Stem_Green","primitives":[{"attributes":{"NORMAL":22,"POSITION":21,"TEXCOORD_0":23},"indices":24,"material":6}]}],"nodes":[{"mesh":0,"name":"wildflower_clump_Bloom_Cream"},{"mesh":1,"name":"wildflower_clump_Bloom_Pink"},{"mesh":2,"name":"wildflower_clump_Bloom_Red"},{"mesh":3,"name":"wildflower_clump_Bloom_Violet"},{"mesh":4,"name":"wildflower_clump_Bloom_Yellow"},{"mesh":5,"name":"wildflower_clump_Grass_Blade"},{"mesh":6,"name":"wildflower_clump_Stem_Green"}],"scene":0,"scenes":[{"name":"Scene","nodes":[0,1,2,3,4,5,6]}],"textures":[{"source":0},{"source":1}]}
