{"accessors":[{"bufferView":0,"componentType":5126,"count":191,"max":[3.5158114433288574,5.647434711456299,2.8401987552642822],"min":[-2.2246007919311523,-0.25,-3.040198564529419],"type":"VEC3"},{"bufferView":1,"componentType":5126,"count":191,"type":"VEC3"},{"bufferView":2,"componentType":5126,"count":191,"type":"VEC2"},{"bufferView":3,"componentType":5123,"count":600,"type":"SCALAR"},{"bufferView":4,"componentType":5126,"count":30,"max":[1.8716039657592773,5.9955034255981445,1.3716659545898438],"min":[-1.082006573677063,4.410628318786621,-1.5795725584030151],"type":"VEC3"},{"bufferView":5,"componentType":5126,"count":30,"type":"VEC3"},{"bufferView":6,"componentType":5126,"count":30,"type":"VEC2"},{"bufferView":7,"componentType":5123,"count":60,"type":"SCALAR"},{"bufferView":8,"componentType":5126,"count":352,"max":[4.516610622406006,6.809177875518799,3.9838805198669434],"min":[-2.995619058609009,0.8400026559829712,-3.708205223083496],"type":"VEC3"},{"bufferView":9,"componentType":5126,"count":352,"type":"VEC3"},{"bufferView":10,"componentType":5126,"count":352,"type":"VEC2"},{"bufferView":11,"componentType":5123,"count":528,"type":"SCALAR"}],"asset":{"version":"2.0"},"bufferViews":[{"buffer":0,"byteLength":2292,"byteOffset":0,"target":34962},{"buffer":0,"byteLength":2292,"byteOffset":2292,"target":34962},{"buffer":0,"byteLength":1528,"byteOffset":4584,"target":34962},{"buffer":0,"byteLength":1200,"byteOffset":6112,"target":34963},{"buffer":0,"byteLength":360,"byteOffset":7312,"target":34962},{"buffer":0,"byteLength":360,"byteOffset":7672,"target":34962},{"buffer":0,"byteLength":240,"byteOffset":8032,"target":34962},{"buffer":0,"byteLength":120,"byteOffset":8272,"target":34963},{"buffer":0,"byteLength":4224,"byteOffset":8392,"target":34962},{"buffer":0,"byteLength":4224,"byteOffset":12616,"target":34962},{"buffer":0,"byteLength":2816,"byteOffset":16840,"target":34962},{"buffer":0,"byteLength":1056,"byteOffset":19656,"target":34963}],"buffers":[{"byteLength":20712,"uri":"willow_weeping.bin"}],"images":[{"name":"Bark_NormalTree","uri":"../nature/Bark_NormalTree.png"},{"name":"Leaves_NormalTree_C","uri":"../nature/Leaves_NormalTree_C.png"}],"materials":[{"doubleSided":false,"name":"Bark_Dark","pbrMetallicRoughness":{"baseColorFactor":[0.6,0.55,0.5,1.0],"baseColorTexture":{"index":0},"metallicFactor":0,"roughnessFactor":0.8999999761581421}},{"doubleSided":false,"name":"Core_Willow","pbrMetallicRoughness":{"baseColorFactor":[0.07000000029802322,0.15000000596046448,0,1],"metallicFactor":0}},{"alphaCutoff":0.3,"alphaMode":"MASK","doubleSided":true,"name":"Leaf_Willow","pbrMetallicRoughness":{"baseColorFactor":[1.0,1.0,1.0,1.0],"baseColorTexture":{"index":1},"metallicFactor":0,"roughnessFactor":0.8999999761581421}}],"meshes":[{"name":"willow_weeping_Bark_Dark","primitives":[{"attributes":{"NORMAL":1,"POSITION":0,"TEXCOORD_0":2},"indices":3,"material":0}]},{"name":"willow_weeping_Core_Willow","primitives":[{"attributes":{"NORMAL":5,"POSITION":4,"TEXCOORD_0":6},"indices":7,"material":1}]},{"name":"willow_weeping_Leaf_Willow","primitives":[{"attributes":{"NORMAL":9,"POSITION":8,"TEXCOORD_0":10},"indices":11,"material":2}]}],"nodes":[{"mesh":0,"name":"willow_weeping_Bark_Dark"},{"mesh":1,"name":"willow_weeping_Core_Willow"},{"mesh":2,"name":"willow_weeping_Leaf_Willow"}],"scene":0,"scenes":[{"name":"Scene","nodes":[0,1,2]}],"textures":[{"source":0},{"source":1}]}
