{"accessors":[{"bufferView":0,"componentType":5126,"count":4,"max":[-0.17340122163295746,1.115698218345642,0.33883780241012573],"min":[-0.4084544777870178,0.9895387887954712,0.13837125897407532],"type":"VEC3"},{"bufferView":1,"componentType":5126,"count":4,"type":"VEC3"},{"bufferView":2,"componentType":5126,"count":4,"type":"VEC2"},{"bufferView":3,"componentType":5123,"count":6,"type":"SCALAR"},{"bufferView":4,"componentType":5126,"count":8,"max":[0.42772001028060913,1.1837937831878662,0.4116089940071106],"min":[-0.40472784638404846,0.9951292276382446,0.06637509912252426],"type":"VEC3"},{"bufferView":5,"componentType":5126,"count":8,"type":"VEC3"},{"bufferView":6,"componentType":5126,"count":8,"type":"VEC2"},{"bufferView":7,"componentType":5123,"count":12,"type":"SCALAR"},{"bufferView":8,"componentType":5126,"count":12,"max":[0.4468104839324951,1.1791940927505493,0.3755003809928894],"min":[-0.4679907560348511,1.0027663707733154,0.15243415534496307],"type":"VEC3"},{"bufferView":9,"componentType":5126,"count":12,"type":"VEC3"},{"bufferView":10,"componentType":5126,"count":12,"type":"VEC2"},{"bufferView":11,"componentType":5123,"count":18,"type":"SCALAR"},{"bufferView":12,"componentType":5126,"count":4,"max":[-0.0050443485379219055,1.1867444515228271,0.40643227100372314],"min":[-0.24152952432632446,1.0617637634277344,0.2012508660554886],"type":"VEC3"},{"bufferView":13,"componentType":5126,"count":4,"type":"VEC3"},{"bufferView":14,"componentType":5126,"count":4,"type":"VEC2"},{"bufferView":15,"componentType":5126,"count":4,"max":[0.08625493943691254,1.1931440830230713,0.30046454071998596],"min":[-0.14319588243961334,1.0627410411834717,0.10439558327198029],"type":"VEC3"},{"bufferView":16,"componentType":5126,"count":4,"type":"VEC3"},{"bufferView":17,"componentType":5126,"count":4,"type":"VEC2"},{"bufferView":18,"componentType":5126,"count":28,"max":[0.29080143570899963,1.0798110961914062,0.3412504494190216],"min":[-0.3116564452648163,0.8812362551689148,0.1617680788040161],"type":"VEC3"},{"bufferView":19,"componentType":5126,"count":28,"type":"VEC3"},{"bufferView":20,"componentType":5126,"count":28,"type":"VEC2"},{"bufferView":21,"componentType":5123,"count":60,"type":"SCALAR"},{"bufferView":22,"componentType":5126,"count":24,"max":[0.5688012838363647,0.8390904664993286,0.4147365093231201],"min":[-0.5232192873954773,0.1435377597808838,0.3452635407447815],"type":"VEC3"},{"bufferView":23,"componentType":5126,"count":24,"type":"VEC3"},{"bufferView":24,"componentType":5126,"count":24,"type":"VEC2"},{"bufferView":25,"componentType":5123,"count":36,"type":"SCALAR"},{"bufferView":26,"componentType":5126,"count":24,"max":[0.4130552113056183,1.2820014953613281,0.5479087233543396],"min":[-0.40129926800727844,0.7485619187355042,0.006029143929481506],"type":"VEC3"},{"bufferView":27,"componentType":5126,"count":24,"type":"VEC3"},{"bufferView":28,"componentType":5126,"count":24,"type":"VEC2"},{"bufferView":29,"componentType":5126,"count":24,"max":[0.550000011920929,0.9200000166893005,0.36000001430511475],"min":[-0.550000011920929,0.7200000286102295,0.11999999731779099],"type":"VEC3"},{"bufferView":30,"componentType":5126,"count":24,"type":"VEC3"},{"bufferView":31,"componentType":5126,"count":24,"type":"VEC2"},{"bufferView":32,"componentType":5123,"count":36,"type":"SCALAR"}],"asset":{"version":"2.0"},"bufferViews":[{"buffer":0,"byteLength":48,"byteOffset":0,"target":34962},{"buffer":0,"byteLength":48,"byteOffset":48,"target":34962},{"buffer":0,"byteLength":32,"byteOffset":96,"target":34962},{"buffer":0,"byteLength":12,"byteOffset":128,"target":34963},{"buffer":0,"byteLength":96,"byteOffset":140,"target":34962},{"buffer":0,"byteLength":96,"byteOffset":236,"target":34962},{"buffer":0,"byteLength":64,"byteOffset":332,"target":34962},{"buffer":0,"byteLength":24,"byteOffset":396,"target":34963},{"buffer":0,"byteLength":144,"byteOffset":420,"target":34962},{"buffer":0,"byteLength":144,"byteOffset":564,"target":34962},{"buffer":0,"byteLength":96,"byteOffset":708,"target":34962},{"buffer":0,"byteLength":36,"byteOffset":804,"target":34963},{"buffer":0,"byteLength":48,"byteOffset":840,"target":34962},{"buffer":0,"byteLength":48,"byteOffset":888,"target":34962},{"buffer":0,"byteLength":32,"byteOffset":936,"target":34962},{"buffer":0,"byteLength":48,"byteOffset":968,"target":34962},{"buffer":0,"byteLength":48,"byteOffset":1016,"target":34962},{"buffer":0,"byteLength":32,"byteOffset":1064,"target":34962},{"buffer":0,"byteLength":336,"byteOffset":1096,"target":34962},{"buffer":0,"byteLength":336,"byteOffset":1432,"target":34962},{"buffer":0,"byteLength":224,"byteOffset":1768,"target":34962},{"buffer":0,"byteLength":120,"byteOffset":1992,"target":34963},{"buffer":0,"byteLength":288,"byteOffset":2112,"target":34962},{"buffer":0,"byteLength":288,"byteOffset":2400,"target":34962},{"buffer":0,"byteLength":192,"byteOffset":2688,"target":34962},{"buffer":0,"byteLength":72,"byteOffset":2880,"target":34963},{"buffer":0,"byteLength":288,"byteOffset":2952,"target":34962},{"buffer":0,"byteLength":288,"byteOffset":3240,"target":34962},{"buffer":0,"byteLength":192,"byteOffset":3528,"target":34962},{"buffer":0,"byteLength":288,"byteOffset":3720,"target":34962},{"buffer":0,"byteLength":288,"byteOffset":4008,"target":34962},{"buffer":0,"byteLength":192,"byteOffset":4296,"target":34962},{"buffer":0,"byteLength":72,"byteOffset":4488,"target":34963}],"buffers":[{"byteLength":4560,"uri":"window_box.bin"}],"images":[{"name":"Flowers","uri":"../nature/Flowers.png"},{"name":"Leaves_NormalTree_C","uri":"../nature/Leaves_NormalTree_C.png"}],"materials":[{"alphaCutoff":0.3,"alphaMode":"MASK","doubleSided":true,"name":"Bloom_Cream","pbrMetallicRoughness":{"baseColorFactor":[1.0,1.0,1.0,1.0],"baseColorTexture":{"index":0},"metallicFactor":0,"roughnessFactor":0.8999999761581421}},{"alphaCutoff":0.3,"alphaMode":"MASK","doubleSided":true,"name":"Bloom_Pink","pbrMetallicRoughness":{"baseColorFactor":[1.0,1.0,1.0,1.0],"baseColorTexture":{"index":0},"metallicFactor":0,"roughnessFactor":0.8999999761581421}},{"alphaCutoff":0.3,"alphaMode":"MASK","doubleSided":true,"name":"Bloom_Red","pbrMetallicRoughness":{"baseColorFactor":[1.0,1.0,1.0,1.0],"baseColorTexture":{"index":0},"metallicFactor":0,"roughnessFactor":0.8999999761581421}},{"alphaCutoff":0.3,"alphaMode":"MASK","doubleSided":true,"name":"Bloom_Violet","pbrMetallicRoughness":{"baseColorFactor":[1.0,1.0,1.0,1.0],"baseColorTexture":{"index":0},"metallicFactor":0,"roughnessFactor":0.8999999761581421}},{"alphaCutoff":0.3,"alphaMode":"MASK","doubleSided":true,"name":"Bloom_Yellow","pbrMetallicRoughness":{"baseColorFactor":[1.0,1.0,1.0,1.0],"baseColorTexture":{"index":0},"metallicFactor":0,"roughnessFactor":0.8999999761581421}},{"doubleSided":false,"name":"Core_Mid","pbrMetallicRoughness":{"baseColorFactor":[0.05000000074505806,0.12999999523162842,0,1],"metallicFactor":0}},{"alphaCutoff":0.3,"alphaMode":"MASK","doubleSided":true,"name":"Leaf_Ivy","pbrMetallicRoughness":{"baseColorFactor":[0.6,0.85,1.0,1.0],"baseColorTexture":{"index":1},"metallicFactor":0,"roughnessFactor":0.8999999761581421}},{"alphaCutoff":0.3,"alphaMode":"MASK","doubleSided":true,"name":"Leaf_Mid","pbrMetallicRoughness":{"baseColorFactor":[0.8,1.0,1.0,1.0],"baseColorTexture":{"index":1},"metallicFactor":0,"roughnessFactor":0.8999999761581421}},{"doubleSided":false,"name":"Trellis_Wood","pbrMetallicRoughness":{"baseColorFactor":[0.36000001430511475,0.2199999988079071,0.10000000149011612,1],"metallicFactor":0,"roughnessFactor":0.8500000238418579}}],"meshes":[{"name":"window_box_Bloom_Cream","primitives":[{"attributes":{"NORMAL":1,"POSITION":0,"TEXCOORD_0":2},"indices":3,"material":0}]},{"name":"window_box_Bloom_Pink","primitives":[{"attributes":{"NORMAL":5,"POSITION":4,"TEXCOORD_0":6},"indices":7,"material":1}]},{"name":"window_box_Bloom_Red","primitives":[{"attributes":{"NORMAL":9,"POSITION":8,"TEXCOORD_0":10},"indices":11,"material":2}]},{"name":"window_box_Bloom_Violet","primitives":[{"attributes":{"NORMAL":13,"POSITION":12,"TEXCOORD_0":14},"indices":3,"material":3}]},{"name":"window_box_Bloom_Yellow","primitives":[{"attributes":{"NORMAL":16,"POSITION":15,"TEXCOORD_0":17},"indices":3,"material":4}]},{"name":"window_box_Core_Mid","primitives":[{"attributes":{"NORMAL":19,"POSITION":18,"TEXCOORD_0":20},"indices":21,"material":5}]},{"name":"window_box_Leaf_Ivy","primitives":[{"attributes":{"NORMAL":23,"POSITION":22,"TEXCOORD_0":24},"indices":25,"material":6}]},{"name":"window_box_Leaf_Mid","primitives":[{"attributes":{"NORMAL":27,"POSITION":26,"TEXCOORD_0":28},"indices":25,"material":7}]},{"name":"window_box_Trellis_Wood","primitives":[{"attributes":{"NORMAL":30,"POSITION":29,"TEXCOORD_0":31},"indices":32,"material":8}]}],"nodes":[{"mesh":0,"name":"window_box_Bloom_Cream"},{"mesh":1,"name":"window_box_Bloom_Pink"},{"mesh":2,"name":"window_box_Bloom_Red"},{"mesh":3,"name":"window_box_Bloom_Violet"},{"mesh":4,"name":"window_box_Bloom_Yellow"},{"mesh":5,"name":"window_box_Core_Mid"},{"mesh":6,"name":"window_box_Leaf_Ivy"},{"mesh":7,"name":"window_box_Leaf_Mid"},{"mesh":8,"name":"window_box_Trellis_Wood"}],"scene":0,"scenes":[{"name":"Scene","nodes":[0,1,2,3,4,5,6,7,8]}],"textures":[{"source":0},{"source":1}]}
