{
 "asset": {
  "version": "2.0",
  "generator": "OpenAgents scripts/blender/grid_robot_admit.py"
 },
 "scene": 0,
 "scenes": [
  {
   "name": "Scene",
   "nodes": [
    66
   ]
  }
 ],
 "nodes": [
  {
   "name": "Head",
   "rotation": [
    -0.13207007944583893,
    0,
    0,
    0.991240382194519
   ],
   "translation": [
    0,
    0.08285234868526459,
    9.313225746154785e-09
   ]
  },
  {
   "children": [
    0
   ],
   "name": "neck_01",
   "rotation": [
    0.25725916028022766,
    0,
    0,
    0.9663424491882324
   ],
   "translation": [
    0,
    0.21509313583374023,
    1.862645149230957e-08
   ]
  },
  {
   "name": "index_04_leaf_l",
   "rotation": [
    -1.789221437675792e-09,
    0.9998229742050171,
    3.712300440383842e-07,
    0.018816031515598297
   ],
   "scale": [
    0.9999999403953552,
    1,
    1
   ],
   "translation": [
    -1.1732481652870774e-09,
    0.024110054597258568,
    -1.3058706826996058e-07
   ]
  },
  {
   "children": [
    2
   ],
   "name": "index_03_l",
   "rotation": [
    1.9416402210481465e-06,
    -7.145895324356388e-06,
    -0.00018566079961601645,
    1
   ],
   "scale": [
    1,
    1,
    1.0000001192092896
   ],
   "translation": [
    -5.757101462222636e-10,
    0.027911342680454254,
    5.889705789741129e-08
   ]
  },
  {
   "children": [
    3
   ],
   "name": "index_02_l",
   "rotation": [
    3.8516853351211466e-07,
    4.9490859964862466e-05,
    -0.0005330402054823935,
    0.9999998807907104
   ],
   "scale": [
    0.9999999403953552,
    1.0000001192092896,
    1
   ],
   "translation": [
    -8.440110832452774e-10,
    0.032612428069114685,
    1.2031887308694422e-07
   ]
  },
  {
   "children": [
    4
   ],
   "name": "index_01_l",
   "rotation": [
    0.008505093865096569,
    0.7068116664886475,
    -0.01852414943277836,
    0.7071080803871155
   ],
   "scale": [
    1.0000001192092896,
    1.000000238418579,
    1.0000001192092896
   ],
   "translation": [
    0.007159475702792406,
    0.1174025684595108,
    0.040643345564603806
   ]
  },
  {
   "name": "middle_04_leaf_l",
   "rotation": [
    -1.5724443969133972e-08,
    0.9998255372047424,
    5.420716675530457e-08,
    0.018679797649383545
   ],
   "scale": [
    1,
    0.9999997019767761,
    1
   ],
   "translation": [
    2.2610038286074996e-09,
    0.030519673600792885,
    1.955777406692505e-07
   ]
  },
  {
   "children": [
    6
   ],
   "name": "middle_03_l",
   "rotation": [
    -4.686012857746391e-07,
    -5.432930265669711e-05,
    -0.0014198303688317537,
    0.9999990463256836
   ],
   "scale": [
    0.9999999403953552,
    0.9999998211860657,
    1
   ],
   "translation": [
    -5.793481250293553e-10,
    0.030116640031337738,
    -6.39629433862865e-08
   ]
  },
  {
   "children": [
    7
   ],
   "name": "middle_02_l",
   "rotation": [
    5.612571953861334e-07,
    7.84045914770104e-05,
    0.0020528144668787718,
    0.9999979138374329
   ],
   "scale": [
    1,
    1,
    1.0000001192092896
   ],
   "translation": [
    -4.098183126188815e-09,
    0.03752607852220535,
    -1.7083948478102684e-08
   ]
  },
  {
   "children": [
    8
   ],
   "name": "middle_01_l",
   "rotation": [
    0.005067416001111269,
    0.7067627906799316,
    -0.02195817232131958,
    0.7070916295051575
   ],
   "scale": [
    1,
    0.9999999403953552,
    0.9999999403953552
   ],
   "translation": [
    0.004682549275457859,
    0.1154387816786766,
    0.015113381668925285
   ]
  },
  {
   "name": "pinky_04_leaf_l",
   "rotation": [
    -6.453817924523264e-09,
    0.9998291730880737,
    2.147510969052746e-07,
    0.018483733758330345
   ],
   "translation": [
    2.8803697205148637e-09,
    0.021523315459489822,
    -3.95521055907011e-08
   ]
  },
  {
   "children": [
    10
   ],
   "name": "pinky_03_l",
   "rotation": [
    3.3508222259115428e-06,
    -0.00013744289753958583,
    0.0004660093109123409,
    0.9999998807907104
   ],
   "scale": [
    0.9999998807907104,
    0.9999999403953552,
    0.9999998807907104
   ],
   "translation": [
    -4.249159246683121e-09,
    0.027430830523371696,
    1.7808633856475353e-07
   ]
  },
  {
   "children": [
    11
   ],
   "name": "pinky_02_l",
   "rotation": [
    3.9539517615594377e-07,
    9.536039578961208e-05,
    -0.0015674401074647903,
    0.9999988079071045
   ],
   "scale": [
    1,
    0.9999999403953552,
    0.9999999403953552
   ],
   "translation": [
    1.1932570487260818e-08,
    0.03163102641701698,
    -1.7530692275613546e-07
   ]
  },
  {
   "children": [
    12
   ],
   "name": "pinky_01_l",
   "rotation": [
    0.002601056592538953,
    0.7066821455955505,
    -0.024414697661995888,
    0.7071049809455872
   ],
   "scale": [
    1.0000001192092896,
    1.000000238418579,
    1.0000001192092896
   ],
   "translation": [
    0.0060377283953130245,
    0.09854141622781754,
    -0.03461737558245659
   ]
  },
  {
   "name": "ring_04_leaf_l",
   "rotation": [
    8.940817863845041e-09,
    0.9998185634613037,
    5.402291662903735e-07,
    0.019049758091568947
   ],
   "translation": [
    -9.167706593871117e-09,
    0.02910165674984455,
    5.82986103836447e-09
   ]
  },
  {
   "children": [
    14
   ],
   "name": "ring_03_l",
   "rotation": [
    3.849756012641592e-06,
    -0.00025297756656073034,
    -0.003387551987543702,
    0.9999942183494568
   ],
   "translation": [
    1.204170985147357e-09,
    0.028300179168581963,
    5.35583239980042e-08
   ]
  },
  {
   "children": [
    15
   ],
   "name": "ring_02_l",
   "rotation": [
    -4.73642239740002e-06,
    0.00021853116049896926,
    0.00239976542070508,
    0.9999971389770508
   ],
   "scale": [
    0.9999999403953552,
    0.9999999403953552,
    0.9999999403953552
   ],
   "translation": [
    7.916241884231567e-09,
    0.03600123152136803,
    -8.07840478955768e-08
   ]
  },
  {
   "children": [
    16
   ],
   "name": "ring_01_l",
   "rotation": [
    0.015323746018111706,
    0.7069170475006104,
    -0.011713176034390926,
    0.7070334553718567
   ],
   "scale": [
    1,
    0.9999997615814209,
    1
   ],
   "translation": [
    0.004751814063638449,
    0.10940060019493103,
    -0.012370164506137371
   ]
  },
  {
   "name": "thumb_04_leaf_l",
   "rotation": [
    1.285916511051255e-07,
    0.38270875811576843,
    -4.782022244853579e-08,
    0.9238690137863159
   ],
   "scale": [
    1,
    0.9999999403953552,
    1
   ],
   "translation": [
    -1.0035000741481781e-07,
    0.034558095037937164,
    2.1187588572502136e-08
   ]
  },
  {
   "children": [
    18
   ],
   "name": "thumb_03_l",
   "rotation": [
    -5.349284037947655e-08,
    -2.9730843380093575e-05,
    1.7080456018447876e-06,
    1
   ],
   "translation": [
    -1.2048985809087753e-08,
    0.03549090400338173,
    -2.9336661100387573e-08
   ]
  },
  {
   "children": [
    19
   ],
   "name": "thumb_02_l",
   "rotation": [
    6.149784894660115e-07,
    4.712928785011172e-06,
    -3.2112004646478454e-06,
    1
   ],
   "scale": [
    1,
    0.9999998807907104,
    1
   ],
   "translation": [
    -1.050066202878952e-07,
    0.039519939571619034,
    3.5390257835388184e-08
   ]
  },
  {
   "children": [
    20
   ],
   "name": "thumb_01_l",
   "rotation": [
    -0.24446295201778412,
    -0.94356769323349,
    -0.21606169641017914,
    0.05687990039587021
   ],
   "scale": [
    1,
    1.000000238418579,
    1
   ],
   "translation": [
    0.0274813212454319,
    0.03381355106830597,
    0.04106312245130539
   ]
  },
  {
   "children": [
    5,
    9,
    13,
    17,
    21
   ],
   "name": "hand_l",
   "rotation": [
    -0.015601660124957561,
    -4.1717584053913015e-07,
    -9.051257521264233e-09,
    0.9998782873153687
   ],
   "scale": [
    1,
    1,
    0.9999999403953552
   ],
   "translation": [
    -1.5123794128157897e-07,
    0.243594229221344,
    2.6994939616997726e-09
   ]
  },
  {
   "children": [
    22
   ],
   "name": "lowerarm_l",
   "rotation": [
    0.030732227489352226,
    4.16175062127877e-05,
    -1.2497959005486337e-06,
    0.9995276927947998
   ],
   "translation": [
    3.7845666156499647e-08,
    0.251115083694458,
    -5.1513779908418655e-09
   ]
  },
  {
   "children": [
    23
   ],
   "name": "upperarm_l",
   "rotation": [
    0.149803027510643,
    0.6911307573318481,
    -0.14938844740390778,
    0.6910719275474548
   ],
   "scale": [
    0.9999998211860657,
    0.999999463558197,
    0.9999998807907104
   ],
   "translation": [
    -0.009135720320045948,
    0.20573900640010834,
    -0.03967121243476868
   ]
  },
  {
   "children": [
    24
   ],
   "name": "clavicle_l",
   "rotation": [
    -0.5287374258041382,
    -0.32910192012786865,
    -0.41380804777145386,
    0.663996696472168
   ],
   "scale": [
    1,
    0.9999998807907104,
    1
   ],
   "translation": [
    0.03139999881386757,
    0.1737176477909088,
    0.06732845306396484
   ]
  },
  {
   "name": "index_04_leaf_r",
   "rotation": [
    -1.934766347133632e-09,
    -0.9998229742050171,
    -3.711606666456646e-07,
    0.018816031515598297
   ],
   "scale": [
    0.9999999403953552,
    1,
    1
   ],
   "translation": [
    1.1732481652870774e-09,
    0.02411006949841976,
    -1.3124372344464064e-07
   ]
  },
  {
   "children": [
    26
   ],
   "name": "index_03_r",
   "rotation": [
    1.943404186022235e-06,
    7.1459307946497574e-06,
    0.00018566078506410122,
    1
   ],
   "scale": [
    1,
    1,
    1.0000001192092896
   ],
   "translation": [
    4.911271389573812e-10,
    0.027911365032196045,
    6.19775164523162e-08
   ]
  },
  {
   "children": [
    27
   ],
   "name": "index_02_r",
   "rotation": [
    3.823500378530298e-07,
    -4.935889955959283e-05,
    0.0005330423591658473,
    0.9999998807907104
   ],
   "scale": [
    0.9999999403953552,
    1.0000001192092896,
    1
   ],
   "translation": [
    1.2951204553246498e-09,
    0.03261244669556618,
    1.2260898074600846e-07
   ]
  },
  {
   "children": [
    28
   ],
   "name": "index_01_r",
   "rotation": [
    0.008505097590386868,
    -0.706811785697937,
    0.01852414757013321,
    0.7071079611778259
   ],
   "scale": [
    1.0000001192092896,
    1.000000238418579,
    1.0000001192092896
   ],
   "translation": [
    -0.007159472443163395,
    0.117402583360672,
    0.040643345564603806
   ]
  },
  {
   "name": "middle_04_leaf_r",
   "rotation": [
    -1.5782660511831637e-08,
    -0.9998255372047424,
    -5.4032970098205624e-08,
    0.018679797649383545
   ],
   "scale": [
    1,
    0.9999997019767761,
    1
   ],
   "translation": [
    -2.2610038286074996e-09,
    0.030519699677824974,
    1.9423532648943365e-07
   ]
  },
  {
   "children": [
    30
   ],
   "name": "middle_03_r",
   "rotation": [
    -4.687495334110281e-07,
    5.432928810478188e-05,
    0.001419831532984972,
    0.9999990463256836
   ],
   "scale": [
    0.9999999403953552,
    0.9999998211860657,
    1
   ],
   "translation": [
    -1.1996235116384923e-09,
    0.030116606503725052,
    -6.529444362968206e-08
   ]
  },
  {
   "children": [
    31
   ],
   "name": "middle_02_r",
   "rotation": [
    5.584595896834799e-07,
    -7.839182944735512e-05,
    -0.0020528144668787718,
    0.9999979138374329
   ],
   "scale": [
    1,
    1,
    1.0000001192092896
   ],
   "translation": [
    4.5683918870054185e-09,
    0.03752603381872177,
    -2.081651473417878e-08
   ]
  },
  {
   "children": [
    32
   ],
   "name": "middle_01_r",
   "rotation": [
    0.005067416001111269,
    -0.7067628502845764,
    0.02195817045867443,
    0.7070915699005127
   ],
   "scale": [
    1,
    0.9999999403953552,
    0.9999999403953552
   ],
   "translation": [
    -0.004682543221861124,
    0.1154387965798378,
    0.015113386325538158
   ]
  },
  {
   "name": "pinky_04_leaf_r",
   "rotation": [
    -9.396038613829205e-09,
    -0.9998291730880737,
    -2.1258703952753422e-07,
    0.018483733758330345
   ],
   "translation": [
    -1.3542376109398901e-09,
    0.021523330360651016,
    -4.5925844460725784e-08
   ]
  },
  {
   "children": [
    34
   ],
   "name": "pinky_03_r",
   "rotation": [
    3.3533979149069637e-06,
    0.0001374428829876706,
    -0.00046601047506555915,
    0.9999998807907104
   ],
   "scale": [
    0.9999998807907104,
    0.9999999403953552,
    0.9999998807907104
   ],
   "translation": [
    3.7834979593753815e-10,
    0.027430785819888115,
    1.7545244190841913e-07
   ]
  },
  {
   "children": [
    35
   ],
   "name": "pinky_02_r",
   "rotation": [
    3.925948135474755e-07,
    -9.534749551676214e-05,
    0.0015674429014325142,
    0.9999988079071045
   ],
   "scale": [
    1,
    0.9999999403953552,
    0.9999999403953552
   ],
   "translation": [
    -8.046299626585096e-09,
    0.03163103014230728,
    -5.98374754190445e-08
   ]
  },
  {
   "children": [
    36
   ],
   "name": "pinky_01_r",
   "rotation": [
    0.0026010593865066767,
    -0.7066822052001953,
    0.024414699524641037,
    0.7071049213409424
   ],
   "scale": [
    1.0000001192092896,
    1.000000238418579,
    1.0000001192092896
   ],
   "translation": [
    -0.0060377162881195545,
    0.09854142367839813,
    -0.03461737558245659
   ]
  },
  {
   "name": "ring_04_leaf_r",
   "rotation": [
    8.93445140093263e-09,
    -0.9998185634613037,
    -5.40070118404401e-07,
    0.019049877300858498
   ],
   "scale": [
    0.9999999403953552,
    1,
    0.9999999403953552
   ],
   "translation": [
    6.257323548197746e-09,
    0.029101617634296417,
    2.222896000603214e-08
   ]
  },
  {
   "children": [
    38
   ],
   "name": "ring_03_r",
   "rotation": [
    3.850367193081183e-06,
    0.00025285835727117956,
    0.0033875522203743458,
    0.9999942183494568
   ],
   "translation": [
    -1.204170985147357e-09,
    0.028300197795033455,
    5.154106474947184e-08
   ]
  },
  {
   "children": [
    39
   ],
   "name": "ring_02_r",
   "rotation": [
    -4.736421942652669e-06,
    -0.0002185181510867551,
    -0.002399763325229287,
    0.9999971389770508
   ],
   "scale": [
    0.9999999403953552,
    0.9999999403953552,
    0.9999999403953552
   ],
   "translation": [
    -4.307366907596588e-09,
    0.036001186817884445,
    -8.079041435848922e-08
   ]
  },
  {
   "children": [
    40
   ],
   "name": "ring_01_r",
   "rotation": [
    0.01532374694943428,
    -0.7069171071052551,
    0.011713176965713501,
    0.7070333957672119
   ],
   "scale": [
    1,
    0.9999997615814209,
    1
   ],
   "translation": [
    -0.0047518047504127026,
    0.10940061509609222,
    -0.012370162643492222
   ]
  },
  {
   "name": "thumb_04_leaf_r",
   "rotation": [
    1.2106264080102846e-07,
    -0.3827088177204132,
    2.8808685215153673e-08,
    0.9238690137863159
   ],
   "scale": [
    1.0000001192092896,
    1,
    1
   ],
   "translation": [
    9.080395102500916e-09,
    0.03455810248851776,
    1.7695128917694092e-08
   ]
  },
  {
   "children": [
    42
   ],
   "name": "thumb_03_r",
   "rotation": [
    -5.1935785450041294e-08,
    2.9705788620049134e-05,
    -1.7005951349347015e-06,
    1
   ],
   "scale": [
    0.9999999403953552,
    1,
    0.9999999403953552
   ],
   "translation": [
    1.2456439435482025e-08,
    0.03549079969525337,
    8.381903171539307e-09
   ]
  },
  {
   "children": [
    43
   ],
   "name": "thumb_02_r",
   "rotation": [
    6.680493811472843e-07,
    -4.789792001247406e-06,
    3.1683596262155334e-06,
    1
   ],
   "scale": [
    1,
    0.9999998807907104,
    0.9999999403953552
   ],
   "translation": [
    -4.563480615615845e-08,
    0.039520014077425,
    2.8172507882118225e-08
   ]
  },
  {
   "children": [
    44
   ],
   "name": "thumb_01_r",
   "rotation": [
    -0.24446293711662292,
    0.9435676336288452,
    0.21606166660785675,
    0.05687989294528961
   ],
   "scale": [
    0.9999999403953552,
    1.0000001192092896,
    1.0000001192092896
   ],
   "translation": [
    -0.02748131938278675,
    0.03381356596946716,
    0.04106312245130539
   ]
  },
  {
   "children": [
    29,
    33,
    37,
    41,
    45
   ],
   "name": "hand_r",
   "rotation": [
    -0.015601660124957561,
    4.7677681891400425e-07,
    8.121838313002172e-09,
    0.9998782873153687
   ],
   "scale": [
    1,
    1,
    0.9999999403953552
   ],
   "translation": [
    1.5123667651550932e-07,
    0.2435941994190216,
    2.032038537436165e-09
   ]
  },
  {
   "children": [
    46
   ],
   "name": "lowerarm_r",
   "rotation": [
    0.030732227489352226,
    -4.1677081753732637e-05,
    1.251685375791567e-06,
    0.9995276927947998
   ],
   "translation": [
    -3.0872001843818e-08,
    0.251115083694458,
    -2.86672729998827e-09
   ]
  },
  {
   "children": [
    47
   ],
   "name": "upperarm_r",
   "rotation": [
    0.1498030126094818,
    -0.6911307573318481,
    0.14938844740390778,
    0.6910719275474548
   ],
   "scale": [
    0.9999998211860657,
    0.999999463558197,
    0.9999998807907104
   ],
   "translation": [
    0.009135720320045948,
    0.20573900640010834,
    -0.03967121243476868
   ]
  },
  {
   "children": [
    48
   ],
   "name": "clavicle_r",
   "rotation": [
    -0.5287374258041382,
    0.32910192012786865,
    0.41380804777145386,
    0.663996696472168
   ],
   "scale": [
    1,
    0.9999998807907104,
    1
   ],
   "translation": [
    -0.03139999881386757,
    0.1737176477909088,
    0.06732845306396484
   ]
  },
  {
   "children": [
    1,
    25,
    49
   ],
   "name": "spine_03",
   "rotation": [
    -0.12418898940086365,
    0,
    0,
    0.9922585487365723
   ],
   "translation": [
    0,
    0.1331336796283722,
    0
   ]
  },
  {
   "children": [
    50
   ],
   "name": "spine_02",
   "rotation": [
    -0.03958535194396973,
    0,
    0,
    0.9992161989212036
   ],
   "translation": [
    0,
    0.10634974390268326,
    -1.3969838619232178e-09
   ]
  },
  {
   "children": [
    51
   ],
   "name": "spine_01",
   "rotation": [
    -0.09185619652271271,
    0,
    0,
    0.9957723021507263
   ],
   "translation": [
    0,
    0.1280922144651413,
    -3.259629011154175e-08
   ]
  },
  {
   "name": "ball_leaf_l",
   "rotation": [
    1.4901161193847656e-08,
    -4.371149486814829e-08,
    -1.355950077832355e-14,
    1
   ],
   "translation": [
    -1.3288261602184548e-09,
    0.07889983803033829,
    -4.233804418163345e-10
   ]
  },
  {
   "children": [
    53
   ],
   "name": "ball_l",
   "rotation": [
    6.497470650401738e-08,
    0.9731196165084839,
    -0.23030038177967072,
    1.894733969720619e-07
   ],
   "scale": [
    1,
    1.000000238418579,
    1
   ],
   "translation": [
    -4.181756274590498e-09,
    0.15907371044158936,
    -7.893650177948075e-09
   ]
  },
  {
   "children": [
    54
   ],
   "name": "foot_l",
   "rotation": [
    -0.5721680521965027,
    1.9553584706955007e-07,
    -1.3641555085541768e-07,
    0.8201364278793335
   ],
   "translation": [
    0,
    0.4587883949279785,
    5.587935447692871e-09
   ]
  },
  {
   "children": [
    55
   ],
   "name": "calf_l",
   "rotation": [
    0.05598893761634827,
    0,
    0,
    0.998431384563446
   ],
   "translation": [
    -7.450580596923828e-09,
    0.4288000166416168,
    3.1723175197839737e-09
   ]
  },
  {
   "children": [
    56
   ],
   "name": "thigh_l",
   "rotation": [
    0.9898310303688049,
    0,
    0,
    0.14224845170974731
   ],
   "scale": [
    1,
    1,
    1.0000019073486328
   ],
   "translation": [
    0.11430513858795166,
    0.023176943883299828,
    0.0004878304898738861
   ]
  },
  {
   "name": "ball_leaf_r",
   "rotation": [
    1.4901161193847656e-08,
    4.371149486814829e-08,
    1.355950077832355e-14,
    1
   ],
   "translation": [
    1.3288261602184548e-09,
    0.07889983803033829,
    -4.233804418163345e-10
   ]
  },
  {
   "children": [
    58
   ],
   "name": "ball_r",
   "rotation": [
    6.497470650401738e-08,
    -0.9731196165084839,
    0.23030038177967072,
    1.894733969720619e-07
   ],
   "scale": [
    1,
    1.000000238418579,
    1
   ],
   "translation": [
    4.181756274590498e-09,
    0.15907371044158936,
    -7.893650177948075e-09
   ]
  },
  {
   "children": [
    59
   ],
   "name": "foot_r",
   "rotation": [
    -0.5721680521965027,
    -1.9553584706955007e-07,
    1.3641555085541768e-07,
    0.8201364278793335
   ],
   "translation": [
    0,
    0.4587883949279785,
    5.587935447692871e-09
   ]
  },
  {
   "children": [
    60
   ],
   "name": "calf_r",
   "rotation": [
    0.05598893761634827,
    0,
    0,
    0.998431384563446
   ],
   "translation": [
    7.450580596923828e-09,
    0.4288000166416168,
    3.1723175197839737e-09
   ]
  },
  {
   "children": [
    61
   ],
   "name": "thigh_r",
   "rotation": [
    0.9898310303688049,
    0,
    0,
    0.14224845170974731
   ],
   "scale": [
    1,
    1,
    1.0000019073486328
   ],
   "translation": [
    -0.11430513858795166,
    0.023176943883299828,
    0.0004878304898738861
   ]
  },
  {
   "children": [
    52,
    57,
    62
   ],
   "name": "pelvis",
   "rotation": [
    0.8005710244178772,
    0,
    0,
    0.5992379188537598
   ],
   "translation": [
    0,
    0.042999982833862305,
    0.9491000175476074
   ]
  },
  {
   "children": [
    63
   ],
   "name": "root",
   "rotation": [
    -0.7071067690849304,
    0,
    0,
    0.7071067690849304
   ]
  },
  {
   "name": "GridRobot",
   "mesh": 0,
   "skin": 0
  },
  {
   "name": "Armature",
   "children": [
    65,
    64
   ]
  }
 ],
 "skins": [
  {
   "name": "Universal",
   "joints": [
    64,
    63,
    52,
    51,
    50,
    1,
    0,
    25,
    24,
    23,
    22,
    5,
    4,
    3,
    2,
    9,
    8,
    7,
    6,
    13,
    12,
    11,
    10,
    17,
    16,
    15,
    14,
    21,
    20,
    19,
    18,
    49,
    48,
    47,
    46,
    29,
    28,
    27,
    26,
    33,
    32,
    31,
    30,
    37,
    36,
    35,
    34,
    41,
    40,
    39,
    38,
    45,
    44,
    43,
    42,
    57,
    56,
    55,
    54,
    53,
    62,
    61,
    60,
    59,
    58
   ],
   "inverseBindMatrices": 24
  }
 ],
 "meshes": [
  {
   "name": "GridRobot",
   "primitives": [
    {
     "attributes": {
      "POSITION": 0,
      "NORMAL": 1,
      "TEXCOORD_0": 2,
      "JOINTS_0": 3,
      "WEIGHTS_0": 4
     },
     "indices": 5,
     "material": 0,
     "mode": 4
    },
    {
     "attributes": {
      "POSITION": 6,
      "NORMAL": 7,
      "TEXCOORD_0": 8,
      "JOINTS_0": 9,
      "WEIGHTS_0": 10
     },
     "indices": 11,
     "material": 1,
     "mode": 4
    },
    {
     "attributes": {
      "POSITION": 12,
      "NORMAL": 13,
      "TEXCOORD_0": 14,
      "JOINTS_0": 15,
      "WEIGHTS_0": 16
     },
     "indices": 17,
     "material": 2,
     "mode": 4
    },
    {
     "attributes": {
      "POSITION": 18,
      "NORMAL": 19,
      "TEXCOORD_0": 20,
      "JOINTS_0": 21,
      "WEIGHTS_0": 22
     },
     "indices": 23,
     "material": 3,
     "mode": 4
    }
   ]
  }
 ],
 "materials": [
  {
   "name": "Armor",
   "pbrMetallicRoughness": {
    "baseColorFactor": [
     0.022,
     0.023,
     0.026,
     1.0
    ],
    "metallicFactor": 0.0,
    "roughnessFactor": 0.6
   },
   "emissiveFactor": [
    0.0,
    0.0,
    0.0
   ]
  },
  {
   "name": "Trim",
   "pbrMetallicRoughness": {
    "baseColorFactor": [
     0.06,
     0.062,
     0.068,
     1.0
    ],
    "metallicFactor": 0.0,
    "roughnessFactor": 0.6
   },
   "emissiveFactor": [
    0.0,
    0.0,
    0.0
   ]
  },
  {
   "name": "EmitWhite",
   "pbrMetallicRoughness": {
    "baseColorFactor": [
     1.0,
     1.0,
     1.0,
     1.0
    ],
    "metallicFactor": 0.0,
    "roughnessFactor": 0.6
   },
   "emissiveFactor": [
    1.0,
    1.0,
    1.0
   ]
  },
  {
   "name": "EmitPale",
   "pbrMetallicRoughness": {
    "baseColorFactor": [
     0.8,
     0.84,
     0.9,
     1.0
    ],
    "metallicFactor": 0.0,
    "roughnessFactor": 0.6
   },
   "emissiveFactor": [
    0.8,
    0.86,
    0.95
   ]
  }
 ],
 "accessors": [
  {
   "bufferView": 0,
   "componentType": 5126,
   "count": 2580,
   "type": "VEC3",
   "min": [
    -0.9202065467834473,
    0.0,
    -0.17250026762485504
   ],
   "max": [
    0.920206606388092,
    1.8860000371932983,
    0.14559932053089142
   ]
  },
  {
   "bufferView": 1,
   "componentType": 5126,
   "count": 2580,
   "type": "VEC3"
  },
  {
   "bufferView": 2,
   "componentType": 5126,
   "count": 2580,
   "type": "VEC2"
  },
  {
   "bufferView": 3,
   "componentType": 5121,
   "count": 2580,
   "type": "VEC4"
  },
  {
   "bufferView": 4,
   "componentType": 5126,
   "count": 2580,
   "type": "VEC4"
  },
  {
   "bufferView": 5,
   "componentType": 5123,
   "count": 4080,
   "type": "SCALAR"
  },
  {
   "bufferView": 6,
   "componentType": 5126,
   "count": 2052,
   "type": "VEC3",
   "min": [
    -0.8597390055656433,
    0.056801266968250275,
    -0.12630321085453033
   ],
   "max": [
    0.8597390651702881,
    1.7670000791549683,
    0.13600000739097595
   ]
  },
  {
   "bufferView": 7,
   "componentType": 5126,
   "count": 2052,
   "type": "VEC3"
  },
  {
   "bufferView": 8,
   "componentType": 5126,
   "count": 2052,
   "type": "VEC2"
  },
  {
   "bufferView": 9,
   "componentType": 5121,
   "count": 2052,
   "type": "VEC4"
  },
  {
   "bufferView": 10,
   "componentType": 5126,
   "count": 2052,
   "type": "VEC4"
  },
  {
   "bufferView": 11,
   "componentType": 5123,
   "count": 3288,
   "type": "SCALAR"
  },
  {
   "bufferView": 12,
   "componentType": 5126,
   "count": 736,
   "type": "VEC3",
   "min": [
    -0.5130115747451782,
    0.47239983081817627,
    -0.11919401586055756
   ],
   "max": [
    0.513011634349823,
    1.75600004196167,
    0.1509999930858612
   ]
  },
  {
   "bufferView": 13,
   "componentType": 5126,
   "count": 736,
   "type": "VEC3"
  },
  {
   "bufferView": 14,
   "componentType": 5126,
   "count": 736,
   "type": "VEC2"
  },
  {
   "bufferView": 15,
   "componentType": 5121,
   "count": 736,
   "type": "VEC4"
  },
  {
   "bufferView": 16,
   "componentType": 5126,
   "count": 736,
   "type": "VEC4"
  },
  {
   "bufferView": 17,
   "componentType": 5123,
   "count": 1104,
   "type": "SCALAR"
  },
  {
   "bufferView": 18,
   "componentType": 5126,
   "count": 568,
   "type": "VEC3",
   "min": [
    -0.2930000126361847,
    0.1564997434616089,
    -0.13369424641132355
   ],
   "max": [
    0.2930000126361847,
    1.7450000047683716,
    0.10900001972913742
   ]
  },
  {
   "bufferView": 19,
   "componentType": 5126,
   "count": 568,
   "type": "VEC3"
  },
  {
   "bufferView": 20,
   "componentType": 5126,
   "count": 568,
   "type": "VEC2"
  },
  {
   "bufferView": 21,
   "componentType": 5121,
   "count": 568,
   "type": "VEC4"
  },
  {
   "bufferView": 22,
   "componentType": 5126,
   "count": 568,
   "type": "VEC4"
  },
  {
   "bufferView": 23,
   "componentType": 5123,
   "count": 888,
   "type": "SCALAR"
  },
  {
   "bufferView": 24,
   "componentType": 5126,
   "count": 65,
   "type": "MAT4"
  }
 ],
 "bufferViews": [
  {
   "buffer": 0,
   "byteOffset": 0,
   "byteLength": 30960,
   "target": 34962
  },
  {
   "buffer": 0,
   "byteOffset": 30960,
   "byteLength": 30960,
   "target": 34962
  },
  {
   "buffer": 0,
   "byteOffset": 61920,
   "byteLength": 20640,
   "target": 34962
  },
  {
   "buffer": 0,
   "byteOffset": 82560,
   "byteLength": 10320,
   "target": 34962
  },
  {
   "buffer": 0,
   "byteOffset": 92880,
   "byteLength": 41280,
   "target": 34962
  },
  {
   "buffer": 0,
   "byteOffset": 134160,
   "byteLength": 8160,
   "target": 34963
  },
  {
   "buffer": 0,
   "byteOffset": 142320,
   "byteLength": 24624,
   "target": 34962
  },
  {
   "buffer": 0,
   "byteOffset": 166944,
   "byteLength": 24624,
   "target": 34962
  },
  {
   "buffer": 0,
   "byteOffset": 191568,
   "byteLength": 16416,
   "target": 34962
  },
  {
   "buffer": 0,
   "byteOffset": 207984,
   "byteLength": 8208,
   "target": 34962
  },
  {
   "buffer": 0,
   "byteOffset": 216192,
   "byteLength": 32832,
   "target": 34962
  },
  {
   "buffer": 0,
   "byteOffset": 249024,
   "byteLength": 6576,
   "target": 34963
  },
  {
   "buffer": 0,
   "byteOffset": 255600,
   "byteLength": 8832,
   "target": 34962
  },
  {
   "buffer": 0,
   "byteOffset": 264432,
   "byteLength": 8832,
   "target": 34962
  },
  {
   "buffer": 0,
   "byteOffset": 273264,
   "byteLength": 5888,
   "target": 34962
  },
  {
   "buffer": 0,
   "byteOffset": 279152,
   "byteLength": 2944,
   "target": 34962
  },
  {
   "buffer": 0,
   "byteOffset": 282096,
   "byteLength": 11776,
   "target": 34962
  },
  {
   "buffer": 0,
   "byteOffset": 293872,
   "byteLength": 2208,
   "target": 34963
  },
  {
   "buffer": 0,
   "byteOffset": 296080,
   "byteLength": 6816,
   "target": 34962
  },
  {
   "buffer": 0,
   "byteOffset": 302896,
   "byteLength": 6816,
   "target": 34962
  },
  {
   "buffer": 0,
   "byteOffset": 309712,
   "byteLength": 4544,
   "target": 34962
  },
  {
   "buffer": 0,
   "byteOffset": 314256,
   "byteLength": 2272,
   "target": 34962
  },
  {
   "buffer": 0,
   "byteOffset": 316528,
   "byteLength": 9088,
   "target": 34962
  },
  {
   "buffer": 0,
   "byteOffset": 325616,
   "byteLength": 1776,
   "target": 34963
  },
  {
   "buffer": 0,
   "byteOffset": 327392,
   "byteLength": 4160
  }
 ],
 "buffers": [
  {
   "byteLength": 331552,
   "uri": "grid-robot.lod0.bin"
  }
 ]
}
