{"accessors":[{"bufferView":0,"componentType":5126,"count":1834,"max":[0.41999995708465576,1.4175000190734863,1.1599154472351074],"min":[-0.4199999272823334,-0.015125002712011337,-0.9259999990463257],"type":"VEC3"},{"bufferView":1,"componentType":5126,"count":1834,"type":"VEC3"},{"bufferView":2,"componentType":5126,"count":1834,"type":"VEC2"},{"bufferView":3,"componentType":5121,"count":1834,"type":"VEC4"},{"bufferView":4,"componentType":5126,"count":1834,"type":"VEC4"},{"bufferView":5,"componentType":5123,"count":2586,"type":"SCALAR"},{"bufferView":6,"componentType":5126,"count":192,"max":[0.30433809757232666,1.2100000381469727,1.2590000629425049],"min":[-0.30433809757232666,0.515999972820282,-0.6262984871864319],"type":"VEC3"},{"bufferView":7,"componentType":5126,"count":192,"type":"VEC3"},{"bufferView":8,"componentType":5126,"count":192,"type":"VEC2"},{"bufferView":9,"componentType":5121,"count":192,"type":"VEC4"},{"bufferView":10,"componentType":5126,"count":192,"type":"VEC4"},{"bufferView":11,"componentType":5123,"count":276,"type":"SCALAR"},{"bufferView":12,"componentType":5126,"count":732,"max":[0.31595781445503235,1.2300000190734863,1.3114999532699585],"min":[-0.31595781445503235,0.0032999999821186066,-0.3290325105190277],"type":"VEC3"},{"bufferView":13,"componentType":5126,"count":732,"type":"VEC3"},{"bufferView":14,"componentType":5126,"count":732,"type":"VEC2"},{"bufferView":15,"componentType":5121,"count":732,"type":"VEC4"},{"bufferView":16,"componentType":5126,"count":732,"type":"VEC4"},{"bufferView":17,"componentType":5123,"count":900,"type":"SCALAR"},{"bufferView":18,"componentType":5126,"count":11,"type":"MAT4"},{"bufferView":19,"componentType":5126,"count":73,"max":[3.0416666666666665],"min":[0.041666666666666664],"type":"SCALAR"},{"bufferView":20,"componentType":5126,"count":73,"type":"VEC3"},{"bufferView":21,"componentType":5126,"count":73,"type":"VEC4"},{"bufferView":22,"componentType":5126,"count":2,"max":[3.0416666666666665],"min":[0.041666666666666664],"type":"SCALAR"},{"bufferView":23,"componentType":5126,"count":2,"type":"VEC3"},{"bufferView":24,"componentType":5126,"count":2,"type":"VEC3"},{"bufferView":25,"componentType":5126,"count":73,"type":"VEC4"},{"bufferView":26,"componentType":5126,"count":2,"type":"VEC3"},{"bufferView":27,"componentType":5126,"count":2,"type":"VEC3"},{"bufferView":28,"componentType":5126,"count":73,"type":"VEC4"},{"bufferView":29,"componentType":5126,"count":2,"type":"VEC3"},{"bufferView":30,"componentType":5126,"count":73,"type":"VEC4"},{"bufferView":31,"componentType":5126,"count":2,"type":"VEC3"},{"bufferView":32,"componentType":5126,"count":2,"type":"VEC3"},{"bufferView":33,"componentType":5126,"count":2,"type":"VEC3"},{"bufferView":34,"componentType":5126,"count":2,"type":"VEC3"},{"bufferView":35,"componentType":5126,"count":73,"type":"VEC4"},{"bufferView":36,"componentType":5126,"count":25,"max":[1.0416666666666667],"min":[0.041666666666666664],"type":"SCALAR"},{"bufferView":37,"componentType":5126,"count":25,"type":"VEC3"},{"bufferView":38,"componentType":5126,"count":25,"type":"VEC4"},{"bufferView":39,"componentType":5126,"count":2,"max":[1.0416666666666667],"min":[0.041666666666666664],"type":"SCALAR"},{"bufferView":40,"componentType":5126,"count":25,"type":"VEC4"},{"bufferView":41,"componentType":5126,"count":25,"type":"VEC4"},{"bufferView":42,"componentType":5126,"count":25,"type":"VEC4"},{"bufferView":43,"componentType":5126,"count":25,"type":"VEC4"},{"bufferView":44,"componentType":5126,"count":25,"type":"VEC4"},{"bufferView":45,"componentType":5126,"count":25,"type":"VEC4"},{"bufferView":46,"componentType":5126,"count":2,"type":"VEC3"},{"bufferView":47,"componentType":5126,"count":25,"type":"VEC4"},{"bufferView":48,"componentType":5126,"count":25,"type":"VEC4"},{"bufferView":49,"componentType":5126,"count":2,"type":"VEC3"},{"bufferView":50,"componentType":5126,"count":25,"type":"VEC4"},{"bufferView":51,"componentType":5126,"count":25,"type":"VEC4"}],"animations":[{"channels":[{"sampler":0,"target":{"node":10,"path":"translation"}},{"sampler":1,"target":{"node":10,"path":"rotation"}},{"sampler":2,"target":{"node":10,"path":"scale"}},{"sampler":3,"target":{"node":0,"path":"translation"}},{"sampler":4,"target":{"node":0,"path":"rotation"}},{"sampler":5,"target":{"node":0,"path":"scale"}},{"sampler":6,"target":{"node":2,"path":"translation"}},{"sampler":7,"target":{"node":2,"path":"rotation"}},{"sampler":8,"target":{"node":2,"path":"scale"}},{"sampler":9,"target":{"node":1,"path":"translation"}},{"sampler":10,"target":{"node":1,"path":"rotation"}},{"sampler":11,"target":{"node":1,"path":"scale"}},{"sampler":12,"target":{"node":4,"path":"translation"}},{"sampler":13,"target":{"node":4,"path":"rotation"}},{"sampler":14,"target":{"node":4,"path":"scale"}},{"sampler":15,"target":{"node":3,"path":"translation"}},{"sampler":16,"target":{"node":3,"path":"rotation"}},{"sampler":17,"target":{"node":3,"path":"scale"}},{"sampler":18,"target":{"node":6,"path":"translation"}},{"sampler":19,"target":{"node":6,"path":"rotation"}},{"sampler":20,"target":{"node":6,"path":"scale"}},{"sampler":21,"target":{"node":5,"path":"translation"}},{"sampler":22,"target":{"node":5,"path":"rotation"}},{"sampler":23,"target":{"node":5,"path":"scale"}},{"sampler":24,"target":{"node":8,"path":"translation"}},{"sampler":25,"target":{"node":8,"path":"rotation"}},{"sampler":26,"target":{"node":8,"path":"scale"}},{"sampler":27,"target":{"node":7,"path":"translation"}},{"sampler":28,"target":{"node":7,"path":"rotation"}},{"sampler":29,"target":{"node":7,"path":"scale"}},{"sampler":30,"target":{"node":9,"path":"translation"}},{"sampler":31,"target":{"node":9,"path":"rotation"}},{"sampler":32,"target":{"node":9,"path":"scale"}}],"name":"idle","samplers":[{"input":19,"interpolation":"LINEAR","output":20},{"input":19,"interpolation":"LINEAR","output":21},{"input":22,"interpolation":"STEP","output":23},{"input":22,"interpolation":"STEP","output":24},{"input":19,"interpolation":"LINEAR","output":25},{"input":22,"interpolation":"STEP","output":26},{"input":22,"interpolation":"STEP","output":27},{"input":19,"interpolation":"LINEAR","output":28},{"input":22,"interpolation":"STEP","output":23},{"input":22,"interpolation":"STEP","output":29},{"input":19,"interpolation":"LINEAR","output":30},{"input":22,"interpolation":"STEP","output":23},{"input":22,"interpolation":"STEP","output":31},{"input":19,"interpolation":"LINEAR","output":28},{"input":22,"interpolation":"STEP","output":23},{"input":22,"interpolation":"STEP","output":29},{"input":19,"interpolation":"LINEAR","output":30},{"input":22,"interpolation":"STEP","output":23},{"input":22,"interpolation":"STEP","output":32},{"input":19,"interpolation":"LINEAR","output":28},{"input":22,"interpolation":"STEP","output":23},{"input":22,"interpolation":"STEP","output":29},{"input":19,"interpolation":"LINEAR","output":30},{"input":22,"interpolation":"STEP","output":23},{"input":22,"interpolation":"STEP","output":33},{"input":19,"interpolation":"LINEAR","output":28},{"input":22,"interpolation":"STEP","output":23},{"input":22,"interpolation":"STEP","output":29},{"input":19,"interpolation":"LINEAR","output":30},{"input":22,"interpolation":"STEP","output":23},{"input":22,"interpolation":"STEP","output":34},{"input":19,"interpolation":"LINEAR","output":35},{"input":22,"interpolation":"STEP","output":23}]},{"channels":[{"sampler":0,"target":{"node":10,"path":"translation"}},{"sampler":1,"target":{"node":10,"path":"rotation"}},{"sampler":2,"target":{"node":10,"path":"scale"}},{"sampler":3,"target":{"node":0,"path":"translation"}},{"sampler":4,"target":{"node":0,"path":"rotation"}},{"sampler":5,"target":{"node":0,"path":"scale"}},{"sampler":6,"target":{"node":2,"path":"translation"}},{"sampler":7,"target":{"node":2,"path":"rotation"}},{"sampler":8,"target":{"node":2,"path":"scale"}},{"sampler":9,"target":{"node":1,"path":"translation"}},{"sampler":10,"target":{"node":1,"path":"rotation"}},{"sampler":11,"target":{"node":1,"path":"scale"}},{"sampler":12,"target":{"node":4,"path":"translation"}},{"sampler":13,"target":{"node":4,"path":"rotation"}},{"sampler":14,"target":{"node":4,"path":"scale"}},{"sampler":15,"target":{"node":3,"path":"translation"}},{"sampler":16,"target":{"node":3,"path":"rotation"}},{"sampler":17,"target":{"node":3,"path":"scale"}},{"sampler":18,"target":{"node":6,"path":"translation"}},{"sampler":19,"target":{"node":6,"path":"rotation"}},{"sampler":20,"target":{"node":6,"path":"scale"}},{"sampler":21,"target":{"node":5,"path":"translation"}},{"sampler":22,"target":{"node":5,"path":"rotation"}},{"sampler":23,"target":{"node":5,"path":"scale"}},{"sampler":24,"target":{"node":8,"path":"translation"}},{"sampler":25,"target":{"node":8,"path":"rotation"}},{"sampler":26,"target":{"node":8,"path":"scale"}},{"sampler":27,"target":{"node":7,"path":"translation"}},{"sampler":28,"target":{"node":7,"path":"rotation"}},{"sampler":29,"target":{"node":7,"path":"scale"}},{"sampler":30,"target":{"node":9,"path":"translation"}},{"sampler":31,"target":{"node":9,"path":"rotation"}},{"sampler":32,"target":{"node":9,"path":"scale"}}],"name":"walk","samplers":[{"input":36,"interpolation":"LINEAR","output":37},{"input":36,"interpolation":"LINEAR","output":38},{"input":39,"interpolation":"STEP","output":23},{"input":39,"interpolation":"STEP","output":24},{"input":36,"interpolation":"LINEAR","output":40},{"input":39,"interpolation":"STEP","output":23},{"input":39,"interpolation":"STEP","output":27},{"input":36,"interpolation":"LINEAR","output":41},{"input":39,"interpolation":"STEP","output":23},{"input":39,"interpolation":"STEP","output":29},{"input":36,"interpolation":"LINEAR","output":42},{"input":39,"interpolation":"STEP","output":23},{"input":39,"interpolation":"STEP","output":31},{"input":36,"interpolation":"LINEAR","output":43},{"input":39,"interpolation":"STEP","output":23},{"input":39,"interpolation":"STEP","output":29},{"input":36,"interpolation":"LINEAR","output":44},{"input":39,"interpolation":"STEP","output":23},{"input":39,"interpolation":"STEP","output":32},{"input":36,"interpolation":"LINEAR","output":45},{"input":39,"interpolation":"STEP","output":23},{"input":39,"interpolation":"STEP","output":46},{"input":36,"interpolation":"LINEAR","output":47},{"input":39,"interpolation":"STEP","output":23},{"input":39,"interpolation":"STEP","output":33},{"input":36,"interpolation":"LINEAR","output":48},{"input":39,"interpolation":"STEP","output":23},{"input":39,"interpolation":"STEP","output":49},{"input":36,"interpolation":"LINEAR","output":50},{"input":39,"interpolation":"STEP","output":23},{"input":39,"interpolation":"STEP","output":34},{"input":36,"interpolation":"LINEAR","output":51},{"input":39,"interpolation":"STEP","output":23}]}],"asset":{"generator":"Khronos glTF Blender I/O v5.2.40","version":"2.0"},"bufferViews":[{"buffer":0,"byteLength":22008,"byteOffset":0,"target":34962},{"buffer":0,"byteLength":22008,"byteOffset":22008,"target":34962},{"buffer":0,"byteLength":14672,"byteOffset":44016,"target":34962},{"buffer":0,"byteLength":7336,"byteOffset":58688,"target":34962},{"buffer":0,"byteLength":29344,"byteOffset":66024,"target":34962},{"buffer":0,"byteLength":5172,"byteOffset":95368,"target":34963},{"buffer":0,"byteLength":2304,"byteOffset":100540,"target":34962},{"buffer":0,"byteLength":2304,"byteOffset":102844,"target":34962},{"buffer":0,"byteLength":1536,"byteOffset":105148,"target":34962},{"buffer":0,"byteLength":768,"byteOffset":106684,"target":34962},{"buffer":0,"byteLength":3072,"byteOffset":107452,"target":34962},{"buffer":0,"byteLength":552,"byteOffset":110524,"target":34963},{"buffer":0,"byteLength":8784,"byteOffset":111076,"target":34962},{"buffer":0,"byteLength":8784,"byteOffset":119860,"target":34962},{"buffer":0,"byteLength":5856,"byteOffset":128644,"target":34962},{"buffer":0,"byteLength":2928,"byteOffset":134500,"target":34962},{"buffer":0,"byteLength":11712,"byteOffset":137428,"target":34962},{"buffer":0,"byteLength":1800,"byteOffset":149140,"target":34963},{"buffer":0,"byteLength":704,"byteOffset":150940},{"buffer":0,"byteLength":292,"byteOffset":151644},{"buffer":0,"byteLength":876,"byteOffset":151936},{"buffer":0,"byteLength":1168,"byteOffset":152812},{"buffer":0,"byteLength":8,"byteOffset":153980},{"buffer":0,"byteLength":24,"byteOffset":153988},{"buffer":0,"byteLength":24,"byteOffset":154012},{"buffer":0,"byteLength":1168,"byteOffset":154036},{"buffer":0,"byteLength":24,"byteOffset":155204},{"buffer":0,"byteLength":24,"byteOffset":155228},{"buffer":0,"byteLength":1168,"byteOffset":155252},{"buffer":0,"byteLength":24,"byteOffset":156420},{"buffer":0,"byteLength":1168,"byteOffset":156444},{"buffer":0,"byteLength":24,"byteOffset":157612},{"buffer":0,"byteLength":24,"byteOffset":157636},{"buffer":0,"byteLength":24,"byteOffset":157660},{"buffer":0,"byteLength":24,"byteOffset":157684},{"buffer":0,"byteLength":1168,"byteOffset":157708},{"buffer":0,"byteLength":100,"byteOffset":158876},{"buffer":0,"byteLength":300,"byteOffset":158976},{"buffer":0,"byteLength":400,"byteOffset":159276},{"buffer":0,"byteLength":8,"byteOffset":159676},{"buffer":0,"byteLength":400,"byteOffset":159684},{"buffer":0,"byteLength":400,"byteOffset":160084},{"buffer":0,"byteLength":400,"byteOffset":160484},{"buffer":0,"byteLength":400,"byteOffset":160884},{"buffer":0,"byteLength":400,"byteOffset":161284},{"buffer":0,"byteLength":400,"byteOffset":161684},{"buffer":0,"byteLength":24,"byteOffset":162084},{"buffer":0,"byteLength":400,"byteOffset":162108},{"buffer":0,"byteLength":400,"byteOffset":162508},{"buffer":0,"byteLength":24,"byteOffset":162908},{"buffer":0,"byteLength":400,"byteOffset":162932},{"buffer":0,"byteLength":400,"byteOffset":163332}],"buffers":[{"byteLength":163732,"uri":"bear.bin"}],"materials":[{"doubleSided":true,"name":"Bear_Fur","pbrMetallicRoughness":{"baseColorFactor":[0.33000001311302185,0.20000000298023224,0.10999999940395355,1],"metallicFactor":0,"roughnessFactor":0.949999988079071}},{"doubleSided":true,"name":"Bear_Pale","pbrMetallicRoughness":{"baseColorFactor":[0.550000011920929,0.4000000059604645,0.25999999046325684,1],"metallicFactor":0,"roughnessFactor":0.949999988079071}},{"doubleSided":true,"name":"Bear_Dark","pbrMetallicRoughness":{"baseColorFactor":[0.05000000074505806,0.03999999910593033,0.03999999910593033,1],"metallicFactor":0,"roughnessFactor":0.5}}],"meshes":[{"name":"Bear","primitives":[{"attributes":{"JOINTS_0":3,"NORMAL":1,"POSITION":0,"TEXCOORD_0":2,"WEIGHTS_0":4},"indices":5,"material":0},{"attributes":{"JOINTS_0":9,"NORMAL":7,"POSITION":6,"TEXCOORD_0":8,"WEIGHTS_0":10},"indices":11,"material":1},{"attributes":{"JOINTS_0":15,"NORMAL":13,"POSITION":12,"TEXCOORD_0":14,"WEIGHTS_0":16},"indices":17,"material":2}]}],"nodes":[{"name":"head","translation":[0,0.15999996662139893,0.7139999866485596]},{"name":"shin_BL","translation":[0,-0.4599999785423279,0]},{"children":[1],"name":"leg_BL","translation":[0.23999999463558197,-0.039999961853027344,-0.5099999904632568]},{"name":"shin_BR","translation":[0,-0.4599999785423279,0]},{"children":[3],"name":"leg_BR","translation":[-0.23999999463558197,-0.039999961853027344,-0.5099999904632568]},{"name":"shin_FL","translation":[0,-0.4599999785423279,0]},{"children":[5],"name":"leg_FL","translation":[0.23999999463558197,-0.039999961853027344,0.5099999904632568]},{"name":"shin_FR","translation":[0,-0.4599999785423279,0]},{"children":[7],"name":"leg_FR","translation":[-0.23999999463558197,-0.039999961853027344,0.5099999904632568]},{"name":"tail","translation":[0,0.15999996662139893,-0.8159999847412109]},{"children":[0,2,4,6,8,9],"name":"body","translation":[0,0.8999999761581421,0]},{"mesh":0,"name":"Bear","skin":0},{"children":[11,10],"name":"Bear_Rig"}],"scene":0,"scenes":[{"name":"Scene","nodes":[12]}],"skins":[{"inverseBindMatrices":18,"joints":[10,0,2,1,4,3,6,5,8,7,9],"name":"Bear_Rig"}]}
