{"accessors":[{"bufferView":0,"componentType":5126,"count":606,"max":[0.1803470253944397,0.45975422859191895,0.13776278495788574],"min":[-0.09510565549135208,0,-0.21695172786712646],"type":"VEC3"},{"bufferView":1,"componentType":5126,"count":606,"type":"VEC3"},{"bufferView":2,"componentType":5126,"count":606,"type":"VEC2"},{"bufferView":3,"componentType":5121,"count":606,"type":"VEC4"},{"bufferView":4,"componentType":5126,"count":606,"type":"VEC4"},{"bufferView":5,"componentType":5123,"count":864,"type":"SCALAR"},{"bufferView":6,"componentType":5126,"count":268,"max":[0.07470917701721191,0.36800000071525574,0.16300000250339508],"min":[-0.07470917701721191,-0.003000001423060894,0.07500000298023224],"type":"VEC3"},{"bufferView":7,"componentType":5126,"count":268,"type":"VEC3"},{"bufferView":8,"componentType":5126,"count":268,"type":"VEC2"},{"bufferView":9,"componentType":5121,"count":268,"type":"VEC4"},{"bufferView":10,"componentType":5126,"count":268,"type":"VEC4"},{"bufferView":11,"componentType":5123,"count":336,"type":"SCALAR"},{"bufferView":12,"componentType":5126,"count":40,"max":[0.0069282036274671555,0.3579999804496765,0.17192821204662323],"min":[-0.0069282036274671555,0.34200000762939453,0.15807180106639862],"type":"VEC3"},{"bufferView":13,"componentType":5126,"count":40,"type":"VEC3"},{"bufferView":14,"componentType":5126,"count":40,"type":"VEC2"},{"bufferView":15,"componentType":5121,"count":40,"type":"VEC4"},{"bufferView":16,"componentType":5126,"count":40,"type":"VEC4"},{"bufferView":17,"componentType":5123,"count":48,"type":"SCALAR"},{"bufferView":18,"componentType":5126,"count":80,"max":[0.0423923060297966,0.3869999945163727,0.1453923135995865],"min":[-0.0423923060297966,0.3630000054836273,0.12460769712924957],"type":"VEC3"},{"bufferView":19,"componentType":5126,"count":80,"type":"VEC3"},{"bufferView":20,"componentType":5126,"count":80,"type":"VEC2"},{"bufferView":21,"componentType":5121,"count":80,"type":"VEC4"},{"bufferView":22,"componentType":5126,"count":80,"type":"VEC4"},{"bufferView":23,"componentType":5123,"count":96,"type":"SCALAR"},{"bufferView":24,"componentType":5126,"count":4,"type":"MAT4"},{"bufferView":25,"componentType":5126,"count":97,"max":[4.041666666666667],"min":[0.041666666666666664],"type":"SCALAR"},{"bufferView":26,"componentType":5126,"count":97,"type":"VEC3"},{"bufferView":27,"componentType":5126,"count":97,"type":"VEC4"},{"bufferView":28,"componentType":5126,"count":2,"max":[4.041666666666667],"min":[0.041666666666666664],"type":"SCALAR"},{"bufferView":29,"componentType":5126,"count":2,"type":"VEC3"},{"bufferView":30,"componentType":5126,"count":2,"type":"VEC3"},{"bufferView":31,"componentType":5126,"count":97,"type":"VEC4"},{"bufferView":32,"componentType":5126,"count":2,"type":"VEC3"},{"bufferView":33,"componentType":5126,"count":97,"type":"VEC4"},{"bufferView":34,"componentType":5126,"count":2,"type":"VEC3"},{"bufferView":35,"componentType":5126,"count":97,"type":"VEC4"}],"animations":[{"channels":[{"sampler":0,"target":{"node":3,"path":"translation"}},{"sampler":1,"target":{"node":3,"path":"rotation"}},{"sampler":2,"target":{"node":3,"path":"scale"}},{"sampler":3,"target":{"node":0,"path":"translation"}},{"sampler":4,"target":{"node":0,"path":"rotation"}},{"sampler":5,"target":{"node":0,"path":"scale"}},{"sampler":6,"target":{"node":2,"path":"translation"}},{"sampler":7,"target":{"node":2,"path":"rotation"}},{"sampler":8,"target":{"node":2,"path":"scale"}},{"sampler":9,"target":{"node":1,"path":"translation"}},{"sampler":10,"target":{"node":1,"path":"rotation"}},{"sampler":11,"target":{"node":1,"path":"scale"}}],"name":"idle","samplers":[{"input":25,"interpolation":"LINEAR","output":26},{"input":25,"interpolation":"LINEAR","output":27},{"input":28,"interpolation":"STEP","output":29},{"input":28,"interpolation":"STEP","output":30},{"input":25,"interpolation":"LINEAR","output":31},{"input":28,"interpolation":"STEP","output":29},{"input":28,"interpolation":"STEP","output":32},{"input":25,"interpolation":"LINEAR","output":33},{"input":28,"interpolation":"STEP","output":29},{"input":28,"interpolation":"STEP","output":34},{"input":25,"interpolation":"LINEAR","output":35},{"input":28,"interpolation":"STEP","output":29}]}],"asset":{"generator":"Khronos glTF Blender I/O v5.2.40","version":"2.0"},"bufferViews":[{"buffer":0,"byteLength":7272,"byteOffset":0,"target":34962},{"buffer":0,"byteLength":7272,"byteOffset":7272,"target":34962},{"buffer":0,"byteLength":4848,"byteOffset":14544,"target":34962},{"buffer":0,"byteLength":2424,"byteOffset":19392,"target":34962},{"buffer":0,"byteLength":9696,"byteOffset":21816,"target":34962},{"buffer":0,"byteLength":1728,"byteOffset":31512,"target":34963},{"buffer":0,"byteLength":3216,"byteOffset":33240,"target":34962},{"buffer":0,"byteLength":3216,"byteOffset":36456,"target":34962},{"buffer":0,"byteLength":2144,"byteOffset":39672,"target":34962},{"buffer":0,"byteLength":1072,"byteOffset":41816,"target":34962},{"buffer":0,"byteLength":4288,"byteOffset":42888,"target":34962},{"buffer":0,"byteLength":672,"byteOffset":47176,"target":34963},{"buffer":0,"byteLength":480,"byteOffset":47848,"target":34962},{"buffer":0,"byteLength":480,"byteOffset":48328,"target":34962},{"buffer":0,"byteLength":320,"byteOffset":48808,"target":34962},{"buffer":0,"byteLength":160,"byteOffset":49128,"target":34962},{"buffer":0,"byteLength":640,"byteOffset":49288,"target":34962},{"buffer":0,"byteLength":96,"byteOffset":49928,"target":34963},{"buffer":0,"byteLength":960,"byteOffset":50024,"target":34962},{"buffer":0,"byteLength":960,"byteOffset":50984,"target":34962},{"buffer":0,"byteLength":640,"byteOffset":51944,"target":34962},{"buffer":0,"byteLength":320,"byteOffset":52584,"target":34962},{"buffer":0,"byteLength":1280,"byteOffset":52904,"target":34962},{"buffer":0,"byteLength":192,"byteOffset":54184,"target":34963},{"buffer":0,"byteLength":256,"byteOffset":54376},{"buffer":0,"byteLength":388,"byteOffset":54632},{"buffer":0,"byteLength":1164,"byteOffset":55020},{"buffer":0,"byteLength":1552,"byteOffset":56184},{"buffer":0,"byteLength":8,"byteOffset":57736},{"buffer":0,"byteLength":24,"byteOffset":57744},{"buffer":0,"byteLength":24,"byteOffset":57768},{"buffer":0,"byteLength":1552,"byteOffset":57792},{"buffer":0,"byteLength":24,"byteOffset":59344},{"buffer":0,"byteLength":1552,"byteOffset":59368},{"buffer":0,"byteLength":24,"byteOffset":60920},{"buffer":0,"byteLength":1552,"byteOffset":60944}],"buffers":[{"byteLength":62496,"uri":"cat.bin"}],"materials":[{"doubleSided":true,"name":"Cat_Ginger","pbrMetallicRoughness":{"baseColorFactor":[0.6200000047683716,0.30000001192092896,0.07999999821186066,1],"metallicFactor":0,"roughnessFactor":0.949999988079071}},{"doubleSided":true,"name":"Cat_Cream","pbrMetallicRoughness":{"baseColorFactor":[0.8799999952316284,0.7599999904632568,0.5799999833106995,1],"metallicFactor":0,"roughnessFactor":0.949999988079071}},{"doubleSided":true,"name":"Cat_Dark","pbrMetallicRoughness":{"baseColorFactor":[0.05000000074505806,0.03999999910593033,0.029999999329447746,1],"metallicFactor":0,"roughnessFactor":0.4000000059604645}},{"doubleSided":true,"name":"Cat_Eye","pbrMetallicRoughness":{"baseColorFactor":[0.44999998807907104,0.550000011920929,0.07999999821186066,1],"metallicFactor":0,"roughnessFactor":0.30000001192092896}}],"meshes":[{"name":"Cat","primitives":[{"attributes":{"JOINTS_0":3,"NORMAL":1,"POSITION":0,"TEXCOORD_0":2,"WEIGHTS_0":4},"indices":5,"material":0},{"attributes":{"JOINTS_0":9,"NORMAL":7,"POSITION":6,"TEXCOORD_0":8,"WEIGHTS_0":10},"indices":11,"material":1},{"attributes":{"JOINTS_0":15,"NORMAL":13,"POSITION":12,"TEXCOORD_0":14,"WEIGHTS_0":16},"indices":17,"material":2},{"attributes":{"JOINTS_0":21,"NORMAL":19,"POSITION":18,"TEXCOORD_0":20,"WEIGHTS_0":22},"indices":23,"material":3}]}],"nodes":[{"name":"head","translation":[0,0.21000000834465027,0.05999999865889549]},{"name":"tail_tip","translation":[0.1300000101327896,-0.004999995231628418,0.07000000774860382]},{"children":[1],"name":"tail","translation":[0.019999999552965164,-0.0650000050663948,-0.20000000298023224]},{"children":[0,2],"name":"body","translation":[0,0.10000000149011612,0]},{"mesh":0,"name":"Cat","skin":0},{"children":[4,3],"name":"Cat_Rig"}],"scene":0,"scenes":[{"name":"Scene","nodes":[5]}],"skins":[{"inverseBindMatrices":24,"joints":[3,0,2,1],"name":"Cat_Rig"}]}
