{"accessors":[{"bufferView":0,"componentType":5126,"count":144,"max":[0.10461621731519699,0.11999999731779099,0.1797218769788742],"min":[-0.10461621731519699,-0.03999999910593033,-0.21972186863422394],"type":"VEC3"},{"bufferView":1,"componentType":5126,"count":144,"type":"VEC3"},{"bufferView":2,"componentType":5126,"count":144,"type":"VEC2"},{"bufferView":3,"componentType":5121,"count":144,"type":"VEC4"},{"bufferView":4,"componentType":5126,"count":144,"type":"VEC4"},{"bufferView":5,"componentType":5123,"count":192,"type":"SCALAR"},{"bufferView":6,"componentType":5126,"count":224,"max":[0.09272115677595139,0.12999999523162842,0.20711851119995117],"min":[-0.09272116422653198,-0.029999997466802597,-0.21000000834465027],"type":"VEC3"},{"bufferView":7,"componentType":5126,"count":224,"type":"VEC3"},{"bufferView":8,"componentType":5126,"count":224,"type":"VEC2"},{"bufferView":9,"componentType":5121,"count":224,"type":"VEC4"},{"bufferView":10,"componentType":5126,"count":224,"type":"VEC4"},{"bufferView":11,"componentType":5123,"count":294,"type":"SCALAR"},{"bufferView":12,"componentType":5126,"count":104,"max":[0.053660254925489426,0.2849999964237213,0.23866026103496552],"min":[-0.053660254925489426,0.06527446955442429,-0.29165464639663696],"type":"VEC3"},{"bufferView":13,"componentType":5126,"count":104,"type":"VEC3"},{"bufferView":14,"componentType":5126,"count":104,"type":"VEC2"},{"bufferView":15,"componentType":5121,"count":104,"type":"VEC4"},{"bufferView":16,"componentType":5126,"count":104,"type":"VEC4"},{"bufferView":17,"componentType":5123,"count":132,"type":"SCALAR"},{"bufferView":18,"componentType":5126,"count":48,"max":[0.04500000178813934,0.15000000596046448,0.2150000035762787],"min":[-0.04500000178813934,0.12999999523162842,0.125],"type":"VEC3"},{"bufferView":19,"componentType":5126,"count":48,"type":"VEC3"},{"bufferView":20,"componentType":5126,"count":48,"type":"VEC2"},{"bufferView":21,"componentType":5121,"count":48,"type":"VEC4"},{"bufferView":22,"componentType":5126,"count":48,"type":"VEC4"},{"bufferView":23,"componentType":5123,"count":84,"type":"SCALAR"},{"bufferView":24,"componentType":5126,"count":174,"max":[0.04728779196739197,0.31699997186660767,0.25912418961524963],"min":[-0.047287795692682266,0.1300000101327896,0.1343771070241928],"type":"VEC3"},{"bufferView":25,"componentType":5126,"count":174,"type":"VEC3"},{"bufferView":26,"componentType":5126,"count":174,"type":"VEC2"},{"bufferView":27,"componentType":5121,"count":174,"type":"VEC4"},{"bufferView":28,"componentType":5126,"count":174,"type":"VEC4"},{"bufferView":29,"componentType":5123,"count":252,"type":"SCALAR"},{"bufferView":30,"componentType":5126,"count":24,"max":[0.02250000089406967,0.2549999952316284,0.32999998331069946],"min":[-0.02250000089406967,0.23499999940395355,0.25],"type":"VEC3"},{"bufferView":31,"componentType":5126,"count":24,"type":"VEC3"},{"bufferView":32,"componentType":5126,"count":24,"type":"VEC2"},{"bufferView":33,"componentType":5121,"count":24,"type":"VEC4"},{"bufferView":34,"componentType":5126,"count":24,"type":"VEC4"},{"bufferView":35,"componentType":5123,"count":36,"type":"SCALAR"},{"bufferView":36,"componentType":5126,"count":3,"type":"MAT4"},{"bufferView":37,"componentType":5126,"count":73,"max":[3.0416666666666665],"min":[0.041666666666666664],"type":"SCALAR"},{"bufferView":38,"componentType":5126,"count":73,"type":"VEC3"},{"bufferView":39,"componentType":5126,"count":73,"type":"VEC4"},{"bufferView":40,"componentType":5126,"count":2,"max":[3.0416666666666665],"min":[0.041666666666666664],"type":"SCALAR"},{"bufferView":41,"componentType":5126,"count":2,"type":"VEC3"},{"bufferView":42,"componentType":5126,"count":2,"type":"VEC3"},{"bufferView":43,"componentType":5126,"count":73,"type":"VEC4"},{"bufferView":44,"componentType":5126,"count":2,"type":"VEC3"},{"bufferView":45,"componentType":5126,"count":73,"type":"VEC4"},{"bufferView":46,"componentType":5126,"count":25,"max":[1.0416666666666667],"min":[0.041666666666666664],"type":"SCALAR"},{"bufferView":47,"componentType":5126,"count":25,"type":"VEC3"},{"bufferView":48,"componentType":5126,"count":25,"type":"VEC4"},{"bufferView":49,"componentType":5126,"count":2,"max":[1.0416666666666667],"min":[0.041666666666666664],"type":"SCALAR"},{"bufferView":50,"componentType":5126,"count":2,"type":"VEC3"},{"bufferView":51,"componentType":5126,"count":25,"type":"VEC4"},{"bufferView":52,"componentType":5126,"count":25,"type":"VEC4"}],"animations":[{"channels":[{"sampler":0,"target":{"node":2,"path":"translation"}},{"sampler":1,"target":{"node":2,"path":"rotation"}},{"sampler":2,"target":{"node":2,"path":"scale"}},{"sampler":3,"target":{"node":0,"path":"translation"}},{"sampler":4,"target":{"node":0,"path":"rotation"}},{"sampler":5,"target":{"node":0,"path":"scale"}},{"sampler":6,"target":{"node":1,"path":"translation"}},{"sampler":7,"target":{"node":1,"path":"rotation"}},{"sampler":8,"target":{"node":1,"path":"scale"}}],"name":"idle","samplers":[{"input":37,"interpolation":"LINEAR","output":38},{"input":37,"interpolation":"LINEAR","output":39},{"input":40,"interpolation":"STEP","output":41},{"input":40,"interpolation":"STEP","output":42},{"input":37,"interpolation":"LINEAR","output":43},{"input":40,"interpolation":"STEP","output":41},{"input":40,"interpolation":"STEP","output":44},{"input":37,"interpolation":"LINEAR","output":45},{"input":40,"interpolation":"STEP","output":41}]},{"channels":[{"sampler":0,"target":{"node":2,"path":"translation"}},{"sampler":1,"target":{"node":2,"path":"rotation"}},{"sampler":2,"target":{"node":2,"path":"scale"}},{"sampler":3,"target":{"node":0,"path":"translation"}},{"sampler":4,"target":{"node":0,"path":"rotation"}},{"sampler":5,"target":{"node":0,"path":"scale"}},{"sampler":6,"target":{"node":1,"path":"translation"}},{"sampler":7,"target":{"node":1,"path":"rotation"}},{"sampler":8,"target":{"node":1,"path":"scale"}}],"name":"walk","samplers":[{"input":46,"interpolation":"LINEAR","output":47},{"input":46,"interpolation":"LINEAR","output":48},{"input":49,"interpolation":"STEP","output":41},{"input":49,"interpolation":"STEP","output":50},{"input":46,"interpolation":"LINEAR","output":51},{"input":49,"interpolation":"STEP","output":41},{"input":49,"interpolation":"STEP","output":44},{"input":46,"interpolation":"LINEAR","output":52},{"input":49,"interpolation":"STEP","output":41}]}],"asset":{"generator":"Khronos glTF Blender I/O v5.2.40","version":"2.0"},"bufferViews":[{"buffer":0,"byteLength":1728,"byteOffset":0,"target":34962},{"buffer":0,"byteLength":1728,"byteOffset":1728,"target":34962},{"buffer":0,"byteLength":1152,"byteOffset":3456,"target":34962},{"buffer":0,"byteLength":576,"byteOffset":4608,"target":34962},{"buffer":0,"byteLength":2304,"byteOffset":5184,"target":34962},{"buffer":0,"byteLength":384,"byteOffset":7488,"target":34963},{"buffer":0,"byteLength":2688,"byteOffset":7872,"target":34962},{"buffer":0,"byteLength":2688,"byteOffset":10560,"target":34962},{"buffer":0,"byteLength":1792,"byteOffset":13248,"target":34962},{"buffer":0,"byteLength":896,"byteOffset":15040,"target":34962},{"buffer":0,"byteLength":3584,"byteOffset":15936,"target":34962},{"buffer":0,"byteLength":588,"byteOffset":19520,"target":34963},{"buffer":0,"byteLength":1248,"byteOffset":20108,"target":34962},{"buffer":0,"byteLength":1248,"byteOffset":21356,"target":34962},{"buffer":0,"byteLength":832,"byteOffset":22604,"target":34962},{"buffer":0,"byteLength":416,"byteOffset":23436,"target":34962},{"buffer":0,"byteLength":1664,"byteOffset":23852,"target":34962},{"buffer":0,"byteLength":264,"byteOffset":25516,"target":34963},{"buffer":0,"byteLength":576,"byteOffset":25780,"target":34962},{"buffer":0,"byteLength":576,"byteOffset":26356,"target":34962},{"buffer":0,"byteLength":384,"byteOffset":26932,"target":34962},{"buffer":0,"byteLength":192,"byteOffset":27316,"target":34962},{"buffer":0,"byteLength":768,"byteOffset":27508,"target":34962},{"buffer":0,"byteLength":168,"byteOffset":28276,"target":34963},{"buffer":0,"byteLength":2088,"byteOffset":28444,"target":34962},{"buffer":0,"byteLength":2088,"byteOffset":30532,"target":34962},{"buffer":0,"byteLength":1392,"byteOffset":32620,"target":34962},{"buffer":0,"byteLength":696,"byteOffset":34012,"target":34962},{"buffer":0,"byteLength":2784,"byteOffset":34708,"target":34962},{"buffer":0,"byteLength":504,"byteOffset":37492,"target":34963},{"buffer":0,"byteLength":288,"byteOffset":37996,"target":34962},{"buffer":0,"byteLength":288,"byteOffset":38284,"target":34962},{"buffer":0,"byteLength":192,"byteOffset":38572,"target":34962},{"buffer":0,"byteLength":96,"byteOffset":38764,"target":34962},{"buffer":0,"byteLength":384,"byteOffset":38860,"target":34962},{"buffer":0,"byteLength":72,"byteOffset":39244,"target":34963},{"buffer":0,"byteLength":192,"byteOffset":39316},{"buffer":0,"byteLength":292,"byteOffset":39508},{"buffer":0,"byteLength":876,"byteOffset":39800},{"buffer":0,"byteLength":1168,"byteOffset":40676},{"buffer":0,"byteLength":8,"byteOffset":41844},{"buffer":0,"byteLength":24,"byteOffset":41852},{"buffer":0,"byteLength":24,"byteOffset":41876},{"buffer":0,"byteLength":1168,"byteOffset":41900},{"buffer":0,"byteLength":24,"byteOffset":43068},{"buffer":0,"byteLength":1168,"byteOffset":43092},{"buffer":0,"byteLength":100,"byteOffset":44260},{"buffer":0,"byteLength":300,"byteOffset":44360},{"buffer":0,"byteLength":400,"byteOffset":44660},{"buffer":0,"byteLength":8,"byteOffset":45060},{"buffer":0,"byteLength":24,"byteOffset":45068},{"buffer":0,"byteLength":400,"byteOffset":45092},{"buffer":0,"byteLength":400,"byteOffset":45492}],"buffers":[{"byteLength":45892,"uri":"duck.bin"}],"materials":[{"doubleSided":true,"name":"Duck_Grey","pbrMetallicRoughness":{"baseColorFactor":[0.550000011920929,0.550000011920929,0.5199999809265137,1],"metallicFactor":0,"roughnessFactor":0.800000011920929}},{"doubleSided":true,"name":"Duck_Brown","pbrMetallicRoughness":{"baseColorFactor":[0.41999998688697815,0.30000001192092896,0.20000000298023224,1],"metallicFactor":0,"roughnessFactor":0.800000011920929}},{"doubleSided":true,"name":"Duck_Dark","pbrMetallicRoughness":{"baseColorFactor":[0.03999999910593033,0.03999999910593033,0.05000000074505806,1],"metallicFactor":0,"roughnessFactor":0.5}},{"doubleSided":true,"name":"Duck_White","pbrMetallicRoughness":{"baseColorFactor":[0.8999999761581421,0.8999999761581421,0.8600000143051147,1],"metallicFactor":0,"roughnessFactor":0.800000011920929}},{"doubleSided":true,"name":"Duck_Green","pbrMetallicRoughness":{"baseColorFactor":[0.029999999329447746,0.2199999988079071,0.07999999821186066,1],"metallicFactor":0,"roughnessFactor":0.4000000059604645}},{"doubleSided":true,"name":"Duck_Bill","pbrMetallicRoughness":{"baseColorFactor":[0.8500000238418579,0.6600000262260437,0.10000000149011612,1],"metallicFactor":0,"roughnessFactor":0.6000000238418579}}],"meshes":[{"name":"Duck","primitives":[{"attributes":{"JOINTS_0":3,"NORMAL":1,"POSITION":0,"TEXCOORD_0":2,"WEIGHTS_0":4},"indices":5,"material":0},{"attributes":{"JOINTS_0":9,"NORMAL":7,"POSITION":6,"TEXCOORD_0":8,"WEIGHTS_0":10},"indices":11,"material":1},{"attributes":{"JOINTS_0":15,"NORMAL":13,"POSITION":12,"TEXCOORD_0":14,"WEIGHTS_0":16},"indices":17,"material":2},{"attributes":{"JOINTS_0":21,"NORMAL":19,"POSITION":18,"TEXCOORD_0":20,"WEIGHTS_0":22},"indices":23,"material":3},{"attributes":{"JOINTS_0":27,"NORMAL":25,"POSITION":24,"TEXCOORD_0":26,"WEIGHTS_0":28},"indices":29,"material":4},{"attributes":{"JOINTS_0":33,"NORMAL":31,"POSITION":30,"TEXCOORD_0":32,"WEIGHTS_0":34},"indices":35,"material":5}]}],"nodes":[{"name":"head","translation":[0,0.10000000149011612,0.17000000178813934]},{"name":"tail","translation":[0,0,-0.20000000298023224]},{"children":[0,1],"name":"body","translation":[0,0.03999999910593033,0]},{"mesh":0,"name":"Duck","skin":0},{"children":[3,2],"name":"Duck_Rig"}],"scene":0,"scenes":[{"name":"Scene","nodes":[4]}],"skins":[{"inverseBindMatrices":36,"joints":[2,0,1],"name":"Duck_Rig"}]}
