{"accessors":[{"bufferView":0,"componentType":5126,"count":652,"max":[0.550000011920929,0.6250382661819458,0.2400401532649994],"min":[-0.550000011920929,0.12200000137090683,-0.2400401532649994],"type":"VEC3"},{"bufferView":1,"componentType":5126,"count":652,"type":"VEC3"},{"bufferView":2,"componentType":5126,"count":652,"type":"VEC2"},{"bufferView":3,"componentType":5121,"count":652,"type":"VEC4"},{"bufferView":4,"componentType":5126,"count":652,"type":"VEC4"},{"bufferView":5,"componentType":5123,"count":888,"type":"SCALAR"},{"bufferView":6,"componentType":5126,"count":414,"max":[0.1141267716884613,0.8339999914169312,0.3096775412559509],"min":[-0.1141267716884613,0.11962836235761642,-0.4929104149341583],"type":"VEC3"},{"bufferView":7,"componentType":5126,"count":414,"type":"VEC3"},{"bufferView":8,"componentType":5126,"count":414,"type":"VEC2"},{"bufferView":9,"componentType":5121,"count":414,"type":"VEC4"},{"bufferView":10,"componentType":5126,"count":414,"type":"VEC4"},{"bufferView":11,"componentType":5123,"count":570,"type":"SCALAR"},{"bufferView":12,"componentType":5126,"count":398,"max":[0.12918952107429504,0.7556034922599792,0.42751574516296387],"min":[-0.12918952107429504,0.0010000010952353477,-0.06499999761581421],"type":"VEC3"},{"bufferView":13,"componentType":5126,"count":398,"type":"VEC3"},{"bufferView":14,"componentType":5126,"count":398,"type":"VEC2"},{"bufferView":15,"componentType":5121,"count":398,"type":"VEC4"},{"bufferView":16,"componentType":5126,"count":398,"type":"VEC4"},{"bufferView":17,"componentType":5123,"count":624,"type":"SCALAR"},{"bufferView":18,"componentType":5126,"count":100,"max":[0.09312006086111069,0.7720000147819519,0.27541384100914],"min":[-0.09312006086111069,0.7279999852180481,0.240947425365448],"type":"VEC3"},{"bufferView":19,"componentType":5126,"count":100,"type":"VEC3"},{"bufferView":20,"componentType":5126,"count":100,"type":"VEC2"},{"bufferView":21,"componentType":5121,"count":100,"type":"VEC4"},{"bufferView":22,"componentType":5126,"count":100,"type":"VEC4"},{"bufferView":23,"componentType":5123,"count":120,"type":"SCALAR"},{"bufferView":24,"componentType":5126,"count":240,"max":[1.002821922302246,0.5450000166893005,0.17599999904632568],"min":[-1.002821922302246,0.4950000047683716,-0.20619478821754456],"type":"VEC3"},{"bufferView":25,"componentType":5126,"count":240,"type":"VEC3"},{"bufferView":26,"componentType":5126,"count":240,"type":"VEC2"},{"bufferView":27,"componentType":5121,"count":240,"type":"VEC4"},{"bufferView":28,"componentType":5126,"count":240,"type":"VEC4"},{"bufferView":29,"componentType":5123,"count":360,"type":"SCALAR"},{"bufferView":30,"componentType":5126,"count":7,"type":"MAT4"},{"bufferView":31,"componentType":5126,"count":25,"max":[1.0416666666666667],"min":[0.041666666666666664],"type":"SCALAR"},{"bufferView":32,"componentType":5126,"count":25,"type":"VEC3"},{"bufferView":33,"componentType":5126,"count":2,"max":[1.0416666666666667],"min":[0.041666666666666664],"type":"SCALAR"},{"bufferView":34,"componentType":5126,"count":2,"type":"VEC4"},{"bufferView":35,"componentType":5126,"count":2,"type":"VEC3"},{"bufferView":36,"componentType":5126,"count":2,"type":"VEC3"},{"bufferView":37,"componentType":5126,"count":2,"type":"VEC4"},{"bufferView":38,"componentType":5126,"count":2,"type":"VEC3"},{"bufferView":39,"componentType":5126,"count":2,"type":"VEC3"},{"bufferView":40,"componentType":5126,"count":25,"type":"VEC4"},{"bufferView":41,"componentType":5126,"count":2,"type":"VEC3"},{"bufferView":42,"componentType":5126,"count":2,"type":"VEC3"},{"bufferView":43,"componentType":5126,"count":25,"type":"VEC4"},{"bufferView":44,"componentType":5126,"count":2,"type":"VEC3"},{"bufferView":45,"componentType":5126,"count":2,"type":"VEC3"},{"bufferView":46,"componentType":5126,"count":25,"type":"VEC4"},{"bufferView":47,"componentType":5126,"count":2,"type":"VEC3"},{"bufferView":48,"componentType":5126,"count":25,"type":"VEC4"},{"bufferView":49,"componentType":5126,"count":2,"type":"VEC3"},{"bufferView":50,"componentType":5126,"count":25,"type":"VEC4"},{"bufferView":51,"componentType":5126,"count":73,"max":[3.0416666666666665],"min":[0.041666666666666664],"type":"SCALAR"},{"bufferView":52,"componentType":5126,"count":73,"type":"VEC3"},{"bufferView":53,"componentType":5126,"count":73,"type":"VEC4"},{"bufferView":54,"componentType":5126,"count":2,"max":[3.0416666666666665],"min":[0.041666666666666664],"type":"SCALAR"},{"bufferView":55,"componentType":5126,"count":2,"type":"VEC3"},{"bufferView":56,"componentType":5126,"count":73,"type":"VEC4"},{"bufferView":57,"componentType":5126,"count":2,"type":"VEC3"},{"bufferView":58,"componentType":5126,"count":73,"type":"VEC4"},{"bufferView":59,"componentType":5126,"count":2,"type":"VEC3"},{"bufferView":60,"componentType":5126,"count":73,"type":"VEC4"},{"bufferView":61,"componentType":5126,"count":2,"type":"VEC3"},{"bufferView":62,"componentType":5126,"count":2,"type":"VEC3"},{"bufferView":63,"componentType":5126,"count":2,"type":"VEC4"},{"bufferView":64,"componentType":5126,"count":2,"type":"VEC3"},{"bufferView":65,"componentType":5126,"count":73,"type":"VEC4"},{"bufferView":66,"componentType":5126,"count":2,"type":"VEC3"},{"bufferView":67,"componentType":5126,"count":2,"type":"VEC4"}],"animations":[{"channels":[{"sampler":0,"target":{"node":6,"path":"translation"}},{"sampler":1,"target":{"node":6,"path":"rotation"}},{"sampler":2,"target":{"node":6,"path":"scale"}},{"sampler":3,"target":{"node":0,"path":"translation"}},{"sampler":4,"target":{"node":0,"path":"rotation"}},{"sampler":5,"target":{"node":0,"path":"scale"}},{"sampler":6,"target":{"node":1,"path":"translation"}},{"sampler":7,"target":{"node":1,"path":"rotation"}},{"sampler":8,"target":{"node":1,"path":"scale"}},{"sampler":9,"target":{"node":3,"path":"translation"}},{"sampler":10,"target":{"node":3,"path":"rotation"}},{"sampler":11,"target":{"node":3,"path":"scale"}},{"sampler":12,"target":{"node":2,"path":"translation"}},{"sampler":13,"target":{"node":2,"path":"rotation"}},{"sampler":14,"target":{"node":2,"path":"scale"}},{"sampler":15,"target":{"node":5,"path":"translation"}},{"sampler":16,"target":{"node":5,"path":"rotation"}},{"sampler":17,"target":{"node":5,"path":"scale"}},{"sampler":18,"target":{"node":4,"path":"translation"}},{"sampler":19,"target":{"node":4,"path":"rotation"}},{"sampler":20,"target":{"node":4,"path":"scale"}}],"name":"flap","samplers":[{"input":31,"interpolation":"LINEAR","output":32},{"input":33,"interpolation":"STEP","output":34},{"input":33,"interpolation":"STEP","output":35},{"input":33,"interpolation":"STEP","output":36},{"input":33,"interpolation":"STEP","output":37},{"input":33,"interpolation":"STEP","output":38},{"input":33,"interpolation":"STEP","output":39},{"input":31,"interpolation":"LINEAR","output":40},{"input":33,"interpolation":"STEP","output":41},{"input":33,"interpolation":"STEP","output":42},{"input":31,"interpolation":"LINEAR","output":43},{"input":33,"interpolation":"STEP","output":44},{"input":33,"interpolation":"STEP","output":45},{"input":31,"interpolation":"LINEAR","output":46},{"input":33,"interpolation":"STEP","output":35},{"input":33,"interpolation":"STEP","output":47},{"input":31,"interpolation":"LINEAR","output":48},{"input":33,"interpolation":"STEP","output":44},{"input":33,"interpolation":"STEP","output":49},{"input":31,"interpolation":"LINEAR","output":50},{"input":33,"interpolation":"STEP","output":35}]},{"channels":[{"sampler":0,"target":{"node":6,"path":"translation"}},{"sampler":1,"target":{"node":6,"path":"rotation"}},{"sampler":2,"target":{"node":6,"path":"scale"}},{"sampler":3,"target":{"node":0,"path":"translation"}},{"sampler":4,"target":{"node":0,"path":"rotation"}},{"sampler":5,"target":{"node":0,"path":"scale"}},{"sampler":6,"target":{"node":1,"path":"translation"}},{"sampler":7,"target":{"node":1,"path":"rotation"}},{"sampler":8,"target":{"node":1,"path":"scale"}},{"sampler":9,"target":{"node":3,"path":"translation"}},{"sampler":10,"target":{"node":3,"path":"rotation"}},{"sampler":11,"target":{"node":3,"path":"scale"}},{"sampler":12,"target":{"node":2,"path":"translation"}},{"sampler":13,"target":{"node":2,"path":"rotation"}},{"sampler":14,"target":{"node":2,"path":"scale"}},{"sampler":15,"target":{"node":5,"path":"translation"}},{"sampler":16,"target":{"node":5,"path":"rotation"}},{"sampler":17,"target":{"node":5,"path":"scale"}},{"sampler":18,"target":{"node":4,"path":"translation"}},{"sampler":19,"target":{"node":4,"path":"rotation"}},{"sampler":20,"target":{"node":4,"path":"scale"}}],"name":"idle","samplers":[{"input":51,"interpolation":"LINEAR","output":52},{"input":51,"interpolation":"LINEAR","output":53},{"input":54,"interpolation":"STEP","output":35},{"input":54,"interpolation":"STEP","output":55},{"input":51,"interpolation":"LINEAR","output":56},{"input":54,"interpolation":"STEP","output":35},{"input":54,"interpolation":"STEP","output":57},{"input":51,"interpolation":"LINEAR","output":58},{"input":54,"interpolation":"STEP","output":35},{"input":54,"interpolation":"STEP","output":59},{"input":51,"interpolation":"LINEAR","output":60},{"input":54,"interpolation":"STEP","output":61},{"input":54,"interpolation":"STEP","output":62},{"input":54,"interpolation":"STEP","output":63},{"input":54,"interpolation":"STEP","output":35},{"input":54,"interpolation":"STEP","output":64},{"input":51,"interpolation":"LINEAR","output":65},{"input":54,"interpolation":"STEP","output":61},{"input":54,"interpolation":"STEP","output":66},{"input":54,"interpolation":"STEP","output":67},{"input":54,"interpolation":"STEP","output":35}]}],"asset":{"generator":"Khronos glTF Blender I/O v5.2.40","version":"2.0"},"bufferViews":[{"buffer":0,"byteLength":7824,"byteOffset":0,"target":34962},{"buffer":0,"byteLength":7824,"byteOffset":7824,"target":34962},{"buffer":0,"byteLength":5216,"byteOffset":15648,"target":34962},{"buffer":0,"byteLength":2608,"byteOffset":20864,"target":34962},{"buffer":0,"byteLength":10432,"byteOffset":23472,"target":34962},{"buffer":0,"byteLength":1776,"byteOffset":33904,"target":34963},{"buffer":0,"byteLength":4968,"byteOffset":35680,"target":34962},{"buffer":0,"byteLength":4968,"byteOffset":40648,"target":34962},{"buffer":0,"byteLength":3312,"byteOffset":45616,"target":34962},{"buffer":0,"byteLength":1656,"byteOffset":48928,"target":34962},{"buffer":0,"byteLength":6624,"byteOffset":50584,"target":34962},{"buffer":0,"byteLength":1140,"byteOffset":57208,"target":34963},{"buffer":0,"byteLength":4776,"byteOffset":58348,"target":34962},{"buffer":0,"byteLength":4776,"byteOffset":63124,"target":34962},{"buffer":0,"byteLength":3184,"byteOffset":67900,"target":34962},{"buffer":0,"byteLength":1592,"byteOffset":71084,"target":34962},{"buffer":0,"byteLength":6368,"byteOffset":72676,"target":34962},{"buffer":0,"byteLength":1248,"byteOffset":79044,"target":34963},{"buffer":0,"byteLength":1200,"byteOffset":80292,"target":34962},{"buffer":0,"byteLength":1200,"byteOffset":81492,"target":34962},{"buffer":0,"byteLength":800,"byteOffset":82692,"target":34962},{"buffer":0,"byteLength":400,"byteOffset":83492,"target":34962},{"buffer":0,"byteLength":1600,"byteOffset":83892,"target":34962},{"buffer":0,"byteLength":240,"byteOffset":85492,"target":34963},{"buffer":0,"byteLength":2880,"byteOffset":85732,"target":34962},{"buffer":0,"byteLength":2880,"byteOffset":88612,"target":34962},{"buffer":0,"byteLength":1920,"byteOffset":91492,"target":34962},{"buffer":0,"byteLength":960,"byteOffset":93412,"target":34962},{"buffer":0,"byteLength":3840,"byteOffset":94372,"target":34962},{"buffer":0,"byteLength":720,"byteOffset":98212,"target":34963},{"buffer":0,"byteLength":448,"byteOffset":98932},{"buffer":0,"byteLength":100,"byteOffset":99380},{"buffer":0,"byteLength":300,"byteOffset":99480},{"buffer":0,"byteLength":8,"byteOffset":99780},{"buffer":0,"byteLength":32,"byteOffset":99788},{"buffer":0,"byteLength":24,"byteOffset":99820},{"buffer":0,"byteLength":24,"byteOffset":99844},{"buffer":0,"byteLength":32,"byteOffset":99868},{"buffer":0,"byteLength":24,"byteOffset":99900},{"buffer":0,"byteLength":24,"byteOffset":99924},{"buffer":0,"byteLength":400,"byteOffset":99948},{"buffer":0,"byteLength":24,"byteOffset":100348},{"buffer":0,"byteLength":24,"byteOffset":100372},{"buffer":0,"byteLength":400,"byteOffset":100396},{"buffer":0,"byteLength":24,"byteOffset":100796},{"buffer":0,"byteLength":24,"byteOffset":100820},{"buffer":0,"byteLength":400,"byteOffset":100844},{"buffer":0,"byteLength":24,"byteOffset":101244},{"buffer":0,"byteLength":400,"byteOffset":101268},{"buffer":0,"byteLength":24,"byteOffset":101668},{"buffer":0,"byteLength":400,"byteOffset":101692},{"buffer":0,"byteLength":292,"byteOffset":102092},{"buffer":0,"byteLength":876,"byteOffset":102384},{"buffer":0,"byteLength":1168,"byteOffset":103260},{"buffer":0,"byteLength":8,"byteOffset":104428},{"buffer":0,"byteLength":24,"byteOffset":104436},{"buffer":0,"byteLength":1168,"byteOffset":104460},{"buffer":0,"byteLength":24,"byteOffset":105628},{"buffer":0,"byteLength":1168,"byteOffset":105652},{"buffer":0,"byteLength":24,"byteOffset":106820},{"buffer":0,"byteLength":1168,"byteOffset":106844},{"buffer":0,"byteLength":24,"byteOffset":108012},{"buffer":0,"byteLength":24,"byteOffset":108036},{"buffer":0,"byteLength":32,"byteOffset":108060},{"buffer":0,"byteLength":24,"byteOffset":108092},{"buffer":0,"byteLength":1168,"byteOffset":108116},{"buffer":0,"byteLength":24,"byteOffset":109284},{"buffer":0,"byteLength":32,"byteOffset":109308}],"buffers":[{"byteLength":109340,"uri":"eagle.bin"}],"materials":[{"doubleSided":true,"name":"Eagle_Brown","pbrMetallicRoughness":{"baseColorFactor":[0.30000001192092896,0.18000000715255737,0.09000000357627869,1],"metallicFactor":0,"roughnessFactor":0.8999999761581421}},{"doubleSided":true,"name":"Eagle_White","pbrMetallicRoughness":{"baseColorFactor":[0.9200000166893005,0.8999999761581421,0.8399999737739563,1],"metallicFactor":0,"roughnessFactor":0.8999999761581421}},{"doubleSided":true,"name":"Eagle_Yellow","pbrMetallicRoughness":{"baseColorFactor":[0.949999988079071,0.6800000071525574,0.11999999731779099,1],"metallicFactor":0,"roughnessFactor":0.6000000238418579}},{"doubleSided":true,"name":"Eagle_Eye","pbrMetallicRoughness":{"baseColorFactor":[0.03999999910593033,0.029999999329447746,0.019999999552965164,1],"metallicFactor":0,"roughnessFactor":0.4000000059604645}},{"doubleSided":true,"name":"Eagle_Feather","pbrMetallicRoughness":{"baseColorFactor":[0.20000000298023224,0.11999999731779099,0.05999999865889549,1],"metallicFactor":0,"roughnessFactor":0.8999999761581421}}],"meshes":[{"name":"Eagle","primitives":[{"attributes":{"JOINTS_0":3,"NORMAL":1,"POSITION":0,"TEXCOORD_0":2,"WEIGHTS_0":4},"indices":5,"material":0},{"attributes":{"JOINTS_0":9,"NORMAL":7,"POSITION":6,"TEXCOORD_0":8,"WEIGHTS_0":10},"indices":11,"material":1},{"attributes":{"JOINTS_0":15,"NORMAL":13,"POSITION":12,"TEXCOORD_0":14,"WEIGHTS_0":16},"indices":17,"material":2},{"attributes":{"JOINTS_0":21,"NORMAL":19,"POSITION":18,"TEXCOORD_0":20,"WEIGHTS_0":22},"indices":23,"material":3},{"attributes":{"JOINTS_0":27,"NORMAL":25,"POSITION":24,"TEXCOORD_0":26,"WEIGHTS_0":28},"indices":29,"material":4}]}],"nodes":[{"name":"head","translation":[0,0.14000001549720764,0.11999999731779099]},{"name":"tail","translation":[0,-0.1199999749660492,-0.2199999988079071]},{"name":"tip_L","translation":[0.42000001668930054,0,0]},{"children":[2],"name":"wing_L","translation":[0.12999999523162842,0.09999999403953552,0.05000000074505806]},{"name":"tip_R","translation":[-0.42000001668930054,0,0]},{"children":[4],"name":"wing_R","translation":[-0.12999999523162842,0.09999999403953552,0.05000000074505806]},{"children":[0,1,3,5],"name":"body","translation":[0,0.41999998688697815,0]},{"mesh":0,"name":"Eagle","skin":0},{"children":[7,6],"name":"Eagle_Rig"}],"scene":0,"scenes":[{"name":"Scene","nodes":[8]}],"skins":[{"inverseBindMatrices":30,"joints":[6,0,1,3,2,5,4],"name":"Eagle_Rig"}]}
