{"accessors":[{"bufferView":0,"componentType":5126,"count":606,"max":[0.09895799309015274,0.0858612135052681,0.09210675209760666],"min":[-0.09894710034132004,0.0006038903957232833,-0.09153933823108673],"type":"VEC3"},{"bufferView":1,"componentType":5126,"count":606,"type":"VEC3"},{"bufferView":2,"componentType":5121,"count":606,"type":"VEC4"},{"bufferView":3,"componentType":5126,"count":606,"type":"VEC4"},{"bufferView":4,"componentType":5123,"count":1830,"type":"SCALAR"},{"bufferView":5,"componentType":5126,"count":28,"max":[0.030573518946766853,0.05806418135762215,0.08880610018968582],"min":[-0.030602026730775833,0.01623230241239071,-0.07968847453594208],"type":"VEC3"},{"bufferView":6,"componentType":5126,"count":28,"type":"VEC3"},{"bufferView":7,"componentType":5121,"count":28,"type":"VEC4"},{"bufferView":8,"componentType":5126,"count":28,"type":"VEC4"},{"bufferView":9,"componentType":5123,"count":84,"type":"SCALAR"},{"bufferView":10,"componentType":5126,"count":32,"max":[0.02921709604561329,0.08354108780622482,0.06349185109138489],"min":[-0.027230890467762947,0.06516169756650925,0.04374997690320015],"type":"VEC3"},{"bufferView":11,"componentType":5126,"count":32,"type":"VEC3"},{"bufferView":12,"componentType":5121,"count":32,"type":"VEC4"},{"bufferView":13,"componentType":5126,"count":32,"type":"VEC4"},{"bufferView":14,"componentType":5123,"count":144,"type":"SCALAR"},{"bufferView":15,"componentType":5126,"count":41,"type":"MAT4"},{"bufferView":16,"componentType":5126,"count":2,"max":[2.5416666666666665],"min":[0.041666666666666664],"type":"SCALAR"},{"bufferView":17,"componentType":5126,"count":2,"type":"VEC3"},{"bufferView":18,"componentType":5126,"count":2,"type":"VEC4"},{"bufferView":19,"componentType":5126,"count":2,"type":"VEC3"},{"bufferView":20,"componentType":5126,"count":2,"type":"VEC3"},{"bufferView":21,"componentType":5126,"count":2,"type":"VEC4"},{"bufferView":22,"componentType":5126,"count":2,"type":"VEC3"},{"bufferView":23,"componentType":5126,"count":2,"type":"VEC3"},{"bufferView":24,"componentType":5126,"count":2,"type":"VEC4"},{"bufferView":25,"componentType":5126,"count":2,"type":"VEC3"},{"bufferView":26,"componentType":5126,"count":2,"type":"VEC4"},{"bufferView":27,"componentType":5126,"count":2,"type":"VEC3"},{"bufferView":28,"componentType":5126,"count":2,"type":"VEC3"},{"bufferView":29,"componentType":5126,"count":2,"type":"VEC4"},{"bufferView":30,"componentType":5126,"count":61,"max":[2.5416666666666665],"min":[0.041666666666666664],"type":"SCALAR"},{"bufferView":31,"componentType":5126,"count":61,"type":"VEC3"},{"bufferView":32,"componentType":5126,"count":2,"type":"VEC4"},{"bufferView":33,"componentType":5126,"count":2,"type":"VEC3"},{"bufferView":34,"componentType":5126,"count":2,"type":"VEC4"},{"bufferView":35,"componentType":5126,"count":2,"type":"VEC3"},{"bufferView":36,"componentType":5126,"count":2,"type":"VEC3"},{"bufferView":37,"componentType":5126,"count":2,"type":"VEC4"},{"bufferView":38,"componentType":5126,"count":2,"type":"VEC3"},{"bufferView":39,"componentType":5126,"count":61,"type":"VEC4"},{"bufferView":40,"componentType":5126,"count":2,"type":"VEC3"},{"bufferView":41,"componentType":5126,"count":2,"type":"VEC3"},{"bufferView":42,"componentType":5126,"count":61,"type":"VEC4"},{"bufferView":43,"componentType":5126,"count":2,"type":"VEC3"},{"bufferView":44,"componentType":5126,"count":2,"type":"VEC3"},{"bufferView":45,"componentType":5126,"count":61,"type":"VEC4"},{"bufferView":46,"componentType":5126,"count":2,"type":"VEC3"},{"bufferView":47,"componentType":5126,"count":2,"type":"VEC3"},{"bufferView":48,"componentType":5126,"count":61,"type":"VEC4"},{"bufferView":49,"componentType":5126,"count":2,"type":"VEC3"},{"bufferView":50,"componentType":5126,"count":2,"type":"VEC3"},{"bufferView":51,"componentType":5126,"count":2,"type":"VEC4"},{"bufferView":52,"componentType":5126,"count":2,"type":"VEC3"},{"bufferView":53,"componentType":5126,"count":2,"type":"VEC3"},{"bufferView":54,"componentType":5126,"count":61,"type":"VEC4"},{"bufferView":55,"componentType":5126,"count":2,"type":"VEC3"},{"bufferView":56,"componentType":5126,"count":2,"type":"VEC3"},{"bufferView":57,"componentType":5126,"count":61,"type":"VEC4"},{"bufferView":58,"componentType":5126,"count":2,"type":"VEC3"},{"bufferView":59,"componentType":5126,"count":2,"type":"VEC3"},{"bufferView":60,"componentType":5126,"count":61,"type":"VEC4"},{"bufferView":61,"componentType":5126,"count":2,"type":"VEC3"},{"bufferView":62,"componentType":5126,"count":61,"type":"VEC4"},{"bufferView":63,"componentType":5126,"count":2,"type":"VEC3"},{"bufferView":64,"componentType":5126,"count":2,"type":"VEC3"},{"bufferView":65,"componentType":5126,"count":2,"type":"VEC4"},{"bufferView":66,"componentType":5126,"count":2,"type":"VEC3"},{"bufferView":67,"componentType":5126,"count":61,"type":"VEC4"},{"bufferView":68,"componentType":5126,"count":2,"type":"VEC3"},{"bufferView":69,"componentType":5126,"count":2,"type":"VEC3"},{"bufferView":70,"componentType":5126,"count":61,"type":"VEC4"},{"bufferView":71,"componentType":5126,"count":2,"type":"VEC3"},{"bufferView":72,"componentType":5126,"count":2,"type":"VEC3"},{"bufferView":73,"componentType":5126,"count":61,"type":"VEC4"},{"bufferView":74,"componentType":5126,"count":2,"type":"VEC3"},{"bufferView":75,"componentType":5126,"count":2,"type":"VEC3"},{"bufferView":76,"componentType":5126,"count":2,"type":"VEC4"},{"bufferView":77,"componentType":5126,"count":2,"type":"VEC3"},{"bufferView":78,"componentType":5126,"count":61,"type":"VEC4"},{"bufferView":79,"componentType":5126,"count":2,"type":"VEC3"},{"bufferView":80,"componentType":5126,"count":61,"type":"VEC4"},{"bufferView":81,"componentType":5126,"count":2,"type":"VEC3"},{"bufferView":82,"componentType":5126,"count":2,"type":"VEC3"},{"bufferView":83,"componentType":5126,"count":61,"type":"VEC4"},{"bufferView":84,"componentType":5126,"count":2,"type":"VEC3"},{"bufferView":85,"componentType":5126,"count":2,"type":"VEC3"},{"bufferView":86,"componentType":5126,"count":2,"type":"VEC4"},{"bufferView":87,"componentType":5126,"count":2,"type":"VEC3"},{"bufferView":88,"componentType":5126,"count":2,"type":"VEC3"},{"bufferView":89,"componentType":5126,"count":2,"type":"VEC4"},{"bufferView":90,"componentType":5126,"count":2,"type":"VEC3"},{"bufferView":91,"componentType":5126,"count":2,"type":"VEC3"},{"bufferView":92,"componentType":5126,"count":2,"type":"VEC4"},{"bufferView":93,"componentType":5126,"count":2,"type":"VEC3"},{"bufferView":94,"componentType":5126,"count":2,"type":"VEC3"},{"bufferView":95,"componentType":5126,"count":2,"type":"VEC4"},{"bufferView":96,"componentType":5126,"count":2,"type":"VEC3"},{"bufferView":97,"componentType":5126,"count":2,"type":"VEC4"},{"bufferView":98,"componentType":5126,"count":2,"type":"VEC3"},{"bufferView":99,"componentType":5126,"count":2,"type":"VEC4"},{"bufferView":100,"componentType":5126,"count":2,"type":"VEC3"},{"bufferView":101,"componentType":5126,"count":2,"type":"VEC3"},{"bufferView":102,"componentType":5126,"count":2,"type":"VEC4"},{"bufferView":103,"componentType":5126,"count":2,"type":"VEC3"},{"bufferView":104,"componentType":5126,"count":2,"type":"VEC3"},{"bufferView":105,"componentType":5126,"count":61,"type":"VEC4"},{"bufferView":106,"componentType":5126,"count":2,"type":"VEC3"},{"bufferView":107,"componentType":5126,"count":2,"type":"VEC3"},{"bufferView":108,"componentType":5126,"count":61,"type":"VEC4"},{"bufferView":109,"componentType":5126,"count":2,"type":"VEC3"},{"bufferView":110,"componentType":5126,"count":2,"type":"VEC3"},{"bufferView":111,"componentType":5126,"count":2,"type":"VEC4"},{"bufferView":112,"componentType":5126,"count":2,"type":"VEC3"},{"bufferView":113,"componentType":5126,"count":61,"type":"VEC3"},{"bufferView":114,"componentType":5126,"count":2,"type":"VEC4"},{"bufferView":115,"componentType":5126,"count":2,"type":"VEC3"},{"bufferView":116,"componentType":5126,"count":2,"type":"VEC4"},{"bufferView":117,"componentType":5126,"count":61,"type":"VEC3"},{"bufferView":118,"componentType":5126,"count":2,"type":"VEC4"},{"bufferView":119,"componentType":5126,"count":2,"type":"VEC3"},{"bufferView":120,"componentType":5126,"count":2,"type":"VEC4"},{"bufferView":121,"componentType":5126,"count":2,"max":[0.9166666666666666],"min":[0.041666666666666664],"type":"SCALAR"},{"bufferView":122,"componentType":5126,"count":22,"max":[0.9166666666666666],"min":[0.041666666666666664],"type":"SCALAR"},{"bufferView":123,"componentType":5126,"count":22,"type":"VEC3"},{"bufferView":124,"componentType":5126,"count":22,"type":"VEC4"},{"bufferView":125,"componentType":5126,"count":22,"type":"VEC3"},{"bufferView":126,"componentType":5126,"count":22,"type":"VEC4"},{"bufferView":127,"componentType":5126,"count":22,"type":"VEC3"},{"bufferView":128,"componentType":5126,"count":22,"type":"VEC4"},{"bufferView":129,"componentType":5126,"count":22,"type":"VEC4"},{"bufferView":130,"componentType":5126,"count":22,"type":"VEC4"},{"bufferView":131,"componentType":5126,"count":2,"type":"VEC3"},{"bufferView":132,"componentType":5126,"count":2,"type":"VEC3"},{"bufferView":133,"componentType":5126,"count":22,"type":"VEC4"},{"bufferView":134,"componentType":5126,"count":2,"type":"VEC3"},{"bufferView":135,"componentType":5126,"count":2,"type":"VEC3"},{"bufferView":136,"componentType":5126,"count":2,"type":"VEC4"},{"bufferView":137,"componentType":5126,"count":22,"type":"VEC4"},{"bufferView":138,"componentType":5126,"count":2,"type":"VEC3"},{"bufferView":139,"componentType":5126,"count":2,"type":"VEC3"},{"bufferView":140,"componentType":5126,"count":22,"type":"VEC4"},{"bufferView":141,"componentType":5126,"count":2,"type":"VEC3"},{"bufferView":142,"componentType":5126,"count":22,"type":"VEC4"},{"bufferView":143,"componentType":5126,"count":2,"type":"VEC3"},{"bufferView":144,"componentType":5126,"count":22,"type":"VEC4"},{"bufferView":145,"componentType":5126,"count":2,"type":"VEC3"},{"bufferView":146,"componentType":5126,"count":2,"type":"VEC3"},{"bufferView":147,"componentType":5126,"count":2,"type":"VEC4"},{"bufferView":148,"componentType":5126,"count":2,"type":"VEC3"},{"bufferView":149,"componentType":5126,"count":22,"type":"VEC4"},{"bufferView":150,"componentType":5126,"count":22,"type":"VEC4"},{"bufferView":151,"componentType":5126,"count":22,"type":"VEC4"},{"bufferView":152,"componentType":5126,"count":22,"type":"VEC4"},{"bufferView":153,"componentType":5126,"count":22,"type":"VEC4"},{"bufferView":154,"componentType":5126,"count":22,"type":"VEC4"},{"bufferView":155,"componentType":5126,"count":22,"type":"VEC4"},{"bufferView":156,"componentType":5126,"count":2,"type":"VEC4"},{"bufferView":157,"componentType":5126,"count":2,"type":"VEC3"},{"bufferView":158,"componentType":5126,"count":22,"type":"VEC4"},{"bufferView":159,"componentType":5126,"count":2,"type":"VEC3"},{"bufferView":160,"componentType":5126,"count":2,"type":"VEC4"},{"bufferView":161,"componentType":5126,"count":22,"type":"VEC3"},{"bufferView":162,"componentType":5126,"count":22,"type":"VEC3"}],"animations":[{"channels":[{"sampler":0,"target":{"node":40,"path":"translation"}},{"sampler":1,"target":{"node":40,"path":"rotation"}},{"sampler":2,"target":{"node":40,"path":"scale"}},{"sampler":3,"target":{"node":1,"path":"translation"}},{"sampler":4,"target":{"node":1,"path":"rotation"}},{"sampler":5,"target":{"node":1,"path":"scale"}},{"sampler":6,"target":{"node":0,"path":"translation"}},{"sampler":7,"target":{"node":0,"path":"rotation"}},{"sampler":8,"target":{"node":0,"path":"scale"}},{"sampler":9,"target":{"node":3,"path":"translation"}},{"sampler":10,"target":{"node":3,"path":"rotation"}},{"sampler":11,"target":{"node":3,"path":"scale"}},{"sampler":12,"target":{"node":2,"path":"translation"}},{"sampler":13,"target":{"node":2,"path":"rotation"}},{"sampler":14,"target":{"node":2,"path":"scale"}},{"sampler":15,"target":{"node":35,"path":"translation"}},{"sampler":16,"target":{"node":35,"path":"rotation"}},{"sampler":17,"target":{"node":35,"path":"scale"}},{"sampler":18,"target":{"node":5,"path":"translation"}},{"sampler":19,"target":{"node":5,"path":"rotation"}},{"sampler":20,"target":{"node":5,"path":"scale"}},{"sampler":21,"target":{"node":4,"path":"translation"}},{"sampler":22,"target":{"node":4,"path":"rotation"}},{"sampler":23,"target":{"node":4,"path":"scale"}},{"sampler":24,"target":{"node":10,"path":"translation"}},{"sampler":25,"target":{"node":10,"path":"rotation"}},{"sampler":26,"target":{"node":10,"path":"scale"}},{"sampler":27,"target":{"node":9,"path":"translation"}},{"sampler":28,"target":{"node":9,"path":"rotation"}},{"sampler":29,"target":{"node":9,"path":"scale"}},{"sampler":30,"target":{"node":8,"path":"translation"}},{"sampler":31,"target":{"node":8,"path":"rotation"}},{"sampler":32,"target":{"node":8,"path":"scale"}},{"sampler":33,"target":{"node":7,"path":"translation"}},{"sampler":34,"target":{"node":7,"path":"rotation"}},{"sampler":35,"target":{"node":7,"path":"scale"}},{"sampler":36,"target":{"node":6,"path":"translation"}},{"sampler":37,"target":{"node":6,"path":"rotation"}},{"sampler":38,"target":{"node":6,"path":"scale"}},{"sampler":39,"target":{"node":15,"path":"translation"}},{"sampler":40,"target":{"node":15,"path":"rotation"}},{"sampler":41,"target":{"node":15,"path":"scale"}},{"sampler":42,"target":{"node":14,"path":"translation"}},{"sampler":43,"target":{"node":14,"path":"rotation"}},{"sampler":44,"target":{"node":14,"path":"scale"}},{"sampler":45,"target":{"node":13,"path":"translation"}},{"sampler":46,"target":{"node":13,"path":"rotation"}},{"sampler":47,"target":{"node":13,"path":"scale"}},{"sampler":48,"target":{"node":12,"path":"translation"}},{"sampler":49,"target":{"node":12,"path":"rotation"}},{"sampler":50,"target":{"node":12,"path":"scale"}},{"sampler":51,"target":{"node":11,"path":"translation"}},{"sampler":52,"target":{"node":11,"path":"rotation"}},{"sampler":53,"target":{"node":11,"path":"scale"}},{"sampler":54,"target":{"node":19,"path":"translation"}},{"sampler":55,"target":{"node":19,"path":"rotation"}},{"sampler":56,"target":{"node":19,"path":"scale"}},{"sampler":57,"target":{"node":18,"path":"translation"}},{"sampler":58,"target":{"node":18,"path":"rotation"}},{"sampler":59,"target":{"node":18,"path":"scale"}},{"sampler":60,"target":{"node":17,"path":"translation"}},{"sampler":61,"target":{"node":17,"path":"rotation"}},{"sampler":62,"target":{"node":17,"path":"scale"}},{"sampler":63,"target":{"node":16,"path":"translation"}},{"sampler":64,"target":{"node":16,"path":"rotation"}},{"sampler":65,"target":{"node":16,"path":"scale"}},{"sampler":66,"target":{"node":23,"path":"translation"}},{"sampler":67,"target":{"node":23,"path":"rotation"}},{"sampler":68,"target":{"node":23,"path":"scale"}},{"sampler":69,"target":{"node":22,"path":"translation"}},{"sampler":70,"target":{"node":22,"path":"rotation"}},{"sampler":71,"target":{"node":22,"path":"scale"}},{"sampler":72,"target":{"node":21,"path":"translation"}},{"sampler":73,"target":{"node":21,"path":"rotation"}},{"sampler":74,"target":{"node":21,"path":"scale"}},{"sampler":75,"target":{"node":20,"path":"translation"}},{"sampler":76,"target":{"node":20,"path":"rotation"}},{"sampler":77,"target":{"node":20,"path":"scale"}},{"sampler":78,"target":{"node":26,"path":"translation"}},{"sampler":79,"target":{"node":26,"path":"rotation"}},{"sampler":80,"target":{"node":26,"path":"scale"}},{"sampler":81,"target":{"node":25,"path":"translation"}},{"sampler":82,"target":{"node":25,"path":"rotation"}},{"sampler":83,"target":{"node":25,"path":"scale"}},{"sampler":84,"target":{"node":24,"path":"translation"}},{"sampler":85,"target":{"node":24,"path":"rotation"}},{"sampler":86,"target":{"node":24,"path":"scale"}},{"sampler":87,"target":{"node":28,"path":"translation"}},{"sampler":88,"target":{"node":28,"path":"rotation"}},{"sampler":89,"target":{"node":28,"path":"scale"}},{"sampler":90,"target":{"node":27,"path":"translation"}},{"sampler":91,"target":{"node":27,"path":"rotation"}},{"sampler":92,"target":{"node":27,"path":"scale"}},{"sampler":93,"target":{"node":30,"path":"translation"}},{"sampler":94,"target":{"node":30,"path":"rotation"}},{"sampler":95,"target":{"node":30,"path":"scale"}},{"sampler":96,"target":{"node":29,"path":"translation"}},{"sampler":97,"target":{"node":29,"path":"rotation"}},{"sampler":98,"target":{"node":29,"path":"scale"}},{"sampler":99,"target":{"node":34,"path":"translation"}},{"sampler":100,"target":{"node":34,"path":"rotation"}},{"sampler":101,"target":{"node":34,"path":"scale"}},{"sampler":102,"target":{"node":33,"path":"translation"}},{"sampler":103,"target":{"node":33,"path":"rotation"}},{"sampler":104,"target":{"node":33,"path":"scale"}},{"sampler":105,"target":{"node":32,"path":"translation"}},{"sampler":106,"target":{"node":32,"path":"rotation"}},{"sampler":107,"target":{"node":32,"path":"scale"}},{"sampler":108,"target":{"node":31,"path":"translation"}},{"sampler":109,"target":{"node":31,"path":"rotation"}},{"sampler":110,"target":{"node":31,"path":"scale"}},{"sampler":111,"target":{"node":37,"path":"translation"}},{"sampler":112,"target":{"node":37,"path":"rotation"}},{"sampler":113,"target":{"node":37,"path":"scale"}},{"sampler":114,"target":{"node":36,"path":"translation"}},{"sampler":115,"target":{"node":36,"path":"rotation"}},{"sampler":116,"target":{"node":36,"path":"scale"}},{"sampler":117,"target":{"node":39,"path":"translation"}},{"sampler":118,"target":{"node":39,"path":"rotation"}},{"sampler":119,"target":{"node":39,"path":"scale"}},{"sampler":120,"target":{"node":38,"path":"translation"}},{"sampler":121,"target":{"node":38,"path":"rotation"}},{"sampler":122,"target":{"node":38,"path":"scale"}}],"name":"idle","samplers":[{"input":16,"interpolation":"STEP","output":17},{"input":16,"interpolation":"STEP","output":18},{"input":16,"interpolation":"STEP","output":19},{"input":16,"interpolation":"STEP","output":20},{"input":16,"interpolation":"STEP","output":21},{"input":16,"interpolation":"STEP","output":22},{"input":16,"interpolation":"STEP","output":23},{"input":16,"interpolation":"STEP","output":24},{"input":16,"interpolation":"STEP","output":19},{"input":16,"interpolation":"STEP","output":25},{"input":16,"interpolation":"STEP","output":26},{"input":16,"interpolation":"STEP","output":27},{"input":16,"interpolation":"STEP","output":28},{"input":16,"interpolation":"STEP","output":29},{"input":16,"interpolation":"STEP","output":19},{"input":30,"interpolation":"LINEAR","output":31},{"input":16,"interpolation":"STEP","output":32},{"input":16,"interpolation":"STEP","output":19},{"input":16,"interpolation":"STEP","output":33},{"input":16,"interpolation":"STEP","output":34},{"input":16,"interpolation":"STEP","output":35},{"input":16,"interpolation":"STEP","output":36},{"input":16,"interpolation":"STEP","output":37},{"input":16,"interpolation":"STEP","output":19},{"input":16,"interpolation":"STEP","output":38},{"input":30,"interpolation":"LINEAR","output":39},{"input":16,"interpolation":"STEP","output":40},{"input":16,"interpolation":"STEP","output":41},{"input":30,"interpolation":"LINEAR","output":42},{"input":16,"interpolation":"STEP","output":43},{"input":16,"interpolation":"STEP","output":44},{"input":30,"interpolation":"LINEAR","output":45},{"input":16,"interpolation":"STEP","output":46},{"input":16,"interpolation":"STEP","output":47},{"input":30,"interpolation":"LINEAR","output":48},{"input":16,"interpolation":"STEP","output":49},{"input":16,"interpolation":"STEP","output":50},{"input":16,"interpolation":"STEP","output":51},{"input":16,"interpolation":"STEP","output":52},{"input":16,"interpolation":"STEP","output":53},{"input":30,"interpolation":"LINEAR","output":54},{"input":16,"interpolation":"STEP","output":55},{"input":16,"interpolation":"STEP","output":56},{"input":30,"interpolation":"LINEAR","output":57},{"input":16,"interpolation":"STEP","output":58},{"input":16,"interpolation":"STEP","output":59},{"input":30,"interpolation":"LINEAR","output":60},{"input":16,"interpolation":"STEP","output":52},{"input":16,"interpolation":"STEP","output":61},{"input":30,"interpolation":"LINEAR","output":62},{"input":16,"interpolation":"STEP","output":63},{"input":16,"interpolation":"STEP","output":64},{"input":16,"interpolation":"STEP","output":65},{"input":16,"interpolation":"STEP","output":52},{"input":16,"interpolation":"STEP","output":66},{"input":30,"interpolation":"LINEAR","output":67},{"input":16,"interpolation":"STEP","output":68},{"input":16,"interpolation":"STEP","output":69},{"input":30,"interpolation":"LINEAR","output":70},{"input":16,"interpolation":"STEP","output":71},{"input":16,"interpolation":"STEP","output":72},{"input":30,"interpolation":"LINEAR","output":73},{"input":16,"interpolation":"STEP","output":74},{"input":16,"interpolation":"STEP","output":75},{"input":16,"interpolation":"STEP","output":76},{"input":16,"interpolation":"STEP","output":19},{"input":16,"interpolation":"STEP","output":77},{"input":30,"interpolation":"LINEAR","output":78},{"input":16,"interpolation":"STEP","output":52},{"input":16,"interpolation":"STEP","output":79},{"input":30,"interpolation":"LINEAR","output":80},{"input":16,"interpolation":"STEP","output":81},{"input":16,"interpolation":"STEP","output":82},{"input":30,"interpolation":"LINEAR","output":83},{"input":16,"interpolation":"STEP","output":84},{"input":16,"interpolation":"STEP","output":85},{"input":16,"interpolation":"STEP","output":86},{"input":16,"interpolation":"STEP","output":87},{"input":16,"interpolation":"STEP","output":88},{"input":16,"interpolation":"STEP","output":89},{"input":16,"interpolation":"STEP","output":90},{"input":16,"interpolation":"STEP","output":91},{"input":16,"interpolation":"STEP","output":92},{"input":16,"interpolation":"STEP","output":93},{"input":16,"interpolation":"STEP","output":94},{"input":16,"interpolation":"STEP","output":95},{"input":16,"interpolation":"STEP","output":35},{"input":16,"interpolation":"STEP","output":96},{"input":16,"interpolation":"STEP","output":97},{"input":16,"interpolation":"STEP","output":19},{"input":16,"interpolation":"STEP","output":98},{"input":16,"interpolation":"STEP","output":99},{"input":16,"interpolation":"STEP","output":19},{"input":16,"interpolation":"STEP","output":100},{"input":16,"interpolation":"STEP","output":97},{"input":16,"interpolation":"STEP","output":19},{"input":16,"interpolation":"STEP","output":98},{"input":16,"interpolation":"STEP","output":99},{"input":16,"interpolation":"STEP","output":19},{"input":16,"interpolation":"STEP","output":101},{"input":16,"interpolation":"STEP","output":102},{"input":16,"interpolation":"STEP","output":103},{"input":16,"interpolation":"STEP","output":104},{"input":30,"interpolation":"LINEAR","output":105},{"input":16,"interpolation":"STEP","output":106},{"input":16,"interpolation":"STEP","output":107},{"input":30,"interpolation":"LINEAR","output":108},{"input":16,"interpolation":"STEP","output":109},{"input":16,"interpolation":"STEP","output":110},{"input":16,"interpolation":"STEP","output":111},{"input":16,"interpolation":"STEP","output":112},{"input":30,"interpolation":"LINEAR","output":113},{"input":16,"interpolation":"STEP","output":114},{"input":16,"interpolation":"STEP","output":19},{"input":16,"interpolation":"STEP","output":115},{"input":16,"interpolation":"STEP","output":116},{"input":16,"interpolation":"STEP","output":19},{"input":30,"interpolation":"LINEAR","output":117},{"input":16,"interpolation":"STEP","output":118},{"input":16,"interpolation":"STEP","output":19},{"input":16,"interpolation":"STEP","output":119},{"input":16,"interpolation":"STEP","output":120},{"input":16,"interpolation":"STEP","output":19}]},{"channels":[{"sampler":0,"target":{"node":40,"path":"translation"}},{"sampler":1,"target":{"node":40,"path":"rotation"}},{"sampler":2,"target":{"node":40,"path":"scale"}},{"sampler":3,"target":{"node":1,"path":"translation"}},{"sampler":4,"target":{"node":1,"path":"rotation"}},{"sampler":5,"target":{"node":1,"path":"scale"}},{"sampler":6,"target":{"node":0,"path":"translation"}},{"sampler":7,"target":{"node":0,"path":"rotation"}},{"sampler":8,"target":{"node":0,"path":"scale"}},{"sampler":9,"target":{"node":3,"path":"translation"}},{"sampler":10,"target":{"node":3,"path":"rotation"}},{"sampler":11,"target":{"node":3,"path":"scale"}},{"sampler":12,"target":{"node":2,"path":"translation"}},{"sampler":13,"target":{"node":2,"path":"rotation"}},{"sampler":14,"target":{"node":2,"path":"scale"}},{"sampler":15,"target":{"node":35,"path":"translation"}},{"sampler":16,"target":{"node":35,"path":"rotation"}},{"sampler":17,"target":{"node":35,"path":"scale"}},{"sampler":18,"target":{"node":5,"path":"translation"}},{"sampler":19,"target":{"node":5,"path":"rotation"}},{"sampler":20,"target":{"node":5,"path":"scale"}},{"sampler":21,"target":{"node":4,"path":"translation"}},{"sampler":22,"target":{"node":4,"path":"rotation"}},{"sampler":23,"target":{"node":4,"path":"scale"}},{"sampler":24,"target":{"node":10,"path":"translation"}},{"sampler":25,"target":{"node":10,"path":"rotation"}},{"sampler":26,"target":{"node":10,"path":"scale"}},{"sampler":27,"target":{"node":9,"path":"translation"}},{"sampler":28,"target":{"node":9,"path":"rotation"}},{"sampler":29,"target":{"node":9,"path":"scale"}},{"sampler":30,"target":{"node":8,"path":"translation"}},{"sampler":31,"target":{"node":8,"path":"rotation"}},{"sampler":32,"target":{"node":8,"path":"scale"}},{"sampler":33,"target":{"node":7,"path":"translation"}},{"sampler":34,"target":{"node":7,"path":"rotation"}},{"sampler":35,"target":{"node":7,"path":"scale"}},{"sampler":36,"target":{"node":6,"path":"translation"}},{"sampler":37,"target":{"node":6,"path":"rotation"}},{"sampler":38,"target":{"node":6,"path":"scale"}},{"sampler":39,"target":{"node":15,"path":"translation"}},{"sampler":40,"target":{"node":15,"path":"rotation"}},{"sampler":41,"target":{"node":15,"path":"scale"}},{"sampler":42,"target":{"node":14,"path":"translation"}},{"sampler":43,"target":{"node":14,"path":"rotation"}},{"sampler":44,"target":{"node":14,"path":"scale"}},{"sampler":45,"target":{"node":13,"path":"translation"}},{"sampler":46,"target":{"node":13,"path":"rotation"}},{"sampler":47,"target":{"node":13,"path":"scale"}},{"sampler":48,"target":{"node":12,"path":"translation"}},{"sampler":49,"target":{"node":12,"path":"rotation"}},{"sampler":50,"target":{"node":12,"path":"scale"}},{"sampler":51,"target":{"node":11,"path":"translation"}},{"sampler":52,"target":{"node":11,"path":"rotation"}},{"sampler":53,"target":{"node":11,"path":"scale"}},{"sampler":54,"target":{"node":19,"path":"translation"}},{"sampler":55,"target":{"node":19,"path":"rotation"}},{"sampler":56,"target":{"node":19,"path":"scale"}},{"sampler":57,"target":{"node":18,"path":"translation"}},{"sampler":58,"target":{"node":18,"path":"rotation"}},{"sampler":59,"target":{"node":18,"path":"scale"}},{"sampler":60,"target":{"node":17,"path":"translation"}},{"sampler":61,"target":{"node":17,"path":"rotation"}},{"sampler":62,"target":{"node":17,"path":"scale"}},{"sampler":63,"target":{"node":16,"path":"translation"}},{"sampler":64,"target":{"node":16,"path":"rotation"}},{"sampler":65,"target":{"node":16,"path":"scale"}},{"sampler":66,"target":{"node":23,"path":"translation"}},{"sampler":67,"target":{"node":23,"path":"rotation"}},{"sampler":68,"target":{"node":23,"path":"scale"}},{"sampler":69,"target":{"node":22,"path":"translation"}},{"sampler":70,"target":{"node":22,"path":"rotation"}},{"sampler":71,"target":{"node":22,"path":"scale"}},{"sampler":72,"target":{"node":21,"path":"translation"}},{"sampler":73,"target":{"node":21,"path":"rotation"}},{"sampler":74,"target":{"node":21,"path":"scale"}},{"sampler":75,"target":{"node":20,"path":"translation"}},{"sampler":76,"target":{"node":20,"path":"rotation"}},{"sampler":77,"target":{"node":20,"path":"scale"}},{"sampler":78,"target":{"node":26,"path":"translation"}},{"sampler":79,"target":{"node":26,"path":"rotation"}},{"sampler":80,"target":{"node":26,"path":"scale"}},{"sampler":81,"target":{"node":25,"path":"translation"}},{"sampler":82,"target":{"node":25,"path":"rotation"}},{"sampler":83,"target":{"node":25,"path":"scale"}},{"sampler":84,"target":{"node":24,"path":"translation"}},{"sampler":85,"target":{"node":24,"path":"rotation"}},{"sampler":86,"target":{"node":24,"path":"scale"}},{"sampler":87,"target":{"node":28,"path":"translation"}},{"sampler":88,"target":{"node":28,"path":"rotation"}},{"sampler":89,"target":{"node":28,"path":"scale"}},{"sampler":90,"target":{"node":27,"path":"translation"}},{"sampler":91,"target":{"node":27,"path":"rotation"}},{"sampler":92,"target":{"node":27,"path":"scale"}},{"sampler":93,"target":{"node":30,"path":"translation"}},{"sampler":94,"target":{"node":30,"path":"rotation"}},{"sampler":95,"target":{"node":30,"path":"scale"}},{"sampler":96,"target":{"node":29,"path":"translation"}},{"sampler":97,"target":{"node":29,"path":"rotation"}},{"sampler":98,"target":{"node":29,"path":"scale"}},{"sampler":99,"target":{"node":34,"path":"translation"}},{"sampler":100,"target":{"node":34,"path":"rotation"}},{"sampler":101,"target":{"node":34,"path":"scale"}},{"sampler":102,"target":{"node":33,"path":"translation"}},{"sampler":103,"target":{"node":33,"path":"rotation"}},{"sampler":104,"target":{"node":33,"path":"scale"}},{"sampler":105,"target":{"node":32,"path":"translation"}},{"sampler":106,"target":{"node":32,"path":"rotation"}},{"sampler":107,"target":{"node":32,"path":"scale"}},{"sampler":108,"target":{"node":31,"path":"translation"}},{"sampler":109,"target":{"node":31,"path":"rotation"}},{"sampler":110,"target":{"node":31,"path":"scale"}},{"sampler":111,"target":{"node":37,"path":"translation"}},{"sampler":112,"target":{"node":37,"path":"rotation"}},{"sampler":113,"target":{"node":37,"path":"scale"}},{"sampler":114,"target":{"node":36,"path":"translation"}},{"sampler":115,"target":{"node":36,"path":"rotation"}},{"sampler":116,"target":{"node":36,"path":"scale"}},{"sampler":117,"target":{"node":39,"path":"translation"}},{"sampler":118,"target":{"node":39,"path":"rotation"}},{"sampler":119,"target":{"node":39,"path":"scale"}},{"sampler":120,"target":{"node":38,"path":"translation"}},{"sampler":121,"target":{"node":38,"path":"rotation"}},{"sampler":122,"target":{"node":38,"path":"scale"}}],"name":"jump","samplers":[{"input":121,"interpolation":"STEP","output":17},{"input":121,"interpolation":"STEP","output":18},{"input":121,"interpolation":"STEP","output":19},{"input":122,"interpolation":"LINEAR","output":123},{"input":122,"interpolation":"LINEAR","output":124},{"input":121,"interpolation":"STEP","output":22},{"input":121,"interpolation":"STEP","output":23},{"input":121,"interpolation":"STEP","output":24},{"input":121,"interpolation":"STEP","output":19},{"input":122,"interpolation":"LINEAR","output":125},{"input":122,"interpolation":"LINEAR","output":126},{"input":121,"interpolation":"STEP","output":27},{"input":121,"interpolation":"STEP","output":28},{"input":121,"interpolation":"STEP","output":29},{"input":121,"interpolation":"STEP","output":19},{"input":122,"interpolation":"LINEAR","output":127},{"input":121,"interpolation":"STEP","output":32},{"input":121,"interpolation":"STEP","output":19},{"input":121,"interpolation":"STEP","output":33},{"input":121,"interpolation":"STEP","output":34},{"input":121,"interpolation":"STEP","output":35},{"input":121,"interpolation":"STEP","output":36},{"input":121,"interpolation":"STEP","output":37},{"input":121,"interpolation":"STEP","output":19},{"input":121,"interpolation":"STEP","output":38},{"input":122,"interpolation":"LINEAR","output":128},{"input":121,"interpolation":"STEP","output":40},{"input":121,"interpolation":"STEP","output":41},{"input":122,"interpolation":"LINEAR","output":129},{"input":121,"interpolation":"STEP","output":43},{"input":121,"interpolation":"STEP","output":44},{"input":122,"interpolation":"LINEAR","output":130},{"input":121,"interpolation":"STEP","output":131},{"input":121,"interpolation":"STEP","output":132},{"input":122,"interpolation":"LINEAR","output":133},{"input":121,"interpolation":"STEP","output":134},{"input":121,"interpolation":"STEP","output":135},{"input":121,"interpolation":"STEP","output":136},{"input":121,"interpolation":"STEP","output":19},{"input":121,"interpolation":"STEP","output":53},{"input":122,"interpolation":"LINEAR","output":137},{"input":121,"interpolation":"STEP","output":138},{"input":121,"interpolation":"STEP","output":139},{"input":122,"interpolation":"LINEAR","output":140},{"input":121,"interpolation":"STEP","output":58},{"input":121,"interpolation":"STEP","output":141},{"input":122,"interpolation":"LINEAR","output":142},{"input":121,"interpolation":"STEP","output":52},{"input":121,"interpolation":"STEP","output":143},{"input":122,"interpolation":"LINEAR","output":144},{"input":121,"interpolation":"STEP","output":145},{"input":121,"interpolation":"STEP","output":146},{"input":121,"interpolation":"STEP","output":147},{"input":121,"interpolation":"STEP","output":148},{"input":121,"interpolation":"STEP","output":66},{"input":122,"interpolation":"LINEAR","output":149},{"input":121,"interpolation":"STEP","output":68},{"input":121,"interpolation":"STEP","output":69},{"input":122,"interpolation":"LINEAR","output":150},{"input":121,"interpolation":"STEP","output":71},{"input":121,"interpolation":"STEP","output":72},{"input":122,"interpolation":"LINEAR","output":151},{"input":121,"interpolation":"STEP","output":74},{"input":121,"interpolation":"STEP","output":75},{"input":121,"interpolation":"STEP","output":76},{"input":121,"interpolation":"STEP","output":19},{"input":121,"interpolation":"STEP","output":77},{"input":122,"interpolation":"LINEAR","output":152},{"input":121,"interpolation":"STEP","output":52},{"input":121,"interpolation":"STEP","output":79},{"input":122,"interpolation":"LINEAR","output":153},{"input":121,"interpolation":"STEP","output":81},{"input":121,"interpolation":"STEP","output":82},{"input":122,"interpolation":"LINEAR","output":154},{"input":121,"interpolation":"STEP","output":84},{"input":121,"interpolation":"STEP","output":85},{"input":121,"interpolation":"STEP","output":86},{"input":121,"interpolation":"STEP","output":87},{"input":121,"interpolation":"STEP","output":88},{"input":121,"interpolation":"STEP","output":89},{"input":121,"interpolation":"STEP","output":90},{"input":121,"interpolation":"STEP","output":91},{"input":121,"interpolation":"STEP","output":92},{"input":121,"interpolation":"STEP","output":93},{"input":121,"interpolation":"STEP","output":94},{"input":121,"interpolation":"STEP","output":95},{"input":121,"interpolation":"STEP","output":35},{"input":121,"interpolation":"STEP","output":96},{"input":121,"interpolation":"STEP","output":97},{"input":121,"interpolation":"STEP","output":19},{"input":121,"interpolation":"STEP","output":98},{"input":121,"interpolation":"STEP","output":99},{"input":121,"interpolation":"STEP","output":19},{"input":121,"interpolation":"STEP","output":100},{"input":121,"interpolation":"STEP","output":97},{"input":121,"interpolation":"STEP","output":19},{"input":121,"interpolation":"STEP","output":98},{"input":121,"interpolation":"STEP","output":99},{"input":121,"interpolation":"STEP","output":19},{"input":121,"interpolation":"STEP","output":101},{"input":122,"interpolation":"LINEAR","output":155},{"input":121,"interpolation":"STEP","output":103},{"input":121,"interpolation":"STEP","output":104},{"input":121,"interpolation":"STEP","output":156},{"input":121,"interpolation":"STEP","output":106},{"input":121,"interpolation":"STEP","output":157},{"input":122,"interpolation":"LINEAR","output":158},{"input":121,"interpolation":"STEP","output":109},{"input":121,"interpolation":"STEP","output":159},{"input":121,"interpolation":"STEP","output":160},{"input":121,"interpolation":"STEP","output":112},{"input":122,"interpolation":"LINEAR","output":161},{"input":121,"interpolation":"STEP","output":114},{"input":121,"interpolation":"STEP","output":19},{"input":121,"interpolation":"STEP","output":115},{"input":121,"interpolation":"STEP","output":116},{"input":121,"interpolation":"STEP","output":19},{"input":122,"interpolation":"LINEAR","output":162},{"input":121,"interpolation":"STEP","output":118},{"input":121,"interpolation":"STEP","output":19},{"input":121,"interpolation":"STEP","output":119},{"input":121,"interpolation":"STEP","output":120},{"input":121,"interpolation":"STEP","output":19}]}],"asset":{"generator":"Khronos glTF Blender I/O v5.2.40","version":"2.0"},"bufferViews":[{"buffer":0,"byteLength":7272,"byteOffset":0,"target":34962},{"buffer":0,"byteLength":7272,"byteOffset":7272,"target":34962},{"buffer":0,"byteLength":2424,"byteOffset":14544,"target":34962},{"buffer":0,"byteLength":9696,"byteOffset":16968,"target":34962},{"buffer":0,"byteLength":3660,"byteOffset":26664,"target":34963},{"buffer":0,"byteLength":336,"byteOffset":30324,"target":34962},{"buffer":0,"byteLength":336,"byteOffset":30660,"target":34962},{"buffer":0,"byteLength":112,"byteOffset":30996,"target":34962},{"buffer":0,"byteLength":448,"byteOffset":31108,"target":34962},{"buffer":0,"byteLength":168,"byteOffset":31556,"target":34963},{"buffer":0,"byteLength":384,"byteOffset":31724,"target":34962},{"buffer":0,"byteLength":384,"byteOffset":32108,"target":34962},{"buffer":0,"byteLength":128,"byteOffset":32492,"target":34962},{"buffer":0,"byteLength":512,"byteOffset":32620,"target":34962},{"buffer":0,"byteLength":288,"byteOffset":33132,"target":34963},{"buffer":0,"byteLength":2624,"byteOffset":33420},{"buffer":0,"byteLength":8,"byteOffset":36044},{"buffer":0,"byteLength":24,"byteOffset":36052},{"buffer":0,"byteLength":32,"byteOffset":36076},{"buffer":0,"byteLength":24,"byteOffset":36108},{"buffer":0,"byteLength":24,"byteOffset":36132},{"buffer":0,"byteLength":32,"byteOffset":36156},{"buffer":0,"byteLength":24,"byteOffset":36188},{"buffer":0,"byteLength":24,"byteOffset":36212},{"buffer":0,"byteLength":32,"byteOffset":36236},{"buffer":0,"byteLength":24,"byteOffset":36268},{"buffer":0,"byteLength":32,"byteOffset":36292},{"buffer":0,"byteLength":24,"byteOffset":36324},{"buffer":0,"byteLength":24,"byteOffset":36348},{"buffer":0,"byteLength":32,"byteOffset":36372},{"buffer":0,"byteLength":244,"byteOffset":36404},{"buffer":0,"byteLength":732,"byteOffset":36648},{"buffer":0,"byteLength":32,"byteOffset":37380},{"buffer":0,"byteLength":24,"byteOffset":37412},{"buffer":0,"byteLength":32,"byteOffset":37436},{"buffer":0,"byteLength":24,"byteOffset":37468},{"buffer":0,"byteLength":24,"byteOffset":37492},{"buffer":0,"byteLength":32,"byteOffset":37516},{"buffer":0,"byteLength":24,"byteOffset":37548},{"buffer":0,"byteLength":976,"byteOffset":37572},{"buffer":0,"byteLength":24,"byteOffset":38548},{"buffer":0,"byteLength":24,"byteOffset":38572},{"buffer":0,"byteLength":976,"byteOffset":38596},{"buffer":0,"byteLength":24,"byteOffset":39572},{"buffer":0,"byteLength":24,"byteOffset":39596},{"buffer":0,"byteLength":976,"byteOffset":39620},{"buffer":0,"byteLength":24,"byteOffset":40596},{"buffer":0,"byteLength":24,"byteOffset":40620},{"buffer":0,"byteLength":976,"byteOffset":40644},{"buffer":0,"byteLength":24,"byteOffset":41620},{"buffer":0,"byteLength":24,"byteOffset":41644},{"buffer":0,"byteLength":32,"byteOffset":41668},{"buffer":0,"byteLength":24,"byteOffset":41700},{"buffer":0,"byteLength":24,"byteOffset":41724},{"buffer":0,"byteLength":976,"byteOffset":41748},{"buffer":0,"byteLength":24,"byteOffset":42724},{"buffer":0,"byteLength":24,"byteOffset":42748},{"buffer":0,"byteLength":976,"byteOffset":42772},{"buffer":0,"byteLength":24,"byteOffset":43748},{"buffer":0,"byteLength":24,"byteOffset":43772},{"buffer":0,"byteLength":976,"byteOffset":43796},{"buffer":0,"byteLength":24,"byteOffset":44772},{"buffer":0,"byteLength":976,"byteOffset":44796},{"buffer":0,"byteLength":24,"byteOffset":45772},{"buffer":0,"byteLength":24,"byteOffset":45796},{"buffer":0,"byteLength":32,"byteOffset":45820},{"buffer":0,"byteLength":24,"byteOffset":45852},{"buffer":0,"byteLength":976,"byteOffset":45876},{"buffer":0,"byteLength":24,"byteOffset":46852},{"buffer":0,"byteLength":24,"byteOffset":46876},{"buffer":0,"byteLength":976,"byteOffset":46900},{"buffer":0,"byteLength":24,"byteOffset":47876},{"buffer":0,"byteLength":24,"byteOffset":47900},{"buffer":0,"byteLength":976,"byteOffset":47924},{"buffer":0,"byteLength":24,"byteOffset":48900},{"buffer":0,"byteLength":24,"byteOffset":48924},{"buffer":0,"byteLength":32,"byteOffset":48948},{"buffer":0,"byteLength":24,"byteOffset":48980},{"buffer":0,"byteLength":976,"byteOffset":49004},{"buffer":0,"byteLength":24,"byteOffset":49980},{"buffer":0,"byteLength":976,"byteOffset":50004},{"buffer":0,"byteLength":24,"byteOffset":50980},{"buffer":0,"byteLength":24,"byteOffset":51004},{"buffer":0,"byteLength":976,"byteOffset":51028},{"buffer":0,"byteLength":24,"byteOffset":52004},{"buffer":0,"byteLength":24,"byteOffset":52028},{"buffer":0,"byteLength":32,"byteOffset":52052},{"buffer":0,"byteLength":24,"byteOffset":52084},{"buffer":0,"byteLength":24,"byteOffset":52108},{"buffer":0,"byteLength":32,"byteOffset":52132},{"buffer":0,"byteLength":24,"byteOffset":52164},{"buffer":0,"byteLength":24,"byteOffset":52188},{"buffer":0,"byteLength":32,"byteOffset":52212},{"buffer":0,"byteLength":24,"byteOffset":52244},{"buffer":0,"byteLength":24,"byteOffset":52268},{"buffer":0,"byteLength":32,"byteOffset":52292},{"buffer":0,"byteLength":24,"byteOffset":52324},{"buffer":0,"byteLength":32,"byteOffset":52348},{"buffer":0,"byteLength":24,"byteOffset":52380},{"buffer":0,"byteLength":32,"byteOffset":52404},{"buffer":0,"byteLength":24,"byteOffset":52436},{"buffer":0,"byteLength":24,"byteOffset":52460},{"buffer":0,"byteLength":32,"byteOffset":52484},{"buffer":0,"byteLength":24,"byteOffset":52516},{"buffer":0,"byteLength":24,"byteOffset":52540},{"buffer":0,"byteLength":976,"byteOffset":52564},{"buffer":0,"byteLength":24,"byteOffset":53540},{"buffer":0,"byteLength":24,"byteOffset":53564},{"buffer":0,"byteLength":976,"byteOffset":53588},{"buffer":0,"byteLength":24,"byteOffset":54564},{"buffer":0,"byteLength":24,"byteOffset":54588},{"buffer":0,"byteLength":32,"byteOffset":54612},{"buffer":0,"byteLength":24,"byteOffset":54644},{"buffer":0,"byteLength":732,"byteOffset":54668},{"buffer":0,"byteLength":32,"byteOffset":55400},{"buffer":0,"byteLength":24,"byteOffset":55432},{"buffer":0,"byteLength":32,"byteOffset":55456},{"buffer":0,"byteLength":732,"byteOffset":55488},{"buffer":0,"byteLength":32,"byteOffset":56220},{"buffer":0,"byteLength":24,"byteOffset":56252},{"buffer":0,"byteLength":32,"byteOffset":56276},{"buffer":0,"byteLength":8,"byteOffset":56308},{"buffer":0,"byteLength":88,"byteOffset":56316},{"buffer":0,"byteLength":264,"byteOffset":56404},{"buffer":0,"byteLength":352,"byteOffset":56668},{"buffer":0,"byteLength":264,"byteOffset":57020},{"buffer":0,"byteLength":352,"byteOffset":57284},{"buffer":0,"byteLength":264,"byteOffset":57636},{"buffer":0,"byteLength":352,"byteOffset":57900},{"buffer":0,"byteLength":352,"byteOffset":58252},{"buffer":0,"byteLength":352,"byteOffset":58604},{"buffer":0,"byteLength":24,"byteOffset":58956},{"buffer":0,"byteLength":24,"byteOffset":58980},{"buffer":0,"byteLength":352,"byteOffset":59004},{"buffer":0,"byteLength":24,"byteOffset":59356},{"buffer":0,"byteLength":24,"byteOffset":59380},{"buffer":0,"byteLength":32,"byteOffset":59404},{"buffer":0,"byteLength":352,"byteOffset":59436},{"buffer":0,"byteLength":24,"byteOffset":59788},{"buffer":0,"byteLength":24,"byteOffset":59812},{"buffer":0,"byteLength":352,"byteOffset":59836},{"buffer":0,"byteLength":24,"byteOffset":60188},{"buffer":0,"byteLength":352,"byteOffset":60212},{"buffer":0,"byteLength":24,"byteOffset":60564},{"buffer":0,"byteLength":352,"byteOffset":60588},{"buffer":0,"byteLength":24,"byteOffset":60940},{"buffer":0,"byteLength":24,"byteOffset":60964},{"buffer":0,"byteLength":32,"byteOffset":60988},{"buffer":0,"byteLength":24,"byteOffset":61020},{"buffer":0,"byteLength":352,"byteOffset":61044},{"buffer":0,"byteLength":352,"byteOffset":61396},{"buffer":0,"byteLength":352,"byteOffset":61748},{"buffer":0,"byteLength":352,"byteOffset":62100},{"buffer":0,"byteLength":352,"byteOffset":62452},{"buffer":0,"byteLength":352,"byteOffset":62804},{"buffer":0,"byteLength":352,"byteOffset":63156},{"buffer":0,"byteLength":32,"byteOffset":63508},{"buffer":0,"byteLength":24,"byteOffset":63540},{"buffer":0,"byteLength":352,"byteOffset":63564},{"buffer":0,"byteLength":24,"byteOffset":63916},{"buffer":0,"byteLength":32,"byteOffset":63940},{"buffer":0,"byteLength":264,"byteOffset":63972},{"buffer":0,"byteLength":264,"byteOffset":64236}],"buffers":[{"byteLength":64500,"uri":"frog.bin"}],"materials":[{"doubleSided":true,"name":"Green","pbrMetallicRoughness":{"baseColorFactor":[0.2704978287220001,0.4969330132007599,0.14702729880809784,1],"metallicFactor":0,"roughnessFactor":0.690034806728363}},{"doubleSided":true,"name":"Yellow","pbrMetallicRoughness":{"baseColorFactor":[0.6981873512268066,0.5002731680870056,0.19113197922706604,1],"metallicFactor":0,"roughnessFactor":0.690034806728363}},{"doubleSided":true,"name":"Red","pbrMetallicRoughness":{"baseColorFactor":[0.559596061706543,0.0360763818025589,0.017436517402529716,1],"metallicFactor":0,"roughnessFactor":0.690034806728363}}],"meshes":[{"name":"Cylinder","primitives":[{"attributes":{"JOINTS_0":2,"NORMAL":1,"POSITION":0,"WEIGHTS_0":3},"indices":4,"material":0},{"attributes":{"JOINTS_0":7,"NORMAL":6,"POSITION":5,"WEIGHTS_0":8},"indices":9,"material":1},{"attributes":{"JOINTS_0":12,"NORMAL":11,"POSITION":10,"WEIGHTS_0":13},"indices":14,"material":2}]}],"nodes":[{"name":"BackFoot.L_end","rotation":[1.471283539444812e-09,-6.337300817449432e-08,2.4586910285506747e-07,1],"translation":[-5.18483389555513e-09,0.01003886666148901,-1.8341239638175466e-10]},{"children":[0],"name":"BackFoot.L","rotation":[0.6942441463470459,0.13425567746162415,-0.13425728678703308,0.6942445635795593],"scale":[1,0.9999998807907104,1],"translation":[0.07490437477827072,0.002592533826828003,-0.024020563811063766]},{"name":"BackFoot.R_end","rotation":[-2.1721724863255076e-08,6.245946337912756e-08,1.4156107397411688e-07,1],"scale":[0.9999999403953552,0.9999999403953552,1],"translation":[-7.444165284198334e-09,0.010038862004876137,-1.8394885614725354e-10]},{"children":[2],"name":"BackFoot.R","rotation":[0.6942446231842041,-0.13425739109516144,0.1342550814151764,0.6942441463470459],"scale":[1,1,1.0000001192092896],"translation":[-0.07547535747289658,0.002592533826828003,-0.024020563811063766]},{"name":"Back_end","rotation":[-1.1175870895385742e-07,7.673861546209082e-13,-2.1128399323080277e-13,1],"translation":[-5.186961971048731e-13,0.027007639408111572,1.682305683647911e-11]},{"children":[4],"name":"Back","rotation":[0.4806235134601593,7.317674430851184e-07,4.010648808616679e-07,0.8769270181655884],"scale":[1,0.9999999403953552,1],"translation":[-0.0007693137740716338,-0.07395464926958084,-0.06332432478666306]},{"name":"BackLowLeg.L_end","rotation":[-5.77711123384006e-09,1.140579257707941e-07,7.543713564928112e-08,1],"scale":[0.9999999403953552,0.9999998807907104,0.9999999403953552],"translation":[-1.1015799827873707e-08,0.06105101481080055,-4.729372449219227e-11]},{"children":[6],"name":"BackLowLeg.L","rotation":[-0.9810609817504883,-0.12596292793750763,-0.04809369146823883,0.13906730711460114],"scale":[1.0000007152557373,1.0000001192092896,1.0000005960464478],"translation":[-5.820766091346741e-10,0.06460250914096832,-8.149072527885437e-10]},{"children":[7],"name":"BackUpLeg.L","rotation":[0.682835578918457,0.06200404837727547,0.6536228656768799,0.3204188048839569],"scale":[1.000000238418579,1,1.0000003576278687],"translation":[-4.6566128730773926e-09,0.05180536210536957,9.313225746154785e-10]},{"children":[8],"name":"BackLeg.L","rotation":[0.13688181340694427,0.8886814713478088,0.4372638165950775,0.017576921731233597],"scale":[0.9999999403953552,0.9999997019767761,1],"translation":[1.799636550892103e-10,0.012882946990430355,1.853318387645686e-09]},{"children":[9],"name":"BackHip.L","rotation":[3.8499852195172934e-08,4.081827142954353e-08,-0.6861454248428345,0.7274643778800964],"translation":[0.01592780463397503,-0.0716060921549797,-0.05763222649693489]},{"name":"BackLowLeg.R_end","rotation":[-3.710737828122035e-10,1.208973117172718e-07,1.4872057363390923e-08,1],"scale":[1,1.0000001192092896,1],"translation":[4.845787771046162e-09,0.06105096638202667,2.764863893389702e-10]},{"children":[11],"name":"BackLowLeg.R","rotation":[-0.9819111824035645,0.12247630953788757,0.025378109887242317,0.1421477049589157],"scale":[0.9999993443489075,0.9999998807907104,0.9999991059303284],"translation":[-1.924490788951516e-09,0.06460247933864594,-5.471520125865936e-09]},{"children":[12],"name":"BackUpLeg.R","rotation":[0.7918355464935303,-0.32514792680740356,0.5162206888198853,0.028134597465395927],"scale":[1.0000001192092896,1.0000001192092896,1.0000001192092896],"translation":[1.7462298274040222e-09,0.05180535465478897,3.725290298461914e-09]},{"children":[13],"name":"BackLeg.R","rotation":[0.4576180577278137,-0.2058533877134323,0.022848013788461685,0.8646895885467529],"scale":[1,0.9999999403953552,1],"translation":[6.668248175856206e-10,0.012882946990430355,1.825019357859503e-09]},{"children":[14],"name":"BackHip.R","rotation":[-4.615502291471785e-08,4.893443517062224e-08,0.6861454844474792,0.7274643778800964],"translation":[-0.016755081713199615,-0.0716060921549797,-0.05763222649693489]},{"name":"FrontLowLeg.L_end","rotation":[7.450592143243284e-09,8.567577935991721e-08,-1.490114875934978e-08,1],"scale":[1,1.0000001192092896,1.0000001192092896],"translation":[2.2543633626526116e-09,0.05101785808801651,-1.752660239162651e-10]},{"children":[16],"name":"FrontLowLeg.L","rotation":[-0.7321611046791077,-0.1429559737443924,0.18840573728084564,0.6387542486190796],"scale":[0.9999998807907104,0.9999999403953552,1],"translation":[-2.6775524020195007e-09,0.05168842151761055,2.3283064365386963e-10]},{"children":[17],"name":"FrontUpLeg.L","rotation":[0.18912376463413239,0.2224717140197754,0.4891011714935303,0.8218994140625],"scale":[0.9999999403953552,1,1],"translation":[9.787749499778897e-10,0.012540141120553017,-5.985976159195161e-10]},{"children":[18],"name":"FrontLeg.L","rotation":[-0.7071067690849304,-0.7071067690849304,1.5667460218082851e-07,5.338507236274381e-08],"translation":[0.02459990791976452,-0.04100664332509041,0.030938295647501945]},{"name":"FrontLowLeg.R_end","rotation":[-3.725290298461914e-08,-1.7947678543350776e-07,-2.3740742783663095e-14,1],"translation":[3.1975262437811125e-09,0.05101786553859711,-2.3806379090274277e-10]},{"children":[20],"name":"FrontLowLeg.R","rotation":[-0.7478331923484802,0.20888115465641022,-0.11091507971286774,0.6203322410583496],"scale":[1,1,1.0000001192092896],"translation":[1.7462298274040222e-09,0.051688410341739655,1.862645149230957e-09]},{"children":[21],"name":"FrontUpLeg.R","rotation":[-0.5061773061752319,0.7941721081733704,-0.13701191544532776,0.30708786845207214],"scale":[1,1.0000001192092896,1],"translation":[6.290844511980254e-10,0.01254015788435936,-4.412541443343798e-10]},{"children":[22],"name":"FrontLeg.L.001","rotation":[-2.1601593402920116e-07,5.956543702723138e-09,0.7071067690849304,0.7071067690849304],"translation":[-0.025427181273698807,-0.04100664332509041,0.030938295647501945]},{"name":"Torso_end","rotation":[-8.221468306146562e-08,1.5774276107549667e-08,-3.4051481634378433e-09,1],"translation":[7.275957614183426e-11,0.036306094378232956,7.466951501555741e-10]},{"children":[24],"name":"Torso","rotation":[0.029818478971719742,-0.00284410547465086,-0.013670318759977818,0.999457836151123],"scale":[0.9999999403953552,1,0.9999999403953552],"translation":[9.450218385609332e-13,0.03191834315657616,3.357282452043364e-09]},{"children":[25],"name":"Hips","rotation":[2.971412186525413e-06,0.7897431254386902,0.6134377717971802,3.825412932201289e-06],"scale":[1,0.9999998211860657,0.9999999403953552],"translation":[-0.0007693137740716338,-0.05942448228597641,-0.040558408945798874]},{"name":"PoleTarget.L_end","rotation":[-2.584866933830199e-07,0,0,1],"translation":[0,0.0218772292137146,7.334683527204788e-09]},{"children":[27],"name":"PoleTarget.L","translation":[0.06609644740819931,-0.07988659292459488,0.22971054911613464]},{"name":"PoleTarget.R_end","rotation":[-2.584866933830199e-07,0,0,1],"translation":[0,0.0218772292137146,7.334683527204788e-09]},{"children":[29],"name":"PoleTarget.R","translation":[-0.06595774739980698,-0.07988659292459488,0.22971054911613464]},{"name":"Head_end","rotation":[3.803870995966463e-08,-1.9499568679748336e-06,-2.1333109501142644e-08,1],"scale":[0.9999999403953552,0.9999998807907104,0.9999999403953552],"translation":[4.285539034754038e-09,0.0390247106552124,7.16863723937422e-09]},{"children":[31],"name":"Head","rotation":[-0.1636248379945755,-0.255545973777771,0.04305477812886238,0.9518768191337585],"scale":[1,1.0000001192092896,1],"translation":[-2.2026824808563106e-13,0.016429901123046875,4.70181760192645e-09]},{"children":[32],"name":"Neck","rotation":[-0.01148385088890791,-0.0030397209338843822,-0.03697940334677696,0.9992454051971436],"scale":[1,1,0.9999999403953552],"translation":[-3.601599019020796e-10,0.013353236950933933,-3.6787639601243427e-10]},{"children":[33],"name":"Shoulders","rotation":[-0.026394542306661606,-0.7733109593391418,-0.6329403519630432,0.0260775126516819],"scale":[0.9999999403953552,0.9999997615814209,1],"translation":[-0.0017552284989506006,-0.03954127058386803,0.025379709899425507]},{"children":[5,10,15,19,23,26,28,30,34],"name":"Body","rotation":[-6.411511321857688e-10,0,0,1],"translation":[0.00012815219815820456,0.10159026086330414,-0.00041355847497470677]},{"name":"FrontFoot.L_end","rotation":[2.508094496533886e-07,2.3928680759933985e-20,-6.956452015989545e-13,1],"translation":[2.1706081376748898e-10,0.013699156232178211,7.403855306620244e-12]},{"children":[36],"name":"FrontFoot.L","rotation":[0.7071065902709961,-9.80616050583194e-07,-9.806154821490054e-07,0.7071069478988647],"translation":[0.06031925231218338,0.0001638531539356336,0.04832274839282036]},{"name":"FrontFoot.R_end","rotation":[-2.5375236134550505e-08,-2.2737367544323206e-13,7.038074008140771e-14,1],"translation":[2.16997989022083e-10,0.01369917020201683,3.61595198228315e-11]},{"children":[38],"name":"FrontFoot.R","rotation":[0.7071067690849304,-9.806155958358431e-07,-9.806155958358431e-07,0.7071067690849304],"translation":[-0.06089022755622864,0.0001638531539356336,0.04832274094223976]},{"children":[1,3,35,37,39],"name":"root","rotation":[-7.052003070384671e-08,0,0,1],"translation":[0.000651241687592119,0.0011010338785126805,-0.006246207747608423]},{"mesh":0,"name":"Frog","skin":0},{"children":[41,40],"name":"Armature"}],"scene":0,"scenes":[{"name":"Scene","nodes":[42]}],"skins":[{"inverseBindMatrices":15,"joints":[40,1,0,3,2,35,5,4,10,9,8,7,6,15,14,13,12,11,19,18,17,16,23,22,21,20,26,25,24,28,27,30,29,34,33,32,31,37,36,39,38],"name":"Armature"}]}
