{"accessors":[{"bufferView":0,"componentType":5126,"count":252,"max":[0.04182639345526695,0.11213138699531555,0.19928692281246185],"min":[-0.04171498492360115,-0.0001861291384557262,-0.2035141885280609],"type":"VEC3"},{"bufferView":1,"componentType":5126,"count":252,"type":"VEC3"},{"bufferView":2,"componentType":5121,"count":252,"type":"VEC4"},{"bufferView":3,"componentType":5126,"count":252,"type":"VEC4"},{"bufferView":4,"componentType":5123,"count":870,"type":"SCALAR"},{"bufferView":5,"componentType":5126,"count":439,"max":[0.04309049993753433,0.1325008124113083,0.19801297783851624],"min":[-0.04348171874880791,0.003298966446891427,-0.03967948630452156],"type":"VEC3"},{"bufferView":6,"componentType":5126,"count":439,"type":"VEC3"},{"bufferView":7,"componentType":5121,"count":439,"type":"VEC4"},{"bufferView":8,"componentType":5126,"count":439,"type":"VEC4"},{"bufferView":9,"componentType":5123,"count":1188,"type":"SCALAR"},{"bufferView":10,"componentType":5126,"count":42,"type":"MAT4"},{"bufferView":11,"componentType":5126,"count":2,"max":[2.4166666666666665],"min":[0.041666666666666664],"type":"SCALAR"},{"bufferView":12,"componentType":5126,"count":2,"type":"VEC3"},{"bufferView":13,"componentType":5126,"count":2,"type":"VEC4"},{"bufferView":14,"componentType":5126,"count":2,"type":"VEC3"},{"bufferView":15,"componentType":5126,"count":2,"type":"VEC3"},{"bufferView":16,"componentType":5126,"count":2,"type":"VEC4"},{"bufferView":17,"componentType":5126,"count":2,"type":"VEC3"},{"bufferView":18,"componentType":5126,"count":2,"type":"VEC4"},{"bufferView":19,"componentType":5126,"count":2,"type":"VEC3"},{"bufferView":20,"componentType":5126,"count":2,"type":"VEC4"},{"bufferView":21,"componentType":5126,"count":2,"type":"VEC3"},{"bufferView":22,"componentType":5126,"count":2,"type":"VEC4"},{"bufferView":23,"componentType":5126,"count":58,"max":[2.4166666666666665],"min":[0.041666666666666664],"type":"SCALAR"},{"bufferView":24,"componentType":5126,"count":58,"type":"VEC3"},{"bufferView":25,"componentType":5126,"count":2,"type":"VEC4"},{"bufferView":26,"componentType":5126,"count":2,"type":"VEC3"},{"bufferView":27,"componentType":5126,"count":2,"type":"VEC4"},{"bufferView":28,"componentType":5126,"count":2,"type":"VEC3"},{"bufferView":29,"componentType":5126,"count":2,"type":"VEC3"},{"bufferView":30,"componentType":5126,"count":2,"type":"VEC4"},{"bufferView":31,"componentType":5126,"count":2,"type":"VEC3"},{"bufferView":32,"componentType":5126,"count":2,"type":"VEC3"},{"bufferView":33,"componentType":5126,"count":2,"type":"VEC4"},{"bufferView":34,"componentType":5126,"count":2,"type":"VEC3"},{"bufferView":35,"componentType":5126,"count":2,"type":"VEC3"},{"bufferView":36,"componentType":5126,"count":58,"type":"VEC4"},{"bufferView":37,"componentType":5126,"count":2,"type":"VEC3"},{"bufferView":38,"componentType":5126,"count":2,"type":"VEC3"},{"bufferView":39,"componentType":5126,"count":58,"type":"VEC4"},{"bufferView":40,"componentType":5126,"count":2,"type":"VEC3"},{"bufferView":41,"componentType":5126,"count":2,"type":"VEC3"},{"bufferView":42,"componentType":5126,"count":58,"type":"VEC4"},{"bufferView":43,"componentType":5126,"count":2,"type":"VEC3"},{"bufferView":44,"componentType":5126,"count":2,"type":"VEC3"},{"bufferView":45,"componentType":5126,"count":2,"type":"VEC4"},{"bufferView":46,"componentType":5126,"count":2,"type":"VEC3"},{"bufferView":47,"componentType":5126,"count":2,"type":"VEC3"},{"bufferView":48,"componentType":5126,"count":58,"type":"VEC4"},{"bufferView":49,"componentType":5126,"count":2,"type":"VEC3"},{"bufferView":50,"componentType":5126,"count":2,"type":"VEC3"},{"bufferView":51,"componentType":5126,"count":2,"type":"VEC4"},{"bufferView":52,"componentType":5126,"count":2,"type":"VEC3"},{"bufferView":53,"componentType":5126,"count":58,"type":"VEC4"},{"bufferView":54,"componentType":5126,"count":2,"type":"VEC3"},{"bufferView":55,"componentType":5126,"count":58,"type":"VEC4"},{"bufferView":56,"componentType":5126,"count":2,"type":"VEC3"},{"bufferView":57,"componentType":5126,"count":2,"type":"VEC3"},{"bufferView":58,"componentType":5126,"count":58,"type":"VEC4"},{"bufferView":59,"componentType":5126,"count":2,"type":"VEC3"},{"bufferView":60,"componentType":5126,"count":2,"type":"VEC3"},{"bufferView":61,"componentType":5126,"count":2,"type":"VEC4"},{"bufferView":62,"componentType":5126,"count":2,"type":"VEC3"},{"bufferView":63,"componentType":5126,"count":58,"type":"VEC4"},{"bufferView":64,"componentType":5126,"count":2,"type":"VEC3"},{"bufferView":65,"componentType":5126,"count":2,"type":"VEC3"},{"bufferView":66,"componentType":5126,"count":58,"type":"VEC4"},{"bufferView":67,"componentType":5126,"count":2,"type":"VEC3"},{"bufferView":68,"componentType":5126,"count":2,"type":"VEC3"},{"bufferView":69,"componentType":5126,"count":58,"type":"VEC4"},{"bufferView":70,"componentType":5126,"count":2,"type":"VEC3"},{"bufferView":71,"componentType":5126,"count":2,"type":"VEC3"},{"bufferView":72,"componentType":5126,"count":2,"type":"VEC4"},{"bufferView":73,"componentType":5126,"count":2,"type":"VEC3"},{"bufferView":74,"componentType":5126,"count":58,"type":"VEC4"},{"bufferView":75,"componentType":5126,"count":2,"type":"VEC3"},{"bufferView":76,"componentType":5126,"count":2,"type":"VEC4"},{"bufferView":77,"componentType":5126,"count":2,"type":"VEC3"},{"bufferView":78,"componentType":5126,"count":2,"type":"VEC3"},{"bufferView":79,"componentType":5126,"count":58,"type":"VEC4"},{"bufferView":80,"componentType":5126,"count":2,"type":"VEC3"},{"bufferView":81,"componentType":5126,"count":2,"type":"VEC3"},{"bufferView":82,"componentType":5126,"count":2,"type":"VEC4"},{"bufferView":83,"componentType":5126,"count":2,"type":"VEC3"},{"bufferView":84,"componentType":5126,"count":58,"type":"VEC4"},{"bufferView":85,"componentType":5126,"count":2,"type":"VEC3"},{"bufferView":86,"componentType":5126,"count":2,"type":"VEC4"},{"bufferView":87,"componentType":5126,"count":2,"type":"VEC3"},{"bufferView":88,"componentType":5126,"count":2,"type":"VEC3"},{"bufferView":89,"componentType":5126,"count":58,"type":"VEC4"},{"bufferView":90,"componentType":5126,"count":2,"type":"VEC3"},{"bufferView":91,"componentType":5126,"count":2,"type":"VEC3"},{"bufferView":92,"componentType":5126,"count":2,"type":"VEC4"},{"bufferView":93,"componentType":5126,"count":2,"type":"VEC3"},{"bufferView":94,"componentType":5126,"count":2,"type":"VEC4"},{"bufferView":95,"componentType":5126,"count":2,"type":"VEC3"},{"bufferView":96,"componentType":5126,"count":2,"type":"VEC3"},{"bufferView":97,"componentType":5126,"count":2,"type":"VEC4"},{"bufferView":98,"componentType":5126,"count":2,"type":"VEC3"},{"bufferView":99,"componentType":5126,"count":2,"type":"VEC3"},{"bufferView":100,"componentType":5126,"count":2,"type":"VEC4"},{"bufferView":101,"componentType":5126,"count":2,"type":"VEC3"},{"bufferView":102,"componentType":5126,"count":2,"type":"VEC4"},{"bufferView":103,"componentType":5126,"count":2,"type":"VEC3"},{"bufferView":104,"componentType":5126,"count":2,"type":"VEC3"},{"bufferView":105,"componentType":5126,"count":58,"type":"VEC4"},{"bufferView":106,"componentType":5126,"count":2,"type":"VEC3"},{"bufferView":107,"componentType":5126,"count":2,"type":"VEC3"},{"bufferView":108,"componentType":5126,"count":2,"type":"VEC4"},{"bufferView":109,"componentType":5126,"count":2,"type":"VEC3"},{"bufferView":110,"componentType":5126,"count":2,"type":"VEC3"},{"bufferView":111,"componentType":5126,"count":2,"type":"VEC4"},{"bufferView":112,"componentType":5126,"count":2,"type":"VEC3"},{"bufferView":113,"componentType":5126,"count":2,"type":"VEC3"},{"bufferView":114,"componentType":5126,"count":2,"type":"VEC4"},{"bufferView":115,"componentType":5126,"count":2,"type":"VEC3"},{"bufferView":116,"componentType":5126,"count":2,"type":"VEC4"},{"bufferView":117,"componentType":5126,"count":2,"type":"VEC3"},{"bufferView":118,"componentType":5126,"count":2,"type":"VEC4"},{"bufferView":119,"componentType":5126,"count":2,"type":"VEC3"},{"bufferView":120,"componentType":5126,"count":2,"type":"VEC4"},{"bufferView":121,"componentType":5126,"count":2,"max":[0.5416666666666666],"min":[0.041666666666666664],"type":"SCALAR"},{"bufferView":122,"componentType":5126,"count":13,"max":[0.5416666666666666],"min":[0.041666666666666664],"type":"SCALAR"},{"bufferView":123,"componentType":5126,"count":13,"type":"VEC3"},{"bufferView":124,"componentType":5126,"count":13,"type":"VEC4"},{"bufferView":125,"componentType":5126,"count":2,"type":"VEC3"},{"bufferView":126,"componentType":5126,"count":2,"type":"VEC4"},{"bufferView":127,"componentType":5126,"count":13,"type":"VEC3"},{"bufferView":128,"componentType":5126,"count":13,"type":"VEC4"},{"bufferView":129,"componentType":5126,"count":2,"type":"VEC3"},{"bufferView":130,"componentType":5126,"count":2,"type":"VEC4"},{"bufferView":131,"componentType":5126,"count":13,"type":"VEC3"},{"bufferView":132,"componentType":5126,"count":2,"type":"VEC4"},{"bufferView":133,"componentType":5126,"count":13,"type":"VEC3"},{"bufferView":134,"componentType":5126,"count":13,"type":"VEC4"},{"bufferView":135,"componentType":5126,"count":2,"type":"VEC3"},{"bufferView":136,"componentType":5126,"count":2,"type":"VEC3"},{"bufferView":137,"componentType":5126,"count":2,"type":"VEC4"},{"bufferView":138,"componentType":5126,"count":2,"type":"VEC3"},{"bufferView":139,"componentType":5126,"count":2,"type":"VEC3"},{"bufferView":140,"componentType":5126,"count":13,"type":"VEC4"},{"bufferView":141,"componentType":5126,"count":2,"type":"VEC3"},{"bufferView":142,"componentType":5126,"count":2,"type":"VEC3"},{"bufferView":143,"componentType":5126,"count":13,"type":"VEC4"},{"bufferView":144,"componentType":5126,"count":2,"type":"VEC3"},{"bufferView":145,"componentType":5126,"count":2,"type":"VEC3"},{"bufferView":146,"componentType":5126,"count":13,"type":"VEC4"},{"bufferView":147,"componentType":5126,"count":2,"type":"VEC3"},{"bufferView":148,"componentType":5126,"count":13,"type":"VEC4"},{"bufferView":149,"componentType":5126,"count":2,"type":"VEC3"},{"bufferView":150,"componentType":5126,"count":2,"type":"VEC3"},{"bufferView":151,"componentType":5126,"count":13,"type":"VEC4"},{"bufferView":152,"componentType":5126,"count":2,"type":"VEC3"},{"bufferView":153,"componentType":5126,"count":2,"type":"VEC3"},{"bufferView":154,"componentType":5126,"count":13,"type":"VEC4"},{"bufferView":155,"componentType":5126,"count":2,"type":"VEC3"},{"bufferView":156,"componentType":5126,"count":2,"type":"VEC3"},{"bufferView":157,"componentType":5126,"count":2,"type":"VEC4"},{"bufferView":158,"componentType":5126,"count":13,"type":"VEC3"},{"bufferView":159,"componentType":5126,"count":13,"type":"VEC4"},{"bufferView":160,"componentType":5126,"count":2,"type":"VEC3"},{"bufferView":161,"componentType":5126,"count":2,"type":"VEC3"},{"bufferView":162,"componentType":5126,"count":13,"type":"VEC4"},{"bufferView":163,"componentType":5126,"count":2,"type":"VEC3"},{"bufferView":164,"componentType":5126,"count":2,"type":"VEC3"},{"bufferView":165,"componentType":5126,"count":13,"type":"VEC4"},{"bufferView":166,"componentType":5126,"count":2,"type":"VEC3"},{"bufferView":167,"componentType":5126,"count":2,"type":"VEC3"},{"bufferView":168,"componentType":5126,"count":2,"type":"VEC4"},{"bufferView":169,"componentType":5126,"count":2,"type":"VEC3"},{"bufferView":170,"componentType":5126,"count":13,"type":"VEC3"},{"bufferView":171,"componentType":5126,"count":13,"type":"VEC4"},{"bufferView":172,"componentType":5126,"count":2,"type":"VEC3"},{"bufferView":173,"componentType":5126,"count":2,"type":"VEC3"},{"bufferView":174,"componentType":5126,"count":13,"type":"VEC4"},{"bufferView":175,"componentType":5126,"count":2,"type":"VEC3"},{"bufferView":176,"componentType":5126,"count":2,"type":"VEC3"},{"bufferView":177,"componentType":5126,"count":13,"type":"VEC4"},{"bufferView":178,"componentType":5126,"count":2,"type":"VEC3"},{"bufferView":179,"componentType":5126,"count":2,"type":"VEC3"},{"bufferView":180,"componentType":5126,"count":2,"type":"VEC4"},{"bufferView":181,"componentType":5126,"count":2,"type":"VEC3"},{"bufferView":182,"componentType":5126,"count":13,"type":"VEC3"},{"bufferView":183,"componentType":5126,"count":13,"type":"VEC4"},{"bufferView":184,"componentType":5126,"count":2,"type":"VEC3"},{"bufferView":185,"componentType":5126,"count":13,"type":"VEC4"},{"bufferView":186,"componentType":5126,"count":2,"type":"VEC3"},{"bufferView":187,"componentType":5126,"count":2,"type":"VEC3"},{"bufferView":188,"componentType":5126,"count":13,"type":"VEC4"},{"bufferView":189,"componentType":5126,"count":2,"type":"VEC3"},{"bufferView":190,"componentType":5126,"count":2,"type":"VEC3"},{"bufferView":191,"componentType":5126,"count":2,"type":"VEC4"},{"bufferView":192,"componentType":5126,"count":2,"type":"VEC3"},{"bufferView":193,"componentType":5126,"count":13,"type":"VEC3"},{"bufferView":194,"componentType":5126,"count":13,"type":"VEC4"},{"bufferView":195,"componentType":5126,"count":2,"type":"VEC3"},{"bufferView":196,"componentType":5126,"count":2,"type":"VEC3"},{"bufferView":197,"componentType":5126,"count":13,"type":"VEC4"},{"bufferView":198,"componentType":5126,"count":2,"type":"VEC3"},{"bufferView":199,"componentType":5126,"count":2,"type":"VEC3"},{"bufferView":200,"componentType":5126,"count":13,"type":"VEC4"},{"bufferView":201,"componentType":5126,"count":2,"type":"VEC3"},{"bufferView":202,"componentType":5126,"count":2,"type":"VEC3"},{"bufferView":203,"componentType":5126,"count":2,"type":"VEC4"},{"bufferView":204,"componentType":5126,"count":2,"type":"VEC3"},{"bufferView":205,"componentType":5126,"count":2,"type":"VEC3"},{"bufferView":206,"componentType":5126,"count":2,"type":"VEC4"},{"bufferView":207,"componentType":5126,"count":2,"type":"VEC3"},{"bufferView":208,"componentType":5126,"count":2,"type":"VEC3"},{"bufferView":209,"componentType":5126,"count":2,"type":"VEC4"},{"bufferView":210,"componentType":5126,"count":2,"type":"VEC3"},{"bufferView":211,"componentType":5126,"count":2,"type":"VEC3"},{"bufferView":212,"componentType":5126,"count":2,"type":"VEC4"},{"bufferView":213,"componentType":5126,"count":2,"type":"VEC3"},{"bufferView":214,"componentType":5126,"count":13,"type":"VEC3"},{"bufferView":215,"componentType":5126,"count":2,"type":"VEC4"},{"bufferView":216,"componentType":5126,"count":2,"type":"VEC3"},{"bufferView":217,"componentType":5126,"count":2,"type":"VEC3"},{"bufferView":218,"componentType":5126,"count":2,"type":"VEC4"},{"bufferView":219,"componentType":5126,"count":2,"type":"VEC3"},{"bufferView":220,"componentType":5126,"count":2,"type":"VEC3"},{"bufferView":221,"componentType":5126,"count":2,"type":"VEC4"},{"bufferView":222,"componentType":5126,"count":2,"type":"VEC3"},{"bufferView":223,"componentType":5126,"count":2,"type":"VEC3"},{"bufferView":224,"componentType":5126,"count":2,"type":"VEC4"},{"bufferView":225,"componentType":5126,"count":13,"type":"VEC3"},{"bufferView":226,"componentType":5126,"count":13,"type":"VEC4"},{"bufferView":227,"componentType":5126,"count":2,"type":"VEC3"},{"bufferView":228,"componentType":5126,"count":2,"type":"VEC4"},{"bufferView":229,"componentType":5126,"count":2,"type":"VEC3"},{"bufferView":230,"componentType":5126,"count":13,"type":"VEC3"},{"bufferView":231,"componentType":5126,"count":13,"type":"VEC4"},{"bufferView":232,"componentType":5126,"count":2,"type":"VEC3"},{"bufferView":233,"componentType":5126,"count":2,"max":[1.375],"min":[0.041666666666666664],"type":"SCALAR"},{"bufferView":234,"componentType":5126,"count":33,"max":[1.375],"min":[0.041666666666666664],"type":"SCALAR"},{"bufferView":235,"componentType":5126,"count":33,"type":"VEC3"},{"bufferView":236,"componentType":5126,"count":33,"type":"VEC4"},{"bufferView":237,"componentType":5126,"count":2,"type":"VEC3"},{"bufferView":238,"componentType":5126,"count":2,"type":"VEC4"},{"bufferView":239,"componentType":5126,"count":33,"type":"VEC3"},{"bufferView":240,"componentType":5126,"count":33,"type":"VEC4"},{"bufferView":241,"componentType":5126,"count":2,"type":"VEC3"},{"bufferView":242,"componentType":5126,"count":2,"type":"VEC3"},{"bufferView":243,"componentType":5126,"count":2,"type":"VEC4"},{"bufferView":244,"componentType":5126,"count":33,"type":"VEC3"},{"bufferView":245,"componentType":5126,"count":33,"type":"VEC3"},{"bufferView":246,"componentType":5126,"count":2,"type":"VEC3"},{"bufferView":247,"componentType":5126,"count":2,"type":"VEC3"},{"bufferView":248,"componentType":5126,"count":33,"type":"VEC4"},{"bufferView":249,"componentType":5126,"count":2,"type":"VEC3"},{"bufferView":250,"componentType":5126,"count":33,"type":"VEC4"},{"bufferView":251,"componentType":5126,"count":2,"type":"VEC3"},{"bufferView":252,"componentType":5126,"count":2,"type":"VEC3"},{"bufferView":253,"componentType":5126,"count":33,"type":"VEC4"},{"bufferView":254,"componentType":5126,"count":2,"type":"VEC3"},{"bufferView":255,"componentType":5126,"count":2,"type":"VEC3"},{"bufferView":256,"componentType":5126,"count":33,"type":"VEC4"},{"bufferView":257,"componentType":5126,"count":2,"type":"VEC3"},{"bufferView":258,"componentType":5126,"count":33,"type":"VEC4"},{"bufferView":259,"componentType":5126,"count":2,"type":"VEC3"},{"bufferView":260,"componentType":5126,"count":2,"type":"VEC3"},{"bufferView":261,"componentType":5126,"count":33,"type":"VEC4"},{"bufferView":262,"componentType":5126,"count":2,"type":"VEC3"},{"bufferView":263,"componentType":5126,"count":2,"type":"VEC4"},{"bufferView":264,"componentType":5126,"count":33,"type":"VEC3"},{"bufferView":265,"componentType":5126,"count":33,"type":"VEC4"},{"bufferView":266,"componentType":5126,"count":2,"type":"VEC3"},{"bufferView":267,"componentType":5126,"count":2,"type":"VEC3"},{"bufferView":268,"componentType":5126,"count":33,"type":"VEC4"},{"bufferView":269,"componentType":5126,"count":2,"type":"VEC3"},{"bufferView":270,"componentType":5126,"count":2,"type":"VEC3"},{"bufferView":271,"componentType":5126,"count":33,"type":"VEC4"},{"bufferView":272,"componentType":5126,"count":2,"type":"VEC3"},{"bufferView":273,"componentType":5126,"count":2,"type":"VEC3"},{"bufferView":274,"componentType":5126,"count":2,"type":"VEC4"},{"bufferView":275,"componentType":5126,"count":2,"type":"VEC3"},{"bufferView":276,"componentType":5126,"count":33,"type":"VEC3"},{"bufferView":277,"componentType":5126,"count":33,"type":"VEC4"},{"bufferView":278,"componentType":5126,"count":2,"type":"VEC3"},{"bufferView":279,"componentType":5126,"count":2,"type":"VEC3"},{"bufferView":280,"componentType":5126,"count":33,"type":"VEC4"},{"bufferView":281,"componentType":5126,"count":2,"type":"VEC3"},{"bufferView":282,"componentType":5126,"count":2,"type":"VEC3"},{"bufferView":283,"componentType":5126,"count":33,"type":"VEC4"},{"bufferView":284,"componentType":5126,"count":2,"type":"VEC3"},{"bufferView":285,"componentType":5126,"count":2,"type":"VEC3"},{"bufferView":286,"componentType":5126,"count":2,"type":"VEC4"},{"bufferView":287,"componentType":5126,"count":2,"type":"VEC3"},{"bufferView":288,"componentType":5126,"count":33,"type":"VEC3"},{"bufferView":289,"componentType":5126,"count":33,"type":"VEC4"},{"bufferView":290,"componentType":5126,"count":2,"type":"VEC3"},{"bufferView":291,"componentType":5126,"count":2,"type":"VEC3"},{"bufferView":292,"componentType":5126,"count":33,"type":"VEC4"},{"bufferView":293,"componentType":5126,"count":2,"type":"VEC3"},{"bufferView":294,"componentType":5126,"count":2,"type":"VEC3"},{"bufferView":295,"componentType":5126,"count":33,"type":"VEC4"},{"bufferView":296,"componentType":5126,"count":2,"type":"VEC3"},{"bufferView":297,"componentType":5126,"count":2,"type":"VEC3"},{"bufferView":298,"componentType":5126,"count":2,"type":"VEC4"},{"bufferView":299,"componentType":5126,"count":2,"type":"VEC3"},{"bufferView":300,"componentType":5126,"count":33,"type":"VEC3"},{"bufferView":301,"componentType":5126,"count":33,"type":"VEC4"},{"bufferView":302,"componentType":5126,"count":2,"type":"VEC3"},{"bufferView":303,"componentType":5126,"count":33,"type":"VEC4"},{"bufferView":304,"componentType":5126,"count":2,"type":"VEC3"},{"bufferView":305,"componentType":5126,"count":2,"type":"VEC3"},{"bufferView":306,"componentType":5126,"count":33,"type":"VEC4"},{"bufferView":307,"componentType":5126,"count":2,"type":"VEC3"},{"bufferView":308,"componentType":5126,"count":2,"type":"VEC3"},{"bufferView":309,"componentType":5126,"count":2,"type":"VEC4"},{"bufferView":310,"componentType":5126,"count":2,"type":"VEC3"},{"bufferView":311,"componentType":5126,"count":2,"type":"VEC3"},{"bufferView":312,"componentType":5126,"count":2,"type":"VEC3"},{"bufferView":313,"componentType":5126,"count":2,"type":"VEC3"},{"bufferView":314,"componentType":5126,"count":2,"type":"VEC3"},{"bufferView":315,"componentType":5126,"count":33,"type":"VEC4"},{"bufferView":316,"componentType":5126,"count":2,"type":"VEC3"},{"bufferView":317,"componentType":5126,"count":2,"type":"VEC3"},{"bufferView":318,"componentType":5126,"count":33,"type":"VEC4"},{"bufferView":319,"componentType":5126,"count":2,"type":"VEC3"},{"bufferView":320,"componentType":5126,"count":2,"type":"VEC3"},{"bufferView":321,"componentType":5126,"count":33,"type":"VEC4"},{"bufferView":322,"componentType":5126,"count":2,"type":"VEC3"},{"bufferView":323,"componentType":5126,"count":2,"type":"VEC3"},{"bufferView":324,"componentType":5126,"count":2,"type":"VEC4"},{"bufferView":325,"componentType":5126,"count":2,"type":"VEC3"},{"bufferView":326,"componentType":5126,"count":33,"type":"VEC3"},{"bufferView":327,"componentType":5126,"count":33,"type":"VEC4"},{"bufferView":328,"componentType":5126,"count":2,"type":"VEC3"},{"bufferView":329,"componentType":5126,"count":2,"type":"VEC4"},{"bufferView":330,"componentType":5126,"count":33,"type":"VEC3"},{"bufferView":331,"componentType":5126,"count":33,"type":"VEC4"},{"bufferView":332,"componentType":5126,"count":2,"type":"VEC3"}],"animations":[{"channels":[{"sampler":0,"target":{"node":41,"path":"translation"}},{"sampler":1,"target":{"node":41,"path":"rotation"}},{"sampler":2,"target":{"node":41,"path":"scale"}},{"sampler":3,"target":{"node":1,"path":"translation"}},{"sampler":4,"target":{"node":1,"path":"rotation"}},{"sampler":5,"target":{"node":1,"path":"scale"}},{"sampler":6,"target":{"node":0,"path":"translation"}},{"sampler":7,"target":{"node":0,"path":"rotation"}},{"sampler":8,"target":{"node":0,"path":"scale"}},{"sampler":9,"target":{"node":3,"path":"translation"}},{"sampler":10,"target":{"node":3,"path":"rotation"}},{"sampler":11,"target":{"node":3,"path":"scale"}},{"sampler":12,"target":{"node":2,"path":"translation"}},{"sampler":13,"target":{"node":2,"path":"rotation"}},{"sampler":14,"target":{"node":2,"path":"scale"}},{"sampler":15,"target":{"node":36,"path":"translation"}},{"sampler":16,"target":{"node":36,"path":"rotation"}},{"sampler":17,"target":{"node":36,"path":"scale"}},{"sampler":18,"target":{"node":12,"path":"translation"}},{"sampler":19,"target":{"node":12,"path":"rotation"}},{"sampler":20,"target":{"node":12,"path":"scale"}},{"sampler":21,"target":{"node":11,"path":"translation"}},{"sampler":22,"target":{"node":11,"path":"rotation"}},{"sampler":23,"target":{"node":11,"path":"scale"}},{"sampler":24,"target":{"node":10,"path":"translation"}},{"sampler":25,"target":{"node":10,"path":"rotation"}},{"sampler":26,"target":{"node":10,"path":"scale"}},{"sampler":27,"target":{"node":9,"path":"translation"}},{"sampler":28,"target":{"node":9,"path":"rotation"}},{"sampler":29,"target":{"node":9,"path":"scale"}},{"sampler":30,"target":{"node":8,"path":"translation"}},{"sampler":31,"target":{"node":8,"path":"rotation"}},{"sampler":32,"target":{"node":8,"path":"scale"}},{"sampler":33,"target":{"node":7,"path":"translation"}},{"sampler":34,"target":{"node":7,"path":"rotation"}},{"sampler":35,"target":{"node":7,"path":"scale"}},{"sampler":36,"target":{"node":6,"path":"translation"}},{"sampler":37,"target":{"node":6,"path":"rotation"}},{"sampler":38,"target":{"node":6,"path":"scale"}},{"sampler":39,"target":{"node":5,"path":"translation"}},{"sampler":40,"target":{"node":5,"path":"rotation"}},{"sampler":41,"target":{"node":5,"path":"scale"}},{"sampler":42,"target":{"node":4,"path":"translation"}},{"sampler":43,"target":{"node":4,"path":"rotation"}},{"sampler":44,"target":{"node":4,"path":"scale"}},{"sampler":45,"target":{"node":16,"path":"translation"}},{"sampler":46,"target":{"node":16,"path":"rotation"}},{"sampler":47,"target":{"node":16,"path":"scale"}},{"sampler":48,"target":{"node":15,"path":"translation"}},{"sampler":49,"target":{"node":15,"path":"rotation"}},{"sampler":50,"target":{"node":15,"path":"scale"}},{"sampler":51,"target":{"node":14,"path":"translation"}},{"sampler":52,"target":{"node":14,"path":"rotation"}},{"sampler":53,"target":{"node":14,"path":"scale"}},{"sampler":54,"target":{"node":13,"path":"translation"}},{"sampler":55,"target":{"node":13,"path":"rotation"}},{"sampler":56,"target":{"node":13,"path":"scale"}},{"sampler":57,"target":{"node":20,"path":"translation"}},{"sampler":58,"target":{"node":20,"path":"rotation"}},{"sampler":59,"target":{"node":20,"path":"scale"}},{"sampler":60,"target":{"node":19,"path":"translation"}},{"sampler":61,"target":{"node":19,"path":"rotation"}},{"sampler":62,"target":{"node":19,"path":"scale"}},{"sampler":63,"target":{"node":18,"path":"translation"}},{"sampler":64,"target":{"node":18,"path":"rotation"}},{"sampler":65,"target":{"node":18,"path":"scale"}},{"sampler":66,"target":{"node":17,"path":"translation"}},{"sampler":67,"target":{"node":17,"path":"rotation"}},{"sampler":68,"target":{"node":17,"path":"scale"}},{"sampler":69,"target":{"node":24,"path":"translation"}},{"sampler":70,"target":{"node":24,"path":"rotation"}},{"sampler":71,"target":{"node":24,"path":"scale"}},{"sampler":72,"target":{"node":23,"path":"translation"}},{"sampler":73,"target":{"node":23,"path":"rotation"}},{"sampler":74,"target":{"node":23,"path":"scale"}},{"sampler":75,"target":{"node":22,"path":"translation"}},{"sampler":76,"target":{"node":22,"path":"rotation"}},{"sampler":77,"target":{"node":22,"path":"scale"}},{"sampler":78,"target":{"node":21,"path":"translation"}},{"sampler":79,"target":{"node":21,"path":"rotation"}},{"sampler":80,"target":{"node":21,"path":"scale"}},{"sampler":81,"target":{"node":28,"path":"translation"}},{"sampler":82,"target":{"node":28,"path":"rotation"}},{"sampler":83,"target":{"node":28,"path":"scale"}},{"sampler":84,"target":{"node":27,"path":"translation"}},{"sampler":85,"target":{"node":27,"path":"rotation"}},{"sampler":86,"target":{"node":27,"path":"scale"}},{"sampler":87,"target":{"node":26,"path":"translation"}},{"sampler":88,"target":{"node":26,"path":"rotation"}},{"sampler":89,"target":{"node":26,"path":"scale"}},{"sampler":90,"target":{"node":25,"path":"translation"}},{"sampler":91,"target":{"node":25,"path":"rotation"}},{"sampler":92,"target":{"node":25,"path":"scale"}},{"sampler":93,"target":{"node":31,"path":"translation"}},{"sampler":94,"target":{"node":31,"path":"rotation"}},{"sampler":95,"target":{"node":31,"path":"scale"}},{"sampler":96,"target":{"node":30,"path":"translation"}},{"sampler":97,"target":{"node":30,"path":"rotation"}},{"sampler":98,"target":{"node":30,"path":"scale"}},{"sampler":99,"target":{"node":29,"path":"translation"}},{"sampler":100,"target":{"node":29,"path":"rotation"}},{"sampler":101,"target":{"node":29,"path":"scale"}},{"sampler":102,"target":{"node":35,"path":"translation"}},{"sampler":103,"target":{"node":35,"path":"rotation"}},{"sampler":104,"target":{"node":35,"path":"scale"}},{"sampler":105,"target":{"node":34,"path":"translation"}},{"sampler":106,"target":{"node":34,"path":"rotation"}},{"sampler":107,"target":{"node":34,"path":"scale"}},{"sampler":108,"target":{"node":33,"path":"translation"}},{"sampler":109,"target":{"node":33,"path":"rotation"}},{"sampler":110,"target":{"node":33,"path":"scale"}},{"sampler":111,"target":{"node":32,"path":"translation"}},{"sampler":112,"target":{"node":32,"path":"rotation"}},{"sampler":113,"target":{"node":32,"path":"scale"}},{"sampler":114,"target":{"node":38,"path":"translation"}},{"sampler":115,"target":{"node":38,"path":"rotation"}},{"sampler":116,"target":{"node":38,"path":"scale"}},{"sampler":117,"target":{"node":37,"path":"translation"}},{"sampler":118,"target":{"node":37,"path":"rotation"}},{"sampler":119,"target":{"node":37,"path":"scale"}},{"sampler":120,"target":{"node":40,"path":"translation"}},{"sampler":121,"target":{"node":40,"path":"rotation"}},{"sampler":122,"target":{"node":40,"path":"scale"}},{"sampler":123,"target":{"node":39,"path":"translation"}},{"sampler":124,"target":{"node":39,"path":"rotation"}},{"sampler":125,"target":{"node":39,"path":"scale"}}],"name":"idle","samplers":[{"input":11,"interpolation":"STEP","output":12},{"input":11,"interpolation":"STEP","output":13},{"input":11,"interpolation":"STEP","output":14},{"input":11,"interpolation":"STEP","output":15},{"input":11,"interpolation":"STEP","output":16},{"input":11,"interpolation":"STEP","output":14},{"input":11,"interpolation":"STEP","output":17},{"input":11,"interpolation":"STEP","output":18},{"input":11,"interpolation":"STEP","output":14},{"input":11,"interpolation":"STEP","output":19},{"input":11,"interpolation":"STEP","output":20},{"input":11,"interpolation":"STEP","output":14},{"input":11,"interpolation":"STEP","output":21},{"input":11,"interpolation":"STEP","output":22},{"input":11,"interpolation":"STEP","output":14},{"input":23,"interpolation":"LINEAR","output":24},{"input":11,"interpolation":"STEP","output":25},{"input":11,"interpolation":"STEP","output":14},{"input":11,"interpolation":"STEP","output":26},{"input":11,"interpolation":"STEP","output":27},{"input":11,"interpolation":"STEP","output":28},{"input":11,"interpolation":"STEP","output":29},{"input":11,"interpolation":"STEP","output":30},{"input":11,"interpolation":"STEP","output":31},{"input":11,"interpolation":"STEP","output":32},{"input":11,"interpolation":"STEP","output":33},{"input":11,"interpolation":"STEP","output":34},{"input":11,"interpolation":"STEP","output":35},{"input":23,"interpolation":"LINEAR","output":36},{"input":11,"interpolation":"STEP","output":37},{"input":11,"interpolation":"STEP","output":38},{"input":23,"interpolation":"LINEAR","output":39},{"input":11,"interpolation":"STEP","output":40},{"input":11,"interpolation":"STEP","output":41},{"input":23,"interpolation":"LINEAR","output":42},{"input":11,"interpolation":"STEP","output":43},{"input":11,"interpolation":"STEP","output":44},{"input":11,"interpolation":"STEP","output":45},{"input":11,"interpolation":"STEP","output":46},{"input":11,"interpolation":"STEP","output":47},{"input":23,"interpolation":"LINEAR","output":48},{"input":11,"interpolation":"STEP","output":49},{"input":11,"interpolation":"STEP","output":50},{"input":11,"interpolation":"STEP","output":51},{"input":11,"interpolation":"STEP","output":14},{"input":11,"interpolation":"STEP","output":52},{"input":23,"interpolation":"LINEAR","output":53},{"input":11,"interpolation":"STEP","output":14},{"input":11,"interpolation":"STEP","output":54},{"input":23,"interpolation":"LINEAR","output":55},{"input":11,"interpolation":"STEP","output":56},{"input":11,"interpolation":"STEP","output":57},{"input":23,"interpolation":"LINEAR","output":58},{"input":11,"interpolation":"STEP","output":59},{"input":11,"interpolation":"STEP","output":60},{"input":11,"interpolation":"STEP","output":61},{"input":11,"interpolation":"STEP","output":14},{"input":11,"interpolation":"STEP","output":62},{"input":23,"interpolation":"LINEAR","output":63},{"input":11,"interpolation":"STEP","output":64},{"input":11,"interpolation":"STEP","output":65},{"input":23,"interpolation":"LINEAR","output":66},{"input":11,"interpolation":"STEP","output":67},{"input":11,"interpolation":"STEP","output":68},{"input":23,"interpolation":"LINEAR","output":69},{"input":11,"interpolation":"STEP","output":70},{"input":11,"interpolation":"STEP","output":71},{"input":11,"interpolation":"STEP","output":72},{"input":11,"interpolation":"STEP","output":49},{"input":11,"interpolation":"STEP","output":73},{"input":23,"interpolation":"LINEAR","output":74},{"input":11,"interpolation":"STEP","output":14},{"input":11,"interpolation":"STEP","output":75},{"input":11,"interpolation":"STEP","output":76},{"input":11,"interpolation":"STEP","output":77},{"input":11,"interpolation":"STEP","output":78},{"input":23,"interpolation":"LINEAR","output":79},{"input":11,"interpolation":"STEP","output":80},{"input":11,"interpolation":"STEP","output":81},{"input":11,"interpolation":"STEP","output":82},{"input":11,"interpolation":"STEP","output":14},{"input":11,"interpolation":"STEP","output":83},{"input":23,"interpolation":"LINEAR","output":84},{"input":11,"interpolation":"STEP","output":14},{"input":11,"interpolation":"STEP","output":85},{"input":11,"interpolation":"STEP","output":86},{"input":11,"interpolation":"STEP","output":87},{"input":11,"interpolation":"STEP","output":88},{"input":23,"interpolation":"LINEAR","output":89},{"input":11,"interpolation":"STEP","output":90},{"input":11,"interpolation":"STEP","output":91},{"input":11,"interpolation":"STEP","output":92},{"input":11,"interpolation":"STEP","output":14},{"input":11,"interpolation":"STEP","output":93},{"input":11,"interpolation":"STEP","output":94},{"input":11,"interpolation":"STEP","output":95},{"input":11,"interpolation":"STEP","output":96},{"input":11,"interpolation":"STEP","output":97},{"input":11,"interpolation":"STEP","output":98},{"input":11,"interpolation":"STEP","output":99},{"input":11,"interpolation":"STEP","output":100},{"input":11,"interpolation":"STEP","output":14},{"input":11,"interpolation":"STEP","output":101},{"input":11,"interpolation":"STEP","output":102},{"input":11,"interpolation":"STEP","output":103},{"input":11,"interpolation":"STEP","output":104},{"input":23,"interpolation":"LINEAR","output":105},{"input":11,"interpolation":"STEP","output":106},{"input":11,"interpolation":"STEP","output":107},{"input":11,"interpolation":"STEP","output":108},{"input":11,"interpolation":"STEP","output":109},{"input":11,"interpolation":"STEP","output":110},{"input":11,"interpolation":"STEP","output":111},{"input":11,"interpolation":"STEP","output":112},{"input":11,"interpolation":"STEP","output":113},{"input":11,"interpolation":"STEP","output":114},{"input":11,"interpolation":"STEP","output":14},{"input":11,"interpolation":"STEP","output":115},{"input":11,"interpolation":"STEP","output":116},{"input":11,"interpolation":"STEP","output":14},{"input":11,"interpolation":"STEP","output":117},{"input":11,"interpolation":"STEP","output":118},{"input":11,"interpolation":"STEP","output":14},{"input":11,"interpolation":"STEP","output":119},{"input":11,"interpolation":"STEP","output":120},{"input":11,"interpolation":"STEP","output":14}]},{"channels":[{"sampler":0,"target":{"node":41,"path":"translation"}},{"sampler":1,"target":{"node":41,"path":"rotation"}},{"sampler":2,"target":{"node":41,"path":"scale"}},{"sampler":3,"target":{"node":1,"path":"translation"}},{"sampler":4,"target":{"node":1,"path":"rotation"}},{"sampler":5,"target":{"node":1,"path":"scale"}},{"sampler":6,"target":{"node":0,"path":"translation"}},{"sampler":7,"target":{"node":0,"path":"rotation"}},{"sampler":8,"target":{"node":0,"path":"scale"}},{"sampler":9,"target":{"node":3,"path":"translation"}},{"sampler":10,"target":{"node":3,"path":"rotation"}},{"sampler":11,"target":{"node":3,"path":"scale"}},{"sampler":12,"target":{"node":2,"path":"translation"}},{"sampler":13,"target":{"node":2,"path":"rotation"}},{"sampler":14,"target":{"node":2,"path":"scale"}},{"sampler":15,"target":{"node":36,"path":"translation"}},{"sampler":16,"target":{"node":36,"path":"rotation"}},{"sampler":17,"target":{"node":36,"path":"scale"}},{"sampler":18,"target":{"node":12,"path":"translation"}},{"sampler":19,"target":{"node":12,"path":"rotation"}},{"sampler":20,"target":{"node":12,"path":"scale"}},{"sampler":21,"target":{"node":11,"path":"translation"}},{"sampler":22,"target":{"node":11,"path":"rotation"}},{"sampler":23,"target":{"node":11,"path":"scale"}},{"sampler":24,"target":{"node":10,"path":"translation"}},{"sampler":25,"target":{"node":10,"path":"rotation"}},{"sampler":26,"target":{"node":10,"path":"scale"}},{"sampler":27,"target":{"node":9,"path":"translation"}},{"sampler":28,"target":{"node":9,"path":"rotation"}},{"sampler":29,"target":{"node":9,"path":"scale"}},{"sampler":30,"target":{"node":8,"path":"translation"}},{"sampler":31,"target":{"node":8,"path":"rotation"}},{"sampler":32,"target":{"node":8,"path":"scale"}},{"sampler":33,"target":{"node":7,"path":"translation"}},{"sampler":34,"target":{"node":7,"path":"rotation"}},{"sampler":35,"target":{"node":7,"path":"scale"}},{"sampler":36,"target":{"node":6,"path":"translation"}},{"sampler":37,"target":{"node":6,"path":"rotation"}},{"sampler":38,"target":{"node":6,"path":"scale"}},{"sampler":39,"target":{"node":5,"path":"translation"}},{"sampler":40,"target":{"node":5,"path":"rotation"}},{"sampler":41,"target":{"node":5,"path":"scale"}},{"sampler":42,"target":{"node":4,"path":"translation"}},{"sampler":43,"target":{"node":4,"path":"rotation"}},{"sampler":44,"target":{"node":4,"path":"scale"}},{"sampler":45,"target":{"node":16,"path":"translation"}},{"sampler":46,"target":{"node":16,"path":"rotation"}},{"sampler":47,"target":{"node":16,"path":"scale"}},{"sampler":48,"target":{"node":15,"path":"translation"}},{"sampler":49,"target":{"node":15,"path":"rotation"}},{"sampler":50,"target":{"node":15,"path":"scale"}},{"sampler":51,"target":{"node":14,"path":"translation"}},{"sampler":52,"target":{"node":14,"path":"rotation"}},{"sampler":53,"target":{"node":14,"path":"scale"}},{"sampler":54,"target":{"node":13,"path":"translation"}},{"sampler":55,"target":{"node":13,"path":"rotation"}},{"sampler":56,"target":{"node":13,"path":"scale"}},{"sampler":57,"target":{"node":20,"path":"translation"}},{"sampler":58,"target":{"node":20,"path":"rotation"}},{"sampler":59,"target":{"node":20,"path":"scale"}},{"sampler":60,"target":{"node":19,"path":"translation"}},{"sampler":61,"target":{"node":19,"path":"rotation"}},{"sampler":62,"target":{"node":19,"path":"scale"}},{"sampler":63,"target":{"node":18,"path":"translation"}},{"sampler":64,"target":{"node":18,"path":"rotation"}},{"sampler":65,"target":{"node":18,"path":"scale"}},{"sampler":66,"target":{"node":17,"path":"translation"}},{"sampler":67,"target":{"node":17,"path":"rotation"}},{"sampler":68,"target":{"node":17,"path":"scale"}},{"sampler":69,"target":{"node":24,"path":"translation"}},{"sampler":70,"target":{"node":24,"path":"rotation"}},{"sampler":71,"target":{"node":24,"path":"scale"}},{"sampler":72,"target":{"node":23,"path":"translation"}},{"sampler":73,"target":{"node":23,"path":"rotation"}},{"sampler":74,"target":{"node":23,"path":"scale"}},{"sampler":75,"target":{"node":22,"path":"translation"}},{"sampler":76,"target":{"node":22,"path":"rotation"}},{"sampler":77,"target":{"node":22,"path":"scale"}},{"sampler":78,"target":{"node":21,"path":"translation"}},{"sampler":79,"target":{"node":21,"path":"rotation"}},{"sampler":80,"target":{"node":21,"path":"scale"}},{"sampler":81,"target":{"node":28,"path":"translation"}},{"sampler":82,"target":{"node":28,"path":"rotation"}},{"sampler":83,"target":{"node":28,"path":"scale"}},{"sampler":84,"target":{"node":27,"path":"translation"}},{"sampler":85,"target":{"node":27,"path":"rotation"}},{"sampler":86,"target":{"node":27,"path":"scale"}},{"sampler":87,"target":{"node":26,"path":"translation"}},{"sampler":88,"target":{"node":26,"path":"rotation"}},{"sampler":89,"target":{"node":26,"path":"scale"}},{"sampler":90,"target":{"node":25,"path":"translation"}},{"sampler":91,"target":{"node":25,"path":"rotation"}},{"sampler":92,"target":{"node":25,"path":"scale"}},{"sampler":93,"target":{"node":31,"path":"translation"}},{"sampler":94,"target":{"node":31,"path":"rotation"}},{"sampler":95,"target":{"node":31,"path":"scale"}},{"sampler":96,"target":{"node":30,"path":"translation"}},{"sampler":97,"target":{"node":30,"path":"rotation"}},{"sampler":98,"target":{"node":30,"path":"scale"}},{"sampler":99,"target":{"node":29,"path":"translation"}},{"sampler":100,"target":{"node":29,"path":"rotation"}},{"sampler":101,"target":{"node":29,"path":"scale"}},{"sampler":102,"target":{"node":35,"path":"translation"}},{"sampler":103,"target":{"node":35,"path":"rotation"}},{"sampler":104,"target":{"node":35,"path":"scale"}},{"sampler":105,"target":{"node":34,"path":"translation"}},{"sampler":106,"target":{"node":34,"path":"rotation"}},{"sampler":107,"target":{"node":34,"path":"scale"}},{"sampler":108,"target":{"node":33,"path":"translation"}},{"sampler":109,"target":{"node":33,"path":"rotation"}},{"sampler":110,"target":{"node":33,"path":"scale"}},{"sampler":111,"target":{"node":32,"path":"translation"}},{"sampler":112,"target":{"node":32,"path":"rotation"}},{"sampler":113,"target":{"node":32,"path":"scale"}},{"sampler":114,"target":{"node":38,"path":"translation"}},{"sampler":115,"target":{"node":38,"path":"rotation"}},{"sampler":116,"target":{"node":38,"path":"scale"}},{"sampler":117,"target":{"node":37,"path":"translation"}},{"sampler":118,"target":{"node":37,"path":"rotation"}},{"sampler":119,"target":{"node":37,"path":"scale"}},{"sampler":120,"target":{"node":40,"path":"translation"}},{"sampler":121,"target":{"node":40,"path":"rotation"}},{"sampler":122,"target":{"node":40,"path":"scale"}},{"sampler":123,"target":{"node":39,"path":"translation"}},{"sampler":124,"target":{"node":39,"path":"rotation"}},{"sampler":125,"target":{"node":39,"path":"scale"}}],"name":"run","samplers":[{"input":121,"interpolation":"STEP","output":12},{"input":121,"interpolation":"STEP","output":13},{"input":121,"interpolation":"STEP","output":14},{"input":122,"interpolation":"LINEAR","output":123},{"input":122,"interpolation":"LINEAR","output":124},{"input":121,"interpolation":"STEP","output":49},{"input":121,"interpolation":"STEP","output":125},{"input":121,"interpolation":"STEP","output":126},{"input":121,"interpolation":"STEP","output":14},{"input":122,"interpolation":"LINEAR","output":127},{"input":122,"interpolation":"LINEAR","output":128},{"input":121,"interpolation":"STEP","output":14},{"input":121,"interpolation":"STEP","output":129},{"input":121,"interpolation":"STEP","output":130},{"input":121,"interpolation":"STEP","output":14},{"input":122,"interpolation":"LINEAR","output":131},{"input":121,"interpolation":"LINEAR","output":132},{"input":121,"interpolation":"STEP","output":14},{"input":122,"interpolation":"LINEAR","output":133},{"input":122,"interpolation":"LINEAR","output":134},{"input":121,"interpolation":"STEP","output":135},{"input":121,"interpolation":"LINEAR","output":136},{"input":121,"interpolation":"LINEAR","output":137},{"input":121,"interpolation":"STEP","output":138},{"input":121,"interpolation":"LINEAR","output":139},{"input":122,"interpolation":"LINEAR","output":140},{"input":121,"interpolation":"LINEAR","output":141},{"input":121,"interpolation":"LINEAR","output":142},{"input":122,"interpolation":"LINEAR","output":143},{"input":121,"interpolation":"STEP","output":144},{"input":121,"interpolation":"LINEAR","output":145},{"input":122,"interpolation":"LINEAR","output":146},{"input":121,"interpolation":"STEP","output":67},{"input":121,"interpolation":"LINEAR","output":147},{"input":122,"interpolation":"LINEAR","output":148},{"input":121,"interpolation":"LINEAR","output":149},{"input":121,"interpolation":"LINEAR","output":150},{"input":122,"interpolation":"LINEAR","output":151},{"input":121,"interpolation":"STEP","output":152},{"input":121,"interpolation":"LINEAR","output":153},{"input":122,"interpolation":"LINEAR","output":154},{"input":121,"interpolation":"LINEAR","output":155},{"input":121,"interpolation":"STEP","output":156},{"input":121,"interpolation":"STEP","output":157},{"input":121,"interpolation":"STEP","output":14},{"input":122,"interpolation":"LINEAR","output":158},{"input":122,"interpolation":"LINEAR","output":159},{"input":121,"interpolation":"STEP","output":160},{"input":121,"interpolation":"LINEAR","output":161},{"input":122,"interpolation":"LINEAR","output":162},{"input":121,"interpolation":"LINEAR","output":163},{"input":121,"interpolation":"LINEAR","output":164},{"input":122,"interpolation":"LINEAR","output":165},{"input":121,"interpolation":"LINEAR","output":166},{"input":121,"interpolation":"STEP","output":167},{"input":121,"interpolation":"STEP","output":168},{"input":121,"interpolation":"STEP","output":169},{"input":122,"interpolation":"LINEAR","output":170},{"input":122,"interpolation":"LINEAR","output":171},{"input":121,"interpolation":"STEP","output":172},{"input":121,"interpolation":"LINEAR","output":173},{"input":122,"interpolation":"LINEAR","output":174},{"input":121,"interpolation":"LINEAR","output":175},{"input":121,"interpolation":"LINEAR","output":176},{"input":122,"interpolation":"LINEAR","output":177},{"input":121,"interpolation":"LINEAR","output":178},{"input":121,"interpolation":"STEP","output":179},{"input":121,"interpolation":"STEP","output":180},{"input":121,"interpolation":"STEP","output":181},{"input":122,"interpolation":"LINEAR","output":182},{"input":122,"interpolation":"LINEAR","output":183},{"input":121,"interpolation":"STEP","output":14},{"input":121,"interpolation":"LINEAR","output":184},{"input":122,"interpolation":"LINEAR","output":185},{"input":121,"interpolation":"LINEAR","output":186},{"input":121,"interpolation":"LINEAR","output":187},{"input":122,"interpolation":"LINEAR","output":188},{"input":121,"interpolation":"LINEAR","output":189},{"input":121,"interpolation":"STEP","output":190},{"input":121,"interpolation":"STEP","output":191},{"input":121,"interpolation":"STEP","output":192},{"input":122,"interpolation":"LINEAR","output":193},{"input":122,"interpolation":"LINEAR","output":194},{"input":121,"interpolation":"STEP","output":195},{"input":121,"interpolation":"LINEAR","output":196},{"input":122,"interpolation":"LINEAR","output":197},{"input":121,"interpolation":"STEP","output":198},{"input":121,"interpolation":"LINEAR","output":199},{"input":122,"interpolation":"LINEAR","output":200},{"input":121,"interpolation":"LINEAR","output":201},{"input":121,"interpolation":"STEP","output":202},{"input":121,"interpolation":"STEP","output":203},{"input":121,"interpolation":"STEP","output":204},{"input":121,"interpolation":"LINEAR","output":205},{"input":121,"interpolation":"LINEAR","output":206},{"input":121,"interpolation":"LINEAR","output":207},{"input":121,"interpolation":"LINEAR","output":208},{"input":121,"interpolation":"LINEAR","output":209},{"input":121,"interpolation":"STEP","output":210},{"input":121,"interpolation":"STEP","output":211},{"input":121,"interpolation":"STEP","output":212},{"input":121,"interpolation":"STEP","output":213},{"input":122,"interpolation":"LINEAR","output":214},{"input":121,"interpolation":"LINEAR","output":215},{"input":121,"interpolation":"LINEAR","output":216},{"input":121,"interpolation":"LINEAR","output":217},{"input":121,"interpolation":"LINEAR","output":218},{"input":121,"interpolation":"LINEAR","output":219},{"input":121,"interpolation":"LINEAR","output":220},{"input":121,"interpolation":"LINEAR","output":221},{"input":121,"interpolation":"LINEAR","output":222},{"input":121,"interpolation":"STEP","output":223},{"input":121,"interpolation":"STEP","output":224},{"input":121,"interpolation":"STEP","output":14},{"input":122,"interpolation":"LINEAR","output":225},{"input":122,"interpolation":"LINEAR","output":226},{"input":121,"interpolation":"STEP","output":14},{"input":121,"interpolation":"STEP","output":227},{"input":121,"interpolation":"STEP","output":228},{"input":121,"interpolation":"STEP","output":229},{"input":122,"interpolation":"LINEAR","output":230},{"input":122,"interpolation":"LINEAR","output":231},{"input":121,"interpolation":"STEP","output":14},{"input":121,"interpolation":"STEP","output":232},{"input":121,"interpolation":"STEP","output":120},{"input":121,"interpolation":"STEP","output":14}]},{"channels":[{"sampler":0,"target":{"node":41,"path":"translation"}},{"sampler":1,"target":{"node":41,"path":"rotation"}},{"sampler":2,"target":{"node":41,"path":"scale"}},{"sampler":3,"target":{"node":1,"path":"translation"}},{"sampler":4,"target":{"node":1,"path":"rotation"}},{"sampler":5,"target":{"node":1,"path":"scale"}},{"sampler":6,"target":{"node":0,"path":"translation"}},{"sampler":7,"target":{"node":0,"path":"rotation"}},{"sampler":8,"target":{"node":0,"path":"scale"}},{"sampler":9,"target":{"node":3,"path":"translation"}},{"sampler":10,"target":{"node":3,"path":"rotation"}},{"sampler":11,"target":{"node":3,"path":"scale"}},{"sampler":12,"target":{"node":2,"path":"translation"}},{"sampler":13,"target":{"node":2,"path":"rotation"}},{"sampler":14,"target":{"node":2,"path":"scale"}},{"sampler":15,"target":{"node":36,"path":"translation"}},{"sampler":16,"target":{"node":36,"path":"rotation"}},{"sampler":17,"target":{"node":36,"path":"scale"}},{"sampler":18,"target":{"node":12,"path":"translation"}},{"sampler":19,"target":{"node":12,"path":"rotation"}},{"sampler":20,"target":{"node":12,"path":"scale"}},{"sampler":21,"target":{"node":11,"path":"translation"}},{"sampler":22,"target":{"node":11,"path":"rotation"}},{"sampler":23,"target":{"node":11,"path":"scale"}},{"sampler":24,"target":{"node":10,"path":"translation"}},{"sampler":25,"target":{"node":10,"path":"rotation"}},{"sampler":26,"target":{"node":10,"path":"scale"}},{"sampler":27,"target":{"node":9,"path":"translation"}},{"sampler":28,"target":{"node":9,"path":"rotation"}},{"sampler":29,"target":{"node":9,"path":"scale"}},{"sampler":30,"target":{"node":8,"path":"translation"}},{"sampler":31,"target":{"node":8,"path":"rotation"}},{"sampler":32,"target":{"node":8,"path":"scale"}},{"sampler":33,"target":{"node":7,"path":"translation"}},{"sampler":34,"target":{"node":7,"path":"rotation"}},{"sampler":35,"target":{"node":7,"path":"scale"}},{"sampler":36,"target":{"node":6,"path":"translation"}},{"sampler":37,"target":{"node":6,"path":"rotation"}},{"sampler":38,"target":{"node":6,"path":"scale"}},{"sampler":39,"target":{"node":5,"path":"translation"}},{"sampler":40,"target":{"node":5,"path":"rotation"}},{"sampler":41,"target":{"node":5,"path":"scale"}},{"sampler":42,"target":{"node":4,"path":"translation"}},{"sampler":43,"target":{"node":4,"path":"rotation"}},{"sampler":44,"target":{"node":4,"path":"scale"}},{"sampler":45,"target":{"node":16,"path":"translation"}},{"sampler":46,"target":{"node":16,"path":"rotation"}},{"sampler":47,"target":{"node":16,"path":"scale"}},{"sampler":48,"target":{"node":15,"path":"translation"}},{"sampler":49,"target":{"node":15,"path":"rotation"}},{"sampler":50,"target":{"node":15,"path":"scale"}},{"sampler":51,"target":{"node":14,"path":"translation"}},{"sampler":52,"target":{"node":14,"path":"rotation"}},{"sampler":53,"target":{"node":14,"path":"scale"}},{"sampler":54,"target":{"node":13,"path":"translation"}},{"sampler":55,"target":{"node":13,"path":"rotation"}},{"sampler":56,"target":{"node":13,"path":"scale"}},{"sampler":57,"target":{"node":20,"path":"translation"}},{"sampler":58,"target":{"node":20,"path":"rotation"}},{"sampler":59,"target":{"node":20,"path":"scale"}},{"sampler":60,"target":{"node":19,"path":"translation"}},{"sampler":61,"target":{"node":19,"path":"rotation"}},{"sampler":62,"target":{"node":19,"path":"scale"}},{"sampler":63,"target":{"node":18,"path":"translation"}},{"sampler":64,"target":{"node":18,"path":"rotation"}},{"sampler":65,"target":{"node":18,"path":"scale"}},{"sampler":66,"target":{"node":17,"path":"translation"}},{"sampler":67,"target":{"node":17,"path":"rotation"}},{"sampler":68,"target":{"node":17,"path":"scale"}},{"sampler":69,"target":{"node":24,"path":"translation"}},{"sampler":70,"target":{"node":24,"path":"rotation"}},{"sampler":71,"target":{"node":24,"path":"scale"}},{"sampler":72,"target":{"node":23,"path":"translation"}},{"sampler":73,"target":{"node":23,"path":"rotation"}},{"sampler":74,"target":{"node":23,"path":"scale"}},{"sampler":75,"target":{"node":22,"path":"translation"}},{"sampler":76,"target":{"node":22,"path":"rotation"}},{"sampler":77,"target":{"node":22,"path":"scale"}},{"sampler":78,"target":{"node":21,"path":"translation"}},{"sampler":79,"target":{"node":21,"path":"rotation"}},{"sampler":80,"target":{"node":21,"path":"scale"}},{"sampler":81,"target":{"node":28,"path":"translation"}},{"sampler":82,"target":{"node":28,"path":"rotation"}},{"sampler":83,"target":{"node":28,"path":"scale"}},{"sampler":84,"target":{"node":27,"path":"translation"}},{"sampler":85,"target":{"node":27,"path":"rotation"}},{"sampler":86,"target":{"node":27,"path":"scale"}},{"sampler":87,"target":{"node":26,"path":"translation"}},{"sampler":88,"target":{"node":26,"path":"rotation"}},{"sampler":89,"target":{"node":26,"path":"scale"}},{"sampler":90,"target":{"node":25,"path":"translation"}},{"sampler":91,"target":{"node":25,"path":"rotation"}},{"sampler":92,"target":{"node":25,"path":"scale"}},{"sampler":93,"target":{"node":31,"path":"translation"}},{"sampler":94,"target":{"node":31,"path":"rotation"}},{"sampler":95,"target":{"node":31,"path":"scale"}},{"sampler":96,"target":{"node":30,"path":"translation"}},{"sampler":97,"target":{"node":30,"path":"rotation"}},{"sampler":98,"target":{"node":30,"path":"scale"}},{"sampler":99,"target":{"node":29,"path":"translation"}},{"sampler":100,"target":{"node":29,"path":"rotation"}},{"sampler":101,"target":{"node":29,"path":"scale"}},{"sampler":102,"target":{"node":35,"path":"translation"}},{"sampler":103,"target":{"node":35,"path":"rotation"}},{"sampler":104,"target":{"node":35,"path":"scale"}},{"sampler":105,"target":{"node":34,"path":"translation"}},{"sampler":106,"target":{"node":34,"path":"rotation"}},{"sampler":107,"target":{"node":34,"path":"scale"}},{"sampler":108,"target":{"node":33,"path":"translation"}},{"sampler":109,"target":{"node":33,"path":"rotation"}},{"sampler":110,"target":{"node":33,"path":"scale"}},{"sampler":111,"target":{"node":32,"path":"translation"}},{"sampler":112,"target":{"node":32,"path":"rotation"}},{"sampler":113,"target":{"node":32,"path":"scale"}},{"sampler":114,"target":{"node":38,"path":"translation"}},{"sampler":115,"target":{"node":38,"path":"rotation"}},{"sampler":116,"target":{"node":38,"path":"scale"}},{"sampler":117,"target":{"node":37,"path":"translation"}},{"sampler":118,"target":{"node":37,"path":"rotation"}},{"sampler":119,"target":{"node":37,"path":"scale"}},{"sampler":120,"target":{"node":40,"path":"translation"}},{"sampler":121,"target":{"node":40,"path":"rotation"}},{"sampler":122,"target":{"node":40,"path":"scale"}},{"sampler":123,"target":{"node":39,"path":"translation"}},{"sampler":124,"target":{"node":39,"path":"rotation"}},{"sampler":125,"target":{"node":39,"path":"scale"}}],"name":"walk","samplers":[{"input":233,"interpolation":"STEP","output":12},{"input":233,"interpolation":"STEP","output":13},{"input":233,"interpolation":"STEP","output":14},{"input":234,"interpolation":"LINEAR","output":235},{"input":234,"interpolation":"LINEAR","output":236},{"input":233,"interpolation":"STEP","output":14},{"input":233,"interpolation":"STEP","output":237},{"input":233,"interpolation":"STEP","output":238},{"input":233,"interpolation":"STEP","output":14},{"input":234,"interpolation":"LINEAR","output":239},{"input":234,"interpolation":"LINEAR","output":240},{"input":233,"interpolation":"STEP","output":241},{"input":233,"interpolation":"STEP","output":242},{"input":233,"interpolation":"STEP","output":243},{"input":233,"interpolation":"STEP","output":14},{"input":234,"interpolation":"LINEAR","output":244},{"input":233,"interpolation":"STEP","output":25},{"input":233,"interpolation":"STEP","output":14},{"input":234,"interpolation":"LINEAR","output":245},{"input":233,"interpolation":"STEP","output":27},{"input":233,"interpolation":"STEP","output":28},{"input":233,"interpolation":"LINEAR","output":246},{"input":233,"interpolation":"STEP","output":30},{"input":233,"interpolation":"STEP","output":31},{"input":233,"interpolation":"LINEAR","output":247},{"input":234,"interpolation":"LINEAR","output":248},{"input":233,"interpolation":"STEP","output":34},{"input":233,"interpolation":"LINEAR","output":249},{"input":234,"interpolation":"LINEAR","output":250},{"input":233,"interpolation":"STEP","output":251},{"input":233,"interpolation":"LINEAR","output":252},{"input":234,"interpolation":"LINEAR","output":253},{"input":233,"interpolation":"STEP","output":254},{"input":233,"interpolation":"LINEAR","output":255},{"input":234,"interpolation":"LINEAR","output":256},{"input":233,"interpolation":"STEP","output":251},{"input":233,"interpolation":"LINEAR","output":257},{"input":234,"interpolation":"LINEAR","output":258},{"input":233,"interpolation":"STEP","output":259},{"input":233,"interpolation":"LINEAR","output":260},{"input":234,"interpolation":"LINEAR","output":261},{"input":233,"interpolation":"STEP","output":14},{"input":233,"interpolation":"STEP","output":262},{"input":233,"interpolation":"STEP","output":263},{"input":233,"interpolation":"STEP","output":229},{"input":234,"interpolation":"LINEAR","output":264},{"input":234,"interpolation":"LINEAR","output":265},{"input":233,"interpolation":"STEP","output":266},{"input":233,"interpolation":"LINEAR","output":267},{"input":234,"interpolation":"LINEAR","output":268},{"input":233,"interpolation":"LINEAR","output":269},{"input":233,"interpolation":"LINEAR","output":270},{"input":234,"interpolation":"LINEAR","output":271},{"input":233,"interpolation":"STEP","output":272},{"input":233,"interpolation":"STEP","output":273},{"input":233,"interpolation":"STEP","output":274},{"input":233,"interpolation":"STEP","output":275},{"input":234,"interpolation":"LINEAR","output":276},{"input":234,"interpolation":"LINEAR","output":277},{"input":233,"interpolation":"STEP","output":278},{"input":233,"interpolation":"LINEAR","output":279},{"input":234,"interpolation":"LINEAR","output":280},{"input":233,"interpolation":"LINEAR","output":281},{"input":233,"interpolation":"LINEAR","output":282},{"input":234,"interpolation":"LINEAR","output":283},{"input":233,"interpolation":"LINEAR","output":284},{"input":233,"interpolation":"STEP","output":285},{"input":233,"interpolation":"STEP","output":286},{"input":233,"interpolation":"STEP","output":287},{"input":234,"interpolation":"LINEAR","output":288},{"input":234,"interpolation":"LINEAR","output":289},{"input":233,"interpolation":"STEP","output":290},{"input":233,"interpolation":"LINEAR","output":291},{"input":234,"interpolation":"LINEAR","output":292},{"input":233,"interpolation":"LINEAR","output":293},{"input":233,"interpolation":"LINEAR","output":294},{"input":234,"interpolation":"LINEAR","output":295},{"input":233,"interpolation":"STEP","output":296},{"input":233,"interpolation":"STEP","output":297},{"input":233,"interpolation":"STEP","output":298},{"input":233,"interpolation":"STEP","output":299},{"input":234,"interpolation":"LINEAR","output":300},{"input":234,"interpolation":"LINEAR","output":301},{"input":233,"interpolation":"STEP","output":14},{"input":233,"interpolation":"LINEAR","output":302},{"input":234,"interpolation":"LINEAR","output":303},{"input":233,"interpolation":"LINEAR","output":304},{"input":233,"interpolation":"LINEAR","output":305},{"input":234,"interpolation":"LINEAR","output":306},{"input":233,"interpolation":"LINEAR","output":307},{"input":233,"interpolation":"STEP","output":308},{"input":233,"interpolation":"STEP","output":309},{"input":233,"interpolation":"STEP","output":310},{"input":233,"interpolation":"LINEAR","output":311},{"input":233,"interpolation":"STEP","output":94},{"input":233,"interpolation":"STEP","output":95},{"input":233,"interpolation":"LINEAR","output":312},{"input":233,"interpolation":"STEP","output":97},{"input":233,"interpolation":"STEP","output":98},{"input":233,"interpolation":"STEP","output":313},{"input":233,"interpolation":"STEP","output":100},{"input":233,"interpolation":"STEP","output":14},{"input":233,"interpolation":"LINEAR","output":314},{"input":234,"interpolation":"LINEAR","output":315},{"input":233,"interpolation":"STEP","output":316},{"input":233,"interpolation":"LINEAR","output":317},{"input":234,"interpolation":"LINEAR","output":318},{"input":233,"interpolation":"STEP","output":319},{"input":233,"interpolation":"LINEAR","output":320},{"input":234,"interpolation":"LINEAR","output":321},{"input":233,"interpolation":"STEP","output":322},{"input":233,"interpolation":"STEP","output":323},{"input":233,"interpolation":"STEP","output":324},{"input":233,"interpolation":"STEP","output":325},{"input":234,"interpolation":"LINEAR","output":326},{"input":234,"interpolation":"LINEAR","output":327},{"input":233,"interpolation":"STEP","output":14},{"input":233,"interpolation":"STEP","output":328},{"input":233,"interpolation":"STEP","output":329},{"input":233,"interpolation":"STEP","output":14},{"input":234,"interpolation":"LINEAR","output":330},{"input":234,"interpolation":"LINEAR","output":331},{"input":233,"interpolation":"STEP","output":14},{"input":233,"interpolation":"STEP","output":332},{"input":233,"interpolation":"STEP","output":120},{"input":233,"interpolation":"STEP","output":14}]}],"asset":{"generator":"Khronos glTF Blender I/O v5.2.40","version":"2.0"},"bufferViews":[{"buffer":0,"byteLength":3024,"byteOffset":0,"target":34962},{"buffer":0,"byteLength":3024,"byteOffset":3024,"target":34962},{"buffer":0,"byteLength":1008,"byteOffset":6048,"target":34962},{"buffer":0,"byteLength":4032,"byteOffset":7056,"target":34962},{"buffer":0,"byteLength":1740,"byteOffset":11088,"target":34963},{"buffer":0,"byteLength":5268,"byteOffset":12828,"target":34962},{"buffer":0,"byteLength":5268,"byteOffset":18096,"target":34962},{"buffer":0,"byteLength":1756,"byteOffset":23364,"target":34962},{"buffer":0,"byteLength":7024,"byteOffset":25120,"target":34962},{"buffer":0,"byteLength":2376,"byteOffset":32144,"target":34963},{"buffer":0,"byteLength":2688,"byteOffset":34520},{"buffer":0,"byteLength":8,"byteOffset":37208},{"buffer":0,"byteLength":24,"byteOffset":37216},{"buffer":0,"byteLength":32,"byteOffset":37240},{"buffer":0,"byteLength":24,"byteOffset":37272},{"buffer":0,"byteLength":24,"byteOffset":37296},{"buffer":0,"byteLength":32,"byteOffset":37320},{"buffer":0,"byteLength":24,"byteOffset":37352},{"buffer":0,"byteLength":32,"byteOffset":37376},{"buffer":0,"byteLength":24,"byteOffset":37408},{"buffer":0,"byteLength":32,"byteOffset":37432},{"buffer":0,"byteLength":24,"byteOffset":37464},{"buffer":0,"byteLength":32,"byteOffset":37488},{"buffer":0,"byteLength":232,"byteOffset":37520},{"buffer":0,"byteLength":696,"byteOffset":37752},{"buffer":0,"byteLength":32,"byteOffset":38448},{"buffer":0,"byteLength":24,"byteOffset":38480},{"buffer":0,"byteLength":32,"byteOffset":38504},{"buffer":0,"byteLength":24,"byteOffset":38536},{"buffer":0,"byteLength":24,"byteOffset":38560},{"buffer":0,"byteLength":32,"byteOffset":38584},{"buffer":0,"byteLength":24,"byteOffset":38616},{"buffer":0,"byteLength":24,"byteOffset":38640},{"buffer":0,"byteLength":32,"byteOffset":38664},{"buffer":0,"byteLength":24,"byteOffset":38696},{"buffer":0,"byteLength":24,"byteOffset":38720},{"buffer":0,"byteLength":928,"byteOffset":38744},{"buffer":0,"byteLength":24,"byteOffset":39672},{"buffer":0,"byteLength":24,"byteOffset":39696},{"buffer":0,"byteLength":928,"byteOffset":39720},{"buffer":0,"byteLength":24,"byteOffset":40648},{"buffer":0,"byteLength":24,"byteOffset":40672},{"buffer":0,"byteLength":928,"byteOffset":40696},{"buffer":0,"byteLength":24,"byteOffset":41624},{"buffer":0,"byteLength":24,"byteOffset":41648},{"buffer":0,"byteLength":32,"byteOffset":41672},{"buffer":0,"byteLength":24,"byteOffset":41704},{"buffer":0,"byteLength":24,"byteOffset":41728},{"buffer":0,"byteLength":928,"byteOffset":41752},{"buffer":0,"byteLength":24,"byteOffset":42680},{"buffer":0,"byteLength":24,"byteOffset":42704},{"buffer":0,"byteLength":32,"byteOffset":42728},{"buffer":0,"byteLength":24,"byteOffset":42760},{"buffer":0,"byteLength":928,"byteOffset":42784},{"buffer":0,"byteLength":24,"byteOffset":43712},{"buffer":0,"byteLength":928,"byteOffset":43736},{"buffer":0,"byteLength":24,"byteOffset":44664},{"buffer":0,"byteLength":24,"byteOffset":44688},{"buffer":0,"byteLength":928,"byteOffset":44712},{"buffer":0,"byteLength":24,"byteOffset":45640},{"buffer":0,"byteLength":24,"byteOffset":45664},{"buffer":0,"byteLength":32,"byteOffset":45688},{"buffer":0,"byteLength":24,"byteOffset":45720},{"buffer":0,"byteLength":928,"byteOffset":45744},{"buffer":0,"byteLength":24,"byteOffset":46672},{"buffer":0,"byteLength":24,"byteOffset":46696},{"buffer":0,"byteLength":928,"byteOffset":46720},{"buffer":0,"byteLength":24,"byteOffset":47648},{"buffer":0,"byteLength":24,"byteOffset":47672},{"buffer":0,"byteLength":928,"byteOffset":47696},{"buffer":0,"byteLength":24,"byteOffset":48624},{"buffer":0,"byteLength":24,"byteOffset":48648},{"buffer":0,"byteLength":32,"byteOffset":48672},{"buffer":0,"byteLength":24,"byteOffset":48704},{"buffer":0,"byteLength":928,"byteOffset":48728},{"buffer":0,"byteLength":24,"byteOffset":49656},{"buffer":0,"byteLength":32,"byteOffset":49680},{"buffer":0,"byteLength":24,"byteOffset":49712},{"buffer":0,"byteLength":24,"byteOffset":49736},{"buffer":0,"byteLength":928,"byteOffset":49760},{"buffer":0,"byteLength":24,"byteOffset":50688},{"buffer":0,"byteLength":24,"byteOffset":50712},{"buffer":0,"byteLength":32,"byteOffset":50736},{"buffer":0,"byteLength":24,"byteOffset":50768},{"buffer":0,"byteLength":928,"byteOffset":50792},{"buffer":0,"byteLength":24,"byteOffset":51720},{"buffer":0,"byteLength":32,"byteOffset":51744},{"buffer":0,"byteLength":24,"byteOffset":51776},{"buffer":0,"byteLength":24,"byteOffset":51800},{"buffer":0,"byteLength":928,"byteOffset":51824},{"buffer":0,"byteLength":24,"byteOffset":52752},{"buffer":0,"byteLength":24,"byteOffset":52776},{"buffer":0,"byteLength":32,"byteOffset":52800},{"buffer":0,"byteLength":24,"byteOffset":52832},{"buffer":0,"byteLength":32,"byteOffset":52856},{"buffer":0,"byteLength":24,"byteOffset":52888},{"buffer":0,"byteLength":24,"byteOffset":52912},{"buffer":0,"byteLength":32,"byteOffset":52936},{"buffer":0,"byteLength":24,"byteOffset":52968},{"buffer":0,"byteLength":24,"byteOffset":52992},{"buffer":0,"byteLength":32,"byteOffset":53016},{"buffer":0,"byteLength":24,"byteOffset":53048},{"buffer":0,"byteLength":32,"byteOffset":53072},{"buffer":0,"byteLength":24,"byteOffset":53104},{"buffer":0,"byteLength":24,"byteOffset":53128},{"buffer":0,"byteLength":928,"byteOffset":53152},{"buffer":0,"byteLength":24,"byteOffset":54080},{"buffer":0,"byteLength":24,"byteOffset":54104},{"buffer":0,"byteLength":32,"byteOffset":54128},{"buffer":0,"byteLength":24,"byteOffset":54160},{"buffer":0,"byteLength":24,"byteOffset":54184},{"buffer":0,"byteLength":32,"byteOffset":54208},{"buffer":0,"byteLength":24,"byteOffset":54240},{"buffer":0,"byteLength":24,"byteOffset":54264},{"buffer":0,"byteLength":32,"byteOffset":54288},{"buffer":0,"byteLength":24,"byteOffset":54320},{"buffer":0,"byteLength":32,"byteOffset":54344},{"buffer":0,"byteLength":24,"byteOffset":54376},{"buffer":0,"byteLength":32,"byteOffset":54400},{"buffer":0,"byteLength":24,"byteOffset":54432},{"buffer":0,"byteLength":32,"byteOffset":54456},{"buffer":0,"byteLength":8,"byteOffset":54488},{"buffer":0,"byteLength":52,"byteOffset":54496},{"buffer":0,"byteLength":156,"byteOffset":54548},{"buffer":0,"byteLength":208,"byteOffset":54704},{"buffer":0,"byteLength":24,"byteOffset":54912},{"buffer":0,"byteLength":32,"byteOffset":54936},{"buffer":0,"byteLength":156,"byteOffset":54968},{"buffer":0,"byteLength":208,"byteOffset":55124},{"buffer":0,"byteLength":24,"byteOffset":55332},{"buffer":0,"byteLength":32,"byteOffset":55356},{"buffer":0,"byteLength":156,"byteOffset":55388},{"buffer":0,"byteLength":32,"byteOffset":55544},{"buffer":0,"byteLength":156,"byteOffset":55576},{"buffer":0,"byteLength":208,"byteOffset":55732},{"buffer":0,"byteLength":24,"byteOffset":55940},{"buffer":0,"byteLength":24,"byteOffset":55964},{"buffer":0,"byteLength":32,"byteOffset":55988},{"buffer":0,"byteLength":24,"byteOffset":56020},{"buffer":0,"byteLength":24,"byteOffset":56044},{"buffer":0,"byteLength":208,"byteOffset":56068},{"buffer":0,"byteLength":24,"byteOffset":56276},{"buffer":0,"byteLength":24,"byteOffset":56300},{"buffer":0,"byteLength":208,"byteOffset":56324},{"buffer":0,"byteLength":24,"byteOffset":56532},{"buffer":0,"byteLength":24,"byteOffset":56556},{"buffer":0,"byteLength":208,"byteOffset":56580},{"buffer":0,"byteLength":24,"byteOffset":56788},{"buffer":0,"byteLength":208,"byteOffset":56812},{"buffer":0,"byteLength":24,"byteOffset":57020},{"buffer":0,"byteLength":24,"byteOffset":57044},{"buffer":0,"byteLength":208,"byteOffset":57068},{"buffer":0,"byteLength":24,"byteOffset":57276},{"buffer":0,"byteLength":24,"byteOffset":57300},{"buffer":0,"byteLength":208,"byteOffset":57324},{"buffer":0,"byteLength":24,"byteOffset":57532},{"buffer":0,"byteLength":24,"byteOffset":57556},{"buffer":0,"byteLength":32,"byteOffset":57580},{"buffer":0,"byteLength":156,"byteOffset":57612},{"buffer":0,"byteLength":208,"byteOffset":57768},{"buffer":0,"byteLength":24,"byteOffset":57976},{"buffer":0,"byteLength":24,"byteOffset":58000},{"buffer":0,"byteLength":208,"byteOffset":58024},{"buffer":0,"byteLength":24,"byteOffset":58232},{"buffer":0,"byteLength":24,"byteOffset":58256},{"buffer":0,"byteLength":208,"byteOffset":58280},{"buffer":0,"byteLength":24,"byteOffset":58488},{"buffer":0,"byteLength":24,"byteOffset":58512},{"buffer":0,"byteLength":32,"byteOffset":58536},{"buffer":0,"byteLength":24,"byteOffset":58568},{"buffer":0,"byteLength":156,"byteOffset":58592},{"buffer":0,"byteLength":208,"byteOffset":58748},{"buffer":0,"byteLength":24,"byteOffset":58956},{"buffer":0,"byteLength":24,"byteOffset":58980},{"buffer":0,"byteLength":208,"byteOffset":59004},{"buffer":0,"byteLength":24,"byteOffset":59212},{"buffer":0,"byteLength":24,"byteOffset":59236},{"buffer":0,"byteLength":208,"byteOffset":59260},{"buffer":0,"byteLength":24,"byteOffset":59468},{"buffer":0,"byteLength":24,"byteOffset":59492},{"buffer":0,"byteLength":32,"byteOffset":59516},{"buffer":0,"byteLength":24,"byteOffset":59548},{"buffer":0,"byteLength":156,"byteOffset":59572},{"buffer":0,"byteLength":208,"byteOffset":59728},{"buffer":0,"byteLength":24,"byteOffset":59936},{"buffer":0,"byteLength":208,"byteOffset":59960},{"buffer":0,"byteLength":24,"byteOffset":60168},{"buffer":0,"byteLength":24,"byteOffset":60192},{"buffer":0,"byteLength":208,"byteOffset":60216},{"buffer":0,"byteLength":24,"byteOffset":60424},{"buffer":0,"byteLength":24,"byteOffset":60448},{"buffer":0,"byteLength":32,"byteOffset":60472},{"buffer":0,"byteLength":24,"byteOffset":60504},{"buffer":0,"byteLength":156,"byteOffset":60528},{"buffer":0,"byteLength":208,"byteOffset":60684},{"buffer":0,"byteLength":24,"byteOffset":60892},{"buffer":0,"byteLength":24,"byteOffset":60916},{"buffer":0,"byteLength":208,"byteOffset":60940},{"buffer":0,"byteLength":24,"byteOffset":61148},{"buffer":0,"byteLength":24,"byteOffset":61172},{"buffer":0,"byteLength":208,"byteOffset":61196},{"buffer":0,"byteLength":24,"byteOffset":61404},{"buffer":0,"byteLength":24,"byteOffset":61428},{"buffer":0,"byteLength":32,"byteOffset":61452},{"buffer":0,"byteLength":24,"byteOffset":61484},{"buffer":0,"byteLength":24,"byteOffset":61508},{"buffer":0,"byteLength":32,"byteOffset":61532},{"buffer":0,"byteLength":24,"byteOffset":61564},{"buffer":0,"byteLength":24,"byteOffset":61588},{"buffer":0,"byteLength":32,"byteOffset":61612},{"buffer":0,"byteLength":24,"byteOffset":61644},{"buffer":0,"byteLength":24,"byteOffset":61668},{"buffer":0,"byteLength":32,"byteOffset":61692},{"buffer":0,"byteLength":24,"byteOffset":61724},{"buffer":0,"byteLength":156,"byteOffset":61748},{"buffer":0,"byteLength":32,"byteOffset":61904},{"buffer":0,"byteLength":24,"byteOffset":61936},{"buffer":0,"byteLength":24,"byteOffset":61960},{"buffer":0,"byteLength":32,"byteOffset":61984},{"buffer":0,"byteLength":24,"byteOffset":62016},{"buffer":0,"byteLength":24,"byteOffset":62040},{"buffer":0,"byteLength":32,"byteOffset":62064},{"buffer":0,"byteLength":24,"byteOffset":62096},{"buffer":0,"byteLength":24,"byteOffset":62120},{"buffer":0,"byteLength":32,"byteOffset":62144},{"buffer":0,"byteLength":156,"byteOffset":62176},{"buffer":0,"byteLength":208,"byteOffset":62332},{"buffer":0,"byteLength":24,"byteOffset":62540},{"buffer":0,"byteLength":32,"byteOffset":62564},{"buffer":0,"byteLength":24,"byteOffset":62596},{"buffer":0,"byteLength":156,"byteOffset":62620},{"buffer":0,"byteLength":208,"byteOffset":62776},{"buffer":0,"byteLength":24,"byteOffset":62984},{"buffer":0,"byteLength":8,"byteOffset":63008},{"buffer":0,"byteLength":132,"byteOffset":63016},{"buffer":0,"byteLength":396,"byteOffset":63148},{"buffer":0,"byteLength":528,"byteOffset":63544},{"buffer":0,"byteLength":24,"byteOffset":64072},{"buffer":0,"byteLength":32,"byteOffset":64096},{"buffer":0,"byteLength":396,"byteOffset":64128},{"buffer":0,"byteLength":528,"byteOffset":64524},{"buffer":0,"byteLength":24,"byteOffset":65052},{"buffer":0,"byteLength":24,"byteOffset":65076},{"buffer":0,"byteLength":32,"byteOffset":65100},{"buffer":0,"byteLength":396,"byteOffset":65132},{"buffer":0,"byteLength":396,"byteOffset":65528},{"buffer":0,"byteLength":24,"byteOffset":65924},{"buffer":0,"byteLength":24,"byteOffset":65948},{"buffer":0,"byteLength":528,"byteOffset":65972},{"buffer":0,"byteLength":24,"byteOffset":66500},{"buffer":0,"byteLength":528,"byteOffset":66524},{"buffer":0,"byteLength":24,"byteOffset":67052},{"buffer":0,"byteLength":24,"byteOffset":67076},{"buffer":0,"byteLength":528,"byteOffset":67100},{"buffer":0,"byteLength":24,"byteOffset":67628},{"buffer":0,"byteLength":24,"byteOffset":67652},{"buffer":0,"byteLength":528,"byteOffset":67676},{"buffer":0,"byteLength":24,"byteOffset":68204},{"buffer":0,"byteLength":528,"byteOffset":68228},{"buffer":0,"byteLength":24,"byteOffset":68756},{"buffer":0,"byteLength":24,"byteOffset":68780},{"buffer":0,"byteLength":528,"byteOffset":68804},{"buffer":0,"byteLength":24,"byteOffset":69332},{"buffer":0,"byteLength":32,"byteOffset":69356},{"buffer":0,"byteLength":396,"byteOffset":69388},{"buffer":0,"byteLength":528,"byteOffset":69784},{"buffer":0,"byteLength":24,"byteOffset":70312},{"buffer":0,"byteLength":24,"byteOffset":70336},{"buffer":0,"byteLength":528,"byteOffset":70360},{"buffer":0,"byteLength":24,"byteOffset":70888},{"buffer":0,"byteLength":24,"byteOffset":70912},{"buffer":0,"byteLength":528,"byteOffset":70936},{"buffer":0,"byteLength":24,"byteOffset":71464},{"buffer":0,"byteLength":24,"byteOffset":71488},{"buffer":0,"byteLength":32,"byteOffset":71512},{"buffer":0,"byteLength":24,"byteOffset":71544},{"buffer":0,"byteLength":396,"byteOffset":71568},{"buffer":0,"byteLength":528,"byteOffset":71964},{"buffer":0,"byteLength":24,"byteOffset":72492},{"buffer":0,"byteLength":24,"byteOffset":72516},{"buffer":0,"byteLength":528,"byteOffset":72540},{"buffer":0,"byteLength":24,"byteOffset":73068},{"buffer":0,"byteLength":24,"byteOffset":73092},{"buffer":0,"byteLength":528,"byteOffset":73116},{"buffer":0,"byteLength":24,"byteOffset":73644},{"buffer":0,"byteLength":24,"byteOffset":73668},{"buffer":0,"byteLength":32,"byteOffset":73692},{"buffer":0,"byteLength":24,"byteOffset":73724},{"buffer":0,"byteLength":396,"byteOffset":73748},{"buffer":0,"byteLength":528,"byteOffset":74144},{"buffer":0,"byteLength":24,"byteOffset":74672},{"buffer":0,"byteLength":24,"byteOffset":74696},{"buffer":0,"byteLength":528,"byteOffset":74720},{"buffer":0,"byteLength":24,"byteOffset":75248},{"buffer":0,"byteLength":24,"byteOffset":75272},{"buffer":0,"byteLength":528,"byteOffset":75296},{"buffer":0,"byteLength":24,"byteOffset":75824},{"buffer":0,"byteLength":24,"byteOffset":75848},{"buffer":0,"byteLength":32,"byteOffset":75872},{"buffer":0,"byteLength":24,"byteOffset":75904},{"buffer":0,"byteLength":396,"byteOffset":75928},{"buffer":0,"byteLength":528,"byteOffset":76324},{"buffer":0,"byteLength":24,"byteOffset":76852},{"buffer":0,"byteLength":528,"byteOffset":76876},{"buffer":0,"byteLength":24,"byteOffset":77404},{"buffer":0,"byteLength":24,"byteOffset":77428},{"buffer":0,"byteLength":528,"byteOffset":77452},{"buffer":0,"byteLength":24,"byteOffset":77980},{"buffer":0,"byteLength":24,"byteOffset":78004},{"buffer":0,"byteLength":32,"byteOffset":78028},{"buffer":0,"byteLength":24,"byteOffset":78060},{"buffer":0,"byteLength":24,"byteOffset":78084},{"buffer":0,"byteLength":24,"byteOffset":78108},{"buffer":0,"byteLength":24,"byteOffset":78132},{"buffer":0,"byteLength":24,"byteOffset":78156},{"buffer":0,"byteLength":528,"byteOffset":78180},{"buffer":0,"byteLength":24,"byteOffset":78708},{"buffer":0,"byteLength":24,"byteOffset":78732},{"buffer":0,"byteLength":528,"byteOffset":78756},{"buffer":0,"byteLength":24,"byteOffset":79284},{"buffer":0,"byteLength":24,"byteOffset":79308},{"buffer":0,"byteLength":528,"byteOffset":79332},{"buffer":0,"byteLength":24,"byteOffset":79860},{"buffer":0,"byteLength":24,"byteOffset":79884},{"buffer":0,"byteLength":32,"byteOffset":79908},{"buffer":0,"byteLength":24,"byteOffset":79940},{"buffer":0,"byteLength":396,"byteOffset":79964},{"buffer":0,"byteLength":528,"byteOffset":80360},{"buffer":0,"byteLength":24,"byteOffset":80888},{"buffer":0,"byteLength":32,"byteOffset":80912},{"buffer":0,"byteLength":396,"byteOffset":80944},{"buffer":0,"byteLength":528,"byteOffset":81340},{"buffer":0,"byteLength":24,"byteOffset":81868}],"buffers":[{"byteLength":81892,"uri":"rat.bin"}],"materials":[{"doubleSided":true,"name":"Pink","pbrMetallicRoughness":{"baseColorFactor":[0.8000000715255737,0.4603976309299469,0.41169273853302,1],"metallicFactor":0,"roughnessFactor":0.690034806728363}},{"doubleSided":true,"name":"Grey","pbrMetallicRoughness":{"baseColorFactor":[0.14239461719989777,0.12006137520074844,0.13130934536457062,1],"metallicFactor":0,"roughnessFactor":0.690034806728363}}],"meshes":[{"name":"Cylinder","primitives":[{"attributes":{"JOINTS_0":2,"NORMAL":1,"POSITION":0,"WEIGHTS_0":3},"indices":4,"material":0},{"attributes":{"JOINTS_0":7,"NORMAL":6,"POSITION":5,"WEIGHTS_0":8},"indices":9,"material":1}]}],"nodes":[{"name":"BackFoot.L_end","rotation":[6.224068016535966e-08,-2.2737370254828637e-13,-2.7650603161288867e-13,1],"translation":[6.834434684854784e-10,0.044163018465042114,-1.5305623435324378e-10]},{"children":[0],"name":"BackFoot.L","rotation":[0.7071067094802856,-1.5706714293628465e-06,-1.5706710883023334e-06,0.7071068286895752],"translation":[0.031870391219854355,0.002289384603500366,-0.08139205724000931]},{"name":"BackFoot.R_end","rotation":[6.224068016535966e-08,-1.1368685127414319e-13,-2.171487409373743e-13,1],"translation":[-7.894470632763273e-10,0.044163018465042114,-1.3873879822767776e-10]},{"children":[2],"name":"BackFoot.R","rotation":[0.7071067094802856,-1.233496845998161e-06,-1.2334966186244856e-06,0.7071068286895752],"translation":[-0.033035121858119965,0.002289384603500366,-0.08139205724000931]},{"name":"Tail7_end","rotation":[2.8870999813079834e-08,-4.9878129404490323e-11,4.769401318327482e-09,1],"translation":[3.0718649846050994e-11,0.012204417027533054,1.1897779983449652e-10]},{"children":[4],"name":"Tail7","rotation":[0.00012333506310824305,1.1928662502214138e-07,-7.160042780895992e-09,1],"scale":[1,0.9999999403953552,0.9999999403953552],"translation":[-7.024175078390593e-13,0.02419978193938732,-9.315784810226546e-10]},{"children":[5],"name":"Tail6","rotation":[-0.003542569698765874,-1.1924609566449362e-07,3.798517056452511e-09,0.9999937415122986],"scale":[1,0.9999999403953552,1],"translation":[-4.286504484696252e-11,0.03209013491868973,1.1894041307414227e-10]},{"children":[6],"name":"Tail5","rotation":[0.018245341256260872,1.1923842180294741e-07,3.5325081748638354e-10,0.9998335838317871],"translation":[6.310118226549033e-12,0.03594275191426277,4.654290841621389e-10]},{"children":[7],"name":"Tail4","rotation":[0.08280789107084274,-2.8908772944924443e-11,7.084707820403935e-10,0.9965655207633972],"scale":[1,0.9999999403953552,0.9999999403953552],"translation":[-1.3433144874230862e-10,0.03922437131404877,-1.6763948451625765e-08]},{"children":[8],"name":"Tail3","rotation":[0.2732008099555969,-1.1454131509935905e-07,3.249822100315214e-08,0.9619570374488831],"scale":[1,0.9999999403953552,1],"translation":[1.0969225527901472e-11,0.04313284903764725,-8.120433769853719e-10]},{"children":[9],"name":"Tail2","rotation":[0.04521268978714943,3.943958215568699e-10,1.18499290380214e-08,0.9989773631095886],"scale":[1,0.9999999403953552,0.9999998211860657],"translation":[9.251266419596504e-12,0.02284158393740654,1.981639297099491e-09]},{"children":[10],"name":"Tail1","rotation":[0.9593065977096558,-3.202983123173908e-08,3.4242566471220925e-07,0.282366544008255],"scale":[1,1,0.9999998807907104],"translation":[0.0011297572636976838,-0.006267249584197998,0.01042880117893219]},{"children":[11],"name":"Back","rotation":[0.5953486561775208,1.915619378678457e-07,1.4194243647125404e-07,0.8034675121307373],"translation":[-0.000739053706638515,0.023177629336714745,-0.0935823991894722]},{"name":"BackLowLeg.L_end","rotation":[1.3194306758279595e-14,2.1846204845132888e-08,-1.672851368539341e-08,1],"translation":[1.3747701865796103e-09,0.05273674428462982,6.166933630424865e-10]},{"children":[13],"name":"BackLowLeg.L","rotation":[-0.4565911889076233,-0.008454236201941967,-0.004339255858212709,0.8896259069442749],"scale":[1,0.9999999403953552,0.9999999403953552],"translation":[2.88855517283082e-09,0.035849716514348984,2.153683453798294e-09]},{"children":[14],"name":"BackUpLeg.L","rotation":[0.35441112518310547,0.3659762442111969,0.6118763089179993,0.6050302982330322],"scale":[1,1.0000001192092896,1],"translation":[-2.9706597182155292e-09,0.018804067745804787,2.625037964776311e-09]},{"children":[15],"name":"BackLeg.L","rotation":[-0.7071067690849304,-0.7071067690849304,1.1399050237059782e-07,3.0626614488937776e-07],"translation":[0.011062071658670902,0.01918443851172924,-0.042914412915706635]},{"name":"BackLowLeg.R_end","rotation":[2.2351748896198842e-08,3.039247298275427e-09,1.862653586925944e-09,1],"scale":[1,0.9999999403953552,1],"translation":[-4.2456385629385807e-10,0.05273675546050072,-9.026850378290874e-10]},{"children":[17],"name":"BackLowLeg.R","rotation":[-0.4565264582633972,0.017216622829437256,0.008836071006953716,0.8894993662834167],"scale":[0.9999998807907104,1,0.9999999403953552],"translation":[6.912159733474255e-10,0.03584972023963928,-2.0954757928848267e-09]},{"children":[18],"name":"BackUpLeg.R","rotation":[-0.6153372526168823,0.6013961434364319,-0.34836745262145996,0.3719180226325989],"scale":[0.9999999403953552,1.0000001192092896,0.9999999403953552],"translation":[-2.2487474105048477e-09,0.018804050981998444,-7.382574551684229e-10]},{"children":[19],"name":"BackLeg.R","rotation":[-3.211147543424886e-07,-9.91422766105643e-08,0.7071067690849304,0.7071067690849304],"translation":[-0.012473042123019695,0.01918443851172924,-0.042914412915706635]},{"name":"FrontLowLeg.L_end","rotation":[2.0116567611694336e-07,1.251402892421538e-07,-7.636845111846924e-08,1],"translation":[1.5015855225897212e-09,0.023995056748390198,-4.652432217255864e-09]},{"children":[21],"name":"FrontLowLeg.L","rotation":[-0.28473979234695435,0.050116945058107376,0.014908833429217339,0.9571777582168579],"scale":[1,0.9999998807907104,0.9999999403953552],"translation":[1.2514647096395493e-09,0.04469757899641991,2.561137080192566e-09]},{"children":[22],"name":"FrontUpLeg.L","rotation":[-0.003863395657390356,-0.07768544554710388,0.7070962190628052,0.7028264403343201],"scale":[0.9999998807907104,0.9999999403953552,0.9999999403953552],"translation":[3.66313290811604e-09,0.016825301572680473,-6.4116245646062e-10]},{"children":[23],"name":"FrontLeg.L","rotation":[-0.7071067690849304,-0.7071067690849304,9.114858556813488e-08,2.2197245641564223e-07],"translation":[0.007500119972974062,0.012434366159141064,0.026555189862847328]},{"name":"FrontLowLeg.R_end","rotation":[-8.195638656616211e-08,1.3315541025349376e-07,-4.0046870708465576e-08,1],"translation":[3.0672853146285206e-09,0.023995043709874153,3.0243918480721277e-10]},{"children":[25],"name":"FrontLowLeg.R","rotation":[-0.2850784361362457,-0.018194958567619324,-0.005412554368376732,0.9583161473274231],"translation":[-6.83940015733242e-10,0.044697582721710205,3.7834979593753815e-09]},{"children":[26],"name":"FrontUpLeg.R","rotation":[0.7065748572349548,-0.7050247192382812,-0.027422325685620308,0.05422315374016762],"scale":[1,0.9999999403953552,1],"translation":[2.7356250598131737e-09,0.016825290396809578,-3.548957572263589e-09]},{"children":[27],"name":"FrontLeg.R","rotation":[-2.6754685222840635e-07,-4.5574392260050445e-08,0.7071067690849304,0.7071067690849304],"translation":[-0.00891108624637127,0.012434366159141064,0.026555189862847328]},{"name":"Torso_end","rotation":[2.0054129379332153e-07,-2.011617880270933e-06,-1.2332748156040907e-09,1],"scale":[0.9999999403953552,1,0.9999999403953552],"translation":[1.3096723705530167e-10,0.03495841473340988,-1.0644860992670147e-08]},{"children":[29],"name":"Torso","rotation":[0.05230441689491272,0.000745495141018182,-0.01352813933044672,0.9985392689704895],"scale":[1,0.9999998807907104,0.9999999403953552],"translation":[2.467004378559068e-11,0.03656895458698273,-6.613534608845839e-09]},{"children":[30],"name":"Hips","rotation":[5.365118340705521e-06,0.6954637169837952,0.7185612320899963,5.192661319597391e-06],"scale":[1,0.9999998211860657,0.9999998807907104],"translation":[-0.000739053706638515,0.029643001034855843,-0.07233575731515884]},{"name":"Head_end","rotation":[6.826304144169626e-08,-3.166496753692627e-07,-4.3248292058706284e-08,1],"scale":[1,0.9999998807907104,0.9999999403953552],"translation":[7.683411240577698e-09,0.03428419306874275,3.6088749766349792e-09]},{"children":[32],"name":"Head","rotation":[-0.17898380756378174,-0.2545458972454071,0.047041475772857666,0.949188232421875],"scale":[0.9999999403953552,0.9999999403953552,1],"translation":[2.7398527890909463e-11,0.031867172569036484,-1.1164331681356998e-09]},{"children":[33],"name":"Neck","rotation":[-0.00856639165431261,-0.008439377881586552,-0.01871611550450325,0.9997525215148926],"scale":[1.0000001192092896,0.9999999403953552,0.9999998807907104],"translation":[-1.1641532182693481e-10,0.02540704235434532,-1.2741111277136952e-08]},{"children":[34],"name":"Shoulders","rotation":[-0.007975524291396141,-0.7384923696517944,-0.6739491820335388,0.018917400389909744],"scale":[1,1.0000001192092896,1],"translation":[-0.0016861887415871024,0.024429980665445328,0.01936829462647438]},{"children":[12,16,20,24,28,31,35],"name":"Body","rotation":[-1.5686380194779304e-08,0,0,1],"translation":[0.00012311148748267442,0.05270196869969368,-0.0003972963022533804]},{"name":"FrontFoot.L_end","rotation":[1.409671170904403e-07,1.249373597200093e-20,-4.91813837918964e-13,1],"translation":[-7.893294351468683e-10,0.022893177345395088,-1.0322054322386975e-10]},{"children":[37],"name":"FrontFoot.L","rotation":[0.7071066498756409,-1.2334970733718364e-06,-1.2334966186244856e-06,0.70710688829422],"translation":[0.024166779592633247,0.002289392054080963,0.046352483332157135]},{"name":"FrontFoot.R_end","rotation":[1.409671170904403e-07,9.105604182983729e-21,-3.573772137596687e-13,1],"translation":[-3.996059316779821e-10,0.022893177345395088,-1.2815348782169167e-10]},{"children":[39],"name":"FrontFoot.R","rotation":[0.7071066498756409,-8.963222626334755e-07,-8.963219215729623e-07,0.70710688829422],"translation":[-0.025331515818834305,0.002289392054080963,0.046352483332157135]},{"children":[1,3,36,38,40],"name":"root","rotation":[-5.7752345128392335e-08,0,0,1],"translation":[-1.4040720088814851e-05,7.24385681678541e-05,0.08023305982351303]},{"mesh":0,"name":"Rat","skin":0},{"children":[42,41],"name":"Armature"}],"scene":0,"scenes":[{"name":"Scene","nodes":[43]}],"skins":[{"inverseBindMatrices":10,"joints":[41,1,0,3,2,36,12,11,10,9,8,7,6,5,4,16,15,14,13,20,19,18,17,24,23,22,21,28,27,26,25,31,30,29,35,34,33,32,38,37,40,39],"name":"Armature"}]}
