{"accessors":[{"bufferView":0,"componentType":5126,"count":470,"max":[0.10856856405735016,0.7244036793708801,0.2709917426109314],"min":[-0.10553781688213348,-0.0007971528684720397,-0.35085994005203247],"type":"VEC3"},{"bufferView":1,"componentType":5126,"count":470,"type":"VEC3"},{"bufferView":2,"componentType":5121,"count":470,"type":"VEC4"},{"bufferView":3,"componentType":5126,"count":470,"type":"VEC4"},{"bufferView":4,"componentType":5123,"count":780,"type":"SCALAR"},{"bufferView":5,"componentType":5126,"count":38,"max":[0.08140581846237183,0.4984576106071472,0.21954074501991272],"min":[-0.07875709980726242,0.0014217530842870474,0.03785021975636482],"type":"VEC3"},{"bufferView":6,"componentType":5126,"count":38,"type":"VEC3"},{"bufferView":7,"componentType":5121,"count":38,"type":"VEC4"},{"bufferView":8,"componentType":5126,"count":38,"type":"VEC4"},{"bufferView":9,"componentType":5123,"count":54,"type":"SCALAR"},{"bufferView":10,"componentType":5126,"count":306,"max":[0.12704844772815704,0.696138858795166,0.14428576827049255],"min":[-0.12412106990814209,0.6250723600387573,0.07551033049821854],"type":"VEC3"},{"bufferView":11,"componentType":5126,"count":306,"type":"VEC3"},{"bufferView":12,"componentType":5121,"count":306,"type":"VEC4"},{"bufferView":13,"componentType":5126,"count":306,"type":"VEC4"},{"bufferView":14,"componentType":5123,"count":960,"type":"SCALAR"},{"bufferView":15,"componentType":5126,"count":18,"max":[0.11308788508176804,0.6861816048622131,0.14096298813819885],"min":[-0.10969346016645432,0.6461326479911804,0.1302446573972702],"type":"VEC3"},{"bufferView":16,"componentType":5126,"count":18,"type":"VEC3"},{"bufferView":17,"componentType":5121,"count":18,"type":"VEC4"},{"bufferView":18,"componentType":5126,"count":18,"type":"VEC4"},{"bufferView":19,"componentType":5123,"count":36,"type":"SCALAR"},{"bufferView":20,"componentType":5126,"count":45,"max":[0.09861285239458084,0.6144118309020996,0.2627480924129486],"min":[-0.09558210521936417,0.5131424069404602,0.06112346053123474],"type":"VEC3"},{"bufferView":21,"componentType":5126,"count":45,"type":"VEC3"},{"bufferView":22,"componentType":5121,"count":45,"type":"VEC4"},{"bufferView":23,"componentType":5126,"count":45,"type":"VEC4"},{"bufferView":24,"componentType":5123,"count":84,"type":"SCALAR"},{"bufferView":25,"componentType":5126,"count":30,"max":[0.05028600990772247,0.6098713278770447,0.25696611404418945],"min":[-0.0472552627325058,0.5839312076568604,0.23075777292251587],"type":"VEC3"},{"bufferView":26,"componentType":5126,"count":30,"type":"VEC3"},{"bufferView":27,"componentType":5121,"count":30,"type":"VEC4"},{"bufferView":28,"componentType":5126,"count":30,"type":"VEC4"},{"bufferView":29,"componentType":5123,"count":42,"type":"SCALAR"},{"bufferView":30,"componentType":5126,"count":62,"max":[0.02070668712258339,0.5779778957366943,0.3373742401599884],"min":[-0.017675943672657013,0.5464066863059998,0.14093425869941711],"type":"VEC3"},{"bufferView":31,"componentType":5126,"count":62,"type":"VEC3"},{"bufferView":32,"componentType":5121,"count":62,"type":"VEC4"},{"bufferView":33,"componentType":5126,"count":62,"type":"VEC4"},{"bufferView":34,"componentType":5123,"count":102,"type":"SCALAR"},{"bufferView":35,"componentType":5126,"count":20,"type":"MAT4"},{"bufferView":36,"componentType":5126,"count":2,"max":[2.125],"min":[0.041666666666666664],"type":"SCALAR"},{"bufferView":37,"componentType":5126,"count":2,"type":"VEC3"},{"bufferView":38,"componentType":5126,"count":2,"type":"VEC4"},{"bufferView":39,"componentType":5126,"count":2,"type":"VEC3"},{"bufferView":40,"componentType":5126,"count":51,"max":[2.125],"min":[0.041666666666666664],"type":"SCALAR"},{"bufferView":41,"componentType":5126,"count":51,"type":"VEC3"},{"bufferView":42,"componentType":5126,"count":2,"type":"VEC4"},{"bufferView":43,"componentType":5126,"count":2,"type":"VEC3"},{"bufferView":44,"componentType":5126,"count":51,"type":"VEC4"},{"bufferView":45,"componentType":5126,"count":2,"type":"VEC3"},{"bufferView":46,"componentType":5126,"count":2,"type":"VEC3"},{"bufferView":47,"componentType":5126,"count":51,"type":"VEC4"},{"bufferView":48,"componentType":5126,"count":2,"type":"VEC3"},{"bufferView":49,"componentType":5126,"count":2,"type":"VEC3"},{"bufferView":50,"componentType":5126,"count":51,"type":"VEC4"},{"bufferView":51,"componentType":5126,"count":2,"type":"VEC3"},{"bufferView":52,"componentType":5126,"count":2,"type":"VEC3"},{"bufferView":53,"componentType":5126,"count":2,"type":"VEC4"},{"bufferView":54,"componentType":5126,"count":2,"type":"VEC3"},{"bufferView":55,"componentType":5126,"count":51,"type":"VEC3"},{"bufferView":56,"componentType":5126,"count":2,"type":"VEC4"},{"bufferView":57,"componentType":5126,"count":2,"type":"VEC3"},{"bufferView":58,"componentType":5126,"count":2,"type":"VEC3"},{"bufferView":59,"componentType":5126,"count":2,"type":"VEC4"},{"bufferView":60,"componentType":5126,"count":2,"type":"VEC3"},{"bufferView":61,"componentType":5126,"count":2,"type":"VEC3"},{"bufferView":62,"componentType":5126,"count":2,"type":"VEC4"},{"bufferView":63,"componentType":5126,"count":2,"type":"VEC3"},{"bufferView":64,"componentType":5126,"count":2,"type":"VEC3"},{"bufferView":65,"componentType":5126,"count":51,"type":"VEC4"},{"bufferView":66,"componentType":5126,"count":2,"type":"VEC3"},{"bufferView":67,"componentType":5126,"count":2,"type":"VEC3"},{"bufferView":68,"componentType":5126,"count":51,"type":"VEC4"},{"bufferView":69,"componentType":5126,"count":2,"type":"VEC3"},{"bufferView":70,"componentType":5126,"count":2,"type":"VEC3"},{"bufferView":71,"componentType":5126,"count":2,"type":"VEC4"},{"bufferView":72,"componentType":5126,"count":2,"type":"VEC3"},{"bufferView":73,"componentType":5126,"count":2,"type":"VEC3"},{"bufferView":74,"componentType":5126,"count":2,"type":"VEC4"},{"bufferView":75,"componentType":5126,"count":2,"type":"VEC3"},{"bufferView":76,"componentType":5126,"count":2,"type":"VEC3"},{"bufferView":77,"componentType":5126,"count":2,"type":"VEC4"},{"bufferView":78,"componentType":5126,"count":2,"type":"VEC3"},{"bufferView":79,"componentType":5126,"count":2,"type":"VEC4"},{"bufferView":80,"componentType":5126,"count":2,"type":"VEC3"},{"bufferView":81,"componentType":5126,"count":2,"type":"VEC4"},{"bufferView":82,"componentType":5126,"count":2,"type":"VEC3"},{"bufferView":83,"componentType":5126,"count":2,"type":"VEC3"},{"bufferView":84,"componentType":5126,"count":51,"type":"VEC4"},{"bufferView":85,"componentType":5126,"count":2,"type":"VEC3"},{"bufferView":86,"componentType":5126,"count":2,"type":"VEC3"},{"bufferView":87,"componentType":5126,"count":51,"type":"VEC4"},{"bufferView":88,"componentType":5126,"count":2,"type":"VEC3"},{"bufferView":89,"componentType":5126,"count":2,"type":"VEC3"},{"bufferView":90,"componentType":5126,"count":51,"type":"VEC4"},{"bufferView":91,"componentType":5126,"count":2,"type":"VEC3"},{"bufferView":92,"componentType":5126,"count":2,"type":"VEC3"},{"bufferView":93,"componentType":5126,"count":2,"type":"VEC4"},{"bufferView":94,"componentType":5126,"count":2,"type":"VEC3"},{"bufferView":95,"componentType":5126,"count":2,"max":[0.875],"min":[0.041666666666666664],"type":"SCALAR"},{"bufferView":96,"componentType":5126,"count":21,"max":[0.875],"min":[0.041666666666666664],"type":"SCALAR"},{"bufferView":97,"componentType":5126,"count":21,"type":"VEC3"},{"bufferView":98,"componentType":5126,"count":2,"type":"VEC4"},{"bufferView":99,"componentType":5126,"count":2,"type":"VEC3"},{"bufferView":100,"componentType":5126,"count":21,"type":"VEC4"},{"bufferView":101,"componentType":5126,"count":2,"type":"VEC3"},{"bufferView":102,"componentType":5126,"count":2,"type":"VEC3"},{"bufferView":103,"componentType":5126,"count":21,"type":"VEC4"},{"bufferView":104,"componentType":5126,"count":2,"type":"VEC3"},{"bufferView":105,"componentType":5126,"count":2,"type":"VEC3"},{"bufferView":106,"componentType":5126,"count":21,"type":"VEC4"},{"bufferView":107,"componentType":5126,"count":2,"type":"VEC3"},{"bufferView":108,"componentType":5126,"count":2,"type":"VEC3"},{"bufferView":109,"componentType":5126,"count":2,"type":"VEC4"},{"bufferView":110,"componentType":5126,"count":2,"type":"VEC3"},{"bufferView":111,"componentType":5126,"count":21,"type":"VEC3"},{"bufferView":112,"componentType":5126,"count":2,"type":"VEC4"},{"bufferView":113,"componentType":5126,"count":2,"type":"VEC3"},{"bufferView":114,"componentType":5126,"count":2,"type":"VEC3"},{"bufferView":115,"componentType":5126,"count":2,"type":"VEC4"},{"bufferView":116,"componentType":5126,"count":2,"type":"VEC3"},{"bufferView":117,"componentType":5126,"count":2,"type":"VEC3"},{"bufferView":118,"componentType":5126,"count":2,"type":"VEC4"},{"bufferView":119,"componentType":5126,"count":2,"type":"VEC3"},{"bufferView":120,"componentType":5126,"count":2,"type":"VEC4"},{"bufferView":121,"componentType":5126,"count":2,"type":"VEC3"},{"bufferView":122,"componentType":5126,"count":2,"type":"VEC3"},{"bufferView":123,"componentType":5126,"count":2,"type":"VEC4"},{"bufferView":124,"componentType":5126,"count":2,"type":"VEC3"},{"bufferView":125,"componentType":5126,"count":2,"type":"VEC3"},{"bufferView":126,"componentType":5126,"count":2,"type":"VEC4"},{"bufferView":127,"componentType":5126,"count":2,"type":"VEC3"},{"bufferView":128,"componentType":5126,"count":2,"type":"VEC3"},{"bufferView":129,"componentType":5126,"count":2,"type":"VEC4"},{"bufferView":130,"componentType":5126,"count":21,"type":"VEC3"},{"bufferView":131,"componentType":5126,"count":21,"type":"VEC4"},{"bufferView":132,"componentType":5126,"count":2,"type":"VEC3"},{"bufferView":133,"componentType":5126,"count":2,"type":"VEC3"},{"bufferView":134,"componentType":5126,"count":21,"type":"VEC4"},{"bufferView":135,"componentType":5126,"count":2,"type":"VEC3"},{"bufferView":136,"componentType":5126,"count":2,"type":"VEC3"},{"bufferView":137,"componentType":5126,"count":21,"type":"VEC4"},{"bufferView":138,"componentType":5126,"count":2,"type":"VEC3"},{"bufferView":139,"componentType":5126,"count":2,"type":"VEC3"},{"bufferView":140,"componentType":5126,"count":21,"type":"VEC4"},{"bufferView":141,"componentType":5126,"count":2,"type":"VEC3"},{"bufferView":142,"componentType":5126,"count":2,"type":"VEC3"},{"bufferView":143,"componentType":5126,"count":2,"type":"VEC4"}],"animations":[{"channels":[{"sampler":0,"target":{"node":19,"path":"translation"}},{"sampler":1,"target":{"node":19,"path":"rotation"}},{"sampler":2,"target":{"node":19,"path":"scale"}},{"sampler":3,"target":{"node":4,"path":"translation"}},{"sampler":4,"target":{"node":4,"path":"rotation"}},{"sampler":5,"target":{"node":4,"path":"scale"}},{"sampler":6,"target":{"node":3,"path":"translation"}},{"sampler":7,"target":{"node":3,"path":"rotation"}},{"sampler":8,"target":{"node":3,"path":"scale"}},{"sampler":9,"target":{"node":2,"path":"translation"}},{"sampler":10,"target":{"node":2,"path":"rotation"}},{"sampler":11,"target":{"node":2,"path":"scale"}},{"sampler":12,"target":{"node":1,"path":"translation"}},{"sampler":13,"target":{"node":1,"path":"rotation"}},{"sampler":14,"target":{"node":1,"path":"scale"}},{"sampler":15,"target":{"node":0,"path":"translation"}},{"sampler":16,"target":{"node":0,"path":"rotation"}},{"sampler":17,"target":{"node":0,"path":"scale"}},{"sampler":18,"target":{"node":11,"path":"translation"}},{"sampler":19,"target":{"node":11,"path":"rotation"}},{"sampler":20,"target":{"node":11,"path":"scale"}},{"sampler":21,"target":{"node":6,"path":"translation"}},{"sampler":22,"target":{"node":6,"path":"rotation"}},{"sampler":23,"target":{"node":6,"path":"scale"}},{"sampler":24,"target":{"node":5,"path":"translation"}},{"sampler":25,"target":{"node":5,"path":"rotation"}},{"sampler":26,"target":{"node":5,"path":"scale"}},{"sampler":27,"target":{"node":10,"path":"translation"}},{"sampler":28,"target":{"node":10,"path":"rotation"}},{"sampler":29,"target":{"node":10,"path":"scale"}},{"sampler":30,"target":{"node":9,"path":"translation"}},{"sampler":31,"target":{"node":9,"path":"rotation"}},{"sampler":32,"target":{"node":9,"path":"scale"}},{"sampler":33,"target":{"node":8,"path":"translation"}},{"sampler":34,"target":{"node":8,"path":"rotation"}},{"sampler":35,"target":{"node":8,"path":"scale"}},{"sampler":36,"target":{"node":7,"path":"translation"}},{"sampler":37,"target":{"node":7,"path":"rotation"}},{"sampler":38,"target":{"node":7,"path":"scale"}},{"sampler":39,"target":{"node":13,"path":"translation"}},{"sampler":40,"target":{"node":13,"path":"rotation"}},{"sampler":41,"target":{"node":13,"path":"scale"}},{"sampler":42,"target":{"node":12,"path":"translation"}},{"sampler":43,"target":{"node":12,"path":"rotation"}},{"sampler":44,"target":{"node":12,"path":"scale"}},{"sampler":45,"target":{"node":18,"path":"translation"}},{"sampler":46,"target":{"node":18,"path":"rotation"}},{"sampler":47,"target":{"node":18,"path":"scale"}},{"sampler":48,"target":{"node":17,"path":"translation"}},{"sampler":49,"target":{"node":17,"path":"rotation"}},{"sampler":50,"target":{"node":17,"path":"scale"}},{"sampler":51,"target":{"node":16,"path":"translation"}},{"sampler":52,"target":{"node":16,"path":"rotation"}},{"sampler":53,"target":{"node":16,"path":"scale"}},{"sampler":54,"target":{"node":15,"path":"translation"}},{"sampler":55,"target":{"node":15,"path":"rotation"}},{"sampler":56,"target":{"node":15,"path":"scale"}},{"sampler":57,"target":{"node":14,"path":"translation"}},{"sampler":58,"target":{"node":14,"path":"rotation"}},{"sampler":59,"target":{"node":14,"path":"scale"}}],"name":"idle","samplers":[{"input":36,"interpolation":"STEP","output":37},{"input":36,"interpolation":"STEP","output":38},{"input":36,"interpolation":"STEP","output":39},{"input":40,"interpolation":"LINEAR","output":41},{"input":36,"interpolation":"STEP","output":42},{"input":36,"interpolation":"STEP","output":39},{"input":36,"interpolation":"STEP","output":43},{"input":40,"interpolation":"LINEAR","output":44},{"input":36,"interpolation":"LINEAR","output":45},{"input":36,"interpolation":"LINEAR","output":46},{"input":40,"interpolation":"LINEAR","output":47},{"input":36,"interpolation":"LINEAR","output":48},{"input":36,"interpolation":"LINEAR","output":49},{"input":40,"interpolation":"LINEAR","output":50},{"input":36,"interpolation":"LINEAR","output":51},{"input":36,"interpolation":"STEP","output":52},{"input":36,"interpolation":"STEP","output":53},{"input":36,"interpolation":"STEP","output":54},{"input":40,"interpolation":"LINEAR","output":55},{"input":36,"interpolation":"STEP","output":56},{"input":36,"interpolation":"STEP","output":57},{"input":36,"interpolation":"LINEAR","output":58},{"input":36,"interpolation":"STEP","output":59},{"input":36,"interpolation":"STEP","output":60},{"input":36,"interpolation":"STEP","output":61},{"input":36,"interpolation":"STEP","output":62},{"input":36,"interpolation":"STEP","output":63},{"input":36,"interpolation":"LINEAR","output":64},{"input":40,"interpolation":"LINEAR","output":65},{"input":36,"interpolation":"STEP","output":66},{"input":36,"interpolation":"LINEAR","output":67},{"input":40,"interpolation":"LINEAR","output":68},{"input":36,"interpolation":"STEP","output":69},{"input":36,"interpolation":"LINEAR","output":70},{"input":36,"interpolation":"STEP","output":71},{"input":36,"interpolation":"STEP","output":72},{"input":36,"interpolation":"STEP","output":73},{"input":36,"interpolation":"STEP","output":74},{"input":36,"interpolation":"STEP","output":75},{"input":36,"interpolation":"STEP","output":76},{"input":36,"interpolation":"STEP","output":77},{"input":36,"interpolation":"STEP","output":39},{"input":36,"interpolation":"STEP","output":78},{"input":36,"interpolation":"STEP","output":79},{"input":36,"interpolation":"STEP","output":39},{"input":36,"interpolation":"STEP","output":80},{"input":36,"interpolation":"STEP","output":81},{"input":36,"interpolation":"STEP","output":82},{"input":36,"interpolation":"STEP","output":83},{"input":40,"interpolation":"LINEAR","output":84},{"input":36,"interpolation":"STEP","output":85},{"input":36,"interpolation":"STEP","output":86},{"input":40,"interpolation":"LINEAR","output":87},{"input":36,"interpolation":"STEP","output":88},{"input":36,"interpolation":"STEP","output":89},{"input":40,"interpolation":"LINEAR","output":90},{"input":36,"interpolation":"STEP","output":91},{"input":36,"interpolation":"STEP","output":92},{"input":36,"interpolation":"STEP","output":93},{"input":36,"interpolation":"STEP","output":94}]},{"channels":[{"sampler":0,"target":{"node":19,"path":"translation"}},{"sampler":1,"target":{"node":19,"path":"rotation"}},{"sampler":2,"target":{"node":19,"path":"scale"}},{"sampler":3,"target":{"node":4,"path":"translation"}},{"sampler":4,"target":{"node":4,"path":"rotation"}},{"sampler":5,"target":{"node":4,"path":"scale"}},{"sampler":6,"target":{"node":3,"path":"translation"}},{"sampler":7,"target":{"node":3,"path":"rotation"}},{"sampler":8,"target":{"node":3,"path":"scale"}},{"sampler":9,"target":{"node":2,"path":"translation"}},{"sampler":10,"target":{"node":2,"path":"rotation"}},{"sampler":11,"target":{"node":2,"path":"scale"}},{"sampler":12,"target":{"node":1,"path":"translation"}},{"sampler":13,"target":{"node":1,"path":"rotation"}},{"sampler":14,"target":{"node":1,"path":"scale"}},{"sampler":15,"target":{"node":0,"path":"translation"}},{"sampler":16,"target":{"node":0,"path":"rotation"}},{"sampler":17,"target":{"node":0,"path":"scale"}},{"sampler":18,"target":{"node":11,"path":"translation"}},{"sampler":19,"target":{"node":11,"path":"rotation"}},{"sampler":20,"target":{"node":11,"path":"scale"}},{"sampler":21,"target":{"node":6,"path":"translation"}},{"sampler":22,"target":{"node":6,"path":"rotation"}},{"sampler":23,"target":{"node":6,"path":"scale"}},{"sampler":24,"target":{"node":5,"path":"translation"}},{"sampler":25,"target":{"node":5,"path":"rotation"}},{"sampler":26,"target":{"node":5,"path":"scale"}},{"sampler":27,"target":{"node":10,"path":"translation"}},{"sampler":28,"target":{"node":10,"path":"rotation"}},{"sampler":29,"target":{"node":10,"path":"scale"}},{"sampler":30,"target":{"node":9,"path":"translation"}},{"sampler":31,"target":{"node":9,"path":"rotation"}},{"sampler":32,"target":{"node":9,"path":"scale"}},{"sampler":33,"target":{"node":8,"path":"translation"}},{"sampler":34,"target":{"node":8,"path":"rotation"}},{"sampler":35,"target":{"node":8,"path":"scale"}},{"sampler":36,"target":{"node":7,"path":"translation"}},{"sampler":37,"target":{"node":7,"path":"rotation"}},{"sampler":38,"target":{"node":7,"path":"scale"}},{"sampler":39,"target":{"node":13,"path":"translation"}},{"sampler":40,"target":{"node":13,"path":"rotation"}},{"sampler":41,"target":{"node":13,"path":"scale"}},{"sampler":42,"target":{"node":12,"path":"translation"}},{"sampler":43,"target":{"node":12,"path":"rotation"}},{"sampler":44,"target":{"node":12,"path":"scale"}},{"sampler":45,"target":{"node":18,"path":"translation"}},{"sampler":46,"target":{"node":18,"path":"rotation"}},{"sampler":47,"target":{"node":18,"path":"scale"}},{"sampler":48,"target":{"node":17,"path":"translation"}},{"sampler":49,"target":{"node":17,"path":"rotation"}},{"sampler":50,"target":{"node":17,"path":"scale"}},{"sampler":51,"target":{"node":16,"path":"translation"}},{"sampler":52,"target":{"node":16,"path":"rotation"}},{"sampler":53,"target":{"node":16,"path":"scale"}},{"sampler":54,"target":{"node":15,"path":"translation"}},{"sampler":55,"target":{"node":15,"path":"rotation"}},{"sampler":56,"target":{"node":15,"path":"scale"}},{"sampler":57,"target":{"node":14,"path":"translation"}},{"sampler":58,"target":{"node":14,"path":"rotation"}},{"sampler":59,"target":{"node":14,"path":"scale"}}],"name":"walk","samplers":[{"input":95,"interpolation":"STEP","output":37},{"input":95,"interpolation":"STEP","output":38},{"input":95,"interpolation":"STEP","output":39},{"input":96,"interpolation":"LINEAR","output":97},{"input":95,"interpolation":"STEP","output":98},{"input":95,"interpolation":"STEP","output":39},{"input":95,"interpolation":"STEP","output":99},{"input":96,"interpolation":"LINEAR","output":100},{"input":95,"interpolation":"STEP","output":101},{"input":95,"interpolation":"STEP","output":102},{"input":96,"interpolation":"LINEAR","output":103},{"input":95,"interpolation":"STEP","output":104},{"input":95,"interpolation":"STEP","output":105},{"input":96,"interpolation":"LINEAR","output":106},{"input":95,"interpolation":"STEP","output":107},{"input":95,"interpolation":"STEP","output":108},{"input":95,"interpolation":"STEP","output":109},{"input":95,"interpolation":"STEP","output":110},{"input":96,"interpolation":"LINEAR","output":111},{"input":95,"interpolation":"STEP","output":112},{"input":95,"interpolation":"STEP","output":113},{"input":95,"interpolation":"STEP","output":114},{"input":95,"interpolation":"STEP","output":115},{"input":95,"interpolation":"STEP","output":116},{"input":95,"interpolation":"STEP","output":117},{"input":95,"interpolation":"STEP","output":118},{"input":95,"interpolation":"STEP","output":39},{"input":95,"interpolation":"STEP","output":119},{"input":95,"interpolation":"STEP","output":120},{"input":95,"interpolation":"STEP","output":121},{"input":95,"interpolation":"STEP","output":122},{"input":95,"interpolation":"STEP","output":123},{"input":95,"interpolation":"STEP","output":124},{"input":95,"interpolation":"STEP","output":125},{"input":95,"interpolation":"STEP","output":126},{"input":95,"interpolation":"STEP","output":127},{"input":95,"interpolation":"STEP","output":128},{"input":95,"interpolation":"STEP","output":129},{"input":95,"interpolation":"STEP","output":39},{"input":95,"interpolation":"STEP","output":76},{"input":95,"interpolation":"STEP","output":77},{"input":95,"interpolation":"STEP","output":39},{"input":95,"interpolation":"STEP","output":78},{"input":95,"interpolation":"STEP","output":79},{"input":95,"interpolation":"STEP","output":39},{"input":96,"interpolation":"LINEAR","output":130},{"input":96,"interpolation":"LINEAR","output":131},{"input":95,"interpolation":"STEP","output":132},{"input":95,"interpolation":"STEP","output":133},{"input":96,"interpolation":"LINEAR","output":134},{"input":95,"interpolation":"STEP","output":135},{"input":95,"interpolation":"STEP","output":136},{"input":96,"interpolation":"LINEAR","output":137},{"input":95,"interpolation":"STEP","output":138},{"input":95,"interpolation":"STEP","output":139},{"input":96,"interpolation":"LINEAR","output":140},{"input":95,"interpolation":"STEP","output":141},{"input":95,"interpolation":"STEP","output":142},{"input":95,"interpolation":"STEP","output":143},{"input":95,"interpolation":"STEP","output":39}]}],"asset":{"generator":"Khronos glTF Blender I/O v5.2.40","version":"2.0"},"bufferViews":[{"buffer":0,"byteLength":5640,"byteOffset":0,"target":34962},{"buffer":0,"byteLength":5640,"byteOffset":5640,"target":34962},{"buffer":0,"byteLength":1880,"byteOffset":11280,"target":34962},{"buffer":0,"byteLength":7520,"byteOffset":13160,"target":34962},{"buffer":0,"byteLength":1560,"byteOffset":20680,"target":34963},{"buffer":0,"byteLength":456,"byteOffset":22240,"target":34962},{"buffer":0,"byteLength":456,"byteOffset":22696,"target":34962},{"buffer":0,"byteLength":152,"byteOffset":23152,"target":34962},{"buffer":0,"byteLength":608,"byteOffset":23304,"target":34962},{"buffer":0,"byteLength":108,"byteOffset":23912,"target":34963},{"buffer":0,"byteLength":3672,"byteOffset":24020,"target":34962},{"buffer":0,"byteLength":3672,"byteOffset":27692,"target":34962},{"buffer":0,"byteLength":1224,"byteOffset":31364,"target":34962},{"buffer":0,"byteLength":4896,"byteOffset":32588,"target":34962},{"buffer":0,"byteLength":1920,"byteOffset":37484,"target":34963},{"buffer":0,"byteLength":216,"byteOffset":39404,"target":34962},{"buffer":0,"byteLength":216,"byteOffset":39620,"target":34962},{"buffer":0,"byteLength":72,"byteOffset":39836,"target":34962},{"buffer":0,"byteLength":288,"byteOffset":39908,"target":34962},{"buffer":0,"byteLength":72,"byteOffset":40196,"target":34963},{"buffer":0,"byteLength":540,"byteOffset":40268,"target":34962},{"buffer":0,"byteLength":540,"byteOffset":40808,"target":34962},{"buffer":0,"byteLength":180,"byteOffset":41348,"target":34962},{"buffer":0,"byteLength":720,"byteOffset":41528,"target":34962},{"buffer":0,"byteLength":168,"byteOffset":42248,"target":34963},{"buffer":0,"byteLength":360,"byteOffset":42416,"target":34962},{"buffer":0,"byteLength":360,"byteOffset":42776,"target":34962},{"buffer":0,"byteLength":120,"byteOffset":43136,"target":34962},{"buffer":0,"byteLength":480,"byteOffset":43256,"target":34962},{"buffer":0,"byteLength":84,"byteOffset":43736,"target":34963},{"buffer":0,"byteLength":744,"byteOffset":43820,"target":34962},{"buffer":0,"byteLength":744,"byteOffset":44564,"target":34962},{"buffer":0,"byteLength":248,"byteOffset":45308,"target":34962},{"buffer":0,"byteLength":992,"byteOffset":45556,"target":34962},{"buffer":0,"byteLength":204,"byteOffset":46548,"target":34963},{"buffer":0,"byteLength":1280,"byteOffset":46752},{"buffer":0,"byteLength":8,"byteOffset":48032},{"buffer":0,"byteLength":24,"byteOffset":48040},{"buffer":0,"byteLength":32,"byteOffset":48064},{"buffer":0,"byteLength":24,"byteOffset":48096},{"buffer":0,"byteLength":204,"byteOffset":48120},{"buffer":0,"byteLength":612,"byteOffset":48324},{"buffer":0,"byteLength":32,"byteOffset":48936},{"buffer":0,"byteLength":24,"byteOffset":48968},{"buffer":0,"byteLength":816,"byteOffset":48992},{"buffer":0,"byteLength":24,"byteOffset":49808},{"buffer":0,"byteLength":24,"byteOffset":49832},{"buffer":0,"byteLength":816,"byteOffset":49856},{"buffer":0,"byteLength":24,"byteOffset":50672},{"buffer":0,"byteLength":24,"byteOffset":50696},{"buffer":0,"byteLength":816,"byteOffset":50720},{"buffer":0,"byteLength":24,"byteOffset":51536},{"buffer":0,"byteLength":24,"byteOffset":51560},{"buffer":0,"byteLength":32,"byteOffset":51584},{"buffer":0,"byteLength":24,"byteOffset":51616},{"buffer":0,"byteLength":612,"byteOffset":51640},{"buffer":0,"byteLength":32,"byteOffset":52252},{"buffer":0,"byteLength":24,"byteOffset":52284},{"buffer":0,"byteLength":24,"byteOffset":52308},{"buffer":0,"byteLength":32,"byteOffset":52332},{"buffer":0,"byteLength":24,"byteOffset":52364},{"buffer":0,"byteLength":24,"byteOffset":52388},{"buffer":0,"byteLength":32,"byteOffset":52412},{"buffer":0,"byteLength":24,"byteOffset":52444},{"buffer":0,"byteLength":24,"byteOffset":52468},{"buffer":0,"byteLength":816,"byteOffset":52492},{"buffer":0,"byteLength":24,"byteOffset":53308},{"buffer":0,"byteLength":24,"byteOffset":53332},{"buffer":0,"byteLength":816,"byteOffset":53356},{"buffer":0,"byteLength":24,"byteOffset":54172},{"buffer":0,"byteLength":24,"byteOffset":54196},{"buffer":0,"byteLength":32,"byteOffset":54220},{"buffer":0,"byteLength":24,"byteOffset":54252},{"buffer":0,"byteLength":24,"byteOffset":54276},{"buffer":0,"byteLength":32,"byteOffset":54300},{"buffer":0,"byteLength":24,"byteOffset":54332},{"buffer":0,"byteLength":24,"byteOffset":54356},{"buffer":0,"byteLength":32,"byteOffset":54380},{"buffer":0,"byteLength":24,"byteOffset":54412},{"buffer":0,"byteLength":32,"byteOffset":54436},{"buffer":0,"byteLength":24,"byteOffset":54468},{"buffer":0,"byteLength":32,"byteOffset":54492},{"buffer":0,"byteLength":24,"byteOffset":54524},{"buffer":0,"byteLength":24,"byteOffset":54548},{"buffer":0,"byteLength":816,"byteOffset":54572},{"buffer":0,"byteLength":24,"byteOffset":55388},{"buffer":0,"byteLength":24,"byteOffset":55412},{"buffer":0,"byteLength":816,"byteOffset":55436},{"buffer":0,"byteLength":24,"byteOffset":56252},{"buffer":0,"byteLength":24,"byteOffset":56276},{"buffer":0,"byteLength":816,"byteOffset":56300},{"buffer":0,"byteLength":24,"byteOffset":57116},{"buffer":0,"byteLength":24,"byteOffset":57140},{"buffer":0,"byteLength":32,"byteOffset":57164},{"buffer":0,"byteLength":24,"byteOffset":57196},{"buffer":0,"byteLength":8,"byteOffset":57220},{"buffer":0,"byteLength":84,"byteOffset":57228},{"buffer":0,"byteLength":252,"byteOffset":57312},{"buffer":0,"byteLength":32,"byteOffset":57564},{"buffer":0,"byteLength":24,"byteOffset":57596},{"buffer":0,"byteLength":336,"byteOffset":57620},{"buffer":0,"byteLength":24,"byteOffset":57956},{"buffer":0,"byteLength":24,"byteOffset":57980},{"buffer":0,"byteLength":336,"byteOffset":58004},{"buffer":0,"byteLength":24,"byteOffset":58340},{"buffer":0,"byteLength":24,"byteOffset":58364},{"buffer":0,"byteLength":336,"byteOffset":58388},{"buffer":0,"byteLength":24,"byteOffset":58724},{"buffer":0,"byteLength":24,"byteOffset":58748},{"buffer":0,"byteLength":32,"byteOffset":58772},{"buffer":0,"byteLength":24,"byteOffset":58804},{"buffer":0,"byteLength":252,"byteOffset":58828},{"buffer":0,"byteLength":32,"byteOffset":59080},{"buffer":0,"byteLength":24,"byteOffset":59112},{"buffer":0,"byteLength":24,"byteOffset":59136},{"buffer":0,"byteLength":32,"byteOffset":59160},{"buffer":0,"byteLength":24,"byteOffset":59192},{"buffer":0,"byteLength":24,"byteOffset":59216},{"buffer":0,"byteLength":32,"byteOffset":59240},{"buffer":0,"byteLength":24,"byteOffset":59272},{"buffer":0,"byteLength":32,"byteOffset":59296},{"buffer":0,"byteLength":24,"byteOffset":59328},{"buffer":0,"byteLength":24,"byteOffset":59352},{"buffer":0,"byteLength":32,"byteOffset":59376},{"buffer":0,"byteLength":24,"byteOffset":59408},{"buffer":0,"byteLength":24,"byteOffset":59432},{"buffer":0,"byteLength":32,"byteOffset":59456},{"buffer":0,"byteLength":24,"byteOffset":59488},{"buffer":0,"byteLength":24,"byteOffset":59512},{"buffer":0,"byteLength":32,"byteOffset":59536},{"buffer":0,"byteLength":252,"byteOffset":59568},{"buffer":0,"byteLength":336,"byteOffset":59820},{"buffer":0,"byteLength":24,"byteOffset":60156},{"buffer":0,"byteLength":24,"byteOffset":60180},{"buffer":0,"byteLength":336,"byteOffset":60204},{"buffer":0,"byteLength":24,"byteOffset":60540},{"buffer":0,"byteLength":24,"byteOffset":60564},{"buffer":0,"byteLength":336,"byteOffset":60588},{"buffer":0,"byteLength":24,"byteOffset":60924},{"buffer":0,"byteLength":24,"byteOffset":60948},{"buffer":0,"byteLength":336,"byteOffset":60972},{"buffer":0,"byteLength":24,"byteOffset":61308},{"buffer":0,"byteLength":24,"byteOffset":61332},{"buffer":0,"byteLength":32,"byteOffset":61356}],"buffers":[{"byteLength":61388,"uri":"snake.bin"}],"materials":[{"doubleSided":true,"name":"DarkGreen","pbrMetallicRoughness":{"baseColorFactor":[0.1918942928314209,0.4868910014629364,0.3318164646625519,1],"metallicFactor":0,"roughnessFactor":0.690034806728363}},{"doubleSided":true,"name":"LightGreen","pbrMetallicRoughness":{"baseColorFactor":[0.3779768943786621,0.603810727596283,0.44901296496391296,1],"metallicFactor":0,"roughnessFactor":0.690034806728363}},{"doubleSided":true,"name":"Yellow","pbrMetallicRoughness":{"baseColorFactor":[1,0.6016382575035095,0.09403109550476074,1],"metallicFactor":0,"roughnessFactor":0.690034806728363}},{"doubleSided":true,"name":"DarkRed","pbrMetallicRoughness":{"baseColorFactor":[0.4868910014629364,0.09140472114086151,0.06742755323648453,1],"metallicFactor":0,"roughnessFactor":0.690034806728363}},{"doubleSided":true,"name":"Red","pbrMetallicRoughness":{"baseColorFactor":[1,0.103496253490448,0.15611012279987335,1],"metallicFactor":0,"roughnessFactor":0.690034806728363}},{"doubleSided":true,"name":"Teeth","pbrMetallicRoughness":{"baseColorFactor":[1,0.6259997487068176,0.3853866755962372,1],"metallicFactor":0,"roughnessFactor":0.690034806728363}},{"doubleSided":true,"name":"Purple","pbrMetallicRoughness":{"baseColorFactor":[0.16794554889202118,0.05357574298977852,0.10568028688430786,1],"metallicFactor":0,"roughnessFactor":0.690034806728363}}],"meshes":[{"name":"Cylinder","primitives":[{"attributes":{"JOINTS_0":2,"NORMAL":1,"POSITION":0,"WEIGHTS_0":3},"indices":4,"material":0},{"attributes":{"JOINTS_0":7,"NORMAL":6,"POSITION":5,"WEIGHTS_0":8},"indices":9,"material":1},{"attributes":{"JOINTS_0":12,"NORMAL":11,"POSITION":10,"WEIGHTS_0":13},"indices":14,"material":2},{"attributes":{"JOINTS_0":17,"NORMAL":16,"POSITION":15,"WEIGHTS_0":18},"indices":19,"material":3},{"attributes":{"JOINTS_0":22,"NORMAL":21,"POSITION":20,"WEIGHTS_0":23},"indices":24,"material":4},{"attributes":{"JOINTS_0":27,"NORMAL":26,"POSITION":25,"WEIGHTS_0":28},"indices":29,"material":5},{"attributes":{"JOINTS_0":32,"NORMAL":31,"POSITION":30,"WEIGHTS_0":33},"indices":34,"material":6}]}],"nodes":[{"name":"Head_end","rotation":[1.1890925577517919e-07,2.8405338525772095e-08,1.7734517854250953e-08,1],"scale":[1,0.9999999403953552,1],"translation":[4.540197551250458e-09,0.16661062836647034,-2.6047928258776665e-08]},{"children":[0],"name":"Head","rotation":[0.04296520724892616,-0.8327559232711792,-0.5480968952178955,0.06527959555387497],"scale":[0.9999999403953552,0.9999999403953552,1],"translation":[5.152863913338024e-09,0.19684435427188873,2.0518386989465398e-08]},{"children":[1],"name":"Neck","rotation":[-0.4223853349685669,-0.23097653687000275,-0.11223232001066208,0.8692781329154968],"scale":[0.9999999403953552,0.9999998211860657,0.9999999403953552],"translation":[-2.4854671210050583e-08,0.21004584431648254,2.5174813345074654e-08]},{"children":[2],"name":"Chest","rotation":[0.01918618567287922,0.25674906373023987,0.005097981542348862,0.9662742018699646],"translation":[-0.0027271127328276634,-0.1314476728439331,0.23297329246997833]},{"children":[3],"name":"Body","rotation":[-3.546950466627383e-21,1.1920923270736239e-07,0,1],"translation":[0.0004900969215668738,0.24563604593276978,-0.0718115046620369]},{"name":"LowerMouth_end","rotation":[-3.2782554626464844e-07,-2.2711876823677812e-09,1.0671463712697005e-11,1],"translation":[-2.4783730623312294e-11,0.15933044254779816,7.943206981053663e-09]},{"children":[5],"name":"LowerMouth","rotation":[-0.18678662180900574,-0.003060791175812483,-0.0005821046070195735,0.982395589351654],"translation":[0.00017567082250025123,0.04297506809234619,-0.028188087046146393]},{"name":"Tongue3_end","rotation":[-1.452862989026471e-06,6.502826011001162e-08,5.44911760158584e-09,1],"scale":[1,1.0000001192092896,1.0000001192092896],"translation":[-1.603339683242666e-10,0.06412465870380402,6.45069562210665e-08]},{"children":[7],"name":"Tongue3","rotation":[-0.025420671328902245,7.367581815742597e-07,6.487583448233636e-08,0.9996768236160278],"translation":[-8.242295734817162e-12,0.05890773609280586,-3.2414028794391925e-08]},{"children":[8],"name":"Tongue2","rotation":[-1.10738733738458e-08,-0.9999969601631165,-0.0024727301206439734,1.863631837295543e-06],"scale":[1,1.0000003576278687,1],"translation":[-9.904965736495797e-12,0.07638318091630936,-3.6947875869941527e-09]},{"children":[9],"name":"Tongue1","rotation":[0.00014430626470129937,0.9989197254180908,-0.04636497423052788,0.0031161848455667496],"scale":[0.9999999403953552,1,0.9999999403953552],"translation":[0.0007626371807418764,0.1038489118218422,-0.02851743809878826]},{"children":[6,10],"name":"Mouth","rotation":[0.002215840620920062,-0.7031169533729553,-0.7110674977302551,0.002190729370340705],"scale":[0.9999999403953552,0.9999998211860657,0.9999999403953552],"translation":[-0.0022369169164448977,0.6017589569091797,0.06968686729669571]},{"name":"PoleTarget_end","rotation":[8.039959453753909e-08,7.972268192970913e-22,5.750627296401134e-14,1],"translation":[4.876627530611688e-13,0.07387608289718628,-6.314166967058554e-09]},{"children":[12],"name":"PoleTarget","rotation":[-3.546950466627383e-21,1.1920931797249068e-07,0,1],"translation":[-0.0015599868493154645,0.6277591586112976,1.0432584285736084]},{"name":"Tail3_end","rotation":[-1.7695128917694092e-08,-1.594637616397776e-11,-7.243047387962364e-18,1],"translation":[-1.4707015119630462e-11,0.10458788275718689,-1.8618474539877639e-09]},{"children":[14],"name":"Tail3","rotation":[-0.029959581792354584,5.463184418741385e-11,-8.816962784874427e-12,0.9995511174201965],"scale":[1,1,0.9999999403953552],"translation":[-6.799043533040061e-12,0.08560816943645477,5.780254608289681e-10]},{"children":[15],"name":"Tail2","rotation":[0.03564617410302162,8.1807156535052e-12,8.250434190004707e-12,0.9993644952774048],"scale":[1,0.9999999403953552,1],"translation":[-8.628577019553774e-12,0.11722609400749207,5.104250355714157e-13]},{"children":[16],"name":"Tail1","rotation":[0.2108614146709442,9.444339754693942e-11,-1.4446124851907882e-10,0.9775159358978271],"scale":[1,0.9999999403953552,1],"translation":[4.4054833565898566e-12,0.11447300016880035,9.312263182792435e-10]},{"children":[17],"name":"Tail","rotation":[-0.8590996861457825,-1.218916452216945e-07,-2.0472155881634535e-07,0.5118082761764526],"translation":[0.000770377169828862,0.0905766487121582,0.11296243220567703]},{"children":[4,11,13,18],"name":"Root","rotation":[-7.000211610375118e-08,2.384185791015625e-07,-1.9168757089981815e-14,1],"translation":[0.0015153721906244755,0.0006485083722509444,-0.04059397056698799]},{"mesh":0,"name":"Snake","skin":0},{"children":[20,19],"name":"Armature"}],"scene":0,"scenes":[{"name":"Scene","nodes":[21]}],"skins":[{"inverseBindMatrices":35,"joints":[19,4,3,2,1,0,11,6,5,10,9,8,7,13,12,18,17,16,15,14],"name":"Armature"}]}
