{"accessors":[{"bufferView":0,"componentType":5126,"count":306,"max":[0.2750000059604645,0.17000000178813934,0.14500001072883606],"min":[-0.2750000059604645,0.04500000178813934,-0.21128776669502258],"type":"VEC3"},{"bufferView":1,"componentType":5126,"count":306,"type":"VEC3"},{"bufferView":2,"componentType":5126,"count":306,"type":"VEC2"},{"bufferView":3,"componentType":5121,"count":306,"type":"VEC4"},{"bufferView":4,"componentType":5126,"count":306,"type":"VEC4"},{"bufferView":5,"componentType":5123,"count":420,"type":"SCALAR"},{"bufferView":6,"componentType":5126,"count":84,"max":[0.03464101627469063,0.11550000309944153,0.08999999612569809],"min":[-0.034641019999980927,0.04050000011920929,-0.029999999329447746],"type":"VEC3"},{"bufferView":7,"componentType":5126,"count":84,"type":"VEC3"},{"bufferView":8,"componentType":5126,"count":84,"type":"VEC2"},{"bufferView":9,"componentType":5121,"count":84,"type":"VEC4"},{"bufferView":10,"componentType":5126,"count":84,"type":"VEC4"},{"bufferView":11,"componentType":5123,"count":108,"type":"SCALAR"},{"bufferView":12,"componentType":5126,"count":24,"max":[0.012000000104308128,0.13199999928474426,0.16750000417232513],"min":[-0.012000000104308128,0.10799999535083771,0.13250000774860382],"type":"VEC3"},{"bufferView":13,"componentType":5126,"count":24,"type":"VEC3"},{"bufferView":14,"componentType":5126,"count":24,"type":"VEC2"},{"bufferView":15,"componentType":5121,"count":24,"type":"VEC4"},{"bufferView":16,"componentType":5126,"count":24,"type":"VEC4"},{"bufferView":17,"componentType":5123,"count":36,"type":"SCALAR"},{"bufferView":18,"componentType":5126,"count":5,"type":"MAT4"},{"bufferView":19,"componentType":5126,"count":7,"max":[0.2916666666666667],"min":[0.041666666666666664],"type":"SCALAR"},{"bufferView":20,"componentType":5126,"count":7,"type":"VEC3"},{"bufferView":21,"componentType":5126,"count":2,"max":[0.2916666666666667],"min":[0.041666666666666664],"type":"SCALAR"},{"bufferView":22,"componentType":5126,"count":2,"type":"VEC4"},{"bufferView":23,"componentType":5126,"count":2,"type":"VEC3"},{"bufferView":24,"componentType":5126,"count":2,"type":"VEC3"},{"bufferView":25,"componentType":5126,"count":2,"type":"VEC3"},{"bufferView":26,"componentType":5126,"count":7,"type":"VEC4"},{"bufferView":27,"componentType":5126,"count":2,"type":"VEC3"},{"bufferView":28,"componentType":5126,"count":7,"type":"VEC4"},{"bufferView":29,"componentType":5126,"count":2,"type":"VEC3"},{"bufferView":30,"componentType":5126,"count":7,"type":"VEC4"},{"bufferView":31,"componentType":5126,"count":33,"max":[1.375],"min":[0.041666666666666664],"type":"SCALAR"},{"bufferView":32,"componentType":5126,"count":33,"type":"VEC3"},{"bufferView":33,"componentType":5126,"count":33,"type":"VEC4"},{"bufferView":34,"componentType":5126,"count":2,"max":[1.375],"min":[0.041666666666666664],"type":"SCALAR"},{"bufferView":35,"componentType":5126,"count":33,"type":"VEC4"},{"bufferView":36,"componentType":5126,"count":33,"type":"VEC4"},{"bufferView":37,"componentType":5126,"count":2,"type":"VEC4"},{"bufferView":38,"componentType":5126,"count":2,"type":"VEC3"},{"bufferView":39,"componentType":5126,"count":2,"type":"VEC4"}],"animations":[{"channels":[{"sampler":0,"target":{"node":4,"path":"translation"}},{"sampler":1,"target":{"node":4,"path":"rotation"}},{"sampler":2,"target":{"node":4,"path":"scale"}},{"sampler":3,"target":{"node":0,"path":"translation"}},{"sampler":4,"target":{"node":0,"path":"rotation"}},{"sampler":5,"target":{"node":0,"path":"scale"}},{"sampler":6,"target":{"node":1,"path":"translation"}},{"sampler":7,"target":{"node":1,"path":"rotation"}},{"sampler":8,"target":{"node":1,"path":"scale"}},{"sampler":9,"target":{"node":2,"path":"translation"}},{"sampler":10,"target":{"node":2,"path":"rotation"}},{"sampler":11,"target":{"node":2,"path":"scale"}},{"sampler":12,"target":{"node":3,"path":"translation"}},{"sampler":13,"target":{"node":3,"path":"rotation"}},{"sampler":14,"target":{"node":3,"path":"scale"}}],"name":"flap","samplers":[{"input":19,"interpolation":"LINEAR","output":20},{"input":21,"interpolation":"STEP","output":22},{"input":21,"interpolation":"STEP","output":23},{"input":21,"interpolation":"STEP","output":24},{"input":21,"interpolation":"STEP","output":22},{"input":21,"interpolation":"STEP","output":23},{"input":21,"interpolation":"STEP","output":25},{"input":19,"interpolation":"LINEAR","output":26},{"input":21,"interpolation":"STEP","output":23},{"input":21,"interpolation":"STEP","output":27},{"input":19,"interpolation":"LINEAR","output":28},{"input":21,"interpolation":"STEP","output":23},{"input":21,"interpolation":"STEP","output":29},{"input":19,"interpolation":"LINEAR","output":30},{"input":21,"interpolation":"STEP","output":23}]},{"channels":[{"sampler":0,"target":{"node":4,"path":"translation"}},{"sampler":1,"target":{"node":4,"path":"rotation"}},{"sampler":2,"target":{"node":4,"path":"scale"}},{"sampler":3,"target":{"node":0,"path":"translation"}},{"sampler":4,"target":{"node":0,"path":"rotation"}},{"sampler":5,"target":{"node":0,"path":"scale"}},{"sampler":6,"target":{"node":1,"path":"translation"}},{"sampler":7,"target":{"node":1,"path":"rotation"}},{"sampler":8,"target":{"node":1,"path":"scale"}},{"sampler":9,"target":{"node":2,"path":"translation"}},{"sampler":10,"target":{"node":2,"path":"rotation"}},{"sampler":11,"target":{"node":2,"path":"scale"}},{"sampler":12,"target":{"node":3,"path":"translation"}},{"sampler":13,"target":{"node":3,"path":"rotation"}},{"sampler":14,"target":{"node":3,"path":"scale"}}],"name":"idle","samplers":[{"input":31,"interpolation":"LINEAR","output":32},{"input":31,"interpolation":"LINEAR","output":33},{"input":34,"interpolation":"STEP","output":23},{"input":34,"interpolation":"STEP","output":24},{"input":31,"interpolation":"LINEAR","output":35},{"input":34,"interpolation":"STEP","output":23},{"input":34,"interpolation":"STEP","output":25},{"input":31,"interpolation":"LINEAR","output":36},{"input":34,"interpolation":"STEP","output":23},{"input":34,"interpolation":"STEP","output":27},{"input":34,"interpolation":"STEP","output":37},{"input":34,"interpolation":"STEP","output":38},{"input":34,"interpolation":"STEP","output":29},{"input":34,"interpolation":"STEP","output":39},{"input":34,"interpolation":"STEP","output":38}]}],"asset":{"generator":"Khronos glTF Blender I/O v5.2.40","version":"2.0"},"bufferViews":[{"buffer":0,"byteLength":3672,"byteOffset":0,"target":34962},{"buffer":0,"byteLength":3672,"byteOffset":3672,"target":34962},{"buffer":0,"byteLength":2448,"byteOffset":7344,"target":34962},{"buffer":0,"byteLength":1224,"byteOffset":9792,"target":34962},{"buffer":0,"byteLength":4896,"byteOffset":11016,"target":34962},{"buffer":0,"byteLength":840,"byteOffset":15912,"target":34963},{"buffer":0,"byteLength":1008,"byteOffset":16752,"target":34962},{"buffer":0,"byteLength":1008,"byteOffset":17760,"target":34962},{"buffer":0,"byteLength":672,"byteOffset":18768,"target":34962},{"buffer":0,"byteLength":336,"byteOffset":19440,"target":34962},{"buffer":0,"byteLength":1344,"byteOffset":19776,"target":34962},{"buffer":0,"byteLength":216,"byteOffset":21120,"target":34963},{"buffer":0,"byteLength":288,"byteOffset":21336,"target":34962},{"buffer":0,"byteLength":288,"byteOffset":21624,"target":34962},{"buffer":0,"byteLength":192,"byteOffset":21912,"target":34962},{"buffer":0,"byteLength":96,"byteOffset":22104,"target":34962},{"buffer":0,"byteLength":384,"byteOffset":22200,"target":34962},{"buffer":0,"byteLength":72,"byteOffset":22584,"target":34963},{"buffer":0,"byteLength":320,"byteOffset":22656},{"buffer":0,"byteLength":28,"byteOffset":22976},{"buffer":0,"byteLength":84,"byteOffset":23004},{"buffer":0,"byteLength":8,"byteOffset":23088},{"buffer":0,"byteLength":32,"byteOffset":23096},{"buffer":0,"byteLength":24,"byteOffset":23128},{"buffer":0,"byteLength":24,"byteOffset":23152},{"buffer":0,"byteLength":24,"byteOffset":23176},{"buffer":0,"byteLength":112,"byteOffset":23200},{"buffer":0,"byteLength":24,"byteOffset":23312},{"buffer":0,"byteLength":112,"byteOffset":23336},{"buffer":0,"byteLength":24,"byteOffset":23448},{"buffer":0,"byteLength":112,"byteOffset":23472},{"buffer":0,"byteLength":132,"byteOffset":23584},{"buffer":0,"byteLength":396,"byteOffset":23716},{"buffer":0,"byteLength":528,"byteOffset":24112},{"buffer":0,"byteLength":8,"byteOffset":24640},{"buffer":0,"byteLength":528,"byteOffset":24648},{"buffer":0,"byteLength":528,"byteOffset":25176},{"buffer":0,"byteLength":32,"byteOffset":25704},{"buffer":0,"byteLength":24,"byteOffset":25736},{"buffer":0,"byteLength":32,"byteOffset":25760}],"buffers":[{"byteLength":25792,"uri":"songbird.bin"}],"materials":[{"doubleSided":true,"name":"Bird_Back","pbrMetallicRoughness":{"baseColorFactor":[0.07999999821186066,0.10000000149011612,0.18000000715255737,1],"metallicFactor":0,"roughnessFactor":0.800000011920929}},{"doubleSided":true,"name":"Bird_Breast","pbrMetallicRoughness":{"baseColorFactor":[0.6200000047683716,0.2800000011920929,0.11999999731779099,1],"metallicFactor":0,"roughnessFactor":0.800000011920929}},{"doubleSided":true,"name":"Bird_Beak","pbrMetallicRoughness":{"baseColorFactor":[0.05000000074505806,0.03999999910593033,0.029999999329447746,1],"metallicFactor":0,"roughnessFactor":0.5}}],"meshes":[{"name":"Songbird","primitives":[{"attributes":{"JOINTS_0":3,"NORMAL":1,"POSITION":0,"TEXCOORD_0":2,"WEIGHTS_0":4},"indices":5,"material":0},{"attributes":{"JOINTS_0":9,"NORMAL":7,"POSITION":6,"TEXCOORD_0":8,"WEIGHTS_0":10},"indices":11,"material":1},{"attributes":{"JOINTS_0":15,"NORMAL":13,"POSITION":12,"TEXCOORD_0":14,"WEIGHTS_0":16},"indices":17,"material":2}]}],"nodes":[{"name":"head","translation":[0,0.0299999937415123,0.07999999821186066]},{"name":"tail","translation":[0,0,-0.09000000357627869]},{"name":"wing_L","translation":[0.03500000014901161,0.019999995827674866,0.019999999552965164]},{"name":"wing_R","translation":[-0.03500000014901161,0.019999995827674866,0.019999999552965164]},{"children":[0,1,2,3],"name":"body","translation":[0,0.09000000357627869,0]},{"mesh":0,"name":"Songbird","skin":0},{"children":[5,4],"name":"Songbird_Rig"}],"scene":0,"scenes":[{"name":"Scene","nodes":[6]}],"skins":[{"inverseBindMatrices":18,"joints":[4,0,1,2,3],"name":"Songbird_Rig"}]}
