{"accessors":[{"bufferView":0,"componentType":5126,"count":112,"max":[0.04580194130539894,0.1456911563873291,0.026790928095579147],"min":[-0.08588027954101562,-0.017534863203763962,-0.02299376204609871],"type":"VEC3"},{"bufferView":1,"componentType":5126,"count":112,"type":"VEC3"},{"bufferView":2,"componentType":5121,"count":112,"type":"VEC4"},{"bufferView":3,"componentType":5126,"count":112,"type":"VEC4"},{"bufferView":4,"componentType":5123,"count":273,"type":"SCALAR"},{"bufferView":5,"componentType":5126,"count":318,"max":[0.08808925002813339,0.16120925545692444,0.037621498107910156],"min":[-0.08588027954101562,-0.0193178690969944,-0.03378286957740784],"type":"VEC3"},{"bufferView":6,"componentType":5126,"count":318,"type":"VEC3"},{"bufferView":7,"componentType":5121,"count":318,"type":"VEC4"},{"bufferView":8,"componentType":5126,"count":318,"type":"VEC4"},{"bufferView":9,"componentType":5123,"count":1101,"type":"SCALAR"},{"bufferView":10,"componentType":5126,"count":16,"max":[-0.017646238207817078,0.18572834134101868,0.06633342057466507],"min":[-0.1086423248052597,0.12421317398548126,-0.06256352365016937],"type":"VEC3"},{"bufferView":11,"componentType":5126,"count":16,"type":"VEC3"},{"bufferView":12,"componentType":5121,"count":16,"type":"VEC4"},{"bufferView":13,"componentType":5126,"count":16,"type":"VEC4"},{"bufferView":14,"componentType":5123,"count":72,"type":"SCALAR"},{"bufferView":15,"componentType":5126,"count":18,"max":[0.02407355047762394,0.06145155429840088,0.031207846477627754],"min":[-0.0262270700186491,0.021779654547572136,-0.026857642456889153],"type":"VEC3"},{"bufferView":16,"componentType":5126,"count":18,"type":"VEC3"},{"bufferView":17,"componentType":5121,"count":18,"type":"VEC4"},{"bufferView":18,"componentType":5126,"count":18,"type":"VEC4"},{"bufferView":19,"componentType":5123,"count":18,"type":"SCALAR"},{"bufferView":20,"componentType":5126,"count":39,"type":"MAT4"},{"bufferView":21,"componentType":5126,"count":2,"max":[1.5416666666666667],"min":[0.041666666666666664],"type":"SCALAR"},{"bufferView":22,"componentType":5126,"count":2,"type":"VEC3"},{"bufferView":23,"componentType":5126,"count":2,"type":"VEC4"},{"bufferView":24,"componentType":5126,"count":2,"type":"VEC3"},{"bufferView":25,"componentType":5126,"count":37,"max":[1.5416666666666667],"min":[0.041666666666666664],"type":"SCALAR"},{"bufferView":26,"componentType":5126,"count":37,"type":"VEC3"},{"bufferView":27,"componentType":5126,"count":2,"type":"VEC4"},{"bufferView":28,"componentType":5126,"count":2,"type":"VEC3"},{"bufferView":29,"componentType":5126,"count":2,"type":"VEC4"},{"bufferView":30,"componentType":5126,"count":2,"type":"VEC3"},{"bufferView":31,"componentType":5126,"count":2,"type":"VEC3"},{"bufferView":32,"componentType":5126,"count":2,"type":"VEC4"},{"bufferView":33,"componentType":5126,"count":2,"type":"VEC3"},{"bufferView":34,"componentType":5126,"count":2,"type":"VEC3"},{"bufferView":35,"componentType":5126,"count":37,"type":"VEC4"},{"bufferView":36,"componentType":5126,"count":2,"type":"VEC3"},{"bufferView":37,"componentType":5126,"count":2,"type":"VEC3"},{"bufferView":38,"componentType":5126,"count":37,"type":"VEC4"},{"bufferView":39,"componentType":5126,"count":2,"type":"VEC3"},{"bufferView":40,"componentType":5126,"count":2,"type":"VEC3"},{"bufferView":41,"componentType":5126,"count":2,"type":"VEC4"},{"bufferView":42,"componentType":5126,"count":2,"type":"VEC3"},{"bufferView":43,"componentType":5126,"count":2,"type":"VEC3"},{"bufferView":44,"componentType":5126,"count":2,"type":"VEC4"},{"bufferView":45,"componentType":5126,"count":2,"type":"VEC3"},{"bufferView":46,"componentType":5126,"count":2,"type":"VEC3"},{"bufferView":47,"componentType":5126,"count":2,"type":"VEC4"},{"bufferView":48,"componentType":5126,"count":2,"type":"VEC3"},{"bufferView":49,"componentType":5126,"count":2,"type":"VEC3"},{"bufferView":50,"componentType":5126,"count":37,"type":"VEC4"},{"bufferView":51,"componentType":5126,"count":2,"type":"VEC3"},{"bufferView":52,"componentType":5126,"count":2,"type":"VEC3"},{"bufferView":53,"componentType":5126,"count":2,"type":"VEC4"},{"bufferView":54,"componentType":5126,"count":2,"type":"VEC3"},{"bufferView":55,"componentType":5126,"count":2,"type":"VEC3"},{"bufferView":56,"componentType":5126,"count":2,"type":"VEC4"},{"bufferView":57,"componentType":5126,"count":2,"type":"VEC3"},{"bufferView":58,"componentType":5126,"count":2,"type":"VEC3"},{"bufferView":59,"componentType":5126,"count":37,"type":"VEC4"},{"bufferView":60,"componentType":5126,"count":2,"type":"VEC3"},{"bufferView":61,"componentType":5126,"count":2,"type":"VEC3"},{"bufferView":62,"componentType":5126,"count":37,"type":"VEC4"},{"bufferView":63,"componentType":5126,"count":2,"type":"VEC3"},{"bufferView":64,"componentType":5126,"count":2,"type":"VEC3"},{"bufferView":65,"componentType":5126,"count":2,"type":"VEC4"},{"bufferView":66,"componentType":5126,"count":2,"type":"VEC3"},{"bufferView":67,"componentType":5126,"count":2,"type":"VEC3"},{"bufferView":68,"componentType":5126,"count":37,"type":"VEC4"},{"bufferView":69,"componentType":5126,"count":2,"type":"VEC3"},{"bufferView":70,"componentType":5126,"count":2,"type":"VEC3"},{"bufferView":71,"componentType":5126,"count":2,"type":"VEC4"},{"bufferView":72,"componentType":5126,"count":2,"type":"VEC3"},{"bufferView":73,"componentType":5126,"count":2,"type":"VEC3"},{"bufferView":74,"componentType":5126,"count":37,"type":"VEC4"},{"bufferView":75,"componentType":5126,"count":2,"type":"VEC3"},{"bufferView":76,"componentType":5126,"count":2,"type":"VEC3"},{"bufferView":77,"componentType":5126,"count":2,"type":"VEC4"},{"bufferView":78,"componentType":5126,"count":2,"type":"VEC3"},{"bufferView":79,"componentType":5126,"count":2,"type":"VEC3"},{"bufferView":80,"componentType":5126,"count":2,"type":"VEC4"},{"bufferView":81,"componentType":5126,"count":2,"type":"VEC3"},{"bufferView":82,"componentType":5126,"count":2,"type":"VEC3"},{"bufferView":83,"componentType":5126,"count":2,"type":"VEC4"},{"bufferView":84,"componentType":5126,"count":2,"type":"VEC3"},{"bufferView":85,"componentType":5126,"count":2,"type":"VEC3"},{"bufferView":86,"componentType":5126,"count":37,"type":"VEC4"},{"bufferView":87,"componentType":5126,"count":2,"type":"VEC3"},{"bufferView":88,"componentType":5126,"count":2,"type":"VEC3"},{"bufferView":89,"componentType":5126,"count":37,"type":"VEC4"},{"bufferView":90,"componentType":5126,"count":2,"type":"VEC3"},{"bufferView":91,"componentType":5126,"count":2,"type":"VEC3"},{"bufferView":92,"componentType":5126,"count":37,"type":"VEC4"},{"bufferView":93,"componentType":5126,"count":2,"type":"VEC3"},{"bufferView":94,"componentType":5126,"count":2,"type":"VEC3"},{"bufferView":95,"componentType":5126,"count":2,"type":"VEC4"},{"bufferView":96,"componentType":5126,"count":2,"type":"VEC3"},{"bufferView":97,"componentType":5126,"count":2,"type":"VEC3"},{"bufferView":98,"componentType":5126,"count":2,"type":"VEC4"},{"bufferView":99,"componentType":5126,"count":2,"type":"VEC3"},{"bufferView":100,"componentType":5126,"count":2,"type":"VEC3"},{"bufferView":101,"componentType":5126,"count":2,"type":"VEC4"},{"bufferView":102,"componentType":5126,"count":2,"type":"VEC3"},{"bufferView":103,"componentType":5126,"count":37,"type":"VEC4"},{"bufferView":104,"componentType":5126,"count":2,"type":"VEC3"},{"bufferView":105,"componentType":5126,"count":2,"type":"VEC3"},{"bufferView":106,"componentType":5126,"count":2,"type":"VEC4"},{"bufferView":107,"componentType":5126,"count":2,"type":"VEC3"},{"bufferView":108,"componentType":5126,"count":2,"type":"VEC3"},{"bufferView":109,"componentType":5126,"count":37,"type":"VEC4"},{"bufferView":110,"componentType":5126,"count":2,"type":"VEC3"},{"bufferView":111,"componentType":5126,"count":2,"type":"VEC3"},{"bufferView":112,"componentType":5126,"count":2,"type":"VEC4"},{"bufferView":113,"componentType":5126,"count":2,"type":"VEC3"},{"bufferView":114,"componentType":5126,"count":2,"type":"VEC4"},{"bufferView":115,"componentType":5126,"count":2,"type":"VEC3"},{"bufferView":116,"componentType":5126,"count":2,"type":"VEC3"},{"bufferView":117,"componentType":5126,"count":37,"type":"VEC4"},{"bufferView":118,"componentType":5126,"count":2,"type":"VEC3"},{"bufferView":119,"componentType":5126,"count":2,"type":"VEC3"},{"bufferView":120,"componentType":5126,"count":37,"type":"VEC4"},{"bufferView":121,"componentType":5126,"count":2,"type":"VEC3"},{"bufferView":122,"componentType":5126,"count":2,"type":"VEC3"},{"bufferView":123,"componentType":5126,"count":2,"type":"VEC4"},{"bufferView":124,"componentType":5126,"count":2,"type":"VEC3"},{"bufferView":125,"componentType":5126,"count":2,"type":"VEC3"},{"bufferView":126,"componentType":5126,"count":37,"type":"VEC4"},{"bufferView":127,"componentType":5126,"count":2,"type":"VEC3"},{"bufferView":128,"componentType":5126,"count":2,"type":"VEC3"},{"bufferView":129,"componentType":5126,"count":2,"type":"VEC4"},{"bufferView":130,"componentType":5126,"count":2,"type":"VEC3"},{"bufferView":131,"componentType":5126,"count":2,"type":"VEC3"},{"bufferView":132,"componentType":5126,"count":37,"type":"VEC4"},{"bufferView":133,"componentType":5126,"count":2,"type":"VEC3"},{"bufferView":134,"componentType":5126,"count":2,"type":"VEC3"},{"bufferView":135,"componentType":5126,"count":2,"type":"VEC4"},{"bufferView":136,"componentType":5126,"count":2,"type":"VEC3"}],"animations":[{"channels":[{"sampler":0,"target":{"node":38,"path":"translation"}},{"sampler":1,"target":{"node":38,"path":"rotation"}},{"sampler":2,"target":{"node":38,"path":"scale"}},{"sampler":3,"target":{"node":37,"path":"translation"}},{"sampler":4,"target":{"node":37,"path":"rotation"}},{"sampler":5,"target":{"node":37,"path":"scale"}},{"sampler":6,"target":{"node":36,"path":"translation"}},{"sampler":7,"target":{"node":36,"path":"rotation"}},{"sampler":8,"target":{"node":36,"path":"scale"}},{"sampler":9,"target":{"node":3,"path":"translation"}},{"sampler":10,"target":{"node":3,"path":"rotation"}},{"sampler":11,"target":{"node":3,"path":"scale"}},{"sampler":12,"target":{"node":2,"path":"translation"}},{"sampler":13,"target":{"node":2,"path":"rotation"}},{"sampler":14,"target":{"node":2,"path":"scale"}},{"sampler":15,"target":{"node":1,"path":"translation"}},{"sampler":16,"target":{"node":1,"path":"rotation"}},{"sampler":17,"target":{"node":1,"path":"scale"}},{"sampler":18,"target":{"node":0,"path":"translation"}},{"sampler":19,"target":{"node":0,"path":"rotation"}},{"sampler":20,"target":{"node":0,"path":"scale"}},{"sampler":21,"target":{"node":7,"path":"translation"}},{"sampler":22,"target":{"node":7,"path":"rotation"}},{"sampler":23,"target":{"node":7,"path":"scale"}},{"sampler":24,"target":{"node":6,"path":"translation"}},{"sampler":25,"target":{"node":6,"path":"rotation"}},{"sampler":26,"target":{"node":6,"path":"scale"}},{"sampler":27,"target":{"node":5,"path":"translation"}},{"sampler":28,"target":{"node":5,"path":"rotation"}},{"sampler":29,"target":{"node":5,"path":"scale"}},{"sampler":30,"target":{"node":4,"path":"translation"}},{"sampler":31,"target":{"node":4,"path":"rotation"}},{"sampler":32,"target":{"node":4,"path":"scale"}},{"sampler":33,"target":{"node":11,"path":"translation"}},{"sampler":34,"target":{"node":11,"path":"rotation"}},{"sampler":35,"target":{"node":11,"path":"scale"}},{"sampler":36,"target":{"node":10,"path":"translation"}},{"sampler":37,"target":{"node":10,"path":"rotation"}},{"sampler":38,"target":{"node":10,"path":"scale"}},{"sampler":39,"target":{"node":9,"path":"translation"}},{"sampler":40,"target":{"node":9,"path":"rotation"}},{"sampler":41,"target":{"node":9,"path":"scale"}},{"sampler":42,"target":{"node":8,"path":"translation"}},{"sampler":43,"target":{"node":8,"path":"rotation"}},{"sampler":44,"target":{"node":8,"path":"scale"}},{"sampler":45,"target":{"node":15,"path":"translation"}},{"sampler":46,"target":{"node":15,"path":"rotation"}},{"sampler":47,"target":{"node":15,"path":"scale"}},{"sampler":48,"target":{"node":14,"path":"translation"}},{"sampler":49,"target":{"node":14,"path":"rotation"}},{"sampler":50,"target":{"node":14,"path":"scale"}},{"sampler":51,"target":{"node":13,"path":"translation"}},{"sampler":52,"target":{"node":13,"path":"rotation"}},{"sampler":53,"target":{"node":13,"path":"scale"}},{"sampler":54,"target":{"node":12,"path":"translation"}},{"sampler":55,"target":{"node":12,"path":"rotation"}},{"sampler":56,"target":{"node":12,"path":"scale"}},{"sampler":57,"target":{"node":27,"path":"translation"}},{"sampler":58,"target":{"node":27,"path":"rotation"}},{"sampler":59,"target":{"node":27,"path":"scale"}},{"sampler":60,"target":{"node":20,"path":"translation"}},{"sampler":61,"target":{"node":20,"path":"rotation"}},{"sampler":62,"target":{"node":20,"path":"scale"}},{"sampler":63,"target":{"node":19,"path":"translation"}},{"sampler":64,"target":{"node":19,"path":"rotation"}},{"sampler":65,"target":{"node":19,"path":"scale"}},{"sampler":66,"target":{"node":18,"path":"translation"}},{"sampler":67,"target":{"node":18,"path":"rotation"}},{"sampler":68,"target":{"node":18,"path":"scale"}},{"sampler":69,"target":{"node":17,"path":"translation"}},{"sampler":70,"target":{"node":17,"path":"rotation"}},{"sampler":71,"target":{"node":17,"path":"scale"}},{"sampler":72,"target":{"node":16,"path":"translation"}},{"sampler":73,"target":{"node":16,"path":"rotation"}},{"sampler":74,"target":{"node":16,"path":"scale"}},{"sampler":75,"target":{"node":22,"path":"translation"}},{"sampler":76,"target":{"node":22,"path":"rotation"}},{"sampler":77,"target":{"node":22,"path":"scale"}},{"sampler":78,"target":{"node":21,"path":"translation"}},{"sampler":79,"target":{"node":21,"path":"rotation"}},{"sampler":80,"target":{"node":21,"path":"scale"}},{"sampler":81,"target":{"node":24,"path":"translation"}},{"sampler":82,"target":{"node":24,"path":"rotation"}},{"sampler":83,"target":{"node":24,"path":"scale"}},{"sampler":84,"target":{"node":23,"path":"translation"}},{"sampler":85,"target":{"node":23,"path":"rotation"}},{"sampler":86,"target":{"node":23,"path":"scale"}},{"sampler":87,"target":{"node":26,"path":"translation"}},{"sampler":88,"target":{"node":26,"path":"rotation"}},{"sampler":89,"target":{"node":26,"path":"scale"}},{"sampler":90,"target":{"node":25,"path":"translation"}},{"sampler":91,"target":{"node":25,"path":"rotation"}},{"sampler":92,"target":{"node":25,"path":"scale"}},{"sampler":93,"target":{"node":31,"path":"translation"}},{"sampler":94,"target":{"node":31,"path":"rotation"}},{"sampler":95,"target":{"node":31,"path":"scale"}},{"sampler":96,"target":{"node":30,"path":"translation"}},{"sampler":97,"target":{"node":30,"path":"rotation"}},{"sampler":98,"target":{"node":30,"path":"scale"}},{"sampler":99,"target":{"node":29,"path":"translation"}},{"sampler":100,"target":{"node":29,"path":"rotation"}},{"sampler":101,"target":{"node":29,"path":"scale"}},{"sampler":102,"target":{"node":28,"path":"translation"}},{"sampler":103,"target":{"node":28,"path":"rotation"}},{"sampler":104,"target":{"node":28,"path":"scale"}},{"sampler":105,"target":{"node":35,"path":"translation"}},{"sampler":106,"target":{"node":35,"path":"rotation"}},{"sampler":107,"target":{"node":35,"path":"scale"}},{"sampler":108,"target":{"node":34,"path":"translation"}},{"sampler":109,"target":{"node":34,"path":"rotation"}},{"sampler":110,"target":{"node":34,"path":"scale"}},{"sampler":111,"target":{"node":33,"path":"translation"}},{"sampler":112,"target":{"node":33,"path":"rotation"}},{"sampler":113,"target":{"node":33,"path":"scale"}},{"sampler":114,"target":{"node":32,"path":"translation"}},{"sampler":115,"target":{"node":32,"path":"rotation"}},{"sampler":116,"target":{"node":32,"path":"scale"}}],"name":"fly","samplers":[{"input":21,"interpolation":"STEP","output":22},{"input":21,"interpolation":"STEP","output":23},{"input":21,"interpolation":"STEP","output":24},{"input":25,"interpolation":"LINEAR","output":26},{"input":21,"interpolation":"STEP","output":27},{"input":21,"interpolation":"STEP","output":24},{"input":21,"interpolation":"STEP","output":28},{"input":21,"interpolation":"STEP","output":29},{"input":21,"interpolation":"STEP","output":30},{"input":21,"interpolation":"STEP","output":31},{"input":21,"interpolation":"STEP","output":32},{"input":21,"interpolation":"STEP","output":33},{"input":21,"interpolation":"STEP","output":34},{"input":25,"interpolation":"LINEAR","output":35},{"input":21,"interpolation":"STEP","output":36},{"input":21,"interpolation":"STEP","output":37},{"input":25,"interpolation":"LINEAR","output":38},{"input":21,"interpolation":"STEP","output":39},{"input":21,"interpolation":"STEP","output":40},{"input":21,"interpolation":"STEP","output":41},{"input":21,"interpolation":"STEP","output":42},{"input":21,"interpolation":"STEP","output":43},{"input":21,"interpolation":"STEP","output":44},{"input":21,"interpolation":"STEP","output":45},{"input":21,"interpolation":"STEP","output":46},{"input":21,"interpolation":"STEP","output":47},{"input":21,"interpolation":"STEP","output":48},{"input":21,"interpolation":"STEP","output":49},{"input":25,"interpolation":"LINEAR","output":50},{"input":21,"interpolation":"STEP","output":51},{"input":21,"interpolation":"STEP","output":52},{"input":21,"interpolation":"STEP","output":53},{"input":21,"interpolation":"STEP","output":54},{"input":21,"interpolation":"STEP","output":55},{"input":21,"interpolation":"STEP","output":56},{"input":21,"interpolation":"STEP","output":57},{"input":21,"interpolation":"STEP","output":58},{"input":25,"interpolation":"LINEAR","output":59},{"input":21,"interpolation":"STEP","output":60},{"input":21,"interpolation":"STEP","output":61},{"input":25,"interpolation":"LINEAR","output":62},{"input":21,"interpolation":"STEP","output":63},{"input":21,"interpolation":"STEP","output":64},{"input":21,"interpolation":"STEP","output":65},{"input":21,"interpolation":"STEP","output":66},{"input":21,"interpolation":"STEP","output":67},{"input":25,"interpolation":"LINEAR","output":68},{"input":21,"interpolation":"STEP","output":69},{"input":21,"interpolation":"STEP","output":70},{"input":21,"interpolation":"STEP","output":71},{"input":21,"interpolation":"STEP","output":72},{"input":21,"interpolation":"STEP","output":73},{"input":25,"interpolation":"LINEAR","output":74},{"input":21,"interpolation":"STEP","output":75},{"input":21,"interpolation":"STEP","output":76},{"input":21,"interpolation":"STEP","output":77},{"input":21,"interpolation":"STEP","output":78},{"input":21,"interpolation":"STEP","output":79},{"input":21,"interpolation":"STEP","output":80},{"input":21,"interpolation":"STEP","output":81},{"input":21,"interpolation":"STEP","output":82},{"input":21,"interpolation":"STEP","output":83},{"input":21,"interpolation":"STEP","output":84},{"input":21,"interpolation":"STEP","output":85},{"input":25,"interpolation":"LINEAR","output":86},{"input":21,"interpolation":"STEP","output":87},{"input":21,"interpolation":"STEP","output":88},{"input":25,"interpolation":"LINEAR","output":89},{"input":21,"interpolation":"STEP","output":90},{"input":21,"interpolation":"STEP","output":91},{"input":25,"interpolation":"LINEAR","output":92},{"input":21,"interpolation":"STEP","output":93},{"input":21,"interpolation":"STEP","output":94},{"input":21,"interpolation":"STEP","output":95},{"input":21,"interpolation":"STEP","output":96},{"input":21,"interpolation":"STEP","output":97},{"input":21,"interpolation":"STEP","output":98},{"input":21,"interpolation":"STEP","output":99},{"input":21,"interpolation":"STEP","output":100},{"input":21,"interpolation":"STEP","output":101},{"input":21,"interpolation":"STEP","output":42},{"input":21,"interpolation":"STEP","output":102},{"input":25,"interpolation":"LINEAR","output":103},{"input":21,"interpolation":"STEP","output":104},{"input":21,"interpolation":"STEP","output":105},{"input":21,"interpolation":"STEP","output":106},{"input":21,"interpolation":"STEP","output":107},{"input":21,"interpolation":"STEP","output":108},{"input":25,"interpolation":"LINEAR","output":109},{"input":21,"interpolation":"STEP","output":110},{"input":21,"interpolation":"STEP","output":111},{"input":21,"interpolation":"STEP","output":112},{"input":21,"interpolation":"STEP","output":54},{"input":21,"interpolation":"STEP","output":113},{"input":21,"interpolation":"STEP","output":114},{"input":21,"interpolation":"STEP","output":115},{"input":21,"interpolation":"STEP","output":116},{"input":25,"interpolation":"LINEAR","output":117},{"input":21,"interpolation":"STEP","output":118},{"input":21,"interpolation":"STEP","output":119},{"input":25,"interpolation":"LINEAR","output":120},{"input":21,"interpolation":"STEP","output":121},{"input":21,"interpolation":"STEP","output":122},{"input":21,"interpolation":"STEP","output":123},{"input":21,"interpolation":"STEP","output":124},{"input":21,"interpolation":"STEP","output":125},{"input":25,"interpolation":"LINEAR","output":126},{"input":21,"interpolation":"STEP","output":127},{"input":21,"interpolation":"STEP","output":128},{"input":21,"interpolation":"STEP","output":129},{"input":21,"interpolation":"STEP","output":130},{"input":21,"interpolation":"STEP","output":131},{"input":25,"interpolation":"LINEAR","output":132},{"input":21,"interpolation":"STEP","output":133},{"input":21,"interpolation":"STEP","output":134},{"input":21,"interpolation":"STEP","output":135},{"input":21,"interpolation":"STEP","output":136}]}],"asset":{"generator":"Khronos glTF Blender I/O v5.2.40","version":"2.0"},"bufferViews":[{"buffer":0,"byteLength":1344,"byteOffset":0,"target":34962},{"buffer":0,"byteLength":1344,"byteOffset":1344,"target":34962},{"buffer":0,"byteLength":448,"byteOffset":2688,"target":34962},{"buffer":0,"byteLength":1792,"byteOffset":3136,"target":34962},{"buffer":0,"byteLength":546,"byteOffset":4928,"target":34963},{"buffer":0,"byteLength":3816,"byteOffset":5476,"target":34962},{"buffer":0,"byteLength":3816,"byteOffset":9292,"target":34962},{"buffer":0,"byteLength":1272,"byteOffset":13108,"target":34962},{"buffer":0,"byteLength":5088,"byteOffset":14380,"target":34962},{"buffer":0,"byteLength":2202,"byteOffset":19468,"target":34963},{"buffer":0,"byteLength":192,"byteOffset":21672,"target":34962},{"buffer":0,"byteLength":192,"byteOffset":21864,"target":34962},{"buffer":0,"byteLength":64,"byteOffset":22056,"target":34962},{"buffer":0,"byteLength":256,"byteOffset":22120,"target":34962},{"buffer":0,"byteLength":144,"byteOffset":22376,"target":34963},{"buffer":0,"byteLength":216,"byteOffset":22520,"target":34962},{"buffer":0,"byteLength":216,"byteOffset":22736,"target":34962},{"buffer":0,"byteLength":72,"byteOffset":22952,"target":34962},{"buffer":0,"byteLength":288,"byteOffset":23024,"target":34962},{"buffer":0,"byteLength":36,"byteOffset":23312,"target":34963},{"buffer":0,"byteLength":2496,"byteOffset":23348},{"buffer":0,"byteLength":8,"byteOffset":25844},{"buffer":0,"byteLength":24,"byteOffset":25852},{"buffer":0,"byteLength":32,"byteOffset":25876},{"buffer":0,"byteLength":24,"byteOffset":25908},{"buffer":0,"byteLength":148,"byteOffset":25932},{"buffer":0,"byteLength":444,"byteOffset":26080},{"buffer":0,"byteLength":32,"byteOffset":26524},{"buffer":0,"byteLength":24,"byteOffset":26556},{"buffer":0,"byteLength":32,"byteOffset":26580},{"buffer":0,"byteLength":24,"byteOffset":26612},{"buffer":0,"byteLength":24,"byteOffset":26636},{"buffer":0,"byteLength":32,"byteOffset":26660},{"buffer":0,"byteLength":24,"byteOffset":26692},{"buffer":0,"byteLength":24,"byteOffset":26716},{"buffer":0,"byteLength":592,"byteOffset":26740},{"buffer":0,"byteLength":24,"byteOffset":27332},{"buffer":0,"byteLength":24,"byteOffset":27356},{"buffer":0,"byteLength":592,"byteOffset":27380},{"buffer":0,"byteLength":24,"byteOffset":27972},{"buffer":0,"byteLength":24,"byteOffset":27996},{"buffer":0,"byteLength":32,"byteOffset":28020},{"buffer":0,"byteLength":24,"byteOffset":28052},{"buffer":0,"byteLength":24,"byteOffset":28076},{"buffer":0,"byteLength":32,"byteOffset":28100},{"buffer":0,"byteLength":24,"byteOffset":28132},{"buffer":0,"byteLength":24,"byteOffset":28156},{"buffer":0,"byteLength":32,"byteOffset":28180},{"buffer":0,"byteLength":24,"byteOffset":28212},{"buffer":0,"byteLength":24,"byteOffset":28236},{"buffer":0,"byteLength":592,"byteOffset":28260},{"buffer":0,"byteLength":24,"byteOffset":28852},{"buffer":0,"byteLength":24,"byteOffset":28876},{"buffer":0,"byteLength":32,"byteOffset":28900},{"buffer":0,"byteLength":24,"byteOffset":28932},{"buffer":0,"byteLength":24,"byteOffset":28956},{"buffer":0,"byteLength":32,"byteOffset":28980},{"buffer":0,"byteLength":24,"byteOffset":29012},{"buffer":0,"byteLength":24,"byteOffset":29036},{"buffer":0,"byteLength":592,"byteOffset":29060},{"buffer":0,"byteLength":24,"byteOffset":29652},{"buffer":0,"byteLength":24,"byteOffset":29676},{"buffer":0,"byteLength":592,"byteOffset":29700},{"buffer":0,"byteLength":24,"byteOffset":30292},{"buffer":0,"byteLength":24,"byteOffset":30316},{"buffer":0,"byteLength":32,"byteOffset":30340},{"buffer":0,"byteLength":24,"byteOffset":30372},{"buffer":0,"byteLength":24,"byteOffset":30396},{"buffer":0,"byteLength":592,"byteOffset":30420},{"buffer":0,"byteLength":24,"byteOffset":31012},{"buffer":0,"byteLength":24,"byteOffset":31036},{"buffer":0,"byteLength":32,"byteOffset":31060},{"buffer":0,"byteLength":24,"byteOffset":31092},{"buffer":0,"byteLength":24,"byteOffset":31116},{"buffer":0,"byteLength":592,"byteOffset":31140},{"buffer":0,"byteLength":24,"byteOffset":31732},{"buffer":0,"byteLength":24,"byteOffset":31756},{"buffer":0,"byteLength":32,"byteOffset":31780},{"buffer":0,"byteLength":24,"byteOffset":31812},{"buffer":0,"byteLength":24,"byteOffset":31836},{"buffer":0,"byteLength":32,"byteOffset":31860},{"buffer":0,"byteLength":24,"byteOffset":31892},{"buffer":0,"byteLength":24,"byteOffset":31916},{"buffer":0,"byteLength":32,"byteOffset":31940},{"buffer":0,"byteLength":24,"byteOffset":31972},{"buffer":0,"byteLength":24,"byteOffset":31996},{"buffer":0,"byteLength":592,"byteOffset":32020},{"buffer":0,"byteLength":24,"byteOffset":32612},{"buffer":0,"byteLength":24,"byteOffset":32636},{"buffer":0,"byteLength":592,"byteOffset":32660},{"buffer":0,"byteLength":24,"byteOffset":33252},{"buffer":0,"byteLength":24,"byteOffset":33276},{"buffer":0,"byteLength":592,"byteOffset":33300},{"buffer":0,"byteLength":24,"byteOffset":33892},{"buffer":0,"byteLength":24,"byteOffset":33916},{"buffer":0,"byteLength":32,"byteOffset":33940},{"buffer":0,"byteLength":24,"byteOffset":33972},{"buffer":0,"byteLength":24,"byteOffset":33996},{"buffer":0,"byteLength":32,"byteOffset":34020},{"buffer":0,"byteLength":24,"byteOffset":34052},{"buffer":0,"byteLength":24,"byteOffset":34076},{"buffer":0,"byteLength":32,"byteOffset":34100},{"buffer":0,"byteLength":24,"byteOffset":34132},{"buffer":0,"byteLength":592,"byteOffset":34156},{"buffer":0,"byteLength":24,"byteOffset":34748},{"buffer":0,"byteLength":24,"byteOffset":34772},{"buffer":0,"byteLength":32,"byteOffset":34796},{"buffer":0,"byteLength":24,"byteOffset":34828},{"buffer":0,"byteLength":24,"byteOffset":34852},{"buffer":0,"byteLength":592,"byteOffset":34876},{"buffer":0,"byteLength":24,"byteOffset":35468},{"buffer":0,"byteLength":24,"byteOffset":35492},{"buffer":0,"byteLength":32,"byteOffset":35516},{"buffer":0,"byteLength":24,"byteOffset":35548},{"buffer":0,"byteLength":32,"byteOffset":35572},{"buffer":0,"byteLength":24,"byteOffset":35604},{"buffer":0,"byteLength":24,"byteOffset":35628},{"buffer":0,"byteLength":592,"byteOffset":35652},{"buffer":0,"byteLength":24,"byteOffset":36244},{"buffer":0,"byteLength":24,"byteOffset":36268},{"buffer":0,"byteLength":592,"byteOffset":36292},{"buffer":0,"byteLength":24,"byteOffset":36884},{"buffer":0,"byteLength":24,"byteOffset":36908},{"buffer":0,"byteLength":32,"byteOffset":36932},{"buffer":0,"byteLength":24,"byteOffset":36964},{"buffer":0,"byteLength":24,"byteOffset":36988},{"buffer":0,"byteLength":592,"byteOffset":37012},{"buffer":0,"byteLength":24,"byteOffset":37604},{"buffer":0,"byteLength":24,"byteOffset":37628},{"buffer":0,"byteLength":32,"byteOffset":37652},{"buffer":0,"byteLength":24,"byteOffset":37684},{"buffer":0,"byteLength":24,"byteOffset":37708},{"buffer":0,"byteLength":592,"byteOffset":37732},{"buffer":0,"byteLength":24,"byteOffset":38324},{"buffer":0,"byteLength":24,"byteOffset":38348},{"buffer":0,"byteLength":32,"byteOffset":38372},{"buffer":0,"byteLength":24,"byteOffset":38404}],"buffers":[{"byteLength":38428,"uri":"wasp.bin"}],"materials":[{"doubleSided":true,"name":"Yellow","pbrMetallicRoughness":{"baseColorFactor":[0.8000000715255737,0.5439131259918213,0.1114908829331398,1],"metallicFactor":0,"roughnessFactor":0.690034806728363}},{"doubleSided":true,"name":"Black","pbrMetallicRoughness":{"baseColorFactor":[0.03740984946489334,0.03740984946489334,0.03740984946489334,1],"metallicFactor":0,"roughnessFactor":0.690034806728363}},{"doubleSided":true,"name":"LightBlue","pbrMetallicRoughness":{"baseColorFactor":[0.3304373323917389,0.6888181567192078,0.8000000715255737,1],"metallicFactor":0,"roughnessFactor":0.690034806728363}},{"doubleSided":true,"name":"Orange","pbrMetallicRoughness":{"baseColorFactor":[0.6151725053787231,0.09098414331674576,0.007395881228148937,1],"metallicFactor":0,"roughnessFactor":0.690034806728363}}],"meshes":[{"name":"Cylinder.001","primitives":[{"attributes":{"JOINTS_0":2,"NORMAL":1,"POSITION":0,"WEIGHTS_0":3},"indices":4,"material":0},{"attributes":{"JOINTS_0":7,"NORMAL":6,"POSITION":5,"WEIGHTS_0":8},"indices":9,"material":1},{"attributes":{"JOINTS_0":12,"NORMAL":11,"POSITION":10,"WEIGHTS_0":13},"indices":14,"material":2},{"attributes":{"JOINTS_0":17,"NORMAL":16,"POSITION":15,"WEIGHTS_0":18},"indices":19,"material":3}]}],"nodes":[{"name":"BottomLeg3.L_end","rotation":[1.1269002442304554e-07,-1.0710209608078003e-07,1.862645149230957e-08,1],"scale":[1,1,1.0000001192092896],"translation":[-1.862645149230957e-09,0.043614067137241364,-1.5133991837501526e-09]},{"children":[0],"name":"BottomLeg3.L","rotation":[0.46990320086479187,-0.6487605571746826,0.048033706843853,0.5966518521308899],"scale":[1,1.000000238418579,1],"translation":[-4.190951585769653e-09,0.021469391882419586,3.259629011154175e-09]},{"children":[1],"name":"BottomLeg2.L","rotation":[-0.2354465126991272,0.9567878842353821,0.17058247327804565,0.004852029960602522],"scale":[0.9999998211860657,0.9999998807907104,1.0000001192092896],"translation":[4.6566128730773926e-09,0.01009487733244896,9.313225746154785e-10]},{"children":[2],"name":"BottomLeg1.L","rotation":[-0.44601503014564514,-0.15492627024650574,-0.7068796157836914,0.5266780257225037],"scale":[0.9999998211860657,1,1],"translation":[0.01591426506638527,-0.008310476318001747,-0.008660770952701569]},{"name":"BottomLeg3.R_end","rotation":[-3.725290298461914e-09,-1.1734665150697765e-07,-2.60770320892334e-08,1],"scale":[0.9999999403953552,1,1],"translation":[9.313225746154785e-10,0.044177912175655365,-2.7939677238464355e-09]},{"children":[4],"name":"BottomLeg3.R","rotation":[-0.12619957327842712,0.28604915738105774,-0.4532027840614319,0.8347795009613037],"scale":[0.9999999403953552,0.9999999403953552,0.9999999403953552],"translation":[4.656612873077393e-10,0.02032328210771084,-2.7939677238464355e-09]},{"children":[5],"name":"BottomLeg2.R","rotation":[0.22158464789390564,0.6523851752281189,0.21090085804462433,0.6934080123901367],"scale":[1.0000001192092896,0.9999999403953552,0.9999999403953552],"translation":[3.4924596548080444e-09,0.014478799887001514,6.984919309616089e-10]},{"children":[6],"name":"BottomLeg1.R","rotation":[-0.52576744556427,-0.531466007232666,-0.6494808793067932,0.13887831568717957],"scale":[0.9999998807907104,1,1],"translation":[0.016190998256206512,-0.006808828096836805,0.007868976332247257]},{"name":"MidLeg3.L_end","rotation":[1.0104849934577942e-07,-2.123415470123291e-07,-1.7276033759117126e-07,1],"translation":[2.3283064365386963e-10,0.04062855243682861,-3.4924596548080444e-09]},{"children":[8],"name":"MidLeg3.L","rotation":[0.3698839247226715,-0.9195738434791565,0.11173324286937714,0.07131314277648926],"scale":[0.9999999403953552,0.9999998211860657,0.9999999403953552],"translation":[-3.14321368932724e-09,0.01598922349512577,-2.473825588822365e-09]},{"children":[9],"name":"MidLeg2.L","rotation":[0.39104223251342773,-0.8031765222549438,-0.11126650124788284,0.43544602394104004],"scale":[0.9999999403953552,0.9999998807907104,1],"translation":[-9.313225746154785e-10,0.016375217586755753,1.3969838619232178e-09]},{"children":[10],"name":"MidLeg1.L","rotation":[-0.4297867715358734,-0.24251873791217804,-0.669827401638031,0.5547966957092285],"scale":[0.9999999403953552,1,0.9999998807907104],"translation":[0.01230479683727026,0.0028078220784664154,-0.010747854597866535]},{"name":"MidLeg3.R_end","rotation":[-1.6763806343078613e-07,2.7008354663848877e-08,1.816079020500183e-08,1],"translation":[6.984919309616089e-10,0.03770958632230759,-6.51925802230835e-09]},{"children":[12],"name":"MidLeg3.R","rotation":[-0.2078017145395279,0.43707606196403503,-0.4416159391403198,0.755485475063324],"scale":[1.000000238418579,1.0000001192092896,1.0000001192092896],"translation":[1.8044374883174896e-09,0.014174052514135838,-2.9685907065868378e-09]},{"children":[13],"name":"MidLeg2.R","rotation":[0.46694672107696533,0.4378221929073334,-0.06387676298618317,0.765631914138794],"scale":[0.9999998807907104,1,0.9999998807907104],"translation":[1.862645149230957e-09,0.012328682467341423,4.656612873077393e-10]},{"children":[14],"name":"MidLeg1.R","rotation":[-0.6550249457359314,-0.5645620226860046,-0.3910089433193207,0.3151571452617645],"scale":[0.9999999403953552,1.0000001192092896,1],"translation":[0.019040189683437347,0.0003412194491829723,0.01764168217778206]},{"name":"Sting_end","rotation":[-7.450581485102248e-09,-4.4682757049940847e-08,4.440892098500626e-15,1],"translation":[-7.233630361369592e-11,0.029250867664813995,1.0312831699721414e-09]},{"children":[16],"name":"Sting","rotation":[4.987957424873457e-08,0.981049656867981,-0.19375671446323395,7.406718083302621e-08],"scale":[1,1.0000001192092896,1],"translation":[-3.1607640116337876e-11,0.041330061852931976,5.7494666805268935e-09]},{"children":[17],"name":"Abdomen3","rotation":[-0.4497279226779938,2.2252968356895053e-09,-3.932219172497753e-08,0.8931655883789062],"translation":[-1.287214779210899e-11,0.03930506855249405,3.6212699505711043e-11]},{"children":[18],"name":"Abdomen2","rotation":[-0.19422996044158936,-5.4585203912438374e-08,-5.333259878170793e-08,0.9809560775756836],"scale":[1,1,0.9999999403953552],"translation":[2.7176039196774582e-11,0.03253361955285072,-3.5870393322312566e-09]},{"children":[19],"name":"Abdomen","rotation":[-2.025475396294496e-07,-0.24215786159038544,0.9702368974685669,1.828243512136396e-08],"scale":[1,1.000000238418579,1.000001072883606],"translation":[-0.0007244431180879474,-0.03614644333720207,-0.01908387988805771]},{"name":"Head_end","rotation":[-1.7881390590446244e-07,5.960462701182223e-08,-1.8484418440323225e-09,1],"scale":[1,1.0000001192092896,1.0000001192092896],"translation":[-6.699529819798045e-12,0.031491827219724655,3.788913627289503e-09]},{"children":[21],"name":"Head","rotation":[-0.3968724310398102,2.360161488468293e-07,-1.904591471202366e-07,0.9178737998008728],"scale":[1,0.9999998807907104,0.9999999403953552],"translation":[4.387268326411231e-11,0.01771828718483448,3.737550713367455e-09]},{"name":"Wing.L_end","rotation":[8.009374852235851e-08,1.0058284516389904e-07,-1.1175870895385742e-08,1],"scale":[1,0.9999998807907104,0.9999998807907104],"translation":[1.3969838619232178e-09,0.09761925041675568,-3.725290298461914e-09]},{"children":[23],"name":"Wing.L","rotation":[0.551101565361023,0.1393067091703415,0.7308531403541565,0.3778020739555359],"scale":[0.9999998807907104,0.9999998807907104,0.9999998211860657],"translation":[-0.018387071788311005,-0.01958657242357731,0.009605896659195423]},{"name":"Wing.R_end","rotation":[-3.725290742551124e-09,1.825392246246338e-07,1.303851746570217e-07,1],"scale":[0.9999999403953552,0.9999999403953552,1],"translation":[-9.313225746154785e-09,0.09987326711416245,3.725290298461914e-09]},{"children":[25],"name":"Wing.R","rotation":[0.7306007742881775,0.3937644064426422,0.5444783568382263,0.1213073581457138],"scale":[1,1.0000001192092896,1.0000001192092896],"translation":[0.016508998349308968,-0.019586579874157906,0.009605899453163147]},{"children":[20,22,24,26],"name":"Neck","rotation":[-0.0765266939997673,-0.7029532194137573,-0.07652665674686432,0.7029538154602051],"scale":[1,1.0000001192092896,1],"translation":[-1.662745141572941e-08,0.02376394160091877,-3.2651628623092677e-10]},{"name":"TopLeg3.L_end","rotation":[1.5925617447010154e-07,-3.166497108963995e-08,-9.499491682163352e-08,1],"scale":[0.9999999403953552,0.9999999403953552,0.9999999403953552],"translation":[-1.862645149230957e-09,0.03581423684954643,1.862645149230957e-09]},{"children":[28],"name":"TopLeg3.L","rotation":[-0.5178909301757812,0.5280400514602661,-0.026475444436073303,0.6725041270256042],"scale":[1,0.9999999403953552,0.9999999403953552],"translation":[6.984919309616089e-10,0.010604835115373135,-6.28642737865448e-09]},{"children":[29],"name":"TopLeg2.L","rotation":[-0.008778044022619724,0.3193621039390564,-0.33945468068122864,0.884704053401947],"scale":[0.9999998807907104,0.9999997615814209,1],"translation":[6.984919309616089e-09,0.015769951045513153,-3.4924596548080444e-10]},{"children":[30],"name":"TopLeg1.L","rotation":[-0.5800526142120361,-0.7750523090362549,0.1555376797914505,0.19657304883003235],"scale":[1.0000001192092896,0.9999999403953552,1],"translation":[0.01187065988779068,0.010025530122220516,-0.00891027506440878]},{"name":"TopLeg3.R_end","rotation":[-7.264316082000732e-08,-3.818422555923462e-08,-2.60770320892334e-08,1],"translation":[1.862645149230957e-09,0.03430185839533806,4.656612873077393e-10]},{"children":[32],"name":"TopLeg3.R","rotation":[-0.43406015634536743,0.501553475856781,-0.34008172154426575,0.6666185855865479],"scale":[1.0000001192092896,1,0.9999998807907104],"translation":[1.8044374883174896e-09,0.01337981317192316,-8.149072527885437e-10]},{"children":[33],"name":"TopLeg2.R","rotation":[0.4711960554122925,0.42160290479660034,-0.22397246956825256,0.7416613698005676],"scale":[1,1.0000001192092896,0.9999999403953552],"translation":[-4.3655745685100555e-09,0.010943165980279446,-8.731149137020111e-10]},{"children":[34],"name":"TopLeg1.R","rotation":[-0.7050501704216003,-0.6651566624641418,-0.22702720761299133,0.09449642151594162],"scale":[1,0.9999999403953552,1],"translation":[0.014680813066661358,0.013045407831668854,0.01876896619796753]},{"children":[3,7,11,15,27,31,35],"name":"Thorax","rotation":[-0.369768887758255,0.602719783782959,-0.36976850032806396,0.6027197241783142],"scale":[1.0000001192092896,1.0000001192092896,1.0000001192092896],"translation":[-0.0017836227780207992,0.11630061268806458,-0.006729695945978165]},{"children":[36],"name":"Body","rotation":[7.499137906484576e-16,-1.7881393432617188e-07,-9.959049140917386e-10,1],"translation":[-8.605352541657396e-10,0.026026315987110138,-0.010974951088428497]},{"children":[37],"name":"Root","rotation":[-5.828717064559896e-08,-0.7071068286895752,7.442751126518488e-08,0.7071067094802856],"scale":[1,0.9999999403953552,1],"translation":[-0.040460437536239624,-0.030726561322808266,0.0019050160190090537]},{"mesh":0,"name":"Wasp","skin":0},{"children":[39,38],"name":"Armature"}],"scene":0,"scenes":[{"name":"Scene","nodes":[40]}],"skins":[{"inverseBindMatrices":20,"joints":[38,37,36,3,2,1,0,7,6,5,4,11,10,9,8,15,14,13,12,27,20,19,18,17,16,22,21,24,23,26,25,31,30,29,28,35,34,33,32],"name":"Armature"}]}
