{"accessors":[{"bufferView":0,"componentType":5126,"count":1500,"max":[0.22049999237060547,1.0358158349990845,0.7473858594894409],"min":[-0.22049997746944427,-0.007562501356005669,-0.8341256380081177],"type":"VEC3"},{"bufferView":1,"componentType":5126,"count":1500,"type":"VEC3"},{"bufferView":2,"componentType":5126,"count":1500,"type":"VEC2"},{"bufferView":3,"componentType":5121,"count":1500,"type":"VEC4"},{"bufferView":4,"componentType":5126,"count":1500,"type":"VEC4"},{"bufferView":5,"componentType":5123,"count":2178,"type":"SCALAR"},{"bufferView":6,"componentType":5126,"count":900,"max":[0.19249382615089417,0.9407999515533447,0.9100000262260437],"min":[-0.19249382615089417,0.0016499999910593033,-0.8629755973815918],"type":"VEC3"},{"bufferView":7,"componentType":5126,"count":900,"type":"VEC3"},{"bufferView":8,"componentType":5126,"count":900,"type":"VEC2"},{"bufferView":9,"componentType":5121,"count":900,"type":"VEC4"},{"bufferView":10,"componentType":5126,"count":900,"type":"VEC4"},{"bufferView":11,"componentType":5123,"count":1152,"type":"SCALAR"},{"bufferView":12,"componentType":5126,"count":300,"max":[0.10019449889659882,1.008044958114624,0.9435999989509583],"min":[-0.10019449889659882,0.7591999769210815,0.5554054975509644],"type":"VEC3"},{"bufferView":13,"componentType":5126,"count":300,"type":"VEC3"},{"bufferView":14,"componentType":5126,"count":300,"type":"VEC2"},{"bufferView":15,"componentType":5121,"count":300,"type":"VEC4"},{"bufferView":16,"componentType":5126,"count":300,"type":"VEC4"},{"bufferView":17,"componentType":5123,"count":396,"type":"SCALAR"},{"bufferView":18,"componentType":5126,"count":11,"type":"MAT4"},{"bufferView":19,"componentType":5126,"count":73,"max":[3.0416666666666665],"min":[0.041666666666666664],"type":"SCALAR"},{"bufferView":20,"componentType":5126,"count":73,"type":"VEC3"},{"bufferView":21,"componentType":5126,"count":73,"type":"VEC4"},{"bufferView":22,"componentType":5126,"count":2,"max":[3.0416666666666665],"min":[0.041666666666666664],"type":"SCALAR"},{"bufferView":23,"componentType":5126,"count":2,"type":"VEC3"},{"bufferView":24,"componentType":5126,"count":2,"type":"VEC3"},{"bufferView":25,"componentType":5126,"count":73,"type":"VEC4"},{"bufferView":26,"componentType":5126,"count":2,"type":"VEC3"},{"bufferView":27,"componentType":5126,"count":2,"type":"VEC3"},{"bufferView":28,"componentType":5126,"count":73,"type":"VEC4"},{"bufferView":29,"componentType":5126,"count":2,"type":"VEC3"},{"bufferView":30,"componentType":5126,"count":73,"type":"VEC4"},{"bufferView":31,"componentType":5126,"count":2,"type":"VEC3"},{"bufferView":32,"componentType":5126,"count":2,"type":"VEC3"},{"bufferView":33,"componentType":5126,"count":2,"type":"VEC3"},{"bufferView":34,"componentType":5126,"count":2,"type":"VEC3"},{"bufferView":35,"componentType":5126,"count":73,"type":"VEC4"},{"bufferView":36,"componentType":5126,"count":25,"max":[1.0416666666666667],"min":[0.041666666666666664],"type":"SCALAR"},{"bufferView":37,"componentType":5126,"count":25,"type":"VEC3"},{"bufferView":38,"componentType":5126,"count":25,"type":"VEC4"},{"bufferView":39,"componentType":5126,"count":2,"max":[1.0416666666666667],"min":[0.041666666666666664],"type":"SCALAR"},{"bufferView":40,"componentType":5126,"count":25,"type":"VEC4"},{"bufferView":41,"componentType":5126,"count":25,"type":"VEC4"},{"bufferView":42,"componentType":5126,"count":25,"type":"VEC4"},{"bufferView":43,"componentType":5126,"count":25,"type":"VEC4"},{"bufferView":44,"componentType":5126,"count":25,"type":"VEC4"},{"bufferView":45,"componentType":5126,"count":25,"type":"VEC4"}],"animations":[{"channels":[{"sampler":0,"target":{"node":10,"path":"translation"}},{"sampler":1,"target":{"node":10,"path":"rotation"}},{"sampler":2,"target":{"node":10,"path":"scale"}},{"sampler":3,"target":{"node":0,"path":"translation"}},{"sampler":4,"target":{"node":0,"path":"rotation"}},{"sampler":5,"target":{"node":0,"path":"scale"}},{"sampler":6,"target":{"node":2,"path":"translation"}},{"sampler":7,"target":{"node":2,"path":"rotation"}},{"sampler":8,"target":{"node":2,"path":"scale"}},{"sampler":9,"target":{"node":1,"path":"translation"}},{"sampler":10,"target":{"node":1,"path":"rotation"}},{"sampler":11,"target":{"node":1,"path":"scale"}},{"sampler":12,"target":{"node":4,"path":"translation"}},{"sampler":13,"target":{"node":4,"path":"rotation"}},{"sampler":14,"target":{"node":4,"path":"scale"}},{"sampler":15,"target":{"node":3,"path":"translation"}},{"sampler":16,"target":{"node":3,"path":"rotation"}},{"sampler":17,"target":{"node":3,"path":"scale"}},{"sampler":18,"target":{"node":6,"path":"translation"}},{"sampler":19,"target":{"node":6,"path":"rotation"}},{"sampler":20,"target":{"node":6,"path":"scale"}},{"sampler":21,"target":{"node":5,"path":"translation"}},{"sampler":22,"target":{"node":5,"path":"rotation"}},{"sampler":23,"target":{"node":5,"path":"scale"}},{"sampler":24,"target":{"node":8,"path":"translation"}},{"sampler":25,"target":{"node":8,"path":"rotation"}},{"sampler":26,"target":{"node":8,"path":"scale"}},{"sampler":27,"target":{"node":7,"path":"translation"}},{"sampler":28,"target":{"node":7,"path":"rotation"}},{"sampler":29,"target":{"node":7,"path":"scale"}},{"sampler":30,"target":{"node":9,"path":"translation"}},{"sampler":31,"target":{"node":9,"path":"rotation"}},{"sampler":32,"target":{"node":9,"path":"scale"}}],"name":"idle","samplers":[{"input":19,"interpolation":"LINEAR","output":20},{"input":19,"interpolation":"LINEAR","output":21},{"input":22,"interpolation":"STEP","output":23},{"input":22,"interpolation":"STEP","output":24},{"input":19,"interpolation":"LINEAR","output":25},{"input":22,"interpolation":"STEP","output":26},{"input":22,"interpolation":"STEP","output":27},{"input":19,"interpolation":"LINEAR","output":28},{"input":22,"interpolation":"STEP","output":23},{"input":22,"interpolation":"STEP","output":29},{"input":19,"interpolation":"LINEAR","output":30},{"input":22,"interpolation":"STEP","output":23},{"input":22,"interpolation":"STEP","output":31},{"input":19,"interpolation":"LINEAR","output":28},{"input":22,"interpolation":"STEP","output":23},{"input":22,"interpolation":"STEP","output":29},{"input":19,"interpolation":"LINEAR","output":30},{"input":22,"interpolation":"STEP","output":23},{"input":22,"interpolation":"STEP","output":32},{"input":19,"interpolation":"LINEAR","output":28},{"input":22,"interpolation":"STEP","output":23},{"input":22,"interpolation":"STEP","output":29},{"input":19,"interpolation":"LINEAR","output":30},{"input":22,"interpolation":"STEP","output":23},{"input":22,"interpolation":"STEP","output":33},{"input":19,"interpolation":"LINEAR","output":28},{"input":22,"interpolation":"STEP","output":23},{"input":22,"interpolation":"STEP","output":29},{"input":19,"interpolation":"LINEAR","output":30},{"input":22,"interpolation":"STEP","output":23},{"input":22,"interpolation":"STEP","output":34},{"input":19,"interpolation":"LINEAR","output":35},{"input":22,"interpolation":"STEP","output":23}]},{"channels":[{"sampler":0,"target":{"node":10,"path":"translation"}},{"sampler":1,"target":{"node":10,"path":"rotation"}},{"sampler":2,"target":{"node":10,"path":"scale"}},{"sampler":3,"target":{"node":0,"path":"translation"}},{"sampler":4,"target":{"node":0,"path":"rotation"}},{"sampler":5,"target":{"node":0,"path":"scale"}},{"sampler":6,"target":{"node":2,"path":"translation"}},{"sampler":7,"target":{"node":2,"path":"rotation"}},{"sampler":8,"target":{"node":2,"path":"scale"}},{"sampler":9,"target":{"node":1,"path":"translation"}},{"sampler":10,"target":{"node":1,"path":"rotation"}},{"sampler":11,"target":{"node":1,"path":"scale"}},{"sampler":12,"target":{"node":4,"path":"translation"}},{"sampler":13,"target":{"node":4,"path":"rotation"}},{"sampler":14,"target":{"node":4,"path":"scale"}},{"sampler":15,"target":{"node":3,"path":"translation"}},{"sampler":16,"target":{"node":3,"path":"rotation"}},{"sampler":17,"target":{"node":3,"path":"scale"}},{"sampler":18,"target":{"node":6,"path":"translation"}},{"sampler":19,"target":{"node":6,"path":"rotation"}},{"sampler":20,"target":{"node":6,"path":"scale"}},{"sampler":21,"target":{"node":5,"path":"translation"}},{"sampler":22,"target":{"node":5,"path":"rotation"}},{"sampler":23,"target":{"node":5,"path":"scale"}},{"sampler":24,"target":{"node":8,"path":"translation"}},{"sampler":25,"target":{"node":8,"path":"rotation"}},{"sampler":26,"target":{"node":8,"path":"scale"}},{"sampler":27,"target":{"node":7,"path":"translation"}},{"sampler":28,"target":{"node":7,"path":"rotation"}},{"sampler":29,"target":{"node":7,"path":"scale"}},{"sampler":30,"target":{"node":9,"path":"translation"}},{"sampler":31,"target":{"node":9,"path":"rotation"}},{"sampler":32,"target":{"node":9,"path":"scale"}}],"name":"walk","samplers":[{"input":36,"interpolation":"LINEAR","output":37},{"input":36,"interpolation":"LINEAR","output":38},{"input":39,"interpolation":"STEP","output":23},{"input":39,"interpolation":"STEP","output":24},{"input":36,"interpolation":"LINEAR","output":40},{"input":39,"interpolation":"STEP","output":23},{"input":39,"interpolation":"STEP","output":27},{"input":36,"interpolation":"LINEAR","output":41},{"input":39,"interpolation":"STEP","output":23},{"input":39,"interpolation":"STEP","output":29},{"input":36,"interpolation":"LINEAR","output":42},{"input":39,"interpolation":"STEP","output":23},{"input":39,"interpolation":"STEP","output":31},{"input":36,"interpolation":"LINEAR","output":43},{"input":39,"interpolation":"STEP","output":23},{"input":39,"interpolation":"STEP","output":29},{"input":36,"interpolation":"LINEAR","output":44},{"input":39,"interpolation":"STEP","output":23},{"input":39,"interpolation":"STEP","output":32},{"input":36,"interpolation":"LINEAR","output":43},{"input":39,"interpolation":"STEP","output":23},{"input":39,"interpolation":"STEP","output":29},{"input":36,"interpolation":"LINEAR","output":44},{"input":39,"interpolation":"STEP","output":23},{"input":39,"interpolation":"STEP","output":33},{"input":36,"interpolation":"LINEAR","output":41},{"input":39,"interpolation":"STEP","output":23},{"input":39,"interpolation":"STEP","output":29},{"input":36,"interpolation":"LINEAR","output":42},{"input":39,"interpolation":"STEP","output":23},{"input":39,"interpolation":"STEP","output":34},{"input":36,"interpolation":"LINEAR","output":45},{"input":39,"interpolation":"STEP","output":23}]}],"asset":{"generator":"Khronos glTF Blender I/O v5.2.40","version":"2.0"},"bufferViews":[{"buffer":0,"byteLength":18000,"byteOffset":0,"target":34962},{"buffer":0,"byteLength":18000,"byteOffset":18000,"target":34962},{"buffer":0,"byteLength":12000,"byteOffset":36000,"target":34962},{"buffer":0,"byteLength":6000,"byteOffset":48000,"target":34962},{"buffer":0,"byteLength":24000,"byteOffset":54000,"target":34962},{"buffer":0,"byteLength":4356,"byteOffset":78000,"target":34963},{"buffer":0,"byteLength":10800,"byteOffset":82356,"target":34962},{"buffer":0,"byteLength":10800,"byteOffset":93156,"target":34962},{"buffer":0,"byteLength":7200,"byteOffset":103956,"target":34962},{"buffer":0,"byteLength":3600,"byteOffset":111156,"target":34962},{"buffer":0,"byteLength":14400,"byteOffset":114756,"target":34962},{"buffer":0,"byteLength":2304,"byteOffset":129156,"target":34963},{"buffer":0,"byteLength":3600,"byteOffset":131460,"target":34962},{"buffer":0,"byteLength":3600,"byteOffset":135060,"target":34962},{"buffer":0,"byteLength":2400,"byteOffset":138660,"target":34962},{"buffer":0,"byteLength":1200,"byteOffset":141060,"target":34962},{"buffer":0,"byteLength":4800,"byteOffset":142260,"target":34962},{"buffer":0,"byteLength":792,"byteOffset":147060,"target":34963},{"buffer":0,"byteLength":704,"byteOffset":147852},{"buffer":0,"byteLength":292,"byteOffset":148556},{"buffer":0,"byteLength":876,"byteOffset":148848},{"buffer":0,"byteLength":1168,"byteOffset":149724},{"buffer":0,"byteLength":8,"byteOffset":150892},{"buffer":0,"byteLength":24,"byteOffset":150900},{"buffer":0,"byteLength":24,"byteOffset":150924},{"buffer":0,"byteLength":1168,"byteOffset":150948},{"buffer":0,"byteLength":24,"byteOffset":152116},{"buffer":0,"byteLength":24,"byteOffset":152140},{"buffer":0,"byteLength":1168,"byteOffset":152164},{"buffer":0,"byteLength":24,"byteOffset":153332},{"buffer":0,"byteLength":1168,"byteOffset":153356},{"buffer":0,"byteLength":24,"byteOffset":154524},{"buffer":0,"byteLength":24,"byteOffset":154548},{"buffer":0,"byteLength":24,"byteOffset":154572},{"buffer":0,"byteLength":24,"byteOffset":154596},{"buffer":0,"byteLength":1168,"byteOffset":154620},{"buffer":0,"byteLength":100,"byteOffset":155788},{"buffer":0,"byteLength":300,"byteOffset":155888},{"buffer":0,"byteLength":400,"byteOffset":156188},{"buffer":0,"byteLength":8,"byteOffset":156588},{"buffer":0,"byteLength":400,"byteOffset":156596},{"buffer":0,"byteLength":400,"byteOffset":156996},{"buffer":0,"byteLength":400,"byteOffset":157396},{"buffer":0,"byteLength":400,"byteOffset":157796},{"buffer":0,"byteLength":400,"byteOffset":158196},{"buffer":0,"byteLength":400,"byteOffset":158596}],"buffers":[{"byteLength":158996,"uri":"wolf.bin"}],"materials":[{"doubleSided":true,"name":"Wolf_Fur","pbrMetallicRoughness":{"baseColorFactor":[0.41999998688697815,0.41999998688697815,0.4399999976158142,1],"metallicFactor":0,"roughnessFactor":0.949999988079071}},{"doubleSided":true,"name":"Wolf_Pale","pbrMetallicRoughness":{"baseColorFactor":[0.800000011920929,0.7799999713897705,0.7400000095367432,1],"metallicFactor":0,"roughnessFactor":0.949999988079071}},{"doubleSided":true,"name":"Wolf_Dark","pbrMetallicRoughness":{"baseColorFactor":[0.05000000074505806,0.03999999910593033,0.03999999910593033,1],"metallicFactor":0,"roughnessFactor":0.5}}],"meshes":[{"name":"Wolf","primitives":[{"attributes":{"JOINTS_0":3,"NORMAL":1,"POSITION":0,"TEXCOORD_0":2,"WEIGHTS_0":4},"indices":5,"material":0},{"attributes":{"JOINTS_0":9,"NORMAL":7,"POSITION":6,"TEXCOORD_0":8,"WEIGHTS_0":10},"indices":11,"material":1},{"attributes":{"JOINTS_0":15,"NORMAL":13,"POSITION":12,"TEXCOORD_0":14,"WEIGHTS_0":16},"indices":17,"material":2}]}],"nodes":[{"name":"head","translation":[0,0.08399999141693115,0.4620000123977661]},{"name":"shin_BL","translation":[0,-0.29899996519088745,0]},{"children":[1],"name":"leg_BL","translation":[0.12600000202655792,-0.021000027656555176,-0.33000001311302185]},{"name":"shin_BR","translation":[0,-0.29899996519088745,0]},{"children":[3],"name":"leg_BR","translation":[-0.12600000202655792,-0.021000027656555176,-0.33000001311302185]},{"name":"shin_FL","translation":[0,-0.29899996519088745,0]},{"children":[5],"name":"leg_FL","translation":[0.12600000202655792,-0.021000027656555176,0.33000001311302185]},{"name":"shin_FR","translation":[0,-0.29899996519088745,0]},{"children":[7],"name":"leg_FR","translation":[-0.12600000202655792,-0.021000027656555176,0.33000001311302185]},{"name":"tail","translation":[0,0.08399999141693115,-0.527999997138977]},{"children":[0,2,4,6,8,9],"name":"body","translation":[0,0.6800000071525574,0]},{"mesh":0,"name":"Wolf","skin":0},{"children":[11,10],"name":"Wolf_Rig"}],"scene":0,"scenes":[{"name":"Scene","nodes":[12]}],"skins":[{"inverseBindMatrices":18,"joints":[10,0,2,1,4,3,6,5,8,7,9],"name":"Wolf_Rig"}]}
