<svg xmlns="http://www.w3.org/2000/svg" width="990" height="720" viewBox="0 0 990 720" role="img">
<title>Coder terminal UI preview</title>
<rect width="100%" height="100%" fill="#0a0a0a"/>
<g font-family="Paper Mono, monospace" font-size="15">
<text x="18" y="35" fill="#e1e1e1" font-weight="bold">A</text>
<text x="27" y="35" fill="#e1e1e1" font-weight="bold">C</text>
<text x="36" y="35" fill="#e1e1e1" font-weight="bold">P</text>
<text x="54" y="35" fill="#e1e1e1" font-weight="bold">S</text>
<text x="63" y="35" fill="#e1e1e1" font-weight="bold">u</text>
<text x="72" y="35" fill="#e1e1e1" font-weight="bold">b</text>
<text x="81" y="35" fill="#e1e1e1" font-weight="bold">a</text>
<text x="90" y="35" fill="#e1e1e1" font-weight="bold">g</text>
<text x="99" y="35" fill="#e1e1e1" font-weight="bold">e</text>
<text x="108" y="35" fill="#e1e1e1" font-weight="bold">n</text>
<text x="117" y="35" fill="#e1e1e1" font-weight="bold">t</text>
<text x="126" y="35" fill="#e1e1e1" font-weight="bold">s</text>
<text x="756" y="35" fill="#00ffff" font-weight="normal">l</text>
<text x="765" y="35" fill="#00ffff" font-weight="normal">i</text>
<text x="774" y="35" fill="#00ffff" font-weight="normal">v</text>
<text x="783" y="35" fill="#00ffff" font-weight="normal">e</text>
<text x="801" y="35" fill="#00ffff" font-weight="normal">·</text>
<text x="819" y="35" fill="#ff6600" font-weight="normal">o</text>
<text x="828" y="35" fill="#ff6600" font-weight="normal">p</text>
<text x="837" y="35" fill="#ff6600" font-weight="normal">e</text>
<text x="846" y="35" fill="#ff6600" font-weight="normal">n</text>
<text x="855" y="35" fill="#ff6600" font-weight="normal">a</text>
<text x="864" y="35" fill="#ff6600" font-weight="normal">g</text>
<text x="873" y="35" fill="#ff6600" font-weight="normal">e</text>
<text x="882" y="35" fill="#ff6600" font-weight="normal">n</text>
<text x="891" y="35" fill="#ff6600" font-weight="normal">t</text>
<text x="900" y="35" fill="#ff6600" font-weight="normal">s</text>
<text x="918" y="35" fill="#6c6c6c" font-weight="normal">/</text>
<text x="936" y="35" fill="#6c6c6c" font-weight="normal">m</text>
<text x="945" y="35" fill="#6c6c6c" font-weight="normal">a</text>
<text x="954" y="35" fill="#6c6c6c" font-weight="normal">i</text>
<text x="963" y="35" fill="#6c6c6c" font-weight="normal">n</text>
<text x="18" y="75" fill="#6c6c6c" font-weight="normal">D</text>
<text x="27" y="75" fill="#6c6c6c" font-weight="normal">e</text>
<text x="36" y="75" fill="#6c6c6c" font-weight="normal">t</text>
<text x="45" y="75" fill="#6c6c6c" font-weight="normal">e</text>
<text x="54" y="75" fill="#6c6c6c" font-weight="normal">c</text>
<text x="63" y="75" fill="#6c6c6c" font-weight="normal">t</text>
<text x="72" y="75" fill="#6c6c6c" font-weight="normal">e</text>
<text x="81" y="75" fill="#6c6c6c" font-weight="normal">d</text>
<text x="99" y="75" fill="#6c6c6c" font-weight="normal">o</text>
<text x="108" y="75" fill="#6c6c6c" font-weight="normal">n</text>
<text x="126" y="75" fill="#6c6c6c" font-weight="normal">t</text>
<text x="135" y="75" fill="#6c6c6c" font-weight="normal">h</text>
<text x="144" y="75" fill="#6c6c6c" font-weight="normal">i</text>
<text x="153" y="75" fill="#6c6c6c" font-weight="normal">s</text>
<text x="171" y="75" fill="#6c6c6c" font-weight="normal">c</text>
<text x="180" y="75" fill="#6c6c6c" font-weight="normal">o</text>
<text x="189" y="75" fill="#6c6c6c" font-weight="normal">m</text>
<text x="198" y="75" fill="#6c6c6c" font-weight="normal">p</text>
<text x="207" y="75" fill="#6c6c6c" font-weight="normal">u</text>
<text x="216" y="75" fill="#6c6c6c" font-weight="normal">t</text>
<text x="225" y="75" fill="#6c6c6c" font-weight="normal">e</text>
<text x="234" y="75" fill="#6c6c6c" font-weight="normal">r</text>
<rect x="18" y="100" width="9" height="20" fill="#1c1c1c"/>
<text x="18" y="115" fill="#00ffff" font-weight="normal">❯</text>
<rect x="27" y="100" width="9" height="20" fill="#1c1c1c"/>
<rect x="36" y="100" width="9" height="20" fill="#1c1c1c"/>
<text x="36" y="115" fill="#00ffff" font-weight="normal">[</text>
<rect x="45" y="100" width="9" height="20" fill="#1c1c1c"/>
<text x="45" y="115" fill="#00ffff" font-weight="normal">x</text>
<rect x="54" y="100" width="9" height="20" fill="#1c1c1c"/>
<text x="54" y="115" fill="#00ffff" font-weight="normal">]</text>
<rect x="63" y="100" width="9" height="20" fill="#1c1c1c"/>
<rect x="72" y="100" width="9" height="20" fill="#1c1c1c"/>
<text x="72" y="115" fill="#e1e1e1" font-weight="bold">G</text>
<rect x="81" y="100" width="9" height="20" fill="#1c1c1c"/>
<text x="81" y="115" fill="#e1e1e1" font-weight="bold">r</text>
<rect x="90" y="100" width="9" height="20" fill="#1c1c1c"/>
<text x="90" y="115" fill="#e1e1e1" font-weight="bold">o</text>
<rect x="99" y="100" width="9" height="20" fill="#1c1c1c"/>
<text x="99" y="115" fill="#e1e1e1" font-weight="bold">k</text>
<rect x="108" y="100" width="9" height="20" fill="#1c1c1c"/>
<rect x="117" y="100" width="9" height="20" fill="#1c1c1c"/>
<text x="117" y="115" fill="#e1e1e1" font-weight="bold">B</text>
<rect x="126" y="100" width="9" height="20" fill="#1c1c1c"/>
<text x="126" y="115" fill="#e1e1e1" font-weight="bold">u</text>
<rect x="135" y="100" width="9" height="20" fill="#1c1c1c"/>
<text x="135" y="115" fill="#e1e1e1" font-weight="bold">i</text>
<rect x="144" y="100" width="9" height="20" fill="#1c1c1c"/>
<text x="144" y="115" fill="#e1e1e1" font-weight="bold">l</text>
<rect x="153" y="100" width="9" height="20" fill="#1c1c1c"/>
<text x="153" y="115" fill="#e1e1e1" font-weight="bold">d</text>
<rect x="162" y="100" width="9" height="20" fill="#1c1c1c"/>
<rect x="171" y="100" width="9" height="20" fill="#1c1c1c"/>
<rect x="180" y="100" width="9" height="20" fill="#1c1c1c"/>
<rect x="189" y="100" width="9" height="20" fill="#1c1c1c"/>
<rect x="198" y="100" width="9" height="20" fill="#1c1c1c"/>
<rect x="207" y="100" width="9" height="20" fill="#1c1c1c"/>
<rect x="216" y="100" width="9" height="20" fill="#1c1c1c"/>
<rect x="225" y="100" width="9" height="20" fill="#1c1c1c"/>
<rect x="234" y="100" width="9" height="20" fill="#1c1c1c"/>
<rect x="243" y="100" width="9" height="20" fill="#1c1c1c"/>
<rect x="252" y="100" width="9" height="20" fill="#1c1c1c"/>
<rect x="261" y="100" width="9" height="20" fill="#1c1c1c"/>
<rect x="270" y="100" width="9" height="20" fill="#1c1c1c"/>
<rect x="279" y="100" width="9" height="20" fill="#1c1c1c"/>
<rect x="288" y="100" width="9" height="20" fill="#1c1c1c"/>
<text x="288" y="115" fill="#6c6c6c" font-weight="normal">g</text>
<rect x="297" y="100" width="9" height="20" fill="#1c1c1c"/>
<text x="297" y="115" fill="#6c6c6c" font-weight="normal">r</text>
<rect x="306" y="100" width="9" height="20" fill="#1c1c1c"/>
<text x="306" y="115" fill="#6c6c6c" font-weight="normal">o</text>
<rect x="315" y="100" width="9" height="20" fill="#1c1c1c"/>
<text x="315" y="115" fill="#6c6c6c" font-weight="normal">k</text>
<text x="36" y="135" fill="#00ffff" font-weight="normal">[</text>
<text x="45" y="135" fill="#00ffff" font-weight="normal">x</text>
<text x="54" y="135" fill="#00ffff" font-weight="normal">]</text>
<text x="72" y="135" fill="#e1e1e1" font-weight="normal">D</text>
<text x="81" y="135" fill="#e1e1e1" font-weight="normal">e</text>
<text x="90" y="135" fill="#e1e1e1" font-weight="normal">v</text>
<text x="99" y="135" fill="#e1e1e1" font-weight="normal">i</text>
<text x="108" y="135" fill="#e1e1e1" font-weight="normal">n</text>
<text x="288" y="135" fill="#6c6c6c" font-weight="normal">d</text>
<text x="297" y="135" fill="#6c6c6c" font-weight="normal">e</text>
<text x="306" y="135" fill="#6c6c6c" font-weight="normal">v</text>
<text x="315" y="135" fill="#6c6c6c" font-weight="normal">i</text>
<text x="324" y="135" fill="#6c6c6c" font-weight="normal">n</text>
<text x="36" y="155" fill="#00ffff" font-weight="normal">[</text>
<text x="45" y="155" fill="#00ffff" font-weight="normal">x</text>
<text x="54" y="155" fill="#00ffff" font-weight="normal">]</text>
<text x="72" y="155" fill="#e1e1e1" font-weight="normal">O</text>
<text x="81" y="155" fill="#e1e1e1" font-weight="normal">p</text>
<text x="90" y="155" fill="#e1e1e1" font-weight="normal">e</text>
<text x="99" y="155" fill="#e1e1e1" font-weight="normal">n</text>
<text x="108" y="155" fill="#e1e1e1" font-weight="normal">C</text>
<text x="117" y="155" fill="#e1e1e1" font-weight="normal">o</text>
<text x="126" y="155" fill="#e1e1e1" font-weight="normal">d</text>
<text x="135" y="155" fill="#e1e1e1" font-weight="normal">e</text>
<text x="288" y="155" fill="#6c6c6c" font-weight="normal">o</text>
<text x="297" y="155" fill="#6c6c6c" font-weight="normal">p</text>
<text x="306" y="155" fill="#6c6c6c" font-weight="normal">e</text>
<text x="315" y="155" fill="#6c6c6c" font-weight="normal">n</text>
<text x="324" y="155" fill="#6c6c6c" font-weight="normal">c</text>
<text x="333" y="155" fill="#6c6c6c" font-weight="normal">o</text>
<text x="342" y="155" fill="#6c6c6c" font-weight="normal">d</text>
<text x="351" y="155" fill="#6c6c6c" font-weight="normal">e</text>
<text x="36" y="175" fill="#00ffff" font-weight="normal">[</text>
<text x="45" y="175" fill="#00ffff" font-weight="normal">x</text>
<text x="54" y="175" fill="#00ffff" font-weight="normal">]</text>
<text x="72" y="175" fill="#e1e1e1" font-weight="normal">C</text>
<text x="81" y="175" fill="#e1e1e1" font-weight="normal">u</text>
<text x="90" y="175" fill="#e1e1e1" font-weight="normal">r</text>
<text x="99" y="175" fill="#e1e1e1" font-weight="normal">s</text>
<text x="108" y="175" fill="#e1e1e1" font-weight="normal">o</text>
<text x="117" y="175" fill="#e1e1e1" font-weight="normal">r</text>
<text x="288" y="175" fill="#6c6c6c" font-weight="normal">c</text>
<text x="297" y="175" fill="#6c6c6c" font-weight="normal">u</text>
<text x="306" y="175" fill="#6c6c6c" font-weight="normal">r</text>
<text x="315" y="175" fill="#6c6c6c" font-weight="normal">s</text>
<text x="324" y="175" fill="#6c6c6c" font-weight="normal">o</text>
<text x="333" y="175" fill="#6c6c6c" font-weight="normal">r</text>
<text x="342" y="175" fill="#6c6c6c" font-weight="normal">-</text>
<text x="351" y="175" fill="#6c6c6c" font-weight="normal">a</text>
<text x="360" y="175" fill="#6c6c6c" font-weight="normal">g</text>
<text x="369" y="175" fill="#6c6c6c" font-weight="normal">e</text>
<text x="378" y="175" fill="#6c6c6c" font-weight="normal">n</text>
<text x="387" y="175" fill="#6c6c6c" font-weight="normal">t</text>
<text x="36" y="195" fill="#00ffff" font-weight="normal">[</text>
<text x="45" y="195" fill="#00ffff" font-weight="normal">x</text>
<text x="54" y="195" fill="#00ffff" font-weight="normal">]</text>
<text x="72" y="195" fill="#e1e1e1" font-weight="normal">O</text>
<text x="81" y="195" fill="#e1e1e1" font-weight="normal">h</text>
<text x="99" y="195" fill="#e1e1e1" font-weight="normal">M</text>
<text x="108" y="195" fill="#e1e1e1" font-weight="normal">y</text>
<text x="126" y="195" fill="#e1e1e1" font-weight="normal">P</text>
<text x="135" y="195" fill="#e1e1e1" font-weight="normal">i</text>
<text x="288" y="195" fill="#6c6c6c" font-weight="normal">o</text>
<text x="297" y="195" fill="#6c6c6c" font-weight="normal">m</text>
<text x="306" y="195" fill="#6c6c6c" font-weight="normal">p</text>
<text x="18" y="675" fill="#6c6c6c" font-weight="normal">5</text>
<text x="36" y="675" fill="#6c6c6c" font-weight="normal">d</text>
<text x="45" y="675" fill="#6c6c6c" font-weight="normal">e</text>
<text x="54" y="675" fill="#6c6c6c" font-weight="normal">t</text>
<text x="63" y="675" fill="#6c6c6c" font-weight="normal">e</text>
<text x="72" y="675" fill="#6c6c6c" font-weight="normal">c</text>
<text x="81" y="675" fill="#6c6c6c" font-weight="normal">t</text>
<text x="90" y="675" fill="#6c6c6c" font-weight="normal">e</text>
<text x="99" y="675" fill="#6c6c6c" font-weight="normal">d</text>
<text x="117" y="675" fill="#6c6c6c" font-weight="normal">·</text>
<text x="135" y="675" fill="#6c6c6c" font-weight="normal">5</text>
<text x="153" y="675" fill="#6c6c6c" font-weight="normal">o</text>
<text x="162" y="675" fill="#6c6c6c" font-weight="normal">n</text>
<text x="18" y="695" fill="#787878" font-weight="normal">↑</text>
<text x="27" y="695" fill="#787878" font-weight="normal">/</text>
<text x="36" y="695" fill="#787878" font-weight="normal">↓</text>
<text x="54" y="695" fill="#787878" font-weight="normal">S</text>
<text x="63" y="695" fill="#787878" font-weight="normal">e</text>
<text x="72" y="695" fill="#787878" font-weight="normal">l</text>
<text x="81" y="695" fill="#787878" font-weight="normal">e</text>
<text x="90" y="695" fill="#787878" font-weight="normal">c</text>
<text x="99" y="695" fill="#787878" font-weight="normal">t</text>
<text x="117" y="695" fill="#787878" font-weight="normal">·</text>
<text x="135" y="695" fill="#787878" font-weight="normal">S</text>
<text x="144" y="695" fill="#787878" font-weight="normal">p</text>
<text x="153" y="695" fill="#787878" font-weight="normal">a</text>
<text x="162" y="695" fill="#787878" font-weight="normal">c</text>
<text x="171" y="695" fill="#787878" font-weight="normal">e</text>
<text x="180" y="695" fill="#787878" font-weight="normal">/</text>
<text x="189" y="695" fill="#787878" font-weight="normal">E</text>
<text x="198" y="695" fill="#787878" font-weight="normal">n</text>
<text x="207" y="695" fill="#787878" font-weight="normal">t</text>
<text x="216" y="695" fill="#787878" font-weight="normal">e</text>
<text x="225" y="695" fill="#787878" font-weight="normal">r</text>
<text x="243" y="695" fill="#787878" font-weight="normal">T</text>
<text x="252" y="695" fill="#787878" font-weight="normal">o</text>
<text x="261" y="695" fill="#787878" font-weight="normal">g</text>
<text x="270" y="695" fill="#787878" font-weight="normal">g</text>
<text x="279" y="695" fill="#787878" font-weight="normal">l</text>
<text x="288" y="695" fill="#787878" font-weight="normal">e</text>
<text x="306" y="695" fill="#787878" font-weight="normal">·</text>
<text x="324" y="695" fill="#787878" font-weight="normal">R</text>
<text x="342" y="695" fill="#787878" font-weight="normal">R</text>
<text x="351" y="695" fill="#787878" font-weight="normal">e</text>
<text x="360" y="695" fill="#787878" font-weight="normal">f</text>
<text x="369" y="695" fill="#787878" font-weight="normal">r</text>
<text x="378" y="695" fill="#787878" font-weight="normal">e</text>
<text x="387" y="695" fill="#787878" font-weight="normal">s</text>
<text x="396" y="695" fill="#787878" font-weight="normal">h</text>
<text x="414" y="695" fill="#787878" font-weight="normal">·</text>
<text x="432" y="695" fill="#787878" font-weight="normal">E</text>
<text x="441" y="695" fill="#787878" font-weight="normal">s</text>
<text x="450" y="695" fill="#787878" font-weight="normal">c</text>
<text x="468" y="695" fill="#787878" font-weight="normal">B</text>
<text x="477" y="695" fill="#787878" font-weight="normal">a</text>
<text x="486" y="695" fill="#787878" font-weight="normal">c</text>
<text x="495" y="695" fill="#787878" font-weight="normal">k</text>
</g>
</svg>
