<svg xmlns="http://www.w3.org/2000/svg" width="990" height="720" viewBox="0 0 990 720" role="img">
<title>Coder terminal UI preview</title>
<rect width="100%" height="100%" fill="#141414"/>
<g font-family="DejaVu Sans Mono, monospace" font-size="15">
<text x="18" y="35" fill="#1abc9c" font-weight="normal">◆</text>
<text x="36" y="35" fill="#e1e1e1" font-weight="bold">C</text>
<text x="45" y="35" fill="#e1e1e1" font-weight="bold">o</text>
<text x="54" y="35" fill="#e1e1e1" font-weight="bold">d</text>
<text x="63" y="35" fill="#e1e1e1" font-weight="bold">e</text>
<text x="72" y="35" fill="#e1e1e1" font-weight="bold">r</text>
<text x="765" y="35" fill="#6c6c6c" font-weight="normal">U</text>
<text x="774" y="35" fill="#6c6c6c" font-weight="normal">I</text>
<text x="792" y="35" fill="#6c6c6c" font-weight="normal">p</text>
<text x="801" y="35" fill="#6c6c6c" font-weight="normal">r</text>
<text x="810" y="35" fill="#6c6c6c" font-weight="normal">e</text>
<text x="819" y="35" fill="#6c6c6c" font-weight="normal">v</text>
<text x="828" y="35" fill="#6c6c6c" font-weight="normal">i</text>
<text x="837" y="35" fill="#6c6c6c" font-weight="normal">e</text>
<text x="846" y="35" fill="#6c6c6c" font-weight="normal">w</text>
<text x="864" y="35" fill="#6c6c6c" font-weight="normal">·</text>
<text x="882" y="35" fill="#6c6c6c" font-weight="normal">G</text>
<text x="891" y="35" fill="#6c6c6c" font-weight="normal">r</text>
<text x="900" y="35" fill="#6c6c6c" font-weight="normal">o</text>
<text x="909" y="35" fill="#6c6c6c" font-weight="normal">k</text>
<text x="927" y="35" fill="#6c6c6c" font-weight="normal">N</text>
<text x="936" y="35" fill="#6c6c6c" font-weight="normal">i</text>
<text x="945" y="35" fill="#6c6c6c" font-weight="normal">g</text>
<text x="954" y="35" fill="#6c6c6c" font-weight="normal">h</text>
<text x="963" y="35" fill="#6c6c6c" font-weight="normal">t</text>
<text x="18" y="55" fill="#ff9e64" font-weight="normal">o</text>
<text x="27" y="55" fill="#ff9e64" font-weight="normal">p</text>
<text x="36" y="55" fill="#ff9e64" font-weight="normal">e</text>
<text x="45" y="55" fill="#ff9e64" font-weight="normal">n</text>
<text x="54" y="55" fill="#ff9e64" font-weight="normal">a</text>
<text x="63" y="55" fill="#ff9e64" font-weight="normal">g</text>
<text x="72" y="55" fill="#ff9e64" font-weight="normal">e</text>
<text x="81" y="55" fill="#ff9e64" font-weight="normal">n</text>
<text x="90" y="55" fill="#ff9e64" font-weight="normal">t</text>
<text x="99" y="55" fill="#ff9e64" font-weight="normal">s</text>
<text x="126" y="55" fill="#6c6c6c" font-weight="normal">/</text>
<text x="153" y="55" fill="#6c6c6c" font-weight="normal">m</text>
<text x="162" y="55" fill="#6c6c6c" font-weight="normal">a</text>
<text x="171" y="55" fill="#6c6c6c" font-weight="normal">i</text>
<text x="180" y="55" fill="#6c6c6c" font-weight="normal">n</text>
<text x="18" y="195" fill="#e1e1e1" font-weight="bold">W</text>
<text x="27" y="195" fill="#e1e1e1" font-weight="bold">h</text>
<text x="36" y="195" fill="#e1e1e1" font-weight="bold">a</text>
<text x="45" y="195" fill="#e1e1e1" font-weight="bold">t</text>
<text x="63" y="195" fill="#e1e1e1" font-weight="bold">d</text>
<text x="72" y="195" fill="#e1e1e1" font-weight="bold">o</text>
<text x="90" y="195" fill="#e1e1e1" font-weight="bold">y</text>
<text x="99" y="195" fill="#e1e1e1" font-weight="bold">o</text>
<text x="108" y="195" fill="#e1e1e1" font-weight="bold">u</text>
<text x="126" y="195" fill="#e1e1e1" font-weight="bold">w</text>
<text x="135" y="195" fill="#e1e1e1" font-weight="bold">a</text>
<text x="144" y="195" fill="#e1e1e1" font-weight="bold">n</text>
<text x="153" y="195" fill="#e1e1e1" font-weight="bold">t</text>
<text x="171" y="195" fill="#e1e1e1" font-weight="bold">t</text>
<text x="180" y="195" fill="#e1e1e1" font-weight="bold">o</text>
<text x="198" y="195" fill="#e1e1e1" font-weight="bold">b</text>
<text x="207" y="195" fill="#e1e1e1" font-weight="bold">u</text>
<text x="216" y="195" fill="#e1e1e1" font-weight="bold">i</text>
<text x="225" y="195" fill="#e1e1e1" font-weight="bold">l</text>
<text x="234" y="195" fill="#e1e1e1" font-weight="bold">d</text>
<text x="243" y="195" fill="#e1e1e1" font-weight="bold">?</text>
<text x="18" y="235" fill="#c8c8c8" font-weight="normal">A</text>
<text x="36" y="235" fill="#c8c8c8" font-weight="normal">p</text>
<text x="45" y="235" fill="#c8c8c8" font-weight="normal">l</text>
<text x="54" y="235" fill="#c8c8c8" font-weight="normal">a</text>
<text x="63" y="235" fill="#c8c8c8" font-weight="normal">c</text>
<text x="72" y="235" fill="#c8c8c8" font-weight="normal">e</text>
<text x="90" y="235" fill="#c8c8c8" font-weight="normal">t</text>
<text x="99" y="235" fill="#c8c8c8" font-weight="normal">o</text>
<text x="117" y="235" fill="#c8c8c8" font-weight="normal">t</text>
<text x="126" y="235" fill="#c8c8c8" font-weight="normal">h</text>
<text x="135" y="235" fill="#c8c8c8" font-weight="normal">i</text>
<text x="144" y="235" fill="#c8c8c8" font-weight="normal">n</text>
<text x="153" y="235" fill="#c8c8c8" font-weight="normal">k</text>
<text x="162" y="235" fill="#c8c8c8" font-weight="normal">,</text>
<text x="180" y="235" fill="#c8c8c8" font-weight="normal">m</text>
<text x="189" y="235" fill="#c8c8c8" font-weight="normal">a</text>
<text x="198" y="235" fill="#c8c8c8" font-weight="normal">k</text>
<text x="207" y="235" fill="#c8c8c8" font-weight="normal">e</text>
<text x="225" y="235" fill="#c8c8c8" font-weight="normal">c</text>
<text x="234" y="235" fill="#c8c8c8" font-weight="normal">h</text>
<text x="243" y="235" fill="#c8c8c8" font-weight="normal">a</text>
<text x="252" y="235" fill="#c8c8c8" font-weight="normal">n</text>
<text x="261" y="235" fill="#c8c8c8" font-weight="normal">g</text>
<text x="270" y="235" fill="#c8c8c8" font-weight="normal">e</text>
<text x="279" y="235" fill="#c8c8c8" font-weight="normal">s</text>
<text x="288" y="235" fill="#c8c8c8" font-weight="normal">,</text>
<text x="306" y="235" fill="#c8c8c8" font-weight="normal">a</text>
<text x="315" y="235" fill="#c8c8c8" font-weight="normal">n</text>
<text x="324" y="235" fill="#c8c8c8" font-weight="normal">d</text>
<text x="342" y="235" fill="#c8c8c8" font-weight="normal">k</text>
<text x="351" y="235" fill="#c8c8c8" font-weight="normal">e</text>
<text x="360" y="235" fill="#c8c8c8" font-weight="normal">e</text>
<text x="369" y="235" fill="#c8c8c8" font-weight="normal">p</text>
<text x="387" y="235" fill="#c8c8c8" font-weight="normal">g</text>
<text x="396" y="235" fill="#c8c8c8" font-weight="normal">o</text>
<text x="405" y="235" fill="#c8c8c8" font-weight="normal">i</text>
<text x="414" y="235" fill="#c8c8c8" font-weight="normal">n</text>
<text x="423" y="235" fill="#c8c8c8" font-weight="normal">g</text>
<text x="432" y="235" fill="#c8c8c8" font-weight="normal">.</text>
<text x="18" y="275" fill="#7aa2f7" font-weight="normal">◇</text>
<text x="36" y="275" fill="#787878" font-weight="normal">T</text>
<text x="45" y="275" fill="#787878" font-weight="normal">o</text>
<text x="54" y="275" fill="#787878" font-weight="normal">o</text>
<text x="63" y="275" fill="#787878" font-weight="normal">l</text>
<text x="72" y="275" fill="#787878" font-weight="normal">s</text>
<text x="90" y="275" fill="#787878" font-weight="normal">a</text>
<text x="99" y="275" fill="#787878" font-weight="normal">n</text>
<text x="108" y="275" fill="#787878" font-weight="normal">d</text>
<text x="126" y="275" fill="#787878" font-weight="normal">m</text>
<text x="135" y="275" fill="#787878" font-weight="normal">o</text>
<text x="144" y="275" fill="#787878" font-weight="normal">d</text>
<text x="153" y="275" fill="#787878" font-weight="normal">e</text>
<text x="162" y="275" fill="#787878" font-weight="normal">l</text>
<text x="171" y="275" fill="#787878" font-weight="normal">s</text>
<text x="189" y="275" fill="#787878" font-weight="normal">a</text>
<text x="198" y="275" fill="#787878" font-weight="normal">r</text>
<text x="207" y="275" fill="#787878" font-weight="normal">e</text>
<text x="225" y="275" fill="#787878" font-weight="normal">p</text>
<text x="234" y="275" fill="#787878" font-weight="normal">l</text>
<text x="243" y="275" fill="#787878" font-weight="normal">u</text>
<text x="252" y="275" fill="#787878" font-weight="normal">g</text>
<text x="261" y="275" fill="#787878" font-weight="normal">i</text>
<text x="270" y="275" fill="#787878" font-weight="normal">n</text>
<text x="279" y="275" fill="#787878" font-weight="normal">s</text>
<text x="288" y="275" fill="#787878" font-weight="normal">.</text>
<text x="18" y="295" fill="#1abc9c" font-weight="normal">◇</text>
<text x="36" y="295" fill="#787878" font-weight="normal">D</text>
<text x="45" y="295" fill="#787878" font-weight="normal">i</text>
<text x="54" y="295" fill="#787878" font-weight="normal">s</text>
<text x="63" y="295" fill="#787878" font-weight="normal">c</text>
<text x="72" y="295" fill="#787878" font-weight="normal">o</text>
<text x="81" y="295" fill="#787878" font-weight="normal">v</text>
<text x="90" y="295" fill="#787878" font-weight="normal">e</text>
<text x="99" y="295" fill="#787878" font-weight="normal">r</text>
<text x="117" y="295" fill="#787878" font-weight="normal">t</text>
<text x="126" y="295" fill="#787878" font-weight="normal">h</text>
<text x="135" y="295" fill="#787878" font-weight="normal">e</text>
<text x="144" y="295" fill="#787878" font-weight="normal">m</text>
<text x="162" y="295" fill="#787878" font-weight="normal">o</text>
<text x="171" y="295" fill="#787878" font-weight="normal">n</text>
<text x="189" y="295" fill="#787878" font-weight="normal">N</text>
<text x="198" y="295" fill="#787878" font-weight="normal">o</text>
<text x="207" y="295" fill="#787878" font-weight="normal">s</text>
<text x="216" y="295" fill="#787878" font-weight="normal">t</text>
<text x="225" y="295" fill="#787878" font-weight="normal">r</text>
<text x="234" y="295" fill="#787878" font-weight="normal">.</text>
<text x="252" y="295" fill="#787878" font-weight="normal">P</text>
<text x="261" y="295" fill="#787878" font-weight="normal">a</text>
<text x="270" y="295" fill="#787878" font-weight="normal">y</text>
<text x="288" y="295" fill="#787878" font-weight="normal">i</text>
<text x="297" y="295" fill="#787878" font-weight="normal">n</text>
<text x="315" y="295" fill="#787878" font-weight="normal">s</text>
<text x="324" y="295" fill="#787878" font-weight="normal">a</text>
<text x="333" y="295" fill="#787878" font-weight="normal">t</text>
<text x="342" y="295" fill="#787878" font-weight="normal">s</text>
<text x="351" y="295" fill="#787878" font-weight="normal">.</text>
<text x="18" y="335" fill="#6c6c6c" font-weight="normal">T</text>
<text x="27" y="335" fill="#6c6c6c" font-weight="normal">y</text>
<text x="36" y="335" fill="#6c6c6c" font-weight="normal">p</text>
<text x="45" y="335" fill="#6c6c6c" font-weight="normal">e</text>
<text x="63" y="335" fill="#6c6c6c" font-weight="normal">b</text>
<text x="72" y="335" fill="#6c6c6c" font-weight="normal">e</text>
<text x="81" y="335" fill="#6c6c6c" font-weight="normal">l</text>
<text x="90" y="335" fill="#6c6c6c" font-weight="normal">o</text>
<text x="99" y="335" fill="#6c6c6c" font-weight="normal">w</text>
<text x="108" y="335" fill="#6c6c6c" font-weight="normal">,</text>
<text x="126" y="335" fill="#6c6c6c" font-weight="normal">o</text>
<text x="135" y="335" fill="#6c6c6c" font-weight="normal">r</text>
<text x="153" y="335" fill="#6c6c6c" font-weight="normal">p</text>
<text x="162" y="335" fill="#6c6c6c" font-weight="normal">r</text>
<text x="171" y="335" fill="#6c6c6c" font-weight="normal">e</text>
<text x="180" y="335" fill="#6c6c6c" font-weight="normal">s</text>
<text x="189" y="335" fill="#6c6c6c" font-weight="normal">s</text>
<text x="207" y="335" fill="#6c6c6c" font-weight="normal">T</text>
<text x="216" y="335" fill="#6c6c6c" font-weight="normal">a</text>
<text x="225" y="335" fill="#6c6c6c" font-weight="normal">b</text>
<text x="243" y="335" fill="#6c6c6c" font-weight="normal">t</text>
<text x="252" y="335" fill="#6c6c6c" font-weight="normal">o</text>
<text x="270" y="335" fill="#6c6c6c" font-weight="normal">s</text>
<text x="279" y="335" fill="#6c6c6c" font-weight="normal">e</text>
<text x="288" y="335" fill="#6c6c6c" font-weight="normal">e</text>
<text x="306" y="335" fill="#6c6c6c" font-weight="normal">a</text>
<text x="324" y="335" fill="#6c6c6c" font-weight="normal">s</text>
<text x="333" y="335" fill="#6c6c6c" font-weight="normal">a</text>
<text x="342" y="335" fill="#6c6c6c" font-weight="normal">m</text>
<text x="351" y="335" fill="#6c6c6c" font-weight="normal">p</text>
<text x="360" y="335" fill="#6c6c6c" font-weight="normal">l</text>
<text x="369" y="335" fill="#6c6c6c" font-weight="normal">e</text>
<text x="387" y="335" fill="#6c6c6c" font-weight="normal">c</text>
<text x="396" y="335" fill="#6c6c6c" font-weight="normal">o</text>
<text x="405" y="335" fill="#6c6c6c" font-weight="normal">n</text>
<text x="414" y="335" fill="#6c6c6c" font-weight="normal">v</text>
<text x="423" y="335" fill="#6c6c6c" font-weight="normal">e</text>
<text x="432" y="335" fill="#6c6c6c" font-weight="normal">r</text>
<text x="441" y="335" fill="#6c6c6c" font-weight="normal">s</text>
<text x="450" y="335" fill="#6c6c6c" font-weight="normal">a</text>
<text x="459" y="335" fill="#6c6c6c" font-weight="normal">t</text>
<text x="468" y="335" fill="#6c6c6c" font-weight="normal">i</text>
<text x="477" y="335" fill="#6c6c6c" font-weight="normal">o</text>
<text x="486" y="335" fill="#6c6c6c" font-weight="normal">n</text>
<text x="495" y="335" fill="#6c6c6c" font-weight="normal">.</text>
<text x="18" y="515" fill="#505058" font-weight="normal">─</text>
<text x="27" y="515" fill="#505058" font-weight="normal">─</text>
<text x="36" y="515" fill="#505058" font-weight="normal">─</text>
<text x="45" y="515" fill="#505058" font-weight="normal">─</text>
<text x="54" y="515" fill="#505058" font-weight="normal">─</text>
<text x="63" y="515" fill="#505058" font-weight="normal">─</text>
<text x="72" y="515" fill="#505058" font-weight="normal">─</text>
<text x="81" y="515" fill="#505058" font-weight="normal">─</text>
<text x="90" y="515" fill="#505058" font-weight="normal">─</text>
<text x="99" y="515" fill="#505058" font-weight="normal">─</text>
<text x="108" y="515" fill="#505058" font-weight="normal">─</text>
<text x="117" y="515" fill="#505058" font-weight="normal">─</text>
<text x="126" y="515" fill="#505058" font-weight="normal">─</text>
<text x="135" y="515" fill="#505058" font-weight="normal">─</text>
<text x="144" y="515" fill="#505058" font-weight="normal">─</text>
<text x="153" y="515" fill="#505058" font-weight="normal">─</text>
<text x="162" y="515" fill="#505058" font-weight="normal">─</text>
<text x="171" y="515" fill="#505058" font-weight="normal">─</text>
<text x="180" y="515" fill="#505058" font-weight="normal">─</text>
<text x="189" y="515" fill="#505058" font-weight="normal">─</text>
<text x="198" y="515" fill="#505058" font-weight="normal">─</text>
<text x="207" y="515" fill="#505058" font-weight="normal">─</text>
<text x="216" y="515" fill="#505058" font-weight="normal">─</text>
<text x="225" y="515" fill="#505058" font-weight="normal">─</text>
<text x="234" y="515" fill="#505058" font-weight="normal">─</text>
<text x="243" y="515" fill="#505058" font-weight="normal">─</text>
<text x="252" y="515" fill="#505058" font-weight="normal">─</text>
<text x="261" y="515" fill="#505058" font-weight="normal">─</text>
<text x="270" y="515" fill="#505058" font-weight="normal">─</text>
<text x="279" y="515" fill="#505058" font-weight="normal">─</text>
<text x="288" y="515" fill="#505058" font-weight="normal">─</text>
<text x="297" y="515" fill="#505058" font-weight="normal">─</text>
<text x="306" y="515" fill="#505058" font-weight="normal">─</text>
<text x="315" y="515" fill="#505058" font-weight="normal">─</text>
<text x="324" y="515" fill="#505058" font-weight="normal">─</text>
<text x="333" y="515" fill="#505058" font-weight="normal">─</text>
<text x="342" y="515" fill="#505058" font-weight="normal">─</text>
<text x="351" y="515" fill="#505058" font-weight="normal">─</text>
<text x="360" y="515" fill="#505058" font-weight="normal">─</text>
<text x="369" y="515" fill="#505058" font-weight="normal">─</text>
<text x="378" y="515" fill="#505058" font-weight="normal">─</text>
<text x="387" y="515" fill="#505058" font-weight="normal">─</text>
<text x="396" y="515" fill="#505058" font-weight="normal">─</text>
<text x="405" y="515" fill="#505058" font-weight="normal">─</text>
<text x="414" y="515" fill="#505058" font-weight="normal">─</text>
<text x="423" y="515" fill="#505058" font-weight="normal">─</text>
<text x="432" y="515" fill="#505058" font-weight="normal">─</text>
<text x="441" y="515" fill="#505058" font-weight="normal">─</text>
<text x="450" y="515" fill="#505058" font-weight="normal">─</text>
<text x="459" y="515" fill="#505058" font-weight="normal">─</text>
<text x="468" y="515" fill="#505058" font-weight="normal">─</text>
<text x="477" y="515" fill="#505058" font-weight="normal">─</text>
<text x="486" y="515" fill="#505058" font-weight="normal">─</text>
<text x="495" y="515" fill="#505058" font-weight="normal">─</text>
<text x="504" y="515" fill="#505058" font-weight="normal">─</text>
<text x="513" y="515" fill="#505058" font-weight="normal">─</text>
<text x="522" y="515" fill="#505058" font-weight="normal">─</text>
<text x="531" y="515" fill="#505058" font-weight="normal">─</text>
<text x="540" y="515" fill="#505058" font-weight="normal">─</text>
<text x="549" y="515" fill="#505058" font-weight="normal">─</text>
<text x="558" y="515" fill="#505058" font-weight="normal">─</text>
<text x="567" y="515" fill="#505058" font-weight="normal">─</text>
<text x="576" y="515" fill="#505058" font-weight="normal">─</text>
<text x="585" y="515" fill="#505058" font-weight="normal">─</text>
<text x="594" y="515" fill="#505058" font-weight="normal">─</text>
<text x="603" y="515" fill="#505058" font-weight="normal">─</text>
<text x="612" y="515" fill="#505058" font-weight="normal">─</text>
<text x="621" y="515" fill="#505058" font-weight="normal">─</text>
<text x="630" y="515" fill="#505058" font-weight="normal">─</text>
<text x="639" y="515" fill="#505058" font-weight="normal">─</text>
<text x="648" y="515" fill="#505058" font-weight="normal">─</text>
<text x="657" y="515" fill="#505058" font-weight="normal">─</text>
<text x="666" y="515" fill="#505058" font-weight="normal">─</text>
<text x="675" y="515" fill="#505058" font-weight="normal">─</text>
<text x="684" y="515" fill="#505058" font-weight="normal">─</text>
<text x="693" y="515" fill="#505058" font-weight="normal">─</text>
<text x="702" y="515" fill="#505058" font-weight="normal">─</text>
<text x="711" y="515" fill="#505058" font-weight="normal">─</text>
<text x="720" y="515" fill="#505058" font-weight="normal">─</text>
<text x="729" y="515" fill="#505058" font-weight="normal">─</text>
<text x="738" y="515" fill="#505058" font-weight="normal">─</text>
<text x="747" y="515" fill="#505058" font-weight="normal">─</text>
<text x="756" y="515" fill="#505058" font-weight="normal">─</text>
<text x="765" y="515" fill="#505058" font-weight="normal">─</text>
<text x="774" y="515" fill="#505058" font-weight="normal">─</text>
<text x="783" y="515" fill="#505058" font-weight="normal">─</text>
<text x="792" y="515" fill="#505058" font-weight="normal">─</text>
<text x="801" y="515" fill="#505058" font-weight="normal">─</text>
<text x="810" y="515" fill="#505058" font-weight="normal">─</text>
<text x="819" y="515" fill="#505058" font-weight="normal">─</text>
<text x="828" y="515" fill="#505058" font-weight="normal">─</text>
<text x="837" y="515" fill="#505058" font-weight="normal">─</text>
<text x="846" y="515" fill="#505058" font-weight="normal">─</text>
<text x="855" y="515" fill="#505058" font-weight="normal">─</text>
<text x="864" y="515" fill="#505058" font-weight="normal">─</text>
<text x="873" y="515" fill="#505058" font-weight="normal">─</text>
<text x="882" y="515" fill="#505058" font-weight="normal">─</text>
<text x="891" y="515" fill="#505058" font-weight="normal">─</text>
<text x="900" y="515" fill="#505058" font-weight="normal">─</text>
<text x="909" y="515" fill="#505058" font-weight="normal">─</text>
<text x="918" y="515" fill="#505058" font-weight="normal">─</text>
<text x="927" y="515" fill="#505058" font-weight="normal">─</text>
<text x="936" y="515" fill="#505058" font-weight="normal">─</text>
<text x="945" y="515" fill="#505058" font-weight="normal">─</text>
<text x="954" y="515" fill="#505058" font-weight="normal">─</text>
<text x="963" y="515" fill="#505058" font-weight="normal">─</text>
<text x="18" y="535" fill="#c8c8c8" font-weight="normal">❯</text>
<text x="18" y="555" fill="#505058" font-weight="normal">─</text>
<text x="27" y="555" fill="#505058" font-weight="normal">─</text>
<text x="36" y="555" fill="#505058" font-weight="normal">─</text>
<text x="45" y="555" fill="#505058" font-weight="normal">─</text>
<text x="54" y="555" fill="#505058" font-weight="normal">─</text>
<text x="63" y="555" fill="#505058" font-weight="normal">─</text>
<text x="72" y="555" fill="#505058" font-weight="normal">─</text>
<text x="81" y="555" fill="#505058" font-weight="normal">─</text>
<text x="90" y="555" fill="#505058" font-weight="normal">─</text>
<text x="99" y="555" fill="#505058" font-weight="normal">─</text>
<text x="108" y="555" fill="#505058" font-weight="normal">─</text>
<text x="117" y="555" fill="#505058" font-weight="normal">─</text>
<text x="126" y="555" fill="#505058" font-weight="normal">─</text>
<text x="135" y="555" fill="#505058" font-weight="normal">─</text>
<text x="144" y="555" fill="#505058" font-weight="normal">─</text>
<text x="153" y="555" fill="#505058" font-weight="normal">─</text>
<text x="162" y="555" fill="#505058" font-weight="normal">─</text>
<text x="171" y="555" fill="#505058" font-weight="normal">─</text>
<text x="180" y="555" fill="#505058" font-weight="normal">─</text>
<text x="189" y="555" fill="#505058" font-weight="normal">─</text>
<text x="198" y="555" fill="#505058" font-weight="normal">─</text>
<text x="207" y="555" fill="#505058" font-weight="normal">─</text>
<text x="216" y="555" fill="#505058" font-weight="normal">─</text>
<text x="225" y="555" fill="#505058" font-weight="normal">─</text>
<text x="234" y="555" fill="#505058" font-weight="normal">─</text>
<text x="243" y="555" fill="#505058" font-weight="normal">─</text>
<text x="252" y="555" fill="#505058" font-weight="normal">─</text>
<text x="261" y="555" fill="#505058" font-weight="normal">─</text>
<text x="270" y="555" fill="#505058" font-weight="normal">─</text>
<text x="279" y="555" fill="#505058" font-weight="normal">─</text>
<text x="288" y="555" fill="#505058" font-weight="normal">─</text>
<text x="297" y="555" fill="#505058" font-weight="normal">─</text>
<text x="306" y="555" fill="#505058" font-weight="normal">─</text>
<text x="315" y="555" fill="#505058" font-weight="normal">─</text>
<text x="324" y="555" fill="#505058" font-weight="normal">─</text>
<text x="333" y="555" fill="#505058" font-weight="normal">─</text>
<text x="342" y="555" fill="#505058" font-weight="normal">─</text>
<text x="351" y="555" fill="#505058" font-weight="normal">─</text>
<text x="360" y="555" fill="#505058" font-weight="normal">─</text>
<text x="369" y="555" fill="#505058" font-weight="normal">─</text>
<text x="378" y="555" fill="#505058" font-weight="normal">─</text>
<text x="387" y="555" fill="#505058" font-weight="normal">─</text>
<text x="396" y="555" fill="#505058" font-weight="normal">─</text>
<text x="405" y="555" fill="#505058" font-weight="normal">─</text>
<text x="414" y="555" fill="#505058" font-weight="normal">─</text>
<text x="423" y="555" fill="#505058" font-weight="normal">─</text>
<text x="432" y="555" fill="#505058" font-weight="normal">─</text>
<text x="441" y="555" fill="#505058" font-weight="normal">─</text>
<text x="450" y="555" fill="#505058" font-weight="normal">─</text>
<text x="459" y="555" fill="#505058" font-weight="normal">─</text>
<text x="468" y="555" fill="#505058" font-weight="normal">─</text>
<text x="477" y="555" fill="#505058" font-weight="normal">─</text>
<text x="486" y="555" fill="#505058" font-weight="normal">─</text>
<text x="495" y="555" fill="#505058" font-weight="normal">─</text>
<text x="504" y="555" fill="#505058" font-weight="normal">─</text>
<text x="513" y="555" fill="#505058" font-weight="normal">─</text>
<text x="522" y="555" fill="#505058" font-weight="normal">─</text>
<text x="531" y="555" fill="#505058" font-weight="normal">─</text>
<text x="540" y="555" fill="#505058" font-weight="normal">─</text>
<text x="549" y="555" fill="#505058" font-weight="normal">─</text>
<text x="558" y="555" fill="#505058" font-weight="normal">─</text>
<text x="567" y="555" fill="#505058" font-weight="normal">─</text>
<text x="576" y="555" fill="#505058" font-weight="normal">─</text>
<text x="585" y="555" fill="#505058" font-weight="normal">─</text>
<text x="594" y="555" fill="#505058" font-weight="normal">─</text>
<text x="603" y="555" fill="#505058" font-weight="normal">─</text>
<text x="612" y="555" fill="#505058" font-weight="normal">─</text>
<text x="621" y="555" fill="#505058" font-weight="normal">─</text>
<text x="630" y="555" fill="#505058" font-weight="normal">─</text>
<text x="639" y="555" fill="#505058" font-weight="normal">─</text>
<text x="648" y="555" fill="#505058" font-weight="normal">─</text>
<text x="657" y="555" fill="#505058" font-weight="normal">─</text>
<text x="666" y="555" fill="#505058" font-weight="normal">─</text>
<text x="675" y="555" fill="#505058" font-weight="normal">─</text>
<text x="684" y="555" fill="#505058" font-weight="normal">─</text>
<text x="693" y="555" fill="#505058" font-weight="normal">─</text>
<text x="702" y="555" fill="#505058" font-weight="normal">─</text>
<text x="711" y="555" fill="#505058" font-weight="normal">─</text>
<text x="720" y="555" fill="#505058" font-weight="normal">─</text>
<text x="729" y="555" fill="#505058" font-weight="normal">─</text>
<text x="738" y="555" fill="#505058" font-weight="normal">─</text>
<text x="747" y="555" fill="#505058" font-weight="normal">─</text>
<text x="756" y="555" fill="#505058" font-weight="normal">─</text>
<text x="765" y="555" fill="#505058" font-weight="normal">─</text>
<text x="774" y="555" fill="#505058" font-weight="normal">─</text>
<text x="783" y="555" fill="#505058" font-weight="normal">─</text>
<text x="792" y="555" fill="#505058" font-weight="normal">─</text>
<text x="801" y="555" fill="#505058" font-weight="normal">─</text>
<text x="810" y="555" fill="#505058" font-weight="normal">─</text>
<text x="819" y="555" fill="#505058" font-weight="normal">─</text>
<text x="828" y="555" fill="#505058" font-weight="normal">─</text>
<text x="837" y="555" fill="#505058" font-weight="normal">─</text>
<text x="846" y="555" fill="#505058" font-weight="normal">─</text>
<text x="855" y="555" fill="#505058" font-weight="normal">─</text>
<text x="864" y="555" fill="#505058" font-weight="normal">─</text>
<text x="873" y="555" fill="#505058" font-weight="normal">─</text>
<text x="882" y="555" fill="#505058" font-weight="normal">─</text>
<text x="891" y="555" fill="#505058" font-weight="normal">─</text>
<text x="900" y="555" fill="#505058" font-weight="normal">─</text>
<text x="909" y="555" fill="#505058" font-weight="normal">─</text>
<text x="918" y="555" fill="#505058" font-weight="normal">─</text>
<text x="927" y="555" fill="#505058" font-weight="normal">─</text>
<text x="936" y="555" fill="#505058" font-weight="normal">─</text>
<text x="945" y="555" fill="#505058" font-weight="normal">─</text>
<text x="954" y="555" fill="#505058" font-weight="normal">─</text>
<text x="963" y="555" fill="#505058" font-weight="normal">─</text>
<text x="36" y="595" fill="#6c6c6c" font-weight="normal">○</text>
<text x="54" y="595" fill="#c8c8c8" font-weight="bold">c</text>
<text x="63" y="595" fill="#c8c8c8" font-weight="bold">l</text>
<text x="72" y="595" fill="#c8c8c8" font-weight="bold">a</text>
<text x="81" y="595" fill="#c8c8c8" font-weight="bold">u</text>
<text x="90" y="595" fill="#c8c8c8" font-weight="bold">d</text>
<text x="99" y="595" fill="#c8c8c8" font-weight="bold">e</text>
<text x="108" y="595" fill="#c8c8c8" font-weight="bold">-</text>
<text x="117" y="595" fill="#c8c8c8" font-weight="bold">c</text>
<text x="126" y="595" fill="#c8c8c8" font-weight="bold">o</text>
<text x="135" y="595" fill="#c8c8c8" font-weight="bold">d</text>
<text x="144" y="595" fill="#c8c8c8" font-weight="bold">e</text>
<text x="153" y="595" fill="#6c6c6c" font-weight="normal">:</text>
<text x="171" y="595" fill="#6c6c6c" font-weight="normal">R</text>
<text x="180" y="595" fill="#6c6c6c" font-weight="normal">e</text>
<text x="189" y="595" fill="#6c6c6c" font-weight="normal">v</text>
<text x="198" y="595" fill="#6c6c6c" font-weight="normal">i</text>
<text x="207" y="595" fill="#6c6c6c" font-weight="normal">e</text>
<text x="216" y="595" fill="#6c6c6c" font-weight="normal">w</text>
<text x="225" y="595" fill="#6c6c6c" font-weight="normal">i</text>
<text x="234" y="595" fill="#6c6c6c" font-weight="normal">n</text>
<text x="243" y="595" fill="#6c6c6c" font-weight="normal">g</text>
<text x="261" y="595" fill="#6c6c6c" font-weight="normal">k</text>
<text x="270" y="595" fill="#6c6c6c" font-weight="normal">e</text>
<text x="279" y="595" fill="#6c6c6c" font-weight="normal">y</text>
<text x="288" y="595" fill="#6c6c6c" font-weight="normal">b</text>
<text x="297" y="595" fill="#6c6c6c" font-weight="normal">o</text>
<text x="306" y="595" fill="#6c6c6c" font-weight="normal">a</text>
<text x="315" y="595" fill="#6c6c6c" font-weight="normal">r</text>
<text x="324" y="595" fill="#6c6c6c" font-weight="normal">d</text>
<text x="342" y="595" fill="#6c6c6c" font-weight="normal">n</text>
<text x="351" y="595" fill="#6c6c6c" font-weight="normal">a</text>
<text x="360" y="595" fill="#6c6c6c" font-weight="normal">v</text>
<text x="369" y="595" fill="#6c6c6c" font-weight="normal">i</text>
<text x="378" y="595" fill="#6c6c6c" font-weight="normal">g</text>
<text x="387" y="595" fill="#6c6c6c" font-weight="normal">a</text>
<text x="396" y="595" fill="#6c6c6c" font-weight="normal">t</text>
<text x="405" y="595" fill="#6c6c6c" font-weight="normal">i</text>
<text x="414" y="595" fill="#6c6c6c" font-weight="normal">o</text>
<text x="423" y="595" fill="#6c6c6c" font-weight="normal">n</text>
<text x="855" y="595" fill="#6c6c6c" font-weight="normal">↓</text>
<text x="873" y="595" fill="#6c6c6c" font-weight="normal">8</text>
<text x="882" y="595" fill="#6c6c6c" font-weight="normal">.</text>
<text x="891" y="595" fill="#6c6c6c" font-weight="normal">2</text>
<text x="900" y="595" fill="#6c6c6c" font-weight="normal">k</text>
<text x="918" y="595" fill="#6c6c6c" font-weight="normal">t</text>
<text x="927" y="595" fill="#6c6c6c" font-weight="normal">o</text>
<text x="936" y="595" fill="#6c6c6c" font-weight="normal">k</text>
<text x="945" y="595" fill="#6c6c6c" font-weight="normal">e</text>
<text x="954" y="595" fill="#6c6c6c" font-weight="normal">n</text>
<text x="963" y="595" fill="#6c6c6c" font-weight="normal">s</text>
<text x="36" y="615" fill="#6c6c6c" font-weight="normal">○</text>
<text x="54" y="615" fill="#c8c8c8" font-weight="bold">c</text>
<text x="63" y="615" fill="#c8c8c8" font-weight="bold">o</text>
<text x="72" y="615" fill="#c8c8c8" font-weight="bold">d</text>
<text x="81" y="615" fill="#c8c8c8" font-weight="bold">e</text>
<text x="90" y="615" fill="#c8c8c8" font-weight="bold">x</text>
<text x="99" y="615" fill="#6c6c6c" font-weight="normal">:</text>
<text x="117" y="615" fill="#6c6c6c" font-weight="normal">C</text>
<text x="126" y="615" fill="#6c6c6c" font-weight="normal">h</text>
<text x="135" y="615" fill="#6c6c6c" font-weight="normal">e</text>
<text x="144" y="615" fill="#6c6c6c" font-weight="normal">c</text>
<text x="153" y="615" fill="#6c6c6c" font-weight="normal">k</text>
<text x="162" y="615" fill="#6c6c6c" font-weight="normal">i</text>
<text x="171" y="615" fill="#6c6c6c" font-weight="normal">n</text>
<text x="180" y="615" fill="#6c6c6c" font-weight="normal">g</text>
<text x="198" y="615" fill="#6c6c6c" font-weight="normal">t</text>
<text x="207" y="615" fill="#6c6c6c" font-weight="normal">h</text>
<text x="216" y="615" fill="#6c6c6c" font-weight="normal">e</text>
<text x="234" y="615" fill="#6c6c6c" font-weight="normal">f</text>
<text x="243" y="615" fill="#6c6c6c" font-weight="normal">o</text>
<text x="252" y="615" fill="#6c6c6c" font-weight="normal">o</text>
<text x="261" y="615" fill="#6c6c6c" font-weight="normal">t</text>
<text x="270" y="615" fill="#6c6c6c" font-weight="normal">e</text>
<text x="279" y="615" fill="#6c6c6c" font-weight="normal">r</text>
<text x="297" y="615" fill="#6c6c6c" font-weight="normal">p</text>
<text x="306" y="615" fill="#6c6c6c" font-weight="normal">l</text>
<text x="315" y="615" fill="#6c6c6c" font-weight="normal">a</text>
<text x="324" y="615" fill="#6c6c6c" font-weight="normal">c</text>
<text x="333" y="615" fill="#6c6c6c" font-weight="normal">e</text>
<text x="342" y="615" fill="#6c6c6c" font-weight="normal">m</text>
<text x="351" y="615" fill="#6c6c6c" font-weight="normal">e</text>
<text x="360" y="615" fill="#6c6c6c" font-weight="normal">n</text>
<text x="369" y="615" fill="#6c6c6c" font-weight="normal">t</text>
<text x="846" y="615" fill="#6c6c6c" font-weight="normal">↓</text>
<text x="864" y="615" fill="#6c6c6c" font-weight="normal">1</text>
<text x="873" y="615" fill="#6c6c6c" font-weight="normal">2</text>
<text x="882" y="615" fill="#6c6c6c" font-weight="normal">.</text>
<text x="891" y="615" fill="#6c6c6c" font-weight="normal">4</text>
<text x="900" y="615" fill="#6c6c6c" font-weight="normal">k</text>
<text x="918" y="615" fill="#6c6c6c" font-weight="normal">t</text>
<text x="927" y="615" fill="#6c6c6c" font-weight="normal">o</text>
<text x="936" y="615" fill="#6c6c6c" font-weight="normal">k</text>
<text x="945" y="615" fill="#6c6c6c" font-weight="normal">e</text>
<text x="954" y="615" fill="#6c6c6c" font-weight="normal">n</text>
<text x="963" y="615" fill="#6c6c6c" font-weight="normal">s</text>
<text x="36" y="635" fill="#6c6c6c" font-weight="normal">○</text>
<text x="54" y="635" fill="#c8c8c8" font-weight="bold">d</text>
<text x="63" y="635" fill="#c8c8c8" font-weight="bold">e</text>
<text x="72" y="635" fill="#c8c8c8" font-weight="bold">v</text>
<text x="81" y="635" fill="#c8c8c8" font-weight="bold">i</text>
<text x="90" y="635" fill="#c8c8c8" font-weight="bold">n</text>
<text x="99" y="635" fill="#c8c8c8" font-weight="bold">-</text>
<text x="108" y="635" fill="#c8c8c8" font-weight="bold">c</text>
<text x="117" y="635" fill="#c8c8c8" font-weight="bold">l</text>
<text x="126" y="635" fill="#c8c8c8" font-weight="bold">i</text>
<text x="135" y="635" fill="#6c6c6c" font-weight="normal">:</text>
<text x="153" y="635" fill="#6c6c6c" font-weight="normal">I</text>
<text x="162" y="635" fill="#6c6c6c" font-weight="normal">n</text>
<text x="171" y="635" fill="#6c6c6c" font-weight="normal">s</text>
<text x="180" y="635" fill="#6c6c6c" font-weight="normal">p</text>
<text x="189" y="635" fill="#6c6c6c" font-weight="normal">e</text>
<text x="198" y="635" fill="#6c6c6c" font-weight="normal">c</text>
<text x="207" y="635" fill="#6c6c6c" font-weight="normal">t</text>
<text x="216" y="635" fill="#6c6c6c" font-weight="normal">i</text>
<text x="225" y="635" fill="#6c6c6c" font-weight="normal">n</text>
<text x="234" y="635" fill="#6c6c6c" font-weight="normal">g</text>
<text x="252" y="635" fill="#6c6c6c" font-weight="normal">t</text>
<text x="261" y="635" fill="#6c6c6c" font-weight="normal">h</text>
<text x="270" y="635" fill="#6c6c6c" font-weight="normal">e</text>
<text x="288" y="635" fill="#6c6c6c" font-weight="normal">c</text>
<text x="297" y="635" fill="#6c6c6c" font-weight="normal">o</text>
<text x="306" y="635" fill="#6c6c6c" font-weight="normal">m</text>
<text x="315" y="635" fill="#6c6c6c" font-weight="normal">p</text>
<text x="324" y="635" fill="#6c6c6c" font-weight="normal">a</text>
<text x="333" y="635" fill="#6c6c6c" font-weight="normal">c</text>
<text x="342" y="635" fill="#6c6c6c" font-weight="normal">t</text>
<text x="360" y="635" fill="#6c6c6c" font-weight="normal">s</text>
<text x="369" y="635" fill="#6c6c6c" font-weight="normal">t</text>
<text x="378" y="635" fill="#6c6c6c" font-weight="normal">a</text>
<text x="387" y="635" fill="#6c6c6c" font-weight="normal">t</text>
<text x="396" y="635" fill="#6c6c6c" font-weight="normal">u</text>
<text x="405" y="635" fill="#6c6c6c" font-weight="normal">s</text>
<text x="423" y="635" fill="#6c6c6c" font-weight="normal">r</text>
<text x="432" y="635" fill="#6c6c6c" font-weight="normal">o</text>
<text x="441" y="635" fill="#6c6c6c" font-weight="normal">w</text>
<text x="855" y="635" fill="#6c6c6c" font-weight="normal">↓</text>
<text x="873" y="635" fill="#6c6c6c" font-weight="normal">4</text>
<text x="882" y="635" fill="#6c6c6c" font-weight="normal">.</text>
<text x="891" y="635" fill="#6c6c6c" font-weight="normal">7</text>
<text x="900" y="635" fill="#6c6c6c" font-weight="normal">k</text>
<text x="918" y="635" fill="#6c6c6c" font-weight="normal">t</text>
<text x="927" y="635" fill="#6c6c6c" font-weight="normal">o</text>
<text x="936" y="635" fill="#6c6c6c" font-weight="normal">k</text>
<text x="945" y="635" fill="#6c6c6c" font-weight="normal">e</text>
<text x="954" y="635" fill="#6c6c6c" font-weight="normal">n</text>
<text x="963" y="635" fill="#6c6c6c" font-weight="normal">s</text>
<text x="36" y="655" fill="#6c6c6c" font-weight="normal">○</text>
<text x="54" y="655" fill="#c8c8c8" font-weight="bold">g</text>
<text x="63" y="655" fill="#c8c8c8" font-weight="bold">r</text>
<text x="72" y="655" fill="#c8c8c8" font-weight="bold">o</text>
<text x="81" y="655" fill="#c8c8c8" font-weight="bold">k</text>
<text x="90" y="655" fill="#c8c8c8" font-weight="bold">-</text>
<text x="99" y="655" fill="#c8c8c8" font-weight="bold">b</text>
<text x="108" y="655" fill="#c8c8c8" font-weight="bold">u</text>
<text x="117" y="655" fill="#c8c8c8" font-weight="bold">i</text>
<text x="126" y="655" fill="#c8c8c8" font-weight="bold">l</text>
<text x="135" y="655" fill="#c8c8c8" font-weight="bold">d</text>
<text x="144" y="655" fill="#6c6c6c" font-weight="normal">:</text>
<text x="162" y="655" fill="#6c6c6c" font-weight="normal">V</text>
<text x="171" y="655" fill="#6c6c6c" font-weight="normal">e</text>
<text x="180" y="655" fill="#6c6c6c" font-weight="normal">r</text>
<text x="189" y="655" fill="#6c6c6c" font-weight="normal">i</text>
<text x="198" y="655" fill="#6c6c6c" font-weight="normal">f</text>
<text x="207" y="655" fill="#6c6c6c" font-weight="normal">y</text>
<text x="216" y="655" fill="#6c6c6c" font-weight="normal">i</text>
<text x="225" y="655" fill="#6c6c6c" font-weight="normal">n</text>
<text x="234" y="655" fill="#6c6c6c" font-weight="normal">g</text>
<text x="252" y="655" fill="#6c6c6c" font-weight="normal">t</text>
<text x="261" y="655" fill="#6c6c6c" font-weight="normal">h</text>
<text x="270" y="655" fill="#6c6c6c" font-weight="normal">e</text>
<text x="288" y="655" fill="#6c6c6c" font-weight="normal">p</text>
<text x="297" y="655" fill="#6c6c6c" font-weight="normal">r</text>
<text x="306" y="655" fill="#6c6c6c" font-weight="normal">e</text>
<text x="315" y="655" fill="#6c6c6c" font-weight="normal">v</text>
<text x="324" y="655" fill="#6c6c6c" font-weight="normal">i</text>
<text x="333" y="655" fill="#6c6c6c" font-weight="normal">e</text>
<text x="342" y="655" fill="#6c6c6c" font-weight="normal">w</text>
<text x="360" y="655" fill="#6c6c6c" font-weight="normal">c</text>
<text x="369" y="655" fill="#6c6c6c" font-weight="normal">o</text>
<text x="378" y="655" fill="#6c6c6c" font-weight="normal">l</text>
<text x="387" y="655" fill="#6c6c6c" font-weight="normal">o</text>
<text x="396" y="655" fill="#6c6c6c" font-weight="normal">r</text>
<text x="405" y="655" fill="#6c6c6c" font-weight="normal">s</text>
<text x="855" y="655" fill="#6c6c6c" font-weight="normal">↓</text>
<text x="873" y="655" fill="#6c6c6c" font-weight="normal">3</text>
<text x="882" y="655" fill="#6c6c6c" font-weight="normal">.</text>
<text x="891" y="655" fill="#6c6c6c" font-weight="normal">1</text>
<text x="900" y="655" fill="#6c6c6c" font-weight="normal">k</text>
<text x="918" y="655" fill="#6c6c6c" font-weight="normal">t</text>
<text x="927" y="655" fill="#6c6c6c" font-weight="normal">o</text>
<text x="936" y="655" fill="#6c6c6c" font-weight="normal">k</text>
<text x="945" y="655" fill="#6c6c6c" font-weight="normal">e</text>
<text x="954" y="655" fill="#6c6c6c" font-weight="normal">n</text>
<text x="963" y="655" fill="#6c6c6c" font-weight="normal">s</text>
<text x="36" y="675" fill="#7aa2f7" font-weight="normal">◇</text>
<text x="54" y="675" fill="#787878" font-weight="normal">6</text>
<text x="72" y="675" fill="#787878" font-weight="normal">p</text>
<text x="81" y="675" fill="#787878" font-weight="normal">l</text>
<text x="90" y="675" fill="#787878" font-weight="normal">u</text>
<text x="99" y="675" fill="#787878" font-weight="normal">g</text>
<text x="108" y="675" fill="#787878" font-weight="normal">i</text>
<text x="117" y="675" fill="#787878" font-weight="normal">n</text>
<text x="126" y="675" fill="#787878" font-weight="normal">s</text>
<text x="153" y="675" fill="#585858" font-weight="normal">·</text>
<text x="180" y="675" fill="#787878" font-weight="normal">2</text>
<text x="189" y="675" fill="#787878" font-weight="normal">4</text>
<text x="198" y="675" fill="#787878" font-weight="normal">,</text>
<text x="207" y="675" fill="#787878" font-weight="normal">0</text>
<text x="216" y="675" fill="#787878" font-weight="normal">0</text>
<text x="225" y="675" fill="#787878" font-weight="normal">0</text>
<text x="243" y="675" fill="#787878" font-weight="normal">s</text>
<text x="252" y="675" fill="#787878" font-weight="normal">a</text>
<text x="261" y="675" fill="#787878" font-weight="normal">t</text>
<text x="270" y="675" fill="#787878" font-weight="normal">s</text>
<text x="855" y="675" fill="#6c6c6c" font-weight="normal">S</text>
<text x="864" y="675" fill="#6c6c6c" font-weight="normal">a</text>
<text x="873" y="675" fill="#6c6c6c" font-weight="normal">m</text>
<text x="882" y="675" fill="#6c6c6c" font-weight="normal">p</text>
<text x="891" y="675" fill="#6c6c6c" font-weight="normal">l</text>
<text x="900" y="675" fill="#6c6c6c" font-weight="normal">e</text>
<text x="918" y="675" fill="#6c6c6c" font-weight="normal">d</text>
<text x="927" y="675" fill="#6c6c6c" font-weight="normal">a</text>
<text x="936" y="675" fill="#6c6c6c" font-weight="normal">t</text>
<text x="945" y="675" fill="#6c6c6c" font-weight="normal">a</text>
<text x="36" y="695" fill="#585858" font-weight="normal">E</text>
<text x="45" y="695" fill="#585858" font-weight="normal">n</text>
<text x="54" y="695" fill="#585858" font-weight="normal">t</text>
<text x="63" y="695" fill="#585858" font-weight="normal">e</text>
<text x="72" y="695" fill="#585858" font-weight="normal">r</text>
<text x="90" y="695" fill="#585858" font-weight="normal">p</text>
<text x="99" y="695" fill="#585858" font-weight="normal">r</text>
<text x="108" y="695" fill="#585858" font-weight="normal">e</text>
<text x="117" y="695" fill="#585858" font-weight="normal">v</text>
<text x="126" y="695" fill="#585858" font-weight="normal">i</text>
<text x="135" y="695" fill="#585858" font-weight="normal">e</text>
<text x="144" y="695" fill="#585858" font-weight="normal">w</text>
<text x="162" y="695" fill="#585858" font-weight="normal">m</text>
<text x="171" y="695" fill="#585858" font-weight="normal">e</text>
<text x="180" y="695" fill="#585858" font-weight="normal">s</text>
<text x="189" y="695" fill="#585858" font-weight="normal">s</text>
<text x="198" y="695" fill="#585858" font-weight="normal">a</text>
<text x="207" y="695" fill="#585858" font-weight="normal">g</text>
<text x="216" y="695" fill="#585858" font-weight="normal">e</text>
<text x="234" y="695" fill="#585858" font-weight="normal">·</text>
<text x="252" y="695" fill="#585858" font-weight="normal">A</text>
<text x="261" y="695" fill="#585858" font-weight="normal">l</text>
<text x="270" y="695" fill="#585858" font-weight="normal">t</text>
<text x="279" y="695" fill="#585858" font-weight="normal">+</text>
<text x="288" y="695" fill="#585858" font-weight="normal">E</text>
<text x="297" y="695" fill="#585858" font-weight="normal">n</text>
<text x="306" y="695" fill="#585858" font-weight="normal">t</text>
<text x="315" y="695" fill="#585858" font-weight="normal">e</text>
<text x="324" y="695" fill="#585858" font-weight="normal">r</text>
<text x="342" y="695" fill="#585858" font-weight="normal">n</text>
<text x="351" y="695" fill="#585858" font-weight="normal">e</text>
<text x="360" y="695" fill="#585858" font-weight="normal">w</text>
<text x="369" y="695" fill="#585858" font-weight="normal">l</text>
<text x="378" y="695" fill="#585858" font-weight="normal">i</text>
<text x="387" y="695" fill="#585858" font-weight="normal">n</text>
<text x="396" y="695" fill="#585858" font-weight="normal">e</text>
<text x="414" y="695" fill="#585858" font-weight="normal">·</text>
<text x="432" y="695" fill="#585858" font-weight="normal">T</text>
<text x="441" y="695" fill="#585858" font-weight="normal">a</text>
<text x="450" y="695" fill="#585858" font-weight="normal">b</text>
<text x="468" y="695" fill="#585858" font-weight="normal">s</text>
<text x="477" y="695" fill="#585858" font-weight="normal">w</text>
<text x="486" y="695" fill="#585858" font-weight="normal">i</text>
<text x="495" y="695" fill="#585858" font-weight="normal">t</text>
<text x="504" y="695" fill="#585858" font-weight="normal">c</text>
<text x="513" y="695" fill="#585858" font-weight="normal">h</text>
<text x="531" y="695" fill="#585858" font-weight="normal">v</text>
<text x="540" y="695" fill="#585858" font-weight="normal">i</text>
<text x="549" y="695" fill="#585858" font-weight="normal">e</text>
<text x="558" y="695" fill="#585858" font-weight="normal">w</text>
<text x="576" y="695" fill="#585858" font-weight="normal">·</text>
<text x="594" y="695" fill="#585858" font-weight="normal">P</text>
<text x="603" y="695" fill="#585858" font-weight="normal">g</text>
<text x="612" y="695" fill="#585858" font-weight="normal">U</text>
<text x="621" y="695" fill="#585858" font-weight="normal">p</text>
<text x="630" y="695" fill="#585858" font-weight="normal">/</text>
<text x="639" y="695" fill="#585858" font-weight="normal">P</text>
<text x="648" y="695" fill="#585858" font-weight="normal">g</text>
<text x="657" y="695" fill="#585858" font-weight="normal">D</text>
<text x="666" y="695" fill="#585858" font-weight="normal">n</text>
<text x="684" y="695" fill="#585858" font-weight="normal">s</text>
<text x="693" y="695" fill="#585858" font-weight="normal">c</text>
<text x="702" y="695" fill="#585858" font-weight="normal">r</text>
<text x="711" y="695" fill="#585858" font-weight="normal">o</text>
<text x="720" y="695" fill="#585858" font-weight="normal">l</text>
<text x="729" y="695" fill="#585858" font-weight="normal">l</text>
<text x="747" y="695" fill="#585858" font-weight="normal">·</text>
<text x="765" y="695" fill="#585858" font-weight="normal">C</text>
<text x="774" y="695" fill="#585858" font-weight="normal">t</text>
<text x="783" y="695" fill="#585858" font-weight="normal">r</text>
<text x="792" y="695" fill="#585858" font-weight="normal">l</text>
<text x="801" y="695" fill="#585858" font-weight="normal">+</text>
<text x="810" y="695" fill="#585858" font-weight="normal">C</text>
<text x="828" y="695" fill="#585858" font-weight="normal">q</text>
<text x="837" y="695" fill="#585858" font-weight="normal">u</text>
<text x="846" y="695" fill="#585858" font-weight="normal">i</text>
<text x="855" y="695" fill="#585858" font-weight="normal">t</text>
</g>
<rect x="36" y="520" width="2" height="20" fill="#c8c8c8"/>
</svg>
